<?xml version="1.0" standalone="no"?>
 <!DOCTYPE svg PUBLIC "-//W3C//DTD SVG 1.1//EN" 
 "http://www.w3.org/Graphics/SVG/1.1/DTD/svg11.dtd"> 
<svg
  xmlns:svg="http://www.w3.org/2000/svg"
  xmlns="http://www.w3.org/2000/svg"
  xmlns:xlink="http://www.w3.org/1999/xlink"
  version="1.1"
  width="100%" height="100%" viewBox="0.0000 0.0000 20.2946 5.0800">
<title>SVG Image created as 21-0137I_T833-2_MXM-L.svg date 2026/04/15 06:26:00 </title>
  <desc>Image generated by PCBNEW </desc>
<g style="fill:#000000; fill-opacity:1.0000;stroke:#000000; stroke-opacity:1.0000;
stroke-linecap:round; stroke-linejoin:round;"
 transform="translate(0 0) scale(1 1)">
<path style="fill:#C83434; fill-opacity:1.0000; stroke:none;fill-rule:evenodd;"
d="M 8.3962,0.9300
8.3962,0.6252
9.0058,0.6252
9.0058,0.9300
Z" /> 
<path style="fill:#C83434; fill-opacity:1.0000; stroke:none;fill-rule:evenodd;"
d="M 8.3962,1.5800
8.3962,1.2752
9.0058,1.2752
9.0058,1.5800
Z" /> 
<path style="fill:#C83434; fill-opacity:1.0000; stroke:none;fill-rule:evenodd;"
d="M 8.3962,2.2300
8.3962,1.9252
9.0058,1.9252
9.0058,2.2300
Z" /> 
<path style="fill:#C83434; fill-opacity:1.0000; stroke:none;fill-rule:evenodd;"
d="M 8.3962,2.8800
8.3962,2.5752
9.0058,2.5752
9.0058,2.8800
Z" /> 
<path style="fill:#C83434; fill-opacity:1.0000; stroke:none;fill-rule:evenodd;"
d="M 11.2918,2.8800
11.2918,2.5752
11.9014,2.5752
11.9014,2.8800
Z" /> 
<path style="fill:#C83434; fill-opacity:1.0000; stroke:none;fill-rule:evenodd;"
d="M 11.2918,2.2300
11.2918,1.9252
11.9014,1.9252
11.9014,2.2300
Z" /> 
<path style="fill:#C83434; fill-opacity:1.0000; stroke:none;fill-rule:evenodd;"
d="M 11.2918,1.5800
11.2918,1.2752
11.9014,1.2752
11.9014,1.5800
Z" /> 
<path style="fill:#C83434; fill-opacity:1.0000; stroke:none;fill-rule:evenodd;"
d="M 11.2918,0.9300
11.2918,0.6252
11.9014,0.6252
11.9014,0.9300
Z" /> 
<path style="fill:#C83434; fill-opacity:1.0000; stroke:none;fill-rule:evenodd;"
d="M 9.3487,2.9464
9.3487,0.5588
10.9489,0.5588
10.9489,2.9464
Z" /> 
<path style="fill:#D864FF; fill-opacity:0.4000; stroke:none;fill-rule:evenodd;"
d="M 8.3962,0.9300
8.3962,0.6252
9.0058,0.6252
9.0058,0.9300
Z" /> 
<path style="fill:#D864FF; fill-opacity:0.4000; stroke:none;fill-rule:evenodd;"
d="M 8.3962,1.5800
8.3962,1.2752
9.0058,1.2752
9.0058,1.5800
Z" /> 
<path style="fill:#D864FF; fill-opacity:0.4000; stroke:none;fill-rule:evenodd;"
d="M 8.3962,2.2300
8.3962,1.9252
9.0058,1.9252
9.0058,2.2300
Z" /> 
<path style="fill:#D864FF; fill-opacity:0.4000; stroke:none;fill-rule:evenodd;"
d="M 8.3962,2.8800
8.3962,2.5752
9.0058,2.5752
9.0058,2.8800
Z" /> 
<path style="fill:#D864FF; fill-opacity:0.4000; stroke:none;fill-rule:evenodd;"
d="M 11.2918,2.8800
11.2918,2.5752
11.9014,2.5752
11.9014,2.8800
Z" /> 
<path style="fill:#D864FF; fill-opacity:0.4000; stroke:none;fill-rule:evenodd;"
d="M 11.2918,2.2300
11.2918,1.9252
11.9014,1.9252
11.9014,2.2300
Z" /> 
<path style="fill:#D864FF; fill-opacity:0.4000; stroke:none;fill-rule:evenodd;"
d="M 11.2918,1.5800
11.2918,1.2752
11.9014,1.2752
11.9014,1.5800
Z" /> 
<path style="fill:#D864FF; fill-opacity:0.4000; stroke:none;fill-rule:evenodd;"
d="M 11.2918,0.9300
11.2918,0.6252
11.9014,0.6252
11.9014,0.9300
Z" /> 
<path style="fill:#D864FF; fill-opacity:0.4000; stroke:none;fill-rule:evenodd;"
d="M 9.3487,2.9464
9.3487,0.5588
10.9489,0.5588
10.9489,2.9464
Z" /> 
<path style="fill:#B4A09A; fill-opacity:0.9000; stroke:none;fill-rule:evenodd;"
d="M 8.3962,0.9300
8.3962,0.6252
9.0058,0.6252
9.0058,0.9300
Z" /> 
<path style="fill:#B4A09A; fill-opacity:0.9000; stroke:none;fill-rule:evenodd;"
d="M 8.3962,1.5800
8.3962,1.2752
9.0058,1.2752
9.0058,1.5800
Z" /> 
<path style="fill:#B4A09A; fill-opacity:0.9000; stroke:none;fill-rule:evenodd;"
d="M 8.3962,2.2300
8.3962,1.9252
9.0058,1.9252
9.0058,2.2300
Z" /> 
<path style="fill:#B4A09A; fill-opacity:0.9000; stroke:none;fill-rule:evenodd;"
d="M 8.3962,2.8800
8.3962,2.5752
9.0058,2.5752
9.0058,2.8800
Z" /> 
<path style="fill:#B4A09A; fill-opacity:0.9000; stroke:none;fill-rule:evenodd;"
d="M 11.2918,2.8800
11.2918,2.5752
11.9014,2.5752
11.9014,2.8800
Z" /> 
<path style="fill:#B4A09A; fill-opacity:0.9000; stroke:none;fill-rule:evenodd;"
d="M 11.2918,2.2300
11.2918,1.9252
11.9014,1.9252
11.9014,2.2300
Z" /> 
<path style="fill:#B4A09A; fill-opacity:0.9000; stroke:none;fill-rule:evenodd;"
d="M 11.2918,1.5800
11.2918,1.2752
11.9014,1.2752
11.9014,1.5800
Z" /> 
<path style="fill:#B4A09A; fill-opacity:0.9000; stroke:none;fill-rule:evenodd;"
d="M 11.2918,0.9300
11.2918,0.6252
11.9014,0.6252
11.9014,0.9300
Z" /> 
<path style="fill:#B4A09A; fill-opacity:0.9000; stroke:none;fill-rule:evenodd;"
d="M 9.3487,2.9464
9.3487,0.5588
10.9489,0.5588
10.9489,2.9464
Z" /> 
</g>
<g style="fill:none; 
stroke:#F2EDA1; stroke-width:0.1500; stroke-opacity:1; 
stroke-linecap:round; stroke-linejoin:round;">
<text x="10.1488" y="4.7526"
textLength="4.5357" font-size="1.3333" lengthAdjust="spacingAndGlyphs"
text-anchor="middle" opacity="0" stroke-opacity="0">REF**</text>
<g class="stroked-text"><desc>REF**</desc>
<path d="M8.8155 4.7074
L8.4821 4.2312
" />
<path d="M8.2440 4.7074
L8.2440 3.7074
" />
<path d="M8.2440 3.7074
L8.6250 3.7074
" />
<path d="M8.6250 3.7074
L8.7202 3.7550
" />
<path d="M8.7202 3.7550
L8.7679 3.8027
" />
<path d="M8.7679 3.8027
L8.8155 3.8979
" />
<path d="M8.8155 3.8979
L8.8155 4.0408
" />
<path d="M8.8155 4.0408
L8.7679 4.1360
" />
<path d="M8.7679 4.1360
L8.7202 4.1836
" />
<path d="M8.7202 4.1836
L8.6250 4.2312
" />
<path d="M8.6250 4.2312
L8.2440 4.2312
" />
<path d="M9.2440 4.1836
L9.5774 4.1836
" />
<path d="M9.7202 4.7074
L9.2440 4.7074
" />
<path d="M9.2440 4.7074
L9.2440 3.7074
" />
<path d="M9.2440 3.7074
L9.7202 3.7074
" />
<path d="M10.4821 4.1836
L10.1488 4.1836
" />
<path d="M10.1488 4.7074
L10.1488 3.7074
" />
<path d="M10.1488 3.7074
L10.6250 3.7074
" />
<path d="M11.1488 3.7074
L11.1488 3.9455
" />
<path d="M10.9107 3.8503
L11.1488 3.9455
" />
<path d="M11.1488 3.9455
L11.3869 3.8503
" />
<path d="M11.0060 4.1360
L11.1488 3.9455
" />
<path d="M11.1488 3.9455
L11.2917 4.1360
" />
<path d="M11.9107 3.7074
L11.9107 3.9455
" />
<path d="M11.6726 3.8503
L11.9107 3.9455
" />
<path d="M11.9107 3.9455
L12.1488 3.8503
" />
<path d="M11.7679 4.1360
L11.9107 3.9455
" />
<path d="M11.9107 3.9455
L12.0536 4.1360
" />
</g></g>
<g style="fill:none; 
stroke:#F2EDA1; stroke-width:0.1524; stroke-opacity:1; 
stroke-linecap:round; stroke-linejoin:round;">
<path d="M8.4724 3.4290
L11.8252 3.4290
" />
<path d="M11.8252 0.0762
L8.4724 0.0762
" />
<circle cx="7.6954" cy="0.7776" r="0.1016" /> 
</g>
<g style="fill:none; 
stroke:#FF26E2; stroke-width:0.1524; stroke-opacity:1; 
stroke-linecap:round; stroke-linejoin:round;">
<path d="M8.2946 0.5236
L8.4978 0.5236
" />
<path d="M8.2946 2.9816
L8.2946 0.5236
" />
<path d="M8.2946 2.9816
L8.4978 2.9816
" />
<path d="M8.4978 0.1016
L11.7998 0.1016
" />
<path d="M8.4978 0.5236
L8.4978 0.1016
" />
<path d="M8.4978 3.4036
L8.4978 2.9816
" />
<path d="M11.7998 0.1016
L11.7998 0.5236
" />
<path d="M11.7998 2.9816
L11.7998 3.4036
" />
<path d="M11.7998 3.4036
L8.4978 3.4036
" />
<path d="M12.0030 0.5236
L11.7998 0.5236
" />
<path d="M12.0030 0.5236
L12.0030 2.9816
" />
<path d="M12.0030 2.9816
L11.7998 2.9816
" />
</g>
<g style="fill:none; 
stroke:#AFAFAF; stroke-width:0.1500; stroke-opacity:1; 
stroke-linecap:round; stroke-linejoin:round;">
<text x="10.1488" y="2.2526"
textLength="20.2976" font-size="1.3333" lengthAdjust="spacingAndGlyphs"
text-anchor="middle" opacity="0" stroke-opacity="0">21-0137I_T833-2_MXM-L</text>
<g class="stroked-text"><desc>21-0137I_T833-2_MXM-L</desc>
<path d="M0.3155 1.3027
L0.3631 1.2550
" />
<path d="M0.3631 1.2550
L0.4583 1.2074
" />
<path d="M0.4583 1.2074
L0.6964 1.2074
" />
<path d="M0.6964 1.2074
L0.7917 1.2550
" />
<path d="M0.7917 1.2550
L0.8393 1.3027
" />
<path d="M0.8393 1.3027
L0.8869 1.3979
" />
<path d="M0.8869 1.3979
L0.8869 1.4931
" />
<path d="M0.8869 1.4931
L0.8393 1.6360
" />
<path d="M0.8393 1.6360
L0.2679 2.2074
" />
<path d="M0.2679 2.2074
L0.8869 2.2074
" />
<path d="M1.8393 2.2074
L1.2679 2.2074
" />
<path d="M1.5536 2.2074
L1.5536 1.2074
" />
<path d="M1.5536 1.2074
L1.4583 1.3503
" />
<path d="M1.4583 1.3503
L1.3631 1.4455
" />
<path d="M1.3631 1.4455
L1.2679 1.4931
" />
<path d="M2.2679 1.8265
L3.0298 1.8265
" />
<path d="M3.6964 1.2074
L3.7917 1.2074
" />
<path d="M3.7917 1.2074
L3.8869 1.2550
" />
<path d="M3.8869 1.2550
L3.9345 1.3027
" />
<path d="M3.9345 1.3027
L3.9821 1.3979
" />
<path d="M3.9821 1.3979
L4.0298 1.5884
" />
<path d="M4.0298 1.5884
L4.0298 1.8265
" />
<path d="M4.0298 1.8265
L3.9821 2.0169
" />
<path d="M3.9821 2.0169
L3.9345 2.1122
" />
<path d="M3.9345 2.1122
L3.8869 2.1598
" />
<path d="M3.8869 2.1598
L3.7917 2.2074
" />
<path d="M3.7917 2.2074
L3.6964 2.2074
" />
<path d="M3.6964 2.2074
L3.6012 2.1598
" />
<path d="M3.6012 2.1598
L3.5536 2.1122
" />
<path d="M3.5536 2.1122
L3.5060 2.0169
" />
<path d="M3.5060 2.0169
L3.4583 1.8265
" />
<path d="M3.4583 1.8265
L3.4583 1.5884
" />
<path d="M3.4583 1.5884
L3.5060 1.3979
" />
<path d="M3.5060 1.3979
L3.5536 1.3027
" />
<path d="M3.5536 1.3027
L3.6012 1.2550
" />
<path d="M3.6012 1.2550
L3.6964 1.2074
" />
<path d="M4.9821 2.2074
L4.4107 2.2074
" />
<path d="M4.6964 2.2074
L4.6964 1.2074
" />
<path d="M4.6964 1.2074
L4.6012 1.3503
" />
<path d="M4.6012 1.3503
L4.5060 1.4455
" />
<path d="M4.5060 1.4455
L4.4107 1.4931
" />
<path d="M5.3155 1.2074
L5.9345 1.2074
" />
<path d="M5.9345 1.2074
L5.6012 1.5884
" />
<path d="M5.6012 1.5884
L5.7440 1.5884
" />
<path d="M5.7440 1.5884
L5.8393 1.6360
" />
<path d="M5.8393 1.6360
L5.8869 1.6836
" />
<path d="M5.8869 1.6836
L5.9345 1.7788
" />
<path d="M5.9345 1.7788
L5.9345 2.0169
" />
<path d="M5.9345 2.0169
L5.8869 2.1122
" />
<path d="M5.8869 2.1122
L5.8393 2.1598
" />
<path d="M5.8393 2.1598
L5.7440 2.2074
" />
<path d="M5.7440 2.2074
L5.4583 2.2074
" />
<path d="M5.4583 2.2074
L5.3631 2.1598
" />
<path d="M5.3631 2.1598
L5.3155 2.1122
" />
<path d="M6.2679 1.2074
L6.9345 1.2074
" />
<path d="M6.9345 1.2074
L6.5060 2.2074
" />
<path d="M7.3155 2.2074
L7.3155 1.2074
" />
<path d="M7.5536 2.3027
L8.3155 2.3027
" />
<path d="M8.4107 1.2074
L8.9821 1.2074
" />
<path d="M8.6964 2.2074
L8.6964 1.2074
" />
<path d="M9.4583 1.6360
L9.3631 1.5884
" />
<path d="M9.3631 1.5884
L9.3155 1.5408
" />
<path d="M9.3155 1.5408
L9.2679 1.4455
" />
<path d="M9.2679 1.4455
L9.2679 1.3979
" />
<path d="M9.2679 1.3979
L9.3155 1.3027
" />
<path d="M9.3155 1.3027
L9.3631 1.2550
" />
<path d="M9.3631 1.2550
L9.4583 1.2074
" />
<path d="M9.4583 1.2074
L9.6488 1.2074
" />
<path d="M9.6488 1.2074
L9.7440 1.2550
" />
<path d="M9.7440 1.2550
L9.7917 1.3027
" />
<path d="M9.7917 1.3027
L9.8393 1.3979
" />
<path d="M9.8393 1.3979
L9.8393 1.4455
" />
<path d="M9.8393 1.4455
L9.7917 1.5408
" />
<path d="M9.7917 1.5408
L9.7440 1.5884
" />
<path d="M9.7440 1.5884
L9.6488 1.6360
" />
<path d="M9.6488 1.6360
L9.4583 1.6360
" />
<path d="M9.4583 1.6360
L9.3631 1.6836
" />
<path d="M9.3631 1.6836
L9.3155 1.7312
" />
<path d="M9.3155 1.7312
L9.2679 1.8265
" />
<path d="M9.2679 1.8265
L9.2679 2.0169
" />
<path d="M9.2679 2.0169
L9.3155 2.1122
" />
<path d="M9.3155 2.1122
L9.3631 2.1598
" />
<path d="M9.3631 2.1598
L9.4583 2.2074
" />
<path d="M9.4583 2.2074
L9.6488 2.2074
" />
<path d="M9.6488 2.2074
L9.7440 2.1598
" />
<path d="M9.7440 2.1598
L9.7917 2.1122
" />
<path d="M9.7917 2.1122
L9.8393 2.0169
" />
<path d="M9.8393 2.0169
L9.8393 1.8265
" />
<path d="M9.8393 1.8265
L9.7917 1.7312
" />
<path d="M9.7917 1.7312
L9.7440 1.6836
" />
<path d="M9.7440 1.6836
L9.6488 1.6360
" />
<path d="M10.1726 1.2074
L10.7917 1.2074
" />
<path d="M10.7917 1.2074
L10.4583 1.5884
" />
<path d="M10.4583 1.5884
L10.6012 1.5884
" />
<path d="M10.6012 1.5884
L10.6964 1.6360
" />
<path d="M10.6964 1.6360
L10.7440 1.6836
" />
<path d="M10.7440 1.6836
L10.7917 1.7788
" />
<path d="M10.7917 1.7788
L10.7917 2.0169
" />
<path d="M10.7917 2.0169
L10.7440 2.1122
" />
<path d="M10.7440 2.1122
L10.6964 2.1598
" />
<path d="M10.6964 2.1598
L10.6012 2.2074
" />
<path d="M10.6012 2.2074
L10.3155 2.2074
" />
<path d="M10.3155 2.2074
L10.2202 2.1598
" />
<path d="M10.2202 2.1598
L10.1726 2.1122
" />
<path d="M11.1250 1.2074
L11.7440 1.2074
" />
<path d="M11.7440 1.2074
L11.4107 1.5884
" />
<path d="M11.4107 1.5884
L11.5536 1.5884
" />
<path d="M11.5536 1.5884
L11.6488 1.6360
" />
<path d="M11.6488 1.6360
L11.6964 1.6836
" />
<path d="M11.6964 1.6836
L11.7440 1.7788
" />
<path d="M11.7440 1.7788
L11.7440 2.0169
" />
<path d="M11.7440 2.0169
L11.6964 2.1122
" />
<path d="M11.6964 2.1122
L11.6488 2.1598
" />
<path d="M11.6488 2.1598
L11.5536 2.2074
" />
<path d="M11.5536 2.2074
L11.2679 2.2074
" />
<path d="M11.2679 2.2074
L11.1726 2.1598
" />
<path d="M11.1726 2.1598
L11.1250 2.1122
" />
<path d="M12.1726 1.8265
L12.9345 1.8265
" />
<path d="M13.3631 1.3027
L13.4107 1.2550
" />
<path d="M13.4107 1.2550
L13.5060 1.2074
" />
<path d="M13.5060 1.2074
L13.7440 1.2074
" />
<path d="M13.7440 1.2074
L13.8393 1.2550
" />
<path d="M13.8393 1.2550
L13.8869 1.3027
" />
<path d="M13.8869 1.3027
L13.9345 1.3979
" />
<path d="M13.9345 1.3979
L13.9345 1.4931
" />
<path d="M13.9345 1.4931
L13.8869 1.6360
" />
<path d="M13.8869 1.6360
L13.3155 2.2074
" />
<path d="M13.3155 2.2074
L13.9345 2.2074
" />
<path d="M14.1250 2.3027
L14.8869 2.3027
" />
<path d="M15.1250 2.2074
L15.1250 1.2074
" />
<path d="M15.1250 1.2074
L15.4583 1.9217
" />
<path d="M15.4583 1.9217
L15.7917 1.2074
" />
<path d="M15.7917 1.2074
L15.7917 2.2074
" />
<path d="M16.1726 1.2074
L16.8393 2.2074
" />
<path d="M16.8393 1.2074
L16.1726 2.2074
" />
<path d="M17.2202 2.2074
L17.2202 1.2074
" />
<path d="M17.2202 1.2074
L17.5536 1.9217
" />
<path d="M17.5536 1.9217
L17.8869 1.2074
" />
<path d="M17.8869 1.2074
L17.8869 2.2074
" />
<path d="M18.3631 1.8265
L19.1250 1.8265
" />
<path d="M20.0774 2.2074
L19.6012 2.2074
" />
<path d="M19.6012 2.2074
L19.6012 1.2074
" />
</g><text x="10.1488" y="2.2526"
textLength="4.5357" font-size="1.3333" lengthAdjust="spacingAndGlyphs"
text-anchor="middle" opacity="0" stroke-opacity="0">REF**</text>
<g class="stroked-text"><desc>REF**</desc>
<path d="M8.8155 2.2074
L8.4821 1.7312
" />
<path d="M8.2440 2.2074
L8.2440 1.2074
" />
<path d="M8.2440 1.2074
L8.6250 1.2074
" />
<path d="M8.6250 1.2074
L8.7202 1.2550
" />
<path d="M8.7202 1.2550
L8.7679 1.3027
" />
<path d="M8.7679 1.3027
L8.8155 1.3979
" />
<path d="M8.8155 1.3979
L8.8155 1.5408
" />
<path d="M8.8155 1.5408
L8.7679 1.6360
" />
<path d="M8.7679 1.6360
L8.7202 1.6836
" />
<path d="M8.7202 1.6836
L8.6250 1.7312
" />
<path d="M8.6250 1.7312
L8.2440 1.7312
" />
<path d="M9.2440 1.6836
L9.5774 1.6836
" />
<path d="M9.7202 2.2074
L9.2440 2.2074
" />
<path d="M9.2440 2.2074
L9.2440 1.2074
" />
<path d="M9.2440 1.2074
L9.7202 1.2074
" />
<path d="M10.4821 1.6836
L10.1488 1.6836
" />
<path d="M10.1488 2.2074
L10.1488 1.2074
" />
<path d="M10.1488 1.2074
L10.6250 1.2074
" />
<path d="M11.1488 1.2074
L11.1488 1.4455
" />
<path d="M10.9107 1.3503
L11.1488 1.4455
" />
<path d="M11.1488 1.4455
L11.3869 1.3503
" />
<path d="M11.0060 1.6360
L11.1488 1.4455
" />
<path d="M11.1488 1.4455
L11.2917 1.6360
" />
<path d="M11.9107 1.2074
L11.9107 1.4455
" />
<path d="M11.6726 1.3503
L11.9107 1.4455
" />
<path d="M11.9107 1.4455
L12.1488 1.3503
" />
<path d="M11.7679 1.6360
L11.9107 1.4455
" />
<path d="M11.9107 1.4455
L12.0536 1.6360
" />
</g></g>
<g style="fill:none; 
stroke:#AFAFAF; stroke-width:0.0254; stroke-opacity:1; 
stroke-linecap:round; stroke-linejoin:round;">
<path d="M8.5994 0.2032
L8.5994 3.3020
" />
<path d="M8.5994 3.3020
L11.6982 3.3020
" />
<path d="M11.6982 0.2032
L8.5994 0.2032
" />
<path d="M11.6982 3.3020
L11.6982 0.2032
" />
<path d="M9.8440 0.2032 A0.3048 0.3048 0.0 0 0 10.4536 0.2032" />
<circle cx="9.0058" cy="0.7776" r="0.0762" /> 
</g> 
</svg>
