<?xml version="1.0" standalone="no"?>
 <!DOCTYPE svg PUBLIC "-//W3C//DTD SVG 1.1//EN" 
 "http://www.w3.org/Graphics/SVG/1.1/DTD/svg11.dtd"> 
<svg
  xmlns:svg="http://www.w3.org/2000/svg"
  xmlns="http://www.w3.org/2000/svg"
  xmlns:xlink="http://www.w3.org/1999/xlink"
  version="1.1"
  width="100%" height="100%" viewBox="0.0000 0.0000 49.6824 32.0294">
<title>SVG Image created as max15032_unit1.svg date 2026/04/15 06:18:48 </title>
  <desc>Image generated by Eeschema-SVG </desc>
<g style="fill:#000000; fill-opacity:1.0000;stroke:#000000; stroke-opacity:1.0000;
stroke-linecap:round; stroke-linejoin:round;"
 transform="translate(0 0) scale(1 1)">
<path style="fill:none; 
stroke:#840000; stroke-width:0.1270; stroke-opacity:1; 
stroke-linecap:round; stroke-linejoin:round;fill:none"
d="M 11.6205,13.5352
10.5791,14.0559
" /> 
<path style="fill:none; 
stroke:#840000; stroke-width:0.1270; stroke-opacity:1; 
stroke-linecap:round; stroke-linejoin:round;fill:none"
d="M 11.6205,14.5766
10.5791,14.0559
" /> 
<path style="fill:none; 
stroke:#840000; stroke-width:0.1270; stroke-opacity:1; 
stroke-linecap:round; stroke-linejoin:round;fill:none"
d="M 11.6205,19.1359
10.5791,18.6152
" /> 
<path style="fill:none; 
stroke:#840000; stroke-width:0.1270; stroke-opacity:1; 
stroke-linecap:round; stroke-linejoin:round;fill:none"
d="M 11.6205,19.1359
10.5791,19.6566
" /> 
<path style="fill:none; 
stroke:#840000; stroke-width:0.1270; stroke-opacity:1; 
stroke-linecap:round; stroke-linejoin:round;fill:none"
d="M 11.6205,21.6759
10.5791,21.1552
" /> 
<path style="fill:none; 
stroke:#840000; stroke-width:0.1270; stroke-opacity:1; 
stroke-linecap:round; stroke-linejoin:round;fill:none"
d="M 11.6205,21.6759
10.5791,22.1966
" /> 
<path style="fill:none; 
stroke:#840000; stroke-width:0.1270; stroke-opacity:1; 
stroke-linecap:round; stroke-linejoin:round;fill:none"
d="M 12.1412,8.9759
12.1412,29.2959
" /> 
<path style="fill:none; 
stroke:#840000; stroke-width:0.1270; stroke-opacity:1; 
stroke-linecap:round; stroke-linejoin:round;fill:none"
d="M 12.1412,29.2959
37.5412,29.2959
" /> 
<path style="fill:none; 
stroke:#840000; stroke-width:0.1270; stroke-opacity:1; 
stroke-linecap:round; stroke-linejoin:round;fill:none"
d="M 37.5412,8.9759
12.1412,8.9759
" /> 
<path style="fill:none; 
stroke:#840000; stroke-width:0.1270; stroke-opacity:1; 
stroke-linecap:round; stroke-linejoin:round;fill:none"
d="M 37.5412,29.2959
37.5412,8.9759
" /> 
<path style="fill:none; 
stroke:#840000; stroke-width:0.1270; stroke-opacity:1; 
stroke-linecap:round; stroke-linejoin:round;fill:none"
d="M 38.0619,19.1359
39.1033,18.6152
" /> 
<path style="fill:none; 
stroke:#840000; stroke-width:0.1270; stroke-opacity:1; 
stroke-linecap:round; stroke-linejoin:round;fill:none"
d="M 38.0619,19.1359
39.1033,19.6566
" /> 
<path style="fill:none; 
stroke:#840000; stroke-width:0.1270; stroke-opacity:1; 
stroke-linecap:round; stroke-linejoin:round;fill:none"
d="M 38.0619,21.6759
39.1033,21.1552
" /> 
<path style="fill:none; 
stroke:#840000; stroke-width:0.1270; stroke-opacity:1; 
stroke-linecap:round; stroke-linejoin:round;fill:none"
d="M 38.0619,21.6759
39.1033,22.1966
" /> 
<path style="fill:none; 
stroke:#840000; stroke-width:0.1270; stroke-opacity:1; 
stroke-linecap:round; stroke-linejoin:round;fill:none"
d="M 38.0619,24.2159
39.1033,23.6952
" /> 
<path style="fill:none; 
stroke:#840000; stroke-width:0.1270; stroke-opacity:1; 
stroke-linecap:round; stroke-linejoin:round;fill:none"
d="M 38.0619,24.2159
39.1033,24.7366
" /> 
</g>
<g style="fill:none; 
stroke:#840000; stroke-width:0.1524; stroke-opacity:1; 
stroke-linecap:round; stroke-linejoin:round;">
<path d="M12.1412 14.0559
L4.5212 14.0559
" />
</g>
<g style="fill:none; 
stroke:#006464; stroke-width:0.1524; stroke-opacity:1; 
stroke-linecap:round; stroke-linejoin:round;">
<text x="12.3952" y="14.6909"
textLength="2.4408" font-size="1.6933" lengthAdjust="spacingAndGlyphs"
text-anchor="start" opacity="0" stroke-opacity="0">LX</text>
<g class="stroked-text"><desc>LX</desc>
<path d="M13.4025 14.6354
L12.7977 14.6354
" />
<path d="M12.7977 14.6354
L12.7977 13.3654
" />
<path d="M13.7049 13.3654
L14.5515 14.6354
" />
<path d="M14.5515 13.3654
L13.7049 14.6354
" />
</g></g>
<g style="fill:none; 
stroke:#A90000; stroke-width:0.1524; stroke-opacity:1; 
stroke-linecap:round; stroke-linejoin:round;">
<text x="8.3312" y="13.8019"
textLength="1.4127" font-size="1.6933" lengthAdjust="spacingAndGlyphs"
text-anchor="middle" opacity="0" stroke-opacity="0">1</text>
<g class="stroked-text"><desc>1</desc>
<path d="M8.6941 13.6384
L7.9684 13.6384
" />
<path d="M8.3312 13.6384
L8.3312 12.3684
" />
<path d="M8.3312 12.3684
L8.2103 12.5499
" />
<path d="M8.2103 12.5499
L8.0893 12.6708
" />
<path d="M8.0893 12.6708
L7.9684 12.7313
" />
</g></g>
<g style="fill:none; 
stroke:#840000; stroke-width:0.1524; stroke-opacity:1; 
stroke-linecap:round; stroke-linejoin:round;">
<path d="M12.1412 16.5959
L4.5212 16.5959
" />
</g>
<g style="fill:none; 
stroke:#006464; stroke-width:0.1524; stroke-opacity:1; 
stroke-linecap:round; stroke-linejoin:round;">
<text x="12.3952" y="17.2309"
textLength="4.0737" font-size="1.6933" lengthAdjust="spacingAndGlyphs"
text-anchor="start" opacity="0" stroke-opacity="0">GND</text>
<g class="stroked-text"><desc>GND</desc>
<path d="M13.4630 15.9659
L13.3420 15.9054
" />
<path d="M13.3420 15.9054
L13.1606 15.9054
" />
<path d="M13.1606 15.9054
L12.9792 15.9659
" />
<path d="M12.9792 15.9659
L12.8582 16.0869
" />
<path d="M12.8582 16.0869
L12.7977 16.2078
" />
<path d="M12.7977 16.2078
L12.7373 16.4497
" />
<path d="M12.7373 16.4497
L12.7373 16.6311
" />
<path d="M12.7373 16.6311
L12.7977 16.8730
" />
<path d="M12.7977 16.8730
L12.8582 16.9940
" />
<path d="M12.8582 16.9940
L12.9792 17.1150
" />
<path d="M12.9792 17.1150
L13.1606 17.1754
" />
<path d="M13.1606 17.1754
L13.2815 17.1754
" />
<path d="M13.2815 17.1754
L13.4630 17.1150
" />
<path d="M13.4630 17.1150
L13.5234 17.0545
" />
<path d="M13.5234 17.0545
L13.5234 16.6311
" />
<path d="M13.5234 16.6311
L13.2815 16.6311
" />
<path d="M14.0677 17.1754
L14.0677 15.9054
" />
<path d="M14.0677 15.9054
L14.7934 17.1754
" />
<path d="M14.7934 17.1754
L14.7934 15.9054
" />
<path d="M15.3982 17.1754
L15.3982 15.9054
" />
<path d="M15.3982 15.9054
L15.7006 15.9054
" />
<path d="M15.7006 15.9054
L15.8820 15.9659
" />
<path d="M15.8820 15.9659
L16.0030 16.0869
" />
<path d="M16.0030 16.0869
L16.0635 16.2078
" />
<path d="M16.0635 16.2078
L16.1239 16.4497
" />
<path d="M16.1239 16.4497
L16.1239 16.6311
" />
<path d="M16.1239 16.6311
L16.0635 16.8730
" />
<path d="M16.0635 16.8730
L16.0030 16.9940
" />
<path d="M16.0030 16.9940
L15.8820 17.1150
" />
<path d="M15.8820 17.1150
L15.7006 17.1754
" />
<path d="M15.7006 17.1754
L15.3982 17.1754
" />
</g></g>
<g style="fill:none; 
stroke:#A90000; stroke-width:0.1524; stroke-opacity:1; 
stroke-linecap:round; stroke-linejoin:round;">
<text x="8.3312" y="16.3419"
textLength="1.4127" font-size="1.6933" lengthAdjust="spacingAndGlyphs"
text-anchor="middle" opacity="0" stroke-opacity="0">2</text>
<g class="stroked-text"><desc>2</desc>
<path d="M7.9684 15.0294
L8.0288 14.9689
" />
<path d="M8.0288 14.9689
L8.1498 14.9084
" />
<path d="M8.1498 14.9084
L8.4522 14.9084
" />
<path d="M8.4522 14.9084
L8.5731 14.9689
" />
<path d="M8.5731 14.9689
L8.6336 15.0294
" />
<path d="M8.6336 15.0294
L8.6941 15.1503
" />
<path d="M8.6941 15.1503
L8.6941 15.2713
" />
<path d="M8.6941 15.2713
L8.6336 15.4527
" />
<path d="M8.6336 15.4527
L7.9079 16.1784
" />
<path d="M7.9079 16.1784
L8.6941 16.1784
" />
</g></g>
<g style="fill:none; 
stroke:#840000; stroke-width:0.1524; stroke-opacity:1; 
stroke-linecap:round; stroke-linejoin:round;">
<path d="M12.1412 19.1359
L4.5212 19.1359
" />
</g>
<g style="fill:none; 
stroke:#006464; stroke-width:0.1524; stroke-opacity:1; 
stroke-linecap:round; stroke-linejoin:round;">
<text x="12.3952" y="19.7709"
textLength="2.5618" font-size="1.6933" lengthAdjust="spacingAndGlyphs"
text-anchor="start" opacity="0" stroke-opacity="0">FB</text>
<g class="stroked-text"><desc>FB</desc>
<path d="M13.2211 19.0502
L12.7977 19.0502
" />
<path d="M12.7977 19.7154
L12.7977 18.4454
" />
<path d="M12.7977 18.4454
L13.4025 18.4454
" />
<path d="M14.3097 19.0502
L14.4911 19.1107
" />
<path d="M14.4911 19.1107
L14.5516 19.1711
" />
<path d="M14.5516 19.1711
L14.6120 19.2921
" />
<path d="M14.6120 19.2921
L14.6120 19.4735
" />
<path d="M14.6120 19.4735
L14.5516 19.5945
" />
<path d="M14.5516 19.5945
L14.4911 19.6550
" />
<path d="M14.4911 19.6550
L14.3701 19.7154
" />
<path d="M14.3701 19.7154
L13.8863 19.7154
" />
<path d="M13.8863 19.7154
L13.8863 18.4454
" />
<path d="M13.8863 18.4454
L14.3097 18.4454
" />
<path d="M14.3097 18.4454
L14.4306 18.5059
" />
<path d="M14.4306 18.5059
L14.4911 18.5664
" />
<path d="M14.4911 18.5664
L14.5516 18.6873
" />
<path d="M14.5516 18.6873
L14.5516 18.8083
" />
<path d="M14.5516 18.8083
L14.4911 18.9292
" />
<path d="M14.4911 18.9292
L14.4306 18.9897
" />
<path d="M14.4306 18.9897
L14.3097 19.0502
" />
<path d="M14.3097 19.0502
L13.8863 19.0502
" />
</g></g>
<g style="fill:none; 
stroke:#A90000; stroke-width:0.1524; stroke-opacity:1; 
stroke-linecap:round; stroke-linejoin:round;">
<text x="8.3312" y="18.8819"
textLength="1.4127" font-size="1.6933" lengthAdjust="spacingAndGlyphs"
text-anchor="middle" opacity="0" stroke-opacity="0">3</text>
<g class="stroked-text"><desc>3</desc>
<path d="M7.9079 17.4484
L8.6941 17.4484
" />
<path d="M8.6941 17.4484
L8.2707 17.9322
" />
<path d="M8.2707 17.9322
L8.4522 17.9322
" />
<path d="M8.4522 17.9322
L8.5731 17.9927
" />
<path d="M8.5731 17.9927
L8.6336 18.0532
" />
<path d="M8.6336 18.0532
L8.6941 18.1741
" />
<path d="M8.6941 18.1741
L8.6941 18.4765
" />
<path d="M8.6941 18.4765
L8.6336 18.5975
" />
<path d="M8.6336 18.5975
L8.5731 18.6580
" />
<path d="M8.5731 18.6580
L8.4522 18.7184
" />
<path d="M8.4522 18.7184
L8.0893 18.7184
" />
<path d="M8.0893 18.7184
L7.9684 18.6580
" />
<path d="M7.9684 18.6580
L7.9079 18.5975
" />
</g></g>
<g style="fill:none; 
stroke:#840000; stroke-width:0.1524; stroke-opacity:1; 
stroke-linecap:round; stroke-linejoin:round;">
<path d="M12.1412 21.6759
L4.5212 21.6759
" />
</g>
<g style="fill:none; 
stroke:#006464; stroke-width:0.1524; stroke-opacity:1; 
stroke-linecap:round; stroke-linejoin:round;">
<text x="12.3952" y="22.3109"
textLength="6.3113" font-size="1.6933" lengthAdjust="spacingAndGlyphs"
text-anchor="start" opacity="0" stroke-opacity="0">*SHDN</text>
<g class="stroked-text"><desc>*SHDN</desc>
<path d="M12.9792 20.9854
L12.9792 21.2878
" />
<path d="M12.6768 21.1669
L12.9792 21.2878
" />
<path d="M12.9792 21.2878
L13.2815 21.1669
" />
<path d="M12.7977 21.5297
L12.9792 21.2878
" />
<path d="M12.9792 21.2878
L13.1606 21.5297
" />
<path d="M13.7049 22.1950
L13.8863 22.2554
" />
<path d="M13.8863 22.2554
L14.1887 22.2554
" />
<path d="M14.1887 22.2554
L14.3096 22.1950
" />
<path d="M14.3096 22.1950
L14.3701 22.1345
" />
<path d="M14.3701 22.1345
L14.4306 22.0135
" />
<path d="M14.4306 22.0135
L14.4306 21.8926
" />
<path d="M14.4306 21.8926
L14.3701 21.7716
" />
<path d="M14.3701 21.7716
L14.3096 21.7111
" />
<path d="M14.3096 21.7111
L14.1887 21.6507
" />
<path d="M14.1887 21.6507
L13.9468 21.5902
" />
<path d="M13.9468 21.5902
L13.8258 21.5297
" />
<path d="M13.8258 21.5297
L13.7653 21.4692
" />
<path d="M13.7653 21.4692
L13.7049 21.3483
" />
<path d="M13.7049 21.3483
L13.7049 21.2273
" />
<path d="M13.7049 21.2273
L13.7653 21.1064
" />
<path d="M13.7653 21.1064
L13.8258 21.0459
" />
<path d="M13.8258 21.0459
L13.9468 20.9854
" />
<path d="M13.9468 20.9854
L14.2491 20.9854
" />
<path d="M14.2491 20.9854
L14.4306 21.0459
" />
<path d="M14.9748 22.2554
L14.9748 20.9854
" />
<path d="M14.9748 21.5902
L15.7005 21.5902
" />
<path d="M15.7005 22.2554
L15.7005 20.9854
" />
<path d="M16.3053 22.2554
L16.3053 20.9854
" />
<path d="M16.3053 20.9854
L16.6077 20.9854
" />
<path d="M16.6077 20.9854
L16.7891 21.0459
" />
<path d="M16.7891 21.0459
L16.9101 21.1669
" />
<path d="M16.9101 21.1669
L16.9706 21.2878
" />
<path d="M16.9706 21.2878
L17.0310 21.5297
" />
<path d="M17.0310 21.5297
L17.0310 21.7111
" />
<path d="M17.0310 21.7111
L16.9706 21.9530
" />
<path d="M16.9706 21.9530
L16.9101 22.0740
" />
<path d="M16.9101 22.0740
L16.7891 22.1950
" />
<path d="M16.7891 22.1950
L16.6077 22.2554
" />
<path d="M16.6077 22.2554
L16.3053 22.2554
" />
<path d="M17.5753 22.2554
L17.5753 20.9854
" />
<path d="M17.5753 20.9854
L18.3010 22.2554
" />
<path d="M18.3010 22.2554
L18.3010 20.9854
" />
</g></g>
<g style="fill:none; 
stroke:#A90000; stroke-width:0.1524; stroke-opacity:1; 
stroke-linecap:round; stroke-linejoin:round;">
<text x="8.3312" y="21.4219"
textLength="1.4127" font-size="1.6933" lengthAdjust="spacingAndGlyphs"
text-anchor="middle" opacity="0" stroke-opacity="0">4</text>
<g class="stroked-text"><desc>4</desc>
<path d="M8.5731 20.4118
L8.5731 21.2584
" />
<path d="M8.2707 19.9280
L7.9684 20.8351
" />
<path d="M7.9684 20.8351
L8.7545 20.8351
" />
</g></g>
<g style="fill:none; 
stroke:#840000; stroke-width:0.1524; stroke-opacity:1; 
stroke-linecap:round; stroke-linejoin:round;">
<path d="M37.5412 14.0559
L45.1612 14.0559
" />
</g>
<g style="fill:none; 
stroke:#006464; stroke-width:0.1524; stroke-opacity:1; 
stroke-linecap:round; stroke-linejoin:round;">
<text x="37.2872" y="14.6909"
textLength="4.9808" font-size="1.6933" lengthAdjust="spacingAndGlyphs"
text-anchor="end" opacity="0" stroke-opacity="0">EPAD</text>
<g class="stroked-text"><desc>EPAD</desc>
<path d="M32.7117 13.9702
L33.1351 13.9702
" />
<path d="M33.3165 14.6354
L32.7117 14.6354
" />
<path d="M32.7117 14.6354
L32.7117 13.3654
" />
<path d="M32.7117 13.3654
L33.3165 13.3654
" />
<path d="M33.8607 14.6354
L33.8607 13.3654
" />
<path d="M33.8607 13.3654
L34.3445 13.3654
" />
<path d="M34.3445 13.3654
L34.4655 13.4259
" />
<path d="M34.4655 13.4259
L34.5260 13.4864
" />
<path d="M34.5260 13.4864
L34.5864 13.6073
" />
<path d="M34.5864 13.6073
L34.5864 13.7888
" />
<path d="M34.5864 13.7888
L34.5260 13.9097
" />
<path d="M34.5260 13.9097
L34.4655 13.9702
" />
<path d="M34.4655 13.9702
L34.3445 14.0307
" />
<path d="M34.3445 14.0307
L33.8607 14.0307
" />
<path d="M35.0703 14.2726
L35.6750 14.2726
" />
<path d="M34.9493 14.6354
L35.3726 13.3654
" />
<path d="M35.3726 13.3654
L35.7960 14.6354
" />
<path d="M36.2193 14.6354
L36.2193 13.3654
" />
<path d="M36.2193 13.3654
L36.5217 13.3654
" />
<path d="M36.5217 13.3654
L36.7031 13.4259
" />
<path d="M36.7031 13.4259
L36.8241 13.5469
" />
<path d="M36.8241 13.5469
L36.8846 13.6678
" />
<path d="M36.8846 13.6678
L36.9450 13.9097
" />
<path d="M36.9450 13.9097
L36.9450 14.0911
" />
<path d="M36.9450 14.0911
L36.8846 14.3330
" />
<path d="M36.8846 14.3330
L36.8241 14.4540
" />
<path d="M36.8241 14.4540
L36.7031 14.5750
" />
<path d="M36.7031 14.5750
L36.5217 14.6354
" />
<path d="M36.5217 14.6354
L36.2193 14.6354
" />
</g></g>
<g style="fill:none; 
stroke:#A90000; stroke-width:0.1524; stroke-opacity:1; 
stroke-linecap:round; stroke-linejoin:round;">
<text x="41.3512" y="13.8019"
textLength="1.4127" font-size="1.6933" lengthAdjust="spacingAndGlyphs"
text-anchor="middle" opacity="0" stroke-opacity="0">9</text>
<g class="stroked-text"><desc>9</desc>
<path d="M41.1093 13.6384
L41.3512 13.6384
" />
<path d="M41.3512 13.6384
L41.4722 13.5780
" />
<path d="M41.4722 13.5780
L41.5326 13.5175
" />
<path d="M41.5326 13.5175
L41.6536 13.3360
" />
<path d="M41.6536 13.3360
L41.7141 13.0941
" />
<path d="M41.7141 13.0941
L41.7141 12.6103
" />
<path d="M41.7141 12.6103
L41.6536 12.4894
" />
<path d="M41.6536 12.4894
L41.5931 12.4289
" />
<path d="M41.5931 12.4289
L41.4722 12.3684
" />
<path d="M41.4722 12.3684
L41.2303 12.3684
" />
<path d="M41.2303 12.3684
L41.1093 12.4289
" />
<path d="M41.1093 12.4289
L41.0488 12.4894
" />
<path d="M41.0488 12.4894
L40.9884 12.6103
" />
<path d="M40.9884 12.6103
L40.9884 12.9127
" />
<path d="M40.9884 12.9127
L41.0488 13.0337
" />
<path d="M41.0488 13.0337
L41.1093 13.0941
" />
<path d="M41.1093 13.0941
L41.2303 13.1546
" />
<path d="M41.2303 13.1546
L41.4722 13.1546
" />
<path d="M41.4722 13.1546
L41.5931 13.0941
" />
<path d="M41.5931 13.0941
L41.6536 13.0337
" />
<path d="M41.6536 13.0337
L41.7141 12.9127
" />
</g></g>
<g style="fill:none; 
stroke:#840000; stroke-width:0.1524; stroke-opacity:1; 
stroke-linecap:round; stroke-linejoin:round;">
<path d="M37.5412 16.5959
L45.1612 16.5959
" />
</g>
<g style="fill:none; 
stroke:#006464; stroke-width:0.1524; stroke-opacity:1; 
stroke-linecap:round; stroke-linejoin:round;">
<text x="37.2872" y="17.2309"
textLength="5.3437" font-size="1.6933" lengthAdjust="spacingAndGlyphs"
text-anchor="end" opacity="0" stroke-opacity="0">PGND</text>
<g class="stroked-text"><desc>PGND</desc>
<path d="M32.3488 17.1754
L32.3488 15.9054
" />
<path d="M32.3488 15.9054
L32.8326 15.9054
" />
<path d="M32.8326 15.9054
L32.9536 15.9659
" />
<path d="M32.9536 15.9659
L33.0141 16.0264
" />
<path d="M33.0141 16.0264
L33.0745 16.1473
" />
<path d="M33.0745 16.1473
L33.0745 16.3288
" />
<path d="M33.0745 16.3288
L33.0141 16.4497
" />
<path d="M33.0141 16.4497
L32.9536 16.5102
" />
<path d="M32.9536 16.5102
L32.8326 16.5707
" />
<path d="M32.8326 16.5707
L32.3488 16.5707
" />
<path d="M34.2841 15.9659
L34.1631 15.9054
" />
<path d="M34.1631 15.9054
L33.9817 15.9054
" />
<path d="M33.9817 15.9054
L33.8003 15.9659
" />
<path d="M33.8003 15.9659
L33.6793 16.0869
" />
<path d="M33.6793 16.0869
L33.6188 16.2078
" />
<path d="M33.6188 16.2078
L33.5584 16.4497
" />
<path d="M33.5584 16.4497
L33.5584 16.6311
" />
<path d="M33.5584 16.6311
L33.6188 16.8730
" />
<path d="M33.6188 16.8730
L33.6793 16.9940
" />
<path d="M33.6793 16.9940
L33.8003 17.1150
" />
<path d="M33.8003 17.1150
L33.9817 17.1754
" />
<path d="M33.9817 17.1754
L34.1026 17.1754
" />
<path d="M34.1026 17.1754
L34.2841 17.1150
" />
<path d="M34.2841 17.1150
L34.3445 17.0545
" />
<path d="M34.3445 17.0545
L34.3445 16.6311
" />
<path d="M34.3445 16.6311
L34.1026 16.6311
" />
<path d="M34.8888 17.1754
L34.8888 15.9054
" />
<path d="M34.8888 15.9054
L35.6145 17.1754
" />
<path d="M35.6145 17.1754
L35.6145 15.9054
" />
<path d="M36.2193 17.1754
L36.2193 15.9054
" />
<path d="M36.2193 15.9054
L36.5217 15.9054
" />
<path d="M36.5217 15.9054
L36.7031 15.9659
" />
<path d="M36.7031 15.9659
L36.8241 16.0869
" />
<path d="M36.8241 16.0869
L36.8846 16.2078
" />
<path d="M36.8846 16.2078
L36.9450 16.4497
" />
<path d="M36.9450 16.4497
L36.9450 16.6311
" />
<path d="M36.9450 16.6311
L36.8846 16.8730
" />
<path d="M36.8846 16.8730
L36.8241 16.9940
" />
<path d="M36.8241 16.9940
L36.7031 17.1150
" />
<path d="M36.7031 17.1150
L36.5217 17.1754
" />
<path d="M36.5217 17.1754
L36.2193 17.1754
" />
</g></g>
<g style="fill:none; 
stroke:#A90000; stroke-width:0.1524; stroke-opacity:1; 
stroke-linecap:round; stroke-linejoin:round;">
<text x="41.3512" y="16.3419"
textLength="1.4127" font-size="1.6933" lengthAdjust="spacingAndGlyphs"
text-anchor="middle" opacity="0" stroke-opacity="0">8</text>
<g class="stroked-text"><desc>8</desc>
<path d="M41.2303 15.4527
L41.1093 15.3922
" />
<path d="M41.1093 15.3922
L41.0488 15.3318
" />
<path d="M41.0488 15.3318
L40.9884 15.2108
" />
<path d="M40.9884 15.2108
L40.9884 15.1503
" />
<path d="M40.9884 15.1503
L41.0488 15.0294
" />
<path d="M41.0488 15.0294
L41.1093 14.9689
" />
<path d="M41.1093 14.9689
L41.2303 14.9084
" />
<path d="M41.2303 14.9084
L41.4722 14.9084
" />
<path d="M41.4722 14.9084
L41.5931 14.9689
" />
<path d="M41.5931 14.9689
L41.6536 15.0294
" />
<path d="M41.6536 15.0294
L41.7141 15.1503
" />
<path d="M41.7141 15.1503
L41.7141 15.2108
" />
<path d="M41.7141 15.2108
L41.6536 15.3318
" />
<path d="M41.6536 15.3318
L41.5931 15.3922
" />
<path d="M41.5931 15.3922
L41.4722 15.4527
" />
<path d="M41.4722 15.4527
L41.2303 15.4527
" />
<path d="M41.2303 15.4527
L41.1093 15.5132
" />
<path d="M41.1093 15.5132
L41.0488 15.5737
" />
<path d="M41.0488 15.5737
L40.9884 15.6946
" />
<path d="M40.9884 15.6946
L40.9884 15.9365
" />
<path d="M40.9884 15.9365
L41.0488 16.0575
" />
<path d="M41.0488 16.0575
L41.1093 16.1180
" />
<path d="M41.1093 16.1180
L41.2303 16.1784
" />
<path d="M41.2303 16.1784
L41.4722 16.1784
" />
<path d="M41.4722 16.1784
L41.5931 16.1180
" />
<path d="M41.5931 16.1180
L41.6536 16.0575
" />
<path d="M41.6536 16.0575
L41.7141 15.9365
" />
<path d="M41.7141 15.9365
L41.7141 15.6946
" />
<path d="M41.7141 15.6946
L41.6536 15.5737
" />
<path d="M41.6536 15.5737
L41.5931 15.5132
" />
<path d="M41.5931 15.5132
L41.4722 15.4527
" />
</g></g>
<g style="fill:none; 
stroke:#840000; stroke-width:0.1524; stroke-opacity:1; 
stroke-linecap:round; stroke-linejoin:round;">
<path d="M37.5412 19.1359
L45.1612 19.1359
" />
</g>
<g style="fill:none; 
stroke:#006464; stroke-width:0.1524; stroke-opacity:1; 
stroke-linecap:round; stroke-linejoin:round;">
<text x="37.2872" y="19.7709"
textLength="2.7432" font-size="1.6933" lengthAdjust="spacingAndGlyphs"
text-anchor="end" opacity="0" stroke-opacity="0">CP</text>
<g class="stroked-text"><desc>CP</desc>
<path d="M35.6750 19.5945
L35.6146 19.6550
" />
<path d="M35.6146 19.6550
L35.4331 19.7154
" />
<path d="M35.4331 19.7154
L35.3122 19.7154
" />
<path d="M35.3122 19.7154
L35.1308 19.6550
" />
<path d="M35.1308 19.6550
L35.0098 19.5340
" />
<path d="M35.0098 19.5340
L34.9493 19.4130
" />
<path d="M34.9493 19.4130
L34.8889 19.1711
" />
<path d="M34.8889 19.1711
L34.8889 18.9897
" />
<path d="M34.8889 18.9897
L34.9493 18.7478
" />
<path d="M34.9493 18.7478
L35.0098 18.6269
" />
<path d="M35.0098 18.6269
L35.1308 18.5059
" />
<path d="M35.1308 18.5059
L35.3122 18.4454
" />
<path d="M35.3122 18.4454
L35.4331 18.4454
" />
<path d="M35.4331 18.4454
L35.6146 18.5059
" />
<path d="M35.6146 18.5059
L35.6750 18.5664
" />
<path d="M36.2193 19.7154
L36.2193 18.4454
" />
<path d="M36.2193 18.4454
L36.7031 18.4454
" />
<path d="M36.7031 18.4454
L36.8241 18.5059
" />
<path d="M36.8241 18.5059
L36.8846 18.5664
" />
<path d="M36.8846 18.5664
L36.9450 18.6873
" />
<path d="M36.9450 18.6873
L36.9450 18.8688
" />
<path d="M36.9450 18.8688
L36.8846 18.9897
" />
<path d="M36.8846 18.9897
L36.8241 19.0502
" />
<path d="M36.8241 19.0502
L36.7031 19.1107
" />
<path d="M36.7031 19.1107
L36.2193 19.1107
" />
</g></g>
<g style="fill:none; 
stroke:#A90000; stroke-width:0.1524; stroke-opacity:1; 
stroke-linecap:round; stroke-linejoin:round;">
<text x="41.3512" y="18.8819"
textLength="1.4127" font-size="1.6933" lengthAdjust="spacingAndGlyphs"
text-anchor="middle" opacity="0" stroke-opacity="0">7</text>
<g class="stroked-text"><desc>7</desc>
<path d="M40.9279 17.4484
L41.7745 17.4484
" />
<path d="M41.7745 17.4484
L41.2303 18.7184
" />
</g></g>
<g style="fill:none; 
stroke:#840000; stroke-width:0.1524; stroke-opacity:1; 
stroke-linecap:round; stroke-linejoin:round;">
<path d="M37.5412 21.6759
L45.1612 21.6759
" />
</g>
<g style="fill:none; 
stroke:#006464; stroke-width:0.1524; stroke-opacity:1; 
stroke-linecap:round; stroke-linejoin:round;">
<text x="37.2872" y="22.3109"
textLength="2.8037" font-size="1.6933" lengthAdjust="spacingAndGlyphs"
text-anchor="end" opacity="0" stroke-opacity="0">CN</text>
<g class="stroked-text"><desc>CN</desc>
<path d="M35.6145 22.1345
L35.5541 22.1950
" />
<path d="M35.5541 22.1950
L35.3726 22.2554
" />
<path d="M35.3726 22.2554
L35.2517 22.2554
" />
<path d="M35.2517 22.2554
L35.0703 22.1950
" />
<path d="M35.0703 22.1950
L34.9493 22.0740
" />
<path d="M34.9493 22.0740
L34.8888 21.9530
" />
<path d="M34.8888 21.9530
L34.8284 21.7111
" />
<path d="M34.8284 21.7111
L34.8284 21.5297
" />
<path d="M34.8284 21.5297
L34.8888 21.2878
" />
<path d="M34.8888 21.2878
L34.9493 21.1669
" />
<path d="M34.9493 21.1669
L35.0703 21.0459
" />
<path d="M35.0703 21.0459
L35.2517 20.9854
" />
<path d="M35.2517 20.9854
L35.3726 20.9854
" />
<path d="M35.3726 20.9854
L35.5541 21.0459
" />
<path d="M35.5541 21.0459
L35.6145 21.1064
" />
<path d="M36.1588 22.2554
L36.1588 20.9854
" />
<path d="M36.1588 20.9854
L36.8845 22.2554
" />
<path d="M36.8845 22.2554
L36.8845 20.9854
" />
</g></g>
<g style="fill:none; 
stroke:#A90000; stroke-width:0.1524; stroke-opacity:1; 
stroke-linecap:round; stroke-linejoin:round;">
<text x="41.3512" y="21.4219"
textLength="1.4127" font-size="1.6933" lengthAdjust="spacingAndGlyphs"
text-anchor="middle" opacity="0" stroke-opacity="0">6</text>
<g class="stroked-text"><desc>6</desc>
<path d="M41.5931 19.9884
L41.3512 19.9884
" />
<path d="M41.3512 19.9884
L41.2303 20.0489
" />
<path d="M41.2303 20.0489
L41.1698 20.1094
" />
<path d="M41.1698 20.1094
L41.0488 20.2908
" />
<path d="M41.0488 20.2908
L40.9884 20.5327
" />
<path d="M40.9884 20.5327
L40.9884 21.0165
" />
<path d="M40.9884 21.0165
L41.0488 21.1375
" />
<path d="M41.0488 21.1375
L41.1093 21.1980
" />
<path d="M41.1093 21.1980
L41.2303 21.2584
" />
<path d="M41.2303 21.2584
L41.4722 21.2584
" />
<path d="M41.4722 21.2584
L41.5931 21.1980
" />
<path d="M41.5931 21.1980
L41.6536 21.1375
" />
<path d="M41.6536 21.1375
L41.7141 21.0165
" />
<path d="M41.7141 21.0165
L41.7141 20.7141
" />
<path d="M41.7141 20.7141
L41.6536 20.5932
" />
<path d="M41.6536 20.5932
L41.5931 20.5327
" />
<path d="M41.5931 20.5327
L41.4722 20.4722
" />
<path d="M41.4722 20.4722
L41.2303 20.4722
" />
<path d="M41.2303 20.4722
L41.1093 20.5327
" />
<path d="M41.1093 20.5327
L41.0488 20.5932
" />
<path d="M41.0488 20.5932
L40.9884 20.7141
" />
</g></g>
<g style="fill:none; 
stroke:#840000; stroke-width:0.1524; stroke-opacity:1; 
stroke-linecap:round; stroke-linejoin:round;">
<path d="M37.5412 24.2159
L45.1612 24.2159
" />
</g>
<g style="fill:none; 
stroke:#006464; stroke-width:0.1524; stroke-opacity:1; 
stroke-linecap:round; stroke-linejoin:round;">
<text x="37.2872" y="24.8509"
textLength="2.1385" font-size="1.6933" lengthAdjust="spacingAndGlyphs"
text-anchor="end" opacity="0" stroke-opacity="0">IN</text>
<g class="stroked-text"><desc>IN</desc>
<path d="M35.5540 24.7954
L35.5540 23.5254
" />
<path d="M36.1588 24.7954
L36.1588 23.5254
" />
<path d="M36.1588 23.5254
L36.8845 24.7954
" />
<path d="M36.8845 24.7954
L36.8845 23.5254
" />
</g></g>
<g style="fill:none; 
stroke:#A90000; stroke-width:0.1524; stroke-opacity:1; 
stroke-linecap:round; stroke-linejoin:round;">
<text x="41.3512" y="23.9619"
textLength="1.4127" font-size="1.6933" lengthAdjust="spacingAndGlyphs"
text-anchor="middle" opacity="0" stroke-opacity="0">5</text>
<g class="stroked-text"><desc>5</desc>
<path d="M41.6536 22.5284
L41.0488 22.5284
" />
<path d="M41.0488 22.5284
L40.9884 23.1332
" />
<path d="M40.9884 23.1332
L41.0488 23.0727
" />
<path d="M41.0488 23.0727
L41.1698 23.0122
" />
<path d="M41.1698 23.0122
L41.4722 23.0122
" />
<path d="M41.4722 23.0122
L41.5931 23.0727
" />
<path d="M41.5931 23.0727
L41.6536 23.1332
" />
<path d="M41.6536 23.1332
L41.7141 23.2541
" />
<path d="M41.7141 23.2541
L41.7141 23.5565
" />
<path d="M41.7141 23.5565
L41.6536 23.6775
" />
<path d="M41.6536 23.6775
L41.5931 23.7380
" />
<path d="M41.5931 23.7380
L41.4722 23.7984
" />
<path d="M41.4722 23.7984
L41.1698 23.7984
" />
<path d="M41.1698 23.7984
L41.0488 23.7380
" />
<path d="M41.0488 23.7380
L40.9884 23.6775
" />
</g></g>
<g style="fill:none; 
stroke:#006464; stroke-width:0.1524; stroke-opacity:1; 
stroke-linecap:round; stroke-linejoin:round;">
<text x="0.0000" y="-11.3568"
textLength="3.0553" font-size="2.0320" lengthAdjust="spacingAndGlyphs"
text-anchor="middle" opacity="0" stroke-opacity="0">U?</text>
<g class="stroked-text"><desc>U?</desc>
<path d="M-1.0886 -12.9457
L-1.0886 -11.7120
" />
<path d="M-1.0886 -11.7120
L-1.0160 -11.5668
" />
<path d="M-1.0160 -11.5668
L-0.9434 -11.4943
" />
<path d="M-0.9434 -11.4943
L-0.7983 -11.4217
" />
<path d="M-0.7983 -11.4217
L-0.5080 -11.4217
" />
<path d="M-0.5080 -11.4217
L-0.3629 -11.4943
" />
<path d="M-0.3629 -11.4943
L-0.2903 -11.5668
" />
<path d="M-0.2903 -11.5668
L-0.2177 -11.7120
" />
<path d="M-0.2177 -11.7120
L-0.2177 -12.9457
" />
<path d="M0.7257 -11.5668
L0.7983 -11.4943
" />
<path d="M0.7983 -11.4943
L0.7257 -11.4217
" />
<path d="M0.7257 -11.4217
L0.6532 -11.4943
" />
<path d="M0.6532 -11.4943
L0.7257 -11.5668
" />
<path d="M0.7257 -11.5668
L0.7257 -11.4217
" />
<path d="M0.4354 -12.8731
L0.5806 -12.9457
" />
<path d="M0.5806 -12.9457
L0.9434 -12.9457
" />
<path d="M0.9434 -12.9457
L1.0886 -12.8731
" />
<path d="M1.0886 -12.8731
L1.1612 -12.7280
" />
<path d="M1.1612 -12.7280
L1.1612 -12.5828
" />
<path d="M1.1612 -12.5828
L1.0886 -12.4377
" />
<path d="M1.0886 -12.4377
L1.0160 -12.3651
" />
<path d="M1.0160 -12.3651
L0.8709 -12.2925
" />
<path d="M0.8709 -12.2925
L0.7983 -12.2200
" />
<path d="M0.7983 -12.2200
L0.7257 -12.0748
" />
<path d="M0.7257 -12.0748
L0.7257 -12.0023
" />
</g><text x="0.0000" y="-8.8168"
textLength="12.0540" font-size="2.0320" lengthAdjust="spacingAndGlyphs"
text-anchor="middle" opacity="0" stroke-opacity="0">max15032</text>
<g class="stroked-text"><desc>max15032</desc>
<path d="M-5.5880 -8.8817
L-5.5880 -9.8977
" />
<path d="M-5.5880 -9.7525
L-5.5154 -9.8251
" />
<path d="M-5.5154 -9.8251
L-5.3703 -9.8977
" />
<path d="M-5.3703 -9.8977
L-5.1526 -9.8977
" />
<path d="M-5.1526 -9.8977
L-5.0074 -9.8251
" />
<path d="M-5.0074 -9.8251
L-4.9348 -9.6800
" />
<path d="M-4.9348 -9.6800
L-4.9348 -8.8817
" />
<path d="M-4.9348 -9.6800
L-4.8623 -9.8251
" />
<path d="M-4.8623 -9.8251
L-4.7171 -9.8977
" />
<path d="M-4.7171 -9.8977
L-4.4994 -9.8977
" />
<path d="M-4.4994 -9.8977
L-4.3543 -9.8251
" />
<path d="M-4.3543 -9.8251
L-4.2817 -9.6800
" />
<path d="M-4.2817 -9.6800
L-4.2817 -8.8817
" />
<path d="M-2.9028 -8.8817
L-2.9028 -9.6800
" />
<path d="M-2.9028 -9.6800
L-2.9754 -9.8251
" />
<path d="M-2.9754 -9.8251
L-3.1206 -9.8977
" />
<path d="M-3.1206 -9.8977
L-3.4108 -9.8977
" />
<path d="M-3.4108 -9.8977
L-3.5560 -9.8251
" />
<path d="M-2.9028 -8.9543
L-3.0480 -8.8817
" />
<path d="M-3.0480 -8.8817
L-3.4108 -8.8817
" />
<path d="M-3.4108 -8.8817
L-3.5560 -8.9543
" />
<path d="M-3.5560 -8.9543
L-3.6286 -9.0994
" />
<path d="M-3.6286 -9.0994
L-3.6286 -9.2445
" />
<path d="M-3.6286 -9.2445
L-3.5560 -9.3897
" />
<path d="M-3.5560 -9.3897
L-3.4108 -9.4623
" />
<path d="M-3.4108 -9.4623
L-3.0480 -9.4623
" />
<path d="M-3.0480 -9.4623
L-2.9028 -9.5348
" />
<path d="M-2.3222 -8.8817
L-1.5239 -9.8977
" />
<path d="M-2.3222 -9.8977
L-1.5239 -8.8817
" />
<path d="M-0.1451 -8.8817
L-1.0160 -8.8817
" />
<path d="M-0.5805 -8.8817
L-0.5805 -10.4057
" />
<path d="M-0.5805 -10.4057
L-0.7257 -10.1880
" />
<path d="M-0.7257 -10.1880
L-0.8708 -10.0428
" />
<path d="M-0.8708 -10.0428
L-1.0160 -9.9703
" />
<path d="M1.2337 -10.4057
L0.5080 -10.4057
" />
<path d="M0.5080 -10.4057
L0.4354 -9.6800
" />
<path d="M0.4354 -9.6800
L0.5080 -9.7525
" />
<path d="M0.5080 -9.7525
L0.6532 -9.8251
" />
<path d="M0.6532 -9.8251
L1.0160 -9.8251
" />
<path d="M1.0160 -9.8251
L1.1612 -9.7525
" />
<path d="M1.1612 -9.7525
L1.2337 -9.6800
" />
<path d="M1.2337 -9.6800
L1.3063 -9.5348
" />
<path d="M1.3063 -9.5348
L1.3063 -9.1720
" />
<path d="M1.3063 -9.1720
L1.2337 -9.0268
" />
<path d="M1.2337 -9.0268
L1.1612 -8.9543
" />
<path d="M1.1612 -8.9543
L1.0160 -8.8817
" />
<path d="M1.0160 -8.8817
L0.6532 -8.8817
" />
<path d="M0.6532 -8.8817
L0.5080 -8.9543
" />
<path d="M0.5080 -8.9543
L0.4354 -9.0268
" />
<path d="M2.2497 -10.4057
L2.3948 -10.4057
" />
<path d="M2.3948 -10.4057
L2.5400 -10.3331
" />
<path d="M2.5400 -10.3331
L2.6126 -10.2605
" />
<path d="M2.6126 -10.2605
L2.6851 -10.1154
" />
<path d="M2.6851 -10.1154
L2.7577 -9.8251
" />
<path d="M2.7577 -9.8251
L2.7577 -9.4623
" />
<path d="M2.7577 -9.4623
L2.6851 -9.1720
" />
<path d="M2.6851 -9.1720
L2.6126 -9.0268
" />
<path d="M2.6126 -9.0268
L2.5400 -8.9543
" />
<path d="M2.5400 -8.9543
L2.3948 -8.8817
" />
<path d="M2.3948 -8.8817
L2.2497 -8.8817
" />
<path d="M2.2497 -8.8817
L2.1046 -8.9543
" />
<path d="M2.1046 -8.9543
L2.0320 -9.0268
" />
<path d="M2.0320 -9.0268
L1.9594 -9.1720
" />
<path d="M1.9594 -9.1720
L1.8868 -9.4623
" />
<path d="M1.8868 -9.4623
L1.8868 -9.8251
" />
<path d="M1.8868 -9.8251
L1.9594 -10.1154
" />
<path d="M1.9594 -10.1154
L2.0320 -10.2605
" />
<path d="M2.0320 -10.2605
L2.1046 -10.3331
" />
<path d="M2.1046 -10.3331
L2.2497 -10.4057
" />
<path d="M3.2657 -10.4057
L4.2091 -10.4057
" />
<path d="M4.2091 -10.4057
L3.7011 -9.8251
" />
<path d="M3.7011 -9.8251
L3.9188 -9.8251
" />
<path d="M3.9188 -9.8251
L4.0640 -9.7525
" />
<path d="M4.0640 -9.7525
L4.1365 -9.6800
" />
<path d="M4.1365 -9.6800
L4.2091 -9.5348
" />
<path d="M4.2091 -9.5348
L4.2091 -9.1720
" />
<path d="M4.2091 -9.1720
L4.1365 -9.0268
" />
<path d="M4.1365 -9.0268
L4.0640 -8.9543
" />
<path d="M4.0640 -8.9543
L3.9188 -8.8817
" />
<path d="M3.9188 -8.8817
L3.4834 -8.8817
" />
<path d="M3.4834 -8.8817
L3.3382 -8.9543
" />
<path d="M3.3382 -8.9543
L3.2657 -9.0268
" />
<path d="M4.7896 -10.2605
L4.8622 -10.3331
" />
<path d="M4.8622 -10.3331
L5.0074 -10.4057
" />
<path d="M5.0074 -10.4057
L5.3702 -10.4057
" />
<path d="M5.3702 -10.4057
L5.5154 -10.3331
" />
<path d="M5.5154 -10.3331
L5.5879 -10.2605
" />
<path d="M5.5879 -10.2605
L5.6605 -10.1154
" />
<path d="M5.6605 -10.1154
L5.6605 -9.9703
" />
<path d="M5.6605 -9.9703
L5.5879 -9.7525
" />
<path d="M5.5879 -9.7525
L4.7171 -8.8817
" />
<path d="M4.7171 -8.8817
L5.6605 -8.8817
" />
</g></g> 
</svg>
