<?xml version="1.0" standalone="no"?>
 <!DOCTYPE svg PUBLIC "-//W3C//DTD SVG 1.1//EN" 
 "http://www.w3.org/Graphics/SVG/1.1/DTD/svg11.dtd"> 
<svg
  xmlns:svg="http://www.w3.org/2000/svg"
  xmlns="http://www.w3.org/2000/svg"
  xmlns:xlink="http://www.w3.org/1999/xlink"
  xmlns:inkscape="http://www.inkscape.org/namespaces/inkscape"
  version="1.1"
  width="100%" height="100%" viewBox="0.000000 0.000000 14.274800 2.438400">
<title>SVG Image created as BGA_15_NP50_3X5_155X255X69B31N.svg date 2026-04-16T01:56:13 </title>
  <desc>Image generated by PCBNEW </desc>
<g style="fill:#000000; fill-opacity:1.000000;stroke:#000000; stroke-opacity:1.000000;
stroke-linecap:round; stroke-linejoin:round;"
 transform="translate(0 0) scale(1 1)">
</g>
<g style="fill:#C83434; fill-opacity:1.000000; stroke:none;">
<circle cx="6.145714" cy="0.818310" r="0.175000" /> 
<circle cx="6.645714" cy="0.818310" r="0.175000" /> 
<circle cx="7.145714" cy="0.818310" r="0.175000" /> 
<circle cx="7.645714" cy="0.818310" r="0.175000" /> 
<circle cx="8.145714" cy="0.818310" r="0.175000" /> 
<circle cx="6.145714" cy="1.318310" r="0.175000" /> 
<circle cx="6.645714" cy="1.318310" r="0.175000" /> 
<circle cx="7.145714" cy="1.318310" r="0.175000" /> 
<circle cx="7.645714" cy="1.318310" r="0.175000" /> 
<circle cx="8.145714" cy="1.318310" r="0.175000" /> 
<circle cx="6.145714" cy="1.818310" r="0.175000" /> 
<circle cx="6.645714" cy="1.818310" r="0.175000" /> 
<circle cx="7.145714" cy="1.818310" r="0.175000" /> 
<circle cx="7.645714" cy="1.818310" r="0.175000" /> 
<circle cx="8.145714" cy="1.818310" r="0.175000" /> 
</g>
<g style="fill:#D864FF; fill-opacity:0.400000; stroke:none;">
<circle cx="6.145714" cy="0.818310" r="0.175000" /> 
<circle cx="6.645714" cy="0.818310" r="0.175000" /> 
<circle cx="7.145714" cy="0.818310" r="0.175000" /> 
<circle cx="7.645714" cy="0.818310" r="0.175000" /> 
<circle cx="8.145714" cy="0.818310" r="0.175000" /> 
<circle cx="6.145714" cy="1.318310" r="0.175000" /> 
<circle cx="6.645714" cy="1.318310" r="0.175000" /> 
<circle cx="7.145714" cy="1.318310" r="0.175000" /> 
<circle cx="7.645714" cy="1.318310" r="0.175000" /> 
<circle cx="8.145714" cy="1.318310" r="0.175000" /> 
<circle cx="6.145714" cy="1.818310" r="0.175000" /> 
<circle cx="6.645714" cy="1.818310" r="0.175000" /> 
<circle cx="7.145714" cy="1.818310" r="0.175000" /> 
<circle cx="7.645714" cy="1.818310" r="0.175000" /> 
<circle cx="8.145714" cy="1.818310" r="0.175000" /> 
</g>
<g style="fill:#B4A09A; fill-opacity:0.900000; stroke:none;">
<circle cx="6.145714" cy="0.818310" r="0.175000" /> 
<circle cx="6.645714" cy="0.818310" r="0.175000" /> 
<circle cx="7.145714" cy="0.818310" r="0.175000" /> 
<circle cx="7.645714" cy="0.818310" r="0.175000" /> 
<circle cx="8.145714" cy="0.818310" r="0.175000" /> 
<circle cx="6.145714" cy="1.318310" r="0.175000" /> 
<circle cx="6.645714" cy="1.318310" r="0.175000" /> 
<circle cx="7.145714" cy="1.318310" r="0.175000" /> 
<circle cx="7.645714" cy="1.318310" r="0.175000" /> 
<circle cx="8.145714" cy="1.318310" r="0.175000" /> 
<circle cx="6.145714" cy="1.818310" r="0.175000" /> 
<circle cx="6.645714" cy="1.818310" r="0.175000" /> 
<circle cx="7.145714" cy="1.818310" r="0.175000" /> 
<circle cx="7.645714" cy="1.818310" r="0.175000" /> 
<circle cx="8.145714" cy="1.818310" r="0.175000" /> 
</g>
<g style="fill:none; 
stroke:#F2EDA1; stroke-width:0.050000; stroke-opacity:1; 
stroke-linecap:round; stroke-linejoin:round;">
<text x="7.149214" y="0.304750"
textLength="0.967143" font-size="0.266666" lengthAdjust="spacingAndGlyphs"
text-anchor="middle" opacity="0" stroke-opacity="0">REF**</text>
<g class="stroked-text"><desc>REF**</desc>
<path d="M6.882548 0.294674
L6.815882 0.199436
" />
<path d="M6.768263 0.294674
L6.768263 0.094674
" />
<path d="M6.768263 0.094674
L6.844453 0.094674
" />
<path d="M6.844453 0.094674
L6.863501 0.104198
" />
<path d="M6.863501 0.104198
L6.873024 0.113722
" />
<path d="M6.873024 0.113722
L6.882548 0.132770
" />
<path d="M6.882548 0.132770
L6.882548 0.161341
" />
<path d="M6.882548 0.161341
L6.873024 0.180389
" />
<path d="M6.873024 0.180389
L6.863501 0.189912
" />
<path d="M6.863501 0.189912
L6.844453 0.199436
" />
<path d="M6.844453 0.199436
L6.768263 0.199436
" />
<path d="M6.968263 0.189912
L7.034929 0.189912
" />
<path d="M7.063501 0.294674
L6.968263 0.294674
" />
<path d="M6.968263 0.294674
L6.968263 0.094674
" />
<path d="M6.968263 0.094674
L7.063501 0.094674
" />
<path d="M7.215880 0.189912
L7.149214 0.189912
" />
<path d="M7.149214 0.294674
L7.149214 0.094674
" />
<path d="M7.149214 0.094674
L7.244452 0.094674
" />
<path d="M7.349214 0.094674
L7.349214 0.142293
" />
<path d="M7.301595 0.123246
L7.349214 0.142293
" />
<path d="M7.349214 0.142293
L7.396833 0.123246
" />
<path d="M7.320643 0.180389
L7.349214 0.142293
" />
<path d="M7.349214 0.142293
L7.377785 0.180389
" />
<path d="M7.501595 0.094674
L7.501595 0.142293
" />
<path d="M7.453976 0.123246
L7.501595 0.142293
" />
<path d="M7.501595 0.142293
L7.549214 0.123246
" />
<path d="M7.473024 0.180389
L7.501595 0.142293
" />
<path d="M7.501595 0.142293
L7.530166 0.180389
" />
</g><path d="M5.805714 0.478310
L6.225714 0.478310
" />
<path d="M5.805714 0.898310
L5.805714 0.478310
" />
<path d="M5.805714 1.738310
L5.805714 2.158310
" />
<path d="M5.805714 2.158310
L6.225714 2.158310
" />
<path d="M8.485714 0.478310
L8.065714 0.478310
" />
<path d="M8.485714 0.898310
L8.485714 0.478310
" />
<path d="M8.485714 1.738310
L8.485714 2.158310
" />
<path d="M8.485714 2.158310
L8.065714 2.158310
" />
</g>
<g style="fill:none; 
stroke:#FF26E2; stroke-width:0.050000; stroke-opacity:1; 
stroke-linecap:round; stroke-linejoin:round;">
<path d="M5.545714 0.218310
L8.745714 0.218310
" />
<path d="M5.545714 2.418310
L5.545714 0.218310
" />
<path d="M7.145714 0.968310
L7.145714 1.668310
" />
<path d="M7.495714 1.318310
L6.795714 1.318310
" />
<path d="M8.745714 0.218310
L8.745714 2.418310
" />
<path d="M8.745714 2.418310
L5.545714 2.418310
" />
<circle cx="7.145714" cy="1.318310" r="0.250000" /> 
</g>
<g style="fill:none; 
stroke:#AFAFAF; stroke-width:0.100000; stroke-opacity:1; 
stroke-linecap:round; stroke-linejoin:round;">
<text x="7.145714" y="1.818310"
textLength="4.385715" font-size="1.333333" lengthAdjust="spacingAndGlyphs"
text-anchor="middle" opacity="0" stroke-opacity="0">REF**</text>
<g class="stroked-text"><desc>REF**</desc>
<path d="M5.812381 1.775729
L5.479048 1.299539
" />
<path d="M5.240953 1.775729
L5.240953 0.775730
" />
<path d="M5.240953 0.775730
L5.621905 0.775730
" />
<path d="M5.621905 0.775730
L5.717143 0.823349
" />
<path d="M5.717143 0.823349
L5.764762 0.870968
" />
<path d="M5.764762 0.870968
L5.812381 0.966206
" />
<path d="M5.812381 0.966206
L5.812381 1.109063
" />
<path d="M5.812381 1.109063
L5.764762 1.204301
" />
<path d="M5.764762 1.204301
L5.717143 1.251920
" />
<path d="M5.717143 1.251920
L5.621905 1.299539
" />
<path d="M5.621905 1.299539
L5.240953 1.299539
" />
<path d="M6.240953 1.251920
L6.574286 1.251920
" />
<path d="M6.717143 1.775729
L6.240953 1.775729
" />
<path d="M6.240953 1.775729
L6.240953 0.775730
" />
<path d="M6.240953 0.775730
L6.717143 0.775730
" />
<path d="M7.479047 1.251920
L7.145714 1.251920
" />
<path d="M7.145714 1.775729
L7.145714 0.775730
" />
<path d="M7.145714 0.775730
L7.621904 0.775730
" />
<path d="M8.145714 0.775730
L8.145714 1.013825
" />
<path d="M7.907619 0.918587
L8.145714 1.013825
" />
<path d="M8.145714 1.013825
L8.383809 0.918587
" />
<path d="M8.002857 1.204301
L8.145714 1.013825
" />
<path d="M8.145714 1.013825
L8.288571 1.204301
" />
<path d="M8.907619 0.775730
L8.907619 1.013825
" />
<path d="M8.669524 0.918587
L8.907619 1.013825
" />
<path d="M8.907619 1.013825
L9.145714 0.918587
" />
<path d="M8.764762 1.204301
L8.907619 1.013825
" />
<path d="M8.907619 1.013825
L9.050476 1.204301
" />
</g></g>
<g style="fill:none; 
stroke:#AFAFAF; stroke-width:0.120000; stroke-opacity:1; 
stroke-linecap:round; stroke-linejoin:round;">
<text x="7.145714" y="1.918310"
textLength="14.291428" font-size="1.600000" lengthAdjust="spacingAndGlyphs"
text-anchor="middle" opacity="0" stroke-opacity="0">MAX14574EWL+</text>
<g class="stroked-text"><desc>MAX14574EWL+</desc>
<path d="M0.345715 1.867212
L0.345715 0.667213
" />
<path d="M0.345715 0.667213
L0.745715 1.524355
" />
<path d="M0.745715 1.524355
L1.145715 0.667213
" />
<path d="M1.145715 0.667213
L1.145715 1.867212
" />
<path d="M1.660001 1.524355
L2.231429 1.524355
" />
<path d="M1.545715 1.867212
L1.945715 0.667213
" />
<path d="M1.945715 0.667213
L2.345715 1.867212
" />
<path d="M2.631429 0.667213
L3.431429 1.867212
" />
<path d="M3.431429 0.667213
L2.631429 1.867212
" />
<path d="M4.517143 1.867212
L3.831429 1.867212
" />
<path d="M4.174286 1.867212
L4.174286 0.667213
" />
<path d="M4.174286 0.667213
L4.060000 0.838642
" />
<path d="M4.060000 0.838642
L3.945715 0.952928
" />
<path d="M3.945715 0.952928
L3.831429 1.010070
" />
<path d="M5.545714 1.067213
L5.545714 1.867212
" />
<path d="M5.260000 0.610070
L4.974286 1.467212
" />
<path d="M4.974286 1.467212
L5.717143 1.467212
" />
<path d="M6.745714 0.667213
L6.174286 0.667213
" />
<path d="M6.174286 0.667213
L6.117143 1.238642
" />
<path d="M6.117143 1.238642
L6.174286 1.181499
" />
<path d="M6.174286 1.181499
L6.288571 1.124356
" />
<path d="M6.288571 1.124356
L6.574286 1.124356
" />
<path d="M6.574286 1.124356
L6.688571 1.181499
" />
<path d="M6.688571 1.181499
L6.745714 1.238642
" />
<path d="M6.745714 1.238642
L6.802857 1.352927
" />
<path d="M6.802857 1.352927
L6.802857 1.638641
" />
<path d="M6.802857 1.638641
L6.745714 1.752927
" />
<path d="M6.745714 1.752927
L6.688571 1.810070
" />
<path d="M6.688571 1.810070
L6.574286 1.867212
" />
<path d="M6.574286 1.867212
L6.288571 1.867212
" />
<path d="M6.288571 1.867212
L6.174286 1.810070
" />
<path d="M6.174286 1.810070
L6.117143 1.752927
" />
<path d="M7.202856 0.667213
L8.002856 0.667213
" />
<path d="M8.002856 0.667213
L7.488570 1.867212
" />
<path d="M8.974285 1.067213
L8.974285 1.867212
" />
<path d="M8.688570 0.610070
L8.402856 1.467212
" />
<path d="M8.402856 1.467212
L9.145713 1.467212
" />
<path d="M9.602856 1.238642
L10.002856 1.238642
" />
<path d="M10.174284 1.867212
L9.602856 1.867212
" />
<path d="M9.602856 1.867212
L9.602856 0.667213
" />
<path d="M9.602856 0.667213
L10.174284 0.667213
" />
<path d="M10.574284 0.667213
L10.859998 1.867212
" />
<path d="M10.859998 1.867212
L11.088570 1.010070
" />
<path d="M11.088570 1.010070
L11.317141 1.867212
" />
<path d="M11.317141 1.867212
L11.602856 0.667213
" />
<path d="M12.631427 1.867212
L12.059999 1.867212
" />
<path d="M12.059999 1.867212
L12.059999 0.667213
" />
<path d="M13.031428 1.410070
L13.945714 1.410070
" />
<path d="M13.488571 1.867212
L13.488571 0.952928
" />
</g><path d="M5.805714 0.478310
L8.485714 0.478310
" />
<path d="M5.805714 2.158310
L5.805714 0.478310
" />
<path d="M8.485714 0.478310
L8.485714 2.158310
" />
<path d="M8.485714 2.158310
L5.805714 2.158310
" />
</g>
<g style="fill:none; 
stroke:#C2C2C2; stroke-width:0.025000; stroke-opacity:1; 
stroke-linecap:round; stroke-linejoin:round;">
<path d="M5.868214 0.543310
L8.423214 0.543310
" />
<path d="M5.868214 2.093310
L5.868214 0.543310
" />
<path d="M8.423214 0.543310
L8.423214 2.093310
" />
<path d="M8.423214 2.093310
L5.868214 2.093310
" />
<circle cx="6.145714" cy="0.818310" r="0.155000" /> 
<circle cx="6.145714" cy="1.318310" r="0.155000" /> 
<circle cx="6.145714" cy="1.818310" r="0.155000" /> 
<circle cx="6.645714" cy="0.818310" r="0.155000" /> 
<circle cx="6.645714" cy="1.318310" r="0.155000" /> 
<circle cx="6.645714" cy="1.818310" r="0.155000" /> 
<circle cx="7.145714" cy="0.818310" r="0.155000" /> 
<circle cx="7.145714" cy="1.318310" r="0.155000" /> 
<circle cx="7.145714" cy="1.818310" r="0.155000" /> 
<circle cx="7.645714" cy="0.818310" r="0.155000" /> 
<circle cx="7.645714" cy="1.318310" r="0.155000" /> 
<circle cx="7.645714" cy="1.818310" r="0.155000" /> 
<circle cx="8.145714" cy="0.818310" r="0.155000" /> 
<circle cx="8.145714" cy="1.318310" r="0.155000" /> 
<circle cx="8.145714" cy="1.818310" r="0.155000" /> 
</g> 
</svg>
