<?xml version="1.0" standalone="no"?>
 <!DOCTYPE svg PUBLIC "-//W3C//DTD SVG 1.1//EN" 
 "http://www.w3.org/Graphics/SVG/1.1/DTD/svg11.dtd"> 
<svg
  xmlns:svg="http://www.w3.org/2000/svg"
  xmlns="http://www.w3.org/2000/svg"
  xmlns:xlink="http://www.w3.org/1999/xlink"
  xmlns:inkscape="http://www.inkscape.org/namespaces/inkscape"
  version="1.1"
  width="100%" height="100%" viewBox="0.0000 0.0000 49.6824 42.6466">
<title>SVG Image created as BNO055_unit1.svg date 2026-04-16T04:30:17 </title>
  <desc>Image generated by Eeschema-SVG </desc>
<g style="fill:#000000; fill-opacity:1.0000;stroke:#000000; stroke-opacity:1.0000;
stroke-linecap:round; stroke-linejoin:round;"
 transform="translate(0 0) scale(1 1)">
</g>
<g style="fill:#FFFFC2; fill-opacity:1.0000; stroke:none;">
<rect x="9.601200" y="6.067500" width="30.480000" height="33.020000" rx="0.000000" />
</g>
<g style="fill:none; 
stroke:#840000; stroke-width:0.1524; stroke-opacity:1; 
stroke-linecap:round; stroke-linejoin:round;">
<rect x="9.601200" y="6.067500" width="30.480000" height="33.020000" rx="0.000000" />
<path d="M40.0812 37.8175
L45.1612 37.8175
" />
</g>
<g style="fill:none; 
stroke:#006464; stroke-width:0.1524; stroke-opacity:1; 
stroke-linecap:round; stroke-linejoin:round;">
<text x="39.5732" y="38.4525"
textLength="4.0737" font-size="1.6933" lengthAdjust="spacingAndGlyphs"
text-anchor="end" opacity="0" stroke-opacity="0">GND</text>
<g class="stroked-text"><desc>GND</desc>
<path d="M36.5701 37.1875
L36.4491 37.1270
" />
<path d="M36.4491 37.1270
L36.2677 37.1270
" />
<path d="M36.2677 37.1270
L36.0863 37.1875
" />
<path d="M36.0863 37.1875
L35.9653 37.3085
" />
<path d="M35.9653 37.3085
L35.9048 37.4294
" />
<path d="M35.9048 37.4294
L35.8444 37.6713
" />
<path d="M35.8444 37.6713
L35.8444 37.8527
" />
<path d="M35.8444 37.8527
L35.9048 38.0946
" />
<path d="M35.9048 38.0946
L35.9653 38.2156
" />
<path d="M35.9653 38.2156
L36.0863 38.3366
" />
<path d="M36.0863 38.3366
L36.2677 38.3970
" />
<path d="M36.2677 38.3970
L36.3886 38.3970
" />
<path d="M36.3886 38.3970
L36.5701 38.3366
" />
<path d="M36.5701 38.3366
L36.6305 38.2761
" />
<path d="M36.6305 38.2761
L36.6305 37.8527
" />
<path d="M36.6305 37.8527
L36.3886 37.8527
" />
<path d="M37.1748 38.3970
L37.1748 37.1270
" />
<path d="M37.1748 37.1270
L37.9005 38.3970
" />
<path d="M37.9005 38.3970
L37.9005 37.1270
" />
<path d="M38.5053 38.3970
L38.5053 37.1270
" />
<path d="M38.5053 37.1270
L38.8077 37.1270
" />
<path d="M38.8077 37.1270
L38.9891 37.1875
" />
<path d="M38.9891 37.1875
L39.1101 37.3085
" />
<path d="M39.1101 37.3085
L39.1706 37.4294
" />
<path d="M39.1706 37.4294
L39.2310 37.6713
" />
<path d="M39.2310 37.6713
L39.2310 37.8527
" />
<path d="M39.2310 37.8527
L39.1706 38.0946
" />
<path d="M39.1706 38.0946
L39.1101 38.2156
" />
<path d="M39.1101 38.2156
L38.9891 38.3366
" />
<path d="M38.9891 38.3366
L38.8077 38.3970
" />
<path d="M38.8077 38.3970
L38.5053 38.3970
" />
</g></g>
<g style="fill:none; 
stroke:#A90000; stroke-width:0.1524; stroke-opacity:1; 
stroke-linecap:round; stroke-linejoin:round;">
<text x="42.6212" y="37.5635"
textLength="1.4127" font-size="1.6933" lengthAdjust="spacingAndGlyphs"
text-anchor="middle" opacity="0" stroke-opacity="0">2</text>
<g class="stroked-text"><desc>2</desc>
<path d="M42.2584 36.2510
L42.3188 36.1905
" />
<path d="M42.3188 36.1905
L42.4398 36.1300
" />
<path d="M42.4398 36.1300
L42.7422 36.1300
" />
<path d="M42.7422 36.1300
L42.8631 36.1905
" />
<path d="M42.8631 36.1905
L42.9236 36.2510
" />
<path d="M42.9236 36.2510
L42.9841 36.3719
" />
<path d="M42.9841 36.3719
L42.9841 36.4929
" />
<path d="M42.9841 36.4929
L42.9236 36.6743
" />
<path d="M42.9236 36.6743
L42.1979 37.4000
" />
<path d="M42.1979 37.4000
L42.9841 37.4000
" />
</g></g>
<g style="fill:none; 
stroke:#840000; stroke-width:0.1524; stroke-opacity:1; 
stroke-linecap:round; stroke-linejoin:round;">
<path d="M40.0812 9.8775
L45.1612 9.8775
" />
</g>
<g style="fill:none; 
stroke:#006464; stroke-width:0.1524; stroke-opacity:1; 
stroke-linecap:round; stroke-linejoin:round;">
<text x="39.5732" y="10.5125"
textLength="3.8318" font-size="1.6933" lengthAdjust="spacingAndGlyphs"
text-anchor="end" opacity="0" stroke-opacity="0">VDD</text>
<g class="stroked-text"><desc>VDD</desc>
<path d="M35.9653 9.1870
L36.3886 10.4570
" />
<path d="M36.3886 10.4570
L36.8120 9.1870
" />
<path d="M37.2353 10.4570
L37.2353 9.1870
" />
<path d="M37.2353 9.1870
L37.5377 9.1870
" />
<path d="M37.5377 9.1870
L37.7191 9.2475
" />
<path d="M37.7191 9.2475
L37.8401 9.3685
" />
<path d="M37.8401 9.3685
L37.9006 9.4894
" />
<path d="M37.9006 9.4894
L37.9610 9.7313
" />
<path d="M37.9610 9.7313
L37.9610 9.9127
" />
<path d="M37.9610 9.9127
L37.9006 10.1546
" />
<path d="M37.9006 10.1546
L37.8401 10.2756
" />
<path d="M37.8401 10.2756
L37.7191 10.3966
" />
<path d="M37.7191 10.3966
L37.5377 10.4570
" />
<path d="M37.5377 10.4570
L37.2353 10.4570
" />
<path d="M38.5053 10.4570
L38.5053 9.1870
" />
<path d="M38.5053 9.1870
L38.8077 9.1870
" />
<path d="M38.8077 9.1870
L38.9891 9.2475
" />
<path d="M38.9891 9.2475
L39.1101 9.3685
" />
<path d="M39.1101 9.3685
L39.1706 9.4894
" />
<path d="M39.1706 9.4894
L39.2310 9.7313
" />
<path d="M39.2310 9.7313
L39.2310 9.9127
" />
<path d="M39.2310 9.9127
L39.1706 10.1546
" />
<path d="M39.1706 10.1546
L39.1101 10.2756
" />
<path d="M39.1101 10.2756
L38.9891 10.3966
" />
<path d="M38.9891 10.3966
L38.8077 10.4570
" />
<path d="M38.8077 10.4570
L38.5053 10.4570
" />
</g></g>
<g style="fill:none; 
stroke:#A90000; stroke-width:0.1524; stroke-opacity:1; 
stroke-linecap:round; stroke-linejoin:round;">
<text x="42.6212" y="9.6235"
textLength="1.4127" font-size="1.6933" lengthAdjust="spacingAndGlyphs"
text-anchor="middle" opacity="0" stroke-opacity="0">3</text>
<g class="stroked-text"><desc>3</desc>
<path d="M42.1979 8.1900
L42.9841 8.1900
" />
<path d="M42.9841 8.1900
L42.5607 8.6738
" />
<path d="M42.5607 8.6738
L42.7422 8.6738
" />
<path d="M42.7422 8.6738
L42.8631 8.7343
" />
<path d="M42.8631 8.7343
L42.9236 8.7948
" />
<path d="M42.9236 8.7948
L42.9841 8.9157
" />
<path d="M42.9841 8.9157
L42.9841 9.2181
" />
<path d="M42.9841 9.2181
L42.9236 9.3391
" />
<path d="M42.9236 9.3391
L42.8631 9.3996
" />
<path d="M42.8631 9.3996
L42.7422 9.4600
" />
<path d="M42.7422 9.4600
L42.3793 9.4600
" />
<path d="M42.3793 9.4600
L42.2584 9.3996
" />
<path d="M42.2584 9.3996
L42.1979 9.3391
" />
</g></g>
<g style="fill:none; 
stroke:#840000; stroke-width:0.1524; stroke-opacity:1; 
stroke-linecap:round; stroke-linejoin:round;">
<path d="M9.6012 22.5775
L4.5212 22.5775
" />
</g>
<g style="fill:none; 
stroke:#006464; stroke-width:0.1524; stroke-opacity:1; 
stroke-linecap:round; stroke-linejoin:round;">
<text x="10.1092" y="23.2125"
textLength="16.2900" font-size="1.6933" lengthAdjust="spacingAndGlyphs"
text-anchor="start" opacity="0" stroke-opacity="0">NBOOT_LOAD_PIN</text>
<g class="stroked-text"><desc>NBOOT_LOAD_PIN</desc>
<path d="M10.5117 23.1570
L10.5117 21.8870
" />
<path d="M10.5117 21.8870
L11.2374 23.1570
" />
<path d="M11.2374 23.1570
L11.2374 21.8870
" />
<path d="M12.2656 22.4918
L12.4470 22.5523
" />
<path d="M12.4470 22.5523
L12.5075 22.6127
" />
<path d="M12.5075 22.6127
L12.5679 22.7337
" />
<path d="M12.5679 22.7337
L12.5679 22.9151
" />
<path d="M12.5679 22.9151
L12.5075 23.0361
" />
<path d="M12.5075 23.0361
L12.4470 23.0966
" />
<path d="M12.4470 23.0966
L12.3260 23.1570
" />
<path d="M12.3260 23.1570
L11.8422 23.1570
" />
<path d="M11.8422 23.1570
L11.8422 21.8870
" />
<path d="M11.8422 21.8870
L12.2656 21.8870
" />
<path d="M12.2656 21.8870
L12.3865 21.9475
" />
<path d="M12.3865 21.9475
L12.4470 22.0080
" />
<path d="M12.4470 22.0080
L12.5075 22.1289
" />
<path d="M12.5075 22.1289
L12.5075 22.2499
" />
<path d="M12.5075 22.2499
L12.4470 22.3708
" />
<path d="M12.4470 22.3708
L12.3865 22.4313
" />
<path d="M12.3865 22.4313
L12.2656 22.4918
" />
<path d="M12.2656 22.4918
L11.8422 22.4918
" />
<path d="M13.3541 21.8870
L13.5960 21.8870
" />
<path d="M13.5960 21.8870
L13.7170 21.9475
" />
<path d="M13.7170 21.9475
L13.8379 22.0685
" />
<path d="M13.8379 22.0685
L13.8984 22.3104
" />
<path d="M13.8984 22.3104
L13.8984 22.7337
" />
<path d="M13.8984 22.7337
L13.8379 22.9756
" />
<path d="M13.8379 22.9756
L13.7170 23.0966
" />
<path d="M13.7170 23.0966
L13.5960 23.1570
" />
<path d="M13.5960 23.1570
L13.3541 23.1570
" />
<path d="M13.3541 23.1570
L13.2332 23.0966
" />
<path d="M13.2332 23.0966
L13.1122 22.9756
" />
<path d="M13.1122 22.9756
L13.0518 22.7337
" />
<path d="M13.0518 22.7337
L13.0518 22.3104
" />
<path d="M13.0518 22.3104
L13.1122 22.0685
" />
<path d="M13.1122 22.0685
L13.2332 21.9475
" />
<path d="M13.2332 21.9475
L13.3541 21.8870
" />
<path d="M14.6846 21.8870
L14.9265 21.8870
" />
<path d="M14.9265 21.8870
L15.0475 21.9475
" />
<path d="M15.0475 21.9475
L15.1684 22.0685
" />
<path d="M15.1684 22.0685
L15.2289 22.3104
" />
<path d="M15.2289 22.3104
L15.2289 22.7337
" />
<path d="M15.2289 22.7337
L15.1684 22.9756
" />
<path d="M15.1684 22.9756
L15.0475 23.0966
" />
<path d="M15.0475 23.0966
L14.9265 23.1570
" />
<path d="M14.9265 23.1570
L14.6846 23.1570
" />
<path d="M14.6846 23.1570
L14.5637 23.0966
" />
<path d="M14.5637 23.0966
L14.4427 22.9756
" />
<path d="M14.4427 22.9756
L14.3823 22.7337
" />
<path d="M14.3823 22.7337
L14.3823 22.3104
" />
<path d="M14.3823 22.3104
L14.4427 22.0685
" />
<path d="M14.4427 22.0685
L14.5637 21.9475
" />
<path d="M14.5637 21.9475
L14.6846 21.8870
" />
<path d="M15.5918 21.8870
L16.3175 21.8870
" />
<path d="M15.9547 23.1570
L15.9547 21.8870
" />
<path d="M16.4385 23.2780
L17.4061 23.2780
" />
<path d="M18.3132 23.1570
L17.7084 23.1570
" />
<path d="M17.7084 23.1570
L17.7084 21.8870
" />
<path d="M18.9784 21.8870
L19.2203 21.8870
" />
<path d="M19.2203 21.8870
L19.3413 21.9475
" />
<path d="M19.3413 21.9475
L19.4622 22.0685
" />
<path d="M19.4622 22.0685
L19.5227 22.3104
" />
<path d="M19.5227 22.3104
L19.5227 22.7337
" />
<path d="M19.5227 22.7337
L19.4622 22.9756
" />
<path d="M19.4622 22.9756
L19.3413 23.0966
" />
<path d="M19.3413 23.0966
L19.2203 23.1570
" />
<path d="M19.2203 23.1570
L18.9784 23.1570
" />
<path d="M18.9784 23.1570
L18.8575 23.0966
" />
<path d="M18.8575 23.0966
L18.7365 22.9756
" />
<path d="M18.7365 22.9756
L18.6761 22.7337
" />
<path d="M18.6761 22.7337
L18.6761 22.3104
" />
<path d="M18.6761 22.3104
L18.7365 22.0685
" />
<path d="M18.7365 22.0685
L18.8575 21.9475
" />
<path d="M18.8575 21.9475
L18.9784 21.8870
" />
<path d="M20.0066 22.7942
L20.6113 22.7942
" />
<path d="M19.8856 23.1570
L20.3089 21.8870
" />
<path d="M20.3089 21.8870
L20.7323 23.1570
" />
<path d="M21.1556 23.1570
L21.1556 21.8870
" />
<path d="M21.1556 21.8870
L21.4580 21.8870
" />
<path d="M21.4580 21.8870
L21.6394 21.9475
" />
<path d="M21.6394 21.9475
L21.7604 22.0685
" />
<path d="M21.7604 22.0685
L21.8209 22.1894
" />
<path d="M21.8209 22.1894
L21.8813 22.4313
" />
<path d="M21.8813 22.4313
L21.8813 22.6127
" />
<path d="M21.8813 22.6127
L21.8209 22.8546
" />
<path d="M21.8209 22.8546
L21.7604 22.9756
" />
<path d="M21.7604 22.9756
L21.6394 23.0966
" />
<path d="M21.6394 23.0966
L21.4580 23.1570
" />
<path d="M21.4580 23.1570
L21.1556 23.1570
" />
<path d="M22.1233 23.2780
L23.0909 23.2780
" />
<path d="M23.3932 23.1570
L23.3932 21.8870
" />
<path d="M23.3932 21.8870
L23.8770 21.8870
" />
<path d="M23.8770 21.8870
L23.9980 21.9475
" />
<path d="M23.9980 21.9475
L24.0585 22.0080
" />
<path d="M24.0585 22.0080
L24.1189 22.1289
" />
<path d="M24.1189 22.1289
L24.1189 22.3104
" />
<path d="M24.1189 22.3104
L24.0585 22.4313
" />
<path d="M24.0585 22.4313
L23.9980 22.4918
" />
<path d="M23.9980 22.4918
L23.8770 22.5523
" />
<path d="M23.8770 22.5523
L23.3932 22.5523
" />
<path d="M24.6632 23.1570
L24.6632 21.8870
" />
<path d="M25.2680 23.1570
L25.2680 21.8870
" />
<path d="M25.2680 21.8870
L25.9937 23.1570
" />
<path d="M25.9937 23.1570
L25.9937 21.8870
" />
</g></g>
<g style="fill:none; 
stroke:#A90000; stroke-width:0.1524; stroke-opacity:1; 
stroke-linecap:round; stroke-linejoin:round;">
<text x="7.0612" y="22.3235"
textLength="1.4127" font-size="1.6933" lengthAdjust="spacingAndGlyphs"
text-anchor="middle" opacity="0" stroke-opacity="0">4</text>
<g class="stroked-text"><desc>4</desc>
<path d="M7.3031 21.3134
L7.3031 22.1600
" />
<path d="M7.0007 20.8296
L6.6984 21.7367
" />
<path d="M6.6984 21.7367
L7.4845 21.7367
" />
</g></g>
<g style="fill:none; 
stroke:#840000; stroke-width:0.1524; stroke-opacity:1; 
stroke-linecap:round; stroke-linejoin:round;">
<path d="M9.6012 12.4175
L4.5212 12.4175
" />
</g>
<g style="fill:none; 
stroke:#006464; stroke-width:0.1524; stroke-opacity:1; 
stroke-linecap:round; stroke-linejoin:round;">
<text x="10.1092" y="13.0525"
textLength="3.8922" font-size="1.6933" lengthAdjust="spacingAndGlyphs"
text-anchor="start" opacity="0" stroke-opacity="0">PS1</text>
<g class="stroked-text"><desc>PS1</desc>
<path d="M10.5117 12.9970
L10.5117 11.7270
" />
<path d="M10.5117 11.7270
L10.9955 11.7270
" />
<path d="M10.9955 11.7270
L11.1165 11.7875
" />
<path d="M11.1165 11.7875
L11.1770 11.8480
" />
<path d="M11.1770 11.8480
L11.2374 11.9689
" />
<path d="M11.2374 11.9689
L11.2374 12.1504
" />
<path d="M11.2374 12.1504
L11.1770 12.2713
" />
<path d="M11.1770 12.2713
L11.1165 12.3318
" />
<path d="M11.1165 12.3318
L10.9955 12.3923
" />
<path d="M10.9955 12.3923
L10.5117 12.3923
" />
<path d="M11.7213 12.9366
L11.9027 12.9970
" />
<path d="M11.9027 12.9970
L12.2051 12.9970
" />
<path d="M12.2051 12.9970
L12.3260 12.9366
" />
<path d="M12.3260 12.9366
L12.3865 12.8761
" />
<path d="M12.3865 12.8761
L12.4470 12.7551
" />
<path d="M12.4470 12.7551
L12.4470 12.6342
" />
<path d="M12.4470 12.6342
L12.3865 12.5132
" />
<path d="M12.3865 12.5132
L12.3260 12.4527
" />
<path d="M12.3260 12.4527
L12.2051 12.3923
" />
<path d="M12.2051 12.3923
L11.9632 12.3318
" />
<path d="M11.9632 12.3318
L11.8422 12.2713
" />
<path d="M11.8422 12.2713
L11.7817 12.2108
" />
<path d="M11.7817 12.2108
L11.7213 12.0899
" />
<path d="M11.7213 12.0899
L11.7213 11.9689
" />
<path d="M11.7213 11.9689
L11.7817 11.8480
" />
<path d="M11.7817 11.8480
L11.8422 11.7875
" />
<path d="M11.8422 11.7875
L11.9632 11.7270
" />
<path d="M11.9632 11.7270
L12.2655 11.7270
" />
<path d="M12.2655 11.7270
L12.4470 11.7875
" />
<path d="M13.6565 12.9970
L12.9308 12.9970
" />
<path d="M13.2936 12.9970
L13.2936 11.7270
" />
<path d="M13.2936 11.7270
L13.1727 11.9085
" />
<path d="M13.1727 11.9085
L13.0517 12.0294
" />
<path d="M13.0517 12.0294
L12.9308 12.0899
" />
</g></g>
<g style="fill:none; 
stroke:#A90000; stroke-width:0.1524; stroke-opacity:1; 
stroke-linecap:round; stroke-linejoin:round;">
<text x="7.0612" y="12.1635"
textLength="1.4127" font-size="1.6933" lengthAdjust="spacingAndGlyphs"
text-anchor="middle" opacity="0" stroke-opacity="0">5</text>
<g class="stroked-text"><desc>5</desc>
<path d="M7.3636 10.7300
L6.7588 10.7300
" />
<path d="M6.7588 10.7300
L6.6984 11.3348
" />
<path d="M6.6984 11.3348
L6.7588 11.2743
" />
<path d="M6.7588 11.2743
L6.8798 11.2138
" />
<path d="M6.8798 11.2138
L7.1822 11.2138
" />
<path d="M7.1822 11.2138
L7.3031 11.2743
" />
<path d="M7.3031 11.2743
L7.3636 11.3348
" />
<path d="M7.3636 11.3348
L7.4241 11.4557
" />
<path d="M7.4241 11.4557
L7.4241 11.7581
" />
<path d="M7.4241 11.7581
L7.3636 11.8791
" />
<path d="M7.3636 11.8791
L7.3031 11.9396
" />
<path d="M7.3031 11.9396
L7.1822 12.0000
" />
<path d="M7.1822 12.0000
L6.8798 12.0000
" />
<path d="M6.8798 12.0000
L6.7588 11.9396
" />
<path d="M6.7588 11.9396
L6.6984 11.8791
" />
</g></g>
<g style="fill:none; 
stroke:#840000; stroke-width:0.1524; stroke-opacity:1; 
stroke-linecap:round; stroke-linejoin:round;">
<path d="M9.6012 9.8775
L4.5212 9.8775
" />
</g>
<g style="fill:none; 
stroke:#006464; stroke-width:0.1524; stroke-opacity:1; 
stroke-linecap:round; stroke-linejoin:round;">
<text x="10.1092" y="10.5125"
textLength="3.8922" font-size="1.6933" lengthAdjust="spacingAndGlyphs"
text-anchor="start" opacity="0" stroke-opacity="0">PS0</text>
<g class="stroked-text"><desc>PS0</desc>
<path d="M10.5117 10.4570
L10.5117 9.1870
" />
<path d="M10.5117 9.1870
L10.9955 9.1870
" />
<path d="M10.9955 9.1870
L11.1165 9.2475
" />
<path d="M11.1165 9.2475
L11.1770 9.3080
" />
<path d="M11.1770 9.3080
L11.2374 9.4289
" />
<path d="M11.2374 9.4289
L11.2374 9.6104
" />
<path d="M11.2374 9.6104
L11.1770 9.7313
" />
<path d="M11.1770 9.7313
L11.1165 9.7918
" />
<path d="M11.1165 9.7918
L10.9955 9.8523
" />
<path d="M10.9955 9.8523
L10.5117 9.8523
" />
<path d="M11.7213 10.3966
L11.9027 10.4570
" />
<path d="M11.9027 10.4570
L12.2051 10.4570
" />
<path d="M12.2051 10.4570
L12.3260 10.3966
" />
<path d="M12.3260 10.3966
L12.3865 10.3361
" />
<path d="M12.3865 10.3361
L12.4470 10.2151
" />
<path d="M12.4470 10.2151
L12.4470 10.0942
" />
<path d="M12.4470 10.0942
L12.3865 9.9732
" />
<path d="M12.3865 9.9732
L12.3260 9.9127
" />
<path d="M12.3260 9.9127
L12.2051 9.8523
" />
<path d="M12.2051 9.8523
L11.9632 9.7918
" />
<path d="M11.9632 9.7918
L11.8422 9.7313
" />
<path d="M11.8422 9.7313
L11.7817 9.6708
" />
<path d="M11.7817 9.6708
L11.7213 9.5499
" />
<path d="M11.7213 9.5499
L11.7213 9.4289
" />
<path d="M11.7213 9.4289
L11.7817 9.3080
" />
<path d="M11.7817 9.3080
L11.8422 9.2475
" />
<path d="M11.8422 9.2475
L11.9632 9.1870
" />
<path d="M11.9632 9.1870
L12.2655 9.1870
" />
<path d="M12.2655 9.1870
L12.4470 9.2475
" />
<path d="M13.2331 9.1870
L13.3541 9.1870
" />
<path d="M13.3541 9.1870
L13.4750 9.2475
" />
<path d="M13.4750 9.2475
L13.5355 9.3080
" />
<path d="M13.5355 9.3080
L13.5960 9.4289
" />
<path d="M13.5960 9.4289
L13.6565 9.6708
" />
<path d="M13.6565 9.6708
L13.6565 9.9732
" />
<path d="M13.6565 9.9732
L13.5960 10.2151
" />
<path d="M13.5960 10.2151
L13.5355 10.3361
" />
<path d="M13.5355 10.3361
L13.4750 10.3966
" />
<path d="M13.4750 10.3966
L13.3541 10.4570
" />
<path d="M13.3541 10.4570
L13.2331 10.4570
" />
<path d="M13.2331 10.4570
L13.1122 10.3966
" />
<path d="M13.1122 10.3966
L13.0517 10.3361
" />
<path d="M13.0517 10.3361
L12.9912 10.2151
" />
<path d="M12.9912 10.2151
L12.9308 9.9732
" />
<path d="M12.9308 9.9732
L12.9308 9.6708
" />
<path d="M12.9308 9.6708
L12.9912 9.4289
" />
<path d="M12.9912 9.4289
L13.0517 9.3080
" />
<path d="M13.0517 9.3080
L13.1122 9.2475
" />
<path d="M13.1122 9.2475
L13.2331 9.1870
" />
</g></g>
<g style="fill:none; 
stroke:#A90000; stroke-width:0.1524; stroke-opacity:1; 
stroke-linecap:round; stroke-linejoin:round;">
<text x="7.0612" y="9.6235"
textLength="1.4127" font-size="1.6933" lengthAdjust="spacingAndGlyphs"
text-anchor="middle" opacity="0" stroke-opacity="0">6</text>
<g class="stroked-text"><desc>6</desc>
<path d="M7.3031 8.1900
L7.0612 8.1900
" />
<path d="M7.0612 8.1900
L6.9403 8.2505
" />
<path d="M6.9403 8.2505
L6.8798 8.3110
" />
<path d="M6.8798 8.3110
L6.7588 8.4924
" />
<path d="M6.7588 8.4924
L6.6984 8.7343
" />
<path d="M6.6984 8.7343
L6.6984 9.2181
" />
<path d="M6.6984 9.2181
L6.7588 9.3391
" />
<path d="M6.7588 9.3391
L6.8193 9.3996
" />
<path d="M6.8193 9.3996
L6.9403 9.4600
" />
<path d="M6.9403 9.4600
L7.1822 9.4600
" />
<path d="M7.1822 9.4600
L7.3031 9.3996
" />
<path d="M7.3031 9.3996
L7.3636 9.3391
" />
<path d="M7.3636 9.3391
L7.4241 9.2181
" />
<path d="M7.4241 9.2181
L7.4241 8.9157
" />
<path d="M7.4241 8.9157
L7.3636 8.7948
" />
<path d="M7.3636 8.7948
L7.3031 8.7343
" />
<path d="M7.3031 8.7343
L7.1822 8.6738
" />
<path d="M7.1822 8.6738
L6.9403 8.6738
" />
<path d="M6.9403 8.6738
L6.8193 8.7343
" />
<path d="M6.8193 8.7343
L6.7588 8.7948
" />
<path d="M6.7588 8.7948
L6.6984 8.9157
" />
</g></g>
<g style="fill:none; 
stroke:#840000; stroke-width:0.1524; stroke-opacity:1; 
stroke-linecap:round; stroke-linejoin:round;">
<path d="M9.6012 37.8175
L4.5212 37.8175
" />
</g>
<g style="fill:none; 
stroke:#006464; stroke-width:0.1524; stroke-opacity:1; 
stroke-linecap:round; stroke-linejoin:round;">
<text x="10.1092" y="38.4525"
textLength="3.8318" font-size="1.6933" lengthAdjust="spacingAndGlyphs"
text-anchor="start" opacity="0" stroke-opacity="0">CAP</text>
<g class="stroked-text"><desc>CAP</desc>
<path d="M11.2374 38.2761
L11.1770 38.3366
" />
<path d="M11.1770 38.3366
L10.9955 38.3970
" />
<path d="M10.9955 38.3970
L10.8746 38.3970
" />
<path d="M10.8746 38.3970
L10.6932 38.3366
" />
<path d="M10.6932 38.3366
L10.5722 38.2156
" />
<path d="M10.5722 38.2156
L10.5117 38.0946
" />
<path d="M10.5117 38.0946
L10.4513 37.8527
" />
<path d="M10.4513 37.8527
L10.4513 37.6713
" />
<path d="M10.4513 37.6713
L10.5117 37.4294
" />
<path d="M10.5117 37.4294
L10.5722 37.3085
" />
<path d="M10.5722 37.3085
L10.6932 37.1875
" />
<path d="M10.6932 37.1875
L10.8746 37.1270
" />
<path d="M10.8746 37.1270
L10.9955 37.1270
" />
<path d="M10.9955 37.1270
L11.1770 37.1875
" />
<path d="M11.1770 37.1875
L11.2374 37.2480
" />
<path d="M11.7213 38.0342
L12.3260 38.0342
" />
<path d="M11.6003 38.3970
L12.0236 37.1270
" />
<path d="M12.0236 37.1270
L12.4470 38.3970
" />
<path d="M12.8703 38.3970
L12.8703 37.1270
" />
<path d="M12.8703 37.1270
L13.3541 37.1270
" />
<path d="M13.3541 37.1270
L13.4751 37.1875
" />
<path d="M13.4751 37.1875
L13.5356 37.2480
" />
<path d="M13.5356 37.2480
L13.5960 37.3689
" />
<path d="M13.5960 37.3689
L13.5960 37.5504
" />
<path d="M13.5960 37.5504
L13.5356 37.6713
" />
<path d="M13.5356 37.6713
L13.4751 37.7318
" />
<path d="M13.4751 37.7318
L13.3541 37.7923
" />
<path d="M13.3541 37.7923
L12.8703 37.7923
" />
</g></g>
<g style="fill:none; 
stroke:#A90000; stroke-width:0.1524; stroke-opacity:1; 
stroke-linecap:round; stroke-linejoin:round;">
<text x="7.0612" y="37.5635"
textLength="1.4127" font-size="1.6933" lengthAdjust="spacingAndGlyphs"
text-anchor="middle" opacity="0" stroke-opacity="0">9</text>
<g class="stroked-text"><desc>9</desc>
<path d="M6.8193 37.4000
L7.0612 37.4000
" />
<path d="M7.0612 37.4000
L7.1822 37.3396
" />
<path d="M7.1822 37.3396
L7.2426 37.2791
" />
<path d="M7.2426 37.2791
L7.3636 37.0976
" />
<path d="M7.3636 37.0976
L7.4241 36.8557
" />
<path d="M7.4241 36.8557
L7.4241 36.3719
" />
<path d="M7.4241 36.3719
L7.3636 36.2510
" />
<path d="M7.3636 36.2510
L7.3031 36.1905
" />
<path d="M7.3031 36.1905
L7.1822 36.1300
" />
<path d="M7.1822 36.1300
L6.9403 36.1300
" />
<path d="M6.9403 36.1300
L6.8193 36.1905
" />
<path d="M6.8193 36.1905
L6.7588 36.2510
" />
<path d="M6.7588 36.2510
L6.6984 36.3719
" />
<path d="M6.6984 36.3719
L6.6984 36.6743
" />
<path d="M6.6984 36.6743
L6.7588 36.7953
" />
<path d="M6.7588 36.7953
L6.8193 36.8557
" />
<path d="M6.8193 36.8557
L6.9403 36.9162
" />
<path d="M6.9403 36.9162
L7.1822 36.9162
" />
<path d="M7.1822 36.9162
L7.3031 36.8557
" />
<path d="M7.3031 36.8557
L7.3636 36.7953
" />
<path d="M7.3636 36.7953
L7.4241 36.6743
" />
</g></g>
<g style="fill:none; 
stroke:#840000; stroke-width:0.1524; stroke-opacity:1; 
stroke-linecap:round; stroke-linejoin:round;">
<path d="M40.0812 27.6575
L45.1612 27.6575
" />
</g>
<g style="fill:none; 
stroke:#006464; stroke-width:0.1524; stroke-opacity:1; 
stroke-linecap:round; stroke-linejoin:round;">
<text x="39.5732" y="28.2925"
textLength="5.8275" font-size="1.6933" lengthAdjust="spacingAndGlyphs"
text-anchor="end" opacity="0" stroke-opacity="0">PIN10</text>
<g class="stroked-text"><desc>PIN10</desc>
<path d="M34.1510 28.2370
L34.1510 26.9670
" />
<path d="M34.1510 26.9670
L34.6348 26.9670
" />
<path d="M34.6348 26.9670
L34.7558 27.0275
" />
<path d="M34.7558 27.0275
L34.8163 27.0880
" />
<path d="M34.8163 27.0880
L34.8767 27.2089
" />
<path d="M34.8767 27.2089
L34.8767 27.3904
" />
<path d="M34.8767 27.3904
L34.8163 27.5113
" />
<path d="M34.8163 27.5113
L34.7558 27.5718
" />
<path d="M34.7558 27.5718
L34.6348 27.6323
" />
<path d="M34.6348 27.6323
L34.1510 27.6323
" />
<path d="M35.4210 28.2370
L35.4210 26.9670
" />
<path d="M36.0258 28.2370
L36.0258 26.9670
" />
<path d="M36.0258 26.9670
L36.7515 28.2370
" />
<path d="M36.7515 28.2370
L36.7515 26.9670
" />
<path d="M38.0216 28.2370
L37.2959 28.2370
" />
<path d="M37.6587 28.2370
L37.6587 26.9670
" />
<path d="M37.6587 26.9670
L37.5378 27.1485
" />
<path d="M37.5378 27.1485
L37.4168 27.2694
" />
<path d="M37.4168 27.2694
L37.2959 27.3299
" />
<path d="M38.8077 26.9670
L38.9287 26.9670
" />
<path d="M38.9287 26.9670
L39.0496 27.0275
" />
<path d="M39.0496 27.0275
L39.1101 27.0880
" />
<path d="M39.1101 27.0880
L39.1706 27.2089
" />
<path d="M39.1706 27.2089
L39.2311 27.4508
" />
<path d="M39.2311 27.4508
L39.2311 27.7532
" />
<path d="M39.2311 27.7532
L39.1706 27.9951
" />
<path d="M39.1706 27.9951
L39.1101 28.1161
" />
<path d="M39.1101 28.1161
L39.0496 28.1766
" />
<path d="M39.0496 28.1766
L38.9287 28.2370
" />
<path d="M38.9287 28.2370
L38.8077 28.2370
" />
<path d="M38.8077 28.2370
L38.6868 28.1766
" />
<path d="M38.6868 28.1766
L38.6263 28.1161
" />
<path d="M38.6263 28.1161
L38.5658 27.9951
" />
<path d="M38.5658 27.9951
L38.5054 27.7532
" />
<path d="M38.5054 27.7532
L38.5054 27.4508
" />
<path d="M38.5054 27.4508
L38.5658 27.2089
" />
<path d="M38.5658 27.2089
L38.6263 27.0880
" />
<path d="M38.6263 27.0880
L38.6868 27.0275
" />
<path d="M38.6868 27.0275
L38.8077 26.9670
" />
</g></g>
<g style="fill:none; 
stroke:#A90000; stroke-width:0.1524; stroke-opacity:1; 
stroke-linecap:round; stroke-linejoin:round;">
<text x="42.6212" y="27.4035"
textLength="2.6222" font-size="1.6933" lengthAdjust="spacingAndGlyphs"
text-anchor="middle" opacity="0" stroke-opacity="0">10</text>
<g class="stroked-text"><desc>10</desc>
<path d="M42.3793 27.2400
L41.6536 27.2400
" />
<path d="M42.0164 27.2400
L42.0164 25.9700
" />
<path d="M42.0164 25.9700
L41.8955 26.1515
" />
<path d="M41.8955 26.1515
L41.7745 26.2724
" />
<path d="M41.7745 26.2724
L41.6536 26.3329
" />
<path d="M43.1654 25.9700
L43.2864 25.9700
" />
<path d="M43.2864 25.9700
L43.4073 26.0305
" />
<path d="M43.4073 26.0305
L43.4678 26.0910
" />
<path d="M43.4678 26.0910
L43.5283 26.2119
" />
<path d="M43.5283 26.2119
L43.5888 26.4538
" />
<path d="M43.5888 26.4538
L43.5888 26.7562
" />
<path d="M43.5888 26.7562
L43.5283 26.9981
" />
<path d="M43.5283 26.9981
L43.4678 27.1191
" />
<path d="M43.4678 27.1191
L43.4073 27.1796
" />
<path d="M43.4073 27.1796
L43.2864 27.2400
" />
<path d="M43.2864 27.2400
L43.1654 27.2400
" />
<path d="M43.1654 27.2400
L43.0445 27.1796
" />
<path d="M43.0445 27.1796
L42.9840 27.1191
" />
<path d="M42.9840 27.1191
L42.9235 26.9981
" />
<path d="M42.9235 26.9981
L42.8631 26.7562
" />
<path d="M42.8631 26.7562
L42.8631 26.4538
" />
<path d="M42.8631 26.4538
L42.9235 26.2119
" />
<path d="M42.9235 26.2119
L42.9840 26.0910
" />
<path d="M42.9840 26.0910
L43.0445 26.0305
" />
<path d="M43.0445 26.0305
L43.1654 25.9700
" />
</g></g>
<g style="fill:none; 
stroke:#840000; stroke-width:0.1524; stroke-opacity:1; 
stroke-linecap:round; stroke-linejoin:round;">
<path d="M9.6012 17.4975
L4.5212 17.4975
" />
</g>
<g style="fill:none; 
stroke:#006464; stroke-width:0.1524; stroke-opacity:1; 
stroke-linecap:round; stroke-linejoin:round;">
<text x="10.1092" y="18.1325"
textLength="7.2788" font-size="1.6933" lengthAdjust="spacingAndGlyphs"
text-anchor="start" opacity="0" stroke-opacity="0">NRESET</text>
<g class="stroked-text"><desc>NRESET</desc>
<path d="M10.5117 18.0770
L10.5117 16.8070
" />
<path d="M10.5117 16.8070
L11.2374 18.0770
" />
<path d="M11.2374 18.0770
L11.2374 16.8070
" />
<path d="M12.5679 18.0770
L12.1446 17.4723
" />
<path d="M11.8422 18.0770
L11.8422 16.8070
" />
<path d="M11.8422 16.8070
L12.3260 16.8070
" />
<path d="M12.3260 16.8070
L12.4470 16.8675
" />
<path d="M12.4470 16.8675
L12.5075 16.9280
" />
<path d="M12.5075 16.9280
L12.5679 17.0489
" />
<path d="M12.5679 17.0489
L12.5679 17.2304
" />
<path d="M12.5679 17.2304
L12.5075 17.3513
" />
<path d="M12.5075 17.3513
L12.4470 17.4118
" />
<path d="M12.4470 17.4118
L12.3260 17.4723
" />
<path d="M12.3260 17.4723
L11.8422 17.4723
" />
<path d="M13.1122 17.4118
L13.5356 17.4118
" />
<path d="M13.7170 18.0770
L13.1122 18.0770
" />
<path d="M13.1122 18.0770
L13.1122 16.8070
" />
<path d="M13.1122 16.8070
L13.7170 16.8070
" />
<path d="M14.2008 18.0166
L14.3822 18.0770
" />
<path d="M14.3822 18.0770
L14.6846 18.0770
" />
<path d="M14.6846 18.0770
L14.8055 18.0166
" />
<path d="M14.8055 18.0166
L14.8660 17.9561
" />
<path d="M14.8660 17.9561
L14.9265 17.8351
" />
<path d="M14.9265 17.8351
L14.9265 17.7142
" />
<path d="M14.9265 17.7142
L14.8660 17.5932
" />
<path d="M14.8660 17.5932
L14.8055 17.5327
" />
<path d="M14.8055 17.5327
L14.6846 17.4723
" />
<path d="M14.6846 17.4723
L14.4427 17.4118
" />
<path d="M14.4427 17.4118
L14.3217 17.3513
" />
<path d="M14.3217 17.3513
L14.2612 17.2908
" />
<path d="M14.2612 17.2908
L14.2008 17.1699
" />
<path d="M14.2008 17.1699
L14.2008 17.0489
" />
<path d="M14.2008 17.0489
L14.2612 16.9280
" />
<path d="M14.2612 16.9280
L14.3217 16.8675
" />
<path d="M14.3217 16.8675
L14.4427 16.8070
" />
<path d="M14.4427 16.8070
L14.7450 16.8070
" />
<path d="M14.7450 16.8070
L14.9265 16.8675
" />
<path d="M15.4707 17.4118
L15.8941 17.4118
" />
<path d="M16.0755 18.0770
L15.4707 18.0770
" />
<path d="M15.4707 18.0770
L15.4707 16.8070
" />
<path d="M15.4707 16.8070
L16.0755 16.8070
" />
<path d="M16.4383 16.8070
L17.1640 16.8070
" />
<path d="M16.8012 18.0770
L16.8012 16.8070
" />
</g></g>
<g style="fill:none; 
stroke:#A90000; stroke-width:0.1524; stroke-opacity:1; 
stroke-linecap:round; stroke-linejoin:round;">
<text x="7.0612" y="17.2435"
textLength="2.6222" font-size="1.6933" lengthAdjust="spacingAndGlyphs"
text-anchor="middle" opacity="0" stroke-opacity="0">11</text>
<g class="stroked-text"><desc>11</desc>
<path d="M6.8193 17.0800
L6.0936 17.0800
" />
<path d="M6.4564 17.0800
L6.4564 15.8100
" />
<path d="M6.4564 15.8100
L6.3355 15.9915
" />
<path d="M6.3355 15.9915
L6.2145 16.1124
" />
<path d="M6.2145 16.1124
L6.0936 16.1729
" />
<path d="M8.0288 17.0800
L7.3031 17.0800
" />
<path d="M7.6659 17.0800
L7.6659 15.8100
" />
<path d="M7.6659 15.8100
L7.5450 15.9915
" />
<path d="M7.5450 15.9915
L7.4240 16.1124
" />
<path d="M7.4240 16.1124
L7.3031 16.1729
" />
</g></g>
<g style="fill:none; 
stroke:#840000; stroke-width:0.1524; stroke-opacity:1; 
stroke-linecap:round; stroke-linejoin:round;">
<path d="M40.0812 20.0375
L45.1612 20.0375
" />
</g>
<g style="fill:none; 
stroke:#006464; stroke-width:0.1524; stroke-opacity:1; 
stroke-linecap:round; stroke-linejoin:round;">
<text x="39.5732" y="20.6725"
textLength="3.1061" font-size="1.6933" lengthAdjust="spacingAndGlyphs"
text-anchor="end" opacity="0" stroke-opacity="0">INT</text>
<g class="stroked-text"><desc>INT</desc>
<path d="M36.8724 20.6170
L36.8724 19.3470
" />
<path d="M37.4772 20.6170
L37.4772 19.3470
" />
<path d="M37.4772 19.3470
L38.2029 20.6170
" />
<path d="M38.2029 20.6170
L38.2029 19.3470
" />
<path d="M38.6263 19.3470
L39.3520 19.3470
" />
<path d="M38.9892 20.6170
L38.9892 19.3470
" />
</g></g>
<g style="fill:none; 
stroke:#A90000; stroke-width:0.1524; stroke-opacity:1; 
stroke-linecap:round; stroke-linejoin:round;">
<text x="42.6212" y="19.7835"
textLength="2.6222" font-size="1.6933" lengthAdjust="spacingAndGlyphs"
text-anchor="middle" opacity="0" stroke-opacity="0">14</text>
<g class="stroked-text"><desc>14</desc>
<path d="M42.3793 19.6200
L41.6536 19.6200
" />
<path d="M42.0164 19.6200
L42.0164 18.3500
" />
<path d="M42.0164 18.3500
L41.8955 18.5315
" />
<path d="M41.8955 18.5315
L41.7745 18.6524
" />
<path d="M41.7745 18.6524
L41.6536 18.7129
" />
<path d="M43.4678 18.7734
L43.4678 19.6200
" />
<path d="M43.1654 18.2896
L42.8631 19.1967
" />
<path d="M42.8631 19.1967
L43.6492 19.1967
" />
</g></g>
<g style="fill:none; 
stroke:#840000; stroke-width:0.1524; stroke-opacity:1; 
stroke-linecap:round; stroke-linejoin:round;">
<path d="M40.0812 30.1975
L45.1612 30.1975
" />
</g>
<g style="fill:none; 
stroke:#006464; stroke-width:0.1524; stroke-opacity:1; 
stroke-linecap:round; stroke-linejoin:round;">
<text x="39.5732" y="30.8325"
textLength="5.8275" font-size="1.6933" lengthAdjust="spacingAndGlyphs"
text-anchor="end" opacity="0" stroke-opacity="0">PIN15</text>
<g class="stroked-text"><desc>PIN15</desc>
<path d="M34.1510 30.7770
L34.1510 29.5070
" />
<path d="M34.1510 29.5070
L34.6348 29.5070
" />
<path d="M34.6348 29.5070
L34.7558 29.5675
" />
<path d="M34.7558 29.5675
L34.8163 29.6280
" />
<path d="M34.8163 29.6280
L34.8767 29.7489
" />
<path d="M34.8767 29.7489
L34.8767 29.9304
" />
<path d="M34.8767 29.9304
L34.8163 30.0513
" />
<path d="M34.8163 30.0513
L34.7558 30.1118
" />
<path d="M34.7558 30.1118
L34.6348 30.1723
" />
<path d="M34.6348 30.1723
L34.1510 30.1723
" />
<path d="M35.4210 30.7770
L35.4210 29.5070
" />
<path d="M36.0258 30.7770
L36.0258 29.5070
" />
<path d="M36.0258 29.5070
L36.7515 30.7770
" />
<path d="M36.7515 30.7770
L36.7515 29.5070
" />
<path d="M38.0216 30.7770
L37.2959 30.7770
" />
<path d="M37.6587 30.7770
L37.6587 29.5070
" />
<path d="M37.6587 29.5070
L37.5378 29.6885
" />
<path d="M37.5378 29.6885
L37.4168 29.8094
" />
<path d="M37.4168 29.8094
L37.2959 29.8699
" />
<path d="M39.1706 29.5070
L38.5658 29.5070
" />
<path d="M38.5658 29.5070
L38.5054 30.1118
" />
<path d="M38.5054 30.1118
L38.5658 30.0513
" />
<path d="M38.5658 30.0513
L38.6868 29.9908
" />
<path d="M38.6868 29.9908
L38.9892 29.9908
" />
<path d="M38.9892 29.9908
L39.1101 30.0513
" />
<path d="M39.1101 30.0513
L39.1706 30.1118
" />
<path d="M39.1706 30.1118
L39.2311 30.2327
" />
<path d="M39.2311 30.2327
L39.2311 30.5351
" />
<path d="M39.2311 30.5351
L39.1706 30.6561
" />
<path d="M39.1706 30.6561
L39.1101 30.7166
" />
<path d="M39.1101 30.7166
L38.9892 30.7770
" />
<path d="M38.9892 30.7770
L38.6868 30.7770
" />
<path d="M38.6868 30.7770
L38.5658 30.7166
" />
<path d="M38.5658 30.7166
L38.5054 30.6561
" />
</g></g>
<g style="fill:none; 
stroke:#A90000; stroke-width:0.1524; stroke-opacity:1; 
stroke-linecap:round; stroke-linejoin:round;">
<text x="42.6212" y="29.9435"
textLength="2.6222" font-size="1.6933" lengthAdjust="spacingAndGlyphs"
text-anchor="middle" opacity="0" stroke-opacity="0">15</text>
<g class="stroked-text"><desc>15</desc>
<path d="M42.3793 29.7800
L41.6536 29.7800
" />
<path d="M42.0164 29.7800
L42.0164 28.5100
" />
<path d="M42.0164 28.5100
L41.8955 28.6915
" />
<path d="M41.8955 28.6915
L41.7745 28.8124
" />
<path d="M41.7745 28.8124
L41.6536 28.8729
" />
<path d="M43.5283 28.5100
L42.9235 28.5100
" />
<path d="M42.9235 28.5100
L42.8631 29.1148
" />
<path d="M42.8631 29.1148
L42.9235 29.0543
" />
<path d="M42.9235 29.0543
L43.0445 28.9938
" />
<path d="M43.0445 28.9938
L43.3469 28.9938
" />
<path d="M43.3469 28.9938
L43.4678 29.0543
" />
<path d="M43.4678 29.0543
L43.5283 29.1148
" />
<path d="M43.5283 29.1148
L43.5888 29.2357
" />
<path d="M43.5888 29.2357
L43.5888 29.5381
" />
<path d="M43.5888 29.5381
L43.5283 29.6591
" />
<path d="M43.5283 29.6591
L43.4678 29.7196
" />
<path d="M43.4678 29.7196
L43.3469 29.7800
" />
<path d="M43.3469 29.7800
L43.0445 29.7800
" />
<path d="M43.0445 29.7800
L42.9235 29.7196
" />
<path d="M42.9235 29.7196
L42.8631 29.6591
" />
</g></g>
<g style="fill:none; 
stroke:#840000; stroke-width:0.1524; stroke-opacity:1; 
stroke-linecap:round; stroke-linejoin:round;">
<path d="M40.0812 32.7375
L45.1612 32.7375
" />
</g>
<g style="fill:none; 
stroke:#006464; stroke-width:0.1524; stroke-opacity:1; 
stroke-linecap:round; stroke-linejoin:round;">
<text x="39.5732" y="33.3725"
textLength="5.8275" font-size="1.6933" lengthAdjust="spacingAndGlyphs"
text-anchor="end" opacity="0" stroke-opacity="0">PIN16</text>
<g class="stroked-text"><desc>PIN16</desc>
<path d="M34.1510 33.3170
L34.1510 32.0470
" />
<path d="M34.1510 32.0470
L34.6348 32.0470
" />
<path d="M34.6348 32.0470
L34.7558 32.1075
" />
<path d="M34.7558 32.1075
L34.8163 32.1680
" />
<path d="M34.8163 32.1680
L34.8767 32.2889
" />
<path d="M34.8767 32.2889
L34.8767 32.4704
" />
<path d="M34.8767 32.4704
L34.8163 32.5913
" />
<path d="M34.8163 32.5913
L34.7558 32.6518
" />
<path d="M34.7558 32.6518
L34.6348 32.7123
" />
<path d="M34.6348 32.7123
L34.1510 32.7123
" />
<path d="M35.4210 33.3170
L35.4210 32.0470
" />
<path d="M36.0258 33.3170
L36.0258 32.0470
" />
<path d="M36.0258 32.0470
L36.7515 33.3170
" />
<path d="M36.7515 33.3170
L36.7515 32.0470
" />
<path d="M38.0216 33.3170
L37.2959 33.3170
" />
<path d="M37.6587 33.3170
L37.6587 32.0470
" />
<path d="M37.6587 32.0470
L37.5378 32.2285
" />
<path d="M37.5378 32.2285
L37.4168 32.3494
" />
<path d="M37.4168 32.3494
L37.2959 32.4099
" />
<path d="M39.1101 32.0470
L38.8682 32.0470
" />
<path d="M38.8682 32.0470
L38.7473 32.1075
" />
<path d="M38.7473 32.1075
L38.6868 32.1680
" />
<path d="M38.6868 32.1680
L38.5658 32.3494
" />
<path d="M38.5658 32.3494
L38.5054 32.5913
" />
<path d="M38.5054 32.5913
L38.5054 33.0751
" />
<path d="M38.5054 33.0751
L38.5658 33.1961
" />
<path d="M38.5658 33.1961
L38.6263 33.2566
" />
<path d="M38.6263 33.2566
L38.7473 33.3170
" />
<path d="M38.7473 33.3170
L38.9892 33.3170
" />
<path d="M38.9892 33.3170
L39.1101 33.2566
" />
<path d="M39.1101 33.2566
L39.1706 33.1961
" />
<path d="M39.1706 33.1961
L39.2311 33.0751
" />
<path d="M39.2311 33.0751
L39.2311 32.7727
" />
<path d="M39.2311 32.7727
L39.1706 32.6518
" />
<path d="M39.1706 32.6518
L39.1101 32.5913
" />
<path d="M39.1101 32.5913
L38.9892 32.5308
" />
<path d="M38.9892 32.5308
L38.7473 32.5308
" />
<path d="M38.7473 32.5308
L38.6263 32.5913
" />
<path d="M38.6263 32.5913
L38.5658 32.6518
" />
<path d="M38.5658 32.6518
L38.5054 32.7727
" />
</g></g>
<g style="fill:none; 
stroke:#A90000; stroke-width:0.1524; stroke-opacity:1; 
stroke-linecap:round; stroke-linejoin:round;">
<text x="42.6212" y="32.4835"
textLength="2.6222" font-size="1.6933" lengthAdjust="spacingAndGlyphs"
text-anchor="middle" opacity="0" stroke-opacity="0">16</text>
<g class="stroked-text"><desc>16</desc>
<path d="M42.3793 32.3200
L41.6536 32.3200
" />
<path d="M42.0164 32.3200
L42.0164 31.0500
" />
<path d="M42.0164 31.0500
L41.8955 31.2315
" />
<path d="M41.8955 31.2315
L41.7745 31.3524
" />
<path d="M41.7745 31.3524
L41.6536 31.4129
" />
<path d="M43.4678 31.0500
L43.2259 31.0500
" />
<path d="M43.2259 31.0500
L43.1050 31.1105
" />
<path d="M43.1050 31.1105
L43.0445 31.1710
" />
<path d="M43.0445 31.1710
L42.9235 31.3524
" />
<path d="M42.9235 31.3524
L42.8631 31.5943
" />
<path d="M42.8631 31.5943
L42.8631 32.0781
" />
<path d="M42.8631 32.0781
L42.9235 32.1991
" />
<path d="M42.9235 32.1991
L42.9840 32.2596
" />
<path d="M42.9840 32.2596
L43.1050 32.3200
" />
<path d="M43.1050 32.3200
L43.3469 32.3200
" />
<path d="M43.3469 32.3200
L43.4678 32.2596
" />
<path d="M43.4678 32.2596
L43.5283 32.1991
" />
<path d="M43.5283 32.1991
L43.5888 32.0781
" />
<path d="M43.5888 32.0781
L43.5888 31.7757
" />
<path d="M43.5888 31.7757
L43.5283 31.6548
" />
<path d="M43.5283 31.6548
L43.4678 31.5943
" />
<path d="M43.4678 31.5943
L43.3469 31.5338
" />
<path d="M43.3469 31.5338
L43.1050 31.5338
" />
<path d="M43.1050 31.5338
L42.9840 31.5943
" />
<path d="M42.9840 31.5943
L42.9235 31.6548
" />
<path d="M42.9235 31.6548
L42.8631 31.7757
" />
</g></g>
<g style="fill:none; 
stroke:#840000; stroke-width:0.1524; stroke-opacity:1; 
stroke-linecap:round; stroke-linejoin:round;">
<path d="M9.6012 32.7375
L4.5212 32.7375
" />
</g>
<g style="fill:none; 
stroke:#006464; stroke-width:0.1524; stroke-opacity:1; 
stroke-linecap:round; stroke-linejoin:round;">
<text x="10.1092" y="33.3725"
textLength="5.4646" font-size="1.6933" lengthAdjust="spacingAndGlyphs"
text-anchor="start" opacity="0" stroke-opacity="0">COM3</text>
<g class="stroked-text"><desc>COM3</desc>
<path d="M11.2374 33.1961
L11.1770 33.2566
" />
<path d="M11.1770 33.2566
L10.9955 33.3170
" />
<path d="M10.9955 33.3170
L10.8746 33.3170
" />
<path d="M10.8746 33.3170
L10.6932 33.2566
" />
<path d="M10.6932 33.2566
L10.5722 33.1356
" />
<path d="M10.5722 33.1356
L10.5117 33.0146
" />
<path d="M10.5117 33.0146
L10.4513 32.7727
" />
<path d="M10.4513 32.7727
L10.4513 32.5913
" />
<path d="M10.4513 32.5913
L10.5117 32.3494
" />
<path d="M10.5117 32.3494
L10.5722 32.2285
" />
<path d="M10.5722 32.2285
L10.6932 32.1075
" />
<path d="M10.6932 32.1075
L10.8746 32.0470
" />
<path d="M10.8746 32.0470
L10.9955 32.0470
" />
<path d="M10.9955 32.0470
L11.1770 32.1075
" />
<path d="M11.1770 32.1075
L11.2374 32.1680
" />
<path d="M12.0236 32.0470
L12.2655 32.0470
" />
<path d="M12.2655 32.0470
L12.3865 32.1075
" />
<path d="M12.3865 32.1075
L12.5074 32.2285
" />
<path d="M12.5074 32.2285
L12.5679 32.4704
" />
<path d="M12.5679 32.4704
L12.5679 32.8937
" />
<path d="M12.5679 32.8937
L12.5074 33.1356
" />
<path d="M12.5074 33.1356
L12.3865 33.2566
" />
<path d="M12.3865 33.2566
L12.2655 33.3170
" />
<path d="M12.2655 33.3170
L12.0236 33.3170
" />
<path d="M12.0236 33.3170
L11.9027 33.2566
" />
<path d="M11.9027 33.2566
L11.7817 33.1356
" />
<path d="M11.7817 33.1356
L11.7213 32.8937
" />
<path d="M11.7213 32.8937
L11.7213 32.4704
" />
<path d="M11.7213 32.4704
L11.7817 32.2285
" />
<path d="M11.7817 32.2285
L11.9027 32.1075
" />
<path d="M11.9027 32.1075
L12.0236 32.0470
" />
<path d="M13.1122 33.3170
L13.1122 32.0470
" />
<path d="M13.1122 32.0470
L13.5356 32.9542
" />
<path d="M13.5356 32.9542
L13.9589 32.0470
" />
<path d="M13.9589 32.0470
L13.9589 33.3170
" />
<path d="M14.4427 32.0470
L15.2289 32.0470
" />
<path d="M15.2289 32.0470
L14.8055 32.5308
" />
<path d="M14.8055 32.5308
L14.9870 32.5308
" />
<path d="M14.9870 32.5308
L15.1079 32.5913
" />
<path d="M15.1079 32.5913
L15.1684 32.6518
" />
<path d="M15.1684 32.6518
L15.2289 32.7727
" />
<path d="M15.2289 32.7727
L15.2289 33.0751
" />
<path d="M15.2289 33.0751
L15.1684 33.1961
" />
<path d="M15.1684 33.1961
L15.1079 33.2566
" />
<path d="M15.1079 33.2566
L14.9870 33.3170
" />
<path d="M14.9870 33.3170
L14.6241 33.3170
" />
<path d="M14.6241 33.3170
L14.5032 33.2566
" />
<path d="M14.5032 33.2566
L14.4427 33.1961
" />
</g></g>
<g style="fill:none; 
stroke:#A90000; stroke-width:0.1524; stroke-opacity:1; 
stroke-linecap:round; stroke-linejoin:round;">
<text x="7.0612" y="32.4835"
textLength="2.6222" font-size="1.6933" lengthAdjust="spacingAndGlyphs"
text-anchor="middle" opacity="0" stroke-opacity="0">17</text>
<g class="stroked-text"><desc>17</desc>
<path d="M6.8193 32.3200
L6.0936 32.3200
" />
<path d="M6.4564 32.3200
L6.4564 31.0500
" />
<path d="M6.4564 31.0500
L6.3355 31.2315
" />
<path d="M6.3355 31.2315
L6.2145 31.3524
" />
<path d="M6.2145 31.3524
L6.0936 31.4129
" />
<path d="M7.2426 31.0500
L8.0892 31.0500
" />
<path d="M8.0892 31.0500
L7.5450 32.3200
" />
</g></g>
<g style="fill:none; 
stroke:#840000; stroke-width:0.1524; stroke-opacity:1; 
stroke-linecap:round; stroke-linejoin:round;">
<path d="M9.6012 30.1975
L4.5212 30.1975
" />
</g>
<g style="fill:none; 
stroke:#006464; stroke-width:0.1524; stroke-opacity:1; 
stroke-linecap:round; stroke-linejoin:round;">
<text x="10.1092" y="30.8325"
textLength="5.4646" font-size="1.6933" lengthAdjust="spacingAndGlyphs"
text-anchor="start" opacity="0" stroke-opacity="0">COM2</text>
<g class="stroked-text"><desc>COM2</desc>
<path d="M11.2374 30.6561
L11.1770 30.7166
" />
<path d="M11.1770 30.7166
L10.9955 30.7770
" />
<path d="M10.9955 30.7770
L10.8746 30.7770
" />
<path d="M10.8746 30.7770
L10.6932 30.7166
" />
<path d="M10.6932 30.7166
L10.5722 30.5956
" />
<path d="M10.5722 30.5956
L10.5117 30.4746
" />
<path d="M10.5117 30.4746
L10.4513 30.2327
" />
<path d="M10.4513 30.2327
L10.4513 30.0513
" />
<path d="M10.4513 30.0513
L10.5117 29.8094
" />
<path d="M10.5117 29.8094
L10.5722 29.6885
" />
<path d="M10.5722 29.6885
L10.6932 29.5675
" />
<path d="M10.6932 29.5675
L10.8746 29.5070
" />
<path d="M10.8746 29.5070
L10.9955 29.5070
" />
<path d="M10.9955 29.5070
L11.1770 29.5675
" />
<path d="M11.1770 29.5675
L11.2374 29.6280
" />
<path d="M12.0236 29.5070
L12.2655 29.5070
" />
<path d="M12.2655 29.5070
L12.3865 29.5675
" />
<path d="M12.3865 29.5675
L12.5074 29.6885
" />
<path d="M12.5074 29.6885
L12.5679 29.9304
" />
<path d="M12.5679 29.9304
L12.5679 30.3537
" />
<path d="M12.5679 30.3537
L12.5074 30.5956
" />
<path d="M12.5074 30.5956
L12.3865 30.7166
" />
<path d="M12.3865 30.7166
L12.2655 30.7770
" />
<path d="M12.2655 30.7770
L12.0236 30.7770
" />
<path d="M12.0236 30.7770
L11.9027 30.7166
" />
<path d="M11.9027 30.7166
L11.7817 30.5956
" />
<path d="M11.7817 30.5956
L11.7213 30.3537
" />
<path d="M11.7213 30.3537
L11.7213 29.9304
" />
<path d="M11.7213 29.9304
L11.7817 29.6885
" />
<path d="M11.7817 29.6885
L11.9027 29.5675
" />
<path d="M11.9027 29.5675
L12.0236 29.5070
" />
<path d="M13.1122 30.7770
L13.1122 29.5070
" />
<path d="M13.1122 29.5070
L13.5356 30.4142
" />
<path d="M13.5356 30.4142
L13.9589 29.5070
" />
<path d="M13.9589 29.5070
L13.9589 30.7770
" />
<path d="M14.5032 29.6280
L14.5636 29.5675
" />
<path d="M14.5636 29.5675
L14.6846 29.5070
" />
<path d="M14.6846 29.5070
L14.9870 29.5070
" />
<path d="M14.9870 29.5070
L15.1079 29.5675
" />
<path d="M15.1079 29.5675
L15.1684 29.6280
" />
<path d="M15.1684 29.6280
L15.2289 29.7489
" />
<path d="M15.2289 29.7489
L15.2289 29.8699
" />
<path d="M15.2289 29.8699
L15.1684 30.0513
" />
<path d="M15.1684 30.0513
L14.4427 30.7770
" />
<path d="M14.4427 30.7770
L15.2289 30.7770
" />
</g></g>
<g style="fill:none; 
stroke:#A90000; stroke-width:0.1524; stroke-opacity:1; 
stroke-linecap:round; stroke-linejoin:round;">
<text x="7.0612" y="29.9435"
textLength="2.6222" font-size="1.6933" lengthAdjust="spacingAndGlyphs"
text-anchor="middle" opacity="0" stroke-opacity="0">18</text>
<g class="stroked-text"><desc>18</desc>
<path d="M6.8193 29.7800
L6.0936 29.7800
" />
<path d="M6.4564 29.7800
L6.4564 28.5100
" />
<path d="M6.4564 28.5100
L6.3355 28.6915
" />
<path d="M6.3355 28.6915
L6.2145 28.8124
" />
<path d="M6.2145 28.8124
L6.0936 28.8729
" />
<path d="M7.5450 29.0543
L7.4240 28.9938
" />
<path d="M7.4240 28.9938
L7.3635 28.9334
" />
<path d="M7.3635 28.9334
L7.3031 28.8124
" />
<path d="M7.3031 28.8124
L7.3031 28.7519
" />
<path d="M7.3031 28.7519
L7.3635 28.6310
" />
<path d="M7.3635 28.6310
L7.4240 28.5705
" />
<path d="M7.4240 28.5705
L7.5450 28.5100
" />
<path d="M7.5450 28.5100
L7.7869 28.5100
" />
<path d="M7.7869 28.5100
L7.9078 28.5705
" />
<path d="M7.9078 28.5705
L7.9683 28.6310
" />
<path d="M7.9683 28.6310
L8.0288 28.7519
" />
<path d="M8.0288 28.7519
L8.0288 28.8124
" />
<path d="M8.0288 28.8124
L7.9683 28.9334
" />
<path d="M7.9683 28.9334
L7.9078 28.9938
" />
<path d="M7.9078 28.9938
L7.7869 29.0543
" />
<path d="M7.7869 29.0543
L7.5450 29.0543
" />
<path d="M7.5450 29.0543
L7.4240 29.1148
" />
<path d="M7.4240 29.1148
L7.3635 29.1753
" />
<path d="M7.3635 29.1753
L7.3031 29.2962
" />
<path d="M7.3031 29.2962
L7.3031 29.5381
" />
<path d="M7.3031 29.5381
L7.3635 29.6591
" />
<path d="M7.3635 29.6591
L7.4240 29.7196
" />
<path d="M7.4240 29.7196
L7.5450 29.7800
" />
<path d="M7.5450 29.7800
L7.7869 29.7800
" />
<path d="M7.7869 29.7800
L7.9078 29.7196
" />
<path d="M7.9078 29.7196
L7.9683 29.6591
" />
<path d="M7.9683 29.6591
L8.0288 29.5381
" />
<path d="M8.0288 29.5381
L8.0288 29.2962
" />
<path d="M8.0288 29.2962
L7.9683 29.1753
" />
<path d="M7.9683 29.1753
L7.9078 29.1148
" />
<path d="M7.9078 29.1148
L7.7869 29.0543
" />
</g></g>
<g style="fill:none; 
stroke:#840000; stroke-width:0.1524; stroke-opacity:1; 
stroke-linecap:round; stroke-linejoin:round;">
<path d="M9.6012 27.6575
L4.5212 27.6575
" />
</g>
<g style="fill:none; 
stroke:#006464; stroke-width:0.1524; stroke-opacity:1; 
stroke-linecap:round; stroke-linejoin:round;">
<text x="10.1092" y="28.2925"
textLength="5.4646" font-size="1.6933" lengthAdjust="spacingAndGlyphs"
text-anchor="start" opacity="0" stroke-opacity="0">COM1</text>
<g class="stroked-text"><desc>COM1</desc>
<path d="M11.2374 28.1161
L11.1770 28.1766
" />
<path d="M11.1770 28.1766
L10.9955 28.2370
" />
<path d="M10.9955 28.2370
L10.8746 28.2370
" />
<path d="M10.8746 28.2370
L10.6932 28.1766
" />
<path d="M10.6932 28.1766
L10.5722 28.0556
" />
<path d="M10.5722 28.0556
L10.5117 27.9346
" />
<path d="M10.5117 27.9346
L10.4513 27.6927
" />
<path d="M10.4513 27.6927
L10.4513 27.5113
" />
<path d="M10.4513 27.5113
L10.5117 27.2694
" />
<path d="M10.5117 27.2694
L10.5722 27.1485
" />
<path d="M10.5722 27.1485
L10.6932 27.0275
" />
<path d="M10.6932 27.0275
L10.8746 26.9670
" />
<path d="M10.8746 26.9670
L10.9955 26.9670
" />
<path d="M10.9955 26.9670
L11.1770 27.0275
" />
<path d="M11.1770 27.0275
L11.2374 27.0880
" />
<path d="M12.0236 26.9670
L12.2655 26.9670
" />
<path d="M12.2655 26.9670
L12.3865 27.0275
" />
<path d="M12.3865 27.0275
L12.5074 27.1485
" />
<path d="M12.5074 27.1485
L12.5679 27.3904
" />
<path d="M12.5679 27.3904
L12.5679 27.8137
" />
<path d="M12.5679 27.8137
L12.5074 28.0556
" />
<path d="M12.5074 28.0556
L12.3865 28.1766
" />
<path d="M12.3865 28.1766
L12.2655 28.2370
" />
<path d="M12.2655 28.2370
L12.0236 28.2370
" />
<path d="M12.0236 28.2370
L11.9027 28.1766
" />
<path d="M11.9027 28.1766
L11.7817 28.0556
" />
<path d="M11.7817 28.0556
L11.7213 27.8137
" />
<path d="M11.7213 27.8137
L11.7213 27.3904
" />
<path d="M11.7213 27.3904
L11.7817 27.1485
" />
<path d="M11.7817 27.1485
L11.9027 27.0275
" />
<path d="M11.9027 27.0275
L12.0236 26.9670
" />
<path d="M13.1122 28.2370
L13.1122 26.9670
" />
<path d="M13.1122 26.9670
L13.5356 27.8742
" />
<path d="M13.5356 27.8742
L13.9589 26.9670
" />
<path d="M13.9589 26.9670
L13.9589 28.2370
" />
<path d="M15.2289 28.2370
L14.5032 28.2370
" />
<path d="M14.8660 28.2370
L14.8660 26.9670
" />
<path d="M14.8660 26.9670
L14.7451 27.1485
" />
<path d="M14.7451 27.1485
L14.6241 27.2694
" />
<path d="M14.6241 27.2694
L14.5032 27.3299
" />
</g></g>
<g style="fill:none; 
stroke:#A90000; stroke-width:0.1524; stroke-opacity:1; 
stroke-linecap:round; stroke-linejoin:round;">
<text x="7.0612" y="27.4035"
textLength="2.6222" font-size="1.6933" lengthAdjust="spacingAndGlyphs"
text-anchor="middle" opacity="0" stroke-opacity="0">19</text>
<g class="stroked-text"><desc>19</desc>
<path d="M6.8193 27.2400
L6.0936 27.2400
" />
<path d="M6.4564 27.2400
L6.4564 25.9700
" />
<path d="M6.4564 25.9700
L6.3355 26.1515
" />
<path d="M6.3355 26.1515
L6.2145 26.2724
" />
<path d="M6.2145 26.2724
L6.0936 26.3329
" />
<path d="M7.4240 27.2400
L7.6659 27.2400
" />
<path d="M7.6659 27.2400
L7.7869 27.1796
" />
<path d="M7.7869 27.1796
L7.8473 27.1191
" />
<path d="M7.8473 27.1191
L7.9683 26.9376
" />
<path d="M7.9683 26.9376
L8.0288 26.6957
" />
<path d="M8.0288 26.6957
L8.0288 26.2119
" />
<path d="M8.0288 26.2119
L7.9683 26.0910
" />
<path d="M7.9683 26.0910
L7.9078 26.0305
" />
<path d="M7.9078 26.0305
L7.7869 25.9700
" />
<path d="M7.7869 25.9700
L7.5450 25.9700
" />
<path d="M7.5450 25.9700
L7.4240 26.0305
" />
<path d="M7.4240 26.0305
L7.3635 26.0910
" />
<path d="M7.3635 26.0910
L7.3031 26.2119
" />
<path d="M7.3031 26.2119
L7.3031 26.5143
" />
<path d="M7.3031 26.5143
L7.3635 26.6353
" />
<path d="M7.3635 26.6353
L7.4240 26.6957
" />
<path d="M7.4240 26.6957
L7.5450 26.7562
" />
<path d="M7.5450 26.7562
L7.7869 26.7562
" />
<path d="M7.7869 26.7562
L7.9078 26.6957
" />
<path d="M7.9078 26.6957
L7.9683 26.6353
" />
<path d="M7.9683 26.6353
L8.0288 26.5143
" />
</g></g>
<g style="fill:none; 
stroke:#840000; stroke-width:0.1524; stroke-opacity:1; 
stroke-linecap:round; stroke-linejoin:round;">
<path d="M9.6012 25.1175
L4.5212 25.1175
" />
</g>
<g style="fill:none; 
stroke:#006464; stroke-width:0.1524; stroke-opacity:1; 
stroke-linecap:round; stroke-linejoin:round;">
<text x="10.1092" y="25.7525"
textLength="5.4646" font-size="1.6933" lengthAdjust="spacingAndGlyphs"
text-anchor="start" opacity="0" stroke-opacity="0">COM0</text>
<g class="stroked-text"><desc>COM0</desc>
<path d="M11.2374 25.5761
L11.1770 25.6366
" />
<path d="M11.1770 25.6366
L10.9955 25.6970
" />
<path d="M10.9955 25.6970
L10.8746 25.6970
" />
<path d="M10.8746 25.6970
L10.6932 25.6366
" />
<path d="M10.6932 25.6366
L10.5722 25.5156
" />
<path d="M10.5722 25.5156
L10.5117 25.3946
" />
<path d="M10.5117 25.3946
L10.4513 25.1527
" />
<path d="M10.4513 25.1527
L10.4513 24.9713
" />
<path d="M10.4513 24.9713
L10.5117 24.7294
" />
<path d="M10.5117 24.7294
L10.5722 24.6085
" />
<path d="M10.5722 24.6085
L10.6932 24.4875
" />
<path d="M10.6932 24.4875
L10.8746 24.4270
" />
<path d="M10.8746 24.4270
L10.9955 24.4270
" />
<path d="M10.9955 24.4270
L11.1770 24.4875
" />
<path d="M11.1770 24.4875
L11.2374 24.5480
" />
<path d="M12.0236 24.4270
L12.2655 24.4270
" />
<path d="M12.2655 24.4270
L12.3865 24.4875
" />
<path d="M12.3865 24.4875
L12.5074 24.6085
" />
<path d="M12.5074 24.6085
L12.5679 24.8504
" />
<path d="M12.5679 24.8504
L12.5679 25.2737
" />
<path d="M12.5679 25.2737
L12.5074 25.5156
" />
<path d="M12.5074 25.5156
L12.3865 25.6366
" />
<path d="M12.3865 25.6366
L12.2655 25.6970
" />
<path d="M12.2655 25.6970
L12.0236 25.6970
" />
<path d="M12.0236 25.6970
L11.9027 25.6366
" />
<path d="M11.9027 25.6366
L11.7817 25.5156
" />
<path d="M11.7817 25.5156
L11.7213 25.2737
" />
<path d="M11.7213 25.2737
L11.7213 24.8504
" />
<path d="M11.7213 24.8504
L11.7817 24.6085
" />
<path d="M11.7817 24.6085
L11.9027 24.4875
" />
<path d="M11.9027 24.4875
L12.0236 24.4270
" />
<path d="M13.1122 25.6970
L13.1122 24.4270
" />
<path d="M13.1122 24.4270
L13.5356 25.3342
" />
<path d="M13.5356 25.3342
L13.9589 24.4270
" />
<path d="M13.9589 24.4270
L13.9589 25.6970
" />
<path d="M14.8055 24.4270
L14.9265 24.4270
" />
<path d="M14.9265 24.4270
L15.0474 24.4875
" />
<path d="M15.0474 24.4875
L15.1079 24.5480
" />
<path d="M15.1079 24.5480
L15.1684 24.6689
" />
<path d="M15.1684 24.6689
L15.2289 24.9108
" />
<path d="M15.2289 24.9108
L15.2289 25.2132
" />
<path d="M15.2289 25.2132
L15.1684 25.4551
" />
<path d="M15.1684 25.4551
L15.1079 25.5761
" />
<path d="M15.1079 25.5761
L15.0474 25.6366
" />
<path d="M15.0474 25.6366
L14.9265 25.6970
" />
<path d="M14.9265 25.6970
L14.8055 25.6970
" />
<path d="M14.8055 25.6970
L14.6846 25.6366
" />
<path d="M14.6846 25.6366
L14.6241 25.5761
" />
<path d="M14.6241 25.5761
L14.5636 25.4551
" />
<path d="M14.5636 25.4551
L14.5032 25.2132
" />
<path d="M14.5032 25.2132
L14.5032 24.9108
" />
<path d="M14.5032 24.9108
L14.5636 24.6689
" />
<path d="M14.5636 24.6689
L14.6241 24.5480
" />
<path d="M14.6241 24.5480
L14.6846 24.4875
" />
<path d="M14.6846 24.4875
L14.8055 24.4270
" />
</g></g>
<g style="fill:none; 
stroke:#A90000; stroke-width:0.1524; stroke-opacity:1; 
stroke-linecap:round; stroke-linejoin:round;">
<text x="7.0612" y="24.8635"
textLength="2.6222" font-size="1.6933" lengthAdjust="spacingAndGlyphs"
text-anchor="middle" opacity="0" stroke-opacity="0">20</text>
<g class="stroked-text"><desc>20</desc>
<path d="M6.0936 23.5510
L6.1540 23.4905
" />
<path d="M6.1540 23.4905
L6.2750 23.4300
" />
<path d="M6.2750 23.4300
L6.5774 23.4300
" />
<path d="M6.5774 23.4300
L6.6983 23.4905
" />
<path d="M6.6983 23.4905
L6.7588 23.5510
" />
<path d="M6.7588 23.5510
L6.8193 23.6719
" />
<path d="M6.8193 23.6719
L6.8193 23.7929
" />
<path d="M6.8193 23.7929
L6.7588 23.9743
" />
<path d="M6.7588 23.9743
L6.0331 24.7000
" />
<path d="M6.0331 24.7000
L6.8193 24.7000
" />
<path d="M7.6054 23.4300
L7.7264 23.4300
" />
<path d="M7.7264 23.4300
L7.8473 23.4905
" />
<path d="M7.8473 23.4905
L7.9078 23.5510
" />
<path d="M7.9078 23.5510
L7.9683 23.6719
" />
<path d="M7.9683 23.6719
L8.0288 23.9138
" />
<path d="M8.0288 23.9138
L8.0288 24.2162
" />
<path d="M8.0288 24.2162
L7.9683 24.4581
" />
<path d="M7.9683 24.4581
L7.9078 24.5791
" />
<path d="M7.9078 24.5791
L7.8473 24.6396
" />
<path d="M7.8473 24.6396
L7.7264 24.7000
" />
<path d="M7.7264 24.7000
L7.6054 24.7000
" />
<path d="M7.6054 24.7000
L7.4845 24.6396
" />
<path d="M7.4845 24.6396
L7.4240 24.5791
" />
<path d="M7.4240 24.5791
L7.3635 24.4581
" />
<path d="M7.3635 24.4581
L7.3031 24.2162
" />
<path d="M7.3031 24.2162
L7.3031 23.9138
" />
<path d="M7.3031 23.9138
L7.3635 23.6719
" />
<path d="M7.3635 23.6719
L7.4240 23.5510
" />
<path d="M7.4240 23.5510
L7.4845 23.4905
" />
<path d="M7.4845 23.4905
L7.6054 23.4300
" />
</g></g>
<g style="fill:none; 
stroke:#840000; stroke-width:0.1524; stroke-opacity:1; 
stroke-linecap:round; stroke-linejoin:round;">
<path d="M40.0812 35.2775
L45.1612 35.2775
" />
</g>
<g style="fill:none; 
stroke:#006464; stroke-width:0.1524; stroke-opacity:1; 
stroke-linecap:round; stroke-linejoin:round;">
<text x="39.5732" y="35.9125"
textLength="6.0090" font-size="1.6933" lengthAdjust="spacingAndGlyphs"
text-anchor="end" opacity="0" stroke-opacity="0">GNDIO</text>
<g class="stroked-text"><desc>GNDIO</desc>
<path d="M34.6348 34.6475
L34.5138 34.5870
" />
<path d="M34.5138 34.5870
L34.3324 34.5870
" />
<path d="M34.3324 34.5870
L34.1510 34.6475
" />
<path d="M34.1510 34.6475
L34.0300 34.7685
" />
<path d="M34.0300 34.7685
L33.9695 34.8894
" />
<path d="M33.9695 34.8894
L33.9091 35.1313
" />
<path d="M33.9091 35.1313
L33.9091 35.3127
" />
<path d="M33.9091 35.3127
L33.9695 35.5546
" />
<path d="M33.9695 35.5546
L34.0300 35.6756
" />
<path d="M34.0300 35.6756
L34.1510 35.7966
" />
<path d="M34.1510 35.7966
L34.3324 35.8570
" />
<path d="M34.3324 35.8570
L34.4533 35.8570
" />
<path d="M34.4533 35.8570
L34.6348 35.7966
" />
<path d="M34.6348 35.7966
L34.6952 35.7361
" />
<path d="M34.6952 35.7361
L34.6952 35.3127
" />
<path d="M34.6952 35.3127
L34.4533 35.3127
" />
<path d="M35.2395 35.8570
L35.2395 34.5870
" />
<path d="M35.2395 34.5870
L35.9652 35.8570
" />
<path d="M35.9652 35.8570
L35.9652 34.5870
" />
<path d="M36.5700 35.8570
L36.5700 34.5870
" />
<path d="M36.5700 34.5870
L36.8724 34.5870
" />
<path d="M36.8724 34.5870
L37.0538 34.6475
" />
<path d="M37.0538 34.6475
L37.1748 34.7685
" />
<path d="M37.1748 34.7685
L37.2353 34.8894
" />
<path d="M37.2353 34.8894
L37.2957 35.1313
" />
<path d="M37.2957 35.1313
L37.2957 35.3127
" />
<path d="M37.2957 35.3127
L37.2353 35.5546
" />
<path d="M37.2353 35.5546
L37.1748 35.6756
" />
<path d="M37.1748 35.6756
L37.0538 35.7966
" />
<path d="M37.0538 35.7966
L36.8724 35.8570
" />
<path d="M36.8724 35.8570
L36.5700 35.8570
" />
<path d="M37.8400 35.8570
L37.8400 34.5870
" />
<path d="M38.6867 34.5870
L38.9286 34.5870
" />
<path d="M38.9286 34.5870
L39.0496 34.6475
" />
<path d="M39.0496 34.6475
L39.1705 34.7685
" />
<path d="M39.1705 34.7685
L39.2310 35.0104
" />
<path d="M39.2310 35.0104
L39.2310 35.4337
" />
<path d="M39.2310 35.4337
L39.1705 35.6756
" />
<path d="M39.1705 35.6756
L39.0496 35.7966
" />
<path d="M39.0496 35.7966
L38.9286 35.8570
" />
<path d="M38.9286 35.8570
L38.6867 35.8570
" />
<path d="M38.6867 35.8570
L38.5658 35.7966
" />
<path d="M38.5658 35.7966
L38.4448 35.6756
" />
<path d="M38.4448 35.6756
L38.3844 35.4337
" />
<path d="M38.3844 35.4337
L38.3844 35.0104
" />
<path d="M38.3844 35.0104
L38.4448 34.7685
" />
<path d="M38.4448 34.7685
L38.5658 34.6475
" />
<path d="M38.5658 34.6475
L38.6867 34.5870
" />
</g></g>
<g style="fill:none; 
stroke:#A90000; stroke-width:0.1524; stroke-opacity:1; 
stroke-linecap:round; stroke-linejoin:round;">
<text x="42.6212" y="35.0235"
textLength="2.6222" font-size="1.6933" lengthAdjust="spacingAndGlyphs"
text-anchor="middle" opacity="0" stroke-opacity="0">25</text>
<g class="stroked-text"><desc>25</desc>
<path d="M41.6536 33.7110
L41.7140 33.6505
" />
<path d="M41.7140 33.6505
L41.8350 33.5900
" />
<path d="M41.8350 33.5900
L42.1374 33.5900
" />
<path d="M42.1374 33.5900
L42.2583 33.6505
" />
<path d="M42.2583 33.6505
L42.3188 33.7110
" />
<path d="M42.3188 33.7110
L42.3793 33.8319
" />
<path d="M42.3793 33.8319
L42.3793 33.9529
" />
<path d="M42.3793 33.9529
L42.3188 34.1343
" />
<path d="M42.3188 34.1343
L41.5931 34.8600
" />
<path d="M41.5931 34.8600
L42.3793 34.8600
" />
<path d="M43.5283 33.5900
L42.9235 33.5900
" />
<path d="M42.9235 33.5900
L42.8631 34.1948
" />
<path d="M42.8631 34.1948
L42.9235 34.1343
" />
<path d="M42.9235 34.1343
L43.0445 34.0738
" />
<path d="M43.0445 34.0738
L43.3469 34.0738
" />
<path d="M43.3469 34.0738
L43.4678 34.1343
" />
<path d="M43.4678 34.1343
L43.5283 34.1948
" />
<path d="M43.5283 34.1948
L43.5888 34.3157
" />
<path d="M43.5888 34.3157
L43.5888 34.6181
" />
<path d="M43.5888 34.6181
L43.5283 34.7391
" />
<path d="M43.5283 34.7391
L43.4678 34.7996
" />
<path d="M43.4678 34.7996
L43.3469 34.8600
" />
<path d="M43.3469 34.8600
L43.0445 34.8600
" />
<path d="M43.0445 34.8600
L42.9235 34.7996
" />
<path d="M42.9235 34.7996
L42.8631 34.7391
" />
</g></g>
<g style="fill:none; 
stroke:#840000; stroke-width:0.1524; stroke-opacity:1; 
stroke-linecap:round; stroke-linejoin:round;">
<path d="M40.0812 17.4975
L45.1612 17.4975
" />
</g>
<g style="fill:none; 
stroke:#006464; stroke-width:0.1524; stroke-opacity:1; 
stroke-linecap:round; stroke-linejoin:round;">
<text x="39.5732" y="18.1325"
textLength="7.4603" font-size="1.6933" lengthAdjust="spacingAndGlyphs"
text-anchor="end" opacity="0" stroke-opacity="0">XOUT32</text>
<g class="stroked-text"><desc>XOUT32</desc>
<path d="M32.3973 16.8070
L33.2439 18.0770
" />
<path d="M33.2439 16.8070
L32.3973 18.0770
" />
<path d="M33.9696 16.8070
L34.2115 16.8070
" />
<path d="M34.2115 16.8070
L34.3325 16.8675
" />
<path d="M34.3325 16.8675
L34.4534 16.9885
" />
<path d="M34.4534 16.9885
L34.5139 17.2304
" />
<path d="M34.5139 17.2304
L34.5139 17.6537
" />
<path d="M34.5139 17.6537
L34.4534 17.8956
" />
<path d="M34.4534 17.8956
L34.3325 18.0166
" />
<path d="M34.3325 18.0166
L34.2115 18.0770
" />
<path d="M34.2115 18.0770
L33.9696 18.0770
" />
<path d="M33.9696 18.0770
L33.8487 18.0166
" />
<path d="M33.8487 18.0166
L33.7277 17.8956
" />
<path d="M33.7277 17.8956
L33.6673 17.6537
" />
<path d="M33.6673 17.6537
L33.6673 17.2304
" />
<path d="M33.6673 17.2304
L33.7277 16.9885
" />
<path d="M33.7277 16.9885
L33.8487 16.8675
" />
<path d="M33.8487 16.8675
L33.9696 16.8070
" />
<path d="M35.0582 16.8070
L35.0582 17.8351
" />
<path d="M35.0582 17.8351
L35.1187 17.9561
" />
<path d="M35.1187 17.9561
L35.1792 18.0166
" />
<path d="M35.1792 18.0166
L35.3001 18.0770
" />
<path d="M35.3001 18.0770
L35.5420 18.0770
" />
<path d="M35.5420 18.0770
L35.6630 18.0166
" />
<path d="M35.6630 18.0166
L35.7235 17.9561
" />
<path d="M35.7235 17.9561
L35.7839 17.8351
" />
<path d="M35.7839 17.8351
L35.7839 16.8070
" />
<path d="M36.2073 16.8070
L36.9330 16.8070
" />
<path d="M36.5702 18.0770
L36.5702 16.8070
" />
<path d="M37.2354 16.8070
L38.0216 16.8070
" />
<path d="M38.0216 16.8070
L37.5982 17.2908
" />
<path d="M37.5982 17.2908
L37.7797 17.2908
" />
<path d="M37.7797 17.2908
L37.9006 17.3513
" />
<path d="M37.9006 17.3513
L37.9611 17.4118
" />
<path d="M37.9611 17.4118
L38.0216 17.5327
" />
<path d="M38.0216 17.5327
L38.0216 17.8351
" />
<path d="M38.0216 17.8351
L37.9611 17.9561
" />
<path d="M37.9611 17.9561
L37.9006 18.0166
" />
<path d="M37.9006 18.0166
L37.7797 18.0770
" />
<path d="M37.7797 18.0770
L37.4168 18.0770
" />
<path d="M37.4168 18.0770
L37.2959 18.0166
" />
<path d="M37.2959 18.0166
L37.2354 17.9561
" />
<path d="M38.5054 16.9280
L38.5658 16.8675
" />
<path d="M38.5658 16.8675
L38.6868 16.8070
" />
<path d="M38.6868 16.8070
L38.9892 16.8070
" />
<path d="M38.9892 16.8070
L39.1101 16.8675
" />
<path d="M39.1101 16.8675
L39.1706 16.9280
" />
<path d="M39.1706 16.9280
L39.2311 17.0489
" />
<path d="M39.2311 17.0489
L39.2311 17.1699
" />
<path d="M39.2311 17.1699
L39.1706 17.3513
" />
<path d="M39.1706 17.3513
L38.4449 18.0770
" />
<path d="M38.4449 18.0770
L39.2311 18.0770
" />
</g></g>
<g style="fill:none; 
stroke:#A90000; stroke-width:0.1524; stroke-opacity:1; 
stroke-linecap:round; stroke-linejoin:round;">
<text x="42.6212" y="17.2435"
textLength="2.6222" font-size="1.6933" lengthAdjust="spacingAndGlyphs"
text-anchor="middle" opacity="0" stroke-opacity="0">26</text>
<g class="stroked-text"><desc>26</desc>
<path d="M41.6536 15.9310
L41.7140 15.8705
" />
<path d="M41.7140 15.8705
L41.8350 15.8100
" />
<path d="M41.8350 15.8100
L42.1374 15.8100
" />
<path d="M42.1374 15.8100
L42.2583 15.8705
" />
<path d="M42.2583 15.8705
L42.3188 15.9310
" />
<path d="M42.3188 15.9310
L42.3793 16.0519
" />
<path d="M42.3793 16.0519
L42.3793 16.1729
" />
<path d="M42.3793 16.1729
L42.3188 16.3543
" />
<path d="M42.3188 16.3543
L41.5931 17.0800
" />
<path d="M41.5931 17.0800
L42.3793 17.0800
" />
<path d="M43.4678 15.8100
L43.2259 15.8100
" />
<path d="M43.2259 15.8100
L43.1050 15.8705
" />
<path d="M43.1050 15.8705
L43.0445 15.9310
" />
<path d="M43.0445 15.9310
L42.9235 16.1124
" />
<path d="M42.9235 16.1124
L42.8631 16.3543
" />
<path d="M42.8631 16.3543
L42.8631 16.8381
" />
<path d="M42.8631 16.8381
L42.9235 16.9591
" />
<path d="M42.9235 16.9591
L42.9840 17.0196
" />
<path d="M42.9840 17.0196
L43.1050 17.0800
" />
<path d="M43.1050 17.0800
L43.3469 17.0800
" />
<path d="M43.3469 17.0800
L43.4678 17.0196
" />
<path d="M43.4678 17.0196
L43.5283 16.9591
" />
<path d="M43.5283 16.9591
L43.5888 16.8381
" />
<path d="M43.5888 16.8381
L43.5888 16.5357
" />
<path d="M43.5888 16.5357
L43.5283 16.4148
" />
<path d="M43.5283 16.4148
L43.4678 16.3543
" />
<path d="M43.4678 16.3543
L43.3469 16.2938
" />
<path d="M43.3469 16.2938
L43.1050 16.2938
" />
<path d="M43.1050 16.2938
L42.9840 16.3543
" />
<path d="M42.9840 16.3543
L42.9235 16.4148
" />
<path d="M42.9235 16.4148
L42.8631 16.5357
" />
</g></g>
<g style="fill:none; 
stroke:#840000; stroke-width:0.1524; stroke-opacity:1; 
stroke-linecap:round; stroke-linejoin:round;">
<path d="M9.6012 14.9575
L4.5212 14.9575
" />
</g>
<g style="fill:none; 
stroke:#006464; stroke-width:0.1524; stroke-opacity:1; 
stroke-linecap:round; stroke-linejoin:round;">
<text x="10.1092" y="15.5925"
textLength="5.7670" font-size="1.6933" lengthAdjust="spacingAndGlyphs"
text-anchor="start" opacity="0" stroke-opacity="0">XIN32</text>
<g class="stroked-text"><desc>XIN32</desc>
<path d="M10.3908 14.2670
L11.2374 15.5370
" />
<path d="M11.2374 14.2670
L10.3908 15.5370
" />
<path d="M11.7212 15.5370
L11.7212 14.2670
" />
<path d="M12.3260 15.5370
L12.3260 14.2670
" />
<path d="M12.3260 14.2670
L13.0517 15.5370
" />
<path d="M13.0517 15.5370
L13.0517 14.2670
" />
<path d="M13.5356 14.2670
L14.3218 14.2670
" />
<path d="M14.3218 14.2670
L13.8984 14.7508
" />
<path d="M13.8984 14.7508
L14.0799 14.7508
" />
<path d="M14.0799 14.7508
L14.2008 14.8113
" />
<path d="M14.2008 14.8113
L14.2613 14.8718
" />
<path d="M14.2613 14.8718
L14.3218 14.9927
" />
<path d="M14.3218 14.9927
L14.3218 15.2951
" />
<path d="M14.3218 15.2951
L14.2613 15.4161
" />
<path d="M14.2613 15.4161
L14.2008 15.4766
" />
<path d="M14.2008 15.4766
L14.0799 15.5370
" />
<path d="M14.0799 15.5370
L13.7170 15.5370
" />
<path d="M13.7170 15.5370
L13.5961 15.4766
" />
<path d="M13.5961 15.4766
L13.5356 15.4161
" />
<path d="M14.8056 14.3880
L14.8660 14.3275
" />
<path d="M14.8660 14.3275
L14.9870 14.2670
" />
<path d="M14.9870 14.2670
L15.2894 14.2670
" />
<path d="M15.2894 14.2670
L15.4103 14.3275
" />
<path d="M15.4103 14.3275
L15.4708 14.3880
" />
<path d="M15.4708 14.3880
L15.5313 14.5089
" />
<path d="M15.5313 14.5089
L15.5313 14.6299
" />
<path d="M15.5313 14.6299
L15.4708 14.8113
" />
<path d="M15.4708 14.8113
L14.7451 15.5370
" />
<path d="M14.7451 15.5370
L15.5313 15.5370
" />
</g></g>
<g style="fill:none; 
stroke:#A90000; stroke-width:0.1524; stroke-opacity:1; 
stroke-linecap:round; stroke-linejoin:round;">
<text x="7.0612" y="14.7035"
textLength="2.6222" font-size="1.6933" lengthAdjust="spacingAndGlyphs"
text-anchor="middle" opacity="0" stroke-opacity="0">27</text>
<g class="stroked-text"><desc>27</desc>
<path d="M6.0936 13.3910
L6.1540 13.3305
" />
<path d="M6.1540 13.3305
L6.2750 13.2700
" />
<path d="M6.2750 13.2700
L6.5774 13.2700
" />
<path d="M6.5774 13.2700
L6.6983 13.3305
" />
<path d="M6.6983 13.3305
L6.7588 13.3910
" />
<path d="M6.7588 13.3910
L6.8193 13.5119
" />
<path d="M6.8193 13.5119
L6.8193 13.6329
" />
<path d="M6.8193 13.6329
L6.7588 13.8143
" />
<path d="M6.7588 13.8143
L6.0331 14.5400
" />
<path d="M6.0331 14.5400
L6.8193 14.5400
" />
<path d="M7.2426 13.2700
L8.0892 13.2700
" />
<path d="M8.0892 13.2700
L7.5450 14.5400
" />
</g></g>
<g style="fill:none; 
stroke:#840000; stroke-width:0.1524; stroke-opacity:1; 
stroke-linecap:round; stroke-linejoin:round;">
<path d="M40.0812 12.4175
L45.1612 12.4175
" />
</g>
<g style="fill:none; 
stroke:#006464; stroke-width:0.1524; stroke-opacity:1; 
stroke-linecap:round; stroke-linejoin:round;">
<text x="39.5732" y="13.0525"
textLength="5.7671" font-size="1.6933" lengthAdjust="spacingAndGlyphs"
text-anchor="end" opacity="0" stroke-opacity="0">VDDIO</text>
<g class="stroked-text"><desc>VDDIO</desc>
<path d="M34.0300 11.7270
L34.4533 12.9970
" />
<path d="M34.4533 12.9970
L34.8767 11.7270
" />
<path d="M35.3000 12.9970
L35.3000 11.7270
" />
<path d="M35.3000 11.7270
L35.6024 11.7270
" />
<path d="M35.6024 11.7270
L35.7838 11.7875
" />
<path d="M35.7838 11.7875
L35.9048 11.9085
" />
<path d="M35.9048 11.9085
L35.9653 12.0294
" />
<path d="M35.9653 12.0294
L36.0257 12.2713
" />
<path d="M36.0257 12.2713
L36.0257 12.4527
" />
<path d="M36.0257 12.4527
L35.9653 12.6946
" />
<path d="M35.9653 12.6946
L35.9048 12.8156
" />
<path d="M35.9048 12.8156
L35.7838 12.9366
" />
<path d="M35.7838 12.9366
L35.6024 12.9970
" />
<path d="M35.6024 12.9970
L35.3000 12.9970
" />
<path d="M36.5700 12.9970
L36.5700 11.7270
" />
<path d="M36.5700 11.7270
L36.8724 11.7270
" />
<path d="M36.8724 11.7270
L37.0538 11.7875
" />
<path d="M37.0538 11.7875
L37.1748 11.9085
" />
<path d="M37.1748 11.9085
L37.2353 12.0294
" />
<path d="M37.2353 12.0294
L37.2957 12.2713
" />
<path d="M37.2957 12.2713
L37.2957 12.4527
" />
<path d="M37.2957 12.4527
L37.2353 12.6946
" />
<path d="M37.2353 12.6946
L37.1748 12.8156
" />
<path d="M37.1748 12.8156
L37.0538 12.9366
" />
<path d="M37.0538 12.9366
L36.8724 12.9970
" />
<path d="M36.8724 12.9970
L36.5700 12.9970
" />
<path d="M37.8400 12.9970
L37.8400 11.7270
" />
<path d="M38.6867 11.7270
L38.9286 11.7270
" />
<path d="M38.9286 11.7270
L39.0496 11.7875
" />
<path d="M39.0496 11.7875
L39.1705 11.9085
" />
<path d="M39.1705 11.9085
L39.2310 12.1504
" />
<path d="M39.2310 12.1504
L39.2310 12.5737
" />
<path d="M39.2310 12.5737
L39.1705 12.8156
" />
<path d="M39.1705 12.8156
L39.0496 12.9366
" />
<path d="M39.0496 12.9366
L38.9286 12.9970
" />
<path d="M38.9286 12.9970
L38.6867 12.9970
" />
<path d="M38.6867 12.9970
L38.5658 12.9366
" />
<path d="M38.5658 12.9366
L38.4448 12.8156
" />
<path d="M38.4448 12.8156
L38.3844 12.5737
" />
<path d="M38.3844 12.5737
L38.3844 12.1504
" />
<path d="M38.3844 12.1504
L38.4448 11.9085
" />
<path d="M38.4448 11.9085
L38.5658 11.7875
" />
<path d="M38.5658 11.7875
L38.6867 11.7270
" />
</g></g>
<g style="fill:none; 
stroke:#A90000; stroke-width:0.1524; stroke-opacity:1; 
stroke-linecap:round; stroke-linejoin:round;">
<text x="42.6212" y="12.1635"
textLength="2.6222" font-size="1.6933" lengthAdjust="spacingAndGlyphs"
text-anchor="middle" opacity="0" stroke-opacity="0">28</text>
<g class="stroked-text"><desc>28</desc>
<path d="M41.6536 10.8510
L41.7140 10.7905
" />
<path d="M41.7140 10.7905
L41.8350 10.7300
" />
<path d="M41.8350 10.7300
L42.1374 10.7300
" />
<path d="M42.1374 10.7300
L42.2583 10.7905
" />
<path d="M42.2583 10.7905
L42.3188 10.8510
" />
<path d="M42.3188 10.8510
L42.3793 10.9719
" />
<path d="M42.3793 10.9719
L42.3793 11.0929
" />
<path d="M42.3793 11.0929
L42.3188 11.2743
" />
<path d="M42.3188 11.2743
L41.5931 12.0000
" />
<path d="M41.5931 12.0000
L42.3793 12.0000
" />
<path d="M43.1050 11.2743
L42.9840 11.2138
" />
<path d="M42.9840 11.2138
L42.9235 11.1534
" />
<path d="M42.9235 11.1534
L42.8631 11.0324
" />
<path d="M42.8631 11.0324
L42.8631 10.9719
" />
<path d="M42.8631 10.9719
L42.9235 10.8510
" />
<path d="M42.9235 10.8510
L42.9840 10.7905
" />
<path d="M42.9840 10.7905
L43.1050 10.7300
" />
<path d="M43.1050 10.7300
L43.3469 10.7300
" />
<path d="M43.3469 10.7300
L43.4678 10.7905
" />
<path d="M43.4678 10.7905
L43.5283 10.8510
" />
<path d="M43.5283 10.8510
L43.5888 10.9719
" />
<path d="M43.5888 10.9719
L43.5888 11.0324
" />
<path d="M43.5888 11.0324
L43.5283 11.1534
" />
<path d="M43.5283 11.1534
L43.4678 11.2138
" />
<path d="M43.4678 11.2138
L43.3469 11.2743
" />
<path d="M43.3469 11.2743
L43.1050 11.2743
" />
<path d="M43.1050 11.2743
L42.9840 11.3348
" />
<path d="M42.9840 11.3348
L42.9235 11.3953
" />
<path d="M42.9235 11.3953
L42.8631 11.5162
" />
<path d="M42.8631 11.5162
L42.8631 11.7581
" />
<path d="M42.8631 11.7581
L42.9235 11.8791
" />
<path d="M42.9235 11.8791
L42.9840 11.9396
" />
<path d="M42.9840 11.9396
L43.1050 12.0000
" />
<path d="M43.1050 12.0000
L43.3469 12.0000
" />
<path d="M43.3469 12.0000
L43.4678 11.9396
" />
<path d="M43.4678 11.9396
L43.5283 11.8791
" />
<path d="M43.5283 11.8791
L43.5888 11.7581
" />
<path d="M43.5888 11.7581
L43.5888 11.5162
" />
<path d="M43.5888 11.5162
L43.5283 11.3953
" />
<path d="M43.5283 11.3953
L43.4678 11.3348
" />
<path d="M43.4678 11.3348
L43.3469 11.2743
" />
</g></g>
<g style="fill:none; 
stroke:#006464; stroke-width:0.1524; stroke-opacity:1; 
stroke-linecap:round; stroke-linejoin:round;">
<text x="10.1092" y="5.5595"
textLength="2.6223" font-size="1.6933" lengthAdjust="spacingAndGlyphs"
text-anchor="start" opacity="0" stroke-opacity="0">U?</text>
<g class="stroked-text"><desc>U?</desc>
<path d="M10.5117 4.1260
L10.5117 5.1541
" />
<path d="M10.5117 5.1541
L10.5722 5.2751
" />
<path d="M10.5722 5.2751
L10.6327 5.3356
" />
<path d="M10.6327 5.3356
L10.7536 5.3960
" />
<path d="M10.7536 5.3960
L10.9955 5.3960
" />
<path d="M10.9955 5.3960
L11.1165 5.3356
" />
<path d="M11.1165 5.3356
L11.1770 5.2751
" />
<path d="M11.1770 5.2751
L11.2374 5.1541
" />
<path d="M11.2374 5.1541
L11.2374 4.1260
" />
<path d="M12.0237 5.2751
L12.0841 5.3356
" />
<path d="M12.0841 5.3356
L12.0237 5.3960
" />
<path d="M12.0237 5.3960
L11.9632 5.3356
" />
<path d="M11.9632 5.3356
L12.0237 5.2751
" />
<path d="M12.0237 5.2751
L12.0237 5.3960
" />
<path d="M11.7818 4.1865
L11.9027 4.1260
" />
<path d="M11.9027 4.1260
L12.2051 4.1260
" />
<path d="M12.2051 4.1260
L12.3260 4.1865
" />
<path d="M12.3260 4.1865
L12.3865 4.3075
" />
<path d="M12.3865 4.3075
L12.3865 4.4284
" />
<path d="M12.3865 4.4284
L12.3260 4.5494
" />
<path d="M12.3260 4.5494
L12.2656 4.6098
" />
<path d="M12.2656 4.6098
L12.1446 4.6703
" />
<path d="M12.1446 4.6703
L12.0841 4.7308
" />
<path d="M12.0841 4.7308
L12.0237 4.8517
" />
<path d="M12.0237 4.8517
L12.0237 4.9122
" />
</g><text x="32.2072" y="5.3055"
textLength="7.7627" font-size="1.6933" lengthAdjust="spacingAndGlyphs"
text-anchor="start" opacity="0" stroke-opacity="0">BNO055</text>
<g class="stroked-text"><desc>BNO055</desc>
<path d="M33.0331 4.4768
L33.2145 4.5373
" />
<path d="M33.2145 4.5373
L33.2750 4.5977
" />
<path d="M33.2750 4.5977
L33.3354 4.7187
" />
<path d="M33.3354 4.7187
L33.3354 4.9001
" />
<path d="M33.3354 4.9001
L33.2750 5.0211
" />
<path d="M33.2750 5.0211
L33.2145 5.0816
" />
<path d="M33.2145 5.0816
L33.0935 5.1420
" />
<path d="M33.0935 5.1420
L32.6097 5.1420
" />
<path d="M32.6097 5.1420
L32.6097 3.8720
" />
<path d="M32.6097 3.8720
L33.0331 3.8720
" />
<path d="M33.0331 3.8720
L33.1540 3.9325
" />
<path d="M33.1540 3.9325
L33.2145 3.9930
" />
<path d="M33.2145 3.9930
L33.2750 4.1139
" />
<path d="M33.2750 4.1139
L33.2750 4.2349
" />
<path d="M33.2750 4.2349
L33.2145 4.3558
" />
<path d="M33.2145 4.3558
L33.1540 4.4163
" />
<path d="M33.1540 4.4163
L33.0331 4.4768
" />
<path d="M33.0331 4.4768
L32.6097 4.4768
" />
<path d="M33.8797 5.1420
L33.8797 3.8720
" />
<path d="M33.8797 3.8720
L34.6054 5.1420
" />
<path d="M34.6054 5.1420
L34.6054 3.8720
" />
<path d="M35.4521 3.8720
L35.6940 3.8720
" />
<path d="M35.6940 3.8720
L35.8150 3.9325
" />
<path d="M35.8150 3.9325
L35.9359 4.0535
" />
<path d="M35.9359 4.0535
L35.9964 4.2954
" />
<path d="M35.9964 4.2954
L35.9964 4.7187
" />
<path d="M35.9964 4.7187
L35.9359 4.9606
" />
<path d="M35.9359 4.9606
L35.8150 5.0816
" />
<path d="M35.8150 5.0816
L35.6940 5.1420
" />
<path d="M35.6940 5.1420
L35.4521 5.1420
" />
<path d="M35.4521 5.1420
L35.3312 5.0816
" />
<path d="M35.3312 5.0816
L35.2102 4.9606
" />
<path d="M35.2102 4.9606
L35.1498 4.7187
" />
<path d="M35.1498 4.7187
L35.1498 4.2954
" />
<path d="M35.1498 4.2954
L35.2102 4.0535
" />
<path d="M35.2102 4.0535
L35.3312 3.9325
" />
<path d="M35.3312 3.9325
L35.4521 3.8720
" />
<path d="M36.7826 3.8720
L36.9036 3.8720
" />
<path d="M36.9036 3.8720
L37.0245 3.9325
" />
<path d="M37.0245 3.9325
L37.0850 3.9930
" />
<path d="M37.0850 3.9930
L37.1455 4.1139
" />
<path d="M37.1455 4.1139
L37.2060 4.3558
" />
<path d="M37.2060 4.3558
L37.2060 4.6582
" />
<path d="M37.2060 4.6582
L37.1455 4.9001
" />
<path d="M37.1455 4.9001
L37.0850 5.0211
" />
<path d="M37.0850 5.0211
L37.0245 5.0816
" />
<path d="M37.0245 5.0816
L36.9036 5.1420
" />
<path d="M36.9036 5.1420
L36.7826 5.1420
" />
<path d="M36.7826 5.1420
L36.6617 5.0816
" />
<path d="M36.6617 5.0816
L36.6012 5.0211
" />
<path d="M36.6012 5.0211
L36.5407 4.9001
" />
<path d="M36.5407 4.9001
L36.4803 4.6582
" />
<path d="M36.4803 4.6582
L36.4803 4.3558
" />
<path d="M36.4803 4.3558
L36.5407 4.1139
" />
<path d="M36.5407 4.1139
L36.6012 3.9930
" />
<path d="M36.6012 3.9930
L36.6617 3.9325
" />
<path d="M36.6617 3.9325
L36.7826 3.8720
" />
<path d="M38.3550 3.8720
L37.7502 3.8720
" />
<path d="M37.7502 3.8720
L37.6898 4.4768
" />
<path d="M37.6898 4.4768
L37.7502 4.4163
" />
<path d="M37.7502 4.4163
L37.8712 4.3558
" />
<path d="M37.8712 4.3558
L38.1736 4.3558
" />
<path d="M38.1736 4.3558
L38.2945 4.4163
" />
<path d="M38.2945 4.4163
L38.3550 4.4768
" />
<path d="M38.3550 4.4768
L38.4155 4.5977
" />
<path d="M38.4155 4.5977
L38.4155 4.9001
" />
<path d="M38.4155 4.9001
L38.3550 5.0211
" />
<path d="M38.3550 5.0211
L38.2945 5.0816
" />
<path d="M38.2945 5.0816
L38.1736 5.1420
" />
<path d="M38.1736 5.1420
L37.8712 5.1420
" />
<path d="M37.8712 5.1420
L37.7502 5.0816
" />
<path d="M37.7502 5.0816
L37.6898 5.0211
" />
<path d="M39.5645 3.8720
L38.9597 3.8720
" />
<path d="M38.9597 3.8720
L38.8993 4.4768
" />
<path d="M38.8993 4.4768
L38.9597 4.4163
" />
<path d="M38.9597 4.4163
L39.0807 4.3558
" />
<path d="M39.0807 4.3558
L39.3831 4.3558
" />
<path d="M39.3831 4.3558
L39.5040 4.4163
" />
<path d="M39.5040 4.4163
L39.5645 4.4768
" />
<path d="M39.5645 4.4768
L39.6250 4.5977
" />
<path d="M39.6250 4.5977
L39.6250 4.9001
" />
<path d="M39.6250 4.9001
L39.5645 5.0211
" />
<path d="M39.5645 5.0211
L39.5040 5.0816
" />
<path d="M39.5040 5.0816
L39.3831 5.1420
" />
<path d="M39.3831 5.1420
L39.0807 5.1420
" />
<path d="M39.0807 5.1420
L38.9597 5.0816
" />
<path d="M38.9597 5.0816
L38.8993 5.0211
" />
</g></g> 
</svg>
