<?xml version="1.0" standalone="no"?>
 <!DOCTYPE svg PUBLIC "-//W3C//DTD SVG 1.1//EN" 
 "http://www.w3.org/Graphics/SVG/1.1/DTD/svg11.dtd"> 
<svg
  xmlns:svg="http://www.w3.org/2000/svg"
  xmlns="http://www.w3.org/2000/svg"
  xmlns:xlink="http://www.w3.org/1999/xlink"
  xmlns:inkscape="http://www.inkscape.org/namespaces/inkscape"
  version="1.1"
  width="100%" height="100%" viewBox="0.0000 0.0000 49.6824 44.8818">
<title>SVG Image created as BNO055_unit1.svg date 2026-04-16T03:01:05 </title>
  <desc>Image generated by Eeschema-SVG </desc>
<g style="fill:#000000; fill-opacity:1.0000;stroke:#000000; stroke-opacity:1.0000;
stroke-linecap:round; stroke-linejoin:round;"
 transform="translate(0 0) scale(1 1)">
<path style="fill:none; 
stroke:#840000; stroke-width:0.2540; stroke-opacity:1; 
stroke-linecap:round; stroke-linejoin:round;fill:none"
d="M 9.6012,5.9953
9.6012,39.0153
" /> 
<path style="fill:none; 
stroke:#840000; stroke-width:0.2540; stroke-opacity:1; 
stroke-linecap:round; stroke-linejoin:round;fill:none"
d="M 9.6012,39.0153
40.0812,39.0153
" /> 
<path style="fill:none; 
stroke:#840000; stroke-width:0.2540; stroke-opacity:1; 
stroke-linecap:round; stroke-linejoin:round;fill:none"
d="M 40.0812,5.9953
9.6012,5.9953
" /> 
<path style="fill:none; 
stroke:#840000; stroke-width:0.2540; stroke-opacity:1; 
stroke-linecap:round; stroke-linejoin:round;fill:none"
d="M 40.0812,39.0153
40.0812,5.9953
" /> 
</g>
<g style="fill:none; 
stroke:#840000; stroke-width:0.1524; stroke-opacity:1; 
stroke-linecap:round; stroke-linejoin:round;">
<path d="M40.0812 36.4753
L45.1612 36.4753
" />
</g>
<g style="fill:none; 
stroke:#006464; stroke-width:0.1524; stroke-opacity:1; 
stroke-linecap:round; stroke-linejoin:round;">
<text x="39.5732" y="36.9833"
textLength="3.3504" font-size="1.3546" lengthAdjust="spacingAndGlyphs"
text-anchor="end" opacity="0" stroke-opacity="0">GND</text>
<g class="stroked-text"><desc>GND</desc>
<path d="M37.1506 35.9697
L37.0539 35.9213
" />
<path d="M37.0539 35.9213
L36.9087 35.9213
" />
<path d="M36.9087 35.9213
L36.7636 35.9697
" />
<path d="M36.7636 35.9697
L36.6668 36.0665
" />
<path d="M36.6668 36.0665
L36.6185 36.1632
" />
<path d="M36.6185 36.1632
L36.5701 36.3568
" />
<path d="M36.5701 36.3568
L36.5701 36.5019
" />
<path d="M36.5701 36.5019
L36.6185 36.6954
" />
<path d="M36.6185 36.6954
L36.6668 36.7922
" />
<path d="M36.6668 36.7922
L36.7636 36.8890
" />
<path d="M36.7636 36.8890
L36.9087 36.9373
" />
<path d="M36.9087 36.9373
L37.0055 36.9373
" />
<path d="M37.0055 36.9373
L37.1506 36.8890
" />
<path d="M37.1506 36.8890
L37.1990 36.8406
" />
<path d="M37.1990 36.8406
L37.1990 36.5019
" />
<path d="M37.1990 36.5019
L37.0055 36.5019
" />
<path d="M37.6345 36.9373
L37.6345 35.9213
" />
<path d="M37.6345 35.9213
L38.2150 36.9373
" />
<path d="M38.2150 36.9373
L38.2150 35.9213
" />
<path d="M38.6989 36.9373
L38.6989 35.9213
" />
<path d="M38.6989 35.9213
L38.9408 35.9213
" />
<path d="M38.9408 35.9213
L39.0859 35.9697
" />
<path d="M39.0859 35.9697
L39.1827 36.0665
" />
<path d="M39.1827 36.0665
L39.2310 36.1632
" />
<path d="M39.2310 36.1632
L39.2794 36.3568
" />
<path d="M39.2794 36.3568
L39.2794 36.5019
" />
<path d="M39.2794 36.5019
L39.2310 36.6954
" />
<path d="M39.2310 36.6954
L39.1827 36.7922
" />
<path d="M39.1827 36.7922
L39.0859 36.8890
" />
<path d="M39.0859 36.8890
L38.9408 36.9373
" />
<path d="M38.9408 36.9373
L38.6989 36.9373
" />
</g></g>
<g style="fill:none; 
stroke:#A90000; stroke-width:0.1524; stroke-opacity:1; 
stroke-linecap:round; stroke-linejoin:round;">
<text x="42.6212" y="36.2213"
textLength="1.2216" font-size="1.3546" lengthAdjust="spacingAndGlyphs"
text-anchor="middle" opacity="0" stroke-opacity="0">2</text>
<g class="stroked-text"><desc>2</desc>
<path d="M42.3309 35.1697
L42.3793 35.1213
" />
<path d="M42.3793 35.1213
L42.4760 35.0729
" />
<path d="M42.4760 35.0729
L42.7179 35.0729
" />
<path d="M42.7179 35.0729
L42.8147 35.1213
" />
<path d="M42.8147 35.1213
L42.8631 35.1697
" />
<path d="M42.8631 35.1697
L42.9114 35.2665
" />
<path d="M42.9114 35.2665
L42.9114 35.3632
" />
<path d="M42.9114 35.3632
L42.8631 35.5084
" />
<path d="M42.8631 35.5084
L42.2825 36.0889
" />
<path d="M42.2825 36.0889
L42.9114 36.0889
" />
</g></g>
<g style="fill:none; 
stroke:#840000; stroke-width:0.1524; stroke-opacity:1; 
stroke-linecap:round; stroke-linejoin:round;">
<path d="M40.0812 8.5353
L45.1612 8.5353
" />
</g>
<g style="fill:none; 
stroke:#006464; stroke-width:0.1524; stroke-opacity:1; 
stroke-linecap:round; stroke-linejoin:round;">
<text x="39.5732" y="9.0433"
textLength="3.1569" font-size="1.3546" lengthAdjust="spacingAndGlyphs"
text-anchor="end" opacity="0" stroke-opacity="0">VDD</text>
<g class="stroked-text"><desc>VDD</desc>
<path d="M36.6668 7.9813
L37.0055 8.9973
" />
<path d="M37.0055 8.9973
L37.3441 7.9813
" />
<path d="M37.6829 8.9973
L37.6829 7.9813
" />
<path d="M37.6829 7.9813
L37.9248 7.9813
" />
<path d="M37.9248 7.9813
L38.0699 8.0297
" />
<path d="M38.0699 8.0297
L38.1667 8.1265
" />
<path d="M38.1667 8.1265
L38.2150 8.2232
" />
<path d="M38.2150 8.2232
L38.2634 8.4168
" />
<path d="M38.2634 8.4168
L38.2634 8.5619
" />
<path d="M38.2634 8.5619
L38.2150 8.7554
" />
<path d="M38.2150 8.7554
L38.1667 8.8522
" />
<path d="M38.1667 8.8522
L38.0699 8.9490
" />
<path d="M38.0699 8.9490
L37.9248 8.9973
" />
<path d="M37.9248 8.9973
L37.6829 8.9973
" />
<path d="M38.6989 8.9973
L38.6989 7.9813
" />
<path d="M38.6989 7.9813
L38.9408 7.9813
" />
<path d="M38.9408 7.9813
L39.0859 8.0297
" />
<path d="M39.0859 8.0297
L39.1827 8.1265
" />
<path d="M39.1827 8.1265
L39.2310 8.2232
" />
<path d="M39.2310 8.2232
L39.2794 8.4168
" />
<path d="M39.2794 8.4168
L39.2794 8.5619
" />
<path d="M39.2794 8.5619
L39.2310 8.7554
" />
<path d="M39.2310 8.7554
L39.1827 8.8522
" />
<path d="M39.1827 8.8522
L39.0859 8.9490
" />
<path d="M39.0859 8.9490
L38.9408 8.9973
" />
<path d="M38.9408 8.9973
L38.6989 8.9973
" />
</g></g>
<g style="fill:none; 
stroke:#A90000; stroke-width:0.1524; stroke-opacity:1; 
stroke-linecap:round; stroke-linejoin:round;">
<text x="42.6212" y="8.2813"
textLength="1.2216" font-size="1.3546" lengthAdjust="spacingAndGlyphs"
text-anchor="middle" opacity="0" stroke-opacity="0">3</text>
<g class="stroked-text"><desc>3</desc>
<path d="M42.2825 7.1329
L42.9114 7.1329
" />
<path d="M42.9114 7.1329
L42.5728 7.5200
" />
<path d="M42.5728 7.5200
L42.7179 7.5200
" />
<path d="M42.7179 7.5200
L42.8147 7.5684
" />
<path d="M42.8147 7.5684
L42.8631 7.6167
" />
<path d="M42.8631 7.6167
L42.9114 7.7135
" />
<path d="M42.9114 7.7135
L42.9114 7.9554
" />
<path d="M42.9114 7.9554
L42.8631 8.0522
" />
<path d="M42.8631 8.0522
L42.8147 8.1006
" />
<path d="M42.8147 8.1006
L42.7179 8.1489
" />
<path d="M42.7179 8.1489
L42.4276 8.1489
" />
<path d="M42.4276 8.1489
L42.3309 8.1006
" />
<path d="M42.3309 8.1006
L42.2825 8.0522
" />
</g></g>
<g style="fill:none; 
stroke:#840000; stroke-width:0.1524; stroke-opacity:1; 
stroke-linecap:round; stroke-linejoin:round;">
<path d="M9.6012 21.2353
L4.5212 21.2353
" />
</g>
<g style="fill:none; 
stroke:#006464; stroke-width:0.1524; stroke-opacity:1; 
stroke-linecap:round; stroke-linejoin:round;">
<text x="10.1092" y="21.7433"
textLength="13.1235" font-size="1.3546" lengthAdjust="spacingAndGlyphs"
text-anchor="start" opacity="0" stroke-opacity="0">NBOOT_LOAD_PIN</text>
<g class="stroked-text"><desc>NBOOT_LOAD_PIN</desc>
<path d="M10.4513 21.6973
L10.4513 20.6813
" />
<path d="M10.4513 20.6813
L11.0318 21.6973
" />
<path d="M11.0318 21.6973
L11.0318 20.6813
" />
<path d="M11.8543 21.1651
L11.9995 21.2135
" />
<path d="M11.9995 21.2135
L12.0478 21.2619
" />
<path d="M12.0478 21.2619
L12.0962 21.3587
" />
<path d="M12.0962 21.3587
L12.0962 21.5038
" />
<path d="M12.0962 21.5038
L12.0478 21.6006
" />
<path d="M12.0478 21.6006
L11.9995 21.6490
" />
<path d="M11.9995 21.6490
L11.9027 21.6973
" />
<path d="M11.9027 21.6973
L11.5157 21.6973
" />
<path d="M11.5157 21.6973
L11.5157 20.6813
" />
<path d="M11.5157 20.6813
L11.8543 20.6813
" />
<path d="M11.8543 20.6813
L11.9511 20.7297
" />
<path d="M11.9511 20.7297
L11.9995 20.7781
" />
<path d="M11.9995 20.7781
L12.0478 20.8749
" />
<path d="M12.0478 20.8749
L12.0478 20.9716
" />
<path d="M12.0478 20.9716
L11.9995 21.0684
" />
<path d="M11.9995 21.0684
L11.9511 21.1168
" />
<path d="M11.9511 21.1168
L11.8543 21.1651
" />
<path d="M11.8543 21.1651
L11.5157 21.1651
" />
<path d="M12.7252 20.6813
L12.9187 20.6813
" />
<path d="M12.9187 20.6813
L13.0155 20.7297
" />
<path d="M13.0155 20.7297
L13.1122 20.8265
" />
<path d="M13.1122 20.8265
L13.1606 21.0200
" />
<path d="M13.1606 21.0200
L13.1606 21.3587
" />
<path d="M13.1606 21.3587
L13.1122 21.5522
" />
<path d="M13.1122 21.5522
L13.0155 21.6490
" />
<path d="M13.0155 21.6490
L12.9187 21.6973
" />
<path d="M12.9187 21.6973
L12.7252 21.6973
" />
<path d="M12.7252 21.6973
L12.6284 21.6490
" />
<path d="M12.6284 21.6490
L12.5317 21.5522
" />
<path d="M12.5317 21.5522
L12.4833 21.3587
" />
<path d="M12.4833 21.3587
L12.4833 21.0200
" />
<path d="M12.4833 21.0200
L12.5317 20.8265
" />
<path d="M12.5317 20.8265
L12.6284 20.7297
" />
<path d="M12.6284 20.7297
L12.7252 20.6813
" />
<path d="M13.7896 20.6813
L13.9831 20.6813
" />
<path d="M13.9831 20.6813
L14.0799 20.7297
" />
<path d="M14.0799 20.7297
L14.1766 20.8265
" />
<path d="M14.1766 20.8265
L14.2250 21.0200
" />
<path d="M14.2250 21.0200
L14.2250 21.3587
" />
<path d="M14.2250 21.3587
L14.1766 21.5522
" />
<path d="M14.1766 21.5522
L14.0799 21.6490
" />
<path d="M14.0799 21.6490
L13.9831 21.6973
" />
<path d="M13.9831 21.6973
L13.7896 21.6973
" />
<path d="M13.7896 21.6973
L13.6928 21.6490
" />
<path d="M13.6928 21.6490
L13.5961 21.5522
" />
<path d="M13.5961 21.5522
L13.5477 21.3587
" />
<path d="M13.5477 21.3587
L13.5477 21.0200
" />
<path d="M13.5477 21.0200
L13.5961 20.8265
" />
<path d="M13.5961 20.8265
L13.6928 20.7297
" />
<path d="M13.6928 20.7297
L13.7896 20.6813
" />
<path d="M14.5153 20.6813
L15.0959 20.6813
" />
<path d="M14.8056 21.6973
L14.8056 20.6813
" />
<path d="M15.1927 21.7941
L15.9667 21.7941
" />
<path d="M16.6925 21.6973
L16.2087 21.6973
" />
<path d="M16.2087 21.6973
L16.2087 20.6813
" />
<path d="M17.2247 20.6813
L17.4182 20.6813
" />
<path d="M17.4182 20.6813
L17.5150 20.7297
" />
<path d="M17.5150 20.7297
L17.6117 20.8265
" />
<path d="M17.6117 20.8265
L17.6601 21.0200
" />
<path d="M17.6601 21.0200
L17.6601 21.3587
" />
<path d="M17.6601 21.3587
L17.6117 21.5522
" />
<path d="M17.6117 21.5522
L17.5150 21.6490
" />
<path d="M17.5150 21.6490
L17.4182 21.6973
" />
<path d="M17.4182 21.6973
L17.2247 21.6973
" />
<path d="M17.2247 21.6973
L17.1279 21.6490
" />
<path d="M17.1279 21.6490
L17.0312 21.5522
" />
<path d="M17.0312 21.5522
L16.9828 21.3587
" />
<path d="M16.9828 21.3587
L16.9828 21.0200
" />
<path d="M16.9828 21.0200
L17.0312 20.8265
" />
<path d="M17.0312 20.8265
L17.1279 20.7297
" />
<path d="M17.1279 20.7297
L17.2247 20.6813
" />
<path d="M18.0472 21.4070
L18.5310 21.4070
" />
<path d="M17.9504 21.6973
L18.2891 20.6813
" />
<path d="M18.2891 20.6813
L18.6277 21.6973
" />
<path d="M18.9665 21.6973
L18.9665 20.6813
" />
<path d="M18.9665 20.6813
L19.2084 20.6813
" />
<path d="M19.2084 20.6813
L19.3535 20.7297
" />
<path d="M19.3535 20.7297
L19.4503 20.8265
" />
<path d="M19.4503 20.8265
L19.4986 20.9232
" />
<path d="M19.4986 20.9232
L19.5470 21.1168
" />
<path d="M19.5470 21.1168
L19.5470 21.2619
" />
<path d="M19.5470 21.2619
L19.4986 21.4554
" />
<path d="M19.4986 21.4554
L19.4503 21.5522
" />
<path d="M19.4503 21.5522
L19.3535 21.6490
" />
<path d="M19.3535 21.6490
L19.2084 21.6973
" />
<path d="M19.2084 21.6973
L18.9665 21.6973
" />
<path d="M19.7406 21.7941
L20.5146 21.7941
" />
<path d="M20.7566 21.6973
L20.7566 20.6813
" />
<path d="M20.7566 20.6813
L21.1436 20.6813
" />
<path d="M21.1436 20.6813
L21.2404 20.7297
" />
<path d="M21.2404 20.7297
L21.2887 20.7781
" />
<path d="M21.2887 20.7781
L21.3371 20.8749
" />
<path d="M21.3371 20.8749
L21.3371 21.0200
" />
<path d="M21.3371 21.0200
L21.2887 21.1168
" />
<path d="M21.2887 21.1168
L21.2404 21.1651
" />
<path d="M21.2404 21.1651
L21.1436 21.2135
" />
<path d="M21.1436 21.2135
L20.7566 21.2135
" />
<path d="M21.7726 21.6973
L21.7726 20.6813
" />
<path d="M22.2564 21.6973
L22.2564 20.6813
" />
<path d="M22.2564 20.6813
L22.8369 21.6973
" />
<path d="M22.8369 21.6973
L22.8369 20.6813
" />
</g></g>
<g style="fill:none; 
stroke:#A90000; stroke-width:0.1524; stroke-opacity:1; 
stroke-linecap:round; stroke-linejoin:round;">
<text x="7.0612" y="20.9813"
textLength="1.2216" font-size="1.3546" lengthAdjust="spacingAndGlyphs"
text-anchor="middle" opacity="0" stroke-opacity="0">4</text>
<g class="stroked-text"><desc>4</desc>
<path d="M7.2547 20.1716
L7.2547 20.8489
" />
<path d="M7.0128 19.7846
L6.7709 20.5103
" />
<path d="M6.7709 20.5103
L7.3998 20.5103
" />
</g></g>
<g style="fill:none; 
stroke:#840000; stroke-width:0.1524; stroke-opacity:1; 
stroke-linecap:round; stroke-linejoin:round;">
<path d="M9.6012 11.0753
L4.5212 11.0753
" />
</g>
<g style="fill:none; 
stroke:#006464; stroke-width:0.1524; stroke-opacity:1; 
stroke-linecap:round; stroke-linejoin:round;">
<text x="10.1092" y="11.5833"
textLength="3.2052" font-size="1.3546" lengthAdjust="spacingAndGlyphs"
text-anchor="start" opacity="0" stroke-opacity="0">PS1</text>
<g class="stroked-text"><desc>PS1</desc>
<path d="M10.4513 11.5373
L10.4513 10.5213
" />
<path d="M10.4513 10.5213
L10.8383 10.5213
" />
<path d="M10.8383 10.5213
L10.9351 10.5697
" />
<path d="M10.9351 10.5697
L10.9834 10.6181
" />
<path d="M10.9834 10.6181
L11.0318 10.7149
" />
<path d="M11.0318 10.7149
L11.0318 10.8600
" />
<path d="M11.0318 10.8600
L10.9834 10.9568
" />
<path d="M10.9834 10.9568
L10.9351 11.0051
" />
<path d="M10.9351 11.0051
L10.8383 11.0535
" />
<path d="M10.8383 11.0535
L10.4513 11.0535
" />
<path d="M11.4189 11.4890
L11.5640 11.5373
" />
<path d="M11.5640 11.5373
L11.8059 11.5373
" />
<path d="M11.8059 11.5373
L11.9027 11.4890
" />
<path d="M11.9027 11.4890
L11.9511 11.4406
" />
<path d="M11.9511 11.4406
L11.9994 11.3438
" />
<path d="M11.9994 11.3438
L11.9994 11.2470
" />
<path d="M11.9994 11.2470
L11.9511 11.1503
" />
<path d="M11.9511 11.1503
L11.9027 11.1019
" />
<path d="M11.9027 11.1019
L11.8059 11.0535
" />
<path d="M11.8059 11.0535
L11.6124 11.0051
" />
<path d="M11.6124 11.0051
L11.5156 10.9568
" />
<path d="M11.5156 10.9568
L11.4673 10.9084
" />
<path d="M11.4673 10.9084
L11.4189 10.8116
" />
<path d="M11.4189 10.8116
L11.4189 10.7149
" />
<path d="M11.4189 10.7149
L11.4673 10.6181
" />
<path d="M11.4673 10.6181
L11.5156 10.5697
" />
<path d="M11.5156 10.5697
L11.6124 10.5213
" />
<path d="M11.6124 10.5213
L11.8543 10.5213
" />
<path d="M11.8543 10.5213
L11.9994 10.5697
" />
<path d="M12.9670 11.5373
L12.3865 11.5373
" />
<path d="M12.6768 11.5373
L12.6768 10.5213
" />
<path d="M12.6768 10.5213
L12.5800 10.6665
" />
<path d="M12.5800 10.6665
L12.4832 10.7632
" />
<path d="M12.4832 10.7632
L12.3865 10.8116
" />
</g></g>
<g style="fill:none; 
stroke:#A90000; stroke-width:0.1524; stroke-opacity:1; 
stroke-linecap:round; stroke-linejoin:round;">
<text x="7.0612" y="10.8213"
textLength="1.2216" font-size="1.3546" lengthAdjust="spacingAndGlyphs"
text-anchor="middle" opacity="0" stroke-opacity="0">5</text>
<g class="stroked-text"><desc>5</desc>
<path d="M7.3031 9.6729
L6.8193 9.6729
" />
<path d="M6.8193 9.6729
L6.7709 10.1567
" />
<path d="M6.7709 10.1567
L6.8193 10.1084
" />
<path d="M6.8193 10.1084
L6.9160 10.0600
" />
<path d="M6.9160 10.0600
L7.1579 10.0600
" />
<path d="M7.1579 10.0600
L7.2547 10.1084
" />
<path d="M7.2547 10.1084
L7.3031 10.1567
" />
<path d="M7.3031 10.1567
L7.3514 10.2535
" />
<path d="M7.3514 10.2535
L7.3514 10.4954
" />
<path d="M7.3514 10.4954
L7.3031 10.5922
" />
<path d="M7.3031 10.5922
L7.2547 10.6406
" />
<path d="M7.2547 10.6406
L7.1579 10.6889
" />
<path d="M7.1579 10.6889
L6.9160 10.6889
" />
<path d="M6.9160 10.6889
L6.8193 10.6406
" />
<path d="M6.8193 10.6406
L6.7709 10.5922
" />
</g></g>
<g style="fill:none; 
stroke:#840000; stroke-width:0.1524; stroke-opacity:1; 
stroke-linecap:round; stroke-linejoin:round;">
<path d="M9.6012 8.5353
L4.5212 8.5353
" />
</g>
<g style="fill:none; 
stroke:#006464; stroke-width:0.1524; stroke-opacity:1; 
stroke-linecap:round; stroke-linejoin:round;">
<text x="10.1092" y="9.0433"
textLength="3.2052" font-size="1.3546" lengthAdjust="spacingAndGlyphs"
text-anchor="start" opacity="0" stroke-opacity="0">PS0</text>
<g class="stroked-text"><desc>PS0</desc>
<path d="M10.4513 8.9973
L10.4513 7.9813
" />
<path d="M10.4513 7.9813
L10.8383 7.9813
" />
<path d="M10.8383 7.9813
L10.9351 8.0297
" />
<path d="M10.9351 8.0297
L10.9834 8.0781
" />
<path d="M10.9834 8.0781
L11.0318 8.1749
" />
<path d="M11.0318 8.1749
L11.0318 8.3200
" />
<path d="M11.0318 8.3200
L10.9834 8.4168
" />
<path d="M10.9834 8.4168
L10.9351 8.4651
" />
<path d="M10.9351 8.4651
L10.8383 8.5135
" />
<path d="M10.8383 8.5135
L10.4513 8.5135
" />
<path d="M11.4189 8.9490
L11.5640 8.9973
" />
<path d="M11.5640 8.9973
L11.8059 8.9973
" />
<path d="M11.8059 8.9973
L11.9027 8.9490
" />
<path d="M11.9027 8.9490
L11.9511 8.9006
" />
<path d="M11.9511 8.9006
L11.9994 8.8038
" />
<path d="M11.9994 8.8038
L11.9994 8.7070
" />
<path d="M11.9994 8.7070
L11.9511 8.6103
" />
<path d="M11.9511 8.6103
L11.9027 8.5619
" />
<path d="M11.9027 8.5619
L11.8059 8.5135
" />
<path d="M11.8059 8.5135
L11.6124 8.4651
" />
<path d="M11.6124 8.4651
L11.5156 8.4168
" />
<path d="M11.5156 8.4168
L11.4673 8.3684
" />
<path d="M11.4673 8.3684
L11.4189 8.2716
" />
<path d="M11.4189 8.2716
L11.4189 8.1749
" />
<path d="M11.4189 8.1749
L11.4673 8.0781
" />
<path d="M11.4673 8.0781
L11.5156 8.0297
" />
<path d="M11.5156 8.0297
L11.6124 7.9813
" />
<path d="M11.6124 7.9813
L11.8543 7.9813
" />
<path d="M11.8543 7.9813
L11.9994 8.0297
" />
<path d="M12.6284 7.9813
L12.7251 7.9813
" />
<path d="M12.7251 7.9813
L12.8219 8.0297
" />
<path d="M12.8219 8.0297
L12.8703 8.0781
" />
<path d="M12.8703 8.0781
L12.9187 8.1749
" />
<path d="M12.9187 8.1749
L12.9670 8.3684
" />
<path d="M12.9670 8.3684
L12.9670 8.6103
" />
<path d="M12.9670 8.6103
L12.9187 8.8038
" />
<path d="M12.9187 8.8038
L12.8703 8.9006
" />
<path d="M12.8703 8.9006
L12.8219 8.9490
" />
<path d="M12.8219 8.9490
L12.7251 8.9973
" />
<path d="M12.7251 8.9973
L12.6284 8.9973
" />
<path d="M12.6284 8.9973
L12.5316 8.9490
" />
<path d="M12.5316 8.9490
L12.4832 8.9006
" />
<path d="M12.4832 8.9006
L12.4349 8.8038
" />
<path d="M12.4349 8.8038
L12.3865 8.6103
" />
<path d="M12.3865 8.6103
L12.3865 8.3684
" />
<path d="M12.3865 8.3684
L12.4349 8.1749
" />
<path d="M12.4349 8.1749
L12.4832 8.0781
" />
<path d="M12.4832 8.0781
L12.5316 8.0297
" />
<path d="M12.5316 8.0297
L12.6284 7.9813
" />
</g></g>
<g style="fill:none; 
stroke:#A90000; stroke-width:0.1524; stroke-opacity:1; 
stroke-linecap:round; stroke-linejoin:round;">
<text x="7.0612" y="8.2813"
textLength="1.2216" font-size="1.3546" lengthAdjust="spacingAndGlyphs"
text-anchor="middle" opacity="0" stroke-opacity="0">6</text>
<g class="stroked-text"><desc>6</desc>
<path d="M7.2547 7.1329
L7.0612 7.1329
" />
<path d="M7.0612 7.1329
L6.9644 7.1813
" />
<path d="M6.9644 7.1813
L6.9160 7.2297
" />
<path d="M6.9160 7.2297
L6.8193 7.3748
" />
<path d="M6.8193 7.3748
L6.7709 7.5684
" />
<path d="M6.7709 7.5684
L6.7709 7.9554
" />
<path d="M6.7709 7.9554
L6.8193 8.0522
" />
<path d="M6.8193 8.0522
L6.8676 8.1006
" />
<path d="M6.8676 8.1006
L6.9644 8.1489
" />
<path d="M6.9644 8.1489
L7.1579 8.1489
" />
<path d="M7.1579 8.1489
L7.2547 8.1006
" />
<path d="M7.2547 8.1006
L7.3031 8.0522
" />
<path d="M7.3031 8.0522
L7.3514 7.9554
" />
<path d="M7.3514 7.9554
L7.3514 7.7135
" />
<path d="M7.3514 7.7135
L7.3031 7.6167
" />
<path d="M7.3031 7.6167
L7.2547 7.5684
" />
<path d="M7.2547 7.5684
L7.1579 7.5200
" />
<path d="M7.1579 7.5200
L6.9644 7.5200
" />
<path d="M6.9644 7.5200
L6.8676 7.5684
" />
<path d="M6.8676 7.5684
L6.8193 7.6167
" />
<path d="M6.8193 7.6167
L6.7709 7.7135
" />
</g></g>
<g style="fill:none; 
stroke:#840000; stroke-width:0.1524; stroke-opacity:1; 
stroke-linecap:round; stroke-linejoin:round;">
<path d="M9.6012 36.4753
L4.5212 36.4753
" />
</g>
<g style="fill:none; 
stroke:#006464; stroke-width:0.1524; stroke-opacity:1; 
stroke-linecap:round; stroke-linejoin:round;">
<text x="10.1092" y="36.9833"
textLength="3.1569" font-size="1.3546" lengthAdjust="spacingAndGlyphs"
text-anchor="start" opacity="0" stroke-opacity="0">CAP</text>
<g class="stroked-text"><desc>CAP</desc>
<path d="M11.0318 36.8406
L10.9834 36.8890
" />
<path d="M10.9834 36.8890
L10.8383 36.9373
" />
<path d="M10.8383 36.9373
L10.7415 36.9373
" />
<path d="M10.7415 36.9373
L10.5964 36.8890
" />
<path d="M10.5964 36.8890
L10.4996 36.7922
" />
<path d="M10.4996 36.7922
L10.4513 36.6954
" />
<path d="M10.4513 36.6954
L10.4029 36.5019
" />
<path d="M10.4029 36.5019
L10.4029 36.3568
" />
<path d="M10.4029 36.3568
L10.4513 36.1632
" />
<path d="M10.4513 36.1632
L10.4996 36.0665
" />
<path d="M10.4996 36.0665
L10.5964 35.9697
" />
<path d="M10.5964 35.9697
L10.7415 35.9213
" />
<path d="M10.7415 35.9213
L10.8383 35.9213
" />
<path d="M10.8383 35.9213
L10.9834 35.9697
" />
<path d="M10.9834 35.9697
L11.0318 36.0181
" />
<path d="M11.4189 36.6470
L11.9027 36.6470
" />
<path d="M11.3221 36.9373
L11.6608 35.9213
" />
<path d="M11.6608 35.9213
L11.9994 36.9373
" />
<path d="M12.3382 36.9373
L12.3382 35.9213
" />
<path d="M12.3382 35.9213
L12.7252 35.9213
" />
<path d="M12.7252 35.9213
L12.8220 35.9697
" />
<path d="M12.8220 35.9697
L12.8703 36.0181
" />
<path d="M12.8703 36.0181
L12.9187 36.1149
" />
<path d="M12.9187 36.1149
L12.9187 36.2600
" />
<path d="M12.9187 36.2600
L12.8703 36.3568
" />
<path d="M12.8703 36.3568
L12.8220 36.4051
" />
<path d="M12.8220 36.4051
L12.7252 36.4535
" />
<path d="M12.7252 36.4535
L12.3382 36.4535
" />
</g></g>
<g style="fill:none; 
stroke:#A90000; stroke-width:0.1524; stroke-opacity:1; 
stroke-linecap:round; stroke-linejoin:round;">
<text x="7.0612" y="36.2213"
textLength="1.2216" font-size="1.3546" lengthAdjust="spacingAndGlyphs"
text-anchor="middle" opacity="0" stroke-opacity="0">9</text>
<g class="stroked-text"><desc>9</desc>
<path d="M6.8676 36.0889
L7.0612 36.0889
" />
<path d="M7.0612 36.0889
L7.1579 36.0406
" />
<path d="M7.1579 36.0406
L7.2063 35.9922
" />
<path d="M7.2063 35.9922
L7.3031 35.8470
" />
<path d="M7.3031 35.8470
L7.3514 35.6535
" />
<path d="M7.3514 35.6535
L7.3514 35.2665
" />
<path d="M7.3514 35.2665
L7.3031 35.1697
" />
<path d="M7.3031 35.1697
L7.2547 35.1213
" />
<path d="M7.2547 35.1213
L7.1579 35.0729
" />
<path d="M7.1579 35.0729
L6.9644 35.0729
" />
<path d="M6.9644 35.0729
L6.8676 35.1213
" />
<path d="M6.8676 35.1213
L6.8193 35.1697
" />
<path d="M6.8193 35.1697
L6.7709 35.2665
" />
<path d="M6.7709 35.2665
L6.7709 35.5084
" />
<path d="M6.7709 35.5084
L6.8193 35.6051
" />
<path d="M6.8193 35.6051
L6.8676 35.6535
" />
<path d="M6.8676 35.6535
L6.9644 35.7019
" />
<path d="M6.9644 35.7019
L7.1579 35.7019
" />
<path d="M7.1579 35.7019
L7.2547 35.6535
" />
<path d="M7.2547 35.6535
L7.3031 35.6051
" />
<path d="M7.3031 35.6051
L7.3514 35.5084
" />
</g></g>
<g style="fill:none; 
stroke:#840000; stroke-width:0.1524; stroke-opacity:1; 
stroke-linecap:round; stroke-linejoin:round;">
<path d="M40.0812 26.3153
L45.1612 26.3153
" />
</g>
<g style="fill:none; 
stroke:#006464; stroke-width:0.1524; stroke-opacity:1; 
stroke-linecap:round; stroke-linejoin:round;">
<text x="39.5732" y="26.8233"
textLength="4.7534" font-size="1.3546" lengthAdjust="spacingAndGlyphs"
text-anchor="end" opacity="0" stroke-opacity="0">PIN10</text>
<g class="stroked-text"><desc>PIN10</desc>
<path d="M35.2155 26.7773
L35.2155 25.7613
" />
<path d="M35.2155 25.7613
L35.6025 25.7613
" />
<path d="M35.6025 25.7613
L35.6993 25.8097
" />
<path d="M35.6993 25.8097
L35.7476 25.8581
" />
<path d="M35.7476 25.8581
L35.7960 25.9549
" />
<path d="M35.7960 25.9549
L35.7960 26.1000
" />
<path d="M35.7960 26.1000
L35.7476 26.1968
" />
<path d="M35.7476 26.1968
L35.6993 26.2451
" />
<path d="M35.6993 26.2451
L35.6025 26.2935
" />
<path d="M35.6025 26.2935
L35.2155 26.2935
" />
<path d="M36.2315 26.7773
L36.2315 25.7613
" />
<path d="M36.7153 26.7773
L36.7153 25.7613
" />
<path d="M36.7153 25.7613
L37.2958 26.7773
" />
<path d="M37.2958 26.7773
L37.2958 25.7613
" />
<path d="M38.3118 26.7773
L37.7313 26.7773
" />
<path d="M38.0216 26.7773
L38.0216 25.7613
" />
<path d="M38.0216 25.7613
L37.9248 25.9065
" />
<path d="M37.9248 25.9065
L37.8280 26.0032
" />
<path d="M37.8280 26.0032
L37.7313 26.0516
" />
<path d="M38.9408 25.7613
L39.0375 25.7613
" />
<path d="M39.0375 25.7613
L39.1343 25.8097
" />
<path d="M39.1343 25.8097
L39.1827 25.8581
" />
<path d="M39.1827 25.8581
L39.2311 25.9549
" />
<path d="M39.2311 25.9549
L39.2794 26.1484
" />
<path d="M39.2794 26.1484
L39.2794 26.3903
" />
<path d="M39.2794 26.3903
L39.2311 26.5838
" />
<path d="M39.2311 26.5838
L39.1827 26.6806
" />
<path d="M39.1827 26.6806
L39.1343 26.7290
" />
<path d="M39.1343 26.7290
L39.0375 26.7773
" />
<path d="M39.0375 26.7773
L38.9408 26.7773
" />
<path d="M38.9408 26.7773
L38.8440 26.7290
" />
<path d="M38.8440 26.7290
L38.7956 26.6806
" />
<path d="M38.7956 26.6806
L38.7473 26.5838
" />
<path d="M38.7473 26.5838
L38.6989 26.3903
" />
<path d="M38.6989 26.3903
L38.6989 26.1484
" />
<path d="M38.6989 26.1484
L38.7473 25.9549
" />
<path d="M38.7473 25.9549
L38.7956 25.8581
" />
<path d="M38.7956 25.8581
L38.8440 25.8097
" />
<path d="M38.8440 25.8097
L38.9408 25.7613
" />
</g></g>
<g style="fill:none; 
stroke:#A90000; stroke-width:0.1524; stroke-opacity:1; 
stroke-linecap:round; stroke-linejoin:round;">
<text x="42.6212" y="26.0613"
textLength="2.1892" font-size="1.3546" lengthAdjust="spacingAndGlyphs"
text-anchor="middle" opacity="0" stroke-opacity="0">10</text>
<g class="stroked-text"><desc>10</desc>
<path d="M42.4276 25.9289
L41.8471 25.9289
" />
<path d="M42.1374 25.9289
L42.1374 24.9129
" />
<path d="M42.1374 24.9129
L42.0406 25.0581
" />
<path d="M42.0406 25.0581
L41.9438 25.1548
" />
<path d="M41.9438 25.1548
L41.8471 25.2032
" />
<path d="M43.0566 24.9129
L43.1533 24.9129
" />
<path d="M43.1533 24.9129
L43.2501 24.9613
" />
<path d="M43.2501 24.9613
L43.2985 25.0097
" />
<path d="M43.2985 25.0097
L43.3469 25.1065
" />
<path d="M43.3469 25.1065
L43.3952 25.3000
" />
<path d="M43.3952 25.3000
L43.3952 25.5419
" />
<path d="M43.3952 25.5419
L43.3469 25.7354
" />
<path d="M43.3469 25.7354
L43.2985 25.8322
" />
<path d="M43.2985 25.8322
L43.2501 25.8806
" />
<path d="M43.2501 25.8806
L43.1533 25.9289
" />
<path d="M43.1533 25.9289
L43.0566 25.9289
" />
<path d="M43.0566 25.9289
L42.9598 25.8806
" />
<path d="M42.9598 25.8806
L42.9114 25.8322
" />
<path d="M42.9114 25.8322
L42.8631 25.7354
" />
<path d="M42.8631 25.7354
L42.8147 25.5419
" />
<path d="M42.8147 25.5419
L42.8147 25.3000
" />
<path d="M42.8147 25.3000
L42.8631 25.1065
" />
<path d="M42.8631 25.1065
L42.9114 25.0097
" />
<path d="M42.9114 25.0097
L42.9598 24.9613
" />
<path d="M42.9598 24.9613
L43.0566 24.9129
" />
</g></g>
<g style="fill:none; 
stroke:#840000; stroke-width:0.1524; stroke-opacity:1; 
stroke-linecap:round; stroke-linejoin:round;">
<path d="M9.6012 16.1553
L4.5212 16.1553
" />
</g>
<g style="fill:none; 
stroke:#006464; stroke-width:0.1524; stroke-opacity:1; 
stroke-linecap:round; stroke-linejoin:round;">
<text x="10.1092" y="16.6633"
textLength="5.9145" font-size="1.3546" lengthAdjust="spacingAndGlyphs"
text-anchor="start" opacity="0" stroke-opacity="0">NRESET</text>
<g class="stroked-text"><desc>NRESET</desc>
<path d="M10.4513 16.6173
L10.4513 15.6013
" />
<path d="M10.4513 15.6013
L11.0318 16.6173
" />
<path d="M11.0318 16.6173
L11.0318 15.6013
" />
<path d="M12.0962 16.6173
L11.7576 16.1335
" />
<path d="M11.5157 16.6173
L11.5157 15.6013
" />
<path d="M11.5157 15.6013
L11.9027 15.6013
" />
<path d="M11.9027 15.6013
L11.9995 15.6497
" />
<path d="M11.9995 15.6497
L12.0478 15.6981
" />
<path d="M12.0478 15.6981
L12.0962 15.7949
" />
<path d="M12.0962 15.7949
L12.0962 15.9400
" />
<path d="M12.0962 15.9400
L12.0478 16.0368
" />
<path d="M12.0478 16.0368
L11.9995 16.0851
" />
<path d="M11.9995 16.0851
L11.9027 16.1335
" />
<path d="M11.9027 16.1335
L11.5157 16.1335
" />
<path d="M12.5317 16.0851
L12.8703 16.0851
" />
<path d="M13.0155 16.6173
L12.5317 16.6173
" />
<path d="M12.5317 16.6173
L12.5317 15.6013
" />
<path d="M12.5317 15.6013
L13.0155 15.6013
" />
<path d="M13.4025 16.5690
L13.5476 16.6173
" />
<path d="M13.5476 16.6173
L13.7895 16.6173
" />
<path d="M13.7895 16.6173
L13.8863 16.5690
" />
<path d="M13.8863 16.5690
L13.9347 16.5206
" />
<path d="M13.9347 16.5206
L13.9830 16.4238
" />
<path d="M13.9830 16.4238
L13.9830 16.3270
" />
<path d="M13.9830 16.3270
L13.9347 16.2303
" />
<path d="M13.9347 16.2303
L13.8863 16.1819
" />
<path d="M13.8863 16.1819
L13.7895 16.1335
" />
<path d="M13.7895 16.1335
L13.5960 16.0851
" />
<path d="M13.5960 16.0851
L13.4992 16.0368
" />
<path d="M13.4992 16.0368
L13.4509 15.9884
" />
<path d="M13.4509 15.9884
L13.4025 15.8916
" />
<path d="M13.4025 15.8916
L13.4025 15.7949
" />
<path d="M13.4025 15.7949
L13.4509 15.6981
" />
<path d="M13.4509 15.6981
L13.4992 15.6497
" />
<path d="M13.4992 15.6497
L13.5960 15.6013
" />
<path d="M13.5960 15.6013
L13.8379 15.6013
" />
<path d="M13.8379 15.6013
L13.9830 15.6497
" />
<path d="M14.4185 16.0851
L14.7571 16.0851
" />
<path d="M14.9023 16.6173
L14.4185 16.6173
" />
<path d="M14.4185 16.6173
L14.4185 15.6013
" />
<path d="M14.4185 15.6013
L14.9023 15.6013
" />
<path d="M15.1925 15.6013
L15.7731 15.6013
" />
<path d="M15.4828 16.6173
L15.4828 15.6013
" />
</g></g>
<g style="fill:none; 
stroke:#A90000; stroke-width:0.1524; stroke-opacity:1; 
stroke-linecap:round; stroke-linejoin:round;">
<text x="7.0612" y="15.9013"
textLength="2.1892" font-size="1.3546" lengthAdjust="spacingAndGlyphs"
text-anchor="middle" opacity="0" stroke-opacity="0">11</text>
<g class="stroked-text"><desc>11</desc>
<path d="M6.8676 15.7689
L6.2871 15.7689
" />
<path d="M6.5774 15.7689
L6.5774 14.7529
" />
<path d="M6.5774 14.7529
L6.4806 14.8981
" />
<path d="M6.4806 14.8981
L6.3838 14.9948
" />
<path d="M6.3838 14.9948
L6.2871 15.0432
" />
<path d="M7.8352 15.7689
L7.2547 15.7689
" />
<path d="M7.5450 15.7689
L7.5450 14.7529
" />
<path d="M7.5450 14.7529
L7.4482 14.8981
" />
<path d="M7.4482 14.8981
L7.3514 14.9948
" />
<path d="M7.3514 14.9948
L7.2547 15.0432
" />
</g></g>
<g style="fill:none; 
stroke:#840000; stroke-width:0.1524; stroke-opacity:1; 
stroke-linecap:round; stroke-linejoin:round;">
<path d="M40.0812 18.6953
L45.1612 18.6953
" />
</g>
<g style="fill:none; 
stroke:#006464; stroke-width:0.1524; stroke-opacity:1; 
stroke-linecap:round; stroke-linejoin:round;">
<text x="39.5732" y="19.2033"
textLength="2.5763" font-size="1.3546" lengthAdjust="spacingAndGlyphs"
text-anchor="end" opacity="0" stroke-opacity="0">INT</text>
<g class="stroked-text"><desc>INT</desc>
<path d="M37.3926 19.1573
L37.3926 18.1413
" />
<path d="M37.8764 19.1573
L37.8764 18.1413
" />
<path d="M37.8764 18.1413
L38.4569 19.1573
" />
<path d="M38.4569 19.1573
L38.4569 18.1413
" />
<path d="M38.7956 18.1413
L39.3762 18.1413
" />
<path d="M39.0859 19.1573
L39.0859 18.1413
" />
</g></g>
<g style="fill:none; 
stroke:#A90000; stroke-width:0.1524; stroke-opacity:1; 
stroke-linecap:round; stroke-linejoin:round;">
<text x="42.6212" y="18.4413"
textLength="2.1892" font-size="1.3546" lengthAdjust="spacingAndGlyphs"
text-anchor="middle" opacity="0" stroke-opacity="0">14</text>
<g class="stroked-text"><desc>14</desc>
<path d="M42.4276 18.3089
L41.8471 18.3089
" />
<path d="M42.1374 18.3089
L42.1374 17.2929
" />
<path d="M42.1374 17.2929
L42.0406 17.4381
" />
<path d="M42.0406 17.4381
L41.9438 17.5348
" />
<path d="M41.9438 17.5348
L41.8471 17.5832
" />
<path d="M43.2985 17.6316
L43.2985 18.3089
" />
<path d="M43.0566 17.2446
L42.8147 17.9703
" />
<path d="M42.8147 17.9703
L43.4436 17.9703
" />
</g></g>
<g style="fill:none; 
stroke:#840000; stroke-width:0.1524; stroke-opacity:1; 
stroke-linecap:round; stroke-linejoin:round;">
<path d="M40.0812 28.8553
L45.1612 28.8553
" />
</g>
<g style="fill:none; 
stroke:#006464; stroke-width:0.1524; stroke-opacity:1; 
stroke-linecap:round; stroke-linejoin:round;">
<text x="39.5732" y="29.3633"
textLength="4.7534" font-size="1.3546" lengthAdjust="spacingAndGlyphs"
text-anchor="end" opacity="0" stroke-opacity="0">PIN15</text>
<g class="stroked-text"><desc>PIN15</desc>
<path d="M35.2155 29.3173
L35.2155 28.3013
" />
<path d="M35.2155 28.3013
L35.6025 28.3013
" />
<path d="M35.6025 28.3013
L35.6993 28.3497
" />
<path d="M35.6993 28.3497
L35.7476 28.3981
" />
<path d="M35.7476 28.3981
L35.7960 28.4949
" />
<path d="M35.7960 28.4949
L35.7960 28.6400
" />
<path d="M35.7960 28.6400
L35.7476 28.7368
" />
<path d="M35.7476 28.7368
L35.6993 28.7851
" />
<path d="M35.6993 28.7851
L35.6025 28.8335
" />
<path d="M35.6025 28.8335
L35.2155 28.8335
" />
<path d="M36.2315 29.3173
L36.2315 28.3013
" />
<path d="M36.7153 29.3173
L36.7153 28.3013
" />
<path d="M36.7153 28.3013
L37.2958 29.3173
" />
<path d="M37.2958 29.3173
L37.2958 28.3013
" />
<path d="M38.3118 29.3173
L37.7313 29.3173
" />
<path d="M38.0216 29.3173
L38.0216 28.3013
" />
<path d="M38.0216 28.3013
L37.9248 28.4465
" />
<path d="M37.9248 28.4465
L37.8280 28.5432
" />
<path d="M37.8280 28.5432
L37.7313 28.5916
" />
<path d="M39.2311 28.3013
L38.7473 28.3013
" />
<path d="M38.7473 28.3013
L38.6989 28.7851
" />
<path d="M38.6989 28.7851
L38.7473 28.7368
" />
<path d="M38.7473 28.7368
L38.8440 28.6884
" />
<path d="M38.8440 28.6884
L39.0859 28.6884
" />
<path d="M39.0859 28.6884
L39.1827 28.7368
" />
<path d="M39.1827 28.7368
L39.2311 28.7851
" />
<path d="M39.2311 28.7851
L39.2794 28.8819
" />
<path d="M39.2794 28.8819
L39.2794 29.1238
" />
<path d="M39.2794 29.1238
L39.2311 29.2206
" />
<path d="M39.2311 29.2206
L39.1827 29.2690
" />
<path d="M39.1827 29.2690
L39.0859 29.3173
" />
<path d="M39.0859 29.3173
L38.8440 29.3173
" />
<path d="M38.8440 29.3173
L38.7473 29.2690
" />
<path d="M38.7473 29.2690
L38.6989 29.2206
" />
</g></g>
<g style="fill:none; 
stroke:#A90000; stroke-width:0.1524; stroke-opacity:1; 
stroke-linecap:round; stroke-linejoin:round;">
<text x="42.6212" y="28.6013"
textLength="2.1892" font-size="1.3546" lengthAdjust="spacingAndGlyphs"
text-anchor="middle" opacity="0" stroke-opacity="0">15</text>
<g class="stroked-text"><desc>15</desc>
<path d="M42.4276 28.4689
L41.8471 28.4689
" />
<path d="M42.1374 28.4689
L42.1374 27.4529
" />
<path d="M42.1374 27.4529
L42.0406 27.5981
" />
<path d="M42.0406 27.5981
L41.9438 27.6948
" />
<path d="M41.9438 27.6948
L41.8471 27.7432
" />
<path d="M43.3469 27.4529
L42.8631 27.4529
" />
<path d="M42.8631 27.4529
L42.8147 27.9367
" />
<path d="M42.8147 27.9367
L42.8631 27.8884
" />
<path d="M42.8631 27.8884
L42.9598 27.8400
" />
<path d="M42.9598 27.8400
L43.2017 27.8400
" />
<path d="M43.2017 27.8400
L43.2985 27.8884
" />
<path d="M43.2985 27.8884
L43.3469 27.9367
" />
<path d="M43.3469 27.9367
L43.3952 28.0335
" />
<path d="M43.3952 28.0335
L43.3952 28.2754
" />
<path d="M43.3952 28.2754
L43.3469 28.3722
" />
<path d="M43.3469 28.3722
L43.2985 28.4206
" />
<path d="M43.2985 28.4206
L43.2017 28.4689
" />
<path d="M43.2017 28.4689
L42.9598 28.4689
" />
<path d="M42.9598 28.4689
L42.8631 28.4206
" />
<path d="M42.8631 28.4206
L42.8147 28.3722
" />
</g></g>
<g style="fill:none; 
stroke:#840000; stroke-width:0.1524; stroke-opacity:1; 
stroke-linecap:round; stroke-linejoin:round;">
<path d="M40.0812 31.3953
L45.1612 31.3953
" />
</g>
<g style="fill:none; 
stroke:#006464; stroke-width:0.1524; stroke-opacity:1; 
stroke-linecap:round; stroke-linejoin:round;">
<text x="39.5732" y="31.9033"
textLength="4.7534" font-size="1.3546" lengthAdjust="spacingAndGlyphs"
text-anchor="end" opacity="0" stroke-opacity="0">PIN16</text>
<g class="stroked-text"><desc>PIN16</desc>
<path d="M35.2155 31.8573
L35.2155 30.8413
" />
<path d="M35.2155 30.8413
L35.6025 30.8413
" />
<path d="M35.6025 30.8413
L35.6993 30.8897
" />
<path d="M35.6993 30.8897
L35.7476 30.9381
" />
<path d="M35.7476 30.9381
L35.7960 31.0349
" />
<path d="M35.7960 31.0349
L35.7960 31.1800
" />
<path d="M35.7960 31.1800
L35.7476 31.2768
" />
<path d="M35.7476 31.2768
L35.6993 31.3251
" />
<path d="M35.6993 31.3251
L35.6025 31.3735
" />
<path d="M35.6025 31.3735
L35.2155 31.3735
" />
<path d="M36.2315 31.8573
L36.2315 30.8413
" />
<path d="M36.7153 31.8573
L36.7153 30.8413
" />
<path d="M36.7153 30.8413
L37.2958 31.8573
" />
<path d="M37.2958 31.8573
L37.2958 30.8413
" />
<path d="M38.3118 31.8573
L37.7313 31.8573
" />
<path d="M38.0216 31.8573
L38.0216 30.8413
" />
<path d="M38.0216 30.8413
L37.9248 30.9865
" />
<path d="M37.9248 30.9865
L37.8280 31.0832
" />
<path d="M37.8280 31.0832
L37.7313 31.1316
" />
<path d="M39.1827 30.8413
L38.9892 30.8413
" />
<path d="M38.9892 30.8413
L38.8924 30.8897
" />
<path d="M38.8924 30.8897
L38.8440 30.9381
" />
<path d="M38.8440 30.9381
L38.7473 31.0832
" />
<path d="M38.7473 31.0832
L38.6989 31.2768
" />
<path d="M38.6989 31.2768
L38.6989 31.6638
" />
<path d="M38.6989 31.6638
L38.7473 31.7606
" />
<path d="M38.7473 31.7606
L38.7956 31.8090
" />
<path d="M38.7956 31.8090
L38.8924 31.8573
" />
<path d="M38.8924 31.8573
L39.0859 31.8573
" />
<path d="M39.0859 31.8573
L39.1827 31.8090
" />
<path d="M39.1827 31.8090
L39.2311 31.7606
" />
<path d="M39.2311 31.7606
L39.2794 31.6638
" />
<path d="M39.2794 31.6638
L39.2794 31.4219
" />
<path d="M39.2794 31.4219
L39.2311 31.3251
" />
<path d="M39.2311 31.3251
L39.1827 31.2768
" />
<path d="M39.1827 31.2768
L39.0859 31.2284
" />
<path d="M39.0859 31.2284
L38.8924 31.2284
" />
<path d="M38.8924 31.2284
L38.7956 31.2768
" />
<path d="M38.7956 31.2768
L38.7473 31.3251
" />
<path d="M38.7473 31.3251
L38.6989 31.4219
" />
</g></g>
<g style="fill:none; 
stroke:#A90000; stroke-width:0.1524; stroke-opacity:1; 
stroke-linecap:round; stroke-linejoin:round;">
<text x="42.6212" y="31.1413"
textLength="2.1892" font-size="1.3546" lengthAdjust="spacingAndGlyphs"
text-anchor="middle" opacity="0" stroke-opacity="0">16</text>
<g class="stroked-text"><desc>16</desc>
<path d="M42.4276 31.0089
L41.8471 31.0089
" />
<path d="M42.1374 31.0089
L42.1374 29.9929
" />
<path d="M42.1374 29.9929
L42.0406 30.1381
" />
<path d="M42.0406 30.1381
L41.9438 30.2348
" />
<path d="M41.9438 30.2348
L41.8471 30.2832
" />
<path d="M43.2985 29.9929
L43.1050 29.9929
" />
<path d="M43.1050 29.9929
L43.0082 30.0413
" />
<path d="M43.0082 30.0413
L42.9598 30.0897
" />
<path d="M42.9598 30.0897
L42.8631 30.2348
" />
<path d="M42.8631 30.2348
L42.8147 30.4284
" />
<path d="M42.8147 30.4284
L42.8147 30.8154
" />
<path d="M42.8147 30.8154
L42.8631 30.9122
" />
<path d="M42.8631 30.9122
L42.9114 30.9606
" />
<path d="M42.9114 30.9606
L43.0082 31.0089
" />
<path d="M43.0082 31.0089
L43.2017 31.0089
" />
<path d="M43.2017 31.0089
L43.2985 30.9606
" />
<path d="M43.2985 30.9606
L43.3469 30.9122
" />
<path d="M43.3469 30.9122
L43.3952 30.8154
" />
<path d="M43.3952 30.8154
L43.3952 30.5735
" />
<path d="M43.3952 30.5735
L43.3469 30.4767
" />
<path d="M43.3469 30.4767
L43.2985 30.4284
" />
<path d="M43.2985 30.4284
L43.2017 30.3800
" />
<path d="M43.2017 30.3800
L43.0082 30.3800
" />
<path d="M43.0082 30.3800
L42.9114 30.4284
" />
<path d="M42.9114 30.4284
L42.8631 30.4767
" />
<path d="M42.8631 30.4767
L42.8147 30.5735
" />
</g></g>
<g style="fill:none; 
stroke:#840000; stroke-width:0.1524; stroke-opacity:1; 
stroke-linecap:round; stroke-linejoin:round;">
<path d="M9.6012 31.3953
L4.5212 31.3953
" />
</g>
<g style="fill:none; 
stroke:#006464; stroke-width:0.1524; stroke-opacity:1; 
stroke-linecap:round; stroke-linejoin:round;">
<text x="10.1092" y="31.9033"
textLength="4.4631" font-size="1.3546" lengthAdjust="spacingAndGlyphs"
text-anchor="start" opacity="0" stroke-opacity="0">COM3</text>
<g class="stroked-text"><desc>COM3</desc>
<path d="M11.0318 31.7606
L10.9834 31.8090
" />
<path d="M10.9834 31.8090
L10.8383 31.8573
" />
<path d="M10.8383 31.8573
L10.7415 31.8573
" />
<path d="M10.7415 31.8573
L10.5964 31.8090
" />
<path d="M10.5964 31.8090
L10.4996 31.7122
" />
<path d="M10.4996 31.7122
L10.4513 31.6154
" />
<path d="M10.4513 31.6154
L10.4029 31.4219
" />
<path d="M10.4029 31.4219
L10.4029 31.2768
" />
<path d="M10.4029 31.2768
L10.4513 31.0832
" />
<path d="M10.4513 31.0832
L10.4996 30.9865
" />
<path d="M10.4996 30.9865
L10.5964 30.8897
" />
<path d="M10.5964 30.8897
L10.7415 30.8413
" />
<path d="M10.7415 30.8413
L10.8383 30.8413
" />
<path d="M10.8383 30.8413
L10.9834 30.8897
" />
<path d="M10.9834 30.8897
L11.0318 30.9381
" />
<path d="M11.6608 30.8413
L11.8543 30.8413
" />
<path d="M11.8543 30.8413
L11.9511 30.8897
" />
<path d="M11.9511 30.8897
L12.0478 30.9865
" />
<path d="M12.0478 30.9865
L12.0962 31.1800
" />
<path d="M12.0962 31.1800
L12.0962 31.5187
" />
<path d="M12.0962 31.5187
L12.0478 31.7122
" />
<path d="M12.0478 31.7122
L11.9511 31.8090
" />
<path d="M11.9511 31.8090
L11.8543 31.8573
" />
<path d="M11.8543 31.8573
L11.6608 31.8573
" />
<path d="M11.6608 31.8573
L11.5640 31.8090
" />
<path d="M11.5640 31.8090
L11.4673 31.7122
" />
<path d="M11.4673 31.7122
L11.4189 31.5187
" />
<path d="M11.4189 31.5187
L11.4189 31.1800
" />
<path d="M11.4189 31.1800
L11.4673 30.9865
" />
<path d="M11.4673 30.9865
L11.5640 30.8897
" />
<path d="M11.5640 30.8897
L11.6608 30.8413
" />
<path d="M12.5317 31.8573
L12.5317 30.8413
" />
<path d="M12.5317 30.8413
L12.8703 31.5670
" />
<path d="M12.8703 31.5670
L13.2090 30.8413
" />
<path d="M13.2090 30.8413
L13.2090 31.8573
" />
<path d="M13.5960 30.8413
L14.2249 30.8413
" />
<path d="M14.2249 30.8413
L13.8863 31.2284
" />
<path d="M13.8863 31.2284
L14.0314 31.2284
" />
<path d="M14.0314 31.2284
L14.1282 31.2768
" />
<path d="M14.1282 31.2768
L14.1766 31.3251
" />
<path d="M14.1766 31.3251
L14.2249 31.4219
" />
<path d="M14.2249 31.4219
L14.2249 31.6638
" />
<path d="M14.2249 31.6638
L14.1766 31.7606
" />
<path d="M14.1766 31.7606
L14.1282 31.8090
" />
<path d="M14.1282 31.8090
L14.0314 31.8573
" />
<path d="M14.0314 31.8573
L13.7411 31.8573
" />
<path d="M13.7411 31.8573
L13.6444 31.8090
" />
<path d="M13.6444 31.8090
L13.5960 31.7606
" />
</g></g>
<g style="fill:none; 
stroke:#A90000; stroke-width:0.1524; stroke-opacity:1; 
stroke-linecap:round; stroke-linejoin:round;">
<text x="7.0612" y="31.1413"
textLength="2.1892" font-size="1.3546" lengthAdjust="spacingAndGlyphs"
text-anchor="middle" opacity="0" stroke-opacity="0">17</text>
<g class="stroked-text"><desc>17</desc>
<path d="M6.8676 31.0089
L6.2871 31.0089
" />
<path d="M6.5774 31.0089
L6.5774 29.9929
" />
<path d="M6.5774 29.9929
L6.4806 30.1381
" />
<path d="M6.4806 30.1381
L6.3838 30.2348
" />
<path d="M6.3838 30.2348
L6.2871 30.2832
" />
<path d="M7.2063 29.9929
L7.8836 29.9929
" />
<path d="M7.8836 29.9929
L7.4482 31.0089
" />
</g></g>
<g style="fill:none; 
stroke:#840000; stroke-width:0.1524; stroke-opacity:1; 
stroke-linecap:round; stroke-linejoin:round;">
<path d="M9.6012 28.8553
L4.5212 28.8553
" />
</g>
<g style="fill:none; 
stroke:#006464; stroke-width:0.1524; stroke-opacity:1; 
stroke-linecap:round; stroke-linejoin:round;">
<text x="10.1092" y="29.3633"
textLength="4.4631" font-size="1.3546" lengthAdjust="spacingAndGlyphs"
text-anchor="start" opacity="0" stroke-opacity="0">COM2</text>
<g class="stroked-text"><desc>COM2</desc>
<path d="M11.0318 29.2206
L10.9834 29.2690
" />
<path d="M10.9834 29.2690
L10.8383 29.3173
" />
<path d="M10.8383 29.3173
L10.7415 29.3173
" />
<path d="M10.7415 29.3173
L10.5964 29.2690
" />
<path d="M10.5964 29.2690
L10.4996 29.1722
" />
<path d="M10.4996 29.1722
L10.4513 29.0754
" />
<path d="M10.4513 29.0754
L10.4029 28.8819
" />
<path d="M10.4029 28.8819
L10.4029 28.7368
" />
<path d="M10.4029 28.7368
L10.4513 28.5432
" />
<path d="M10.4513 28.5432
L10.4996 28.4465
" />
<path d="M10.4996 28.4465
L10.5964 28.3497
" />
<path d="M10.5964 28.3497
L10.7415 28.3013
" />
<path d="M10.7415 28.3013
L10.8383 28.3013
" />
<path d="M10.8383 28.3013
L10.9834 28.3497
" />
<path d="M10.9834 28.3497
L11.0318 28.3981
" />
<path d="M11.6608 28.3013
L11.8543 28.3013
" />
<path d="M11.8543 28.3013
L11.9511 28.3497
" />
<path d="M11.9511 28.3497
L12.0478 28.4465
" />
<path d="M12.0478 28.4465
L12.0962 28.6400
" />
<path d="M12.0962 28.6400
L12.0962 28.9787
" />
<path d="M12.0962 28.9787
L12.0478 29.1722
" />
<path d="M12.0478 29.1722
L11.9511 29.2690
" />
<path d="M11.9511 29.2690
L11.8543 29.3173
" />
<path d="M11.8543 29.3173
L11.6608 29.3173
" />
<path d="M11.6608 29.3173
L11.5640 29.2690
" />
<path d="M11.5640 29.2690
L11.4673 29.1722
" />
<path d="M11.4673 29.1722
L11.4189 28.9787
" />
<path d="M11.4189 28.9787
L11.4189 28.6400
" />
<path d="M11.4189 28.6400
L11.4673 28.4465
" />
<path d="M11.4673 28.4465
L11.5640 28.3497
" />
<path d="M11.5640 28.3497
L11.6608 28.3013
" />
<path d="M12.5317 29.3173
L12.5317 28.3013
" />
<path d="M12.5317 28.3013
L12.8703 29.0270
" />
<path d="M12.8703 29.0270
L13.2090 28.3013
" />
<path d="M13.2090 28.3013
L13.2090 29.3173
" />
<path d="M13.6444 28.3981
L13.6928 28.3497
" />
<path d="M13.6928 28.3497
L13.7895 28.3013
" />
<path d="M13.7895 28.3013
L14.0314 28.3013
" />
<path d="M14.0314 28.3013
L14.1282 28.3497
" />
<path d="M14.1282 28.3497
L14.1766 28.3981
" />
<path d="M14.1766 28.3981
L14.2249 28.4949
" />
<path d="M14.2249 28.4949
L14.2249 28.5916
" />
<path d="M14.2249 28.5916
L14.1766 28.7368
" />
<path d="M14.1766 28.7368
L13.5960 29.3173
" />
<path d="M13.5960 29.3173
L14.2249 29.3173
" />
</g></g>
<g style="fill:none; 
stroke:#A90000; stroke-width:0.1524; stroke-opacity:1; 
stroke-linecap:round; stroke-linejoin:round;">
<text x="7.0612" y="28.6013"
textLength="2.1892" font-size="1.3546" lengthAdjust="spacingAndGlyphs"
text-anchor="middle" opacity="0" stroke-opacity="0">18</text>
<g class="stroked-text"><desc>18</desc>
<path d="M6.8676 28.4689
L6.2871 28.4689
" />
<path d="M6.5774 28.4689
L6.5774 27.4529
" />
<path d="M6.5774 27.4529
L6.4806 27.5981
" />
<path d="M6.4806 27.5981
L6.3838 27.6948
" />
<path d="M6.3838 27.6948
L6.2871 27.7432
" />
<path d="M7.4482 27.8884
L7.3514 27.8400
" />
<path d="M7.3514 27.8400
L7.3031 27.7916
" />
<path d="M7.3031 27.7916
L7.2547 27.6948
" />
<path d="M7.2547 27.6948
L7.2547 27.6465
" />
<path d="M7.2547 27.6465
L7.3031 27.5497
" />
<path d="M7.3031 27.5497
L7.3514 27.5013
" />
<path d="M7.3514 27.5013
L7.4482 27.4529
" />
<path d="M7.4482 27.4529
L7.6417 27.4529
" />
<path d="M7.6417 27.4529
L7.7385 27.5013
" />
<path d="M7.7385 27.5013
L7.7869 27.5497
" />
<path d="M7.7869 27.5497
L7.8352 27.6465
" />
<path d="M7.8352 27.6465
L7.8352 27.6948
" />
<path d="M7.8352 27.6948
L7.7869 27.7916
" />
<path d="M7.7869 27.7916
L7.7385 27.8400
" />
<path d="M7.7385 27.8400
L7.6417 27.8884
" />
<path d="M7.6417 27.8884
L7.4482 27.8884
" />
<path d="M7.4482 27.8884
L7.3514 27.9367
" />
<path d="M7.3514 27.9367
L7.3031 27.9851
" />
<path d="M7.3031 27.9851
L7.2547 28.0819
" />
<path d="M7.2547 28.0819
L7.2547 28.2754
" />
<path d="M7.2547 28.2754
L7.3031 28.3722
" />
<path d="M7.3031 28.3722
L7.3514 28.4206
" />
<path d="M7.3514 28.4206
L7.4482 28.4689
" />
<path d="M7.4482 28.4689
L7.6417 28.4689
" />
<path d="M7.6417 28.4689
L7.7385 28.4206
" />
<path d="M7.7385 28.4206
L7.7869 28.3722
" />
<path d="M7.7869 28.3722
L7.8352 28.2754
" />
<path d="M7.8352 28.2754
L7.8352 28.0819
" />
<path d="M7.8352 28.0819
L7.7869 27.9851
" />
<path d="M7.7869 27.9851
L7.7385 27.9367
" />
<path d="M7.7385 27.9367
L7.6417 27.8884
" />
</g></g>
<g style="fill:none; 
stroke:#840000; stroke-width:0.1524; stroke-opacity:1; 
stroke-linecap:round; stroke-linejoin:round;">
<path d="M9.6012 26.3153
L4.5212 26.3153
" />
</g>
<g style="fill:none; 
stroke:#006464; stroke-width:0.1524; stroke-opacity:1; 
stroke-linecap:round; stroke-linejoin:round;">
<text x="10.1092" y="26.8233"
textLength="4.4631" font-size="1.3546" lengthAdjust="spacingAndGlyphs"
text-anchor="start" opacity="0" stroke-opacity="0">COM1</text>
<g class="stroked-text"><desc>COM1</desc>
<path d="M11.0318 26.6806
L10.9834 26.7290
" />
<path d="M10.9834 26.7290
L10.8383 26.7773
" />
<path d="M10.8383 26.7773
L10.7415 26.7773
" />
<path d="M10.7415 26.7773
L10.5964 26.7290
" />
<path d="M10.5964 26.7290
L10.4996 26.6322
" />
<path d="M10.4996 26.6322
L10.4513 26.5354
" />
<path d="M10.4513 26.5354
L10.4029 26.3419
" />
<path d="M10.4029 26.3419
L10.4029 26.1968
" />
<path d="M10.4029 26.1968
L10.4513 26.0032
" />
<path d="M10.4513 26.0032
L10.4996 25.9065
" />
<path d="M10.4996 25.9065
L10.5964 25.8097
" />
<path d="M10.5964 25.8097
L10.7415 25.7613
" />
<path d="M10.7415 25.7613
L10.8383 25.7613
" />
<path d="M10.8383 25.7613
L10.9834 25.8097
" />
<path d="M10.9834 25.8097
L11.0318 25.8581
" />
<path d="M11.6608 25.7613
L11.8543 25.7613
" />
<path d="M11.8543 25.7613
L11.9511 25.8097
" />
<path d="M11.9511 25.8097
L12.0478 25.9065
" />
<path d="M12.0478 25.9065
L12.0962 26.1000
" />
<path d="M12.0962 26.1000
L12.0962 26.4387
" />
<path d="M12.0962 26.4387
L12.0478 26.6322
" />
<path d="M12.0478 26.6322
L11.9511 26.7290
" />
<path d="M11.9511 26.7290
L11.8543 26.7773
" />
<path d="M11.8543 26.7773
L11.6608 26.7773
" />
<path d="M11.6608 26.7773
L11.5640 26.7290
" />
<path d="M11.5640 26.7290
L11.4673 26.6322
" />
<path d="M11.4673 26.6322
L11.4189 26.4387
" />
<path d="M11.4189 26.4387
L11.4189 26.1000
" />
<path d="M11.4189 26.1000
L11.4673 25.9065
" />
<path d="M11.4673 25.9065
L11.5640 25.8097
" />
<path d="M11.5640 25.8097
L11.6608 25.7613
" />
<path d="M12.5317 26.7773
L12.5317 25.7613
" />
<path d="M12.5317 25.7613
L12.8703 26.4870
" />
<path d="M12.8703 26.4870
L13.2090 25.7613
" />
<path d="M13.2090 25.7613
L13.2090 26.7773
" />
<path d="M14.2249 26.7773
L13.6444 26.7773
" />
<path d="M13.9347 26.7773
L13.9347 25.7613
" />
<path d="M13.9347 25.7613
L13.8379 25.9065
" />
<path d="M13.8379 25.9065
L13.7411 26.0032
" />
<path d="M13.7411 26.0032
L13.6444 26.0516
" />
</g></g>
<g style="fill:none; 
stroke:#A90000; stroke-width:0.1524; stroke-opacity:1; 
stroke-linecap:round; stroke-linejoin:round;">
<text x="7.0612" y="26.0613"
textLength="2.1892" font-size="1.3546" lengthAdjust="spacingAndGlyphs"
text-anchor="middle" opacity="0" stroke-opacity="0">19</text>
<g class="stroked-text"><desc>19</desc>
<path d="M6.8676 25.9289
L6.2871 25.9289
" />
<path d="M6.5774 25.9289
L6.5774 24.9129
" />
<path d="M6.5774 24.9129
L6.4806 25.0581
" />
<path d="M6.4806 25.0581
L6.3838 25.1548
" />
<path d="M6.3838 25.1548
L6.2871 25.2032
" />
<path d="M7.3514 25.9289
L7.5450 25.9289
" />
<path d="M7.5450 25.9289
L7.6417 25.8806
" />
<path d="M7.6417 25.8806
L7.6901 25.8322
" />
<path d="M7.6901 25.8322
L7.7869 25.6870
" />
<path d="M7.7869 25.6870
L7.8352 25.4935
" />
<path d="M7.8352 25.4935
L7.8352 25.1065
" />
<path d="M7.8352 25.1065
L7.7869 25.0097
" />
<path d="M7.7869 25.0097
L7.7385 24.9613
" />
<path d="M7.7385 24.9613
L7.6417 24.9129
" />
<path d="M7.6417 24.9129
L7.4482 24.9129
" />
<path d="M7.4482 24.9129
L7.3514 24.9613
" />
<path d="M7.3514 24.9613
L7.3031 25.0097
" />
<path d="M7.3031 25.0097
L7.2547 25.1065
" />
<path d="M7.2547 25.1065
L7.2547 25.3484
" />
<path d="M7.2547 25.3484
L7.3031 25.4451
" />
<path d="M7.3031 25.4451
L7.3514 25.4935
" />
<path d="M7.3514 25.4935
L7.4482 25.5419
" />
<path d="M7.4482 25.5419
L7.6417 25.5419
" />
<path d="M7.6417 25.5419
L7.7385 25.4935
" />
<path d="M7.7385 25.4935
L7.7869 25.4451
" />
<path d="M7.7869 25.4451
L7.8352 25.3484
" />
</g></g>
<g style="fill:none; 
stroke:#840000; stroke-width:0.1524; stroke-opacity:1; 
stroke-linecap:round; stroke-linejoin:round;">
<path d="M9.6012 23.7753
L4.5212 23.7753
" />
</g>
<g style="fill:none; 
stroke:#006464; stroke-width:0.1524; stroke-opacity:1; 
stroke-linecap:round; stroke-linejoin:round;">
<text x="10.1092" y="24.2833"
textLength="4.4631" font-size="1.3546" lengthAdjust="spacingAndGlyphs"
text-anchor="start" opacity="0" stroke-opacity="0">COM0</text>
<g class="stroked-text"><desc>COM0</desc>
<path d="M11.0318 24.1406
L10.9834 24.1890
" />
<path d="M10.9834 24.1890
L10.8383 24.2373
" />
<path d="M10.8383 24.2373
L10.7415 24.2373
" />
<path d="M10.7415 24.2373
L10.5964 24.1890
" />
<path d="M10.5964 24.1890
L10.4996 24.0922
" />
<path d="M10.4996 24.0922
L10.4513 23.9954
" />
<path d="M10.4513 23.9954
L10.4029 23.8019
" />
<path d="M10.4029 23.8019
L10.4029 23.6568
" />
<path d="M10.4029 23.6568
L10.4513 23.4632
" />
<path d="M10.4513 23.4632
L10.4996 23.3665
" />
<path d="M10.4996 23.3665
L10.5964 23.2697
" />
<path d="M10.5964 23.2697
L10.7415 23.2213
" />
<path d="M10.7415 23.2213
L10.8383 23.2213
" />
<path d="M10.8383 23.2213
L10.9834 23.2697
" />
<path d="M10.9834 23.2697
L11.0318 23.3181
" />
<path d="M11.6608 23.2213
L11.8543 23.2213
" />
<path d="M11.8543 23.2213
L11.9511 23.2697
" />
<path d="M11.9511 23.2697
L12.0478 23.3665
" />
<path d="M12.0478 23.3665
L12.0962 23.5600
" />
<path d="M12.0962 23.5600
L12.0962 23.8987
" />
<path d="M12.0962 23.8987
L12.0478 24.0922
" />
<path d="M12.0478 24.0922
L11.9511 24.1890
" />
<path d="M11.9511 24.1890
L11.8543 24.2373
" />
<path d="M11.8543 24.2373
L11.6608 24.2373
" />
<path d="M11.6608 24.2373
L11.5640 24.1890
" />
<path d="M11.5640 24.1890
L11.4673 24.0922
" />
<path d="M11.4673 24.0922
L11.4189 23.8987
" />
<path d="M11.4189 23.8987
L11.4189 23.5600
" />
<path d="M11.4189 23.5600
L11.4673 23.3665
" />
<path d="M11.4673 23.3665
L11.5640 23.2697
" />
<path d="M11.5640 23.2697
L11.6608 23.2213
" />
<path d="M12.5317 24.2373
L12.5317 23.2213
" />
<path d="M12.5317 23.2213
L12.8703 23.9470
" />
<path d="M12.8703 23.9470
L13.2090 23.2213
" />
<path d="M13.2090 23.2213
L13.2090 24.2373
" />
<path d="M13.8863 23.2213
L13.9830 23.2213
" />
<path d="M13.9830 23.2213
L14.0798 23.2697
" />
<path d="M14.0798 23.2697
L14.1282 23.3181
" />
<path d="M14.1282 23.3181
L14.1766 23.4149
" />
<path d="M14.1766 23.4149
L14.2249 23.6084
" />
<path d="M14.2249 23.6084
L14.2249 23.8503
" />
<path d="M14.2249 23.8503
L14.1766 24.0438
" />
<path d="M14.1766 24.0438
L14.1282 24.1406
" />
<path d="M14.1282 24.1406
L14.0798 24.1890
" />
<path d="M14.0798 24.1890
L13.9830 24.2373
" />
<path d="M13.9830 24.2373
L13.8863 24.2373
" />
<path d="M13.8863 24.2373
L13.7895 24.1890
" />
<path d="M13.7895 24.1890
L13.7411 24.1406
" />
<path d="M13.7411 24.1406
L13.6928 24.0438
" />
<path d="M13.6928 24.0438
L13.6444 23.8503
" />
<path d="M13.6444 23.8503
L13.6444 23.6084
" />
<path d="M13.6444 23.6084
L13.6928 23.4149
" />
<path d="M13.6928 23.4149
L13.7411 23.3181
" />
<path d="M13.7411 23.3181
L13.7895 23.2697
" />
<path d="M13.7895 23.2697
L13.8863 23.2213
" />
</g></g>
<g style="fill:none; 
stroke:#A90000; stroke-width:0.1524; stroke-opacity:1; 
stroke-linecap:round; stroke-linejoin:round;">
<text x="7.0612" y="23.5213"
textLength="2.1892" font-size="1.3546" lengthAdjust="spacingAndGlyphs"
text-anchor="middle" opacity="0" stroke-opacity="0">20</text>
<g class="stroked-text"><desc>20</desc>
<path d="M6.2871 22.4697
L6.3355 22.4213
" />
<path d="M6.3355 22.4213
L6.4322 22.3729
" />
<path d="M6.4322 22.3729
L6.6741 22.3729
" />
<path d="M6.6741 22.3729
L6.7709 22.4213
" />
<path d="M6.7709 22.4213
L6.8193 22.4697
" />
<path d="M6.8193 22.4697
L6.8676 22.5665
" />
<path d="M6.8676 22.5665
L6.8676 22.6632
" />
<path d="M6.8676 22.6632
L6.8193 22.8084
" />
<path d="M6.8193 22.8084
L6.2387 23.3889
" />
<path d="M6.2387 23.3889
L6.8676 23.3889
" />
<path d="M7.4966 22.3729
L7.5933 22.3729
" />
<path d="M7.5933 22.3729
L7.6901 22.4213
" />
<path d="M7.6901 22.4213
L7.7385 22.4697
" />
<path d="M7.7385 22.4697
L7.7869 22.5665
" />
<path d="M7.7869 22.5665
L7.8352 22.7600
" />
<path d="M7.8352 22.7600
L7.8352 23.0019
" />
<path d="M7.8352 23.0019
L7.7869 23.1954
" />
<path d="M7.7869 23.1954
L7.7385 23.2922
" />
<path d="M7.7385 23.2922
L7.6901 23.3406
" />
<path d="M7.6901 23.3406
L7.5933 23.3889
" />
<path d="M7.5933 23.3889
L7.4966 23.3889
" />
<path d="M7.4966 23.3889
L7.3998 23.3406
" />
<path d="M7.3998 23.3406
L7.3514 23.2922
" />
<path d="M7.3514 23.2922
L7.3031 23.1954
" />
<path d="M7.3031 23.1954
L7.2547 23.0019
" />
<path d="M7.2547 23.0019
L7.2547 22.7600
" />
<path d="M7.2547 22.7600
L7.3031 22.5665
" />
<path d="M7.3031 22.5665
L7.3514 22.4697
" />
<path d="M7.3514 22.4697
L7.3998 22.4213
" />
<path d="M7.3998 22.4213
L7.4966 22.3729
" />
</g></g>
<g style="fill:none; 
stroke:#840000; stroke-width:0.1524; stroke-opacity:1; 
stroke-linecap:round; stroke-linejoin:round;">
<path d="M40.0812 33.9353
L45.1612 33.9353
" />
</g>
<g style="fill:none; 
stroke:#006464; stroke-width:0.1524; stroke-opacity:1; 
stroke-linecap:round; stroke-linejoin:round;">
<text x="39.5732" y="34.4433"
textLength="4.8986" font-size="1.3546" lengthAdjust="spacingAndGlyphs"
text-anchor="end" opacity="0" stroke-opacity="0">GNDIO</text>
<g class="stroked-text"><desc>GNDIO</desc>
<path d="M35.6024 33.4297
L35.5057 33.3813
" />
<path d="M35.5057 33.3813
L35.3605 33.3813
" />
<path d="M35.3605 33.3813
L35.2154 33.4297
" />
<path d="M35.2154 33.4297
L35.1186 33.5265
" />
<path d="M35.1186 33.5265
L35.0703 33.6232
" />
<path d="M35.0703 33.6232
L35.0219 33.8168
" />
<path d="M35.0219 33.8168
L35.0219 33.9619
" />
<path d="M35.0219 33.9619
L35.0703 34.1554
" />
<path d="M35.0703 34.1554
L35.1186 34.2522
" />
<path d="M35.1186 34.2522
L35.2154 34.3490
" />
<path d="M35.2154 34.3490
L35.3605 34.3973
" />
<path d="M35.3605 34.3973
L35.4573 34.3973
" />
<path d="M35.4573 34.3973
L35.6024 34.3490
" />
<path d="M35.6024 34.3490
L35.6508 34.3006
" />
<path d="M35.6508 34.3006
L35.6508 33.9619
" />
<path d="M35.6508 33.9619
L35.4573 33.9619
" />
<path d="M36.0863 34.3973
L36.0863 33.3813
" />
<path d="M36.0863 33.3813
L36.6668 34.3973
" />
<path d="M36.6668 34.3973
L36.6668 33.3813
" />
<path d="M37.1507 34.3973
L37.1507 33.3813
" />
<path d="M37.1507 33.3813
L37.3926 33.3813
" />
<path d="M37.3926 33.3813
L37.5377 33.4297
" />
<path d="M37.5377 33.4297
L37.6345 33.5265
" />
<path d="M37.6345 33.5265
L37.6828 33.6232
" />
<path d="M37.6828 33.6232
L37.7312 33.8168
" />
<path d="M37.7312 33.8168
L37.7312 33.9619
" />
<path d="M37.7312 33.9619
L37.6828 34.1554
" />
<path d="M37.6828 34.1554
L37.6345 34.2522
" />
<path d="M37.6345 34.2522
L37.5377 34.3490
" />
<path d="M37.5377 34.3490
L37.3926 34.3973
" />
<path d="M37.3926 34.3973
L37.1507 34.3973
" />
<path d="M38.1667 34.3973
L38.1667 33.3813
" />
<path d="M38.8440 33.3813
L39.0375 33.3813
" />
<path d="M39.0375 33.3813
L39.1343 33.4297
" />
<path d="M39.1343 33.4297
L39.2310 33.5265
" />
<path d="M39.2310 33.5265
L39.2794 33.7200
" />
<path d="M39.2794 33.7200
L39.2794 34.0587
" />
<path d="M39.2794 34.0587
L39.2310 34.2522
" />
<path d="M39.2310 34.2522
L39.1343 34.3490
" />
<path d="M39.1343 34.3490
L39.0375 34.3973
" />
<path d="M39.0375 34.3973
L38.8440 34.3973
" />
<path d="M38.8440 34.3973
L38.7472 34.3490
" />
<path d="M38.7472 34.3490
L38.6505 34.2522
" />
<path d="M38.6505 34.2522
L38.6021 34.0587
" />
<path d="M38.6021 34.0587
L38.6021 33.7200
" />
<path d="M38.6021 33.7200
L38.6505 33.5265
" />
<path d="M38.6505 33.5265
L38.7472 33.4297
" />
<path d="M38.7472 33.4297
L38.8440 33.3813
" />
</g></g>
<g style="fill:none; 
stroke:#A90000; stroke-width:0.1524; stroke-opacity:1; 
stroke-linecap:round; stroke-linejoin:round;">
<text x="42.6212" y="33.6813"
textLength="2.1892" font-size="1.3546" lengthAdjust="spacingAndGlyphs"
text-anchor="middle" opacity="0" stroke-opacity="0">25</text>
<g class="stroked-text"><desc>25</desc>
<path d="M41.8471 32.6297
L41.8955 32.5813
" />
<path d="M41.8955 32.5813
L41.9922 32.5329
" />
<path d="M41.9922 32.5329
L42.2341 32.5329
" />
<path d="M42.2341 32.5329
L42.3309 32.5813
" />
<path d="M42.3309 32.5813
L42.3793 32.6297
" />
<path d="M42.3793 32.6297
L42.4276 32.7265
" />
<path d="M42.4276 32.7265
L42.4276 32.8232
" />
<path d="M42.4276 32.8232
L42.3793 32.9684
" />
<path d="M42.3793 32.9684
L41.7987 33.5489
" />
<path d="M41.7987 33.5489
L42.4276 33.5489
" />
<path d="M43.3469 32.5329
L42.8631 32.5329
" />
<path d="M42.8631 32.5329
L42.8147 33.0167
" />
<path d="M42.8147 33.0167
L42.8631 32.9684
" />
<path d="M42.8631 32.9684
L42.9598 32.9200
" />
<path d="M42.9598 32.9200
L43.2017 32.9200
" />
<path d="M43.2017 32.9200
L43.2985 32.9684
" />
<path d="M43.2985 32.9684
L43.3469 33.0167
" />
<path d="M43.3469 33.0167
L43.3952 33.1135
" />
<path d="M43.3952 33.1135
L43.3952 33.3554
" />
<path d="M43.3952 33.3554
L43.3469 33.4522
" />
<path d="M43.3469 33.4522
L43.2985 33.5006
" />
<path d="M43.2985 33.5006
L43.2017 33.5489
" />
<path d="M43.2017 33.5489
L42.9598 33.5489
" />
<path d="M42.9598 33.5489
L42.8631 33.5006
" />
<path d="M42.8631 33.5006
L42.8147 33.4522
" />
</g></g>
<g style="fill:none; 
stroke:#840000; stroke-width:0.1524; stroke-opacity:1; 
stroke-linecap:round; stroke-linejoin:round;">
<path d="M40.0812 16.1553
L45.1612 16.1553
" />
</g>
<g style="fill:none; 
stroke:#006464; stroke-width:0.1524; stroke-opacity:1; 
stroke-linecap:round; stroke-linejoin:round;">
<text x="39.5732" y="16.6633"
textLength="6.0597" font-size="1.3546" lengthAdjust="spacingAndGlyphs"
text-anchor="end" opacity="0" stroke-opacity="0">XOUT32</text>
<g class="stroked-text"><desc>XOUT32</desc>
<path d="M33.8124 15.6013
L34.4897 16.6173
" />
<path d="M34.4897 15.6013
L33.8124 16.6173
" />
<path d="M35.0703 15.6013
L35.2638 15.6013
" />
<path d="M35.2638 15.6013
L35.3606 15.6497
" />
<path d="M35.3606 15.6497
L35.4573 15.7465
" />
<path d="M35.4573 15.7465
L35.5057 15.9400
" />
<path d="M35.5057 15.9400
L35.5057 16.2787
" />
<path d="M35.5057 16.2787
L35.4573 16.4722
" />
<path d="M35.4573 16.4722
L35.3606 16.5690
" />
<path d="M35.3606 16.5690
L35.2638 16.6173
" />
<path d="M35.2638 16.6173
L35.0703 16.6173
" />
<path d="M35.0703 16.6173
L34.9735 16.5690
" />
<path d="M34.9735 16.5690
L34.8768 16.4722
" />
<path d="M34.8768 16.4722
L34.8284 16.2787
" />
<path d="M34.8284 16.2787
L34.8284 15.9400
" />
<path d="M34.8284 15.9400
L34.8768 15.7465
" />
<path d="M34.8768 15.7465
L34.9735 15.6497
" />
<path d="M34.9735 15.6497
L35.0703 15.6013
" />
<path d="M35.9412 15.6013
L35.9412 16.4238
" />
<path d="M35.9412 16.4238
L35.9895 16.5206
" />
<path d="M35.9895 16.5206
L36.0379 16.5690
" />
<path d="M36.0379 16.5690
L36.1347 16.6173
" />
<path d="M36.1347 16.6173
L36.3282 16.6173
" />
<path d="M36.3282 16.6173
L36.4250 16.5690
" />
<path d="M36.4250 16.5690
L36.4733 16.5206
" />
<path d="M36.4733 16.5206
L36.5217 16.4238
" />
<path d="M36.5217 16.4238
L36.5217 15.6013
" />
<path d="M36.8604 15.6013
L37.4410 15.6013
" />
<path d="M37.1507 16.6173
L37.1507 15.6013
" />
<path d="M37.6829 15.6013
L38.3118 15.6013
" />
<path d="M38.3118 15.6013
L37.9732 15.9884
" />
<path d="M37.9732 15.9884
L38.1183 15.9884
" />
<path d="M38.1183 15.9884
L38.2151 16.0368
" />
<path d="M38.2151 16.0368
L38.2635 16.0851
" />
<path d="M38.2635 16.0851
L38.3118 16.1819
" />
<path d="M38.3118 16.1819
L38.3118 16.4238
" />
<path d="M38.3118 16.4238
L38.2635 16.5206
" />
<path d="M38.2635 16.5206
L38.2151 16.5690
" />
<path d="M38.2151 16.5690
L38.1183 16.6173
" />
<path d="M38.1183 16.6173
L37.8280 16.6173
" />
<path d="M37.8280 16.6173
L37.7313 16.5690
" />
<path d="M37.7313 16.5690
L37.6829 16.5206
" />
<path d="M38.6989 15.6981
L38.7473 15.6497
" />
<path d="M38.7473 15.6497
L38.8440 15.6013
" />
<path d="M38.8440 15.6013
L39.0859 15.6013
" />
<path d="M39.0859 15.6013
L39.1827 15.6497
" />
<path d="M39.1827 15.6497
L39.2311 15.6981
" />
<path d="M39.2311 15.6981
L39.2794 15.7949
" />
<path d="M39.2794 15.7949
L39.2794 15.8916
" />
<path d="M39.2794 15.8916
L39.2311 16.0368
" />
<path d="M39.2311 16.0368
L38.6505 16.6173
" />
<path d="M38.6505 16.6173
L39.2794 16.6173
" />
</g></g>
<g style="fill:none; 
stroke:#A90000; stroke-width:0.1524; stroke-opacity:1; 
stroke-linecap:round; stroke-linejoin:round;">
<text x="42.6212" y="15.9013"
textLength="2.1892" font-size="1.3546" lengthAdjust="spacingAndGlyphs"
text-anchor="middle" opacity="0" stroke-opacity="0">26</text>
<g class="stroked-text"><desc>26</desc>
<path d="M41.8471 14.8497
L41.8955 14.8013
" />
<path d="M41.8955 14.8013
L41.9922 14.7529
" />
<path d="M41.9922 14.7529
L42.2341 14.7529
" />
<path d="M42.2341 14.7529
L42.3309 14.8013
" />
<path d="M42.3309 14.8013
L42.3793 14.8497
" />
<path d="M42.3793 14.8497
L42.4276 14.9465
" />
<path d="M42.4276 14.9465
L42.4276 15.0432
" />
<path d="M42.4276 15.0432
L42.3793 15.1884
" />
<path d="M42.3793 15.1884
L41.7987 15.7689
" />
<path d="M41.7987 15.7689
L42.4276 15.7689
" />
<path d="M43.2985 14.7529
L43.1050 14.7529
" />
<path d="M43.1050 14.7529
L43.0082 14.8013
" />
<path d="M43.0082 14.8013
L42.9598 14.8497
" />
<path d="M42.9598 14.8497
L42.8631 14.9948
" />
<path d="M42.8631 14.9948
L42.8147 15.1884
" />
<path d="M42.8147 15.1884
L42.8147 15.5754
" />
<path d="M42.8147 15.5754
L42.8631 15.6722
" />
<path d="M42.8631 15.6722
L42.9114 15.7206
" />
<path d="M42.9114 15.7206
L43.0082 15.7689
" />
<path d="M43.0082 15.7689
L43.2017 15.7689
" />
<path d="M43.2017 15.7689
L43.2985 15.7206
" />
<path d="M43.2985 15.7206
L43.3469 15.6722
" />
<path d="M43.3469 15.6722
L43.3952 15.5754
" />
<path d="M43.3952 15.5754
L43.3952 15.3335
" />
<path d="M43.3952 15.3335
L43.3469 15.2367
" />
<path d="M43.3469 15.2367
L43.2985 15.1884
" />
<path d="M43.2985 15.1884
L43.2017 15.1400
" />
<path d="M43.2017 15.1400
L43.0082 15.1400
" />
<path d="M43.0082 15.1400
L42.9114 15.1884
" />
<path d="M42.9114 15.1884
L42.8631 15.2367
" />
<path d="M42.8631 15.2367
L42.8147 15.3335
" />
</g></g>
<g style="fill:none; 
stroke:#840000; stroke-width:0.1524; stroke-opacity:1; 
stroke-linecap:round; stroke-linejoin:round;">
<path d="M9.6012 13.6153
L4.5212 13.6153
" />
</g>
<g style="fill:none; 
stroke:#006464; stroke-width:0.1524; stroke-opacity:1; 
stroke-linecap:round; stroke-linejoin:round;">
<text x="10.1092" y="14.1233"
textLength="4.7050" font-size="1.3546" lengthAdjust="spacingAndGlyphs"
text-anchor="start" opacity="0" stroke-opacity="0">XIN32</text>
<g class="stroked-text"><desc>XIN32</desc>
<path d="M10.3545 13.0613
L11.0318 14.0773
" />
<path d="M11.0318 13.0613
L10.3545 14.0773
" />
<path d="M11.4189 14.0773
L11.4189 13.0613
" />
<path d="M11.9027 14.0773
L11.9027 13.0613
" />
<path d="M11.9027 13.0613
L12.4832 14.0773
" />
<path d="M12.4832 14.0773
L12.4832 13.0613
" />
<path d="M12.8703 13.0613
L13.4992 13.0613
" />
<path d="M13.4992 13.0613
L13.1606 13.4484
" />
<path d="M13.1606 13.4484
L13.3057 13.4484
" />
<path d="M13.3057 13.4484
L13.4025 13.4968
" />
<path d="M13.4025 13.4968
L13.4509 13.5451
" />
<path d="M13.4509 13.5451
L13.4992 13.6419
" />
<path d="M13.4992 13.6419
L13.4992 13.8838
" />
<path d="M13.4992 13.8838
L13.4509 13.9806
" />
<path d="M13.4509 13.9806
L13.4025 14.0290
" />
<path d="M13.4025 14.0290
L13.3057 14.0773
" />
<path d="M13.3057 14.0773
L13.0154 14.0773
" />
<path d="M13.0154 14.0773
L12.9187 14.0290
" />
<path d="M12.9187 14.0290
L12.8703 13.9806
" />
<path d="M13.8863 13.1581
L13.9347 13.1097
" />
<path d="M13.9347 13.1097
L14.0314 13.0613
" />
<path d="M14.0314 13.0613
L14.2733 13.0613
" />
<path d="M14.2733 13.0613
L14.3701 13.1097
" />
<path d="M14.3701 13.1097
L14.4185 13.1581
" />
<path d="M14.4185 13.1581
L14.4668 13.2549
" />
<path d="M14.4668 13.2549
L14.4668 13.3516
" />
<path d="M14.4668 13.3516
L14.4185 13.4968
" />
<path d="M14.4185 13.4968
L13.8379 14.0773
" />
<path d="M13.8379 14.0773
L14.4668 14.0773
" />
</g></g>
<g style="fill:none; 
stroke:#A90000; stroke-width:0.1524; stroke-opacity:1; 
stroke-linecap:round; stroke-linejoin:round;">
<text x="7.0612" y="13.3613"
textLength="2.1892" font-size="1.3546" lengthAdjust="spacingAndGlyphs"
text-anchor="middle" opacity="0" stroke-opacity="0">27</text>
<g class="stroked-text"><desc>27</desc>
<path d="M6.2871 12.3097
L6.3355 12.2613
" />
<path d="M6.3355 12.2613
L6.4322 12.2129
" />
<path d="M6.4322 12.2129
L6.6741 12.2129
" />
<path d="M6.6741 12.2129
L6.7709 12.2613
" />
<path d="M6.7709 12.2613
L6.8193 12.3097
" />
<path d="M6.8193 12.3097
L6.8676 12.4065
" />
<path d="M6.8676 12.4065
L6.8676 12.5032
" />
<path d="M6.8676 12.5032
L6.8193 12.6484
" />
<path d="M6.8193 12.6484
L6.2387 13.2289
" />
<path d="M6.2387 13.2289
L6.8676 13.2289
" />
<path d="M7.2063 12.2129
L7.8836 12.2129
" />
<path d="M7.8836 12.2129
L7.4482 13.2289
" />
</g></g>
<g style="fill:none; 
stroke:#840000; stroke-width:0.1524; stroke-opacity:1; 
stroke-linecap:round; stroke-linejoin:round;">
<path d="M40.0812 11.0753
L45.1612 11.0753
" />
</g>
<g style="fill:none; 
stroke:#006464; stroke-width:0.1524; stroke-opacity:1; 
stroke-linecap:round; stroke-linejoin:round;">
<text x="39.5732" y="11.5833"
textLength="4.7051" font-size="1.3546" lengthAdjust="spacingAndGlyphs"
text-anchor="end" opacity="0" stroke-opacity="0">VDDIO</text>
<g class="stroked-text"><desc>VDDIO</desc>
<path d="M35.1186 10.5213
L35.4573 11.5373
" />
<path d="M35.4573 11.5373
L35.7959 10.5213
" />
<path d="M36.1347 11.5373
L36.1347 10.5213
" />
<path d="M36.1347 10.5213
L36.3766 10.5213
" />
<path d="M36.3766 10.5213
L36.5217 10.5697
" />
<path d="M36.5217 10.5697
L36.6185 10.6665
" />
<path d="M36.6185 10.6665
L36.6668 10.7632
" />
<path d="M36.6668 10.7632
L36.7152 10.9568
" />
<path d="M36.7152 10.9568
L36.7152 11.1019
" />
<path d="M36.7152 11.1019
L36.6668 11.2954
" />
<path d="M36.6668 11.2954
L36.6185 11.3922
" />
<path d="M36.6185 11.3922
L36.5217 11.4890
" />
<path d="M36.5217 11.4890
L36.3766 11.5373
" />
<path d="M36.3766 11.5373
L36.1347 11.5373
" />
<path d="M37.1507 11.5373
L37.1507 10.5213
" />
<path d="M37.1507 10.5213
L37.3926 10.5213
" />
<path d="M37.3926 10.5213
L37.5377 10.5697
" />
<path d="M37.5377 10.5697
L37.6345 10.6665
" />
<path d="M37.6345 10.6665
L37.6828 10.7632
" />
<path d="M37.6828 10.7632
L37.7312 10.9568
" />
<path d="M37.7312 10.9568
L37.7312 11.1019
" />
<path d="M37.7312 11.1019
L37.6828 11.2954
" />
<path d="M37.6828 11.2954
L37.6345 11.3922
" />
<path d="M37.6345 11.3922
L37.5377 11.4890
" />
<path d="M37.5377 11.4890
L37.3926 11.5373
" />
<path d="M37.3926 11.5373
L37.1507 11.5373
" />
<path d="M38.1667 11.5373
L38.1667 10.5213
" />
<path d="M38.8440 10.5213
L39.0375 10.5213
" />
<path d="M39.0375 10.5213
L39.1343 10.5697
" />
<path d="M39.1343 10.5697
L39.2310 10.6665
" />
<path d="M39.2310 10.6665
L39.2794 10.8600
" />
<path d="M39.2794 10.8600
L39.2794 11.1987
" />
<path d="M39.2794 11.1987
L39.2310 11.3922
" />
<path d="M39.2310 11.3922
L39.1343 11.4890
" />
<path d="M39.1343 11.4890
L39.0375 11.5373
" />
<path d="M39.0375 11.5373
L38.8440 11.5373
" />
<path d="M38.8440 11.5373
L38.7472 11.4890
" />
<path d="M38.7472 11.4890
L38.6505 11.3922
" />
<path d="M38.6505 11.3922
L38.6021 11.1987
" />
<path d="M38.6021 11.1987
L38.6021 10.8600
" />
<path d="M38.6021 10.8600
L38.6505 10.6665
" />
<path d="M38.6505 10.6665
L38.7472 10.5697
" />
<path d="M38.7472 10.5697
L38.8440 10.5213
" />
</g></g>
<g style="fill:none; 
stroke:#A90000; stroke-width:0.1524; stroke-opacity:1; 
stroke-linecap:round; stroke-linejoin:round;">
<text x="42.6212" y="10.8213"
textLength="2.1892" font-size="1.3546" lengthAdjust="spacingAndGlyphs"
text-anchor="middle" opacity="0" stroke-opacity="0">28</text>
<g class="stroked-text"><desc>28</desc>
<path d="M41.8471 9.7697
L41.8955 9.7213
" />
<path d="M41.8955 9.7213
L41.9922 9.6729
" />
<path d="M41.9922 9.6729
L42.2341 9.6729
" />
<path d="M42.2341 9.6729
L42.3309 9.7213
" />
<path d="M42.3309 9.7213
L42.3793 9.7697
" />
<path d="M42.3793 9.7697
L42.4276 9.8665
" />
<path d="M42.4276 9.8665
L42.4276 9.9632
" />
<path d="M42.4276 9.9632
L42.3793 10.1084
" />
<path d="M42.3793 10.1084
L41.7987 10.6889
" />
<path d="M41.7987 10.6889
L42.4276 10.6889
" />
<path d="M43.0082 10.1084
L42.9114 10.0600
" />
<path d="M42.9114 10.0600
L42.8631 10.0116
" />
<path d="M42.8631 10.0116
L42.8147 9.9148
" />
<path d="M42.8147 9.9148
L42.8147 9.8665
" />
<path d="M42.8147 9.8665
L42.8631 9.7697
" />
<path d="M42.8631 9.7697
L42.9114 9.7213
" />
<path d="M42.9114 9.7213
L43.0082 9.6729
" />
<path d="M43.0082 9.6729
L43.2017 9.6729
" />
<path d="M43.2017 9.6729
L43.2985 9.7213
" />
<path d="M43.2985 9.7213
L43.3469 9.7697
" />
<path d="M43.3469 9.7697
L43.3952 9.8665
" />
<path d="M43.3952 9.8665
L43.3952 9.9148
" />
<path d="M43.3952 9.9148
L43.3469 10.0116
" />
<path d="M43.3469 10.0116
L43.2985 10.0600
" />
<path d="M43.2985 10.0600
L43.2017 10.1084
" />
<path d="M43.2017 10.1084
L43.0082 10.1084
" />
<path d="M43.0082 10.1084
L42.9114 10.1567
" />
<path d="M42.9114 10.1567
L42.8631 10.2051
" />
<path d="M42.8631 10.2051
L42.8147 10.3019
" />
<path d="M42.8147 10.3019
L42.8147 10.4954
" />
<path d="M42.8147 10.4954
L42.8631 10.5922
" />
<path d="M42.8631 10.5922
L42.9114 10.6406
" />
<path d="M42.9114 10.6406
L43.0082 10.6889
" />
<path d="M43.0082 10.6889
L43.2017 10.6889
" />
<path d="M43.2017 10.6889
L43.2985 10.6406
" />
<path d="M43.2985 10.6406
L43.3469 10.5922
" />
<path d="M43.3469 10.5922
L43.3952 10.4954
" />
<path d="M43.3952 10.4954
L43.3952 10.3019
" />
<path d="M43.3952 10.3019
L43.3469 10.2051
" />
<path d="M43.3469 10.2051
L43.2985 10.1567
" />
<path d="M43.2985 10.1567
L43.2017 10.1084
" />
</g></g>
<g style="fill:none; 
stroke:#006464; stroke-width:0.1524; stroke-opacity:1; 
stroke-linecap:round; stroke-linejoin:round;">
<text x="10.1092" y="5.4873"
textLength="2.6223" font-size="1.6933" lengthAdjust="spacingAndGlyphs"
text-anchor="start" opacity="0" stroke-opacity="0">U?</text>
<g class="stroked-text"><desc>U?</desc>
<path d="M10.5117 4.0538
L10.5117 5.0819
" />
<path d="M10.5117 5.0819
L10.5722 5.2029
" />
<path d="M10.5722 5.2029
L10.6327 5.2634
" />
<path d="M10.6327 5.2634
L10.7536 5.3238
" />
<path d="M10.7536 5.3238
L10.9955 5.3238
" />
<path d="M10.9955 5.3238
L11.1165 5.2634
" />
<path d="M11.1165 5.2634
L11.1770 5.2029
" />
<path d="M11.1770 5.2029
L11.2374 5.0819
" />
<path d="M11.2374 5.0819
L11.2374 4.0538
" />
<path d="M12.0237 5.2029
L12.0841 5.2634
" />
<path d="M12.0841 5.2634
L12.0237 5.3238
" />
<path d="M12.0237 5.3238
L11.9632 5.2634
" />
<path d="M11.9632 5.2634
L12.0237 5.2029
" />
<path d="M12.0237 5.2029
L12.0237 5.3238
" />
<path d="M11.7818 4.1143
L11.9027 4.0538
" />
<path d="M11.9027 4.0538
L12.2051 4.0538
" />
<path d="M12.2051 4.0538
L12.3260 4.1143
" />
<path d="M12.3260 4.1143
L12.3865 4.2353
" />
<path d="M12.3865 4.2353
L12.3865 4.3562
" />
<path d="M12.3865 4.3562
L12.3260 4.4772
" />
<path d="M12.3260 4.4772
L12.2656 4.5376
" />
<path d="M12.2656 4.5376
L12.1446 4.5981
" />
<path d="M12.1446 4.5981
L12.0841 4.6586
" />
<path d="M12.0841 4.6586
L12.0237 4.7795
" />
<path d="M12.0237 4.7795
L12.0237 4.8400
" />
</g><text x="10.0838" y="40.8441"
textLength="7.7627" font-size="1.6933" lengthAdjust="spacingAndGlyphs"
text-anchor="start" opacity="0" stroke-opacity="0">BNO055</text>
<g class="stroked-text"><desc>BNO055</desc>
<path d="M10.9097 40.0154
L11.0911 40.0759
" />
<path d="M11.0911 40.0759
L11.1516 40.1363
" />
<path d="M11.1516 40.1363
L11.2120 40.2573
" />
<path d="M11.2120 40.2573
L11.2120 40.4387
" />
<path d="M11.2120 40.4387
L11.1516 40.5597
" />
<path d="M11.1516 40.5597
L11.0911 40.6202
" />
<path d="M11.0911 40.6202
L10.9701 40.6806
" />
<path d="M10.9701 40.6806
L10.4863 40.6806
" />
<path d="M10.4863 40.6806
L10.4863 39.4106
" />
<path d="M10.4863 39.4106
L10.9097 39.4106
" />
<path d="M10.9097 39.4106
L11.0306 39.4711
" />
<path d="M11.0306 39.4711
L11.0911 39.5316
" />
<path d="M11.0911 39.5316
L11.1516 39.6525
" />
<path d="M11.1516 39.6525
L11.1516 39.7735
" />
<path d="M11.1516 39.7735
L11.0911 39.8944
" />
<path d="M11.0911 39.8944
L11.0306 39.9549
" />
<path d="M11.0306 39.9549
L10.9097 40.0154
" />
<path d="M10.9097 40.0154
L10.4863 40.0154
" />
<path d="M11.7563 40.6806
L11.7563 39.4106
" />
<path d="M11.7563 39.4106
L12.4820 40.6806
" />
<path d="M12.4820 40.6806
L12.4820 39.4106
" />
<path d="M13.3287 39.4106
L13.5706 39.4106
" />
<path d="M13.5706 39.4106
L13.6916 39.4711
" />
<path d="M13.6916 39.4711
L13.8125 39.5921
" />
<path d="M13.8125 39.5921
L13.8730 39.8340
" />
<path d="M13.8730 39.8340
L13.8730 40.2573
" />
<path d="M13.8730 40.2573
L13.8125 40.4992
" />
<path d="M13.8125 40.4992
L13.6916 40.6202
" />
<path d="M13.6916 40.6202
L13.5706 40.6806
" />
<path d="M13.5706 40.6806
L13.3287 40.6806
" />
<path d="M13.3287 40.6806
L13.2078 40.6202
" />
<path d="M13.2078 40.6202
L13.0868 40.4992
" />
<path d="M13.0868 40.4992
L13.0264 40.2573
" />
<path d="M13.0264 40.2573
L13.0264 39.8340
" />
<path d="M13.0264 39.8340
L13.0868 39.5921
" />
<path d="M13.0868 39.5921
L13.2078 39.4711
" />
<path d="M13.2078 39.4711
L13.3287 39.4106
" />
<path d="M14.6592 39.4106
L14.7802 39.4106
" />
<path d="M14.7802 39.4106
L14.9011 39.4711
" />
<path d="M14.9011 39.4711
L14.9616 39.5316
" />
<path d="M14.9616 39.5316
L15.0221 39.6525
" />
<path d="M15.0221 39.6525
L15.0826 39.8944
" />
<path d="M15.0826 39.8944
L15.0826 40.1968
" />
<path d="M15.0826 40.1968
L15.0221 40.4387
" />
<path d="M15.0221 40.4387
L14.9616 40.5597
" />
<path d="M14.9616 40.5597
L14.9011 40.6202
" />
<path d="M14.9011 40.6202
L14.7802 40.6806
" />
<path d="M14.7802 40.6806
L14.6592 40.6806
" />
<path d="M14.6592 40.6806
L14.5383 40.6202
" />
<path d="M14.5383 40.6202
L14.4778 40.5597
" />
<path d="M14.4778 40.5597
L14.4173 40.4387
" />
<path d="M14.4173 40.4387
L14.3569 40.1968
" />
<path d="M14.3569 40.1968
L14.3569 39.8944
" />
<path d="M14.3569 39.8944
L14.4173 39.6525
" />
<path d="M14.4173 39.6525
L14.4778 39.5316
" />
<path d="M14.4778 39.5316
L14.5383 39.4711
" />
<path d="M14.5383 39.4711
L14.6592 39.4106
" />
<path d="M16.2316 39.4106
L15.6268 39.4106
" />
<path d="M15.6268 39.4106
L15.5664 40.0154
" />
<path d="M15.5664 40.0154
L15.6268 39.9549
" />
<path d="M15.6268 39.9549
L15.7478 39.8944
" />
<path d="M15.7478 39.8944
L16.0502 39.8944
" />
<path d="M16.0502 39.8944
L16.1711 39.9549
" />
<path d="M16.1711 39.9549
L16.2316 40.0154
" />
<path d="M16.2316 40.0154
L16.2921 40.1363
" />
<path d="M16.2921 40.1363
L16.2921 40.4387
" />
<path d="M16.2921 40.4387
L16.2316 40.5597
" />
<path d="M16.2316 40.5597
L16.1711 40.6202
" />
<path d="M16.1711 40.6202
L16.0502 40.6806
" />
<path d="M16.0502 40.6806
L15.7478 40.6806
" />
<path d="M15.7478 40.6806
L15.6268 40.6202
" />
<path d="M15.6268 40.6202
L15.5664 40.5597
" />
<path d="M17.4411 39.4106
L16.8363 39.4106
" />
<path d="M16.8363 39.4106
L16.7759 40.0154
" />
<path d="M16.7759 40.0154
L16.8363 39.9549
" />
<path d="M16.8363 39.9549
L16.9573 39.8944
" />
<path d="M16.9573 39.8944
L17.2597 39.8944
" />
<path d="M17.2597 39.8944
L17.3806 39.9549
" />
<path d="M17.3806 39.9549
L17.4411 40.0154
" />
<path d="M17.4411 40.0154
L17.5016 40.1363
" />
<path d="M17.5016 40.1363
L17.5016 40.4387
" />
<path d="M17.5016 40.4387
L17.4411 40.5597
" />
<path d="M17.4411 40.5597
L17.3806 40.6202
" />
<path d="M17.3806 40.6202
L17.2597 40.6806
" />
<path d="M17.2597 40.6806
L16.9573 40.6806
" />
<path d="M16.9573 40.6806
L16.8363 40.6202
" />
<path d="M16.8363 40.6202
L16.7759 40.5597
" />
</g></g> 
</svg>
