<?xml version="1.0" standalone="no"?>
 <!DOCTYPE svg PUBLIC "-//W3C//DTD SVG 1.1//EN" 
 "http://www.w3.org/Graphics/SVG/1.1/DTD/svg11.dtd"> 
<svg
  xmlns:svg="http://www.w3.org/2000/svg"
  xmlns="http://www.w3.org/2000/svg"
  xmlns:xlink="http://www.w3.org/1999/xlink"
  xmlns:inkscape="http://www.inkscape.org/namespaces/inkscape"
  version="1.1"
  width="100%" height="100%" viewBox="0.0000 0.0000 49.6824 44.8818">
<title>SVG Image created as BNO055_unit1.svg date 2026-04-16T00:37:06 </title>
  <desc>Image generated by Eeschema-SVG </desc>
<g style="fill:#000000; fill-opacity:1.0000;stroke:#000000; stroke-opacity:1.0000;
stroke-linecap:round; stroke-linejoin:round;"
 transform="translate(0 0) scale(1 1)">
<path style="fill:none; 
stroke:#840000; stroke-width:0.2540; stroke-opacity:1; 
stroke-linecap:round; stroke-linejoin:round;fill:none"
d="M 9.6012,5.9953
9.6012,39.0153
" /> 
<path style="fill:none; 
stroke:#840000; stroke-width:0.2540; stroke-opacity:1; 
stroke-linecap:round; stroke-linejoin:round;fill:none"
d="M 9.6012,39.0153
40.0812,39.0153
" /> 
<path style="fill:none; 
stroke:#840000; stroke-width:0.2540; stroke-opacity:1; 
stroke-linecap:round; stroke-linejoin:round;fill:none"
d="M 40.0812,5.9953
9.6012,5.9953
" /> 
<path style="fill:none; 
stroke:#840000; stroke-width:0.2540; stroke-opacity:1; 
stroke-linecap:round; stroke-linejoin:round;fill:none"
d="M 40.0812,39.0153
40.0812,5.9953
" /> 
</g>
<g style="fill:none; 
stroke:#840000; stroke-width:0.1524; stroke-opacity:1; 
stroke-linecap:round; stroke-linejoin:round;">
<path d="M40.0812 36.4753
L45.1612 36.4753
" />
</g>
<g style="fill:none; 
stroke:#006464; stroke-width:0.1524; stroke-opacity:1; 
stroke-linecap:round; stroke-linejoin:round;">
<text x="39.0652" y="36.9833"
textLength="3.3504" font-size="1.3546" lengthAdjust="spacingAndGlyphs"
text-anchor="end" opacity="0" stroke-opacity="0">GND</text>
<g class="stroked-text"><desc>GND</desc>
<path d="M36.6426 35.9697
L36.5459 35.9213
" />
<path d="M36.5459 35.9213
L36.4007 35.9213
" />
<path d="M36.4007 35.9213
L36.2556 35.9697
" />
<path d="M36.2556 35.9697
L36.1588 36.0665
" />
<path d="M36.1588 36.0665
L36.1105 36.1632
" />
<path d="M36.1105 36.1632
L36.0621 36.3568
" />
<path d="M36.0621 36.3568
L36.0621 36.5019
" />
<path d="M36.0621 36.5019
L36.1105 36.6954
" />
<path d="M36.1105 36.6954
L36.1588 36.7922
" />
<path d="M36.1588 36.7922
L36.2556 36.8890
" />
<path d="M36.2556 36.8890
L36.4007 36.9373
" />
<path d="M36.4007 36.9373
L36.4975 36.9373
" />
<path d="M36.4975 36.9373
L36.6426 36.8890
" />
<path d="M36.6426 36.8890
L36.6910 36.8406
" />
<path d="M36.6910 36.8406
L36.6910 36.5019
" />
<path d="M36.6910 36.5019
L36.4975 36.5019
" />
<path d="M37.1265 36.9373
L37.1265 35.9213
" />
<path d="M37.1265 35.9213
L37.7070 36.9373
" />
<path d="M37.7070 36.9373
L37.7070 35.9213
" />
<path d="M38.1909 36.9373
L38.1909 35.9213
" />
<path d="M38.1909 35.9213
L38.4328 35.9213
" />
<path d="M38.4328 35.9213
L38.5779 35.9697
" />
<path d="M38.5779 35.9697
L38.6747 36.0665
" />
<path d="M38.6747 36.0665
L38.7230 36.1632
" />
<path d="M38.7230 36.1632
L38.7714 36.3568
" />
<path d="M38.7714 36.3568
L38.7714 36.5019
" />
<path d="M38.7714 36.5019
L38.7230 36.6954
" />
<path d="M38.7230 36.6954
L38.6747 36.7922
" />
<path d="M38.6747 36.7922
L38.5779 36.8890
" />
<path d="M38.5779 36.8890
L38.4328 36.9373
" />
<path d="M38.4328 36.9373
L38.1909 36.9373
" />
</g></g>
<g style="fill:none; 
stroke:#A90000; stroke-width:0.1524; stroke-opacity:1; 
stroke-linecap:round; stroke-linejoin:round;">
<text x="42.6212" y="36.2213"
textLength="1.2216" font-size="1.3546" lengthAdjust="spacingAndGlyphs"
text-anchor="middle" opacity="0" stroke-opacity="0">2</text>
<g class="stroked-text"><desc>2</desc>
<path d="M42.3309 35.1697
L42.3793 35.1213
" />
<path d="M42.3793 35.1213
L42.4760 35.0729
" />
<path d="M42.4760 35.0729
L42.7179 35.0729
" />
<path d="M42.7179 35.0729
L42.8147 35.1213
" />
<path d="M42.8147 35.1213
L42.8631 35.1697
" />
<path d="M42.8631 35.1697
L42.9114 35.2665
" />
<path d="M42.9114 35.2665
L42.9114 35.3632
" />
<path d="M42.9114 35.3632
L42.8631 35.5084
" />
<path d="M42.8631 35.5084
L42.2825 36.0889
" />
<path d="M42.2825 36.0889
L42.9114 36.0889
" />
</g></g>
<g style="fill:none; 
stroke:#840000; stroke-width:0.1524; stroke-opacity:1; 
stroke-linecap:round; stroke-linejoin:round;">
<path d="M40.0812 8.5353
L45.1612 8.5353
" />
</g>
<g style="fill:none; 
stroke:#006464; stroke-width:0.1524; stroke-opacity:1; 
stroke-linecap:round; stroke-linejoin:round;">
<text x="39.0652" y="9.0433"
textLength="3.1569" font-size="1.3546" lengthAdjust="spacingAndGlyphs"
text-anchor="end" opacity="0" stroke-opacity="0">VDD</text>
<g class="stroked-text"><desc>VDD</desc>
<path d="M36.1588 7.9813
L36.4975 8.9973
" />
<path d="M36.4975 8.9973
L36.8361 7.9813
" />
<path d="M37.1749 8.9973
L37.1749 7.9813
" />
<path d="M37.1749 7.9813
L37.4168 7.9813
" />
<path d="M37.4168 7.9813
L37.5619 8.0297
" />
<path d="M37.5619 8.0297
L37.6587 8.1265
" />
<path d="M37.6587 8.1265
L37.7070 8.2232
" />
<path d="M37.7070 8.2232
L37.7554 8.4168
" />
<path d="M37.7554 8.4168
L37.7554 8.5619
" />
<path d="M37.7554 8.5619
L37.7070 8.7554
" />
<path d="M37.7070 8.7554
L37.6587 8.8522
" />
<path d="M37.6587 8.8522
L37.5619 8.9490
" />
<path d="M37.5619 8.9490
L37.4168 8.9973
" />
<path d="M37.4168 8.9973
L37.1749 8.9973
" />
<path d="M38.1909 8.9973
L38.1909 7.9813
" />
<path d="M38.1909 7.9813
L38.4328 7.9813
" />
<path d="M38.4328 7.9813
L38.5779 8.0297
" />
<path d="M38.5779 8.0297
L38.6747 8.1265
" />
<path d="M38.6747 8.1265
L38.7230 8.2232
" />
<path d="M38.7230 8.2232
L38.7714 8.4168
" />
<path d="M38.7714 8.4168
L38.7714 8.5619
" />
<path d="M38.7714 8.5619
L38.7230 8.7554
" />
<path d="M38.7230 8.7554
L38.6747 8.8522
" />
<path d="M38.6747 8.8522
L38.5779 8.9490
" />
<path d="M38.5779 8.9490
L38.4328 8.9973
" />
<path d="M38.4328 8.9973
L38.1909 8.9973
" />
</g></g>
<g style="fill:none; 
stroke:#A90000; stroke-width:0.1524; stroke-opacity:1; 
stroke-linecap:round; stroke-linejoin:round;">
<text x="42.6212" y="8.2813"
textLength="1.2216" font-size="1.3546" lengthAdjust="spacingAndGlyphs"
text-anchor="middle" opacity="0" stroke-opacity="0">3</text>
<g class="stroked-text"><desc>3</desc>
<path d="M42.2825 7.1329
L42.9114 7.1329
" />
<path d="M42.9114 7.1329
L42.5728 7.5200
" />
<path d="M42.5728 7.5200
L42.7179 7.5200
" />
<path d="M42.7179 7.5200
L42.8147 7.5684
" />
<path d="M42.8147 7.5684
L42.8631 7.6167
" />
<path d="M42.8631 7.6167
L42.9114 7.7135
" />
<path d="M42.9114 7.7135
L42.9114 7.9554
" />
<path d="M42.9114 7.9554
L42.8631 8.0522
" />
<path d="M42.8631 8.0522
L42.8147 8.1006
" />
<path d="M42.8147 8.1006
L42.7179 8.1489
" />
<path d="M42.7179 8.1489
L42.4276 8.1489
" />
<path d="M42.4276 8.1489
L42.3309 8.1006
" />
<path d="M42.3309 8.1006
L42.2825 8.0522
" />
</g></g>
<g style="fill:none; 
stroke:#840000; stroke-width:0.1524; stroke-opacity:1; 
stroke-linecap:round; stroke-linejoin:round;">
<path d="M9.6012 21.2353
L4.5212 21.2353
" />
</g>
<g style="fill:none; 
stroke:#006464; stroke-width:0.1524; stroke-opacity:1; 
stroke-linecap:round; stroke-linejoin:round;">
<text x="10.6172" y="21.7433"
textLength="13.1235" font-size="1.3546" lengthAdjust="spacingAndGlyphs"
text-anchor="start" opacity="0" stroke-opacity="0">NBOOT_LOAD_PIN</text>
<g class="stroked-text"><desc>NBOOT_LOAD_PIN</desc>
<path d="M10.9593 21.6973
L10.9593 20.6813
" />
<path d="M10.9593 20.6813
L11.5398 21.6973
" />
<path d="M11.5398 21.6973
L11.5398 20.6813
" />
<path d="M12.3623 21.1651
L12.5075 21.2135
" />
<path d="M12.5075 21.2135
L12.5558 21.2619
" />
<path d="M12.5558 21.2619
L12.6042 21.3587
" />
<path d="M12.6042 21.3587
L12.6042 21.5038
" />
<path d="M12.6042 21.5038
L12.5558 21.6006
" />
<path d="M12.5558 21.6006
L12.5075 21.6490
" />
<path d="M12.5075 21.6490
L12.4107 21.6973
" />
<path d="M12.4107 21.6973
L12.0237 21.6973
" />
<path d="M12.0237 21.6973
L12.0237 20.6813
" />
<path d="M12.0237 20.6813
L12.3623 20.6813
" />
<path d="M12.3623 20.6813
L12.4591 20.7297
" />
<path d="M12.4591 20.7297
L12.5075 20.7781
" />
<path d="M12.5075 20.7781
L12.5558 20.8749
" />
<path d="M12.5558 20.8749
L12.5558 20.9716
" />
<path d="M12.5558 20.9716
L12.5075 21.0684
" />
<path d="M12.5075 21.0684
L12.4591 21.1168
" />
<path d="M12.4591 21.1168
L12.3623 21.1651
" />
<path d="M12.3623 21.1651
L12.0237 21.1651
" />
<path d="M13.2332 20.6813
L13.4267 20.6813
" />
<path d="M13.4267 20.6813
L13.5235 20.7297
" />
<path d="M13.5235 20.7297
L13.6202 20.8265
" />
<path d="M13.6202 20.8265
L13.6686 21.0200
" />
<path d="M13.6686 21.0200
L13.6686 21.3587
" />
<path d="M13.6686 21.3587
L13.6202 21.5522
" />
<path d="M13.6202 21.5522
L13.5235 21.6490
" />
<path d="M13.5235 21.6490
L13.4267 21.6973
" />
<path d="M13.4267 21.6973
L13.2332 21.6973
" />
<path d="M13.2332 21.6973
L13.1364 21.6490
" />
<path d="M13.1364 21.6490
L13.0397 21.5522
" />
<path d="M13.0397 21.5522
L12.9913 21.3587
" />
<path d="M12.9913 21.3587
L12.9913 21.0200
" />
<path d="M12.9913 21.0200
L13.0397 20.8265
" />
<path d="M13.0397 20.8265
L13.1364 20.7297
" />
<path d="M13.1364 20.7297
L13.2332 20.6813
" />
<path d="M14.2976 20.6813
L14.4911 20.6813
" />
<path d="M14.4911 20.6813
L14.5879 20.7297
" />
<path d="M14.5879 20.7297
L14.6846 20.8265
" />
<path d="M14.6846 20.8265
L14.7330 21.0200
" />
<path d="M14.7330 21.0200
L14.7330 21.3587
" />
<path d="M14.7330 21.3587
L14.6846 21.5522
" />
<path d="M14.6846 21.5522
L14.5879 21.6490
" />
<path d="M14.5879 21.6490
L14.4911 21.6973
" />
<path d="M14.4911 21.6973
L14.2976 21.6973
" />
<path d="M14.2976 21.6973
L14.2008 21.6490
" />
<path d="M14.2008 21.6490
L14.1041 21.5522
" />
<path d="M14.1041 21.5522
L14.0557 21.3587
" />
<path d="M14.0557 21.3587
L14.0557 21.0200
" />
<path d="M14.0557 21.0200
L14.1041 20.8265
" />
<path d="M14.1041 20.8265
L14.2008 20.7297
" />
<path d="M14.2008 20.7297
L14.2976 20.6813
" />
<path d="M15.0233 20.6813
L15.6039 20.6813
" />
<path d="M15.3136 21.6973
L15.3136 20.6813
" />
<path d="M15.7007 21.7941
L16.4747 21.7941
" />
<path d="M17.2005 21.6973
L16.7167 21.6973
" />
<path d="M16.7167 21.6973
L16.7167 20.6813
" />
<path d="M17.7327 20.6813
L17.9262 20.6813
" />
<path d="M17.9262 20.6813
L18.0230 20.7297
" />
<path d="M18.0230 20.7297
L18.1197 20.8265
" />
<path d="M18.1197 20.8265
L18.1681 21.0200
" />
<path d="M18.1681 21.0200
L18.1681 21.3587
" />
<path d="M18.1681 21.3587
L18.1197 21.5522
" />
<path d="M18.1197 21.5522
L18.0230 21.6490
" />
<path d="M18.0230 21.6490
L17.9262 21.6973
" />
<path d="M17.9262 21.6973
L17.7327 21.6973
" />
<path d="M17.7327 21.6973
L17.6359 21.6490
" />
<path d="M17.6359 21.6490
L17.5392 21.5522
" />
<path d="M17.5392 21.5522
L17.4908 21.3587
" />
<path d="M17.4908 21.3587
L17.4908 21.0200
" />
<path d="M17.4908 21.0200
L17.5392 20.8265
" />
<path d="M17.5392 20.8265
L17.6359 20.7297
" />
<path d="M17.6359 20.7297
L17.7327 20.6813
" />
<path d="M18.5552 21.4070
L19.0390 21.4070
" />
<path d="M18.4584 21.6973
L18.7971 20.6813
" />
<path d="M18.7971 20.6813
L19.1357 21.6973
" />
<path d="M19.4745 21.6973
L19.4745 20.6813
" />
<path d="M19.4745 20.6813
L19.7164 20.6813
" />
<path d="M19.7164 20.6813
L19.8615 20.7297
" />
<path d="M19.8615 20.7297
L19.9583 20.8265
" />
<path d="M19.9583 20.8265
L20.0066 20.9232
" />
<path d="M20.0066 20.9232
L20.0550 21.1168
" />
<path d="M20.0550 21.1168
L20.0550 21.2619
" />
<path d="M20.0550 21.2619
L20.0066 21.4554
" />
<path d="M20.0066 21.4554
L19.9583 21.5522
" />
<path d="M19.9583 21.5522
L19.8615 21.6490
" />
<path d="M19.8615 21.6490
L19.7164 21.6973
" />
<path d="M19.7164 21.6973
L19.4745 21.6973
" />
<path d="M20.2486 21.7941
L21.0226 21.7941
" />
<path d="M21.2646 21.6973
L21.2646 20.6813
" />
<path d="M21.2646 20.6813
L21.6516 20.6813
" />
<path d="M21.6516 20.6813
L21.7484 20.7297
" />
<path d="M21.7484 20.7297
L21.7967 20.7781
" />
<path d="M21.7967 20.7781
L21.8451 20.8749
" />
<path d="M21.8451 20.8749
L21.8451 21.0200
" />
<path d="M21.8451 21.0200
L21.7967 21.1168
" />
<path d="M21.7967 21.1168
L21.7484 21.1651
" />
<path d="M21.7484 21.1651
L21.6516 21.2135
" />
<path d="M21.6516 21.2135
L21.2646 21.2135
" />
<path d="M22.2806 21.6973
L22.2806 20.6813
" />
<path d="M22.7644 21.6973
L22.7644 20.6813
" />
<path d="M22.7644 20.6813
L23.3449 21.6973
" />
<path d="M23.3449 21.6973
L23.3449 20.6813
" />
</g></g>
<g style="fill:none; 
stroke:#A90000; stroke-width:0.1524; stroke-opacity:1; 
stroke-linecap:round; stroke-linejoin:round;">
<text x="7.0612" y="20.9813"
textLength="1.2216" font-size="1.3546" lengthAdjust="spacingAndGlyphs"
text-anchor="middle" opacity="0" stroke-opacity="0">4</text>
<g class="stroked-text"><desc>4</desc>
<path d="M7.2547 20.1716
L7.2547 20.8489
" />
<path d="M7.0128 19.7846
L6.7709 20.5103
" />
<path d="M6.7709 20.5103
L7.3998 20.5103
" />
</g></g>
<g style="fill:none; 
stroke:#840000; stroke-width:0.1524; stroke-opacity:1; 
stroke-linecap:round; stroke-linejoin:round;">
<path d="M9.6012 11.0753
L4.5212 11.0753
" />
</g>
<g style="fill:none; 
stroke:#006464; stroke-width:0.1524; stroke-opacity:1; 
stroke-linecap:round; stroke-linejoin:round;">
<text x="10.6172" y="11.5833"
textLength="3.2052" font-size="1.3546" lengthAdjust="spacingAndGlyphs"
text-anchor="start" opacity="0" stroke-opacity="0">PS1</text>
<g class="stroked-text"><desc>PS1</desc>
<path d="M10.9593 11.5373
L10.9593 10.5213
" />
<path d="M10.9593 10.5213
L11.3463 10.5213
" />
<path d="M11.3463 10.5213
L11.4431 10.5697
" />
<path d="M11.4431 10.5697
L11.4914 10.6181
" />
<path d="M11.4914 10.6181
L11.5398 10.7149
" />
<path d="M11.5398 10.7149
L11.5398 10.8600
" />
<path d="M11.5398 10.8600
L11.4914 10.9568
" />
<path d="M11.4914 10.9568
L11.4431 11.0051
" />
<path d="M11.4431 11.0051
L11.3463 11.0535
" />
<path d="M11.3463 11.0535
L10.9593 11.0535
" />
<path d="M11.9269 11.4890
L12.0720 11.5373
" />
<path d="M12.0720 11.5373
L12.3139 11.5373
" />
<path d="M12.3139 11.5373
L12.4107 11.4890
" />
<path d="M12.4107 11.4890
L12.4591 11.4406
" />
<path d="M12.4591 11.4406
L12.5074 11.3438
" />
<path d="M12.5074 11.3438
L12.5074 11.2470
" />
<path d="M12.5074 11.2470
L12.4591 11.1503
" />
<path d="M12.4591 11.1503
L12.4107 11.1019
" />
<path d="M12.4107 11.1019
L12.3139 11.0535
" />
<path d="M12.3139 11.0535
L12.1204 11.0051
" />
<path d="M12.1204 11.0051
L12.0236 10.9568
" />
<path d="M12.0236 10.9568
L11.9753 10.9084
" />
<path d="M11.9753 10.9084
L11.9269 10.8116
" />
<path d="M11.9269 10.8116
L11.9269 10.7149
" />
<path d="M11.9269 10.7149
L11.9753 10.6181
" />
<path d="M11.9753 10.6181
L12.0236 10.5697
" />
<path d="M12.0236 10.5697
L12.1204 10.5213
" />
<path d="M12.1204 10.5213
L12.3623 10.5213
" />
<path d="M12.3623 10.5213
L12.5074 10.5697
" />
<path d="M13.4750 11.5373
L12.8945 11.5373
" />
<path d="M13.1848 11.5373
L13.1848 10.5213
" />
<path d="M13.1848 10.5213
L13.0880 10.6665
" />
<path d="M13.0880 10.6665
L12.9912 10.7632
" />
<path d="M12.9912 10.7632
L12.8945 10.8116
" />
</g></g>
<g style="fill:none; 
stroke:#A90000; stroke-width:0.1524; stroke-opacity:1; 
stroke-linecap:round; stroke-linejoin:round;">
<text x="7.0612" y="10.8213"
textLength="1.2216" font-size="1.3546" lengthAdjust="spacingAndGlyphs"
text-anchor="middle" opacity="0" stroke-opacity="0">5</text>
<g class="stroked-text"><desc>5</desc>
<path d="M7.3031 9.6729
L6.8193 9.6729
" />
<path d="M6.8193 9.6729
L6.7709 10.1567
" />
<path d="M6.7709 10.1567
L6.8193 10.1084
" />
<path d="M6.8193 10.1084
L6.9160 10.0600
" />
<path d="M6.9160 10.0600
L7.1579 10.0600
" />
<path d="M7.1579 10.0600
L7.2547 10.1084
" />
<path d="M7.2547 10.1084
L7.3031 10.1567
" />
<path d="M7.3031 10.1567
L7.3514 10.2535
" />
<path d="M7.3514 10.2535
L7.3514 10.4954
" />
<path d="M7.3514 10.4954
L7.3031 10.5922
" />
<path d="M7.3031 10.5922
L7.2547 10.6406
" />
<path d="M7.2547 10.6406
L7.1579 10.6889
" />
<path d="M7.1579 10.6889
L6.9160 10.6889
" />
<path d="M6.9160 10.6889
L6.8193 10.6406
" />
<path d="M6.8193 10.6406
L6.7709 10.5922
" />
</g></g>
<g style="fill:none; 
stroke:#840000; stroke-width:0.1524; stroke-opacity:1; 
stroke-linecap:round; stroke-linejoin:round;">
<path d="M9.6012 8.5353
L4.5212 8.5353
" />
</g>
<g style="fill:none; 
stroke:#006464; stroke-width:0.1524; stroke-opacity:1; 
stroke-linecap:round; stroke-linejoin:round;">
<text x="10.6172" y="9.0433"
textLength="3.2052" font-size="1.3546" lengthAdjust="spacingAndGlyphs"
text-anchor="start" opacity="0" stroke-opacity="0">PS0</text>
<g class="stroked-text"><desc>PS0</desc>
<path d="M10.9593 8.9973
L10.9593 7.9813
" />
<path d="M10.9593 7.9813
L11.3463 7.9813
" />
<path d="M11.3463 7.9813
L11.4431 8.0297
" />
<path d="M11.4431 8.0297
L11.4914 8.0781
" />
<path d="M11.4914 8.0781
L11.5398 8.1749
" />
<path d="M11.5398 8.1749
L11.5398 8.3200
" />
<path d="M11.5398 8.3200
L11.4914 8.4168
" />
<path d="M11.4914 8.4168
L11.4431 8.4651
" />
<path d="M11.4431 8.4651
L11.3463 8.5135
" />
<path d="M11.3463 8.5135
L10.9593 8.5135
" />
<path d="M11.9269 8.9490
L12.0720 8.9973
" />
<path d="M12.0720 8.9973
L12.3139 8.9973
" />
<path d="M12.3139 8.9973
L12.4107 8.9490
" />
<path d="M12.4107 8.9490
L12.4591 8.9006
" />
<path d="M12.4591 8.9006
L12.5074 8.8038
" />
<path d="M12.5074 8.8038
L12.5074 8.7070
" />
<path d="M12.5074 8.7070
L12.4591 8.6103
" />
<path d="M12.4591 8.6103
L12.4107 8.5619
" />
<path d="M12.4107 8.5619
L12.3139 8.5135
" />
<path d="M12.3139 8.5135
L12.1204 8.4651
" />
<path d="M12.1204 8.4651
L12.0236 8.4168
" />
<path d="M12.0236 8.4168
L11.9753 8.3684
" />
<path d="M11.9753 8.3684
L11.9269 8.2716
" />
<path d="M11.9269 8.2716
L11.9269 8.1749
" />
<path d="M11.9269 8.1749
L11.9753 8.0781
" />
<path d="M11.9753 8.0781
L12.0236 8.0297
" />
<path d="M12.0236 8.0297
L12.1204 7.9813
" />
<path d="M12.1204 7.9813
L12.3623 7.9813
" />
<path d="M12.3623 7.9813
L12.5074 8.0297
" />
<path d="M13.1364 7.9813
L13.2331 7.9813
" />
<path d="M13.2331 7.9813
L13.3299 8.0297
" />
<path d="M13.3299 8.0297
L13.3783 8.0781
" />
<path d="M13.3783 8.0781
L13.4267 8.1749
" />
<path d="M13.4267 8.1749
L13.4750 8.3684
" />
<path d="M13.4750 8.3684
L13.4750 8.6103
" />
<path d="M13.4750 8.6103
L13.4267 8.8038
" />
<path d="M13.4267 8.8038
L13.3783 8.9006
" />
<path d="M13.3783 8.9006
L13.3299 8.9490
" />
<path d="M13.3299 8.9490
L13.2331 8.9973
" />
<path d="M13.2331 8.9973
L13.1364 8.9973
" />
<path d="M13.1364 8.9973
L13.0396 8.9490
" />
<path d="M13.0396 8.9490
L12.9912 8.9006
" />
<path d="M12.9912 8.9006
L12.9429 8.8038
" />
<path d="M12.9429 8.8038
L12.8945 8.6103
" />
<path d="M12.8945 8.6103
L12.8945 8.3684
" />
<path d="M12.8945 8.3684
L12.9429 8.1749
" />
<path d="M12.9429 8.1749
L12.9912 8.0781
" />
<path d="M12.9912 8.0781
L13.0396 8.0297
" />
<path d="M13.0396 8.0297
L13.1364 7.9813
" />
</g></g>
<g style="fill:none; 
stroke:#A90000; stroke-width:0.1524; stroke-opacity:1; 
stroke-linecap:round; stroke-linejoin:round;">
<text x="7.0612" y="8.2813"
textLength="1.2216" font-size="1.3546" lengthAdjust="spacingAndGlyphs"
text-anchor="middle" opacity="0" stroke-opacity="0">6</text>
<g class="stroked-text"><desc>6</desc>
<path d="M7.2547 7.1329
L7.0612 7.1329
" />
<path d="M7.0612 7.1329
L6.9644 7.1813
" />
<path d="M6.9644 7.1813
L6.9160 7.2297
" />
<path d="M6.9160 7.2297
L6.8193 7.3748
" />
<path d="M6.8193 7.3748
L6.7709 7.5684
" />
<path d="M6.7709 7.5684
L6.7709 7.9554
" />
<path d="M6.7709 7.9554
L6.8193 8.0522
" />
<path d="M6.8193 8.0522
L6.8676 8.1006
" />
<path d="M6.8676 8.1006
L6.9644 8.1489
" />
<path d="M6.9644 8.1489
L7.1579 8.1489
" />
<path d="M7.1579 8.1489
L7.2547 8.1006
" />
<path d="M7.2547 8.1006
L7.3031 8.0522
" />
<path d="M7.3031 8.0522
L7.3514 7.9554
" />
<path d="M7.3514 7.9554
L7.3514 7.7135
" />
<path d="M7.3514 7.7135
L7.3031 7.6167
" />
<path d="M7.3031 7.6167
L7.2547 7.5684
" />
<path d="M7.2547 7.5684
L7.1579 7.5200
" />
<path d="M7.1579 7.5200
L6.9644 7.5200
" />
<path d="M6.9644 7.5200
L6.8676 7.5684
" />
<path d="M6.8676 7.5684
L6.8193 7.6167
" />
<path d="M6.8193 7.6167
L6.7709 7.7135
" />
</g></g>
<g style="fill:none; 
stroke:#840000; stroke-width:0.1524; stroke-opacity:1; 
stroke-linecap:round; stroke-linejoin:round;">
<path d="M9.6012 36.4753
L4.5212 36.4753
" />
</g>
<g style="fill:none; 
stroke:#006464; stroke-width:0.1524; stroke-opacity:1; 
stroke-linecap:round; stroke-linejoin:round;">
<text x="10.6172" y="36.9833"
textLength="3.1569" font-size="1.3546" lengthAdjust="spacingAndGlyphs"
text-anchor="start" opacity="0" stroke-opacity="0">CAP</text>
<g class="stroked-text"><desc>CAP</desc>
<path d="M11.5398 36.8406
L11.4914 36.8890
" />
<path d="M11.4914 36.8890
L11.3463 36.9373
" />
<path d="M11.3463 36.9373
L11.2495 36.9373
" />
<path d="M11.2495 36.9373
L11.1044 36.8890
" />
<path d="M11.1044 36.8890
L11.0076 36.7922
" />
<path d="M11.0076 36.7922
L10.9593 36.6954
" />
<path d="M10.9593 36.6954
L10.9109 36.5019
" />
<path d="M10.9109 36.5019
L10.9109 36.3568
" />
<path d="M10.9109 36.3568
L10.9593 36.1632
" />
<path d="M10.9593 36.1632
L11.0076 36.0665
" />
<path d="M11.0076 36.0665
L11.1044 35.9697
" />
<path d="M11.1044 35.9697
L11.2495 35.9213
" />
<path d="M11.2495 35.9213
L11.3463 35.9213
" />
<path d="M11.3463 35.9213
L11.4914 35.9697
" />
<path d="M11.4914 35.9697
L11.5398 36.0181
" />
<path d="M11.9269 36.6470
L12.4107 36.6470
" />
<path d="M11.8301 36.9373
L12.1688 35.9213
" />
<path d="M12.1688 35.9213
L12.5074 36.9373
" />
<path d="M12.8462 36.9373
L12.8462 35.9213
" />
<path d="M12.8462 35.9213
L13.2332 35.9213
" />
<path d="M13.2332 35.9213
L13.3300 35.9697
" />
<path d="M13.3300 35.9697
L13.3783 36.0181
" />
<path d="M13.3783 36.0181
L13.4267 36.1149
" />
<path d="M13.4267 36.1149
L13.4267 36.2600
" />
<path d="M13.4267 36.2600
L13.3783 36.3568
" />
<path d="M13.3783 36.3568
L13.3300 36.4051
" />
<path d="M13.3300 36.4051
L13.2332 36.4535
" />
<path d="M13.2332 36.4535
L12.8462 36.4535
" />
</g></g>
<g style="fill:none; 
stroke:#A90000; stroke-width:0.1524; stroke-opacity:1; 
stroke-linecap:round; stroke-linejoin:round;">
<text x="7.0612" y="36.2213"
textLength="1.2216" font-size="1.3546" lengthAdjust="spacingAndGlyphs"
text-anchor="middle" opacity="0" stroke-opacity="0">9</text>
<g class="stroked-text"><desc>9</desc>
<path d="M6.8676 36.0889
L7.0612 36.0889
" />
<path d="M7.0612 36.0889
L7.1579 36.0406
" />
<path d="M7.1579 36.0406
L7.2063 35.9922
" />
<path d="M7.2063 35.9922
L7.3031 35.8470
" />
<path d="M7.3031 35.8470
L7.3514 35.6535
" />
<path d="M7.3514 35.6535
L7.3514 35.2665
" />
<path d="M7.3514 35.2665
L7.3031 35.1697
" />
<path d="M7.3031 35.1697
L7.2547 35.1213
" />
<path d="M7.2547 35.1213
L7.1579 35.0729
" />
<path d="M7.1579 35.0729
L6.9644 35.0729
" />
<path d="M6.9644 35.0729
L6.8676 35.1213
" />
<path d="M6.8676 35.1213
L6.8193 35.1697
" />
<path d="M6.8193 35.1697
L6.7709 35.2665
" />
<path d="M6.7709 35.2665
L6.7709 35.5084
" />
<path d="M6.7709 35.5084
L6.8193 35.6051
" />
<path d="M6.8193 35.6051
L6.8676 35.6535
" />
<path d="M6.8676 35.6535
L6.9644 35.7019
" />
<path d="M6.9644 35.7019
L7.1579 35.7019
" />
<path d="M7.1579 35.7019
L7.2547 35.6535
" />
<path d="M7.2547 35.6535
L7.3031 35.6051
" />
<path d="M7.3031 35.6051
L7.3514 35.5084
" />
</g></g>
<g style="fill:none; 
stroke:#840000; stroke-width:0.1524; stroke-opacity:1; 
stroke-linecap:round; stroke-linejoin:round;">
<path d="M40.0812 26.3153
L45.1612 26.3153
" />
</g>
<g style="fill:none; 
stroke:#006464; stroke-width:0.1524; stroke-opacity:1; 
stroke-linecap:round; stroke-linejoin:round;">
<text x="39.0652" y="26.8233"
textLength="4.7534" font-size="1.3546" lengthAdjust="spacingAndGlyphs"
text-anchor="end" opacity="0" stroke-opacity="0">PIN10</text>
<g class="stroked-text"><desc>PIN10</desc>
<path d="M34.7075 26.7773
L34.7075 25.7613
" />
<path d="M34.7075 25.7613
L35.0945 25.7613
" />
<path d="M35.0945 25.7613
L35.1913 25.8097
" />
<path d="M35.1913 25.8097
L35.2396 25.8581
" />
<path d="M35.2396 25.8581
L35.2880 25.9549
" />
<path d="M35.2880 25.9549
L35.2880 26.1000
" />
<path d="M35.2880 26.1000
L35.2396 26.1968
" />
<path d="M35.2396 26.1968
L35.1913 26.2451
" />
<path d="M35.1913 26.2451
L35.0945 26.2935
" />
<path d="M35.0945 26.2935
L34.7075 26.2935
" />
<path d="M35.7235 26.7773
L35.7235 25.7613
" />
<path d="M36.2073 26.7773
L36.2073 25.7613
" />
<path d="M36.2073 25.7613
L36.7878 26.7773
" />
<path d="M36.7878 26.7773
L36.7878 25.7613
" />
<path d="M37.8038 26.7773
L37.2233 26.7773
" />
<path d="M37.5136 26.7773
L37.5136 25.7613
" />
<path d="M37.5136 25.7613
L37.4168 25.9065
" />
<path d="M37.4168 25.9065
L37.3200 26.0032
" />
<path d="M37.3200 26.0032
L37.2233 26.0516
" />
<path d="M38.4328 25.7613
L38.5295 25.7613
" />
<path d="M38.5295 25.7613
L38.6263 25.8097
" />
<path d="M38.6263 25.8097
L38.6747 25.8581
" />
<path d="M38.6747 25.8581
L38.7231 25.9549
" />
<path d="M38.7231 25.9549
L38.7714 26.1484
" />
<path d="M38.7714 26.1484
L38.7714 26.3903
" />
<path d="M38.7714 26.3903
L38.7231 26.5838
" />
<path d="M38.7231 26.5838
L38.6747 26.6806
" />
<path d="M38.6747 26.6806
L38.6263 26.7290
" />
<path d="M38.6263 26.7290
L38.5295 26.7773
" />
<path d="M38.5295 26.7773
L38.4328 26.7773
" />
<path d="M38.4328 26.7773
L38.3360 26.7290
" />
<path d="M38.3360 26.7290
L38.2876 26.6806
" />
<path d="M38.2876 26.6806
L38.2393 26.5838
" />
<path d="M38.2393 26.5838
L38.1909 26.3903
" />
<path d="M38.1909 26.3903
L38.1909 26.1484
" />
<path d="M38.1909 26.1484
L38.2393 25.9549
" />
<path d="M38.2393 25.9549
L38.2876 25.8581
" />
<path d="M38.2876 25.8581
L38.3360 25.8097
" />
<path d="M38.3360 25.8097
L38.4328 25.7613
" />
</g></g>
<g style="fill:none; 
stroke:#A90000; stroke-width:0.1524; stroke-opacity:1; 
stroke-linecap:round; stroke-linejoin:round;">
<text x="42.6212" y="26.0613"
textLength="2.1892" font-size="1.3546" lengthAdjust="spacingAndGlyphs"
text-anchor="middle" opacity="0" stroke-opacity="0">10</text>
<g class="stroked-text"><desc>10</desc>
<path d="M42.4276 25.9289
L41.8471 25.9289
" />
<path d="M42.1374 25.9289
L42.1374 24.9129
" />
<path d="M42.1374 24.9129
L42.0406 25.0581
" />
<path d="M42.0406 25.0581
L41.9438 25.1548
" />
<path d="M41.9438 25.1548
L41.8471 25.2032
" />
<path d="M43.0566 24.9129
L43.1533 24.9129
" />
<path d="M43.1533 24.9129
L43.2501 24.9613
" />
<path d="M43.2501 24.9613
L43.2985 25.0097
" />
<path d="M43.2985 25.0097
L43.3469 25.1065
" />
<path d="M43.3469 25.1065
L43.3952 25.3000
" />
<path d="M43.3952 25.3000
L43.3952 25.5419
" />
<path d="M43.3952 25.5419
L43.3469 25.7354
" />
<path d="M43.3469 25.7354
L43.2985 25.8322
" />
<path d="M43.2985 25.8322
L43.2501 25.8806
" />
<path d="M43.2501 25.8806
L43.1533 25.9289
" />
<path d="M43.1533 25.9289
L43.0566 25.9289
" />
<path d="M43.0566 25.9289
L42.9598 25.8806
" />
<path d="M42.9598 25.8806
L42.9114 25.8322
" />
<path d="M42.9114 25.8322
L42.8631 25.7354
" />
<path d="M42.8631 25.7354
L42.8147 25.5419
" />
<path d="M42.8147 25.5419
L42.8147 25.3000
" />
<path d="M42.8147 25.3000
L42.8631 25.1065
" />
<path d="M42.8631 25.1065
L42.9114 25.0097
" />
<path d="M42.9114 25.0097
L42.9598 24.9613
" />
<path d="M42.9598 24.9613
L43.0566 24.9129
" />
</g></g>
<g style="fill:none; 
stroke:#840000; stroke-width:0.1524; stroke-opacity:1; 
stroke-linecap:round; stroke-linejoin:round;">
<path d="M9.6012 16.1553
L4.5212 16.1553
" />
</g>
<g style="fill:none; 
stroke:#006464; stroke-width:0.1524; stroke-opacity:1; 
stroke-linecap:round; stroke-linejoin:round;">
<text x="10.6172" y="16.6633"
textLength="5.9145" font-size="1.3546" lengthAdjust="spacingAndGlyphs"
text-anchor="start" opacity="0" stroke-opacity="0">NRESET</text>
<g class="stroked-text"><desc>NRESET</desc>
<path d="M10.9593 16.6173
L10.9593 15.6013
" />
<path d="M10.9593 15.6013
L11.5398 16.6173
" />
<path d="M11.5398 16.6173
L11.5398 15.6013
" />
<path d="M12.6042 16.6173
L12.2656 16.1335
" />
<path d="M12.0237 16.6173
L12.0237 15.6013
" />
<path d="M12.0237 15.6013
L12.4107 15.6013
" />
<path d="M12.4107 15.6013
L12.5075 15.6497
" />
<path d="M12.5075 15.6497
L12.5558 15.6981
" />
<path d="M12.5558 15.6981
L12.6042 15.7949
" />
<path d="M12.6042 15.7949
L12.6042 15.9400
" />
<path d="M12.6042 15.9400
L12.5558 16.0368
" />
<path d="M12.5558 16.0368
L12.5075 16.0851
" />
<path d="M12.5075 16.0851
L12.4107 16.1335
" />
<path d="M12.4107 16.1335
L12.0237 16.1335
" />
<path d="M13.0397 16.0851
L13.3783 16.0851
" />
<path d="M13.5235 16.6173
L13.0397 16.6173
" />
<path d="M13.0397 16.6173
L13.0397 15.6013
" />
<path d="M13.0397 15.6013
L13.5235 15.6013
" />
<path d="M13.9105 16.5690
L14.0556 16.6173
" />
<path d="M14.0556 16.6173
L14.2975 16.6173
" />
<path d="M14.2975 16.6173
L14.3943 16.5690
" />
<path d="M14.3943 16.5690
L14.4427 16.5206
" />
<path d="M14.4427 16.5206
L14.4910 16.4238
" />
<path d="M14.4910 16.4238
L14.4910 16.3270
" />
<path d="M14.4910 16.3270
L14.4427 16.2303
" />
<path d="M14.4427 16.2303
L14.3943 16.1819
" />
<path d="M14.3943 16.1819
L14.2975 16.1335
" />
<path d="M14.2975 16.1335
L14.1040 16.0851
" />
<path d="M14.1040 16.0851
L14.0072 16.0368
" />
<path d="M14.0072 16.0368
L13.9589 15.9884
" />
<path d="M13.9589 15.9884
L13.9105 15.8916
" />
<path d="M13.9105 15.8916
L13.9105 15.7949
" />
<path d="M13.9105 15.7949
L13.9589 15.6981
" />
<path d="M13.9589 15.6981
L14.0072 15.6497
" />
<path d="M14.0072 15.6497
L14.1040 15.6013
" />
<path d="M14.1040 15.6013
L14.3459 15.6013
" />
<path d="M14.3459 15.6013
L14.4910 15.6497
" />
<path d="M14.9265 16.0851
L15.2651 16.0851
" />
<path d="M15.4103 16.6173
L14.9265 16.6173
" />
<path d="M14.9265 16.6173
L14.9265 15.6013
" />
<path d="M14.9265 15.6013
L15.4103 15.6013
" />
<path d="M15.7005 15.6013
L16.2811 15.6013
" />
<path d="M15.9908 16.6173
L15.9908 15.6013
" />
</g></g>
<g style="fill:none; 
stroke:#A90000; stroke-width:0.1524; stroke-opacity:1; 
stroke-linecap:round; stroke-linejoin:round;">
<text x="7.0612" y="15.9013"
textLength="2.1892" font-size="1.3546" lengthAdjust="spacingAndGlyphs"
text-anchor="middle" opacity="0" stroke-opacity="0">11</text>
<g class="stroked-text"><desc>11</desc>
<path d="M6.8676 15.7689
L6.2871 15.7689
" />
<path d="M6.5774 15.7689
L6.5774 14.7529
" />
<path d="M6.5774 14.7529
L6.4806 14.8981
" />
<path d="M6.4806 14.8981
L6.3838 14.9948
" />
<path d="M6.3838 14.9948
L6.2871 15.0432
" />
<path d="M7.8352 15.7689
L7.2547 15.7689
" />
<path d="M7.5450 15.7689
L7.5450 14.7529
" />
<path d="M7.5450 14.7529
L7.4482 14.8981
" />
<path d="M7.4482 14.8981
L7.3514 14.9948
" />
<path d="M7.3514 14.9948
L7.2547 15.0432
" />
</g></g>
<g style="fill:none; 
stroke:#840000; stroke-width:0.1524; stroke-opacity:1; 
stroke-linecap:round; stroke-linejoin:round;">
<path d="M40.0812 18.6953
L45.1612 18.6953
" />
</g>
<g style="fill:none; 
stroke:#006464; stroke-width:0.1524; stroke-opacity:1; 
stroke-linecap:round; stroke-linejoin:round;">
<text x="39.0652" y="19.2033"
textLength="2.5763" font-size="1.3546" lengthAdjust="spacingAndGlyphs"
text-anchor="end" opacity="0" stroke-opacity="0">INT</text>
<g class="stroked-text"><desc>INT</desc>
<path d="M36.8846 19.1573
L36.8846 18.1413
" />
<path d="M37.3684 19.1573
L37.3684 18.1413
" />
<path d="M37.3684 18.1413
L37.9489 19.1573
" />
<path d="M37.9489 19.1573
L37.9489 18.1413
" />
<path d="M38.2876 18.1413
L38.8682 18.1413
" />
<path d="M38.5779 19.1573
L38.5779 18.1413
" />
</g></g>
<g style="fill:none; 
stroke:#A90000; stroke-width:0.1524; stroke-opacity:1; 
stroke-linecap:round; stroke-linejoin:round;">
<text x="42.6212" y="18.4413"
textLength="2.1892" font-size="1.3546" lengthAdjust="spacingAndGlyphs"
text-anchor="middle" opacity="0" stroke-opacity="0">14</text>
<g class="stroked-text"><desc>14</desc>
<path d="M42.4276 18.3089
L41.8471 18.3089
" />
<path d="M42.1374 18.3089
L42.1374 17.2929
" />
<path d="M42.1374 17.2929
L42.0406 17.4381
" />
<path d="M42.0406 17.4381
L41.9438 17.5348
" />
<path d="M41.9438 17.5348
L41.8471 17.5832
" />
<path d="M43.2985 17.6316
L43.2985 18.3089
" />
<path d="M43.0566 17.2446
L42.8147 17.9703
" />
<path d="M42.8147 17.9703
L43.4436 17.9703
" />
</g></g>
<g style="fill:none; 
stroke:#840000; stroke-width:0.1524; stroke-opacity:1; 
stroke-linecap:round; stroke-linejoin:round;">
<path d="M40.0812 28.8553
L45.1612 28.8553
" />
</g>
<g style="fill:none; 
stroke:#006464; stroke-width:0.1524; stroke-opacity:1; 
stroke-linecap:round; stroke-linejoin:round;">
<text x="39.0652" y="29.3633"
textLength="4.7534" font-size="1.3546" lengthAdjust="spacingAndGlyphs"
text-anchor="end" opacity="0" stroke-opacity="0">PIN15</text>
<g class="stroked-text"><desc>PIN15</desc>
<path d="M34.7075 29.3173
L34.7075 28.3013
" />
<path d="M34.7075 28.3013
L35.0945 28.3013
" />
<path d="M35.0945 28.3013
L35.1913 28.3497
" />
<path d="M35.1913 28.3497
L35.2396 28.3981
" />
<path d="M35.2396 28.3981
L35.2880 28.4949
" />
<path d="M35.2880 28.4949
L35.2880 28.6400
" />
<path d="M35.2880 28.6400
L35.2396 28.7368
" />
<path d="M35.2396 28.7368
L35.1913 28.7851
" />
<path d="M35.1913 28.7851
L35.0945 28.8335
" />
<path d="M35.0945 28.8335
L34.7075 28.8335
" />
<path d="M35.7235 29.3173
L35.7235 28.3013
" />
<path d="M36.2073 29.3173
L36.2073 28.3013
" />
<path d="M36.2073 28.3013
L36.7878 29.3173
" />
<path d="M36.7878 29.3173
L36.7878 28.3013
" />
<path d="M37.8038 29.3173
L37.2233 29.3173
" />
<path d="M37.5136 29.3173
L37.5136 28.3013
" />
<path d="M37.5136 28.3013
L37.4168 28.4465
" />
<path d="M37.4168 28.4465
L37.3200 28.5432
" />
<path d="M37.3200 28.5432
L37.2233 28.5916
" />
<path d="M38.7231 28.3013
L38.2393 28.3013
" />
<path d="M38.2393 28.3013
L38.1909 28.7851
" />
<path d="M38.1909 28.7851
L38.2393 28.7368
" />
<path d="M38.2393 28.7368
L38.3360 28.6884
" />
<path d="M38.3360 28.6884
L38.5779 28.6884
" />
<path d="M38.5779 28.6884
L38.6747 28.7368
" />
<path d="M38.6747 28.7368
L38.7231 28.7851
" />
<path d="M38.7231 28.7851
L38.7714 28.8819
" />
<path d="M38.7714 28.8819
L38.7714 29.1238
" />
<path d="M38.7714 29.1238
L38.7231 29.2206
" />
<path d="M38.7231 29.2206
L38.6747 29.2690
" />
<path d="M38.6747 29.2690
L38.5779 29.3173
" />
<path d="M38.5779 29.3173
L38.3360 29.3173
" />
<path d="M38.3360 29.3173
L38.2393 29.2690
" />
<path d="M38.2393 29.2690
L38.1909 29.2206
" />
</g></g>
<g style="fill:none; 
stroke:#A90000; stroke-width:0.1524; stroke-opacity:1; 
stroke-linecap:round; stroke-linejoin:round;">
<text x="42.6212" y="28.6013"
textLength="2.1892" font-size="1.3546" lengthAdjust="spacingAndGlyphs"
text-anchor="middle" opacity="0" stroke-opacity="0">15</text>
<g class="stroked-text"><desc>15</desc>
<path d="M42.4276 28.4689
L41.8471 28.4689
" />
<path d="M42.1374 28.4689
L42.1374 27.4529
" />
<path d="M42.1374 27.4529
L42.0406 27.5981
" />
<path d="M42.0406 27.5981
L41.9438 27.6948
" />
<path d="M41.9438 27.6948
L41.8471 27.7432
" />
<path d="M43.3469 27.4529
L42.8631 27.4529
" />
<path d="M42.8631 27.4529
L42.8147 27.9367
" />
<path d="M42.8147 27.9367
L42.8631 27.8884
" />
<path d="M42.8631 27.8884
L42.9598 27.8400
" />
<path d="M42.9598 27.8400
L43.2017 27.8400
" />
<path d="M43.2017 27.8400
L43.2985 27.8884
" />
<path d="M43.2985 27.8884
L43.3469 27.9367
" />
<path d="M43.3469 27.9367
L43.3952 28.0335
" />
<path d="M43.3952 28.0335
L43.3952 28.2754
" />
<path d="M43.3952 28.2754
L43.3469 28.3722
" />
<path d="M43.3469 28.3722
L43.2985 28.4206
" />
<path d="M43.2985 28.4206
L43.2017 28.4689
" />
<path d="M43.2017 28.4689
L42.9598 28.4689
" />
<path d="M42.9598 28.4689
L42.8631 28.4206
" />
<path d="M42.8631 28.4206
L42.8147 28.3722
" />
</g></g>
<g style="fill:none; 
stroke:#840000; stroke-width:0.1524; stroke-opacity:1; 
stroke-linecap:round; stroke-linejoin:round;">
<path d="M40.0812 31.3953
L45.1612 31.3953
" />
</g>
<g style="fill:none; 
stroke:#006464; stroke-width:0.1524; stroke-opacity:1; 
stroke-linecap:round; stroke-linejoin:round;">
<text x="39.0652" y="31.9033"
textLength="4.7534" font-size="1.3546" lengthAdjust="spacingAndGlyphs"
text-anchor="end" opacity="0" stroke-opacity="0">PIN16</text>
<g class="stroked-text"><desc>PIN16</desc>
<path d="M34.7075 31.8573
L34.7075 30.8413
" />
<path d="M34.7075 30.8413
L35.0945 30.8413
" />
<path d="M35.0945 30.8413
L35.1913 30.8897
" />
<path d="M35.1913 30.8897
L35.2396 30.9381
" />
<path d="M35.2396 30.9381
L35.2880 31.0349
" />
<path d="M35.2880 31.0349
L35.2880 31.1800
" />
<path d="M35.2880 31.1800
L35.2396 31.2768
" />
<path d="M35.2396 31.2768
L35.1913 31.3251
" />
<path d="M35.1913 31.3251
L35.0945 31.3735
" />
<path d="M35.0945 31.3735
L34.7075 31.3735
" />
<path d="M35.7235 31.8573
L35.7235 30.8413
" />
<path d="M36.2073 31.8573
L36.2073 30.8413
" />
<path d="M36.2073 30.8413
L36.7878 31.8573
" />
<path d="M36.7878 31.8573
L36.7878 30.8413
" />
<path d="M37.8038 31.8573
L37.2233 31.8573
" />
<path d="M37.5136 31.8573
L37.5136 30.8413
" />
<path d="M37.5136 30.8413
L37.4168 30.9865
" />
<path d="M37.4168 30.9865
L37.3200 31.0832
" />
<path d="M37.3200 31.0832
L37.2233 31.1316
" />
<path d="M38.6747 30.8413
L38.4812 30.8413
" />
<path d="M38.4812 30.8413
L38.3844 30.8897
" />
<path d="M38.3844 30.8897
L38.3360 30.9381
" />
<path d="M38.3360 30.9381
L38.2393 31.0832
" />
<path d="M38.2393 31.0832
L38.1909 31.2768
" />
<path d="M38.1909 31.2768
L38.1909 31.6638
" />
<path d="M38.1909 31.6638
L38.2393 31.7606
" />
<path d="M38.2393 31.7606
L38.2876 31.8090
" />
<path d="M38.2876 31.8090
L38.3844 31.8573
" />
<path d="M38.3844 31.8573
L38.5779 31.8573
" />
<path d="M38.5779 31.8573
L38.6747 31.8090
" />
<path d="M38.6747 31.8090
L38.7231 31.7606
" />
<path d="M38.7231 31.7606
L38.7714 31.6638
" />
<path d="M38.7714 31.6638
L38.7714 31.4219
" />
<path d="M38.7714 31.4219
L38.7231 31.3251
" />
<path d="M38.7231 31.3251
L38.6747 31.2768
" />
<path d="M38.6747 31.2768
L38.5779 31.2284
" />
<path d="M38.5779 31.2284
L38.3844 31.2284
" />
<path d="M38.3844 31.2284
L38.2876 31.2768
" />
<path d="M38.2876 31.2768
L38.2393 31.3251
" />
<path d="M38.2393 31.3251
L38.1909 31.4219
" />
</g></g>
<g style="fill:none; 
stroke:#A90000; stroke-width:0.1524; stroke-opacity:1; 
stroke-linecap:round; stroke-linejoin:round;">
<text x="42.6212" y="31.1413"
textLength="2.1892" font-size="1.3546" lengthAdjust="spacingAndGlyphs"
text-anchor="middle" opacity="0" stroke-opacity="0">16</text>
<g class="stroked-text"><desc>16</desc>
<path d="M42.4276 31.0089
L41.8471 31.0089
" />
<path d="M42.1374 31.0089
L42.1374 29.9929
" />
<path d="M42.1374 29.9929
L42.0406 30.1381
" />
<path d="M42.0406 30.1381
L41.9438 30.2348
" />
<path d="M41.9438 30.2348
L41.8471 30.2832
" />
<path d="M43.2985 29.9929
L43.1050 29.9929
" />
<path d="M43.1050 29.9929
L43.0082 30.0413
" />
<path d="M43.0082 30.0413
L42.9598 30.0897
" />
<path d="M42.9598 30.0897
L42.8631 30.2348
" />
<path d="M42.8631 30.2348
L42.8147 30.4284
" />
<path d="M42.8147 30.4284
L42.8147 30.8154
" />
<path d="M42.8147 30.8154
L42.8631 30.9122
" />
<path d="M42.8631 30.9122
L42.9114 30.9606
" />
<path d="M42.9114 30.9606
L43.0082 31.0089
" />
<path d="M43.0082 31.0089
L43.2017 31.0089
" />
<path d="M43.2017 31.0089
L43.2985 30.9606
" />
<path d="M43.2985 30.9606
L43.3469 30.9122
" />
<path d="M43.3469 30.9122
L43.3952 30.8154
" />
<path d="M43.3952 30.8154
L43.3952 30.5735
" />
<path d="M43.3952 30.5735
L43.3469 30.4767
" />
<path d="M43.3469 30.4767
L43.2985 30.4284
" />
<path d="M43.2985 30.4284
L43.2017 30.3800
" />
<path d="M43.2017 30.3800
L43.0082 30.3800
" />
<path d="M43.0082 30.3800
L42.9114 30.4284
" />
<path d="M42.9114 30.4284
L42.8631 30.4767
" />
<path d="M42.8631 30.4767
L42.8147 30.5735
" />
</g></g>
<g style="fill:none; 
stroke:#840000; stroke-width:0.1524; stroke-opacity:1; 
stroke-linecap:round; stroke-linejoin:round;">
<path d="M9.6012 31.3953
L4.5212 31.3953
" />
</g>
<g style="fill:none; 
stroke:#006464; stroke-width:0.1524; stroke-opacity:1; 
stroke-linecap:round; stroke-linejoin:round;">
<text x="10.6172" y="31.9033"
textLength="4.4631" font-size="1.3546" lengthAdjust="spacingAndGlyphs"
text-anchor="start" opacity="0" stroke-opacity="0">COM3</text>
<g class="stroked-text"><desc>COM3</desc>
<path d="M11.5398 31.7606
L11.4914 31.8090
" />
<path d="M11.4914 31.8090
L11.3463 31.8573
" />
<path d="M11.3463 31.8573
L11.2495 31.8573
" />
<path d="M11.2495 31.8573
L11.1044 31.8090
" />
<path d="M11.1044 31.8090
L11.0076 31.7122
" />
<path d="M11.0076 31.7122
L10.9593 31.6154
" />
<path d="M10.9593 31.6154
L10.9109 31.4219
" />
<path d="M10.9109 31.4219
L10.9109 31.2768
" />
<path d="M10.9109 31.2768
L10.9593 31.0832
" />
<path d="M10.9593 31.0832
L11.0076 30.9865
" />
<path d="M11.0076 30.9865
L11.1044 30.8897
" />
<path d="M11.1044 30.8897
L11.2495 30.8413
" />
<path d="M11.2495 30.8413
L11.3463 30.8413
" />
<path d="M11.3463 30.8413
L11.4914 30.8897
" />
<path d="M11.4914 30.8897
L11.5398 30.9381
" />
<path d="M12.1688 30.8413
L12.3623 30.8413
" />
<path d="M12.3623 30.8413
L12.4591 30.8897
" />
<path d="M12.4591 30.8897
L12.5558 30.9865
" />
<path d="M12.5558 30.9865
L12.6042 31.1800
" />
<path d="M12.6042 31.1800
L12.6042 31.5187
" />
<path d="M12.6042 31.5187
L12.5558 31.7122
" />
<path d="M12.5558 31.7122
L12.4591 31.8090
" />
<path d="M12.4591 31.8090
L12.3623 31.8573
" />
<path d="M12.3623 31.8573
L12.1688 31.8573
" />
<path d="M12.1688 31.8573
L12.0720 31.8090
" />
<path d="M12.0720 31.8090
L11.9753 31.7122
" />
<path d="M11.9753 31.7122
L11.9269 31.5187
" />
<path d="M11.9269 31.5187
L11.9269 31.1800
" />
<path d="M11.9269 31.1800
L11.9753 30.9865
" />
<path d="M11.9753 30.9865
L12.0720 30.8897
" />
<path d="M12.0720 30.8897
L12.1688 30.8413
" />
<path d="M13.0397 31.8573
L13.0397 30.8413
" />
<path d="M13.0397 30.8413
L13.3783 31.5670
" />
<path d="M13.3783 31.5670
L13.7170 30.8413
" />
<path d="M13.7170 30.8413
L13.7170 31.8573
" />
<path d="M14.1040 30.8413
L14.7329 30.8413
" />
<path d="M14.7329 30.8413
L14.3943 31.2284
" />
<path d="M14.3943 31.2284
L14.5394 31.2284
" />
<path d="M14.5394 31.2284
L14.6362 31.2768
" />
<path d="M14.6362 31.2768
L14.6846 31.3251
" />
<path d="M14.6846 31.3251
L14.7329 31.4219
" />
<path d="M14.7329 31.4219
L14.7329 31.6638
" />
<path d="M14.7329 31.6638
L14.6846 31.7606
" />
<path d="M14.6846 31.7606
L14.6362 31.8090
" />
<path d="M14.6362 31.8090
L14.5394 31.8573
" />
<path d="M14.5394 31.8573
L14.2491 31.8573
" />
<path d="M14.2491 31.8573
L14.1524 31.8090
" />
<path d="M14.1524 31.8090
L14.1040 31.7606
" />
</g></g>
<g style="fill:none; 
stroke:#A90000; stroke-width:0.1524; stroke-opacity:1; 
stroke-linecap:round; stroke-linejoin:round;">
<text x="7.0612" y="31.1413"
textLength="2.1892" font-size="1.3546" lengthAdjust="spacingAndGlyphs"
text-anchor="middle" opacity="0" stroke-opacity="0">17</text>
<g class="stroked-text"><desc>17</desc>
<path d="M6.8676 31.0089
L6.2871 31.0089
" />
<path d="M6.5774 31.0089
L6.5774 29.9929
" />
<path d="M6.5774 29.9929
L6.4806 30.1381
" />
<path d="M6.4806 30.1381
L6.3838 30.2348
" />
<path d="M6.3838 30.2348
L6.2871 30.2832
" />
<path d="M7.2063 29.9929
L7.8836 29.9929
" />
<path d="M7.8836 29.9929
L7.4482 31.0089
" />
</g></g>
<g style="fill:none; 
stroke:#840000; stroke-width:0.1524; stroke-opacity:1; 
stroke-linecap:round; stroke-linejoin:round;">
<path d="M9.6012 28.8553
L4.5212 28.8553
" />
</g>
<g style="fill:none; 
stroke:#006464; stroke-width:0.1524; stroke-opacity:1; 
stroke-linecap:round; stroke-linejoin:round;">
<text x="10.6172" y="29.3633"
textLength="4.4631" font-size="1.3546" lengthAdjust="spacingAndGlyphs"
text-anchor="start" opacity="0" stroke-opacity="0">COM2</text>
<g class="stroked-text"><desc>COM2</desc>
<path d="M11.5398 29.2206
L11.4914 29.2690
" />
<path d="M11.4914 29.2690
L11.3463 29.3173
" />
<path d="M11.3463 29.3173
L11.2495 29.3173
" />
<path d="M11.2495 29.3173
L11.1044 29.2690
" />
<path d="M11.1044 29.2690
L11.0076 29.1722
" />
<path d="M11.0076 29.1722
L10.9593 29.0754
" />
<path d="M10.9593 29.0754
L10.9109 28.8819
" />
<path d="M10.9109 28.8819
L10.9109 28.7368
" />
<path d="M10.9109 28.7368
L10.9593 28.5432
" />
<path d="M10.9593 28.5432
L11.0076 28.4465
" />
<path d="M11.0076 28.4465
L11.1044 28.3497
" />
<path d="M11.1044 28.3497
L11.2495 28.3013
" />
<path d="M11.2495 28.3013
L11.3463 28.3013
" />
<path d="M11.3463 28.3013
L11.4914 28.3497
" />
<path d="M11.4914 28.3497
L11.5398 28.3981
" />
<path d="M12.1688 28.3013
L12.3623 28.3013
" />
<path d="M12.3623 28.3013
L12.4591 28.3497
" />
<path d="M12.4591 28.3497
L12.5558 28.4465
" />
<path d="M12.5558 28.4465
L12.6042 28.6400
" />
<path d="M12.6042 28.6400
L12.6042 28.9787
" />
<path d="M12.6042 28.9787
L12.5558 29.1722
" />
<path d="M12.5558 29.1722
L12.4591 29.2690
" />
<path d="M12.4591 29.2690
L12.3623 29.3173
" />
<path d="M12.3623 29.3173
L12.1688 29.3173
" />
<path d="M12.1688 29.3173
L12.0720 29.2690
" />
<path d="M12.0720 29.2690
L11.9753 29.1722
" />
<path d="M11.9753 29.1722
L11.9269 28.9787
" />
<path d="M11.9269 28.9787
L11.9269 28.6400
" />
<path d="M11.9269 28.6400
L11.9753 28.4465
" />
<path d="M11.9753 28.4465
L12.0720 28.3497
" />
<path d="M12.0720 28.3497
L12.1688 28.3013
" />
<path d="M13.0397 29.3173
L13.0397 28.3013
" />
<path d="M13.0397 28.3013
L13.3783 29.0270
" />
<path d="M13.3783 29.0270
L13.7170 28.3013
" />
<path d="M13.7170 28.3013
L13.7170 29.3173
" />
<path d="M14.1524 28.3981
L14.2008 28.3497
" />
<path d="M14.2008 28.3497
L14.2975 28.3013
" />
<path d="M14.2975 28.3013
L14.5394 28.3013
" />
<path d="M14.5394 28.3013
L14.6362 28.3497
" />
<path d="M14.6362 28.3497
L14.6846 28.3981
" />
<path d="M14.6846 28.3981
L14.7329 28.4949
" />
<path d="M14.7329 28.4949
L14.7329 28.5916
" />
<path d="M14.7329 28.5916
L14.6846 28.7368
" />
<path d="M14.6846 28.7368
L14.1040 29.3173
" />
<path d="M14.1040 29.3173
L14.7329 29.3173
" />
</g></g>
<g style="fill:none; 
stroke:#A90000; stroke-width:0.1524; stroke-opacity:1; 
stroke-linecap:round; stroke-linejoin:round;">
<text x="7.0612" y="28.6013"
textLength="2.1892" font-size="1.3546" lengthAdjust="spacingAndGlyphs"
text-anchor="middle" opacity="0" stroke-opacity="0">18</text>
<g class="stroked-text"><desc>18</desc>
<path d="M6.8676 28.4689
L6.2871 28.4689
" />
<path d="M6.5774 28.4689
L6.5774 27.4529
" />
<path d="M6.5774 27.4529
L6.4806 27.5981
" />
<path d="M6.4806 27.5981
L6.3838 27.6948
" />
<path d="M6.3838 27.6948
L6.2871 27.7432
" />
<path d="M7.4482 27.8884
L7.3514 27.8400
" />
<path d="M7.3514 27.8400
L7.3031 27.7916
" />
<path d="M7.3031 27.7916
L7.2547 27.6948
" />
<path d="M7.2547 27.6948
L7.2547 27.6465
" />
<path d="M7.2547 27.6465
L7.3031 27.5497
" />
<path d="M7.3031 27.5497
L7.3514 27.5013
" />
<path d="M7.3514 27.5013
L7.4482 27.4529
" />
<path d="M7.4482 27.4529
L7.6417 27.4529
" />
<path d="M7.6417 27.4529
L7.7385 27.5013
" />
<path d="M7.7385 27.5013
L7.7869 27.5497
" />
<path d="M7.7869 27.5497
L7.8352 27.6465
" />
<path d="M7.8352 27.6465
L7.8352 27.6948
" />
<path d="M7.8352 27.6948
L7.7869 27.7916
" />
<path d="M7.7869 27.7916
L7.7385 27.8400
" />
<path d="M7.7385 27.8400
L7.6417 27.8884
" />
<path d="M7.6417 27.8884
L7.4482 27.8884
" />
<path d="M7.4482 27.8884
L7.3514 27.9367
" />
<path d="M7.3514 27.9367
L7.3031 27.9851
" />
<path d="M7.3031 27.9851
L7.2547 28.0819
" />
<path d="M7.2547 28.0819
L7.2547 28.2754
" />
<path d="M7.2547 28.2754
L7.3031 28.3722
" />
<path d="M7.3031 28.3722
L7.3514 28.4206
" />
<path d="M7.3514 28.4206
L7.4482 28.4689
" />
<path d="M7.4482 28.4689
L7.6417 28.4689
" />
<path d="M7.6417 28.4689
L7.7385 28.4206
" />
<path d="M7.7385 28.4206
L7.7869 28.3722
" />
<path d="M7.7869 28.3722
L7.8352 28.2754
" />
<path d="M7.8352 28.2754
L7.8352 28.0819
" />
<path d="M7.8352 28.0819
L7.7869 27.9851
" />
<path d="M7.7869 27.9851
L7.7385 27.9367
" />
<path d="M7.7385 27.9367
L7.6417 27.8884
" />
</g></g>
<g style="fill:none; 
stroke:#840000; stroke-width:0.1524; stroke-opacity:1; 
stroke-linecap:round; stroke-linejoin:round;">
<path d="M9.6012 26.3153
L4.5212 26.3153
" />
</g>
<g style="fill:none; 
stroke:#006464; stroke-width:0.1524; stroke-opacity:1; 
stroke-linecap:round; stroke-linejoin:round;">
<text x="10.6172" y="26.8233"
textLength="4.4631" font-size="1.3546" lengthAdjust="spacingAndGlyphs"
text-anchor="start" opacity="0" stroke-opacity="0">COM1</text>
<g class="stroked-text"><desc>COM1</desc>
<path d="M11.5398 26.6806
L11.4914 26.7290
" />
<path d="M11.4914 26.7290
L11.3463 26.7773
" />
<path d="M11.3463 26.7773
L11.2495 26.7773
" />
<path d="M11.2495 26.7773
L11.1044 26.7290
" />
<path d="M11.1044 26.7290
L11.0076 26.6322
" />
<path d="M11.0076 26.6322
L10.9593 26.5354
" />
<path d="M10.9593 26.5354
L10.9109 26.3419
" />
<path d="M10.9109 26.3419
L10.9109 26.1968
" />
<path d="M10.9109 26.1968
L10.9593 26.0032
" />
<path d="M10.9593 26.0032
L11.0076 25.9065
" />
<path d="M11.0076 25.9065
L11.1044 25.8097
" />
<path d="M11.1044 25.8097
L11.2495 25.7613
" />
<path d="M11.2495 25.7613
L11.3463 25.7613
" />
<path d="M11.3463 25.7613
L11.4914 25.8097
" />
<path d="M11.4914 25.8097
L11.5398 25.8581
" />
<path d="M12.1688 25.7613
L12.3623 25.7613
" />
<path d="M12.3623 25.7613
L12.4591 25.8097
" />
<path d="M12.4591 25.8097
L12.5558 25.9065
" />
<path d="M12.5558 25.9065
L12.6042 26.1000
" />
<path d="M12.6042 26.1000
L12.6042 26.4387
" />
<path d="M12.6042 26.4387
L12.5558 26.6322
" />
<path d="M12.5558 26.6322
L12.4591 26.7290
" />
<path d="M12.4591 26.7290
L12.3623 26.7773
" />
<path d="M12.3623 26.7773
L12.1688 26.7773
" />
<path d="M12.1688 26.7773
L12.0720 26.7290
" />
<path d="M12.0720 26.7290
L11.9753 26.6322
" />
<path d="M11.9753 26.6322
L11.9269 26.4387
" />
<path d="M11.9269 26.4387
L11.9269 26.1000
" />
<path d="M11.9269 26.1000
L11.9753 25.9065
" />
<path d="M11.9753 25.9065
L12.0720 25.8097
" />
<path d="M12.0720 25.8097
L12.1688 25.7613
" />
<path d="M13.0397 26.7773
L13.0397 25.7613
" />
<path d="M13.0397 25.7613
L13.3783 26.4870
" />
<path d="M13.3783 26.4870
L13.7170 25.7613
" />
<path d="M13.7170 25.7613
L13.7170 26.7773
" />
<path d="M14.7329 26.7773
L14.1524 26.7773
" />
<path d="M14.4427 26.7773
L14.4427 25.7613
" />
<path d="M14.4427 25.7613
L14.3459 25.9065
" />
<path d="M14.3459 25.9065
L14.2491 26.0032
" />
<path d="M14.2491 26.0032
L14.1524 26.0516
" />
</g></g>
<g style="fill:none; 
stroke:#A90000; stroke-width:0.1524; stroke-opacity:1; 
stroke-linecap:round; stroke-linejoin:round;">
<text x="7.0612" y="26.0613"
textLength="2.1892" font-size="1.3546" lengthAdjust="spacingAndGlyphs"
text-anchor="middle" opacity="0" stroke-opacity="0">19</text>
<g class="stroked-text"><desc>19</desc>
<path d="M6.8676 25.9289
L6.2871 25.9289
" />
<path d="M6.5774 25.9289
L6.5774 24.9129
" />
<path d="M6.5774 24.9129
L6.4806 25.0581
" />
<path d="M6.4806 25.0581
L6.3838 25.1548
" />
<path d="M6.3838 25.1548
L6.2871 25.2032
" />
<path d="M7.3514 25.9289
L7.5450 25.9289
" />
<path d="M7.5450 25.9289
L7.6417 25.8806
" />
<path d="M7.6417 25.8806
L7.6901 25.8322
" />
<path d="M7.6901 25.8322
L7.7869 25.6870
" />
<path d="M7.7869 25.6870
L7.8352 25.4935
" />
<path d="M7.8352 25.4935
L7.8352 25.1065
" />
<path d="M7.8352 25.1065
L7.7869 25.0097
" />
<path d="M7.7869 25.0097
L7.7385 24.9613
" />
<path d="M7.7385 24.9613
L7.6417 24.9129
" />
<path d="M7.6417 24.9129
L7.4482 24.9129
" />
<path d="M7.4482 24.9129
L7.3514 24.9613
" />
<path d="M7.3514 24.9613
L7.3031 25.0097
" />
<path d="M7.3031 25.0097
L7.2547 25.1065
" />
<path d="M7.2547 25.1065
L7.2547 25.3484
" />
<path d="M7.2547 25.3484
L7.3031 25.4451
" />
<path d="M7.3031 25.4451
L7.3514 25.4935
" />
<path d="M7.3514 25.4935
L7.4482 25.5419
" />
<path d="M7.4482 25.5419
L7.6417 25.5419
" />
<path d="M7.6417 25.5419
L7.7385 25.4935
" />
<path d="M7.7385 25.4935
L7.7869 25.4451
" />
<path d="M7.7869 25.4451
L7.8352 25.3484
" />
</g></g>
<g style="fill:none; 
stroke:#840000; stroke-width:0.1524; stroke-opacity:1; 
stroke-linecap:round; stroke-linejoin:round;">
<path d="M9.6012 23.7753
L4.5212 23.7753
" />
</g>
<g style="fill:none; 
stroke:#006464; stroke-width:0.1524; stroke-opacity:1; 
stroke-linecap:round; stroke-linejoin:round;">
<text x="10.6172" y="24.2833"
textLength="4.4631" font-size="1.3546" lengthAdjust="spacingAndGlyphs"
text-anchor="start" opacity="0" stroke-opacity="0">COM0</text>
<g class="stroked-text"><desc>COM0</desc>
<path d="M11.5398 24.1406
L11.4914 24.1890
" />
<path d="M11.4914 24.1890
L11.3463 24.2373
" />
<path d="M11.3463 24.2373
L11.2495 24.2373
" />
<path d="M11.2495 24.2373
L11.1044 24.1890
" />
<path d="M11.1044 24.1890
L11.0076 24.0922
" />
<path d="M11.0076 24.0922
L10.9593 23.9954
" />
<path d="M10.9593 23.9954
L10.9109 23.8019
" />
<path d="M10.9109 23.8019
L10.9109 23.6568
" />
<path d="M10.9109 23.6568
L10.9593 23.4632
" />
<path d="M10.9593 23.4632
L11.0076 23.3665
" />
<path d="M11.0076 23.3665
L11.1044 23.2697
" />
<path d="M11.1044 23.2697
L11.2495 23.2213
" />
<path d="M11.2495 23.2213
L11.3463 23.2213
" />
<path d="M11.3463 23.2213
L11.4914 23.2697
" />
<path d="M11.4914 23.2697
L11.5398 23.3181
" />
<path d="M12.1688 23.2213
L12.3623 23.2213
" />
<path d="M12.3623 23.2213
L12.4591 23.2697
" />
<path d="M12.4591 23.2697
L12.5558 23.3665
" />
<path d="M12.5558 23.3665
L12.6042 23.5600
" />
<path d="M12.6042 23.5600
L12.6042 23.8987
" />
<path d="M12.6042 23.8987
L12.5558 24.0922
" />
<path d="M12.5558 24.0922
L12.4591 24.1890
" />
<path d="M12.4591 24.1890
L12.3623 24.2373
" />
<path d="M12.3623 24.2373
L12.1688 24.2373
" />
<path d="M12.1688 24.2373
L12.0720 24.1890
" />
<path d="M12.0720 24.1890
L11.9753 24.0922
" />
<path d="M11.9753 24.0922
L11.9269 23.8987
" />
<path d="M11.9269 23.8987
L11.9269 23.5600
" />
<path d="M11.9269 23.5600
L11.9753 23.3665
" />
<path d="M11.9753 23.3665
L12.0720 23.2697
" />
<path d="M12.0720 23.2697
L12.1688 23.2213
" />
<path d="M13.0397 24.2373
L13.0397 23.2213
" />
<path d="M13.0397 23.2213
L13.3783 23.9470
" />
<path d="M13.3783 23.9470
L13.7170 23.2213
" />
<path d="M13.7170 23.2213
L13.7170 24.2373
" />
<path d="M14.3943 23.2213
L14.4910 23.2213
" />
<path d="M14.4910 23.2213
L14.5878 23.2697
" />
<path d="M14.5878 23.2697
L14.6362 23.3181
" />
<path d="M14.6362 23.3181
L14.6846 23.4149
" />
<path d="M14.6846 23.4149
L14.7329 23.6084
" />
<path d="M14.7329 23.6084
L14.7329 23.8503
" />
<path d="M14.7329 23.8503
L14.6846 24.0438
" />
<path d="M14.6846 24.0438
L14.6362 24.1406
" />
<path d="M14.6362 24.1406
L14.5878 24.1890
" />
<path d="M14.5878 24.1890
L14.4910 24.2373
" />
<path d="M14.4910 24.2373
L14.3943 24.2373
" />
<path d="M14.3943 24.2373
L14.2975 24.1890
" />
<path d="M14.2975 24.1890
L14.2491 24.1406
" />
<path d="M14.2491 24.1406
L14.2008 24.0438
" />
<path d="M14.2008 24.0438
L14.1524 23.8503
" />
<path d="M14.1524 23.8503
L14.1524 23.6084
" />
<path d="M14.1524 23.6084
L14.2008 23.4149
" />
<path d="M14.2008 23.4149
L14.2491 23.3181
" />
<path d="M14.2491 23.3181
L14.2975 23.2697
" />
<path d="M14.2975 23.2697
L14.3943 23.2213
" />
</g></g>
<g style="fill:none; 
stroke:#A90000; stroke-width:0.1524; stroke-opacity:1; 
stroke-linecap:round; stroke-linejoin:round;">
<text x="7.0612" y="23.5213"
textLength="2.1892" font-size="1.3546" lengthAdjust="spacingAndGlyphs"
text-anchor="middle" opacity="0" stroke-opacity="0">20</text>
<g class="stroked-text"><desc>20</desc>
<path d="M6.2871 22.4697
L6.3355 22.4213
" />
<path d="M6.3355 22.4213
L6.4322 22.3729
" />
<path d="M6.4322 22.3729
L6.6741 22.3729
" />
<path d="M6.6741 22.3729
L6.7709 22.4213
" />
<path d="M6.7709 22.4213
L6.8193 22.4697
" />
<path d="M6.8193 22.4697
L6.8676 22.5665
" />
<path d="M6.8676 22.5665
L6.8676 22.6632
" />
<path d="M6.8676 22.6632
L6.8193 22.8084
" />
<path d="M6.8193 22.8084
L6.2387 23.3889
" />
<path d="M6.2387 23.3889
L6.8676 23.3889
" />
<path d="M7.4966 22.3729
L7.5933 22.3729
" />
<path d="M7.5933 22.3729
L7.6901 22.4213
" />
<path d="M7.6901 22.4213
L7.7385 22.4697
" />
<path d="M7.7385 22.4697
L7.7869 22.5665
" />
<path d="M7.7869 22.5665
L7.8352 22.7600
" />
<path d="M7.8352 22.7600
L7.8352 23.0019
" />
<path d="M7.8352 23.0019
L7.7869 23.1954
" />
<path d="M7.7869 23.1954
L7.7385 23.2922
" />
<path d="M7.7385 23.2922
L7.6901 23.3406
" />
<path d="M7.6901 23.3406
L7.5933 23.3889
" />
<path d="M7.5933 23.3889
L7.4966 23.3889
" />
<path d="M7.4966 23.3889
L7.3998 23.3406
" />
<path d="M7.3998 23.3406
L7.3514 23.2922
" />
<path d="M7.3514 23.2922
L7.3031 23.1954
" />
<path d="M7.3031 23.1954
L7.2547 23.0019
" />
<path d="M7.2547 23.0019
L7.2547 22.7600
" />
<path d="M7.2547 22.7600
L7.3031 22.5665
" />
<path d="M7.3031 22.5665
L7.3514 22.4697
" />
<path d="M7.3514 22.4697
L7.3998 22.4213
" />
<path d="M7.3998 22.4213
L7.4966 22.3729
" />
</g></g>
<g style="fill:none; 
stroke:#840000; stroke-width:0.1524; stroke-opacity:1; 
stroke-linecap:round; stroke-linejoin:round;">
<path d="M40.0812 33.9353
L45.1612 33.9353
" />
</g>
<g style="fill:none; 
stroke:#006464; stroke-width:0.1524; stroke-opacity:1; 
stroke-linecap:round; stroke-linejoin:round;">
<text x="39.0652" y="34.4433"
textLength="4.8986" font-size="1.3546" lengthAdjust="spacingAndGlyphs"
text-anchor="end" opacity="0" stroke-opacity="0">GNDIO</text>
<g class="stroked-text"><desc>GNDIO</desc>
<path d="M35.0944 33.4297
L34.9977 33.3813
" />
<path d="M34.9977 33.3813
L34.8525 33.3813
" />
<path d="M34.8525 33.3813
L34.7074 33.4297
" />
<path d="M34.7074 33.4297
L34.6106 33.5265
" />
<path d="M34.6106 33.5265
L34.5623 33.6232
" />
<path d="M34.5623 33.6232
L34.5139 33.8168
" />
<path d="M34.5139 33.8168
L34.5139 33.9619
" />
<path d="M34.5139 33.9619
L34.5623 34.1554
" />
<path d="M34.5623 34.1554
L34.6106 34.2522
" />
<path d="M34.6106 34.2522
L34.7074 34.3490
" />
<path d="M34.7074 34.3490
L34.8525 34.3973
" />
<path d="M34.8525 34.3973
L34.9493 34.3973
" />
<path d="M34.9493 34.3973
L35.0944 34.3490
" />
<path d="M35.0944 34.3490
L35.1428 34.3006
" />
<path d="M35.1428 34.3006
L35.1428 33.9619
" />
<path d="M35.1428 33.9619
L34.9493 33.9619
" />
<path d="M35.5783 34.3973
L35.5783 33.3813
" />
<path d="M35.5783 33.3813
L36.1588 34.3973
" />
<path d="M36.1588 34.3973
L36.1588 33.3813
" />
<path d="M36.6427 34.3973
L36.6427 33.3813
" />
<path d="M36.6427 33.3813
L36.8846 33.3813
" />
<path d="M36.8846 33.3813
L37.0297 33.4297
" />
<path d="M37.0297 33.4297
L37.1265 33.5265
" />
<path d="M37.1265 33.5265
L37.1748 33.6232
" />
<path d="M37.1748 33.6232
L37.2232 33.8168
" />
<path d="M37.2232 33.8168
L37.2232 33.9619
" />
<path d="M37.2232 33.9619
L37.1748 34.1554
" />
<path d="M37.1748 34.1554
L37.1265 34.2522
" />
<path d="M37.1265 34.2522
L37.0297 34.3490
" />
<path d="M37.0297 34.3490
L36.8846 34.3973
" />
<path d="M36.8846 34.3973
L36.6427 34.3973
" />
<path d="M37.6587 34.3973
L37.6587 33.3813
" />
<path d="M38.3360 33.3813
L38.5295 33.3813
" />
<path d="M38.5295 33.3813
L38.6263 33.4297
" />
<path d="M38.6263 33.4297
L38.7230 33.5265
" />
<path d="M38.7230 33.5265
L38.7714 33.7200
" />
<path d="M38.7714 33.7200
L38.7714 34.0587
" />
<path d="M38.7714 34.0587
L38.7230 34.2522
" />
<path d="M38.7230 34.2522
L38.6263 34.3490
" />
<path d="M38.6263 34.3490
L38.5295 34.3973
" />
<path d="M38.5295 34.3973
L38.3360 34.3973
" />
<path d="M38.3360 34.3973
L38.2392 34.3490
" />
<path d="M38.2392 34.3490
L38.1425 34.2522
" />
<path d="M38.1425 34.2522
L38.0941 34.0587
" />
<path d="M38.0941 34.0587
L38.0941 33.7200
" />
<path d="M38.0941 33.7200
L38.1425 33.5265
" />
<path d="M38.1425 33.5265
L38.2392 33.4297
" />
<path d="M38.2392 33.4297
L38.3360 33.3813
" />
</g></g>
<g style="fill:none; 
stroke:#A90000; stroke-width:0.1524; stroke-opacity:1; 
stroke-linecap:round; stroke-linejoin:round;">
<text x="42.6212" y="33.6813"
textLength="2.1892" font-size="1.3546" lengthAdjust="spacingAndGlyphs"
text-anchor="middle" opacity="0" stroke-opacity="0">25</text>
<g class="stroked-text"><desc>25</desc>
<path d="M41.8471 32.6297
L41.8955 32.5813
" />
<path d="M41.8955 32.5813
L41.9922 32.5329
" />
<path d="M41.9922 32.5329
L42.2341 32.5329
" />
<path d="M42.2341 32.5329
L42.3309 32.5813
" />
<path d="M42.3309 32.5813
L42.3793 32.6297
" />
<path d="M42.3793 32.6297
L42.4276 32.7265
" />
<path d="M42.4276 32.7265
L42.4276 32.8232
" />
<path d="M42.4276 32.8232
L42.3793 32.9684
" />
<path d="M42.3793 32.9684
L41.7987 33.5489
" />
<path d="M41.7987 33.5489
L42.4276 33.5489
" />
<path d="M43.3469 32.5329
L42.8631 32.5329
" />
<path d="M42.8631 32.5329
L42.8147 33.0167
" />
<path d="M42.8147 33.0167
L42.8631 32.9684
" />
<path d="M42.8631 32.9684
L42.9598 32.9200
" />
<path d="M42.9598 32.9200
L43.2017 32.9200
" />
<path d="M43.2017 32.9200
L43.2985 32.9684
" />
<path d="M43.2985 32.9684
L43.3469 33.0167
" />
<path d="M43.3469 33.0167
L43.3952 33.1135
" />
<path d="M43.3952 33.1135
L43.3952 33.3554
" />
<path d="M43.3952 33.3554
L43.3469 33.4522
" />
<path d="M43.3469 33.4522
L43.2985 33.5006
" />
<path d="M43.2985 33.5006
L43.2017 33.5489
" />
<path d="M43.2017 33.5489
L42.9598 33.5489
" />
<path d="M42.9598 33.5489
L42.8631 33.5006
" />
<path d="M42.8631 33.5006
L42.8147 33.4522
" />
</g></g>
<g style="fill:none; 
stroke:#840000; stroke-width:0.1524; stroke-opacity:1; 
stroke-linecap:round; stroke-linejoin:round;">
<path d="M40.0812 16.1553
L45.1612 16.1553
" />
</g>
<g style="fill:none; 
stroke:#006464; stroke-width:0.1524; stroke-opacity:1; 
stroke-linecap:round; stroke-linejoin:round;">
<text x="39.0652" y="16.6633"
textLength="6.0597" font-size="1.3546" lengthAdjust="spacingAndGlyphs"
text-anchor="end" opacity="0" stroke-opacity="0">XOUT32</text>
<g class="stroked-text"><desc>XOUT32</desc>
<path d="M33.3044 15.6013
L33.9817 16.6173
" />
<path d="M33.9817 15.6013
L33.3044 16.6173
" />
<path d="M34.5623 15.6013
L34.7558 15.6013
" />
<path d="M34.7558 15.6013
L34.8526 15.6497
" />
<path d="M34.8526 15.6497
L34.9493 15.7465
" />
<path d="M34.9493 15.7465
L34.9977 15.9400
" />
<path d="M34.9977 15.9400
L34.9977 16.2787
" />
<path d="M34.9977 16.2787
L34.9493 16.4722
" />
<path d="M34.9493 16.4722
L34.8526 16.5690
" />
<path d="M34.8526 16.5690
L34.7558 16.6173
" />
<path d="M34.7558 16.6173
L34.5623 16.6173
" />
<path d="M34.5623 16.6173
L34.4655 16.5690
" />
<path d="M34.4655 16.5690
L34.3688 16.4722
" />
<path d="M34.3688 16.4722
L34.3204 16.2787
" />
<path d="M34.3204 16.2787
L34.3204 15.9400
" />
<path d="M34.3204 15.9400
L34.3688 15.7465
" />
<path d="M34.3688 15.7465
L34.4655 15.6497
" />
<path d="M34.4655 15.6497
L34.5623 15.6013
" />
<path d="M35.4332 15.6013
L35.4332 16.4238
" />
<path d="M35.4332 16.4238
L35.4815 16.5206
" />
<path d="M35.4815 16.5206
L35.5299 16.5690
" />
<path d="M35.5299 16.5690
L35.6267 16.6173
" />
<path d="M35.6267 16.6173
L35.8202 16.6173
" />
<path d="M35.8202 16.6173
L35.9170 16.5690
" />
<path d="M35.9170 16.5690
L35.9653 16.5206
" />
<path d="M35.9653 16.5206
L36.0137 16.4238
" />
<path d="M36.0137 16.4238
L36.0137 15.6013
" />
<path d="M36.3524 15.6013
L36.9330 15.6013
" />
<path d="M36.6427 16.6173
L36.6427 15.6013
" />
<path d="M37.1749 15.6013
L37.8038 15.6013
" />
<path d="M37.8038 15.6013
L37.4652 15.9884
" />
<path d="M37.4652 15.9884
L37.6103 15.9884
" />
<path d="M37.6103 15.9884
L37.7071 16.0368
" />
<path d="M37.7071 16.0368
L37.7555 16.0851
" />
<path d="M37.7555 16.0851
L37.8038 16.1819
" />
<path d="M37.8038 16.1819
L37.8038 16.4238
" />
<path d="M37.8038 16.4238
L37.7555 16.5206
" />
<path d="M37.7555 16.5206
L37.7071 16.5690
" />
<path d="M37.7071 16.5690
L37.6103 16.6173
" />
<path d="M37.6103 16.6173
L37.3200 16.6173
" />
<path d="M37.3200 16.6173
L37.2233 16.5690
" />
<path d="M37.2233 16.5690
L37.1749 16.5206
" />
<path d="M38.1909 15.6981
L38.2393 15.6497
" />
<path d="M38.2393 15.6497
L38.3360 15.6013
" />
<path d="M38.3360 15.6013
L38.5779 15.6013
" />
<path d="M38.5779 15.6013
L38.6747 15.6497
" />
<path d="M38.6747 15.6497
L38.7231 15.6981
" />
<path d="M38.7231 15.6981
L38.7714 15.7949
" />
<path d="M38.7714 15.7949
L38.7714 15.8916
" />
<path d="M38.7714 15.8916
L38.7231 16.0368
" />
<path d="M38.7231 16.0368
L38.1425 16.6173
" />
<path d="M38.1425 16.6173
L38.7714 16.6173
" />
</g></g>
<g style="fill:none; 
stroke:#A90000; stroke-width:0.1524; stroke-opacity:1; 
stroke-linecap:round; stroke-linejoin:round;">
<text x="42.6212" y="15.9013"
textLength="2.1892" font-size="1.3546" lengthAdjust="spacingAndGlyphs"
text-anchor="middle" opacity="0" stroke-opacity="0">26</text>
<g class="stroked-text"><desc>26</desc>
<path d="M41.8471 14.8497
L41.8955 14.8013
" />
<path d="M41.8955 14.8013
L41.9922 14.7529
" />
<path d="M41.9922 14.7529
L42.2341 14.7529
" />
<path d="M42.2341 14.7529
L42.3309 14.8013
" />
<path d="M42.3309 14.8013
L42.3793 14.8497
" />
<path d="M42.3793 14.8497
L42.4276 14.9465
" />
<path d="M42.4276 14.9465
L42.4276 15.0432
" />
<path d="M42.4276 15.0432
L42.3793 15.1884
" />
<path d="M42.3793 15.1884
L41.7987 15.7689
" />
<path d="M41.7987 15.7689
L42.4276 15.7689
" />
<path d="M43.2985 14.7529
L43.1050 14.7529
" />
<path d="M43.1050 14.7529
L43.0082 14.8013
" />
<path d="M43.0082 14.8013
L42.9598 14.8497
" />
<path d="M42.9598 14.8497
L42.8631 14.9948
" />
<path d="M42.8631 14.9948
L42.8147 15.1884
" />
<path d="M42.8147 15.1884
L42.8147 15.5754
" />
<path d="M42.8147 15.5754
L42.8631 15.6722
" />
<path d="M42.8631 15.6722
L42.9114 15.7206
" />
<path d="M42.9114 15.7206
L43.0082 15.7689
" />
<path d="M43.0082 15.7689
L43.2017 15.7689
" />
<path d="M43.2017 15.7689
L43.2985 15.7206
" />
<path d="M43.2985 15.7206
L43.3469 15.6722
" />
<path d="M43.3469 15.6722
L43.3952 15.5754
" />
<path d="M43.3952 15.5754
L43.3952 15.3335
" />
<path d="M43.3952 15.3335
L43.3469 15.2367
" />
<path d="M43.3469 15.2367
L43.2985 15.1884
" />
<path d="M43.2985 15.1884
L43.2017 15.1400
" />
<path d="M43.2017 15.1400
L43.0082 15.1400
" />
<path d="M43.0082 15.1400
L42.9114 15.1884
" />
<path d="M42.9114 15.1884
L42.8631 15.2367
" />
<path d="M42.8631 15.2367
L42.8147 15.3335
" />
</g></g>
<g style="fill:none; 
stroke:#840000; stroke-width:0.1524; stroke-opacity:1; 
stroke-linecap:round; stroke-linejoin:round;">
<path d="M9.6012 13.6153
L4.5212 13.6153
" />
</g>
<g style="fill:none; 
stroke:#006464; stroke-width:0.1524; stroke-opacity:1; 
stroke-linecap:round; stroke-linejoin:round;">
<text x="10.6172" y="14.1233"
textLength="4.7050" font-size="1.3546" lengthAdjust="spacingAndGlyphs"
text-anchor="start" opacity="0" stroke-opacity="0">XIN32</text>
<g class="stroked-text"><desc>XIN32</desc>
<path d="M10.8625 13.0613
L11.5398 14.0773
" />
<path d="M11.5398 13.0613
L10.8625 14.0773
" />
<path d="M11.9269 14.0773
L11.9269 13.0613
" />
<path d="M12.4107 14.0773
L12.4107 13.0613
" />
<path d="M12.4107 13.0613
L12.9912 14.0773
" />
<path d="M12.9912 14.0773
L12.9912 13.0613
" />
<path d="M13.3783 13.0613
L14.0072 13.0613
" />
<path d="M14.0072 13.0613
L13.6686 13.4484
" />
<path d="M13.6686 13.4484
L13.8137 13.4484
" />
<path d="M13.8137 13.4484
L13.9105 13.4968
" />
<path d="M13.9105 13.4968
L13.9589 13.5451
" />
<path d="M13.9589 13.5451
L14.0072 13.6419
" />
<path d="M14.0072 13.6419
L14.0072 13.8838
" />
<path d="M14.0072 13.8838
L13.9589 13.9806
" />
<path d="M13.9589 13.9806
L13.9105 14.0290
" />
<path d="M13.9105 14.0290
L13.8137 14.0773
" />
<path d="M13.8137 14.0773
L13.5234 14.0773
" />
<path d="M13.5234 14.0773
L13.4267 14.0290
" />
<path d="M13.4267 14.0290
L13.3783 13.9806
" />
<path d="M14.3943 13.1581
L14.4427 13.1097
" />
<path d="M14.4427 13.1097
L14.5394 13.0613
" />
<path d="M14.5394 13.0613
L14.7813 13.0613
" />
<path d="M14.7813 13.0613
L14.8781 13.1097
" />
<path d="M14.8781 13.1097
L14.9265 13.1581
" />
<path d="M14.9265 13.1581
L14.9748 13.2549
" />
<path d="M14.9748 13.2549
L14.9748 13.3516
" />
<path d="M14.9748 13.3516
L14.9265 13.4968
" />
<path d="M14.9265 13.4968
L14.3459 14.0773
" />
<path d="M14.3459 14.0773
L14.9748 14.0773
" />
</g></g>
<g style="fill:none; 
stroke:#A90000; stroke-width:0.1524; stroke-opacity:1; 
stroke-linecap:round; stroke-linejoin:round;">
<text x="7.0612" y="13.3613"
textLength="2.1892" font-size="1.3546" lengthAdjust="spacingAndGlyphs"
text-anchor="middle" opacity="0" stroke-opacity="0">27</text>
<g class="stroked-text"><desc>27</desc>
<path d="M6.2871 12.3097
L6.3355 12.2613
" />
<path d="M6.3355 12.2613
L6.4322 12.2129
" />
<path d="M6.4322 12.2129
L6.6741 12.2129
" />
<path d="M6.6741 12.2129
L6.7709 12.2613
" />
<path d="M6.7709 12.2613
L6.8193 12.3097
" />
<path d="M6.8193 12.3097
L6.8676 12.4065
" />
<path d="M6.8676 12.4065
L6.8676 12.5032
" />
<path d="M6.8676 12.5032
L6.8193 12.6484
" />
<path d="M6.8193 12.6484
L6.2387 13.2289
" />
<path d="M6.2387 13.2289
L6.8676 13.2289
" />
<path d="M7.2063 12.2129
L7.8836 12.2129
" />
<path d="M7.8836 12.2129
L7.4482 13.2289
" />
</g></g>
<g style="fill:none; 
stroke:#840000; stroke-width:0.1524; stroke-opacity:1; 
stroke-linecap:round; stroke-linejoin:round;">
<path d="M40.0812 11.0753
L45.1612 11.0753
" />
</g>
<g style="fill:none; 
stroke:#006464; stroke-width:0.1524; stroke-opacity:1; 
stroke-linecap:round; stroke-linejoin:round;">
<text x="39.0652" y="11.5833"
textLength="4.7051" font-size="1.3546" lengthAdjust="spacingAndGlyphs"
text-anchor="end" opacity="0" stroke-opacity="0">VDDIO</text>
<g class="stroked-text"><desc>VDDIO</desc>
<path d="M34.6106 10.5213
L34.9493 11.5373
" />
<path d="M34.9493 11.5373
L35.2879 10.5213
" />
<path d="M35.6267 11.5373
L35.6267 10.5213
" />
<path d="M35.6267 10.5213
L35.8686 10.5213
" />
<path d="M35.8686 10.5213
L36.0137 10.5697
" />
<path d="M36.0137 10.5697
L36.1105 10.6665
" />
<path d="M36.1105 10.6665
L36.1588 10.7632
" />
<path d="M36.1588 10.7632
L36.2072 10.9568
" />
<path d="M36.2072 10.9568
L36.2072 11.1019
" />
<path d="M36.2072 11.1019
L36.1588 11.2954
" />
<path d="M36.1588 11.2954
L36.1105 11.3922
" />
<path d="M36.1105 11.3922
L36.0137 11.4890
" />
<path d="M36.0137 11.4890
L35.8686 11.5373
" />
<path d="M35.8686 11.5373
L35.6267 11.5373
" />
<path d="M36.6427 11.5373
L36.6427 10.5213
" />
<path d="M36.6427 10.5213
L36.8846 10.5213
" />
<path d="M36.8846 10.5213
L37.0297 10.5697
" />
<path d="M37.0297 10.5697
L37.1265 10.6665
" />
<path d="M37.1265 10.6665
L37.1748 10.7632
" />
<path d="M37.1748 10.7632
L37.2232 10.9568
" />
<path d="M37.2232 10.9568
L37.2232 11.1019
" />
<path d="M37.2232 11.1019
L37.1748 11.2954
" />
<path d="M37.1748 11.2954
L37.1265 11.3922
" />
<path d="M37.1265 11.3922
L37.0297 11.4890
" />
<path d="M37.0297 11.4890
L36.8846 11.5373
" />
<path d="M36.8846 11.5373
L36.6427 11.5373
" />
<path d="M37.6587 11.5373
L37.6587 10.5213
" />
<path d="M38.3360 10.5213
L38.5295 10.5213
" />
<path d="M38.5295 10.5213
L38.6263 10.5697
" />
<path d="M38.6263 10.5697
L38.7230 10.6665
" />
<path d="M38.7230 10.6665
L38.7714 10.8600
" />
<path d="M38.7714 10.8600
L38.7714 11.1987
" />
<path d="M38.7714 11.1987
L38.7230 11.3922
" />
<path d="M38.7230 11.3922
L38.6263 11.4890
" />
<path d="M38.6263 11.4890
L38.5295 11.5373
" />
<path d="M38.5295 11.5373
L38.3360 11.5373
" />
<path d="M38.3360 11.5373
L38.2392 11.4890
" />
<path d="M38.2392 11.4890
L38.1425 11.3922
" />
<path d="M38.1425 11.3922
L38.0941 11.1987
" />
<path d="M38.0941 11.1987
L38.0941 10.8600
" />
<path d="M38.0941 10.8600
L38.1425 10.6665
" />
<path d="M38.1425 10.6665
L38.2392 10.5697
" />
<path d="M38.2392 10.5697
L38.3360 10.5213
" />
</g></g>
<g style="fill:none; 
stroke:#A90000; stroke-width:0.1524; stroke-opacity:1; 
stroke-linecap:round; stroke-linejoin:round;">
<text x="42.6212" y="10.8213"
textLength="2.1892" font-size="1.3546" lengthAdjust="spacingAndGlyphs"
text-anchor="middle" opacity="0" stroke-opacity="0">28</text>
<g class="stroked-text"><desc>28</desc>
<path d="M41.8471 9.7697
L41.8955 9.7213
" />
<path d="M41.8955 9.7213
L41.9922 9.6729
" />
<path d="M41.9922 9.6729
L42.2341 9.6729
" />
<path d="M42.2341 9.6729
L42.3309 9.7213
" />
<path d="M42.3309 9.7213
L42.3793 9.7697
" />
<path d="M42.3793 9.7697
L42.4276 9.8665
" />
<path d="M42.4276 9.8665
L42.4276 9.9632
" />
<path d="M42.4276 9.9632
L42.3793 10.1084
" />
<path d="M42.3793 10.1084
L41.7987 10.6889
" />
<path d="M41.7987 10.6889
L42.4276 10.6889
" />
<path d="M43.0082 10.1084
L42.9114 10.0600
" />
<path d="M42.9114 10.0600
L42.8631 10.0116
" />
<path d="M42.8631 10.0116
L42.8147 9.9148
" />
<path d="M42.8147 9.9148
L42.8147 9.8665
" />
<path d="M42.8147 9.8665
L42.8631 9.7697
" />
<path d="M42.8631 9.7697
L42.9114 9.7213
" />
<path d="M42.9114 9.7213
L43.0082 9.6729
" />
<path d="M43.0082 9.6729
L43.2017 9.6729
" />
<path d="M43.2017 9.6729
L43.2985 9.7213
" />
<path d="M43.2985 9.7213
L43.3469 9.7697
" />
<path d="M43.3469 9.7697
L43.3952 9.8665
" />
<path d="M43.3952 9.8665
L43.3952 9.9148
" />
<path d="M43.3952 9.9148
L43.3469 10.0116
" />
<path d="M43.3469 10.0116
L43.2985 10.0600
" />
<path d="M43.2985 10.0600
L43.2017 10.1084
" />
<path d="M43.2017 10.1084
L43.0082 10.1084
" />
<path d="M43.0082 10.1084
L42.9114 10.1567
" />
<path d="M42.9114 10.1567
L42.8631 10.2051
" />
<path d="M42.8631 10.2051
L42.8147 10.3019
" />
<path d="M42.8147 10.3019
L42.8147 10.4954
" />
<path d="M42.8147 10.4954
L42.8631 10.5922
" />
<path d="M42.8631 10.5922
L42.9114 10.6406
" />
<path d="M42.9114 10.6406
L43.0082 10.6889
" />
<path d="M43.0082 10.6889
L43.2017 10.6889
" />
<path d="M43.2017 10.6889
L43.2985 10.6406
" />
<path d="M43.2985 10.6406
L43.3469 10.5922
" />
<path d="M43.3469 10.5922
L43.3952 10.4954
" />
<path d="M43.3952 10.4954
L43.3952 10.3019
" />
<path d="M43.3952 10.3019
L43.3469 10.2051
" />
<path d="M43.3469 10.2051
L43.2985 10.1567
" />
<path d="M43.2985 10.1567
L43.2017 10.1084
" />
</g></g>
<g style="fill:none; 
stroke:#006464; stroke-width:0.1524; stroke-opacity:1; 
stroke-linecap:round; stroke-linejoin:round;">
<text x="10.1092" y="5.4873"
textLength="2.6223" font-size="1.6933" lengthAdjust="spacingAndGlyphs"
text-anchor="start" opacity="0" stroke-opacity="0">U?</text>
<g class="stroked-text"><desc>U?</desc>
<path d="M10.5117 4.0538
L10.5117 5.0819
" />
<path d="M10.5117 5.0819
L10.5722 5.2029
" />
<path d="M10.5722 5.2029
L10.6327 5.2634
" />
<path d="M10.6327 5.2634
L10.7536 5.3238
" />
<path d="M10.7536 5.3238
L10.9955 5.3238
" />
<path d="M10.9955 5.3238
L11.1165 5.2634
" />
<path d="M11.1165 5.2634
L11.1770 5.2029
" />
<path d="M11.1770 5.2029
L11.2374 5.0819
" />
<path d="M11.2374 5.0819
L11.2374 4.0538
" />
<path d="M12.0237 5.2029
L12.0841 5.2634
" />
<path d="M12.0841 5.2634
L12.0237 5.3238
" />
<path d="M12.0237 5.3238
L11.9632 5.2634
" />
<path d="M11.9632 5.2634
L12.0237 5.2029
" />
<path d="M12.0237 5.2029
L12.0237 5.3238
" />
<path d="M11.7818 4.1143
L11.9027 4.0538
" />
<path d="M11.9027 4.0538
L12.2051 4.0538
" />
<path d="M12.2051 4.0538
L12.3260 4.1143
" />
<path d="M12.3260 4.1143
L12.3865 4.2353
" />
<path d="M12.3865 4.2353
L12.3865 4.3562
" />
<path d="M12.3865 4.3562
L12.3260 4.4772
" />
<path d="M12.3260 4.4772
L12.2656 4.5376
" />
<path d="M12.2656 4.5376
L12.1446 4.5981
" />
<path d="M12.1446 4.5981
L12.0841 4.6586
" />
<path d="M12.0841 4.6586
L12.0237 4.7795
" />
<path d="M12.0237 4.7795
L12.0237 4.8400
" />
</g><text x="10.0838" y="40.8441"
textLength="7.7627" font-size="1.6933" lengthAdjust="spacingAndGlyphs"
text-anchor="start" opacity="0" stroke-opacity="0">BNO055</text>
<g class="stroked-text"><desc>BNO055</desc>
<path d="M10.9097 40.0154
L11.0911 40.0759
" />
<path d="M11.0911 40.0759
L11.1516 40.1363
" />
<path d="M11.1516 40.1363
L11.2120 40.2573
" />
<path d="M11.2120 40.2573
L11.2120 40.4387
" />
<path d="M11.2120 40.4387
L11.1516 40.5597
" />
<path d="M11.1516 40.5597
L11.0911 40.6202
" />
<path d="M11.0911 40.6202
L10.9701 40.6806
" />
<path d="M10.9701 40.6806
L10.4863 40.6806
" />
<path d="M10.4863 40.6806
L10.4863 39.4106
" />
<path d="M10.4863 39.4106
L10.9097 39.4106
" />
<path d="M10.9097 39.4106
L11.0306 39.4711
" />
<path d="M11.0306 39.4711
L11.0911 39.5316
" />
<path d="M11.0911 39.5316
L11.1516 39.6525
" />
<path d="M11.1516 39.6525
L11.1516 39.7735
" />
<path d="M11.1516 39.7735
L11.0911 39.8944
" />
<path d="M11.0911 39.8944
L11.0306 39.9549
" />
<path d="M11.0306 39.9549
L10.9097 40.0154
" />
<path d="M10.9097 40.0154
L10.4863 40.0154
" />
<path d="M11.7563 40.6806
L11.7563 39.4106
" />
<path d="M11.7563 39.4106
L12.4820 40.6806
" />
<path d="M12.4820 40.6806
L12.4820 39.4106
" />
<path d="M13.3287 39.4106
L13.5706 39.4106
" />
<path d="M13.5706 39.4106
L13.6916 39.4711
" />
<path d="M13.6916 39.4711
L13.8125 39.5921
" />
<path d="M13.8125 39.5921
L13.8730 39.8340
" />
<path d="M13.8730 39.8340
L13.8730 40.2573
" />
<path d="M13.8730 40.2573
L13.8125 40.4992
" />
<path d="M13.8125 40.4992
L13.6916 40.6202
" />
<path d="M13.6916 40.6202
L13.5706 40.6806
" />
<path d="M13.5706 40.6806
L13.3287 40.6806
" />
<path d="M13.3287 40.6806
L13.2078 40.6202
" />
<path d="M13.2078 40.6202
L13.0868 40.4992
" />
<path d="M13.0868 40.4992
L13.0264 40.2573
" />
<path d="M13.0264 40.2573
L13.0264 39.8340
" />
<path d="M13.0264 39.8340
L13.0868 39.5921
" />
<path d="M13.0868 39.5921
L13.2078 39.4711
" />
<path d="M13.2078 39.4711
L13.3287 39.4106
" />
<path d="M14.6592 39.4106
L14.7802 39.4106
" />
<path d="M14.7802 39.4106
L14.9011 39.4711
" />
<path d="M14.9011 39.4711
L14.9616 39.5316
" />
<path d="M14.9616 39.5316
L15.0221 39.6525
" />
<path d="M15.0221 39.6525
L15.0826 39.8944
" />
<path d="M15.0826 39.8944
L15.0826 40.1968
" />
<path d="M15.0826 40.1968
L15.0221 40.4387
" />
<path d="M15.0221 40.4387
L14.9616 40.5597
" />
<path d="M14.9616 40.5597
L14.9011 40.6202
" />
<path d="M14.9011 40.6202
L14.7802 40.6806
" />
<path d="M14.7802 40.6806
L14.6592 40.6806
" />
<path d="M14.6592 40.6806
L14.5383 40.6202
" />
<path d="M14.5383 40.6202
L14.4778 40.5597
" />
<path d="M14.4778 40.5597
L14.4173 40.4387
" />
<path d="M14.4173 40.4387
L14.3569 40.1968
" />
<path d="M14.3569 40.1968
L14.3569 39.8944
" />
<path d="M14.3569 39.8944
L14.4173 39.6525
" />
<path d="M14.4173 39.6525
L14.4778 39.5316
" />
<path d="M14.4778 39.5316
L14.5383 39.4711
" />
<path d="M14.5383 39.4711
L14.6592 39.4106
" />
<path d="M16.2316 39.4106
L15.6268 39.4106
" />
<path d="M15.6268 39.4106
L15.5664 40.0154
" />
<path d="M15.5664 40.0154
L15.6268 39.9549
" />
<path d="M15.6268 39.9549
L15.7478 39.8944
" />
<path d="M15.7478 39.8944
L16.0502 39.8944
" />
<path d="M16.0502 39.8944
L16.1711 39.9549
" />
<path d="M16.1711 39.9549
L16.2316 40.0154
" />
<path d="M16.2316 40.0154
L16.2921 40.1363
" />
<path d="M16.2921 40.1363
L16.2921 40.4387
" />
<path d="M16.2921 40.4387
L16.2316 40.5597
" />
<path d="M16.2316 40.5597
L16.1711 40.6202
" />
<path d="M16.1711 40.6202
L16.0502 40.6806
" />
<path d="M16.0502 40.6806
L15.7478 40.6806
" />
<path d="M15.7478 40.6806
L15.6268 40.6202
" />
<path d="M15.6268 40.6202
L15.5664 40.5597
" />
<path d="M17.4411 39.4106
L16.8363 39.4106
" />
<path d="M16.8363 39.4106
L16.7759 40.0154
" />
<path d="M16.7759 40.0154
L16.8363 39.9549
" />
<path d="M16.8363 39.9549
L16.9573 39.8944
" />
<path d="M16.9573 39.8944
L17.2597 39.8944
" />
<path d="M17.2597 39.8944
L17.3806 39.9549
" />
<path d="M17.3806 39.9549
L17.4411 40.0154
" />
<path d="M17.4411 40.0154
L17.5016 40.1363
" />
<path d="M17.5016 40.1363
L17.5016 40.4387
" />
<path d="M17.5016 40.4387
L17.4411 40.5597
" />
<path d="M17.4411 40.5597
L17.3806 40.6202
" />
<path d="M17.3806 40.6202
L17.2597 40.6806
" />
<path d="M17.2597 40.6806
L16.9573 40.6806
" />
<path d="M16.9573 40.6806
L16.8363 40.6202
" />
<path d="M16.8363 40.6202
L16.7759 40.5597
" />
</g></g> 
</svg>
