<?xml version="1.0" standalone="no"?>
 <!DOCTYPE svg PUBLIC "-//W3C//DTD SVG 1.1//EN" 
 "http://www.w3.org/Graphics/SVG/1.1/DTD/svg11.dtd"> 
<svg
  xmlns:svg="http://www.w3.org/2000/svg"
  xmlns="http://www.w3.org/2000/svg"
  xmlns:xlink="http://www.w3.org/1999/xlink"
  xmlns:inkscape="http://www.inkscape.org/namespaces/inkscape"
  version="1.1"
  width="100%" height="100%" viewBox="0.0000 0.0000 23.3680 7.1628">
<title>SVG Image created as C_Polarized_Small_unit1.svg date 2026-04-16T00:47:48 </title>
  <desc>Image generated by Eeschema-SVG </desc>
<g style="fill:#000000; fill-opacity:1.0000;stroke:#000000; stroke-opacity:1.0000;
stroke-linecap:round; stroke-linejoin:round;"
 transform="translate(0 0) scale(1 1)">
</g>
<g style="fill:none; 
stroke:#840000; stroke-width:0.1524; stroke-opacity:1; 
stroke-linecap:round; stroke-linejoin:round;">
<rect x="1.945200" y="2.829300" width="3.048000" height="0.381000" rx="0.000000" />
</g>
<g style="fill:#840000; fill-opacity:1.0000; 
stroke:#840000; stroke-width:0.1524; stroke-opacity:1; 
stroke-linecap:round; stroke-linejoin:round;">
<rect x="1.945200" y="3.819900" width="3.048000" height="0.381000" rx="0.000000" />
<path style="fill:none; 
stroke:#840000; stroke-width:0.1524; stroke-opacity:1; 
stroke-linecap:round; stroke-linejoin:round;fill:none"
d="M 2.1992,1.9911
2.7072,1.9911
" /> 
<path style="fill:none; 
stroke:#840000; stroke-width:0.1524; stroke-opacity:1; 
stroke-linecap:round; stroke-linejoin:round;fill:none"
d="M 2.4532,2.2451
2.4532,1.7371
" /> 
</g>
<g style="fill:none; 
stroke:#840000; stroke-width:0.1524; stroke-opacity:1; 
stroke-linecap:round; stroke-linejoin:round;">
<path d="M3.4692 2.8293
L3.4692 0.9751
" />
<path d="M3.4692 4.2009
L3.4692 6.0551
" />
</g>
<g style="fill:none; 
stroke:#006464; stroke-width:0.1524; stroke-opacity:1; 
stroke-linecap:round; stroke-linejoin:round;">
<text x="3.7232" y="2.3721"
textLength="2.5618" font-size="1.6933" lengthAdjust="spacingAndGlyphs"
text-anchor="start" opacity="0" stroke-opacity="0">C?</text>
<g class="stroked-text"><desc>C?</desc>
<path d="M4.8514 2.1957
L4.7910 2.2562
" />
<path d="M4.7910 2.2562
L4.6095 2.3166
" />
<path d="M4.6095 2.3166
L4.4886 2.3166
" />
<path d="M4.4886 2.3166
L4.3072 2.2562
" />
<path d="M4.3072 2.2562
L4.1862 2.1352
" />
<path d="M4.1862 2.1352
L4.1257 2.0142
" />
<path d="M4.1257 2.0142
L4.0653 1.7723
" />
<path d="M4.0653 1.7723
L4.0653 1.5909
" />
<path d="M4.0653 1.5909
L4.1257 1.3490
" />
<path d="M4.1257 1.3490
L4.1862 1.2281
" />
<path d="M4.1862 1.2281
L4.3072 1.1071
" />
<path d="M4.3072 1.1071
L4.4886 1.0466
" />
<path d="M4.4886 1.0466
L4.6095 1.0466
" />
<path d="M4.6095 1.0466
L4.7910 1.1071
" />
<path d="M4.7910 1.1071
L4.8514 1.1676
" />
<path d="M5.5772 2.1957
L5.6376 2.2562
" />
<path d="M5.6376 2.2562
L5.5772 2.3166
" />
<path d="M5.5772 2.3166
L5.5167 2.2562
" />
<path d="M5.5167 2.2562
L5.5772 2.1957
" />
<path d="M5.5772 2.1957
L5.5772 2.3166
" />
<path d="M5.3353 1.1071
L5.4562 1.0466
" />
<path d="M5.4562 1.0466
L5.7586 1.0466
" />
<path d="M5.7586 1.0466
L5.8795 1.1071
" />
<path d="M5.8795 1.1071
L5.9400 1.2281
" />
<path d="M5.9400 1.2281
L5.9400 1.3490
" />
<path d="M5.9400 1.3490
L5.8795 1.4700
" />
<path d="M5.8795 1.4700
L5.8191 1.5304
" />
<path d="M5.8191 1.5304
L5.6981 1.5909
" />
<path d="M5.6981 1.5909
L5.6376 1.6514
" />
<path d="M5.6376 1.6514
L5.5772 1.7723
" />
<path d="M5.5772 1.7723
L5.5772 1.8328
" />
</g><text x="3.7232" y="6.1821"
textLength="17.6805" font-size="1.6933" lengthAdjust="spacingAndGlyphs"
text-anchor="start" opacity="0" stroke-opacity="0">C_Polarized_Small</text>
<g class="stroked-text"><desc>C_Polarized_Small</desc>
<path d="M4.8514 6.0057
L4.7910 6.0662
" />
<path d="M4.7910 6.0662
L4.6095 6.1266
" />
<path d="M4.6095 6.1266
L4.4886 6.1266
" />
<path d="M4.4886 6.1266
L4.3072 6.0662
" />
<path d="M4.3072 6.0662
L4.1862 5.9452
" />
<path d="M4.1862 5.9452
L4.1257 5.8242
" />
<path d="M4.1257 5.8242
L4.0653 5.5823
" />
<path d="M4.0653 5.5823
L4.0653 5.4009
" />
<path d="M4.0653 5.4009
L4.1257 5.1590
" />
<path d="M4.1257 5.1590
L4.1862 5.0381
" />
<path d="M4.1862 5.0381
L4.3072 4.9171
" />
<path d="M4.3072 4.9171
L4.4886 4.8566
" />
<path d="M4.4886 4.8566
L4.6095 4.8566
" />
<path d="M4.6095 4.8566
L4.7910 4.9171
" />
<path d="M4.7910 4.9171
L4.8514 4.9776
" />
<path d="M5.0934 6.2476
L6.0610 6.2476
" />
<path d="M6.3633 6.1266
L6.3633 4.8566
" />
<path d="M6.3633 4.8566
L6.8471 4.8566
" />
<path d="M6.8471 4.8566
L6.9681 4.9171
" />
<path d="M6.9681 4.9171
L7.0286 4.9776
" />
<path d="M7.0286 4.9776
L7.0890 5.0985
" />
<path d="M7.0890 5.0985
L7.0890 5.2800
" />
<path d="M7.0890 5.2800
L7.0286 5.4009
" />
<path d="M7.0286 5.4009
L6.9681 5.4614
" />
<path d="M6.9681 5.4614
L6.8471 5.5219
" />
<path d="M6.8471 5.5219
L6.3633 5.5219
" />
<path d="M7.8148 6.1266
L7.6938 6.0662
" />
<path d="M7.6938 6.0662
L7.6333 6.0057
" />
<path d="M7.6333 6.0057
L7.5729 5.8847
" />
<path d="M7.5729 5.8847
L7.5729 5.5219
" />
<path d="M7.5729 5.5219
L7.6333 5.4009
" />
<path d="M7.6333 5.4009
L7.6938 5.3404
" />
<path d="M7.6938 5.3404
L7.8148 5.2800
" />
<path d="M7.8148 5.2800
L7.9962 5.2800
" />
<path d="M7.9962 5.2800
L8.1171 5.3404
" />
<path d="M8.1171 5.3404
L8.1776 5.4009
" />
<path d="M8.1776 5.4009
L8.2381 5.5219
" />
<path d="M8.2381 5.5219
L8.2381 5.8847
" />
<path d="M8.2381 5.8847
L8.1776 6.0057
" />
<path d="M8.1776 6.0057
L8.1171 6.0662
" />
<path d="M8.1171 6.0662
L7.9962 6.1266
" />
<path d="M7.9962 6.1266
L7.8148 6.1266
" />
<path d="M8.9638 6.1266
L8.8428 6.0662
" />
<path d="M8.8428 6.0662
L8.7823 5.9452
" />
<path d="M8.7823 5.9452
L8.7823 4.8566
" />
<path d="M9.9918 6.1266
L9.9918 5.4614
" />
<path d="M9.9918 5.4614
L9.9313 5.3404
" />
<path d="M9.9313 5.3404
L9.8104 5.2800
" />
<path d="M9.8104 5.2800
L9.5685 5.2800
" />
<path d="M9.5685 5.2800
L9.4475 5.3404
" />
<path d="M9.9918 6.0662
L9.8709 6.1266
" />
<path d="M9.8709 6.1266
L9.5685 6.1266
" />
<path d="M9.5685 6.1266
L9.4475 6.0662
" />
<path d="M9.4475 6.0662
L9.3871 5.9452
" />
<path d="M9.3871 5.9452
L9.3871 5.8242
" />
<path d="M9.3871 5.8242
L9.4475 5.7033
" />
<path d="M9.4475 5.7033
L9.5685 5.6428
" />
<path d="M9.5685 5.6428
L9.8709 5.6428
" />
<path d="M9.8709 5.6428
L9.9918 5.5823
" />
<path d="M10.5965 6.1266
L10.5965 5.2800
" />
<path d="M10.5965 5.5219
L10.6570 5.4009
" />
<path d="M10.6570 5.4009
L10.7175 5.3404
" />
<path d="M10.7175 5.3404
L10.8384 5.2800
" />
<path d="M10.8384 5.2800
L10.9594 5.2800
" />
<path d="M11.3827 6.1266
L11.3827 5.2800
" />
<path d="M11.3827 4.8566
L11.3223 4.9171
" />
<path d="M11.3223 4.9171
L11.3827 4.9776
" />
<path d="M11.3827 4.9776
L11.4432 4.9171
" />
<path d="M11.4432 4.9171
L11.3827 4.8566
" />
<path d="M11.3827 4.8566
L11.3827 4.9776
" />
<path d="M11.8666 5.2800
L12.5318 5.2800
" />
<path d="M12.5318 5.2800
L11.8666 6.1266
" />
<path d="M11.8666 6.1266
L12.5318 6.1266
" />
<path d="M13.4994 6.0662
L13.3785 6.1266
" />
<path d="M13.3785 6.1266
L13.1366 6.1266
" />
<path d="M13.1366 6.1266
L13.0156 6.0662
" />
<path d="M13.0156 6.0662
L12.9552 5.9452
" />
<path d="M12.9552 5.9452
L12.9552 5.4614
" />
<path d="M12.9552 5.4614
L13.0156 5.3404
" />
<path d="M13.0156 5.3404
L13.1366 5.2800
" />
<path d="M13.1366 5.2800
L13.3785 5.2800
" />
<path d="M13.3785 5.2800
L13.4994 5.3404
" />
<path d="M13.4994 5.3404
L13.5599 5.4614
" />
<path d="M13.5599 5.4614
L13.5599 5.5823
" />
<path d="M13.5599 5.5823
L12.9552 5.7033
" />
<path d="M14.6485 6.1266
L14.6485 4.8566
" />
<path d="M14.6485 6.0662
L14.5276 6.1266
" />
<path d="M14.5276 6.1266
L14.2857 6.1266
" />
<path d="M14.2857 6.1266
L14.1647 6.0662
" />
<path d="M14.1647 6.0662
L14.1042 6.0057
" />
<path d="M14.1042 6.0057
L14.0438 5.8847
" />
<path d="M14.0438 5.8847
L14.0438 5.5219
" />
<path d="M14.0438 5.5219
L14.1042 5.4009
" />
<path d="M14.1042 5.4009
L14.1647 5.3404
" />
<path d="M14.1647 5.3404
L14.2857 5.2800
" />
<path d="M14.2857 5.2800
L14.5276 5.2800
" />
<path d="M14.5276 5.2800
L14.6485 5.3404
" />
<path d="M14.9509 6.2476
L15.9185 6.2476
" />
<path d="M16.1604 6.0662
L16.3418 6.1266
" />
<path d="M16.3418 6.1266
L16.6442 6.1266
" />
<path d="M16.6442 6.1266
L16.7651 6.0662
" />
<path d="M16.7651 6.0662
L16.8256 6.0057
" />
<path d="M16.8256 6.0057
L16.8861 5.8847
" />
<path d="M16.8861 5.8847
L16.8861 5.7638
" />
<path d="M16.8861 5.7638
L16.8256 5.6428
" />
<path d="M16.8256 5.6428
L16.7651 5.5823
" />
<path d="M16.7651 5.5823
L16.6442 5.5219
" />
<path d="M16.6442 5.5219
L16.4023 5.4614
" />
<path d="M16.4023 5.4614
L16.2813 5.4009
" />
<path d="M16.2813 5.4009
L16.2208 5.3404
" />
<path d="M16.2208 5.3404
L16.1604 5.2195
" />
<path d="M16.1604 5.2195
L16.1604 5.0985
" />
<path d="M16.1604 5.0985
L16.2208 4.9776
" />
<path d="M16.2208 4.9776
L16.2813 4.9171
" />
<path d="M16.2813 4.9171
L16.4023 4.8566
" />
<path d="M16.4023 4.8566
L16.7046 4.8566
" />
<path d="M16.7046 4.8566
L16.8861 4.9171
" />
<path d="M17.4303 6.1266
L17.4303 5.2800
" />
<path d="M17.4303 5.4009
L17.4908 5.3404
" />
<path d="M17.4908 5.3404
L17.6118 5.2800
" />
<path d="M17.6118 5.2800
L17.7932 5.2800
" />
<path d="M17.7932 5.2800
L17.9141 5.3404
" />
<path d="M17.9141 5.3404
L17.9746 5.4614
" />
<path d="M17.9746 5.4614
L17.9746 6.1266
" />
<path d="M17.9746 5.4614
L18.0351 5.3404
" />
<path d="M18.0351 5.3404
L18.1560 5.2800
" />
<path d="M18.1560 5.2800
L18.3375 5.2800
" />
<path d="M18.3375 5.2800
L18.4584 5.3404
" />
<path d="M18.4584 5.3404
L18.5189 5.4614
" />
<path d="M18.5189 5.4614
L18.5189 6.1266
" />
<path d="M19.6679 6.1266
L19.6679 5.4614
" />
<path d="M19.6679 5.4614
L19.6074 5.3404
" />
<path d="M19.6074 5.3404
L19.4865 5.2800
" />
<path d="M19.4865 5.2800
L19.2446 5.2800
" />
<path d="M19.2446 5.2800
L19.1236 5.3404
" />
<path d="M19.6679 6.0662
L19.5470 6.1266
" />
<path d="M19.5470 6.1266
L19.2446 6.1266
" />
<path d="M19.2446 6.1266
L19.1236 6.0662
" />
<path d="M19.1236 6.0662
L19.0632 5.9452
" />
<path d="M19.0632 5.9452
L19.0632 5.8242
" />
<path d="M19.0632 5.8242
L19.1236 5.7033
" />
<path d="M19.1236 5.7033
L19.2446 5.6428
" />
<path d="M19.2446 5.6428
L19.5470 5.6428
" />
<path d="M19.5470 5.6428
L19.6679 5.5823
" />
<path d="M20.4541 6.1266
L20.3331 6.0662
" />
<path d="M20.3331 6.0662
L20.2726 5.9452
" />
<path d="M20.2726 5.9452
L20.2726 4.8566
" />
<path d="M21.1193 6.1266
L20.9983 6.0662
" />
<path d="M20.9983 6.0662
L20.9378 5.9452
" />
<path d="M20.9378 5.9452
L20.9378 4.8566
" />
</g></g> 
</svg>
