<?xml version="1.0" standalone="no"?>
 <!DOCTYPE svg PUBLIC "-//W3C//DTD SVG 1.1//EN" 
 "http://www.w3.org/Graphics/SVG/1.1/DTD/svg11.dtd"> 
<svg
  xmlns:svg="http://www.w3.org/2000/svg"
  xmlns="http://www.w3.org/2000/svg"
  xmlns:xlink="http://www.w3.org/1999/xlink"
  xmlns:inkscape="http://www.inkscape.org/namespaces/inkscape"
  version="1.1"
  width="100%" height="100%" viewBox="0.0000 0.0000 23.5204 7.1628">
<title>SVG Image created as C_Polarized_Small_unit1.svg date 2026-04-16T05:15:23 </title>
  <desc>Image generated by Eeschema-SVG </desc>
<g style="fill:#000000; fill-opacity:1.0000;stroke:#000000; stroke-opacity:1.0000;
stroke-linecap:round; stroke-linejoin:round;"
 transform="translate(0 0) scale(1 1)">
</g>
<g style="fill:none; 
stroke:#840000; stroke-width:0.2540; stroke-opacity:1; 
stroke-linecap:round; stroke-linejoin:round;">
<rect x="2.084900" y="2.829300" width="3.048000" height="0.381000" rx="0.000000" />
</g>
<g style="fill:#840000; fill-opacity:1.0000; 
stroke:#840000; stroke-width:0.2540; stroke-opacity:1; 
stroke-linecap:round; stroke-linejoin:round;">
<rect x="2.084900" y="3.819900" width="3.048000" height="0.381000" rx="0.000000" />
<path style="fill:none; 
stroke:#840000; stroke-width:0.2540; stroke-opacity:1; 
stroke-linecap:round; stroke-linejoin:round;fill:none"
d="M 2.3389,1.9911
2.8469,1.9911
" /> 
<path style="fill:none; 
stroke:#840000; stroke-width:0.2540; stroke-opacity:1; 
stroke-linecap:round; stroke-linejoin:round;fill:none"
d="M 2.5929,2.2451
2.5929,1.7371
" /> 
</g>
<g style="fill:none; 
stroke:#840000; stroke-width:0.1524; stroke-opacity:1; 
stroke-linecap:round; stroke-linejoin:round;">
<path d="M3.6089 2.8293
L3.6089 0.9751
" />
<path d="M3.6089 4.2009
L3.6089 6.0551
" />
</g>
<g style="fill:none; 
stroke:#006464; stroke-width:0.1524; stroke-opacity:1; 
stroke-linecap:round; stroke-linejoin:round;">
<text x="3.8629" y="2.3721"
textLength="2.5618" font-size="1.6933" lengthAdjust="spacingAndGlyphs"
text-anchor="start" opacity="0" stroke-opacity="0">C?</text>
<g class="stroked-text"><desc>C?</desc>
<path d="M4.9911 2.1957
L4.9307 2.2562
" />
<path d="M4.9307 2.2562
L4.7492 2.3166
" />
<path d="M4.7492 2.3166
L4.6283 2.3166
" />
<path d="M4.6283 2.3166
L4.4469 2.2562
" />
<path d="M4.4469 2.2562
L4.3259 2.1352
" />
<path d="M4.3259 2.1352
L4.2654 2.0142
" />
<path d="M4.2654 2.0142
L4.2050 1.7723
" />
<path d="M4.2050 1.7723
L4.2050 1.5909
" />
<path d="M4.2050 1.5909
L4.2654 1.3490
" />
<path d="M4.2654 1.3490
L4.3259 1.2281
" />
<path d="M4.3259 1.2281
L4.4469 1.1071
" />
<path d="M4.4469 1.1071
L4.6283 1.0466
" />
<path d="M4.6283 1.0466
L4.7492 1.0466
" />
<path d="M4.7492 1.0466
L4.9307 1.1071
" />
<path d="M4.9307 1.1071
L4.9911 1.1676
" />
<path d="M5.7169 2.1957
L5.7773 2.2562
" />
<path d="M5.7773 2.2562
L5.7169 2.3166
" />
<path d="M5.7169 2.3166
L5.6564 2.2562
" />
<path d="M5.6564 2.2562
L5.7169 2.1957
" />
<path d="M5.7169 2.1957
L5.7169 2.3166
" />
<path d="M5.4750 1.1071
L5.5959 1.0466
" />
<path d="M5.5959 1.0466
L5.8983 1.0466
" />
<path d="M5.8983 1.0466
L6.0192 1.1071
" />
<path d="M6.0192 1.1071
L6.0797 1.2281
" />
<path d="M6.0797 1.2281
L6.0797 1.3490
" />
<path d="M6.0797 1.3490
L6.0192 1.4700
" />
<path d="M6.0192 1.4700
L5.9588 1.5304
" />
<path d="M5.9588 1.5304
L5.8378 1.5909
" />
<path d="M5.8378 1.5909
L5.7773 1.6514
" />
<path d="M5.7773 1.6514
L5.7169 1.7723
" />
<path d="M5.7169 1.7723
L5.7169 1.8328
" />
</g><text x="3.8629" y="6.1821"
textLength="17.6805" font-size="1.6933" lengthAdjust="spacingAndGlyphs"
text-anchor="start" opacity="0" stroke-opacity="0">C_Polarized_Small</text>
<g class="stroked-text"><desc>C_Polarized_Small</desc>
<path d="M4.9911 6.0057
L4.9307 6.0662
" />
<path d="M4.9307 6.0662
L4.7492 6.1266
" />
<path d="M4.7492 6.1266
L4.6283 6.1266
" />
<path d="M4.6283 6.1266
L4.4469 6.0662
" />
<path d="M4.4469 6.0662
L4.3259 5.9452
" />
<path d="M4.3259 5.9452
L4.2654 5.8242
" />
<path d="M4.2654 5.8242
L4.2050 5.5823
" />
<path d="M4.2050 5.5823
L4.2050 5.4009
" />
<path d="M4.2050 5.4009
L4.2654 5.1590
" />
<path d="M4.2654 5.1590
L4.3259 5.0381
" />
<path d="M4.3259 5.0381
L4.4469 4.9171
" />
<path d="M4.4469 4.9171
L4.6283 4.8566
" />
<path d="M4.6283 4.8566
L4.7492 4.8566
" />
<path d="M4.7492 4.8566
L4.9307 4.9171
" />
<path d="M4.9307 4.9171
L4.9911 4.9776
" />
<path d="M5.2331 6.2476
L6.2007 6.2476
" />
<path d="M6.5030 6.1266
L6.5030 4.8566
" />
<path d="M6.5030 4.8566
L6.9868 4.8566
" />
<path d="M6.9868 4.8566
L7.1078 4.9171
" />
<path d="M7.1078 4.9171
L7.1683 4.9776
" />
<path d="M7.1683 4.9776
L7.2287 5.0985
" />
<path d="M7.2287 5.0985
L7.2287 5.2800
" />
<path d="M7.2287 5.2800
L7.1683 5.4009
" />
<path d="M7.1683 5.4009
L7.1078 5.4614
" />
<path d="M7.1078 5.4614
L6.9868 5.5219
" />
<path d="M6.9868 5.5219
L6.5030 5.5219
" />
<path d="M7.9545 6.1266
L7.8335 6.0662
" />
<path d="M7.8335 6.0662
L7.7730 6.0057
" />
<path d="M7.7730 6.0057
L7.7126 5.8847
" />
<path d="M7.7126 5.8847
L7.7126 5.5219
" />
<path d="M7.7126 5.5219
L7.7730 5.4009
" />
<path d="M7.7730 5.4009
L7.8335 5.3404
" />
<path d="M7.8335 5.3404
L7.9545 5.2800
" />
<path d="M7.9545 5.2800
L8.1359 5.2800
" />
<path d="M8.1359 5.2800
L8.2568 5.3404
" />
<path d="M8.2568 5.3404
L8.3173 5.4009
" />
<path d="M8.3173 5.4009
L8.3778 5.5219
" />
<path d="M8.3778 5.5219
L8.3778 5.8847
" />
<path d="M8.3778 5.8847
L8.3173 6.0057
" />
<path d="M8.3173 6.0057
L8.2568 6.0662
" />
<path d="M8.2568 6.0662
L8.1359 6.1266
" />
<path d="M8.1359 6.1266
L7.9545 6.1266
" />
<path d="M9.1035 6.1266
L8.9825 6.0662
" />
<path d="M8.9825 6.0662
L8.9220 5.9452
" />
<path d="M8.9220 5.9452
L8.9220 4.8566
" />
<path d="M10.1315 6.1266
L10.1315 5.4614
" />
<path d="M10.1315 5.4614
L10.0710 5.3404
" />
<path d="M10.0710 5.3404
L9.9501 5.2800
" />
<path d="M9.9501 5.2800
L9.7082 5.2800
" />
<path d="M9.7082 5.2800
L9.5872 5.3404
" />
<path d="M10.1315 6.0662
L10.0106 6.1266
" />
<path d="M10.0106 6.1266
L9.7082 6.1266
" />
<path d="M9.7082 6.1266
L9.5872 6.0662
" />
<path d="M9.5872 6.0662
L9.5268 5.9452
" />
<path d="M9.5268 5.9452
L9.5268 5.8242
" />
<path d="M9.5268 5.8242
L9.5872 5.7033
" />
<path d="M9.5872 5.7033
L9.7082 5.6428
" />
<path d="M9.7082 5.6428
L10.0106 5.6428
" />
<path d="M10.0106 5.6428
L10.1315 5.5823
" />
<path d="M10.7362 6.1266
L10.7362 5.2800
" />
<path d="M10.7362 5.5219
L10.7967 5.4009
" />
<path d="M10.7967 5.4009
L10.8572 5.3404
" />
<path d="M10.8572 5.3404
L10.9781 5.2800
" />
<path d="M10.9781 5.2800
L11.0991 5.2800
" />
<path d="M11.5224 6.1266
L11.5224 5.2800
" />
<path d="M11.5224 4.8566
L11.4620 4.9171
" />
<path d="M11.4620 4.9171
L11.5224 4.9776
" />
<path d="M11.5224 4.9776
L11.5829 4.9171
" />
<path d="M11.5829 4.9171
L11.5224 4.8566
" />
<path d="M11.5224 4.8566
L11.5224 4.9776
" />
<path d="M12.0063 5.2800
L12.6715 5.2800
" />
<path d="M12.6715 5.2800
L12.0063 6.1266
" />
<path d="M12.0063 6.1266
L12.6715 6.1266
" />
<path d="M13.6391 6.0662
L13.5182 6.1266
" />
<path d="M13.5182 6.1266
L13.2763 6.1266
" />
<path d="M13.2763 6.1266
L13.1553 6.0662
" />
<path d="M13.1553 6.0662
L13.0949 5.9452
" />
<path d="M13.0949 5.9452
L13.0949 5.4614
" />
<path d="M13.0949 5.4614
L13.1553 5.3404
" />
<path d="M13.1553 5.3404
L13.2763 5.2800
" />
<path d="M13.2763 5.2800
L13.5182 5.2800
" />
<path d="M13.5182 5.2800
L13.6391 5.3404
" />
<path d="M13.6391 5.3404
L13.6996 5.4614
" />
<path d="M13.6996 5.4614
L13.6996 5.5823
" />
<path d="M13.6996 5.5823
L13.0949 5.7033
" />
<path d="M14.7882 6.1266
L14.7882 4.8566
" />
<path d="M14.7882 6.0662
L14.6673 6.1266
" />
<path d="M14.6673 6.1266
L14.4254 6.1266
" />
<path d="M14.4254 6.1266
L14.3044 6.0662
" />
<path d="M14.3044 6.0662
L14.2439 6.0057
" />
<path d="M14.2439 6.0057
L14.1835 5.8847
" />
<path d="M14.1835 5.8847
L14.1835 5.5219
" />
<path d="M14.1835 5.5219
L14.2439 5.4009
" />
<path d="M14.2439 5.4009
L14.3044 5.3404
" />
<path d="M14.3044 5.3404
L14.4254 5.2800
" />
<path d="M14.4254 5.2800
L14.6673 5.2800
" />
<path d="M14.6673 5.2800
L14.7882 5.3404
" />
<path d="M15.0906 6.2476
L16.0582 6.2476
" />
<path d="M16.3001 6.0662
L16.4815 6.1266
" />
<path d="M16.4815 6.1266
L16.7839 6.1266
" />
<path d="M16.7839 6.1266
L16.9048 6.0662
" />
<path d="M16.9048 6.0662
L16.9653 6.0057
" />
<path d="M16.9653 6.0057
L17.0258 5.8847
" />
<path d="M17.0258 5.8847
L17.0258 5.7638
" />
<path d="M17.0258 5.7638
L16.9653 5.6428
" />
<path d="M16.9653 5.6428
L16.9048 5.5823
" />
<path d="M16.9048 5.5823
L16.7839 5.5219
" />
<path d="M16.7839 5.5219
L16.5420 5.4614
" />
<path d="M16.5420 5.4614
L16.4210 5.4009
" />
<path d="M16.4210 5.4009
L16.3605 5.3404
" />
<path d="M16.3605 5.3404
L16.3001 5.2195
" />
<path d="M16.3001 5.2195
L16.3001 5.0985
" />
<path d="M16.3001 5.0985
L16.3605 4.9776
" />
<path d="M16.3605 4.9776
L16.4210 4.9171
" />
<path d="M16.4210 4.9171
L16.5420 4.8566
" />
<path d="M16.5420 4.8566
L16.8443 4.8566
" />
<path d="M16.8443 4.8566
L17.0258 4.9171
" />
<path d="M17.5700 6.1266
L17.5700 5.2800
" />
<path d="M17.5700 5.4009
L17.6305 5.3404
" />
<path d="M17.6305 5.3404
L17.7515 5.2800
" />
<path d="M17.7515 5.2800
L17.9329 5.2800
" />
<path d="M17.9329 5.2800
L18.0538 5.3404
" />
<path d="M18.0538 5.3404
L18.1143 5.4614
" />
<path d="M18.1143 5.4614
L18.1143 6.1266
" />
<path d="M18.1143 5.4614
L18.1748 5.3404
" />
<path d="M18.1748 5.3404
L18.2957 5.2800
" />
<path d="M18.2957 5.2800
L18.4772 5.2800
" />
<path d="M18.4772 5.2800
L18.5981 5.3404
" />
<path d="M18.5981 5.3404
L18.6586 5.4614
" />
<path d="M18.6586 5.4614
L18.6586 6.1266
" />
<path d="M19.8076 6.1266
L19.8076 5.4614
" />
<path d="M19.8076 5.4614
L19.7471 5.3404
" />
<path d="M19.7471 5.3404
L19.6262 5.2800
" />
<path d="M19.6262 5.2800
L19.3843 5.2800
" />
<path d="M19.3843 5.2800
L19.2633 5.3404
" />
<path d="M19.8076 6.0662
L19.6867 6.1266
" />
<path d="M19.6867 6.1266
L19.3843 6.1266
" />
<path d="M19.3843 6.1266
L19.2633 6.0662
" />
<path d="M19.2633 6.0662
L19.2029 5.9452
" />
<path d="M19.2029 5.9452
L19.2029 5.8242
" />
<path d="M19.2029 5.8242
L19.2633 5.7033
" />
<path d="M19.2633 5.7033
L19.3843 5.6428
" />
<path d="M19.3843 5.6428
L19.6867 5.6428
" />
<path d="M19.6867 5.6428
L19.8076 5.5823
" />
<path d="M20.5938 6.1266
L20.4728 6.0662
" />
<path d="M20.4728 6.0662
L20.4123 5.9452
" />
<path d="M20.4123 5.9452
L20.4123 4.8566
" />
<path d="M21.2590 6.1266
L21.1380 6.0662
" />
<path d="M21.1380 6.0662
L21.0775 5.9452
" />
<path d="M21.0775 5.9452
L21.0775 4.8566
" />
</g></g> 
</svg>
