<?xml version="1.0" standalone="no"?>
 <!DOCTYPE svg PUBLIC "-//W3C//DTD SVG 1.1//EN" 
 "http://www.w3.org/Graphics/SVG/1.1/DTD/svg11.dtd"> 
<svg
  xmlns:svg="http://www.w3.org/2000/svg"
  xmlns="http://www.w3.org/2000/svg"
  xmlns:xlink="http://www.w3.org/1999/xlink"
  xmlns:inkscape="http://www.inkscape.org/namespaces/inkscape"
  version="1.1"
  width="100%" height="100%" viewBox="0.000000 0.000000 15.189200 5.816600">
<title>SVG Image created as Coax_Conn_U.FL.svg date 2026-04-16T04:34:54 </title>
  <desc>Image generated by PCBNEW </desc>
<g style="fill:#000000; fill-opacity:1.000000;stroke:#000000; stroke-opacity:1.000000;
stroke-linecap:round; stroke-linejoin:round;"
 transform="translate(0 0) scale(1 1)">
<path style="fill:#C83434; fill-opacity:1.000000; stroke:none;fill-rule:evenodd;"
d="M 5.591190,2.925000
5.591190,0.725000
6.641190,0.725000
6.641190,2.925000
Z" /> 
<path style="fill:#C83434; fill-opacity:1.000000; stroke:none;fill-rule:evenodd;"
d="M 8.541190,2.925000
8.541190,0.725000
9.591190,0.725000
9.591190,2.925000
Z" /> 
<path style="fill:#C83434; fill-opacity:1.000000; stroke:none;fill-rule:evenodd;"
d="M 7.091190,3.850000
7.091190,2.800000
8.091190,2.800000
8.091190,3.850000
Z" /> 
<path style="fill:#D864FF; fill-opacity:0.400000; stroke:none;fill-rule:evenodd;"
d="M 5.591190,2.925000
5.591190,0.725000
6.641190,0.725000
6.641190,2.925000
Z" /> 
<path style="fill:#D864FF; fill-opacity:0.400000; stroke:none;fill-rule:evenodd;"
d="M 8.541190,2.925000
8.541190,0.725000
9.591190,0.725000
9.591190,2.925000
Z" /> 
<path style="fill:#D864FF; fill-opacity:0.400000; stroke:none;fill-rule:evenodd;"
d="M 7.091190,3.850000
7.091190,2.800000
8.091190,2.800000
8.091190,3.850000
Z" /> 
<path style="fill:#B4A09A; fill-opacity:0.900000; stroke:none;fill-rule:evenodd;"
d="M 5.591190,2.925000
5.591190,0.725000
6.641190,0.725000
6.641190,2.925000
Z" /> 
<path style="fill:#B4A09A; fill-opacity:0.900000; stroke:none;fill-rule:evenodd;"
d="M 8.541190,2.925000
8.541190,0.725000
9.591190,0.725000
9.591190,2.925000
Z" /> 
<path style="fill:#B4A09A; fill-opacity:0.900000; stroke:none;fill-rule:evenodd;"
d="M 7.091190,3.850000
7.091190,2.800000
8.091190,2.800000
8.091190,3.850000
Z" /> 
</g>
<g style="fill:none; 
stroke:#F2EDA1; stroke-width:0.050000; stroke-opacity:1; 
stroke-linecap:round; stroke-linejoin:round;">
<g transform="rotate(-90.000000 8.184850 1.791480)">
<text x="8.184850" y="1.891480"
textLength="0.967143" font-size="0.266666" lengthAdjust="spacingAndGlyphs"
text-anchor="middle" opacity="0" stroke-opacity="0">REF**</text>
</g>
<g class="stroked-text"><desc>REF**</desc>
<path d="M8.274773 2.058146
L8.179535 2.124812
" />
<path d="M8.274773 2.172431
L8.074773 2.172431
" />
<path d="M8.074773 2.172431
L8.074773 2.096241
" />
<path d="M8.074773 2.096241
L8.084297 2.077193
" />
<path d="M8.084297 2.077193
L8.093821 2.067670
" />
<path d="M8.093821 2.067670
L8.112869 2.058146
" />
<path d="M8.112869 2.058146
L8.141440 2.058146
" />
<path d="M8.141440 2.058146
L8.160488 2.067670
" />
<path d="M8.160488 2.067670
L8.170011 2.077193
" />
<path d="M8.170011 2.077193
L8.179535 2.096241
" />
<path d="M8.179535 2.096241
L8.179535 2.172431
" />
<path d="M8.170011 1.972431
L8.170011 1.905765
" />
<path d="M8.274773 1.877193
L8.274773 1.972431
" />
<path d="M8.274773 1.972431
L8.074773 1.972431
" />
<path d="M8.074773 1.972431
L8.074773 1.877193
" />
<path d="M8.170011 1.724814
L8.170011 1.791480
" />
<path d="M8.274773 1.791480
L8.074773 1.791480
" />
<path d="M8.074773 1.791480
L8.074773 1.696242
" />
<path d="M8.074773 1.591480
L8.122392 1.591480
" />
<path d="M8.103345 1.639099
L8.122392 1.591480
" />
<path d="M8.122392 1.591480
L8.103345 1.543861
" />
<path d="M8.160488 1.620051
L8.122392 1.591480
" />
<path d="M8.122392 1.591480
L8.160488 1.562909
" />
<path d="M8.074773 1.439099
L8.122392 1.439099
" />
<path d="M8.103345 1.486718
L8.122392 1.439099
" />
<path d="M8.122392 1.439099
L8.103345 1.391480
" />
<path d="M8.160488 1.467670
L8.122392 1.439099
" />
<path d="M8.122392 1.439099
L8.160488 1.410528
" />
</g><path d="M5.991190 0.175000
L5.991190 0.675000
" />
<path d="M5.991190 0.175000
L6.491190 0.175000
" />
<path d="M5.991190 3.475000
L5.991190 2.975000
" />
<path d="M5.991190 3.475000
L6.491190 3.475000
" />
<path d="M9.191190 0.175000
L8.691190 0.175000
" />
<path d="M9.191190 0.175000
L9.191190 0.675000
" />
<path d="M9.191190 3.475000
L8.691190 3.475000
" />
<path d="M9.191190 3.475000
L9.191190 2.975000
" />
</g>
<g style="fill:none; 
stroke:#FF26E2; stroke-width:0.050000; stroke-opacity:1; 
stroke-linecap:round; stroke-linejoin:round;">
<path d="M5.341190 0.025000
L5.341190 4.105000
" />
<path d="M5.341190 0.025000
L9.841190 0.025000
" />
<path d="M5.341190 4.105000
L9.841190 4.105000
" />
<path d="M9.841190 0.025000
L9.841190 4.105000
" />
</g>
<g style="fill:none; 
stroke:#AFAFAF; stroke-width:0.150000; stroke-opacity:1; 
stroke-linecap:round; stroke-linejoin:round;">
<text x="7.601190" y="5.475000"
textLength="15.202381" font-size="1.333333" lengthAdjust="spacingAndGlyphs"
text-anchor="middle" opacity="0" stroke-opacity="0">U.FL-R-SMT-1(10)</text>
<g class="stroked-text"><desc>U.FL-R-SMT-1(10)</desc>
<path d="M0.363096 4.429819
L0.363096 5.239342
" />
<path d="M0.363096 5.239342
L0.410715 5.334580
" />
<path d="M0.410715 5.334580
L0.458334 5.382200
" />
<path d="M0.458334 5.382200
L0.553572 5.429819
" />
<path d="M0.553572 5.429819
L0.744048 5.429819
" />
<path d="M0.744048 5.429819
L0.839286 5.382200
" />
<path d="M0.839286 5.382200
L0.886905 5.334580
" />
<path d="M0.886905 5.334580
L0.934524 5.239342
" />
<path d="M0.934524 5.239342
L0.934524 4.429819
" />
<path d="M1.410715 5.334580
L1.458334 5.382200
" />
<path d="M1.458334 5.382200
L1.410715 5.429819
" />
<path d="M1.410715 5.429819
L1.363096 5.382200
" />
<path d="M1.363096 5.382200
L1.410715 5.334580
" />
<path d="M1.410715 5.334580
L1.410715 5.429819
" />
<path d="M2.220238 4.906009
L1.886905 4.906009
" />
<path d="M1.886905 5.429819
L1.886905 4.429819
" />
<path d="M1.886905 4.429819
L2.363095 4.429819
" />
<path d="M3.220238 5.429819
L2.744048 5.429819
" />
<path d="M2.744048 5.429819
L2.744048 4.429819
" />
<path d="M3.553572 5.048866
L4.315476 5.048866
" />
<path d="M5.363095 5.429819
L5.029762 4.953628
" />
<path d="M4.791667 5.429819
L4.791667 4.429819
" />
<path d="M4.791667 4.429819
L5.172619 4.429819
" />
<path d="M5.172619 4.429819
L5.267857 4.477438
" />
<path d="M5.267857 4.477438
L5.315476 4.525057
" />
<path d="M5.315476 4.525057
L5.363095 4.620295
" />
<path d="M5.363095 4.620295
L5.363095 4.763152
" />
<path d="M5.363095 4.763152
L5.315476 4.858390
" />
<path d="M5.315476 4.858390
L5.267857 4.906009
" />
<path d="M5.267857 4.906009
L5.172619 4.953628
" />
<path d="M5.172619 4.953628
L4.791667 4.953628
" />
<path d="M5.791667 5.048866
L6.553571 5.048866
" />
<path d="M6.982143 5.382200
L7.125000 5.429819
" />
<path d="M7.125000 5.429819
L7.363095 5.429819
" />
<path d="M7.363095 5.429819
L7.458333 5.382200
" />
<path d="M7.458333 5.382200
L7.505952 5.334580
" />
<path d="M7.505952 5.334580
L7.553571 5.239342
" />
<path d="M7.553571 5.239342
L7.553571 5.144104
" />
<path d="M7.553571 5.144104
L7.505952 5.048866
" />
<path d="M7.505952 5.048866
L7.458333 5.001247
" />
<path d="M7.458333 5.001247
L7.363095 4.953628
" />
<path d="M7.363095 4.953628
L7.172619 4.906009
" />
<path d="M7.172619 4.906009
L7.077381 4.858390
" />
<path d="M7.077381 4.858390
L7.029762 4.810771
" />
<path d="M7.029762 4.810771
L6.982143 4.715533
" />
<path d="M6.982143 4.715533
L6.982143 4.620295
" />
<path d="M6.982143 4.620295
L7.029762 4.525057
" />
<path d="M7.029762 4.525057
L7.077381 4.477438
" />
<path d="M7.077381 4.477438
L7.172619 4.429819
" />
<path d="M7.172619 4.429819
L7.410714 4.429819
" />
<path d="M7.410714 4.429819
L7.553571 4.477438
" />
<path d="M7.982142 5.429819
L7.982142 4.429819
" />
<path d="M7.982142 4.429819
L8.315475 5.144104
" />
<path d="M8.315475 5.144104
L8.648808 4.429819
" />
<path d="M8.648808 4.429819
L8.648808 5.429819
" />
<path d="M8.982142 4.429819
L9.553570 4.429819
" />
<path d="M9.267856 5.429819
L9.267856 4.429819
" />
<path d="M9.886904 5.048866
L10.648809 5.048866
" />
<path d="M11.648808 5.429819
L11.077380 5.429819
" />
<path d="M11.363094 5.429819
L11.363094 4.429819
" />
<path d="M11.363094 4.429819
L11.267856 4.572676
" />
<path d="M11.267856 4.572676
L11.172618 4.667914
" />
<path d="M11.172618 4.667914
L11.077380 4.715533
" />
<path d="M12.363094 5.810771
L12.315475 5.763152
" />
<path d="M12.315475 5.763152
L12.220237 5.620295
" />
<path d="M12.220237 5.620295
L12.172618 5.525057
" />
<path d="M12.172618 5.525057
L12.124999 5.382200
" />
<path d="M12.124999 5.382200
L12.077380 5.144104
" />
<path d="M12.077380 5.144104
L12.077380 4.953628
" />
<path d="M12.077380 4.953628
L12.124999 4.715533
" />
<path d="M12.124999 4.715533
L12.172618 4.572676
" />
<path d="M12.172618 4.572676
L12.220237 4.477438
" />
<path d="M12.220237 4.477438
L12.315475 4.334580
" />
<path d="M12.315475 4.334580
L12.363094 4.286961
" />
<path d="M13.267856 5.429819
L12.696428 5.429819
" />
<path d="M12.982142 5.429819
L12.982142 4.429819
" />
<path d="M12.982142 4.429819
L12.886904 4.572676
" />
<path d="M12.886904 4.572676
L12.791666 4.667914
" />
<path d="M12.791666 4.667914
L12.696428 4.715533
" />
<path d="M13.886904 4.429819
L13.982142 4.429819
" />
<path d="M13.982142 4.429819
L14.077380 4.477438
" />
<path d="M14.077380 4.477438
L14.124999 4.525057
" />
<path d="M14.124999 4.525057
L14.172618 4.620295
" />
<path d="M14.172618 4.620295
L14.220237 4.810771
" />
<path d="M14.220237 4.810771
L14.220237 5.048866
" />
<path d="M14.220237 5.048866
L14.172618 5.239342
" />
<path d="M14.172618 5.239342
L14.124999 5.334580
" />
<path d="M14.124999 5.334580
L14.077380 5.382200
" />
<path d="M14.077380 5.382200
L13.982142 5.429819
" />
<path d="M13.982142 5.429819
L13.886904 5.429819
" />
<path d="M13.886904 5.429819
L13.791666 5.382200
" />
<path d="M13.791666 5.382200
L13.744047 5.334580
" />
<path d="M13.744047 5.334580
L13.696428 5.239342
" />
<path d="M13.696428 5.239342
L13.648809 5.048866
" />
<path d="M13.648809 5.048866
L13.648809 4.810771
" />
<path d="M13.648809 4.810771
L13.696428 4.620295
" />
<path d="M13.696428 4.620295
L13.744047 4.525057
" />
<path d="M13.744047 4.525057
L13.791666 4.477438
" />
<path d="M13.791666 4.477438
L13.886904 4.429819
" />
<path d="M14.553571 5.810771
L14.601190 5.763152
" />
<path d="M14.601190 5.763152
L14.696428 5.620295
" />
<path d="M14.696428 5.620295
L14.744047 5.525057
" />
<path d="M14.744047 5.525057
L14.791666 5.382200
" />
<path d="M14.791666 5.382200
L14.839285 5.144104
" />
<path d="M14.839285 5.144104
L14.839285 4.953628
" />
<path d="M14.839285 4.953628
L14.791666 4.715533
" />
<path d="M14.791666 4.715533
L14.744047 4.572676
" />
<path d="M14.744047 4.572676
L14.696428 4.477438
" />
<path d="M14.696428 4.477438
L14.601190 4.334580
" />
<path d="M14.601190 4.334580
L14.553571 4.286961
" />
</g></g>
<g style="fill:none; 
stroke:#AFAFAF; stroke-width:0.050000; stroke-opacity:1; 
stroke-linecap:round; stroke-linejoin:round;">
<text x="7.591190" y="2.075000"
textLength="2.192856" font-size="0.666666" lengthAdjust="spacingAndGlyphs"
text-anchor="middle" opacity="0" stroke-opacity="0">REF**</text>
<g class="stroked-text"><desc>REF**</desc>
<path d="M6.924524 2.053709
L6.757858 1.815615
" />
<path d="M6.638810 2.053709
L6.638810 1.553710
" />
<path d="M6.638810 1.553710
L6.829286 1.553710
" />
<path d="M6.829286 1.553710
L6.876905 1.577520
" />
<path d="M6.876905 1.577520
L6.900715 1.601329
" />
<path d="M6.900715 1.601329
L6.924524 1.648948
" />
<path d="M6.924524 1.648948
L6.924524 1.720377
" />
<path d="M6.924524 1.720377
L6.900715 1.767996
" />
<path d="M6.900715 1.767996
L6.876905 1.791805
" />
<path d="M6.876905 1.791805
L6.829286 1.815615
" />
<path d="M6.829286 1.815615
L6.638810 1.815615
" />
<path d="M7.138810 1.791805
L7.305477 1.791805
" />
<path d="M7.376905 2.053709
L7.138810 2.053709
" />
<path d="M7.138810 2.053709
L7.138810 1.553710
" />
<path d="M7.138810 1.553710
L7.376905 1.553710
" />
<path d="M7.757857 1.791805
L7.591190 1.791805
" />
<path d="M7.591190 2.053709
L7.591190 1.553710
" />
<path d="M7.591190 1.553710
L7.829285 1.553710
" />
<path d="M8.091190 1.553710
L8.091190 1.672758
" />
<path d="M7.972142 1.625139
L8.091190 1.672758
" />
<path d="M8.091190 1.672758
L8.210237 1.625139
" />
<path d="M8.019761 1.767996
L8.091190 1.672758
" />
<path d="M8.091190 1.672758
L8.162618 1.767996
" />
<path d="M8.472142 1.553710
L8.472142 1.672758
" />
<path d="M8.353094 1.625139
L8.472142 1.672758
" />
<path d="M8.472142 1.672758
L8.591189 1.625139
" />
<path d="M8.400713 1.767996
L8.472142 1.672758
" />
<path d="M8.472142 1.672758
L8.543570 1.767996
" />
</g></g>
<g style="fill:none; 
stroke:#AFAFAF; stroke-width:0.100000; stroke-opacity:1; 
stroke-linecap:round; stroke-linejoin:round;">
<path d="M6.091190 0.275000
L9.091190 0.275000
" />
<path d="M6.091190 3.375000
L6.091190 0.275000
" />
<path d="M6.091190 3.375000
L9.091190 3.375000
" />
<path d="M9.091190 3.375000
L9.091190 0.275000
" />
</g> 
</svg>
