<?xml version="1.0" standalone="no"?>
 <!DOCTYPE svg PUBLIC "-//W3C//DTD SVG 1.1//EN" 
 "http://www.w3.org/Graphics/SVG/1.1/DTD/svg11.dtd"> 
<svg
  xmlns:svg="http://www.w3.org/2000/svg"
  xmlns="http://www.w3.org/2000/svg"
  xmlns:xlink="http://www.w3.org/1999/xlink"
  xmlns:inkscape="http://www.inkscape.org/namespaces/inkscape"
  version="1.1"
  width="100%" height="100%" viewBox="0.0000 0.0000 11.2776 15.4940">
<title>SVG Image created as Conn_Coaxial_unit1.svg date 2026-04-16T03:01:03 </title>
  <desc>Image generated by Eeschema-SVG </desc>
<g style="fill:#000000; fill-opacity:1.0000;stroke:#000000; stroke-opacity:1.0000;
stroke-linecap:round; stroke-linejoin:round;"
 transform="translate(0 0) scale(1 1)">
<path style="fill:none; 
stroke:#840000; stroke-width:0.1524; stroke-opacity:1; 
stroke-linecap:round; stroke-linejoin:round;fill:none"
d="M 3.8580,7.7471
5.8900,7.7471
" /> 
</g>
<g style="fill:none; 
stroke:#840000; stroke-width:0.2540; stroke-opacity:1; 
stroke-linecap:round; stroke-linejoin:round;">
<path d="M4.6199 8.2551 A1.8124 1.8124 0.0 0 0 8.1759 7.7471" />
<path d="M8.1759 7.7470 A1.8123 1.8123 0.0 0 0 4.6199 7.2390" />
</g>
<g style="fill:none; 
stroke:#840000; stroke-width:0.2032; stroke-opacity:1; 
stroke-linecap:round; stroke-linejoin:round;">
<circle cx="6.3980" cy="7.7471" r="0.5080" /> 
<path style="fill:none; 
stroke:#840000; stroke-width:0.1524; stroke-opacity:1; 
stroke-linecap:round; stroke-linejoin:round;fill:none"
d="M 6.3980,10.2871
6.3980,9.5251
" /> 
</g>
<g style="fill:none; 
stroke:#840000; stroke-width:0.1524; stroke-opacity:1; 
stroke-linecap:round; stroke-linejoin:round;">
<path d="M3.8580 7.7471
L1.3180 7.7471
" />
</g>
<g style="fill:none; 
stroke:#A90000; stroke-width:0.1524; stroke-opacity:1; 
stroke-linecap:round; stroke-linejoin:round;">
<text x="2.5880" y="7.4931"
textLength="1.4127" font-size="1.6933" lengthAdjust="spacingAndGlyphs"
text-anchor="middle" opacity="0" stroke-opacity="0">1</text>
<g class="stroked-text"><desc>1</desc>
<path d="M2.9509 7.3296
L2.2252 7.3296
" />
<path d="M2.5880 7.3296
L2.5880 6.0596
" />
<path d="M2.5880 6.0596
L2.4671 6.2411
" />
<path d="M2.4671 6.2411
L2.3461 6.3620
" />
<path d="M2.3461 6.3620
L2.2252 6.4225
" />
</g></g>
<g style="fill:none; 
stroke:#840000; stroke-width:0.1524; stroke-opacity:1; 
stroke-linecap:round; stroke-linejoin:round;">
<path d="M6.3980 10.2871
L6.3980 12.8271
" />
</g>
<g style="fill:none; 
stroke:#A90000; stroke-width:0.1524; stroke-opacity:1; 
stroke-linecap:round; stroke-linejoin:round;">
<g transform="rotate(-90.000000 6.1440 11.5571)">
<text x="6.1440" y="11.5571"
textLength="1.4127" font-size="1.6933" lengthAdjust="spacingAndGlyphs"
text-anchor="middle" opacity="0" stroke-opacity="0">2</text>
</g>
<g class="stroked-text"><desc>2</desc>
<path d="M4.8315 11.9198
L4.7710 11.8594
" />
<path d="M4.7710 11.8594
L4.7105 11.7384
" />
<path d="M4.7105 11.7384
L4.7105 11.4360
" />
<path d="M4.7105 11.4360
L4.7710 11.3151
" />
<path d="M4.7710 11.3151
L4.8315 11.2546
" />
<path d="M4.8315 11.2546
L4.9524 11.1941
" />
<path d="M4.9524 11.1941
L5.0734 11.1941
" />
<path d="M5.0734 11.1941
L5.2548 11.2546
" />
<path d="M5.2548 11.2546
L5.9805 11.9803
" />
<path d="M5.9805 11.9803
L5.9805 11.1941
" />
</g></g>
<g style="fill:none; 
stroke:#006464; stroke-width:0.1524; stroke-opacity:1; 
stroke-linecap:round; stroke-linejoin:round;">
<text x="6.6520" y="5.3341"
textLength="2.2594" font-size="1.6933" lengthAdjust="spacingAndGlyphs"
text-anchor="middle" opacity="0" stroke-opacity="0">J?</text>
<g class="stroked-text"><desc>J?</desc>
<path d="M6.2891 4.0086
L6.2891 4.9158
" />
<path d="M6.2891 4.9158
L6.2286 5.0972
" />
<path d="M6.2286 5.0972
L6.1077 5.2182
" />
<path d="M6.1077 5.2182
L5.9262 5.2786
" />
<path d="M5.9262 5.2786
L5.8053 5.2786
" />
<path d="M7.0753 5.1577
L7.1357 5.2182
" />
<path d="M7.1357 5.2182
L7.0753 5.2786
" />
<path d="M7.0753 5.2786
L7.0148 5.2182
" />
<path d="M7.0148 5.2182
L7.0753 5.1577
" />
<path d="M7.0753 5.1577
L7.0753 5.2786
" />
<path d="M6.8334 4.0691
L6.9543 4.0086
" />
<path d="M6.9543 4.0086
L7.2567 4.0086
" />
<path d="M7.2567 4.0086
L7.3776 4.0691
" />
<path d="M7.3776 4.0691
L7.4381 4.1901
" />
<path d="M7.4381 4.1901
L7.4381 4.3110
" />
<path d="M7.4381 4.3110
L7.3776 4.4320
" />
<path d="M7.3776 4.4320
L7.3172 4.4924
" />
<path d="M7.3172 4.4924
L7.1962 4.5529
" />
<path d="M7.1962 4.5529
L7.1357 4.6134
" />
<path d="M7.1357 4.6134
L7.0753 4.7343
" />
<path d="M7.0753 4.7343
L7.0753 4.7948
" />
</g><g transform="rotate(-90.000000 9.3190 7.7471)">
<text x="9.3190" y="8.3821"
textLength="12.9029" font-size="1.6933" lengthAdjust="spacingAndGlyphs"
text-anchor="middle" opacity="0" stroke-opacity="0">Conn_Coaxial</text>
</g>
<g class="stroked-text"><desc>Conn_Coaxial</desc>
<path d="M9.7776 13.0688
L9.8381 13.1292
" />
<path d="M9.8381 13.1292
L9.8985 13.3107
" />
<path d="M9.8985 13.3107
L9.8985 13.4316
" />
<path d="M9.8985 13.4316
L9.8381 13.6130
" />
<path d="M9.8381 13.6130
L9.7171 13.7340
" />
<path d="M9.7171 13.7340
L9.5961 13.7945
" />
<path d="M9.5961 13.7945
L9.3542 13.8549
" />
<path d="M9.3542 13.8549
L9.1728 13.8549
" />
<path d="M9.1728 13.8549
L8.9309 13.7945
" />
<path d="M8.9309 13.7945
L8.8100 13.7340
" />
<path d="M8.8100 13.7340
L8.6890 13.6130
" />
<path d="M8.6890 13.6130
L8.6285 13.4316
" />
<path d="M8.6285 13.4316
L8.6285 13.3107
" />
<path d="M8.6285 13.3107
L8.6890 13.1292
" />
<path d="M8.6890 13.1292
L8.7495 13.0688
" />
<path d="M9.8985 12.3430
L9.8381 12.4640
" />
<path d="M9.8381 12.4640
L9.7776 12.5245
" />
<path d="M9.7776 12.5245
L9.6566 12.5849
" />
<path d="M9.6566 12.5849
L9.2938 12.5849
" />
<path d="M9.2938 12.5849
L9.1728 12.5245
" />
<path d="M9.1728 12.5245
L9.1123 12.4640
" />
<path d="M9.1123 12.4640
L9.0519 12.3430
" />
<path d="M9.0519 12.3430
L9.0519 12.1616
" />
<path d="M9.0519 12.1616
L9.1123 12.0407
" />
<path d="M9.1123 12.0407
L9.1728 11.9802
" />
<path d="M9.1728 11.9802
L9.2938 11.9197
" />
<path d="M9.2938 11.9197
L9.6566 11.9197
" />
<path d="M9.6566 11.9197
L9.7776 11.9802
" />
<path d="M9.7776 11.9802
L9.8381 12.0407
" />
<path d="M9.8381 12.0407
L9.8985 12.1616
" />
<path d="M9.8985 12.1616
L9.8985 12.3430
" />
<path d="M9.0519 11.3755
L9.8985 11.3755
" />
<path d="M9.1728 11.3755
L9.1123 11.3150
" />
<path d="M9.1123 11.3150
L9.0519 11.1940
" />
<path d="M9.0519 11.1940
L9.0519 11.0126
" />
<path d="M9.0519 11.0126
L9.1123 10.8917
" />
<path d="M9.1123 10.8917
L9.2333 10.8312
" />
<path d="M9.2333 10.8312
L9.8985 10.8312
" />
<path d="M9.0519 10.2265
L9.8985 10.2265
" />
<path d="M9.1728 10.2265
L9.1123 10.1660
" />
<path d="M9.1123 10.1660
L9.0519 10.0450
" />
<path d="M9.0519 10.0450
L9.0519 9.8636
" />
<path d="M9.0519 9.8636
L9.1123 9.7427
" />
<path d="M9.1123 9.7427
L9.2333 9.6822
" />
<path d="M9.2333 9.6822
L9.8985 9.6822
" />
<path d="M10.0195 9.3799
L10.0195 8.4122
" />
<path d="M9.7776 7.3842
L9.8381 7.4446
" />
<path d="M9.8381 7.4446
L9.8985 7.6261
" />
<path d="M9.8985 7.6261
L9.8985 7.7470
" />
<path d="M9.8985 7.7470
L9.8381 7.9284
" />
<path d="M9.8381 7.9284
L9.7171 8.0494
" />
<path d="M9.7171 8.0494
L9.5961 8.1099
" />
<path d="M9.5961 8.1099
L9.3542 8.1703
" />
<path d="M9.3542 8.1703
L9.1728 8.1703
" />
<path d="M9.1728 8.1703
L8.9309 8.1099
" />
<path d="M8.9309 8.1099
L8.8100 8.0494
" />
<path d="M8.8100 8.0494
L8.6890 7.9284
" />
<path d="M8.6890 7.9284
L8.6285 7.7470
" />
<path d="M8.6285 7.7470
L8.6285 7.6261
" />
<path d="M8.6285 7.6261
L8.6890 7.4446
" />
<path d="M8.6890 7.4446
L8.7495 7.3842
" />
<path d="M9.8985 6.6584
L9.8381 6.7794
" />
<path d="M9.8381 6.7794
L9.7776 6.8399
" />
<path d="M9.7776 6.8399
L9.6566 6.9003
" />
<path d="M9.6566 6.9003
L9.2938 6.9003
" />
<path d="M9.2938 6.9003
L9.1728 6.8399
" />
<path d="M9.1728 6.8399
L9.1123 6.7794
" />
<path d="M9.1123 6.7794
L9.0519 6.6584
" />
<path d="M9.0519 6.6584
L9.0519 6.4770
" />
<path d="M9.0519 6.4770
L9.1123 6.3561
" />
<path d="M9.1123 6.3561
L9.1728 6.2956
" />
<path d="M9.1728 6.2956
L9.2938 6.2351
" />
<path d="M9.2938 6.2351
L9.6566 6.2351
" />
<path d="M9.6566 6.2351
L9.7776 6.2956
" />
<path d="M9.7776 6.2956
L9.8381 6.3561
" />
<path d="M9.8381 6.3561
L9.8985 6.4770
" />
<path d="M9.8985 6.4770
L9.8985 6.6584
" />
<path d="M9.8985 5.1466
L9.2333 5.1466
" />
<path d="M9.2333 5.1466
L9.1123 5.2071
" />
<path d="M9.1123 5.2071
L9.0519 5.3280
" />
<path d="M9.0519 5.3280
L9.0519 5.5699
" />
<path d="M9.0519 5.5699
L9.1123 5.6909
" />
<path d="M9.8381 5.1466
L9.8985 5.2675
" />
<path d="M9.8985 5.2675
L9.8985 5.5699
" />
<path d="M9.8985 5.5699
L9.8381 5.6909
" />
<path d="M9.8381 5.6909
L9.7171 5.7513
" />
<path d="M9.7171 5.7513
L9.5961 5.7513
" />
<path d="M9.5961 5.7513
L9.4752 5.6909
" />
<path d="M9.4752 5.6909
L9.4147 5.5699
" />
<path d="M9.4147 5.5699
L9.4147 5.2675
" />
<path d="M9.4147 5.2675
L9.3542 5.1466
" />
<path d="M9.8985 4.6628
L9.0519 3.9976
" />
<path d="M9.0519 4.6628
L9.8985 3.9976
" />
<path d="M9.8985 3.5138
L9.0519 3.5138
" />
<path d="M8.6285 3.5138
L8.6890 3.5742
" />
<path d="M8.6890 3.5742
L8.7495 3.5138
" />
<path d="M8.7495 3.5138
L8.6890 3.4533
" />
<path d="M8.6890 3.4533
L8.6285 3.5138
" />
<path d="M8.6285 3.5138
L8.7495 3.5138
" />
<path d="M9.8985 2.3647
L9.2333 2.3647
" />
<path d="M9.2333 2.3647
L9.1123 2.4252
" />
<path d="M9.1123 2.4252
L9.0519 2.5461
" />
<path d="M9.0519 2.5461
L9.0519 2.7880
" />
<path d="M9.0519 2.7880
L9.1123 2.9090
" />
<path d="M9.8381 2.3647
L9.8985 2.4856
" />
<path d="M9.8985 2.4856
L9.8985 2.7880
" />
<path d="M9.8985 2.7880
L9.8381 2.9090
" />
<path d="M9.8381 2.9090
L9.7171 2.9694
" />
<path d="M9.7171 2.9694
L9.5961 2.9694
" />
<path d="M9.5961 2.9694
L9.4752 2.9090
" />
<path d="M9.4752 2.9090
L9.4147 2.7880
" />
<path d="M9.4147 2.7880
L9.4147 2.4856
" />
<path d="M9.4147 2.4856
L9.3542 2.3647
" />
<path d="M9.8985 1.5785
L9.8381 1.6995
" />
<path d="M9.8381 1.6995
L9.7171 1.7600
" />
<path d="M9.7171 1.7600
L8.6285 1.7600
" />
</g></g> 
</svg>
