<?xml version="1.0" standalone="no"?>
 <!DOCTYPE svg PUBLIC "-//W3C//DTD SVG 1.1//EN" 
 "http://www.w3.org/Graphics/SVG/1.1/DTD/svg11.dtd"> 
<svg
  xmlns:svg="http://www.w3.org/2000/svg"
  xmlns="http://www.w3.org/2000/svg"
  xmlns:xlink="http://www.w3.org/1999/xlink"
  xmlns:inkscape="http://www.inkscape.org/namespaces/inkscape"
  version="1.1"
  width="100%" height="100%" viewBox="0.0000 0.0000 12.5984 8.5598">
<title>SVG Image created as D_Schottky_unit1.svg date 2026-04-16T01:12:06 </title>
  <desc>Image generated by Eeschema-SVG </desc>
<g style="fill:#000000; fill-opacity:1.0000;stroke:#000000; stroke-opacity:1.0000;
stroke-linecap:round; stroke-linejoin:round;"
 transform="translate(0 0) scale(1 1)">
<path style="fill:none; 
stroke:#840000; stroke-width:0.2540; stroke-opacity:1; 
stroke-linecap:round; stroke-linejoin:round;fill:none"
d="M 4.3942,3.6449
4.3942,3.0099
5.0292,3.0099
5.0292,5.5499
5.6642,5.5499
5.6642,4.9149
" /> 
<path style="fill:none; 
stroke:#840000; stroke-width:0.2540; stroke-opacity:1; 
stroke-linecap:round; stroke-linejoin:round;fill:none"
d="M 7.5692,3.0099
7.5692,5.5499
5.0292,4.2799
Z" /> 
<path style="fill:none; 
stroke:#840000; stroke-width:0.1524; stroke-opacity:1; 
stroke-linecap:round; stroke-linejoin:round;fill:none"
d="M 7.5692,4.2799
5.0292,4.2799
" /> 
</g>
<g style="fill:none; 
stroke:#840000; stroke-width:0.1524; stroke-opacity:1; 
stroke-linecap:round; stroke-linejoin:round;">
<path d="M5.0292 4.2799
L2.4892 4.2799
" />
<path d="M7.5692 4.2799
L10.1092 4.2799
" />
</g>
<g style="fill:none; 
stroke:#006464; stroke-width:0.1524; stroke-opacity:1; 
stroke-linecap:round; stroke-linejoin:round;">
<text x="6.2992" y="2.3749"
textLength="2.5618" font-size="1.6933" lengthAdjust="spacingAndGlyphs"
text-anchor="middle" opacity="0" stroke-opacity="0">D?</text>
<g class="stroked-text"><desc>D?</desc>
<path d="M5.4222 2.3194
L5.4222 1.0494
" />
<path d="M5.4222 1.0494
L5.7246 1.0494
" />
<path d="M5.7246 1.0494
L5.9060 1.1099
" />
<path d="M5.9060 1.1099
L6.0270 1.2309
" />
<path d="M6.0270 1.2309
L6.0875 1.3518
" />
<path d="M6.0875 1.3518
L6.1479 1.5937
" />
<path d="M6.1479 1.5937
L6.1479 1.7751
" />
<path d="M6.1479 1.7751
L6.0875 2.0170
" />
<path d="M6.0875 2.0170
L6.0270 2.1380
" />
<path d="M6.0270 2.1380
L5.9060 2.2590
" />
<path d="M5.9060 2.2590
L5.7246 2.3194
" />
<path d="M5.7246 2.3194
L5.4222 2.3194
" />
<path d="M6.8737 2.1985
L6.9341 2.2590
" />
<path d="M6.9341 2.2590
L6.8737 2.3194
" />
<path d="M6.8737 2.3194
L6.8132 2.2590
" />
<path d="M6.8132 2.2590
L6.8737 2.1985
" />
<path d="M6.8737 2.1985
L6.8737 2.3194
" />
<path d="M6.6318 1.1099
L6.7527 1.0494
" />
<path d="M6.7527 1.0494
L7.0551 1.0494
" />
<path d="M7.0551 1.0494
L7.1760 1.1099
" />
<path d="M7.1760 1.1099
L7.2365 1.2309
" />
<path d="M7.2365 1.2309
L7.2365 1.3518
" />
<path d="M7.2365 1.3518
L7.1760 1.4728
" />
<path d="M7.1760 1.4728
L7.1156 1.5332
" />
<path d="M7.1156 1.5332
L6.9946 1.5937
" />
<path d="M6.9946 1.5937
L6.9341 1.6542
" />
<path d="M6.9341 1.6542
L6.8737 1.7751
" />
<path d="M6.8737 1.7751
L6.8737 1.8356
" />
</g><text x="6.2992" y="7.4549"
textLength="10.4840" font-size="1.6933" lengthAdjust="spacingAndGlyphs"
text-anchor="middle" opacity="0" stroke-opacity="0">D_Schottky</text>
<g class="stroked-text"><desc>D_Schottky</desc>
<path d="M1.4611 7.3994
L1.4611 6.1294
" />
<path d="M1.4611 6.1294
L1.7635 6.1294
" />
<path d="M1.7635 6.1294
L1.9449 6.1899
" />
<path d="M1.9449 6.1899
L2.0659 6.3109
" />
<path d="M2.0659 6.3109
L2.1264 6.4318
" />
<path d="M2.1264 6.4318
L2.1868 6.6737
" />
<path d="M2.1868 6.6737
L2.1868 6.8551
" />
<path d="M2.1868 6.8551
L2.1264 7.0970
" />
<path d="M2.1264 7.0970
L2.0659 7.2180
" />
<path d="M2.0659 7.2180
L1.9449 7.3390
" />
<path d="M1.9449 7.3390
L1.7635 7.3994
" />
<path d="M1.7635 7.3994
L1.4611 7.3994
" />
<path d="M2.4288 7.5204
L3.3964 7.5204
" />
<path d="M3.6383 7.3390
L3.8197 7.3994
" />
<path d="M3.8197 7.3994
L4.1221 7.3994
" />
<path d="M4.1221 7.3994
L4.2430 7.3390
" />
<path d="M4.2430 7.3390
L4.3035 7.2785
" />
<path d="M4.3035 7.2785
L4.3640 7.1575
" />
<path d="M4.3640 7.1575
L4.3640 7.0366
" />
<path d="M4.3640 7.0366
L4.3035 6.9156
" />
<path d="M4.3035 6.9156
L4.2430 6.8551
" />
<path d="M4.2430 6.8551
L4.1221 6.7947
" />
<path d="M4.1221 6.7947
L3.8802 6.7342
" />
<path d="M3.8802 6.7342
L3.7592 6.6737
" />
<path d="M3.7592 6.6737
L3.6987 6.6132
" />
<path d="M3.6987 6.6132
L3.6383 6.4923
" />
<path d="M3.6383 6.4923
L3.6383 6.3713
" />
<path d="M3.6383 6.3713
L3.6987 6.2504
" />
<path d="M3.6987 6.2504
L3.7592 6.1899
" />
<path d="M3.7592 6.1899
L3.8802 6.1294
" />
<path d="M3.8802 6.1294
L4.1825 6.1294
" />
<path d="M4.1825 6.1294
L4.3640 6.1899
" />
<path d="M5.4525 7.3390
L5.3316 7.3994
" />
<path d="M5.3316 7.3994
L5.0897 7.3994
" />
<path d="M5.0897 7.3994
L4.9687 7.3390
" />
<path d="M4.9687 7.3390
L4.9082 7.2785
" />
<path d="M4.9082 7.2785
L4.8478 7.1575
" />
<path d="M4.8478 7.1575
L4.8478 6.7947
" />
<path d="M4.8478 6.7947
L4.9082 6.6737
" />
<path d="M4.9082 6.6737
L4.9687 6.6132
" />
<path d="M4.9687 6.6132
L5.0897 6.5528
" />
<path d="M5.0897 6.5528
L5.3316 6.5528
" />
<path d="M5.3316 6.5528
L5.4525 6.6132
" />
<path d="M5.9968 7.3994
L5.9968 6.1294
" />
<path d="M6.5411 7.3994
L6.5411 6.7342
" />
<path d="M6.5411 6.7342
L6.4806 6.6132
" />
<path d="M6.4806 6.6132
L6.3597 6.5528
" />
<path d="M6.3597 6.5528
L6.1783 6.5528
" />
<path d="M6.1783 6.5528
L6.0573 6.6132
" />
<path d="M6.0573 6.6132
L5.9968 6.6737
" />
<path d="M7.3273 7.3994
L7.2063 7.3390
" />
<path d="M7.2063 7.3390
L7.1458 7.2785
" />
<path d="M7.1458 7.2785
L7.0854 7.1575
" />
<path d="M7.0854 7.1575
L7.0854 6.7947
" />
<path d="M7.0854 6.7947
L7.1458 6.6737
" />
<path d="M7.1458 6.6737
L7.2063 6.6132
" />
<path d="M7.2063 6.6132
L7.3273 6.5528
" />
<path d="M7.3273 6.5528
L7.5087 6.5528
" />
<path d="M7.5087 6.5528
L7.6296 6.6132
" />
<path d="M7.6296 6.6132
L7.6901 6.6737
" />
<path d="M7.6901 6.6737
L7.7506 6.7947
" />
<path d="M7.7506 6.7947
L7.7506 7.1575
" />
<path d="M7.7506 7.1575
L7.6901 7.2785
" />
<path d="M7.6901 7.2785
L7.6296 7.3390
" />
<path d="M7.6296 7.3390
L7.5087 7.3994
" />
<path d="M7.5087 7.3994
L7.3273 7.3994
" />
<path d="M8.1134 6.5528
L8.5972 6.5528
" />
<path d="M8.2948 6.1294
L8.2948 7.2180
" />
<path d="M8.2948 7.2180
L8.3553 7.3390
" />
<path d="M8.3553 7.3390
L8.4763 7.3994
" />
<path d="M8.4763 7.3994
L8.5972 7.3994
" />
<path d="M8.8391 6.5528
L9.3229 6.5528
" />
<path d="M9.0205 6.1294
L9.0205 7.2180
" />
<path d="M9.0205 7.2180
L9.0810 7.3390
" />
<path d="M9.0810 7.3390
L9.2020 7.3994
" />
<path d="M9.2020 7.3994
L9.3229 7.3994
" />
<path d="M9.7462 7.3994
L9.7462 6.1294
" />
<path d="M9.8672 6.9156
L10.2300 7.3994
" />
<path d="M10.2300 6.5528
L9.7462 7.0366
" />
<path d="M10.6534 6.5528
L10.9558 7.3994
" />
<path d="M11.2581 6.5528
L10.9558 7.3994
" />
<path d="M10.9558 7.3994
L10.8348 7.7018
" />
<path d="M10.8348 7.7018
L10.7743 7.7623
" />
<path d="M10.7743 7.7623
L10.6534 7.8228
" />
</g></g> 
</svg>
