<?xml version="1.0" standalone="no"?>
 <!DOCTYPE svg PUBLIC "-//W3C//DTD SVG 1.1//EN" 
 "http://www.w3.org/Graphics/SVG/1.1/DTD/svg11.dtd"> 
<svg
  xmlns:svg="http://www.w3.org/2000/svg"
  xmlns="http://www.w3.org/2000/svg"
  xmlns:xlink="http://www.w3.org/1999/xlink"
  xmlns:inkscape="http://www.inkscape.org/namespaces/inkscape"
  version="1.1"
  width="100%" height="100%" viewBox="0.000000 0.000000 21.082000 3.962400">
<title>SVG Image created as DFN10_3x3_11P50_300X300X100L40X24T250X180N.svg date 2026-04-16T00:23:25 </title>
  <desc>Image generated by PCBNEW </desc>
<g style="fill:#000000; fill-opacity:1.000000;stroke:#000000; stroke-opacity:1.000000;
stroke-linecap:round; stroke-linejoin:round;"
 transform="translate(0 0) scale(1 1)">
<path style="fill:#C83434; fill-opacity:1.000000; stroke:none;fill-rule:evenodd;"
d="M 9.415714,3.085000
9.675714,3.085000
9.675714,3.745000
9.415714,3.745000
Z" /> 
<path style="fill:#C83434; fill-opacity:1.000000; stroke:none;fill-rule:evenodd;"
d="M 9.915714,3.085000
10.175714,3.085000
10.175714,3.745000
9.915714,3.745000
Z" /> 
<path style="fill:#C83434; fill-opacity:1.000000; stroke:none;fill-rule:evenodd;"
d="M 10.415714,3.085000
10.675714,3.085000
10.675714,3.745000
10.415714,3.745000
Z" /> 
<path style="fill:#C83434; fill-opacity:1.000000; stroke:none;fill-rule:evenodd;"
d="M 10.915714,3.085000
11.175714,3.085000
11.175714,3.745000
10.915714,3.745000
Z" /> 
<path style="fill:#C83434; fill-opacity:1.000000; stroke:none;fill-rule:evenodd;"
d="M 11.415714,3.085000
11.675714,3.085000
11.675714,3.745000
11.415714,3.745000
Z" /> 
<path style="fill:#C83434; fill-opacity:1.000000; stroke:none;fill-rule:evenodd;"
d="M 11.415714,0.225000
11.675714,0.225000
11.675714,0.885000
11.415714,0.885000
Z" /> 
<path style="fill:#C83434; fill-opacity:1.000000; stroke:none;fill-rule:evenodd;"
d="M 10.915714,0.225000
11.175714,0.225000
11.175714,0.885000
10.915714,0.885000
Z" /> 
<path style="fill:#C83434; fill-opacity:1.000000; stroke:none;fill-rule:evenodd;"
d="M 10.415714,0.225000
10.675714,0.225000
10.675714,0.885000
10.415714,0.885000
Z" /> 
<path style="fill:#C83434; fill-opacity:1.000000; stroke:none;fill-rule:evenodd;"
d="M 9.915714,0.225000
10.175714,0.225000
10.175714,0.885000
9.915714,0.885000
Z" /> 
<path style="fill:#C83434; fill-opacity:1.000000; stroke:none;fill-rule:evenodd;"
d="M 9.415714,0.225000
9.675714,0.225000
9.675714,0.885000
9.415714,0.885000
Z" /> 
<path style="fill:#C83434; fill-opacity:1.000000; stroke:none;fill-rule:evenodd;"
d="M 9.295714,1.085000
11.795714,1.085000
11.795714,2.885000
9.295714,2.885000
Z" /> 
<path style="fill:#D864FF; fill-opacity:0.400000; stroke:none;fill-rule:evenodd;"
d="M 9.415714,3.085000
9.675714,3.085000
9.675714,3.745000
9.415714,3.745000
Z" /> 
<path style="fill:#D864FF; fill-opacity:0.400000; stroke:none;fill-rule:evenodd;"
d="M 9.915714,3.085000
10.175714,3.085000
10.175714,3.745000
9.915714,3.745000
Z" /> 
<path style="fill:#D864FF; fill-opacity:0.400000; stroke:none;fill-rule:evenodd;"
d="M 10.415714,3.085000
10.675714,3.085000
10.675714,3.745000
10.415714,3.745000
Z" /> 
<path style="fill:#D864FF; fill-opacity:0.400000; stroke:none;fill-rule:evenodd;"
d="M 10.915714,3.085000
11.175714,3.085000
11.175714,3.745000
10.915714,3.745000
Z" /> 
<path style="fill:#D864FF; fill-opacity:0.400000; stroke:none;fill-rule:evenodd;"
d="M 11.415714,3.085000
11.675714,3.085000
11.675714,3.745000
11.415714,3.745000
Z" /> 
<path style="fill:#D864FF; fill-opacity:0.400000; stroke:none;fill-rule:evenodd;"
d="M 11.415714,0.225000
11.675714,0.225000
11.675714,0.885000
11.415714,0.885000
Z" /> 
<path style="fill:#D864FF; fill-opacity:0.400000; stroke:none;fill-rule:evenodd;"
d="M 10.915714,0.225000
11.175714,0.225000
11.175714,0.885000
10.915714,0.885000
Z" /> 
<path style="fill:#D864FF; fill-opacity:0.400000; stroke:none;fill-rule:evenodd;"
d="M 10.415714,0.225000
10.675714,0.225000
10.675714,0.885000
10.415714,0.885000
Z" /> 
<path style="fill:#D864FF; fill-opacity:0.400000; stroke:none;fill-rule:evenodd;"
d="M 9.915714,0.225000
10.175714,0.225000
10.175714,0.885000
9.915714,0.885000
Z" /> 
<path style="fill:#D864FF; fill-opacity:0.400000; stroke:none;fill-rule:evenodd;"
d="M 9.415714,0.225000
9.675714,0.225000
9.675714,0.885000
9.415714,0.885000
Z" /> 
<path style="fill:#D864FF; fill-opacity:0.400000; stroke:none;fill-rule:evenodd;"
d="M 9.295714,1.085000
11.795714,1.085000
11.795714,2.885000
9.295714,2.885000
Z" /> 
<path style="fill:#B4A09A; fill-opacity:0.900000; stroke:none;fill-rule:evenodd;"
d="M 9.495714,1.285000
10.445714,1.285000
10.445714,1.885000
9.495714,1.885000
Z" /> 
<path style="fill:#B4A09A; fill-opacity:0.900000; stroke:none;fill-rule:evenodd;"
d="M 9.495714,2.085000
10.445714,2.085000
10.445714,2.685000
9.495714,2.685000
Z" /> 
<path style="fill:#B4A09A; fill-opacity:0.900000; stroke:none;fill-rule:evenodd;"
d="M 10.645714,1.285000
11.595714,1.285000
11.595714,1.885000
10.645714,1.885000
Z" /> 
<path style="fill:#B4A09A; fill-opacity:0.900000; stroke:none;fill-rule:evenodd;"
d="M 10.645714,2.085000
11.595714,2.085000
11.595714,2.685000
10.645714,2.685000
Z" /> 
<path style="fill:#B4A09A; fill-opacity:0.900000; stroke:none;fill-rule:evenodd;"
d="M 9.415714,3.085000
9.675714,3.085000
9.675714,3.745000
9.415714,3.745000
Z" /> 
<path style="fill:#B4A09A; fill-opacity:0.900000; stroke:none;fill-rule:evenodd;"
d="M 9.915714,3.085000
10.175714,3.085000
10.175714,3.745000
9.915714,3.745000
Z" /> 
<path style="fill:#B4A09A; fill-opacity:0.900000; stroke:none;fill-rule:evenodd;"
d="M 10.415714,3.085000
10.675714,3.085000
10.675714,3.745000
10.415714,3.745000
Z" /> 
<path style="fill:#B4A09A; fill-opacity:0.900000; stroke:none;fill-rule:evenodd;"
d="M 10.915714,3.085000
11.175714,3.085000
11.175714,3.745000
10.915714,3.745000
Z" /> 
<path style="fill:#B4A09A; fill-opacity:0.900000; stroke:none;fill-rule:evenodd;"
d="M 11.415714,3.085000
11.675714,3.085000
11.675714,3.745000
11.415714,3.745000
Z" /> 
<path style="fill:#B4A09A; fill-opacity:0.900000; stroke:none;fill-rule:evenodd;"
d="M 11.415714,0.225000
11.675714,0.225000
11.675714,0.885000
11.415714,0.885000
Z" /> 
<path style="fill:#B4A09A; fill-opacity:0.900000; stroke:none;fill-rule:evenodd;"
d="M 10.915714,0.225000
11.175714,0.225000
11.175714,0.885000
10.915714,0.885000
Z" /> 
<path style="fill:#B4A09A; fill-opacity:0.900000; stroke:none;fill-rule:evenodd;"
d="M 10.415714,0.225000
10.675714,0.225000
10.675714,0.885000
10.415714,0.885000
Z" /> 
<path style="fill:#B4A09A; fill-opacity:0.900000; stroke:none;fill-rule:evenodd;"
d="M 9.915714,0.225000
10.175714,0.225000
10.175714,0.885000
9.915714,0.885000
Z" /> 
<path style="fill:#B4A09A; fill-opacity:0.900000; stroke:none;fill-rule:evenodd;"
d="M 9.415714,0.225000
9.675714,0.225000
9.675714,0.885000
9.415714,0.885000
Z" /> 
</g>
<g style="fill:none; 
stroke:#F2EDA1; stroke-width:0.050000; stroke-opacity:1; 
stroke-linecap:round; stroke-linejoin:round;">
<g transform="rotate(-90.000000 11.825114 0.916880)">
<text x="11.825114" y="1.016880"
textLength="0.967143" font-size="0.266666" lengthAdjust="spacingAndGlyphs"
text-anchor="middle" opacity="0" stroke-opacity="0">REF**</text>
</g>
<g class="stroked-text"><desc>REF**</desc>
<path d="M11.915037 1.183547
L11.819799 1.250213
" />
<path d="M11.915037 1.297832
L11.715037 1.297832
" />
<path d="M11.715037 1.297832
L11.715037 1.221642
" />
<path d="M11.715037 1.221642
L11.724561 1.202594
" />
<path d="M11.724561 1.202594
L11.734085 1.193071
" />
<path d="M11.734085 1.193071
L11.753133 1.183547
" />
<path d="M11.753133 1.183547
L11.781704 1.183547
" />
<path d="M11.781704 1.183547
L11.800752 1.193071
" />
<path d="M11.800752 1.193071
L11.810275 1.202594
" />
<path d="M11.810275 1.202594
L11.819799 1.221642
" />
<path d="M11.819799 1.221642
L11.819799 1.297832
" />
<path d="M11.810275 1.097832
L11.810275 1.031166
" />
<path d="M11.915037 1.002594
L11.915037 1.097832
" />
<path d="M11.915037 1.097832
L11.715037 1.097832
" />
<path d="M11.715037 1.097832
L11.715037 1.002594
" />
<path d="M11.810275 0.850214
L11.810275 0.916880
" />
<path d="M11.915037 0.916880
L11.715037 0.916880
" />
<path d="M11.715037 0.916880
L11.715037 0.821642
" />
<path d="M11.715037 0.716880
L11.762656 0.716880
" />
<path d="M11.743609 0.764499
L11.762656 0.716880
" />
<path d="M11.762656 0.716880
L11.743609 0.669261
" />
<path d="M11.800752 0.745451
L11.762656 0.716880
" />
<path d="M11.762656 0.716880
L11.800752 0.688309
" />
<path d="M11.715037 0.564499
L11.762656 0.564499
" />
<path d="M11.743609 0.612118
L11.762656 0.564499
" />
<path d="M11.762656 0.564499
L11.743609 0.516880
" />
<path d="M11.800752 0.593070
L11.762656 0.564499
" />
<path d="M11.762656 0.564499
L11.800752 0.535928
" />
</g></g>
<g style="fill:none; 
stroke:#F2EDA1; stroke-width:0.120000; stroke-opacity:1; 
stroke-linecap:round; stroke-linejoin:round;">
<path d="M12.045714 3.485000
L12.045714 0.485000
" />
<path d="M12.045714 0.485000
L11.855714 0.485000
" />
<path d="M11.855714 3.485000
L12.045714 3.485000
" />
<path d="M9.235714 3.485000
L9.045714 3.485000
" />
<path d="M9.045714 3.485000
L9.045714 0.485000
" />
<path d="M9.045714 0.485000
L9.235714 0.485000
" />
<path style="fill:#F2EDA1; fill-opacity:1.000000; 
stroke:#F2EDA1; stroke-width:0.100000; stroke-opacity:1; 
stroke-linecap:round; stroke-linejoin:round;fill-rule:evenodd;"
d="M 9.245714,3.485000
9.045714,3.485000
9.045714,2.985000
9.245714,2.985000
Z" /> 
</g>
<g style="fill:none; 
stroke:#FF26E2; stroke-width:0.050000; stroke-opacity:1; 
stroke-linecap:round; stroke-linejoin:round;">
<path d="M12.245714 3.685000
L12.245714 0.285000
" />
<path d="M12.245714 0.285000
L11.875714 0.285000
" />
<path d="M11.875714 3.945000
L11.875714 3.685000
" />
<path d="M11.875714 3.685000
L12.245714 3.685000
" />
<path d="M11.875714 0.285000
L11.875714 0.025000
" />
<path d="M11.875714 0.025000
L9.215714 0.025000
" />
<path d="M10.545714 1.635000
L10.545714 2.335000
" />
<path d="M10.195714 1.985000
L10.895714 1.985000
" />
<path d="M9.215714 3.945000
L11.875714 3.945000
" />
<path d="M9.215714 3.685000
L9.215714 3.945000
" />
<path d="M9.215714 0.285000
L8.845714 0.285000
" />
<path d="M9.215714 0.025000
L9.215714 0.285000
" />
<path d="M8.845714 3.685000
L9.215714 3.685000
" />
<path d="M8.845714 0.285000
L8.845714 3.685000
" />
<circle cx="10.545714" cy="1.985000" r="0.250000" /> 
</g>
<g style="fill:none; 
stroke:#AFAFAF; stroke-width:0.120000; stroke-opacity:1; 
stroke-linecap:round; stroke-linejoin:round;">
<text x="10.545714" y="2.585000"
textLength="5.262857" font-size="1.600000" lengthAdjust="spacingAndGlyphs"
text-anchor="middle" opacity="0" stroke-opacity="0">REF**</text>
<g class="stroked-text"><desc>REF**</desc>
<path d="M8.945715 2.533902
L8.545715 1.962475
" />
<path d="M8.260001 2.533902
L8.260001 1.333903
" />
<path d="M8.260001 1.333903
L8.717144 1.333903
" />
<path d="M8.717144 1.333903
L8.831429 1.391046
" />
<path d="M8.831429 1.391046
L8.888572 1.448189
" />
<path d="M8.888572 1.448189
L8.945715 1.562475
" />
<path d="M8.945715 1.562475
L8.945715 1.733903
" />
<path d="M8.945715 1.733903
L8.888572 1.848189
" />
<path d="M8.888572 1.848189
L8.831429 1.905332
" />
<path d="M8.831429 1.905332
L8.717144 1.962475
" />
<path d="M8.717144 1.962475
L8.260001 1.962475
" />
<path d="M9.460001 1.905332
L9.860001 1.905332
" />
<path d="M10.031429 2.533902
L9.460001 2.533902
" />
<path d="M9.460001 2.533902
L9.460001 1.333903
" />
<path d="M9.460001 1.333903
L10.031429 1.333903
" />
<path d="M10.945714 1.905332
L10.545714 1.905332
" />
<path d="M10.545714 2.533902
L10.545714 1.333903
" />
<path d="M10.545714 1.333903
L11.117142 1.333903
" />
<path d="M11.745713 1.333903
L11.745713 1.619618
" />
<path d="M11.459999 1.505332
L11.745713 1.619618
" />
<path d="M11.745713 1.619618
L12.031428 1.505332
" />
<path d="M11.574285 1.848189
L11.745713 1.619618
" />
<path d="M11.745713 1.619618
L11.917142 1.848189
" />
<path d="M12.659999 1.333903
L12.659999 1.619618
" />
<path d="M12.374285 1.505332
L12.659999 1.619618
" />
<path d="M12.659999 1.619618
L12.945714 1.505332
" />
<path d="M12.488571 1.848189
L12.659999 1.619618
" />
<path d="M12.659999 1.619618
L12.831428 1.848189
" />
</g><text x="10.545714" y="2.585000"
textLength="21.091428" font-size="1.600000" lengthAdjust="spacingAndGlyphs"
text-anchor="middle" opacity="0" stroke-opacity="0">NCV8154MW180280TBG</text>
<g class="stroked-text"><desc>NCV8154MW180280TBG</desc>
<path d="M0.345715 2.533902
L0.345715 1.333903
" />
<path d="M0.345715 1.333903
L1.031429 2.533902
" />
<path d="M1.031429 2.533902
L1.031429 1.333903
" />
<path d="M2.288572 2.419617
L2.231429 2.476760
" />
<path d="M2.231429 2.476760
L2.060001 2.533902
" />
<path d="M2.060001 2.533902
L1.945715 2.533902
" />
<path d="M1.945715 2.533902
L1.774286 2.476760
" />
<path d="M1.774286 2.476760
L1.660001 2.362474
" />
<path d="M1.660001 2.362474
L1.602858 2.248188
" />
<path d="M1.602858 2.248188
L1.545715 2.019617
" />
<path d="M1.545715 2.019617
L1.545715 1.848189
" />
<path d="M1.545715 1.848189
L1.602858 1.619618
" />
<path d="M1.602858 1.619618
L1.660001 1.505332
" />
<path d="M1.660001 1.505332
L1.774286 1.391046
" />
<path d="M1.774286 1.391046
L1.945715 1.333903
" />
<path d="M1.945715 1.333903
L2.060001 1.333903
" />
<path d="M2.060001 1.333903
L2.231429 1.391046
" />
<path d="M2.231429 1.391046
L2.288572 1.448189
" />
<path d="M2.631429 1.333903
L3.031429 2.533902
" />
<path d="M3.031429 2.533902
L3.431429 1.333903
" />
<path d="M4.002857 1.848189
L3.888572 1.791046
" />
<path d="M3.888572 1.791046
L3.831429 1.733903
" />
<path d="M3.831429 1.733903
L3.774286 1.619618
" />
<path d="M3.774286 1.619618
L3.774286 1.562475
" />
<path d="M3.774286 1.562475
L3.831429 1.448189
" />
<path d="M3.831429 1.448189
L3.888572 1.391046
" />
<path d="M3.888572 1.391046
L4.002857 1.333903
" />
<path d="M4.002857 1.333903
L4.231429 1.333903
" />
<path d="M4.231429 1.333903
L4.345714 1.391046
" />
<path d="M4.345714 1.391046
L4.402857 1.448189
" />
<path d="M4.402857 1.448189
L4.460000 1.562475
" />
<path d="M4.460000 1.562475
L4.460000 1.619618
" />
<path d="M4.460000 1.619618
L4.402857 1.733903
" />
<path d="M4.402857 1.733903
L4.345714 1.791046
" />
<path d="M4.345714 1.791046
L4.231429 1.848189
" />
<path d="M4.231429 1.848189
L4.002857 1.848189
" />
<path d="M4.002857 1.848189
L3.888572 1.905332
" />
<path d="M3.888572 1.905332
L3.831429 1.962475
" />
<path d="M3.831429 1.962475
L3.774286 2.076760
" />
<path d="M3.774286 2.076760
L3.774286 2.305331
" />
<path d="M3.774286 2.305331
L3.831429 2.419617
" />
<path d="M3.831429 2.419617
L3.888572 2.476760
" />
<path d="M3.888572 2.476760
L4.002857 2.533902
" />
<path d="M4.002857 2.533902
L4.231429 2.533902
" />
<path d="M4.231429 2.533902
L4.345714 2.476760
" />
<path d="M4.345714 2.476760
L4.402857 2.419617
" />
<path d="M4.402857 2.419617
L4.460000 2.305331
" />
<path d="M4.460000 2.305331
L4.460000 2.076760
" />
<path d="M4.460000 2.076760
L4.402857 1.962475
" />
<path d="M4.402857 1.962475
L4.345714 1.905332
" />
<path d="M4.345714 1.905332
L4.231429 1.848189
" />
<path d="M5.602857 2.533902
L4.917143 2.533902
" />
<path d="M5.260000 2.533902
L5.260000 1.333903
" />
<path d="M5.260000 1.333903
L5.145714 1.505332
" />
<path d="M5.145714 1.505332
L5.031429 1.619618
" />
<path d="M5.031429 1.619618
L4.917143 1.676760
" />
<path d="M6.688571 1.333903
L6.117143 1.333903
" />
<path d="M6.117143 1.333903
L6.060000 1.905332
" />
<path d="M6.060000 1.905332
L6.117143 1.848189
" />
<path d="M6.117143 1.848189
L6.231428 1.791046
" />
<path d="M6.231428 1.791046
L6.517143 1.791046
" />
<path d="M6.517143 1.791046
L6.631428 1.848189
" />
<path d="M6.631428 1.848189
L6.688571 1.905332
" />
<path d="M6.688571 1.905332
L6.745714 2.019617
" />
<path d="M6.745714 2.019617
L6.745714 2.305331
" />
<path d="M6.745714 2.305331
L6.688571 2.419617
" />
<path d="M6.688571 2.419617
L6.631428 2.476760
" />
<path d="M6.631428 2.476760
L6.517143 2.533902
" />
<path d="M6.517143 2.533902
L6.231428 2.533902
" />
<path d="M6.231428 2.533902
L6.117143 2.476760
" />
<path d="M6.117143 2.476760
L6.060000 2.419617
" />
<path d="M7.774285 1.733903
L7.774285 2.533902
" />
<path d="M7.488571 1.276760
L7.202857 2.133902
" />
<path d="M7.202857 2.133902
L7.945714 2.133902
" />
<path d="M8.402857 2.533902
L8.402857 1.333903
" />
<path d="M8.402857 1.333903
L8.802857 2.191045
" />
<path d="M8.802857 2.191045
L9.202857 1.333903
" />
<path d="M9.202857 1.333903
L9.202857 2.533902
" />
<path d="M9.660000 1.333903
L9.945714 2.533902
" />
<path d="M9.945714 2.533902
L10.174286 1.676760
" />
<path d="M10.174286 1.676760
L10.402857 2.533902
" />
<path d="M10.402857 2.533902
L10.688571 1.333903
" />
<path d="M11.774285 2.533902
L11.088571 2.533902
" />
<path d="M11.431428 2.533902
L11.431428 1.333903
" />
<path d="M11.431428 1.333903
L11.317142 1.505332
" />
<path d="M11.317142 1.505332
L11.202857 1.619618
" />
<path d="M11.202857 1.619618
L11.088571 1.676760
" />
<path d="M12.459999 1.848189
L12.345714 1.791046
" />
<path d="M12.345714 1.791046
L12.288571 1.733903
" />
<path d="M12.288571 1.733903
L12.231428 1.619618
" />
<path d="M12.231428 1.619618
L12.231428 1.562475
" />
<path d="M12.231428 1.562475
L12.288571 1.448189
" />
<path d="M12.288571 1.448189
L12.345714 1.391046
" />
<path d="M12.345714 1.391046
L12.459999 1.333903
" />
<path d="M12.459999 1.333903
L12.688571 1.333903
" />
<path d="M12.688571 1.333903
L12.802857 1.391046
" />
<path d="M12.802857 1.391046
L12.859999 1.448189
" />
<path d="M12.859999 1.448189
L12.917142 1.562475
" />
<path d="M12.917142 1.562475
L12.917142 1.619618
" />
<path d="M12.917142 1.619618
L12.859999 1.733903
" />
<path d="M12.859999 1.733903
L12.802857 1.791046
" />
<path d="M12.802857 1.791046
L12.688571 1.848189
" />
<path d="M12.688571 1.848189
L12.459999 1.848189
" />
<path d="M12.459999 1.848189
L12.345714 1.905332
" />
<path d="M12.345714 1.905332
L12.288571 1.962475
" />
<path d="M12.288571 1.962475
L12.231428 2.076760
" />
<path d="M12.231428 2.076760
L12.231428 2.305331
" />
<path d="M12.231428 2.305331
L12.288571 2.419617
" />
<path d="M12.288571 2.419617
L12.345714 2.476760
" />
<path d="M12.345714 2.476760
L12.459999 2.533902
" />
<path d="M12.459999 2.533902
L12.688571 2.533902
" />
<path d="M12.688571 2.533902
L12.802857 2.476760
" />
<path d="M12.802857 2.476760
L12.859999 2.419617
" />
<path d="M12.859999 2.419617
L12.917142 2.305331
" />
<path d="M12.917142 2.305331
L12.917142 2.076760
" />
<path d="M12.917142 2.076760
L12.859999 1.962475
" />
<path d="M12.859999 1.962475
L12.802857 1.905332
" />
<path d="M12.802857 1.905332
L12.688571 1.848189
" />
<path d="M13.659999 1.333903
L13.774285 1.333903
" />
<path d="M13.774285 1.333903
L13.888571 1.391046
" />
<path d="M13.888571 1.391046
L13.945714 1.448189
" />
<path d="M13.945714 1.448189
L14.002856 1.562475
" />
<path d="M14.002856 1.562475
L14.059999 1.791046
" />
<path d="M14.059999 1.791046
L14.059999 2.076760
" />
<path d="M14.059999 2.076760
L14.002856 2.305331
" />
<path d="M14.002856 2.305331
L13.945714 2.419617
" />
<path d="M13.945714 2.419617
L13.888571 2.476760
" />
<path d="M13.888571 2.476760
L13.774285 2.533902
" />
<path d="M13.774285 2.533902
L13.659999 2.533902
" />
<path d="M13.659999 2.533902
L13.545714 2.476760
" />
<path d="M13.545714 2.476760
L13.488571 2.419617
" />
<path d="M13.488571 2.419617
L13.431428 2.305331
" />
<path d="M13.431428 2.305331
L13.374285 2.076760
" />
<path d="M13.374285 2.076760
L13.374285 1.791046
" />
<path d="M13.374285 1.791046
L13.431428 1.562475
" />
<path d="M13.431428 1.562475
L13.488571 1.448189
" />
<path d="M13.488571 1.448189
L13.545714 1.391046
" />
<path d="M13.545714 1.391046
L13.659999 1.333903
" />
<path d="M14.517142 1.448189
L14.574285 1.391046
" />
<path d="M14.574285 1.391046
L14.688571 1.333903
" />
<path d="M14.688571 1.333903
L14.974285 1.333903
" />
<path d="M14.974285 1.333903
L15.088571 1.391046
" />
<path d="M15.088571 1.391046
L15.145713 1.448189
" />
<path d="M15.145713 1.448189
L15.202856 1.562475
" />
<path d="M15.202856 1.562475
L15.202856 1.676760
" />
<path d="M15.202856 1.676760
L15.145713 1.848189
" />
<path d="M15.145713 1.848189
L14.459999 2.533902
" />
<path d="M14.459999 2.533902
L15.202856 2.533902
" />
<path d="M15.888570 1.848189
L15.774285 1.791046
" />
<path d="M15.774285 1.791046
L15.717142 1.733903
" />
<path d="M15.717142 1.733903
L15.659999 1.619618
" />
<path d="M15.659999 1.619618
L15.659999 1.562475
" />
<path d="M15.659999 1.562475
L15.717142 1.448189
" />
<path d="M15.717142 1.448189
L15.774285 1.391046
" />
<path d="M15.774285 1.391046
L15.888570 1.333903
" />
<path d="M15.888570 1.333903
L16.117142 1.333903
" />
<path d="M16.117142 1.333903
L16.231428 1.391046
" />
<path d="M16.231428 1.391046
L16.288570 1.448189
" />
<path d="M16.288570 1.448189
L16.345713 1.562475
" />
<path d="M16.345713 1.562475
L16.345713 1.619618
" />
<path d="M16.345713 1.619618
L16.288570 1.733903
" />
<path d="M16.288570 1.733903
L16.231428 1.791046
" />
<path d="M16.231428 1.791046
L16.117142 1.848189
" />
<path d="M16.117142 1.848189
L15.888570 1.848189
" />
<path d="M15.888570 1.848189
L15.774285 1.905332
" />
<path d="M15.774285 1.905332
L15.717142 1.962475
" />
<path d="M15.717142 1.962475
L15.659999 2.076760
" />
<path d="M15.659999 2.076760
L15.659999 2.305331
" />
<path d="M15.659999 2.305331
L15.717142 2.419617
" />
<path d="M15.717142 2.419617
L15.774285 2.476760
" />
<path d="M15.774285 2.476760
L15.888570 2.533902
" />
<path d="M15.888570 2.533902
L16.117142 2.533902
" />
<path d="M16.117142 2.533902
L16.231428 2.476760
" />
<path d="M16.231428 2.476760
L16.288570 2.419617
" />
<path d="M16.288570 2.419617
L16.345713 2.305331
" />
<path d="M16.345713 2.305331
L16.345713 2.076760
" />
<path d="M16.345713 2.076760
L16.288570 1.962475
" />
<path d="M16.288570 1.962475
L16.231428 1.905332
" />
<path d="M16.231428 1.905332
L16.117142 1.848189
" />
<path d="M17.088570 1.333903
L17.202856 1.333903
" />
<path d="M17.202856 1.333903
L17.317142 1.391046
" />
<path d="M17.317142 1.391046
L17.374285 1.448189
" />
<path d="M17.374285 1.448189
L17.431427 1.562475
" />
<path d="M17.431427 1.562475
L17.488570 1.791046
" />
<path d="M17.488570 1.791046
L17.488570 2.076760
" />
<path d="M17.488570 2.076760
L17.431427 2.305331
" />
<path d="M17.431427 2.305331
L17.374285 2.419617
" />
<path d="M17.374285 2.419617
L17.317142 2.476760
" />
<path d="M17.317142 2.476760
L17.202856 2.533902
" />
<path d="M17.202856 2.533902
L17.088570 2.533902
" />
<path d="M17.088570 2.533902
L16.974285 2.476760
" />
<path d="M16.974285 2.476760
L16.917142 2.419617
" />
<path d="M16.917142 2.419617
L16.859999 2.305331
" />
<path d="M16.859999 2.305331
L16.802856 2.076760
" />
<path d="M16.802856 2.076760
L16.802856 1.791046
" />
<path d="M16.802856 1.791046
L16.859999 1.562475
" />
<path d="M16.859999 1.562475
L16.917142 1.448189
" />
<path d="M16.917142 1.448189
L16.974285 1.391046
" />
<path d="M16.974285 1.391046
L17.088570 1.333903
" />
<path d="M17.831427 1.333903
L18.517142 1.333903
" />
<path d="M18.174284 2.533902
L18.174284 1.333903
" />
<path d="M19.317142 1.905332
L19.488570 1.962475
" />
<path d="M19.488570 1.962475
L19.545713 2.019617
" />
<path d="M19.545713 2.019617
L19.602856 2.133902
" />
<path d="M19.602856 2.133902
L19.602856 2.305331
" />
<path d="M19.602856 2.305331
L19.545713 2.419617
" />
<path d="M19.545713 2.419617
L19.488570 2.476760
" />
<path d="M19.488570 2.476760
L19.374285 2.533902
" />
<path d="M19.374285 2.533902
L18.917142 2.533902
" />
<path d="M18.917142 2.533902
L18.917142 1.333903
" />
<path d="M18.917142 1.333903
L19.317142 1.333903
" />
<path d="M19.317142 1.333903
L19.431428 1.391046
" />
<path d="M19.431428 1.391046
L19.488570 1.448189
" />
<path d="M19.488570 1.448189
L19.545713 1.562475
" />
<path d="M19.545713 1.562475
L19.545713 1.676760
" />
<path d="M19.545713 1.676760
L19.488570 1.791046
" />
<path d="M19.488570 1.791046
L19.431428 1.848189
" />
<path d="M19.431428 1.848189
L19.317142 1.905332
" />
<path d="M19.317142 1.905332
L18.917142 1.905332
" />
<path d="M20.745713 1.391046
L20.631428 1.333903
" />
<path d="M20.631428 1.333903
L20.459999 1.333903
" />
<path d="M20.459999 1.333903
L20.288570 1.391046
" />
<path d="M20.288570 1.391046
L20.174285 1.505332
" />
<path d="M20.174285 1.505332
L20.117142 1.619618
" />
<path d="M20.117142 1.619618
L20.059999 1.848189
" />
<path d="M20.059999 1.848189
L20.059999 2.019617
" />
<path d="M20.059999 2.019617
L20.117142 2.248188
" />
<path d="M20.117142 2.248188
L20.174285 2.362474
" />
<path d="M20.174285 2.362474
L20.288570 2.476760
" />
<path d="M20.288570 2.476760
L20.459999 2.533902
" />
<path d="M20.459999 2.533902
L20.574285 2.533902
" />
<path d="M20.574285 2.533902
L20.745713 2.476760
" />
<path d="M20.745713 2.476760
L20.802856 2.419617
" />
<path d="M20.802856 2.419617
L20.802856 2.019617
" />
<path d="M20.802856 2.019617
L20.574285 2.019617
" />
</g><path d="M12.045714 3.485000
L9.045714 3.485000
" />
<path d="M12.045714 0.485000
L12.045714 3.485000
" />
<path d="M9.045714 3.485000
L9.045714 0.485000
" />
<path d="M9.045714 0.485000
L12.045714 0.485000
" />
</g>
<g style="fill:none; 
stroke:#C2C2C2; stroke-width:0.025000; stroke-opacity:1; 
stroke-linecap:round; stroke-linejoin:round;">
<path d="M12.045714 3.485000
L9.045714 3.485000
" />
<path d="M12.045714 0.485000
L12.045714 3.485000
" />
<path d="M11.795714 2.785000
L11.795714 1.185000
" />
<path d="M11.695714 1.085000
L9.395714 1.085000
" />
<path d="M11.665714 3.485000
L11.425714 3.485000
" />
<path d="M11.665714 3.085000
L11.665714 3.485000
" />
<path d="M11.665714 0.885000
L11.425714 0.885000
" />
<path d="M11.665714 0.485000
L11.665714 0.885000
" />
<path d="M11.425714 3.485000
L11.425714 3.085000
" />
<path d="M11.425714 3.085000
L11.665714 3.085000
" />
<path d="M11.425714 0.885000
L11.425714 0.485000
" />
<path d="M11.425714 0.485000
L11.665714 0.485000
" />
<path d="M11.165714 3.485000
L10.925714 3.485000
" />
<path d="M11.165714 3.085000
L11.165714 3.485000
" />
<path d="M11.165714 0.885000
L10.925714 0.885000
" />
<path d="M11.165714 0.485000
L11.165714 0.885000
" />
<path d="M10.925714 3.485000
L10.925714 3.085000
" />
<path d="M10.925714 3.085000
L11.165714 3.085000
" />
<path d="M10.925714 0.885000
L10.925714 0.485000
" />
<path d="M10.925714 0.485000
L11.165714 0.485000
" />
<path d="M10.665714 3.485000
L10.425714 3.485000
" />
<path d="M10.665714 3.085000
L10.665714 3.485000
" />
<path d="M10.665714 0.885000
L10.425714 0.885000
" />
<path d="M10.665714 0.485000
L10.665714 0.885000
" />
<path d="M10.425714 3.485000
L10.425714 3.085000
" />
<path d="M10.425714 3.085000
L10.665714 3.085000
" />
<path d="M10.425714 0.885000
L10.425714 0.485000
" />
<path d="M10.425714 0.485000
L10.665714 0.485000
" />
<path d="M10.165714 3.485000
L9.925714 3.485000
" />
<path d="M10.165714 3.085000
L10.165714 3.485000
" />
<path d="M10.165714 0.885000
L9.925714 0.885000
" />
<path d="M10.165714 0.485000
L10.165714 0.885000
" />
<path d="M9.925714 3.485000
L9.925714 3.085000
" />
<path d="M9.925714 3.085000
L10.165714 3.085000
" />
<path d="M9.925714 0.885000
L9.925714 0.485000
" />
<path d="M9.925714 0.485000
L10.165714 0.485000
" />
<path d="M9.665714 3.485000
L9.425714 3.485000
" />
<path d="M9.665714 3.085000
L9.665714 3.485000
" />
<path d="M9.665714 0.885000
L9.425714 0.885000
" />
<path d="M9.665714 0.485000
L9.665714 0.885000
" />
<path d="M9.495714 2.885000
L11.695714 2.885000
" />
<path d="M9.425714 3.485000
L9.425714 3.085000
" />
<path d="M9.425714 3.085000
L9.665714 3.085000
" />
<path d="M9.425714 0.885000
L9.425714 0.485000
" />
<path d="M9.425714 0.485000
L9.665714 0.485000
" />
<path d="M9.295714 2.685000
L9.495714 2.885000
" />
<path d="M9.295714 1.185000
L9.295714 2.685000
" />
<path d="M9.045714 3.485000
L9.045714 0.485000
" />
<path d="M9.045714 0.485000
L12.045714 0.485000
" />
<path d="M11.695714 2.885000 A0.100000 0.100000 0.0 0 0 11.795714 2.785000" />
<path d="M11.795714 1.185000 A0.100000 0.100000 0.0 0 0 11.695714 1.085000" />
<path d="M9.395714 1.085000 A0.099999 0.099999 0.0 0 0 9.295714 1.185000" />
</g> 
</svg>
