<?xml version="1.0" standalone="no"?>
 <!DOCTYPE svg PUBLIC "-//W3C//DTD SVG 1.1//EN" 
 "http://www.w3.org/Graphics/SVG/1.1/DTD/svg11.dtd"> 
<svg
  xmlns:svg="http://www.w3.org/2000/svg"
  xmlns="http://www.w3.org/2000/svg"
  xmlns:xlink="http://www.w3.org/1999/xlink"
  xmlns:inkscape="http://www.inkscape.org/namespaces/inkscape"
  version="1.1"
  width="100%" height="100%" viewBox="0.0000 0.0000 19.9390 17.7038">
<title>SVG Image created as FH19C_4S_0_5SH_unit1.svg date 2026-04-16T00:47:48 </title>
  <desc>Image generated by Eeschema-SVG </desc>
<g style="fill:#000000; fill-opacity:1.0000;stroke:#000000; stroke-opacity:1.0000;
stroke-linecap:round; stroke-linejoin:round;"
 transform="translate(0 0) scale(1 1)">
</g>
<g style="fill:#FFFFC2; fill-opacity:1.0000; stroke:none;">
<rect x="8.699500" y="3.771900" width="2.540000" height="10.160000" rx="0.000000" />
</g>
<g style="fill:none; 
stroke:#840000; stroke-width:0.2540; stroke-opacity:1; 
stroke-linecap:round; stroke-linejoin:round;">
<rect x="8.699500" y="3.771900" width="2.540000" height="10.160000" rx="0.000000" />
</g>
<g style="fill:none; 
stroke:#840000; stroke-width:0.1524; stroke-opacity:1; 
stroke-linecap:round; stroke-linejoin:round;">
<rect x="8.699500" y="4.914900" width="1.270000" height="0.254000" rx="0.000000" />
<rect x="8.699500" y="7.454900" width="1.270000" height="0.254000" rx="0.000000" />
<rect x="8.699500" y="9.994900" width="1.270000" height="0.254000" rx="0.000000" />
<rect x="8.699500" y="12.534900" width="1.270000" height="0.254000" rx="0.000000" />
<path d="M8.6995 5.0419
L4.8895 5.0419
" />
</g>
<g style="fill:none; 
stroke:#A90000; stroke-width:0.1524; stroke-opacity:1; 
stroke-linecap:round; stroke-linejoin:round;">
<text x="6.7945" y="4.7879"
textLength="1.4127" font-size="1.6933" lengthAdjust="spacingAndGlyphs"
text-anchor="middle" opacity="0" stroke-opacity="0">1</text>
<g class="stroked-text"><desc>1</desc>
<path d="M7.1574 4.6244
L6.4317 4.6244
" />
<path d="M6.7945 4.6244
L6.7945 3.3544
" />
<path d="M6.7945 3.3544
L6.6736 3.5359
" />
<path d="M6.6736 3.5359
L6.5526 3.6568
" />
<path d="M6.5526 3.6568
L6.4317 3.7173
" />
</g></g>
<g style="fill:none; 
stroke:#840000; stroke-width:0.1524; stroke-opacity:1; 
stroke-linecap:round; stroke-linejoin:round;">
<path d="M8.6995 7.5819
L4.8895 7.5819
" />
</g>
<g style="fill:none; 
stroke:#A90000; stroke-width:0.1524; stroke-opacity:1; 
stroke-linecap:round; stroke-linejoin:round;">
<text x="6.7945" y="7.3279"
textLength="1.4127" font-size="1.6933" lengthAdjust="spacingAndGlyphs"
text-anchor="middle" opacity="0" stroke-opacity="0">2</text>
<g class="stroked-text"><desc>2</desc>
<path d="M6.4317 6.0154
L6.4921 5.9549
" />
<path d="M6.4921 5.9549
L6.6131 5.8944
" />
<path d="M6.6131 5.8944
L6.9155 5.8944
" />
<path d="M6.9155 5.8944
L7.0364 5.9549
" />
<path d="M7.0364 5.9549
L7.0969 6.0154
" />
<path d="M7.0969 6.0154
L7.1574 6.1363
" />
<path d="M7.1574 6.1363
L7.1574 6.2573
" />
<path d="M7.1574 6.2573
L7.0969 6.4387
" />
<path d="M7.0969 6.4387
L6.3712 7.1644
" />
<path d="M6.3712 7.1644
L7.1574 7.1644
" />
</g></g>
<g style="fill:none; 
stroke:#840000; stroke-width:0.1524; stroke-opacity:1; 
stroke-linecap:round; stroke-linejoin:round;">
<path d="M8.6995 10.1219
L4.8895 10.1219
" />
</g>
<g style="fill:none; 
stroke:#A90000; stroke-width:0.1524; stroke-opacity:1; 
stroke-linecap:round; stroke-linejoin:round;">
<text x="6.7945" y="9.8679"
textLength="1.4127" font-size="1.6933" lengthAdjust="spacingAndGlyphs"
text-anchor="middle" opacity="0" stroke-opacity="0">3</text>
<g class="stroked-text"><desc>3</desc>
<path d="M6.3712 8.4344
L7.1574 8.4344
" />
<path d="M7.1574 8.4344
L6.7340 8.9182
" />
<path d="M6.7340 8.9182
L6.9155 8.9182
" />
<path d="M6.9155 8.9182
L7.0364 8.9787
" />
<path d="M7.0364 8.9787
L7.0969 9.0392
" />
<path d="M7.0969 9.0392
L7.1574 9.1601
" />
<path d="M7.1574 9.1601
L7.1574 9.4625
" />
<path d="M7.1574 9.4625
L7.0969 9.5835
" />
<path d="M7.0969 9.5835
L7.0364 9.6440
" />
<path d="M7.0364 9.6440
L6.9155 9.7044
" />
<path d="M6.9155 9.7044
L6.5526 9.7044
" />
<path d="M6.5526 9.7044
L6.4317 9.6440
" />
<path d="M6.4317 9.6440
L6.3712 9.5835
" />
</g></g>
<g style="fill:none; 
stroke:#840000; stroke-width:0.1524; stroke-opacity:1; 
stroke-linecap:round; stroke-linejoin:round;">
<path d="M8.6995 12.6619
L4.8895 12.6619
" />
</g>
<g style="fill:none; 
stroke:#A90000; stroke-width:0.1524; stroke-opacity:1; 
stroke-linecap:round; stroke-linejoin:round;">
<text x="6.7945" y="12.4079"
textLength="1.4127" font-size="1.6933" lengthAdjust="spacingAndGlyphs"
text-anchor="middle" opacity="0" stroke-opacity="0">4</text>
<g class="stroked-text"><desc>4</desc>
<path d="M7.0364 11.3978
L7.0364 12.2444
" />
<path d="M6.7340 10.9140
L6.4317 11.8211
" />
<path d="M6.4317 11.8211
L7.2178 11.8211
" />
</g></g>
<g style="fill:none; 
stroke:#006464; stroke-width:0.1524; stroke-opacity:1; 
stroke-linecap:round; stroke-linejoin:round;">
<text x="9.9695" y="3.1369"
textLength="2.2594" font-size="1.6933" lengthAdjust="spacingAndGlyphs"
text-anchor="middle" opacity="0" stroke-opacity="0">J?</text>
<g class="stroked-text"><desc>J?</desc>
<path d="M9.6066 1.8114
L9.6066 2.7186
" />
<path d="M9.6066 2.7186
L9.5461 2.9000
" />
<path d="M9.5461 2.9000
L9.4252 3.0210
" />
<path d="M9.4252 3.0210
L9.2437 3.0814
" />
<path d="M9.2437 3.0814
L9.1228 3.0814
" />
<path d="M10.3928 2.9605
L10.4532 3.0210
" />
<path d="M10.4532 3.0210
L10.3928 3.0814
" />
<path d="M10.3928 3.0814
L10.3323 3.0210
" />
<path d="M10.3323 3.0210
L10.3928 2.9605
" />
<path d="M10.3928 2.9605
L10.3928 3.0814
" />
<path d="M10.1509 1.8719
L10.2718 1.8114
" />
<path d="M10.2718 1.8114
L10.5742 1.8114
" />
<path d="M10.5742 1.8114
L10.6951 1.8719
" />
<path d="M10.6951 1.8719
L10.7556 1.9929
" />
<path d="M10.7556 1.9929
L10.7556 2.1138
" />
<path d="M10.7556 2.1138
L10.6951 2.2348
" />
<path d="M10.6951 2.2348
L10.6347 2.2952
" />
<path d="M10.6347 2.2952
L10.5137 2.3557
" />
<path d="M10.5137 2.3557
L10.4532 2.4162
" />
<path d="M10.4532 2.4162
L10.3928 2.5371
" />
<path d="M10.3928 2.5371
L10.3928 2.5976
" />
</g><text x="9.9695" y="15.8369"
textLength="16.5921" font-size="1.6933" lengthAdjust="spacingAndGlyphs"
text-anchor="middle" opacity="0" stroke-opacity="0">FH19C_4S_0_5SH</text>
<g class="stroked-text"><desc>FH19C_4S_0_5SH</desc>
<path d="M2.5008 15.1162
L2.0774 15.1162
" />
<path d="M2.0774 15.7814
L2.0774 14.5114
" />
<path d="M2.0774 14.5114
L2.6822 14.5114
" />
<path d="M3.1660 15.7814
L3.1660 14.5114
" />
<path d="M3.1660 15.1162
L3.8917 15.1162
" />
<path d="M3.8917 15.7814
L3.8917 14.5114
" />
<path d="M5.1618 15.7814
L4.4361 15.7814
" />
<path d="M4.7989 15.7814
L4.7989 14.5114
" />
<path d="M4.7989 14.5114
L4.6780 14.6929
" />
<path d="M4.6780 14.6929
L4.5570 14.8138
" />
<path d="M4.5570 14.8138
L4.4361 14.8743
" />
<path d="M5.7665 15.7814
L6.0084 15.7814
" />
<path d="M6.0084 15.7814
L6.1294 15.7210
" />
<path d="M6.1294 15.7210
L6.1898 15.6605
" />
<path d="M6.1898 15.6605
L6.3108 15.4790
" />
<path d="M6.3108 15.4790
L6.3713 15.2371
" />
<path d="M6.3713 15.2371
L6.3713 14.7533
" />
<path d="M6.3713 14.7533
L6.3108 14.6324
" />
<path d="M6.3108 14.6324
L6.2503 14.5719
" />
<path d="M6.2503 14.5719
L6.1294 14.5114
" />
<path d="M6.1294 14.5114
L5.8875 14.5114
" />
<path d="M5.8875 14.5114
L5.7665 14.5719
" />
<path d="M5.7665 14.5719
L5.7060 14.6324
" />
<path d="M5.7060 14.6324
L5.6456 14.7533
" />
<path d="M5.6456 14.7533
L5.6456 15.0557
" />
<path d="M5.6456 15.0557
L5.7060 15.1767
" />
<path d="M5.7060 15.1767
L5.7665 15.2371
" />
<path d="M5.7665 15.2371
L5.8875 15.2976
" />
<path d="M5.8875 15.2976
L6.1294 15.2976
" />
<path d="M6.1294 15.2976
L6.2503 15.2371
" />
<path d="M6.2503 15.2371
L6.3108 15.1767
" />
<path d="M6.3108 15.1767
L6.3713 15.0557
" />
<path d="M7.6412 15.6605
L7.5808 15.7210
" />
<path d="M7.5808 15.7210
L7.3993 15.7814
" />
<path d="M7.3993 15.7814
L7.2784 15.7814
" />
<path d="M7.2784 15.7814
L7.0970 15.7210
" />
<path d="M7.0970 15.7210
L6.9760 15.6000
" />
<path d="M6.9760 15.6000
L6.9155 15.4790
" />
<path d="M6.9155 15.4790
L6.8551 15.2371
" />
<path d="M6.8551 15.2371
L6.8551 15.0557
" />
<path d="M6.8551 15.0557
L6.9155 14.8138
" />
<path d="M6.9155 14.8138
L6.9760 14.6929
" />
<path d="M6.9760 14.6929
L7.0970 14.5719
" />
<path d="M7.0970 14.5719
L7.2784 14.5114
" />
<path d="M7.2784 14.5114
L7.3993 14.5114
" />
<path d="M7.3993 14.5114
L7.5808 14.5719
" />
<path d="M7.5808 14.5719
L7.6412 14.6324
" />
<path d="M7.8832 15.9024
L8.8508 15.9024
" />
<path d="M9.6974 14.9348
L9.6974 15.7814
" />
<path d="M9.3950 14.4510
L9.0927 15.3581
" />
<path d="M9.0927 15.3581
L9.8788 15.3581
" />
<path d="M10.3022 15.7210
L10.4836 15.7814
" />
<path d="M10.4836 15.7814
L10.7860 15.7814
" />
<path d="M10.7860 15.7814
L10.9069 15.7210
" />
<path d="M10.9069 15.7210
L10.9674 15.6605
" />
<path d="M10.9674 15.6605
L11.0279 15.5395
" />
<path d="M11.0279 15.5395
L11.0279 15.4186
" />
<path d="M11.0279 15.4186
L10.9674 15.2976
" />
<path d="M10.9674 15.2976
L10.9069 15.2371
" />
<path d="M10.9069 15.2371
L10.7860 15.1767
" />
<path d="M10.7860 15.1767
L10.5441 15.1162
" />
<path d="M10.5441 15.1162
L10.4231 15.0557
" />
<path d="M10.4231 15.0557
L10.3626 14.9952
" />
<path d="M10.3626 14.9952
L10.3022 14.8743
" />
<path d="M10.3022 14.8743
L10.3022 14.7533
" />
<path d="M10.3022 14.7533
L10.3626 14.6324
" />
<path d="M10.3626 14.6324
L10.4231 14.5719
" />
<path d="M10.4231 14.5719
L10.5441 14.5114
" />
<path d="M10.5441 14.5114
L10.8464 14.5114
" />
<path d="M10.8464 14.5114
L11.0279 14.5719
" />
<path d="M11.2698 15.9024
L12.2374 15.9024
" />
<path d="M12.7816 14.5114
L12.9026 14.5114
" />
<path d="M12.9026 14.5114
L13.0235 14.5719
" />
<path d="M13.0235 14.5719
L13.0840 14.6324
" />
<path d="M13.0840 14.6324
L13.1445 14.7533
" />
<path d="M13.1445 14.7533
L13.2050 14.9952
" />
<path d="M13.2050 14.9952
L13.2050 15.2976
" />
<path d="M13.2050 15.2976
L13.1445 15.5395
" />
<path d="M13.1445 15.5395
L13.0840 15.6605
" />
<path d="M13.0840 15.6605
L13.0235 15.7210
" />
<path d="M13.0235 15.7210
L12.9026 15.7814
" />
<path d="M12.9026 15.7814
L12.7816 15.7814
" />
<path d="M12.7816 15.7814
L12.6607 15.7210
" />
<path d="M12.6607 15.7210
L12.6002 15.6605
" />
<path d="M12.6002 15.6605
L12.5397 15.5395
" />
<path d="M12.5397 15.5395
L12.4793 15.2976
" />
<path d="M12.4793 15.2976
L12.4793 14.9952
" />
<path d="M12.4793 14.9952
L12.5397 14.7533
" />
<path d="M12.5397 14.7533
L12.6002 14.6324
" />
<path d="M12.6002 14.6324
L12.6607 14.5719
" />
<path d="M12.6607 14.5719
L12.7816 14.5114
" />
<path d="M13.4469 15.9024
L14.4145 15.9024
" />
<path d="M15.3216 14.5114
L14.7168 14.5114
" />
<path d="M14.7168 14.5114
L14.6564 15.1162
" />
<path d="M14.6564 15.1162
L14.7168 15.0557
" />
<path d="M14.7168 15.0557
L14.8378 14.9952
" />
<path d="M14.8378 14.9952
L15.1402 14.9952
" />
<path d="M15.1402 14.9952
L15.2611 15.0557
" />
<path d="M15.2611 15.0557
L15.3216 15.1162
" />
<path d="M15.3216 15.1162
L15.3821 15.2371
" />
<path d="M15.3821 15.2371
L15.3821 15.5395
" />
<path d="M15.3821 15.5395
L15.3216 15.6605
" />
<path d="M15.3216 15.6605
L15.2611 15.7210
" />
<path d="M15.2611 15.7210
L15.1402 15.7814
" />
<path d="M15.1402 15.7814
L14.8378 15.7814
" />
<path d="M14.8378 15.7814
L14.7168 15.7210
" />
<path d="M14.7168 15.7210
L14.6564 15.6605
" />
<path d="M15.8659 15.7210
L16.0473 15.7814
" />
<path d="M16.0473 15.7814
L16.3497 15.7814
" />
<path d="M16.3497 15.7814
L16.4706 15.7210
" />
<path d="M16.4706 15.7210
L16.5311 15.6605
" />
<path d="M16.5311 15.6605
L16.5916 15.5395
" />
<path d="M16.5916 15.5395
L16.5916 15.4186
" />
<path d="M16.5916 15.4186
L16.5311 15.2976
" />
<path d="M16.5311 15.2976
L16.4706 15.2371
" />
<path d="M16.4706 15.2371
L16.3497 15.1767
" />
<path d="M16.3497 15.1767
L16.1078 15.1162
" />
<path d="M16.1078 15.1162
L15.9868 15.0557
" />
<path d="M15.9868 15.0557
L15.9263 14.9952
" />
<path d="M15.9263 14.9952
L15.8659 14.8743
" />
<path d="M15.8659 14.8743
L15.8659 14.7533
" />
<path d="M15.8659 14.7533
L15.9263 14.6324
" />
<path d="M15.9263 14.6324
L15.9868 14.5719
" />
<path d="M15.9868 14.5719
L16.1078 14.5114
" />
<path d="M16.1078 14.5114
L16.4101 14.5114
" />
<path d="M16.4101 14.5114
L16.5916 14.5719
" />
<path d="M17.1358 15.7814
L17.1358 14.5114
" />
<path d="M17.1358 15.1162
L17.8615 15.1162
" />
<path d="M17.8615 15.7814
L17.8615 14.5114
" />
</g></g> 
</svg>
