<?xml version="1.0" standalone="no"?>
 <!DOCTYPE svg PUBLIC "-//W3C//DTD SVG 1.1//EN" 
 "http://www.w3.org/Graphics/SVG/1.1/DTD/svg11.dtd"> 
<svg
  xmlns:svg="http://www.w3.org/2000/svg"
  xmlns="http://www.w3.org/2000/svg"
  xmlns:xlink="http://www.w3.org/1999/xlink"
  xmlns:inkscape="http://www.inkscape.org/namespaces/inkscape"
  version="1.1"
  width="100%" height="100%" viewBox="0.0000 0.0000 19.9390 17.7038">
<title>SVG Image created as FH19C_4S_0_5SH_unit1.svg date 2026-04-16T04:30:15 </title>
  <desc>Image generated by Eeschema-SVG </desc>
<g style="fill:#000000; fill-opacity:1.0000;stroke:#000000; stroke-opacity:1.0000;
stroke-linecap:round; stroke-linejoin:round;"
 transform="translate(0 0) scale(1 1)">
</g>
<g style="fill:#FFFFC2; fill-opacity:1.0000; stroke:none;">
<rect x="7.429500" y="3.517900" width="5.080000" height="10.160000" rx="0.000000" />
</g>
<g style="fill:none; 
stroke:#840000; stroke-width:0.2540; stroke-opacity:1; 
stroke-linecap:round; stroke-linejoin:round;">
<rect x="7.429500" y="3.517900" width="5.080000" height="10.160000" rx="0.000000" />
</g>
<g style="fill:none; 
stroke:#840000; stroke-width:0.1524; stroke-opacity:1; 
stroke-linecap:round; stroke-linejoin:round;">
<rect x="7.429500" y="4.660900" width="1.270000" height="0.254000" rx="0.000000" />
<rect x="7.429500" y="7.200900" width="1.270000" height="0.254000" rx="0.000000" />
<rect x="7.429500" y="9.740900" width="1.270000" height="0.254000" rx="0.000000" />
<rect x="7.429500" y="12.280900" width="1.270000" height="0.254000" rx="0.000000" />
<path d="M7.4295 4.7879
L3.6195 4.7879
" />
</g>
<g style="fill:none; 
stroke:#A90000; stroke-width:0.1524; stroke-opacity:1; 
stroke-linecap:round; stroke-linejoin:round;">
<text x="5.5245" y="4.5339"
textLength="1.4127" font-size="1.6933" lengthAdjust="spacingAndGlyphs"
text-anchor="middle" opacity="0" stroke-opacity="0">1</text>
<g class="stroked-text"><desc>1</desc>
<path d="M5.8874 4.3704
L5.1617 4.3704
" />
<path d="M5.5245 4.3704
L5.5245 3.1004
" />
<path d="M5.5245 3.1004
L5.4036 3.2819
" />
<path d="M5.4036 3.2819
L5.2826 3.4028
" />
<path d="M5.2826 3.4028
L5.1617 3.4633
" />
</g></g>
<g style="fill:none; 
stroke:#840000; stroke-width:0.1524; stroke-opacity:1; 
stroke-linecap:round; stroke-linejoin:round;">
<path d="M7.4295 7.3279
L3.6195 7.3279
" />
</g>
<g style="fill:none; 
stroke:#A90000; stroke-width:0.1524; stroke-opacity:1; 
stroke-linecap:round; stroke-linejoin:round;">
<text x="5.5245" y="7.0739"
textLength="1.4127" font-size="1.6933" lengthAdjust="spacingAndGlyphs"
text-anchor="middle" opacity="0" stroke-opacity="0">2</text>
<g class="stroked-text"><desc>2</desc>
<path d="M5.1617 5.7614
L5.2221 5.7009
" />
<path d="M5.2221 5.7009
L5.3431 5.6404
" />
<path d="M5.3431 5.6404
L5.6455 5.6404
" />
<path d="M5.6455 5.6404
L5.7664 5.7009
" />
<path d="M5.7664 5.7009
L5.8269 5.7614
" />
<path d="M5.8269 5.7614
L5.8874 5.8823
" />
<path d="M5.8874 5.8823
L5.8874 6.0033
" />
<path d="M5.8874 6.0033
L5.8269 6.1847
" />
<path d="M5.8269 6.1847
L5.1012 6.9104
" />
<path d="M5.1012 6.9104
L5.8874 6.9104
" />
</g></g>
<g style="fill:none; 
stroke:#840000; stroke-width:0.1524; stroke-opacity:1; 
stroke-linecap:round; stroke-linejoin:round;">
<path d="M7.4295 9.8679
L3.6195 9.8679
" />
</g>
<g style="fill:none; 
stroke:#A90000; stroke-width:0.1524; stroke-opacity:1; 
stroke-linecap:round; stroke-linejoin:round;">
<text x="5.5245" y="9.6139"
textLength="1.4127" font-size="1.6933" lengthAdjust="spacingAndGlyphs"
text-anchor="middle" opacity="0" stroke-opacity="0">3</text>
<g class="stroked-text"><desc>3</desc>
<path d="M5.1012 8.1804
L5.8874 8.1804
" />
<path d="M5.8874 8.1804
L5.4640 8.6642
" />
<path d="M5.4640 8.6642
L5.6455 8.6642
" />
<path d="M5.6455 8.6642
L5.7664 8.7247
" />
<path d="M5.7664 8.7247
L5.8269 8.7852
" />
<path d="M5.8269 8.7852
L5.8874 8.9061
" />
<path d="M5.8874 8.9061
L5.8874 9.2085
" />
<path d="M5.8874 9.2085
L5.8269 9.3295
" />
<path d="M5.8269 9.3295
L5.7664 9.3900
" />
<path d="M5.7664 9.3900
L5.6455 9.4504
" />
<path d="M5.6455 9.4504
L5.2826 9.4504
" />
<path d="M5.2826 9.4504
L5.1617 9.3900
" />
<path d="M5.1617 9.3900
L5.1012 9.3295
" />
</g></g>
<g style="fill:none; 
stroke:#840000; stroke-width:0.1524; stroke-opacity:1; 
stroke-linecap:round; stroke-linejoin:round;">
<path d="M7.4295 12.4079
L3.6195 12.4079
" />
</g>
<g style="fill:none; 
stroke:#A90000; stroke-width:0.1524; stroke-opacity:1; 
stroke-linecap:round; stroke-linejoin:round;">
<text x="5.5245" y="12.1539"
textLength="1.4127" font-size="1.6933" lengthAdjust="spacingAndGlyphs"
text-anchor="middle" opacity="0" stroke-opacity="0">4</text>
<g class="stroked-text"><desc>4</desc>
<path d="M5.7664 11.1438
L5.7664 11.9904
" />
<path d="M5.4640 10.6600
L5.1617 11.5671
" />
<path d="M5.1617 11.5671
L5.9478 11.5671
" />
</g></g>
<g style="fill:none; 
stroke:#006464; stroke-width:0.1524; stroke-opacity:1; 
stroke-linecap:round; stroke-linejoin:round;">
<text x="9.7155" y="3.1369"
textLength="2.2594" font-size="1.6933" lengthAdjust="spacingAndGlyphs"
text-anchor="middle" opacity="0" stroke-opacity="0">J?</text>
<g class="stroked-text"><desc>J?</desc>
<path d="M9.3526 1.8114
L9.3526 2.7186
" />
<path d="M9.3526 2.7186
L9.2921 2.9000
" />
<path d="M9.2921 2.9000
L9.1712 3.0210
" />
<path d="M9.1712 3.0210
L8.9897 3.0814
" />
<path d="M8.9897 3.0814
L8.8688 3.0814
" />
<path d="M10.1388 2.9605
L10.1992 3.0210
" />
<path d="M10.1992 3.0210
L10.1388 3.0814
" />
<path d="M10.1388 3.0814
L10.0783 3.0210
" />
<path d="M10.0783 3.0210
L10.1388 2.9605
" />
<path d="M10.1388 2.9605
L10.1388 3.0814
" />
<path d="M9.8969 1.8719
L10.0178 1.8114
" />
<path d="M10.0178 1.8114
L10.3202 1.8114
" />
<path d="M10.3202 1.8114
L10.4411 1.8719
" />
<path d="M10.4411 1.8719
L10.5016 1.9929
" />
<path d="M10.5016 1.9929
L10.5016 2.1138
" />
<path d="M10.5016 2.1138
L10.4411 2.2348
" />
<path d="M10.4411 2.2348
L10.3807 2.2952
" />
<path d="M10.3807 2.2952
L10.2597 2.3557
" />
<path d="M10.2597 2.3557
L10.1992 2.4162
" />
<path d="M10.1992 2.4162
L10.1388 2.5371
" />
<path d="M10.1388 2.5371
L10.1388 2.5976
" />
</g><text x="9.9695" y="15.8369"
textLength="16.5921" font-size="1.6933" lengthAdjust="spacingAndGlyphs"
text-anchor="middle" opacity="0" stroke-opacity="0">FH19C_4S_0_5SH</text>
<g class="stroked-text"><desc>FH19C_4S_0_5SH</desc>
<path d="M2.5008 15.1162
L2.0774 15.1162
" />
<path d="M2.0774 15.7814
L2.0774 14.5114
" />
<path d="M2.0774 14.5114
L2.6822 14.5114
" />
<path d="M3.1660 15.7814
L3.1660 14.5114
" />
<path d="M3.1660 15.1162
L3.8917 15.1162
" />
<path d="M3.8917 15.7814
L3.8917 14.5114
" />
<path d="M5.1618 15.7814
L4.4361 15.7814
" />
<path d="M4.7989 15.7814
L4.7989 14.5114
" />
<path d="M4.7989 14.5114
L4.6780 14.6929
" />
<path d="M4.6780 14.6929
L4.5570 14.8138
" />
<path d="M4.5570 14.8138
L4.4361 14.8743
" />
<path d="M5.7665 15.7814
L6.0084 15.7814
" />
<path d="M6.0084 15.7814
L6.1294 15.7210
" />
<path d="M6.1294 15.7210
L6.1898 15.6605
" />
<path d="M6.1898 15.6605
L6.3108 15.4790
" />
<path d="M6.3108 15.4790
L6.3713 15.2371
" />
<path d="M6.3713 15.2371
L6.3713 14.7533
" />
<path d="M6.3713 14.7533
L6.3108 14.6324
" />
<path d="M6.3108 14.6324
L6.2503 14.5719
" />
<path d="M6.2503 14.5719
L6.1294 14.5114
" />
<path d="M6.1294 14.5114
L5.8875 14.5114
" />
<path d="M5.8875 14.5114
L5.7665 14.5719
" />
<path d="M5.7665 14.5719
L5.7060 14.6324
" />
<path d="M5.7060 14.6324
L5.6456 14.7533
" />
<path d="M5.6456 14.7533
L5.6456 15.0557
" />
<path d="M5.6456 15.0557
L5.7060 15.1767
" />
<path d="M5.7060 15.1767
L5.7665 15.2371
" />
<path d="M5.7665 15.2371
L5.8875 15.2976
" />
<path d="M5.8875 15.2976
L6.1294 15.2976
" />
<path d="M6.1294 15.2976
L6.2503 15.2371
" />
<path d="M6.2503 15.2371
L6.3108 15.1767
" />
<path d="M6.3108 15.1767
L6.3713 15.0557
" />
<path d="M7.6412 15.6605
L7.5808 15.7210
" />
<path d="M7.5808 15.7210
L7.3993 15.7814
" />
<path d="M7.3993 15.7814
L7.2784 15.7814
" />
<path d="M7.2784 15.7814
L7.0970 15.7210
" />
<path d="M7.0970 15.7210
L6.9760 15.6000
" />
<path d="M6.9760 15.6000
L6.9155 15.4790
" />
<path d="M6.9155 15.4790
L6.8551 15.2371
" />
<path d="M6.8551 15.2371
L6.8551 15.0557
" />
<path d="M6.8551 15.0557
L6.9155 14.8138
" />
<path d="M6.9155 14.8138
L6.9760 14.6929
" />
<path d="M6.9760 14.6929
L7.0970 14.5719
" />
<path d="M7.0970 14.5719
L7.2784 14.5114
" />
<path d="M7.2784 14.5114
L7.3993 14.5114
" />
<path d="M7.3993 14.5114
L7.5808 14.5719
" />
<path d="M7.5808 14.5719
L7.6412 14.6324
" />
<path d="M7.8832 15.9024
L8.8508 15.9024
" />
<path d="M9.6974 14.9348
L9.6974 15.7814
" />
<path d="M9.3950 14.4510
L9.0927 15.3581
" />
<path d="M9.0927 15.3581
L9.8788 15.3581
" />
<path d="M10.3022 15.7210
L10.4836 15.7814
" />
<path d="M10.4836 15.7814
L10.7860 15.7814
" />
<path d="M10.7860 15.7814
L10.9069 15.7210
" />
<path d="M10.9069 15.7210
L10.9674 15.6605
" />
<path d="M10.9674 15.6605
L11.0279 15.5395
" />
<path d="M11.0279 15.5395
L11.0279 15.4186
" />
<path d="M11.0279 15.4186
L10.9674 15.2976
" />
<path d="M10.9674 15.2976
L10.9069 15.2371
" />
<path d="M10.9069 15.2371
L10.7860 15.1767
" />
<path d="M10.7860 15.1767
L10.5441 15.1162
" />
<path d="M10.5441 15.1162
L10.4231 15.0557
" />
<path d="M10.4231 15.0557
L10.3626 14.9952
" />
<path d="M10.3626 14.9952
L10.3022 14.8743
" />
<path d="M10.3022 14.8743
L10.3022 14.7533
" />
<path d="M10.3022 14.7533
L10.3626 14.6324
" />
<path d="M10.3626 14.6324
L10.4231 14.5719
" />
<path d="M10.4231 14.5719
L10.5441 14.5114
" />
<path d="M10.5441 14.5114
L10.8464 14.5114
" />
<path d="M10.8464 14.5114
L11.0279 14.5719
" />
<path d="M11.2698 15.9024
L12.2374 15.9024
" />
<path d="M12.7816 14.5114
L12.9026 14.5114
" />
<path d="M12.9026 14.5114
L13.0235 14.5719
" />
<path d="M13.0235 14.5719
L13.0840 14.6324
" />
<path d="M13.0840 14.6324
L13.1445 14.7533
" />
<path d="M13.1445 14.7533
L13.2050 14.9952
" />
<path d="M13.2050 14.9952
L13.2050 15.2976
" />
<path d="M13.2050 15.2976
L13.1445 15.5395
" />
<path d="M13.1445 15.5395
L13.0840 15.6605
" />
<path d="M13.0840 15.6605
L13.0235 15.7210
" />
<path d="M13.0235 15.7210
L12.9026 15.7814
" />
<path d="M12.9026 15.7814
L12.7816 15.7814
" />
<path d="M12.7816 15.7814
L12.6607 15.7210
" />
<path d="M12.6607 15.7210
L12.6002 15.6605
" />
<path d="M12.6002 15.6605
L12.5397 15.5395
" />
<path d="M12.5397 15.5395
L12.4793 15.2976
" />
<path d="M12.4793 15.2976
L12.4793 14.9952
" />
<path d="M12.4793 14.9952
L12.5397 14.7533
" />
<path d="M12.5397 14.7533
L12.6002 14.6324
" />
<path d="M12.6002 14.6324
L12.6607 14.5719
" />
<path d="M12.6607 14.5719
L12.7816 14.5114
" />
<path d="M13.4469 15.9024
L14.4145 15.9024
" />
<path d="M15.3216 14.5114
L14.7168 14.5114
" />
<path d="M14.7168 14.5114
L14.6564 15.1162
" />
<path d="M14.6564 15.1162
L14.7168 15.0557
" />
<path d="M14.7168 15.0557
L14.8378 14.9952
" />
<path d="M14.8378 14.9952
L15.1402 14.9952
" />
<path d="M15.1402 14.9952
L15.2611 15.0557
" />
<path d="M15.2611 15.0557
L15.3216 15.1162
" />
<path d="M15.3216 15.1162
L15.3821 15.2371
" />
<path d="M15.3821 15.2371
L15.3821 15.5395
" />
<path d="M15.3821 15.5395
L15.3216 15.6605
" />
<path d="M15.3216 15.6605
L15.2611 15.7210
" />
<path d="M15.2611 15.7210
L15.1402 15.7814
" />
<path d="M15.1402 15.7814
L14.8378 15.7814
" />
<path d="M14.8378 15.7814
L14.7168 15.7210
" />
<path d="M14.7168 15.7210
L14.6564 15.6605
" />
<path d="M15.8659 15.7210
L16.0473 15.7814
" />
<path d="M16.0473 15.7814
L16.3497 15.7814
" />
<path d="M16.3497 15.7814
L16.4706 15.7210
" />
<path d="M16.4706 15.7210
L16.5311 15.6605
" />
<path d="M16.5311 15.6605
L16.5916 15.5395
" />
<path d="M16.5916 15.5395
L16.5916 15.4186
" />
<path d="M16.5916 15.4186
L16.5311 15.2976
" />
<path d="M16.5311 15.2976
L16.4706 15.2371
" />
<path d="M16.4706 15.2371
L16.3497 15.1767
" />
<path d="M16.3497 15.1767
L16.1078 15.1162
" />
<path d="M16.1078 15.1162
L15.9868 15.0557
" />
<path d="M15.9868 15.0557
L15.9263 14.9952
" />
<path d="M15.9263 14.9952
L15.8659 14.8743
" />
<path d="M15.8659 14.8743
L15.8659 14.7533
" />
<path d="M15.8659 14.7533
L15.9263 14.6324
" />
<path d="M15.9263 14.6324
L15.9868 14.5719
" />
<path d="M15.9868 14.5719
L16.1078 14.5114
" />
<path d="M16.1078 14.5114
L16.4101 14.5114
" />
<path d="M16.4101 14.5114
L16.5916 14.5719
" />
<path d="M17.1358 15.7814
L17.1358 14.5114
" />
<path d="M17.1358 15.1162
L17.8615 15.1162
" />
<path d="M17.8615 15.7814
L17.8615 14.5114
" />
</g></g> 
</svg>
