<?xml version="1.0" standalone="no"?>
 <!DOCTYPE svg PUBLIC "-//W3C//DTD SVG 1.1//EN" 
 "http://www.w3.org/Graphics/SVG/1.1/DTD/svg11.dtd"> 
<svg
  xmlns:svg="http://www.w3.org/2000/svg"
  xmlns="http://www.w3.org/2000/svg"
  xmlns:xlink="http://www.w3.org/1999/xlink"
  xmlns:inkscape="http://www.inkscape.org/namespaces/inkscape"
  version="1.1"
  width="100%" height="100%" viewBox="0.000000 0.000000 17.043400 4.927600">
<title>SVG Image created as FH19C-4S-0.5SH(10).svg date 2026-04-16T02:21:43 </title>
  <desc>Image generated by PCBNEW </desc>
<g style="fill:#000000; fill-opacity:1.000000;stroke:#000000; stroke-opacity:1.000000;
stroke-linecap:round; stroke-linejoin:round;"
 transform="translate(0 0) scale(1 1)">
<path style="fill:#C83434; fill-opacity:1.000000; stroke:none;fill-rule:evenodd;"
d="M 7.909162,2.315050
7.909162,1.515050
8.209162,1.515050
8.209162,2.315050
Z" /> 
<path style="fill:#C83434; fill-opacity:1.000000; stroke:none;fill-rule:evenodd;"
d="M 8.409162,2.315050
8.409162,1.515050
8.709162,1.515050
8.709162,2.315050
Z" /> 
<path style="fill:#C83434; fill-opacity:1.000000; stroke:none;fill-rule:evenodd;"
d="M 8.909162,2.315050
8.909162,1.515050
9.209162,1.515050
9.209162,2.315050
Z" /> 
<path style="fill:#C83434; fill-opacity:1.000000; stroke:none;fill-rule:evenodd;"
d="M 9.409162,2.315050
9.409162,1.515050
9.709162,1.515050
9.709162,2.315050
Z" /> 
<path style="fill:#C83434; fill-opacity:1.000000; stroke:none;fill-rule:evenodd;"
d="M 6.859162,4.815050
6.859162,4.015050
7.259162,4.015050
7.259162,4.815050
Z" /> 
<path style="fill:#C83434; fill-opacity:1.000000; stroke:none;fill-rule:evenodd;"
d="M 10.359162,4.815050
10.359162,4.015050
10.759162,4.015050
10.759162,4.815050
Z" /> 
<path style="fill:#D864FF; fill-opacity:0.400000; stroke:none;fill-rule:evenodd;"
d="M 7.909162,2.315050
7.909162,1.515050
8.209162,1.515050
8.209162,2.315050
Z" /> 
<path style="fill:#D864FF; fill-opacity:0.400000; stroke:none;fill-rule:evenodd;"
d="M 8.409162,2.315050
8.409162,1.515050
8.709162,1.515050
8.709162,2.315050
Z" /> 
<path style="fill:#D864FF; fill-opacity:0.400000; stroke:none;fill-rule:evenodd;"
d="M 8.909162,2.315050
8.909162,1.515050
9.209162,1.515050
9.209162,2.315050
Z" /> 
<path style="fill:#D864FF; fill-opacity:0.400000; stroke:none;fill-rule:evenodd;"
d="M 9.409162,2.315050
9.409162,1.515050
9.709162,1.515050
9.709162,2.315050
Z" /> 
<path style="fill:#D864FF; fill-opacity:0.400000; stroke:none;fill-rule:evenodd;"
d="M 6.859162,4.815050
6.859162,4.015050
7.259162,4.015050
7.259162,4.815050
Z" /> 
<path style="fill:#D864FF; fill-opacity:0.400000; stroke:none;fill-rule:evenodd;"
d="M 10.359162,4.815050
10.359162,4.015050
10.759162,4.015050
10.759162,4.815050
Z" /> 
<path style="fill:#B4A09A; fill-opacity:0.900000; stroke:none;fill-rule:evenodd;"
d="M 7.909162,2.315050
7.909162,1.515050
8.209162,1.515050
8.209162,2.315050
Z" /> 
<path style="fill:#B4A09A; fill-opacity:0.900000; stroke:none;fill-rule:evenodd;"
d="M 8.409162,2.315050
8.409162,1.515050
8.709162,1.515050
8.709162,2.315050
Z" /> 
<path style="fill:#B4A09A; fill-opacity:0.900000; stroke:none;fill-rule:evenodd;"
d="M 8.909162,2.315050
8.909162,1.515050
9.209162,1.515050
9.209162,2.315050
Z" /> 
<path style="fill:#B4A09A; fill-opacity:0.900000; stroke:none;fill-rule:evenodd;"
d="M 9.409162,2.315050
9.409162,1.515050
9.709162,1.515050
9.709162,2.315050
Z" /> 
<path style="fill:#B4A09A; fill-opacity:0.900000; stroke:none;fill-rule:evenodd;"
d="M 6.859162,4.815050
6.859162,4.015050
7.259162,4.015050
7.259162,4.815050
Z" /> 
<path style="fill:#B4A09A; fill-opacity:0.900000; stroke:none;fill-rule:evenodd;"
d="M 10.359162,4.815050
10.359162,4.015050
10.759162,4.015050
10.759162,4.815050
Z" /> 
</g>
<g style="fill:none; 
stroke:#F2EDA1; stroke-width:0.050000; stroke-opacity:1; 
stroke-linecap:round; stroke-linejoin:round;">
<g transform="rotate(-90.000000 8.824402 3.488630)">
<text x="8.824402" y="3.588630"
textLength="0.967143" font-size="0.266666" lengthAdjust="spacingAndGlyphs"
text-anchor="middle" opacity="0" stroke-opacity="0">REF**</text>
</g>
<g class="stroked-text"><desc>REF**</desc>
<path d="M8.914325 3.755296
L8.819087 3.821962
" />
<path d="M8.914325 3.869581
L8.714326 3.869581
" />
<path d="M8.714326 3.869581
L8.714326 3.793391
" />
<path d="M8.714326 3.793391
L8.723850 3.774343
" />
<path d="M8.723850 3.774343
L8.733374 3.764820
" />
<path d="M8.733374 3.764820
L8.752422 3.755296
" />
<path d="M8.752422 3.755296
L8.780993 3.755296
" />
<path d="M8.780993 3.755296
L8.800041 3.764820
" />
<path d="M8.800041 3.764820
L8.809563 3.774343
" />
<path d="M8.809563 3.774343
L8.819087 3.793391
" />
<path d="M8.819087 3.793391
L8.819087 3.869581
" />
<path d="M8.809563 3.669581
L8.809563 3.602915
" />
<path d="M8.914325 3.574343
L8.914325 3.669581
" />
<path d="M8.914325 3.669581
L8.714326 3.669581
" />
<path d="M8.714326 3.669581
L8.714326 3.574343
" />
<path d="M8.809563 3.421963
L8.809563 3.488629
" />
<path d="M8.914325 3.488629
L8.714326 3.488629
" />
<path d="M8.714326 3.488629
L8.714326 3.393391
" />
<path d="M8.714326 3.288629
L8.761945 3.288629
" />
<path d="M8.742898 3.336248
L8.761945 3.288629
" />
<path d="M8.761945 3.288629
L8.742898 3.241010
" />
<path d="M8.800041 3.317200
L8.761945 3.288629
" />
<path d="M8.761945 3.288629
L8.800041 3.260058
" />
<path d="M8.714326 3.136248
L8.761945 3.136248
" />
<path d="M8.742898 3.183867
L8.761945 3.136248
" />
<path d="M8.761945 3.136248
L8.742898 3.088629
" />
<path d="M8.800041 3.164819
L8.761945 3.136248
" />
<path d="M8.761945 3.136248
L8.800041 3.107677
" />
</g></g>
<g style="fill:none; 
stroke:#F2EDA1; stroke-width:0.120000; stroke-opacity:1; 
stroke-linecap:round; stroke-linejoin:round;">
<path d="M6.809162 2.415050
L6.809162 3.915050
" />
<path d="M6.809162 2.415050
L10.809162 2.415050
" />
<path d="M7.559162 4.665050
L10.059162 4.665050
" />
<path d="M10.809162 2.415050
L10.809162 3.915050
" />
<path style="fill:none; 
stroke:#FF26E2; stroke-width:0.050000; stroke-opacity:1; 
stroke-linecap:round; stroke-linejoin:round;fill:none"
d="M 6.609162,1.415050
11.009162,1.415050
11.009162,4.915129
6.609162,4.915129
Z" /> 
</g>
<g style="fill:none; 
stroke:#AFAFAF; stroke-width:0.150000; stroke-opacity:1; 
stroke-linecap:round; stroke-linejoin:round;">
<text x="8.529762" y="1.348250"
textLength="17.059524" font-size="1.333333" lengthAdjust="spacingAndGlyphs"
text-anchor="middle" opacity="0" stroke-opacity="0">FH19C-4S-0.5SH(10)</text>
<g class="stroked-text"><desc>FH19C-4S-0.5SH(10)</desc>
<path d="M0.696429 0.779260
L0.363096 0.779260
" />
<path d="M0.363096 1.303070
L0.363096 0.303070
" />
<path d="M0.363096 0.303070
L0.839286 0.303070
" />
<path d="M1.220239 1.303070
L1.220239 0.303070
" />
<path d="M1.220239 0.779260
L1.791667 0.779260
" />
<path d="M1.791667 1.303070
L1.791667 0.303070
" />
<path d="M2.791667 1.303070
L2.220239 1.303070
" />
<path d="M2.505953 1.303070
L2.505953 0.303070
" />
<path d="M2.505953 0.303070
L2.410715 0.445927
" />
<path d="M2.410715 0.445927
L2.315477 0.541165
" />
<path d="M2.315477 0.541165
L2.220239 0.588784
" />
<path d="M3.267858 1.303070
L3.458334 1.303070
" />
<path d="M3.458334 1.303070
L3.553572 1.255450
" />
<path d="M3.553572 1.255450
L3.601191 1.207831
" />
<path d="M3.601191 1.207831
L3.696429 1.064974
" />
<path d="M3.696429 1.064974
L3.744048 0.874498
" />
<path d="M3.744048 0.874498
L3.744048 0.493546
" />
<path d="M3.744048 0.493546
L3.696429 0.398308
" />
<path d="M3.696429 0.398308
L3.648810 0.350689
" />
<path d="M3.648810 0.350689
L3.553572 0.303070
" />
<path d="M3.553572 0.303070
L3.363096 0.303070
" />
<path d="M3.363096 0.303070
L3.267858 0.350689
" />
<path d="M3.267858 0.350689
L3.220239 0.398308
" />
<path d="M3.220239 0.398308
L3.172620 0.493546
" />
<path d="M3.172620 0.493546
L3.172620 0.731641
" />
<path d="M3.172620 0.731641
L3.220239 0.826879
" />
<path d="M3.220239 0.826879
L3.267858 0.874498
" />
<path d="M3.267858 0.874498
L3.363096 0.922117
" />
<path d="M3.363096 0.922117
L3.553572 0.922117
" />
<path d="M3.553572 0.922117
L3.648810 0.874498
" />
<path d="M3.648810 0.874498
L3.696429 0.826879
" />
<path d="M3.696429 0.826879
L3.744048 0.731641
" />
<path d="M4.744048 1.207831
L4.696429 1.255450
" />
<path d="M4.696429 1.255450
L4.553572 1.303070
" />
<path d="M4.553572 1.303070
L4.458334 1.303070
" />
<path d="M4.458334 1.303070
L4.315477 1.255450
" />
<path d="M4.315477 1.255450
L4.220239 1.160212
" />
<path d="M4.220239 1.160212
L4.172620 1.064974
" />
<path d="M4.172620 1.064974
L4.125001 0.874498
" />
<path d="M4.125001 0.874498
L4.125001 0.731641
" />
<path d="M4.125001 0.731641
L4.172620 0.541165
" />
<path d="M4.172620 0.541165
L4.220239 0.445927
" />
<path d="M4.220239 0.445927
L4.315477 0.350689
" />
<path d="M4.315477 0.350689
L4.458334 0.303070
" />
<path d="M4.458334 0.303070
L4.553572 0.303070
" />
<path d="M4.553572 0.303070
L4.696429 0.350689
" />
<path d="M4.696429 0.350689
L4.744048 0.398308
" />
<path d="M5.172620 0.922117
L5.934524 0.922117
" />
<path d="M6.839286 0.636403
L6.839286 1.303070
" />
<path d="M6.601191 0.255450
L6.363096 0.969736
" />
<path d="M6.363096 0.969736
L6.982143 0.969736
" />
<path d="M7.315477 1.255450
L7.458334 1.303070
" />
<path d="M7.458334 1.303070
L7.696429 1.303070
" />
<path d="M7.696429 1.303070
L7.791667 1.255450
" />
<path d="M7.791667 1.255450
L7.839286 1.207831
" />
<path d="M7.839286 1.207831
L7.886905 1.112593
" />
<path d="M7.886905 1.112593
L7.886905 1.017355
" />
<path d="M7.886905 1.017355
L7.839286 0.922117
" />
<path d="M7.839286 0.922117
L7.791667 0.874498
" />
<path d="M7.791667 0.874498
L7.696429 0.826879
" />
<path d="M7.696429 0.826879
L7.505953 0.779260
" />
<path d="M7.505953 0.779260
L7.410715 0.731641
" />
<path d="M7.410715 0.731641
L7.363096 0.684022
" />
<path d="M7.363096 0.684022
L7.315477 0.588784
" />
<path d="M7.315477 0.588784
L7.315477 0.493546
" />
<path d="M7.315477 0.493546
L7.363096 0.398308
" />
<path d="M7.363096 0.398308
L7.410715 0.350689
" />
<path d="M7.410715 0.350689
L7.505953 0.303070
" />
<path d="M7.505953 0.303070
L7.744048 0.303070
" />
<path d="M7.744048 0.303070
L7.886905 0.350689
" />
<path d="M8.315477 0.922117
L9.077381 0.922117
" />
<path d="M9.744047 0.303070
L9.839285 0.303070
" />
<path d="M9.839285 0.303070
L9.934523 0.350689
" />
<path d="M9.934523 0.350689
L9.982142 0.398308
" />
<path d="M9.982142 0.398308
L10.029761 0.493546
" />
<path d="M10.029761 0.493546
L10.077380 0.684022
" />
<path d="M10.077380 0.684022
L10.077380 0.922117
" />
<path d="M10.077380 0.922117
L10.029761 1.112593
" />
<path d="M10.029761 1.112593
L9.982142 1.207831
" />
<path d="M9.982142 1.207831
L9.934523 1.255450
" />
<path d="M9.934523 1.255450
L9.839285 1.303070
" />
<path d="M9.839285 1.303070
L9.744047 1.303070
" />
<path d="M9.744047 1.303070
L9.648809 1.255450
" />
<path d="M9.648809 1.255450
L9.601190 1.207831
" />
<path d="M9.601190 1.207831
L9.553571 1.112593
" />
<path d="M9.553571 1.112593
L9.505952 0.922117
" />
<path d="M9.505952 0.922117
L9.505952 0.684022
" />
<path d="M9.505952 0.684022
L9.553571 0.493546
" />
<path d="M9.553571 0.493546
L9.601190 0.398308
" />
<path d="M9.601190 0.398308
L9.648809 0.350689
" />
<path d="M9.648809 0.350689
L9.744047 0.303070
" />
<path d="M10.505952 1.207831
L10.553571 1.255450
" />
<path d="M10.553571 1.255450
L10.505952 1.303070
" />
<path d="M10.505952 1.303070
L10.458333 1.255450
" />
<path d="M10.458333 1.255450
L10.505952 1.207831
" />
<path d="M10.505952 1.207831
L10.505952 1.303070
" />
<path d="M11.458332 0.303070
L10.982142 0.303070
" />
<path d="M10.982142 0.303070
L10.934523 0.779260
" />
<path d="M10.934523 0.779260
L10.982142 0.731641
" />
<path d="M10.982142 0.731641
L11.077380 0.684022
" />
<path d="M11.077380 0.684022
L11.315475 0.684022
" />
<path d="M11.315475 0.684022
L11.410713 0.731641
" />
<path d="M11.410713 0.731641
L11.458332 0.779260
" />
<path d="M11.458332 0.779260
L11.505951 0.874498
" />
<path d="M11.505951 0.874498
L11.505951 1.112593
" />
<path d="M11.505951 1.112593
L11.458332 1.207831
" />
<path d="M11.458332 1.207831
L11.410713 1.255450
" />
<path d="M11.410713 1.255450
L11.315475 1.303070
" />
<path d="M11.315475 1.303070
L11.077380 1.303070
" />
<path d="M11.077380 1.303070
L10.982142 1.255450
" />
<path d="M10.982142 1.255450
L10.934523 1.207831
" />
<path d="M11.886904 1.255450
L12.029761 1.303070
" />
<path d="M12.029761 1.303070
L12.267856 1.303070
" />
<path d="M12.267856 1.303070
L12.363094 1.255450
" />
<path d="M12.363094 1.255450
L12.410713 1.207831
" />
<path d="M12.410713 1.207831
L12.458332 1.112593
" />
<path d="M12.458332 1.112593
L12.458332 1.017355
" />
<path d="M12.458332 1.017355
L12.410713 0.922117
" />
<path d="M12.410713 0.922117
L12.363094 0.874498
" />
<path d="M12.363094 0.874498
L12.267856 0.826879
" />
<path d="M12.267856 0.826879
L12.077380 0.779260
" />
<path d="M12.077380 0.779260
L11.982142 0.731641
" />
<path d="M11.982142 0.731641
L11.934523 0.684022
" />
<path d="M11.934523 0.684022
L11.886904 0.588784
" />
<path d="M11.886904 0.588784
L11.886904 0.493546
" />
<path d="M11.886904 0.493546
L11.934523 0.398308
" />
<path d="M11.934523 0.398308
L11.982142 0.350689
" />
<path d="M11.982142 0.350689
L12.077380 0.303070
" />
<path d="M12.077380 0.303070
L12.315475 0.303070
" />
<path d="M12.315475 0.303070
L12.458332 0.350689
" />
<path d="M12.886904 1.303070
L12.886904 0.303070
" />
<path d="M12.886904 0.779260
L13.458332 0.779260
" />
<path d="M13.458332 1.303070
L13.458332 0.303070
" />
<path d="M14.220237 1.684022
L14.172618 1.636403
" />
<path d="M14.172618 1.636403
L14.077380 1.493546
" />
<path d="M14.077380 1.493546
L14.029761 1.398308
" />
<path d="M14.029761 1.398308
L13.982142 1.255450
" />
<path d="M13.982142 1.255450
L13.934523 1.017355
" />
<path d="M13.934523 1.017355
L13.934523 0.826879
" />
<path d="M13.934523 0.826879
L13.982142 0.588784
" />
<path d="M13.982142 0.588784
L14.029761 0.445927
" />
<path d="M14.029761 0.445927
L14.077380 0.350689
" />
<path d="M14.077380 0.350689
L14.172618 0.207831
" />
<path d="M14.172618 0.207831
L14.220237 0.160212
" />
<path d="M15.124999 1.303070
L14.553571 1.303070
" />
<path d="M14.839285 1.303070
L14.839285 0.303070
" />
<path d="M14.839285 0.303070
L14.744047 0.445927
" />
<path d="M14.744047 0.445927
L14.648809 0.541165
" />
<path d="M14.648809 0.541165
L14.553571 0.588784
" />
<path d="M15.744047 0.303070
L15.839285 0.303070
" />
<path d="M15.839285 0.303070
L15.934523 0.350689
" />
<path d="M15.934523 0.350689
L15.982142 0.398308
" />
<path d="M15.982142 0.398308
L16.029761 0.493546
" />
<path d="M16.029761 0.493546
L16.077380 0.684022
" />
<path d="M16.077380 0.684022
L16.077380 0.922117
" />
<path d="M16.077380 0.922117
L16.029761 1.112593
" />
<path d="M16.029761 1.112593
L15.982142 1.207831
" />
<path d="M15.982142 1.207831
L15.934523 1.255450
" />
<path d="M15.934523 1.255450
L15.839285 1.303070
" />
<path d="M15.839285 1.303070
L15.744047 1.303070
" />
<path d="M15.744047 1.303070
L15.648809 1.255450
" />
<path d="M15.648809 1.255450
L15.601190 1.207831
" />
<path d="M15.601190 1.207831
L15.553571 1.112593
" />
<path d="M15.553571 1.112593
L15.505952 0.922117
" />
<path d="M15.505952 0.922117
L15.505952 0.684022
" />
<path d="M15.505952 0.684022
L15.553571 0.493546
" />
<path d="M15.553571 0.493546
L15.601190 0.398308
" />
<path d="M15.601190 0.398308
L15.648809 0.350689
" />
<path d="M15.648809 0.350689
L15.744047 0.303070
" />
<path d="M16.410714 1.684022
L16.458333 1.636403
" />
<path d="M16.458333 1.636403
L16.553571 1.493546
" />
<path d="M16.553571 1.493546
L16.601190 1.398308
" />
<path d="M16.601190 1.398308
L16.648809 1.255450
" />
<path d="M16.648809 1.255450
L16.696428 1.017355
" />
<path d="M16.696428 1.017355
L16.696428 0.826879
" />
<path d="M16.696428 0.826879
L16.648809 0.588784
" />
<path d="M16.648809 0.588784
L16.601190 0.445927
" />
<path d="M16.601190 0.445927
L16.553571 0.350689
" />
<path d="M16.553571 0.350689
L16.458333 0.207831
" />
<path d="M16.458333 0.207831
L16.410714 0.160212
" />
</g></g> 
</svg>
