<?xml version="1.0" standalone="no"?>
 <!DOCTYPE svg PUBLIC "-//W3C//DTD SVG 1.1//EN" 
 "http://www.w3.org/Graphics/SVG/1.1/DTD/svg11.dtd"> 
<svg
  xmlns:svg="http://www.w3.org/2000/svg"
  xmlns="http://www.w3.org/2000/svg"
  xmlns:xlink="http://www.w3.org/1999/xlink"
  xmlns:inkscape="http://www.inkscape.org/namespaces/inkscape"
  version="1.1"
  width="100%" height="100%" viewBox="0.000000 0.000000 18.338800 10.515600">
<title>SVG Image created as iLCC48P70_1000X1000X135L80X40N.svg date 2026-04-16T02:21:47 </title>
  <desc>Image generated by PCBNEW </desc>
<g style="fill:#000000; fill-opacity:1.000000;stroke:#000000; stroke-opacity:1.000000;
stroke-linecap:round; stroke-linejoin:round;"
 transform="translate(0 0) scale(1 1)">
<path style="fill:#C83434; fill-opacity:1.000000; stroke:none;fill-rule:evenodd;"
d="M 8.574286,0.307500
9.074286,0.307500
9.074286,1.555500
8.574286,1.555500
Z" /> 
<path style="fill:#C83434; fill-opacity:1.000000; stroke:none;fill-rule:evenodd;"
d="M 7.874286,0.307500
8.374286,0.307500
8.374286,1.047500
7.874286,1.047500
Z" /> 
<path style="fill:#C83434; fill-opacity:1.000000; stroke:none;fill-rule:evenodd;"
d="M 7.174286,0.307500
7.674286,0.307500
7.674286,1.047500
7.174286,1.047500
Z" /> 
<path style="fill:#C83434; fill-opacity:1.000000; stroke:none;fill-rule:evenodd;"
d="M 6.474286,0.307500
6.974286,0.307500
6.974286,1.047500
6.474286,1.047500
Z" /> 
<path style="fill:#C83434; fill-opacity:1.000000; stroke:none;fill-rule:evenodd;"
d="M 5.774286,0.307500
6.274286,0.307500
6.274286,1.047500
5.774286,1.047500
Z" /> 
<path style="fill:#C83434; fill-opacity:1.000000; stroke:none;fill-rule:evenodd;"
d="M 5.074286,0.307500
5.574286,0.307500
5.574286,1.047500
5.074286,1.047500
Z" /> 
<path style="fill:#C83434; fill-opacity:1.000000; stroke:none;fill-rule:evenodd;"
d="M 4.959286,1.162500
4.959286,1.662500
4.219286,1.662500
4.219286,1.162500
Z" /> 
<path style="fill:#C83434; fill-opacity:1.000000; stroke:none;fill-rule:evenodd;"
d="M 4.959286,1.862500
4.959286,2.362500
4.219286,2.362500
4.219286,1.862500
Z" /> 
<path style="fill:#C83434; fill-opacity:1.000000; stroke:none;fill-rule:evenodd;"
d="M 4.959286,2.562500
4.959286,3.062500
4.219286,3.062500
4.219286,2.562500
Z" /> 
<path style="fill:#C83434; fill-opacity:1.000000; stroke:none;fill-rule:evenodd;"
d="M 4.959286,3.262500
4.959286,3.762500
4.219286,3.762500
4.219286,3.262500
Z" /> 
<path style="fill:#C83434; fill-opacity:1.000000; stroke:none;fill-rule:evenodd;"
d="M 4.959286,3.962500
4.959286,4.462500
4.219286,4.462500
4.219286,3.962500
Z" /> 
<path style="fill:#C83434; fill-opacity:1.000000; stroke:none;fill-rule:evenodd;"
d="M 4.959286,4.662500
4.959286,5.162500
4.219286,5.162500
4.219286,4.662500
Z" /> 
<path style="fill:#C83434; fill-opacity:1.000000; stroke:none;fill-rule:evenodd;"
d="M 4.959286,5.362500
4.959286,5.862500
4.219286,5.862500
4.219286,5.362500
Z" /> 
<path style="fill:#C83434; fill-opacity:1.000000; stroke:none;fill-rule:evenodd;"
d="M 4.959286,6.062500
4.959286,6.562500
4.219286,6.562500
4.219286,6.062500
Z" /> 
<path style="fill:#C83434; fill-opacity:1.000000; stroke:none;fill-rule:evenodd;"
d="M 4.959286,6.762500
4.959286,7.262500
4.219286,7.262500
4.219286,6.762500
Z" /> 
<path style="fill:#C83434; fill-opacity:1.000000; stroke:none;fill-rule:evenodd;"
d="M 4.959286,7.462500
4.959286,7.962500
4.219286,7.962500
4.219286,7.462500
Z" /> 
<path style="fill:#C83434; fill-opacity:1.000000; stroke:none;fill-rule:evenodd;"
d="M 4.959286,8.162500
4.959286,8.662500
4.219286,8.662500
4.219286,8.162500
Z" /> 
<path style="fill:#C83434; fill-opacity:1.000000; stroke:none;fill-rule:evenodd;"
d="M 4.959286,8.862500
4.959286,9.362500
4.219286,9.362500
4.219286,8.862500
Z" /> 
<path style="fill:#C83434; fill-opacity:1.000000; stroke:none;fill-rule:evenodd;"
d="M 5.074286,9.477500
5.574286,9.477500
5.574286,10.217500
5.074286,10.217500
Z" /> 
<path style="fill:#C83434; fill-opacity:1.000000; stroke:none;fill-rule:evenodd;"
d="M 5.774286,9.477500
6.274286,9.477500
6.274286,10.217500
5.774286,10.217500
Z" /> 
<path style="fill:#C83434; fill-opacity:1.000000; stroke:none;fill-rule:evenodd;"
d="M 6.474286,9.477500
6.974286,9.477500
6.974286,10.217500
6.474286,10.217500
Z" /> 
<path style="fill:#C83434; fill-opacity:1.000000; stroke:none;fill-rule:evenodd;"
d="M 7.174286,9.477500
7.674286,9.477500
7.674286,10.217500
7.174286,10.217500
Z" /> 
<path style="fill:#C83434; fill-opacity:1.000000; stroke:none;fill-rule:evenodd;"
d="M 7.874286,9.477500
8.374286,9.477500
8.374286,10.217500
7.874286,10.217500
Z" /> 
<path style="fill:#C83434; fill-opacity:1.000000; stroke:none;fill-rule:evenodd;"
d="M 8.574286,9.477500
9.074286,9.477500
9.074286,10.217500
8.574286,10.217500
Z" /> 
<path style="fill:#C83434; fill-opacity:1.000000; stroke:none;fill-rule:evenodd;"
d="M 9.274286,9.477500
9.774286,9.477500
9.774286,10.217500
9.274286,10.217500
Z" /> 
<path style="fill:#C83434; fill-opacity:1.000000; stroke:none;fill-rule:evenodd;"
d="M 9.974286,9.477500
10.474286,9.477500
10.474286,10.217500
9.974286,10.217500
Z" /> 
<path style="fill:#C83434; fill-opacity:1.000000; stroke:none;fill-rule:evenodd;"
d="M 10.674286,9.477500
11.174286,9.477500
11.174286,10.217500
10.674286,10.217500
Z" /> 
<path style="fill:#C83434; fill-opacity:1.000000; stroke:none;fill-rule:evenodd;"
d="M 11.374286,9.477500
11.874286,9.477500
11.874286,10.217500
11.374286,10.217500
Z" /> 
<path style="fill:#C83434; fill-opacity:1.000000; stroke:none;fill-rule:evenodd;"
d="M 12.074286,9.477500
12.574286,9.477500
12.574286,10.217500
12.074286,10.217500
Z" /> 
<path style="fill:#C83434; fill-opacity:1.000000; stroke:none;fill-rule:evenodd;"
d="M 12.774286,9.477500
13.274286,9.477500
13.274286,10.217500
12.774286,10.217500
Z" /> 
<path style="fill:#C83434; fill-opacity:1.000000; stroke:none;fill-rule:evenodd;"
d="M 14.129286,8.862500
14.129286,9.362500
13.389286,9.362500
13.389286,8.862500
Z" /> 
<path style="fill:#C83434; fill-opacity:1.000000; stroke:none;fill-rule:evenodd;"
d="M 14.129286,8.162500
14.129286,8.662500
13.389286,8.662500
13.389286,8.162500
Z" /> 
<path style="fill:#C83434; fill-opacity:1.000000; stroke:none;fill-rule:evenodd;"
d="M 14.129286,7.462500
14.129286,7.962500
13.389286,7.962500
13.389286,7.462500
Z" /> 
<path style="fill:#C83434; fill-opacity:1.000000; stroke:none;fill-rule:evenodd;"
d="M 14.129286,6.762500
14.129286,7.262500
13.389286,7.262500
13.389286,6.762500
Z" /> 
<path style="fill:#C83434; fill-opacity:1.000000; stroke:none;fill-rule:evenodd;"
d="M 14.129286,6.062500
14.129286,6.562500
13.389286,6.562500
13.389286,6.062500
Z" /> 
<path style="fill:#C83434; fill-opacity:1.000000; stroke:none;fill-rule:evenodd;"
d="M 14.129286,5.362500
14.129286,5.862500
13.389286,5.862500
13.389286,5.362500
Z" /> 
<path style="fill:#C83434; fill-opacity:1.000000; stroke:none;fill-rule:evenodd;"
d="M 14.129286,4.662500
14.129286,5.162500
13.389286,5.162500
13.389286,4.662500
Z" /> 
<path style="fill:#C83434; fill-opacity:1.000000; stroke:none;fill-rule:evenodd;"
d="M 14.129286,3.962500
14.129286,4.462500
13.389286,4.462500
13.389286,3.962500
Z" /> 
<path style="fill:#C83434; fill-opacity:1.000000; stroke:none;fill-rule:evenodd;"
d="M 14.129286,3.262500
14.129286,3.762500
13.389286,3.762500
13.389286,3.262500
Z" /> 
<path style="fill:#C83434; fill-opacity:1.000000; stroke:none;fill-rule:evenodd;"
d="M 14.129286,2.562500
14.129286,3.062500
13.389286,3.062500
13.389286,2.562500
Z" /> 
<path style="fill:#C83434; fill-opacity:1.000000; stroke:none;fill-rule:evenodd;"
d="M 14.129286,1.862500
14.129286,2.362500
13.389286,2.362500
13.389286,1.862500
Z" /> 
<path style="fill:#C83434; fill-opacity:1.000000; stroke:none;fill-rule:evenodd;"
d="M 14.129286,1.162500
14.129286,1.662500
13.389286,1.662500
13.389286,1.162500
Z" /> 
<path style="fill:#C83434; fill-opacity:1.000000; stroke:none;fill-rule:evenodd;"
d="M 12.774286,0.307500
13.274286,0.307500
13.274286,1.047500
12.774286,1.047500
Z" /> 
<path style="fill:#C83434; fill-opacity:1.000000; stroke:none;fill-rule:evenodd;"
d="M 12.074286,0.307500
12.574286,0.307500
12.574286,1.047500
12.074286,1.047500
Z" /> 
<path style="fill:#C83434; fill-opacity:1.000000; stroke:none;fill-rule:evenodd;"
d="M 11.374286,0.307500
11.874286,0.307500
11.874286,1.047500
11.374286,1.047500
Z" /> 
<path style="fill:#C83434; fill-opacity:1.000000; stroke:none;fill-rule:evenodd;"
d="M 10.674286,0.307500
11.174286,0.307500
11.174286,1.047500
10.674286,1.047500
Z" /> 
<path style="fill:#C83434; fill-opacity:1.000000; stroke:none;fill-rule:evenodd;"
d="M 9.974286,0.307500
10.474286,0.307500
10.474286,1.047500
9.974286,1.047500
Z" /> 
<path style="fill:#C83434; fill-opacity:1.000000; stroke:none;fill-rule:evenodd;"
d="M 9.274286,0.307500
9.774286,0.307500
9.774286,1.047500
9.274286,1.047500
Z" /> 
<path style="fill:#D864FF; fill-opacity:0.400000; stroke:none;fill-rule:evenodd;"
d="M 8.574286,0.307500
9.074286,0.307500
9.074286,1.555500
8.574286,1.555500
Z" /> 
<path style="fill:#D864FF; fill-opacity:0.400000; stroke:none;fill-rule:evenodd;"
d="M 7.874286,0.307500
8.374286,0.307500
8.374286,1.047500
7.874286,1.047500
Z" /> 
<path style="fill:#D864FF; fill-opacity:0.400000; stroke:none;fill-rule:evenodd;"
d="M 7.174286,0.307500
7.674286,0.307500
7.674286,1.047500
7.174286,1.047500
Z" /> 
<path style="fill:#D864FF; fill-opacity:0.400000; stroke:none;fill-rule:evenodd;"
d="M 6.474286,0.307500
6.974286,0.307500
6.974286,1.047500
6.474286,1.047500
Z" /> 
<path style="fill:#D864FF; fill-opacity:0.400000; stroke:none;fill-rule:evenodd;"
d="M 5.774286,0.307500
6.274286,0.307500
6.274286,1.047500
5.774286,1.047500
Z" /> 
<path style="fill:#D864FF; fill-opacity:0.400000; stroke:none;fill-rule:evenodd;"
d="M 5.074286,0.307500
5.574286,0.307500
5.574286,1.047500
5.074286,1.047500
Z" /> 
<path style="fill:#D864FF; fill-opacity:0.400000; stroke:none;fill-rule:evenodd;"
d="M 4.959286,1.162500
4.959286,1.662500
4.219286,1.662500
4.219286,1.162500
Z" /> 
<path style="fill:#D864FF; fill-opacity:0.400000; stroke:none;fill-rule:evenodd;"
d="M 4.959286,1.862500
4.959286,2.362500
4.219286,2.362500
4.219286,1.862500
Z" /> 
<path style="fill:#D864FF; fill-opacity:0.400000; stroke:none;fill-rule:evenodd;"
d="M 4.959286,2.562500
4.959286,3.062500
4.219286,3.062500
4.219286,2.562500
Z" /> 
<path style="fill:#D864FF; fill-opacity:0.400000; stroke:none;fill-rule:evenodd;"
d="M 4.959286,3.262500
4.959286,3.762500
4.219286,3.762500
4.219286,3.262500
Z" /> 
<path style="fill:#D864FF; fill-opacity:0.400000; stroke:none;fill-rule:evenodd;"
d="M 4.959286,3.962500
4.959286,4.462500
4.219286,4.462500
4.219286,3.962500
Z" /> 
<path style="fill:#D864FF; fill-opacity:0.400000; stroke:none;fill-rule:evenodd;"
d="M 4.959286,4.662500
4.959286,5.162500
4.219286,5.162500
4.219286,4.662500
Z" /> 
<path style="fill:#D864FF; fill-opacity:0.400000; stroke:none;fill-rule:evenodd;"
d="M 4.959286,5.362500
4.959286,5.862500
4.219286,5.862500
4.219286,5.362500
Z" /> 
<path style="fill:#D864FF; fill-opacity:0.400000; stroke:none;fill-rule:evenodd;"
d="M 4.959286,6.062500
4.959286,6.562500
4.219286,6.562500
4.219286,6.062500
Z" /> 
<path style="fill:#D864FF; fill-opacity:0.400000; stroke:none;fill-rule:evenodd;"
d="M 4.959286,6.762500
4.959286,7.262500
4.219286,7.262500
4.219286,6.762500
Z" /> 
<path style="fill:#D864FF; fill-opacity:0.400000; stroke:none;fill-rule:evenodd;"
d="M 4.959286,7.462500
4.959286,7.962500
4.219286,7.962500
4.219286,7.462500
Z" /> 
<path style="fill:#D864FF; fill-opacity:0.400000; stroke:none;fill-rule:evenodd;"
d="M 4.959286,8.162500
4.959286,8.662500
4.219286,8.662500
4.219286,8.162500
Z" /> 
<path style="fill:#D864FF; fill-opacity:0.400000; stroke:none;fill-rule:evenodd;"
d="M 4.959286,8.862500
4.959286,9.362500
4.219286,9.362500
4.219286,8.862500
Z" /> 
<path style="fill:#D864FF; fill-opacity:0.400000; stroke:none;fill-rule:evenodd;"
d="M 5.074286,9.477500
5.574286,9.477500
5.574286,10.217500
5.074286,10.217500
Z" /> 
<path style="fill:#D864FF; fill-opacity:0.400000; stroke:none;fill-rule:evenodd;"
d="M 5.774286,9.477500
6.274286,9.477500
6.274286,10.217500
5.774286,10.217500
Z" /> 
<path style="fill:#D864FF; fill-opacity:0.400000; stroke:none;fill-rule:evenodd;"
d="M 6.474286,9.477500
6.974286,9.477500
6.974286,10.217500
6.474286,10.217500
Z" /> 
<path style="fill:#D864FF; fill-opacity:0.400000; stroke:none;fill-rule:evenodd;"
d="M 7.174286,9.477500
7.674286,9.477500
7.674286,10.217500
7.174286,10.217500
Z" /> 
<path style="fill:#D864FF; fill-opacity:0.400000; stroke:none;fill-rule:evenodd;"
d="M 7.874286,9.477500
8.374286,9.477500
8.374286,10.217500
7.874286,10.217500
Z" /> 
<path style="fill:#D864FF; fill-opacity:0.400000; stroke:none;fill-rule:evenodd;"
d="M 8.574286,9.477500
9.074286,9.477500
9.074286,10.217500
8.574286,10.217500
Z" /> 
<path style="fill:#D864FF; fill-opacity:0.400000; stroke:none;fill-rule:evenodd;"
d="M 9.274286,9.477500
9.774286,9.477500
9.774286,10.217500
9.274286,10.217500
Z" /> 
<path style="fill:#D864FF; fill-opacity:0.400000; stroke:none;fill-rule:evenodd;"
d="M 9.974286,9.477500
10.474286,9.477500
10.474286,10.217500
9.974286,10.217500
Z" /> 
<path style="fill:#D864FF; fill-opacity:0.400000; stroke:none;fill-rule:evenodd;"
d="M 10.674286,9.477500
11.174286,9.477500
11.174286,10.217500
10.674286,10.217500
Z" /> 
<path style="fill:#D864FF; fill-opacity:0.400000; stroke:none;fill-rule:evenodd;"
d="M 11.374286,9.477500
11.874286,9.477500
11.874286,10.217500
11.374286,10.217500
Z" /> 
<path style="fill:#D864FF; fill-opacity:0.400000; stroke:none;fill-rule:evenodd;"
d="M 12.074286,9.477500
12.574286,9.477500
12.574286,10.217500
12.074286,10.217500
Z" /> 
<path style="fill:#D864FF; fill-opacity:0.400000; stroke:none;fill-rule:evenodd;"
d="M 12.774286,9.477500
13.274286,9.477500
13.274286,10.217500
12.774286,10.217500
Z" /> 
<path style="fill:#D864FF; fill-opacity:0.400000; stroke:none;fill-rule:evenodd;"
d="M 14.129286,8.862500
14.129286,9.362500
13.389286,9.362500
13.389286,8.862500
Z" /> 
<path style="fill:#D864FF; fill-opacity:0.400000; stroke:none;fill-rule:evenodd;"
d="M 14.129286,8.162500
14.129286,8.662500
13.389286,8.662500
13.389286,8.162500
Z" /> 
<path style="fill:#D864FF; fill-opacity:0.400000; stroke:none;fill-rule:evenodd;"
d="M 14.129286,7.462500
14.129286,7.962500
13.389286,7.962500
13.389286,7.462500
Z" /> 
<path style="fill:#D864FF; fill-opacity:0.400000; stroke:none;fill-rule:evenodd;"
d="M 14.129286,6.762500
14.129286,7.262500
13.389286,7.262500
13.389286,6.762500
Z" /> 
<path style="fill:#D864FF; fill-opacity:0.400000; stroke:none;fill-rule:evenodd;"
d="M 14.129286,6.062500
14.129286,6.562500
13.389286,6.562500
13.389286,6.062500
Z" /> 
<path style="fill:#D864FF; fill-opacity:0.400000; stroke:none;fill-rule:evenodd;"
d="M 14.129286,5.362500
14.129286,5.862500
13.389286,5.862500
13.389286,5.362500
Z" /> 
<path style="fill:#D864FF; fill-opacity:0.400000; stroke:none;fill-rule:evenodd;"
d="M 14.129286,4.662500
14.129286,5.162500
13.389286,5.162500
13.389286,4.662500
Z" /> 
<path style="fill:#D864FF; fill-opacity:0.400000; stroke:none;fill-rule:evenodd;"
d="M 14.129286,3.962500
14.129286,4.462500
13.389286,4.462500
13.389286,3.962500
Z" /> 
<path style="fill:#D864FF; fill-opacity:0.400000; stroke:none;fill-rule:evenodd;"
d="M 14.129286,3.262500
14.129286,3.762500
13.389286,3.762500
13.389286,3.262500
Z" /> 
<path style="fill:#D864FF; fill-opacity:0.400000; stroke:none;fill-rule:evenodd;"
d="M 14.129286,2.562500
14.129286,3.062500
13.389286,3.062500
13.389286,2.562500
Z" /> 
<path style="fill:#D864FF; fill-opacity:0.400000; stroke:none;fill-rule:evenodd;"
d="M 14.129286,1.862500
14.129286,2.362500
13.389286,2.362500
13.389286,1.862500
Z" /> 
<path style="fill:#D864FF; fill-opacity:0.400000; stroke:none;fill-rule:evenodd;"
d="M 14.129286,1.162500
14.129286,1.662500
13.389286,1.662500
13.389286,1.162500
Z" /> 
<path style="fill:#D864FF; fill-opacity:0.400000; stroke:none;fill-rule:evenodd;"
d="M 12.774286,0.307500
13.274286,0.307500
13.274286,1.047500
12.774286,1.047500
Z" /> 
<path style="fill:#D864FF; fill-opacity:0.400000; stroke:none;fill-rule:evenodd;"
d="M 12.074286,0.307500
12.574286,0.307500
12.574286,1.047500
12.074286,1.047500
Z" /> 
<path style="fill:#D864FF; fill-opacity:0.400000; stroke:none;fill-rule:evenodd;"
d="M 11.374286,0.307500
11.874286,0.307500
11.874286,1.047500
11.374286,1.047500
Z" /> 
<path style="fill:#D864FF; fill-opacity:0.400000; stroke:none;fill-rule:evenodd;"
d="M 10.674286,0.307500
11.174286,0.307500
11.174286,1.047500
10.674286,1.047500
Z" /> 
<path style="fill:#D864FF; fill-opacity:0.400000; stroke:none;fill-rule:evenodd;"
d="M 9.974286,0.307500
10.474286,0.307500
10.474286,1.047500
9.974286,1.047500
Z" /> 
<path style="fill:#D864FF; fill-opacity:0.400000; stroke:none;fill-rule:evenodd;"
d="M 9.274286,0.307500
9.774286,0.307500
9.774286,1.047500
9.274286,1.047500
Z" /> 
<path style="fill:#B4A09A; fill-opacity:0.900000; stroke:none;fill-rule:evenodd;"
d="M 8.574286,0.307500
9.074286,0.307500
9.074286,1.555500
8.574286,1.555500
Z" /> 
<path style="fill:#B4A09A; fill-opacity:0.900000; stroke:none;fill-rule:evenodd;"
d="M 7.874286,0.307500
8.374286,0.307500
8.374286,1.047500
7.874286,1.047500
Z" /> 
<path style="fill:#B4A09A; fill-opacity:0.900000; stroke:none;fill-rule:evenodd;"
d="M 7.174286,0.307500
7.674286,0.307500
7.674286,1.047500
7.174286,1.047500
Z" /> 
<path style="fill:#B4A09A; fill-opacity:0.900000; stroke:none;fill-rule:evenodd;"
d="M 6.474286,0.307500
6.974286,0.307500
6.974286,1.047500
6.474286,1.047500
Z" /> 
<path style="fill:#B4A09A; fill-opacity:0.900000; stroke:none;fill-rule:evenodd;"
d="M 5.774286,0.307500
6.274286,0.307500
6.274286,1.047500
5.774286,1.047500
Z" /> 
<path style="fill:#B4A09A; fill-opacity:0.900000; stroke:none;fill-rule:evenodd;"
d="M 5.074286,0.307500
5.574286,0.307500
5.574286,1.047500
5.074286,1.047500
Z" /> 
<path style="fill:#B4A09A; fill-opacity:0.900000; stroke:none;fill-rule:evenodd;"
d="M 4.959286,1.162500
4.959286,1.662500
4.219286,1.662500
4.219286,1.162500
Z" /> 
<path style="fill:#B4A09A; fill-opacity:0.900000; stroke:none;fill-rule:evenodd;"
d="M 4.959286,1.862500
4.959286,2.362500
4.219286,2.362500
4.219286,1.862500
Z" /> 
<path style="fill:#B4A09A; fill-opacity:0.900000; stroke:none;fill-rule:evenodd;"
d="M 4.959286,2.562500
4.959286,3.062500
4.219286,3.062500
4.219286,2.562500
Z" /> 
<path style="fill:#B4A09A; fill-opacity:0.900000; stroke:none;fill-rule:evenodd;"
d="M 4.959286,3.262500
4.959286,3.762500
4.219286,3.762500
4.219286,3.262500
Z" /> 
<path style="fill:#B4A09A; fill-opacity:0.900000; stroke:none;fill-rule:evenodd;"
d="M 4.959286,3.962500
4.959286,4.462500
4.219286,4.462500
4.219286,3.962500
Z" /> 
<path style="fill:#B4A09A; fill-opacity:0.900000; stroke:none;fill-rule:evenodd;"
d="M 4.959286,4.662500
4.959286,5.162500
4.219286,5.162500
4.219286,4.662500
Z" /> 
<path style="fill:#B4A09A; fill-opacity:0.900000; stroke:none;fill-rule:evenodd;"
d="M 4.959286,5.362500
4.959286,5.862500
4.219286,5.862500
4.219286,5.362500
Z" /> 
<path style="fill:#B4A09A; fill-opacity:0.900000; stroke:none;fill-rule:evenodd;"
d="M 4.959286,6.062500
4.959286,6.562500
4.219286,6.562500
4.219286,6.062500
Z" /> 
<path style="fill:#B4A09A; fill-opacity:0.900000; stroke:none;fill-rule:evenodd;"
d="M 4.959286,6.762500
4.959286,7.262500
4.219286,7.262500
4.219286,6.762500
Z" /> 
<path style="fill:#B4A09A; fill-opacity:0.900000; stroke:none;fill-rule:evenodd;"
d="M 4.959286,7.462500
4.959286,7.962500
4.219286,7.962500
4.219286,7.462500
Z" /> 
<path style="fill:#B4A09A; fill-opacity:0.900000; stroke:none;fill-rule:evenodd;"
d="M 4.959286,8.162500
4.959286,8.662500
4.219286,8.662500
4.219286,8.162500
Z" /> 
<path style="fill:#B4A09A; fill-opacity:0.900000; stroke:none;fill-rule:evenodd;"
d="M 4.959286,8.862500
4.959286,9.362500
4.219286,9.362500
4.219286,8.862500
Z" /> 
<path style="fill:#B4A09A; fill-opacity:0.900000; stroke:none;fill-rule:evenodd;"
d="M 5.074286,9.477500
5.574286,9.477500
5.574286,10.217500
5.074286,10.217500
Z" /> 
<path style="fill:#B4A09A; fill-opacity:0.900000; stroke:none;fill-rule:evenodd;"
d="M 5.774286,9.477500
6.274286,9.477500
6.274286,10.217500
5.774286,10.217500
Z" /> 
<path style="fill:#B4A09A; fill-opacity:0.900000; stroke:none;fill-rule:evenodd;"
d="M 6.474286,9.477500
6.974286,9.477500
6.974286,10.217500
6.474286,10.217500
Z" /> 
<path style="fill:#B4A09A; fill-opacity:0.900000; stroke:none;fill-rule:evenodd;"
d="M 7.174286,9.477500
7.674286,9.477500
7.674286,10.217500
7.174286,10.217500
Z" /> 
<path style="fill:#B4A09A; fill-opacity:0.900000; stroke:none;fill-rule:evenodd;"
d="M 7.874286,9.477500
8.374286,9.477500
8.374286,10.217500
7.874286,10.217500
Z" /> 
<path style="fill:#B4A09A; fill-opacity:0.900000; stroke:none;fill-rule:evenodd;"
d="M 8.574286,9.477500
9.074286,9.477500
9.074286,10.217500
8.574286,10.217500
Z" /> 
<path style="fill:#B4A09A; fill-opacity:0.900000; stroke:none;fill-rule:evenodd;"
d="M 9.274286,9.477500
9.774286,9.477500
9.774286,10.217500
9.274286,10.217500
Z" /> 
<path style="fill:#B4A09A; fill-opacity:0.900000; stroke:none;fill-rule:evenodd;"
d="M 9.974286,9.477500
10.474286,9.477500
10.474286,10.217500
9.974286,10.217500
Z" /> 
<path style="fill:#B4A09A; fill-opacity:0.900000; stroke:none;fill-rule:evenodd;"
d="M 10.674286,9.477500
11.174286,9.477500
11.174286,10.217500
10.674286,10.217500
Z" /> 
<path style="fill:#B4A09A; fill-opacity:0.900000; stroke:none;fill-rule:evenodd;"
d="M 11.374286,9.477500
11.874286,9.477500
11.874286,10.217500
11.374286,10.217500
Z" /> 
<path style="fill:#B4A09A; fill-opacity:0.900000; stroke:none;fill-rule:evenodd;"
d="M 12.074286,9.477500
12.574286,9.477500
12.574286,10.217500
12.074286,10.217500
Z" /> 
<path style="fill:#B4A09A; fill-opacity:0.900000; stroke:none;fill-rule:evenodd;"
d="M 12.774286,9.477500
13.274286,9.477500
13.274286,10.217500
12.774286,10.217500
Z" /> 
<path style="fill:#B4A09A; fill-opacity:0.900000; stroke:none;fill-rule:evenodd;"
d="M 14.129286,8.862500
14.129286,9.362500
13.389286,9.362500
13.389286,8.862500
Z" /> 
<path style="fill:#B4A09A; fill-opacity:0.900000; stroke:none;fill-rule:evenodd;"
d="M 14.129286,8.162500
14.129286,8.662500
13.389286,8.662500
13.389286,8.162500
Z" /> 
<path style="fill:#B4A09A; fill-opacity:0.900000; stroke:none;fill-rule:evenodd;"
d="M 14.129286,7.462500
14.129286,7.962500
13.389286,7.962500
13.389286,7.462500
Z" /> 
<path style="fill:#B4A09A; fill-opacity:0.900000; stroke:none;fill-rule:evenodd;"
d="M 14.129286,6.762500
14.129286,7.262500
13.389286,7.262500
13.389286,6.762500
Z" /> 
<path style="fill:#B4A09A; fill-opacity:0.900000; stroke:none;fill-rule:evenodd;"
d="M 14.129286,6.062500
14.129286,6.562500
13.389286,6.562500
13.389286,6.062500
Z" /> 
<path style="fill:#B4A09A; fill-opacity:0.900000; stroke:none;fill-rule:evenodd;"
d="M 14.129286,5.362500
14.129286,5.862500
13.389286,5.862500
13.389286,5.362500
Z" /> 
<path style="fill:#B4A09A; fill-opacity:0.900000; stroke:none;fill-rule:evenodd;"
d="M 14.129286,4.662500
14.129286,5.162500
13.389286,5.162500
13.389286,4.662500
Z" /> 
<path style="fill:#B4A09A; fill-opacity:0.900000; stroke:none;fill-rule:evenodd;"
d="M 14.129286,3.962500
14.129286,4.462500
13.389286,4.462500
13.389286,3.962500
Z" /> 
<path style="fill:#B4A09A; fill-opacity:0.900000; stroke:none;fill-rule:evenodd;"
d="M 14.129286,3.262500
14.129286,3.762500
13.389286,3.762500
13.389286,3.262500
Z" /> 
<path style="fill:#B4A09A; fill-opacity:0.900000; stroke:none;fill-rule:evenodd;"
d="M 14.129286,2.562500
14.129286,3.062500
13.389286,3.062500
13.389286,2.562500
Z" /> 
<path style="fill:#B4A09A; fill-opacity:0.900000; stroke:none;fill-rule:evenodd;"
d="M 14.129286,1.862500
14.129286,2.362500
13.389286,2.362500
13.389286,1.862500
Z" /> 
<path style="fill:#B4A09A; fill-opacity:0.900000; stroke:none;fill-rule:evenodd;"
d="M 14.129286,1.162500
14.129286,1.662500
13.389286,1.662500
13.389286,1.162500
Z" /> 
<path style="fill:#B4A09A; fill-opacity:0.900000; stroke:none;fill-rule:evenodd;"
d="M 12.774286,0.307500
13.274286,0.307500
13.274286,1.047500
12.774286,1.047500
Z" /> 
<path style="fill:#B4A09A; fill-opacity:0.900000; stroke:none;fill-rule:evenodd;"
d="M 12.074286,0.307500
12.574286,0.307500
12.574286,1.047500
12.074286,1.047500
Z" /> 
<path style="fill:#B4A09A; fill-opacity:0.900000; stroke:none;fill-rule:evenodd;"
d="M 11.374286,0.307500
11.874286,0.307500
11.874286,1.047500
11.374286,1.047500
Z" /> 
<path style="fill:#B4A09A; fill-opacity:0.900000; stroke:none;fill-rule:evenodd;"
d="M 10.674286,0.307500
11.174286,0.307500
11.174286,1.047500
10.674286,1.047500
Z" /> 
<path style="fill:#B4A09A; fill-opacity:0.900000; stroke:none;fill-rule:evenodd;"
d="M 9.974286,0.307500
10.474286,0.307500
10.474286,1.047500
9.974286,1.047500
Z" /> 
<path style="fill:#B4A09A; fill-opacity:0.900000; stroke:none;fill-rule:evenodd;"
d="M 9.274286,0.307500
9.774286,0.307500
9.774286,1.047500
9.274286,1.047500
Z" /> 
</g>
<g style="fill:none; 
stroke:#F2EDA1; stroke-width:0.200000; stroke-opacity:1; 
stroke-linecap:round; stroke-linejoin:round;">
<text x="9.174286" y="6.262500"
textLength="8.771430" font-size="2.666666" lengthAdjust="spacingAndGlyphs"
text-anchor="middle" opacity="0" stroke-opacity="0">REF**</text>
<g class="stroked-text"><desc>REF**</desc>
<path d="M6.507619 6.177338
L5.840952 5.224958
" />
<path d="M5.364762 6.177338
L5.364762 4.177339
" />
<path d="M5.364762 4.177339
L6.126667 4.177339
" />
<path d="M6.126667 4.177339
L6.317143 4.272577
" />
<path d="M6.317143 4.272577
L6.412381 4.367815
" />
<path d="M6.412381 4.367815
L6.507619 4.558291
" />
<path d="M6.507619 4.558291
L6.507619 4.844005
" />
<path d="M6.507619 4.844005
L6.412381 5.034481
" />
<path d="M6.412381 5.034481
L6.317143 5.129720
" />
<path d="M6.317143 5.129720
L6.126667 5.224958
" />
<path d="M6.126667 5.224958
L5.364762 5.224958
" />
<path d="M7.364762 5.129720
L8.031429 5.129720
" />
<path d="M8.317143 6.177338
L7.364762 6.177338
" />
<path d="M7.364762 6.177338
L7.364762 4.177339
" />
<path d="M7.364762 4.177339
L8.317143 4.177339
" />
<path d="M9.840952 5.129720
L9.174286 5.129720
" />
<path d="M9.174286 6.177338
L9.174286 4.177339
" />
<path d="M9.174286 4.177339
L10.126666 4.177339
" />
<path d="M11.174285 4.177339
L11.174285 4.653529
" />
<path d="M10.698095 4.463053
L11.174285 4.653529
" />
<path d="M11.174285 4.653529
L11.650476 4.463053
" />
<path d="M10.888571 5.034481
L11.174285 4.653529
" />
<path d="M11.174285 4.653529
L11.460000 5.034481
" />
<path d="M12.698095 4.177339
L12.698095 4.653529
" />
<path d="M12.221905 4.463053
L12.698095 4.653529
" />
<path d="M12.698095 4.653529
L13.174286 4.463053
" />
<path d="M12.412381 5.034481
L12.698095 4.653529
" />
<path d="M12.698095 4.653529
L12.983810 5.034481
" />
</g></g>
<g style="fill:none; 
stroke:#F2EDA1; stroke-width:0.120000; stroke-opacity:1; 
stroke-linecap:round; stroke-linejoin:round;">
<path d="M14.214286 10.302500
L14.214286 9.542500
" />
<path d="M14.214286 0.222500
L14.214286 0.982500
" />
<path d="M13.454286 10.302500
L14.214286 10.302500
" />
<path d="M13.454286 0.222500
L14.214286 0.222500
" />
<path d="M4.894286 10.302500
L4.134286 10.302500
" />
<path d="M4.894286 0.222500
L4.134286 0.222500
" />
<path d="M4.134286 10.302500
L4.134286 9.542500
" />
<path d="M4.134286 0.222500
L4.134286 0.982500
" />
</g>
<g style="fill:none; 
stroke:#FF26E2; stroke-width:0.050000; stroke-opacity:1; 
stroke-linecap:round; stroke-linejoin:round;">
<path d="M14.411786 10.500000
L14.411786 0.025000
" />
<path d="M14.411786 0.025000
L3.936786 0.025000
" />
<path d="M9.174286 4.912500
L9.174286 5.612500
" />
<path d="M8.824286 5.262500
L9.524286 5.262500
" />
<path d="M3.936786 10.500000
L14.411786 10.500000
" />
<path d="M3.936786 0.025000
L3.936786 10.500000
" />
<circle cx="9.174286" cy="5.262500" r="0.250000" /> 
</g>
<g style="fill:none; 
stroke:#AFAFAF; stroke-width:0.120000; stroke-opacity:1; 
stroke-linecap:round; stroke-linejoin:round;">
<text x="9.174286" y="5.862500"
textLength="5.262857" font-size="1.600000" lengthAdjust="spacingAndGlyphs"
text-anchor="middle" opacity="0" stroke-opacity="0">REF**</text>
<g class="stroked-text"><desc>REF**</desc>
<path d="M7.574287 5.811402
L7.174287 5.239975
" />
<path d="M6.888573 5.811402
L6.888573 4.611403
" />
<path d="M6.888573 4.611403
L7.345716 4.611403
" />
<path d="M7.345716 4.611403
L7.460001 4.668546
" />
<path d="M7.460001 4.668546
L7.517144 4.725689
" />
<path d="M7.517144 4.725689
L7.574287 4.839975
" />
<path d="M7.574287 4.839975
L7.574287 5.011403
" />
<path d="M7.574287 5.011403
L7.517144 5.125689
" />
<path d="M7.517144 5.125689
L7.460001 5.182832
" />
<path d="M7.460001 5.182832
L7.345716 5.239975
" />
<path d="M7.345716 5.239975
L6.888573 5.239975
" />
<path d="M8.088573 5.182832
L8.488573 5.182832
" />
<path d="M8.660001 5.811402
L8.088573 5.811402
" />
<path d="M8.088573 5.811402
L8.088573 4.611403
" />
<path d="M8.088573 4.611403
L8.660001 4.611403
" />
<path d="M9.574286 5.182832
L9.174286 5.182832
" />
<path d="M9.174286 5.811402
L9.174286 4.611403
" />
<path d="M9.174286 4.611403
L9.745714 4.611403
" />
<path d="M10.374285 4.611403
L10.374285 4.897118
" />
<path d="M10.088571 4.782832
L10.374285 4.897118
" />
<path d="M10.374285 4.897118
L10.660000 4.782832
" />
<path d="M10.202857 5.125689
L10.374285 4.897118
" />
<path d="M10.374285 4.897118
L10.545714 5.125689
" />
<path d="M11.288571 4.611403
L11.288571 4.897118
" />
<path d="M11.002857 4.782832
L11.288571 4.897118
" />
<path d="M11.288571 4.897118
L11.574286 4.782832
" />
<path d="M11.117143 5.125689
L11.288571 4.897118
" />
<path d="M11.288571 4.897118
L11.460000 5.125689
" />
</g><text x="9.174286" y="5.862500"
textLength="18.348572" font-size="1.600000" lengthAdjust="spacingAndGlyphs"
text-anchor="middle" opacity="0" stroke-opacity="0">MT9P031I12STM-DP</text>
<g class="stroked-text"><desc>MT9P031I12STM-DP</desc>
<path d="M0.345715 5.811402
L0.345715 4.611403
" />
<path d="M0.345715 4.611403
L0.745715 5.468545
" />
<path d="M0.745715 5.468545
L1.145715 4.611403
" />
<path d="M1.145715 4.611403
L1.145715 5.811402
" />
<path d="M1.545715 4.611403
L2.231429 4.611403
" />
<path d="M1.888572 5.811402
L1.888572 4.611403
" />
<path d="M2.688573 5.811402
L2.917144 5.811402
" />
<path d="M2.917144 5.811402
L3.031430 5.754260
" />
<path d="M3.031430 5.754260
L3.088573 5.697117
" />
<path d="M3.088573 5.697117
L3.202858 5.525688
" />
<path d="M3.202858 5.525688
L3.260001 5.297117
" />
<path d="M3.260001 5.297117
L3.260001 4.839975
" />
<path d="M3.260001 4.839975
L3.202858 4.725689
" />
<path d="M3.202858 4.725689
L3.145715 4.668546
" />
<path d="M3.145715 4.668546
L3.031430 4.611403
" />
<path d="M3.031430 4.611403
L2.802858 4.611403
" />
<path d="M2.802858 4.611403
L2.688573 4.668546
" />
<path d="M2.688573 4.668546
L2.631430 4.725689
" />
<path d="M2.631430 4.725689
L2.574287 4.839975
" />
<path d="M2.574287 4.839975
L2.574287 5.125689
" />
<path d="M2.574287 5.125689
L2.631430 5.239975
" />
<path d="M2.631430 5.239975
L2.688573 5.297117
" />
<path d="M2.688573 5.297117
L2.802858 5.354260
" />
<path d="M2.802858 5.354260
L3.031430 5.354260
" />
<path d="M3.031430 5.354260
L3.145715 5.297117
" />
<path d="M3.145715 5.297117
L3.202858 5.239975
" />
<path d="M3.202858 5.239975
L3.260001 5.125689
" />
<path d="M3.774287 5.811402
L3.774287 4.611403
" />
<path d="M3.774287 4.611403
L4.231430 4.611403
" />
<path d="M4.231430 4.611403
L4.345715 4.668546
" />
<path d="M4.345715 4.668546
L4.402858 4.725689
" />
<path d="M4.402858 4.725689
L4.460001 4.839975
" />
<path d="M4.460001 4.839975
L4.460001 5.011403
" />
<path d="M4.460001 5.011403
L4.402858 5.125689
" />
<path d="M4.402858 5.125689
L4.345715 5.182832
" />
<path d="M4.345715 5.182832
L4.231430 5.239975
" />
<path d="M4.231430 5.239975
L3.774287 5.239975
" />
<path d="M5.202858 4.611403
L5.317144 4.611403
" />
<path d="M5.317144 4.611403
L5.431430 4.668546
" />
<path d="M5.431430 4.668546
L5.488572 4.725689
" />
<path d="M5.488572 4.725689
L5.545715 4.839975
" />
<path d="M5.545715 4.839975
L5.602858 5.068546
" />
<path d="M5.602858 5.068546
L5.602858 5.354260
" />
<path d="M5.602858 5.354260
L5.545715 5.582831
" />
<path d="M5.545715 5.582831
L5.488572 5.697117
" />
<path d="M5.488572 5.697117
L5.431430 5.754260
" />
<path d="M5.431430 5.754260
L5.317144 5.811402
" />
<path d="M5.317144 5.811402
L5.202858 5.811402
" />
<path d="M5.202858 5.811402
L5.088572 5.754260
" />
<path d="M5.088572 5.754260
L5.031430 5.697117
" />
<path d="M5.031430 5.697117
L4.974287 5.582831
" />
<path d="M4.974287 5.582831
L4.917144 5.354260
" />
<path d="M4.917144 5.354260
L4.917144 5.068546
" />
<path d="M4.917144 5.068546
L4.974287 4.839975
" />
<path d="M4.974287 4.839975
L5.031430 4.725689
" />
<path d="M5.031430 4.725689
L5.088572 4.668546
" />
<path d="M5.088572 4.668546
L5.202858 4.611403
" />
<path d="M6.002858 4.611403
L6.745715 4.611403
" />
<path d="M6.745715 4.611403
L6.345715 5.068546
" />
<path d="M6.345715 5.068546
L6.517144 5.068546
" />
<path d="M6.517144 5.068546
L6.631429 5.125689
" />
<path d="M6.631429 5.125689
L6.688572 5.182832
" />
<path d="M6.688572 5.182832
L6.745715 5.297117
" />
<path d="M6.745715 5.297117
L6.745715 5.582831
" />
<path d="M6.745715 5.582831
L6.688572 5.697117
" />
<path d="M6.688572 5.697117
L6.631429 5.754260
" />
<path d="M6.631429 5.754260
L6.517144 5.811402
" />
<path d="M6.517144 5.811402
L6.174287 5.811402
" />
<path d="M6.174287 5.811402
L6.060001 5.754260
" />
<path d="M6.060001 5.754260
L6.002858 5.697117
" />
<path d="M7.888572 5.811402
L7.202858 5.811402
" />
<path d="M7.545715 5.811402
L7.545715 4.611403
" />
<path d="M7.545715 4.611403
L7.431429 4.782832
" />
<path d="M7.431429 4.782832
L7.317144 4.897118
" />
<path d="M7.317144 4.897118
L7.202858 4.954260
" />
<path d="M8.402858 5.811402
L8.402858 4.611403
" />
<path d="M9.602857 5.811402
L8.917144 5.811402
" />
<path d="M9.260000 5.811402
L9.260000 4.611403
" />
<path d="M9.260000 4.611403
L9.145715 4.782832
" />
<path d="M9.145715 4.782832
L9.031430 4.897118
" />
<path d="M9.031430 4.897118
L8.917144 4.954260
" />
<path d="M10.060000 4.725689
L10.117143 4.668546
" />
<path d="M10.117143 4.668546
L10.231429 4.611403
" />
<path d="M10.231429 4.611403
L10.517143 4.611403
" />
<path d="M10.517143 4.611403
L10.631429 4.668546
" />
<path d="M10.631429 4.668546
L10.688571 4.725689
" />
<path d="M10.688571 4.725689
L10.745714 4.839975
" />
<path d="M10.745714 4.839975
L10.745714 4.954260
" />
<path d="M10.745714 4.954260
L10.688571 5.125689
" />
<path d="M10.688571 5.125689
L10.002857 5.811402
" />
<path d="M10.002857 5.811402
L10.745714 5.811402
" />
<path d="M11.202857 5.754260
L11.374286 5.811402
" />
<path d="M11.374286 5.811402
L11.660000 5.811402
" />
<path d="M11.660000 5.811402
L11.774286 5.754260
" />
<path d="M11.774286 5.754260
L11.831428 5.697117
" />
<path d="M11.831428 5.697117
L11.888571 5.582831
" />
<path d="M11.888571 5.582831
L11.888571 5.468545
" />
<path d="M11.888571 5.468545
L11.831428 5.354260
" />
<path d="M11.831428 5.354260
L11.774286 5.297117
" />
<path d="M11.774286 5.297117
L11.660000 5.239975
" />
<path d="M11.660000 5.239975
L11.431428 5.182832
" />
<path d="M11.431428 5.182832
L11.317143 5.125689
" />
<path d="M11.317143 5.125689
L11.260000 5.068546
" />
<path d="M11.260000 5.068546
L11.202857 4.954260
" />
<path d="M11.202857 4.954260
L11.202857 4.839975
" />
<path d="M11.202857 4.839975
L11.260000 4.725689
" />
<path d="M11.260000 4.725689
L11.317143 4.668546
" />
<path d="M11.317143 4.668546
L11.431428 4.611403
" />
<path d="M11.431428 4.611403
L11.717143 4.611403
" />
<path d="M11.717143 4.611403
L11.888571 4.668546
" />
<path d="M12.231428 4.611403
L12.917143 4.611403
" />
<path d="M12.574285 5.811402
L12.574285 4.611403
" />
<path d="M13.317143 5.811402
L13.317143 4.611403
" />
<path d="M13.317143 4.611403
L13.717143 5.468545
" />
<path d="M13.717143 5.468545
L14.117143 4.611403
" />
<path d="M14.117143 4.611403
L14.117143 5.811402
" />
<path d="M14.688572 5.354260
L15.602858 5.354260
" />
<path d="M16.174286 5.811402
L16.174286 4.611403
" />
<path d="M16.174286 4.611403
L16.460000 4.611403
" />
<path d="M16.460000 4.611403
L16.631429 4.668546
" />
<path d="M16.631429 4.668546
L16.745714 4.782832
" />
<path d="M16.745714 4.782832
L16.802857 4.897118
" />
<path d="M16.802857 4.897118
L16.860000 5.125689
" />
<path d="M16.860000 5.125689
L16.860000 5.297117
" />
<path d="M16.860000 5.297117
L16.802857 5.525688
" />
<path d="M16.802857 5.525688
L16.745714 5.639974
" />
<path d="M16.745714 5.639974
L16.631429 5.754260
" />
<path d="M16.631429 5.754260
L16.460000 5.811402
" />
<path d="M16.460000 5.811402
L16.174286 5.811402
" />
<path d="M17.374286 5.811402
L17.374286 4.611403
" />
<path d="M17.374286 4.611403
L17.831429 4.611403
" />
<path d="M17.831429 4.611403
L17.945714 4.668546
" />
<path d="M17.945714 4.668546
L18.002857 4.725689
" />
<path d="M18.002857 4.725689
L18.060000 4.839975
" />
<path d="M18.060000 4.839975
L18.060000 5.011403
" />
<path d="M18.060000 5.011403
L18.002857 5.125689
" />
<path d="M18.002857 5.125689
L17.945714 5.182832
" />
<path d="M17.945714 5.182832
L17.831429 5.239975
" />
<path d="M17.831429 5.239975
L17.374286 5.239975
" />
</g><path d="M14.214286 10.302500
L4.134286 10.302500
" />
<path d="M14.214286 0.222500
L14.214286 10.302500
" />
<path d="M4.134286 10.302500
L4.134286 0.222500
" />
<path d="M4.134286 0.222500
L14.214286 0.222500
" />
</g>
<g style="fill:none; 
stroke:#C2C2C2; stroke-width:0.025000; stroke-opacity:1; 
stroke-linecap:round; stroke-linejoin:round;">
<path d="M14.174286 10.262500
L4.174286 10.262500
" />
<path d="M14.174286 0.262500
L14.174286 10.262500
" />
<path d="M14.074286 9.312500
L13.274286 9.312500
" />
<path d="M14.074286 8.912500
L14.074286 9.312500
" />
<path d="M14.074286 8.612500
L13.274286 8.612500
" />
<path d="M14.074286 8.212500
L14.074286 8.612500
" />
<path d="M14.074286 7.912500
L13.274286 7.912500
" />
<path d="M14.074286 7.512500
L14.074286 7.912500
" />
<path d="M14.074286 7.212500
L13.274286 7.212500
" />
<path d="M14.074286 6.812500
L14.074286 7.212500
" />
<path d="M14.074286 6.512500
L13.274286 6.512500
" />
<path d="M14.074286 6.112500
L14.074286 6.512500
" />
<path d="M14.074286 5.812500
L13.274286 5.812500
" />
<path d="M14.074286 5.412500
L14.074286 5.812500
" />
<path d="M14.074286 5.112500
L13.274286 5.112500
" />
<path d="M14.074286 4.712500
L14.074286 5.112500
" />
<path d="M14.074286 4.412500
L13.274286 4.412500
" />
<path d="M14.074286 4.012500
L14.074286 4.412500
" />
<path d="M14.074286 3.712500
L13.274286 3.712500
" />
<path d="M14.074286 3.312500
L14.074286 3.712500
" />
<path d="M14.074286 3.012500
L13.274286 3.012500
" />
<path d="M14.074286 2.612500
L14.074286 3.012500
" />
<path d="M14.074286 2.312500
L13.274286 2.312500
" />
<path d="M14.074286 1.912500
L14.074286 2.312500
" />
<path d="M14.074286 1.612500
L13.274286 1.612500
" />
<path d="M14.074286 1.212500
L14.074286 1.612500
" />
<path d="M13.274286 9.312500
L13.274286 8.912500
" />
<path d="M13.274286 8.912500
L14.074286 8.912500
" />
<path d="M13.274286 8.612500
L13.274286 8.212500
" />
<path d="M13.274286 8.212500
L14.074286 8.212500
" />
<path d="M13.274286 7.912500
L13.274286 7.512500
" />
<path d="M13.274286 7.512500
L14.074286 7.512500
" />
<path d="M13.274286 7.212500
L13.274286 6.812500
" />
<path d="M13.274286 6.812500
L14.074286 6.812500
" />
<path d="M13.274286 6.512500
L13.274286 6.112500
" />
<path d="M13.274286 6.112500
L14.074286 6.112500
" />
<path d="M13.274286 5.812500
L13.274286 5.412500
" />
<path d="M13.274286 5.412500
L14.074286 5.412500
" />
<path d="M13.274286 5.112500
L13.274286 4.712500
" />
<path d="M13.274286 4.712500
L14.074286 4.712500
" />
<path d="M13.274286 4.412500
L13.274286 4.012500
" />
<path d="M13.274286 4.012500
L14.074286 4.012500
" />
<path d="M13.274286 3.712500
L13.274286 3.312500
" />
<path d="M13.274286 3.312500
L14.074286 3.312500
" />
<path d="M13.274286 3.012500
L13.274286 2.612500
" />
<path d="M13.274286 2.612500
L14.074286 2.612500
" />
<path d="M13.274286 2.312500
L13.274286 1.912500
" />
<path d="M13.274286 1.912500
L14.074286 1.912500
" />
<path d="M13.274286 1.612500
L13.274286 1.212500
" />
<path d="M13.274286 1.212500
L14.074286 1.212500
" />
<path d="M13.224286 10.162500
L12.824286 10.162500
" />
<path d="M13.224286 9.362500
L13.224286 10.162500
" />
<path d="M13.224286 1.162500
L12.824286 1.162500
" />
<path d="M13.224286 0.362500
L13.224286 1.162500
" />
<path d="M12.824286 10.162500
L12.824286 9.362500
" />
<path d="M12.824286 9.362500
L13.224286 9.362500
" />
<path d="M12.824286 1.162500
L12.824286 0.362500
" />
<path d="M12.824286 0.362500
L13.224286 0.362500
" />
<path d="M12.524286 10.162500
L12.124286 10.162500
" />
<path d="M12.524286 9.362500
L12.524286 10.162500
" />
<path d="M12.524286 1.162500
L12.124286 1.162500
" />
<path d="M12.524286 0.362500
L12.524286 1.162500
" />
<path d="M12.124286 10.162500
L12.124286 9.362500
" />
<path d="M12.124286 9.362500
L12.524286 9.362500
" />
<path d="M12.124286 1.162500
L12.124286 0.362500
" />
<path d="M12.124286 0.362500
L12.524286 0.362500
" />
<path d="M11.824286 10.162500
L11.424286 10.162500
" />
<path d="M11.824286 9.362500
L11.824286 10.162500
" />
<path d="M11.824286 1.162500
L11.424286 1.162500
" />
<path d="M11.824286 0.362500
L11.824286 1.162500
" />
<path d="M11.424286 10.162500
L11.424286 9.362500
" />
<path d="M11.424286 9.362500
L11.824286 9.362500
" />
<path d="M11.424286 1.162500
L11.424286 0.362500
" />
<path d="M11.424286 0.362500
L11.824286 0.362500
" />
<path d="M11.124286 10.162500
L10.724286 10.162500
" />
<path d="M11.124286 9.362500
L11.124286 10.162500
" />
<path d="M11.124286 1.162500
L10.724286 1.162500
" />
<path d="M11.124286 0.362500
L11.124286 1.162500
" />
<path d="M10.724286 10.162500
L10.724286 9.362500
" />
<path d="M10.724286 9.362500
L11.124286 9.362500
" />
<path d="M10.724286 1.162500
L10.724286 0.362500
" />
<path d="M10.724286 0.362500
L11.124286 0.362500
" />
<path d="M10.424286 10.162500
L10.024286 10.162500
" />
<path d="M10.424286 9.362500
L10.424286 10.162500
" />
<path d="M10.424286 1.162500
L10.024286 1.162500
" />
<path d="M10.424286 0.362500
L10.424286 1.162500
" />
<path d="M10.024286 10.162500
L10.024286 9.362500
" />
<path d="M10.024286 9.362500
L10.424286 9.362500
" />
<path d="M10.024286 1.162500
L10.024286 0.362500
" />
<path d="M10.024286 0.362500
L10.424286 0.362500
" />
<path d="M9.724286 10.162500
L9.324286 10.162500
" />
<path d="M9.724286 9.362500
L9.724286 10.162500
" />
<path d="M9.724286 1.162500
L9.324286 1.162500
" />
<path d="M9.724286 0.362500
L9.724286 1.162500
" />
<path d="M9.324286 10.162500
L9.324286 9.362500
" />
<path d="M9.324286 9.362500
L9.724286 9.362500
" />
<path d="M9.324286 1.162500
L9.324286 0.362500
" />
<path d="M9.324286 0.362500
L9.724286 0.362500
" />
<path d="M9.024286 10.162500
L8.624286 10.162500
" />
<path d="M9.024286 9.362500
L9.024286 10.162500
" />
<path d="M9.024286 1.162500
L8.624286 1.162500
" />
<path d="M9.024286 0.362500
L9.024286 1.162500
" />
<path d="M8.624286 10.162500
L8.624286 9.362500
" />
<path d="M8.624286 9.362500
L9.024286 9.362500
" />
<path d="M8.624286 1.162500
L8.624286 0.362500
" />
<path d="M8.624286 0.362500
L9.024286 0.362500
" />
<path d="M8.324286 10.162500
L7.924286 10.162500
" />
<path d="M8.324286 9.362500
L8.324286 10.162500
" />
<path d="M8.324286 1.162500
L7.924286 1.162500
" />
<path d="M8.324286 0.362500
L8.324286 1.162500
" />
<path d="M7.924286 10.162500
L7.924286 9.362500
" />
<path d="M7.924286 9.362500
L8.324286 9.362500
" />
<path d="M7.924286 1.162500
L7.924286 0.362500
" />
<path d="M7.924286 0.362500
L8.324286 0.362500
" />
<path d="M7.624286 10.162500
L7.224286 10.162500
" />
<path d="M7.624286 9.362500
L7.624286 10.162500
" />
<path d="M7.624286 1.162500
L7.224286 1.162500
" />
<path d="M7.624286 0.362500
L7.624286 1.162500
" />
<path d="M7.224286 10.162500
L7.224286 9.362500
" />
<path d="M7.224286 9.362500
L7.624286 9.362500
" />
<path d="M7.224286 1.162500
L7.224286 0.362500
" />
<path d="M7.224286 0.362500
L7.624286 0.362500
" />
<path d="M6.924286 10.162500
L6.524286 10.162500
" />
<path d="M6.924286 9.362500
L6.924286 10.162500
" />
<path d="M6.924286 1.162500
L6.524286 1.162500
" />
<path d="M6.924286 0.362500
L6.924286 1.162500
" />
<path d="M6.524286 10.162500
L6.524286 9.362500
" />
<path d="M6.524286 9.362500
L6.924286 9.362500
" />
<path d="M6.524286 1.162500
L6.524286 0.362500
" />
<path d="M6.524286 0.362500
L6.924286 0.362500
" />
<path d="M6.224286 10.162500
L5.824286 10.162500
" />
<path d="M6.224286 9.362500
L6.224286 10.162500
" />
<path d="M6.224286 1.162500
L5.824286 1.162500
" />
<path d="M6.224286 0.362500
L6.224286 1.162500
" />
<path d="M5.824286 10.162500
L5.824286 9.362500
" />
<path d="M5.824286 9.362500
L6.224286 9.362500
" />
<path d="M5.824286 1.162500
L5.824286 0.362500
" />
<path d="M5.824286 0.362500
L6.224286 0.362500
" />
<path d="M5.524286 10.162500
L5.124286 10.162500
" />
<path d="M5.524286 9.362500
L5.524286 10.162500
" />
<path d="M5.524286 1.162500
L5.124286 1.162500
" />
<path d="M5.524286 0.362500
L5.524286 1.162500
" />
<path d="M5.124286 10.162500
L5.124286 9.362500
" />
<path d="M5.124286 9.362500
L5.524286 9.362500
" />
<path d="M5.124286 1.162500
L5.124286 0.362500
" />
<path d="M5.124286 0.362500
L5.524286 0.362500
" />
<path d="M5.074286 9.312500
L4.274286 9.312500
" />
<path d="M5.074286 8.912500
L5.074286 9.312500
" />
<path d="M5.074286 8.612500
L4.274286 8.612500
" />
<path d="M5.074286 8.212500
L5.074286 8.612500
" />
<path d="M5.074286 7.912500
L4.274286 7.912500
" />
<path d="M5.074286 7.512500
L5.074286 7.912500
" />
<path d="M5.074286 7.212500
L4.274286 7.212500
" />
<path d="M5.074286 6.812500
L5.074286 7.212500
" />
<path d="M5.074286 6.512500
L4.274286 6.512500
" />
<path d="M5.074286 6.112500
L5.074286 6.512500
" />
<path d="M5.074286 5.812500
L4.274286 5.812500
" />
<path d="M5.074286 5.412500
L5.074286 5.812500
" />
<path d="M5.074286 5.112500
L4.274286 5.112500
" />
<path d="M5.074286 4.712500
L5.074286 5.112500
" />
<path d="M5.074286 4.412500
L4.274286 4.412500
" />
<path d="M5.074286 4.012500
L5.074286 4.412500
" />
<path d="M5.074286 3.712500
L4.274286 3.712500
" />
<path d="M5.074286 3.312500
L5.074286 3.712500
" />
<path d="M5.074286 3.012500
L4.274286 3.012500
" />
<path d="M5.074286 2.612500
L5.074286 3.012500
" />
<path d="M5.074286 2.312500
L4.274286 2.312500
" />
<path d="M5.074286 1.912500
L5.074286 2.312500
" />
<path d="M5.074286 1.612500
L4.274286 1.612500
" />
<path d="M5.074286 1.212500
L5.074286 1.612500
" />
<path d="M4.274286 9.312500
L4.274286 8.912500
" />
<path d="M4.274286 8.912500
L5.074286 8.912500
" />
<path d="M4.274286 8.612500
L4.274286 8.212500
" />
<path d="M4.274286 8.212500
L5.074286 8.212500
" />
<path d="M4.274286 7.912500
L4.274286 7.512500
" />
<path d="M4.274286 7.512500
L5.074286 7.512500
" />
<path d="M4.274286 7.212500
L4.274286 6.812500
" />
<path d="M4.274286 6.812500
L5.074286 6.812500
" />
<path d="M4.274286 6.512500
L4.274286 6.112500
" />
<path d="M4.274286 6.112500
L5.074286 6.112500
" />
<path d="M4.274286 5.812500
L4.274286 5.412500
" />
<path d="M4.274286 5.412500
L5.074286 5.412500
" />
<path d="M4.274286 5.112500
L4.274286 4.712500
" />
<path d="M4.274286 4.712500
L5.074286 4.712500
" />
<path d="M4.274286 4.412500
L4.274286 4.012500
" />
<path d="M4.274286 4.012500
L5.074286 4.012500
" />
<path d="M4.274286 3.712500
L4.274286 3.312500
" />
<path d="M4.274286 3.312500
L5.074286 3.312500
" />
<path d="M4.274286 3.012500
L4.274286 2.612500
" />
<path d="M4.274286 2.612500
L5.074286 2.612500
" />
<path d="M4.274286 2.312500
L4.274286 1.912500
" />
<path d="M4.274286 1.912500
L5.074286 1.912500
" />
<path d="M4.274286 1.612500
L4.274286 1.212500
" />
<path d="M4.274286 1.212500
L5.074286 1.212500
" />
<path d="M4.174286 10.262500
L4.174286 0.262500
" />
<path d="M4.174286 0.262500
L14.174286 0.262500
" />
</g> 
</svg>
