<?xml version="1.0" standalone="no"?>
 <!DOCTYPE svg PUBLIC "-//W3C//DTD SVG 1.1//EN" 
 "http://www.w3.org/Graphics/SVG/1.1/DTD/svg11.dtd"> 
<svg
  xmlns:svg="http://www.w3.org/2000/svg"
  xmlns="http://www.w3.org/2000/svg"
  xmlns:xlink="http://www.w3.org/1999/xlink"
  xmlns:inkscape="http://www.inkscape.org/namespaces/inkscape"
  version="1.1"
  width="100%" height="100%" viewBox="0.0000 0.0000 10.6680 8.5598">
<title>SVG Image created as LED_unit1.svg date 2026-04-16T04:34:53 </title>
  <desc>Image generated by Eeschema-SVG </desc>
<g style="fill:#000000; fill-opacity:1.0000;stroke:#000000; stroke-opacity:1.0000;
stroke-linecap:round; stroke-linejoin:round;"
 transform="translate(0 0) scale(1 1)">
<path style="fill:none; 
stroke:#840000; stroke-width:0.2540; stroke-opacity:1; 
stroke-linecap:round; stroke-linejoin:round;fill:none"
d="M 2.5400,5.0419
1.0160,6.5659
1.7780,6.5659
1.0160,6.5659
1.0160,5.8039
" /> 
<path style="fill:none; 
stroke:#840000; stroke-width:0.2540; stroke-opacity:1; 
stroke-linecap:round; stroke-linejoin:round;fill:none"
d="M 3.8100,5.0419
2.2860,6.5659
3.0480,6.5659
2.2860,6.5659
2.2860,5.8039
" /> 
<path style="fill:none; 
stroke:#840000; stroke-width:0.2540; stroke-opacity:1; 
stroke-linecap:round; stroke-linejoin:round;fill:none"
d="M 4.3180,4.2799
6.8580,4.2799
" /> 
<path style="fill:none; 
stroke:#840000; stroke-width:0.2540; stroke-opacity:1; 
stroke-linecap:round; stroke-linejoin:round;fill:none"
d="M 4.3180,5.5499
4.3180,3.0099
" /> 
<path style="fill:none; 
stroke:#840000; stroke-width:0.2540; stroke-opacity:1; 
stroke-linecap:round; stroke-linejoin:round;fill:none"
d="M 6.8580,5.5499
6.8580,3.0099
4.3180,4.2799
Z" /> 
</g>
<g style="fill:none; 
stroke:#840000; stroke-width:0.1524; stroke-opacity:1; 
stroke-linecap:round; stroke-linejoin:round;">
<path d="M4.3180 4.2799
L1.7780 4.2799
" />
<path d="M6.8580 4.2799
L9.3980 4.2799
" />
</g>
<g style="fill:none; 
stroke:#006464; stroke-width:0.1524; stroke-opacity:1; 
stroke-linecap:round; stroke-linejoin:round;">
<text x="5.5880" y="2.3749"
textLength="2.5618" font-size="1.6933" lengthAdjust="spacingAndGlyphs"
text-anchor="middle" opacity="0" stroke-opacity="0">D?</text>
<g class="stroked-text"><desc>D?</desc>
<path d="M4.7110 2.3194
L4.7110 1.0494
" />
<path d="M4.7110 1.0494
L5.0134 1.0494
" />
<path d="M5.0134 1.0494
L5.1948 1.1099
" />
<path d="M5.1948 1.1099
L5.3158 1.2309
" />
<path d="M5.3158 1.2309
L5.3763 1.3518
" />
<path d="M5.3763 1.3518
L5.4367 1.5937
" />
<path d="M5.4367 1.5937
L5.4367 1.7751
" />
<path d="M5.4367 1.7751
L5.3763 2.0170
" />
<path d="M5.3763 2.0170
L5.3158 2.1380
" />
<path d="M5.3158 2.1380
L5.1948 2.2590
" />
<path d="M5.1948 2.2590
L5.0134 2.3194
" />
<path d="M5.0134 2.3194
L4.7110 2.3194
" />
<path d="M6.1625 2.1985
L6.2229 2.2590
" />
<path d="M6.2229 2.2590
L6.1625 2.3194
" />
<path d="M6.1625 2.3194
L6.1020 2.2590
" />
<path d="M6.1020 2.2590
L6.1625 2.1985
" />
<path d="M6.1625 2.1985
L6.1625 2.3194
" />
<path d="M5.9206 1.1099
L6.0415 1.0494
" />
<path d="M6.0415 1.0494
L6.3439 1.0494
" />
<path d="M6.3439 1.0494
L6.4648 1.1099
" />
<path d="M6.4648 1.1099
L6.5253 1.2309
" />
<path d="M6.5253 1.2309
L6.5253 1.3518
" />
<path d="M6.5253 1.3518
L6.4648 1.4728
" />
<path d="M6.4648 1.4728
L6.4044 1.5332
" />
<path d="M6.4044 1.5332
L6.2834 1.5937
" />
<path d="M6.2834 1.5937
L6.2229 1.6542
" />
<path d="M6.2229 1.6542
L6.1625 1.7751
" />
<path d="M6.1625 1.7751
L6.1625 1.8356
" />
</g><text x="5.5880" y="7.4549"
textLength="3.6503" font-size="1.6933" lengthAdjust="spacingAndGlyphs"
text-anchor="middle" opacity="0" stroke-opacity="0">LED</text>
<g class="stroked-text"><desc>LED</desc>
<path d="M4.7716 7.3994
L4.1668 7.3994
" />
<path d="M4.1668 7.3994
L4.1668 6.1294
" />
<path d="M5.1949 6.7342
L5.6183 6.7342
" />
<path d="M5.7997 7.3994
L5.1949 7.3994
" />
<path d="M5.1949 7.3994
L5.1949 6.1294
" />
<path d="M5.1949 6.1294
L5.7997 6.1294
" />
<path d="M6.3439 7.3994
L6.3439 6.1294
" />
<path d="M6.3439 6.1294
L6.6463 6.1294
" />
<path d="M6.6463 6.1294
L6.8277 6.1899
" />
<path d="M6.8277 6.1899
L6.9487 6.3109
" />
<path d="M6.9487 6.3109
L7.0092 6.4318
" />
<path d="M7.0092 6.4318
L7.0696 6.6737
" />
<path d="M7.0696 6.6737
L7.0696 6.8551
" />
<path d="M7.0696 6.8551
L7.0092 7.0970
" />
<path d="M7.0092 7.0970
L6.9487 7.2180
" />
<path d="M6.9487 7.2180
L6.8277 7.3390
" />
<path d="M6.8277 7.3390
L6.6463 7.3994
" />
<path d="M6.6463 7.3994
L6.3439 7.3994
" />
</g></g> 
</svg>
