<?xml version="1.0" standalone="no"?>
 <!DOCTYPE svg PUBLIC "-//W3C//DTD SVG 1.1//EN" 
 "http://www.w3.org/Graphics/SVG/1.1/DTD/svg11.dtd"> 
<svg
  xmlns:svg="http://www.w3.org/2000/svg"
  xmlns="http://www.w3.org/2000/svg"
  xmlns:xlink="http://www.w3.org/1999/xlink"
  xmlns:inkscape="http://www.inkscape.org/namespaces/inkscape"
  version="1.1"
  width="100%" height="100%" viewBox="0.000000 0.000000 5.918200 4.673600">
<title>SVG Image created as LGA28R50P4X10_380X520X100.svg date 2026-04-16T05:15:26 </title>
  <desc>Image generated by PCBNEW </desc>
<g style="fill:#000000; fill-opacity:1.000000;stroke:#000000; stroke-opacity:1.000000;
stroke-linecap:round; stroke-linejoin:round;"
 transform="translate(0 0) scale(1 1)">
</g>
<g style="fill:none; 
stroke:#02FFEE; stroke-width:0.050000; stroke-opacity:1; 
stroke-linecap:round; stroke-linejoin:round;">
<circle cx="0.763500" cy="0.125000" r="0.100000" /> 
<path style="fill:#C83434; fill-opacity:1.000000; stroke:none;fill-rule:evenodd;"
d="M 0.863500,0.600000
0.863500,1.125000
0.563500,1.125000
0.563500,0.600000
Z" /> 
<path style="fill:#C83434; fill-opacity:1.000000; stroke:none;fill-rule:evenodd;"
d="M 0.438500,1.525000
0.863500,1.525000
0.863500,1.825000
0.438500,1.825000
Z" /> 
<path style="fill:#C83434; fill-opacity:1.000000; stroke:none;fill-rule:evenodd;"
d="M 0.438500,2.025000
0.863500,2.025000
0.863500,2.325000
0.438500,2.325000
Z" /> 
<path style="fill:#C83434; fill-opacity:1.000000; stroke:none;fill-rule:evenodd;"
d="M 0.438500,2.525000
0.863500,2.525000
0.863500,2.825000
0.438500,2.825000
Z" /> 
<path style="fill:#C83434; fill-opacity:1.000000; stroke:none;fill-rule:evenodd;"
d="M 0.438500,3.025000
0.863500,3.025000
0.863500,3.325000
0.438500,3.325000
Z" /> 
<path style="fill:#C83434; fill-opacity:1.000000; stroke:none;fill-rule:evenodd;"
d="M 0.863500,3.725000
0.863500,4.250000
0.563500,4.250000
0.563500,3.725000
Z" /> 
<path style="fill:#C83434; fill-opacity:1.000000; stroke:none;fill-rule:evenodd;"
d="M 1.363500,3.725000
1.363500,4.250000
1.063500,4.250000
1.063500,3.725000
Z" /> 
<path style="fill:#C83434; fill-opacity:1.000000; stroke:none;fill-rule:evenodd;"
d="M 1.863500,3.725000
1.863500,4.250000
1.563500,4.250000
1.563500,3.725000
Z" /> 
<path style="fill:#C83434; fill-opacity:1.000000; stroke:none;fill-rule:evenodd;"
d="M 2.363500,3.725000
2.363500,4.250000
2.063500,4.250000
2.063500,3.725000
Z" /> 
<path style="fill:#C83434; fill-opacity:1.000000; stroke:none;fill-rule:evenodd;"
d="M 2.863500,3.725000
2.863500,4.250000
2.563500,4.250000
2.563500,3.725000
Z" /> 
<path style="fill:#C83434; fill-opacity:1.000000; stroke:none;fill-rule:evenodd;"
d="M 3.363500,3.725000
3.363500,4.250000
3.063500,4.250000
3.063500,3.725000
Z" /> 
<path style="fill:#C83434; fill-opacity:1.000000; stroke:none;fill-rule:evenodd;"
d="M 3.863500,3.725000
3.863500,4.250000
3.563500,4.250000
3.563500,3.725000
Z" /> 
<path style="fill:#C83434; fill-opacity:1.000000; stroke:none;fill-rule:evenodd;"
d="M 4.363500,3.725000
4.363500,4.250000
4.063500,4.250000
4.063500,3.725000
Z" /> 
<path style="fill:#C83434; fill-opacity:1.000000; stroke:none;fill-rule:evenodd;"
d="M 4.863500,3.725000
4.863500,4.250000
4.563500,4.250000
4.563500,3.725000
Z" /> 
<path style="fill:#C83434; fill-opacity:1.000000; stroke:none;fill-rule:evenodd;"
d="M 5.363500,3.725000
5.363500,4.250000
5.063500,4.250000
5.063500,3.725000
Z" /> 
<path style="fill:#C83434; fill-opacity:1.000000; stroke:none;fill-rule:evenodd;"
d="M 5.063500,3.025000
5.488500,3.025000
5.488500,3.325000
5.063500,3.325000
Z" /> 
<path style="fill:#C83434; fill-opacity:1.000000; stroke:none;fill-rule:evenodd;"
d="M 5.063500,2.525000
5.488500,2.525000
5.488500,2.825000
5.063500,2.825000
Z" /> 
<path style="fill:#C83434; fill-opacity:1.000000; stroke:none;fill-rule:evenodd;"
d="M 5.063500,2.025000
5.488500,2.025000
5.488500,2.325000
5.063500,2.325000
Z" /> 
<path style="fill:#C83434; fill-opacity:1.000000; stroke:none;fill-rule:evenodd;"
d="M 5.063500,1.525000
5.488500,1.525000
5.488500,1.825000
5.063500,1.825000
Z" /> 
<path style="fill:#C83434; fill-opacity:1.000000; stroke:none;fill-rule:evenodd;"
d="M 5.363500,0.600000
5.363500,1.125000
5.063500,1.125000
5.063500,0.600000
Z" /> 
<path style="fill:#C83434; fill-opacity:1.000000; stroke:none;fill-rule:evenodd;"
d="M 4.863500,0.600000
4.863500,1.125000
4.563500,1.125000
4.563500,0.600000
Z" /> 
<path style="fill:#C83434; fill-opacity:1.000000; stroke:none;fill-rule:evenodd;"
d="M 4.363500,0.600000
4.363500,1.125000
4.063500,1.125000
4.063500,0.600000
Z" /> 
<path style="fill:#C83434; fill-opacity:1.000000; stroke:none;fill-rule:evenodd;"
d="M 3.863500,0.600000
3.863500,1.125000
3.563500,1.125000
3.563500,0.600000
Z" /> 
<path style="fill:#C83434; fill-opacity:1.000000; stroke:none;fill-rule:evenodd;"
d="M 3.363500,0.600000
3.363500,1.125000
3.063500,1.125000
3.063500,0.600000
Z" /> 
<path style="fill:#C83434; fill-opacity:1.000000; stroke:none;fill-rule:evenodd;"
d="M 2.863500,0.600000
2.863500,1.125000
2.563500,1.125000
2.563500,0.600000
Z" /> 
<path style="fill:#C83434; fill-opacity:1.000000; stroke:none;fill-rule:evenodd;"
d="M 2.363500,0.600000
2.363500,1.125000
2.063500,1.125000
2.063500,0.600000
Z" /> 
<path style="fill:#C83434; fill-opacity:1.000000; stroke:none;fill-rule:evenodd;"
d="M 1.863500,0.600000
1.863500,1.125000
1.563500,1.125000
1.563500,0.600000
Z" /> 
<path style="fill:#C83434; fill-opacity:1.000000; stroke:none;fill-rule:evenodd;"
d="M 1.363500,0.600000
1.363500,1.125000
1.063500,1.125000
1.063500,0.600000
Z" /> 
<path style="fill:#D864FF; fill-opacity:0.400000; stroke:none;fill-rule:evenodd;"
d="M 0.863500,0.600000
0.863500,1.125000
0.563500,1.125000
0.563500,0.600000
Z" /> 
<path style="fill:#D864FF; fill-opacity:0.400000; stroke:none;fill-rule:evenodd;"
d="M 0.438500,1.525000
0.863500,1.525000
0.863500,1.825000
0.438500,1.825000
Z" /> 
<path style="fill:#D864FF; fill-opacity:0.400000; stroke:none;fill-rule:evenodd;"
d="M 0.438500,2.025000
0.863500,2.025000
0.863500,2.325000
0.438500,2.325000
Z" /> 
<path style="fill:#D864FF; fill-opacity:0.400000; stroke:none;fill-rule:evenodd;"
d="M 0.438500,2.525000
0.863500,2.525000
0.863500,2.825000
0.438500,2.825000
Z" /> 
<path style="fill:#D864FF; fill-opacity:0.400000; stroke:none;fill-rule:evenodd;"
d="M 0.438500,3.025000
0.863500,3.025000
0.863500,3.325000
0.438500,3.325000
Z" /> 
<path style="fill:#D864FF; fill-opacity:0.400000; stroke:none;fill-rule:evenodd;"
d="M 0.863500,3.725000
0.863500,4.250000
0.563500,4.250000
0.563500,3.725000
Z" /> 
<path style="fill:#D864FF; fill-opacity:0.400000; stroke:none;fill-rule:evenodd;"
d="M 1.363500,3.725000
1.363500,4.250000
1.063500,4.250000
1.063500,3.725000
Z" /> 
<path style="fill:#D864FF; fill-opacity:0.400000; stroke:none;fill-rule:evenodd;"
d="M 1.863500,3.725000
1.863500,4.250000
1.563500,4.250000
1.563500,3.725000
Z" /> 
<path style="fill:#D864FF; fill-opacity:0.400000; stroke:none;fill-rule:evenodd;"
d="M 2.363500,3.725000
2.363500,4.250000
2.063500,4.250000
2.063500,3.725000
Z" /> 
<path style="fill:#D864FF; fill-opacity:0.400000; stroke:none;fill-rule:evenodd;"
d="M 2.863500,3.725000
2.863500,4.250000
2.563500,4.250000
2.563500,3.725000
Z" /> 
<path style="fill:#D864FF; fill-opacity:0.400000; stroke:none;fill-rule:evenodd;"
d="M 3.363500,3.725000
3.363500,4.250000
3.063500,4.250000
3.063500,3.725000
Z" /> 
<path style="fill:#D864FF; fill-opacity:0.400000; stroke:none;fill-rule:evenodd;"
d="M 3.863500,3.725000
3.863500,4.250000
3.563500,4.250000
3.563500,3.725000
Z" /> 
<path style="fill:#D864FF; fill-opacity:0.400000; stroke:none;fill-rule:evenodd;"
d="M 4.363500,3.725000
4.363500,4.250000
4.063500,4.250000
4.063500,3.725000
Z" /> 
<path style="fill:#D864FF; fill-opacity:0.400000; stroke:none;fill-rule:evenodd;"
d="M 4.863500,3.725000
4.863500,4.250000
4.563500,4.250000
4.563500,3.725000
Z" /> 
<path style="fill:#D864FF; fill-opacity:0.400000; stroke:none;fill-rule:evenodd;"
d="M 5.363500,3.725000
5.363500,4.250000
5.063500,4.250000
5.063500,3.725000
Z" /> 
<path style="fill:#D864FF; fill-opacity:0.400000; stroke:none;fill-rule:evenodd;"
d="M 5.063500,3.025000
5.488500,3.025000
5.488500,3.325000
5.063500,3.325000
Z" /> 
<path style="fill:#D864FF; fill-opacity:0.400000; stroke:none;fill-rule:evenodd;"
d="M 5.063500,2.525000
5.488500,2.525000
5.488500,2.825000
5.063500,2.825000
Z" /> 
<path style="fill:#D864FF; fill-opacity:0.400000; stroke:none;fill-rule:evenodd;"
d="M 5.063500,2.025000
5.488500,2.025000
5.488500,2.325000
5.063500,2.325000
Z" /> 
<path style="fill:#D864FF; fill-opacity:0.400000; stroke:none;fill-rule:evenodd;"
d="M 5.063500,1.525000
5.488500,1.525000
5.488500,1.825000
5.063500,1.825000
Z" /> 
<path style="fill:#D864FF; fill-opacity:0.400000; stroke:none;fill-rule:evenodd;"
d="M 5.363500,0.600000
5.363500,1.125000
5.063500,1.125000
5.063500,0.600000
Z" /> 
<path style="fill:#D864FF; fill-opacity:0.400000; stroke:none;fill-rule:evenodd;"
d="M 4.863500,0.600000
4.863500,1.125000
4.563500,1.125000
4.563500,0.600000
Z" /> 
<path style="fill:#D864FF; fill-opacity:0.400000; stroke:none;fill-rule:evenodd;"
d="M 4.363500,0.600000
4.363500,1.125000
4.063500,1.125000
4.063500,0.600000
Z" /> 
<path style="fill:#D864FF; fill-opacity:0.400000; stroke:none;fill-rule:evenodd;"
d="M 3.863500,0.600000
3.863500,1.125000
3.563500,1.125000
3.563500,0.600000
Z" /> 
<path style="fill:#D864FF; fill-opacity:0.400000; stroke:none;fill-rule:evenodd;"
d="M 3.363500,0.600000
3.363500,1.125000
3.063500,1.125000
3.063500,0.600000
Z" /> 
<path style="fill:#D864FF; fill-opacity:0.400000; stroke:none;fill-rule:evenodd;"
d="M 2.863500,0.600000
2.863500,1.125000
2.563500,1.125000
2.563500,0.600000
Z" /> 
<path style="fill:#D864FF; fill-opacity:0.400000; stroke:none;fill-rule:evenodd;"
d="M 2.363500,0.600000
2.363500,1.125000
2.063500,1.125000
2.063500,0.600000
Z" /> 
<path style="fill:#D864FF; fill-opacity:0.400000; stroke:none;fill-rule:evenodd;"
d="M 1.863500,0.600000
1.863500,1.125000
1.563500,1.125000
1.563500,0.600000
Z" /> 
<path style="fill:#D864FF; fill-opacity:0.400000; stroke:none;fill-rule:evenodd;"
d="M 1.363500,0.600000
1.363500,1.125000
1.063500,1.125000
1.063500,0.600000
Z" /> 
<path style="fill:#B4A09A; fill-opacity:0.900000; stroke:none;fill-rule:evenodd;"
d="M 0.863500,0.600000
0.863500,1.125000
0.563500,1.125000
0.563500,0.600000
Z" /> 
<path style="fill:#B4A09A; fill-opacity:0.900000; stroke:none;fill-rule:evenodd;"
d="M 0.438500,1.525000
0.863500,1.525000
0.863500,1.825000
0.438500,1.825000
Z" /> 
<path style="fill:#B4A09A; fill-opacity:0.900000; stroke:none;fill-rule:evenodd;"
d="M 0.438500,2.025000
0.863500,2.025000
0.863500,2.325000
0.438500,2.325000
Z" /> 
<path style="fill:#B4A09A; fill-opacity:0.900000; stroke:none;fill-rule:evenodd;"
d="M 0.438500,2.525000
0.863500,2.525000
0.863500,2.825000
0.438500,2.825000
Z" /> 
<path style="fill:#B4A09A; fill-opacity:0.900000; stroke:none;fill-rule:evenodd;"
d="M 0.438500,3.025000
0.863500,3.025000
0.863500,3.325000
0.438500,3.325000
Z" /> 
<path style="fill:#B4A09A; fill-opacity:0.900000; stroke:none;fill-rule:evenodd;"
d="M 0.863500,3.725000
0.863500,4.250000
0.563500,4.250000
0.563500,3.725000
Z" /> 
<path style="fill:#B4A09A; fill-opacity:0.900000; stroke:none;fill-rule:evenodd;"
d="M 1.363500,3.725000
1.363500,4.250000
1.063500,4.250000
1.063500,3.725000
Z" /> 
<path style="fill:#B4A09A; fill-opacity:0.900000; stroke:none;fill-rule:evenodd;"
d="M 1.863500,3.725000
1.863500,4.250000
1.563500,4.250000
1.563500,3.725000
Z" /> 
<path style="fill:#B4A09A; fill-opacity:0.900000; stroke:none;fill-rule:evenodd;"
d="M 2.363500,3.725000
2.363500,4.250000
2.063500,4.250000
2.063500,3.725000
Z" /> 
<path style="fill:#B4A09A; fill-opacity:0.900000; stroke:none;fill-rule:evenodd;"
d="M 2.863500,3.725000
2.863500,4.250000
2.563500,4.250000
2.563500,3.725000
Z" /> 
<path style="fill:#B4A09A; fill-opacity:0.900000; stroke:none;fill-rule:evenodd;"
d="M 3.363500,3.725000
3.363500,4.250000
3.063500,4.250000
3.063500,3.725000
Z" /> 
<path style="fill:#B4A09A; fill-opacity:0.900000; stroke:none;fill-rule:evenodd;"
d="M 3.863500,3.725000
3.863500,4.250000
3.563500,4.250000
3.563500,3.725000
Z" /> 
<path style="fill:#B4A09A; fill-opacity:0.900000; stroke:none;fill-rule:evenodd;"
d="M 4.363500,3.725000
4.363500,4.250000
4.063500,4.250000
4.063500,3.725000
Z" /> 
<path style="fill:#B4A09A; fill-opacity:0.900000; stroke:none;fill-rule:evenodd;"
d="M 4.863500,3.725000
4.863500,4.250000
4.563500,4.250000
4.563500,3.725000
Z" /> 
<path style="fill:#B4A09A; fill-opacity:0.900000; stroke:none;fill-rule:evenodd;"
d="M 5.363500,3.725000
5.363500,4.250000
5.063500,4.250000
5.063500,3.725000
Z" /> 
<path style="fill:#B4A09A; fill-opacity:0.900000; stroke:none;fill-rule:evenodd;"
d="M 5.063500,3.025000
5.488500,3.025000
5.488500,3.325000
5.063500,3.325000
Z" /> 
<path style="fill:#B4A09A; fill-opacity:0.900000; stroke:none;fill-rule:evenodd;"
d="M 5.063500,2.525000
5.488500,2.525000
5.488500,2.825000
5.063500,2.825000
Z" /> 
<path style="fill:#B4A09A; fill-opacity:0.900000; stroke:none;fill-rule:evenodd;"
d="M 5.063500,2.025000
5.488500,2.025000
5.488500,2.325000
5.063500,2.325000
Z" /> 
<path style="fill:#B4A09A; fill-opacity:0.900000; stroke:none;fill-rule:evenodd;"
d="M 5.063500,1.525000
5.488500,1.525000
5.488500,1.825000
5.063500,1.825000
Z" /> 
<path style="fill:#B4A09A; fill-opacity:0.900000; stroke:none;fill-rule:evenodd;"
d="M 5.363500,0.600000
5.363500,1.125000
5.063500,1.125000
5.063500,0.600000
Z" /> 
<path style="fill:#B4A09A; fill-opacity:0.900000; stroke:none;fill-rule:evenodd;"
d="M 4.863500,0.600000
4.863500,1.125000
4.563500,1.125000
4.563500,0.600000
Z" /> 
<path style="fill:#B4A09A; fill-opacity:0.900000; stroke:none;fill-rule:evenodd;"
d="M 4.363500,0.600000
4.363500,1.125000
4.063500,1.125000
4.063500,0.600000
Z" /> 
<path style="fill:#B4A09A; fill-opacity:0.900000; stroke:none;fill-rule:evenodd;"
d="M 3.863500,0.600000
3.863500,1.125000
3.563500,1.125000
3.563500,0.600000
Z" /> 
<path style="fill:#B4A09A; fill-opacity:0.900000; stroke:none;fill-rule:evenodd;"
d="M 3.363500,0.600000
3.363500,1.125000
3.063500,1.125000
3.063500,0.600000
Z" /> 
<path style="fill:#B4A09A; fill-opacity:0.900000; stroke:none;fill-rule:evenodd;"
d="M 2.863500,0.600000
2.863500,1.125000
2.563500,1.125000
2.563500,0.600000
Z" /> 
<path style="fill:#B4A09A; fill-opacity:0.900000; stroke:none;fill-rule:evenodd;"
d="M 2.363500,0.600000
2.363500,1.125000
2.063500,1.125000
2.063500,0.600000
Z" /> 
<path style="fill:#B4A09A; fill-opacity:0.900000; stroke:none;fill-rule:evenodd;"
d="M 1.863500,0.600000
1.863500,1.125000
1.563500,1.125000
1.563500,0.600000
Z" /> 
<path style="fill:#B4A09A; fill-opacity:0.900000; stroke:none;fill-rule:evenodd;"
d="M 1.363500,0.600000
1.363500,1.125000
1.063500,1.125000
1.063500,0.600000
Z" /> 
</g>
<g style="fill:none; 
stroke:#F2EDA1; stroke-width:0.050000; stroke-opacity:1; 
stroke-linecap:round; stroke-linejoin:round;">
<text x="4.170000" y="3.132820"
textLength="0.967143" font-size="0.266666" lengthAdjust="spacingAndGlyphs"
text-anchor="middle" opacity="0" stroke-opacity="0">REF**</text>
<g class="stroked-text"><desc>REF**</desc>
<path d="M3.903333 3.122743
L3.836667 3.027505
" />
<path d="M3.789048 3.122743
L3.789048 2.922743
" />
<path d="M3.789048 2.922743
L3.865238 2.922743
" />
<path d="M3.865238 2.922743
L3.884286 2.932267
" />
<path d="M3.884286 2.932267
L3.893809 2.941791
" />
<path d="M3.893809 2.941791
L3.903333 2.960839
" />
<path d="M3.903333 2.960839
L3.903333 2.989410
" />
<path d="M3.903333 2.989410
L3.893809 3.008458
" />
<path d="M3.893809 3.008458
L3.884286 3.017981
" />
<path d="M3.884286 3.017981
L3.865238 3.027505
" />
<path d="M3.865238 3.027505
L3.789048 3.027505
" />
<path d="M3.989048 3.017981
L4.055714 3.017981
" />
<path d="M4.084286 3.122743
L3.989048 3.122743
" />
<path d="M3.989048 3.122743
L3.989048 2.922743
" />
<path d="M3.989048 2.922743
L4.084286 2.922743
" />
<path d="M4.236666 3.017981
L4.170000 3.017981
" />
<path d="M4.170000 3.122743
L4.170000 2.922743
" />
<path d="M4.170000 2.922743
L4.265238 2.922743
" />
<path d="M4.370000 2.922743
L4.370000 2.970362
" />
<path d="M4.322381 2.951315
L4.370000 2.970362
" />
<path d="M4.370000 2.970362
L4.417619 2.951315
" />
<path d="M4.341429 3.008458
L4.370000 2.970362
" />
<path d="M4.370000 2.970362
L4.398571 3.008458
" />
<path d="M4.522381 2.922743
L4.522381 2.970362
" />
<path d="M4.474762 2.951315
L4.522381 2.970362
" />
<path d="M4.522381 2.970362
L4.570000 2.951315
" />
<path d="M4.493810 3.008458
L4.522381 2.970362
" />
<path d="M4.522381 2.970362
L4.550952 3.008458
" />
</g><text x="4.170000" y="3.505040"
textLength="1.588095" font-size="0.333333" lengthAdjust="spacingAndGlyphs"
text-anchor="middle" opacity="0" stroke-opacity="0">BNO055</text>
<g class="stroked-text"><desc>BNO055</desc>
<path d="M3.568810 3.362142
L3.604524 3.374047
" />
<path d="M3.604524 3.374047
L3.616429 3.385951
" />
<path d="M3.616429 3.385951
L3.628333 3.409761
" />
<path d="M3.628333 3.409761
L3.628333 3.445475
" />
<path d="M3.628333 3.445475
L3.616429 3.469285
" />
<path d="M3.616429 3.469285
L3.604524 3.481190
" />
<path d="M3.604524 3.481190
L3.580714 3.493094
" />
<path d="M3.580714 3.493094
L3.485476 3.493094
" />
<path d="M3.485476 3.493094
L3.485476 3.243094
" />
<path d="M3.485476 3.243094
L3.568810 3.243094
" />
<path d="M3.568810 3.243094
L3.592619 3.254999
" />
<path d="M3.592619 3.254999
L3.604524 3.266904
" />
<path d="M3.604524 3.266904
L3.616429 3.290713
" />
<path d="M3.616429 3.290713
L3.616429 3.314523
" />
<path d="M3.616429 3.314523
L3.604524 3.338332
" />
<path d="M3.604524 3.338332
L3.592619 3.350237
" />
<path d="M3.592619 3.350237
L3.568810 3.362142
" />
<path d="M3.568810 3.362142
L3.485476 3.362142
" />
<path d="M3.735476 3.493094
L3.735476 3.243094
" />
<path d="M3.735476 3.243094
L3.878333 3.493094
" />
<path d="M3.878333 3.493094
L3.878333 3.243094
" />
<path d="M4.045000 3.243094
L4.092619 3.243094
" />
<path d="M4.092619 3.243094
L4.116429 3.254999
" />
<path d="M4.116429 3.254999
L4.140238 3.278809
" />
<path d="M4.140238 3.278809
L4.152143 3.326428
" />
<path d="M4.152143 3.326428
L4.152143 3.409761
" />
<path d="M4.152143 3.409761
L4.140238 3.457380
" />
<path d="M4.140238 3.457380
L4.116429 3.481190
" />
<path d="M4.116429 3.481190
L4.092619 3.493094
" />
<path d="M4.092619 3.493094
L4.045000 3.493094
" />
<path d="M4.045000 3.493094
L4.021191 3.481190
" />
<path d="M4.021191 3.481190
L3.997381 3.457380
" />
<path d="M3.997381 3.457380
L3.985477 3.409761
" />
<path d="M3.985477 3.409761
L3.985477 3.326428
" />
<path d="M3.985477 3.326428
L3.997381 3.278809
" />
<path d="M3.997381 3.278809
L4.021191 3.254999
" />
<path d="M4.021191 3.254999
L4.045000 3.243094
" />
<path d="M4.306905 3.243094
L4.330715 3.243094
" />
<path d="M4.330715 3.243094
L4.354524 3.254999
" />
<path d="M4.354524 3.254999
L4.366429 3.266904
" />
<path d="M4.366429 3.266904
L4.378334 3.290713
" />
<path d="M4.378334 3.290713
L4.390239 3.338332
" />
<path d="M4.390239 3.338332
L4.390239 3.397856
" />
<path d="M4.390239 3.397856
L4.378334 3.445475
" />
<path d="M4.378334 3.445475
L4.366429 3.469285
" />
<path d="M4.366429 3.469285
L4.354524 3.481190
" />
<path d="M4.354524 3.481190
L4.330715 3.493094
" />
<path d="M4.330715 3.493094
L4.306905 3.493094
" />
<path d="M4.306905 3.493094
L4.283096 3.481190
" />
<path d="M4.283096 3.481190
L4.271191 3.469285
" />
<path d="M4.271191 3.469285
L4.259286 3.445475
" />
<path d="M4.259286 3.445475
L4.247382 3.397856
" />
<path d="M4.247382 3.397856
L4.247382 3.338332
" />
<path d="M4.247382 3.338332
L4.259286 3.290713
" />
<path d="M4.259286 3.290713
L4.271191 3.266904
" />
<path d="M4.271191 3.266904
L4.283096 3.254999
" />
<path d="M4.283096 3.254999
L4.306905 3.243094
" />
<path d="M4.616429 3.243094
L4.497381 3.243094
" />
<path d="M4.497381 3.243094
L4.485477 3.362142
" />
<path d="M4.485477 3.362142
L4.497381 3.350237
" />
<path d="M4.497381 3.350237
L4.521191 3.338332
" />
<path d="M4.521191 3.338332
L4.580715 3.338332
" />
<path d="M4.580715 3.338332
L4.604524 3.350237
" />
<path d="M4.604524 3.350237
L4.616429 3.362142
" />
<path d="M4.616429 3.362142
L4.628334 3.385951
" />
<path d="M4.628334 3.385951
L4.628334 3.445475
" />
<path d="M4.628334 3.445475
L4.616429 3.469285
" />
<path d="M4.616429 3.469285
L4.604524 3.481190
" />
<path d="M4.604524 3.481190
L4.580715 3.493094
" />
<path d="M4.580715 3.493094
L4.521191 3.493094
" />
<path d="M4.521191 3.493094
L4.497381 3.481190
" />
<path d="M4.497381 3.481190
L4.485477 3.469285
" />
<path d="M4.854524 3.243094
L4.735476 3.243094
" />
<path d="M4.735476 3.243094
L4.723572 3.362142
" />
<path d="M4.723572 3.362142
L4.735476 3.350237
" />
<path d="M4.735476 3.350237
L4.759286 3.338332
" />
<path d="M4.759286 3.338332
L4.818810 3.338332
" />
<path d="M4.818810 3.338332
L4.842619 3.350237
" />
<path d="M4.842619 3.350237
L4.854524 3.362142
" />
<path d="M4.854524 3.362142
L4.866429 3.385951
" />
<path d="M4.866429 3.385951
L4.866429 3.445475
" />
<path d="M4.866429 3.445475
L4.854524 3.469285
" />
<path d="M4.854524 3.469285
L4.842619 3.481190
" />
<path d="M4.842619 3.481190
L4.818810 3.493094
" />
<path d="M4.818810 3.493094
L4.759286 3.493094
" />
<path d="M4.759286 3.493094
L4.735476 3.481190
" />
<path d="M4.735476 3.481190
L4.723572 3.469285
" />
</g><path d="M0.363500 0.525000
L0.363500 4.325000
" />
<path d="M0.363500 4.325000
L5.563500 4.325000
" />
<path d="M5.563500 0.525000
L0.363500 0.525000
" />
<path d="M5.563500 4.325000
L5.563500 0.525000
" />
<path style="fill:none; 
stroke:#FF26E2; stroke-width:0.050000; stroke-opacity:1; 
stroke-linecap:round; stroke-linejoin:round;fill:none"
d="M 0.263500,0.425000
5.663500,0.425000
5.663500,4.425000
0.263500,4.425000
Z" /> 
</g>
<g style="fill:none; 
stroke:#C2C2C2; stroke-width:0.127000; stroke-opacity:1; 
stroke-linecap:round; stroke-linejoin:round;">
<path d="M0.063500 0.225000
L5.863500 0.225000
" />
<path d="M0.063500 4.625000
L0.063500 0.225000
" />
<path d="M5.863500 0.225000
L5.863500 4.625000
" />
<path d="M5.863500 4.625000
L0.063500 4.625000
" />
</g> 
</svg>
