<?xml version="1.0" standalone="no"?>
 <!DOCTYPE svg PUBLIC "-//W3C//DTD SVG 1.1//EN" 
 "http://www.w3.org/Graphics/SVG/1.1/DTD/svg11.dtd"> 
<svg
  xmlns:svg="http://www.w3.org/2000/svg"
  xmlns="http://www.w3.org/2000/svg"
  xmlns:xlink="http://www.w3.org/1999/xlink"
  xmlns:inkscape="http://www.inkscape.org/namespaces/inkscape"
  version="1.1"
  width="100%" height="100%" viewBox="0.0000 0.0000 43.5864 73.1520">
<title>SVG Image created as LM27762_unit1.svg date 2026-04-16T04:30:16 </title>
  <desc>Image generated by Eeschema-SVG </desc>
<g style="fill:#000000; fill-opacity:1.0000;stroke:#000000; stroke-opacity:1.0000;
stroke-linecap:round; stroke-linejoin:round;"
 transform="translate(0 0) scale(1 1)">
</g>
<g style="fill:#FFFFC2; fill-opacity:1.0000; stroke:none;">
<rect x="9.093200" y="8.638800" width="25.400000" height="58.420000" rx="0.000000" />
</g>
<g style="fill:none; 
stroke:#840000; stroke-width:0.1524; stroke-opacity:1; 
stroke-linecap:round; stroke-linejoin:round;">
<rect x="9.093200" y="8.638800" width="25.400000" height="58.420000" rx="0.000000" />
<path d="M9.0932 35.3088
L4.0132 35.3088
" />
</g>
<g style="fill:none; 
stroke:#006464; stroke-width:0.1524; stroke-opacity:1; 
stroke-linecap:round; stroke-linejoin:round;">
<text x="9.6012" y="35.9438"
textLength="6.6742" font-size="1.6933" lengthAdjust="spacingAndGlyphs"
text-anchor="start" opacity="0" stroke-opacity="0">PGOOD</text>
<g class="stroked-text"><desc>PGOOD</desc>
<path d="M10.0037 35.8883
L10.0037 34.6183
" />
<path d="M10.0037 34.6183
L10.4875 34.6183
" />
<path d="M10.4875 34.6183
L10.6085 34.6788
" />
<path d="M10.6085 34.6788
L10.6690 34.7393
" />
<path d="M10.6690 34.7393
L10.7294 34.8602
" />
<path d="M10.7294 34.8602
L10.7294 35.0417
" />
<path d="M10.7294 35.0417
L10.6690 35.1626
" />
<path d="M10.6690 35.1626
L10.6085 35.2231
" />
<path d="M10.6085 35.2231
L10.4875 35.2836
" />
<path d="M10.4875 35.2836
L10.0037 35.2836
" />
<path d="M11.9390 34.6788
L11.8180 34.6183
" />
<path d="M11.8180 34.6183
L11.6366 34.6183
" />
<path d="M11.6366 34.6183
L11.4552 34.6788
" />
<path d="M11.4552 34.6788
L11.3342 34.7998
" />
<path d="M11.3342 34.7998
L11.2737 34.9207
" />
<path d="M11.2737 34.9207
L11.2133 35.1626
" />
<path d="M11.2133 35.1626
L11.2133 35.3440
" />
<path d="M11.2133 35.3440
L11.2737 35.5859
" />
<path d="M11.2737 35.5859
L11.3342 35.7069
" />
<path d="M11.3342 35.7069
L11.4552 35.8279
" />
<path d="M11.4552 35.8279
L11.6366 35.8883
" />
<path d="M11.6366 35.8883
L11.7575 35.8883
" />
<path d="M11.7575 35.8883
L11.9390 35.8279
" />
<path d="M11.9390 35.8279
L11.9994 35.7674
" />
<path d="M11.9994 35.7674
L11.9994 35.3440
" />
<path d="M11.9994 35.3440
L11.7575 35.3440
" />
<path d="M12.7856 34.6183
L13.0275 34.6183
" />
<path d="M13.0275 34.6183
L13.1485 34.6788
" />
<path d="M13.1485 34.6788
L13.2694 34.7998
" />
<path d="M13.2694 34.7998
L13.3299 35.0417
" />
<path d="M13.3299 35.0417
L13.3299 35.4650
" />
<path d="M13.3299 35.4650
L13.2694 35.7069
" />
<path d="M13.2694 35.7069
L13.1485 35.8279
" />
<path d="M13.1485 35.8279
L13.0275 35.8883
" />
<path d="M13.0275 35.8883
L12.7856 35.8883
" />
<path d="M12.7856 35.8883
L12.6647 35.8279
" />
<path d="M12.6647 35.8279
L12.5437 35.7069
" />
<path d="M12.5437 35.7069
L12.4833 35.4650
" />
<path d="M12.4833 35.4650
L12.4833 35.0417
" />
<path d="M12.4833 35.0417
L12.5437 34.7998
" />
<path d="M12.5437 34.7998
L12.6647 34.6788
" />
<path d="M12.6647 34.6788
L12.7856 34.6183
" />
<path d="M14.1161 34.6183
L14.3580 34.6183
" />
<path d="M14.3580 34.6183
L14.4790 34.6788
" />
<path d="M14.4790 34.6788
L14.5999 34.7998
" />
<path d="M14.5999 34.7998
L14.6604 35.0417
" />
<path d="M14.6604 35.0417
L14.6604 35.4650
" />
<path d="M14.6604 35.4650
L14.5999 35.7069
" />
<path d="M14.5999 35.7069
L14.4790 35.8279
" />
<path d="M14.4790 35.8279
L14.3580 35.8883
" />
<path d="M14.3580 35.8883
L14.1161 35.8883
" />
<path d="M14.1161 35.8883
L13.9952 35.8279
" />
<path d="M13.9952 35.8279
L13.8742 35.7069
" />
<path d="M13.8742 35.7069
L13.8138 35.4650
" />
<path d="M13.8138 35.4650
L13.8138 35.0417
" />
<path d="M13.8138 35.0417
L13.8742 34.7998
" />
<path d="M13.8742 34.7998
L13.9952 34.6788
" />
<path d="M13.9952 34.6788
L14.1161 34.6183
" />
<path d="M15.2047 35.8883
L15.2047 34.6183
" />
<path d="M15.2047 34.6183
L15.5071 34.6183
" />
<path d="M15.5071 34.6183
L15.6885 34.6788
" />
<path d="M15.6885 34.6788
L15.8095 34.7998
" />
<path d="M15.8095 34.7998
L15.8700 34.9207
" />
<path d="M15.8700 34.9207
L15.9304 35.1626
" />
<path d="M15.9304 35.1626
L15.9304 35.3440
" />
<path d="M15.9304 35.3440
L15.8700 35.5859
" />
<path d="M15.8700 35.5859
L15.8095 35.7069
" />
<path d="M15.8095 35.7069
L15.6885 35.8279
" />
<path d="M15.6885 35.8279
L15.5071 35.8883
" />
<path d="M15.5071 35.8883
L15.2047 35.8883
" />
</g></g>
<g style="fill:none; 
stroke:#A90000; stroke-width:0.1524; stroke-opacity:1; 
stroke-linecap:round; stroke-linejoin:round;">
<text x="6.5532" y="35.0548"
textLength="1.4127" font-size="1.6933" lengthAdjust="spacingAndGlyphs"
text-anchor="middle" opacity="0" stroke-opacity="0">1</text>
<g class="stroked-text"><desc>1</desc>
<path d="M6.9161 34.8913
L6.1904 34.8913
" />
<path d="M6.5532 34.8913
L6.5532 33.6213
" />
<path d="M6.5532 33.6213
L6.4323 33.8028
" />
<path d="M6.4323 33.8028
L6.3113 33.9237
" />
<path d="M6.3113 33.9237
L6.1904 33.9842
" />
</g></g>
<g style="fill:none; 
stroke:#840000; stroke-width:0.1524; stroke-opacity:1; 
stroke-linecap:round; stroke-linejoin:round;">
<path d="M34.4932 27.6888
L39.5732 27.6888
" />
</g>
<g style="fill:none; 
stroke:#006464; stroke-width:0.1524; stroke-opacity:1; 
stroke-linecap:round; stroke-linejoin:round;">
<text x="33.9852" y="28.3238"
textLength="4.1342" font-size="1.6933" lengthAdjust="spacingAndGlyphs"
text-anchor="end" opacity="0" stroke-opacity="0">FB+</text>
<g class="stroked-text"><desc>FB+</desc>
<path d="M30.6797 27.6031
L30.2563 27.6031
" />
<path d="M30.2563 28.2683
L30.2563 26.9983
" />
<path d="M30.2563 26.9983
L30.8611 26.9983
" />
<path d="M31.7683 27.6031
L31.9497 27.6636
" />
<path d="M31.9497 27.6636
L32.0102 27.7240
" />
<path d="M32.0102 27.7240
L32.0706 27.8450
" />
<path d="M32.0706 27.8450
L32.0706 28.0264
" />
<path d="M32.0706 28.0264
L32.0102 28.1474
" />
<path d="M32.0102 28.1474
L31.9497 28.2079
" />
<path d="M31.9497 28.2079
L31.8287 28.2683
" />
<path d="M31.8287 28.2683
L31.3449 28.2683
" />
<path d="M31.3449 28.2683
L31.3449 26.9983
" />
<path d="M31.3449 26.9983
L31.7683 26.9983
" />
<path d="M31.7683 26.9983
L31.8892 27.0588
" />
<path d="M31.8892 27.0588
L31.9497 27.1193
" />
<path d="M31.9497 27.1193
L32.0102 27.2402
" />
<path d="M32.0102 27.2402
L32.0102 27.3612
" />
<path d="M32.0102 27.3612
L31.9497 27.4821
" />
<path d="M31.9497 27.4821
L31.8892 27.5426
" />
<path d="M31.8892 27.5426
L31.7683 27.6031
" />
<path d="M31.7683 27.6031
L31.3449 27.6031
" />
<path d="M32.6149 27.7845
L33.5826 27.7845
" />
<path d="M33.0987 28.2683
L33.0987 27.3007
" />
</g></g>
<g style="fill:none; 
stroke:#A90000; stroke-width:0.1524; stroke-opacity:1; 
stroke-linecap:round; stroke-linejoin:round;">
<text x="37.0332" y="27.4348"
textLength="1.4127" font-size="1.6933" lengthAdjust="spacingAndGlyphs"
text-anchor="middle" opacity="0" stroke-opacity="0">2</text>
<g class="stroked-text"><desc>2</desc>
<path d="M36.6704 26.1223
L36.7308 26.0618
" />
<path d="M36.7308 26.0618
L36.8518 26.0013
" />
<path d="M36.8518 26.0013
L37.1542 26.0013
" />
<path d="M37.1542 26.0013
L37.2751 26.0618
" />
<path d="M37.2751 26.0618
L37.3356 26.1223
" />
<path d="M37.3356 26.1223
L37.3961 26.2432
" />
<path d="M37.3961 26.2432
L37.3961 26.3642
" />
<path d="M37.3961 26.3642
L37.3356 26.5456
" />
<path d="M37.3356 26.5456
L36.6099 27.2713
" />
<path d="M36.6099 27.2713
L37.3961 27.2713
" />
</g></g>
<g style="fill:none; 
stroke:#840000; stroke-width:0.1524; stroke-opacity:1; 
stroke-linecap:round; stroke-linejoin:round;">
<path d="M9.0932 12.4488
L4.0132 12.4488
" />
</g>
<g style="fill:none; 
stroke:#006464; stroke-width:0.1524; stroke-opacity:1; 
stroke-linecap:round; stroke-linejoin:round;">
<text x="9.6012" y="13.0838"
textLength="3.2271" font-size="1.6933" lengthAdjust="spacingAndGlyphs"
text-anchor="start" opacity="0" stroke-opacity="0">VIN</text>
<g class="stroked-text"><desc>VIN</desc>
<path d="M9.8223 11.7583
L10.2456 13.0283
" />
<path d="M10.2456 13.0283
L10.6690 11.7583
" />
<path d="M11.0923 13.0283
L11.0923 11.7583
" />
<path d="M11.6971 13.0283
L11.6971 11.7583
" />
<path d="M11.6971 11.7583
L12.4228 13.0283
" />
<path d="M12.4228 13.0283
L12.4228 11.7583
" />
</g></g>
<g style="fill:none; 
stroke:#A90000; stroke-width:0.1524; stroke-opacity:1; 
stroke-linecap:round; stroke-linejoin:round;">
<text x="6.5532" y="12.1948"
textLength="1.4127" font-size="1.6933" lengthAdjust="spacingAndGlyphs"
text-anchor="middle" opacity="0" stroke-opacity="0">3</text>
<g class="stroked-text"><desc>3</desc>
<path d="M6.1299 10.7613
L6.9161 10.7613
" />
<path d="M6.9161 10.7613
L6.4927 11.2451
" />
<path d="M6.4927 11.2451
L6.6742 11.2451
" />
<path d="M6.6742 11.2451
L6.7951 11.3056
" />
<path d="M6.7951 11.3056
L6.8556 11.3661
" />
<path d="M6.8556 11.3661
L6.9161 11.4870
" />
<path d="M6.9161 11.4870
L6.9161 11.7894
" />
<path d="M6.9161 11.7894
L6.8556 11.9104
" />
<path d="M6.8556 11.9104
L6.7951 11.9709
" />
<path d="M6.7951 11.9709
L6.6742 12.0313
" />
<path d="M6.6742 12.0313
L6.3113 12.0313
" />
<path d="M6.3113 12.0313
L6.1904 11.9709
" />
<path d="M6.1904 11.9709
L6.1299 11.9104
" />
</g></g>
<g style="fill:none; 
stroke:#840000; stroke-width:0.1524; stroke-opacity:1; 
stroke-linecap:round; stroke-linejoin:round;">
<path d="M34.4932 63.2488
L39.5732 63.2488
" />
</g>
<g style="fill:none; 
stroke:#006464; stroke-width:0.1524; stroke-opacity:1; 
stroke-linecap:round; stroke-linejoin:round;">
<text x="33.9852" y="63.8838"
textLength="4.0737" font-size="1.6933" lengthAdjust="spacingAndGlyphs"
text-anchor="end" opacity="0" stroke-opacity="0">GND</text>
<g class="stroked-text"><desc>GND</desc>
<path d="M30.9821 62.6188
L30.8611 62.5583
" />
<path d="M30.8611 62.5583
L30.6797 62.5583
" />
<path d="M30.6797 62.5583
L30.4983 62.6188
" />
<path d="M30.4983 62.6188
L30.3773 62.7398
" />
<path d="M30.3773 62.7398
L30.3168 62.8607
" />
<path d="M30.3168 62.8607
L30.2564 63.1026
" />
<path d="M30.2564 63.1026
L30.2564 63.2840
" />
<path d="M30.2564 63.2840
L30.3168 63.5259
" />
<path d="M30.3168 63.5259
L30.3773 63.6469
" />
<path d="M30.3773 63.6469
L30.4983 63.7679
" />
<path d="M30.4983 63.7679
L30.6797 63.8283
" />
<path d="M30.6797 63.8283
L30.8006 63.8283
" />
<path d="M30.8006 63.8283
L30.9821 63.7679
" />
<path d="M30.9821 63.7679
L31.0425 63.7074
" />
<path d="M31.0425 63.7074
L31.0425 63.2840
" />
<path d="M31.0425 63.2840
L30.8006 63.2840
" />
<path d="M31.5868 63.8283
L31.5868 62.5583
" />
<path d="M31.5868 62.5583
L32.3125 63.8283
" />
<path d="M32.3125 63.8283
L32.3125 62.5583
" />
<path d="M32.9173 63.8283
L32.9173 62.5583
" />
<path d="M32.9173 62.5583
L33.2197 62.5583
" />
<path d="M33.2197 62.5583
L33.4011 62.6188
" />
<path d="M33.4011 62.6188
L33.5221 62.7398
" />
<path d="M33.5221 62.7398
L33.5826 62.8607
" />
<path d="M33.5826 62.8607
L33.6430 63.1026
" />
<path d="M33.6430 63.1026
L33.6430 63.2840
" />
<path d="M33.6430 63.2840
L33.5826 63.5259
" />
<path d="M33.5826 63.5259
L33.5221 63.6469
" />
<path d="M33.5221 63.6469
L33.4011 63.7679
" />
<path d="M33.4011 63.7679
L33.2197 63.8283
" />
<path d="M33.2197 63.8283
L32.9173 63.8283
" />
</g></g>
<g style="fill:none; 
stroke:#A90000; stroke-width:0.1524; stroke-opacity:1; 
stroke-linecap:round; stroke-linejoin:round;">
<text x="37.0332" y="62.9948"
textLength="1.4127" font-size="1.6933" lengthAdjust="spacingAndGlyphs"
text-anchor="middle" opacity="0" stroke-opacity="0">4</text>
<g class="stroked-text"><desc>4</desc>
<path d="M37.2751 61.9847
L37.2751 62.8313
" />
<path d="M36.9727 61.5009
L36.6704 62.4080
" />
<path d="M36.6704 62.4080
L37.4565 62.4080
" />
</g></g>
<g style="fill:none; 
stroke:#840000; stroke-width:0.1524; stroke-opacity:1; 
stroke-linecap:round; stroke-linejoin:round;">
<path d="M34.4932 12.4488
L39.5732 12.4488
" />
</g>
<g style="fill:none; 
stroke:#006464; stroke-width:0.1524; stroke-opacity:1; 
stroke-linecap:round; stroke-linejoin:round;">
<text x="33.9852" y="13.0838"
textLength="6.3718" font-size="1.6933" lengthAdjust="spacingAndGlyphs"
text-anchor="end" opacity="0" stroke-opacity="0">CPOUT</text>
<g class="stroked-text"><desc>CPOUT</desc>
<path d="M28.7444 12.9074
L28.6840 12.9679
" />
<path d="M28.6840 12.9679
L28.5025 13.0283
" />
<path d="M28.5025 13.0283
L28.3816 13.0283
" />
<path d="M28.3816 13.0283
L28.2002 12.9679
" />
<path d="M28.2002 12.9679
L28.0792 12.8469
" />
<path d="M28.0792 12.8469
L28.0187 12.7259
" />
<path d="M28.0187 12.7259
L27.9583 12.4840
" />
<path d="M27.9583 12.4840
L27.9583 12.3026
" />
<path d="M27.9583 12.3026
L28.0187 12.0607
" />
<path d="M28.0187 12.0607
L28.0792 11.9398
" />
<path d="M28.0792 11.9398
L28.2002 11.8188
" />
<path d="M28.2002 11.8188
L28.3816 11.7583
" />
<path d="M28.3816 11.7583
L28.5025 11.7583
" />
<path d="M28.5025 11.7583
L28.6840 11.8188
" />
<path d="M28.6840 11.8188
L28.7444 11.8793
" />
<path d="M29.2887 13.0283
L29.2887 11.7583
" />
<path d="M29.2887 11.7583
L29.7725 11.7583
" />
<path d="M29.7725 11.7583
L29.8935 11.8188
" />
<path d="M29.8935 11.8188
L29.9540 11.8793
" />
<path d="M29.9540 11.8793
L30.0144 12.0002
" />
<path d="M30.0144 12.0002
L30.0144 12.1817
" />
<path d="M30.0144 12.1817
L29.9540 12.3026
" />
<path d="M29.9540 12.3026
L29.8935 12.3631
" />
<path d="M29.8935 12.3631
L29.7725 12.4236
" />
<path d="M29.7725 12.4236
L29.2887 12.4236
" />
<path d="M30.8006 11.7583
L31.0425 11.7583
" />
<path d="M31.0425 11.7583
L31.1635 11.8188
" />
<path d="M31.1635 11.8188
L31.2844 11.9398
" />
<path d="M31.2844 11.9398
L31.3449 12.1817
" />
<path d="M31.3449 12.1817
L31.3449 12.6050
" />
<path d="M31.3449 12.6050
L31.2844 12.8469
" />
<path d="M31.2844 12.8469
L31.1635 12.9679
" />
<path d="M31.1635 12.9679
L31.0425 13.0283
" />
<path d="M31.0425 13.0283
L30.8006 13.0283
" />
<path d="M30.8006 13.0283
L30.6797 12.9679
" />
<path d="M30.6797 12.9679
L30.5587 12.8469
" />
<path d="M30.5587 12.8469
L30.4983 12.6050
" />
<path d="M30.4983 12.6050
L30.4983 12.1817
" />
<path d="M30.4983 12.1817
L30.5587 11.9398
" />
<path d="M30.5587 11.9398
L30.6797 11.8188
" />
<path d="M30.6797 11.8188
L30.8006 11.7583
" />
<path d="M31.8892 11.7583
L31.8892 12.7864
" />
<path d="M31.8892 12.7864
L31.9497 12.9074
" />
<path d="M31.9497 12.9074
L32.0102 12.9679
" />
<path d="M32.0102 12.9679
L32.1311 13.0283
" />
<path d="M32.1311 13.0283
L32.3730 13.0283
" />
<path d="M32.3730 13.0283
L32.4940 12.9679
" />
<path d="M32.4940 12.9679
L32.5545 12.9074
" />
<path d="M32.5545 12.9074
L32.6149 12.7864
" />
<path d="M32.6149 12.7864
L32.6149 11.7583
" />
<path d="M33.0383 11.7583
L33.7640 11.7583
" />
<path d="M33.4012 13.0283
L33.4012 11.7583
" />
</g></g>
<g style="fill:none; 
stroke:#A90000; stroke-width:0.1524; stroke-opacity:1; 
stroke-linecap:round; stroke-linejoin:round;">
<text x="37.0332" y="12.1948"
textLength="1.4127" font-size="1.6933" lengthAdjust="spacingAndGlyphs"
text-anchor="middle" opacity="0" stroke-opacity="0">5</text>
<g class="stroked-text"><desc>5</desc>
<path d="M37.3356 10.7613
L36.7308 10.7613
" />
<path d="M36.7308 10.7613
L36.6704 11.3661
" />
<path d="M36.6704 11.3661
L36.7308 11.3056
" />
<path d="M36.7308 11.3056
L36.8518 11.2451
" />
<path d="M36.8518 11.2451
L37.1542 11.2451
" />
<path d="M37.1542 11.2451
L37.2751 11.3056
" />
<path d="M37.2751 11.3056
L37.3356 11.3661
" />
<path d="M37.3356 11.3661
L37.3961 11.4870
" />
<path d="M37.3961 11.4870
L37.3961 11.7894
" />
<path d="M37.3961 11.7894
L37.3356 11.9104
" />
<path d="M37.3356 11.9104
L37.2751 11.9709
" />
<path d="M37.2751 11.9709
L37.1542 12.0313
" />
<path d="M37.1542 12.0313
L36.8518 12.0313
" />
<path d="M36.8518 12.0313
L36.7308 11.9709
" />
<path d="M36.7308 11.9709
L36.6704 11.9104
" />
</g></g>
<g style="fill:none; 
stroke:#840000; stroke-width:0.1524; stroke-opacity:1; 
stroke-linecap:round; stroke-linejoin:round;">
<path d="M34.4932 58.1688
L39.5732 58.1688
" />
</g>
<g style="fill:none; 
stroke:#006464; stroke-width:0.1524; stroke-opacity:1; 
stroke-linecap:round; stroke-linejoin:round;">
<text x="33.9852" y="58.8038"
textLength="5.4042" font-size="1.6933" lengthAdjust="spacingAndGlyphs"
text-anchor="end" opacity="0" stroke-opacity="0">OUT-</text>
<g class="stroked-text"><desc>OUT-</desc>
<path d="M29.2282 57.4783
L29.4701 57.4783
" />
<path d="M29.4701 57.4783
L29.5911 57.5388
" />
<path d="M29.5911 57.5388
L29.7120 57.6598
" />
<path d="M29.7120 57.6598
L29.7725 57.9017
" />
<path d="M29.7725 57.9017
L29.7725 58.3250
" />
<path d="M29.7725 58.3250
L29.7120 58.5669
" />
<path d="M29.7120 58.5669
L29.5911 58.6879
" />
<path d="M29.5911 58.6879
L29.4701 58.7483
" />
<path d="M29.4701 58.7483
L29.2282 58.7483
" />
<path d="M29.2282 58.7483
L29.1073 58.6879
" />
<path d="M29.1073 58.6879
L28.9863 58.5669
" />
<path d="M28.9863 58.5669
L28.9259 58.3250
" />
<path d="M28.9259 58.3250
L28.9259 57.9017
" />
<path d="M28.9259 57.9017
L28.9863 57.6598
" />
<path d="M28.9863 57.6598
L29.1073 57.5388
" />
<path d="M29.1073 57.5388
L29.2282 57.4783
" />
<path d="M30.3168 57.4783
L30.3168 58.5064
" />
<path d="M30.3168 58.5064
L30.3773 58.6274
" />
<path d="M30.3773 58.6274
L30.4378 58.6879
" />
<path d="M30.4378 58.6879
L30.5587 58.7483
" />
<path d="M30.5587 58.7483
L30.8006 58.7483
" />
<path d="M30.8006 58.7483
L30.9216 58.6879
" />
<path d="M30.9216 58.6879
L30.9821 58.6274
" />
<path d="M30.9821 58.6274
L31.0425 58.5064
" />
<path d="M31.0425 58.5064
L31.0425 57.4783
" />
<path d="M31.4659 57.4783
L32.1916 57.4783
" />
<path d="M31.8288 58.7483
L31.8288 57.4783
" />
<path d="M32.6149 58.2645
L33.5826 58.2645
" />
</g></g>
<g style="fill:none; 
stroke:#A90000; stroke-width:0.1524; stroke-opacity:1; 
stroke-linecap:round; stroke-linejoin:round;">
<text x="37.0332" y="57.9148"
textLength="1.4127" font-size="1.6933" lengthAdjust="spacingAndGlyphs"
text-anchor="middle" opacity="0" stroke-opacity="0">6</text>
<g class="stroked-text"><desc>6</desc>
<path d="M37.2751 56.4813
L37.0332 56.4813
" />
<path d="M37.0332 56.4813
L36.9123 56.5418
" />
<path d="M36.9123 56.5418
L36.8518 56.6023
" />
<path d="M36.8518 56.6023
L36.7308 56.7837
" />
<path d="M36.7308 56.7837
L36.6704 57.0256
" />
<path d="M36.6704 57.0256
L36.6704 57.5094
" />
<path d="M36.6704 57.5094
L36.7308 57.6304
" />
<path d="M36.7308 57.6304
L36.7913 57.6909
" />
<path d="M36.7913 57.6909
L36.9123 57.7513
" />
<path d="M36.9123 57.7513
L37.1542 57.7513
" />
<path d="M37.1542 57.7513
L37.2751 57.6909
" />
<path d="M37.2751 57.6909
L37.3356 57.6304
" />
<path d="M37.3356 57.6304
L37.3961 57.5094
" />
<path d="M37.3961 57.5094
L37.3961 57.2070
" />
<path d="M37.3961 57.2070
L37.3356 57.0861
" />
<path d="M37.3356 57.0861
L37.2751 57.0256
" />
<path d="M37.2751 57.0256
L37.1542 56.9651
" />
<path d="M37.1542 56.9651
L36.9123 56.9651
" />
<path d="M36.9123 56.9651
L36.7913 57.0256
" />
<path d="M36.7913 57.0256
L36.7308 57.0861
" />
<path d="M36.7308 57.0861
L36.6704 57.2070
" />
</g></g>
<g style="fill:none; 
stroke:#840000; stroke-width:0.1524; stroke-opacity:1; 
stroke-linecap:round; stroke-linejoin:round;">
<path d="M34.4932 48.0088
L39.5732 48.0088
" />
</g>
<g style="fill:none; 
stroke:#006464; stroke-width:0.1524; stroke-opacity:1; 
stroke-linecap:round; stroke-linejoin:round;">
<text x="33.9852" y="48.6438"
textLength="4.1342" font-size="1.6933" lengthAdjust="spacingAndGlyphs"
text-anchor="end" opacity="0" stroke-opacity="0">FB-</text>
<g class="stroked-text"><desc>FB-</desc>
<path d="M30.6797 47.9231
L30.2563 47.9231
" />
<path d="M30.2563 48.5883
L30.2563 47.3183
" />
<path d="M30.2563 47.3183
L30.8611 47.3183
" />
<path d="M31.7683 47.9231
L31.9497 47.9836
" />
<path d="M31.9497 47.9836
L32.0102 48.0440
" />
<path d="M32.0102 48.0440
L32.0706 48.1650
" />
<path d="M32.0706 48.1650
L32.0706 48.3464
" />
<path d="M32.0706 48.3464
L32.0102 48.4674
" />
<path d="M32.0102 48.4674
L31.9497 48.5279
" />
<path d="M31.9497 48.5279
L31.8287 48.5883
" />
<path d="M31.8287 48.5883
L31.3449 48.5883
" />
<path d="M31.3449 48.5883
L31.3449 47.3183
" />
<path d="M31.3449 47.3183
L31.7683 47.3183
" />
<path d="M31.7683 47.3183
L31.8892 47.3788
" />
<path d="M31.8892 47.3788
L31.9497 47.4393
" />
<path d="M31.9497 47.4393
L32.0102 47.5602
" />
<path d="M32.0102 47.5602
L32.0102 47.6812
" />
<path d="M32.0102 47.6812
L31.9497 47.8021
" />
<path d="M31.9497 47.8021
L31.8892 47.8626
" />
<path d="M31.8892 47.8626
L31.7683 47.9231
" />
<path d="M31.7683 47.9231
L31.3449 47.9231
" />
<path d="M32.6149 48.1045
L33.5826 48.1045
" />
</g></g>
<g style="fill:none; 
stroke:#A90000; stroke-width:0.1524; stroke-opacity:1; 
stroke-linecap:round; stroke-linejoin:round;">
<text x="37.0332" y="47.7548"
textLength="1.4127" font-size="1.6933" lengthAdjust="spacingAndGlyphs"
text-anchor="middle" opacity="0" stroke-opacity="0">7</text>
<g class="stroked-text"><desc>7</desc>
<path d="M36.6099 46.3213
L37.4565 46.3213
" />
<path d="M37.4565 46.3213
L36.9123 47.5913
" />
</g></g>
<g style="fill:none; 
stroke:#840000; stroke-width:0.1524; stroke-opacity:1; 
stroke-linecap:round; stroke-linejoin:round;">
<path d="M9.0932 55.6288
L4.0132 55.6288
" />
</g>
<g style="fill:none; 
stroke:#006464; stroke-width:0.1524; stroke-opacity:1; 
stroke-linecap:round; stroke-linejoin:round;">
<text x="9.6012" y="56.2638"
textLength="4.2551" font-size="1.6933" lengthAdjust="spacingAndGlyphs"
text-anchor="start" opacity="0" stroke-opacity="0">EN-</text>
<g class="stroked-text"><desc>EN-</desc>
<path d="M10.0037 55.5431
L10.4271 55.5431
" />
<path d="M10.6085 56.2083
L10.0037 56.2083
" />
<path d="M10.0037 56.2083
L10.0037 54.9383
" />
<path d="M10.0037 54.9383
L10.6085 54.9383
" />
<path d="M11.1527 56.2083
L11.1527 54.9383
" />
<path d="M11.1527 54.9383
L11.8784 56.2083
" />
<path d="M11.8784 56.2083
L11.8784 54.9383
" />
<path d="M12.4832 55.7245
L13.4509 55.7245
" />
</g></g>
<g style="fill:none; 
stroke:#A90000; stroke-width:0.1524; stroke-opacity:1; 
stroke-linecap:round; stroke-linejoin:round;">
<text x="6.5532" y="55.3748"
textLength="1.4127" font-size="1.6933" lengthAdjust="spacingAndGlyphs"
text-anchor="middle" opacity="0" stroke-opacity="0">8</text>
<g class="stroked-text"><desc>8</desc>
<path d="M6.4323 54.4856
L6.3113 54.4251
" />
<path d="M6.3113 54.4251
L6.2508 54.3647
" />
<path d="M6.2508 54.3647
L6.1904 54.2437
" />
<path d="M6.1904 54.2437
L6.1904 54.1832
" />
<path d="M6.1904 54.1832
L6.2508 54.0623
" />
<path d="M6.2508 54.0623
L6.3113 54.0018
" />
<path d="M6.3113 54.0018
L6.4323 53.9413
" />
<path d="M6.4323 53.9413
L6.6742 53.9413
" />
<path d="M6.6742 53.9413
L6.7951 54.0018
" />
<path d="M6.7951 54.0018
L6.8556 54.0623
" />
<path d="M6.8556 54.0623
L6.9161 54.1832
" />
<path d="M6.9161 54.1832
L6.9161 54.2437
" />
<path d="M6.9161 54.2437
L6.8556 54.3647
" />
<path d="M6.8556 54.3647
L6.7951 54.4251
" />
<path d="M6.7951 54.4251
L6.6742 54.4856
" />
<path d="M6.6742 54.4856
L6.4323 54.4856
" />
<path d="M6.4323 54.4856
L6.3113 54.5461
" />
<path d="M6.3113 54.5461
L6.2508 54.6066
" />
<path d="M6.2508 54.6066
L6.1904 54.7275
" />
<path d="M6.1904 54.7275
L6.1904 54.9694
" />
<path d="M6.1904 54.9694
L6.2508 55.0904
" />
<path d="M6.2508 55.0904
L6.3113 55.1509
" />
<path d="M6.3113 55.1509
L6.4323 55.2113
" />
<path d="M6.4323 55.2113
L6.6742 55.2113
" />
<path d="M6.6742 55.2113
L6.7951 55.1509
" />
<path d="M6.7951 55.1509
L6.8556 55.0904
" />
<path d="M6.8556 55.0904
L6.9161 54.9694
" />
<path d="M6.9161 54.9694
L6.9161 54.7275
" />
<path d="M6.9161 54.7275
L6.8556 54.6066
" />
<path d="M6.8556 54.6066
L6.7951 54.5461
" />
<path d="M6.7951 54.5461
L6.6742 54.4856
" />
</g></g>
<g style="fill:none; 
stroke:#840000; stroke-width:0.1524; stroke-opacity:1; 
stroke-linecap:round; stroke-linejoin:round;">
<path d="M9.0932 20.0688
L4.0132 20.0688
" />
</g>
<g style="fill:none; 
stroke:#006464; stroke-width:0.1524; stroke-opacity:1; 
stroke-linecap:round; stroke-linejoin:round;">
<text x="9.6012" y="20.7038"
textLength="4.2551" font-size="1.6933" lengthAdjust="spacingAndGlyphs"
text-anchor="start" opacity="0" stroke-opacity="0">C1-</text>
<g class="stroked-text"><desc>C1-</desc>
<path d="M10.7294 20.5274
L10.6690 20.5879
" />
<path d="M10.6690 20.5879
L10.4875 20.6483
" />
<path d="M10.4875 20.6483
L10.3666 20.6483
" />
<path d="M10.3666 20.6483
L10.1852 20.5879
" />
<path d="M10.1852 20.5879
L10.0642 20.4669
" />
<path d="M10.0642 20.4669
L10.0037 20.3459
" />
<path d="M10.0037 20.3459
L9.9433 20.1040
" />
<path d="M9.9433 20.1040
L9.9433 19.9226
" />
<path d="M9.9433 19.9226
L10.0037 19.6807
" />
<path d="M10.0037 19.6807
L10.0642 19.5598
" />
<path d="M10.0642 19.5598
L10.1852 19.4388
" />
<path d="M10.1852 19.4388
L10.3666 19.3783
" />
<path d="M10.3666 19.3783
L10.4875 19.3783
" />
<path d="M10.4875 19.3783
L10.6690 19.4388
" />
<path d="M10.6690 19.4388
L10.7294 19.4993
" />
<path d="M11.9390 20.6483
L11.2133 20.6483
" />
<path d="M11.5761 20.6483
L11.5761 19.3783
" />
<path d="M11.5761 19.3783
L11.4552 19.5598
" />
<path d="M11.4552 19.5598
L11.3342 19.6807
" />
<path d="M11.3342 19.6807
L11.2133 19.7412
" />
<path d="M12.4832 20.1645
L13.4509 20.1645
" />
</g></g>
<g style="fill:none; 
stroke:#A90000; stroke-width:0.1524; stroke-opacity:1; 
stroke-linecap:round; stroke-linejoin:round;">
<text x="6.5532" y="19.8148"
textLength="1.4127" font-size="1.6933" lengthAdjust="spacingAndGlyphs"
text-anchor="middle" opacity="0" stroke-opacity="0">9</text>
<g class="stroked-text"><desc>9</desc>
<path d="M6.3113 19.6513
L6.5532 19.6513
" />
<path d="M6.5532 19.6513
L6.6742 19.5909
" />
<path d="M6.6742 19.5909
L6.7346 19.5304
" />
<path d="M6.7346 19.5304
L6.8556 19.3489
" />
<path d="M6.8556 19.3489
L6.9161 19.1070
" />
<path d="M6.9161 19.1070
L6.9161 18.6232
" />
<path d="M6.9161 18.6232
L6.8556 18.5023
" />
<path d="M6.8556 18.5023
L6.7951 18.4418
" />
<path d="M6.7951 18.4418
L6.6742 18.3813
" />
<path d="M6.6742 18.3813
L6.4323 18.3813
" />
<path d="M6.4323 18.3813
L6.3113 18.4418
" />
<path d="M6.3113 18.4418
L6.2508 18.5023
" />
<path d="M6.2508 18.5023
L6.1904 18.6232
" />
<path d="M6.1904 18.6232
L6.1904 18.9256
" />
<path d="M6.1904 18.9256
L6.2508 19.0466
" />
<path d="M6.2508 19.0466
L6.3113 19.1070
" />
<path d="M6.3113 19.1070
L6.4323 19.1675
" />
<path d="M6.4323 19.1675
L6.6742 19.1675
" />
<path d="M6.6742 19.1675
L6.7951 19.1070
" />
<path d="M6.7951 19.1070
L6.8556 19.0466
" />
<path d="M6.8556 19.0466
L6.9161 18.9256
" />
</g></g>
<g style="fill:none; 
stroke:#840000; stroke-width:0.1524; stroke-opacity:1; 
stroke-linecap:round; stroke-linejoin:round;">
<path d="M9.0932 27.6888
L4.0132 27.6888
" />
</g>
<g style="fill:none; 
stroke:#006464; stroke-width:0.1524; stroke-opacity:1; 
stroke-linecap:round; stroke-linejoin:round;">
<text x="9.6012" y="28.3238"
textLength="4.2551" font-size="1.6933" lengthAdjust="spacingAndGlyphs"
text-anchor="start" opacity="0" stroke-opacity="0">C1+</text>
<g class="stroked-text"><desc>C1+</desc>
<path d="M10.7294 28.1474
L10.6690 28.2079
" />
<path d="M10.6690 28.2079
L10.4875 28.2683
" />
<path d="M10.4875 28.2683
L10.3666 28.2683
" />
<path d="M10.3666 28.2683
L10.1852 28.2079
" />
<path d="M10.1852 28.2079
L10.0642 28.0869
" />
<path d="M10.0642 28.0869
L10.0037 27.9659
" />
<path d="M10.0037 27.9659
L9.9433 27.7240
" />
<path d="M9.9433 27.7240
L9.9433 27.5426
" />
<path d="M9.9433 27.5426
L10.0037 27.3007
" />
<path d="M10.0037 27.3007
L10.0642 27.1798
" />
<path d="M10.0642 27.1798
L10.1852 27.0588
" />
<path d="M10.1852 27.0588
L10.3666 26.9983
" />
<path d="M10.3666 26.9983
L10.4875 26.9983
" />
<path d="M10.4875 26.9983
L10.6690 27.0588
" />
<path d="M10.6690 27.0588
L10.7294 27.1193
" />
<path d="M11.9390 28.2683
L11.2133 28.2683
" />
<path d="M11.5761 28.2683
L11.5761 26.9983
" />
<path d="M11.5761 26.9983
L11.4552 27.1798
" />
<path d="M11.4552 27.1798
L11.3342 27.3007
" />
<path d="M11.3342 27.3007
L11.2133 27.3612
" />
<path d="M12.4832 27.7845
L13.4509 27.7845
" />
<path d="M12.9670 28.2683
L12.9670 27.3007
" />
</g></g>
<g style="fill:none; 
stroke:#A90000; stroke-width:0.1524; stroke-opacity:1; 
stroke-linecap:round; stroke-linejoin:round;">
<text x="6.5532" y="27.4348"
textLength="2.6222" font-size="1.6933" lengthAdjust="spacingAndGlyphs"
text-anchor="middle" opacity="0" stroke-opacity="0">10</text>
<g class="stroked-text"><desc>10</desc>
<path d="M6.3113 27.2713
L5.5856 27.2713
" />
<path d="M5.9484 27.2713
L5.9484 26.0013
" />
<path d="M5.9484 26.0013
L5.8275 26.1828
" />
<path d="M5.8275 26.1828
L5.7065 26.3037
" />
<path d="M5.7065 26.3037
L5.5856 26.3642
" />
<path d="M7.0974 26.0013
L7.2184 26.0013
" />
<path d="M7.2184 26.0013
L7.3393 26.0618
" />
<path d="M7.3393 26.0618
L7.3998 26.1223
" />
<path d="M7.3998 26.1223
L7.4603 26.2432
" />
<path d="M7.4603 26.2432
L7.5208 26.4851
" />
<path d="M7.5208 26.4851
L7.5208 26.7875
" />
<path d="M7.5208 26.7875
L7.4603 27.0294
" />
<path d="M7.4603 27.0294
L7.3998 27.1504
" />
<path d="M7.3998 27.1504
L7.3393 27.2109
" />
<path d="M7.3393 27.2109
L7.2184 27.2713
" />
<path d="M7.2184 27.2713
L7.0974 27.2713
" />
<path d="M7.0974 27.2713
L6.9765 27.2109
" />
<path d="M6.9765 27.2109
L6.9160 27.1504
" />
<path d="M6.9160 27.1504
L6.8555 27.0294
" />
<path d="M6.8555 27.0294
L6.7951 26.7875
" />
<path d="M6.7951 26.7875
L6.7951 26.4851
" />
<path d="M6.7951 26.4851
L6.8555 26.2432
" />
<path d="M6.8555 26.2432
L6.9160 26.1223
" />
<path d="M6.9160 26.1223
L6.9765 26.0618
" />
<path d="M6.9765 26.0618
L7.0974 26.0013
" />
</g></g>
<g style="fill:none; 
stroke:#840000; stroke-width:0.1524; stroke-opacity:1; 
stroke-linecap:round; stroke-linejoin:round;">
<path d="M34.4932 17.5288
L39.5732 17.5288
" />
</g>
<g style="fill:none; 
stroke:#006464; stroke-width:0.1524; stroke-opacity:1; 
stroke-linecap:round; stroke-linejoin:round;">
<text x="33.9852" y="18.1638"
textLength="5.4042" font-size="1.6933" lengthAdjust="spacingAndGlyphs"
text-anchor="end" opacity="0" stroke-opacity="0">OUT+</text>
<g class="stroked-text"><desc>OUT+</desc>
<path d="M29.2282 16.8383
L29.4701 16.8383
" />
<path d="M29.4701 16.8383
L29.5911 16.8988
" />
<path d="M29.5911 16.8988
L29.7120 17.0198
" />
<path d="M29.7120 17.0198
L29.7725 17.2617
" />
<path d="M29.7725 17.2617
L29.7725 17.6850
" />
<path d="M29.7725 17.6850
L29.7120 17.9269
" />
<path d="M29.7120 17.9269
L29.5911 18.0479
" />
<path d="M29.5911 18.0479
L29.4701 18.1083
" />
<path d="M29.4701 18.1083
L29.2282 18.1083
" />
<path d="M29.2282 18.1083
L29.1073 18.0479
" />
<path d="M29.1073 18.0479
L28.9863 17.9269
" />
<path d="M28.9863 17.9269
L28.9259 17.6850
" />
<path d="M28.9259 17.6850
L28.9259 17.2617
" />
<path d="M28.9259 17.2617
L28.9863 17.0198
" />
<path d="M28.9863 17.0198
L29.1073 16.8988
" />
<path d="M29.1073 16.8988
L29.2282 16.8383
" />
<path d="M30.3168 16.8383
L30.3168 17.8664
" />
<path d="M30.3168 17.8664
L30.3773 17.9874
" />
<path d="M30.3773 17.9874
L30.4378 18.0479
" />
<path d="M30.4378 18.0479
L30.5587 18.1083
" />
<path d="M30.5587 18.1083
L30.8006 18.1083
" />
<path d="M30.8006 18.1083
L30.9216 18.0479
" />
<path d="M30.9216 18.0479
L30.9821 17.9874
" />
<path d="M30.9821 17.9874
L31.0425 17.8664
" />
<path d="M31.0425 17.8664
L31.0425 16.8383
" />
<path d="M31.4659 16.8383
L32.1916 16.8383
" />
<path d="M31.8288 18.1083
L31.8288 16.8383
" />
<path d="M32.6149 17.6245
L33.5826 17.6245
" />
<path d="M33.0987 18.1083
L33.0987 17.1407
" />
</g></g>
<g style="fill:none; 
stroke:#A90000; stroke-width:0.1524; stroke-opacity:1; 
stroke-linecap:round; stroke-linejoin:round;">
<text x="37.0332" y="17.2748"
textLength="2.6222" font-size="1.6933" lengthAdjust="spacingAndGlyphs"
text-anchor="middle" opacity="0" stroke-opacity="0">11</text>
<g class="stroked-text"><desc>11</desc>
<path d="M36.7913 17.1113
L36.0656 17.1113
" />
<path d="M36.4284 17.1113
L36.4284 15.8413
" />
<path d="M36.4284 15.8413
L36.3075 16.0228
" />
<path d="M36.3075 16.0228
L36.1865 16.1437
" />
<path d="M36.1865 16.1437
L36.0656 16.2042
" />
<path d="M38.0008 17.1113
L37.2751 17.1113
" />
<path d="M37.6379 17.1113
L37.6379 15.8413
" />
<path d="M37.6379 15.8413
L37.5170 16.0228
" />
<path d="M37.5170 16.0228
L37.3960 16.1437
" />
<path d="M37.3960 16.1437
L37.2751 16.2042
" />
</g></g>
<g style="fill:none; 
stroke:#840000; stroke-width:0.1524; stroke-opacity:1; 
stroke-linecap:round; stroke-linejoin:round;">
<path d="M9.0932 50.5488
L4.0132 50.5488
" />
</g>
<g style="fill:none; 
stroke:#006464; stroke-width:0.1524; stroke-opacity:1; 
stroke-linecap:round; stroke-linejoin:round;">
<text x="9.6012" y="51.1838"
textLength="4.2551" font-size="1.6933" lengthAdjust="spacingAndGlyphs"
text-anchor="start" opacity="0" stroke-opacity="0">EN+</text>
<g class="stroked-text"><desc>EN+</desc>
<path d="M10.0037 50.4631
L10.4271 50.4631
" />
<path d="M10.6085 51.1283
L10.0037 51.1283
" />
<path d="M10.0037 51.1283
L10.0037 49.8583
" />
<path d="M10.0037 49.8583
L10.6085 49.8583
" />
<path d="M11.1527 51.1283
L11.1527 49.8583
" />
<path d="M11.1527 49.8583
L11.8784 51.1283
" />
<path d="M11.8784 51.1283
L11.8784 49.8583
" />
<path d="M12.4832 50.6445
L13.4509 50.6445
" />
<path d="M12.9670 51.1283
L12.9670 50.1607
" />
</g></g>
<g style="fill:none; 
stroke:#A90000; stroke-width:0.1524; stroke-opacity:1; 
stroke-linecap:round; stroke-linejoin:round;">
<text x="6.5532" y="50.2948"
textLength="2.6222" font-size="1.6933" lengthAdjust="spacingAndGlyphs"
text-anchor="middle" opacity="0" stroke-opacity="0">12</text>
<g class="stroked-text"><desc>12</desc>
<path d="M6.3113 50.1313
L5.5856 50.1313
" />
<path d="M5.9484 50.1313
L5.9484 48.8613
" />
<path d="M5.9484 48.8613
L5.8275 49.0428
" />
<path d="M5.8275 49.0428
L5.7065 49.1637
" />
<path d="M5.7065 49.1637
L5.5856 49.2242
" />
<path d="M6.7951 48.9823
L6.8555 48.9218
" />
<path d="M6.8555 48.9218
L6.9765 48.8613
" />
<path d="M6.9765 48.8613
L7.2789 48.8613
" />
<path d="M7.2789 48.8613
L7.3998 48.9218
" />
<path d="M7.3998 48.9218
L7.4603 48.9823
" />
<path d="M7.4603 48.9823
L7.5208 49.1032
" />
<path d="M7.5208 49.1032
L7.5208 49.2242
" />
<path d="M7.5208 49.2242
L7.4603 49.4056
" />
<path d="M7.4603 49.4056
L6.7346 50.1313
" />
<path d="M6.7346 50.1313
L7.5208 50.1313
" />
</g></g>
<g style="fill:none; 
stroke:#840000; stroke-width:0.1524; stroke-opacity:1; 
stroke-linecap:round; stroke-linejoin:round;">
<path d="M34.4932 65.7888
L39.5732 65.7888
" />
</g>
<g style="fill:none; 
stroke:#006464; stroke-width:0.1524; stroke-opacity:1; 
stroke-linecap:round; stroke-linejoin:round;">
<text x="33.9852" y="66.4238"
textLength="3.8318" font-size="1.6933" lengthAdjust="spacingAndGlyphs"
text-anchor="end" opacity="0" stroke-opacity="0">PAD</text>
<g class="stroked-text"><desc>PAD</desc>
<path d="M30.5587 66.3683
L30.5587 65.0983
" />
<path d="M30.5587 65.0983
L31.0425 65.0983
" />
<path d="M31.0425 65.0983
L31.1635 65.1588
" />
<path d="M31.1635 65.1588
L31.2240 65.2193
" />
<path d="M31.2240 65.2193
L31.2844 65.3402
" />
<path d="M31.2844 65.3402
L31.2844 65.5217
" />
<path d="M31.2844 65.5217
L31.2240 65.6426
" />
<path d="M31.2240 65.6426
L31.1635 65.7031
" />
<path d="M31.1635 65.7031
L31.0425 65.7636
" />
<path d="M31.0425 65.7636
L30.5587 65.7636
" />
<path d="M31.7683 66.0055
L32.3730 66.0055
" />
<path d="M31.6473 66.3683
L32.0706 65.0983
" />
<path d="M32.0706 65.0983
L32.4940 66.3683
" />
<path d="M32.9173 66.3683
L32.9173 65.0983
" />
<path d="M32.9173 65.0983
L33.2197 65.0983
" />
<path d="M33.2197 65.0983
L33.4011 65.1588
" />
<path d="M33.4011 65.1588
L33.5221 65.2798
" />
<path d="M33.5221 65.2798
L33.5826 65.4007
" />
<path d="M33.5826 65.4007
L33.6430 65.6426
" />
<path d="M33.6430 65.6426
L33.6430 65.8240
" />
<path d="M33.6430 65.8240
L33.5826 66.0659
" />
<path d="M33.5826 66.0659
L33.5221 66.1869
" />
<path d="M33.5221 66.1869
L33.4011 66.3079
" />
<path d="M33.4011 66.3079
L33.2197 66.3683
" />
<path d="M33.2197 66.3683
L32.9173 66.3683
" />
</g></g>
<g style="fill:none; 
stroke:#A90000; stroke-width:0.1524; stroke-opacity:1; 
stroke-linecap:round; stroke-linejoin:round;">
<text x="37.0332" y="65.5348"
textLength="2.6222" font-size="1.6933" lengthAdjust="spacingAndGlyphs"
text-anchor="middle" opacity="0" stroke-opacity="0">13</text>
<g class="stroked-text"><desc>13</desc>
<path d="M36.7913 65.3713
L36.0656 65.3713
" />
<path d="M36.4284 65.3713
L36.4284 64.1013
" />
<path d="M36.4284 64.1013
L36.3075 64.2828
" />
<path d="M36.3075 64.2828
L36.1865 64.4037
" />
<path d="M36.1865 64.4037
L36.0656 64.4642
" />
<path d="M37.2146 64.1013
L38.0008 64.1013
" />
<path d="M38.0008 64.1013
L37.5774 64.5851
" />
<path d="M37.5774 64.5851
L37.7589 64.5851
" />
<path d="M37.7589 64.5851
L37.8798 64.6456
" />
<path d="M37.8798 64.6456
L37.9403 64.7061
" />
<path d="M37.9403 64.7061
L38.0008 64.8270
" />
<path d="M38.0008 64.8270
L38.0008 65.1294
" />
<path d="M38.0008 65.1294
L37.9403 65.2504
" />
<path d="M37.9403 65.2504
L37.8798 65.3109
" />
<path d="M37.8798 65.3109
L37.7589 65.3713
" />
<path d="M37.7589 65.3713
L37.3960 65.3713
" />
<path d="M37.3960 65.3713
L37.2751 65.3109
" />
<path d="M37.2751 65.3109
L37.2146 65.2504
" />
</g></g>
<g style="fill:none; 
stroke:#006464; stroke-width:0.1524; stroke-opacity:1; 
stroke-linecap:round; stroke-linejoin:round;">
<text x="9.8552" y="7.7498"
textLength="2.6223" font-size="1.6933" lengthAdjust="spacingAndGlyphs"
text-anchor="middle" opacity="0" stroke-opacity="0">U?</text>
<g class="stroked-text"><desc>U?</desc>
<path d="M8.9480 6.4243
L8.9480 7.4524
" />
<path d="M8.9480 7.4524
L9.0085 7.5734
" />
<path d="M9.0085 7.5734
L9.0690 7.6339
" />
<path d="M9.0690 7.6339
L9.1899 7.6943
" />
<path d="M9.1899 7.6943
L9.4318 7.6943
" />
<path d="M9.4318 7.6943
L9.5528 7.6339
" />
<path d="M9.5528 7.6339
L9.6133 7.5734
" />
<path d="M9.6133 7.5734
L9.6737 7.4524
" />
<path d="M9.6737 7.4524
L9.6737 6.4243
" />
<path d="M10.4600 7.5734
L10.5204 7.6339
" />
<path d="M10.5204 7.6339
L10.4600 7.6943
" />
<path d="M10.4600 7.6943
L10.3995 7.6339
" />
<path d="M10.3995 7.6339
L10.4600 7.5734
" />
<path d="M10.4600 7.5734
L10.4600 7.6943
" />
<path d="M10.2181 6.4848
L10.3390 6.4243
" />
<path d="M10.3390 6.4243
L10.6414 6.4243
" />
<path d="M10.6414 6.4243
L10.7623 6.4848
" />
<path d="M10.7623 6.4848
L10.8228 6.6058
" />
<path d="M10.8228 6.6058
L10.8228 6.7267
" />
<path d="M10.8228 6.7267
L10.7623 6.8477
" />
<path d="M10.7623 6.8477
L10.7019 6.9081
" />
<path d="M10.7019 6.9081
L10.5809 6.9686
" />
<path d="M10.5809 6.9686
L10.5204 7.0291
" />
<path d="M10.5204 7.0291
L10.4600 7.1500
" />
<path d="M10.4600 7.1500
L10.4600 7.2105
" />
</g><text x="29.4132" y="7.7498"
textLength="8.7302" font-size="1.6933" lengthAdjust="spacingAndGlyphs"
text-anchor="middle" opacity="0" stroke-opacity="0">LM27762</text>
<g class="stroked-text"><desc>LM27762</desc>
<path d="M26.0568 7.6943
L25.4520 7.6943
" />
<path d="M25.4520 7.6943
L25.4520 6.4243
" />
<path d="M26.4801 7.6943
L26.4801 6.4243
" />
<path d="M26.4801 6.4243
L26.9035 7.3315
" />
<path d="M26.9035 7.3315
L27.3268 6.4243
" />
<path d="M27.3268 6.4243
L27.3268 7.6943
" />
<path d="M27.8711 6.5453
L27.9315 6.4848
" />
<path d="M27.9315 6.4848
L28.0525 6.4243
" />
<path d="M28.0525 6.4243
L28.3549 6.4243
" />
<path d="M28.3549 6.4243
L28.4758 6.4848
" />
<path d="M28.4758 6.4848
L28.5363 6.5453
" />
<path d="M28.5363 6.5453
L28.5968 6.6662
" />
<path d="M28.5968 6.6662
L28.5968 6.7872
" />
<path d="M28.5968 6.7872
L28.5363 6.9686
" />
<path d="M28.5363 6.9686
L27.8106 7.6943
" />
<path d="M27.8106 7.6943
L28.5968 7.6943
" />
<path d="M29.0201 6.4243
L29.8667 6.4243
" />
<path d="M29.8667 6.4243
L29.3225 7.6943
" />
<path d="M30.2296 6.4243
L31.0762 6.4243
" />
<path d="M31.0762 6.4243
L30.5320 7.6943
" />
<path d="M32.1043 6.4243
L31.8624 6.4243
" />
<path d="M31.8624 6.4243
L31.7415 6.4848
" />
<path d="M31.7415 6.4848
L31.6810 6.5453
" />
<path d="M31.6810 6.5453
L31.5600 6.7267
" />
<path d="M31.5600 6.7267
L31.4996 6.9686
" />
<path d="M31.4996 6.9686
L31.4996 7.4524
" />
<path d="M31.4996 7.4524
L31.5600 7.5734
" />
<path d="M31.5600 7.5734
L31.6205 7.6339
" />
<path d="M31.6205 7.6339
L31.7415 7.6943
" />
<path d="M31.7415 7.6943
L31.9834 7.6943
" />
<path d="M31.9834 7.6943
L32.1043 7.6339
" />
<path d="M32.1043 7.6339
L32.1648 7.5734
" />
<path d="M32.1648 7.5734
L32.2253 7.4524
" />
<path d="M32.2253 7.4524
L32.2253 7.1500
" />
<path d="M32.2253 7.1500
L32.1648 7.0291
" />
<path d="M32.1648 7.0291
L32.1043 6.9686
" />
<path d="M32.1043 6.9686
L31.9834 6.9081
" />
<path d="M31.9834 6.9081
L31.7415 6.9081
" />
<path d="M31.7415 6.9081
L31.6205 6.9686
" />
<path d="M31.6205 6.9686
L31.5600 7.0291
" />
<path d="M31.5600 7.0291
L31.4996 7.1500
" />
<path d="M32.7091 6.5453
L32.7695 6.4848
" />
<path d="M32.7695 6.4848
L32.8905 6.4243
" />
<path d="M32.8905 6.4243
L33.1929 6.4243
" />
<path d="M33.1929 6.4243
L33.3138 6.4848
" />
<path d="M33.3138 6.4848
L33.3743 6.5453
" />
<path d="M33.3743 6.5453
L33.4348 6.6662
" />
<path d="M33.4348 6.6662
L33.4348 6.7872
" />
<path d="M33.4348 6.7872
L33.3743 6.9686
" />
<path d="M33.3743 6.9686
L32.6486 7.6943
" />
<path d="M32.6486 7.6943
L33.4348 7.6943
" />
</g></g> 
</svg>
