<?xml version="1.0" standalone="no"?>
 <!DOCTYPE svg PUBLIC "-//W3C//DTD SVG 1.1//EN" 
 "http://www.w3.org/Graphics/SVG/1.1/DTD/svg11.dtd"> 
<svg
  xmlns:svg="http://www.w3.org/2000/svg"
  xmlns="http://www.w3.org/2000/svg"
  xmlns:xlink="http://www.w3.org/1999/xlink"
  xmlns:inkscape="http://www.inkscape.org/namespaces/inkscape"
  version="1.1"
  width="100%" height="100%" viewBox="0.0000 0.0000 43.5864 73.4060">
<title>SVG Image created as LM27762_unit1.svg date 2026-04-16T03:01:04 </title>
  <desc>Image generated by Eeschema-SVG </desc>
<g style="fill:#000000; fill-opacity:1.0000;stroke:#000000; stroke-opacity:1.0000;
stroke-linecap:round; stroke-linejoin:round;"
 transform="translate(0 0) scale(1 1)">
</g>
<g style="fill:#FFFFC2; fill-opacity:1.0000; stroke:none;">
<rect x="9.093200" y="8.868000" width="25.400000" height="58.420000" rx="0.000000" />
</g>
<g style="fill:none; 
stroke:#840000; stroke-width:0.1524; stroke-opacity:1; 
stroke-linecap:round; stroke-linejoin:round;">
<rect x="9.093200" y="8.868000" width="25.400000" height="58.420000" rx="0.000000" />
<path d="M9.0932 35.5380
L4.0132 35.5380
" />
</g>
<g style="fill:none; 
stroke:#006464; stroke-width:0.1524; stroke-opacity:1; 
stroke-linecap:round; stroke-linejoin:round;">
<text x="9.6012" y="36.1730"
textLength="6.6742" font-size="1.6933" lengthAdjust="spacingAndGlyphs"
text-anchor="start" opacity="0" stroke-opacity="0">PGOOD</text>
<g class="stroked-text"><desc>PGOOD</desc>
<path d="M10.0037 36.1175
L10.0037 34.8475
" />
<path d="M10.0037 34.8475
L10.4875 34.8475
" />
<path d="M10.4875 34.8475
L10.6085 34.9080
" />
<path d="M10.6085 34.9080
L10.6690 34.9685
" />
<path d="M10.6690 34.9685
L10.7294 35.0894
" />
<path d="M10.7294 35.0894
L10.7294 35.2709
" />
<path d="M10.7294 35.2709
L10.6690 35.3918
" />
<path d="M10.6690 35.3918
L10.6085 35.4523
" />
<path d="M10.6085 35.4523
L10.4875 35.5128
" />
<path d="M10.4875 35.5128
L10.0037 35.5128
" />
<path d="M11.9390 34.9080
L11.8180 34.8475
" />
<path d="M11.8180 34.8475
L11.6366 34.8475
" />
<path d="M11.6366 34.8475
L11.4552 34.9080
" />
<path d="M11.4552 34.9080
L11.3342 35.0290
" />
<path d="M11.3342 35.0290
L11.2737 35.1499
" />
<path d="M11.2737 35.1499
L11.2133 35.3918
" />
<path d="M11.2133 35.3918
L11.2133 35.5732
" />
<path d="M11.2133 35.5732
L11.2737 35.8151
" />
<path d="M11.2737 35.8151
L11.3342 35.9361
" />
<path d="M11.3342 35.9361
L11.4552 36.0571
" />
<path d="M11.4552 36.0571
L11.6366 36.1175
" />
<path d="M11.6366 36.1175
L11.7575 36.1175
" />
<path d="M11.7575 36.1175
L11.9390 36.0571
" />
<path d="M11.9390 36.0571
L11.9994 35.9966
" />
<path d="M11.9994 35.9966
L11.9994 35.5732
" />
<path d="M11.9994 35.5732
L11.7575 35.5732
" />
<path d="M12.7856 34.8475
L13.0275 34.8475
" />
<path d="M13.0275 34.8475
L13.1485 34.9080
" />
<path d="M13.1485 34.9080
L13.2694 35.0290
" />
<path d="M13.2694 35.0290
L13.3299 35.2709
" />
<path d="M13.3299 35.2709
L13.3299 35.6942
" />
<path d="M13.3299 35.6942
L13.2694 35.9361
" />
<path d="M13.2694 35.9361
L13.1485 36.0571
" />
<path d="M13.1485 36.0571
L13.0275 36.1175
" />
<path d="M13.0275 36.1175
L12.7856 36.1175
" />
<path d="M12.7856 36.1175
L12.6647 36.0571
" />
<path d="M12.6647 36.0571
L12.5437 35.9361
" />
<path d="M12.5437 35.9361
L12.4833 35.6942
" />
<path d="M12.4833 35.6942
L12.4833 35.2709
" />
<path d="M12.4833 35.2709
L12.5437 35.0290
" />
<path d="M12.5437 35.0290
L12.6647 34.9080
" />
<path d="M12.6647 34.9080
L12.7856 34.8475
" />
<path d="M14.1161 34.8475
L14.3580 34.8475
" />
<path d="M14.3580 34.8475
L14.4790 34.9080
" />
<path d="M14.4790 34.9080
L14.5999 35.0290
" />
<path d="M14.5999 35.0290
L14.6604 35.2709
" />
<path d="M14.6604 35.2709
L14.6604 35.6942
" />
<path d="M14.6604 35.6942
L14.5999 35.9361
" />
<path d="M14.5999 35.9361
L14.4790 36.0571
" />
<path d="M14.4790 36.0571
L14.3580 36.1175
" />
<path d="M14.3580 36.1175
L14.1161 36.1175
" />
<path d="M14.1161 36.1175
L13.9952 36.0571
" />
<path d="M13.9952 36.0571
L13.8742 35.9361
" />
<path d="M13.8742 35.9361
L13.8138 35.6942
" />
<path d="M13.8138 35.6942
L13.8138 35.2709
" />
<path d="M13.8138 35.2709
L13.8742 35.0290
" />
<path d="M13.8742 35.0290
L13.9952 34.9080
" />
<path d="M13.9952 34.9080
L14.1161 34.8475
" />
<path d="M15.2047 36.1175
L15.2047 34.8475
" />
<path d="M15.2047 34.8475
L15.5071 34.8475
" />
<path d="M15.5071 34.8475
L15.6885 34.9080
" />
<path d="M15.6885 34.9080
L15.8095 35.0290
" />
<path d="M15.8095 35.0290
L15.8700 35.1499
" />
<path d="M15.8700 35.1499
L15.9304 35.3918
" />
<path d="M15.9304 35.3918
L15.9304 35.5732
" />
<path d="M15.9304 35.5732
L15.8700 35.8151
" />
<path d="M15.8700 35.8151
L15.8095 35.9361
" />
<path d="M15.8095 35.9361
L15.6885 36.0571
" />
<path d="M15.6885 36.0571
L15.5071 36.1175
" />
<path d="M15.5071 36.1175
L15.2047 36.1175
" />
</g></g>
<g style="fill:none; 
stroke:#A90000; stroke-width:0.1524; stroke-opacity:1; 
stroke-linecap:round; stroke-linejoin:round;">
<text x="6.5532" y="35.2840"
textLength="1.4127" font-size="1.6933" lengthAdjust="spacingAndGlyphs"
text-anchor="middle" opacity="0" stroke-opacity="0">1</text>
<g class="stroked-text"><desc>1</desc>
<path d="M6.9161 35.1205
L6.1904 35.1205
" />
<path d="M6.5532 35.1205
L6.5532 33.8505
" />
<path d="M6.5532 33.8505
L6.4323 34.0320
" />
<path d="M6.4323 34.0320
L6.3113 34.1529
" />
<path d="M6.3113 34.1529
L6.1904 34.2134
" />
</g></g>
<g style="fill:none; 
stroke:#840000; stroke-width:0.1524; stroke-opacity:1; 
stroke-linecap:round; stroke-linejoin:round;">
<path d="M34.4932 27.9180
L39.5732 27.9180
" />
</g>
<g style="fill:none; 
stroke:#006464; stroke-width:0.1524; stroke-opacity:1; 
stroke-linecap:round; stroke-linejoin:round;">
<text x="33.9852" y="28.5530"
textLength="4.1342" font-size="1.6933" lengthAdjust="spacingAndGlyphs"
text-anchor="end" opacity="0" stroke-opacity="0">FB+</text>
<g class="stroked-text"><desc>FB+</desc>
<path d="M30.6797 27.8323
L30.2563 27.8323
" />
<path d="M30.2563 28.4975
L30.2563 27.2275
" />
<path d="M30.2563 27.2275
L30.8611 27.2275
" />
<path d="M31.7683 27.8323
L31.9497 27.8928
" />
<path d="M31.9497 27.8928
L32.0102 27.9532
" />
<path d="M32.0102 27.9532
L32.0706 28.0742
" />
<path d="M32.0706 28.0742
L32.0706 28.2556
" />
<path d="M32.0706 28.2556
L32.0102 28.3766
" />
<path d="M32.0102 28.3766
L31.9497 28.4371
" />
<path d="M31.9497 28.4371
L31.8287 28.4975
" />
<path d="M31.8287 28.4975
L31.3449 28.4975
" />
<path d="M31.3449 28.4975
L31.3449 27.2275
" />
<path d="M31.3449 27.2275
L31.7683 27.2275
" />
<path d="M31.7683 27.2275
L31.8892 27.2880
" />
<path d="M31.8892 27.2880
L31.9497 27.3485
" />
<path d="M31.9497 27.3485
L32.0102 27.4694
" />
<path d="M32.0102 27.4694
L32.0102 27.5904
" />
<path d="M32.0102 27.5904
L31.9497 27.7113
" />
<path d="M31.9497 27.7113
L31.8892 27.7718
" />
<path d="M31.8892 27.7718
L31.7683 27.8323
" />
<path d="M31.7683 27.8323
L31.3449 27.8323
" />
<path d="M32.6149 28.0137
L33.5826 28.0137
" />
<path d="M33.0987 28.4975
L33.0987 27.5299
" />
</g></g>
<g style="fill:none; 
stroke:#A90000; stroke-width:0.1524; stroke-opacity:1; 
stroke-linecap:round; stroke-linejoin:round;">
<text x="37.0332" y="27.6640"
textLength="1.4127" font-size="1.6933" lengthAdjust="spacingAndGlyphs"
text-anchor="middle" opacity="0" stroke-opacity="0">2</text>
<g class="stroked-text"><desc>2</desc>
<path d="M36.6704 26.3515
L36.7308 26.2910
" />
<path d="M36.7308 26.2910
L36.8518 26.2305
" />
<path d="M36.8518 26.2305
L37.1542 26.2305
" />
<path d="M37.1542 26.2305
L37.2751 26.2910
" />
<path d="M37.2751 26.2910
L37.3356 26.3515
" />
<path d="M37.3356 26.3515
L37.3961 26.4724
" />
<path d="M37.3961 26.4724
L37.3961 26.5934
" />
<path d="M37.3961 26.5934
L37.3356 26.7748
" />
<path d="M37.3356 26.7748
L36.6099 27.5005
" />
<path d="M36.6099 27.5005
L37.3961 27.5005
" />
</g></g>
<g style="fill:none; 
stroke:#840000; stroke-width:0.1524; stroke-opacity:1; 
stroke-linecap:round; stroke-linejoin:round;">
<path d="M9.0932 12.6780
L4.0132 12.6780
" />
</g>
<g style="fill:none; 
stroke:#006464; stroke-width:0.1524; stroke-opacity:1; 
stroke-linecap:round; stroke-linejoin:round;">
<text x="9.6012" y="13.3130"
textLength="3.2271" font-size="1.6933" lengthAdjust="spacingAndGlyphs"
text-anchor="start" opacity="0" stroke-opacity="0">VIN</text>
<g class="stroked-text"><desc>VIN</desc>
<path d="M9.8223 11.9875
L10.2456 13.2575
" />
<path d="M10.2456 13.2575
L10.6690 11.9875
" />
<path d="M11.0923 13.2575
L11.0923 11.9875
" />
<path d="M11.6971 13.2575
L11.6971 11.9875
" />
<path d="M11.6971 11.9875
L12.4228 13.2575
" />
<path d="M12.4228 13.2575
L12.4228 11.9875
" />
</g></g>
<g style="fill:none; 
stroke:#A90000; stroke-width:0.1524; stroke-opacity:1; 
stroke-linecap:round; stroke-linejoin:round;">
<text x="6.5532" y="12.4240"
textLength="1.4127" font-size="1.6933" lengthAdjust="spacingAndGlyphs"
text-anchor="middle" opacity="0" stroke-opacity="0">3</text>
<g class="stroked-text"><desc>3</desc>
<path d="M6.1299 10.9905
L6.9161 10.9905
" />
<path d="M6.9161 10.9905
L6.4927 11.4743
" />
<path d="M6.4927 11.4743
L6.6742 11.4743
" />
<path d="M6.6742 11.4743
L6.7951 11.5348
" />
<path d="M6.7951 11.5348
L6.8556 11.5953
" />
<path d="M6.8556 11.5953
L6.9161 11.7162
" />
<path d="M6.9161 11.7162
L6.9161 12.0186
" />
<path d="M6.9161 12.0186
L6.8556 12.1396
" />
<path d="M6.8556 12.1396
L6.7951 12.2001
" />
<path d="M6.7951 12.2001
L6.6742 12.2605
" />
<path d="M6.6742 12.2605
L6.3113 12.2605
" />
<path d="M6.3113 12.2605
L6.1904 12.2001
" />
<path d="M6.1904 12.2001
L6.1299 12.1396
" />
</g></g>
<g style="fill:none; 
stroke:#840000; stroke-width:0.1524; stroke-opacity:1; 
stroke-linecap:round; stroke-linejoin:round;">
<path d="M34.4932 63.4780
L39.5732 63.4780
" />
</g>
<g style="fill:none; 
stroke:#006464; stroke-width:0.1524; stroke-opacity:1; 
stroke-linecap:round; stroke-linejoin:round;">
<text x="33.9852" y="64.1130"
textLength="4.0737" font-size="1.6933" lengthAdjust="spacingAndGlyphs"
text-anchor="end" opacity="0" stroke-opacity="0">GND</text>
<g class="stroked-text"><desc>GND</desc>
<path d="M30.9821 62.8480
L30.8611 62.7875
" />
<path d="M30.8611 62.7875
L30.6797 62.7875
" />
<path d="M30.6797 62.7875
L30.4983 62.8480
" />
<path d="M30.4983 62.8480
L30.3773 62.9690
" />
<path d="M30.3773 62.9690
L30.3168 63.0899
" />
<path d="M30.3168 63.0899
L30.2564 63.3318
" />
<path d="M30.2564 63.3318
L30.2564 63.5132
" />
<path d="M30.2564 63.5132
L30.3168 63.7551
" />
<path d="M30.3168 63.7551
L30.3773 63.8761
" />
<path d="M30.3773 63.8761
L30.4983 63.9971
" />
<path d="M30.4983 63.9971
L30.6797 64.0575
" />
<path d="M30.6797 64.0575
L30.8006 64.0575
" />
<path d="M30.8006 64.0575
L30.9821 63.9971
" />
<path d="M30.9821 63.9971
L31.0425 63.9366
" />
<path d="M31.0425 63.9366
L31.0425 63.5132
" />
<path d="M31.0425 63.5132
L30.8006 63.5132
" />
<path d="M31.5868 64.0575
L31.5868 62.7875
" />
<path d="M31.5868 62.7875
L32.3125 64.0575
" />
<path d="M32.3125 64.0575
L32.3125 62.7875
" />
<path d="M32.9173 64.0575
L32.9173 62.7875
" />
<path d="M32.9173 62.7875
L33.2197 62.7875
" />
<path d="M33.2197 62.7875
L33.4011 62.8480
" />
<path d="M33.4011 62.8480
L33.5221 62.9690
" />
<path d="M33.5221 62.9690
L33.5826 63.0899
" />
<path d="M33.5826 63.0899
L33.6430 63.3318
" />
<path d="M33.6430 63.3318
L33.6430 63.5132
" />
<path d="M33.6430 63.5132
L33.5826 63.7551
" />
<path d="M33.5826 63.7551
L33.5221 63.8761
" />
<path d="M33.5221 63.8761
L33.4011 63.9971
" />
<path d="M33.4011 63.9971
L33.2197 64.0575
" />
<path d="M33.2197 64.0575
L32.9173 64.0575
" />
</g></g>
<g style="fill:none; 
stroke:#A90000; stroke-width:0.1524; stroke-opacity:1; 
stroke-linecap:round; stroke-linejoin:round;">
<text x="37.0332" y="63.2240"
textLength="1.4127" font-size="1.6933" lengthAdjust="spacingAndGlyphs"
text-anchor="middle" opacity="0" stroke-opacity="0">4</text>
<g class="stroked-text"><desc>4</desc>
<path d="M37.2751 62.2139
L37.2751 63.0605
" />
<path d="M36.9727 61.7301
L36.6704 62.6372
" />
<path d="M36.6704 62.6372
L37.4565 62.6372
" />
</g></g>
<g style="fill:none; 
stroke:#840000; stroke-width:0.1524; stroke-opacity:1; 
stroke-linecap:round; stroke-linejoin:round;">
<path d="M34.4932 12.6780
L39.5732 12.6780
" />
</g>
<g style="fill:none; 
stroke:#006464; stroke-width:0.1524; stroke-opacity:1; 
stroke-linecap:round; stroke-linejoin:round;">
<text x="33.9852" y="13.3130"
textLength="6.3718" font-size="1.6933" lengthAdjust="spacingAndGlyphs"
text-anchor="end" opacity="0" stroke-opacity="0">CPOUT</text>
<g class="stroked-text"><desc>CPOUT</desc>
<path d="M28.7444 13.1366
L28.6840 13.1971
" />
<path d="M28.6840 13.1971
L28.5025 13.2575
" />
<path d="M28.5025 13.2575
L28.3816 13.2575
" />
<path d="M28.3816 13.2575
L28.2002 13.1971
" />
<path d="M28.2002 13.1971
L28.0792 13.0761
" />
<path d="M28.0792 13.0761
L28.0187 12.9551
" />
<path d="M28.0187 12.9551
L27.9583 12.7132
" />
<path d="M27.9583 12.7132
L27.9583 12.5318
" />
<path d="M27.9583 12.5318
L28.0187 12.2899
" />
<path d="M28.0187 12.2899
L28.0792 12.1690
" />
<path d="M28.0792 12.1690
L28.2002 12.0480
" />
<path d="M28.2002 12.0480
L28.3816 11.9875
" />
<path d="M28.3816 11.9875
L28.5025 11.9875
" />
<path d="M28.5025 11.9875
L28.6840 12.0480
" />
<path d="M28.6840 12.0480
L28.7444 12.1085
" />
<path d="M29.2887 13.2575
L29.2887 11.9875
" />
<path d="M29.2887 11.9875
L29.7725 11.9875
" />
<path d="M29.7725 11.9875
L29.8935 12.0480
" />
<path d="M29.8935 12.0480
L29.9540 12.1085
" />
<path d="M29.9540 12.1085
L30.0144 12.2294
" />
<path d="M30.0144 12.2294
L30.0144 12.4109
" />
<path d="M30.0144 12.4109
L29.9540 12.5318
" />
<path d="M29.9540 12.5318
L29.8935 12.5923
" />
<path d="M29.8935 12.5923
L29.7725 12.6528
" />
<path d="M29.7725 12.6528
L29.2887 12.6528
" />
<path d="M30.8006 11.9875
L31.0425 11.9875
" />
<path d="M31.0425 11.9875
L31.1635 12.0480
" />
<path d="M31.1635 12.0480
L31.2844 12.1690
" />
<path d="M31.2844 12.1690
L31.3449 12.4109
" />
<path d="M31.3449 12.4109
L31.3449 12.8342
" />
<path d="M31.3449 12.8342
L31.2844 13.0761
" />
<path d="M31.2844 13.0761
L31.1635 13.1971
" />
<path d="M31.1635 13.1971
L31.0425 13.2575
" />
<path d="M31.0425 13.2575
L30.8006 13.2575
" />
<path d="M30.8006 13.2575
L30.6797 13.1971
" />
<path d="M30.6797 13.1971
L30.5587 13.0761
" />
<path d="M30.5587 13.0761
L30.4983 12.8342
" />
<path d="M30.4983 12.8342
L30.4983 12.4109
" />
<path d="M30.4983 12.4109
L30.5587 12.1690
" />
<path d="M30.5587 12.1690
L30.6797 12.0480
" />
<path d="M30.6797 12.0480
L30.8006 11.9875
" />
<path d="M31.8892 11.9875
L31.8892 13.0156
" />
<path d="M31.8892 13.0156
L31.9497 13.1366
" />
<path d="M31.9497 13.1366
L32.0102 13.1971
" />
<path d="M32.0102 13.1971
L32.1311 13.2575
" />
<path d="M32.1311 13.2575
L32.3730 13.2575
" />
<path d="M32.3730 13.2575
L32.4940 13.1971
" />
<path d="M32.4940 13.1971
L32.5545 13.1366
" />
<path d="M32.5545 13.1366
L32.6149 13.0156
" />
<path d="M32.6149 13.0156
L32.6149 11.9875
" />
<path d="M33.0383 11.9875
L33.7640 11.9875
" />
<path d="M33.4012 13.2575
L33.4012 11.9875
" />
</g></g>
<g style="fill:none; 
stroke:#A90000; stroke-width:0.1524; stroke-opacity:1; 
stroke-linecap:round; stroke-linejoin:round;">
<text x="37.0332" y="12.4240"
textLength="1.4127" font-size="1.6933" lengthAdjust="spacingAndGlyphs"
text-anchor="middle" opacity="0" stroke-opacity="0">5</text>
<g class="stroked-text"><desc>5</desc>
<path d="M37.3356 10.9905
L36.7308 10.9905
" />
<path d="M36.7308 10.9905
L36.6704 11.5953
" />
<path d="M36.6704 11.5953
L36.7308 11.5348
" />
<path d="M36.7308 11.5348
L36.8518 11.4743
" />
<path d="M36.8518 11.4743
L37.1542 11.4743
" />
<path d="M37.1542 11.4743
L37.2751 11.5348
" />
<path d="M37.2751 11.5348
L37.3356 11.5953
" />
<path d="M37.3356 11.5953
L37.3961 11.7162
" />
<path d="M37.3961 11.7162
L37.3961 12.0186
" />
<path d="M37.3961 12.0186
L37.3356 12.1396
" />
<path d="M37.3356 12.1396
L37.2751 12.2001
" />
<path d="M37.2751 12.2001
L37.1542 12.2605
" />
<path d="M37.1542 12.2605
L36.8518 12.2605
" />
<path d="M36.8518 12.2605
L36.7308 12.2001
" />
<path d="M36.7308 12.2001
L36.6704 12.1396
" />
</g></g>
<g style="fill:none; 
stroke:#840000; stroke-width:0.1524; stroke-opacity:1; 
stroke-linecap:round; stroke-linejoin:round;">
<path d="M34.4932 58.3980
L39.5732 58.3980
" />
</g>
<g style="fill:none; 
stroke:#006464; stroke-width:0.1524; stroke-opacity:1; 
stroke-linecap:round; stroke-linejoin:round;">
<text x="33.9852" y="59.0330"
textLength="5.4042" font-size="1.6933" lengthAdjust="spacingAndGlyphs"
text-anchor="end" opacity="0" stroke-opacity="0">OUT-</text>
<g class="stroked-text"><desc>OUT-</desc>
<path d="M29.2282 57.7075
L29.4701 57.7075
" />
<path d="M29.4701 57.7075
L29.5911 57.7680
" />
<path d="M29.5911 57.7680
L29.7120 57.8890
" />
<path d="M29.7120 57.8890
L29.7725 58.1309
" />
<path d="M29.7725 58.1309
L29.7725 58.5542
" />
<path d="M29.7725 58.5542
L29.7120 58.7961
" />
<path d="M29.7120 58.7961
L29.5911 58.9171
" />
<path d="M29.5911 58.9171
L29.4701 58.9775
" />
<path d="M29.4701 58.9775
L29.2282 58.9775
" />
<path d="M29.2282 58.9775
L29.1073 58.9171
" />
<path d="M29.1073 58.9171
L28.9863 58.7961
" />
<path d="M28.9863 58.7961
L28.9259 58.5542
" />
<path d="M28.9259 58.5542
L28.9259 58.1309
" />
<path d="M28.9259 58.1309
L28.9863 57.8890
" />
<path d="M28.9863 57.8890
L29.1073 57.7680
" />
<path d="M29.1073 57.7680
L29.2282 57.7075
" />
<path d="M30.3168 57.7075
L30.3168 58.7356
" />
<path d="M30.3168 58.7356
L30.3773 58.8566
" />
<path d="M30.3773 58.8566
L30.4378 58.9171
" />
<path d="M30.4378 58.9171
L30.5587 58.9775
" />
<path d="M30.5587 58.9775
L30.8006 58.9775
" />
<path d="M30.8006 58.9775
L30.9216 58.9171
" />
<path d="M30.9216 58.9171
L30.9821 58.8566
" />
<path d="M30.9821 58.8566
L31.0425 58.7356
" />
<path d="M31.0425 58.7356
L31.0425 57.7075
" />
<path d="M31.4659 57.7075
L32.1916 57.7075
" />
<path d="M31.8288 58.9775
L31.8288 57.7075
" />
<path d="M32.6149 58.4937
L33.5826 58.4937
" />
</g></g>
<g style="fill:none; 
stroke:#A90000; stroke-width:0.1524; stroke-opacity:1; 
stroke-linecap:round; stroke-linejoin:round;">
<text x="37.0332" y="58.1440"
textLength="1.4127" font-size="1.6933" lengthAdjust="spacingAndGlyphs"
text-anchor="middle" opacity="0" stroke-opacity="0">6</text>
<g class="stroked-text"><desc>6</desc>
<path d="M37.2751 56.7105
L37.0332 56.7105
" />
<path d="M37.0332 56.7105
L36.9123 56.7710
" />
<path d="M36.9123 56.7710
L36.8518 56.8315
" />
<path d="M36.8518 56.8315
L36.7308 57.0129
" />
<path d="M36.7308 57.0129
L36.6704 57.2548
" />
<path d="M36.6704 57.2548
L36.6704 57.7386
" />
<path d="M36.6704 57.7386
L36.7308 57.8596
" />
<path d="M36.7308 57.8596
L36.7913 57.9201
" />
<path d="M36.7913 57.9201
L36.9123 57.9805
" />
<path d="M36.9123 57.9805
L37.1542 57.9805
" />
<path d="M37.1542 57.9805
L37.2751 57.9201
" />
<path d="M37.2751 57.9201
L37.3356 57.8596
" />
<path d="M37.3356 57.8596
L37.3961 57.7386
" />
<path d="M37.3961 57.7386
L37.3961 57.4362
" />
<path d="M37.3961 57.4362
L37.3356 57.3153
" />
<path d="M37.3356 57.3153
L37.2751 57.2548
" />
<path d="M37.2751 57.2548
L37.1542 57.1943
" />
<path d="M37.1542 57.1943
L36.9123 57.1943
" />
<path d="M36.9123 57.1943
L36.7913 57.2548
" />
<path d="M36.7913 57.2548
L36.7308 57.3153
" />
<path d="M36.7308 57.3153
L36.6704 57.4362
" />
</g></g>
<g style="fill:none; 
stroke:#840000; stroke-width:0.1524; stroke-opacity:1; 
stroke-linecap:round; stroke-linejoin:round;">
<path d="M34.4932 48.2380
L39.5732 48.2380
" />
</g>
<g style="fill:none; 
stroke:#006464; stroke-width:0.1524; stroke-opacity:1; 
stroke-linecap:round; stroke-linejoin:round;">
<text x="33.9852" y="48.8730"
textLength="4.1342" font-size="1.6933" lengthAdjust="spacingAndGlyphs"
text-anchor="end" opacity="0" stroke-opacity="0">FB-</text>
<g class="stroked-text"><desc>FB-</desc>
<path d="M30.6797 48.1523
L30.2563 48.1523
" />
<path d="M30.2563 48.8175
L30.2563 47.5475
" />
<path d="M30.2563 47.5475
L30.8611 47.5475
" />
<path d="M31.7683 48.1523
L31.9497 48.2128
" />
<path d="M31.9497 48.2128
L32.0102 48.2732
" />
<path d="M32.0102 48.2732
L32.0706 48.3942
" />
<path d="M32.0706 48.3942
L32.0706 48.5756
" />
<path d="M32.0706 48.5756
L32.0102 48.6966
" />
<path d="M32.0102 48.6966
L31.9497 48.7571
" />
<path d="M31.9497 48.7571
L31.8287 48.8175
" />
<path d="M31.8287 48.8175
L31.3449 48.8175
" />
<path d="M31.3449 48.8175
L31.3449 47.5475
" />
<path d="M31.3449 47.5475
L31.7683 47.5475
" />
<path d="M31.7683 47.5475
L31.8892 47.6080
" />
<path d="M31.8892 47.6080
L31.9497 47.6685
" />
<path d="M31.9497 47.6685
L32.0102 47.7894
" />
<path d="M32.0102 47.7894
L32.0102 47.9104
" />
<path d="M32.0102 47.9104
L31.9497 48.0313
" />
<path d="M31.9497 48.0313
L31.8892 48.0918
" />
<path d="M31.8892 48.0918
L31.7683 48.1523
" />
<path d="M31.7683 48.1523
L31.3449 48.1523
" />
<path d="M32.6149 48.3337
L33.5826 48.3337
" />
</g></g>
<g style="fill:none; 
stroke:#A90000; stroke-width:0.1524; stroke-opacity:1; 
stroke-linecap:round; stroke-linejoin:round;">
<text x="37.0332" y="47.9840"
textLength="1.4127" font-size="1.6933" lengthAdjust="spacingAndGlyphs"
text-anchor="middle" opacity="0" stroke-opacity="0">7</text>
<g class="stroked-text"><desc>7</desc>
<path d="M36.6099 46.5505
L37.4565 46.5505
" />
<path d="M37.4565 46.5505
L36.9123 47.8205
" />
</g></g>
<g style="fill:none; 
stroke:#840000; stroke-width:0.1524; stroke-opacity:1; 
stroke-linecap:round; stroke-linejoin:round;">
<path d="M9.0932 55.8580
L4.0132 55.8580
" />
</g>
<g style="fill:none; 
stroke:#006464; stroke-width:0.1524; stroke-opacity:1; 
stroke-linecap:round; stroke-linejoin:round;">
<text x="9.6012" y="56.4930"
textLength="4.2551" font-size="1.6933" lengthAdjust="spacingAndGlyphs"
text-anchor="start" opacity="0" stroke-opacity="0">EN-</text>
<g class="stroked-text"><desc>EN-</desc>
<path d="M10.0037 55.7723
L10.4271 55.7723
" />
<path d="M10.6085 56.4375
L10.0037 56.4375
" />
<path d="M10.0037 56.4375
L10.0037 55.1675
" />
<path d="M10.0037 55.1675
L10.6085 55.1675
" />
<path d="M11.1527 56.4375
L11.1527 55.1675
" />
<path d="M11.1527 55.1675
L11.8784 56.4375
" />
<path d="M11.8784 56.4375
L11.8784 55.1675
" />
<path d="M12.4832 55.9537
L13.4509 55.9537
" />
</g></g>
<g style="fill:none; 
stroke:#A90000; stroke-width:0.1524; stroke-opacity:1; 
stroke-linecap:round; stroke-linejoin:round;">
<text x="6.5532" y="55.6040"
textLength="1.4127" font-size="1.6933" lengthAdjust="spacingAndGlyphs"
text-anchor="middle" opacity="0" stroke-opacity="0">8</text>
<g class="stroked-text"><desc>8</desc>
<path d="M6.4323 54.7148
L6.3113 54.6543
" />
<path d="M6.3113 54.6543
L6.2508 54.5939
" />
<path d="M6.2508 54.5939
L6.1904 54.4729
" />
<path d="M6.1904 54.4729
L6.1904 54.4124
" />
<path d="M6.1904 54.4124
L6.2508 54.2915
" />
<path d="M6.2508 54.2915
L6.3113 54.2310
" />
<path d="M6.3113 54.2310
L6.4323 54.1705
" />
<path d="M6.4323 54.1705
L6.6742 54.1705
" />
<path d="M6.6742 54.1705
L6.7951 54.2310
" />
<path d="M6.7951 54.2310
L6.8556 54.2915
" />
<path d="M6.8556 54.2915
L6.9161 54.4124
" />
<path d="M6.9161 54.4124
L6.9161 54.4729
" />
<path d="M6.9161 54.4729
L6.8556 54.5939
" />
<path d="M6.8556 54.5939
L6.7951 54.6543
" />
<path d="M6.7951 54.6543
L6.6742 54.7148
" />
<path d="M6.6742 54.7148
L6.4323 54.7148
" />
<path d="M6.4323 54.7148
L6.3113 54.7753
" />
<path d="M6.3113 54.7753
L6.2508 54.8358
" />
<path d="M6.2508 54.8358
L6.1904 54.9567
" />
<path d="M6.1904 54.9567
L6.1904 55.1986
" />
<path d="M6.1904 55.1986
L6.2508 55.3196
" />
<path d="M6.2508 55.3196
L6.3113 55.3801
" />
<path d="M6.3113 55.3801
L6.4323 55.4405
" />
<path d="M6.4323 55.4405
L6.6742 55.4405
" />
<path d="M6.6742 55.4405
L6.7951 55.3801
" />
<path d="M6.7951 55.3801
L6.8556 55.3196
" />
<path d="M6.8556 55.3196
L6.9161 55.1986
" />
<path d="M6.9161 55.1986
L6.9161 54.9567
" />
<path d="M6.9161 54.9567
L6.8556 54.8358
" />
<path d="M6.8556 54.8358
L6.7951 54.7753
" />
<path d="M6.7951 54.7753
L6.6742 54.7148
" />
</g></g>
<g style="fill:none; 
stroke:#840000; stroke-width:0.1524; stroke-opacity:1; 
stroke-linecap:round; stroke-linejoin:round;">
<path d="M9.0932 20.2980
L4.0132 20.2980
" />
</g>
<g style="fill:none; 
stroke:#006464; stroke-width:0.1524; stroke-opacity:1; 
stroke-linecap:round; stroke-linejoin:round;">
<text x="9.6012" y="20.9330"
textLength="4.2551" font-size="1.6933" lengthAdjust="spacingAndGlyphs"
text-anchor="start" opacity="0" stroke-opacity="0">C1-</text>
<g class="stroked-text"><desc>C1-</desc>
<path d="M10.7294 20.7566
L10.6690 20.8171
" />
<path d="M10.6690 20.8171
L10.4875 20.8775
" />
<path d="M10.4875 20.8775
L10.3666 20.8775
" />
<path d="M10.3666 20.8775
L10.1852 20.8171
" />
<path d="M10.1852 20.8171
L10.0642 20.6961
" />
<path d="M10.0642 20.6961
L10.0037 20.5751
" />
<path d="M10.0037 20.5751
L9.9433 20.3332
" />
<path d="M9.9433 20.3332
L9.9433 20.1518
" />
<path d="M9.9433 20.1518
L10.0037 19.9099
" />
<path d="M10.0037 19.9099
L10.0642 19.7890
" />
<path d="M10.0642 19.7890
L10.1852 19.6680
" />
<path d="M10.1852 19.6680
L10.3666 19.6075
" />
<path d="M10.3666 19.6075
L10.4875 19.6075
" />
<path d="M10.4875 19.6075
L10.6690 19.6680
" />
<path d="M10.6690 19.6680
L10.7294 19.7285
" />
<path d="M11.9390 20.8775
L11.2133 20.8775
" />
<path d="M11.5761 20.8775
L11.5761 19.6075
" />
<path d="M11.5761 19.6075
L11.4552 19.7890
" />
<path d="M11.4552 19.7890
L11.3342 19.9099
" />
<path d="M11.3342 19.9099
L11.2133 19.9704
" />
<path d="M12.4832 20.3937
L13.4509 20.3937
" />
</g></g>
<g style="fill:none; 
stroke:#A90000; stroke-width:0.1524; stroke-opacity:1; 
stroke-linecap:round; stroke-linejoin:round;">
<text x="6.5532" y="20.0440"
textLength="1.4127" font-size="1.6933" lengthAdjust="spacingAndGlyphs"
text-anchor="middle" opacity="0" stroke-opacity="0">9</text>
<g class="stroked-text"><desc>9</desc>
<path d="M6.3113 19.8805
L6.5532 19.8805
" />
<path d="M6.5532 19.8805
L6.6742 19.8201
" />
<path d="M6.6742 19.8201
L6.7346 19.7596
" />
<path d="M6.7346 19.7596
L6.8556 19.5781
" />
<path d="M6.8556 19.5781
L6.9161 19.3362
" />
<path d="M6.9161 19.3362
L6.9161 18.8524
" />
<path d="M6.9161 18.8524
L6.8556 18.7315
" />
<path d="M6.8556 18.7315
L6.7951 18.6710
" />
<path d="M6.7951 18.6710
L6.6742 18.6105
" />
<path d="M6.6742 18.6105
L6.4323 18.6105
" />
<path d="M6.4323 18.6105
L6.3113 18.6710
" />
<path d="M6.3113 18.6710
L6.2508 18.7315
" />
<path d="M6.2508 18.7315
L6.1904 18.8524
" />
<path d="M6.1904 18.8524
L6.1904 19.1548
" />
<path d="M6.1904 19.1548
L6.2508 19.2758
" />
<path d="M6.2508 19.2758
L6.3113 19.3362
" />
<path d="M6.3113 19.3362
L6.4323 19.3967
" />
<path d="M6.4323 19.3967
L6.6742 19.3967
" />
<path d="M6.6742 19.3967
L6.7951 19.3362
" />
<path d="M6.7951 19.3362
L6.8556 19.2758
" />
<path d="M6.8556 19.2758
L6.9161 19.1548
" />
</g></g>
<g style="fill:none; 
stroke:#840000; stroke-width:0.1524; stroke-opacity:1; 
stroke-linecap:round; stroke-linejoin:round;">
<path d="M9.0932 27.9180
L4.0132 27.9180
" />
</g>
<g style="fill:none; 
stroke:#006464; stroke-width:0.1524; stroke-opacity:1; 
stroke-linecap:round; stroke-linejoin:round;">
<text x="9.6012" y="28.5530"
textLength="4.2551" font-size="1.6933" lengthAdjust="spacingAndGlyphs"
text-anchor="start" opacity="0" stroke-opacity="0">C1+</text>
<g class="stroked-text"><desc>C1+</desc>
<path d="M10.7294 28.3766
L10.6690 28.4371
" />
<path d="M10.6690 28.4371
L10.4875 28.4975
" />
<path d="M10.4875 28.4975
L10.3666 28.4975
" />
<path d="M10.3666 28.4975
L10.1852 28.4371
" />
<path d="M10.1852 28.4371
L10.0642 28.3161
" />
<path d="M10.0642 28.3161
L10.0037 28.1951
" />
<path d="M10.0037 28.1951
L9.9433 27.9532
" />
<path d="M9.9433 27.9532
L9.9433 27.7718
" />
<path d="M9.9433 27.7718
L10.0037 27.5299
" />
<path d="M10.0037 27.5299
L10.0642 27.4090
" />
<path d="M10.0642 27.4090
L10.1852 27.2880
" />
<path d="M10.1852 27.2880
L10.3666 27.2275
" />
<path d="M10.3666 27.2275
L10.4875 27.2275
" />
<path d="M10.4875 27.2275
L10.6690 27.2880
" />
<path d="M10.6690 27.2880
L10.7294 27.3485
" />
<path d="M11.9390 28.4975
L11.2133 28.4975
" />
<path d="M11.5761 28.4975
L11.5761 27.2275
" />
<path d="M11.5761 27.2275
L11.4552 27.4090
" />
<path d="M11.4552 27.4090
L11.3342 27.5299
" />
<path d="M11.3342 27.5299
L11.2133 27.5904
" />
<path d="M12.4832 28.0137
L13.4509 28.0137
" />
<path d="M12.9670 28.4975
L12.9670 27.5299
" />
</g></g>
<g style="fill:none; 
stroke:#A90000; stroke-width:0.1524; stroke-opacity:1; 
stroke-linecap:round; stroke-linejoin:round;">
<text x="6.5532" y="27.6640"
textLength="2.6222" font-size="1.6933" lengthAdjust="spacingAndGlyphs"
text-anchor="middle" opacity="0" stroke-opacity="0">10</text>
<g class="stroked-text"><desc>10</desc>
<path d="M6.3113 27.5005
L5.5856 27.5005
" />
<path d="M5.9484 27.5005
L5.9484 26.2305
" />
<path d="M5.9484 26.2305
L5.8275 26.4120
" />
<path d="M5.8275 26.4120
L5.7065 26.5329
" />
<path d="M5.7065 26.5329
L5.5856 26.5934
" />
<path d="M7.0974 26.2305
L7.2184 26.2305
" />
<path d="M7.2184 26.2305
L7.3393 26.2910
" />
<path d="M7.3393 26.2910
L7.3998 26.3515
" />
<path d="M7.3998 26.3515
L7.4603 26.4724
" />
<path d="M7.4603 26.4724
L7.5208 26.7143
" />
<path d="M7.5208 26.7143
L7.5208 27.0167
" />
<path d="M7.5208 27.0167
L7.4603 27.2586
" />
<path d="M7.4603 27.2586
L7.3998 27.3796
" />
<path d="M7.3998 27.3796
L7.3393 27.4401
" />
<path d="M7.3393 27.4401
L7.2184 27.5005
" />
<path d="M7.2184 27.5005
L7.0974 27.5005
" />
<path d="M7.0974 27.5005
L6.9765 27.4401
" />
<path d="M6.9765 27.4401
L6.9160 27.3796
" />
<path d="M6.9160 27.3796
L6.8555 27.2586
" />
<path d="M6.8555 27.2586
L6.7951 27.0167
" />
<path d="M6.7951 27.0167
L6.7951 26.7143
" />
<path d="M6.7951 26.7143
L6.8555 26.4724
" />
<path d="M6.8555 26.4724
L6.9160 26.3515
" />
<path d="M6.9160 26.3515
L6.9765 26.2910
" />
<path d="M6.9765 26.2910
L7.0974 26.2305
" />
</g></g>
<g style="fill:none; 
stroke:#840000; stroke-width:0.1524; stroke-opacity:1; 
stroke-linecap:round; stroke-linejoin:round;">
<path d="M34.4932 17.7580
L39.5732 17.7580
" />
</g>
<g style="fill:none; 
stroke:#006464; stroke-width:0.1524; stroke-opacity:1; 
stroke-linecap:round; stroke-linejoin:round;">
<text x="33.9852" y="18.3930"
textLength="5.4042" font-size="1.6933" lengthAdjust="spacingAndGlyphs"
text-anchor="end" opacity="0" stroke-opacity="0">OUT+</text>
<g class="stroked-text"><desc>OUT+</desc>
<path d="M29.2282 17.0675
L29.4701 17.0675
" />
<path d="M29.4701 17.0675
L29.5911 17.1280
" />
<path d="M29.5911 17.1280
L29.7120 17.2490
" />
<path d="M29.7120 17.2490
L29.7725 17.4909
" />
<path d="M29.7725 17.4909
L29.7725 17.9142
" />
<path d="M29.7725 17.9142
L29.7120 18.1561
" />
<path d="M29.7120 18.1561
L29.5911 18.2771
" />
<path d="M29.5911 18.2771
L29.4701 18.3375
" />
<path d="M29.4701 18.3375
L29.2282 18.3375
" />
<path d="M29.2282 18.3375
L29.1073 18.2771
" />
<path d="M29.1073 18.2771
L28.9863 18.1561
" />
<path d="M28.9863 18.1561
L28.9259 17.9142
" />
<path d="M28.9259 17.9142
L28.9259 17.4909
" />
<path d="M28.9259 17.4909
L28.9863 17.2490
" />
<path d="M28.9863 17.2490
L29.1073 17.1280
" />
<path d="M29.1073 17.1280
L29.2282 17.0675
" />
<path d="M30.3168 17.0675
L30.3168 18.0956
" />
<path d="M30.3168 18.0956
L30.3773 18.2166
" />
<path d="M30.3773 18.2166
L30.4378 18.2771
" />
<path d="M30.4378 18.2771
L30.5587 18.3375
" />
<path d="M30.5587 18.3375
L30.8006 18.3375
" />
<path d="M30.8006 18.3375
L30.9216 18.2771
" />
<path d="M30.9216 18.2771
L30.9821 18.2166
" />
<path d="M30.9821 18.2166
L31.0425 18.0956
" />
<path d="M31.0425 18.0956
L31.0425 17.0675
" />
<path d="M31.4659 17.0675
L32.1916 17.0675
" />
<path d="M31.8288 18.3375
L31.8288 17.0675
" />
<path d="M32.6149 17.8537
L33.5826 17.8537
" />
<path d="M33.0987 18.3375
L33.0987 17.3699
" />
</g></g>
<g style="fill:none; 
stroke:#A90000; stroke-width:0.1524; stroke-opacity:1; 
stroke-linecap:round; stroke-linejoin:round;">
<text x="37.0332" y="17.5040"
textLength="2.6222" font-size="1.6933" lengthAdjust="spacingAndGlyphs"
text-anchor="middle" opacity="0" stroke-opacity="0">11</text>
<g class="stroked-text"><desc>11</desc>
<path d="M36.7913 17.3405
L36.0656 17.3405
" />
<path d="M36.4284 17.3405
L36.4284 16.0705
" />
<path d="M36.4284 16.0705
L36.3075 16.2520
" />
<path d="M36.3075 16.2520
L36.1865 16.3729
" />
<path d="M36.1865 16.3729
L36.0656 16.4334
" />
<path d="M38.0008 17.3405
L37.2751 17.3405
" />
<path d="M37.6379 17.3405
L37.6379 16.0705
" />
<path d="M37.6379 16.0705
L37.5170 16.2520
" />
<path d="M37.5170 16.2520
L37.3960 16.3729
" />
<path d="M37.3960 16.3729
L37.2751 16.4334
" />
</g></g>
<g style="fill:none; 
stroke:#840000; stroke-width:0.1524; stroke-opacity:1; 
stroke-linecap:round; stroke-linejoin:round;">
<path d="M9.0932 50.7780
L4.0132 50.7780
" />
</g>
<g style="fill:none; 
stroke:#006464; stroke-width:0.1524; stroke-opacity:1; 
stroke-linecap:round; stroke-linejoin:round;">
<text x="9.6012" y="51.4130"
textLength="4.2551" font-size="1.6933" lengthAdjust="spacingAndGlyphs"
text-anchor="start" opacity="0" stroke-opacity="0">EN+</text>
<g class="stroked-text"><desc>EN+</desc>
<path d="M10.0037 50.6923
L10.4271 50.6923
" />
<path d="M10.6085 51.3575
L10.0037 51.3575
" />
<path d="M10.0037 51.3575
L10.0037 50.0875
" />
<path d="M10.0037 50.0875
L10.6085 50.0875
" />
<path d="M11.1527 51.3575
L11.1527 50.0875
" />
<path d="M11.1527 50.0875
L11.8784 51.3575
" />
<path d="M11.8784 51.3575
L11.8784 50.0875
" />
<path d="M12.4832 50.8737
L13.4509 50.8737
" />
<path d="M12.9670 51.3575
L12.9670 50.3899
" />
</g></g>
<g style="fill:none; 
stroke:#A90000; stroke-width:0.1524; stroke-opacity:1; 
stroke-linecap:round; stroke-linejoin:round;">
<text x="6.5532" y="50.5240"
textLength="2.6222" font-size="1.6933" lengthAdjust="spacingAndGlyphs"
text-anchor="middle" opacity="0" stroke-opacity="0">12</text>
<g class="stroked-text"><desc>12</desc>
<path d="M6.3113 50.3605
L5.5856 50.3605
" />
<path d="M5.9484 50.3605
L5.9484 49.0905
" />
<path d="M5.9484 49.0905
L5.8275 49.2720
" />
<path d="M5.8275 49.2720
L5.7065 49.3929
" />
<path d="M5.7065 49.3929
L5.5856 49.4534
" />
<path d="M6.7951 49.2115
L6.8555 49.1510
" />
<path d="M6.8555 49.1510
L6.9765 49.0905
" />
<path d="M6.9765 49.0905
L7.2789 49.0905
" />
<path d="M7.2789 49.0905
L7.3998 49.1510
" />
<path d="M7.3998 49.1510
L7.4603 49.2115
" />
<path d="M7.4603 49.2115
L7.5208 49.3324
" />
<path d="M7.5208 49.3324
L7.5208 49.4534
" />
<path d="M7.5208 49.4534
L7.4603 49.6348
" />
<path d="M7.4603 49.6348
L6.7346 50.3605
" />
<path d="M6.7346 50.3605
L7.5208 50.3605
" />
</g></g>
<g style="fill:none; 
stroke:#840000; stroke-width:0.1524; stroke-opacity:1; 
stroke-linecap:round; stroke-linejoin:round;">
<path d="M34.4932 66.0180
L39.5732 66.0180
" />
</g>
<g style="fill:none; 
stroke:#006464; stroke-width:0.1524; stroke-opacity:1; 
stroke-linecap:round; stroke-linejoin:round;">
<text x="33.9852" y="66.6530"
textLength="3.8318" font-size="1.6933" lengthAdjust="spacingAndGlyphs"
text-anchor="end" opacity="0" stroke-opacity="0">PAD</text>
<g class="stroked-text"><desc>PAD</desc>
<path d="M30.5587 66.5975
L30.5587 65.3275
" />
<path d="M30.5587 65.3275
L31.0425 65.3275
" />
<path d="M31.0425 65.3275
L31.1635 65.3880
" />
<path d="M31.1635 65.3880
L31.2240 65.4485
" />
<path d="M31.2240 65.4485
L31.2844 65.5694
" />
<path d="M31.2844 65.5694
L31.2844 65.7509
" />
<path d="M31.2844 65.7509
L31.2240 65.8718
" />
<path d="M31.2240 65.8718
L31.1635 65.9323
" />
<path d="M31.1635 65.9323
L31.0425 65.9928
" />
<path d="M31.0425 65.9928
L30.5587 65.9928
" />
<path d="M31.7683 66.2347
L32.3730 66.2347
" />
<path d="M31.6473 66.5975
L32.0706 65.3275
" />
<path d="M32.0706 65.3275
L32.4940 66.5975
" />
<path d="M32.9173 66.5975
L32.9173 65.3275
" />
<path d="M32.9173 65.3275
L33.2197 65.3275
" />
<path d="M33.2197 65.3275
L33.4011 65.3880
" />
<path d="M33.4011 65.3880
L33.5221 65.5090
" />
<path d="M33.5221 65.5090
L33.5826 65.6299
" />
<path d="M33.5826 65.6299
L33.6430 65.8718
" />
<path d="M33.6430 65.8718
L33.6430 66.0532
" />
<path d="M33.6430 66.0532
L33.5826 66.2951
" />
<path d="M33.5826 66.2951
L33.5221 66.4161
" />
<path d="M33.5221 66.4161
L33.4011 66.5371
" />
<path d="M33.4011 66.5371
L33.2197 66.5975
" />
<path d="M33.2197 66.5975
L32.9173 66.5975
" />
</g></g>
<g style="fill:none; 
stroke:#A90000; stroke-width:0.1524; stroke-opacity:1; 
stroke-linecap:round; stroke-linejoin:round;">
<text x="37.0332" y="65.7640"
textLength="2.6222" font-size="1.6933" lengthAdjust="spacingAndGlyphs"
text-anchor="middle" opacity="0" stroke-opacity="0">13</text>
<g class="stroked-text"><desc>13</desc>
<path d="M36.7913 65.6005
L36.0656 65.6005
" />
<path d="M36.4284 65.6005
L36.4284 64.3305
" />
<path d="M36.4284 64.3305
L36.3075 64.5120
" />
<path d="M36.3075 64.5120
L36.1865 64.6329
" />
<path d="M36.1865 64.6329
L36.0656 64.6934
" />
<path d="M37.2146 64.3305
L38.0008 64.3305
" />
<path d="M38.0008 64.3305
L37.5774 64.8143
" />
<path d="M37.5774 64.8143
L37.7589 64.8143
" />
<path d="M37.7589 64.8143
L37.8798 64.8748
" />
<path d="M37.8798 64.8748
L37.9403 64.9353
" />
<path d="M37.9403 64.9353
L38.0008 65.0562
" />
<path d="M38.0008 65.0562
L38.0008 65.3586
" />
<path d="M38.0008 65.3586
L37.9403 65.4796
" />
<path d="M37.9403 65.4796
L37.8798 65.5401
" />
<path d="M37.8798 65.5401
L37.7589 65.6005
" />
<path d="M37.7589 65.6005
L37.3960 65.6005
" />
<path d="M37.3960 65.6005
L37.2751 65.5401
" />
<path d="M37.2751 65.5401
L37.2146 65.4796
" />
</g></g>
<g style="fill:none; 
stroke:#006464; stroke-width:0.1524; stroke-opacity:1; 
stroke-linecap:round; stroke-linejoin:round;">
<text x="9.8552" y="8.1060"
textLength="3.0553" font-size="2.0320" lengthAdjust="spacingAndGlyphs"
text-anchor="middle" opacity="0" stroke-opacity="0">U?</text>
<g class="stroked-text"><desc>U?</desc>
<path d="M8.7666 6.5170
L8.7666 7.7507
" />
<path d="M8.7666 7.7507
L8.8392 7.8959
" />
<path d="M8.8392 7.8959
L8.9118 7.9685
" />
<path d="M8.9118 7.9685
L9.0569 8.0410
" />
<path d="M9.0569 8.0410
L9.3472 8.0410
" />
<path d="M9.3472 8.0410
L9.4923 7.9685
" />
<path d="M9.4923 7.9685
L9.5649 7.8959
" />
<path d="M9.5649 7.8959
L9.6375 7.7507
" />
<path d="M9.6375 7.7507
L9.6375 6.5170
" />
<path d="M10.5809 7.8959
L10.6535 7.9685
" />
<path d="M10.6535 7.9685
L10.5809 8.0410
" />
<path d="M10.5809 8.0410
L10.5084 7.9685
" />
<path d="M10.5084 7.9685
L10.5809 7.8959
" />
<path d="M10.5809 7.8959
L10.5809 8.0410
" />
<path d="M10.2906 6.5896
L10.4358 6.5170
" />
<path d="M10.4358 6.5170
L10.7986 6.5170
" />
<path d="M10.7986 6.5170
L10.9438 6.5896
" />
<path d="M10.9438 6.5896
L11.0164 6.7347
" />
<path d="M11.0164 6.7347
L11.0164 6.8799
" />
<path d="M11.0164 6.8799
L10.9438 7.0250
" />
<path d="M10.9438 7.0250
L10.8712 7.0976
" />
<path d="M10.8712 7.0976
L10.7261 7.1702
" />
<path d="M10.7261 7.1702
L10.6535 7.2427
" />
<path d="M10.6535 7.2427
L10.5809 7.3879
" />
<path d="M10.5809 7.3879
L10.5809 7.4605
" />
</g><text x="29.4132" y="8.1060"
textLength="10.3848" font-size="2.0320" lengthAdjust="spacingAndGlyphs"
text-anchor="middle" opacity="0" stroke-opacity="0">LM27762</text>
<g class="stroked-text"><desc>LM27762</desc>
<path d="M25.3855 8.0410
L24.6598 8.0410
" />
<path d="M24.6598 8.0410
L24.6598 6.5170
" />
<path d="M25.8935 8.0410
L25.8935 6.5170
" />
<path d="M25.8935 6.5170
L26.4015 7.6056
" />
<path d="M26.4015 7.6056
L26.9095 6.5170
" />
<path d="M26.9095 6.5170
L26.9095 8.0410
" />
<path d="M27.5626 6.6622
L27.6352 6.5896
" />
<path d="M27.6352 6.5896
L27.7804 6.5170
" />
<path d="M27.7804 6.5170
L28.1432 6.5170
" />
<path d="M28.1432 6.5170
L28.2884 6.5896
" />
<path d="M28.2884 6.5896
L28.3609 6.6622
" />
<path d="M28.3609 6.6622
L28.4335 6.8073
" />
<path d="M28.4335 6.8073
L28.4335 6.9525
" />
<path d="M28.4335 6.9525
L28.3609 7.1702
" />
<path d="M28.3609 7.1702
L27.4901 8.0410
" />
<path d="M27.4901 8.0410
L28.4335 8.0410
" />
<path d="M28.9415 6.5170
L29.9575 6.5170
" />
<path d="M29.9575 6.5170
L29.3043 8.0410
" />
<path d="M30.3929 6.5170
L31.4089 6.5170
" />
<path d="M31.4089 6.5170
L30.7557 8.0410
" />
<path d="M32.6426 6.5170
L32.3523 6.5170
" />
<path d="M32.3523 6.5170
L32.2071 6.5896
" />
<path d="M32.2071 6.5896
L32.1346 6.6622
" />
<path d="M32.1346 6.6622
L31.9894 6.8799
" />
<path d="M31.9894 6.8799
L31.9168 7.1702
" />
<path d="M31.9168 7.1702
L31.9168 7.7507
" />
<path d="M31.9168 7.7507
L31.9894 7.8959
" />
<path d="M31.9894 7.8959
L32.0620 7.9685
" />
<path d="M32.0620 7.9685
L32.2071 8.0410
" />
<path d="M32.2071 8.0410
L32.4974 8.0410
" />
<path d="M32.4974 8.0410
L32.6426 7.9685
" />
<path d="M32.6426 7.9685
L32.7151 7.8959
" />
<path d="M32.7151 7.8959
L32.7877 7.7507
" />
<path d="M32.7877 7.7507
L32.7877 7.3879
" />
<path d="M32.7877 7.3879
L32.7151 7.2427
" />
<path d="M32.7151 7.2427
L32.6426 7.1702
" />
<path d="M32.6426 7.1702
L32.4974 7.0976
" />
<path d="M32.4974 7.0976
L32.2071 7.0976
" />
<path d="M32.2071 7.0976
L32.0620 7.1702
" />
<path d="M32.0620 7.1702
L31.9894 7.2427
" />
<path d="M31.9894 7.2427
L31.9168 7.3879
" />
<path d="M33.3682 6.6622
L33.4408 6.5896
" />
<path d="M33.4408 6.5896
L33.5860 6.5170
" />
<path d="M33.5860 6.5170
L33.9488 6.5170
" />
<path d="M33.9488 6.5170
L34.0940 6.5896
" />
<path d="M34.0940 6.5896
L34.1665 6.6622
" />
<path d="M34.1665 6.6622
L34.2391 6.8073
" />
<path d="M34.2391 6.8073
L34.2391 6.9525
" />
<path d="M34.2391 6.9525
L34.1665 7.1702
" />
<path d="M34.1665 7.1702
L33.2957 8.0410
" />
<path d="M33.2957 8.0410
L34.2391 8.0410
" />
</g></g> 
</svg>
