<?xml version="1.0" standalone="no"?>
 <!DOCTYPE svg PUBLIC "-//W3C//DTD SVG 1.1//EN" 
 "http://www.w3.org/Graphics/SVG/1.1/DTD/svg11.dtd"> 
<svg
  xmlns:svg="http://www.w3.org/2000/svg"
  xmlns="http://www.w3.org/2000/svg"
  xmlns:xlink="http://www.w3.org/1999/xlink"
  xmlns:inkscape="http://www.inkscape.org/namespaces/inkscape"
  version="1.1"
  width="100%" height="100%" viewBox="0.0000 0.0000 43.5864 73.3044">
<title>SVG Image created as LM27762_unit1.svg date 2026-04-16T04:34:54 </title>
  <desc>Image generated by Eeschema-SVG </desc>
<g style="fill:#000000; fill-opacity:1.0000;stroke:#000000; stroke-opacity:1.0000;
stroke-linecap:round; stroke-linejoin:round;"
 transform="translate(0 0) scale(1 1)">
</g>
<g style="fill:#FFFFC2; fill-opacity:1.0000; stroke:none;">
<rect x="9.093200" y="8.651500" width="25.400000" height="58.420000" rx="0.000000" />
</g>
<g style="fill:none; 
stroke:#840000; stroke-width:0.2540; stroke-opacity:1; 
stroke-linecap:round; stroke-linejoin:round;">
<rect x="9.093200" y="8.651500" width="25.400000" height="58.420000" rx="0.000000" />
</g>
<g style="fill:none; 
stroke:#840000; stroke-width:0.1524; stroke-opacity:1; 
stroke-linecap:round; stroke-linejoin:round;">
<path d="M9.0932 35.3215
L4.0132 35.3215
" />
</g>
<g style="fill:none; 
stroke:#006464; stroke-width:0.1524; stroke-opacity:1; 
stroke-linecap:round; stroke-linejoin:round;">
<text x="9.6012" y="35.9565"
textLength="6.6742" font-size="1.6933" lengthAdjust="spacingAndGlyphs"
text-anchor="start" opacity="0" stroke-opacity="0">PGOOD</text>
<g class="stroked-text"><desc>PGOOD</desc>
<path d="M10.0037 35.9010
L10.0037 34.6310
" />
<path d="M10.0037 34.6310
L10.4875 34.6310
" />
<path d="M10.4875 34.6310
L10.6085 34.6915
" />
<path d="M10.6085 34.6915
L10.6690 34.7520
" />
<path d="M10.6690 34.7520
L10.7294 34.8729
" />
<path d="M10.7294 34.8729
L10.7294 35.0544
" />
<path d="M10.7294 35.0544
L10.6690 35.1753
" />
<path d="M10.6690 35.1753
L10.6085 35.2358
" />
<path d="M10.6085 35.2358
L10.4875 35.2963
" />
<path d="M10.4875 35.2963
L10.0037 35.2963
" />
<path d="M11.9390 34.6915
L11.8180 34.6310
" />
<path d="M11.8180 34.6310
L11.6366 34.6310
" />
<path d="M11.6366 34.6310
L11.4552 34.6915
" />
<path d="M11.4552 34.6915
L11.3342 34.8125
" />
<path d="M11.3342 34.8125
L11.2737 34.9334
" />
<path d="M11.2737 34.9334
L11.2133 35.1753
" />
<path d="M11.2133 35.1753
L11.2133 35.3567
" />
<path d="M11.2133 35.3567
L11.2737 35.5986
" />
<path d="M11.2737 35.5986
L11.3342 35.7196
" />
<path d="M11.3342 35.7196
L11.4552 35.8406
" />
<path d="M11.4552 35.8406
L11.6366 35.9010
" />
<path d="M11.6366 35.9010
L11.7575 35.9010
" />
<path d="M11.7575 35.9010
L11.9390 35.8406
" />
<path d="M11.9390 35.8406
L11.9994 35.7801
" />
<path d="M11.9994 35.7801
L11.9994 35.3567
" />
<path d="M11.9994 35.3567
L11.7575 35.3567
" />
<path d="M12.7856 34.6310
L13.0275 34.6310
" />
<path d="M13.0275 34.6310
L13.1485 34.6915
" />
<path d="M13.1485 34.6915
L13.2694 34.8125
" />
<path d="M13.2694 34.8125
L13.3299 35.0544
" />
<path d="M13.3299 35.0544
L13.3299 35.4777
" />
<path d="M13.3299 35.4777
L13.2694 35.7196
" />
<path d="M13.2694 35.7196
L13.1485 35.8406
" />
<path d="M13.1485 35.8406
L13.0275 35.9010
" />
<path d="M13.0275 35.9010
L12.7856 35.9010
" />
<path d="M12.7856 35.9010
L12.6647 35.8406
" />
<path d="M12.6647 35.8406
L12.5437 35.7196
" />
<path d="M12.5437 35.7196
L12.4833 35.4777
" />
<path d="M12.4833 35.4777
L12.4833 35.0544
" />
<path d="M12.4833 35.0544
L12.5437 34.8125
" />
<path d="M12.5437 34.8125
L12.6647 34.6915
" />
<path d="M12.6647 34.6915
L12.7856 34.6310
" />
<path d="M14.1161 34.6310
L14.3580 34.6310
" />
<path d="M14.3580 34.6310
L14.4790 34.6915
" />
<path d="M14.4790 34.6915
L14.5999 34.8125
" />
<path d="M14.5999 34.8125
L14.6604 35.0544
" />
<path d="M14.6604 35.0544
L14.6604 35.4777
" />
<path d="M14.6604 35.4777
L14.5999 35.7196
" />
<path d="M14.5999 35.7196
L14.4790 35.8406
" />
<path d="M14.4790 35.8406
L14.3580 35.9010
" />
<path d="M14.3580 35.9010
L14.1161 35.9010
" />
<path d="M14.1161 35.9010
L13.9952 35.8406
" />
<path d="M13.9952 35.8406
L13.8742 35.7196
" />
<path d="M13.8742 35.7196
L13.8138 35.4777
" />
<path d="M13.8138 35.4777
L13.8138 35.0544
" />
<path d="M13.8138 35.0544
L13.8742 34.8125
" />
<path d="M13.8742 34.8125
L13.9952 34.6915
" />
<path d="M13.9952 34.6915
L14.1161 34.6310
" />
<path d="M15.2047 35.9010
L15.2047 34.6310
" />
<path d="M15.2047 34.6310
L15.5071 34.6310
" />
<path d="M15.5071 34.6310
L15.6885 34.6915
" />
<path d="M15.6885 34.6915
L15.8095 34.8125
" />
<path d="M15.8095 34.8125
L15.8700 34.9334
" />
<path d="M15.8700 34.9334
L15.9304 35.1753
" />
<path d="M15.9304 35.1753
L15.9304 35.3567
" />
<path d="M15.9304 35.3567
L15.8700 35.5986
" />
<path d="M15.8700 35.5986
L15.8095 35.7196
" />
<path d="M15.8095 35.7196
L15.6885 35.8406
" />
<path d="M15.6885 35.8406
L15.5071 35.9010
" />
<path d="M15.5071 35.9010
L15.2047 35.9010
" />
</g></g>
<g style="fill:none; 
stroke:#A90000; stroke-width:0.1524; stroke-opacity:1; 
stroke-linecap:round; stroke-linejoin:round;">
<text x="6.5532" y="35.0675"
textLength="1.4127" font-size="1.6933" lengthAdjust="spacingAndGlyphs"
text-anchor="middle" opacity="0" stroke-opacity="0">1</text>
<g class="stroked-text"><desc>1</desc>
<path d="M6.9161 34.9040
L6.1904 34.9040
" />
<path d="M6.5532 34.9040
L6.5532 33.6340
" />
<path d="M6.5532 33.6340
L6.4323 33.8155
" />
<path d="M6.4323 33.8155
L6.3113 33.9364
" />
<path d="M6.3113 33.9364
L6.1904 33.9969
" />
</g></g>
<g style="fill:none; 
stroke:#840000; stroke-width:0.1524; stroke-opacity:1; 
stroke-linecap:round; stroke-linejoin:round;">
<path d="M34.4932 27.7015
L39.5732 27.7015
" />
</g>
<g style="fill:none; 
stroke:#006464; stroke-width:0.1524; stroke-opacity:1; 
stroke-linecap:round; stroke-linejoin:round;">
<text x="33.9852" y="28.3365"
textLength="4.1342" font-size="1.6933" lengthAdjust="spacingAndGlyphs"
text-anchor="end" opacity="0" stroke-opacity="0">FB+</text>
<g class="stroked-text"><desc>FB+</desc>
<path d="M30.6797 27.6158
L30.2563 27.6158
" />
<path d="M30.2563 28.2810
L30.2563 27.0110
" />
<path d="M30.2563 27.0110
L30.8611 27.0110
" />
<path d="M31.7683 27.6158
L31.9497 27.6763
" />
<path d="M31.9497 27.6763
L32.0102 27.7367
" />
<path d="M32.0102 27.7367
L32.0706 27.8577
" />
<path d="M32.0706 27.8577
L32.0706 28.0391
" />
<path d="M32.0706 28.0391
L32.0102 28.1601
" />
<path d="M32.0102 28.1601
L31.9497 28.2206
" />
<path d="M31.9497 28.2206
L31.8287 28.2810
" />
<path d="M31.8287 28.2810
L31.3449 28.2810
" />
<path d="M31.3449 28.2810
L31.3449 27.0110
" />
<path d="M31.3449 27.0110
L31.7683 27.0110
" />
<path d="M31.7683 27.0110
L31.8892 27.0715
" />
<path d="M31.8892 27.0715
L31.9497 27.1320
" />
<path d="M31.9497 27.1320
L32.0102 27.2529
" />
<path d="M32.0102 27.2529
L32.0102 27.3739
" />
<path d="M32.0102 27.3739
L31.9497 27.4948
" />
<path d="M31.9497 27.4948
L31.8892 27.5553
" />
<path d="M31.8892 27.5553
L31.7683 27.6158
" />
<path d="M31.7683 27.6158
L31.3449 27.6158
" />
<path d="M32.6149 27.7972
L33.5826 27.7972
" />
<path d="M33.0987 28.2810
L33.0987 27.3134
" />
</g></g>
<g style="fill:none; 
stroke:#A90000; stroke-width:0.1524; stroke-opacity:1; 
stroke-linecap:round; stroke-linejoin:round;">
<text x="37.0332" y="27.4475"
textLength="1.4127" font-size="1.6933" lengthAdjust="spacingAndGlyphs"
text-anchor="middle" opacity="0" stroke-opacity="0">2</text>
<g class="stroked-text"><desc>2</desc>
<path d="M36.6704 26.1350
L36.7308 26.0745
" />
<path d="M36.7308 26.0745
L36.8518 26.0140
" />
<path d="M36.8518 26.0140
L37.1542 26.0140
" />
<path d="M37.1542 26.0140
L37.2751 26.0745
" />
<path d="M37.2751 26.0745
L37.3356 26.1350
" />
<path d="M37.3356 26.1350
L37.3961 26.2559
" />
<path d="M37.3961 26.2559
L37.3961 26.3769
" />
<path d="M37.3961 26.3769
L37.3356 26.5583
" />
<path d="M37.3356 26.5583
L36.6099 27.2840
" />
<path d="M36.6099 27.2840
L37.3961 27.2840
" />
</g></g>
<g style="fill:none; 
stroke:#840000; stroke-width:0.1524; stroke-opacity:1; 
stroke-linecap:round; stroke-linejoin:round;">
<path d="M9.0932 12.4615
L4.0132 12.4615
" />
</g>
<g style="fill:none; 
stroke:#006464; stroke-width:0.1524; stroke-opacity:1; 
stroke-linecap:round; stroke-linejoin:round;">
<text x="9.6012" y="13.0965"
textLength="3.2271" font-size="1.6933" lengthAdjust="spacingAndGlyphs"
text-anchor="start" opacity="0" stroke-opacity="0">VIN</text>
<g class="stroked-text"><desc>VIN</desc>
<path d="M9.8223 11.7710
L10.2456 13.0410
" />
<path d="M10.2456 13.0410
L10.6690 11.7710
" />
<path d="M11.0923 13.0410
L11.0923 11.7710
" />
<path d="M11.6971 13.0410
L11.6971 11.7710
" />
<path d="M11.6971 11.7710
L12.4228 13.0410
" />
<path d="M12.4228 13.0410
L12.4228 11.7710
" />
</g></g>
<g style="fill:none; 
stroke:#A90000; stroke-width:0.1524; stroke-opacity:1; 
stroke-linecap:round; stroke-linejoin:round;">
<text x="6.5532" y="12.2075"
textLength="1.4127" font-size="1.6933" lengthAdjust="spacingAndGlyphs"
text-anchor="middle" opacity="0" stroke-opacity="0">3</text>
<g class="stroked-text"><desc>3</desc>
<path d="M6.1299 10.7740
L6.9161 10.7740
" />
<path d="M6.9161 10.7740
L6.4927 11.2578
" />
<path d="M6.4927 11.2578
L6.6742 11.2578
" />
<path d="M6.6742 11.2578
L6.7951 11.3183
" />
<path d="M6.7951 11.3183
L6.8556 11.3788
" />
<path d="M6.8556 11.3788
L6.9161 11.4997
" />
<path d="M6.9161 11.4997
L6.9161 11.8021
" />
<path d="M6.9161 11.8021
L6.8556 11.9231
" />
<path d="M6.8556 11.9231
L6.7951 11.9836
" />
<path d="M6.7951 11.9836
L6.6742 12.0440
" />
<path d="M6.6742 12.0440
L6.3113 12.0440
" />
<path d="M6.3113 12.0440
L6.1904 11.9836
" />
<path d="M6.1904 11.9836
L6.1299 11.9231
" />
</g></g>
<g style="fill:none; 
stroke:#840000; stroke-width:0.1524; stroke-opacity:1; 
stroke-linecap:round; stroke-linejoin:round;">
<path d="M34.4932 63.2615
L39.5732 63.2615
" />
</g>
<g style="fill:none; 
stroke:#006464; stroke-width:0.1524; stroke-opacity:1; 
stroke-linecap:round; stroke-linejoin:round;">
<text x="33.9852" y="63.8965"
textLength="4.0737" font-size="1.6933" lengthAdjust="spacingAndGlyphs"
text-anchor="end" opacity="0" stroke-opacity="0">GND</text>
<g class="stroked-text"><desc>GND</desc>
<path d="M30.9821 62.6315
L30.8611 62.5710
" />
<path d="M30.8611 62.5710
L30.6797 62.5710
" />
<path d="M30.6797 62.5710
L30.4983 62.6315
" />
<path d="M30.4983 62.6315
L30.3773 62.7525
" />
<path d="M30.3773 62.7525
L30.3168 62.8734
" />
<path d="M30.3168 62.8734
L30.2564 63.1153
" />
<path d="M30.2564 63.1153
L30.2564 63.2967
" />
<path d="M30.2564 63.2967
L30.3168 63.5386
" />
<path d="M30.3168 63.5386
L30.3773 63.6596
" />
<path d="M30.3773 63.6596
L30.4983 63.7806
" />
<path d="M30.4983 63.7806
L30.6797 63.8410
" />
<path d="M30.6797 63.8410
L30.8006 63.8410
" />
<path d="M30.8006 63.8410
L30.9821 63.7806
" />
<path d="M30.9821 63.7806
L31.0425 63.7201
" />
<path d="M31.0425 63.7201
L31.0425 63.2967
" />
<path d="M31.0425 63.2967
L30.8006 63.2967
" />
<path d="M31.5868 63.8410
L31.5868 62.5710
" />
<path d="M31.5868 62.5710
L32.3125 63.8410
" />
<path d="M32.3125 63.8410
L32.3125 62.5710
" />
<path d="M32.9173 63.8410
L32.9173 62.5710
" />
<path d="M32.9173 62.5710
L33.2197 62.5710
" />
<path d="M33.2197 62.5710
L33.4011 62.6315
" />
<path d="M33.4011 62.6315
L33.5221 62.7525
" />
<path d="M33.5221 62.7525
L33.5826 62.8734
" />
<path d="M33.5826 62.8734
L33.6430 63.1153
" />
<path d="M33.6430 63.1153
L33.6430 63.2967
" />
<path d="M33.6430 63.2967
L33.5826 63.5386
" />
<path d="M33.5826 63.5386
L33.5221 63.6596
" />
<path d="M33.5221 63.6596
L33.4011 63.7806
" />
<path d="M33.4011 63.7806
L33.2197 63.8410
" />
<path d="M33.2197 63.8410
L32.9173 63.8410
" />
</g></g>
<g style="fill:none; 
stroke:#A90000; stroke-width:0.1524; stroke-opacity:1; 
stroke-linecap:round; stroke-linejoin:round;">
<text x="37.0332" y="63.0075"
textLength="1.4127" font-size="1.6933" lengthAdjust="spacingAndGlyphs"
text-anchor="middle" opacity="0" stroke-opacity="0">4</text>
<g class="stroked-text"><desc>4</desc>
<path d="M37.2751 61.9974
L37.2751 62.8440
" />
<path d="M36.9727 61.5136
L36.6704 62.4207
" />
<path d="M36.6704 62.4207
L37.4565 62.4207
" />
</g></g>
<g style="fill:none; 
stroke:#840000; stroke-width:0.1524; stroke-opacity:1; 
stroke-linecap:round; stroke-linejoin:round;">
<path d="M34.4932 12.4615
L39.5732 12.4615
" />
</g>
<g style="fill:none; 
stroke:#006464; stroke-width:0.1524; stroke-opacity:1; 
stroke-linecap:round; stroke-linejoin:round;">
<text x="33.9852" y="13.0965"
textLength="6.3718" font-size="1.6933" lengthAdjust="spacingAndGlyphs"
text-anchor="end" opacity="0" stroke-opacity="0">CPOUT</text>
<g class="stroked-text"><desc>CPOUT</desc>
<path d="M28.7444 12.9201
L28.6840 12.9806
" />
<path d="M28.6840 12.9806
L28.5025 13.0410
" />
<path d="M28.5025 13.0410
L28.3816 13.0410
" />
<path d="M28.3816 13.0410
L28.2002 12.9806
" />
<path d="M28.2002 12.9806
L28.0792 12.8596
" />
<path d="M28.0792 12.8596
L28.0187 12.7386
" />
<path d="M28.0187 12.7386
L27.9583 12.4967
" />
<path d="M27.9583 12.4967
L27.9583 12.3153
" />
<path d="M27.9583 12.3153
L28.0187 12.0734
" />
<path d="M28.0187 12.0734
L28.0792 11.9525
" />
<path d="M28.0792 11.9525
L28.2002 11.8315
" />
<path d="M28.2002 11.8315
L28.3816 11.7710
" />
<path d="M28.3816 11.7710
L28.5025 11.7710
" />
<path d="M28.5025 11.7710
L28.6840 11.8315
" />
<path d="M28.6840 11.8315
L28.7444 11.8920
" />
<path d="M29.2887 13.0410
L29.2887 11.7710
" />
<path d="M29.2887 11.7710
L29.7725 11.7710
" />
<path d="M29.7725 11.7710
L29.8935 11.8315
" />
<path d="M29.8935 11.8315
L29.9540 11.8920
" />
<path d="M29.9540 11.8920
L30.0144 12.0129
" />
<path d="M30.0144 12.0129
L30.0144 12.1944
" />
<path d="M30.0144 12.1944
L29.9540 12.3153
" />
<path d="M29.9540 12.3153
L29.8935 12.3758
" />
<path d="M29.8935 12.3758
L29.7725 12.4363
" />
<path d="M29.7725 12.4363
L29.2887 12.4363
" />
<path d="M30.8006 11.7710
L31.0425 11.7710
" />
<path d="M31.0425 11.7710
L31.1635 11.8315
" />
<path d="M31.1635 11.8315
L31.2844 11.9525
" />
<path d="M31.2844 11.9525
L31.3449 12.1944
" />
<path d="M31.3449 12.1944
L31.3449 12.6177
" />
<path d="M31.3449 12.6177
L31.2844 12.8596
" />
<path d="M31.2844 12.8596
L31.1635 12.9806
" />
<path d="M31.1635 12.9806
L31.0425 13.0410
" />
<path d="M31.0425 13.0410
L30.8006 13.0410
" />
<path d="M30.8006 13.0410
L30.6797 12.9806
" />
<path d="M30.6797 12.9806
L30.5587 12.8596
" />
<path d="M30.5587 12.8596
L30.4983 12.6177
" />
<path d="M30.4983 12.6177
L30.4983 12.1944
" />
<path d="M30.4983 12.1944
L30.5587 11.9525
" />
<path d="M30.5587 11.9525
L30.6797 11.8315
" />
<path d="M30.6797 11.8315
L30.8006 11.7710
" />
<path d="M31.8892 11.7710
L31.8892 12.7991
" />
<path d="M31.8892 12.7991
L31.9497 12.9201
" />
<path d="M31.9497 12.9201
L32.0102 12.9806
" />
<path d="M32.0102 12.9806
L32.1311 13.0410
" />
<path d="M32.1311 13.0410
L32.3730 13.0410
" />
<path d="M32.3730 13.0410
L32.4940 12.9806
" />
<path d="M32.4940 12.9806
L32.5545 12.9201
" />
<path d="M32.5545 12.9201
L32.6149 12.7991
" />
<path d="M32.6149 12.7991
L32.6149 11.7710
" />
<path d="M33.0383 11.7710
L33.7640 11.7710
" />
<path d="M33.4012 13.0410
L33.4012 11.7710
" />
</g></g>
<g style="fill:none; 
stroke:#A90000; stroke-width:0.1524; stroke-opacity:1; 
stroke-linecap:round; stroke-linejoin:round;">
<text x="37.0332" y="12.2075"
textLength="1.4127" font-size="1.6933" lengthAdjust="spacingAndGlyphs"
text-anchor="middle" opacity="0" stroke-opacity="0">5</text>
<g class="stroked-text"><desc>5</desc>
<path d="M37.3356 10.7740
L36.7308 10.7740
" />
<path d="M36.7308 10.7740
L36.6704 11.3788
" />
<path d="M36.6704 11.3788
L36.7308 11.3183
" />
<path d="M36.7308 11.3183
L36.8518 11.2578
" />
<path d="M36.8518 11.2578
L37.1542 11.2578
" />
<path d="M37.1542 11.2578
L37.2751 11.3183
" />
<path d="M37.2751 11.3183
L37.3356 11.3788
" />
<path d="M37.3356 11.3788
L37.3961 11.4997
" />
<path d="M37.3961 11.4997
L37.3961 11.8021
" />
<path d="M37.3961 11.8021
L37.3356 11.9231
" />
<path d="M37.3356 11.9231
L37.2751 11.9836
" />
<path d="M37.2751 11.9836
L37.1542 12.0440
" />
<path d="M37.1542 12.0440
L36.8518 12.0440
" />
<path d="M36.8518 12.0440
L36.7308 11.9836
" />
<path d="M36.7308 11.9836
L36.6704 11.9231
" />
</g></g>
<g style="fill:none; 
stroke:#840000; stroke-width:0.1524; stroke-opacity:1; 
stroke-linecap:round; stroke-linejoin:round;">
<path d="M34.4932 58.1815
L39.5732 58.1815
" />
</g>
<g style="fill:none; 
stroke:#006464; stroke-width:0.1524; stroke-opacity:1; 
stroke-linecap:round; stroke-linejoin:round;">
<text x="33.9852" y="58.8165"
textLength="5.4042" font-size="1.6933" lengthAdjust="spacingAndGlyphs"
text-anchor="end" opacity="0" stroke-opacity="0">OUT-</text>
<g class="stroked-text"><desc>OUT-</desc>
<path d="M29.2282 57.4910
L29.4701 57.4910
" />
<path d="M29.4701 57.4910
L29.5911 57.5515
" />
<path d="M29.5911 57.5515
L29.7120 57.6725
" />
<path d="M29.7120 57.6725
L29.7725 57.9144
" />
<path d="M29.7725 57.9144
L29.7725 58.3377
" />
<path d="M29.7725 58.3377
L29.7120 58.5796
" />
<path d="M29.7120 58.5796
L29.5911 58.7006
" />
<path d="M29.5911 58.7006
L29.4701 58.7610
" />
<path d="M29.4701 58.7610
L29.2282 58.7610
" />
<path d="M29.2282 58.7610
L29.1073 58.7006
" />
<path d="M29.1073 58.7006
L28.9863 58.5796
" />
<path d="M28.9863 58.5796
L28.9259 58.3377
" />
<path d="M28.9259 58.3377
L28.9259 57.9144
" />
<path d="M28.9259 57.9144
L28.9863 57.6725
" />
<path d="M28.9863 57.6725
L29.1073 57.5515
" />
<path d="M29.1073 57.5515
L29.2282 57.4910
" />
<path d="M30.3168 57.4910
L30.3168 58.5191
" />
<path d="M30.3168 58.5191
L30.3773 58.6401
" />
<path d="M30.3773 58.6401
L30.4378 58.7006
" />
<path d="M30.4378 58.7006
L30.5587 58.7610
" />
<path d="M30.5587 58.7610
L30.8006 58.7610
" />
<path d="M30.8006 58.7610
L30.9216 58.7006
" />
<path d="M30.9216 58.7006
L30.9821 58.6401
" />
<path d="M30.9821 58.6401
L31.0425 58.5191
" />
<path d="M31.0425 58.5191
L31.0425 57.4910
" />
<path d="M31.4659 57.4910
L32.1916 57.4910
" />
<path d="M31.8288 58.7610
L31.8288 57.4910
" />
<path d="M32.6149 58.2772
L33.5826 58.2772
" />
</g></g>
<g style="fill:none; 
stroke:#A90000; stroke-width:0.1524; stroke-opacity:1; 
stroke-linecap:round; stroke-linejoin:round;">
<text x="37.0332" y="57.9275"
textLength="1.4127" font-size="1.6933" lengthAdjust="spacingAndGlyphs"
text-anchor="middle" opacity="0" stroke-opacity="0">6</text>
<g class="stroked-text"><desc>6</desc>
<path d="M37.2751 56.4940
L37.0332 56.4940
" />
<path d="M37.0332 56.4940
L36.9123 56.5545
" />
<path d="M36.9123 56.5545
L36.8518 56.6150
" />
<path d="M36.8518 56.6150
L36.7308 56.7964
" />
<path d="M36.7308 56.7964
L36.6704 57.0383
" />
<path d="M36.6704 57.0383
L36.6704 57.5221
" />
<path d="M36.6704 57.5221
L36.7308 57.6431
" />
<path d="M36.7308 57.6431
L36.7913 57.7036
" />
<path d="M36.7913 57.7036
L36.9123 57.7640
" />
<path d="M36.9123 57.7640
L37.1542 57.7640
" />
<path d="M37.1542 57.7640
L37.2751 57.7036
" />
<path d="M37.2751 57.7036
L37.3356 57.6431
" />
<path d="M37.3356 57.6431
L37.3961 57.5221
" />
<path d="M37.3961 57.5221
L37.3961 57.2197
" />
<path d="M37.3961 57.2197
L37.3356 57.0988
" />
<path d="M37.3356 57.0988
L37.2751 57.0383
" />
<path d="M37.2751 57.0383
L37.1542 56.9778
" />
<path d="M37.1542 56.9778
L36.9123 56.9778
" />
<path d="M36.9123 56.9778
L36.7913 57.0383
" />
<path d="M36.7913 57.0383
L36.7308 57.0988
" />
<path d="M36.7308 57.0988
L36.6704 57.2197
" />
</g></g>
<g style="fill:none; 
stroke:#840000; stroke-width:0.1524; stroke-opacity:1; 
stroke-linecap:round; stroke-linejoin:round;">
<path d="M34.4932 48.0215
L39.5732 48.0215
" />
</g>
<g style="fill:none; 
stroke:#006464; stroke-width:0.1524; stroke-opacity:1; 
stroke-linecap:round; stroke-linejoin:round;">
<text x="33.9852" y="48.6565"
textLength="4.1342" font-size="1.6933" lengthAdjust="spacingAndGlyphs"
text-anchor="end" opacity="0" stroke-opacity="0">FB-</text>
<g class="stroked-text"><desc>FB-</desc>
<path d="M30.6797 47.9358
L30.2563 47.9358
" />
<path d="M30.2563 48.6010
L30.2563 47.3310
" />
<path d="M30.2563 47.3310
L30.8611 47.3310
" />
<path d="M31.7683 47.9358
L31.9497 47.9963
" />
<path d="M31.9497 47.9963
L32.0102 48.0567
" />
<path d="M32.0102 48.0567
L32.0706 48.1777
" />
<path d="M32.0706 48.1777
L32.0706 48.3591
" />
<path d="M32.0706 48.3591
L32.0102 48.4801
" />
<path d="M32.0102 48.4801
L31.9497 48.5406
" />
<path d="M31.9497 48.5406
L31.8287 48.6010
" />
<path d="M31.8287 48.6010
L31.3449 48.6010
" />
<path d="M31.3449 48.6010
L31.3449 47.3310
" />
<path d="M31.3449 47.3310
L31.7683 47.3310
" />
<path d="M31.7683 47.3310
L31.8892 47.3915
" />
<path d="M31.8892 47.3915
L31.9497 47.4520
" />
<path d="M31.9497 47.4520
L32.0102 47.5729
" />
<path d="M32.0102 47.5729
L32.0102 47.6939
" />
<path d="M32.0102 47.6939
L31.9497 47.8148
" />
<path d="M31.9497 47.8148
L31.8892 47.8753
" />
<path d="M31.8892 47.8753
L31.7683 47.9358
" />
<path d="M31.7683 47.9358
L31.3449 47.9358
" />
<path d="M32.6149 48.1172
L33.5826 48.1172
" />
</g></g>
<g style="fill:none; 
stroke:#A90000; stroke-width:0.1524; stroke-opacity:1; 
stroke-linecap:round; stroke-linejoin:round;">
<text x="37.0332" y="47.7675"
textLength="1.4127" font-size="1.6933" lengthAdjust="spacingAndGlyphs"
text-anchor="middle" opacity="0" stroke-opacity="0">7</text>
<g class="stroked-text"><desc>7</desc>
<path d="M36.6099 46.3340
L37.4565 46.3340
" />
<path d="M37.4565 46.3340
L36.9123 47.6040
" />
</g></g>
<g style="fill:none; 
stroke:#840000; stroke-width:0.1524; stroke-opacity:1; 
stroke-linecap:round; stroke-linejoin:round;">
<path d="M9.0932 55.6415
L4.0132 55.6415
" />
</g>
<g style="fill:none; 
stroke:#006464; stroke-width:0.1524; stroke-opacity:1; 
stroke-linecap:round; stroke-linejoin:round;">
<text x="9.6012" y="56.2765"
textLength="4.2551" font-size="1.6933" lengthAdjust="spacingAndGlyphs"
text-anchor="start" opacity="0" stroke-opacity="0">EN-</text>
<g class="stroked-text"><desc>EN-</desc>
<path d="M10.0037 55.5558
L10.4271 55.5558
" />
<path d="M10.6085 56.2210
L10.0037 56.2210
" />
<path d="M10.0037 56.2210
L10.0037 54.9510
" />
<path d="M10.0037 54.9510
L10.6085 54.9510
" />
<path d="M11.1527 56.2210
L11.1527 54.9510
" />
<path d="M11.1527 54.9510
L11.8784 56.2210
" />
<path d="M11.8784 56.2210
L11.8784 54.9510
" />
<path d="M12.4832 55.7372
L13.4509 55.7372
" />
</g></g>
<g style="fill:none; 
stroke:#A90000; stroke-width:0.1524; stroke-opacity:1; 
stroke-linecap:round; stroke-linejoin:round;">
<text x="6.5532" y="55.3875"
textLength="1.4127" font-size="1.6933" lengthAdjust="spacingAndGlyphs"
text-anchor="middle" opacity="0" stroke-opacity="0">8</text>
<g class="stroked-text"><desc>8</desc>
<path d="M6.4323 54.4983
L6.3113 54.4378
" />
<path d="M6.3113 54.4378
L6.2508 54.3774
" />
<path d="M6.2508 54.3774
L6.1904 54.2564
" />
<path d="M6.1904 54.2564
L6.1904 54.1959
" />
<path d="M6.1904 54.1959
L6.2508 54.0750
" />
<path d="M6.2508 54.0750
L6.3113 54.0145
" />
<path d="M6.3113 54.0145
L6.4323 53.9540
" />
<path d="M6.4323 53.9540
L6.6742 53.9540
" />
<path d="M6.6742 53.9540
L6.7951 54.0145
" />
<path d="M6.7951 54.0145
L6.8556 54.0750
" />
<path d="M6.8556 54.0750
L6.9161 54.1959
" />
<path d="M6.9161 54.1959
L6.9161 54.2564
" />
<path d="M6.9161 54.2564
L6.8556 54.3774
" />
<path d="M6.8556 54.3774
L6.7951 54.4378
" />
<path d="M6.7951 54.4378
L6.6742 54.4983
" />
<path d="M6.6742 54.4983
L6.4323 54.4983
" />
<path d="M6.4323 54.4983
L6.3113 54.5588
" />
<path d="M6.3113 54.5588
L6.2508 54.6193
" />
<path d="M6.2508 54.6193
L6.1904 54.7402
" />
<path d="M6.1904 54.7402
L6.1904 54.9821
" />
<path d="M6.1904 54.9821
L6.2508 55.1031
" />
<path d="M6.2508 55.1031
L6.3113 55.1636
" />
<path d="M6.3113 55.1636
L6.4323 55.2240
" />
<path d="M6.4323 55.2240
L6.6742 55.2240
" />
<path d="M6.6742 55.2240
L6.7951 55.1636
" />
<path d="M6.7951 55.1636
L6.8556 55.1031
" />
<path d="M6.8556 55.1031
L6.9161 54.9821
" />
<path d="M6.9161 54.9821
L6.9161 54.7402
" />
<path d="M6.9161 54.7402
L6.8556 54.6193
" />
<path d="M6.8556 54.6193
L6.7951 54.5588
" />
<path d="M6.7951 54.5588
L6.6742 54.4983
" />
</g></g>
<g style="fill:none; 
stroke:#840000; stroke-width:0.1524; stroke-opacity:1; 
stroke-linecap:round; stroke-linejoin:round;">
<path d="M9.0932 20.0815
L4.0132 20.0815
" />
</g>
<g style="fill:none; 
stroke:#006464; stroke-width:0.1524; stroke-opacity:1; 
stroke-linecap:round; stroke-linejoin:round;">
<text x="9.6012" y="20.7165"
textLength="4.2551" font-size="1.6933" lengthAdjust="spacingAndGlyphs"
text-anchor="start" opacity="0" stroke-opacity="0">C1-</text>
<g class="stroked-text"><desc>C1-</desc>
<path d="M10.7294 20.5401
L10.6690 20.6006
" />
<path d="M10.6690 20.6006
L10.4875 20.6610
" />
<path d="M10.4875 20.6610
L10.3666 20.6610
" />
<path d="M10.3666 20.6610
L10.1852 20.6006
" />
<path d="M10.1852 20.6006
L10.0642 20.4796
" />
<path d="M10.0642 20.4796
L10.0037 20.3586
" />
<path d="M10.0037 20.3586
L9.9433 20.1167
" />
<path d="M9.9433 20.1167
L9.9433 19.9353
" />
<path d="M9.9433 19.9353
L10.0037 19.6934
" />
<path d="M10.0037 19.6934
L10.0642 19.5725
" />
<path d="M10.0642 19.5725
L10.1852 19.4515
" />
<path d="M10.1852 19.4515
L10.3666 19.3910
" />
<path d="M10.3666 19.3910
L10.4875 19.3910
" />
<path d="M10.4875 19.3910
L10.6690 19.4515
" />
<path d="M10.6690 19.4515
L10.7294 19.5120
" />
<path d="M11.9390 20.6610
L11.2133 20.6610
" />
<path d="M11.5761 20.6610
L11.5761 19.3910
" />
<path d="M11.5761 19.3910
L11.4552 19.5725
" />
<path d="M11.4552 19.5725
L11.3342 19.6934
" />
<path d="M11.3342 19.6934
L11.2133 19.7539
" />
<path d="M12.4832 20.1772
L13.4509 20.1772
" />
</g></g>
<g style="fill:none; 
stroke:#A90000; stroke-width:0.1524; stroke-opacity:1; 
stroke-linecap:round; stroke-linejoin:round;">
<text x="6.5532" y="19.8275"
textLength="1.4127" font-size="1.6933" lengthAdjust="spacingAndGlyphs"
text-anchor="middle" opacity="0" stroke-opacity="0">9</text>
<g class="stroked-text"><desc>9</desc>
<path d="M6.3113 19.6640
L6.5532 19.6640
" />
<path d="M6.5532 19.6640
L6.6742 19.6036
" />
<path d="M6.6742 19.6036
L6.7346 19.5431
" />
<path d="M6.7346 19.5431
L6.8556 19.3616
" />
<path d="M6.8556 19.3616
L6.9161 19.1197
" />
<path d="M6.9161 19.1197
L6.9161 18.6359
" />
<path d="M6.9161 18.6359
L6.8556 18.5150
" />
<path d="M6.8556 18.5150
L6.7951 18.4545
" />
<path d="M6.7951 18.4545
L6.6742 18.3940
" />
<path d="M6.6742 18.3940
L6.4323 18.3940
" />
<path d="M6.4323 18.3940
L6.3113 18.4545
" />
<path d="M6.3113 18.4545
L6.2508 18.5150
" />
<path d="M6.2508 18.5150
L6.1904 18.6359
" />
<path d="M6.1904 18.6359
L6.1904 18.9383
" />
<path d="M6.1904 18.9383
L6.2508 19.0593
" />
<path d="M6.2508 19.0593
L6.3113 19.1197
" />
<path d="M6.3113 19.1197
L6.4323 19.1802
" />
<path d="M6.4323 19.1802
L6.6742 19.1802
" />
<path d="M6.6742 19.1802
L6.7951 19.1197
" />
<path d="M6.7951 19.1197
L6.8556 19.0593
" />
<path d="M6.8556 19.0593
L6.9161 18.9383
" />
</g></g>
<g style="fill:none; 
stroke:#840000; stroke-width:0.1524; stroke-opacity:1; 
stroke-linecap:round; stroke-linejoin:round;">
<path d="M9.0932 27.7015
L4.0132 27.7015
" />
</g>
<g style="fill:none; 
stroke:#006464; stroke-width:0.1524; stroke-opacity:1; 
stroke-linecap:round; stroke-linejoin:round;">
<text x="9.6012" y="28.3365"
textLength="4.2551" font-size="1.6933" lengthAdjust="spacingAndGlyphs"
text-anchor="start" opacity="0" stroke-opacity="0">C1+</text>
<g class="stroked-text"><desc>C1+</desc>
<path d="M10.7294 28.1601
L10.6690 28.2206
" />
<path d="M10.6690 28.2206
L10.4875 28.2810
" />
<path d="M10.4875 28.2810
L10.3666 28.2810
" />
<path d="M10.3666 28.2810
L10.1852 28.2206
" />
<path d="M10.1852 28.2206
L10.0642 28.0996
" />
<path d="M10.0642 28.0996
L10.0037 27.9786
" />
<path d="M10.0037 27.9786
L9.9433 27.7367
" />
<path d="M9.9433 27.7367
L9.9433 27.5553
" />
<path d="M9.9433 27.5553
L10.0037 27.3134
" />
<path d="M10.0037 27.3134
L10.0642 27.1925
" />
<path d="M10.0642 27.1925
L10.1852 27.0715
" />
<path d="M10.1852 27.0715
L10.3666 27.0110
" />
<path d="M10.3666 27.0110
L10.4875 27.0110
" />
<path d="M10.4875 27.0110
L10.6690 27.0715
" />
<path d="M10.6690 27.0715
L10.7294 27.1320
" />
<path d="M11.9390 28.2810
L11.2133 28.2810
" />
<path d="M11.5761 28.2810
L11.5761 27.0110
" />
<path d="M11.5761 27.0110
L11.4552 27.1925
" />
<path d="M11.4552 27.1925
L11.3342 27.3134
" />
<path d="M11.3342 27.3134
L11.2133 27.3739
" />
<path d="M12.4832 27.7972
L13.4509 27.7972
" />
<path d="M12.9670 28.2810
L12.9670 27.3134
" />
</g></g>
<g style="fill:none; 
stroke:#A90000; stroke-width:0.1524; stroke-opacity:1; 
stroke-linecap:round; stroke-linejoin:round;">
<text x="6.5532" y="27.4475"
textLength="2.6222" font-size="1.6933" lengthAdjust="spacingAndGlyphs"
text-anchor="middle" opacity="0" stroke-opacity="0">10</text>
<g class="stroked-text"><desc>10</desc>
<path d="M6.3113 27.2840
L5.5856 27.2840
" />
<path d="M5.9484 27.2840
L5.9484 26.0140
" />
<path d="M5.9484 26.0140
L5.8275 26.1955
" />
<path d="M5.8275 26.1955
L5.7065 26.3164
" />
<path d="M5.7065 26.3164
L5.5856 26.3769
" />
<path d="M7.0974 26.0140
L7.2184 26.0140
" />
<path d="M7.2184 26.0140
L7.3393 26.0745
" />
<path d="M7.3393 26.0745
L7.3998 26.1350
" />
<path d="M7.3998 26.1350
L7.4603 26.2559
" />
<path d="M7.4603 26.2559
L7.5208 26.4978
" />
<path d="M7.5208 26.4978
L7.5208 26.8002
" />
<path d="M7.5208 26.8002
L7.4603 27.0421
" />
<path d="M7.4603 27.0421
L7.3998 27.1631
" />
<path d="M7.3998 27.1631
L7.3393 27.2236
" />
<path d="M7.3393 27.2236
L7.2184 27.2840
" />
<path d="M7.2184 27.2840
L7.0974 27.2840
" />
<path d="M7.0974 27.2840
L6.9765 27.2236
" />
<path d="M6.9765 27.2236
L6.9160 27.1631
" />
<path d="M6.9160 27.1631
L6.8555 27.0421
" />
<path d="M6.8555 27.0421
L6.7951 26.8002
" />
<path d="M6.7951 26.8002
L6.7951 26.4978
" />
<path d="M6.7951 26.4978
L6.8555 26.2559
" />
<path d="M6.8555 26.2559
L6.9160 26.1350
" />
<path d="M6.9160 26.1350
L6.9765 26.0745
" />
<path d="M6.9765 26.0745
L7.0974 26.0140
" />
</g></g>
<g style="fill:none; 
stroke:#840000; stroke-width:0.1524; stroke-opacity:1; 
stroke-linecap:round; stroke-linejoin:round;">
<path d="M34.4932 17.5415
L39.5732 17.5415
" />
</g>
<g style="fill:none; 
stroke:#006464; stroke-width:0.1524; stroke-opacity:1; 
stroke-linecap:round; stroke-linejoin:round;">
<text x="33.9852" y="18.1765"
textLength="5.4042" font-size="1.6933" lengthAdjust="spacingAndGlyphs"
text-anchor="end" opacity="0" stroke-opacity="0">OUT+</text>
<g class="stroked-text"><desc>OUT+</desc>
<path d="M29.2282 16.8510
L29.4701 16.8510
" />
<path d="M29.4701 16.8510
L29.5911 16.9115
" />
<path d="M29.5911 16.9115
L29.7120 17.0325
" />
<path d="M29.7120 17.0325
L29.7725 17.2744
" />
<path d="M29.7725 17.2744
L29.7725 17.6977
" />
<path d="M29.7725 17.6977
L29.7120 17.9396
" />
<path d="M29.7120 17.9396
L29.5911 18.0606
" />
<path d="M29.5911 18.0606
L29.4701 18.1210
" />
<path d="M29.4701 18.1210
L29.2282 18.1210
" />
<path d="M29.2282 18.1210
L29.1073 18.0606
" />
<path d="M29.1073 18.0606
L28.9863 17.9396
" />
<path d="M28.9863 17.9396
L28.9259 17.6977
" />
<path d="M28.9259 17.6977
L28.9259 17.2744
" />
<path d="M28.9259 17.2744
L28.9863 17.0325
" />
<path d="M28.9863 17.0325
L29.1073 16.9115
" />
<path d="M29.1073 16.9115
L29.2282 16.8510
" />
<path d="M30.3168 16.8510
L30.3168 17.8791
" />
<path d="M30.3168 17.8791
L30.3773 18.0001
" />
<path d="M30.3773 18.0001
L30.4378 18.0606
" />
<path d="M30.4378 18.0606
L30.5587 18.1210
" />
<path d="M30.5587 18.1210
L30.8006 18.1210
" />
<path d="M30.8006 18.1210
L30.9216 18.0606
" />
<path d="M30.9216 18.0606
L30.9821 18.0001
" />
<path d="M30.9821 18.0001
L31.0425 17.8791
" />
<path d="M31.0425 17.8791
L31.0425 16.8510
" />
<path d="M31.4659 16.8510
L32.1916 16.8510
" />
<path d="M31.8288 18.1210
L31.8288 16.8510
" />
<path d="M32.6149 17.6372
L33.5826 17.6372
" />
<path d="M33.0987 18.1210
L33.0987 17.1534
" />
</g></g>
<g style="fill:none; 
stroke:#A90000; stroke-width:0.1524; stroke-opacity:1; 
stroke-linecap:round; stroke-linejoin:round;">
<text x="37.0332" y="17.2875"
textLength="2.6222" font-size="1.6933" lengthAdjust="spacingAndGlyphs"
text-anchor="middle" opacity="0" stroke-opacity="0">11</text>
<g class="stroked-text"><desc>11</desc>
<path d="M36.7913 17.1240
L36.0656 17.1240
" />
<path d="M36.4284 17.1240
L36.4284 15.8540
" />
<path d="M36.4284 15.8540
L36.3075 16.0355
" />
<path d="M36.3075 16.0355
L36.1865 16.1564
" />
<path d="M36.1865 16.1564
L36.0656 16.2169
" />
<path d="M38.0008 17.1240
L37.2751 17.1240
" />
<path d="M37.6379 17.1240
L37.6379 15.8540
" />
<path d="M37.6379 15.8540
L37.5170 16.0355
" />
<path d="M37.5170 16.0355
L37.3960 16.1564
" />
<path d="M37.3960 16.1564
L37.2751 16.2169
" />
</g></g>
<g style="fill:none; 
stroke:#840000; stroke-width:0.1524; stroke-opacity:1; 
stroke-linecap:round; stroke-linejoin:round;">
<path d="M9.0932 50.5615
L4.0132 50.5615
" />
</g>
<g style="fill:none; 
stroke:#006464; stroke-width:0.1524; stroke-opacity:1; 
stroke-linecap:round; stroke-linejoin:round;">
<text x="9.6012" y="51.1965"
textLength="4.2551" font-size="1.6933" lengthAdjust="spacingAndGlyphs"
text-anchor="start" opacity="0" stroke-opacity="0">EN+</text>
<g class="stroked-text"><desc>EN+</desc>
<path d="M10.0037 50.4758
L10.4271 50.4758
" />
<path d="M10.6085 51.1410
L10.0037 51.1410
" />
<path d="M10.0037 51.1410
L10.0037 49.8710
" />
<path d="M10.0037 49.8710
L10.6085 49.8710
" />
<path d="M11.1527 51.1410
L11.1527 49.8710
" />
<path d="M11.1527 49.8710
L11.8784 51.1410
" />
<path d="M11.8784 51.1410
L11.8784 49.8710
" />
<path d="M12.4832 50.6572
L13.4509 50.6572
" />
<path d="M12.9670 51.1410
L12.9670 50.1734
" />
</g></g>
<g style="fill:none; 
stroke:#A90000; stroke-width:0.1524; stroke-opacity:1; 
stroke-linecap:round; stroke-linejoin:round;">
<text x="6.5532" y="50.3075"
textLength="2.6222" font-size="1.6933" lengthAdjust="spacingAndGlyphs"
text-anchor="middle" opacity="0" stroke-opacity="0">12</text>
<g class="stroked-text"><desc>12</desc>
<path d="M6.3113 50.1440
L5.5856 50.1440
" />
<path d="M5.9484 50.1440
L5.9484 48.8740
" />
<path d="M5.9484 48.8740
L5.8275 49.0555
" />
<path d="M5.8275 49.0555
L5.7065 49.1764
" />
<path d="M5.7065 49.1764
L5.5856 49.2369
" />
<path d="M6.7951 48.9950
L6.8555 48.9345
" />
<path d="M6.8555 48.9345
L6.9765 48.8740
" />
<path d="M6.9765 48.8740
L7.2789 48.8740
" />
<path d="M7.2789 48.8740
L7.3998 48.9345
" />
<path d="M7.3998 48.9345
L7.4603 48.9950
" />
<path d="M7.4603 48.9950
L7.5208 49.1159
" />
<path d="M7.5208 49.1159
L7.5208 49.2369
" />
<path d="M7.5208 49.2369
L7.4603 49.4183
" />
<path d="M7.4603 49.4183
L6.7346 50.1440
" />
<path d="M6.7346 50.1440
L7.5208 50.1440
" />
</g></g>
<g style="fill:none; 
stroke:#840000; stroke-width:0.1524; stroke-opacity:1; 
stroke-linecap:round; stroke-linejoin:round;">
<path d="M34.4932 65.8015
L39.5732 65.8015
" />
</g>
<g style="fill:none; 
stroke:#006464; stroke-width:0.1524; stroke-opacity:1; 
stroke-linecap:round; stroke-linejoin:round;">
<text x="33.9852" y="66.4365"
textLength="3.8318" font-size="1.6933" lengthAdjust="spacingAndGlyphs"
text-anchor="end" opacity="0" stroke-opacity="0">PAD</text>
<g class="stroked-text"><desc>PAD</desc>
<path d="M30.5587 66.3810
L30.5587 65.1110
" />
<path d="M30.5587 65.1110
L31.0425 65.1110
" />
<path d="M31.0425 65.1110
L31.1635 65.1715
" />
<path d="M31.1635 65.1715
L31.2240 65.2320
" />
<path d="M31.2240 65.2320
L31.2844 65.3529
" />
<path d="M31.2844 65.3529
L31.2844 65.5344
" />
<path d="M31.2844 65.5344
L31.2240 65.6553
" />
<path d="M31.2240 65.6553
L31.1635 65.7158
" />
<path d="M31.1635 65.7158
L31.0425 65.7763
" />
<path d="M31.0425 65.7763
L30.5587 65.7763
" />
<path d="M31.7683 66.0182
L32.3730 66.0182
" />
<path d="M31.6473 66.3810
L32.0706 65.1110
" />
<path d="M32.0706 65.1110
L32.4940 66.3810
" />
<path d="M32.9173 66.3810
L32.9173 65.1110
" />
<path d="M32.9173 65.1110
L33.2197 65.1110
" />
<path d="M33.2197 65.1110
L33.4011 65.1715
" />
<path d="M33.4011 65.1715
L33.5221 65.2925
" />
<path d="M33.5221 65.2925
L33.5826 65.4134
" />
<path d="M33.5826 65.4134
L33.6430 65.6553
" />
<path d="M33.6430 65.6553
L33.6430 65.8367
" />
<path d="M33.6430 65.8367
L33.5826 66.0786
" />
<path d="M33.5826 66.0786
L33.5221 66.1996
" />
<path d="M33.5221 66.1996
L33.4011 66.3206
" />
<path d="M33.4011 66.3206
L33.2197 66.3810
" />
<path d="M33.2197 66.3810
L32.9173 66.3810
" />
</g></g>
<g style="fill:none; 
stroke:#A90000; stroke-width:0.1524; stroke-opacity:1; 
stroke-linecap:round; stroke-linejoin:round;">
<text x="37.0332" y="65.5475"
textLength="2.6222" font-size="1.6933" lengthAdjust="spacingAndGlyphs"
text-anchor="middle" opacity="0" stroke-opacity="0">13</text>
<g class="stroked-text"><desc>13</desc>
<path d="M36.7913 65.3840
L36.0656 65.3840
" />
<path d="M36.4284 65.3840
L36.4284 64.1140
" />
<path d="M36.4284 64.1140
L36.3075 64.2955
" />
<path d="M36.3075 64.2955
L36.1865 64.4164
" />
<path d="M36.1865 64.4164
L36.0656 64.4769
" />
<path d="M37.2146 64.1140
L38.0008 64.1140
" />
<path d="M38.0008 64.1140
L37.5774 64.5978
" />
<path d="M37.5774 64.5978
L37.7589 64.5978
" />
<path d="M37.7589 64.5978
L37.8798 64.6583
" />
<path d="M37.8798 64.6583
L37.9403 64.7188
" />
<path d="M37.9403 64.7188
L38.0008 64.8397
" />
<path d="M38.0008 64.8397
L38.0008 65.1421
" />
<path d="M38.0008 65.1421
L37.9403 65.2631
" />
<path d="M37.9403 65.2631
L37.8798 65.3236
" />
<path d="M37.8798 65.3236
L37.7589 65.3840
" />
<path d="M37.7589 65.3840
L37.3960 65.3840
" />
<path d="M37.3960 65.3840
L37.2751 65.3236
" />
<path d="M37.2751 65.3236
L37.2146 65.2631
" />
</g></g>
<g style="fill:none; 
stroke:#006464; stroke-width:0.1524; stroke-opacity:1; 
stroke-linecap:round; stroke-linejoin:round;">
<text x="9.8552" y="7.7625"
textLength="2.6223" font-size="1.6933" lengthAdjust="spacingAndGlyphs"
text-anchor="middle" opacity="0" stroke-opacity="0">U?</text>
<g class="stroked-text"><desc>U?</desc>
<path d="M8.9480 6.4370
L8.9480 7.4651
" />
<path d="M8.9480 7.4651
L9.0085 7.5861
" />
<path d="M9.0085 7.5861
L9.0690 7.6466
" />
<path d="M9.0690 7.6466
L9.1899 7.7070
" />
<path d="M9.1899 7.7070
L9.4318 7.7070
" />
<path d="M9.4318 7.7070
L9.5528 7.6466
" />
<path d="M9.5528 7.6466
L9.6133 7.5861
" />
<path d="M9.6133 7.5861
L9.6737 7.4651
" />
<path d="M9.6737 7.4651
L9.6737 6.4370
" />
<path d="M10.4600 7.5861
L10.5204 7.6466
" />
<path d="M10.5204 7.6466
L10.4600 7.7070
" />
<path d="M10.4600 7.7070
L10.3995 7.6466
" />
<path d="M10.3995 7.6466
L10.4600 7.5861
" />
<path d="M10.4600 7.5861
L10.4600 7.7070
" />
<path d="M10.2181 6.4975
L10.3390 6.4370
" />
<path d="M10.3390 6.4370
L10.6414 6.4370
" />
<path d="M10.6414 6.4370
L10.7623 6.4975
" />
<path d="M10.7623 6.4975
L10.8228 6.6185
" />
<path d="M10.8228 6.6185
L10.8228 6.7394
" />
<path d="M10.8228 6.7394
L10.7623 6.8604
" />
<path d="M10.7623 6.8604
L10.7019 6.9208
" />
<path d="M10.7019 6.9208
L10.5809 6.9813
" />
<path d="M10.5809 6.9813
L10.5204 7.0418
" />
<path d="M10.5204 7.0418
L10.4600 7.1627
" />
<path d="M10.4600 7.1627
L10.4600 7.2232
" />
</g><text x="29.4132" y="7.7625"
textLength="8.7302" font-size="1.6933" lengthAdjust="spacingAndGlyphs"
text-anchor="middle" opacity="0" stroke-opacity="0">LM27762</text>
<g class="stroked-text"><desc>LM27762</desc>
<path d="M26.0568 7.7070
L25.4520 7.7070
" />
<path d="M25.4520 7.7070
L25.4520 6.4370
" />
<path d="M26.4801 7.7070
L26.4801 6.4370
" />
<path d="M26.4801 6.4370
L26.9035 7.3442
" />
<path d="M26.9035 7.3442
L27.3268 6.4370
" />
<path d="M27.3268 6.4370
L27.3268 7.7070
" />
<path d="M27.8711 6.5580
L27.9315 6.4975
" />
<path d="M27.9315 6.4975
L28.0525 6.4370
" />
<path d="M28.0525 6.4370
L28.3549 6.4370
" />
<path d="M28.3549 6.4370
L28.4758 6.4975
" />
<path d="M28.4758 6.4975
L28.5363 6.5580
" />
<path d="M28.5363 6.5580
L28.5968 6.6789
" />
<path d="M28.5968 6.6789
L28.5968 6.7999
" />
<path d="M28.5968 6.7999
L28.5363 6.9813
" />
<path d="M28.5363 6.9813
L27.8106 7.7070
" />
<path d="M27.8106 7.7070
L28.5968 7.7070
" />
<path d="M29.0201 6.4370
L29.8667 6.4370
" />
<path d="M29.8667 6.4370
L29.3225 7.7070
" />
<path d="M30.2296 6.4370
L31.0762 6.4370
" />
<path d="M31.0762 6.4370
L30.5320 7.7070
" />
<path d="M32.1043 6.4370
L31.8624 6.4370
" />
<path d="M31.8624 6.4370
L31.7415 6.4975
" />
<path d="M31.7415 6.4975
L31.6810 6.5580
" />
<path d="M31.6810 6.5580
L31.5600 6.7394
" />
<path d="M31.5600 6.7394
L31.4996 6.9813
" />
<path d="M31.4996 6.9813
L31.4996 7.4651
" />
<path d="M31.4996 7.4651
L31.5600 7.5861
" />
<path d="M31.5600 7.5861
L31.6205 7.6466
" />
<path d="M31.6205 7.6466
L31.7415 7.7070
" />
<path d="M31.7415 7.7070
L31.9834 7.7070
" />
<path d="M31.9834 7.7070
L32.1043 7.6466
" />
<path d="M32.1043 7.6466
L32.1648 7.5861
" />
<path d="M32.1648 7.5861
L32.2253 7.4651
" />
<path d="M32.2253 7.4651
L32.2253 7.1627
" />
<path d="M32.2253 7.1627
L32.1648 7.0418
" />
<path d="M32.1648 7.0418
L32.1043 6.9813
" />
<path d="M32.1043 6.9813
L31.9834 6.9208
" />
<path d="M31.9834 6.9208
L31.7415 6.9208
" />
<path d="M31.7415 6.9208
L31.6205 6.9813
" />
<path d="M31.6205 6.9813
L31.5600 7.0418
" />
<path d="M31.5600 7.0418
L31.4996 7.1627
" />
<path d="M32.7091 6.5580
L32.7695 6.4975
" />
<path d="M32.7695 6.4975
L32.8905 6.4370
" />
<path d="M32.8905 6.4370
L33.1929 6.4370
" />
<path d="M33.1929 6.4370
L33.3138 6.4975
" />
<path d="M33.3138 6.4975
L33.3743 6.5580
" />
<path d="M33.3743 6.5580
L33.4348 6.6789
" />
<path d="M33.4348 6.6789
L33.4348 6.7999
" />
<path d="M33.4348 6.7999
L33.3743 6.9813
" />
<path d="M33.3743 6.9813
L32.6486 7.7070
" />
<path d="M32.6486 7.7070
L33.4348 7.7070
" />
</g></g> 
</svg>
