<?xml version="1.0" standalone="no"?>
 <!DOCTYPE svg PUBLIC "-//W3C//DTD SVG 1.1//EN" 
 "http://www.w3.org/Graphics/SVG/1.1/DTD/svg11.dtd"> 
<svg
  xmlns:svg="http://www.w3.org/2000/svg"
  xmlns="http://www.w3.org/2000/svg"
  xmlns:xlink="http://www.w3.org/1999/xlink"
  xmlns:inkscape="http://www.inkscape.org/namespaces/inkscape"
  version="1.1"
  width="100%" height="100%" viewBox="0.0000 0.0000 29.8704 35.9664">
<title>SVG Image created as LTC3218_unit1.svg date 2026-04-16T00:47:49 </title>
  <desc>Image generated by Eeschema-SVG </desc>
<g style="fill:#000000; fill-opacity:1.0000;stroke:#000000; stroke-opacity:1.0000;
stroke-linecap:round; stroke-linejoin:round;"
 transform="translate(0 0) scale(1 1)">
</g>
<g style="fill:#FFFFC2; fill-opacity:1.0000; stroke:none;">
<rect x="5.410200" y="5.918200" width="19.050000" height="24.130000" rx="0.000000" />
</g>
<g style="fill:none; 
stroke:#840000; stroke-width:0.1524; stroke-opacity:1; 
stroke-linecap:round; stroke-linejoin:round;">
<rect x="5.410200" y="5.918200" width="19.050000" height="24.130000" rx="0.000000" />
<path d="M13.0302 5.9182
L13.0302 3.3782
" />
</g>
<g style="fill:none; 
stroke:#006464; stroke-width:0.1524; stroke-opacity:1; 
stroke-linecap:round; stroke-linejoin:round;">
<g transform="rotate(-90.000000 13.0302 6.9342)">
<text x="13.0302" y="7.5692"
textLength="2.7432" font-size="1.6933" lengthAdjust="spacingAndGlyphs"
text-anchor="end" opacity="0" stroke-opacity="0">CP</text>
</g>
<g class="stroked-text"><desc>CP</desc>
<path d="M13.4888 8.5463
L13.5493 8.6067
" />
<path d="M13.5493 8.6067
L13.6097 8.7882
" />
<path d="M13.6097 8.7882
L13.6097 8.9091
" />
<path d="M13.6097 8.9091
L13.5493 9.0905
" />
<path d="M13.5493 9.0905
L13.4283 9.2115
" />
<path d="M13.4283 9.2115
L13.3073 9.2720
" />
<path d="M13.3073 9.2720
L13.0654 9.3324
" />
<path d="M13.0654 9.3324
L12.8840 9.3324
" />
<path d="M12.8840 9.3324
L12.6421 9.2720
" />
<path d="M12.6421 9.2720
L12.5212 9.2115
" />
<path d="M12.5212 9.2115
L12.4002 9.0905
" />
<path d="M12.4002 9.0905
L12.3397 8.9091
" />
<path d="M12.3397 8.9091
L12.3397 8.7882
" />
<path d="M12.3397 8.7882
L12.4002 8.6067
" />
<path d="M12.4002 8.6067
L12.4607 8.5463
" />
<path d="M13.6097 8.0020
L12.3397 8.0020
" />
<path d="M12.3397 8.0020
L12.3397 7.5182
" />
<path d="M12.3397 7.5182
L12.4002 7.3972
" />
<path d="M12.4002 7.3972
L12.4607 7.3367
" />
<path d="M12.4607 7.3367
L12.5816 7.2763
" />
<path d="M12.5816 7.2763
L12.7631 7.2763
" />
<path d="M12.7631 7.2763
L12.8840 7.3367
" />
<path d="M12.8840 7.3367
L12.9445 7.3972
" />
<path d="M12.9445 7.3972
L13.0050 7.5182
" />
<path d="M13.0050 7.5182
L13.0050 8.0020
" />
</g></g>
<g style="fill:none; 
stroke:#A90000; stroke-width:0.1524; stroke-opacity:1; 
stroke-linecap:round; stroke-linejoin:round;">
<g transform="rotate(-90.000000 12.7762 4.6482)">
<text x="12.7762" y="4.6482"
textLength="1.4127" font-size="1.6933" lengthAdjust="spacingAndGlyphs"
text-anchor="middle" opacity="0" stroke-opacity="0">1</text>
</g>
<g class="stroked-text"><desc>1</desc>
<path d="M12.6127 4.2852
L12.6127 5.0109
" />
<path d="M12.6127 4.6481
L11.3427 4.6481
" />
<path d="M11.3427 4.6481
L11.5242 4.7690
" />
<path d="M11.5242 4.7690
L11.6451 4.8900
" />
<path d="M11.6451 4.8900
L11.7056 5.0109
" />
</g></g>
<g style="fill:none; 
stroke:#840000; stroke-width:0.1524; stroke-opacity:1; 
stroke-linecap:round; stroke-linejoin:round;">
<path d="M24.4602 9.7282
L27.0002 9.7282
" />
</g>
<g style="fill:none; 
stroke:#006464; stroke-width:0.1524; stroke-opacity:1; 
stroke-linecap:round; stroke-linejoin:round;">
<text x="23.4442" y="10.3632"
textLength="4.0737" font-size="1.6933" lengthAdjust="spacingAndGlyphs"
text-anchor="end" opacity="0" stroke-opacity="0">CPO</text>
<g class="stroked-text"><desc>CPO</desc>
<path d="M20.5015 10.1868
L20.4411 10.2473
" />
<path d="M20.4411 10.2473
L20.2596 10.3077
" />
<path d="M20.2596 10.3077
L20.1387 10.3077
" />
<path d="M20.1387 10.3077
L19.9573 10.2473
" />
<path d="M19.9573 10.2473
L19.8363 10.1263
" />
<path d="M19.8363 10.1263
L19.7758 10.0053
" />
<path d="M19.7758 10.0053
L19.7154 9.7634
" />
<path d="M19.7154 9.7634
L19.7154 9.5820
" />
<path d="M19.7154 9.5820
L19.7758 9.3401
" />
<path d="M19.7758 9.3401
L19.8363 9.2192
" />
<path d="M19.8363 9.2192
L19.9573 9.0982
" />
<path d="M19.9573 9.0982
L20.1387 9.0377
" />
<path d="M20.1387 9.0377
L20.2596 9.0377
" />
<path d="M20.2596 9.0377
L20.4411 9.0982
" />
<path d="M20.4411 9.0982
L20.5015 9.1587
" />
<path d="M21.0458 10.3077
L21.0458 9.0377
" />
<path d="M21.0458 9.0377
L21.5296 9.0377
" />
<path d="M21.5296 9.0377
L21.6506 9.0982
" />
<path d="M21.6506 9.0982
L21.7111 9.1587
" />
<path d="M21.7111 9.1587
L21.7715 9.2796
" />
<path d="M21.7715 9.2796
L21.7715 9.4611
" />
<path d="M21.7715 9.4611
L21.7111 9.5820
" />
<path d="M21.7111 9.5820
L21.6506 9.6425
" />
<path d="M21.6506 9.6425
L21.5296 9.7030
" />
<path d="M21.5296 9.7030
L21.0458 9.7030
" />
<path d="M22.5577 9.0377
L22.7996 9.0377
" />
<path d="M22.7996 9.0377
L22.9206 9.0982
" />
<path d="M22.9206 9.0982
L23.0415 9.2192
" />
<path d="M23.0415 9.2192
L23.1020 9.4611
" />
<path d="M23.1020 9.4611
L23.1020 9.8844
" />
<path d="M23.1020 9.8844
L23.0415 10.1263
" />
<path d="M23.0415 10.1263
L22.9206 10.2473
" />
<path d="M22.9206 10.2473
L22.7996 10.3077
" />
<path d="M22.7996 10.3077
L22.5577 10.3077
" />
<path d="M22.5577 10.3077
L22.4368 10.2473
" />
<path d="M22.4368 10.2473
L22.3158 10.1263
" />
<path d="M22.3158 10.1263
L22.2554 9.8844
" />
<path d="M22.2554 9.8844
L22.2554 9.4611
" />
<path d="M22.2554 9.4611
L22.3158 9.2192
" />
<path d="M22.3158 9.2192
L22.4368 9.0982
" />
<path d="M22.4368 9.0982
L22.5577 9.0377
" />
</g></g>
<g style="fill:none; 
stroke:#A90000; stroke-width:0.1524; stroke-opacity:1; 
stroke-linecap:round; stroke-linejoin:round;">
<text x="25.7302" y="9.4742"
textLength="1.4127" font-size="1.6933" lengthAdjust="spacingAndGlyphs"
text-anchor="middle" opacity="0" stroke-opacity="0">2</text>
<g class="stroked-text"><desc>2</desc>
<path d="M25.3674 8.1617
L25.4278 8.1012
" />
<path d="M25.4278 8.1012
L25.5488 8.0407
" />
<path d="M25.5488 8.0407
L25.8512 8.0407
" />
<path d="M25.8512 8.0407
L25.9721 8.1012
" />
<path d="M25.9721 8.1012
L26.0326 8.1617
" />
<path d="M26.0326 8.1617
L26.0931 8.2826
" />
<path d="M26.0931 8.2826
L26.0931 8.4036
" />
<path d="M26.0931 8.4036
L26.0326 8.5850
" />
<path d="M26.0326 8.5850
L25.3069 9.3107
" />
<path d="M25.3069 9.3107
L26.0931 9.3107
" />
</g></g>
<g style="fill:none; 
stroke:#840000; stroke-width:0.1524; stroke-opacity:1; 
stroke-linecap:round; stroke-linejoin:round;">
<path d="M24.4602 14.8082
L27.0002 14.8082
" />
</g>
<g style="fill:none; 
stroke:#006464; stroke-width:0.1524; stroke-opacity:1; 
stroke-linecap:round; stroke-linejoin:round;">
<text x="23.4442" y="15.4432"
textLength="5.2227" font-size="1.6933" lengthAdjust="spacingAndGlyphs"
text-anchor="end" opacity="0" stroke-opacity="0">I_LED</text>
<g class="stroked-text"><desc>I_LED</desc>
<path d="M18.6268 15.3877
L18.6268 14.1177
" />
<path d="M18.9293 15.5087
L19.8969 15.5087
" />
<path d="M20.8040 15.3877
L20.1992 15.3877
" />
<path d="M20.1992 15.3877
L20.1992 14.1177
" />
<path d="M21.2273 14.7225
L21.6507 14.7225
" />
<path d="M21.8321 15.3877
L21.2273 15.3877
" />
<path d="M21.2273 15.3877
L21.2273 14.1177
" />
<path d="M21.2273 14.1177
L21.8321 14.1177
" />
<path d="M22.3763 15.3877
L22.3763 14.1177
" />
<path d="M22.3763 14.1177
L22.6787 14.1177
" />
<path d="M22.6787 14.1177
L22.8601 14.1782
" />
<path d="M22.8601 14.1782
L22.9811 14.2992
" />
<path d="M22.9811 14.2992
L23.0416 14.4201
" />
<path d="M23.0416 14.4201
L23.1020 14.6620
" />
<path d="M23.1020 14.6620
L23.1020 14.8434
" />
<path d="M23.1020 14.8434
L23.0416 15.0853
" />
<path d="M23.0416 15.0853
L22.9811 15.2063
" />
<path d="M22.9811 15.2063
L22.8601 15.3273
" />
<path d="M22.8601 15.3273
L22.6787 15.3877
" />
<path d="M22.6787 15.3877
L22.3763 15.3877
" />
</g></g>
<g style="fill:none; 
stroke:#A90000; stroke-width:0.1524; stroke-opacity:1; 
stroke-linecap:round; stroke-linejoin:round;">
<text x="25.7302" y="14.5542"
textLength="1.4127" font-size="1.6933" lengthAdjust="spacingAndGlyphs"
text-anchor="middle" opacity="0" stroke-opacity="0">3</text>
<g class="stroked-text"><desc>3</desc>
<path d="M25.3069 13.1207
L26.0931 13.1207
" />
<path d="M26.0931 13.1207
L25.6697 13.6045
" />
<path d="M25.6697 13.6045
L25.8512 13.6045
" />
<path d="M25.8512 13.6045
L25.9721 13.6650
" />
<path d="M25.9721 13.6650
L26.0326 13.7255
" />
<path d="M26.0326 13.7255
L26.0931 13.8464
" />
<path d="M26.0931 13.8464
L26.0931 14.1488
" />
<path d="M26.0931 14.1488
L26.0326 14.2698
" />
<path d="M26.0326 14.2698
L25.9721 14.3303
" />
<path d="M25.9721 14.3303
L25.8512 14.3907
" />
<path d="M25.8512 14.3907
L25.4883 14.3907
" />
<path d="M25.4883 14.3907
L25.3674 14.3303
" />
<path d="M25.3674 14.3303
L25.3069 14.2698
" />
</g></g>
<g style="fill:none; 
stroke:#840000; stroke-width:0.1524; stroke-opacity:1; 
stroke-linecap:round; stroke-linejoin:round;">
<path d="M5.4102 23.6982
L2.8702 23.6982
" />
</g>
<g style="fill:none; 
stroke:#006464; stroke-width:0.1524; stroke-opacity:1; 
stroke-linecap:round; stroke-linejoin:round;">
<text x="6.4262" y="24.3332"
textLength="3.6503" font-size="1.6933" lengthAdjust="spacingAndGlyphs"
text-anchor="start" opacity="0" stroke-opacity="0">ENT</text>
<g class="stroked-text"><desc>ENT</desc>
<path d="M6.8287 23.6125
L7.2521 23.6125
" />
<path d="M7.4335 24.2777
L6.8287 24.2777
" />
<path d="M6.8287 24.2777
L6.8287 23.0077
" />
<path d="M6.8287 23.0077
L7.4335 23.0077
" />
<path d="M7.9777 24.2777
L7.9777 23.0077
" />
<path d="M7.9777 23.0077
L8.7034 24.2777
" />
<path d="M8.7034 24.2777
L8.7034 23.0077
" />
<path d="M9.1268 23.0077
L9.8525 23.0077
" />
<path d="M9.4897 24.2777
L9.4897 23.0077
" />
</g></g>
<g style="fill:none; 
stroke:#A90000; stroke-width:0.1524; stroke-opacity:1; 
stroke-linecap:round; stroke-linejoin:round;">
<text x="4.1402" y="23.4442"
textLength="1.4127" font-size="1.6933" lengthAdjust="spacingAndGlyphs"
text-anchor="middle" opacity="0" stroke-opacity="0">4</text>
<g class="stroked-text"><desc>4</desc>
<path d="M4.3821 22.4341
L4.3821 23.2807
" />
<path d="M4.0797 21.9503
L3.7774 22.8574
" />
<path d="M3.7774 22.8574
L4.5635 22.8574
" />
</g></g>
<g style="fill:none; 
stroke:#840000; stroke-width:0.1524; stroke-opacity:1; 
stroke-linecap:round; stroke-linejoin:round;">
<path d="M16.8402 30.0482
L16.8402 32.5882
" />
</g>
<g style="fill:none; 
stroke:#006464; stroke-width:0.1524; stroke-opacity:1; 
stroke-linecap:round; stroke-linejoin:round;">
<g transform="rotate(-90.000000 16.8402 29.0322)">
<text x="16.8402" y="29.6672"
textLength="6.0693" font-size="1.6933" lengthAdjust="spacingAndGlyphs"
text-anchor="start" opacity="0" stroke-opacity="0">I_SETT</text>
</g>
<g class="stroked-text"><desc>I_SETT</desc>
<path d="M17.4197 28.6296
L16.1497 28.6296
" />
<path d="M17.5407 28.3272
L17.5407 27.3595
" />
<path d="M17.3593 27.1176
L17.4197 26.9362
" />
<path d="M17.4197 26.9362
L17.4197 26.6338
" />
<path d="M17.4197 26.6338
L17.3593 26.5129
" />
<path d="M17.3593 26.5129
L17.2988 26.4524
" />
<path d="M17.2988 26.4524
L17.1778 26.3919
" />
<path d="M17.1778 26.3919
L17.0569 26.3919
" />
<path d="M17.0569 26.3919
L16.9359 26.4524
" />
<path d="M16.9359 26.4524
L16.8754 26.5129
" />
<path d="M16.8754 26.5129
L16.8150 26.6338
" />
<path d="M16.8150 26.6338
L16.7545 26.8757
" />
<path d="M16.7545 26.8757
L16.6940 26.9967
" />
<path d="M16.6940 26.9967
L16.6335 27.0572
" />
<path d="M16.6335 27.0572
L16.5126 27.1176
" />
<path d="M16.5126 27.1176
L16.3916 27.1176
" />
<path d="M16.3916 27.1176
L16.2707 27.0572
" />
<path d="M16.2707 27.0572
L16.2102 26.9967
" />
<path d="M16.2102 26.9967
L16.1497 26.8757
" />
<path d="M16.1497 26.8757
L16.1497 26.5734
" />
<path d="M16.1497 26.5734
L16.2102 26.3919
" />
<path d="M16.7545 25.8477
L16.7545 25.4243
" />
<path d="M17.4197 25.2429
L17.4197 25.8477
" />
<path d="M17.4197 25.8477
L16.1497 25.8477
" />
<path d="M16.1497 25.8477
L16.1497 25.2429
" />
<path d="M16.1497 24.8801
L16.1497 24.1544
" />
<path d="M17.4197 24.5172
L16.1497 24.5172
" />
<path d="M16.1497 23.9125
L16.1497 23.1868
" />
<path d="M17.4197 23.5496
L16.1497 23.5496
" />
</g></g>
<g style="fill:none; 
stroke:#A90000; stroke-width:0.1524; stroke-opacity:1; 
stroke-linecap:round; stroke-linejoin:round;">
<g transform="rotate(-90.000000 16.5862 31.3182)">
<text x="16.5862" y="31.3182"
textLength="1.4127" font-size="1.6933" lengthAdjust="spacingAndGlyphs"
text-anchor="middle" opacity="0" stroke-opacity="0">5</text>
</g>
<g class="stroked-text"><desc>5</desc>
<path d="M15.1527 31.0157
L15.1527 31.6205
" />
<path d="M15.1527 31.6205
L15.7575 31.6809
" />
<path d="M15.7575 31.6809
L15.6970 31.6205
" />
<path d="M15.6970 31.6205
L15.6365 31.4995
" />
<path d="M15.6365 31.4995
L15.6365 31.1971
" />
<path d="M15.6365 31.1971
L15.6970 31.0762
" />
<path d="M15.6970 31.0762
L15.7575 31.0157
" />
<path d="M15.7575 31.0157
L15.8784 30.9552
" />
<path d="M15.8784 30.9552
L16.1808 30.9552
" />
<path d="M16.1808 30.9552
L16.3018 31.0157
" />
<path d="M16.3018 31.0157
L16.3623 31.0762
" />
<path d="M16.3623 31.0762
L16.4227 31.1971
" />
<path d="M16.4227 31.1971
L16.4227 31.4995
" />
<path d="M16.4227 31.4995
L16.3623 31.6205
" />
<path d="M16.3623 31.6205
L16.3018 31.6809
" />
</g></g>
<g style="fill:none; 
stroke:#840000; stroke-width:0.1524; stroke-opacity:1; 
stroke-linecap:round; stroke-linejoin:round;">
<path d="M13.0302 30.0482
L13.0302 32.5882
" />
</g>
<g style="fill:none; 
stroke:#006464; stroke-width:0.1524; stroke-opacity:1; 
stroke-linecap:round; stroke-linejoin:round;">
<g transform="rotate(-90.000000 13.0302 29.0322)">
<text x="13.0302" y="29.6672"
textLength="6.1903" font-size="1.6933" lengthAdjust="spacingAndGlyphs"
text-anchor="start" opacity="0" stroke-opacity="0">I_SETF</text>
</g>
<g class="stroked-text"><desc>I_SETF</desc>
<path d="M13.6097 28.6296
L12.3397 28.6296
" />
<path d="M13.7307 28.3272
L13.7307 27.3595
" />
<path d="M13.5493 27.1176
L13.6097 26.9362
" />
<path d="M13.6097 26.9362
L13.6097 26.6338
" />
<path d="M13.6097 26.6338
L13.5493 26.5129
" />
<path d="M13.5493 26.5129
L13.4888 26.4524
" />
<path d="M13.4888 26.4524
L13.3678 26.3919
" />
<path d="M13.3678 26.3919
L13.2469 26.3919
" />
<path d="M13.2469 26.3919
L13.1259 26.4524
" />
<path d="M13.1259 26.4524
L13.0654 26.5129
" />
<path d="M13.0654 26.5129
L13.0050 26.6338
" />
<path d="M13.0050 26.6338
L12.9445 26.8757
" />
<path d="M12.9445 26.8757
L12.8840 26.9967
" />
<path d="M12.8840 26.9967
L12.8235 27.0572
" />
<path d="M12.8235 27.0572
L12.7026 27.1176
" />
<path d="M12.7026 27.1176
L12.5816 27.1176
" />
<path d="M12.5816 27.1176
L12.4607 27.0572
" />
<path d="M12.4607 27.0572
L12.4002 26.9967
" />
<path d="M12.4002 26.9967
L12.3397 26.8757
" />
<path d="M12.3397 26.8757
L12.3397 26.5734
" />
<path d="M12.3397 26.5734
L12.4002 26.3919
" />
<path d="M12.9445 25.8477
L12.9445 25.4243
" />
<path d="M13.6097 25.2429
L13.6097 25.8477
" />
<path d="M13.6097 25.8477
L12.3397 25.8477
" />
<path d="M12.3397 25.8477
L12.3397 25.2429
" />
<path d="M12.3397 24.8801
L12.3397 24.1544
" />
<path d="M13.6097 24.5172
L12.3397 24.5172
" />
<path d="M12.9445 23.3077
L12.9445 23.7311
" />
<path d="M13.6097 23.7311
L12.3397 23.7311
" />
<path d="M12.3397 23.7311
L12.3397 23.1263
" />
</g></g>
<g style="fill:none; 
stroke:#A90000; stroke-width:0.1524; stroke-opacity:1; 
stroke-linecap:round; stroke-linejoin:round;">
<g transform="rotate(-90.000000 12.7762 31.3182)">
<text x="12.7762" y="31.3182"
textLength="1.4127" font-size="1.6933" lengthAdjust="spacingAndGlyphs"
text-anchor="middle" opacity="0" stroke-opacity="0">6</text>
</g>
<g class="stroked-text"><desc>6</desc>
<path d="M11.3427 31.0762
L11.3427 31.3181
" />
<path d="M11.3427 31.3181
L11.4032 31.4390
" />
<path d="M11.4032 31.4390
L11.4637 31.4995
" />
<path d="M11.4637 31.4995
L11.6451 31.6205
" />
<path d="M11.6451 31.6205
L11.8870 31.6809
" />
<path d="M11.8870 31.6809
L12.3708 31.6809
" />
<path d="M12.3708 31.6809
L12.4918 31.6205
" />
<path d="M12.4918 31.6205
L12.5523 31.5600
" />
<path d="M12.5523 31.5600
L12.6127 31.4390
" />
<path d="M12.6127 31.4390
L12.6127 31.1971
" />
<path d="M12.6127 31.1971
L12.5523 31.0762
" />
<path d="M12.5523 31.0762
L12.4918 31.0157
" />
<path d="M12.4918 31.0157
L12.3708 30.9552
" />
<path d="M12.3708 30.9552
L12.0684 30.9552
" />
<path d="M12.0684 30.9552
L11.9475 31.0157
" />
<path d="M11.9475 31.0157
L11.8870 31.0762
" />
<path d="M11.8870 31.0762
L11.8265 31.1971
" />
<path d="M11.8265 31.1971
L11.8265 31.4390
" />
<path d="M11.8265 31.4390
L11.8870 31.5600
" />
<path d="M11.8870 31.5600
L11.9475 31.6205
" />
<path d="M11.9475 31.6205
L12.0684 31.6809
" />
</g></g>
<g style="fill:none; 
stroke:#840000; stroke-width:0.1524; stroke-opacity:1; 
stroke-linecap:round; stroke-linejoin:round;">
<path d="M5.4102 21.1582
L2.8702 21.1582
" />
</g>
<g style="fill:none; 
stroke:#006464; stroke-width:0.1524; stroke-opacity:1; 
stroke-linecap:round; stroke-linejoin:round;">
<text x="6.4262" y="21.7932"
textLength="3.7713" font-size="1.6933" lengthAdjust="spacingAndGlyphs"
text-anchor="start" opacity="0" stroke-opacity="0">ENF</text>
<g class="stroked-text"><desc>ENF</desc>
<path d="M6.8287 21.0725
L7.2521 21.0725
" />
<path d="M7.4335 21.7377
L6.8287 21.7377
" />
<path d="M6.8287 21.7377
L6.8287 20.4677
" />
<path d="M6.8287 20.4677
L7.4335 20.4677
" />
<path d="M7.9777 21.7377
L7.9777 20.4677
" />
<path d="M7.9777 20.4677
L8.7034 21.7377
" />
<path d="M8.7034 21.7377
L8.7034 20.4677
" />
<path d="M9.7316 21.0725
L9.3082 21.0725
" />
<path d="M9.3082 21.7377
L9.3082 20.4677
" />
<path d="M9.3082 20.4677
L9.9130 20.4677
" />
</g></g>
<g style="fill:none; 
stroke:#A90000; stroke-width:0.1524; stroke-opacity:1; 
stroke-linecap:round; stroke-linejoin:round;">
<text x="4.1402" y="20.9042"
textLength="1.4127" font-size="1.6933" lengthAdjust="spacingAndGlyphs"
text-anchor="middle" opacity="0" stroke-opacity="0">7</text>
<g class="stroked-text"><desc>7</desc>
<path d="M3.7169 19.4707
L4.5635 19.4707
" />
<path d="M4.5635 19.4707
L4.0193 20.7407
" />
</g></g>
<g style="fill:none; 
stroke:#840000; stroke-width:0.1524; stroke-opacity:1; 
stroke-linecap:round; stroke-linejoin:round;">
<path d="M24.4602 21.1582
L27.0002 21.1582
" />
</g>
<g style="fill:none; 
stroke:#006464; stroke-width:0.1524; stroke-opacity:1; 
stroke-linecap:round; stroke-linejoin:round;">
<text x="23.4442" y="21.7932"
textLength="4.0737" font-size="1.6933" lengthAdjust="spacingAndGlyphs"
text-anchor="end" opacity="0" stroke-opacity="0">GND</text>
<g class="stroked-text"><desc>GND</desc>
<path d="M20.4411 20.5282
L20.3201 20.4677
" />
<path d="M20.3201 20.4677
L20.1387 20.4677
" />
<path d="M20.1387 20.4677
L19.9573 20.5282
" />
<path d="M19.9573 20.5282
L19.8363 20.6492
" />
<path d="M19.8363 20.6492
L19.7758 20.7701
" />
<path d="M19.7758 20.7701
L19.7154 21.0120
" />
<path d="M19.7154 21.0120
L19.7154 21.1934
" />
<path d="M19.7154 21.1934
L19.7758 21.4353
" />
<path d="M19.7758 21.4353
L19.8363 21.5563
" />
<path d="M19.8363 21.5563
L19.9573 21.6773
" />
<path d="M19.9573 21.6773
L20.1387 21.7377
" />
<path d="M20.1387 21.7377
L20.2596 21.7377
" />
<path d="M20.2596 21.7377
L20.4411 21.6773
" />
<path d="M20.4411 21.6773
L20.5015 21.6168
" />
<path d="M20.5015 21.6168
L20.5015 21.1934
" />
<path d="M20.5015 21.1934
L20.2596 21.1934
" />
<path d="M21.0458 21.7377
L21.0458 20.4677
" />
<path d="M21.0458 20.4677
L21.7715 21.7377
" />
<path d="M21.7715 21.7377
L21.7715 20.4677
" />
<path d="M22.3763 21.7377
L22.3763 20.4677
" />
<path d="M22.3763 20.4677
L22.6787 20.4677
" />
<path d="M22.6787 20.4677
L22.8601 20.5282
" />
<path d="M22.8601 20.5282
L22.9811 20.6492
" />
<path d="M22.9811 20.6492
L23.0416 20.7701
" />
<path d="M23.0416 20.7701
L23.1020 21.0120
" />
<path d="M23.1020 21.0120
L23.1020 21.1934
" />
<path d="M23.1020 21.1934
L23.0416 21.4353
" />
<path d="M23.0416 21.4353
L22.9811 21.5563
" />
<path d="M22.9811 21.5563
L22.8601 21.6773
" />
<path d="M22.8601 21.6773
L22.6787 21.7377
" />
<path d="M22.6787 21.7377
L22.3763 21.7377
" />
</g></g>
<g style="fill:none; 
stroke:#A90000; stroke-width:0.1524; stroke-opacity:1; 
stroke-linecap:round; stroke-linejoin:round;">
<text x="25.7302" y="20.9042"
textLength="1.4127" font-size="1.6933" lengthAdjust="spacingAndGlyphs"
text-anchor="middle" opacity="0" stroke-opacity="0">8</text>
<g class="stroked-text"><desc>8</desc>
<path d="M25.6093 20.0150
L25.4883 19.9545
" />
<path d="M25.4883 19.9545
L25.4278 19.8941
" />
<path d="M25.4278 19.8941
L25.3674 19.7731
" />
<path d="M25.3674 19.7731
L25.3674 19.7126
" />
<path d="M25.3674 19.7126
L25.4278 19.5917
" />
<path d="M25.4278 19.5917
L25.4883 19.5312
" />
<path d="M25.4883 19.5312
L25.6093 19.4707
" />
<path d="M25.6093 19.4707
L25.8512 19.4707
" />
<path d="M25.8512 19.4707
L25.9721 19.5312
" />
<path d="M25.9721 19.5312
L26.0326 19.5917
" />
<path d="M26.0326 19.5917
L26.0931 19.7126
" />
<path d="M26.0931 19.7126
L26.0931 19.7731
" />
<path d="M26.0931 19.7731
L26.0326 19.8941
" />
<path d="M26.0326 19.8941
L25.9721 19.9545
" />
<path d="M25.9721 19.9545
L25.8512 20.0150
" />
<path d="M25.8512 20.0150
L25.6093 20.0150
" />
<path d="M25.6093 20.0150
L25.4883 20.0755
" />
<path d="M25.4883 20.0755
L25.4278 20.1360
" />
<path d="M25.4278 20.1360
L25.3674 20.2569
" />
<path d="M25.3674 20.2569
L25.3674 20.4988
" />
<path d="M25.3674 20.4988
L25.4278 20.6198
" />
<path d="M25.4278 20.6198
L25.4883 20.6803
" />
<path d="M25.4883 20.6803
L25.6093 20.7407
" />
<path d="M25.6093 20.7407
L25.8512 20.7407
" />
<path d="M25.8512 20.7407
L25.9721 20.6803
" />
<path d="M25.9721 20.6803
L26.0326 20.6198
" />
<path d="M26.0326 20.6198
L26.0931 20.4988
" />
<path d="M26.0931 20.4988
L26.0931 20.2569
" />
<path d="M26.0931 20.2569
L26.0326 20.1360
" />
<path d="M26.0326 20.1360
L25.9721 20.0755
" />
<path d="M25.9721 20.0755
L25.8512 20.0150
" />
</g></g>
<g style="fill:none; 
stroke:#840000; stroke-width:0.1524; stroke-opacity:1; 
stroke-linecap:round; stroke-linejoin:round;">
<path d="M16.8402 5.9182
L16.8402 3.3782
" />
</g>
<g style="fill:none; 
stroke:#006464; stroke-width:0.1524; stroke-opacity:1; 
stroke-linecap:round; stroke-linejoin:round;">
<g transform="rotate(-90.000000 16.8402 6.9342)">
<text x="16.8402" y="7.5692"
textLength="2.9246" font-size="1.6933" lengthAdjust="spacingAndGlyphs"
text-anchor="end" opacity="0" stroke-opacity="0">CM</text>
</g>
<g class="stroked-text"><desc>CM</desc>
<path d="M17.2988 8.7277
L17.3593 8.7881
" />
<path d="M17.3593 8.7881
L17.4197 8.9696
" />
<path d="M17.4197 8.9696
L17.4197 9.0905
" />
<path d="M17.4197 9.0905
L17.3593 9.2719
" />
<path d="M17.3593 9.2719
L17.2383 9.3929
" />
<path d="M17.2383 9.3929
L17.1173 9.4534
" />
<path d="M17.1173 9.4534
L16.8754 9.5138
" />
<path d="M16.8754 9.5138
L16.6940 9.5138
" />
<path d="M16.6940 9.5138
L16.4521 9.4534
" />
<path d="M16.4521 9.4534
L16.3312 9.3929
" />
<path d="M16.3312 9.3929
L16.2102 9.2719
" />
<path d="M16.2102 9.2719
L16.1497 9.0905
" />
<path d="M16.1497 9.0905
L16.1497 8.9696
" />
<path d="M16.1497 8.9696
L16.2102 8.7881
" />
<path d="M16.2102 8.7881
L16.2707 8.7277
" />
<path d="M17.4197 8.1834
L16.1497 8.1834
" />
<path d="M16.1497 8.1834
L17.0569 7.7600
" />
<path d="M17.0569 7.7600
L16.1497 7.3367
" />
<path d="M16.1497 7.3367
L17.4197 7.3367
" />
</g></g>
<g style="fill:none; 
stroke:#A90000; stroke-width:0.1524; stroke-opacity:1; 
stroke-linecap:round; stroke-linejoin:round;">
<g transform="rotate(-90.000000 16.5862 4.6482)">
<text x="16.5862" y="4.6482"
textLength="1.4127" font-size="1.6933" lengthAdjust="spacingAndGlyphs"
text-anchor="middle" opacity="0" stroke-opacity="0">9</text>
</g>
<g class="stroked-text"><desc>9</desc>
<path d="M16.4227 4.8900
L16.4227 4.6481
" />
<path d="M16.4227 4.6481
L16.3623 4.5271
" />
<path d="M16.3623 4.5271
L16.3018 4.4667
" />
<path d="M16.3018 4.4667
L16.1203 4.3457
" />
<path d="M16.1203 4.3457
L15.8784 4.2852
" />
<path d="M15.8784 4.2852
L15.3946 4.2852
" />
<path d="M15.3946 4.2852
L15.2737 4.3457
" />
<path d="M15.2737 4.3457
L15.2132 4.4062
" />
<path d="M15.2132 4.4062
L15.1527 4.5271
" />
<path d="M15.1527 4.5271
L15.1527 4.7690
" />
<path d="M15.1527 4.7690
L15.2132 4.8900
" />
<path d="M15.2132 4.8900
L15.2737 4.9505
" />
<path d="M15.2737 4.9505
L15.3946 5.0109
" />
<path d="M15.3946 5.0109
L15.6970 5.0109
" />
<path d="M15.6970 5.0109
L15.8180 4.9505
" />
<path d="M15.8180 4.9505
L15.8784 4.8900
" />
<path d="M15.8784 4.8900
L15.9389 4.7690
" />
<path d="M15.9389 4.7690
L15.9389 4.5271
" />
<path d="M15.9389 4.5271
L15.8784 4.4062
" />
<path d="M15.8784 4.4062
L15.8180 4.3457
" />
<path d="M15.8180 4.3457
L15.6970 4.2852
" />
</g></g>
<g style="fill:none; 
stroke:#840000; stroke-width:0.1524; stroke-opacity:1; 
stroke-linecap:round; stroke-linejoin:round;">
<path d="M5.4102 9.7282
L2.8702 9.7282
" />
</g>
<g style="fill:none; 
stroke:#006464; stroke-width:0.1524; stroke-opacity:1; 
stroke-linecap:round; stroke-linejoin:round;">
<text x="6.4262" y="10.3632"
textLength="3.2271" font-size="1.6933" lengthAdjust="spacingAndGlyphs"
text-anchor="start" opacity="0" stroke-opacity="0">VIN</text>
<g class="stroked-text"><desc>VIN</desc>
<path d="M6.6473 9.0377
L7.0706 10.3077
" />
<path d="M7.0706 10.3077
L7.4940 9.0377
" />
<path d="M7.9173 10.3077
L7.9173 9.0377
" />
<path d="M8.5221 10.3077
L8.5221 9.0377
" />
<path d="M8.5221 9.0377
L9.2478 10.3077
" />
<path d="M9.2478 10.3077
L9.2478 9.0377
" />
</g></g>
<g style="fill:none; 
stroke:#A90000; stroke-width:0.1524; stroke-opacity:1; 
stroke-linecap:round; stroke-linejoin:round;">
<text x="4.1402" y="9.4742"
textLength="2.6222" font-size="1.6933" lengthAdjust="spacingAndGlyphs"
text-anchor="middle" opacity="0" stroke-opacity="0">10</text>
<g class="stroked-text"><desc>10</desc>
<path d="M3.8983 9.3107
L3.1726 9.3107
" />
<path d="M3.5354 9.3107
L3.5354 8.0407
" />
<path d="M3.5354 8.0407
L3.4145 8.2222
" />
<path d="M3.4145 8.2222
L3.2935 8.3431
" />
<path d="M3.2935 8.3431
L3.1726 8.4036
" />
<path d="M4.6844 8.0407
L4.8054 8.0407
" />
<path d="M4.8054 8.0407
L4.9263 8.1012
" />
<path d="M4.9263 8.1012
L4.9868 8.1617
" />
<path d="M4.9868 8.1617
L5.0473 8.2826
" />
<path d="M5.0473 8.2826
L5.1078 8.5245
" />
<path d="M5.1078 8.5245
L5.1078 8.8269
" />
<path d="M5.1078 8.8269
L5.0473 9.0688
" />
<path d="M5.0473 9.0688
L4.9868 9.1898
" />
<path d="M4.9868 9.1898
L4.9263 9.2503
" />
<path d="M4.9263 9.2503
L4.8054 9.3107
" />
<path d="M4.8054 9.3107
L4.6844 9.3107
" />
<path d="M4.6844 9.3107
L4.5635 9.2503
" />
<path d="M4.5635 9.2503
L4.5030 9.1898
" />
<path d="M4.5030 9.1898
L4.4425 9.0688
" />
<path d="M4.4425 9.0688
L4.3821 8.8269
" />
<path d="M4.3821 8.8269
L4.3821 8.5245
" />
<path d="M4.3821 8.5245
L4.4425 8.2826
" />
<path d="M4.4425 8.2826
L4.5030 8.1617
" />
<path d="M4.5030 8.1617
L4.5635 8.1012
" />
<path d="M4.5635 8.1012
L4.6844 8.0407
" />
</g></g>
<g style="fill:none; 
stroke:#840000; stroke-width:0.1524; stroke-opacity:1; 
stroke-linecap:round; stroke-linejoin:round;">
<path d="M24.4602 23.6982
L27.0002 23.6982
" />
</g>
<g style="fill:none; 
stroke:#006464; stroke-width:0.1524; stroke-opacity:1; 
stroke-linecap:round; stroke-linejoin:round;">
<text x="23.4442" y="24.3332"
textLength="4.0737" font-size="1.6933" lengthAdjust="spacingAndGlyphs"
text-anchor="end" opacity="0" stroke-opacity="0">GND</text>
<g class="stroked-text"><desc>GND</desc>
<path d="M20.4411 23.0682
L20.3201 23.0077
" />
<path d="M20.3201 23.0077
L20.1387 23.0077
" />
<path d="M20.1387 23.0077
L19.9573 23.0682
" />
<path d="M19.9573 23.0682
L19.8363 23.1892
" />
<path d="M19.8363 23.1892
L19.7758 23.3101
" />
<path d="M19.7758 23.3101
L19.7154 23.5520
" />
<path d="M19.7154 23.5520
L19.7154 23.7334
" />
<path d="M19.7154 23.7334
L19.7758 23.9753
" />
<path d="M19.7758 23.9753
L19.8363 24.0963
" />
<path d="M19.8363 24.0963
L19.9573 24.2173
" />
<path d="M19.9573 24.2173
L20.1387 24.2777
" />
<path d="M20.1387 24.2777
L20.2596 24.2777
" />
<path d="M20.2596 24.2777
L20.4411 24.2173
" />
<path d="M20.4411 24.2173
L20.5015 24.1568
" />
<path d="M20.5015 24.1568
L20.5015 23.7334
" />
<path d="M20.5015 23.7334
L20.2596 23.7334
" />
<path d="M21.0458 24.2777
L21.0458 23.0077
" />
<path d="M21.0458 23.0077
L21.7715 24.2777
" />
<path d="M21.7715 24.2777
L21.7715 23.0077
" />
<path d="M22.3763 24.2777
L22.3763 23.0077
" />
<path d="M22.3763 23.0077
L22.6787 23.0077
" />
<path d="M22.6787 23.0077
L22.8601 23.0682
" />
<path d="M22.8601 23.0682
L22.9811 23.1892
" />
<path d="M22.9811 23.1892
L23.0416 23.3101
" />
<path d="M23.0416 23.3101
L23.1020 23.5520
" />
<path d="M23.1020 23.5520
L23.1020 23.7334
" />
<path d="M23.1020 23.7334
L23.0416 23.9753
" />
<path d="M23.0416 23.9753
L22.9811 24.0963
" />
<path d="M22.9811 24.0963
L22.8601 24.2173
" />
<path d="M22.8601 24.2173
L22.6787 24.2777
" />
<path d="M22.6787 24.2777
L22.3763 24.2777
" />
</g></g>
<g style="fill:none; 
stroke:#A90000; stroke-width:0.1524; stroke-opacity:1; 
stroke-linecap:round; stroke-linejoin:round;">
<text x="25.7302" y="23.4442"
textLength="2.6222" font-size="1.6933" lengthAdjust="spacingAndGlyphs"
text-anchor="middle" opacity="0" stroke-opacity="0">11</text>
<g class="stroked-text"><desc>11</desc>
<path d="M25.4883 23.2807
L24.7626 23.2807
" />
<path d="M25.1254 23.2807
L25.1254 22.0107
" />
<path d="M25.1254 22.0107
L25.0045 22.1922
" />
<path d="M25.0045 22.1922
L24.8835 22.3131
" />
<path d="M24.8835 22.3131
L24.7626 22.3736
" />
<path d="M26.6978 23.2807
L25.9721 23.2807
" />
<path d="M26.3349 23.2807
L26.3349 22.0107
" />
<path d="M26.3349 22.0107
L26.2140 22.1922
" />
<path d="M26.2140 22.1922
L26.0930 22.3131
" />
<path d="M26.0930 22.3131
L25.9721 22.3736
" />
</g></g>
<g style="fill:none; 
stroke:#006464; stroke-width:0.1524; stroke-opacity:1; 
stroke-linecap:round; stroke-linejoin:round;">
<text x="5.4102" y="5.2832"
textLength="2.6223" font-size="1.6933" lengthAdjust="spacingAndGlyphs"
text-anchor="middle" opacity="0" stroke-opacity="0">U?</text>
<g class="stroked-text"><desc>U?</desc>
<path d="M4.5030 3.9577
L4.5030 4.9858
" />
<path d="M4.5030 4.9858
L4.5635 5.1068
" />
<path d="M4.5635 5.1068
L4.6240 5.1673
" />
<path d="M4.6240 5.1673
L4.7449 5.2277
" />
<path d="M4.7449 5.2277
L4.9868 5.2277
" />
<path d="M4.9868 5.2277
L5.1078 5.1673
" />
<path d="M5.1078 5.1673
L5.1683 5.1068
" />
<path d="M5.1683 5.1068
L5.2287 4.9858
" />
<path d="M5.2287 4.9858
L5.2287 3.9577
" />
<path d="M6.0150 5.1068
L6.0754 5.1673
" />
<path d="M6.0754 5.1673
L6.0150 5.2277
" />
<path d="M6.0150 5.2277
L5.9545 5.1673
" />
<path d="M5.9545 5.1673
L6.0150 5.1068
" />
<path d="M6.0150 5.1068
L6.0150 5.2277
" />
<path d="M5.7731 4.0182
L5.8940 3.9577
" />
<path d="M5.8940 3.9577
L6.1964 3.9577
" />
<path d="M6.1964 3.9577
L6.3173 4.0182
" />
<path d="M6.3173 4.0182
L6.3778 4.1392
" />
<path d="M6.3778 4.1392
L6.3778 4.2601
" />
<path d="M6.3778 4.2601
L6.3173 4.3811
" />
<path d="M6.3173 4.3811
L6.2569 4.4415
" />
<path d="M6.2569 4.4415
L6.1359 4.5020
" />
<path d="M6.1359 4.5020
L6.0754 4.5625
" />
<path d="M6.0754 4.5625
L6.0150 4.6834
" />
<path d="M6.0150 4.6834
L6.0150 4.7439
" />
</g><text x="21.9202" y="5.2832"
textLength="8.3069" font-size="1.6933" lengthAdjust="spacingAndGlyphs"
text-anchor="middle" opacity="0" stroke-opacity="0">LTC3218</text>
<g class="stroked-text"><desc>LTC3218</desc>
<path d="M18.7755 5.2277
L18.1707 5.2277
" />
<path d="M18.1707 5.2277
L18.1707 3.9577
" />
<path d="M19.0174 3.9577
L19.7431 3.9577
" />
<path d="M19.3803 5.2277
L19.3803 3.9577
" />
<path d="M20.8921 5.1068
L20.8317 5.1673
" />
<path d="M20.8317 5.1673
L20.6502 5.2277
" />
<path d="M20.6502 5.2277
L20.5293 5.2277
" />
<path d="M20.5293 5.2277
L20.3479 5.1673
" />
<path d="M20.3479 5.1673
L20.2269 5.0463
" />
<path d="M20.2269 5.0463
L20.1664 4.9253
" />
<path d="M20.1664 4.9253
L20.1060 4.6834
" />
<path d="M20.1060 4.6834
L20.1060 4.5020
" />
<path d="M20.1060 4.5020
L20.1664 4.2601
" />
<path d="M20.1664 4.2601
L20.2269 4.1392
" />
<path d="M20.2269 4.1392
L20.3479 4.0182
" />
<path d="M20.3479 4.0182
L20.5293 3.9577
" />
<path d="M20.5293 3.9577
L20.6502 3.9577
" />
<path d="M20.6502 3.9577
L20.8317 4.0182
" />
<path d="M20.8317 4.0182
L20.8921 4.0787
" />
<path d="M21.3155 3.9577
L22.1017 3.9577
" />
<path d="M22.1017 3.9577
L21.6783 4.4415
" />
<path d="M21.6783 4.4415
L21.8598 4.4415
" />
<path d="M21.8598 4.4415
L21.9807 4.5020
" />
<path d="M21.9807 4.5020
L22.0412 4.5625
" />
<path d="M22.0412 4.5625
L22.1017 4.6834
" />
<path d="M22.1017 4.6834
L22.1017 4.9858
" />
<path d="M22.1017 4.9858
L22.0412 5.1068
" />
<path d="M22.0412 5.1068
L21.9807 5.1673
" />
<path d="M21.9807 5.1673
L21.8598 5.2277
" />
<path d="M21.8598 5.2277
L21.4969 5.2277
" />
<path d="M21.4969 5.2277
L21.3760 5.1673
" />
<path d="M21.3760 5.1673
L21.3155 5.1068
" />
<path d="M22.5855 4.0787
L22.6459 4.0182
" />
<path d="M22.6459 4.0182
L22.7669 3.9577
" />
<path d="M22.7669 3.9577
L23.0693 3.9577
" />
<path d="M23.0693 3.9577
L23.1902 4.0182
" />
<path d="M23.1902 4.0182
L23.2507 4.0787
" />
<path d="M23.2507 4.0787
L23.3112 4.1996
" />
<path d="M23.3112 4.1996
L23.3112 4.3206
" />
<path d="M23.3112 4.3206
L23.2507 4.5020
" />
<path d="M23.2507 4.5020
L22.5250 5.2277
" />
<path d="M22.5250 5.2277
L23.3112 5.2277
" />
<path d="M24.5207 5.2277
L23.7950 5.2277
" />
<path d="M24.1578 5.2277
L24.1578 3.9577
" />
<path d="M24.1578 3.9577
L24.0369 4.1392
" />
<path d="M24.0369 4.1392
L23.9159 4.2601
" />
<path d="M23.9159 4.2601
L23.7950 4.3206
" />
<path d="M25.2464 4.5020
L25.1254 4.4415
" />
<path d="M25.1254 4.4415
L25.0649 4.3811
" />
<path d="M25.0649 4.3811
L25.0045 4.2601
" />
<path d="M25.0045 4.2601
L25.0045 4.1996
" />
<path d="M25.0045 4.1996
L25.0649 4.0787
" />
<path d="M25.0649 4.0787
L25.1254 4.0182
" />
<path d="M25.1254 4.0182
L25.2464 3.9577
" />
<path d="M25.2464 3.9577
L25.4883 3.9577
" />
<path d="M25.4883 3.9577
L25.6092 4.0182
" />
<path d="M25.6092 4.0182
L25.6697 4.0787
" />
<path d="M25.6697 4.0787
L25.7302 4.1996
" />
<path d="M25.7302 4.1996
L25.7302 4.2601
" />
<path d="M25.7302 4.2601
L25.6697 4.3811
" />
<path d="M25.6697 4.3811
L25.6092 4.4415
" />
<path d="M25.6092 4.4415
L25.4883 4.5020
" />
<path d="M25.4883 4.5020
L25.2464 4.5020
" />
<path d="M25.2464 4.5020
L25.1254 4.5625
" />
<path d="M25.1254 4.5625
L25.0649 4.6230
" />
<path d="M25.0649 4.6230
L25.0045 4.7439
" />
<path d="M25.0045 4.7439
L25.0045 4.9858
" />
<path d="M25.0045 4.9858
L25.0649 5.1068
" />
<path d="M25.0649 5.1068
L25.1254 5.1673
" />
<path d="M25.1254 5.1673
L25.2464 5.2277
" />
<path d="M25.2464 5.2277
L25.4883 5.2277
" />
<path d="M25.4883 5.2277
L25.6092 5.1673
" />
<path d="M25.6092 5.1673
L25.6697 5.1068
" />
<path d="M25.6697 5.1068
L25.7302 4.9858
" />
<path d="M25.7302 4.9858
L25.7302 4.7439
" />
<path d="M25.7302 4.7439
L25.6697 4.6230
" />
<path d="M25.6697 4.6230
L25.6092 4.5625
" />
<path d="M25.6092 4.5625
L25.4883 4.5020
" />
</g></g> 
</svg>
