<?xml version="1.0" standalone="no"?>
 <!DOCTYPE svg PUBLIC "-//W3C//DTD SVG 1.1//EN" 
 "http://www.w3.org/Graphics/SVG/1.1/DTD/svg11.dtd"> 
<svg
  xmlns:svg="http://www.w3.org/2000/svg"
  xmlns="http://www.w3.org/2000/svg"
  xmlns:xlink="http://www.w3.org/1999/xlink"
  xmlns:inkscape="http://www.inkscape.org/namespaces/inkscape"
  version="1.1"
  width="100%" height="100%" viewBox="0.0000 0.0000 33.0200 43.5864">
<title>SVG Image created as MAX14574EWL_unit1.svg date 2026-04-16T03:01:04 </title>
  <desc>Image generated by Eeschema-SVG </desc>
<g style="fill:#000000; fill-opacity:1.0000;stroke:#000000; stroke-opacity:1.0000;
stroke-linecap:round; stroke-linejoin:round;"
 transform="translate(0 0) scale(1 1)">
</g>
<g style="fill:#FFFFC2; fill-opacity:1.0000; stroke:none;">
<rect x="5.668600" y="6.553200" width="15.240000" height="30.480000" rx="0.000000" />
</g>
<g style="fill:none; 
stroke:#840000; stroke-width:0.1524; stroke-opacity:1; 
stroke-linecap:round; stroke-linejoin:round;">
<rect x="5.668600" y="6.553200" width="15.240000" height="30.480000" rx="0.000000" />
<path d="M5.6686 19.2532
L3.1286 19.2532
" />
</g>
<g style="fill:none; 
stroke:#006464; stroke-width:0.1524; stroke-opacity:1; 
stroke-linecap:round; stroke-linejoin:round;">
<text x="6.1766" y="19.8882"
textLength="3.7713" font-size="1.6933" lengthAdjust="spacingAndGlyphs"
text-anchor="start" opacity="0" stroke-opacity="0">SDA</text>
<g class="stroked-text"><desc>SDA</desc>
<path d="M6.5187 19.7723
L6.7001 19.8327
" />
<path d="M6.7001 19.8327
L7.0025 19.8327
" />
<path d="M7.0025 19.8327
L7.1234 19.7723
" />
<path d="M7.1234 19.7723
L7.1839 19.7118
" />
<path d="M7.1839 19.7118
L7.2444 19.5908
" />
<path d="M7.2444 19.5908
L7.2444 19.4699
" />
<path d="M7.2444 19.4699
L7.1839 19.3489
" />
<path d="M7.1839 19.3489
L7.1234 19.2884
" />
<path d="M7.1234 19.2884
L7.0025 19.2280
" />
<path d="M7.0025 19.2280
L6.7606 19.1675
" />
<path d="M6.7606 19.1675
L6.6396 19.1070
" />
<path d="M6.6396 19.1070
L6.5791 19.0465
" />
<path d="M6.5791 19.0465
L6.5187 18.9256
" />
<path d="M6.5187 18.9256
L6.5187 18.8046
" />
<path d="M6.5187 18.8046
L6.5791 18.6837
" />
<path d="M6.5791 18.6837
L6.6396 18.6232
" />
<path d="M6.6396 18.6232
L6.7606 18.5627
" />
<path d="M6.7606 18.5627
L7.0629 18.5627
" />
<path d="M7.0629 18.5627
L7.2444 18.6232
" />
<path d="M7.7886 19.8327
L7.7886 18.5627
" />
<path d="M7.7886 18.5627
L8.0910 18.5627
" />
<path d="M8.0910 18.5627
L8.2724 18.6232
" />
<path d="M8.2724 18.6232
L8.3934 18.7442
" />
<path d="M8.3934 18.7442
L8.4539 18.8651
" />
<path d="M8.4539 18.8651
L8.5143 19.1070
" />
<path d="M8.5143 19.1070
L8.5143 19.2884
" />
<path d="M8.5143 19.2884
L8.4539 19.5303
" />
<path d="M8.4539 19.5303
L8.3934 19.6513
" />
<path d="M8.3934 19.6513
L8.2724 19.7723
" />
<path d="M8.2724 19.7723
L8.0910 19.8327
" />
<path d="M8.0910 19.8327
L7.7886 19.8327
" />
<path d="M8.9982 19.4699
L9.6029 19.4699
" />
<path d="M8.8772 19.8327
L9.3005 18.5627
" />
<path d="M9.3005 18.5627
L9.7239 19.8327
" />
</g></g>
<g style="fill:none; 
stroke:#A90000; stroke-width:0.1524; stroke-opacity:1; 
stroke-linecap:round; stroke-linejoin:round;">
<text x="4.3986" y="18.9992"
textLength="2.5013" font-size="1.6933" lengthAdjust="spacingAndGlyphs"
text-anchor="middle" opacity="0" stroke-opacity="0">A1</text>
<g class="stroked-text"><desc>A1</desc>
<path d="M3.4915 18.4729
L4.0962 18.4729
" />
<path d="M3.3705 18.8357
L3.7938 17.5657
" />
<path d="M3.7938 17.5657
L4.2172 18.8357
" />
<path d="M5.3058 18.8357
L4.5801 18.8357
" />
<path d="M4.9429 18.8357
L4.9429 17.5657
" />
<path d="M4.9429 17.5657
L4.8220 17.7472
" />
<path d="M4.8220 17.7472
L4.7010 17.8681
" />
<path d="M4.7010 17.8681
L4.5801 17.9286
" />
</g></g>
<g style="fill:none; 
stroke:#840000; stroke-width:0.1524; stroke-opacity:1; 
stroke-linecap:round; stroke-linejoin:round;">
<path d="M13.2886 37.0332
L13.2886 39.5732
" />
</g>
<g style="fill:none; 
stroke:#006464; stroke-width:0.1524; stroke-opacity:1; 
stroke-linecap:round; stroke-linejoin:round;">
<g transform="rotate(-90.000000 13.2886 36.5252)">
<text x="13.2886" y="37.1602"
textLength="4.0737" font-size="1.6933" lengthAdjust="spacingAndGlyphs"
text-anchor="start" opacity="0" stroke-opacity="0">GND</text>
</g>
<g class="stroked-text"><desc>GND</desc>
<path d="M12.6586 35.4573
L12.5981 35.5783
" />
<path d="M12.5981 35.5783
L12.5981 35.7597
" />
<path d="M12.5981 35.7597
L12.6586 35.9411
" />
<path d="M12.6586 35.9411
L12.7796 36.0621
" />
<path d="M12.7796 36.0621
L12.9005 36.1226
" />
<path d="M12.9005 36.1226
L13.1424 36.1830
" />
<path d="M13.1424 36.1830
L13.3238 36.1830
" />
<path d="M13.3238 36.1830
L13.5657 36.1226
" />
<path d="M13.5657 36.1226
L13.6867 36.0621
" />
<path d="M13.6867 36.0621
L13.8077 35.9411
" />
<path d="M13.8077 35.9411
L13.8681 35.7597
" />
<path d="M13.8681 35.7597
L13.8681 35.6388
" />
<path d="M13.8681 35.6388
L13.8077 35.4573
" />
<path d="M13.8077 35.4573
L13.7472 35.3969
" />
<path d="M13.7472 35.3969
L13.3238 35.3969
" />
<path d="M13.3238 35.3969
L13.3238 35.6388
" />
<path d="M13.8681 34.8526
L12.5981 34.8526
" />
<path d="M12.5981 34.8526
L13.8681 34.1269
" />
<path d="M13.8681 34.1269
L12.5981 34.1269
" />
<path d="M13.8681 33.5221
L12.5981 33.5221
" />
<path d="M12.5981 33.5221
L12.5981 33.2197
" />
<path d="M12.5981 33.2197
L12.6586 33.0383
" />
<path d="M12.6586 33.0383
L12.7796 32.9173
" />
<path d="M12.7796 32.9173
L12.9005 32.8568
" />
<path d="M12.9005 32.8568
L13.1424 32.7964
" />
<path d="M13.1424 32.7964
L13.3238 32.7964
" />
<path d="M13.3238 32.7964
L13.5657 32.8568
" />
<path d="M13.5657 32.8568
L13.6867 32.9173
" />
<path d="M13.6867 32.9173
L13.8077 33.0383
" />
<path d="M13.8077 33.0383
L13.8681 33.2197
" />
<path d="M13.8681 33.2197
L13.8681 33.5221
" />
</g></g>
<g style="fill:none; 
stroke:#A90000; stroke-width:0.1524; stroke-opacity:1; 
stroke-linecap:round; stroke-linejoin:round;">
<g transform="rotate(-90.000000 13.0346 38.3032)">
<text x="13.0346" y="38.3032"
textLength="2.5013" font-size="1.6933" lengthAdjust="spacingAndGlyphs"
text-anchor="middle" opacity="0" stroke-opacity="0">A2</text>
</g>
<g class="stroked-text"><desc>A2</desc>
<path d="M12.5083 39.2102
L12.5083 38.6055
" />
<path d="M12.8711 39.3312
L11.6011 38.9079
" />
<path d="M11.6011 38.9079
L12.8711 38.4845
" />
<path d="M11.7221 38.1216
L11.6616 38.0612
" />
<path d="M11.6616 38.0612
L11.6011 37.9402
" />
<path d="M11.6011 37.9402
L11.6011 37.6378
" />
<path d="M11.6011 37.6378
L11.6616 37.5169
" />
<path d="M11.6616 37.5169
L11.7221 37.4564
" />
<path d="M11.7221 37.4564
L11.8430 37.3959
" />
<path d="M11.8430 37.3959
L11.9640 37.3959
" />
<path d="M11.9640 37.3959
L12.1454 37.4564
" />
<path d="M12.1454 37.4564
L12.8711 38.1821
" />
<path d="M12.8711 38.1821
L12.8711 37.3959
" />
</g></g>
<g style="fill:none; 
stroke:#840000; stroke-width:0.1524; stroke-opacity:1; 
stroke-linecap:round; stroke-linejoin:round;">
<path d="M5.6686 9.0932
L3.1286 9.0932
" />
</g>
<g style="fill:none; 
stroke:#006464; stroke-width:0.1524; stroke-opacity:1; 
stroke-linecap:round; stroke-linejoin:round;">
<text x="6.1766" y="9.7282"
textLength="3.8318" font-size="1.6933" lengthAdjust="spacingAndGlyphs"
text-anchor="start" opacity="0" stroke-opacity="0">VDD</text>
<g class="stroked-text"><desc>VDD</desc>
<path d="M6.3977 8.4027
L6.8210 9.6727
" />
<path d="M6.8210 9.6727
L7.2444 8.4027
" />
<path d="M7.6677 9.6727
L7.6677 8.4027
" />
<path d="M7.6677 8.4027
L7.9701 8.4027
" />
<path d="M7.9701 8.4027
L8.1515 8.4632
" />
<path d="M8.1515 8.4632
L8.2725 8.5842
" />
<path d="M8.2725 8.5842
L8.3330 8.7051
" />
<path d="M8.3330 8.7051
L8.3934 8.9470
" />
<path d="M8.3934 8.9470
L8.3934 9.1284
" />
<path d="M8.3934 9.1284
L8.3330 9.3703
" />
<path d="M8.3330 9.3703
L8.2725 9.4913
" />
<path d="M8.2725 9.4913
L8.1515 9.6123
" />
<path d="M8.1515 9.6123
L7.9701 9.6727
" />
<path d="M7.9701 9.6727
L7.6677 9.6727
" />
<path d="M8.9377 9.6727
L8.9377 8.4027
" />
<path d="M8.9377 8.4027
L9.2401 8.4027
" />
<path d="M9.2401 8.4027
L9.4215 8.4632
" />
<path d="M9.4215 8.4632
L9.5425 8.5842
" />
<path d="M9.5425 8.5842
L9.6030 8.7051
" />
<path d="M9.6030 8.7051
L9.6634 8.9470
" />
<path d="M9.6634 8.9470
L9.6634 9.1284
" />
<path d="M9.6634 9.1284
L9.6030 9.3703
" />
<path d="M9.6030 9.3703
L9.5425 9.4913
" />
<path d="M9.5425 9.4913
L9.4215 9.6123
" />
<path d="M9.4215 9.6123
L9.2401 9.6727
" />
<path d="M9.2401 9.6727
L8.9377 9.6727
" />
</g></g>
<g style="fill:none; 
stroke:#A90000; stroke-width:0.1524; stroke-opacity:1; 
stroke-linecap:round; stroke-linejoin:round;">
<text x="4.3986" y="8.8392"
textLength="2.5013" font-size="1.6933" lengthAdjust="spacingAndGlyphs"
text-anchor="middle" opacity="0" stroke-opacity="0">A3</text>
<g class="stroked-text"><desc>A3</desc>
<path d="M3.4915 8.3129
L4.0962 8.3129
" />
<path d="M3.3705 8.6757
L3.7938 7.4057
" />
<path d="M3.7938 7.4057
L4.2172 8.6757
" />
<path d="M4.5196 7.4057
L5.3058 7.4057
" />
<path d="M5.3058 7.4057
L4.8824 7.8895
" />
<path d="M4.8824 7.8895
L5.0639 7.8895
" />
<path d="M5.0639 7.8895
L5.1848 7.9500
" />
<path d="M5.1848 7.9500
L5.2453 8.0105
" />
<path d="M5.2453 8.0105
L5.3058 8.1314
" />
<path d="M5.3058 8.1314
L5.3058 8.4338
" />
<path d="M5.3058 8.4338
L5.2453 8.5548
" />
<path d="M5.2453 8.5548
L5.1848 8.6153
" />
<path d="M5.1848 8.6153
L5.0639 8.6757
" />
<path d="M5.0639 8.6757
L4.7010 8.6757
" />
<path d="M4.7010 8.6757
L4.5801 8.6153
" />
<path d="M4.5801 8.6153
L4.5196 8.5548
" />
</g></g>
<g style="fill:none; 
stroke:#840000; stroke-width:0.1524; stroke-opacity:1; 
stroke-linecap:round; stroke-linejoin:round;">
<path d="M13.2886 6.5532
L13.2886 4.0132
" />
</g>
<g style="fill:none; 
stroke:#006464; stroke-width:0.1524; stroke-opacity:1; 
stroke-linecap:round; stroke-linejoin:round;">
<g transform="rotate(-90.000000 13.2886 7.0612)">
<text x="13.2886" y="7.6962"
textLength="2.4408" font-size="1.6933" lengthAdjust="spacingAndGlyphs"
text-anchor="end" opacity="0" stroke-opacity="0">LX</text>
</g>
<g class="stroked-text"><desc>LX</desc>
<path d="M13.8681 8.4918
L13.8681 9.0966
" />
<path d="M13.8681 9.0966
L12.5981 9.0966
" />
<path d="M12.5981 8.1894
L13.8681 7.3428
" />
<path d="M12.5981 7.3428
L13.8681 8.1894
" />
</g></g>
<g style="fill:none; 
stroke:#A90000; stroke-width:0.1524; stroke-opacity:1; 
stroke-linecap:round; stroke-linejoin:round;">
<g transform="rotate(-90.000000 13.0346 5.2832)">
<text x="13.0346" y="5.2832"
textLength="2.5013" font-size="1.6933" lengthAdjust="spacingAndGlyphs"
text-anchor="middle" opacity="0" stroke-opacity="0">A4</text>
</g>
<g class="stroked-text"><desc>A4</desc>
<path d="M12.5083 6.1902
L12.5083 5.5855
" />
<path d="M12.8711 6.3112
L11.6011 5.8879
" />
<path d="M11.6011 5.8879
L12.8711 5.4645
" />
<path d="M12.0245 4.4969
L12.8711 4.4969
" />
<path d="M11.5407 4.7993
L12.4478 5.1016
" />
<path d="M12.4478 5.1016
L12.4478 4.3155
" />
</g></g>
<g style="fill:none; 
stroke:#840000; stroke-width:0.1524; stroke-opacity:1; 
stroke-linecap:round; stroke-linejoin:round;">
<path d="M15.8286 37.0332
L15.8286 39.5732
" />
</g>
<g style="fill:none; 
stroke:#006464; stroke-width:0.1524; stroke-opacity:1; 
stroke-linecap:round; stroke-linejoin:round;">
<g transform="rotate(-90.000000 15.8286 36.5252)">
<text x="15.8286" y="37.1602"
textLength="5.3437" font-size="1.6933" lengthAdjust="spacingAndGlyphs"
text-anchor="start" opacity="0" stroke-opacity="0">PGND</text>
</g>
<g class="stroked-text"><desc>PGND</desc>
<path d="M16.4081 36.1226
L15.1381 36.1226
" />
<path d="M15.1381 36.1226
L15.1381 35.6388
" />
<path d="M15.1381 35.6388
L15.1986 35.5178
" />
<path d="M15.1986 35.5178
L15.2591 35.4573
" />
<path d="M15.2591 35.4573
L15.3800 35.3969
" />
<path d="M15.3800 35.3969
L15.5615 35.3969
" />
<path d="M15.5615 35.3969
L15.6824 35.4573
" />
<path d="M15.6824 35.4573
L15.7429 35.5178
" />
<path d="M15.7429 35.5178
L15.8034 35.6388
" />
<path d="M15.8034 35.6388
L15.8034 36.1226
" />
<path d="M15.1986 34.1873
L15.1381 34.3083
" />
<path d="M15.1381 34.3083
L15.1381 34.4897
" />
<path d="M15.1381 34.4897
L15.1986 34.6711
" />
<path d="M15.1986 34.6711
L15.3196 34.7921
" />
<path d="M15.3196 34.7921
L15.4405 34.8526
" />
<path d="M15.4405 34.8526
L15.6824 34.9130
" />
<path d="M15.6824 34.9130
L15.8638 34.9130
" />
<path d="M15.8638 34.9130
L16.1057 34.8526
" />
<path d="M16.1057 34.8526
L16.2267 34.7921
" />
<path d="M16.2267 34.7921
L16.3477 34.6711
" />
<path d="M16.3477 34.6711
L16.4081 34.4897
" />
<path d="M16.4081 34.4897
L16.4081 34.3688
" />
<path d="M16.4081 34.3688
L16.3477 34.1873
" />
<path d="M16.3477 34.1873
L16.2872 34.1269
" />
<path d="M16.2872 34.1269
L15.8638 34.1269
" />
<path d="M15.8638 34.1269
L15.8638 34.3688
" />
<path d="M16.4081 33.5826
L15.1381 33.5826
" />
<path d="M15.1381 33.5826
L16.4081 32.8569
" />
<path d="M16.4081 32.8569
L15.1381 32.8569
" />
<path d="M16.4081 32.2521
L15.1381 32.2521
" />
<path d="M15.1381 32.2521
L15.1381 31.9497
" />
<path d="M15.1381 31.9497
L15.1986 31.7683
" />
<path d="M15.1986 31.7683
L15.3196 31.6473
" />
<path d="M15.3196 31.6473
L15.4405 31.5868
" />
<path d="M15.4405 31.5868
L15.6824 31.5264
" />
<path d="M15.6824 31.5264
L15.8638 31.5264
" />
<path d="M15.8638 31.5264
L16.1057 31.5868
" />
<path d="M16.1057 31.5868
L16.2267 31.6473
" />
<path d="M16.2267 31.6473
L16.3477 31.7683
" />
<path d="M16.3477 31.7683
L16.4081 31.9497
" />
<path d="M16.4081 31.9497
L16.4081 32.2521
" />
</g></g>
<g style="fill:none; 
stroke:#A90000; stroke-width:0.1524; stroke-opacity:1; 
stroke-linecap:round; stroke-linejoin:round;">
<g transform="rotate(-90.000000 15.5746 38.3032)">
<text x="15.5746" y="38.3032"
textLength="2.5013" font-size="1.6933" lengthAdjust="spacingAndGlyphs"
text-anchor="middle" opacity="0" stroke-opacity="0">A5</text>
</g>
<g class="stroked-text"><desc>A5</desc>
<path d="M15.0483 39.2102
L15.0483 38.6055
" />
<path d="M15.4111 39.3312
L14.1411 38.9079
" />
<path d="M14.1411 38.9079
L15.4111 38.4845
" />
<path d="M14.1411 37.4564
L14.1411 38.0612
" />
<path d="M14.1411 38.0612
L14.7459 38.1216
" />
<path d="M14.7459 38.1216
L14.6854 38.0612
" />
<path d="M14.6854 38.0612
L14.6249 37.9402
" />
<path d="M14.6249 37.9402
L14.6249 37.6378
" />
<path d="M14.6249 37.6378
L14.6854 37.5169
" />
<path d="M14.6854 37.5169
L14.7459 37.4564
" />
<path d="M14.7459 37.4564
L14.8668 37.3959
" />
<path d="M14.8668 37.3959
L15.1692 37.3959
" />
<path d="M15.1692 37.3959
L15.2902 37.4564
" />
<path d="M15.2902 37.4564
L15.3507 37.5169
" />
<path d="M15.3507 37.5169
L15.4111 37.6378
" />
<path d="M15.4111 37.6378
L15.4111 37.9402
" />
<path d="M15.4111 37.9402
L15.3507 38.0612
" />
<path d="M15.3507 38.0612
L15.2902 38.1216
" />
</g></g>
<g style="fill:none; 
stroke:#840000; stroke-width:0.1524; stroke-opacity:1; 
stroke-linecap:round; stroke-linejoin:round;">
<path d="M5.6686 21.7932
L3.1286 21.7932
" />
</g>
<g style="fill:none; 
stroke:#006464; stroke-width:0.1524; stroke-opacity:1; 
stroke-linecap:round; stroke-linejoin:round;">
<text x="6.1766" y="22.4282"
textLength="3.7108" font-size="1.6933" lengthAdjust="spacingAndGlyphs"
text-anchor="start" opacity="0" stroke-opacity="0">SCL</text>
<g class="stroked-text"><desc>SCL</desc>
<path d="M6.5187 22.3123
L6.7001 22.3727
" />
<path d="M6.7001 22.3727
L7.0025 22.3727
" />
<path d="M7.0025 22.3727
L7.1234 22.3123
" />
<path d="M7.1234 22.3123
L7.1839 22.2518
" />
<path d="M7.1839 22.2518
L7.2444 22.1308
" />
<path d="M7.2444 22.1308
L7.2444 22.0099
" />
<path d="M7.2444 22.0099
L7.1839 21.8889
" />
<path d="M7.1839 21.8889
L7.1234 21.8284
" />
<path d="M7.1234 21.8284
L7.0025 21.7680
" />
<path d="M7.0025 21.7680
L6.7606 21.7075
" />
<path d="M6.7606 21.7075
L6.6396 21.6470
" />
<path d="M6.6396 21.6470
L6.5791 21.5865
" />
<path d="M6.5791 21.5865
L6.5187 21.4656
" />
<path d="M6.5187 21.4656
L6.5187 21.3446
" />
<path d="M6.5187 21.3446
L6.5791 21.2237
" />
<path d="M6.5791 21.2237
L6.6396 21.1632
" />
<path d="M6.6396 21.1632
L6.7606 21.1027
" />
<path d="M6.7606 21.1027
L7.0629 21.1027
" />
<path d="M7.0629 21.1027
L7.2444 21.1632
" />
<path d="M8.5143 22.2518
L8.4539 22.3123
" />
<path d="M8.4539 22.3123
L8.2724 22.3727
" />
<path d="M8.2724 22.3727
L8.1515 22.3727
" />
<path d="M8.1515 22.3727
L7.9701 22.3123
" />
<path d="M7.9701 22.3123
L7.8491 22.1913
" />
<path d="M7.8491 22.1913
L7.7886 22.0703
" />
<path d="M7.7886 22.0703
L7.7282 21.8284
" />
<path d="M7.7282 21.8284
L7.7282 21.6470
" />
<path d="M7.7282 21.6470
L7.7886 21.4051
" />
<path d="M7.7886 21.4051
L7.8491 21.2842
" />
<path d="M7.8491 21.2842
L7.9701 21.1632
" />
<path d="M7.9701 21.1632
L8.1515 21.1027
" />
<path d="M8.1515 21.1027
L8.2724 21.1027
" />
<path d="M8.2724 21.1027
L8.4539 21.1632
" />
<path d="M8.4539 21.1632
L8.5143 21.2237
" />
<path d="M9.6634 22.3727
L9.0586 22.3727
" />
<path d="M9.0586 22.3727
L9.0586 21.1027
" />
</g></g>
<g style="fill:none; 
stroke:#A90000; stroke-width:0.1524; stroke-opacity:1; 
stroke-linecap:round; stroke-linejoin:round;">
<text x="4.3986" y="21.5392"
textLength="2.6827" font-size="1.6933" lengthAdjust="spacingAndGlyphs"
text-anchor="middle" opacity="0" stroke-opacity="0">B1</text>
<g class="stroked-text"><desc>B1</desc>
<path d="M3.8846 20.7105
L4.0660 20.7710
" />
<path d="M4.0660 20.7710
L4.1265 20.8314
" />
<path d="M4.1265 20.8314
L4.1869 20.9524
" />
<path d="M4.1869 20.9524
L4.1869 21.1338
" />
<path d="M4.1869 21.1338
L4.1265 21.2548
" />
<path d="M4.1265 21.2548
L4.0660 21.3153
" />
<path d="M4.0660 21.3153
L3.9450 21.3757
" />
<path d="M3.9450 21.3757
L3.4612 21.3757
" />
<path d="M3.4612 21.3757
L3.4612 20.1057
" />
<path d="M3.4612 20.1057
L3.8846 20.1057
" />
<path d="M3.8846 20.1057
L4.0055 20.1662
" />
<path d="M4.0055 20.1662
L4.0660 20.2267
" />
<path d="M4.0660 20.2267
L4.1265 20.3476
" />
<path d="M4.1265 20.3476
L4.1265 20.4686
" />
<path d="M4.1265 20.4686
L4.0660 20.5895
" />
<path d="M4.0660 20.5895
L4.0055 20.6500
" />
<path d="M4.0055 20.6500
L3.8846 20.7105
" />
<path d="M3.8846 20.7105
L3.4612 20.7105
" />
<path d="M5.3965 21.3757
L4.6708 21.3757
" />
<path d="M5.0336 21.3757
L5.0336 20.1057
" />
<path d="M5.0336 20.1057
L4.9127 20.2872
" />
<path d="M4.9127 20.2872
L4.7917 20.4081
" />
<path d="M4.7917 20.4081
L4.6708 20.4686
" />
</g></g>
<g style="fill:none; 
stroke:#840000; stroke-width:0.1524; stroke-opacity:1; 
stroke-linecap:round; stroke-linejoin:round;">
<path d="M5.6686 14.1732
L3.1286 14.1732
" />
</g>
<g style="fill:none; 
stroke:#006464; stroke-width:0.1524; stroke-opacity:1; 
stroke-linecap:round; stroke-linejoin:round;">
<text x="6.1766" y="14.8082"
textLength="2.6827" font-size="1.6933" lengthAdjust="spacingAndGlyphs"
text-anchor="start" opacity="0" stroke-opacity="0">EN</text>
<g class="stroked-text"><desc>EN</desc>
<path d="M6.5791 14.0875
L7.0025 14.0875
" />
<path d="M7.1839 14.7527
L6.5791 14.7527
" />
<path d="M6.5791 14.7527
L6.5791 13.4827
" />
<path d="M6.5791 13.4827
L7.1839 13.4827
" />
<path d="M7.7281 14.7527
L7.7281 13.4827
" />
<path d="M7.7281 13.4827
L8.4538 14.7527
" />
<path d="M8.4538 14.7527
L8.4538 13.4827
" />
</g></g>
<g style="fill:none; 
stroke:#A90000; stroke-width:0.1524; stroke-opacity:1; 
stroke-linecap:round; stroke-linejoin:round;">
<text x="4.3986" y="13.9192"
textLength="2.6827" font-size="1.6933" lengthAdjust="spacingAndGlyphs"
text-anchor="middle" opacity="0" stroke-opacity="0">B2</text>
<g class="stroked-text"><desc>B2</desc>
<path d="M3.8846 13.0905
L4.0660 13.1510
" />
<path d="M4.0660 13.1510
L4.1265 13.2114
" />
<path d="M4.1265 13.2114
L4.1869 13.3324
" />
<path d="M4.1869 13.3324
L4.1869 13.5138
" />
<path d="M4.1869 13.5138
L4.1265 13.6348
" />
<path d="M4.1265 13.6348
L4.0660 13.6953
" />
<path d="M4.0660 13.6953
L3.9450 13.7557
" />
<path d="M3.9450 13.7557
L3.4612 13.7557
" />
<path d="M3.4612 13.7557
L3.4612 12.4857
" />
<path d="M3.4612 12.4857
L3.8846 12.4857
" />
<path d="M3.8846 12.4857
L4.0055 12.5462
" />
<path d="M4.0055 12.5462
L4.0660 12.6067
" />
<path d="M4.0660 12.6067
L4.1265 12.7276
" />
<path d="M4.1265 12.7276
L4.1265 12.8486
" />
<path d="M4.1265 12.8486
L4.0660 12.9695
" />
<path d="M4.0660 12.9695
L4.0055 13.0300
" />
<path d="M4.0055 13.0300
L3.8846 13.0905
" />
<path d="M3.8846 13.0905
L3.4612 13.0905
" />
<path d="M4.6708 12.6067
L4.7312 12.5462
" />
<path d="M4.7312 12.5462
L4.8522 12.4857
" />
<path d="M4.8522 12.4857
L5.1546 12.4857
" />
<path d="M5.1546 12.4857
L5.2755 12.5462
" />
<path d="M5.2755 12.5462
L5.3360 12.6067
" />
<path d="M5.3360 12.6067
L5.3965 12.7276
" />
<path d="M5.3965 12.7276
L5.3965 12.8486
" />
<path d="M5.3965 12.8486
L5.3360 13.0300
" />
<path d="M5.3360 13.0300
L4.6103 13.7557
" />
<path d="M4.6103 13.7557
L5.3965 13.7557
" />
</g></g>
<g style="fill:none; 
stroke:#840000; stroke-width:0.1524; stroke-opacity:1; 
stroke-linecap:round; stroke-linejoin:round;">
<path d="M5.6686 31.9532
L3.1286 31.9532
" />
</g>
<g style="fill:none; 
stroke:#006464; stroke-width:0.1524; stroke-opacity:1; 
stroke-linecap:round; stroke-linejoin:round;">
<text x="6.1766" y="32.5882"
textLength="3.8317" font-size="1.6933" lengthAdjust="spacingAndGlyphs"
text-anchor="start" opacity="0" stroke-opacity="0">TM1</text>
<g class="stroked-text"><desc>TM1</desc>
<path d="M6.3977 31.2627
L7.1234 31.2627
" />
<path d="M6.7606 32.5327
L6.7606 31.2627
" />
<path d="M7.5467 32.5327
L7.5467 31.2627
" />
<path d="M7.5467 31.2627
L7.9701 32.1699
" />
<path d="M7.9701 32.1699
L8.3934 31.2627
" />
<path d="M8.3934 31.2627
L8.3934 32.5327
" />
<path d="M9.6634 32.5327
L8.9377 32.5327
" />
<path d="M9.3005 32.5327
L9.3005 31.2627
" />
<path d="M9.3005 31.2627
L9.1796 31.4442
" />
<path d="M9.1796 31.4442
L9.0586 31.5651
" />
<path d="M9.0586 31.5651
L8.9377 31.6256
" />
</g></g>
<g style="fill:none; 
stroke:#A90000; stroke-width:0.1524; stroke-opacity:1; 
stroke-linecap:round; stroke-linejoin:round;">
<text x="4.3986" y="31.6992"
textLength="2.6827" font-size="1.6933" lengthAdjust="spacingAndGlyphs"
text-anchor="middle" opacity="0" stroke-opacity="0">B3</text>
<g class="stroked-text"><desc>B3</desc>
<path d="M3.8846 30.8705
L4.0660 30.9310
" />
<path d="M4.0660 30.9310
L4.1265 30.9914
" />
<path d="M4.1265 30.9914
L4.1869 31.1124
" />
<path d="M4.1869 31.1124
L4.1869 31.2938
" />
<path d="M4.1869 31.2938
L4.1265 31.4148
" />
<path d="M4.1265 31.4148
L4.0660 31.4753
" />
<path d="M4.0660 31.4753
L3.9450 31.5357
" />
<path d="M3.9450 31.5357
L3.4612 31.5357
" />
<path d="M3.4612 31.5357
L3.4612 30.2657
" />
<path d="M3.4612 30.2657
L3.8846 30.2657
" />
<path d="M3.8846 30.2657
L4.0055 30.3262
" />
<path d="M4.0055 30.3262
L4.0660 30.3867
" />
<path d="M4.0660 30.3867
L4.1265 30.5076
" />
<path d="M4.1265 30.5076
L4.1265 30.6286
" />
<path d="M4.1265 30.6286
L4.0660 30.7495
" />
<path d="M4.0660 30.7495
L4.0055 30.8100
" />
<path d="M4.0055 30.8100
L3.8846 30.8705
" />
<path d="M3.8846 30.8705
L3.4612 30.8705
" />
<path d="M4.6103 30.2657
L5.3965 30.2657
" />
<path d="M5.3965 30.2657
L4.9731 30.7495
" />
<path d="M4.9731 30.7495
L5.1546 30.7495
" />
<path d="M5.1546 30.7495
L5.2755 30.8100
" />
<path d="M5.2755 30.8100
L5.3360 30.8705
" />
<path d="M5.3360 30.8705
L5.3965 30.9914
" />
<path d="M5.3965 30.9914
L5.3965 31.2938
" />
<path d="M5.3965 31.2938
L5.3360 31.4148
" />
<path d="M5.3360 31.4148
L5.2755 31.4753
" />
<path d="M5.2755 31.4753
L5.1546 31.5357
" />
<path d="M5.1546 31.5357
L4.7917 31.5357
" />
<path d="M4.7917 31.5357
L4.6708 31.4753
" />
<path d="M4.6708 31.4753
L4.6103 31.4148
" />
</g></g>
<g style="fill:none; 
stroke:#840000; stroke-width:0.1524; stroke-opacity:1; 
stroke-linecap:round; stroke-linejoin:round;">
<path d="M5.6686 29.4132
L3.1286 29.4132
" />
</g>
<g style="fill:none; 
stroke:#006464; stroke-width:0.1524; stroke-opacity:1; 
stroke-linecap:round; stroke-linejoin:round;">
<text x="6.1766" y="30.0482"
textLength="3.8317" font-size="1.6933" lengthAdjust="spacingAndGlyphs"
text-anchor="start" opacity="0" stroke-opacity="0">TM2</text>
<g class="stroked-text"><desc>TM2</desc>
<path d="M6.3977 28.7227
L7.1234 28.7227
" />
<path d="M6.7606 29.9927
L6.7606 28.7227
" />
<path d="M7.5467 29.9927
L7.5467 28.7227
" />
<path d="M7.5467 28.7227
L7.9701 29.6299
" />
<path d="M7.9701 29.6299
L8.3934 28.7227
" />
<path d="M8.3934 28.7227
L8.3934 29.9927
" />
<path d="M8.9377 28.8437
L8.9981 28.7832
" />
<path d="M8.9981 28.7832
L9.1191 28.7227
" />
<path d="M9.1191 28.7227
L9.4215 28.7227
" />
<path d="M9.4215 28.7227
L9.5424 28.7832
" />
<path d="M9.5424 28.7832
L9.6029 28.8437
" />
<path d="M9.6029 28.8437
L9.6634 28.9646
" />
<path d="M9.6634 28.9646
L9.6634 29.0856
" />
<path d="M9.6634 29.0856
L9.6029 29.2670
" />
<path d="M9.6029 29.2670
L8.8772 29.9927
" />
<path d="M8.8772 29.9927
L9.6634 29.9927
" />
</g></g>
<g style="fill:none; 
stroke:#A90000; stroke-width:0.1524; stroke-opacity:1; 
stroke-linecap:round; stroke-linejoin:round;">
<text x="4.3986" y="29.1592"
textLength="2.6827" font-size="1.6933" lengthAdjust="spacingAndGlyphs"
text-anchor="middle" opacity="0" stroke-opacity="0">B4</text>
<g class="stroked-text"><desc>B4</desc>
<path d="M3.8846 28.3305
L4.0660 28.3910
" />
<path d="M4.0660 28.3910
L4.1265 28.4514
" />
<path d="M4.1265 28.4514
L4.1869 28.5724
" />
<path d="M4.1869 28.5724
L4.1869 28.7538
" />
<path d="M4.1869 28.7538
L4.1265 28.8748
" />
<path d="M4.1265 28.8748
L4.0660 28.9353
" />
<path d="M4.0660 28.9353
L3.9450 28.9957
" />
<path d="M3.9450 28.9957
L3.4612 28.9957
" />
<path d="M3.4612 28.9957
L3.4612 27.7257
" />
<path d="M3.4612 27.7257
L3.8846 27.7257
" />
<path d="M3.8846 27.7257
L4.0055 27.7862
" />
<path d="M4.0055 27.7862
L4.0660 27.8467
" />
<path d="M4.0660 27.8467
L4.1265 27.9676
" />
<path d="M4.1265 27.9676
L4.1265 28.0886
" />
<path d="M4.1265 28.0886
L4.0660 28.2095
" />
<path d="M4.0660 28.2095
L4.0055 28.2700
" />
<path d="M4.0055 28.2700
L3.8846 28.3305
" />
<path d="M3.8846 28.3305
L3.4612 28.3305
" />
<path d="M5.2755 28.1491
L5.2755 28.9957
" />
<path d="M4.9731 27.6653
L4.6708 28.5724
" />
<path d="M4.6708 28.5724
L5.4569 28.5724
" />
</g></g>
<g style="fill:none; 
stroke:#840000; stroke-width:0.1524; stroke-opacity:1; 
stroke-linecap:round; stroke-linejoin:round;">
<path d="M20.9086 9.0932
L23.4486 9.0932
" />
</g>
<g style="fill:none; 
stroke:#006464; stroke-width:0.1524; stroke-opacity:1; 
stroke-linecap:round; stroke-linejoin:round;">
<text x="20.4006" y="9.7282"
textLength="2.6223" font-size="1.6933" lengthAdjust="spacingAndGlyphs"
text-anchor="end" opacity="0" stroke-opacity="0">VH</text>
<g class="stroked-text"><desc>VH</desc>
<path d="M18.0022 8.4027
L18.4255 9.6727
" />
<path d="M18.4255 9.6727
L18.8489 8.4027
" />
<path d="M19.2722 9.6727
L19.2722 8.4027
" />
<path d="M19.2722 9.0075
L19.9979 9.0075
" />
<path d="M19.9979 9.6727
L19.9979 8.4027
" />
</g></g>
<g style="fill:none; 
stroke:#A90000; stroke-width:0.1524; stroke-opacity:1; 
stroke-linecap:round; stroke-linejoin:round;">
<text x="22.1786" y="8.8392"
textLength="2.6827" font-size="1.6933" lengthAdjust="spacingAndGlyphs"
text-anchor="middle" opacity="0" stroke-opacity="0">B5</text>
<g class="stroked-text"><desc>B5</desc>
<path d="M21.6646 8.0105
L21.8460 8.0710
" />
<path d="M21.8460 8.0710
L21.9065 8.1314
" />
<path d="M21.9065 8.1314
L21.9669 8.2524
" />
<path d="M21.9669 8.2524
L21.9669 8.4338
" />
<path d="M21.9669 8.4338
L21.9065 8.5548
" />
<path d="M21.9065 8.5548
L21.8460 8.6153
" />
<path d="M21.8460 8.6153
L21.7250 8.6757
" />
<path d="M21.7250 8.6757
L21.2412 8.6757
" />
<path d="M21.2412 8.6757
L21.2412 7.4057
" />
<path d="M21.2412 7.4057
L21.6646 7.4057
" />
<path d="M21.6646 7.4057
L21.7855 7.4662
" />
<path d="M21.7855 7.4662
L21.8460 7.5267
" />
<path d="M21.8460 7.5267
L21.9065 7.6476
" />
<path d="M21.9065 7.6476
L21.9065 7.7686
" />
<path d="M21.9065 7.7686
L21.8460 7.8895
" />
<path d="M21.8460 7.8895
L21.7855 7.9500
" />
<path d="M21.7855 7.9500
L21.6646 8.0105
" />
<path d="M21.6646 8.0105
L21.2412 8.0105
" />
<path d="M23.1160 7.4057
L22.5112 7.4057
" />
<path d="M22.5112 7.4057
L22.4508 8.0105
" />
<path d="M22.4508 8.0105
L22.5112 7.9500
" />
<path d="M22.5112 7.9500
L22.6322 7.8895
" />
<path d="M22.6322 7.8895
L22.9346 7.8895
" />
<path d="M22.9346 7.8895
L23.0555 7.9500
" />
<path d="M23.0555 7.9500
L23.1160 8.0105
" />
<path d="M23.1160 8.0105
L23.1765 8.1314
" />
<path d="M23.1765 8.1314
L23.1765 8.4338
" />
<path d="M23.1765 8.4338
L23.1160 8.5548
" />
<path d="M23.1160 8.5548
L23.0555 8.6153
" />
<path d="M23.0555 8.6153
L22.9346 8.6757
" />
<path d="M22.9346 8.6757
L22.6322 8.6757
" />
<path d="M22.6322 8.6757
L22.5112 8.6153
" />
<path d="M22.5112 8.6153
L22.4508 8.5548
" />
</g></g>
<g style="fill:none; 
stroke:#840000; stroke-width:0.1524; stroke-opacity:1; 
stroke-linecap:round; stroke-linejoin:round;">
<path d="M20.9086 31.9532
L23.4486 31.9532
" />
</g>
<g style="fill:none; 
stroke:#006464; stroke-width:0.1524; stroke-opacity:1; 
stroke-linecap:round; stroke-linejoin:round;">
<text x="20.4006" y="32.5882"
textLength="4.2551" font-size="1.6933" lengthAdjust="spacingAndGlyphs"
text-anchor="end" opacity="0" stroke-opacity="0">COM</text>
<g class="stroked-text"><desc>COM</desc>
<path d="M17.2765 32.4118
L17.2161 32.4723
" />
<path d="M17.2161 32.4723
L17.0346 32.5327
" />
<path d="M17.0346 32.5327
L16.9137 32.5327
" />
<path d="M16.9137 32.5327
L16.7323 32.4723
" />
<path d="M16.7323 32.4723
L16.6113 32.3513
" />
<path d="M16.6113 32.3513
L16.5508 32.2303
" />
<path d="M16.5508 32.2303
L16.4904 31.9884
" />
<path d="M16.4904 31.9884
L16.4904 31.8070
" />
<path d="M16.4904 31.8070
L16.5508 31.5651
" />
<path d="M16.5508 31.5651
L16.6113 31.4442
" />
<path d="M16.6113 31.4442
L16.7323 31.3232
" />
<path d="M16.7323 31.3232
L16.9137 31.2627
" />
<path d="M16.9137 31.2627
L17.0346 31.2627
" />
<path d="M17.0346 31.2627
L17.2161 31.3232
" />
<path d="M17.2161 31.3232
L17.2765 31.3837
" />
<path d="M18.0627 31.2627
L18.3046 31.2627
" />
<path d="M18.3046 31.2627
L18.4256 31.3232
" />
<path d="M18.4256 31.3232
L18.5465 31.4442
" />
<path d="M18.5465 31.4442
L18.6070 31.6861
" />
<path d="M18.6070 31.6861
L18.6070 32.1094
" />
<path d="M18.6070 32.1094
L18.5465 32.3513
" />
<path d="M18.5465 32.3513
L18.4256 32.4723
" />
<path d="M18.4256 32.4723
L18.3046 32.5327
" />
<path d="M18.3046 32.5327
L18.0627 32.5327
" />
<path d="M18.0627 32.5327
L17.9418 32.4723
" />
<path d="M17.9418 32.4723
L17.8208 32.3513
" />
<path d="M17.8208 32.3513
L17.7604 32.1094
" />
<path d="M17.7604 32.1094
L17.7604 31.6861
" />
<path d="M17.7604 31.6861
L17.8208 31.4442
" />
<path d="M17.8208 31.4442
L17.9418 31.3232
" />
<path d="M17.9418 31.3232
L18.0627 31.2627
" />
<path d="M19.1513 32.5327
L19.1513 31.2627
" />
<path d="M19.1513 31.2627
L19.5747 32.1699
" />
<path d="M19.5747 32.1699
L19.9980 31.2627
" />
<path d="M19.9980 31.2627
L19.9980 32.5327
" />
</g></g>
<g style="fill:none; 
stroke:#A90000; stroke-width:0.1524; stroke-opacity:1; 
stroke-linecap:round; stroke-linejoin:round;">
<text x="22.1786" y="31.6992"
textLength="2.6827" font-size="1.6933" lengthAdjust="spacingAndGlyphs"
text-anchor="middle" opacity="0" stroke-opacity="0">C1</text>
<g class="stroked-text"><desc>C1</desc>
<path d="M21.9669 31.4148
L21.9065 31.4753
" />
<path d="M21.9065 31.4753
L21.7250 31.5357
" />
<path d="M21.7250 31.5357
L21.6041 31.5357
" />
<path d="M21.6041 31.5357
L21.4227 31.4753
" />
<path d="M21.4227 31.4753
L21.3017 31.3543
" />
<path d="M21.3017 31.3543
L21.2412 31.2333
" />
<path d="M21.2412 31.2333
L21.1808 30.9914
" />
<path d="M21.1808 30.9914
L21.1808 30.8100
" />
<path d="M21.1808 30.8100
L21.2412 30.5681
" />
<path d="M21.2412 30.5681
L21.3017 30.4472
" />
<path d="M21.3017 30.4472
L21.4227 30.3262
" />
<path d="M21.4227 30.3262
L21.6041 30.2657
" />
<path d="M21.6041 30.2657
L21.7250 30.2657
" />
<path d="M21.7250 30.2657
L21.9065 30.3262
" />
<path d="M21.9065 30.3262
L21.9669 30.3867
" />
<path d="M23.1765 31.5357
L22.4508 31.5357
" />
<path d="M22.8136 31.5357
L22.8136 30.2657
" />
<path d="M22.8136 30.2657
L22.6927 30.4472
" />
<path d="M22.6927 30.4472
L22.5717 30.5681
" />
<path d="M22.5717 30.5681
L22.4508 30.6286
" />
</g></g>
<g style="fill:none; 
stroke:#840000; stroke-width:0.1524; stroke-opacity:1; 
stroke-linecap:round; stroke-linejoin:round;">
<path d="M20.9086 24.3332
L23.4486 24.3332
" />
</g>
<g style="fill:none; 
stroke:#006464; stroke-width:0.1524; stroke-opacity:1; 
stroke-linecap:round; stroke-linejoin:round;">
<text x="20.4006" y="24.9682"
textLength="3.4689" font-size="1.6933" lengthAdjust="spacingAndGlyphs"
text-anchor="end" opacity="0" stroke-opacity="0">LL4</text>
<g class="stroked-text"><desc>LL4</desc>
<path d="M17.9418 24.9127
L17.3370 24.9127
" />
<path d="M17.3370 24.9127
L17.3370 23.6427
" />
<path d="M18.9699 24.9127
L18.3651 24.9127
" />
<path d="M18.3651 24.9127
L18.3651 23.6427
" />
<path d="M19.9375 24.0661
L19.9375 24.9127
" />
<path d="M19.6351 23.5823
L19.3328 24.4894
" />
<path d="M19.3328 24.4894
L20.1189 24.4894
" />
</g></g>
<g style="fill:none; 
stroke:#A90000; stroke-width:0.1524; stroke-opacity:1; 
stroke-linecap:round; stroke-linejoin:round;">
<text x="22.1786" y="24.0792"
textLength="2.6827" font-size="1.6933" lengthAdjust="spacingAndGlyphs"
text-anchor="middle" opacity="0" stroke-opacity="0">C2</text>
<g class="stroked-text"><desc>C2</desc>
<path d="M21.9669 23.7948
L21.9065 23.8553
" />
<path d="M21.9065 23.8553
L21.7250 23.9157
" />
<path d="M21.7250 23.9157
L21.6041 23.9157
" />
<path d="M21.6041 23.9157
L21.4227 23.8553
" />
<path d="M21.4227 23.8553
L21.3017 23.7343
" />
<path d="M21.3017 23.7343
L21.2412 23.6133
" />
<path d="M21.2412 23.6133
L21.1808 23.3714
" />
<path d="M21.1808 23.3714
L21.1808 23.1900
" />
<path d="M21.1808 23.1900
L21.2412 22.9481
" />
<path d="M21.2412 22.9481
L21.3017 22.8272
" />
<path d="M21.3017 22.8272
L21.4227 22.7062
" />
<path d="M21.4227 22.7062
L21.6041 22.6457
" />
<path d="M21.6041 22.6457
L21.7250 22.6457
" />
<path d="M21.7250 22.6457
L21.9065 22.7062
" />
<path d="M21.9065 22.7062
L21.9669 22.7667
" />
<path d="M22.4508 22.7667
L22.5112 22.7062
" />
<path d="M22.5112 22.7062
L22.6322 22.6457
" />
<path d="M22.6322 22.6457
L22.9346 22.6457
" />
<path d="M22.9346 22.6457
L23.0555 22.7062
" />
<path d="M23.0555 22.7062
L23.1160 22.7667
" />
<path d="M23.1160 22.7667
L23.1765 22.8876
" />
<path d="M23.1765 22.8876
L23.1765 23.0086
" />
<path d="M23.1765 23.0086
L23.1160 23.1900
" />
<path d="M23.1160 23.1900
L22.3903 23.9157
" />
<path d="M22.3903 23.9157
L23.1765 23.9157
" />
</g></g>
<g style="fill:none; 
stroke:#840000; stroke-width:0.1524; stroke-opacity:1; 
stroke-linecap:round; stroke-linejoin:round;">
<path d="M20.9086 21.7932
L23.4486 21.7932
" />
</g>
<g style="fill:none; 
stroke:#006464; stroke-width:0.1524; stroke-opacity:1; 
stroke-linecap:round; stroke-linejoin:round;">
<text x="20.4006" y="22.4282"
textLength="3.4689" font-size="1.6933" lengthAdjust="spacingAndGlyphs"
text-anchor="end" opacity="0" stroke-opacity="0">LL3</text>
<g class="stroked-text"><desc>LL3</desc>
<path d="M17.9418 22.3727
L17.3370 22.3727
" />
<path d="M17.3370 22.3727
L17.3370 21.1027
" />
<path d="M18.9699 22.3727
L18.3651 22.3727
" />
<path d="M18.3651 22.3727
L18.3651 21.1027
" />
<path d="M19.2723 21.1027
L20.0585 21.1027
" />
<path d="M20.0585 21.1027
L19.6351 21.5865
" />
<path d="M19.6351 21.5865
L19.8166 21.5865
" />
<path d="M19.8166 21.5865
L19.9375 21.6470
" />
<path d="M19.9375 21.6470
L19.9980 21.7075
" />
<path d="M19.9980 21.7075
L20.0585 21.8284
" />
<path d="M20.0585 21.8284
L20.0585 22.1308
" />
<path d="M20.0585 22.1308
L19.9980 22.2518
" />
<path d="M19.9980 22.2518
L19.9375 22.3123
" />
<path d="M19.9375 22.3123
L19.8166 22.3727
" />
<path d="M19.8166 22.3727
L19.4537 22.3727
" />
<path d="M19.4537 22.3727
L19.3328 22.3123
" />
<path d="M19.3328 22.3123
L19.2723 22.2518
" />
</g></g>
<g style="fill:none; 
stroke:#A90000; stroke-width:0.1524; stroke-opacity:1; 
stroke-linecap:round; stroke-linejoin:round;">
<text x="22.1786" y="21.5392"
textLength="2.6827" font-size="1.6933" lengthAdjust="spacingAndGlyphs"
text-anchor="middle" opacity="0" stroke-opacity="0">C3</text>
<g class="stroked-text"><desc>C3</desc>
<path d="M21.9669 21.2548
L21.9065 21.3153
" />
<path d="M21.9065 21.3153
L21.7250 21.3757
" />
<path d="M21.7250 21.3757
L21.6041 21.3757
" />
<path d="M21.6041 21.3757
L21.4227 21.3153
" />
<path d="M21.4227 21.3153
L21.3017 21.1943
" />
<path d="M21.3017 21.1943
L21.2412 21.0733
" />
<path d="M21.2412 21.0733
L21.1808 20.8314
" />
<path d="M21.1808 20.8314
L21.1808 20.6500
" />
<path d="M21.1808 20.6500
L21.2412 20.4081
" />
<path d="M21.2412 20.4081
L21.3017 20.2872
" />
<path d="M21.3017 20.2872
L21.4227 20.1662
" />
<path d="M21.4227 20.1662
L21.6041 20.1057
" />
<path d="M21.6041 20.1057
L21.7250 20.1057
" />
<path d="M21.7250 20.1057
L21.9065 20.1662
" />
<path d="M21.9065 20.1662
L21.9669 20.2267
" />
<path d="M22.3903 20.1057
L23.1765 20.1057
" />
<path d="M23.1765 20.1057
L22.7531 20.5895
" />
<path d="M22.7531 20.5895
L22.9346 20.5895
" />
<path d="M22.9346 20.5895
L23.0555 20.6500
" />
<path d="M23.0555 20.6500
L23.1160 20.7105
" />
<path d="M23.1160 20.7105
L23.1765 20.8314
" />
<path d="M23.1765 20.8314
L23.1765 21.1338
" />
<path d="M23.1765 21.1338
L23.1160 21.2548
" />
<path d="M23.1160 21.2548
L23.0555 21.3153
" />
<path d="M23.0555 21.3153
L22.9346 21.3757
" />
<path d="M22.9346 21.3757
L22.5717 21.3757
" />
<path d="M22.5717 21.3757
L22.4508 21.3153
" />
<path d="M22.4508 21.3153
L22.3903 21.2548
" />
</g></g>
<g style="fill:none; 
stroke:#840000; stroke-width:0.1524; stroke-opacity:1; 
stroke-linecap:round; stroke-linejoin:round;">
<path d="M20.9086 19.2532
L23.4486 19.2532
" />
</g>
<g style="fill:none; 
stroke:#006464; stroke-width:0.1524; stroke-opacity:1; 
stroke-linecap:round; stroke-linejoin:round;">
<text x="20.4006" y="19.8882"
textLength="3.4689" font-size="1.6933" lengthAdjust="spacingAndGlyphs"
text-anchor="end" opacity="0" stroke-opacity="0">LL2</text>
<g class="stroked-text"><desc>LL2</desc>
<path d="M17.9418 19.8327
L17.3370 19.8327
" />
<path d="M17.3370 19.8327
L17.3370 18.5627
" />
<path d="M18.9699 19.8327
L18.3651 19.8327
" />
<path d="M18.3651 19.8327
L18.3651 18.5627
" />
<path d="M19.3328 18.6837
L19.3932 18.6232
" />
<path d="M19.3932 18.6232
L19.5142 18.5627
" />
<path d="M19.5142 18.5627
L19.8166 18.5627
" />
<path d="M19.8166 18.5627
L19.9375 18.6232
" />
<path d="M19.9375 18.6232
L19.9980 18.6837
" />
<path d="M19.9980 18.6837
L20.0585 18.8046
" />
<path d="M20.0585 18.8046
L20.0585 18.9256
" />
<path d="M20.0585 18.9256
L19.9980 19.1070
" />
<path d="M19.9980 19.1070
L19.2723 19.8327
" />
<path d="M19.2723 19.8327
L20.0585 19.8327
" />
</g></g>
<g style="fill:none; 
stroke:#A90000; stroke-width:0.1524; stroke-opacity:1; 
stroke-linecap:round; stroke-linejoin:round;">
<text x="22.1786" y="18.9992"
textLength="2.6827" font-size="1.6933" lengthAdjust="spacingAndGlyphs"
text-anchor="middle" opacity="0" stroke-opacity="0">C4</text>
<g class="stroked-text"><desc>C4</desc>
<path d="M21.9669 18.7148
L21.9065 18.7753
" />
<path d="M21.9065 18.7753
L21.7250 18.8357
" />
<path d="M21.7250 18.8357
L21.6041 18.8357
" />
<path d="M21.6041 18.8357
L21.4227 18.7753
" />
<path d="M21.4227 18.7753
L21.3017 18.6543
" />
<path d="M21.3017 18.6543
L21.2412 18.5333
" />
<path d="M21.2412 18.5333
L21.1808 18.2914
" />
<path d="M21.1808 18.2914
L21.1808 18.1100
" />
<path d="M21.1808 18.1100
L21.2412 17.8681
" />
<path d="M21.2412 17.8681
L21.3017 17.7472
" />
<path d="M21.3017 17.7472
L21.4227 17.6262
" />
<path d="M21.4227 17.6262
L21.6041 17.5657
" />
<path d="M21.6041 17.5657
L21.7250 17.5657
" />
<path d="M21.7250 17.5657
L21.9065 17.6262
" />
<path d="M21.9065 17.6262
L21.9669 17.6867
" />
<path d="M23.0555 17.9891
L23.0555 18.8357
" />
<path d="M22.7531 17.5053
L22.4508 18.4124
" />
<path d="M22.4508 18.4124
L23.2369 18.4124
" />
</g></g>
<g style="fill:none; 
stroke:#840000; stroke-width:0.1524; stroke-opacity:1; 
stroke-linecap:round; stroke-linejoin:round;">
<path d="M20.9086 16.7132
L23.4486 16.7132
" />
</g>
<g style="fill:none; 
stroke:#006464; stroke-width:0.1524; stroke-opacity:1; 
stroke-linecap:round; stroke-linejoin:round;">
<text x="20.4006" y="17.3482"
textLength="3.4689" font-size="1.6933" lengthAdjust="spacingAndGlyphs"
text-anchor="end" opacity="0" stroke-opacity="0">LL1</text>
<g class="stroked-text"><desc>LL1</desc>
<path d="M17.9418 17.2927
L17.3370 17.2927
" />
<path d="M17.3370 17.2927
L17.3370 16.0227
" />
<path d="M18.9699 17.2927
L18.3651 17.2927
" />
<path d="M18.3651 17.2927
L18.3651 16.0227
" />
<path d="M20.0585 17.2927
L19.3328 17.2927
" />
<path d="M19.6956 17.2927
L19.6956 16.0227
" />
<path d="M19.6956 16.0227
L19.5747 16.2042
" />
<path d="M19.5747 16.2042
L19.4537 16.3251
" />
<path d="M19.4537 16.3251
L19.3328 16.3856
" />
</g></g>
<g style="fill:none; 
stroke:#A90000; stroke-width:0.1524; stroke-opacity:1; 
stroke-linecap:round; stroke-linejoin:round;">
<text x="22.1786" y="16.4592"
textLength="2.6827" font-size="1.6933" lengthAdjust="spacingAndGlyphs"
text-anchor="middle" opacity="0" stroke-opacity="0">C5</text>
<g class="stroked-text"><desc>C5</desc>
<path d="M21.9669 16.1748
L21.9065 16.2353
" />
<path d="M21.9065 16.2353
L21.7250 16.2957
" />
<path d="M21.7250 16.2957
L21.6041 16.2957
" />
<path d="M21.6041 16.2957
L21.4227 16.2353
" />
<path d="M21.4227 16.2353
L21.3017 16.1143
" />
<path d="M21.3017 16.1143
L21.2412 15.9933
" />
<path d="M21.2412 15.9933
L21.1808 15.7514
" />
<path d="M21.1808 15.7514
L21.1808 15.5700
" />
<path d="M21.1808 15.5700
L21.2412 15.3281
" />
<path d="M21.2412 15.3281
L21.3017 15.2072
" />
<path d="M21.3017 15.2072
L21.4227 15.0862
" />
<path d="M21.4227 15.0862
L21.6041 15.0257
" />
<path d="M21.6041 15.0257
L21.7250 15.0257
" />
<path d="M21.7250 15.0257
L21.9065 15.0862
" />
<path d="M21.9065 15.0862
L21.9669 15.1467
" />
<path d="M23.1160 15.0257
L22.5112 15.0257
" />
<path d="M22.5112 15.0257
L22.4508 15.6305
" />
<path d="M22.4508 15.6305
L22.5112 15.5700
" />
<path d="M22.5112 15.5700
L22.6322 15.5095
" />
<path d="M22.6322 15.5095
L22.9346 15.5095
" />
<path d="M22.9346 15.5095
L23.0555 15.5700
" />
<path d="M23.0555 15.5700
L23.1160 15.6305
" />
<path d="M23.1160 15.6305
L23.1765 15.7514
" />
<path d="M23.1765 15.7514
L23.1765 16.0538
" />
<path d="M23.1765 16.0538
L23.1160 16.1748
" />
<path d="M23.1160 16.1748
L23.0555 16.2353
" />
<path d="M23.0555 16.2353
L22.9346 16.2957
" />
<path d="M22.9346 16.2957
L22.6322 16.2957
" />
<path d="M22.6322 16.2957
L22.5112 16.2353
" />
<path d="M22.5112 16.2353
L22.4508 16.1748
" />
</g></g>
<g style="fill:none; 
stroke:#006464; stroke-width:0.1524; stroke-opacity:1; 
stroke-linecap:round; stroke-linejoin:round;">
<text x="6.9386" y="5.9182"
textLength="2.6223" font-size="1.6933" lengthAdjust="spacingAndGlyphs"
text-anchor="middle" opacity="0" stroke-opacity="0">U?</text>
<g class="stroked-text"><desc>U?</desc>
<path d="M6.0314 4.5927
L6.0314 5.6208
" />
<path d="M6.0314 5.6208
L6.0919 5.7418
" />
<path d="M6.0919 5.7418
L6.1524 5.8023
" />
<path d="M6.1524 5.8023
L6.2733 5.8627
" />
<path d="M6.2733 5.8627
L6.5152 5.8627
" />
<path d="M6.5152 5.8627
L6.6362 5.8023
" />
<path d="M6.6362 5.8023
L6.6967 5.7418
" />
<path d="M6.6967 5.7418
L6.7571 5.6208
" />
<path d="M6.7571 5.6208
L6.7571 4.5927
" />
<path d="M7.5434 5.7418
L7.6038 5.8023
" />
<path d="M7.6038 5.8023
L7.5434 5.8627
" />
<path d="M7.5434 5.8627
L7.4829 5.8023
" />
<path d="M7.4829 5.8023
L7.5434 5.7418
" />
<path d="M7.5434 5.7418
L7.5434 5.8627
" />
<path d="M7.3015 4.6532
L7.4224 4.5927
" />
<path d="M7.4224 4.5927
L7.7248 4.5927
" />
<path d="M7.7248 4.5927
L7.8457 4.6532
" />
<path d="M7.8457 4.6532
L7.9062 4.7742
" />
<path d="M7.9062 4.7742
L7.9062 4.8951
" />
<path d="M7.9062 4.8951
L7.8457 5.0161
" />
<path d="M7.8457 5.0161
L7.7853 5.0765
" />
<path d="M7.7853 5.0765
L7.6643 5.1370
" />
<path d="M7.6643 5.1370
L7.6038 5.1975
" />
<path d="M7.6038 5.1975
L7.5434 5.3184
" />
<path d="M7.5434 5.3184
L7.5434 5.3789
" />
</g><text x="23.4486" y="5.9182"
textLength="13.6287" font-size="1.6933" lengthAdjust="spacingAndGlyphs"
text-anchor="middle" opacity="0" stroke-opacity="0">MAX14574EWL</text>
<g class="stroked-text"><desc>MAX14574EWL</desc>
<path d="M17.0382 5.8627
L17.0382 4.5927
" />
<path d="M17.0382 4.5927
L17.4616 5.4999
" />
<path d="M17.4616 5.4999
L17.8849 4.5927
" />
<path d="M17.8849 4.5927
L17.8849 5.8627
" />
<path d="M18.4292 5.4999
L19.0339 5.4999
" />
<path d="M18.3082 5.8627
L18.7315 4.5927
" />
<path d="M18.7315 4.5927
L19.1549 5.8627
" />
<path d="M19.4573 4.5927
L20.3039 5.8627
" />
<path d="M20.3039 4.5927
L19.4573 5.8627
" />
<path d="M21.4530 5.8627
L20.7273 5.8627
" />
<path d="M21.0901 5.8627
L21.0901 4.5927
" />
<path d="M21.0901 4.5927
L20.9692 4.7742
" />
<path d="M20.9692 4.7742
L20.8482 4.8951
" />
<path d="M20.8482 4.8951
L20.7273 4.9556
" />
<path d="M22.5415 5.0161
L22.5415 5.8627
" />
<path d="M22.2391 4.5323
L21.9368 5.4394
" />
<path d="M21.9368 5.4394
L22.7229 5.4394
" />
<path d="M23.8115 4.5927
L23.2067 4.5927
" />
<path d="M23.2067 4.5927
L23.1463 5.1975
" />
<path d="M23.1463 5.1975
L23.2067 5.1370
" />
<path d="M23.2067 5.1370
L23.3277 5.0765
" />
<path d="M23.3277 5.0765
L23.6301 5.0765
" />
<path d="M23.6301 5.0765
L23.7510 5.1370
" />
<path d="M23.7510 5.1370
L23.8115 5.1975
" />
<path d="M23.8115 5.1975
L23.8720 5.3184
" />
<path d="M23.8720 5.3184
L23.8720 5.6208
" />
<path d="M23.8720 5.6208
L23.8115 5.7418
" />
<path d="M23.8115 5.7418
L23.7510 5.8023
" />
<path d="M23.7510 5.8023
L23.6301 5.8627
" />
<path d="M23.6301 5.8627
L23.3277 5.8627
" />
<path d="M23.3277 5.8627
L23.2067 5.8023
" />
<path d="M23.2067 5.8023
L23.1463 5.7418
" />
<path d="M24.2953 4.5927
L25.1419 4.5927
" />
<path d="M25.1419 4.5927
L24.5977 5.8627
" />
<path d="M26.1700 5.0161
L26.1700 5.8627
" />
<path d="M25.8676 4.5323
L25.5653 5.4394
" />
<path d="M25.5653 5.4394
L26.3514 5.4394
" />
<path d="M26.8352 5.1975
L27.2586 5.1975
" />
<path d="M27.4400 5.8627
L26.8352 5.8627
" />
<path d="M26.8352 5.8627
L26.8352 4.5927
" />
<path d="M26.8352 4.5927
L27.4400 4.5927
" />
<path d="M27.8633 4.5927
L28.1657 5.8627
" />
<path d="M28.1657 5.8627
L28.4076 4.9556
" />
<path d="M28.4076 4.9556
L28.6495 5.8627
" />
<path d="M28.6495 5.8627
L28.9519 4.5927
" />
<path d="M30.0404 5.8627
L29.4356 5.8627
" />
<path d="M29.4356 5.8627
L29.4356 4.5927
" />
</g></g> 
</svg>
