<?xml version="1.0" standalone="no"?>
 <!DOCTYPE svg PUBLIC "-//W3C//DTD SVG 1.1//EN" 
 "http://www.w3.org/Graphics/SVG/1.1/DTD/svg11.dtd"> 
<svg
  xmlns:svg="http://www.w3.org/2000/svg"
  xmlns="http://www.w3.org/2000/svg"
  xmlns:xlink="http://www.w3.org/1999/xlink"
  xmlns:inkscape="http://www.inkscape.org/namespaces/inkscape"
  version="1.1"
  width="100%" height="100%" viewBox="0.0000 0.0000 43.5864 24.5364">
<title>SVG Image created as max15032_unit1.svg date 2026-04-16T04:55:40 </title>
  <desc>Image generated by Eeschema-SVG </desc>
<g style="fill:#000000; fill-opacity:1.0000;stroke:#000000; stroke-opacity:1.0000;
stroke-linecap:round; stroke-linejoin:round;"
 transform="translate(0 0) scale(1 1)">
</g>
<g style="fill:#FFFFC2; fill-opacity:1.0000; stroke:none;">
<rect x="9.093200" y="4.587500" width="25.400000" height="17.780000" rx="0.000000" />
<path style="fill:none; 
stroke:#840000; stroke-width:0.1270; stroke-opacity:1; 
stroke-linecap:round; stroke-linejoin:round;fill:none"
d="M 8.5725,7.8768
7.5311,8.3975
" /> 
<path style="fill:none; 
stroke:#840000; stroke-width:0.1270; stroke-opacity:1; 
stroke-linecap:round; stroke-linejoin:round;fill:none"
d="M 8.5725,8.9182
7.5311,8.3975
" /> 
<path style="fill:none; 
stroke:#840000; stroke-width:0.1270; stroke-opacity:1; 
stroke-linecap:round; stroke-linejoin:round;fill:none"
d="M 8.5725,13.4775
7.5311,12.9568
" /> 
<path style="fill:none; 
stroke:#840000; stroke-width:0.1270; stroke-opacity:1; 
stroke-linecap:round; stroke-linejoin:round;fill:none"
d="M 8.5725,13.4775
7.5311,13.9982
" /> 
<path style="fill:none; 
stroke:#840000; stroke-width:0.1270; stroke-opacity:1; 
stroke-linecap:round; stroke-linejoin:round;fill:none"
d="M 8.5725,16.0175
7.5311,15.4968
" /> 
<path style="fill:none; 
stroke:#840000; stroke-width:0.1270; stroke-opacity:1; 
stroke-linecap:round; stroke-linejoin:round;fill:none"
d="M 8.5725,16.0175
7.5311,16.5382
" /> 
<path style="fill:none; 
stroke:#840000; stroke-width:0.1270; stroke-opacity:1; 
stroke-linecap:round; stroke-linejoin:round;fill:none"
d="M 35.0139,13.4775
36.0553,12.9568
" /> 
<path style="fill:none; 
stroke:#840000; stroke-width:0.1270; stroke-opacity:1; 
stroke-linecap:round; stroke-linejoin:round;fill:none"
d="M 35.0139,13.4775
36.0553,13.9982
" /> 
<path style="fill:none; 
stroke:#840000; stroke-width:0.1270; stroke-opacity:1; 
stroke-linecap:round; stroke-linejoin:round;fill:none"
d="M 35.0139,16.0175
36.0553,15.4968
" /> 
<path style="fill:none; 
stroke:#840000; stroke-width:0.1270; stroke-opacity:1; 
stroke-linecap:round; stroke-linejoin:round;fill:none"
d="M 35.0139,16.0175
36.0553,16.5382
" /> 
<path style="fill:none; 
stroke:#840000; stroke-width:0.1270; stroke-opacity:1; 
stroke-linecap:round; stroke-linejoin:round;fill:none"
d="M 35.0139,18.5575
36.0553,18.0368
" /> 
<path style="fill:none; 
stroke:#840000; stroke-width:0.1270; stroke-opacity:1; 
stroke-linecap:round; stroke-linejoin:round;fill:none"
d="M 35.0139,18.5575
36.0553,19.0782
" /> 
</g>
<g style="fill:none; 
stroke:#840000; stroke-width:0.2540; stroke-opacity:1; 
stroke-linecap:round; stroke-linejoin:round;">
<rect x="9.093200" y="4.587500" width="25.400000" height="17.780000" rx="0.000000" />
</g>
<g style="fill:none; 
stroke:#840000; stroke-width:0.1524; stroke-opacity:1; 
stroke-linecap:round; stroke-linejoin:round;">
<path d="M9.0932 8.3975
L4.0132 8.3975
" />
</g>
<g style="fill:none; 
stroke:#006464; stroke-width:0.1524; stroke-opacity:1; 
stroke-linecap:round; stroke-linejoin:round;">
<text x="9.6012" y="9.0325"
textLength="2.4408" font-size="1.6933" lengthAdjust="spacingAndGlyphs"
text-anchor="start" opacity="0" stroke-opacity="0">LX</text>
<g class="stroked-text"><desc>LX</desc>
<path d="M10.6085 8.9770
L10.0037 8.9770
" />
<path d="M10.0037 8.9770
L10.0037 7.7070
" />
<path d="M10.9109 7.7070
L11.7575 8.9770
" />
<path d="M11.7575 7.7070
L10.9109 8.9770
" />
</g></g>
<g style="fill:none; 
stroke:#A90000; stroke-width:0.1524; stroke-opacity:1; 
stroke-linecap:round; stroke-linejoin:round;">
<text x="6.5532" y="8.1435"
textLength="1.4127" font-size="1.6933" lengthAdjust="spacingAndGlyphs"
text-anchor="middle" opacity="0" stroke-opacity="0">1</text>
<g class="stroked-text"><desc>1</desc>
<path d="M6.9161 7.9800
L6.1904 7.9800
" />
<path d="M6.5532 7.9800
L6.5532 6.7100
" />
<path d="M6.5532 6.7100
L6.4323 6.8915
" />
<path d="M6.4323 6.8915
L6.3113 7.0124
" />
<path d="M6.3113 7.0124
L6.1904 7.0729
" />
</g></g>
<g style="fill:none; 
stroke:#840000; stroke-width:0.1524; stroke-opacity:1; 
stroke-linecap:round; stroke-linejoin:round;">
<path d="M9.0932 10.9375
L4.0132 10.9375
" />
</g>
<g style="fill:none; 
stroke:#006464; stroke-width:0.1524; stroke-opacity:1; 
stroke-linecap:round; stroke-linejoin:round;">
<text x="9.6012" y="11.5725"
textLength="4.0737" font-size="1.6933" lengthAdjust="spacingAndGlyphs"
text-anchor="start" opacity="0" stroke-opacity="0">GND</text>
<g class="stroked-text"><desc>GND</desc>
<path d="M10.6690 10.3075
L10.5480 10.2470
" />
<path d="M10.5480 10.2470
L10.3666 10.2470
" />
<path d="M10.3666 10.2470
L10.1852 10.3075
" />
<path d="M10.1852 10.3075
L10.0642 10.4285
" />
<path d="M10.0642 10.4285
L10.0037 10.5494
" />
<path d="M10.0037 10.5494
L9.9433 10.7913
" />
<path d="M9.9433 10.7913
L9.9433 10.9727
" />
<path d="M9.9433 10.9727
L10.0037 11.2146
" />
<path d="M10.0037 11.2146
L10.0642 11.3356
" />
<path d="M10.0642 11.3356
L10.1852 11.4566
" />
<path d="M10.1852 11.4566
L10.3666 11.5170
" />
<path d="M10.3666 11.5170
L10.4875 11.5170
" />
<path d="M10.4875 11.5170
L10.6690 11.4566
" />
<path d="M10.6690 11.4566
L10.7294 11.3961
" />
<path d="M10.7294 11.3961
L10.7294 10.9727
" />
<path d="M10.7294 10.9727
L10.4875 10.9727
" />
<path d="M11.2737 11.5170
L11.2737 10.2470
" />
<path d="M11.2737 10.2470
L11.9994 11.5170
" />
<path d="M11.9994 11.5170
L11.9994 10.2470
" />
<path d="M12.6042 11.5170
L12.6042 10.2470
" />
<path d="M12.6042 10.2470
L12.9066 10.2470
" />
<path d="M12.9066 10.2470
L13.0880 10.3075
" />
<path d="M13.0880 10.3075
L13.2090 10.4285
" />
<path d="M13.2090 10.4285
L13.2695 10.5494
" />
<path d="M13.2695 10.5494
L13.3299 10.7913
" />
<path d="M13.3299 10.7913
L13.3299 10.9727
" />
<path d="M13.3299 10.9727
L13.2695 11.2146
" />
<path d="M13.2695 11.2146
L13.2090 11.3356
" />
<path d="M13.2090 11.3356
L13.0880 11.4566
" />
<path d="M13.0880 11.4566
L12.9066 11.5170
" />
<path d="M12.9066 11.5170
L12.6042 11.5170
" />
</g></g>
<g style="fill:none; 
stroke:#A90000; stroke-width:0.1524; stroke-opacity:1; 
stroke-linecap:round; stroke-linejoin:round;">
<text x="6.5532" y="10.6835"
textLength="1.4127" font-size="1.6933" lengthAdjust="spacingAndGlyphs"
text-anchor="middle" opacity="0" stroke-opacity="0">2</text>
<g class="stroked-text"><desc>2</desc>
<path d="M6.1904 9.3710
L6.2508 9.3105
" />
<path d="M6.2508 9.3105
L6.3718 9.2500
" />
<path d="M6.3718 9.2500
L6.6742 9.2500
" />
<path d="M6.6742 9.2500
L6.7951 9.3105
" />
<path d="M6.7951 9.3105
L6.8556 9.3710
" />
<path d="M6.8556 9.3710
L6.9161 9.4919
" />
<path d="M6.9161 9.4919
L6.9161 9.6129
" />
<path d="M6.9161 9.6129
L6.8556 9.7943
" />
<path d="M6.8556 9.7943
L6.1299 10.5200
" />
<path d="M6.1299 10.5200
L6.9161 10.5200
" />
</g></g>
<g style="fill:none; 
stroke:#840000; stroke-width:0.1524; stroke-opacity:1; 
stroke-linecap:round; stroke-linejoin:round;">
<path d="M9.0932 13.4775
L4.0132 13.4775
" />
</g>
<g style="fill:none; 
stroke:#006464; stroke-width:0.1524; stroke-opacity:1; 
stroke-linecap:round; stroke-linejoin:round;">
<text x="9.6012" y="14.1125"
textLength="2.5618" font-size="1.6933" lengthAdjust="spacingAndGlyphs"
text-anchor="start" opacity="0" stroke-opacity="0">FB</text>
<g class="stroked-text"><desc>FB</desc>
<path d="M10.4271 13.3918
L10.0037 13.3918
" />
<path d="M10.0037 14.0570
L10.0037 12.7870
" />
<path d="M10.0037 12.7870
L10.6085 12.7870
" />
<path d="M11.5157 13.3918
L11.6971 13.4523
" />
<path d="M11.6971 13.4523
L11.7576 13.5127
" />
<path d="M11.7576 13.5127
L11.8180 13.6337
" />
<path d="M11.8180 13.6337
L11.8180 13.8151
" />
<path d="M11.8180 13.8151
L11.7576 13.9361
" />
<path d="M11.7576 13.9361
L11.6971 13.9966
" />
<path d="M11.6971 13.9966
L11.5761 14.0570
" />
<path d="M11.5761 14.0570
L11.0923 14.0570
" />
<path d="M11.0923 14.0570
L11.0923 12.7870
" />
<path d="M11.0923 12.7870
L11.5157 12.7870
" />
<path d="M11.5157 12.7870
L11.6366 12.8475
" />
<path d="M11.6366 12.8475
L11.6971 12.9080
" />
<path d="M11.6971 12.9080
L11.7576 13.0289
" />
<path d="M11.7576 13.0289
L11.7576 13.1499
" />
<path d="M11.7576 13.1499
L11.6971 13.2708
" />
<path d="M11.6971 13.2708
L11.6366 13.3313
" />
<path d="M11.6366 13.3313
L11.5157 13.3918
" />
<path d="M11.5157 13.3918
L11.0923 13.3918
" />
</g></g>
<g style="fill:none; 
stroke:#A90000; stroke-width:0.1524; stroke-opacity:1; 
stroke-linecap:round; stroke-linejoin:round;">
<text x="6.5532" y="13.2235"
textLength="1.4127" font-size="1.6933" lengthAdjust="spacingAndGlyphs"
text-anchor="middle" opacity="0" stroke-opacity="0">3</text>
<g class="stroked-text"><desc>3</desc>
<path d="M6.1299 11.7900
L6.9161 11.7900
" />
<path d="M6.9161 11.7900
L6.4927 12.2738
" />
<path d="M6.4927 12.2738
L6.6742 12.2738
" />
<path d="M6.6742 12.2738
L6.7951 12.3343
" />
<path d="M6.7951 12.3343
L6.8556 12.3948
" />
<path d="M6.8556 12.3948
L6.9161 12.5157
" />
<path d="M6.9161 12.5157
L6.9161 12.8181
" />
<path d="M6.9161 12.8181
L6.8556 12.9391
" />
<path d="M6.8556 12.9391
L6.7951 12.9996
" />
<path d="M6.7951 12.9996
L6.6742 13.0600
" />
<path d="M6.6742 13.0600
L6.3113 13.0600
" />
<path d="M6.3113 13.0600
L6.1904 12.9996
" />
<path d="M6.1904 12.9996
L6.1299 12.9391
" />
</g></g>
<g style="fill:none; 
stroke:#840000; stroke-width:0.1524; stroke-opacity:1; 
stroke-linecap:round; stroke-linejoin:round;">
<path d="M9.0932 16.0175
L4.0132 16.0175
" />
</g>
<g style="fill:none; 
stroke:#006464; stroke-width:0.1524; stroke-opacity:1; 
stroke-linecap:round; stroke-linejoin:round;">
<text x="9.6012" y="16.6525"
textLength="6.3113" font-size="1.6933" lengthAdjust="spacingAndGlyphs"
text-anchor="start" opacity="0" stroke-opacity="0">*SHDN</text>
<g class="stroked-text"><desc>*SHDN</desc>
<path d="M10.1852 15.3270
L10.1852 15.6294
" />
<path d="M9.8828 15.5085
L10.1852 15.6294
" />
<path d="M10.1852 15.6294
L10.4875 15.5085
" />
<path d="M10.0037 15.8713
L10.1852 15.6294
" />
<path d="M10.1852 15.6294
L10.3666 15.8713
" />
<path d="M10.9109 16.5366
L11.0923 16.5970
" />
<path d="M11.0923 16.5970
L11.3947 16.5970
" />
<path d="M11.3947 16.5970
L11.5156 16.5366
" />
<path d="M11.5156 16.5366
L11.5761 16.4761
" />
<path d="M11.5761 16.4761
L11.6366 16.3551
" />
<path d="M11.6366 16.3551
L11.6366 16.2342
" />
<path d="M11.6366 16.2342
L11.5761 16.1132
" />
<path d="M11.5761 16.1132
L11.5156 16.0527
" />
<path d="M11.5156 16.0527
L11.3947 15.9923
" />
<path d="M11.3947 15.9923
L11.1528 15.9318
" />
<path d="M11.1528 15.9318
L11.0318 15.8713
" />
<path d="M11.0318 15.8713
L10.9713 15.8108
" />
<path d="M10.9713 15.8108
L10.9109 15.6899
" />
<path d="M10.9109 15.6899
L10.9109 15.5689
" />
<path d="M10.9109 15.5689
L10.9713 15.4480
" />
<path d="M10.9713 15.4480
L11.0318 15.3875
" />
<path d="M11.0318 15.3875
L11.1528 15.3270
" />
<path d="M11.1528 15.3270
L11.4551 15.3270
" />
<path d="M11.4551 15.3270
L11.6366 15.3875
" />
<path d="M12.1808 16.5970
L12.1808 15.3270
" />
<path d="M12.1808 15.9318
L12.9065 15.9318
" />
<path d="M12.9065 16.5970
L12.9065 15.3270
" />
<path d="M13.5113 16.5970
L13.5113 15.3270
" />
<path d="M13.5113 15.3270
L13.8137 15.3270
" />
<path d="M13.8137 15.3270
L13.9951 15.3875
" />
<path d="M13.9951 15.3875
L14.1161 15.5085
" />
<path d="M14.1161 15.5085
L14.1766 15.6294
" />
<path d="M14.1766 15.6294
L14.2370 15.8713
" />
<path d="M14.2370 15.8713
L14.2370 16.0527
" />
<path d="M14.2370 16.0527
L14.1766 16.2946
" />
<path d="M14.1766 16.2946
L14.1161 16.4156
" />
<path d="M14.1161 16.4156
L13.9951 16.5366
" />
<path d="M13.9951 16.5366
L13.8137 16.5970
" />
<path d="M13.8137 16.5970
L13.5113 16.5970
" />
<path d="M14.7813 16.5970
L14.7813 15.3270
" />
<path d="M14.7813 15.3270
L15.5070 16.5970
" />
<path d="M15.5070 16.5970
L15.5070 15.3270
" />
</g></g>
<g style="fill:none; 
stroke:#A90000; stroke-width:0.1524; stroke-opacity:1; 
stroke-linecap:round; stroke-linejoin:round;">
<text x="6.5532" y="15.7635"
textLength="1.4127" font-size="1.6933" lengthAdjust="spacingAndGlyphs"
text-anchor="middle" opacity="0" stroke-opacity="0">4</text>
<g class="stroked-text"><desc>4</desc>
<path d="M6.7951 14.7534
L6.7951 15.6000
" />
<path d="M6.4927 14.2696
L6.1904 15.1767
" />
<path d="M6.1904 15.1767
L6.9765 15.1767
" />
</g></g>
<g style="fill:none; 
stroke:#840000; stroke-width:0.1524; stroke-opacity:1; 
stroke-linecap:round; stroke-linejoin:round;">
<path d="M34.4932 18.5575
L39.5732 18.5575
" />
</g>
<g style="fill:none; 
stroke:#006464; stroke-width:0.1524; stroke-opacity:1; 
stroke-linecap:round; stroke-linejoin:round;">
<text x="33.9852" y="19.1925"
textLength="2.1385" font-size="1.6933" lengthAdjust="spacingAndGlyphs"
text-anchor="end" opacity="0" stroke-opacity="0">IN</text>
<g class="stroked-text"><desc>IN</desc>
<path d="M32.2520 19.1370
L32.2520 17.8670
" />
<path d="M32.8568 19.1370
L32.8568 17.8670
" />
<path d="M32.8568 17.8670
L33.5825 19.1370
" />
<path d="M33.5825 19.1370
L33.5825 17.8670
" />
</g></g>
<g style="fill:none; 
stroke:#A90000; stroke-width:0.1524; stroke-opacity:1; 
stroke-linecap:round; stroke-linejoin:round;">
<text x="37.0332" y="18.3035"
textLength="1.4127" font-size="1.6933" lengthAdjust="spacingAndGlyphs"
text-anchor="middle" opacity="0" stroke-opacity="0">5</text>
<g class="stroked-text"><desc>5</desc>
<path d="M37.3356 16.8700
L36.7308 16.8700
" />
<path d="M36.7308 16.8700
L36.6704 17.4748
" />
<path d="M36.6704 17.4748
L36.7308 17.4143
" />
<path d="M36.7308 17.4143
L36.8518 17.3538
" />
<path d="M36.8518 17.3538
L37.1542 17.3538
" />
<path d="M37.1542 17.3538
L37.2751 17.4143
" />
<path d="M37.2751 17.4143
L37.3356 17.4748
" />
<path d="M37.3356 17.4748
L37.3961 17.5957
" />
<path d="M37.3961 17.5957
L37.3961 17.8981
" />
<path d="M37.3961 17.8981
L37.3356 18.0191
" />
<path d="M37.3356 18.0191
L37.2751 18.0796
" />
<path d="M37.2751 18.0796
L37.1542 18.1400
" />
<path d="M37.1542 18.1400
L36.8518 18.1400
" />
<path d="M36.8518 18.1400
L36.7308 18.0796
" />
<path d="M36.7308 18.0796
L36.6704 18.0191
" />
</g></g>
<g style="fill:none; 
stroke:#840000; stroke-width:0.1524; stroke-opacity:1; 
stroke-linecap:round; stroke-linejoin:round;">
<path d="M34.4932 16.0175
L39.5732 16.0175
" />
</g>
<g style="fill:none; 
stroke:#006464; stroke-width:0.1524; stroke-opacity:1; 
stroke-linecap:round; stroke-linejoin:round;">
<text x="33.9852" y="16.6525"
textLength="2.8037" font-size="1.6933" lengthAdjust="spacingAndGlyphs"
text-anchor="end" opacity="0" stroke-opacity="0">CN</text>
<g class="stroked-text"><desc>CN</desc>
<path d="M32.3125 16.4761
L32.2521 16.5366
" />
<path d="M32.2521 16.5366
L32.0706 16.5970
" />
<path d="M32.0706 16.5970
L31.9497 16.5970
" />
<path d="M31.9497 16.5970
L31.7683 16.5366
" />
<path d="M31.7683 16.5366
L31.6473 16.4156
" />
<path d="M31.6473 16.4156
L31.5868 16.2946
" />
<path d="M31.5868 16.2946
L31.5264 16.0527
" />
<path d="M31.5264 16.0527
L31.5264 15.8713
" />
<path d="M31.5264 15.8713
L31.5868 15.6294
" />
<path d="M31.5868 15.6294
L31.6473 15.5085
" />
<path d="M31.6473 15.5085
L31.7683 15.3875
" />
<path d="M31.7683 15.3875
L31.9497 15.3270
" />
<path d="M31.9497 15.3270
L32.0706 15.3270
" />
<path d="M32.0706 15.3270
L32.2521 15.3875
" />
<path d="M32.2521 15.3875
L32.3125 15.4480
" />
<path d="M32.8568 16.5970
L32.8568 15.3270
" />
<path d="M32.8568 15.3270
L33.5825 16.5970
" />
<path d="M33.5825 16.5970
L33.5825 15.3270
" />
</g></g>
<g style="fill:none; 
stroke:#A90000; stroke-width:0.1524; stroke-opacity:1; 
stroke-linecap:round; stroke-linejoin:round;">
<text x="37.0332" y="15.7635"
textLength="1.4127" font-size="1.6933" lengthAdjust="spacingAndGlyphs"
text-anchor="middle" opacity="0" stroke-opacity="0">6</text>
<g class="stroked-text"><desc>6</desc>
<path d="M37.2751 14.3300
L37.0332 14.3300
" />
<path d="M37.0332 14.3300
L36.9123 14.3905
" />
<path d="M36.9123 14.3905
L36.8518 14.4510
" />
<path d="M36.8518 14.4510
L36.7308 14.6324
" />
<path d="M36.7308 14.6324
L36.6704 14.8743
" />
<path d="M36.6704 14.8743
L36.6704 15.3581
" />
<path d="M36.6704 15.3581
L36.7308 15.4791
" />
<path d="M36.7308 15.4791
L36.7913 15.5396
" />
<path d="M36.7913 15.5396
L36.9123 15.6000
" />
<path d="M36.9123 15.6000
L37.1542 15.6000
" />
<path d="M37.1542 15.6000
L37.2751 15.5396
" />
<path d="M37.2751 15.5396
L37.3356 15.4791
" />
<path d="M37.3356 15.4791
L37.3961 15.3581
" />
<path d="M37.3961 15.3581
L37.3961 15.0557
" />
<path d="M37.3961 15.0557
L37.3356 14.9348
" />
<path d="M37.3356 14.9348
L37.2751 14.8743
" />
<path d="M37.2751 14.8743
L37.1542 14.8138
" />
<path d="M37.1542 14.8138
L36.9123 14.8138
" />
<path d="M36.9123 14.8138
L36.7913 14.8743
" />
<path d="M36.7913 14.8743
L36.7308 14.9348
" />
<path d="M36.7308 14.9348
L36.6704 15.0557
" />
</g></g>
<g style="fill:none; 
stroke:#840000; stroke-width:0.1524; stroke-opacity:1; 
stroke-linecap:round; stroke-linejoin:round;">
<path d="M34.4932 13.4775
L39.5732 13.4775
" />
</g>
<g style="fill:none; 
stroke:#006464; stroke-width:0.1524; stroke-opacity:1; 
stroke-linecap:round; stroke-linejoin:round;">
<text x="33.9852" y="14.1125"
textLength="2.7432" font-size="1.6933" lengthAdjust="spacingAndGlyphs"
text-anchor="end" opacity="0" stroke-opacity="0">CP</text>
<g class="stroked-text"><desc>CP</desc>
<path d="M32.3730 13.9361
L32.3126 13.9966
" />
<path d="M32.3126 13.9966
L32.1311 14.0570
" />
<path d="M32.1311 14.0570
L32.0102 14.0570
" />
<path d="M32.0102 14.0570
L31.8288 13.9966
" />
<path d="M31.8288 13.9966
L31.7078 13.8756
" />
<path d="M31.7078 13.8756
L31.6473 13.7546
" />
<path d="M31.6473 13.7546
L31.5869 13.5127
" />
<path d="M31.5869 13.5127
L31.5869 13.3313
" />
<path d="M31.5869 13.3313
L31.6473 13.0894
" />
<path d="M31.6473 13.0894
L31.7078 12.9685
" />
<path d="M31.7078 12.9685
L31.8288 12.8475
" />
<path d="M31.8288 12.8475
L32.0102 12.7870
" />
<path d="M32.0102 12.7870
L32.1311 12.7870
" />
<path d="M32.1311 12.7870
L32.3126 12.8475
" />
<path d="M32.3126 12.8475
L32.3730 12.9080
" />
<path d="M32.9173 14.0570
L32.9173 12.7870
" />
<path d="M32.9173 12.7870
L33.4011 12.7870
" />
<path d="M33.4011 12.7870
L33.5221 12.8475
" />
<path d="M33.5221 12.8475
L33.5826 12.9080
" />
<path d="M33.5826 12.9080
L33.6430 13.0289
" />
<path d="M33.6430 13.0289
L33.6430 13.2104
" />
<path d="M33.6430 13.2104
L33.5826 13.3313
" />
<path d="M33.5826 13.3313
L33.5221 13.3918
" />
<path d="M33.5221 13.3918
L33.4011 13.4523
" />
<path d="M33.4011 13.4523
L32.9173 13.4523
" />
</g></g>
<g style="fill:none; 
stroke:#A90000; stroke-width:0.1524; stroke-opacity:1; 
stroke-linecap:round; stroke-linejoin:round;">
<text x="37.0332" y="13.2235"
textLength="1.4127" font-size="1.6933" lengthAdjust="spacingAndGlyphs"
text-anchor="middle" opacity="0" stroke-opacity="0">7</text>
<g class="stroked-text"><desc>7</desc>
<path d="M36.6099 11.7900
L37.4565 11.7900
" />
<path d="M37.4565 11.7900
L36.9123 13.0600
" />
</g></g>
<g style="fill:none; 
stroke:#840000; stroke-width:0.1524; stroke-opacity:1; 
stroke-linecap:round; stroke-linejoin:round;">
<path d="M34.4932 10.9375
L39.5732 10.9375
" />
</g>
<g style="fill:none; 
stroke:#006464; stroke-width:0.1524; stroke-opacity:1; 
stroke-linecap:round; stroke-linejoin:round;">
<text x="33.9852" y="11.5725"
textLength="5.3437" font-size="1.6933" lengthAdjust="spacingAndGlyphs"
text-anchor="end" opacity="0" stroke-opacity="0">PGND</text>
<g class="stroked-text"><desc>PGND</desc>
<path d="M29.0468 11.5170
L29.0468 10.2470
" />
<path d="M29.0468 10.2470
L29.5306 10.2470
" />
<path d="M29.5306 10.2470
L29.6516 10.3075
" />
<path d="M29.6516 10.3075
L29.7121 10.3680
" />
<path d="M29.7121 10.3680
L29.7725 10.4889
" />
<path d="M29.7725 10.4889
L29.7725 10.6704
" />
<path d="M29.7725 10.6704
L29.7121 10.7913
" />
<path d="M29.7121 10.7913
L29.6516 10.8518
" />
<path d="M29.6516 10.8518
L29.5306 10.9123
" />
<path d="M29.5306 10.9123
L29.0468 10.9123
" />
<path d="M30.9821 10.3075
L30.8611 10.2470
" />
<path d="M30.8611 10.2470
L30.6797 10.2470
" />
<path d="M30.6797 10.2470
L30.4983 10.3075
" />
<path d="M30.4983 10.3075
L30.3773 10.4285
" />
<path d="M30.3773 10.4285
L30.3168 10.5494
" />
<path d="M30.3168 10.5494
L30.2564 10.7913
" />
<path d="M30.2564 10.7913
L30.2564 10.9727
" />
<path d="M30.2564 10.9727
L30.3168 11.2146
" />
<path d="M30.3168 11.2146
L30.3773 11.3356
" />
<path d="M30.3773 11.3356
L30.4983 11.4566
" />
<path d="M30.4983 11.4566
L30.6797 11.5170
" />
<path d="M30.6797 11.5170
L30.8006 11.5170
" />
<path d="M30.8006 11.5170
L30.9821 11.4566
" />
<path d="M30.9821 11.4566
L31.0425 11.3961
" />
<path d="M31.0425 11.3961
L31.0425 10.9727
" />
<path d="M31.0425 10.9727
L30.8006 10.9727
" />
<path d="M31.5868 11.5170
L31.5868 10.2470
" />
<path d="M31.5868 10.2470
L32.3125 11.5170
" />
<path d="M32.3125 11.5170
L32.3125 10.2470
" />
<path d="M32.9173 11.5170
L32.9173 10.2470
" />
<path d="M32.9173 10.2470
L33.2197 10.2470
" />
<path d="M33.2197 10.2470
L33.4011 10.3075
" />
<path d="M33.4011 10.3075
L33.5221 10.4285
" />
<path d="M33.5221 10.4285
L33.5826 10.5494
" />
<path d="M33.5826 10.5494
L33.6430 10.7913
" />
<path d="M33.6430 10.7913
L33.6430 10.9727
" />
<path d="M33.6430 10.9727
L33.5826 11.2146
" />
<path d="M33.5826 11.2146
L33.5221 11.3356
" />
<path d="M33.5221 11.3356
L33.4011 11.4566
" />
<path d="M33.4011 11.4566
L33.2197 11.5170
" />
<path d="M33.2197 11.5170
L32.9173 11.5170
" />
</g></g>
<g style="fill:none; 
stroke:#A90000; stroke-width:0.1524; stroke-opacity:1; 
stroke-linecap:round; stroke-linejoin:round;">
<text x="37.0332" y="10.6835"
textLength="1.4127" font-size="1.6933" lengthAdjust="spacingAndGlyphs"
text-anchor="middle" opacity="0" stroke-opacity="0">8</text>
<g class="stroked-text"><desc>8</desc>
<path d="M36.9123 9.7943
L36.7913 9.7338
" />
<path d="M36.7913 9.7338
L36.7308 9.6734
" />
<path d="M36.7308 9.6734
L36.6704 9.5524
" />
<path d="M36.6704 9.5524
L36.6704 9.4919
" />
<path d="M36.6704 9.4919
L36.7308 9.3710
" />
<path d="M36.7308 9.3710
L36.7913 9.3105
" />
<path d="M36.7913 9.3105
L36.9123 9.2500
" />
<path d="M36.9123 9.2500
L37.1542 9.2500
" />
<path d="M37.1542 9.2500
L37.2751 9.3105
" />
<path d="M37.2751 9.3105
L37.3356 9.3710
" />
<path d="M37.3356 9.3710
L37.3961 9.4919
" />
<path d="M37.3961 9.4919
L37.3961 9.5524
" />
<path d="M37.3961 9.5524
L37.3356 9.6734
" />
<path d="M37.3356 9.6734
L37.2751 9.7338
" />
<path d="M37.2751 9.7338
L37.1542 9.7943
" />
<path d="M37.1542 9.7943
L36.9123 9.7943
" />
<path d="M36.9123 9.7943
L36.7913 9.8548
" />
<path d="M36.7913 9.8548
L36.7308 9.9153
" />
<path d="M36.7308 9.9153
L36.6704 10.0362
" />
<path d="M36.6704 10.0362
L36.6704 10.2781
" />
<path d="M36.6704 10.2781
L36.7308 10.3991
" />
<path d="M36.7308 10.3991
L36.7913 10.4596
" />
<path d="M36.7913 10.4596
L36.9123 10.5200
" />
<path d="M36.9123 10.5200
L37.1542 10.5200
" />
<path d="M37.1542 10.5200
L37.2751 10.4596
" />
<path d="M37.2751 10.4596
L37.3356 10.3991
" />
<path d="M37.3356 10.3991
L37.3961 10.2781
" />
<path d="M37.3961 10.2781
L37.3961 10.0362
" />
<path d="M37.3961 10.0362
L37.3356 9.9153
" />
<path d="M37.3356 9.9153
L37.2751 9.8548
" />
<path d="M37.2751 9.8548
L37.1542 9.7943
" />
</g></g>
<g style="fill:none; 
stroke:#840000; stroke-width:0.1524; stroke-opacity:1; 
stroke-linecap:round; stroke-linejoin:round;">
<path d="M34.4932 8.3975
L39.5732 8.3975
" />
</g>
<g style="fill:none; 
stroke:#006464; stroke-width:0.1524; stroke-opacity:1; 
stroke-linecap:round; stroke-linejoin:round;">
<text x="33.9852" y="9.0325"
textLength="4.9808" font-size="1.6933" lengthAdjust="spacingAndGlyphs"
text-anchor="end" opacity="0" stroke-opacity="0">EPAD</text>
<g class="stroked-text"><desc>EPAD</desc>
<path d="M29.4097 8.3118
L29.8331 8.3118
" />
<path d="M30.0145 8.9770
L29.4097 8.9770
" />
<path d="M29.4097 8.9770
L29.4097 7.7070
" />
<path d="M29.4097 7.7070
L30.0145 7.7070
" />
<path d="M30.5587 8.9770
L30.5587 7.7070
" />
<path d="M30.5587 7.7070
L31.0425 7.7070
" />
<path d="M31.0425 7.7070
L31.1635 7.7675
" />
<path d="M31.1635 7.7675
L31.2240 7.8280
" />
<path d="M31.2240 7.8280
L31.2844 7.9489
" />
<path d="M31.2844 7.9489
L31.2844 8.1304
" />
<path d="M31.2844 8.1304
L31.2240 8.2513
" />
<path d="M31.2240 8.2513
L31.1635 8.3118
" />
<path d="M31.1635 8.3118
L31.0425 8.3723
" />
<path d="M31.0425 8.3723
L30.5587 8.3723
" />
<path d="M31.7683 8.6142
L32.3730 8.6142
" />
<path d="M31.6473 8.9770
L32.0706 7.7070
" />
<path d="M32.0706 7.7070
L32.4940 8.9770
" />
<path d="M32.9173 8.9770
L32.9173 7.7070
" />
<path d="M32.9173 7.7070
L33.2197 7.7070
" />
<path d="M33.2197 7.7070
L33.4011 7.7675
" />
<path d="M33.4011 7.7675
L33.5221 7.8885
" />
<path d="M33.5221 7.8885
L33.5826 8.0094
" />
<path d="M33.5826 8.0094
L33.6430 8.2513
" />
<path d="M33.6430 8.2513
L33.6430 8.4327
" />
<path d="M33.6430 8.4327
L33.5826 8.6746
" />
<path d="M33.5826 8.6746
L33.5221 8.7956
" />
<path d="M33.5221 8.7956
L33.4011 8.9166
" />
<path d="M33.4011 8.9166
L33.2197 8.9770
" />
<path d="M33.2197 8.9770
L32.9173 8.9770
" />
</g></g>
<g style="fill:none; 
stroke:#A90000; stroke-width:0.1524; stroke-opacity:1; 
stroke-linecap:round; stroke-linejoin:round;">
<text x="37.0332" y="8.1435"
textLength="1.4127" font-size="1.6933" lengthAdjust="spacingAndGlyphs"
text-anchor="middle" opacity="0" stroke-opacity="0">9</text>
<g class="stroked-text"><desc>9</desc>
<path d="M36.7913 7.9800
L37.0332 7.9800
" />
<path d="M37.0332 7.9800
L37.1542 7.9196
" />
<path d="M37.1542 7.9196
L37.2146 7.8591
" />
<path d="M37.2146 7.8591
L37.3356 7.6776
" />
<path d="M37.3356 7.6776
L37.3961 7.4357
" />
<path d="M37.3961 7.4357
L37.3961 6.9519
" />
<path d="M37.3961 6.9519
L37.3356 6.8310
" />
<path d="M37.3356 6.8310
L37.2751 6.7705
" />
<path d="M37.2751 6.7705
L37.1542 6.7100
" />
<path d="M37.1542 6.7100
L36.9123 6.7100
" />
<path d="M36.9123 6.7100
L36.7913 6.7705
" />
<path d="M36.7913 6.7705
L36.7308 6.8310
" />
<path d="M36.7308 6.8310
L36.6704 6.9519
" />
<path d="M36.6704 6.9519
L36.6704 7.2543
" />
<path d="M36.6704 7.2543
L36.7308 7.3753
" />
<path d="M36.7308 7.3753
L36.7913 7.4357
" />
<path d="M36.7913 7.4357
L36.9123 7.4962
" />
<path d="M36.9123 7.4962
L37.1542 7.4962
" />
<path d="M37.1542 7.4962
L37.2751 7.4357
" />
<path d="M37.2751 7.4357
L37.3356 7.3753
" />
<path d="M37.3356 7.3753
L37.3961 7.2543
" />
</g></g>
<g style="fill:none; 
stroke:#006464; stroke-width:0.1524; stroke-opacity:1; 
stroke-linecap:round; stroke-linejoin:round;">
<text x="10.1092" y="3.6985"
textLength="2.6223" font-size="1.6933" lengthAdjust="spacingAndGlyphs"
text-anchor="middle" opacity="0" stroke-opacity="0">U?</text>
<g class="stroked-text"><desc>U?</desc>
<path d="M9.2020 2.3730
L9.2020 3.4011
" />
<path d="M9.2020 3.4011
L9.2625 3.5221
" />
<path d="M9.2625 3.5221
L9.3230 3.5826
" />
<path d="M9.3230 3.5826
L9.4439 3.6430
" />
<path d="M9.4439 3.6430
L9.6858 3.6430
" />
<path d="M9.6858 3.6430
L9.8068 3.5826
" />
<path d="M9.8068 3.5826
L9.8673 3.5221
" />
<path d="M9.8673 3.5221
L9.9277 3.4011
" />
<path d="M9.9277 3.4011
L9.9277 2.3730
" />
<path d="M10.7140 3.5221
L10.7744 3.5826
" />
<path d="M10.7744 3.5826
L10.7140 3.6430
" />
<path d="M10.7140 3.6430
L10.6535 3.5826
" />
<path d="M10.6535 3.5826
L10.7140 3.5221
" />
<path d="M10.7140 3.5221
L10.7140 3.6430
" />
<path d="M10.4721 2.4335
L10.5930 2.3730
" />
<path d="M10.5930 2.3730
L10.8954 2.3730
" />
<path d="M10.8954 2.3730
L11.0163 2.4335
" />
<path d="M11.0163 2.4335
L11.0768 2.5545
" />
<path d="M11.0768 2.5545
L11.0768 2.6754
" />
<path d="M11.0768 2.6754
L11.0163 2.7964
" />
<path d="M11.0163 2.7964
L10.9559 2.8568
" />
<path d="M10.9559 2.8568
L10.8349 2.9173
" />
<path d="M10.8349 2.9173
L10.7744 2.9778
" />
<path d="M10.7744 2.9778
L10.7140 3.0987
" />
<path d="M10.7140 3.0987
L10.7140 3.1592
" />
</g><text x="28.3972" y="3.9525"
textLength="10.1211" font-size="1.6933" lengthAdjust="spacingAndGlyphs"
text-anchor="middle" opacity="0" stroke-opacity="0">max15032</text>
<g class="stroked-text"><desc>max15032</desc>
<path d="M23.7406 3.8970
L23.7406 3.0504
" />
<path d="M23.7406 3.1713
L23.8011 3.1108
" />
<path d="M23.8011 3.1108
L23.9221 3.0504
" />
<path d="M23.9221 3.0504
L24.1035 3.0504
" />
<path d="M24.1035 3.0504
L24.2244 3.1108
" />
<path d="M24.2244 3.1108
L24.2849 3.2318
" />
<path d="M24.2849 3.2318
L24.2849 3.8970
" />
<path d="M24.2849 3.2318
L24.3454 3.1108
" />
<path d="M24.3454 3.1108
L24.4663 3.0504
" />
<path d="M24.4663 3.0504
L24.6478 3.0504
" />
<path d="M24.6478 3.0504
L24.7687 3.1108
" />
<path d="M24.7687 3.1108
L24.8292 3.2318
" />
<path d="M24.8292 3.2318
L24.8292 3.8970
" />
<path d="M25.9782 3.8970
L25.9782 3.2318
" />
<path d="M25.9782 3.2318
L25.9177 3.1108
" />
<path d="M25.9177 3.1108
L25.7968 3.0504
" />
<path d="M25.7968 3.0504
L25.5549 3.0504
" />
<path d="M25.5549 3.0504
L25.4339 3.1108
" />
<path d="M25.9782 3.8366
L25.8573 3.8970
" />
<path d="M25.8573 3.8970
L25.5549 3.8970
" />
<path d="M25.5549 3.8970
L25.4339 3.8366
" />
<path d="M25.4339 3.8366
L25.3735 3.7156
" />
<path d="M25.3735 3.7156
L25.3735 3.5946
" />
<path d="M25.3735 3.5946
L25.4339 3.4737
" />
<path d="M25.4339 3.4737
L25.5549 3.4132
" />
<path d="M25.5549 3.4132
L25.8573 3.4132
" />
<path d="M25.8573 3.4132
L25.9782 3.3527
" />
<path d="M26.4620 3.8970
L27.1272 3.0504
" />
<path d="M26.4620 3.0504
L27.1272 3.8970
" />
<path d="M28.2763 3.8970
L27.5506 3.8970
" />
<path d="M27.9134 3.8970
L27.9134 2.6270
" />
<path d="M27.9134 2.6270
L27.7925 2.8085
" />
<path d="M27.7925 2.8085
L27.6715 2.9294
" />
<path d="M27.6715 2.9294
L27.5506 2.9899
" />
<path d="M29.4253 2.6270
L28.8205 2.6270
" />
<path d="M28.8205 2.6270
L28.7601 3.2318
" />
<path d="M28.7601 3.2318
L28.8205 3.1713
" />
<path d="M28.8205 3.1713
L28.9415 3.1108
" />
<path d="M28.9415 3.1108
L29.2439 3.1108
" />
<path d="M29.2439 3.1108
L29.3648 3.1713
" />
<path d="M29.3648 3.1713
L29.4253 3.2318
" />
<path d="M29.4253 3.2318
L29.4858 3.3527
" />
<path d="M29.4858 3.3527
L29.4858 3.6551
" />
<path d="M29.4858 3.6551
L29.4253 3.7761
" />
<path d="M29.4253 3.7761
L29.3648 3.8366
" />
<path d="M29.3648 3.8366
L29.2439 3.8970
" />
<path d="M29.2439 3.8970
L28.9415 3.8970
" />
<path d="M28.9415 3.8970
L28.8205 3.8366
" />
<path d="M28.8205 3.8366
L28.7601 3.7761
" />
<path d="M30.2719 2.6270
L30.3929 2.6270
" />
<path d="M30.3929 2.6270
L30.5138 2.6875
" />
<path d="M30.5138 2.6875
L30.5743 2.7480
" />
<path d="M30.5743 2.7480
L30.6348 2.8689
" />
<path d="M30.6348 2.8689
L30.6953 3.1108
" />
<path d="M30.6953 3.1108
L30.6953 3.4132
" />
<path d="M30.6953 3.4132
L30.6348 3.6551
" />
<path d="M30.6348 3.6551
L30.5743 3.7761
" />
<path d="M30.5743 3.7761
L30.5138 3.8366
" />
<path d="M30.5138 3.8366
L30.3929 3.8970
" />
<path d="M30.3929 3.8970
L30.2719 3.8970
" />
<path d="M30.2719 3.8970
L30.1510 3.8366
" />
<path d="M30.1510 3.8366
L30.0905 3.7761
" />
<path d="M30.0905 3.7761
L30.0300 3.6551
" />
<path d="M30.0300 3.6551
L29.9696 3.4132
" />
<path d="M29.9696 3.4132
L29.9696 3.1108
" />
<path d="M29.9696 3.1108
L30.0300 2.8689
" />
<path d="M30.0300 2.8689
L30.0905 2.7480
" />
<path d="M30.0905 2.7480
L30.1510 2.6875
" />
<path d="M30.1510 2.6875
L30.2719 2.6270
" />
<path d="M31.1186 2.6270
L31.9048 2.6270
" />
<path d="M31.9048 2.6270
L31.4814 3.1108
" />
<path d="M31.4814 3.1108
L31.6629 3.1108
" />
<path d="M31.6629 3.1108
L31.7838 3.1713
" />
<path d="M31.7838 3.1713
L31.8443 3.2318
" />
<path d="M31.8443 3.2318
L31.9048 3.3527
" />
<path d="M31.9048 3.3527
L31.9048 3.6551
" />
<path d="M31.9048 3.6551
L31.8443 3.7761
" />
<path d="M31.8443 3.7761
L31.7838 3.8366
" />
<path d="M31.7838 3.8366
L31.6629 3.8970
" />
<path d="M31.6629 3.8970
L31.3000 3.8970
" />
<path d="M31.3000 3.8970
L31.1791 3.8366
" />
<path d="M31.1791 3.8366
L31.1186 3.7761
" />
<path d="M32.3886 2.7480
L32.4490 2.6875
" />
<path d="M32.4490 2.6875
L32.5700 2.6270
" />
<path d="M32.5700 2.6270
L32.8724 2.6270
" />
<path d="M32.8724 2.6270
L32.9933 2.6875
" />
<path d="M32.9933 2.6875
L33.0538 2.7480
" />
<path d="M33.0538 2.7480
L33.1143 2.8689
" />
<path d="M33.1143 2.8689
L33.1143 2.9899
" />
<path d="M33.1143 2.9899
L33.0538 3.1713
" />
<path d="M33.0538 3.1713
L32.3281 3.8970
" />
<path d="M32.3281 3.8970
L33.1143 3.8970
" />
</g></g> 
</svg>
