<?xml version="1.0" standalone="no"?>
 <!DOCTYPE svg PUBLIC "-//W3C//DTD SVG 1.1//EN" 
 "http://www.w3.org/Graphics/SVG/1.1/DTD/svg11.dtd"> 
<svg
  xmlns:svg="http://www.w3.org/2000/svg"
  xmlns="http://www.w3.org/2000/svg"
  xmlns:xlink="http://www.w3.org/1999/xlink"
  xmlns:inkscape="http://www.inkscape.org/namespaces/inkscape"
  version="1.1"
  width="100%" height="100%" viewBox="0.0000 0.0000 33.0200 45.1104">
<title>SVG Image created as MAX14574EWL_unit1.svg date 2026-04-16T02:04:33 </title>
  <desc>Image generated by Eeschema-SVG </desc>
<g style="fill:#000000; fill-opacity:1.0000;stroke:#000000; stroke-opacity:1.0000;
stroke-linecap:round; stroke-linejoin:round;"
 transform="translate(0 0) scale(1 1)">
</g>
<g style="fill:#FFFFC2; fill-opacity:1.0000; stroke:none;">
<rect x="5.668600" y="6.680200" width="15.240000" height="31.750000" rx="0.000000" />
</g>
<g style="fill:none; 
stroke:#840000; stroke-width:0.1524; stroke-opacity:1; 
stroke-linecap:round; stroke-linejoin:round;">
<rect x="5.668600" y="6.680200" width="15.240000" height="31.750000" rx="0.000000" />
<path d="M5.6686 20.6502
L3.1286 20.6502
" />
</g>
<g style="fill:none; 
stroke:#006464; stroke-width:0.1524; stroke-opacity:1; 
stroke-linecap:round; stroke-linejoin:round;">
<text x="6.6846" y="21.2852"
textLength="3.7713" font-size="1.6933" lengthAdjust="spacingAndGlyphs"
text-anchor="start" opacity="0" stroke-opacity="0">SDA</text>
<g class="stroked-text"><desc>SDA</desc>
<path d="M7.0267 21.1693
L7.2081 21.2297
" />
<path d="M7.2081 21.2297
L7.5105 21.2297
" />
<path d="M7.5105 21.2297
L7.6314 21.1693
" />
<path d="M7.6314 21.1693
L7.6919 21.1088
" />
<path d="M7.6919 21.1088
L7.7524 20.9878
" />
<path d="M7.7524 20.9878
L7.7524 20.8669
" />
<path d="M7.7524 20.8669
L7.6919 20.7459
" />
<path d="M7.6919 20.7459
L7.6314 20.6854
" />
<path d="M7.6314 20.6854
L7.5105 20.6250
" />
<path d="M7.5105 20.6250
L7.2686 20.5645
" />
<path d="M7.2686 20.5645
L7.1476 20.5040
" />
<path d="M7.1476 20.5040
L7.0871 20.4435
" />
<path d="M7.0871 20.4435
L7.0267 20.3226
" />
<path d="M7.0267 20.3226
L7.0267 20.2016
" />
<path d="M7.0267 20.2016
L7.0871 20.0807
" />
<path d="M7.0871 20.0807
L7.1476 20.0202
" />
<path d="M7.1476 20.0202
L7.2686 19.9597
" />
<path d="M7.2686 19.9597
L7.5709 19.9597
" />
<path d="M7.5709 19.9597
L7.7524 20.0202
" />
<path d="M8.2966 21.2297
L8.2966 19.9597
" />
<path d="M8.2966 19.9597
L8.5990 19.9597
" />
<path d="M8.5990 19.9597
L8.7804 20.0202
" />
<path d="M8.7804 20.0202
L8.9014 20.1412
" />
<path d="M8.9014 20.1412
L8.9619 20.2621
" />
<path d="M8.9619 20.2621
L9.0223 20.5040
" />
<path d="M9.0223 20.5040
L9.0223 20.6854
" />
<path d="M9.0223 20.6854
L8.9619 20.9273
" />
<path d="M8.9619 20.9273
L8.9014 21.0483
" />
<path d="M8.9014 21.0483
L8.7804 21.1693
" />
<path d="M8.7804 21.1693
L8.5990 21.2297
" />
<path d="M8.5990 21.2297
L8.2966 21.2297
" />
<path d="M9.5062 20.8669
L10.1109 20.8669
" />
<path d="M9.3852 21.2297
L9.8085 19.9597
" />
<path d="M9.8085 19.9597
L10.2319 21.2297
" />
</g></g>
<g style="fill:none; 
stroke:#A90000; stroke-width:0.1524; stroke-opacity:1; 
stroke-linecap:round; stroke-linejoin:round;">
<text x="4.3986" y="20.3962"
textLength="2.5013" font-size="1.6933" lengthAdjust="spacingAndGlyphs"
text-anchor="middle" opacity="0" stroke-opacity="0">A1</text>
<g class="stroked-text"><desc>A1</desc>
<path d="M3.4915 19.8699
L4.0962 19.8699
" />
<path d="M3.3705 20.2327
L3.7938 18.9627
" />
<path d="M3.7938 18.9627
L4.2172 20.2327
" />
<path d="M5.3058 20.2327
L4.5801 20.2327
" />
<path d="M4.9429 20.2327
L4.9429 18.9627
" />
<path d="M4.9429 18.9627
L4.8220 19.1442
" />
<path d="M4.8220 19.1442
L4.7010 19.2651
" />
<path d="M4.7010 19.2651
L4.5801 19.3256
" />
</g></g>
<g style="fill:none; 
stroke:#840000; stroke-width:0.1524; stroke-opacity:1; 
stroke-linecap:round; stroke-linejoin:round;">
<path d="M12.0186 38.4302
L12.0186 40.9702
" />
</g>
<g style="fill:none; 
stroke:#006464; stroke-width:0.1524; stroke-opacity:1; 
stroke-linecap:round; stroke-linejoin:round;">
<g transform="rotate(-90.000000 12.0186 37.4142)">
<text x="12.0186" y="38.0492"
textLength="4.0737" font-size="1.6933" lengthAdjust="spacingAndGlyphs"
text-anchor="start" opacity="0" stroke-opacity="0">GND</text>
</g>
<g class="stroked-text"><desc>GND</desc>
<path d="M11.3886 36.3463
L11.3281 36.4673
" />
<path d="M11.3281 36.4673
L11.3281 36.6487
" />
<path d="M11.3281 36.6487
L11.3886 36.8301
" />
<path d="M11.3886 36.8301
L11.5096 36.9511
" />
<path d="M11.5096 36.9511
L11.6305 37.0116
" />
<path d="M11.6305 37.0116
L11.8724 37.0720
" />
<path d="M11.8724 37.0720
L12.0538 37.0720
" />
<path d="M12.0538 37.0720
L12.2957 37.0116
" />
<path d="M12.2957 37.0116
L12.4167 36.9511
" />
<path d="M12.4167 36.9511
L12.5377 36.8301
" />
<path d="M12.5377 36.8301
L12.5981 36.6487
" />
<path d="M12.5981 36.6487
L12.5981 36.5278
" />
<path d="M12.5981 36.5278
L12.5377 36.3463
" />
<path d="M12.5377 36.3463
L12.4772 36.2859
" />
<path d="M12.4772 36.2859
L12.0538 36.2859
" />
<path d="M12.0538 36.2859
L12.0538 36.5278
" />
<path d="M12.5981 35.7416
L11.3281 35.7416
" />
<path d="M11.3281 35.7416
L12.5981 35.0159
" />
<path d="M12.5981 35.0159
L11.3281 35.0159
" />
<path d="M12.5981 34.4111
L11.3281 34.4111
" />
<path d="M11.3281 34.4111
L11.3281 34.1087
" />
<path d="M11.3281 34.1087
L11.3886 33.9273
" />
<path d="M11.3886 33.9273
L11.5096 33.8063
" />
<path d="M11.5096 33.8063
L11.6305 33.7458
" />
<path d="M11.6305 33.7458
L11.8724 33.6854
" />
<path d="M11.8724 33.6854
L12.0538 33.6854
" />
<path d="M12.0538 33.6854
L12.2957 33.7458
" />
<path d="M12.2957 33.7458
L12.4167 33.8063
" />
<path d="M12.4167 33.8063
L12.5377 33.9273
" />
<path d="M12.5377 33.9273
L12.5981 34.1087
" />
<path d="M12.5981 34.1087
L12.5981 34.4111
" />
</g></g>
<g style="fill:none; 
stroke:#A90000; stroke-width:0.1524; stroke-opacity:1; 
stroke-linecap:round; stroke-linejoin:round;">
<g transform="rotate(-90.000000 11.7646 39.7002)">
<text x="11.7646" y="39.7002"
textLength="2.5013" font-size="1.6933" lengthAdjust="spacingAndGlyphs"
text-anchor="middle" opacity="0" stroke-opacity="0">A2</text>
</g>
<g class="stroked-text"><desc>A2</desc>
<path d="M11.2383 40.6072
L11.2383 40.0025
" />
<path d="M11.6011 40.7282
L10.3311 40.3049
" />
<path d="M10.3311 40.3049
L11.6011 39.8815
" />
<path d="M10.4521 39.5186
L10.3916 39.4582
" />
<path d="M10.3916 39.4582
L10.3311 39.3372
" />
<path d="M10.3311 39.3372
L10.3311 39.0348
" />
<path d="M10.3311 39.0348
L10.3916 38.9139
" />
<path d="M10.3916 38.9139
L10.4521 38.8534
" />
<path d="M10.4521 38.8534
L10.5730 38.7929
" />
<path d="M10.5730 38.7929
L10.6940 38.7929
" />
<path d="M10.6940 38.7929
L10.8754 38.8534
" />
<path d="M10.8754 38.8534
L11.6011 39.5791
" />
<path d="M11.6011 39.5791
L11.6011 38.7929
" />
</g></g>
<g style="fill:none; 
stroke:#840000; stroke-width:0.1524; stroke-opacity:1; 
stroke-linecap:round; stroke-linejoin:round;">
<path d="M5.6686 9.2202
L3.1286 9.2202
" />
</g>
<g style="fill:none; 
stroke:#006464; stroke-width:0.1524; stroke-opacity:1; 
stroke-linecap:round; stroke-linejoin:round;">
<text x="6.6846" y="9.8552"
textLength="3.8318" font-size="1.6933" lengthAdjust="spacingAndGlyphs"
text-anchor="start" opacity="0" stroke-opacity="0">VDD</text>
<g class="stroked-text"><desc>VDD</desc>
<path d="M6.9057 8.5297
L7.3290 9.7997
" />
<path d="M7.3290 9.7997
L7.7524 8.5297
" />
<path d="M8.1757 9.7997
L8.1757 8.5297
" />
<path d="M8.1757 8.5297
L8.4781 8.5297
" />
<path d="M8.4781 8.5297
L8.6595 8.5902
" />
<path d="M8.6595 8.5902
L8.7805 8.7112
" />
<path d="M8.7805 8.7112
L8.8410 8.8321
" />
<path d="M8.8410 8.8321
L8.9014 9.0740
" />
<path d="M8.9014 9.0740
L8.9014 9.2554
" />
<path d="M8.9014 9.2554
L8.8410 9.4973
" />
<path d="M8.8410 9.4973
L8.7805 9.6183
" />
<path d="M8.7805 9.6183
L8.6595 9.7393
" />
<path d="M8.6595 9.7393
L8.4781 9.7997
" />
<path d="M8.4781 9.7997
L8.1757 9.7997
" />
<path d="M9.4457 9.7997
L9.4457 8.5297
" />
<path d="M9.4457 8.5297
L9.7481 8.5297
" />
<path d="M9.7481 8.5297
L9.9295 8.5902
" />
<path d="M9.9295 8.5902
L10.0505 8.7112
" />
<path d="M10.0505 8.7112
L10.1110 8.8321
" />
<path d="M10.1110 8.8321
L10.1714 9.0740
" />
<path d="M10.1714 9.0740
L10.1714 9.2554
" />
<path d="M10.1714 9.2554
L10.1110 9.4973
" />
<path d="M10.1110 9.4973
L10.0505 9.6183
" />
<path d="M10.0505 9.6183
L9.9295 9.7393
" />
<path d="M9.9295 9.7393
L9.7481 9.7997
" />
<path d="M9.7481 9.7997
L9.4457 9.7997
" />
</g></g>
<g style="fill:none; 
stroke:#A90000; stroke-width:0.1524; stroke-opacity:1; 
stroke-linecap:round; stroke-linejoin:round;">
<text x="4.3986" y="8.9662"
textLength="2.5013" font-size="1.6933" lengthAdjust="spacingAndGlyphs"
text-anchor="middle" opacity="0" stroke-opacity="0">A3</text>
<g class="stroked-text"><desc>A3</desc>
<path d="M3.4915 8.4399
L4.0962 8.4399
" />
<path d="M3.3705 8.8027
L3.7938 7.5327
" />
<path d="M3.7938 7.5327
L4.2172 8.8027
" />
<path d="M4.5196 7.5327
L5.3058 7.5327
" />
<path d="M5.3058 7.5327
L4.8824 8.0165
" />
<path d="M4.8824 8.0165
L5.0639 8.0165
" />
<path d="M5.0639 8.0165
L5.1848 8.0770
" />
<path d="M5.1848 8.0770
L5.2453 8.1375
" />
<path d="M5.2453 8.1375
L5.3058 8.2584
" />
<path d="M5.3058 8.2584
L5.3058 8.5608
" />
<path d="M5.3058 8.5608
L5.2453 8.6818
" />
<path d="M5.2453 8.6818
L5.1848 8.7423
" />
<path d="M5.1848 8.7423
L5.0639 8.8027
" />
<path d="M5.0639 8.8027
L4.7010 8.8027
" />
<path d="M4.7010 8.8027
L4.5801 8.7423
" />
<path d="M4.5801 8.7423
L4.5196 8.6818
" />
</g></g>
<g style="fill:none; 
stroke:#840000; stroke-width:0.1524; stroke-opacity:1; 
stroke-linecap:round; stroke-linejoin:round;">
<path d="M13.2886 6.6802
L13.2886 4.1402
" />
</g>
<g style="fill:none; 
stroke:#006464; stroke-width:0.1524; stroke-opacity:1; 
stroke-linecap:round; stroke-linejoin:round;">
<g transform="rotate(-90.000000 13.2886 7.6962)">
<text x="13.2886" y="8.3312"
textLength="2.4408" font-size="1.6933" lengthAdjust="spacingAndGlyphs"
text-anchor="end" opacity="0" stroke-opacity="0">LX</text>
</g>
<g class="stroked-text"><desc>LX</desc>
<path d="M13.8681 9.1268
L13.8681 9.7316
" />
<path d="M13.8681 9.7316
L12.5981 9.7316
" />
<path d="M12.5981 8.8244
L13.8681 7.9778
" />
<path d="M12.5981 7.9778
L13.8681 8.8244
" />
</g></g>
<g style="fill:none; 
stroke:#A90000; stroke-width:0.1524; stroke-opacity:1; 
stroke-linecap:round; stroke-linejoin:round;">
<g transform="rotate(-90.000000 13.0346 5.4102)">
<text x="13.0346" y="5.4102"
textLength="2.5013" font-size="1.6933" lengthAdjust="spacingAndGlyphs"
text-anchor="middle" opacity="0" stroke-opacity="0">A4</text>
</g>
<g class="stroked-text"><desc>A4</desc>
<path d="M12.5083 6.3172
L12.5083 5.7125
" />
<path d="M12.8711 6.4382
L11.6011 6.0149
" />
<path d="M11.6011 6.0149
L12.8711 5.5915
" />
<path d="M12.0245 4.6239
L12.8711 4.6239
" />
<path d="M11.5407 4.9263
L12.4478 5.2286
" />
<path d="M12.4478 5.2286
L12.4478 4.4425
" />
</g></g>
<g style="fill:none; 
stroke:#840000; stroke-width:0.1524; stroke-opacity:1; 
stroke-linecap:round; stroke-linejoin:round;">
<path d="M14.5586 38.4302
L14.5586 40.9702
" />
</g>
<g style="fill:none; 
stroke:#006464; stroke-width:0.1524; stroke-opacity:1; 
stroke-linecap:round; stroke-linejoin:round;">
<g transform="rotate(-90.000000 14.5586 37.4142)">
<text x="14.5586" y="38.0492"
textLength="5.3437" font-size="1.6933" lengthAdjust="spacingAndGlyphs"
text-anchor="start" opacity="0" stroke-opacity="0">PGND</text>
</g>
<g class="stroked-text"><desc>PGND</desc>
<path d="M15.1381 37.0116
L13.8681 37.0116
" />
<path d="M13.8681 37.0116
L13.8681 36.5278
" />
<path d="M13.8681 36.5278
L13.9286 36.4068
" />
<path d="M13.9286 36.4068
L13.9891 36.3463
" />
<path d="M13.9891 36.3463
L14.1100 36.2859
" />
<path d="M14.1100 36.2859
L14.2915 36.2859
" />
<path d="M14.2915 36.2859
L14.4124 36.3463
" />
<path d="M14.4124 36.3463
L14.4729 36.4068
" />
<path d="M14.4729 36.4068
L14.5334 36.5278
" />
<path d="M14.5334 36.5278
L14.5334 37.0116
" />
<path d="M13.9286 35.0763
L13.8681 35.1973
" />
<path d="M13.8681 35.1973
L13.8681 35.3787
" />
<path d="M13.8681 35.3787
L13.9286 35.5601
" />
<path d="M13.9286 35.5601
L14.0496 35.6811
" />
<path d="M14.0496 35.6811
L14.1705 35.7416
" />
<path d="M14.1705 35.7416
L14.4124 35.8020
" />
<path d="M14.4124 35.8020
L14.5938 35.8020
" />
<path d="M14.5938 35.8020
L14.8357 35.7416
" />
<path d="M14.8357 35.7416
L14.9567 35.6811
" />
<path d="M14.9567 35.6811
L15.0777 35.5601
" />
<path d="M15.0777 35.5601
L15.1381 35.3787
" />
<path d="M15.1381 35.3787
L15.1381 35.2578
" />
<path d="M15.1381 35.2578
L15.0777 35.0763
" />
<path d="M15.0777 35.0763
L15.0172 35.0159
" />
<path d="M15.0172 35.0159
L14.5938 35.0159
" />
<path d="M14.5938 35.0159
L14.5938 35.2578
" />
<path d="M15.1381 34.4716
L13.8681 34.4716
" />
<path d="M13.8681 34.4716
L15.1381 33.7459
" />
<path d="M15.1381 33.7459
L13.8681 33.7459
" />
<path d="M15.1381 33.1411
L13.8681 33.1411
" />
<path d="M13.8681 33.1411
L13.8681 32.8387
" />
<path d="M13.8681 32.8387
L13.9286 32.6573
" />
<path d="M13.9286 32.6573
L14.0496 32.5363
" />
<path d="M14.0496 32.5363
L14.1705 32.4758
" />
<path d="M14.1705 32.4758
L14.4124 32.4154
" />
<path d="M14.4124 32.4154
L14.5938 32.4154
" />
<path d="M14.5938 32.4154
L14.8357 32.4758
" />
<path d="M14.8357 32.4758
L14.9567 32.5363
" />
<path d="M14.9567 32.5363
L15.0777 32.6573
" />
<path d="M15.0777 32.6573
L15.1381 32.8387
" />
<path d="M15.1381 32.8387
L15.1381 33.1411
" />
</g></g>
<g style="fill:none; 
stroke:#A90000; stroke-width:0.1524; stroke-opacity:1; 
stroke-linecap:round; stroke-linejoin:round;">
<g transform="rotate(-90.000000 14.3046 39.7002)">
<text x="14.3046" y="39.7002"
textLength="2.5013" font-size="1.6933" lengthAdjust="spacingAndGlyphs"
text-anchor="middle" opacity="0" stroke-opacity="0">A5</text>
</g>
<g class="stroked-text"><desc>A5</desc>
<path d="M13.7783 40.6072
L13.7783 40.0025
" />
<path d="M14.1411 40.7282
L12.8711 40.3049
" />
<path d="M12.8711 40.3049
L14.1411 39.8815
" />
<path d="M12.8711 38.8534
L12.8711 39.4582
" />
<path d="M12.8711 39.4582
L13.4759 39.5186
" />
<path d="M13.4759 39.5186
L13.4154 39.4582
" />
<path d="M13.4154 39.4582
L13.3549 39.3372
" />
<path d="M13.3549 39.3372
L13.3549 39.0348
" />
<path d="M13.3549 39.0348
L13.4154 38.9139
" />
<path d="M13.4154 38.9139
L13.4759 38.8534
" />
<path d="M13.4759 38.8534
L13.5968 38.7929
" />
<path d="M13.5968 38.7929
L13.8992 38.7929
" />
<path d="M13.8992 38.7929
L14.0202 38.8534
" />
<path d="M14.0202 38.8534
L14.0807 38.9139
" />
<path d="M14.0807 38.9139
L14.1411 39.0348
" />
<path d="M14.1411 39.0348
L14.1411 39.3372
" />
<path d="M14.1411 39.3372
L14.0807 39.4582
" />
<path d="M14.0807 39.4582
L14.0202 39.5186
" />
</g></g>
<g style="fill:none; 
stroke:#840000; stroke-width:0.1524; stroke-opacity:1; 
stroke-linecap:round; stroke-linejoin:round;">
<path d="M5.6686 23.1902
L3.1286 23.1902
" />
</g>
<g style="fill:none; 
stroke:#006464; stroke-width:0.1524; stroke-opacity:1; 
stroke-linecap:round; stroke-linejoin:round;">
<text x="6.6846" y="23.8252"
textLength="3.7108" font-size="1.6933" lengthAdjust="spacingAndGlyphs"
text-anchor="start" opacity="0" stroke-opacity="0">SCL</text>
<g class="stroked-text"><desc>SCL</desc>
<path d="M7.0267 23.7093
L7.2081 23.7697
" />
<path d="M7.2081 23.7697
L7.5105 23.7697
" />
<path d="M7.5105 23.7697
L7.6314 23.7093
" />
<path d="M7.6314 23.7093
L7.6919 23.6488
" />
<path d="M7.6919 23.6488
L7.7524 23.5278
" />
<path d="M7.7524 23.5278
L7.7524 23.4069
" />
<path d="M7.7524 23.4069
L7.6919 23.2859
" />
<path d="M7.6919 23.2859
L7.6314 23.2254
" />
<path d="M7.6314 23.2254
L7.5105 23.1650
" />
<path d="M7.5105 23.1650
L7.2686 23.1045
" />
<path d="M7.2686 23.1045
L7.1476 23.0440
" />
<path d="M7.1476 23.0440
L7.0871 22.9835
" />
<path d="M7.0871 22.9835
L7.0267 22.8626
" />
<path d="M7.0267 22.8626
L7.0267 22.7416
" />
<path d="M7.0267 22.7416
L7.0871 22.6207
" />
<path d="M7.0871 22.6207
L7.1476 22.5602
" />
<path d="M7.1476 22.5602
L7.2686 22.4997
" />
<path d="M7.2686 22.4997
L7.5709 22.4997
" />
<path d="M7.5709 22.4997
L7.7524 22.5602
" />
<path d="M9.0223 23.6488
L8.9619 23.7093
" />
<path d="M8.9619 23.7093
L8.7804 23.7697
" />
<path d="M8.7804 23.7697
L8.6595 23.7697
" />
<path d="M8.6595 23.7697
L8.4781 23.7093
" />
<path d="M8.4781 23.7093
L8.3571 23.5883
" />
<path d="M8.3571 23.5883
L8.2966 23.4673
" />
<path d="M8.2966 23.4673
L8.2362 23.2254
" />
<path d="M8.2362 23.2254
L8.2362 23.0440
" />
<path d="M8.2362 23.0440
L8.2966 22.8021
" />
<path d="M8.2966 22.8021
L8.3571 22.6812
" />
<path d="M8.3571 22.6812
L8.4781 22.5602
" />
<path d="M8.4781 22.5602
L8.6595 22.4997
" />
<path d="M8.6595 22.4997
L8.7804 22.4997
" />
<path d="M8.7804 22.4997
L8.9619 22.5602
" />
<path d="M8.9619 22.5602
L9.0223 22.6207
" />
<path d="M10.1714 23.7697
L9.5666 23.7697
" />
<path d="M9.5666 23.7697
L9.5666 22.4997
" />
</g></g>
<g style="fill:none; 
stroke:#A90000; stroke-width:0.1524; stroke-opacity:1; 
stroke-linecap:round; stroke-linejoin:round;">
<text x="4.3986" y="22.9362"
textLength="2.6827" font-size="1.6933" lengthAdjust="spacingAndGlyphs"
text-anchor="middle" opacity="0" stroke-opacity="0">B1</text>
<g class="stroked-text"><desc>B1</desc>
<path d="M3.8846 22.1075
L4.0660 22.1680
" />
<path d="M4.0660 22.1680
L4.1265 22.2284
" />
<path d="M4.1265 22.2284
L4.1869 22.3494
" />
<path d="M4.1869 22.3494
L4.1869 22.5308
" />
<path d="M4.1869 22.5308
L4.1265 22.6518
" />
<path d="M4.1265 22.6518
L4.0660 22.7123
" />
<path d="M4.0660 22.7123
L3.9450 22.7727
" />
<path d="M3.9450 22.7727
L3.4612 22.7727
" />
<path d="M3.4612 22.7727
L3.4612 21.5027
" />
<path d="M3.4612 21.5027
L3.8846 21.5027
" />
<path d="M3.8846 21.5027
L4.0055 21.5632
" />
<path d="M4.0055 21.5632
L4.0660 21.6237
" />
<path d="M4.0660 21.6237
L4.1265 21.7446
" />
<path d="M4.1265 21.7446
L4.1265 21.8656
" />
<path d="M4.1265 21.8656
L4.0660 21.9865
" />
<path d="M4.0660 21.9865
L4.0055 22.0470
" />
<path d="M4.0055 22.0470
L3.8846 22.1075
" />
<path d="M3.8846 22.1075
L3.4612 22.1075
" />
<path d="M5.3965 22.7727
L4.6708 22.7727
" />
<path d="M5.0336 22.7727
L5.0336 21.5027
" />
<path d="M5.0336 21.5027
L4.9127 21.6842
" />
<path d="M4.9127 21.6842
L4.7917 21.8051
" />
<path d="M4.7917 21.8051
L4.6708 21.8656
" />
</g></g>
<g style="fill:none; 
stroke:#840000; stroke-width:0.1524; stroke-opacity:1; 
stroke-linecap:round; stroke-linejoin:round;">
<path d="M5.6686 15.5702
L3.1286 15.5702
" />
</g>
<g style="fill:none; 
stroke:#006464; stroke-width:0.1524; stroke-opacity:1; 
stroke-linecap:round; stroke-linejoin:round;">
<text x="6.6846" y="16.2052"
textLength="2.6827" font-size="1.6933" lengthAdjust="spacingAndGlyphs"
text-anchor="start" opacity="0" stroke-opacity="0">EN</text>
<g class="stroked-text"><desc>EN</desc>
<path d="M7.0871 15.4845
L7.5105 15.4845
" />
<path d="M7.6919 16.1497
L7.0871 16.1497
" />
<path d="M7.0871 16.1497
L7.0871 14.8797
" />
<path d="M7.0871 14.8797
L7.6919 14.8797
" />
<path d="M8.2361 16.1497
L8.2361 14.8797
" />
<path d="M8.2361 14.8797
L8.9618 16.1497
" />
<path d="M8.9618 16.1497
L8.9618 14.8797
" />
</g></g>
<g style="fill:none; 
stroke:#A90000; stroke-width:0.1524; stroke-opacity:1; 
stroke-linecap:round; stroke-linejoin:round;">
<text x="4.3986" y="15.3162"
textLength="2.6827" font-size="1.6933" lengthAdjust="spacingAndGlyphs"
text-anchor="middle" opacity="0" stroke-opacity="0">B2</text>
<g class="stroked-text"><desc>B2</desc>
<path d="M3.8846 14.4875
L4.0660 14.5480
" />
<path d="M4.0660 14.5480
L4.1265 14.6084
" />
<path d="M4.1265 14.6084
L4.1869 14.7294
" />
<path d="M4.1869 14.7294
L4.1869 14.9108
" />
<path d="M4.1869 14.9108
L4.1265 15.0318
" />
<path d="M4.1265 15.0318
L4.0660 15.0923
" />
<path d="M4.0660 15.0923
L3.9450 15.1527
" />
<path d="M3.9450 15.1527
L3.4612 15.1527
" />
<path d="M3.4612 15.1527
L3.4612 13.8827
" />
<path d="M3.4612 13.8827
L3.8846 13.8827
" />
<path d="M3.8846 13.8827
L4.0055 13.9432
" />
<path d="M4.0055 13.9432
L4.0660 14.0037
" />
<path d="M4.0660 14.0037
L4.1265 14.1246
" />
<path d="M4.1265 14.1246
L4.1265 14.2456
" />
<path d="M4.1265 14.2456
L4.0660 14.3665
" />
<path d="M4.0660 14.3665
L4.0055 14.4270
" />
<path d="M4.0055 14.4270
L3.8846 14.4875
" />
<path d="M3.8846 14.4875
L3.4612 14.4875
" />
<path d="M4.6708 14.0037
L4.7312 13.9432
" />
<path d="M4.7312 13.9432
L4.8522 13.8827
" />
<path d="M4.8522 13.8827
L5.1546 13.8827
" />
<path d="M5.1546 13.8827
L5.2755 13.9432
" />
<path d="M5.2755 13.9432
L5.3360 14.0037
" />
<path d="M5.3360 14.0037
L5.3965 14.1246
" />
<path d="M5.3965 14.1246
L5.3965 14.2456
" />
<path d="M5.3965 14.2456
L5.3360 14.4270
" />
<path d="M5.3360 14.4270
L4.6103 15.1527
" />
<path d="M4.6103 15.1527
L5.3965 15.1527
" />
</g></g>
<g style="fill:none; 
stroke:#840000; stroke-width:0.1524; stroke-opacity:1; 
stroke-linecap:round; stroke-linejoin:round;">
<path d="M5.6686 30.8102
L3.1286 30.8102
" />
</g>
<g style="fill:none; 
stroke:#006464; stroke-width:0.1524; stroke-opacity:1; 
stroke-linecap:round; stroke-linejoin:round;">
<text x="6.6846" y="31.4452"
textLength="3.8317" font-size="1.6933" lengthAdjust="spacingAndGlyphs"
text-anchor="start" opacity="0" stroke-opacity="0">TM1</text>
<g class="stroked-text"><desc>TM1</desc>
<path d="M6.9057 30.1197
L7.6314 30.1197
" />
<path d="M7.2686 31.3897
L7.2686 30.1197
" />
<path d="M8.0547 31.3897
L8.0547 30.1197
" />
<path d="M8.0547 30.1197
L8.4781 31.0269
" />
<path d="M8.4781 31.0269
L8.9014 30.1197
" />
<path d="M8.9014 30.1197
L8.9014 31.3897
" />
<path d="M10.1714 31.3897
L9.4457 31.3897
" />
<path d="M9.8085 31.3897
L9.8085 30.1197
" />
<path d="M9.8085 30.1197
L9.6876 30.3012
" />
<path d="M9.6876 30.3012
L9.5666 30.4221
" />
<path d="M9.5666 30.4221
L9.4457 30.4826
" />
</g></g>
<g style="fill:none; 
stroke:#A90000; stroke-width:0.1524; stroke-opacity:1; 
stroke-linecap:round; stroke-linejoin:round;">
<text x="4.3986" y="30.5562"
textLength="2.6827" font-size="1.6933" lengthAdjust="spacingAndGlyphs"
text-anchor="middle" opacity="0" stroke-opacity="0">B3</text>
<g class="stroked-text"><desc>B3</desc>
<path d="M3.8846 29.7275
L4.0660 29.7880
" />
<path d="M4.0660 29.7880
L4.1265 29.8484
" />
<path d="M4.1265 29.8484
L4.1869 29.9694
" />
<path d="M4.1869 29.9694
L4.1869 30.1508
" />
<path d="M4.1869 30.1508
L4.1265 30.2718
" />
<path d="M4.1265 30.2718
L4.0660 30.3323
" />
<path d="M4.0660 30.3323
L3.9450 30.3927
" />
<path d="M3.9450 30.3927
L3.4612 30.3927
" />
<path d="M3.4612 30.3927
L3.4612 29.1227
" />
<path d="M3.4612 29.1227
L3.8846 29.1227
" />
<path d="M3.8846 29.1227
L4.0055 29.1832
" />
<path d="M4.0055 29.1832
L4.0660 29.2437
" />
<path d="M4.0660 29.2437
L4.1265 29.3646
" />
<path d="M4.1265 29.3646
L4.1265 29.4856
" />
<path d="M4.1265 29.4856
L4.0660 29.6065
" />
<path d="M4.0660 29.6065
L4.0055 29.6670
" />
<path d="M4.0055 29.6670
L3.8846 29.7275
" />
<path d="M3.8846 29.7275
L3.4612 29.7275
" />
<path d="M4.6103 29.1227
L5.3965 29.1227
" />
<path d="M5.3965 29.1227
L4.9731 29.6065
" />
<path d="M4.9731 29.6065
L5.1546 29.6065
" />
<path d="M5.1546 29.6065
L5.2755 29.6670
" />
<path d="M5.2755 29.6670
L5.3360 29.7275
" />
<path d="M5.3360 29.7275
L5.3965 29.8484
" />
<path d="M5.3965 29.8484
L5.3965 30.1508
" />
<path d="M5.3965 30.1508
L5.3360 30.2718
" />
<path d="M5.3360 30.2718
L5.2755 30.3323
" />
<path d="M5.2755 30.3323
L5.1546 30.3927
" />
<path d="M5.1546 30.3927
L4.7917 30.3927
" />
<path d="M4.7917 30.3927
L4.6708 30.3323
" />
<path d="M4.6708 30.3323
L4.6103 30.2718
" />
</g></g>
<g style="fill:none; 
stroke:#840000; stroke-width:0.1524; stroke-opacity:1; 
stroke-linecap:round; stroke-linejoin:round;">
<path d="M5.6686 28.2702
L3.1286 28.2702
" />
</g>
<g style="fill:none; 
stroke:#006464; stroke-width:0.1524; stroke-opacity:1; 
stroke-linecap:round; stroke-linejoin:round;">
<text x="6.6846" y="28.9052"
textLength="3.8317" font-size="1.6933" lengthAdjust="spacingAndGlyphs"
text-anchor="start" opacity="0" stroke-opacity="0">TM2</text>
<g class="stroked-text"><desc>TM2</desc>
<path d="M6.9057 27.5797
L7.6314 27.5797
" />
<path d="M7.2686 28.8497
L7.2686 27.5797
" />
<path d="M8.0547 28.8497
L8.0547 27.5797
" />
<path d="M8.0547 27.5797
L8.4781 28.4869
" />
<path d="M8.4781 28.4869
L8.9014 27.5797
" />
<path d="M8.9014 27.5797
L8.9014 28.8497
" />
<path d="M9.4457 27.7007
L9.5061 27.6402
" />
<path d="M9.5061 27.6402
L9.6271 27.5797
" />
<path d="M9.6271 27.5797
L9.9295 27.5797
" />
<path d="M9.9295 27.5797
L10.0504 27.6402
" />
<path d="M10.0504 27.6402
L10.1109 27.7007
" />
<path d="M10.1109 27.7007
L10.1714 27.8216
" />
<path d="M10.1714 27.8216
L10.1714 27.9426
" />
<path d="M10.1714 27.9426
L10.1109 28.1240
" />
<path d="M10.1109 28.1240
L9.3852 28.8497
" />
<path d="M9.3852 28.8497
L10.1714 28.8497
" />
</g></g>
<g style="fill:none; 
stroke:#A90000; stroke-width:0.1524; stroke-opacity:1; 
stroke-linecap:round; stroke-linejoin:round;">
<text x="4.3986" y="28.0162"
textLength="2.6827" font-size="1.6933" lengthAdjust="spacingAndGlyphs"
text-anchor="middle" opacity="0" stroke-opacity="0">B4</text>
<g class="stroked-text"><desc>B4</desc>
<path d="M3.8846 27.1875
L4.0660 27.2480
" />
<path d="M4.0660 27.2480
L4.1265 27.3084
" />
<path d="M4.1265 27.3084
L4.1869 27.4294
" />
<path d="M4.1869 27.4294
L4.1869 27.6108
" />
<path d="M4.1869 27.6108
L4.1265 27.7318
" />
<path d="M4.1265 27.7318
L4.0660 27.7923
" />
<path d="M4.0660 27.7923
L3.9450 27.8527
" />
<path d="M3.9450 27.8527
L3.4612 27.8527
" />
<path d="M3.4612 27.8527
L3.4612 26.5827
" />
<path d="M3.4612 26.5827
L3.8846 26.5827
" />
<path d="M3.8846 26.5827
L4.0055 26.6432
" />
<path d="M4.0055 26.6432
L4.0660 26.7037
" />
<path d="M4.0660 26.7037
L4.1265 26.8246
" />
<path d="M4.1265 26.8246
L4.1265 26.9456
" />
<path d="M4.1265 26.9456
L4.0660 27.0665
" />
<path d="M4.0660 27.0665
L4.0055 27.1270
" />
<path d="M4.0055 27.1270
L3.8846 27.1875
" />
<path d="M3.8846 27.1875
L3.4612 27.1875
" />
<path d="M5.2755 27.0061
L5.2755 27.8527
" />
<path d="M4.9731 26.5223
L4.6708 27.4294
" />
<path d="M4.6708 27.4294
L5.4569 27.4294
" />
</g></g>
<g style="fill:none; 
stroke:#840000; stroke-width:0.1524; stroke-opacity:1; 
stroke-linecap:round; stroke-linejoin:round;">
<path d="M20.9086 9.2202
L23.4486 9.2202
" />
</g>
<g style="fill:none; 
stroke:#006464; stroke-width:0.1524; stroke-opacity:1; 
stroke-linecap:round; stroke-linejoin:round;">
<text x="19.8926" y="9.8552"
textLength="2.6223" font-size="1.6933" lengthAdjust="spacingAndGlyphs"
text-anchor="end" opacity="0" stroke-opacity="0">VH</text>
<g class="stroked-text"><desc>VH</desc>
<path d="M17.4942 8.5297
L17.9175 9.7997
" />
<path d="M17.9175 9.7997
L18.3409 8.5297
" />
<path d="M18.7642 9.7997
L18.7642 8.5297
" />
<path d="M18.7642 9.1345
L19.4899 9.1345
" />
<path d="M19.4899 9.7997
L19.4899 8.5297
" />
</g></g>
<g style="fill:none; 
stroke:#A90000; stroke-width:0.1524; stroke-opacity:1; 
stroke-linecap:round; stroke-linejoin:round;">
<text x="22.1786" y="8.9662"
textLength="2.6827" font-size="1.6933" lengthAdjust="spacingAndGlyphs"
text-anchor="middle" opacity="0" stroke-opacity="0">B5</text>
<g class="stroked-text"><desc>B5</desc>
<path d="M21.6646 8.1375
L21.8460 8.1980
" />
<path d="M21.8460 8.1980
L21.9065 8.2584
" />
<path d="M21.9065 8.2584
L21.9669 8.3794
" />
<path d="M21.9669 8.3794
L21.9669 8.5608
" />
<path d="M21.9669 8.5608
L21.9065 8.6818
" />
<path d="M21.9065 8.6818
L21.8460 8.7423
" />
<path d="M21.8460 8.7423
L21.7250 8.8027
" />
<path d="M21.7250 8.8027
L21.2412 8.8027
" />
<path d="M21.2412 8.8027
L21.2412 7.5327
" />
<path d="M21.2412 7.5327
L21.6646 7.5327
" />
<path d="M21.6646 7.5327
L21.7855 7.5932
" />
<path d="M21.7855 7.5932
L21.8460 7.6537
" />
<path d="M21.8460 7.6537
L21.9065 7.7746
" />
<path d="M21.9065 7.7746
L21.9065 7.8956
" />
<path d="M21.9065 7.8956
L21.8460 8.0165
" />
<path d="M21.8460 8.0165
L21.7855 8.0770
" />
<path d="M21.7855 8.0770
L21.6646 8.1375
" />
<path d="M21.6646 8.1375
L21.2412 8.1375
" />
<path d="M23.1160 7.5327
L22.5112 7.5327
" />
<path d="M22.5112 7.5327
L22.4508 8.1375
" />
<path d="M22.4508 8.1375
L22.5112 8.0770
" />
<path d="M22.5112 8.0770
L22.6322 8.0165
" />
<path d="M22.6322 8.0165
L22.9346 8.0165
" />
<path d="M22.9346 8.0165
L23.0555 8.0770
" />
<path d="M23.0555 8.0770
L23.1160 8.1375
" />
<path d="M23.1160 8.1375
L23.1765 8.2584
" />
<path d="M23.1765 8.2584
L23.1765 8.5608
" />
<path d="M23.1765 8.5608
L23.1160 8.6818
" />
<path d="M23.1160 8.6818
L23.0555 8.7423
" />
<path d="M23.0555 8.7423
L22.9346 8.8027
" />
<path d="M22.9346 8.8027
L22.6322 8.8027
" />
<path d="M22.6322 8.8027
L22.5112 8.7423
" />
<path d="M22.5112 8.7423
L22.4508 8.6818
" />
</g></g>
<g style="fill:none; 
stroke:#840000; stroke-width:0.1524; stroke-opacity:1; 
stroke-linecap:round; stroke-linejoin:round;">
<path d="M20.9086 30.8102
L23.4486 30.8102
" />
</g>
<g style="fill:none; 
stroke:#006464; stroke-width:0.1524; stroke-opacity:1; 
stroke-linecap:round; stroke-linejoin:round;">
<text x="19.8926" y="31.4452"
textLength="4.2551" font-size="1.6933" lengthAdjust="spacingAndGlyphs"
text-anchor="end" opacity="0" stroke-opacity="0">COM</text>
<g class="stroked-text"><desc>COM</desc>
<path d="M16.7685 31.2688
L16.7081 31.3293
" />
<path d="M16.7081 31.3293
L16.5266 31.3897
" />
<path d="M16.5266 31.3897
L16.4057 31.3897
" />
<path d="M16.4057 31.3897
L16.2243 31.3293
" />
<path d="M16.2243 31.3293
L16.1033 31.2083
" />
<path d="M16.1033 31.2083
L16.0428 31.0873
" />
<path d="M16.0428 31.0873
L15.9824 30.8454
" />
<path d="M15.9824 30.8454
L15.9824 30.6640
" />
<path d="M15.9824 30.6640
L16.0428 30.4221
" />
<path d="M16.0428 30.4221
L16.1033 30.3012
" />
<path d="M16.1033 30.3012
L16.2243 30.1802
" />
<path d="M16.2243 30.1802
L16.4057 30.1197
" />
<path d="M16.4057 30.1197
L16.5266 30.1197
" />
<path d="M16.5266 30.1197
L16.7081 30.1802
" />
<path d="M16.7081 30.1802
L16.7685 30.2407
" />
<path d="M17.5547 30.1197
L17.7966 30.1197
" />
<path d="M17.7966 30.1197
L17.9176 30.1802
" />
<path d="M17.9176 30.1802
L18.0385 30.3012
" />
<path d="M18.0385 30.3012
L18.0990 30.5431
" />
<path d="M18.0990 30.5431
L18.0990 30.9664
" />
<path d="M18.0990 30.9664
L18.0385 31.2083
" />
<path d="M18.0385 31.2083
L17.9176 31.3293
" />
<path d="M17.9176 31.3293
L17.7966 31.3897
" />
<path d="M17.7966 31.3897
L17.5547 31.3897
" />
<path d="M17.5547 31.3897
L17.4338 31.3293
" />
<path d="M17.4338 31.3293
L17.3128 31.2083
" />
<path d="M17.3128 31.2083
L17.2524 30.9664
" />
<path d="M17.2524 30.9664
L17.2524 30.5431
" />
<path d="M17.2524 30.5431
L17.3128 30.3012
" />
<path d="M17.3128 30.3012
L17.4338 30.1802
" />
<path d="M17.4338 30.1802
L17.5547 30.1197
" />
<path d="M18.6433 31.3897
L18.6433 30.1197
" />
<path d="M18.6433 30.1197
L19.0667 31.0269
" />
<path d="M19.0667 31.0269
L19.4900 30.1197
" />
<path d="M19.4900 30.1197
L19.4900 31.3897
" />
</g></g>
<g style="fill:none; 
stroke:#A90000; stroke-width:0.1524; stroke-opacity:1; 
stroke-linecap:round; stroke-linejoin:round;">
<text x="22.1786" y="30.5562"
textLength="2.6827" font-size="1.6933" lengthAdjust="spacingAndGlyphs"
text-anchor="middle" opacity="0" stroke-opacity="0">C1</text>
<g class="stroked-text"><desc>C1</desc>
<path d="M21.9669 30.2718
L21.9065 30.3323
" />
<path d="M21.9065 30.3323
L21.7250 30.3927
" />
<path d="M21.7250 30.3927
L21.6041 30.3927
" />
<path d="M21.6041 30.3927
L21.4227 30.3323
" />
<path d="M21.4227 30.3323
L21.3017 30.2113
" />
<path d="M21.3017 30.2113
L21.2412 30.0903
" />
<path d="M21.2412 30.0903
L21.1808 29.8484
" />
<path d="M21.1808 29.8484
L21.1808 29.6670
" />
<path d="M21.1808 29.6670
L21.2412 29.4251
" />
<path d="M21.2412 29.4251
L21.3017 29.3042
" />
<path d="M21.3017 29.3042
L21.4227 29.1832
" />
<path d="M21.4227 29.1832
L21.6041 29.1227
" />
<path d="M21.6041 29.1227
L21.7250 29.1227
" />
<path d="M21.7250 29.1227
L21.9065 29.1832
" />
<path d="M21.9065 29.1832
L21.9669 29.2437
" />
<path d="M23.1765 30.3927
L22.4508 30.3927
" />
<path d="M22.8136 30.3927
L22.8136 29.1227
" />
<path d="M22.8136 29.1227
L22.6927 29.3042
" />
<path d="M22.6927 29.3042
L22.5717 29.4251
" />
<path d="M22.5717 29.4251
L22.4508 29.4856
" />
</g></g>
<g style="fill:none; 
stroke:#840000; stroke-width:0.1524; stroke-opacity:1; 
stroke-linecap:round; stroke-linejoin:round;">
<path d="M20.9086 25.7302
L23.4486 25.7302
" />
</g>
<g style="fill:none; 
stroke:#006464; stroke-width:0.1524; stroke-opacity:1; 
stroke-linecap:round; stroke-linejoin:round;">
<text x="19.8926" y="26.3652"
textLength="3.4689" font-size="1.6933" lengthAdjust="spacingAndGlyphs"
text-anchor="end" opacity="0" stroke-opacity="0">LL4</text>
<g class="stroked-text"><desc>LL4</desc>
<path d="M17.4338 26.3097
L16.8290 26.3097
" />
<path d="M16.8290 26.3097
L16.8290 25.0397
" />
<path d="M18.4619 26.3097
L17.8571 26.3097
" />
<path d="M17.8571 26.3097
L17.8571 25.0397
" />
<path d="M19.4295 25.4631
L19.4295 26.3097
" />
<path d="M19.1271 24.9793
L18.8248 25.8864
" />
<path d="M18.8248 25.8864
L19.6109 25.8864
" />
</g></g>
<g style="fill:none; 
stroke:#A90000; stroke-width:0.1524; stroke-opacity:1; 
stroke-linecap:round; stroke-linejoin:round;">
<text x="22.1786" y="25.4762"
textLength="2.6827" font-size="1.6933" lengthAdjust="spacingAndGlyphs"
text-anchor="middle" opacity="0" stroke-opacity="0">C2</text>
<g class="stroked-text"><desc>C2</desc>
<path d="M21.9669 25.1918
L21.9065 25.2523
" />
<path d="M21.9065 25.2523
L21.7250 25.3127
" />
<path d="M21.7250 25.3127
L21.6041 25.3127
" />
<path d="M21.6041 25.3127
L21.4227 25.2523
" />
<path d="M21.4227 25.2523
L21.3017 25.1313
" />
<path d="M21.3017 25.1313
L21.2412 25.0103
" />
<path d="M21.2412 25.0103
L21.1808 24.7684
" />
<path d="M21.1808 24.7684
L21.1808 24.5870
" />
<path d="M21.1808 24.5870
L21.2412 24.3451
" />
<path d="M21.2412 24.3451
L21.3017 24.2242
" />
<path d="M21.3017 24.2242
L21.4227 24.1032
" />
<path d="M21.4227 24.1032
L21.6041 24.0427
" />
<path d="M21.6041 24.0427
L21.7250 24.0427
" />
<path d="M21.7250 24.0427
L21.9065 24.1032
" />
<path d="M21.9065 24.1032
L21.9669 24.1637
" />
<path d="M22.4508 24.1637
L22.5112 24.1032
" />
<path d="M22.5112 24.1032
L22.6322 24.0427
" />
<path d="M22.6322 24.0427
L22.9346 24.0427
" />
<path d="M22.9346 24.0427
L23.0555 24.1032
" />
<path d="M23.0555 24.1032
L23.1160 24.1637
" />
<path d="M23.1160 24.1637
L23.1765 24.2846
" />
<path d="M23.1765 24.2846
L23.1765 24.4056
" />
<path d="M23.1765 24.4056
L23.1160 24.5870
" />
<path d="M23.1160 24.5870
L22.3903 25.3127
" />
<path d="M22.3903 25.3127
L23.1765 25.3127
" />
</g></g>
<g style="fill:none; 
stroke:#840000; stroke-width:0.1524; stroke-opacity:1; 
stroke-linecap:round; stroke-linejoin:round;">
<path d="M20.9086 23.1902
L23.4486 23.1902
" />
</g>
<g style="fill:none; 
stroke:#006464; stroke-width:0.1524; stroke-opacity:1; 
stroke-linecap:round; stroke-linejoin:round;">
<text x="19.8926" y="23.8252"
textLength="3.4689" font-size="1.6933" lengthAdjust="spacingAndGlyphs"
text-anchor="end" opacity="0" stroke-opacity="0">LL3</text>
<g class="stroked-text"><desc>LL3</desc>
<path d="M17.4338 23.7697
L16.8290 23.7697
" />
<path d="M16.8290 23.7697
L16.8290 22.4997
" />
<path d="M18.4619 23.7697
L17.8571 23.7697
" />
<path d="M17.8571 23.7697
L17.8571 22.4997
" />
<path d="M18.7643 22.4997
L19.5505 22.4997
" />
<path d="M19.5505 22.4997
L19.1271 22.9835
" />
<path d="M19.1271 22.9835
L19.3086 22.9835
" />
<path d="M19.3086 22.9835
L19.4295 23.0440
" />
<path d="M19.4295 23.0440
L19.4900 23.1045
" />
<path d="M19.4900 23.1045
L19.5505 23.2254
" />
<path d="M19.5505 23.2254
L19.5505 23.5278
" />
<path d="M19.5505 23.5278
L19.4900 23.6488
" />
<path d="M19.4900 23.6488
L19.4295 23.7093
" />
<path d="M19.4295 23.7093
L19.3086 23.7697
" />
<path d="M19.3086 23.7697
L18.9457 23.7697
" />
<path d="M18.9457 23.7697
L18.8248 23.7093
" />
<path d="M18.8248 23.7093
L18.7643 23.6488
" />
</g></g>
<g style="fill:none; 
stroke:#A90000; stroke-width:0.1524; stroke-opacity:1; 
stroke-linecap:round; stroke-linejoin:round;">
<text x="22.1786" y="22.9362"
textLength="2.6827" font-size="1.6933" lengthAdjust="spacingAndGlyphs"
text-anchor="middle" opacity="0" stroke-opacity="0">C3</text>
<g class="stroked-text"><desc>C3</desc>
<path d="M21.9669 22.6518
L21.9065 22.7123
" />
<path d="M21.9065 22.7123
L21.7250 22.7727
" />
<path d="M21.7250 22.7727
L21.6041 22.7727
" />
<path d="M21.6041 22.7727
L21.4227 22.7123
" />
<path d="M21.4227 22.7123
L21.3017 22.5913
" />
<path d="M21.3017 22.5913
L21.2412 22.4703
" />
<path d="M21.2412 22.4703
L21.1808 22.2284
" />
<path d="M21.1808 22.2284
L21.1808 22.0470
" />
<path d="M21.1808 22.0470
L21.2412 21.8051
" />
<path d="M21.2412 21.8051
L21.3017 21.6842
" />
<path d="M21.3017 21.6842
L21.4227 21.5632
" />
<path d="M21.4227 21.5632
L21.6041 21.5027
" />
<path d="M21.6041 21.5027
L21.7250 21.5027
" />
<path d="M21.7250 21.5027
L21.9065 21.5632
" />
<path d="M21.9065 21.5632
L21.9669 21.6237
" />
<path d="M22.3903 21.5027
L23.1765 21.5027
" />
<path d="M23.1765 21.5027
L22.7531 21.9865
" />
<path d="M22.7531 21.9865
L22.9346 21.9865
" />
<path d="M22.9346 21.9865
L23.0555 22.0470
" />
<path d="M23.0555 22.0470
L23.1160 22.1075
" />
<path d="M23.1160 22.1075
L23.1765 22.2284
" />
<path d="M23.1765 22.2284
L23.1765 22.5308
" />
<path d="M23.1765 22.5308
L23.1160 22.6518
" />
<path d="M23.1160 22.6518
L23.0555 22.7123
" />
<path d="M23.0555 22.7123
L22.9346 22.7727
" />
<path d="M22.9346 22.7727
L22.5717 22.7727
" />
<path d="M22.5717 22.7727
L22.4508 22.7123
" />
<path d="M22.4508 22.7123
L22.3903 22.6518
" />
</g></g>
<g style="fill:none; 
stroke:#840000; stroke-width:0.1524; stroke-opacity:1; 
stroke-linecap:round; stroke-linejoin:round;">
<path d="M20.9086 20.6502
L23.4486 20.6502
" />
</g>
<g style="fill:none; 
stroke:#006464; stroke-width:0.1524; stroke-opacity:1; 
stroke-linecap:round; stroke-linejoin:round;">
<text x="19.8926" y="21.2852"
textLength="3.4689" font-size="1.6933" lengthAdjust="spacingAndGlyphs"
text-anchor="end" opacity="0" stroke-opacity="0">LL2</text>
<g class="stroked-text"><desc>LL2</desc>
<path d="M17.4338 21.2297
L16.8290 21.2297
" />
<path d="M16.8290 21.2297
L16.8290 19.9597
" />
<path d="M18.4619 21.2297
L17.8571 21.2297
" />
<path d="M17.8571 21.2297
L17.8571 19.9597
" />
<path d="M18.8248 20.0807
L18.8852 20.0202
" />
<path d="M18.8852 20.0202
L19.0062 19.9597
" />
<path d="M19.0062 19.9597
L19.3086 19.9597
" />
<path d="M19.3086 19.9597
L19.4295 20.0202
" />
<path d="M19.4295 20.0202
L19.4900 20.0807
" />
<path d="M19.4900 20.0807
L19.5505 20.2016
" />
<path d="M19.5505 20.2016
L19.5505 20.3226
" />
<path d="M19.5505 20.3226
L19.4900 20.5040
" />
<path d="M19.4900 20.5040
L18.7643 21.2297
" />
<path d="M18.7643 21.2297
L19.5505 21.2297
" />
</g></g>
<g style="fill:none; 
stroke:#A90000; stroke-width:0.1524; stroke-opacity:1; 
stroke-linecap:round; stroke-linejoin:round;">
<text x="22.1786" y="20.3962"
textLength="2.6827" font-size="1.6933" lengthAdjust="spacingAndGlyphs"
text-anchor="middle" opacity="0" stroke-opacity="0">C4</text>
<g class="stroked-text"><desc>C4</desc>
<path d="M21.9669 20.1118
L21.9065 20.1723
" />
<path d="M21.9065 20.1723
L21.7250 20.2327
" />
<path d="M21.7250 20.2327
L21.6041 20.2327
" />
<path d="M21.6041 20.2327
L21.4227 20.1723
" />
<path d="M21.4227 20.1723
L21.3017 20.0513
" />
<path d="M21.3017 20.0513
L21.2412 19.9303
" />
<path d="M21.2412 19.9303
L21.1808 19.6884
" />
<path d="M21.1808 19.6884
L21.1808 19.5070
" />
<path d="M21.1808 19.5070
L21.2412 19.2651
" />
<path d="M21.2412 19.2651
L21.3017 19.1442
" />
<path d="M21.3017 19.1442
L21.4227 19.0232
" />
<path d="M21.4227 19.0232
L21.6041 18.9627
" />
<path d="M21.6041 18.9627
L21.7250 18.9627
" />
<path d="M21.7250 18.9627
L21.9065 19.0232
" />
<path d="M21.9065 19.0232
L21.9669 19.0837
" />
<path d="M23.0555 19.3861
L23.0555 20.2327
" />
<path d="M22.7531 18.9023
L22.4508 19.8094
" />
<path d="M22.4508 19.8094
L23.2369 19.8094
" />
</g></g>
<g style="fill:none; 
stroke:#840000; stroke-width:0.1524; stroke-opacity:1; 
stroke-linecap:round; stroke-linejoin:round;">
<path d="M20.9086 18.1102
L23.4486 18.1102
" />
</g>
<g style="fill:none; 
stroke:#006464; stroke-width:0.1524; stroke-opacity:1; 
stroke-linecap:round; stroke-linejoin:round;">
<text x="19.8926" y="18.7452"
textLength="3.4689" font-size="1.6933" lengthAdjust="spacingAndGlyphs"
text-anchor="end" opacity="0" stroke-opacity="0">LL1</text>
<g class="stroked-text"><desc>LL1</desc>
<path d="M17.4338 18.6897
L16.8290 18.6897
" />
<path d="M16.8290 18.6897
L16.8290 17.4197
" />
<path d="M18.4619 18.6897
L17.8571 18.6897
" />
<path d="M17.8571 18.6897
L17.8571 17.4197
" />
<path d="M19.5505 18.6897
L18.8248 18.6897
" />
<path d="M19.1876 18.6897
L19.1876 17.4197
" />
<path d="M19.1876 17.4197
L19.0667 17.6012
" />
<path d="M19.0667 17.6012
L18.9457 17.7221
" />
<path d="M18.9457 17.7221
L18.8248 17.7826
" />
</g></g>
<g style="fill:none; 
stroke:#A90000; stroke-width:0.1524; stroke-opacity:1; 
stroke-linecap:round; stroke-linejoin:round;">
<text x="22.1786" y="17.8562"
textLength="2.6827" font-size="1.6933" lengthAdjust="spacingAndGlyphs"
text-anchor="middle" opacity="0" stroke-opacity="0">C5</text>
<g class="stroked-text"><desc>C5</desc>
<path d="M21.9669 17.5718
L21.9065 17.6323
" />
<path d="M21.9065 17.6323
L21.7250 17.6927
" />
<path d="M21.7250 17.6927
L21.6041 17.6927
" />
<path d="M21.6041 17.6927
L21.4227 17.6323
" />
<path d="M21.4227 17.6323
L21.3017 17.5113
" />
<path d="M21.3017 17.5113
L21.2412 17.3903
" />
<path d="M21.2412 17.3903
L21.1808 17.1484
" />
<path d="M21.1808 17.1484
L21.1808 16.9670
" />
<path d="M21.1808 16.9670
L21.2412 16.7251
" />
<path d="M21.2412 16.7251
L21.3017 16.6042
" />
<path d="M21.3017 16.6042
L21.4227 16.4832
" />
<path d="M21.4227 16.4832
L21.6041 16.4227
" />
<path d="M21.6041 16.4227
L21.7250 16.4227
" />
<path d="M21.7250 16.4227
L21.9065 16.4832
" />
<path d="M21.9065 16.4832
L21.9669 16.5437
" />
<path d="M23.1160 16.4227
L22.5112 16.4227
" />
<path d="M22.5112 16.4227
L22.4508 17.0275
" />
<path d="M22.4508 17.0275
L22.5112 16.9670
" />
<path d="M22.5112 16.9670
L22.6322 16.9065
" />
<path d="M22.6322 16.9065
L22.9346 16.9065
" />
<path d="M22.9346 16.9065
L23.0555 16.9670
" />
<path d="M23.0555 16.9670
L23.1160 17.0275
" />
<path d="M23.1160 17.0275
L23.1765 17.1484
" />
<path d="M23.1765 17.1484
L23.1765 17.4508
" />
<path d="M23.1765 17.4508
L23.1160 17.5718
" />
<path d="M23.1160 17.5718
L23.0555 17.6323
" />
<path d="M23.0555 17.6323
L22.9346 17.6927
" />
<path d="M22.9346 17.6927
L22.6322 17.6927
" />
<path d="M22.6322 17.6927
L22.5112 17.6323
" />
<path d="M22.5112 17.6323
L22.4508 17.5718
" />
</g></g>
<g style="fill:none; 
stroke:#006464; stroke-width:0.1524; stroke-opacity:1; 
stroke-linecap:round; stroke-linejoin:round;">
<text x="6.9386" y="6.0452"
textLength="2.6223" font-size="1.6933" lengthAdjust="spacingAndGlyphs"
text-anchor="middle" opacity="0" stroke-opacity="0">U?</text>
<g class="stroked-text"><desc>U?</desc>
<path d="M6.0314 4.7197
L6.0314 5.7478
" />
<path d="M6.0314 5.7478
L6.0919 5.8688
" />
<path d="M6.0919 5.8688
L6.1524 5.9293
" />
<path d="M6.1524 5.9293
L6.2733 5.9897
" />
<path d="M6.2733 5.9897
L6.5152 5.9897
" />
<path d="M6.5152 5.9897
L6.6362 5.9293
" />
<path d="M6.6362 5.9293
L6.6967 5.8688
" />
<path d="M6.6967 5.8688
L6.7571 5.7478
" />
<path d="M6.7571 5.7478
L6.7571 4.7197
" />
<path d="M7.5434 5.8688
L7.6038 5.9293
" />
<path d="M7.6038 5.9293
L7.5434 5.9897
" />
<path d="M7.5434 5.9897
L7.4829 5.9293
" />
<path d="M7.4829 5.9293
L7.5434 5.8688
" />
<path d="M7.5434 5.8688
L7.5434 5.9897
" />
<path d="M7.3015 4.7802
L7.4224 4.7197
" />
<path d="M7.4224 4.7197
L7.7248 4.7197
" />
<path d="M7.7248 4.7197
L7.8457 4.7802
" />
<path d="M7.8457 4.7802
L7.9062 4.9012
" />
<path d="M7.9062 4.9012
L7.9062 5.0221
" />
<path d="M7.9062 5.0221
L7.8457 5.1431
" />
<path d="M7.8457 5.1431
L7.7853 5.2035
" />
<path d="M7.7853 5.2035
L7.6643 5.2640
" />
<path d="M7.6643 5.2640
L7.6038 5.3245
" />
<path d="M7.6038 5.3245
L7.5434 5.4454
" />
<path d="M7.5434 5.4454
L7.5434 5.5059
" />
</g><text x="23.4486" y="6.0452"
textLength="13.6287" font-size="1.6933" lengthAdjust="spacingAndGlyphs"
text-anchor="middle" opacity="0" stroke-opacity="0">MAX14574EWL</text>
<g class="stroked-text"><desc>MAX14574EWL</desc>
<path d="M17.0382 5.9897
L17.0382 4.7197
" />
<path d="M17.0382 4.7197
L17.4616 5.6269
" />
<path d="M17.4616 5.6269
L17.8849 4.7197
" />
<path d="M17.8849 4.7197
L17.8849 5.9897
" />
<path d="M18.4292 5.6269
L19.0339 5.6269
" />
<path d="M18.3082 5.9897
L18.7315 4.7197
" />
<path d="M18.7315 4.7197
L19.1549 5.9897
" />
<path d="M19.4573 4.7197
L20.3039 5.9897
" />
<path d="M20.3039 4.7197
L19.4573 5.9897
" />
<path d="M21.4530 5.9897
L20.7273 5.9897
" />
<path d="M21.0901 5.9897
L21.0901 4.7197
" />
<path d="M21.0901 4.7197
L20.9692 4.9012
" />
<path d="M20.9692 4.9012
L20.8482 5.0221
" />
<path d="M20.8482 5.0221
L20.7273 5.0826
" />
<path d="M22.5415 5.1431
L22.5415 5.9897
" />
<path d="M22.2391 4.6593
L21.9368 5.5664
" />
<path d="M21.9368 5.5664
L22.7229 5.5664
" />
<path d="M23.8115 4.7197
L23.2067 4.7197
" />
<path d="M23.2067 4.7197
L23.1463 5.3245
" />
<path d="M23.1463 5.3245
L23.2067 5.2640
" />
<path d="M23.2067 5.2640
L23.3277 5.2035
" />
<path d="M23.3277 5.2035
L23.6301 5.2035
" />
<path d="M23.6301 5.2035
L23.7510 5.2640
" />
<path d="M23.7510 5.2640
L23.8115 5.3245
" />
<path d="M23.8115 5.3245
L23.8720 5.4454
" />
<path d="M23.8720 5.4454
L23.8720 5.7478
" />
<path d="M23.8720 5.7478
L23.8115 5.8688
" />
<path d="M23.8115 5.8688
L23.7510 5.9293
" />
<path d="M23.7510 5.9293
L23.6301 5.9897
" />
<path d="M23.6301 5.9897
L23.3277 5.9897
" />
<path d="M23.3277 5.9897
L23.2067 5.9293
" />
<path d="M23.2067 5.9293
L23.1463 5.8688
" />
<path d="M24.2953 4.7197
L25.1419 4.7197
" />
<path d="M25.1419 4.7197
L24.5977 5.9897
" />
<path d="M26.1700 5.1431
L26.1700 5.9897
" />
<path d="M25.8676 4.6593
L25.5653 5.5664
" />
<path d="M25.5653 5.5664
L26.3514 5.5664
" />
<path d="M26.8352 5.3245
L27.2586 5.3245
" />
<path d="M27.4400 5.9897
L26.8352 5.9897
" />
<path d="M26.8352 5.9897
L26.8352 4.7197
" />
<path d="M26.8352 4.7197
L27.4400 4.7197
" />
<path d="M27.8633 4.7197
L28.1657 5.9897
" />
<path d="M28.1657 5.9897
L28.4076 5.0826
" />
<path d="M28.4076 5.0826
L28.6495 5.9897
" />
<path d="M28.6495 5.9897
L28.9519 4.7197
" />
<path d="M30.0404 5.9897
L29.4356 5.9897
" />
<path d="M29.4356 5.9897
L29.4356 4.7197
" />
</g></g> 
</svg>
