<?xml version="1.0" standalone="no"?>
 <!DOCTYPE svg PUBLIC "-//W3C//DTD SVG 1.1//EN" 
 "http://www.w3.org/Graphics/SVG/1.1/DTD/svg11.dtd"> 
<svg
  xmlns:svg="http://www.w3.org/2000/svg"
  xmlns="http://www.w3.org/2000/svg"
  xmlns:xlink="http://www.w3.org/1999/xlink"
  xmlns:inkscape="http://www.inkscape.org/namespaces/inkscape"
  version="1.1"
  width="100%" height="100%" viewBox="0.0000 0.0000 43.5864 24.6380">
<title>SVG Image created as max15032_unit1.svg date 2026-04-16T03:01:04 </title>
  <desc>Image generated by Eeschema-SVG </desc>
<g style="fill:#000000; fill-opacity:1.0000;stroke:#000000; stroke-opacity:1.0000;
stroke-linecap:round; stroke-linejoin:round;"
 transform="translate(0 0) scale(1 1)">
</g>
<g style="fill:#FFFFC2; fill-opacity:1.0000; stroke:none;">
<rect x="9.093200" y="4.804000" width="25.400000" height="17.780000" rx="0.000000" />
<path style="fill:none; 
stroke:#840000; stroke-width:0.1270; stroke-opacity:1; 
stroke-linecap:round; stroke-linejoin:round;fill:none"
d="M 8.5725,8.0933
7.5311,8.6140
" /> 
<path style="fill:none; 
stroke:#840000; stroke-width:0.1270; stroke-opacity:1; 
stroke-linecap:round; stroke-linejoin:round;fill:none"
d="M 8.5725,9.1347
7.5311,8.6140
" /> 
<path style="fill:none; 
stroke:#840000; stroke-width:0.1270; stroke-opacity:1; 
stroke-linecap:round; stroke-linejoin:round;fill:none"
d="M 8.5725,13.6940
7.5311,13.1733
" /> 
<path style="fill:none; 
stroke:#840000; stroke-width:0.1270; stroke-opacity:1; 
stroke-linecap:round; stroke-linejoin:round;fill:none"
d="M 8.5725,13.6940
7.5311,14.2147
" /> 
<path style="fill:none; 
stroke:#840000; stroke-width:0.1270; stroke-opacity:1; 
stroke-linecap:round; stroke-linejoin:round;fill:none"
d="M 8.5725,16.2340
7.5311,15.7133
" /> 
<path style="fill:none; 
stroke:#840000; stroke-width:0.1270; stroke-opacity:1; 
stroke-linecap:round; stroke-linejoin:round;fill:none"
d="M 8.5725,16.2340
7.5311,16.7547
" /> 
<path style="fill:none; 
stroke:#840000; stroke-width:0.1270; stroke-opacity:1; 
stroke-linecap:round; stroke-linejoin:round;fill:none"
d="M 35.0139,13.6940
36.0553,13.1733
" /> 
<path style="fill:none; 
stroke:#840000; stroke-width:0.1270; stroke-opacity:1; 
stroke-linecap:round; stroke-linejoin:round;fill:none"
d="M 35.0139,13.6940
36.0553,14.2147
" /> 
<path style="fill:none; 
stroke:#840000; stroke-width:0.1270; stroke-opacity:1; 
stroke-linecap:round; stroke-linejoin:round;fill:none"
d="M 35.0139,16.2340
36.0553,15.7133
" /> 
<path style="fill:none; 
stroke:#840000; stroke-width:0.1270; stroke-opacity:1; 
stroke-linecap:round; stroke-linejoin:round;fill:none"
d="M 35.0139,16.2340
36.0553,16.7547
" /> 
<path style="fill:none; 
stroke:#840000; stroke-width:0.1270; stroke-opacity:1; 
stroke-linecap:round; stroke-linejoin:round;fill:none"
d="M 35.0139,18.7740
36.0553,18.2533
" /> 
<path style="fill:none; 
stroke:#840000; stroke-width:0.1270; stroke-opacity:1; 
stroke-linecap:round; stroke-linejoin:round;fill:none"
d="M 35.0139,18.7740
36.0553,19.2947
" /> 
</g>
<g style="fill:none; 
stroke:#840000; stroke-width:0.1524; stroke-opacity:1; 
stroke-linecap:round; stroke-linejoin:round;">
<rect x="9.093200" y="4.804000" width="25.400000" height="17.780000" rx="0.000000" />
<path d="M9.0932 8.6140
L4.0132 8.6140
" />
</g>
<g style="fill:none; 
stroke:#006464; stroke-width:0.1524; stroke-opacity:1; 
stroke-linecap:round; stroke-linejoin:round;">
<text x="9.6012" y="9.2490"
textLength="2.4408" font-size="1.6933" lengthAdjust="spacingAndGlyphs"
text-anchor="start" opacity="0" stroke-opacity="0">LX</text>
<g class="stroked-text"><desc>LX</desc>
<path d="M10.6085 9.1935
L10.0037 9.1935
" />
<path d="M10.0037 9.1935
L10.0037 7.9235
" />
<path d="M10.9109 7.9235
L11.7575 9.1935
" />
<path d="M11.7575 7.9235
L10.9109 9.1935
" />
</g></g>
<g style="fill:none; 
stroke:#A90000; stroke-width:0.1524; stroke-opacity:1; 
stroke-linecap:round; stroke-linejoin:round;">
<text x="6.5532" y="8.3600"
textLength="1.4127" font-size="1.6933" lengthAdjust="spacingAndGlyphs"
text-anchor="middle" opacity="0" stroke-opacity="0">1</text>
<g class="stroked-text"><desc>1</desc>
<path d="M6.9161 8.1965
L6.1904 8.1965
" />
<path d="M6.5532 8.1965
L6.5532 6.9265
" />
<path d="M6.5532 6.9265
L6.4323 7.1080
" />
<path d="M6.4323 7.1080
L6.3113 7.2289
" />
<path d="M6.3113 7.2289
L6.1904 7.2894
" />
</g></g>
<g style="fill:none; 
stroke:#840000; stroke-width:0.1524; stroke-opacity:1; 
stroke-linecap:round; stroke-linejoin:round;">
<path d="M9.0932 11.1540
L4.0132 11.1540
" />
</g>
<g style="fill:none; 
stroke:#006464; stroke-width:0.1524; stroke-opacity:1; 
stroke-linecap:round; stroke-linejoin:round;">
<text x="9.6012" y="11.7890"
textLength="4.0737" font-size="1.6933" lengthAdjust="spacingAndGlyphs"
text-anchor="start" opacity="0" stroke-opacity="0">GND</text>
<g class="stroked-text"><desc>GND</desc>
<path d="M10.6690 10.5240
L10.5480 10.4635
" />
<path d="M10.5480 10.4635
L10.3666 10.4635
" />
<path d="M10.3666 10.4635
L10.1852 10.5240
" />
<path d="M10.1852 10.5240
L10.0642 10.6450
" />
<path d="M10.0642 10.6450
L10.0037 10.7659
" />
<path d="M10.0037 10.7659
L9.9433 11.0078
" />
<path d="M9.9433 11.0078
L9.9433 11.1892
" />
<path d="M9.9433 11.1892
L10.0037 11.4311
" />
<path d="M10.0037 11.4311
L10.0642 11.5521
" />
<path d="M10.0642 11.5521
L10.1852 11.6731
" />
<path d="M10.1852 11.6731
L10.3666 11.7335
" />
<path d="M10.3666 11.7335
L10.4875 11.7335
" />
<path d="M10.4875 11.7335
L10.6690 11.6731
" />
<path d="M10.6690 11.6731
L10.7294 11.6126
" />
<path d="M10.7294 11.6126
L10.7294 11.1892
" />
<path d="M10.7294 11.1892
L10.4875 11.1892
" />
<path d="M11.2737 11.7335
L11.2737 10.4635
" />
<path d="M11.2737 10.4635
L11.9994 11.7335
" />
<path d="M11.9994 11.7335
L11.9994 10.4635
" />
<path d="M12.6042 11.7335
L12.6042 10.4635
" />
<path d="M12.6042 10.4635
L12.9066 10.4635
" />
<path d="M12.9066 10.4635
L13.0880 10.5240
" />
<path d="M13.0880 10.5240
L13.2090 10.6450
" />
<path d="M13.2090 10.6450
L13.2695 10.7659
" />
<path d="M13.2695 10.7659
L13.3299 11.0078
" />
<path d="M13.3299 11.0078
L13.3299 11.1892
" />
<path d="M13.3299 11.1892
L13.2695 11.4311
" />
<path d="M13.2695 11.4311
L13.2090 11.5521
" />
<path d="M13.2090 11.5521
L13.0880 11.6731
" />
<path d="M13.0880 11.6731
L12.9066 11.7335
" />
<path d="M12.9066 11.7335
L12.6042 11.7335
" />
</g></g>
<g style="fill:none; 
stroke:#A90000; stroke-width:0.1524; stroke-opacity:1; 
stroke-linecap:round; stroke-linejoin:round;">
<text x="6.5532" y="10.9000"
textLength="1.4127" font-size="1.6933" lengthAdjust="spacingAndGlyphs"
text-anchor="middle" opacity="0" stroke-opacity="0">2</text>
<g class="stroked-text"><desc>2</desc>
<path d="M6.1904 9.5875
L6.2508 9.5270
" />
<path d="M6.2508 9.5270
L6.3718 9.4665
" />
<path d="M6.3718 9.4665
L6.6742 9.4665
" />
<path d="M6.6742 9.4665
L6.7951 9.5270
" />
<path d="M6.7951 9.5270
L6.8556 9.5875
" />
<path d="M6.8556 9.5875
L6.9161 9.7084
" />
<path d="M6.9161 9.7084
L6.9161 9.8294
" />
<path d="M6.9161 9.8294
L6.8556 10.0108
" />
<path d="M6.8556 10.0108
L6.1299 10.7365
" />
<path d="M6.1299 10.7365
L6.9161 10.7365
" />
</g></g>
<g style="fill:none; 
stroke:#840000; stroke-width:0.1524; stroke-opacity:1; 
stroke-linecap:round; stroke-linejoin:round;">
<path d="M9.0932 13.6940
L4.0132 13.6940
" />
</g>
<g style="fill:none; 
stroke:#006464; stroke-width:0.1524; stroke-opacity:1; 
stroke-linecap:round; stroke-linejoin:round;">
<text x="9.6012" y="14.3290"
textLength="2.5618" font-size="1.6933" lengthAdjust="spacingAndGlyphs"
text-anchor="start" opacity="0" stroke-opacity="0">FB</text>
<g class="stroked-text"><desc>FB</desc>
<path d="M10.4271 13.6083
L10.0037 13.6083
" />
<path d="M10.0037 14.2735
L10.0037 13.0035
" />
<path d="M10.0037 13.0035
L10.6085 13.0035
" />
<path d="M11.5157 13.6083
L11.6971 13.6688
" />
<path d="M11.6971 13.6688
L11.7576 13.7292
" />
<path d="M11.7576 13.7292
L11.8180 13.8502
" />
<path d="M11.8180 13.8502
L11.8180 14.0316
" />
<path d="M11.8180 14.0316
L11.7576 14.1526
" />
<path d="M11.7576 14.1526
L11.6971 14.2131
" />
<path d="M11.6971 14.2131
L11.5761 14.2735
" />
<path d="M11.5761 14.2735
L11.0923 14.2735
" />
<path d="M11.0923 14.2735
L11.0923 13.0035
" />
<path d="M11.0923 13.0035
L11.5157 13.0035
" />
<path d="M11.5157 13.0035
L11.6366 13.0640
" />
<path d="M11.6366 13.0640
L11.6971 13.1245
" />
<path d="M11.6971 13.1245
L11.7576 13.2454
" />
<path d="M11.7576 13.2454
L11.7576 13.3664
" />
<path d="M11.7576 13.3664
L11.6971 13.4873
" />
<path d="M11.6971 13.4873
L11.6366 13.5478
" />
<path d="M11.6366 13.5478
L11.5157 13.6083
" />
<path d="M11.5157 13.6083
L11.0923 13.6083
" />
</g></g>
<g style="fill:none; 
stroke:#A90000; stroke-width:0.1524; stroke-opacity:1; 
stroke-linecap:round; stroke-linejoin:round;">
<text x="6.5532" y="13.4400"
textLength="1.4127" font-size="1.6933" lengthAdjust="spacingAndGlyphs"
text-anchor="middle" opacity="0" stroke-opacity="0">3</text>
<g class="stroked-text"><desc>3</desc>
<path d="M6.1299 12.0065
L6.9161 12.0065
" />
<path d="M6.9161 12.0065
L6.4927 12.4903
" />
<path d="M6.4927 12.4903
L6.6742 12.4903
" />
<path d="M6.6742 12.4903
L6.7951 12.5508
" />
<path d="M6.7951 12.5508
L6.8556 12.6113
" />
<path d="M6.8556 12.6113
L6.9161 12.7322
" />
<path d="M6.9161 12.7322
L6.9161 13.0346
" />
<path d="M6.9161 13.0346
L6.8556 13.1556
" />
<path d="M6.8556 13.1556
L6.7951 13.2161
" />
<path d="M6.7951 13.2161
L6.6742 13.2765
" />
<path d="M6.6742 13.2765
L6.3113 13.2765
" />
<path d="M6.3113 13.2765
L6.1904 13.2161
" />
<path d="M6.1904 13.2161
L6.1299 13.1556
" />
</g></g>
<g style="fill:none; 
stroke:#840000; stroke-width:0.1524; stroke-opacity:1; 
stroke-linecap:round; stroke-linejoin:round;">
<path d="M9.0932 16.2340
L4.0132 16.2340
" />
</g>
<g style="fill:none; 
stroke:#006464; stroke-width:0.1524; stroke-opacity:1; 
stroke-linecap:round; stroke-linejoin:round;">
<text x="9.6012" y="16.8690"
textLength="6.3113" font-size="1.6933" lengthAdjust="spacingAndGlyphs"
text-anchor="start" opacity="0" stroke-opacity="0">*SHDN</text>
<g class="stroked-text"><desc>*SHDN</desc>
<path d="M10.1852 15.5435
L10.1852 15.8459
" />
<path d="M9.8828 15.7250
L10.1852 15.8459
" />
<path d="M10.1852 15.8459
L10.4875 15.7250
" />
<path d="M10.0037 16.0878
L10.1852 15.8459
" />
<path d="M10.1852 15.8459
L10.3666 16.0878
" />
<path d="M10.9109 16.7531
L11.0923 16.8135
" />
<path d="M11.0923 16.8135
L11.3947 16.8135
" />
<path d="M11.3947 16.8135
L11.5156 16.7531
" />
<path d="M11.5156 16.7531
L11.5761 16.6926
" />
<path d="M11.5761 16.6926
L11.6366 16.5716
" />
<path d="M11.6366 16.5716
L11.6366 16.4507
" />
<path d="M11.6366 16.4507
L11.5761 16.3297
" />
<path d="M11.5761 16.3297
L11.5156 16.2692
" />
<path d="M11.5156 16.2692
L11.3947 16.2088
" />
<path d="M11.3947 16.2088
L11.1528 16.1483
" />
<path d="M11.1528 16.1483
L11.0318 16.0878
" />
<path d="M11.0318 16.0878
L10.9713 16.0273
" />
<path d="M10.9713 16.0273
L10.9109 15.9064
" />
<path d="M10.9109 15.9064
L10.9109 15.7854
" />
<path d="M10.9109 15.7854
L10.9713 15.6645
" />
<path d="M10.9713 15.6645
L11.0318 15.6040
" />
<path d="M11.0318 15.6040
L11.1528 15.5435
" />
<path d="M11.1528 15.5435
L11.4551 15.5435
" />
<path d="M11.4551 15.5435
L11.6366 15.6040
" />
<path d="M12.1808 16.8135
L12.1808 15.5435
" />
<path d="M12.1808 16.1483
L12.9065 16.1483
" />
<path d="M12.9065 16.8135
L12.9065 15.5435
" />
<path d="M13.5113 16.8135
L13.5113 15.5435
" />
<path d="M13.5113 15.5435
L13.8137 15.5435
" />
<path d="M13.8137 15.5435
L13.9951 15.6040
" />
<path d="M13.9951 15.6040
L14.1161 15.7250
" />
<path d="M14.1161 15.7250
L14.1766 15.8459
" />
<path d="M14.1766 15.8459
L14.2370 16.0878
" />
<path d="M14.2370 16.0878
L14.2370 16.2692
" />
<path d="M14.2370 16.2692
L14.1766 16.5111
" />
<path d="M14.1766 16.5111
L14.1161 16.6321
" />
<path d="M14.1161 16.6321
L13.9951 16.7531
" />
<path d="M13.9951 16.7531
L13.8137 16.8135
" />
<path d="M13.8137 16.8135
L13.5113 16.8135
" />
<path d="M14.7813 16.8135
L14.7813 15.5435
" />
<path d="M14.7813 15.5435
L15.5070 16.8135
" />
<path d="M15.5070 16.8135
L15.5070 15.5435
" />
</g></g>
<g style="fill:none; 
stroke:#A90000; stroke-width:0.1524; stroke-opacity:1; 
stroke-linecap:round; stroke-linejoin:round;">
<text x="6.5532" y="15.9800"
textLength="1.4127" font-size="1.6933" lengthAdjust="spacingAndGlyphs"
text-anchor="middle" opacity="0" stroke-opacity="0">4</text>
<g class="stroked-text"><desc>4</desc>
<path d="M6.7951 14.9699
L6.7951 15.8165
" />
<path d="M6.4927 14.4861
L6.1904 15.3932
" />
<path d="M6.1904 15.3932
L6.9765 15.3932
" />
</g></g>
<g style="fill:none; 
stroke:#840000; stroke-width:0.1524; stroke-opacity:1; 
stroke-linecap:round; stroke-linejoin:round;">
<path d="M34.4932 18.7740
L39.5732 18.7740
" />
</g>
<g style="fill:none; 
stroke:#006464; stroke-width:0.1524; stroke-opacity:1; 
stroke-linecap:round; stroke-linejoin:round;">
<text x="33.9852" y="19.4090"
textLength="2.1385" font-size="1.6933" lengthAdjust="spacingAndGlyphs"
text-anchor="end" opacity="0" stroke-opacity="0">IN</text>
<g class="stroked-text"><desc>IN</desc>
<path d="M32.2520 19.3535
L32.2520 18.0835
" />
<path d="M32.8568 19.3535
L32.8568 18.0835
" />
<path d="M32.8568 18.0835
L33.5825 19.3535
" />
<path d="M33.5825 19.3535
L33.5825 18.0835
" />
</g></g>
<g style="fill:none; 
stroke:#A90000; stroke-width:0.1524; stroke-opacity:1; 
stroke-linecap:round; stroke-linejoin:round;">
<text x="37.0332" y="18.5200"
textLength="1.4127" font-size="1.6933" lengthAdjust="spacingAndGlyphs"
text-anchor="middle" opacity="0" stroke-opacity="0">5</text>
<g class="stroked-text"><desc>5</desc>
<path d="M37.3356 17.0865
L36.7308 17.0865
" />
<path d="M36.7308 17.0865
L36.6704 17.6913
" />
<path d="M36.6704 17.6913
L36.7308 17.6308
" />
<path d="M36.7308 17.6308
L36.8518 17.5703
" />
<path d="M36.8518 17.5703
L37.1542 17.5703
" />
<path d="M37.1542 17.5703
L37.2751 17.6308
" />
<path d="M37.2751 17.6308
L37.3356 17.6913
" />
<path d="M37.3356 17.6913
L37.3961 17.8122
" />
<path d="M37.3961 17.8122
L37.3961 18.1146
" />
<path d="M37.3961 18.1146
L37.3356 18.2356
" />
<path d="M37.3356 18.2356
L37.2751 18.2961
" />
<path d="M37.2751 18.2961
L37.1542 18.3565
" />
<path d="M37.1542 18.3565
L36.8518 18.3565
" />
<path d="M36.8518 18.3565
L36.7308 18.2961
" />
<path d="M36.7308 18.2961
L36.6704 18.2356
" />
</g></g>
<g style="fill:none; 
stroke:#840000; stroke-width:0.1524; stroke-opacity:1; 
stroke-linecap:round; stroke-linejoin:round;">
<path d="M34.4932 16.2340
L39.5732 16.2340
" />
</g>
<g style="fill:none; 
stroke:#006464; stroke-width:0.1524; stroke-opacity:1; 
stroke-linecap:round; stroke-linejoin:round;">
<text x="33.9852" y="16.8690"
textLength="2.8037" font-size="1.6933" lengthAdjust="spacingAndGlyphs"
text-anchor="end" opacity="0" stroke-opacity="0">CN</text>
<g class="stroked-text"><desc>CN</desc>
<path d="M32.3125 16.6926
L32.2521 16.7531
" />
<path d="M32.2521 16.7531
L32.0706 16.8135
" />
<path d="M32.0706 16.8135
L31.9497 16.8135
" />
<path d="M31.9497 16.8135
L31.7683 16.7531
" />
<path d="M31.7683 16.7531
L31.6473 16.6321
" />
<path d="M31.6473 16.6321
L31.5868 16.5111
" />
<path d="M31.5868 16.5111
L31.5264 16.2692
" />
<path d="M31.5264 16.2692
L31.5264 16.0878
" />
<path d="M31.5264 16.0878
L31.5868 15.8459
" />
<path d="M31.5868 15.8459
L31.6473 15.7250
" />
<path d="M31.6473 15.7250
L31.7683 15.6040
" />
<path d="M31.7683 15.6040
L31.9497 15.5435
" />
<path d="M31.9497 15.5435
L32.0706 15.5435
" />
<path d="M32.0706 15.5435
L32.2521 15.6040
" />
<path d="M32.2521 15.6040
L32.3125 15.6645
" />
<path d="M32.8568 16.8135
L32.8568 15.5435
" />
<path d="M32.8568 15.5435
L33.5825 16.8135
" />
<path d="M33.5825 16.8135
L33.5825 15.5435
" />
</g></g>
<g style="fill:none; 
stroke:#A90000; stroke-width:0.1524; stroke-opacity:1; 
stroke-linecap:round; stroke-linejoin:round;">
<text x="37.0332" y="15.9800"
textLength="1.4127" font-size="1.6933" lengthAdjust="spacingAndGlyphs"
text-anchor="middle" opacity="0" stroke-opacity="0">6</text>
<g class="stroked-text"><desc>6</desc>
<path d="M37.2751 14.5465
L37.0332 14.5465
" />
<path d="M37.0332 14.5465
L36.9123 14.6070
" />
<path d="M36.9123 14.6070
L36.8518 14.6675
" />
<path d="M36.8518 14.6675
L36.7308 14.8489
" />
<path d="M36.7308 14.8489
L36.6704 15.0908
" />
<path d="M36.6704 15.0908
L36.6704 15.5746
" />
<path d="M36.6704 15.5746
L36.7308 15.6956
" />
<path d="M36.7308 15.6956
L36.7913 15.7561
" />
<path d="M36.7913 15.7561
L36.9123 15.8165
" />
<path d="M36.9123 15.8165
L37.1542 15.8165
" />
<path d="M37.1542 15.8165
L37.2751 15.7561
" />
<path d="M37.2751 15.7561
L37.3356 15.6956
" />
<path d="M37.3356 15.6956
L37.3961 15.5746
" />
<path d="M37.3961 15.5746
L37.3961 15.2722
" />
<path d="M37.3961 15.2722
L37.3356 15.1513
" />
<path d="M37.3356 15.1513
L37.2751 15.0908
" />
<path d="M37.2751 15.0908
L37.1542 15.0303
" />
<path d="M37.1542 15.0303
L36.9123 15.0303
" />
<path d="M36.9123 15.0303
L36.7913 15.0908
" />
<path d="M36.7913 15.0908
L36.7308 15.1513
" />
<path d="M36.7308 15.1513
L36.6704 15.2722
" />
</g></g>
<g style="fill:none; 
stroke:#840000; stroke-width:0.1524; stroke-opacity:1; 
stroke-linecap:round; stroke-linejoin:round;">
<path d="M34.4932 13.6940
L39.5732 13.6940
" />
</g>
<g style="fill:none; 
stroke:#006464; stroke-width:0.1524; stroke-opacity:1; 
stroke-linecap:round; stroke-linejoin:round;">
<text x="33.9852" y="14.3290"
textLength="2.7432" font-size="1.6933" lengthAdjust="spacingAndGlyphs"
text-anchor="end" opacity="0" stroke-opacity="0">CP</text>
<g class="stroked-text"><desc>CP</desc>
<path d="M32.3730 14.1526
L32.3126 14.2131
" />
<path d="M32.3126 14.2131
L32.1311 14.2735
" />
<path d="M32.1311 14.2735
L32.0102 14.2735
" />
<path d="M32.0102 14.2735
L31.8288 14.2131
" />
<path d="M31.8288 14.2131
L31.7078 14.0921
" />
<path d="M31.7078 14.0921
L31.6473 13.9711
" />
<path d="M31.6473 13.9711
L31.5869 13.7292
" />
<path d="M31.5869 13.7292
L31.5869 13.5478
" />
<path d="M31.5869 13.5478
L31.6473 13.3059
" />
<path d="M31.6473 13.3059
L31.7078 13.1850
" />
<path d="M31.7078 13.1850
L31.8288 13.0640
" />
<path d="M31.8288 13.0640
L32.0102 13.0035
" />
<path d="M32.0102 13.0035
L32.1311 13.0035
" />
<path d="M32.1311 13.0035
L32.3126 13.0640
" />
<path d="M32.3126 13.0640
L32.3730 13.1245
" />
<path d="M32.9173 14.2735
L32.9173 13.0035
" />
<path d="M32.9173 13.0035
L33.4011 13.0035
" />
<path d="M33.4011 13.0035
L33.5221 13.0640
" />
<path d="M33.5221 13.0640
L33.5826 13.1245
" />
<path d="M33.5826 13.1245
L33.6430 13.2454
" />
<path d="M33.6430 13.2454
L33.6430 13.4269
" />
<path d="M33.6430 13.4269
L33.5826 13.5478
" />
<path d="M33.5826 13.5478
L33.5221 13.6083
" />
<path d="M33.5221 13.6083
L33.4011 13.6688
" />
<path d="M33.4011 13.6688
L32.9173 13.6688
" />
</g></g>
<g style="fill:none; 
stroke:#A90000; stroke-width:0.1524; stroke-opacity:1; 
stroke-linecap:round; stroke-linejoin:round;">
<text x="37.0332" y="13.4400"
textLength="1.4127" font-size="1.6933" lengthAdjust="spacingAndGlyphs"
text-anchor="middle" opacity="0" stroke-opacity="0">7</text>
<g class="stroked-text"><desc>7</desc>
<path d="M36.6099 12.0065
L37.4565 12.0065
" />
<path d="M37.4565 12.0065
L36.9123 13.2765
" />
</g></g>
<g style="fill:none; 
stroke:#840000; stroke-width:0.1524; stroke-opacity:1; 
stroke-linecap:round; stroke-linejoin:round;">
<path d="M34.4932 11.1540
L39.5732 11.1540
" />
</g>
<g style="fill:none; 
stroke:#006464; stroke-width:0.1524; stroke-opacity:1; 
stroke-linecap:round; stroke-linejoin:round;">
<text x="33.9852" y="11.7890"
textLength="5.3437" font-size="1.6933" lengthAdjust="spacingAndGlyphs"
text-anchor="end" opacity="0" stroke-opacity="0">PGND</text>
<g class="stroked-text"><desc>PGND</desc>
<path d="M29.0468 11.7335
L29.0468 10.4635
" />
<path d="M29.0468 10.4635
L29.5306 10.4635
" />
<path d="M29.5306 10.4635
L29.6516 10.5240
" />
<path d="M29.6516 10.5240
L29.7121 10.5845
" />
<path d="M29.7121 10.5845
L29.7725 10.7054
" />
<path d="M29.7725 10.7054
L29.7725 10.8869
" />
<path d="M29.7725 10.8869
L29.7121 11.0078
" />
<path d="M29.7121 11.0078
L29.6516 11.0683
" />
<path d="M29.6516 11.0683
L29.5306 11.1288
" />
<path d="M29.5306 11.1288
L29.0468 11.1288
" />
<path d="M30.9821 10.5240
L30.8611 10.4635
" />
<path d="M30.8611 10.4635
L30.6797 10.4635
" />
<path d="M30.6797 10.4635
L30.4983 10.5240
" />
<path d="M30.4983 10.5240
L30.3773 10.6450
" />
<path d="M30.3773 10.6450
L30.3168 10.7659
" />
<path d="M30.3168 10.7659
L30.2564 11.0078
" />
<path d="M30.2564 11.0078
L30.2564 11.1892
" />
<path d="M30.2564 11.1892
L30.3168 11.4311
" />
<path d="M30.3168 11.4311
L30.3773 11.5521
" />
<path d="M30.3773 11.5521
L30.4983 11.6731
" />
<path d="M30.4983 11.6731
L30.6797 11.7335
" />
<path d="M30.6797 11.7335
L30.8006 11.7335
" />
<path d="M30.8006 11.7335
L30.9821 11.6731
" />
<path d="M30.9821 11.6731
L31.0425 11.6126
" />
<path d="M31.0425 11.6126
L31.0425 11.1892
" />
<path d="M31.0425 11.1892
L30.8006 11.1892
" />
<path d="M31.5868 11.7335
L31.5868 10.4635
" />
<path d="M31.5868 10.4635
L32.3125 11.7335
" />
<path d="M32.3125 11.7335
L32.3125 10.4635
" />
<path d="M32.9173 11.7335
L32.9173 10.4635
" />
<path d="M32.9173 10.4635
L33.2197 10.4635
" />
<path d="M33.2197 10.4635
L33.4011 10.5240
" />
<path d="M33.4011 10.5240
L33.5221 10.6450
" />
<path d="M33.5221 10.6450
L33.5826 10.7659
" />
<path d="M33.5826 10.7659
L33.6430 11.0078
" />
<path d="M33.6430 11.0078
L33.6430 11.1892
" />
<path d="M33.6430 11.1892
L33.5826 11.4311
" />
<path d="M33.5826 11.4311
L33.5221 11.5521
" />
<path d="M33.5221 11.5521
L33.4011 11.6731
" />
<path d="M33.4011 11.6731
L33.2197 11.7335
" />
<path d="M33.2197 11.7335
L32.9173 11.7335
" />
</g></g>
<g style="fill:none; 
stroke:#A90000; stroke-width:0.1524; stroke-opacity:1; 
stroke-linecap:round; stroke-linejoin:round;">
<text x="37.0332" y="10.9000"
textLength="1.4127" font-size="1.6933" lengthAdjust="spacingAndGlyphs"
text-anchor="middle" opacity="0" stroke-opacity="0">8</text>
<g class="stroked-text"><desc>8</desc>
<path d="M36.9123 10.0108
L36.7913 9.9503
" />
<path d="M36.7913 9.9503
L36.7308 9.8899
" />
<path d="M36.7308 9.8899
L36.6704 9.7689
" />
<path d="M36.6704 9.7689
L36.6704 9.7084
" />
<path d="M36.6704 9.7084
L36.7308 9.5875
" />
<path d="M36.7308 9.5875
L36.7913 9.5270
" />
<path d="M36.7913 9.5270
L36.9123 9.4665
" />
<path d="M36.9123 9.4665
L37.1542 9.4665
" />
<path d="M37.1542 9.4665
L37.2751 9.5270
" />
<path d="M37.2751 9.5270
L37.3356 9.5875
" />
<path d="M37.3356 9.5875
L37.3961 9.7084
" />
<path d="M37.3961 9.7084
L37.3961 9.7689
" />
<path d="M37.3961 9.7689
L37.3356 9.8899
" />
<path d="M37.3356 9.8899
L37.2751 9.9503
" />
<path d="M37.2751 9.9503
L37.1542 10.0108
" />
<path d="M37.1542 10.0108
L36.9123 10.0108
" />
<path d="M36.9123 10.0108
L36.7913 10.0713
" />
<path d="M36.7913 10.0713
L36.7308 10.1318
" />
<path d="M36.7308 10.1318
L36.6704 10.2527
" />
<path d="M36.6704 10.2527
L36.6704 10.4946
" />
<path d="M36.6704 10.4946
L36.7308 10.6156
" />
<path d="M36.7308 10.6156
L36.7913 10.6761
" />
<path d="M36.7913 10.6761
L36.9123 10.7365
" />
<path d="M36.9123 10.7365
L37.1542 10.7365
" />
<path d="M37.1542 10.7365
L37.2751 10.6761
" />
<path d="M37.2751 10.6761
L37.3356 10.6156
" />
<path d="M37.3356 10.6156
L37.3961 10.4946
" />
<path d="M37.3961 10.4946
L37.3961 10.2527
" />
<path d="M37.3961 10.2527
L37.3356 10.1318
" />
<path d="M37.3356 10.1318
L37.2751 10.0713
" />
<path d="M37.2751 10.0713
L37.1542 10.0108
" />
</g></g>
<g style="fill:none; 
stroke:#840000; stroke-width:0.1524; stroke-opacity:1; 
stroke-linecap:round; stroke-linejoin:round;">
<path d="M34.4932 8.6140
L39.5732 8.6140
" />
</g>
<g style="fill:none; 
stroke:#006464; stroke-width:0.1524; stroke-opacity:1; 
stroke-linecap:round; stroke-linejoin:round;">
<text x="33.9852" y="9.2490"
textLength="4.9808" font-size="1.6933" lengthAdjust="spacingAndGlyphs"
text-anchor="end" opacity="0" stroke-opacity="0">EPAD</text>
<g class="stroked-text"><desc>EPAD</desc>
<path d="M29.4097 8.5283
L29.8331 8.5283
" />
<path d="M30.0145 9.1935
L29.4097 9.1935
" />
<path d="M29.4097 9.1935
L29.4097 7.9235
" />
<path d="M29.4097 7.9235
L30.0145 7.9235
" />
<path d="M30.5587 9.1935
L30.5587 7.9235
" />
<path d="M30.5587 7.9235
L31.0425 7.9235
" />
<path d="M31.0425 7.9235
L31.1635 7.9840
" />
<path d="M31.1635 7.9840
L31.2240 8.0445
" />
<path d="M31.2240 8.0445
L31.2844 8.1654
" />
<path d="M31.2844 8.1654
L31.2844 8.3469
" />
<path d="M31.2844 8.3469
L31.2240 8.4678
" />
<path d="M31.2240 8.4678
L31.1635 8.5283
" />
<path d="M31.1635 8.5283
L31.0425 8.5888
" />
<path d="M31.0425 8.5888
L30.5587 8.5888
" />
<path d="M31.7683 8.8307
L32.3730 8.8307
" />
<path d="M31.6473 9.1935
L32.0706 7.9235
" />
<path d="M32.0706 7.9235
L32.4940 9.1935
" />
<path d="M32.9173 9.1935
L32.9173 7.9235
" />
<path d="M32.9173 7.9235
L33.2197 7.9235
" />
<path d="M33.2197 7.9235
L33.4011 7.9840
" />
<path d="M33.4011 7.9840
L33.5221 8.1050
" />
<path d="M33.5221 8.1050
L33.5826 8.2259
" />
<path d="M33.5826 8.2259
L33.6430 8.4678
" />
<path d="M33.6430 8.4678
L33.6430 8.6492
" />
<path d="M33.6430 8.6492
L33.5826 8.8911
" />
<path d="M33.5826 8.8911
L33.5221 9.0121
" />
<path d="M33.5221 9.0121
L33.4011 9.1331
" />
<path d="M33.4011 9.1331
L33.2197 9.1935
" />
<path d="M33.2197 9.1935
L32.9173 9.1935
" />
</g></g>
<g style="fill:none; 
stroke:#A90000; stroke-width:0.1524; stroke-opacity:1; 
stroke-linecap:round; stroke-linejoin:round;">
<text x="37.0332" y="8.3600"
textLength="1.4127" font-size="1.6933" lengthAdjust="spacingAndGlyphs"
text-anchor="middle" opacity="0" stroke-opacity="0">9</text>
<g class="stroked-text"><desc>9</desc>
<path d="M36.7913 8.1965
L37.0332 8.1965
" />
<path d="M37.0332 8.1965
L37.1542 8.1361
" />
<path d="M37.1542 8.1361
L37.2146 8.0756
" />
<path d="M37.2146 8.0756
L37.3356 7.8941
" />
<path d="M37.3356 7.8941
L37.3961 7.6522
" />
<path d="M37.3961 7.6522
L37.3961 7.1684
" />
<path d="M37.3961 7.1684
L37.3356 7.0475
" />
<path d="M37.3356 7.0475
L37.2751 6.9870
" />
<path d="M37.2751 6.9870
L37.1542 6.9265
" />
<path d="M37.1542 6.9265
L36.9123 6.9265
" />
<path d="M36.9123 6.9265
L36.7913 6.9870
" />
<path d="M36.7913 6.9870
L36.7308 7.0475
" />
<path d="M36.7308 7.0475
L36.6704 7.1684
" />
<path d="M36.6704 7.1684
L36.6704 7.4708
" />
<path d="M36.6704 7.4708
L36.7308 7.5918
" />
<path d="M36.7308 7.5918
L36.7913 7.6522
" />
<path d="M36.7913 7.6522
L36.9123 7.7127
" />
<path d="M36.9123 7.7127
L37.1542 7.7127
" />
<path d="M37.1542 7.7127
L37.2751 7.6522
" />
<path d="M37.2751 7.6522
L37.3356 7.5918
" />
<path d="M37.3356 7.5918
L37.3961 7.4708
" />
</g></g>
<g style="fill:none; 
stroke:#006464; stroke-width:0.1524; stroke-opacity:1; 
stroke-linecap:round; stroke-linejoin:round;">
<text x="10.1092" y="4.0420"
textLength="3.0553" font-size="2.0320" lengthAdjust="spacingAndGlyphs"
text-anchor="middle" opacity="0" stroke-opacity="0">U?</text>
<g class="stroked-text"><desc>U?</desc>
<path d="M9.0206 2.4530
L9.0206 3.6867
" />
<path d="M9.0206 3.6867
L9.0932 3.8319
" />
<path d="M9.0932 3.8319
L9.1658 3.9045
" />
<path d="M9.1658 3.9045
L9.3109 3.9770
" />
<path d="M9.3109 3.9770
L9.6012 3.9770
" />
<path d="M9.6012 3.9770
L9.7463 3.9045
" />
<path d="M9.7463 3.9045
L9.8189 3.8319
" />
<path d="M9.8189 3.8319
L9.8915 3.6867
" />
<path d="M9.8915 3.6867
L9.8915 2.4530
" />
<path d="M10.8349 3.8319
L10.9075 3.9045
" />
<path d="M10.9075 3.9045
L10.8349 3.9770
" />
<path d="M10.8349 3.9770
L10.7624 3.9045
" />
<path d="M10.7624 3.9045
L10.8349 3.8319
" />
<path d="M10.8349 3.8319
L10.8349 3.9770
" />
<path d="M10.5446 2.5256
L10.6898 2.4530
" />
<path d="M10.6898 2.4530
L11.0526 2.4530
" />
<path d="M11.0526 2.4530
L11.1978 2.5256
" />
<path d="M11.1978 2.5256
L11.2704 2.6707
" />
<path d="M11.2704 2.6707
L11.2704 2.8159
" />
<path d="M11.2704 2.8159
L11.1978 2.9610
" />
<path d="M11.1978 2.9610
L11.1252 3.0336
" />
<path d="M11.1252 3.0336
L10.9801 3.1062
" />
<path d="M10.9801 3.1062
L10.9075 3.1787
" />
<path d="M10.9075 3.1787
L10.8349 3.3239
" />
<path d="M10.8349 3.3239
L10.8349 3.3965
" />
</g><text x="28.3972" y="4.2960"
textLength="12.0540" font-size="2.0320" lengthAdjust="spacingAndGlyphs"
text-anchor="middle" opacity="0" stroke-opacity="0">max15032</text>
<g class="stroked-text"><desc>max15032</desc>
<path d="M22.8092 4.2310
L22.8092 3.2150
" />
<path d="M22.8092 3.3602
L22.8818 3.2876
" />
<path d="M22.8818 3.2876
L23.0269 3.2150
" />
<path d="M23.0269 3.2150
L23.2446 3.2150
" />
<path d="M23.2446 3.2150
L23.3898 3.2876
" />
<path d="M23.3898 3.2876
L23.4624 3.4327
" />
<path d="M23.4624 3.4327
L23.4624 4.2310
" />
<path d="M23.4624 3.4327
L23.5349 3.2876
" />
<path d="M23.5349 3.2876
L23.6801 3.2150
" />
<path d="M23.6801 3.2150
L23.8978 3.2150
" />
<path d="M23.8978 3.2150
L24.0429 3.2876
" />
<path d="M24.0429 3.2876
L24.1155 3.4327
" />
<path d="M24.1155 3.4327
L24.1155 4.2310
" />
<path d="M25.4944 4.2310
L25.4944 3.4327
" />
<path d="M25.4944 3.4327
L25.4218 3.2876
" />
<path d="M25.4218 3.2876
L25.2766 3.2150
" />
<path d="M25.2766 3.2150
L24.9864 3.2150
" />
<path d="M24.9864 3.2150
L24.8412 3.2876
" />
<path d="M25.4944 4.1585
L25.3492 4.2310
" />
<path d="M25.3492 4.2310
L24.9864 4.2310
" />
<path d="M24.9864 4.2310
L24.8412 4.1585
" />
<path d="M24.8412 4.1585
L24.7686 4.0133
" />
<path d="M24.7686 4.0133
L24.7686 3.8682
" />
<path d="M24.7686 3.8682
L24.8412 3.7230
" />
<path d="M24.8412 3.7230
L24.9864 3.6505
" />
<path d="M24.9864 3.6505
L25.3492 3.6505
" />
<path d="M25.3492 3.6505
L25.4944 3.5779
" />
<path d="M26.0750 4.2310
L26.8733 3.2150
" />
<path d="M26.0750 3.2150
L26.8733 4.2310
" />
<path d="M28.2521 4.2310
L27.3812 4.2310
" />
<path d="M27.8167 4.2310
L27.8167 2.7070
" />
<path d="M27.8167 2.7070
L27.6715 2.9247
" />
<path d="M27.6715 2.9247
L27.5264 3.0699
" />
<path d="M27.5264 3.0699
L27.3812 3.1425
" />
<path d="M29.6309 2.7070
L28.9052 2.7070
" />
<path d="M28.9052 2.7070
L28.8326 3.4327
" />
<path d="M28.8326 3.4327
L28.9052 3.3602
" />
<path d="M28.9052 3.3602
L29.0504 3.2876
" />
<path d="M29.0504 3.2876
L29.4132 3.2876
" />
<path d="M29.4132 3.2876
L29.5584 3.3602
" />
<path d="M29.5584 3.3602
L29.6309 3.4327
" />
<path d="M29.6309 3.4327
L29.7035 3.5779
" />
<path d="M29.7035 3.5779
L29.7035 3.9407
" />
<path d="M29.7035 3.9407
L29.6309 4.0859
" />
<path d="M29.6309 4.0859
L29.5584 4.1585
" />
<path d="M29.5584 4.1585
L29.4132 4.2310
" />
<path d="M29.4132 4.2310
L29.0504 4.2310
" />
<path d="M29.0504 4.2310
L28.9052 4.1585
" />
<path d="M28.9052 4.1585
L28.8326 4.0859
" />
<path d="M30.6469 2.7070
L30.7920 2.7070
" />
<path d="M30.7920 2.7070
L30.9372 2.7796
" />
<path d="M30.9372 2.7796
L31.0098 2.8522
" />
<path d="M31.0098 2.8522
L31.0823 2.9973
" />
<path d="M31.0823 2.9973
L31.1549 3.2876
" />
<path d="M31.1549 3.2876
L31.1549 3.6505
" />
<path d="M31.1549 3.6505
L31.0823 3.9407
" />
<path d="M31.0823 3.9407
L31.0098 4.0859
" />
<path d="M31.0098 4.0859
L30.9372 4.1585
" />
<path d="M30.9372 4.1585
L30.7920 4.2310
" />
<path d="M30.7920 4.2310
L30.6469 4.2310
" />
<path d="M30.6469 4.2310
L30.5018 4.1585
" />
<path d="M30.5018 4.1585
L30.4292 4.0859
" />
<path d="M30.4292 4.0859
L30.3566 3.9407
" />
<path d="M30.3566 3.9407
L30.2840 3.6505
" />
<path d="M30.2840 3.6505
L30.2840 3.2876
" />
<path d="M30.2840 3.2876
L30.3566 2.9973
" />
<path d="M30.3566 2.9973
L30.4292 2.8522
" />
<path d="M30.4292 2.8522
L30.5018 2.7796
" />
<path d="M30.5018 2.7796
L30.6469 2.7070
" />
<path d="M31.6629 2.7070
L32.6063 2.7070
" />
<path d="M32.6063 2.7070
L32.0983 3.2876
" />
<path d="M32.0983 3.2876
L32.3160 3.2876
" />
<path d="M32.3160 3.2876
L32.4612 3.3602
" />
<path d="M32.4612 3.3602
L32.5337 3.4327
" />
<path d="M32.5337 3.4327
L32.6063 3.5779
" />
<path d="M32.6063 3.5779
L32.6063 3.9407
" />
<path d="M32.6063 3.9407
L32.5337 4.0859
" />
<path d="M32.5337 4.0859
L32.4612 4.1585
" />
<path d="M32.4612 4.1585
L32.3160 4.2310
" />
<path d="M32.3160 4.2310
L31.8806 4.2310
" />
<path d="M31.8806 4.2310
L31.7354 4.1585
" />
<path d="M31.7354 4.1585
L31.6629 4.0859
" />
<path d="M33.1868 2.8522
L33.2594 2.7796
" />
<path d="M33.2594 2.7796
L33.4046 2.7070
" />
<path d="M33.4046 2.7070
L33.7674 2.7070
" />
<path d="M33.7674 2.7070
L33.9126 2.7796
" />
<path d="M33.9126 2.7796
L33.9851 2.8522
" />
<path d="M33.9851 2.8522
L34.0577 2.9973
" />
<path d="M34.0577 2.9973
L34.0577 3.1425
" />
<path d="M34.0577 3.1425
L33.9851 3.3602
" />
<path d="M33.9851 3.3602
L33.1143 4.2310
" />
<path d="M33.1143 4.2310
L34.0577 4.2310
" />
</g></g> 
</svg>
