<?xml version="1.0" standalone="no"?>
 <!DOCTYPE svg PUBLIC "-//W3C//DTD SVG 1.1//EN" 
 "http://www.w3.org/Graphics/SVG/1.1/DTD/svg11.dtd"> 
<svg
  xmlns:svg="http://www.w3.org/2000/svg"
  xmlns="http://www.w3.org/2000/svg"
  xmlns:xlink="http://www.w3.org/1999/xlink"
  xmlns:inkscape="http://www.inkscape.org/namespaces/inkscape"
  version="1.1"
  width="100%" height="100%" viewBox="0.0000 0.0000 43.5864 24.3840">
<title>SVG Image created as max15032_unit1.svg date 2026-04-16T04:30:16 </title>
  <desc>Image generated by Eeschema-SVG </desc>
<g style="fill:#000000; fill-opacity:1.0000;stroke:#000000; stroke-opacity:1.0000;
stroke-linecap:round; stroke-linejoin:round;"
 transform="translate(0 0) scale(1 1)">
</g>
<g style="fill:#FFFFC2; fill-opacity:1.0000; stroke:none;">
<rect x="9.093200" y="4.574800" width="25.400000" height="17.780000" rx="0.000000" />
<path style="fill:none; 
stroke:#840000; stroke-width:0.1270; stroke-opacity:1; 
stroke-linecap:round; stroke-linejoin:round;fill:none"
d="M 8.5725,7.8641
7.5311,8.3848
" /> 
<path style="fill:none; 
stroke:#840000; stroke-width:0.1270; stroke-opacity:1; 
stroke-linecap:round; stroke-linejoin:round;fill:none"
d="M 8.5725,8.9055
7.5311,8.3848
" /> 
<path style="fill:none; 
stroke:#840000; stroke-width:0.1270; stroke-opacity:1; 
stroke-linecap:round; stroke-linejoin:round;fill:none"
d="M 8.5725,13.4648
7.5311,12.9441
" /> 
<path style="fill:none; 
stroke:#840000; stroke-width:0.1270; stroke-opacity:1; 
stroke-linecap:round; stroke-linejoin:round;fill:none"
d="M 8.5725,13.4648
7.5311,13.9855
" /> 
<path style="fill:none; 
stroke:#840000; stroke-width:0.1270; stroke-opacity:1; 
stroke-linecap:round; stroke-linejoin:round;fill:none"
d="M 8.5725,16.0048
7.5311,15.4841
" /> 
<path style="fill:none; 
stroke:#840000; stroke-width:0.1270; stroke-opacity:1; 
stroke-linecap:round; stroke-linejoin:round;fill:none"
d="M 8.5725,16.0048
7.5311,16.5255
" /> 
<path style="fill:none; 
stroke:#840000; stroke-width:0.1270; stroke-opacity:1; 
stroke-linecap:round; stroke-linejoin:round;fill:none"
d="M 35.0139,13.4648
36.0553,12.9441
" /> 
<path style="fill:none; 
stroke:#840000; stroke-width:0.1270; stroke-opacity:1; 
stroke-linecap:round; stroke-linejoin:round;fill:none"
d="M 35.0139,13.4648
36.0553,13.9855
" /> 
<path style="fill:none; 
stroke:#840000; stroke-width:0.1270; stroke-opacity:1; 
stroke-linecap:round; stroke-linejoin:round;fill:none"
d="M 35.0139,16.0048
36.0553,15.4841
" /> 
<path style="fill:none; 
stroke:#840000; stroke-width:0.1270; stroke-opacity:1; 
stroke-linecap:round; stroke-linejoin:round;fill:none"
d="M 35.0139,16.0048
36.0553,16.5255
" /> 
<path style="fill:none; 
stroke:#840000; stroke-width:0.1270; stroke-opacity:1; 
stroke-linecap:round; stroke-linejoin:round;fill:none"
d="M 35.0139,18.5448
36.0553,18.0241
" /> 
<path style="fill:none; 
stroke:#840000; stroke-width:0.1270; stroke-opacity:1; 
stroke-linecap:round; stroke-linejoin:round;fill:none"
d="M 35.0139,18.5448
36.0553,19.0655
" /> 
</g>
<g style="fill:none; 
stroke:#840000; stroke-width:0.1524; stroke-opacity:1; 
stroke-linecap:round; stroke-linejoin:round;">
<rect x="9.093200" y="4.574800" width="25.400000" height="17.780000" rx="0.000000" />
<path d="M9.0932 8.3848
L4.0132 8.3848
" />
</g>
<g style="fill:none; 
stroke:#006464; stroke-width:0.1524; stroke-opacity:1; 
stroke-linecap:round; stroke-linejoin:round;">
<text x="9.6012" y="9.0198"
textLength="2.4408" font-size="1.6933" lengthAdjust="spacingAndGlyphs"
text-anchor="start" opacity="0" stroke-opacity="0">LX</text>
<g class="stroked-text"><desc>LX</desc>
<path d="M10.6085 8.9643
L10.0037 8.9643
" />
<path d="M10.0037 8.9643
L10.0037 7.6943
" />
<path d="M10.9109 7.6943
L11.7575 8.9643
" />
<path d="M11.7575 7.6943
L10.9109 8.9643
" />
</g></g>
<g style="fill:none; 
stroke:#A90000; stroke-width:0.1524; stroke-opacity:1; 
stroke-linecap:round; stroke-linejoin:round;">
<text x="6.5532" y="8.1308"
textLength="1.4127" font-size="1.6933" lengthAdjust="spacingAndGlyphs"
text-anchor="middle" opacity="0" stroke-opacity="0">1</text>
<g class="stroked-text"><desc>1</desc>
<path d="M6.9161 7.9673
L6.1904 7.9673
" />
<path d="M6.5532 7.9673
L6.5532 6.6973
" />
<path d="M6.5532 6.6973
L6.4323 6.8788
" />
<path d="M6.4323 6.8788
L6.3113 6.9997
" />
<path d="M6.3113 6.9997
L6.1904 7.0602
" />
</g></g>
<g style="fill:none; 
stroke:#840000; stroke-width:0.1524; stroke-opacity:1; 
stroke-linecap:round; stroke-linejoin:round;">
<path d="M9.0932 10.9248
L4.0132 10.9248
" />
</g>
<g style="fill:none; 
stroke:#006464; stroke-width:0.1524; stroke-opacity:1; 
stroke-linecap:round; stroke-linejoin:round;">
<text x="9.6012" y="11.5598"
textLength="4.0737" font-size="1.6933" lengthAdjust="spacingAndGlyphs"
text-anchor="start" opacity="0" stroke-opacity="0">GND</text>
<g class="stroked-text"><desc>GND</desc>
<path d="M10.6690 10.2948
L10.5480 10.2343
" />
<path d="M10.5480 10.2343
L10.3666 10.2343
" />
<path d="M10.3666 10.2343
L10.1852 10.2948
" />
<path d="M10.1852 10.2948
L10.0642 10.4158
" />
<path d="M10.0642 10.4158
L10.0037 10.5367
" />
<path d="M10.0037 10.5367
L9.9433 10.7786
" />
<path d="M9.9433 10.7786
L9.9433 10.9600
" />
<path d="M9.9433 10.9600
L10.0037 11.2019
" />
<path d="M10.0037 11.2019
L10.0642 11.3229
" />
<path d="M10.0642 11.3229
L10.1852 11.4439
" />
<path d="M10.1852 11.4439
L10.3666 11.5043
" />
<path d="M10.3666 11.5043
L10.4875 11.5043
" />
<path d="M10.4875 11.5043
L10.6690 11.4439
" />
<path d="M10.6690 11.4439
L10.7294 11.3834
" />
<path d="M10.7294 11.3834
L10.7294 10.9600
" />
<path d="M10.7294 10.9600
L10.4875 10.9600
" />
<path d="M11.2737 11.5043
L11.2737 10.2343
" />
<path d="M11.2737 10.2343
L11.9994 11.5043
" />
<path d="M11.9994 11.5043
L11.9994 10.2343
" />
<path d="M12.6042 11.5043
L12.6042 10.2343
" />
<path d="M12.6042 10.2343
L12.9066 10.2343
" />
<path d="M12.9066 10.2343
L13.0880 10.2948
" />
<path d="M13.0880 10.2948
L13.2090 10.4158
" />
<path d="M13.2090 10.4158
L13.2695 10.5367
" />
<path d="M13.2695 10.5367
L13.3299 10.7786
" />
<path d="M13.3299 10.7786
L13.3299 10.9600
" />
<path d="M13.3299 10.9600
L13.2695 11.2019
" />
<path d="M13.2695 11.2019
L13.2090 11.3229
" />
<path d="M13.2090 11.3229
L13.0880 11.4439
" />
<path d="M13.0880 11.4439
L12.9066 11.5043
" />
<path d="M12.9066 11.5043
L12.6042 11.5043
" />
</g></g>
<g style="fill:none; 
stroke:#A90000; stroke-width:0.1524; stroke-opacity:1; 
stroke-linecap:round; stroke-linejoin:round;">
<text x="6.5532" y="10.6708"
textLength="1.4127" font-size="1.6933" lengthAdjust="spacingAndGlyphs"
text-anchor="middle" opacity="0" stroke-opacity="0">2</text>
<g class="stroked-text"><desc>2</desc>
<path d="M6.1904 9.3583
L6.2508 9.2978
" />
<path d="M6.2508 9.2978
L6.3718 9.2373
" />
<path d="M6.3718 9.2373
L6.6742 9.2373
" />
<path d="M6.6742 9.2373
L6.7951 9.2978
" />
<path d="M6.7951 9.2978
L6.8556 9.3583
" />
<path d="M6.8556 9.3583
L6.9161 9.4792
" />
<path d="M6.9161 9.4792
L6.9161 9.6002
" />
<path d="M6.9161 9.6002
L6.8556 9.7816
" />
<path d="M6.8556 9.7816
L6.1299 10.5073
" />
<path d="M6.1299 10.5073
L6.9161 10.5073
" />
</g></g>
<g style="fill:none; 
stroke:#840000; stroke-width:0.1524; stroke-opacity:1; 
stroke-linecap:round; stroke-linejoin:round;">
<path d="M9.0932 13.4648
L4.0132 13.4648
" />
</g>
<g style="fill:none; 
stroke:#006464; stroke-width:0.1524; stroke-opacity:1; 
stroke-linecap:round; stroke-linejoin:round;">
<text x="9.6012" y="14.0998"
textLength="2.5618" font-size="1.6933" lengthAdjust="spacingAndGlyphs"
text-anchor="start" opacity="0" stroke-opacity="0">FB</text>
<g class="stroked-text"><desc>FB</desc>
<path d="M10.4271 13.3791
L10.0037 13.3791
" />
<path d="M10.0037 14.0443
L10.0037 12.7743
" />
<path d="M10.0037 12.7743
L10.6085 12.7743
" />
<path d="M11.5157 13.3791
L11.6971 13.4396
" />
<path d="M11.6971 13.4396
L11.7576 13.5000
" />
<path d="M11.7576 13.5000
L11.8180 13.6210
" />
<path d="M11.8180 13.6210
L11.8180 13.8024
" />
<path d="M11.8180 13.8024
L11.7576 13.9234
" />
<path d="M11.7576 13.9234
L11.6971 13.9839
" />
<path d="M11.6971 13.9839
L11.5761 14.0443
" />
<path d="M11.5761 14.0443
L11.0923 14.0443
" />
<path d="M11.0923 14.0443
L11.0923 12.7743
" />
<path d="M11.0923 12.7743
L11.5157 12.7743
" />
<path d="M11.5157 12.7743
L11.6366 12.8348
" />
<path d="M11.6366 12.8348
L11.6971 12.8953
" />
<path d="M11.6971 12.8953
L11.7576 13.0162
" />
<path d="M11.7576 13.0162
L11.7576 13.1372
" />
<path d="M11.7576 13.1372
L11.6971 13.2581
" />
<path d="M11.6971 13.2581
L11.6366 13.3186
" />
<path d="M11.6366 13.3186
L11.5157 13.3791
" />
<path d="M11.5157 13.3791
L11.0923 13.3791
" />
</g></g>
<g style="fill:none; 
stroke:#A90000; stroke-width:0.1524; stroke-opacity:1; 
stroke-linecap:round; stroke-linejoin:round;">
<text x="6.5532" y="13.2108"
textLength="1.4127" font-size="1.6933" lengthAdjust="spacingAndGlyphs"
text-anchor="middle" opacity="0" stroke-opacity="0">3</text>
<g class="stroked-text"><desc>3</desc>
<path d="M6.1299 11.7773
L6.9161 11.7773
" />
<path d="M6.9161 11.7773
L6.4927 12.2611
" />
<path d="M6.4927 12.2611
L6.6742 12.2611
" />
<path d="M6.6742 12.2611
L6.7951 12.3216
" />
<path d="M6.7951 12.3216
L6.8556 12.3821
" />
<path d="M6.8556 12.3821
L6.9161 12.5030
" />
<path d="M6.9161 12.5030
L6.9161 12.8054
" />
<path d="M6.9161 12.8054
L6.8556 12.9264
" />
<path d="M6.8556 12.9264
L6.7951 12.9869
" />
<path d="M6.7951 12.9869
L6.6742 13.0473
" />
<path d="M6.6742 13.0473
L6.3113 13.0473
" />
<path d="M6.3113 13.0473
L6.1904 12.9869
" />
<path d="M6.1904 12.9869
L6.1299 12.9264
" />
</g></g>
<g style="fill:none; 
stroke:#840000; stroke-width:0.1524; stroke-opacity:1; 
stroke-linecap:round; stroke-linejoin:round;">
<path d="M9.0932 16.0048
L4.0132 16.0048
" />
</g>
<g style="fill:none; 
stroke:#006464; stroke-width:0.1524; stroke-opacity:1; 
stroke-linecap:round; stroke-linejoin:round;">
<text x="9.6012" y="16.6398"
textLength="6.3113" font-size="1.6933" lengthAdjust="spacingAndGlyphs"
text-anchor="start" opacity="0" stroke-opacity="0">*SHDN</text>
<g class="stroked-text"><desc>*SHDN</desc>
<path d="M10.1852 15.3143
L10.1852 15.6167
" />
<path d="M9.8828 15.4958
L10.1852 15.6167
" />
<path d="M10.1852 15.6167
L10.4875 15.4958
" />
<path d="M10.0037 15.8586
L10.1852 15.6167
" />
<path d="M10.1852 15.6167
L10.3666 15.8586
" />
<path d="M10.9109 16.5239
L11.0923 16.5843
" />
<path d="M11.0923 16.5843
L11.3947 16.5843
" />
<path d="M11.3947 16.5843
L11.5156 16.5239
" />
<path d="M11.5156 16.5239
L11.5761 16.4634
" />
<path d="M11.5761 16.4634
L11.6366 16.3424
" />
<path d="M11.6366 16.3424
L11.6366 16.2215
" />
<path d="M11.6366 16.2215
L11.5761 16.1005
" />
<path d="M11.5761 16.1005
L11.5156 16.0400
" />
<path d="M11.5156 16.0400
L11.3947 15.9796
" />
<path d="M11.3947 15.9796
L11.1528 15.9191
" />
<path d="M11.1528 15.9191
L11.0318 15.8586
" />
<path d="M11.0318 15.8586
L10.9713 15.7981
" />
<path d="M10.9713 15.7981
L10.9109 15.6772
" />
<path d="M10.9109 15.6772
L10.9109 15.5562
" />
<path d="M10.9109 15.5562
L10.9713 15.4353
" />
<path d="M10.9713 15.4353
L11.0318 15.3748
" />
<path d="M11.0318 15.3748
L11.1528 15.3143
" />
<path d="M11.1528 15.3143
L11.4551 15.3143
" />
<path d="M11.4551 15.3143
L11.6366 15.3748
" />
<path d="M12.1808 16.5843
L12.1808 15.3143
" />
<path d="M12.1808 15.9191
L12.9065 15.9191
" />
<path d="M12.9065 16.5843
L12.9065 15.3143
" />
<path d="M13.5113 16.5843
L13.5113 15.3143
" />
<path d="M13.5113 15.3143
L13.8137 15.3143
" />
<path d="M13.8137 15.3143
L13.9951 15.3748
" />
<path d="M13.9951 15.3748
L14.1161 15.4958
" />
<path d="M14.1161 15.4958
L14.1766 15.6167
" />
<path d="M14.1766 15.6167
L14.2370 15.8586
" />
<path d="M14.2370 15.8586
L14.2370 16.0400
" />
<path d="M14.2370 16.0400
L14.1766 16.2819
" />
<path d="M14.1766 16.2819
L14.1161 16.4029
" />
<path d="M14.1161 16.4029
L13.9951 16.5239
" />
<path d="M13.9951 16.5239
L13.8137 16.5843
" />
<path d="M13.8137 16.5843
L13.5113 16.5843
" />
<path d="M14.7813 16.5843
L14.7813 15.3143
" />
<path d="M14.7813 15.3143
L15.5070 16.5843
" />
<path d="M15.5070 16.5843
L15.5070 15.3143
" />
</g></g>
<g style="fill:none; 
stroke:#A90000; stroke-width:0.1524; stroke-opacity:1; 
stroke-linecap:round; stroke-linejoin:round;">
<text x="6.5532" y="15.7508"
textLength="1.4127" font-size="1.6933" lengthAdjust="spacingAndGlyphs"
text-anchor="middle" opacity="0" stroke-opacity="0">4</text>
<g class="stroked-text"><desc>4</desc>
<path d="M6.7951 14.7407
L6.7951 15.5873
" />
<path d="M6.4927 14.2569
L6.1904 15.1640
" />
<path d="M6.1904 15.1640
L6.9765 15.1640
" />
</g></g>
<g style="fill:none; 
stroke:#840000; stroke-width:0.1524; stroke-opacity:1; 
stroke-linecap:round; stroke-linejoin:round;">
<path d="M34.4932 18.5448
L39.5732 18.5448
" />
</g>
<g style="fill:none; 
stroke:#006464; stroke-width:0.1524; stroke-opacity:1; 
stroke-linecap:round; stroke-linejoin:round;">
<text x="33.9852" y="19.1798"
textLength="2.1385" font-size="1.6933" lengthAdjust="spacingAndGlyphs"
text-anchor="end" opacity="0" stroke-opacity="0">IN</text>
<g class="stroked-text"><desc>IN</desc>
<path d="M32.2520 19.1243
L32.2520 17.8543
" />
<path d="M32.8568 19.1243
L32.8568 17.8543
" />
<path d="M32.8568 17.8543
L33.5825 19.1243
" />
<path d="M33.5825 19.1243
L33.5825 17.8543
" />
</g></g>
<g style="fill:none; 
stroke:#A90000; stroke-width:0.1524; stroke-opacity:1; 
stroke-linecap:round; stroke-linejoin:round;">
<text x="37.0332" y="18.2908"
textLength="1.4127" font-size="1.6933" lengthAdjust="spacingAndGlyphs"
text-anchor="middle" opacity="0" stroke-opacity="0">5</text>
<g class="stroked-text"><desc>5</desc>
<path d="M37.3356 16.8573
L36.7308 16.8573
" />
<path d="M36.7308 16.8573
L36.6704 17.4621
" />
<path d="M36.6704 17.4621
L36.7308 17.4016
" />
<path d="M36.7308 17.4016
L36.8518 17.3411
" />
<path d="M36.8518 17.3411
L37.1542 17.3411
" />
<path d="M37.1542 17.3411
L37.2751 17.4016
" />
<path d="M37.2751 17.4016
L37.3356 17.4621
" />
<path d="M37.3356 17.4621
L37.3961 17.5830
" />
<path d="M37.3961 17.5830
L37.3961 17.8854
" />
<path d="M37.3961 17.8854
L37.3356 18.0064
" />
<path d="M37.3356 18.0064
L37.2751 18.0669
" />
<path d="M37.2751 18.0669
L37.1542 18.1273
" />
<path d="M37.1542 18.1273
L36.8518 18.1273
" />
<path d="M36.8518 18.1273
L36.7308 18.0669
" />
<path d="M36.7308 18.0669
L36.6704 18.0064
" />
</g></g>
<g style="fill:none; 
stroke:#840000; stroke-width:0.1524; stroke-opacity:1; 
stroke-linecap:round; stroke-linejoin:round;">
<path d="M34.4932 16.0048
L39.5732 16.0048
" />
</g>
<g style="fill:none; 
stroke:#006464; stroke-width:0.1524; stroke-opacity:1; 
stroke-linecap:round; stroke-linejoin:round;">
<text x="33.9852" y="16.6398"
textLength="2.8037" font-size="1.6933" lengthAdjust="spacingAndGlyphs"
text-anchor="end" opacity="0" stroke-opacity="0">CN</text>
<g class="stroked-text"><desc>CN</desc>
<path d="M32.3125 16.4634
L32.2521 16.5239
" />
<path d="M32.2521 16.5239
L32.0706 16.5843
" />
<path d="M32.0706 16.5843
L31.9497 16.5843
" />
<path d="M31.9497 16.5843
L31.7683 16.5239
" />
<path d="M31.7683 16.5239
L31.6473 16.4029
" />
<path d="M31.6473 16.4029
L31.5868 16.2819
" />
<path d="M31.5868 16.2819
L31.5264 16.0400
" />
<path d="M31.5264 16.0400
L31.5264 15.8586
" />
<path d="M31.5264 15.8586
L31.5868 15.6167
" />
<path d="M31.5868 15.6167
L31.6473 15.4958
" />
<path d="M31.6473 15.4958
L31.7683 15.3748
" />
<path d="M31.7683 15.3748
L31.9497 15.3143
" />
<path d="M31.9497 15.3143
L32.0706 15.3143
" />
<path d="M32.0706 15.3143
L32.2521 15.3748
" />
<path d="M32.2521 15.3748
L32.3125 15.4353
" />
<path d="M32.8568 16.5843
L32.8568 15.3143
" />
<path d="M32.8568 15.3143
L33.5825 16.5843
" />
<path d="M33.5825 16.5843
L33.5825 15.3143
" />
</g></g>
<g style="fill:none; 
stroke:#A90000; stroke-width:0.1524; stroke-opacity:1; 
stroke-linecap:round; stroke-linejoin:round;">
<text x="37.0332" y="15.7508"
textLength="1.4127" font-size="1.6933" lengthAdjust="spacingAndGlyphs"
text-anchor="middle" opacity="0" stroke-opacity="0">6</text>
<g class="stroked-text"><desc>6</desc>
<path d="M37.2751 14.3173
L37.0332 14.3173
" />
<path d="M37.0332 14.3173
L36.9123 14.3778
" />
<path d="M36.9123 14.3778
L36.8518 14.4383
" />
<path d="M36.8518 14.4383
L36.7308 14.6197
" />
<path d="M36.7308 14.6197
L36.6704 14.8616
" />
<path d="M36.6704 14.8616
L36.6704 15.3454
" />
<path d="M36.6704 15.3454
L36.7308 15.4664
" />
<path d="M36.7308 15.4664
L36.7913 15.5269
" />
<path d="M36.7913 15.5269
L36.9123 15.5873
" />
<path d="M36.9123 15.5873
L37.1542 15.5873
" />
<path d="M37.1542 15.5873
L37.2751 15.5269
" />
<path d="M37.2751 15.5269
L37.3356 15.4664
" />
<path d="M37.3356 15.4664
L37.3961 15.3454
" />
<path d="M37.3961 15.3454
L37.3961 15.0430
" />
<path d="M37.3961 15.0430
L37.3356 14.9221
" />
<path d="M37.3356 14.9221
L37.2751 14.8616
" />
<path d="M37.2751 14.8616
L37.1542 14.8011
" />
<path d="M37.1542 14.8011
L36.9123 14.8011
" />
<path d="M36.9123 14.8011
L36.7913 14.8616
" />
<path d="M36.7913 14.8616
L36.7308 14.9221
" />
<path d="M36.7308 14.9221
L36.6704 15.0430
" />
</g></g>
<g style="fill:none; 
stroke:#840000; stroke-width:0.1524; stroke-opacity:1; 
stroke-linecap:round; stroke-linejoin:round;">
<path d="M34.4932 13.4648
L39.5732 13.4648
" />
</g>
<g style="fill:none; 
stroke:#006464; stroke-width:0.1524; stroke-opacity:1; 
stroke-linecap:round; stroke-linejoin:round;">
<text x="33.9852" y="14.0998"
textLength="2.7432" font-size="1.6933" lengthAdjust="spacingAndGlyphs"
text-anchor="end" opacity="0" stroke-opacity="0">CP</text>
<g class="stroked-text"><desc>CP</desc>
<path d="M32.3730 13.9234
L32.3126 13.9839
" />
<path d="M32.3126 13.9839
L32.1311 14.0443
" />
<path d="M32.1311 14.0443
L32.0102 14.0443
" />
<path d="M32.0102 14.0443
L31.8288 13.9839
" />
<path d="M31.8288 13.9839
L31.7078 13.8629
" />
<path d="M31.7078 13.8629
L31.6473 13.7419
" />
<path d="M31.6473 13.7419
L31.5869 13.5000
" />
<path d="M31.5869 13.5000
L31.5869 13.3186
" />
<path d="M31.5869 13.3186
L31.6473 13.0767
" />
<path d="M31.6473 13.0767
L31.7078 12.9558
" />
<path d="M31.7078 12.9558
L31.8288 12.8348
" />
<path d="M31.8288 12.8348
L32.0102 12.7743
" />
<path d="M32.0102 12.7743
L32.1311 12.7743
" />
<path d="M32.1311 12.7743
L32.3126 12.8348
" />
<path d="M32.3126 12.8348
L32.3730 12.8953
" />
<path d="M32.9173 14.0443
L32.9173 12.7743
" />
<path d="M32.9173 12.7743
L33.4011 12.7743
" />
<path d="M33.4011 12.7743
L33.5221 12.8348
" />
<path d="M33.5221 12.8348
L33.5826 12.8953
" />
<path d="M33.5826 12.8953
L33.6430 13.0162
" />
<path d="M33.6430 13.0162
L33.6430 13.1977
" />
<path d="M33.6430 13.1977
L33.5826 13.3186
" />
<path d="M33.5826 13.3186
L33.5221 13.3791
" />
<path d="M33.5221 13.3791
L33.4011 13.4396
" />
<path d="M33.4011 13.4396
L32.9173 13.4396
" />
</g></g>
<g style="fill:none; 
stroke:#A90000; stroke-width:0.1524; stroke-opacity:1; 
stroke-linecap:round; stroke-linejoin:round;">
<text x="37.0332" y="13.2108"
textLength="1.4127" font-size="1.6933" lengthAdjust="spacingAndGlyphs"
text-anchor="middle" opacity="0" stroke-opacity="0">7</text>
<g class="stroked-text"><desc>7</desc>
<path d="M36.6099 11.7773
L37.4565 11.7773
" />
<path d="M37.4565 11.7773
L36.9123 13.0473
" />
</g></g>
<g style="fill:none; 
stroke:#840000; stroke-width:0.1524; stroke-opacity:1; 
stroke-linecap:round; stroke-linejoin:round;">
<path d="M34.4932 10.9248
L39.5732 10.9248
" />
</g>
<g style="fill:none; 
stroke:#006464; stroke-width:0.1524; stroke-opacity:1; 
stroke-linecap:round; stroke-linejoin:round;">
<text x="33.9852" y="11.5598"
textLength="5.3437" font-size="1.6933" lengthAdjust="spacingAndGlyphs"
text-anchor="end" opacity="0" stroke-opacity="0">PGND</text>
<g class="stroked-text"><desc>PGND</desc>
<path d="M29.0468 11.5043
L29.0468 10.2343
" />
<path d="M29.0468 10.2343
L29.5306 10.2343
" />
<path d="M29.5306 10.2343
L29.6516 10.2948
" />
<path d="M29.6516 10.2948
L29.7121 10.3553
" />
<path d="M29.7121 10.3553
L29.7725 10.4762
" />
<path d="M29.7725 10.4762
L29.7725 10.6577
" />
<path d="M29.7725 10.6577
L29.7121 10.7786
" />
<path d="M29.7121 10.7786
L29.6516 10.8391
" />
<path d="M29.6516 10.8391
L29.5306 10.8996
" />
<path d="M29.5306 10.8996
L29.0468 10.8996
" />
<path d="M30.9821 10.2948
L30.8611 10.2343
" />
<path d="M30.8611 10.2343
L30.6797 10.2343
" />
<path d="M30.6797 10.2343
L30.4983 10.2948
" />
<path d="M30.4983 10.2948
L30.3773 10.4158
" />
<path d="M30.3773 10.4158
L30.3168 10.5367
" />
<path d="M30.3168 10.5367
L30.2564 10.7786
" />
<path d="M30.2564 10.7786
L30.2564 10.9600
" />
<path d="M30.2564 10.9600
L30.3168 11.2019
" />
<path d="M30.3168 11.2019
L30.3773 11.3229
" />
<path d="M30.3773 11.3229
L30.4983 11.4439
" />
<path d="M30.4983 11.4439
L30.6797 11.5043
" />
<path d="M30.6797 11.5043
L30.8006 11.5043
" />
<path d="M30.8006 11.5043
L30.9821 11.4439
" />
<path d="M30.9821 11.4439
L31.0425 11.3834
" />
<path d="M31.0425 11.3834
L31.0425 10.9600
" />
<path d="M31.0425 10.9600
L30.8006 10.9600
" />
<path d="M31.5868 11.5043
L31.5868 10.2343
" />
<path d="M31.5868 10.2343
L32.3125 11.5043
" />
<path d="M32.3125 11.5043
L32.3125 10.2343
" />
<path d="M32.9173 11.5043
L32.9173 10.2343
" />
<path d="M32.9173 10.2343
L33.2197 10.2343
" />
<path d="M33.2197 10.2343
L33.4011 10.2948
" />
<path d="M33.4011 10.2948
L33.5221 10.4158
" />
<path d="M33.5221 10.4158
L33.5826 10.5367
" />
<path d="M33.5826 10.5367
L33.6430 10.7786
" />
<path d="M33.6430 10.7786
L33.6430 10.9600
" />
<path d="M33.6430 10.9600
L33.5826 11.2019
" />
<path d="M33.5826 11.2019
L33.5221 11.3229
" />
<path d="M33.5221 11.3229
L33.4011 11.4439
" />
<path d="M33.4011 11.4439
L33.2197 11.5043
" />
<path d="M33.2197 11.5043
L32.9173 11.5043
" />
</g></g>
<g style="fill:none; 
stroke:#A90000; stroke-width:0.1524; stroke-opacity:1; 
stroke-linecap:round; stroke-linejoin:round;">
<text x="37.0332" y="10.6708"
textLength="1.4127" font-size="1.6933" lengthAdjust="spacingAndGlyphs"
text-anchor="middle" opacity="0" stroke-opacity="0">8</text>
<g class="stroked-text"><desc>8</desc>
<path d="M36.9123 9.7816
L36.7913 9.7211
" />
<path d="M36.7913 9.7211
L36.7308 9.6607
" />
<path d="M36.7308 9.6607
L36.6704 9.5397
" />
<path d="M36.6704 9.5397
L36.6704 9.4792
" />
<path d="M36.6704 9.4792
L36.7308 9.3583
" />
<path d="M36.7308 9.3583
L36.7913 9.2978
" />
<path d="M36.7913 9.2978
L36.9123 9.2373
" />
<path d="M36.9123 9.2373
L37.1542 9.2373
" />
<path d="M37.1542 9.2373
L37.2751 9.2978
" />
<path d="M37.2751 9.2978
L37.3356 9.3583
" />
<path d="M37.3356 9.3583
L37.3961 9.4792
" />
<path d="M37.3961 9.4792
L37.3961 9.5397
" />
<path d="M37.3961 9.5397
L37.3356 9.6607
" />
<path d="M37.3356 9.6607
L37.2751 9.7211
" />
<path d="M37.2751 9.7211
L37.1542 9.7816
" />
<path d="M37.1542 9.7816
L36.9123 9.7816
" />
<path d="M36.9123 9.7816
L36.7913 9.8421
" />
<path d="M36.7913 9.8421
L36.7308 9.9026
" />
<path d="M36.7308 9.9026
L36.6704 10.0235
" />
<path d="M36.6704 10.0235
L36.6704 10.2654
" />
<path d="M36.6704 10.2654
L36.7308 10.3864
" />
<path d="M36.7308 10.3864
L36.7913 10.4469
" />
<path d="M36.7913 10.4469
L36.9123 10.5073
" />
<path d="M36.9123 10.5073
L37.1542 10.5073
" />
<path d="M37.1542 10.5073
L37.2751 10.4469
" />
<path d="M37.2751 10.4469
L37.3356 10.3864
" />
<path d="M37.3356 10.3864
L37.3961 10.2654
" />
<path d="M37.3961 10.2654
L37.3961 10.0235
" />
<path d="M37.3961 10.0235
L37.3356 9.9026
" />
<path d="M37.3356 9.9026
L37.2751 9.8421
" />
<path d="M37.2751 9.8421
L37.1542 9.7816
" />
</g></g>
<g style="fill:none; 
stroke:#840000; stroke-width:0.1524; stroke-opacity:1; 
stroke-linecap:round; stroke-linejoin:round;">
<path d="M34.4932 8.3848
L39.5732 8.3848
" />
</g>
<g style="fill:none; 
stroke:#006464; stroke-width:0.1524; stroke-opacity:1; 
stroke-linecap:round; stroke-linejoin:round;">
<text x="33.9852" y="9.0198"
textLength="4.9808" font-size="1.6933" lengthAdjust="spacingAndGlyphs"
text-anchor="end" opacity="0" stroke-opacity="0">EPAD</text>
<g class="stroked-text"><desc>EPAD</desc>
<path d="M29.4097 8.2991
L29.8331 8.2991
" />
<path d="M30.0145 8.9643
L29.4097 8.9643
" />
<path d="M29.4097 8.9643
L29.4097 7.6943
" />
<path d="M29.4097 7.6943
L30.0145 7.6943
" />
<path d="M30.5587 8.9643
L30.5587 7.6943
" />
<path d="M30.5587 7.6943
L31.0425 7.6943
" />
<path d="M31.0425 7.6943
L31.1635 7.7548
" />
<path d="M31.1635 7.7548
L31.2240 7.8153
" />
<path d="M31.2240 7.8153
L31.2844 7.9362
" />
<path d="M31.2844 7.9362
L31.2844 8.1177
" />
<path d="M31.2844 8.1177
L31.2240 8.2386
" />
<path d="M31.2240 8.2386
L31.1635 8.2991
" />
<path d="M31.1635 8.2991
L31.0425 8.3596
" />
<path d="M31.0425 8.3596
L30.5587 8.3596
" />
<path d="M31.7683 8.6015
L32.3730 8.6015
" />
<path d="M31.6473 8.9643
L32.0706 7.6943
" />
<path d="M32.0706 7.6943
L32.4940 8.9643
" />
<path d="M32.9173 8.9643
L32.9173 7.6943
" />
<path d="M32.9173 7.6943
L33.2197 7.6943
" />
<path d="M33.2197 7.6943
L33.4011 7.7548
" />
<path d="M33.4011 7.7548
L33.5221 7.8758
" />
<path d="M33.5221 7.8758
L33.5826 7.9967
" />
<path d="M33.5826 7.9967
L33.6430 8.2386
" />
<path d="M33.6430 8.2386
L33.6430 8.4200
" />
<path d="M33.6430 8.4200
L33.5826 8.6619
" />
<path d="M33.5826 8.6619
L33.5221 8.7829
" />
<path d="M33.5221 8.7829
L33.4011 8.9039
" />
<path d="M33.4011 8.9039
L33.2197 8.9643
" />
<path d="M33.2197 8.9643
L32.9173 8.9643
" />
</g></g>
<g style="fill:none; 
stroke:#A90000; stroke-width:0.1524; stroke-opacity:1; 
stroke-linecap:round; stroke-linejoin:round;">
<text x="37.0332" y="8.1308"
textLength="1.4127" font-size="1.6933" lengthAdjust="spacingAndGlyphs"
text-anchor="middle" opacity="0" stroke-opacity="0">9</text>
<g class="stroked-text"><desc>9</desc>
<path d="M36.7913 7.9673
L37.0332 7.9673
" />
<path d="M37.0332 7.9673
L37.1542 7.9069
" />
<path d="M37.1542 7.9069
L37.2146 7.8464
" />
<path d="M37.2146 7.8464
L37.3356 7.6649
" />
<path d="M37.3356 7.6649
L37.3961 7.4230
" />
<path d="M37.3961 7.4230
L37.3961 6.9392
" />
<path d="M37.3961 6.9392
L37.3356 6.8183
" />
<path d="M37.3356 6.8183
L37.2751 6.7578
" />
<path d="M37.2751 6.7578
L37.1542 6.6973
" />
<path d="M37.1542 6.6973
L36.9123 6.6973
" />
<path d="M36.9123 6.6973
L36.7913 6.7578
" />
<path d="M36.7913 6.7578
L36.7308 6.8183
" />
<path d="M36.7308 6.8183
L36.6704 6.9392
" />
<path d="M36.6704 6.9392
L36.6704 7.2416
" />
<path d="M36.6704 7.2416
L36.7308 7.3626
" />
<path d="M36.7308 7.3626
L36.7913 7.4230
" />
<path d="M36.7913 7.4230
L36.9123 7.4835
" />
<path d="M36.9123 7.4835
L37.1542 7.4835
" />
<path d="M37.1542 7.4835
L37.2751 7.4230
" />
<path d="M37.2751 7.4230
L37.3356 7.3626
" />
<path d="M37.3356 7.3626
L37.3961 7.2416
" />
</g></g>
<g style="fill:none; 
stroke:#006464; stroke-width:0.1524; stroke-opacity:1; 
stroke-linecap:round; stroke-linejoin:round;">
<text x="10.1092" y="3.6858"
textLength="2.6223" font-size="1.6933" lengthAdjust="spacingAndGlyphs"
text-anchor="middle" opacity="0" stroke-opacity="0">U?</text>
<g class="stroked-text"><desc>U?</desc>
<path d="M9.2020 2.3603
L9.2020 3.3884
" />
<path d="M9.2020 3.3884
L9.2625 3.5094
" />
<path d="M9.2625 3.5094
L9.3230 3.5699
" />
<path d="M9.3230 3.5699
L9.4439 3.6303
" />
<path d="M9.4439 3.6303
L9.6858 3.6303
" />
<path d="M9.6858 3.6303
L9.8068 3.5699
" />
<path d="M9.8068 3.5699
L9.8673 3.5094
" />
<path d="M9.8673 3.5094
L9.9277 3.3884
" />
<path d="M9.9277 3.3884
L9.9277 2.3603
" />
<path d="M10.7140 3.5094
L10.7744 3.5699
" />
<path d="M10.7744 3.5699
L10.7140 3.6303
" />
<path d="M10.7140 3.6303
L10.6535 3.5699
" />
<path d="M10.6535 3.5699
L10.7140 3.5094
" />
<path d="M10.7140 3.5094
L10.7140 3.6303
" />
<path d="M10.4721 2.4208
L10.5930 2.3603
" />
<path d="M10.5930 2.3603
L10.8954 2.3603
" />
<path d="M10.8954 2.3603
L11.0163 2.4208
" />
<path d="M11.0163 2.4208
L11.0768 2.5418
" />
<path d="M11.0768 2.5418
L11.0768 2.6627
" />
<path d="M11.0768 2.6627
L11.0163 2.7837
" />
<path d="M11.0163 2.7837
L10.9559 2.8441
" />
<path d="M10.9559 2.8441
L10.8349 2.9046
" />
<path d="M10.8349 2.9046
L10.7744 2.9651
" />
<path d="M10.7744 2.9651
L10.7140 3.0860
" />
<path d="M10.7140 3.0860
L10.7140 3.1465
" />
</g><text x="28.3972" y="3.9398"
textLength="10.1211" font-size="1.6933" lengthAdjust="spacingAndGlyphs"
text-anchor="middle" opacity="0" stroke-opacity="0">max15032</text>
<g class="stroked-text"><desc>max15032</desc>
<path d="M23.7406 3.8843
L23.7406 3.0377
" />
<path d="M23.7406 3.1586
L23.8011 3.0981
" />
<path d="M23.8011 3.0981
L23.9221 3.0377
" />
<path d="M23.9221 3.0377
L24.1035 3.0377
" />
<path d="M24.1035 3.0377
L24.2244 3.0981
" />
<path d="M24.2244 3.0981
L24.2849 3.2191
" />
<path d="M24.2849 3.2191
L24.2849 3.8843
" />
<path d="M24.2849 3.2191
L24.3454 3.0981
" />
<path d="M24.3454 3.0981
L24.4663 3.0377
" />
<path d="M24.4663 3.0377
L24.6478 3.0377
" />
<path d="M24.6478 3.0377
L24.7687 3.0981
" />
<path d="M24.7687 3.0981
L24.8292 3.2191
" />
<path d="M24.8292 3.2191
L24.8292 3.8843
" />
<path d="M25.9782 3.8843
L25.9782 3.2191
" />
<path d="M25.9782 3.2191
L25.9177 3.0981
" />
<path d="M25.9177 3.0981
L25.7968 3.0377
" />
<path d="M25.7968 3.0377
L25.5549 3.0377
" />
<path d="M25.5549 3.0377
L25.4339 3.0981
" />
<path d="M25.9782 3.8239
L25.8573 3.8843
" />
<path d="M25.8573 3.8843
L25.5549 3.8843
" />
<path d="M25.5549 3.8843
L25.4339 3.8239
" />
<path d="M25.4339 3.8239
L25.3735 3.7029
" />
<path d="M25.3735 3.7029
L25.3735 3.5819
" />
<path d="M25.3735 3.5819
L25.4339 3.4610
" />
<path d="M25.4339 3.4610
L25.5549 3.4005
" />
<path d="M25.5549 3.4005
L25.8573 3.4005
" />
<path d="M25.8573 3.4005
L25.9782 3.3400
" />
<path d="M26.4620 3.8843
L27.1272 3.0377
" />
<path d="M26.4620 3.0377
L27.1272 3.8843
" />
<path d="M28.2763 3.8843
L27.5506 3.8843
" />
<path d="M27.9134 3.8843
L27.9134 2.6143
" />
<path d="M27.9134 2.6143
L27.7925 2.7958
" />
<path d="M27.7925 2.7958
L27.6715 2.9167
" />
<path d="M27.6715 2.9167
L27.5506 2.9772
" />
<path d="M29.4253 2.6143
L28.8205 2.6143
" />
<path d="M28.8205 2.6143
L28.7601 3.2191
" />
<path d="M28.7601 3.2191
L28.8205 3.1586
" />
<path d="M28.8205 3.1586
L28.9415 3.0981
" />
<path d="M28.9415 3.0981
L29.2439 3.0981
" />
<path d="M29.2439 3.0981
L29.3648 3.1586
" />
<path d="M29.3648 3.1586
L29.4253 3.2191
" />
<path d="M29.4253 3.2191
L29.4858 3.3400
" />
<path d="M29.4858 3.3400
L29.4858 3.6424
" />
<path d="M29.4858 3.6424
L29.4253 3.7634
" />
<path d="M29.4253 3.7634
L29.3648 3.8239
" />
<path d="M29.3648 3.8239
L29.2439 3.8843
" />
<path d="M29.2439 3.8843
L28.9415 3.8843
" />
<path d="M28.9415 3.8843
L28.8205 3.8239
" />
<path d="M28.8205 3.8239
L28.7601 3.7634
" />
<path d="M30.2719 2.6143
L30.3929 2.6143
" />
<path d="M30.3929 2.6143
L30.5138 2.6748
" />
<path d="M30.5138 2.6748
L30.5743 2.7353
" />
<path d="M30.5743 2.7353
L30.6348 2.8562
" />
<path d="M30.6348 2.8562
L30.6953 3.0981
" />
<path d="M30.6953 3.0981
L30.6953 3.4005
" />
<path d="M30.6953 3.4005
L30.6348 3.6424
" />
<path d="M30.6348 3.6424
L30.5743 3.7634
" />
<path d="M30.5743 3.7634
L30.5138 3.8239
" />
<path d="M30.5138 3.8239
L30.3929 3.8843
" />
<path d="M30.3929 3.8843
L30.2719 3.8843
" />
<path d="M30.2719 3.8843
L30.1510 3.8239
" />
<path d="M30.1510 3.8239
L30.0905 3.7634
" />
<path d="M30.0905 3.7634
L30.0300 3.6424
" />
<path d="M30.0300 3.6424
L29.9696 3.4005
" />
<path d="M29.9696 3.4005
L29.9696 3.0981
" />
<path d="M29.9696 3.0981
L30.0300 2.8562
" />
<path d="M30.0300 2.8562
L30.0905 2.7353
" />
<path d="M30.0905 2.7353
L30.1510 2.6748
" />
<path d="M30.1510 2.6748
L30.2719 2.6143
" />
<path d="M31.1186 2.6143
L31.9048 2.6143
" />
<path d="M31.9048 2.6143
L31.4814 3.0981
" />
<path d="M31.4814 3.0981
L31.6629 3.0981
" />
<path d="M31.6629 3.0981
L31.7838 3.1586
" />
<path d="M31.7838 3.1586
L31.8443 3.2191
" />
<path d="M31.8443 3.2191
L31.9048 3.3400
" />
<path d="M31.9048 3.3400
L31.9048 3.6424
" />
<path d="M31.9048 3.6424
L31.8443 3.7634
" />
<path d="M31.8443 3.7634
L31.7838 3.8239
" />
<path d="M31.7838 3.8239
L31.6629 3.8843
" />
<path d="M31.6629 3.8843
L31.3000 3.8843
" />
<path d="M31.3000 3.8843
L31.1791 3.8239
" />
<path d="M31.1791 3.8239
L31.1186 3.7634
" />
<path d="M32.3886 2.7353
L32.4490 2.6748
" />
<path d="M32.4490 2.6748
L32.5700 2.6143
" />
<path d="M32.5700 2.6143
L32.8724 2.6143
" />
<path d="M32.8724 2.6143
L32.9933 2.6748
" />
<path d="M32.9933 2.6748
L33.0538 2.7353
" />
<path d="M33.0538 2.7353
L33.1143 2.8562
" />
<path d="M33.1143 2.8562
L33.1143 2.9772
" />
<path d="M33.1143 2.9772
L33.0538 3.1586
" />
<path d="M33.0538 3.1586
L32.3281 3.8843
" />
<path d="M32.3281 3.8843
L33.1143 3.8843
" />
</g></g> 
</svg>
