<?xml version="1.0" standalone="no"?>
 <!DOCTYPE svg PUBLIC "-//W3C//DTD SVG 1.1//EN" 
 "http://www.w3.org/Graphics/SVG/1.1/DTD/svg11.dtd"> 
<svg
  xmlns:svg="http://www.w3.org/2000/svg"
  xmlns="http://www.w3.org/2000/svg"
  xmlns:xlink="http://www.w3.org/1999/xlink"
  xmlns:inkscape="http://www.inkscape.org/namespaces/inkscape"
  version="1.1"
  width="100%" height="100%" viewBox="0.0000 0.0000 25.2984 29.1084">
<title>SVG Image created as NCV8154_unit1.svg date 2026-04-16T00:37:06 </title>
  <desc>Image generated by Eeschema-SVG </desc>
<g style="fill:#000000; fill-opacity:1.0000;stroke:#000000; stroke-opacity:1.0000;
stroke-linecap:round; stroke-linejoin:round;"
 transform="translate(0 0) scale(1 1)">
</g>
<g style="fill:#FFFFC2; fill-opacity:1.0000; stroke:none;">
<rect x="5.029200" y="4.714500" width="15.240000" height="19.050000" rx="0.000000" />
</g>
<g style="fill:none; 
stroke:#840000; stroke-width:0.1524; stroke-opacity:1; 
stroke-linecap:round; stroke-linejoin:round;">
<rect x="5.029200" y="4.714500" width="15.240000" height="19.050000" rx="0.000000" />
<path d="M13.9192 23.7645
L13.9192 26.3045
" />
</g>
<g style="fill:none; 
stroke:#006464; stroke-width:0.1524; stroke-opacity:1; 
stroke-linecap:round; stroke-linejoin:round;">
<g transform="rotate(-90.000000 13.9192 22.7485)">
<text x="13.9192" y="23.3835"
textLength="4.0737" font-size="1.6933" lengthAdjust="spacingAndGlyphs"
text-anchor="start" opacity="0" stroke-opacity="0">GND</text>
</g>
<g class="stroked-text"><desc>GND</desc>
<path d="M13.2892 21.6806
L13.2287 21.8016
" />
<path d="M13.2287 21.8016
L13.2287 21.9830
" />
<path d="M13.2287 21.9830
L13.2892 22.1644
" />
<path d="M13.2892 22.1644
L13.4102 22.2854
" />
<path d="M13.4102 22.2854
L13.5311 22.3459
" />
<path d="M13.5311 22.3459
L13.7730 22.4063
" />
<path d="M13.7730 22.4063
L13.9544 22.4063
" />
<path d="M13.9544 22.4063
L14.1963 22.3459
" />
<path d="M14.1963 22.3459
L14.3173 22.2854
" />
<path d="M14.3173 22.2854
L14.4383 22.1644
" />
<path d="M14.4383 22.1644
L14.4987 21.9830
" />
<path d="M14.4987 21.9830
L14.4987 21.8621
" />
<path d="M14.4987 21.8621
L14.4383 21.6806
" />
<path d="M14.4383 21.6806
L14.3778 21.6202
" />
<path d="M14.3778 21.6202
L13.9544 21.6202
" />
<path d="M13.9544 21.6202
L13.9544 21.8621
" />
<path d="M14.4987 21.0759
L13.2287 21.0759
" />
<path d="M13.2287 21.0759
L14.4987 20.3502
" />
<path d="M14.4987 20.3502
L13.2287 20.3502
" />
<path d="M14.4987 19.7454
L13.2287 19.7454
" />
<path d="M13.2287 19.7454
L13.2287 19.4430
" />
<path d="M13.2287 19.4430
L13.2892 19.2616
" />
<path d="M13.2892 19.2616
L13.4102 19.1406
" />
<path d="M13.4102 19.1406
L13.5311 19.0801
" />
<path d="M13.5311 19.0801
L13.7730 19.0197
" />
<path d="M13.7730 19.0197
L13.9544 19.0197
" />
<path d="M13.9544 19.0197
L14.1963 19.0801
" />
<path d="M14.1963 19.0801
L14.3173 19.1406
" />
<path d="M14.3173 19.1406
L14.4383 19.2616
" />
<path d="M14.4383 19.2616
L14.4987 19.4430
" />
<path d="M14.4987 19.4430
L14.4987 19.7454
" />
</g></g>
<g style="fill:none; 
stroke:#A90000; stroke-width:0.1524; stroke-opacity:1; 
stroke-linecap:round; stroke-linejoin:round;">
<g transform="rotate(-90.000000 13.6652 25.0345)">
<text x="13.6652" y="25.0345"
textLength="1.4127" font-size="1.6933" lengthAdjust="spacingAndGlyphs"
text-anchor="middle" opacity="0" stroke-opacity="0">1</text>
</g>
<g class="stroked-text"><desc>1</desc>
<path d="M13.5017 24.6715
L13.5017 25.3972
" />
<path d="M13.5017 25.0344
L12.2317 25.0344
" />
<path d="M12.2317 25.0344
L12.4132 25.1553
" />
<path d="M12.4132 25.1553
L12.5341 25.2763
" />
<path d="M12.5341 25.2763
L12.5946 25.3972
" />
</g></g>
<g style="fill:none; 
stroke:#840000; stroke-width:0.1524; stroke-opacity:1; 
stroke-linecap:round; stroke-linejoin:round;">
<path d="M20.2692 7.2545
L22.8092 7.2545
" />
</g>
<g style="fill:none; 
stroke:#006464; stroke-width:0.1524; stroke-opacity:1; 
stroke-linecap:round; stroke-linejoin:round;">
<text x="19.2532" y="7.8895"
textLength="5.0413" font-size="1.6933" lengthAdjust="spacingAndGlyphs"
text-anchor="end" opacity="0" stroke-opacity="0">OUT1</text>
<g class="stroked-text"><desc>OUT1</desc>
<path d="M14.8591 6.5640
L15.1010 6.5640
" />
<path d="M15.1010 6.5640
L15.2220 6.6245
" />
<path d="M15.2220 6.6245
L15.3429 6.7455
" />
<path d="M15.3429 6.7455
L15.4034 6.9874
" />
<path d="M15.4034 6.9874
L15.4034 7.4107
" />
<path d="M15.4034 7.4107
L15.3429 7.6526
" />
<path d="M15.3429 7.6526
L15.2220 7.7736
" />
<path d="M15.2220 7.7736
L15.1010 7.8340
" />
<path d="M15.1010 7.8340
L14.8591 7.8340
" />
<path d="M14.8591 7.8340
L14.7382 7.7736
" />
<path d="M14.7382 7.7736
L14.6172 7.6526
" />
<path d="M14.6172 7.6526
L14.5568 7.4107
" />
<path d="M14.5568 7.4107
L14.5568 6.9874
" />
<path d="M14.5568 6.9874
L14.6172 6.7455
" />
<path d="M14.6172 6.7455
L14.7382 6.6245
" />
<path d="M14.7382 6.6245
L14.8591 6.5640
" />
<path d="M15.9477 6.5640
L15.9477 7.5921
" />
<path d="M15.9477 7.5921
L16.0082 7.7131
" />
<path d="M16.0082 7.7131
L16.0687 7.7736
" />
<path d="M16.0687 7.7736
L16.1896 7.8340
" />
<path d="M16.1896 7.8340
L16.4315 7.8340
" />
<path d="M16.4315 7.8340
L16.5525 7.7736
" />
<path d="M16.5525 7.7736
L16.6130 7.7131
" />
<path d="M16.6130 7.7131
L16.6734 7.5921
" />
<path d="M16.6734 7.5921
L16.6734 6.5640
" />
<path d="M17.0968 6.5640
L17.8225 6.5640
" />
<path d="M17.4597 7.8340
L17.4597 6.5640
" />
<path d="M18.9111 7.8340
L18.1854 7.8340
" />
<path d="M18.5482 7.8340
L18.5482 6.5640
" />
<path d="M18.5482 6.5640
L18.4273 6.7455
" />
<path d="M18.4273 6.7455
L18.3063 6.8664
" />
<path d="M18.3063 6.8664
L18.1854 6.9269
" />
</g></g>
<g style="fill:none; 
stroke:#A90000; stroke-width:0.1524; stroke-opacity:1; 
stroke-linecap:round; stroke-linejoin:round;">
<text x="21.5392" y="7.0005"
textLength="1.4127" font-size="1.6933" lengthAdjust="spacingAndGlyphs"
text-anchor="middle" opacity="0" stroke-opacity="0">2</text>
<g class="stroked-text"><desc>2</desc>
<path d="M21.1764 5.6880
L21.2368 5.6275
" />
<path d="M21.2368 5.6275
L21.3578 5.5670
" />
<path d="M21.3578 5.5670
L21.6602 5.5670
" />
<path d="M21.6602 5.5670
L21.7811 5.6275
" />
<path d="M21.7811 5.6275
L21.8416 5.6880
" />
<path d="M21.8416 5.6880
L21.9021 5.8089
" />
<path d="M21.9021 5.8089
L21.9021 5.9299
" />
<path d="M21.9021 5.9299
L21.8416 6.1113
" />
<path d="M21.8416 6.1113
L21.1159 6.8370
" />
<path d="M21.1159 6.8370
L21.9021 6.8370
" />
</g></g>
<g style="fill:none; 
stroke:#840000; stroke-width:0.1524; stroke-opacity:1; 
stroke-linecap:round; stroke-linejoin:round;">
<path d="M20.2692 13.6045
L22.8092 13.6045
" />
</g>
<g style="fill:none; 
stroke:#006464; stroke-width:0.1524; stroke-opacity:1; 
stroke-linecap:round; stroke-linejoin:round;">
<text x="19.2532" y="14.2395"
textLength="5.0413" font-size="1.6933" lengthAdjust="spacingAndGlyphs"
text-anchor="end" opacity="0" stroke-opacity="0">OUT2</text>
<g class="stroked-text"><desc>OUT2</desc>
<path d="M14.8591 12.9140
L15.1010 12.9140
" />
<path d="M15.1010 12.9140
L15.2220 12.9745
" />
<path d="M15.2220 12.9745
L15.3429 13.0955
" />
<path d="M15.3429 13.0955
L15.4034 13.3374
" />
<path d="M15.4034 13.3374
L15.4034 13.7607
" />
<path d="M15.4034 13.7607
L15.3429 14.0026
" />
<path d="M15.3429 14.0026
L15.2220 14.1236
" />
<path d="M15.2220 14.1236
L15.1010 14.1840
" />
<path d="M15.1010 14.1840
L14.8591 14.1840
" />
<path d="M14.8591 14.1840
L14.7382 14.1236
" />
<path d="M14.7382 14.1236
L14.6172 14.0026
" />
<path d="M14.6172 14.0026
L14.5568 13.7607
" />
<path d="M14.5568 13.7607
L14.5568 13.3374
" />
<path d="M14.5568 13.3374
L14.6172 13.0955
" />
<path d="M14.6172 13.0955
L14.7382 12.9745
" />
<path d="M14.7382 12.9745
L14.8591 12.9140
" />
<path d="M15.9477 12.9140
L15.9477 13.9421
" />
<path d="M15.9477 13.9421
L16.0082 14.0631
" />
<path d="M16.0082 14.0631
L16.0687 14.1236
" />
<path d="M16.0687 14.1236
L16.1896 14.1840
" />
<path d="M16.1896 14.1840
L16.4315 14.1840
" />
<path d="M16.4315 14.1840
L16.5525 14.1236
" />
<path d="M16.5525 14.1236
L16.6130 14.0631
" />
<path d="M16.6130 14.0631
L16.6734 13.9421
" />
<path d="M16.6734 13.9421
L16.6734 12.9140
" />
<path d="M17.0968 12.9140
L17.8225 12.9140
" />
<path d="M17.4597 14.1840
L17.4597 12.9140
" />
<path d="M18.1854 13.0350
L18.2458 12.9745
" />
<path d="M18.2458 12.9745
L18.3668 12.9140
" />
<path d="M18.3668 12.9140
L18.6692 12.9140
" />
<path d="M18.6692 12.9140
L18.7901 12.9745
" />
<path d="M18.7901 12.9745
L18.8506 13.0350
" />
<path d="M18.8506 13.0350
L18.9111 13.1559
" />
<path d="M18.9111 13.1559
L18.9111 13.2769
" />
<path d="M18.9111 13.2769
L18.8506 13.4583
" />
<path d="M18.8506 13.4583
L18.1249 14.1840
" />
<path d="M18.1249 14.1840
L18.9111 14.1840
" />
</g></g>
<g style="fill:none; 
stroke:#A90000; stroke-width:0.1524; stroke-opacity:1; 
stroke-linecap:round; stroke-linejoin:round;">
<text x="21.5392" y="13.3505"
textLength="1.4127" font-size="1.6933" lengthAdjust="spacingAndGlyphs"
text-anchor="middle" opacity="0" stroke-opacity="0">3</text>
<g class="stroked-text"><desc>3</desc>
<path d="M21.1159 11.9170
L21.9021 11.9170
" />
<path d="M21.9021 11.9170
L21.4787 12.4008
" />
<path d="M21.4787 12.4008
L21.6602 12.4008
" />
<path d="M21.6602 12.4008
L21.7811 12.4613
" />
<path d="M21.7811 12.4613
L21.8416 12.5218
" />
<path d="M21.8416 12.5218
L21.9021 12.6427
" />
<path d="M21.9021 12.6427
L21.9021 12.9451
" />
<path d="M21.9021 12.9451
L21.8416 13.0661
" />
<path d="M21.8416 13.0661
L21.7811 13.1266
" />
<path d="M21.7811 13.1266
L21.6602 13.1870
" />
<path d="M21.6602 13.1870
L21.2973 13.1870
" />
<path d="M21.2973 13.1870
L21.1764 13.1266
" />
<path d="M21.1764 13.1266
L21.1159 13.0661
" />
</g></g>
<g style="fill:none; 
stroke:#840000; stroke-width:0.1524; stroke-opacity:1; 
stroke-linecap:round; stroke-linejoin:round;">
<path d="M16.4592 23.7645
L16.4592 26.3045
" />
</g>
<g style="fill:none; 
stroke:#006464; stroke-width:0.1524; stroke-opacity:1; 
stroke-linecap:round; stroke-linejoin:round;">
<g transform="rotate(-90.000000 16.4592 22.7485)">
<text x="16.4592" y="23.3835"
textLength="4.0737" font-size="1.6933" lengthAdjust="spacingAndGlyphs"
text-anchor="start" opacity="0" stroke-opacity="0">GND</text>
</g>
<g class="stroked-text"><desc>GND</desc>
<path d="M15.8292 21.6806
L15.7687 21.8016
" />
<path d="M15.7687 21.8016
L15.7687 21.9830
" />
<path d="M15.7687 21.9830
L15.8292 22.1644
" />
<path d="M15.8292 22.1644
L15.9502 22.2854
" />
<path d="M15.9502 22.2854
L16.0711 22.3459
" />
<path d="M16.0711 22.3459
L16.3130 22.4063
" />
<path d="M16.3130 22.4063
L16.4944 22.4063
" />
<path d="M16.4944 22.4063
L16.7363 22.3459
" />
<path d="M16.7363 22.3459
L16.8573 22.2854
" />
<path d="M16.8573 22.2854
L16.9783 22.1644
" />
<path d="M16.9783 22.1644
L17.0387 21.9830
" />
<path d="M17.0387 21.9830
L17.0387 21.8621
" />
<path d="M17.0387 21.8621
L16.9783 21.6806
" />
<path d="M16.9783 21.6806
L16.9178 21.6202
" />
<path d="M16.9178 21.6202
L16.4944 21.6202
" />
<path d="M16.4944 21.6202
L16.4944 21.8621
" />
<path d="M17.0387 21.0759
L15.7687 21.0759
" />
<path d="M15.7687 21.0759
L17.0387 20.3502
" />
<path d="M17.0387 20.3502
L15.7687 20.3502
" />
<path d="M17.0387 19.7454
L15.7687 19.7454
" />
<path d="M15.7687 19.7454
L15.7687 19.4430
" />
<path d="M15.7687 19.4430
L15.8292 19.2616
" />
<path d="M15.8292 19.2616
L15.9502 19.1406
" />
<path d="M15.9502 19.1406
L16.0711 19.0801
" />
<path d="M16.0711 19.0801
L16.3130 19.0197
" />
<path d="M16.3130 19.0197
L16.4944 19.0197
" />
<path d="M16.4944 19.0197
L16.7363 19.0801
" />
<path d="M16.7363 19.0801
L16.8573 19.1406
" />
<path d="M16.8573 19.1406
L16.9783 19.2616
" />
<path d="M16.9783 19.2616
L17.0387 19.4430
" />
<path d="M17.0387 19.4430
L17.0387 19.7454
" />
</g></g>
<g style="fill:none; 
stroke:#A90000; stroke-width:0.1524; stroke-opacity:1; 
stroke-linecap:round; stroke-linejoin:round;">
<g transform="rotate(-90.000000 16.2052 25.0345)">
<text x="16.2052" y="25.0345"
textLength="1.4127" font-size="1.6933" lengthAdjust="spacingAndGlyphs"
text-anchor="middle" opacity="0" stroke-opacity="0">4</text>
</g>
<g class="stroked-text"><desc>4</desc>
<path d="M15.1951 24.7925
L16.0417 24.7925
" />
<path d="M14.7113 25.0949
L15.6184 25.3972
" />
<path d="M15.6184 25.3972
L15.6184 24.6111
" />
</g></g>
<g style="fill:none; 
stroke:#840000; stroke-width:0.1524; stroke-opacity:1; 
stroke-linecap:round; stroke-linejoin:round;">
<path d="M5.0292 18.6845
L2.4892 18.6845
" />
</g>
<g style="fill:none; 
stroke:#006464; stroke-width:0.1524; stroke-opacity:1; 
stroke-linecap:round; stroke-linejoin:round;">
<text x="6.0452" y="19.3195"
textLength="3.8922" font-size="1.6933" lengthAdjust="spacingAndGlyphs"
text-anchor="start" opacity="0" stroke-opacity="0">EN2</text>
<g class="stroked-text"><desc>EN2</desc>
<path d="M6.4477 18.5988
L6.8711 18.5988
" />
<path d="M7.0525 19.2640
L6.4477 19.2640
" />
<path d="M6.4477 19.2640
L6.4477 17.9940
" />
<path d="M6.4477 17.9940
L7.0525 17.9940
" />
<path d="M7.5967 19.2640
L7.5967 17.9940
" />
<path d="M7.5967 17.9940
L8.3224 19.2640
" />
<path d="M8.3224 19.2640
L8.3224 17.9940
" />
<path d="M8.8668 18.1150
L8.9272 18.0545
" />
<path d="M8.9272 18.0545
L9.0482 17.9940
" />
<path d="M9.0482 17.9940
L9.3506 17.9940
" />
<path d="M9.3506 17.9940
L9.4715 18.0545
" />
<path d="M9.4715 18.0545
L9.5320 18.1150
" />
<path d="M9.5320 18.1150
L9.5925 18.2359
" />
<path d="M9.5925 18.2359
L9.5925 18.3569
" />
<path d="M9.5925 18.3569
L9.5320 18.5383
" />
<path d="M9.5320 18.5383
L8.8063 19.2640
" />
<path d="M8.8063 19.2640
L9.5925 19.2640
" />
</g></g>
<g style="fill:none; 
stroke:#A90000; stroke-width:0.1524; stroke-opacity:1; 
stroke-linecap:round; stroke-linejoin:round;">
<text x="3.7592" y="18.4305"
textLength="1.4127" font-size="1.6933" lengthAdjust="spacingAndGlyphs"
text-anchor="middle" opacity="0" stroke-opacity="0">7</text>
<g class="stroked-text"><desc>7</desc>
<path d="M3.3359 16.9970
L4.1825 16.9970
" />
<path d="M4.1825 16.9970
L3.6383 18.2670
" />
</g></g>
<g style="fill:none; 
stroke:#840000; stroke-width:0.1524; stroke-opacity:1; 
stroke-linecap:round; stroke-linejoin:round;">
<path d="M5.0292 9.7945
L2.4892 9.7945
" />
</g>
<g style="fill:none; 
stroke:#006464; stroke-width:0.1524; stroke-opacity:1; 
stroke-linecap:round; stroke-linejoin:round;">
<text x="6.0452" y="10.4295"
textLength="3.3480" font-size="1.6933" lengthAdjust="spacingAndGlyphs"
text-anchor="start" opacity="0" stroke-opacity="0">IN2</text>
<g class="stroked-text"><desc>IN2</desc>
<path d="M6.4477 10.3740
L6.4477 9.1040
" />
<path d="M7.0525 10.3740
L7.0525 9.1040
" />
<path d="M7.0525 9.1040
L7.7782 10.3740
" />
<path d="M7.7782 10.3740
L7.7782 9.1040
" />
<path d="M8.3226 9.2250
L8.3830 9.1645
" />
<path d="M8.3830 9.1645
L8.5040 9.1040
" />
<path d="M8.5040 9.1040
L8.8064 9.1040
" />
<path d="M8.8064 9.1040
L8.9273 9.1645
" />
<path d="M8.9273 9.1645
L8.9878 9.2250
" />
<path d="M8.9878 9.2250
L9.0483 9.3459
" />
<path d="M9.0483 9.3459
L9.0483 9.4669
" />
<path d="M9.0483 9.4669
L8.9878 9.6483
" />
<path d="M8.9878 9.6483
L8.2621 10.3740
" />
<path d="M8.2621 10.3740
L9.0483 10.3740
" />
</g></g>
<g style="fill:none; 
stroke:#A90000; stroke-width:0.1524; stroke-opacity:1; 
stroke-linecap:round; stroke-linejoin:round;">
<text x="3.7592" y="9.5405"
textLength="1.4127" font-size="1.6933" lengthAdjust="spacingAndGlyphs"
text-anchor="middle" opacity="0" stroke-opacity="0">8</text>
<g class="stroked-text"><desc>8</desc>
<path d="M3.6383 8.6513
L3.5173 8.5908
" />
<path d="M3.5173 8.5908
L3.4568 8.5304
" />
<path d="M3.4568 8.5304
L3.3964 8.4094
" />
<path d="M3.3964 8.4094
L3.3964 8.3489
" />
<path d="M3.3964 8.3489
L3.4568 8.2280
" />
<path d="M3.4568 8.2280
L3.5173 8.1675
" />
<path d="M3.5173 8.1675
L3.6383 8.1070
" />
<path d="M3.6383 8.1070
L3.8802 8.1070
" />
<path d="M3.8802 8.1070
L4.0011 8.1675
" />
<path d="M4.0011 8.1675
L4.0616 8.2280
" />
<path d="M4.0616 8.2280
L4.1221 8.3489
" />
<path d="M4.1221 8.3489
L4.1221 8.4094
" />
<path d="M4.1221 8.4094
L4.0616 8.5304
" />
<path d="M4.0616 8.5304
L4.0011 8.5908
" />
<path d="M4.0011 8.5908
L3.8802 8.6513
" />
<path d="M3.8802 8.6513
L3.6383 8.6513
" />
<path d="M3.6383 8.6513
L3.5173 8.7118
" />
<path d="M3.5173 8.7118
L3.4568 8.7723
" />
<path d="M3.4568 8.7723
L3.3964 8.8932
" />
<path d="M3.3964 8.8932
L3.3964 9.1351
" />
<path d="M3.3964 9.1351
L3.4568 9.2561
" />
<path d="M3.4568 9.2561
L3.5173 9.3166
" />
<path d="M3.5173 9.3166
L3.6383 9.3770
" />
<path d="M3.6383 9.3770
L3.8802 9.3770
" />
<path d="M3.8802 9.3770
L4.0011 9.3166
" />
<path d="M4.0011 9.3166
L4.0616 9.2561
" />
<path d="M4.0616 9.2561
L4.1221 9.1351
" />
<path d="M4.1221 9.1351
L4.1221 8.8932
" />
<path d="M4.1221 8.8932
L4.0616 8.7723
" />
<path d="M4.0616 8.7723
L4.0011 8.7118
" />
<path d="M4.0011 8.7118
L3.8802 8.6513
" />
</g></g>
<g style="fill:none; 
stroke:#840000; stroke-width:0.1524; stroke-opacity:1; 
stroke-linecap:round; stroke-linejoin:round;">
<path d="M5.0292 7.2545
L2.4892 7.2545
" />
</g>
<g style="fill:none; 
stroke:#006464; stroke-width:0.1524; stroke-opacity:1; 
stroke-linecap:round; stroke-linejoin:round;">
<text x="6.0452" y="7.8895"
textLength="3.3480" font-size="1.6933" lengthAdjust="spacingAndGlyphs"
text-anchor="start" opacity="0" stroke-opacity="0">IN1</text>
<g class="stroked-text"><desc>IN1</desc>
<path d="M6.4477 7.8340
L6.4477 6.5640
" />
<path d="M7.0525 7.8340
L7.0525 6.5640
" />
<path d="M7.0525 6.5640
L7.7782 7.8340
" />
<path d="M7.7782 7.8340
L7.7782 6.5640
" />
<path d="M9.0483 7.8340
L8.3226 7.8340
" />
<path d="M8.6854 7.8340
L8.6854 6.5640
" />
<path d="M8.6854 6.5640
L8.5645 6.7455
" />
<path d="M8.5645 6.7455
L8.4435 6.8664
" />
<path d="M8.4435 6.8664
L8.3226 6.9269
" />
</g></g>
<g style="fill:none; 
stroke:#A90000; stroke-width:0.1524; stroke-opacity:1; 
stroke-linecap:round; stroke-linejoin:round;">
<text x="3.7592" y="7.0005"
textLength="1.4127" font-size="1.6933" lengthAdjust="spacingAndGlyphs"
text-anchor="middle" opacity="0" stroke-opacity="0">9</text>
<g class="stroked-text"><desc>9</desc>
<path d="M3.5173 6.8370
L3.7592 6.8370
" />
<path d="M3.7592 6.8370
L3.8802 6.7766
" />
<path d="M3.8802 6.7766
L3.9406 6.7161
" />
<path d="M3.9406 6.7161
L4.0616 6.5346
" />
<path d="M4.0616 6.5346
L4.1221 6.2927
" />
<path d="M4.1221 6.2927
L4.1221 5.8089
" />
<path d="M4.1221 5.8089
L4.0616 5.6880
" />
<path d="M4.0616 5.6880
L4.0011 5.6275
" />
<path d="M4.0011 5.6275
L3.8802 5.5670
" />
<path d="M3.8802 5.5670
L3.6383 5.5670
" />
<path d="M3.6383 5.5670
L3.5173 5.6275
" />
<path d="M3.5173 5.6275
L3.4568 5.6880
" />
<path d="M3.4568 5.6880
L3.3964 5.8089
" />
<path d="M3.3964 5.8089
L3.3964 6.1113
" />
<path d="M3.3964 6.1113
L3.4568 6.2323
" />
<path d="M3.4568 6.2323
L3.5173 6.2927
" />
<path d="M3.5173 6.2927
L3.6383 6.3532
" />
<path d="M3.6383 6.3532
L3.8802 6.3532
" />
<path d="M3.8802 6.3532
L4.0011 6.2927
" />
<path d="M4.0011 6.2927
L4.0616 6.2323
" />
<path d="M4.0616 6.2323
L4.1221 6.1113
" />
</g></g>
<g style="fill:none; 
stroke:#840000; stroke-width:0.1524; stroke-opacity:1; 
stroke-linecap:round; stroke-linejoin:round;">
<path d="M5.0292 16.1445
L2.4892 16.1445
" />
</g>
<g style="fill:none; 
stroke:#006464; stroke-width:0.1524; stroke-opacity:1; 
stroke-linecap:round; stroke-linejoin:round;">
<text x="6.0452" y="16.7795"
textLength="3.8922" font-size="1.6933" lengthAdjust="spacingAndGlyphs"
text-anchor="start" opacity="0" stroke-opacity="0">EN1</text>
<g class="stroked-text"><desc>EN1</desc>
<path d="M6.4477 16.0588
L6.8711 16.0588
" />
<path d="M7.0525 16.7240
L6.4477 16.7240
" />
<path d="M6.4477 16.7240
L6.4477 15.4540
" />
<path d="M6.4477 15.4540
L7.0525 15.4540
" />
<path d="M7.5967 16.7240
L7.5967 15.4540
" />
<path d="M7.5967 15.4540
L8.3224 16.7240
" />
<path d="M8.3224 16.7240
L8.3224 15.4540
" />
<path d="M9.5925 16.7240
L8.8668 16.7240
" />
<path d="M9.2296 16.7240
L9.2296 15.4540
" />
<path d="M9.2296 15.4540
L9.1087 15.6355
" />
<path d="M9.1087 15.6355
L8.9877 15.7564
" />
<path d="M8.9877 15.7564
L8.8668 15.8169
" />
</g></g>
<g style="fill:none; 
stroke:#A90000; stroke-width:0.1524; stroke-opacity:1; 
stroke-linecap:round; stroke-linejoin:round;">
<text x="3.7592" y="15.8905"
textLength="2.6222" font-size="1.6933" lengthAdjust="spacingAndGlyphs"
text-anchor="middle" opacity="0" stroke-opacity="0">10</text>
<g class="stroked-text"><desc>10</desc>
<path d="M3.5173 15.7270
L2.7916 15.7270
" />
<path d="M3.1544 15.7270
L3.1544 14.4570
" />
<path d="M3.1544 14.4570
L3.0335 14.6385
" />
<path d="M3.0335 14.6385
L2.9125 14.7594
" />
<path d="M2.9125 14.7594
L2.7916 14.8199
" />
<path d="M4.3034 14.4570
L4.4244 14.4570
" />
<path d="M4.4244 14.4570
L4.5453 14.5175
" />
<path d="M4.5453 14.5175
L4.6058 14.5780
" />
<path d="M4.6058 14.5780
L4.6663 14.6989
" />
<path d="M4.6663 14.6989
L4.7268 14.9408
" />
<path d="M4.7268 14.9408
L4.7268 15.2432
" />
<path d="M4.7268 15.2432
L4.6663 15.4851
" />
<path d="M4.6663 15.4851
L4.6058 15.6061
" />
<path d="M4.6058 15.6061
L4.5453 15.6666
" />
<path d="M4.5453 15.6666
L4.4244 15.7270
" />
<path d="M4.4244 15.7270
L4.3034 15.7270
" />
<path d="M4.3034 15.7270
L4.1825 15.6666
" />
<path d="M4.1825 15.6666
L4.1220 15.6061
" />
<path d="M4.1220 15.6061
L4.0615 15.4851
" />
<path d="M4.0615 15.4851
L4.0011 15.2432
" />
<path d="M4.0011 15.2432
L4.0011 14.9408
" />
<path d="M4.0011 14.9408
L4.0615 14.6989
" />
<path d="M4.0615 14.6989
L4.1220 14.5780
" />
<path d="M4.1220 14.5780
L4.1825 14.5175
" />
<path d="M4.1825 14.5175
L4.3034 14.4570
" />
</g></g>
<g style="fill:none; 
stroke:#840000; stroke-width:0.1524; stroke-opacity:1; 
stroke-linecap:round; stroke-linejoin:round;">
<path d="M18.9992 23.7645
L18.9992 26.3045
" />
</g>
<g style="fill:none; 
stroke:#006464; stroke-width:0.1524; stroke-opacity:1; 
stroke-linecap:round; stroke-linejoin:round;">
<g transform="rotate(-90.000000 18.9992 22.7485)">
<text x="18.9992" y="23.3835"
textLength="3.8318" font-size="1.6933" lengthAdjust="spacingAndGlyphs"
text-anchor="start" opacity="0" stroke-opacity="0">PAD</text>
</g>
<g class="stroked-text"><desc>PAD</desc>
<path d="M19.5787 22.3459
L18.3087 22.3459
" />
<path d="M18.3087 22.3459
L18.3087 21.8621
" />
<path d="M18.3087 21.8621
L18.3692 21.7411
" />
<path d="M18.3692 21.7411
L18.4297 21.6806
" />
<path d="M18.4297 21.6806
L18.5506 21.6202
" />
<path d="M18.5506 21.6202
L18.7321 21.6202
" />
<path d="M18.7321 21.6202
L18.8530 21.6806
" />
<path d="M18.8530 21.6806
L18.9135 21.7411
" />
<path d="M18.9135 21.7411
L18.9740 21.8621
" />
<path d="M18.9740 21.8621
L18.9740 22.3459
" />
<path d="M19.2159 21.1363
L19.2159 20.5316
" />
<path d="M19.5787 21.2573
L18.3087 20.8340
" />
<path d="M18.3087 20.8340
L19.5787 20.4106
" />
<path d="M19.5787 19.9873
L18.3087 19.9873
" />
<path d="M18.3087 19.9873
L18.3087 19.6849
" />
<path d="M18.3087 19.6849
L18.3692 19.5035
" />
<path d="M18.3692 19.5035
L18.4902 19.3825
" />
<path d="M18.4902 19.3825
L18.6111 19.3220
" />
<path d="M18.6111 19.3220
L18.8530 19.2616
" />
<path d="M18.8530 19.2616
L19.0344 19.2616
" />
<path d="M19.0344 19.2616
L19.2763 19.3220
" />
<path d="M19.2763 19.3220
L19.3973 19.3825
" />
<path d="M19.3973 19.3825
L19.5183 19.5035
" />
<path d="M19.5183 19.5035
L19.5787 19.6849
" />
<path d="M19.5787 19.6849
L19.5787 19.9873
" />
</g></g>
<g style="fill:none; 
stroke:#A90000; stroke-width:0.1524; stroke-opacity:1; 
stroke-linecap:round; stroke-linejoin:round;">
<g transform="rotate(-90.000000 18.7452 25.0345)">
<text x="18.7452" y="25.0345"
textLength="2.6222" font-size="1.6933" lengthAdjust="spacingAndGlyphs"
text-anchor="middle" opacity="0" stroke-opacity="0">11</text>
</g>
<g class="stroked-text"><desc>11</desc>
<path d="M18.5817 25.2763
L18.5817 26.0020
" />
<path d="M18.5817 25.6392
L17.3117 25.6392
" />
<path d="M17.3117 25.6392
L17.4932 25.7601
" />
<path d="M17.4932 25.7601
L17.6141 25.8811
" />
<path d="M17.6141 25.8811
L17.6746 26.0020
" />
<path d="M18.5817 24.0668
L18.5817 24.7925
" />
<path d="M18.5817 24.4297
L17.3117 24.4297
" />
<path d="M17.3117 24.4297
L17.4932 24.5506
" />
<path d="M17.4932 24.5506
L17.6141 24.6716
" />
<path d="M17.6141 24.6716
L17.6746 24.7925
" />
</g></g>
<g style="fill:none; 
stroke:#006464; stroke-width:0.1524; stroke-opacity:1; 
stroke-linecap:round; stroke-linejoin:round;">
<text x="17.7292" y="4.0795"
textLength="2.6223" font-size="1.6933" lengthAdjust="spacingAndGlyphs"
text-anchor="middle" opacity="0" stroke-opacity="0">U?</text>
<g class="stroked-text"><desc>U?</desc>
<path d="M16.8220 2.7540
L16.8220 3.7821
" />
<path d="M16.8220 3.7821
L16.8825 3.9031
" />
<path d="M16.8825 3.9031
L16.9430 3.9636
" />
<path d="M16.9430 3.9636
L17.0639 4.0240
" />
<path d="M17.0639 4.0240
L17.3058 4.0240
" />
<path d="M17.3058 4.0240
L17.4268 3.9636
" />
<path d="M17.4268 3.9636
L17.4873 3.9031
" />
<path d="M17.4873 3.9031
L17.5477 3.7821
" />
<path d="M17.5477 3.7821
L17.5477 2.7540
" />
<path d="M18.3340 3.9031
L18.3944 3.9636
" />
<path d="M18.3944 3.9636
L18.3340 4.0240
" />
<path d="M18.3340 4.0240
L18.2735 3.9636
" />
<path d="M18.2735 3.9636
L18.3340 3.9031
" />
<path d="M18.3340 3.9031
L18.3340 4.0240
" />
<path d="M18.0921 2.8145
L18.2130 2.7540
" />
<path d="M18.2130 2.7540
L18.5154 2.7540
" />
<path d="M18.5154 2.7540
L18.6363 2.8145
" />
<path d="M18.6363 2.8145
L18.6968 2.9355
" />
<path d="M18.6968 2.9355
L18.6968 3.0564
" />
<path d="M18.6968 3.0564
L18.6363 3.1774
" />
<path d="M18.6363 3.1774
L18.5759 3.2378
" />
<path d="M18.5759 3.2378
L18.4549 3.2983
" />
<path d="M18.4549 3.2983
L18.3944 3.3588
" />
<path d="M18.3944 3.3588
L18.3340 3.4797
" />
<path d="M18.3340 3.4797
L18.3340 3.5402
" />
</g><text x="7.5692" y="4.0795"
textLength="8.7303" font-size="1.6933" lengthAdjust="spacingAndGlyphs"
text-anchor="middle" opacity="0" stroke-opacity="0">NCV8154</text>
<g class="stroked-text"><desc>NCV8154</desc>
<path d="M3.6080 4.0240
L3.6080 2.7540
" />
<path d="M3.6080 2.7540
L4.3337 4.0240
" />
<path d="M4.3337 4.0240
L4.3337 2.7540
" />
<path d="M5.6642 3.9031
L5.6038 3.9636
" />
<path d="M5.6038 3.9636
L5.4223 4.0240
" />
<path d="M5.4223 4.0240
L5.3014 4.0240
" />
<path d="M5.3014 4.0240
L5.1200 3.9636
" />
<path d="M5.1200 3.9636
L4.9990 3.8426
" />
<path d="M4.9990 3.8426
L4.9385 3.7216
" />
<path d="M4.9385 3.7216
L4.8781 3.4797
" />
<path d="M4.8781 3.4797
L4.8781 3.2983
" />
<path d="M4.8781 3.2983
L4.9385 3.0564
" />
<path d="M4.9385 3.0564
L4.9990 2.9355
" />
<path d="M4.9990 2.9355
L5.1200 2.8145
" />
<path d="M5.1200 2.8145
L5.3014 2.7540
" />
<path d="M5.3014 2.7540
L5.4223 2.7540
" />
<path d="M5.4223 2.7540
L5.6038 2.8145
" />
<path d="M5.6038 2.8145
L5.6642 2.8750
" />
<path d="M6.0271 2.7540
L6.4504 4.0240
" />
<path d="M6.4504 4.0240
L6.8738 2.7540
" />
<path d="M7.4786 3.2983
L7.3576 3.2378
" />
<path d="M7.3576 3.2378
L7.2971 3.1774
" />
<path d="M7.2971 3.1774
L7.2367 3.0564
" />
<path d="M7.2367 3.0564
L7.2367 2.9959
" />
<path d="M7.2367 2.9959
L7.2971 2.8750
" />
<path d="M7.2971 2.8750
L7.3576 2.8145
" />
<path d="M7.3576 2.8145
L7.4786 2.7540
" />
<path d="M7.4786 2.7540
L7.7205 2.7540
" />
<path d="M7.7205 2.7540
L7.8414 2.8145
" />
<path d="M7.8414 2.8145
L7.9019 2.8750
" />
<path d="M7.9019 2.8750
L7.9624 2.9959
" />
<path d="M7.9624 2.9959
L7.9624 3.0564
" />
<path d="M7.9624 3.0564
L7.9019 3.1774
" />
<path d="M7.9019 3.1774
L7.8414 3.2378
" />
<path d="M7.8414 3.2378
L7.7205 3.2983
" />
<path d="M7.7205 3.2983
L7.4786 3.2983
" />
<path d="M7.4786 3.2983
L7.3576 3.3588
" />
<path d="M7.3576 3.3588
L7.2971 3.4193
" />
<path d="M7.2971 3.4193
L7.2367 3.5402
" />
<path d="M7.2367 3.5402
L7.2367 3.7821
" />
<path d="M7.2367 3.7821
L7.2971 3.9031
" />
<path d="M7.2971 3.9031
L7.3576 3.9636
" />
<path d="M7.3576 3.9636
L7.4786 4.0240
" />
<path d="M7.4786 4.0240
L7.7205 4.0240
" />
<path d="M7.7205 4.0240
L7.8414 3.9636
" />
<path d="M7.8414 3.9636
L7.9019 3.9031
" />
<path d="M7.9019 3.9031
L7.9624 3.7821
" />
<path d="M7.9624 3.7821
L7.9624 3.5402
" />
<path d="M7.9624 3.5402
L7.9019 3.4193
" />
<path d="M7.9019 3.4193
L7.8414 3.3588
" />
<path d="M7.8414 3.3588
L7.7205 3.2983
" />
<path d="M9.1719 4.0240
L8.4462 4.0240
" />
<path d="M8.8090 4.0240
L8.8090 2.7540
" />
<path d="M8.8090 2.7540
L8.6881 2.9355
" />
<path d="M8.6881 2.9355
L8.5671 3.0564
" />
<path d="M8.5671 3.0564
L8.4462 3.1169
" />
<path d="M10.3209 2.7540
L9.7161 2.7540
" />
<path d="M9.7161 2.7540
L9.6557 3.3588
" />
<path d="M9.6557 3.3588
L9.7161 3.2983
" />
<path d="M9.7161 3.2983
L9.8371 3.2378
" />
<path d="M9.8371 3.2378
L10.1395 3.2378
" />
<path d="M10.1395 3.2378
L10.2604 3.2983
" />
<path d="M10.2604 3.2983
L10.3209 3.3588
" />
<path d="M10.3209 3.3588
L10.3814 3.4797
" />
<path d="M10.3814 3.4797
L10.3814 3.7821
" />
<path d="M10.3814 3.7821
L10.3209 3.9031
" />
<path d="M10.3209 3.9031
L10.2604 3.9636
" />
<path d="M10.2604 3.9636
L10.1395 4.0240
" />
<path d="M10.1395 4.0240
L9.8371 4.0240
" />
<path d="M9.8371 4.0240
L9.7161 3.9636
" />
<path d="M9.7161 3.9636
L9.6557 3.9031
" />
<path d="M11.4699 3.1774
L11.4699 4.0240
" />
<path d="M11.1675 2.6936
L10.8652 3.6007
" />
<path d="M10.8652 3.6007
L11.6513 3.6007
" />
</g></g> 
</svg>
