<?xml version="1.0" standalone="no"?>
 <!DOCTYPE svg PUBLIC "-//W3C//DTD SVG 1.1//EN" 
 "http://www.w3.org/Graphics/SVG/1.1/DTD/svg11.dtd"> 
<svg
  xmlns:svg="http://www.w3.org/2000/svg"
  xmlns="http://www.w3.org/2000/svg"
  xmlns:xlink="http://www.w3.org/1999/xlink"
  xmlns:inkscape="http://www.inkscape.org/namespaces/inkscape"
  version="1.1"
  width="100%" height="100%" viewBox="0.0000 0.0000 25.2984 27.5844">
<title>SVG Image created as NCV8154_unit1.svg date 2026-04-16T03:01:04 </title>
  <desc>Image generated by Eeschema-SVG </desc>
<g style="fill:#000000; fill-opacity:1.0000;stroke:#000000; stroke-opacity:1.0000;
stroke-linecap:round; stroke-linejoin:round;"
 transform="translate(0 0) scale(1 1)">
</g>
<g style="fill:#FFFFC2; fill-opacity:1.0000; stroke:none;">
<rect x="5.029200" y="4.587500" width="15.240000" height="17.780000" rx="0.000000" />
</g>
<g style="fill:none; 
stroke:#840000; stroke-width:0.1524; stroke-opacity:1; 
stroke-linecap:round; stroke-linejoin:round;">
<rect x="5.029200" y="4.587500" width="15.240000" height="17.780000" rx="0.000000" />
<path d="M12.6492 22.3675
L12.6492 24.9075
" />
</g>
<g style="fill:none; 
stroke:#006464; stroke-width:0.1524; stroke-opacity:1; 
stroke-linecap:round; stroke-linejoin:round;">
<g transform="rotate(-90.000000 12.6492 21.8595)">
<text x="12.6492" y="22.4945"
textLength="4.0737" font-size="1.6933" lengthAdjust="spacingAndGlyphs"
text-anchor="start" opacity="0" stroke-opacity="0">GND</text>
</g>
<g class="stroked-text"><desc>GND</desc>
<path d="M12.0192 20.7916
L11.9587 20.9126
" />
<path d="M11.9587 20.9126
L11.9587 21.0940
" />
<path d="M11.9587 21.0940
L12.0192 21.2754
" />
<path d="M12.0192 21.2754
L12.1402 21.3964
" />
<path d="M12.1402 21.3964
L12.2611 21.4569
" />
<path d="M12.2611 21.4569
L12.5030 21.5173
" />
<path d="M12.5030 21.5173
L12.6844 21.5173
" />
<path d="M12.6844 21.5173
L12.9263 21.4569
" />
<path d="M12.9263 21.4569
L13.0473 21.3964
" />
<path d="M13.0473 21.3964
L13.1683 21.2754
" />
<path d="M13.1683 21.2754
L13.2287 21.0940
" />
<path d="M13.2287 21.0940
L13.2287 20.9731
" />
<path d="M13.2287 20.9731
L13.1683 20.7916
" />
<path d="M13.1683 20.7916
L13.1078 20.7312
" />
<path d="M13.1078 20.7312
L12.6844 20.7312
" />
<path d="M12.6844 20.7312
L12.6844 20.9731
" />
<path d="M13.2287 20.1869
L11.9587 20.1869
" />
<path d="M11.9587 20.1869
L13.2287 19.4612
" />
<path d="M13.2287 19.4612
L11.9587 19.4612
" />
<path d="M13.2287 18.8564
L11.9587 18.8564
" />
<path d="M11.9587 18.8564
L11.9587 18.5540
" />
<path d="M11.9587 18.5540
L12.0192 18.3726
" />
<path d="M12.0192 18.3726
L12.1402 18.2516
" />
<path d="M12.1402 18.2516
L12.2611 18.1911
" />
<path d="M12.2611 18.1911
L12.5030 18.1307
" />
<path d="M12.5030 18.1307
L12.6844 18.1307
" />
<path d="M12.6844 18.1307
L12.9263 18.1911
" />
<path d="M12.9263 18.1911
L13.0473 18.2516
" />
<path d="M13.0473 18.2516
L13.1683 18.3726
" />
<path d="M13.1683 18.3726
L13.2287 18.5540
" />
<path d="M13.2287 18.5540
L13.2287 18.8564
" />
</g></g>
<g style="fill:none; 
stroke:#A90000; stroke-width:0.1524; stroke-opacity:1; 
stroke-linecap:round; stroke-linejoin:round;">
<g transform="rotate(-90.000000 12.3952 23.6375)">
<text x="12.3952" y="23.6375"
textLength="1.4127" font-size="1.6933" lengthAdjust="spacingAndGlyphs"
text-anchor="middle" opacity="0" stroke-opacity="0">1</text>
</g>
<g class="stroked-text"><desc>1</desc>
<path d="M12.2317 23.2745
L12.2317 24.0002
" />
<path d="M12.2317 23.6374
L10.9617 23.6374
" />
<path d="M10.9617 23.6374
L11.1432 23.7583
" />
<path d="M11.1432 23.7583
L11.2641 23.8793
" />
<path d="M11.2641 23.8793
L11.3246 24.0002
" />
</g></g>
<g style="fill:none; 
stroke:#840000; stroke-width:0.1524; stroke-opacity:1; 
stroke-linecap:round; stroke-linejoin:round;">
<path d="M20.2692 8.3975
L22.8092 8.3975
" />
</g>
<g style="fill:none; 
stroke:#006464; stroke-width:0.1524; stroke-opacity:1; 
stroke-linecap:round; stroke-linejoin:round;">
<text x="19.7612" y="9.0325"
textLength="5.0413" font-size="1.6933" lengthAdjust="spacingAndGlyphs"
text-anchor="end" opacity="0" stroke-opacity="0">OUT1</text>
<g class="stroked-text"><desc>OUT1</desc>
<path d="M15.3671 7.7070
L15.6090 7.7070
" />
<path d="M15.6090 7.7070
L15.7300 7.7675
" />
<path d="M15.7300 7.7675
L15.8509 7.8885
" />
<path d="M15.8509 7.8885
L15.9114 8.1304
" />
<path d="M15.9114 8.1304
L15.9114 8.5537
" />
<path d="M15.9114 8.5537
L15.8509 8.7956
" />
<path d="M15.8509 8.7956
L15.7300 8.9166
" />
<path d="M15.7300 8.9166
L15.6090 8.9770
" />
<path d="M15.6090 8.9770
L15.3671 8.9770
" />
<path d="M15.3671 8.9770
L15.2462 8.9166
" />
<path d="M15.2462 8.9166
L15.1252 8.7956
" />
<path d="M15.1252 8.7956
L15.0648 8.5537
" />
<path d="M15.0648 8.5537
L15.0648 8.1304
" />
<path d="M15.0648 8.1304
L15.1252 7.8885
" />
<path d="M15.1252 7.8885
L15.2462 7.7675
" />
<path d="M15.2462 7.7675
L15.3671 7.7070
" />
<path d="M16.4557 7.7070
L16.4557 8.7351
" />
<path d="M16.4557 8.7351
L16.5162 8.8561
" />
<path d="M16.5162 8.8561
L16.5767 8.9166
" />
<path d="M16.5767 8.9166
L16.6976 8.9770
" />
<path d="M16.6976 8.9770
L16.9395 8.9770
" />
<path d="M16.9395 8.9770
L17.0605 8.9166
" />
<path d="M17.0605 8.9166
L17.1210 8.8561
" />
<path d="M17.1210 8.8561
L17.1814 8.7351
" />
<path d="M17.1814 8.7351
L17.1814 7.7070
" />
<path d="M17.6048 7.7070
L18.3305 7.7070
" />
<path d="M17.9677 8.9770
L17.9677 7.7070
" />
<path d="M19.4191 8.9770
L18.6934 8.9770
" />
<path d="M19.0562 8.9770
L19.0562 7.7070
" />
<path d="M19.0562 7.7070
L18.9353 7.8885
" />
<path d="M18.9353 7.8885
L18.8143 8.0094
" />
<path d="M18.8143 8.0094
L18.6934 8.0699
" />
</g></g>
<g style="fill:none; 
stroke:#A90000; stroke-width:0.1524; stroke-opacity:1; 
stroke-linecap:round; stroke-linejoin:round;">
<text x="21.5392" y="8.1435"
textLength="1.4127" font-size="1.6933" lengthAdjust="spacingAndGlyphs"
text-anchor="middle" opacity="0" stroke-opacity="0">2</text>
<g class="stroked-text"><desc>2</desc>
<path d="M21.1764 6.8310
L21.2368 6.7705
" />
<path d="M21.2368 6.7705
L21.3578 6.7100
" />
<path d="M21.3578 6.7100
L21.6602 6.7100
" />
<path d="M21.6602 6.7100
L21.7811 6.7705
" />
<path d="M21.7811 6.7705
L21.8416 6.8310
" />
<path d="M21.8416 6.8310
L21.9021 6.9519
" />
<path d="M21.9021 6.9519
L21.9021 7.0729
" />
<path d="M21.9021 7.0729
L21.8416 7.2543
" />
<path d="M21.8416 7.2543
L21.1159 7.9800
" />
<path d="M21.1159 7.9800
L21.9021 7.9800
" />
</g></g>
<g style="fill:none; 
stroke:#840000; stroke-width:0.1524; stroke-opacity:1; 
stroke-linecap:round; stroke-linejoin:round;">
<path d="M20.2692 13.4775
L22.8092 13.4775
" />
</g>
<g style="fill:none; 
stroke:#006464; stroke-width:0.1524; stroke-opacity:1; 
stroke-linecap:round; stroke-linejoin:round;">
<text x="19.7612" y="14.1125"
textLength="5.0413" font-size="1.6933" lengthAdjust="spacingAndGlyphs"
text-anchor="end" opacity="0" stroke-opacity="0">OUT2</text>
<g class="stroked-text"><desc>OUT2</desc>
<path d="M15.3671 12.7870
L15.6090 12.7870
" />
<path d="M15.6090 12.7870
L15.7300 12.8475
" />
<path d="M15.7300 12.8475
L15.8509 12.9685
" />
<path d="M15.8509 12.9685
L15.9114 13.2104
" />
<path d="M15.9114 13.2104
L15.9114 13.6337
" />
<path d="M15.9114 13.6337
L15.8509 13.8756
" />
<path d="M15.8509 13.8756
L15.7300 13.9966
" />
<path d="M15.7300 13.9966
L15.6090 14.0570
" />
<path d="M15.6090 14.0570
L15.3671 14.0570
" />
<path d="M15.3671 14.0570
L15.2462 13.9966
" />
<path d="M15.2462 13.9966
L15.1252 13.8756
" />
<path d="M15.1252 13.8756
L15.0648 13.6337
" />
<path d="M15.0648 13.6337
L15.0648 13.2104
" />
<path d="M15.0648 13.2104
L15.1252 12.9685
" />
<path d="M15.1252 12.9685
L15.2462 12.8475
" />
<path d="M15.2462 12.8475
L15.3671 12.7870
" />
<path d="M16.4557 12.7870
L16.4557 13.8151
" />
<path d="M16.4557 13.8151
L16.5162 13.9361
" />
<path d="M16.5162 13.9361
L16.5767 13.9966
" />
<path d="M16.5767 13.9966
L16.6976 14.0570
" />
<path d="M16.6976 14.0570
L16.9395 14.0570
" />
<path d="M16.9395 14.0570
L17.0605 13.9966
" />
<path d="M17.0605 13.9966
L17.1210 13.9361
" />
<path d="M17.1210 13.9361
L17.1814 13.8151
" />
<path d="M17.1814 13.8151
L17.1814 12.7870
" />
<path d="M17.6048 12.7870
L18.3305 12.7870
" />
<path d="M17.9677 14.0570
L17.9677 12.7870
" />
<path d="M18.6934 12.9080
L18.7538 12.8475
" />
<path d="M18.7538 12.8475
L18.8748 12.7870
" />
<path d="M18.8748 12.7870
L19.1772 12.7870
" />
<path d="M19.1772 12.7870
L19.2981 12.8475
" />
<path d="M19.2981 12.8475
L19.3586 12.9080
" />
<path d="M19.3586 12.9080
L19.4191 13.0289
" />
<path d="M19.4191 13.0289
L19.4191 13.1499
" />
<path d="M19.4191 13.1499
L19.3586 13.3313
" />
<path d="M19.3586 13.3313
L18.6329 14.0570
" />
<path d="M18.6329 14.0570
L19.4191 14.0570
" />
</g></g>
<g style="fill:none; 
stroke:#A90000; stroke-width:0.1524; stroke-opacity:1; 
stroke-linecap:round; stroke-linejoin:round;">
<text x="21.5392" y="13.2235"
textLength="1.4127" font-size="1.6933" lengthAdjust="spacingAndGlyphs"
text-anchor="middle" opacity="0" stroke-opacity="0">3</text>
<g class="stroked-text"><desc>3</desc>
<path d="M21.1159 11.7900
L21.9021 11.7900
" />
<path d="M21.9021 11.7900
L21.4787 12.2738
" />
<path d="M21.4787 12.2738
L21.6602 12.2738
" />
<path d="M21.6602 12.2738
L21.7811 12.3343
" />
<path d="M21.7811 12.3343
L21.8416 12.3948
" />
<path d="M21.8416 12.3948
L21.9021 12.5157
" />
<path d="M21.9021 12.5157
L21.9021 12.8181
" />
<path d="M21.9021 12.8181
L21.8416 12.9391
" />
<path d="M21.8416 12.9391
L21.7811 12.9996
" />
<path d="M21.7811 12.9996
L21.6602 13.0600
" />
<path d="M21.6602 13.0600
L21.2973 13.0600
" />
<path d="M21.2973 13.0600
L21.1764 12.9996
" />
<path d="M21.1764 12.9996
L21.1159 12.9391
" />
</g></g>
<g style="fill:none; 
stroke:#840000; stroke-width:0.1524; stroke-opacity:1; 
stroke-linecap:round; stroke-linejoin:round;">
<path d="M15.1892 22.3675
L15.1892 24.9075
" />
</g>
<g style="fill:none; 
stroke:#006464; stroke-width:0.1524; stroke-opacity:1; 
stroke-linecap:round; stroke-linejoin:round;">
<g transform="rotate(-90.000000 15.1892 21.8595)">
<text x="15.1892" y="22.4945"
textLength="4.0737" font-size="1.6933" lengthAdjust="spacingAndGlyphs"
text-anchor="start" opacity="0" stroke-opacity="0">GND</text>
</g>
<g class="stroked-text"><desc>GND</desc>
<path d="M14.5592 20.7916
L14.4987 20.9126
" />
<path d="M14.4987 20.9126
L14.4987 21.0940
" />
<path d="M14.4987 21.0940
L14.5592 21.2754
" />
<path d="M14.5592 21.2754
L14.6802 21.3964
" />
<path d="M14.6802 21.3964
L14.8011 21.4569
" />
<path d="M14.8011 21.4569
L15.0430 21.5173
" />
<path d="M15.0430 21.5173
L15.2244 21.5173
" />
<path d="M15.2244 21.5173
L15.4663 21.4569
" />
<path d="M15.4663 21.4569
L15.5873 21.3964
" />
<path d="M15.5873 21.3964
L15.7083 21.2754
" />
<path d="M15.7083 21.2754
L15.7687 21.0940
" />
<path d="M15.7687 21.0940
L15.7687 20.9731
" />
<path d="M15.7687 20.9731
L15.7083 20.7916
" />
<path d="M15.7083 20.7916
L15.6478 20.7312
" />
<path d="M15.6478 20.7312
L15.2244 20.7312
" />
<path d="M15.2244 20.7312
L15.2244 20.9731
" />
<path d="M15.7687 20.1869
L14.4987 20.1869
" />
<path d="M14.4987 20.1869
L15.7687 19.4612
" />
<path d="M15.7687 19.4612
L14.4987 19.4612
" />
<path d="M15.7687 18.8564
L14.4987 18.8564
" />
<path d="M14.4987 18.8564
L14.4987 18.5540
" />
<path d="M14.4987 18.5540
L14.5592 18.3726
" />
<path d="M14.5592 18.3726
L14.6802 18.2516
" />
<path d="M14.6802 18.2516
L14.8011 18.1911
" />
<path d="M14.8011 18.1911
L15.0430 18.1307
" />
<path d="M15.0430 18.1307
L15.2244 18.1307
" />
<path d="M15.2244 18.1307
L15.4663 18.1911
" />
<path d="M15.4663 18.1911
L15.5873 18.2516
" />
<path d="M15.5873 18.2516
L15.7083 18.3726
" />
<path d="M15.7083 18.3726
L15.7687 18.5540
" />
<path d="M15.7687 18.5540
L15.7687 18.8564
" />
</g></g>
<g style="fill:none; 
stroke:#A90000; stroke-width:0.1524; stroke-opacity:1; 
stroke-linecap:round; stroke-linejoin:round;">
<g transform="rotate(-90.000000 14.9352 23.6375)">
<text x="14.9352" y="23.6375"
textLength="1.4127" font-size="1.6933" lengthAdjust="spacingAndGlyphs"
text-anchor="middle" opacity="0" stroke-opacity="0">4</text>
</g>
<g class="stroked-text"><desc>4</desc>
<path d="M13.9251 23.3955
L14.7717 23.3955
" />
<path d="M13.4413 23.6979
L14.3484 24.0002
" />
<path d="M14.3484 24.0002
L14.3484 23.2141
" />
</g></g>
<g style="fill:none; 
stroke:#840000; stroke-width:0.1524; stroke-opacity:1; 
stroke-linecap:round; stroke-linejoin:round;">
<path d="M5.0292 18.5575
L2.4892 18.5575
" />
</g>
<g style="fill:none; 
stroke:#006464; stroke-width:0.1524; stroke-opacity:1; 
stroke-linecap:round; stroke-linejoin:round;">
<text x="5.5372" y="19.1925"
textLength="3.8922" font-size="1.6933" lengthAdjust="spacingAndGlyphs"
text-anchor="start" opacity="0" stroke-opacity="0">EN2</text>
<g class="stroked-text"><desc>EN2</desc>
<path d="M5.9397 18.4718
L6.3631 18.4718
" />
<path d="M6.5445 19.1370
L5.9397 19.1370
" />
<path d="M5.9397 19.1370
L5.9397 17.8670
" />
<path d="M5.9397 17.8670
L6.5445 17.8670
" />
<path d="M7.0887 19.1370
L7.0887 17.8670
" />
<path d="M7.0887 17.8670
L7.8144 19.1370
" />
<path d="M7.8144 19.1370
L7.8144 17.8670
" />
<path d="M8.3588 17.9880
L8.4192 17.9275
" />
<path d="M8.4192 17.9275
L8.5402 17.8670
" />
<path d="M8.5402 17.8670
L8.8426 17.8670
" />
<path d="M8.8426 17.8670
L8.9635 17.9275
" />
<path d="M8.9635 17.9275
L9.0240 17.9880
" />
<path d="M9.0240 17.9880
L9.0845 18.1089
" />
<path d="M9.0845 18.1089
L9.0845 18.2299
" />
<path d="M9.0845 18.2299
L9.0240 18.4113
" />
<path d="M9.0240 18.4113
L8.2983 19.1370
" />
<path d="M8.2983 19.1370
L9.0845 19.1370
" />
</g></g>
<g style="fill:none; 
stroke:#A90000; stroke-width:0.1524; stroke-opacity:1; 
stroke-linecap:round; stroke-linejoin:round;">
<text x="3.7592" y="18.3035"
textLength="1.4127" font-size="1.6933" lengthAdjust="spacingAndGlyphs"
text-anchor="middle" opacity="0" stroke-opacity="0">7</text>
<g class="stroked-text"><desc>7</desc>
<path d="M3.3359 16.8700
L4.1825 16.8700
" />
<path d="M4.1825 16.8700
L3.6383 18.1400
" />
</g></g>
<g style="fill:none; 
stroke:#840000; stroke-width:0.1524; stroke-opacity:1; 
stroke-linecap:round; stroke-linejoin:round;">
<path d="M5.0292 10.9375
L2.4892 10.9375
" />
</g>
<g style="fill:none; 
stroke:#006464; stroke-width:0.1524; stroke-opacity:1; 
stroke-linecap:round; stroke-linejoin:round;">
<text x="5.5372" y="11.5725"
textLength="3.3480" font-size="1.6933" lengthAdjust="spacingAndGlyphs"
text-anchor="start" opacity="0" stroke-opacity="0">IN2</text>
<g class="stroked-text"><desc>IN2</desc>
<path d="M5.9397 11.5170
L5.9397 10.2470
" />
<path d="M6.5445 11.5170
L6.5445 10.2470
" />
<path d="M6.5445 10.2470
L7.2702 11.5170
" />
<path d="M7.2702 11.5170
L7.2702 10.2470
" />
<path d="M7.8146 10.3680
L7.8750 10.3075
" />
<path d="M7.8750 10.3075
L7.9960 10.2470
" />
<path d="M7.9960 10.2470
L8.2984 10.2470
" />
<path d="M8.2984 10.2470
L8.4193 10.3075
" />
<path d="M8.4193 10.3075
L8.4798 10.3680
" />
<path d="M8.4798 10.3680
L8.5403 10.4889
" />
<path d="M8.5403 10.4889
L8.5403 10.6099
" />
<path d="M8.5403 10.6099
L8.4798 10.7913
" />
<path d="M8.4798 10.7913
L7.7541 11.5170
" />
<path d="M7.7541 11.5170
L8.5403 11.5170
" />
</g></g>
<g style="fill:none; 
stroke:#A90000; stroke-width:0.1524; stroke-opacity:1; 
stroke-linecap:round; stroke-linejoin:round;">
<text x="3.7592" y="10.6835"
textLength="1.4127" font-size="1.6933" lengthAdjust="spacingAndGlyphs"
text-anchor="middle" opacity="0" stroke-opacity="0">8</text>
<g class="stroked-text"><desc>8</desc>
<path d="M3.6383 9.7943
L3.5173 9.7338
" />
<path d="M3.5173 9.7338
L3.4568 9.6734
" />
<path d="M3.4568 9.6734
L3.3964 9.5524
" />
<path d="M3.3964 9.5524
L3.3964 9.4919
" />
<path d="M3.3964 9.4919
L3.4568 9.3710
" />
<path d="M3.4568 9.3710
L3.5173 9.3105
" />
<path d="M3.5173 9.3105
L3.6383 9.2500
" />
<path d="M3.6383 9.2500
L3.8802 9.2500
" />
<path d="M3.8802 9.2500
L4.0011 9.3105
" />
<path d="M4.0011 9.3105
L4.0616 9.3710
" />
<path d="M4.0616 9.3710
L4.1221 9.4919
" />
<path d="M4.1221 9.4919
L4.1221 9.5524
" />
<path d="M4.1221 9.5524
L4.0616 9.6734
" />
<path d="M4.0616 9.6734
L4.0011 9.7338
" />
<path d="M4.0011 9.7338
L3.8802 9.7943
" />
<path d="M3.8802 9.7943
L3.6383 9.7943
" />
<path d="M3.6383 9.7943
L3.5173 9.8548
" />
<path d="M3.5173 9.8548
L3.4568 9.9153
" />
<path d="M3.4568 9.9153
L3.3964 10.0362
" />
<path d="M3.3964 10.0362
L3.3964 10.2781
" />
<path d="M3.3964 10.2781
L3.4568 10.3991
" />
<path d="M3.4568 10.3991
L3.5173 10.4596
" />
<path d="M3.5173 10.4596
L3.6383 10.5200
" />
<path d="M3.6383 10.5200
L3.8802 10.5200
" />
<path d="M3.8802 10.5200
L4.0011 10.4596
" />
<path d="M4.0011 10.4596
L4.0616 10.3991
" />
<path d="M4.0616 10.3991
L4.1221 10.2781
" />
<path d="M4.1221 10.2781
L4.1221 10.0362
" />
<path d="M4.1221 10.0362
L4.0616 9.9153
" />
<path d="M4.0616 9.9153
L4.0011 9.8548
" />
<path d="M4.0011 9.8548
L3.8802 9.7943
" />
</g></g>
<g style="fill:none; 
stroke:#840000; stroke-width:0.1524; stroke-opacity:1; 
stroke-linecap:round; stroke-linejoin:round;">
<path d="M5.0292 8.3975
L2.4892 8.3975
" />
</g>
<g style="fill:none; 
stroke:#006464; stroke-width:0.1524; stroke-opacity:1; 
stroke-linecap:round; stroke-linejoin:round;">
<text x="5.5372" y="9.0325"
textLength="3.3480" font-size="1.6933" lengthAdjust="spacingAndGlyphs"
text-anchor="start" opacity="0" stroke-opacity="0">IN1</text>
<g class="stroked-text"><desc>IN1</desc>
<path d="M5.9397 8.9770
L5.9397 7.7070
" />
<path d="M6.5445 8.9770
L6.5445 7.7070
" />
<path d="M6.5445 7.7070
L7.2702 8.9770
" />
<path d="M7.2702 8.9770
L7.2702 7.7070
" />
<path d="M8.5403 8.9770
L7.8146 8.9770
" />
<path d="M8.1774 8.9770
L8.1774 7.7070
" />
<path d="M8.1774 7.7070
L8.0565 7.8885
" />
<path d="M8.0565 7.8885
L7.9355 8.0094
" />
<path d="M7.9355 8.0094
L7.8146 8.0699
" />
</g></g>
<g style="fill:none; 
stroke:#A90000; stroke-width:0.1524; stroke-opacity:1; 
stroke-linecap:round; stroke-linejoin:round;">
<text x="3.7592" y="8.1435"
textLength="1.4127" font-size="1.6933" lengthAdjust="spacingAndGlyphs"
text-anchor="middle" opacity="0" stroke-opacity="0">9</text>
<g class="stroked-text"><desc>9</desc>
<path d="M3.5173 7.9800
L3.7592 7.9800
" />
<path d="M3.7592 7.9800
L3.8802 7.9196
" />
<path d="M3.8802 7.9196
L3.9406 7.8591
" />
<path d="M3.9406 7.8591
L4.0616 7.6776
" />
<path d="M4.0616 7.6776
L4.1221 7.4357
" />
<path d="M4.1221 7.4357
L4.1221 6.9519
" />
<path d="M4.1221 6.9519
L4.0616 6.8310
" />
<path d="M4.0616 6.8310
L4.0011 6.7705
" />
<path d="M4.0011 6.7705
L3.8802 6.7100
" />
<path d="M3.8802 6.7100
L3.6383 6.7100
" />
<path d="M3.6383 6.7100
L3.5173 6.7705
" />
<path d="M3.5173 6.7705
L3.4568 6.8310
" />
<path d="M3.4568 6.8310
L3.3964 6.9519
" />
<path d="M3.3964 6.9519
L3.3964 7.2543
" />
<path d="M3.3964 7.2543
L3.4568 7.3753
" />
<path d="M3.4568 7.3753
L3.5173 7.4357
" />
<path d="M3.5173 7.4357
L3.6383 7.4962
" />
<path d="M3.6383 7.4962
L3.8802 7.4962
" />
<path d="M3.8802 7.4962
L4.0011 7.4357
" />
<path d="M4.0011 7.4357
L4.0616 7.3753
" />
<path d="M4.0616 7.3753
L4.1221 7.2543
" />
</g></g>
<g style="fill:none; 
stroke:#840000; stroke-width:0.1524; stroke-opacity:1; 
stroke-linecap:round; stroke-linejoin:round;">
<path d="M5.0292 16.0175
L2.4892 16.0175
" />
</g>
<g style="fill:none; 
stroke:#006464; stroke-width:0.1524; stroke-opacity:1; 
stroke-linecap:round; stroke-linejoin:round;">
<text x="5.5372" y="16.6525"
textLength="3.8922" font-size="1.6933" lengthAdjust="spacingAndGlyphs"
text-anchor="start" opacity="0" stroke-opacity="0">EN1</text>
<g class="stroked-text"><desc>EN1</desc>
<path d="M5.9397 15.9318
L6.3631 15.9318
" />
<path d="M6.5445 16.5970
L5.9397 16.5970
" />
<path d="M5.9397 16.5970
L5.9397 15.3270
" />
<path d="M5.9397 15.3270
L6.5445 15.3270
" />
<path d="M7.0887 16.5970
L7.0887 15.3270
" />
<path d="M7.0887 15.3270
L7.8144 16.5970
" />
<path d="M7.8144 16.5970
L7.8144 15.3270
" />
<path d="M9.0845 16.5970
L8.3588 16.5970
" />
<path d="M8.7216 16.5970
L8.7216 15.3270
" />
<path d="M8.7216 15.3270
L8.6007 15.5085
" />
<path d="M8.6007 15.5085
L8.4797 15.6294
" />
<path d="M8.4797 15.6294
L8.3588 15.6899
" />
</g></g>
<g style="fill:none; 
stroke:#A90000; stroke-width:0.1524; stroke-opacity:1; 
stroke-linecap:round; stroke-linejoin:round;">
<text x="3.7592" y="15.7635"
textLength="2.6222" font-size="1.6933" lengthAdjust="spacingAndGlyphs"
text-anchor="middle" opacity="0" stroke-opacity="0">10</text>
<g class="stroked-text"><desc>10</desc>
<path d="M3.5173 15.6000
L2.7916 15.6000
" />
<path d="M3.1544 15.6000
L3.1544 14.3300
" />
<path d="M3.1544 14.3300
L3.0335 14.5115
" />
<path d="M3.0335 14.5115
L2.9125 14.6324
" />
<path d="M2.9125 14.6324
L2.7916 14.6929
" />
<path d="M4.3034 14.3300
L4.4244 14.3300
" />
<path d="M4.4244 14.3300
L4.5453 14.3905
" />
<path d="M4.5453 14.3905
L4.6058 14.4510
" />
<path d="M4.6058 14.4510
L4.6663 14.5719
" />
<path d="M4.6663 14.5719
L4.7268 14.8138
" />
<path d="M4.7268 14.8138
L4.7268 15.1162
" />
<path d="M4.7268 15.1162
L4.6663 15.3581
" />
<path d="M4.6663 15.3581
L4.6058 15.4791
" />
<path d="M4.6058 15.4791
L4.5453 15.5396
" />
<path d="M4.5453 15.5396
L4.4244 15.6000
" />
<path d="M4.4244 15.6000
L4.3034 15.6000
" />
<path d="M4.3034 15.6000
L4.1825 15.5396
" />
<path d="M4.1825 15.5396
L4.1220 15.4791
" />
<path d="M4.1220 15.4791
L4.0615 15.3581
" />
<path d="M4.0615 15.3581
L4.0011 15.1162
" />
<path d="M4.0011 15.1162
L4.0011 14.8138
" />
<path d="M4.0011 14.8138
L4.0615 14.5719
" />
<path d="M4.0615 14.5719
L4.1220 14.4510
" />
<path d="M4.1220 14.4510
L4.1825 14.3905
" />
<path d="M4.1825 14.3905
L4.3034 14.3300
" />
</g></g>
<g style="fill:none; 
stroke:#840000; stroke-width:0.1524; stroke-opacity:1; 
stroke-linecap:round; stroke-linejoin:round;">
<path d="M17.7292 22.3675
L17.7292 24.9075
" />
</g>
<g style="fill:none; 
stroke:#006464; stroke-width:0.1524; stroke-opacity:1; 
stroke-linecap:round; stroke-linejoin:round;">
<g transform="rotate(-90.000000 17.7292 21.8595)">
<text x="17.7292" y="22.4945"
textLength="3.8318" font-size="1.6933" lengthAdjust="spacingAndGlyphs"
text-anchor="start" opacity="0" stroke-opacity="0">PAD</text>
</g>
<g class="stroked-text"><desc>PAD</desc>
<path d="M18.3087 21.4569
L17.0387 21.4569
" />
<path d="M17.0387 21.4569
L17.0387 20.9731
" />
<path d="M17.0387 20.9731
L17.0992 20.8521
" />
<path d="M17.0992 20.8521
L17.1597 20.7916
" />
<path d="M17.1597 20.7916
L17.2806 20.7312
" />
<path d="M17.2806 20.7312
L17.4621 20.7312
" />
<path d="M17.4621 20.7312
L17.5830 20.7916
" />
<path d="M17.5830 20.7916
L17.6435 20.8521
" />
<path d="M17.6435 20.8521
L17.7040 20.9731
" />
<path d="M17.7040 20.9731
L17.7040 21.4569
" />
<path d="M17.9459 20.2473
L17.9459 19.6426
" />
<path d="M18.3087 20.3683
L17.0387 19.9450
" />
<path d="M17.0387 19.9450
L18.3087 19.5216
" />
<path d="M18.3087 19.0983
L17.0387 19.0983
" />
<path d="M17.0387 19.0983
L17.0387 18.7959
" />
<path d="M17.0387 18.7959
L17.0992 18.6145
" />
<path d="M17.0992 18.6145
L17.2202 18.4935
" />
<path d="M17.2202 18.4935
L17.3411 18.4330
" />
<path d="M17.3411 18.4330
L17.5830 18.3726
" />
<path d="M17.5830 18.3726
L17.7644 18.3726
" />
<path d="M17.7644 18.3726
L18.0063 18.4330
" />
<path d="M18.0063 18.4330
L18.1273 18.4935
" />
<path d="M18.1273 18.4935
L18.2483 18.6145
" />
<path d="M18.2483 18.6145
L18.3087 18.7959
" />
<path d="M18.3087 18.7959
L18.3087 19.0983
" />
</g></g>
<g style="fill:none; 
stroke:#A90000; stroke-width:0.1524; stroke-opacity:1; 
stroke-linecap:round; stroke-linejoin:round;">
<g transform="rotate(-90.000000 17.4752 23.6375)">
<text x="17.4752" y="23.6375"
textLength="2.6222" font-size="1.6933" lengthAdjust="spacingAndGlyphs"
text-anchor="middle" opacity="0" stroke-opacity="0">11</text>
</g>
<g class="stroked-text"><desc>11</desc>
<path d="M17.3117 23.8793
L17.3117 24.6050
" />
<path d="M17.3117 24.2422
L16.0417 24.2422
" />
<path d="M16.0417 24.2422
L16.2232 24.3631
" />
<path d="M16.2232 24.3631
L16.3441 24.4841
" />
<path d="M16.3441 24.4841
L16.4046 24.6050
" />
<path d="M17.3117 22.6698
L17.3117 23.3955
" />
<path d="M17.3117 23.0327
L16.0417 23.0327
" />
<path d="M16.0417 23.0327
L16.2232 23.1536
" />
<path d="M16.2232 23.1536
L16.3441 23.2746
" />
<path d="M16.3441 23.2746
L16.4046 23.3955
" />
</g></g>
<g style="fill:none; 
stroke:#006464; stroke-width:0.1524; stroke-opacity:1; 
stroke-linecap:round; stroke-linejoin:round;">
<text x="5.5372" y="3.9525"
textLength="2.6223" font-size="1.6933" lengthAdjust="spacingAndGlyphs"
text-anchor="middle" opacity="0" stroke-opacity="0">U?</text>
<g class="stroked-text"><desc>U?</desc>
<path d="M4.6300 2.6270
L4.6300 3.6551
" />
<path d="M4.6300 3.6551
L4.6905 3.7761
" />
<path d="M4.6905 3.7761
L4.7510 3.8366
" />
<path d="M4.7510 3.8366
L4.8719 3.8970
" />
<path d="M4.8719 3.8970
L5.1138 3.8970
" />
<path d="M5.1138 3.8970
L5.2348 3.8366
" />
<path d="M5.2348 3.8366
L5.2953 3.7761
" />
<path d="M5.2953 3.7761
L5.3557 3.6551
" />
<path d="M5.3557 3.6551
L5.3557 2.6270
" />
<path d="M6.1420 3.7761
L6.2024 3.8366
" />
<path d="M6.2024 3.8366
L6.1420 3.8970
" />
<path d="M6.1420 3.8970
L6.0815 3.8366
" />
<path d="M6.0815 3.8366
L6.1420 3.7761
" />
<path d="M6.1420 3.7761
L6.1420 3.8970
" />
<path d="M5.9001 2.6875
L6.0210 2.6270
" />
<path d="M6.0210 2.6270
L6.3234 2.6270
" />
<path d="M6.3234 2.6270
L6.4443 2.6875
" />
<path d="M6.4443 2.6875
L6.5048 2.8085
" />
<path d="M6.5048 2.8085
L6.5048 2.9294
" />
<path d="M6.5048 2.9294
L6.4443 3.0504
" />
<path d="M6.4443 3.0504
L6.3839 3.1108
" />
<path d="M6.3839 3.1108
L6.2629 3.1713
" />
<path d="M6.2629 3.1713
L6.2024 3.2318
" />
<path d="M6.2024 3.2318
L6.1420 3.3527
" />
<path d="M6.1420 3.3527
L6.1420 3.4132
" />
</g><text x="16.2052" y="4.2065"
textLength="8.7303" font-size="1.6933" lengthAdjust="spacingAndGlyphs"
text-anchor="middle" opacity="0" stroke-opacity="0">NCV8154</text>
<g class="stroked-text"><desc>NCV8154</desc>
<path d="M12.2440 4.1510
L12.2440 2.8810
" />
<path d="M12.2440 2.8810
L12.9697 4.1510
" />
<path d="M12.9697 4.1510
L12.9697 2.8810
" />
<path d="M14.3002 4.0301
L14.2398 4.0906
" />
<path d="M14.2398 4.0906
L14.0583 4.1510
" />
<path d="M14.0583 4.1510
L13.9374 4.1510
" />
<path d="M13.9374 4.1510
L13.7560 4.0906
" />
<path d="M13.7560 4.0906
L13.6350 3.9696
" />
<path d="M13.6350 3.9696
L13.5745 3.8486
" />
<path d="M13.5745 3.8486
L13.5141 3.6067
" />
<path d="M13.5141 3.6067
L13.5141 3.4253
" />
<path d="M13.5141 3.4253
L13.5745 3.1834
" />
<path d="M13.5745 3.1834
L13.6350 3.0625
" />
<path d="M13.6350 3.0625
L13.7560 2.9415
" />
<path d="M13.7560 2.9415
L13.9374 2.8810
" />
<path d="M13.9374 2.8810
L14.0583 2.8810
" />
<path d="M14.0583 2.8810
L14.2398 2.9415
" />
<path d="M14.2398 2.9415
L14.3002 3.0020
" />
<path d="M14.6631 2.8810
L15.0864 4.1510
" />
<path d="M15.0864 4.1510
L15.5098 2.8810
" />
<path d="M16.1146 3.4253
L15.9936 3.3648
" />
<path d="M15.9936 3.3648
L15.9331 3.3044
" />
<path d="M15.9331 3.3044
L15.8727 3.1834
" />
<path d="M15.8727 3.1834
L15.8727 3.1229
" />
<path d="M15.8727 3.1229
L15.9331 3.0020
" />
<path d="M15.9331 3.0020
L15.9936 2.9415
" />
<path d="M15.9936 2.9415
L16.1146 2.8810
" />
<path d="M16.1146 2.8810
L16.3565 2.8810
" />
<path d="M16.3565 2.8810
L16.4774 2.9415
" />
<path d="M16.4774 2.9415
L16.5379 3.0020
" />
<path d="M16.5379 3.0020
L16.5984 3.1229
" />
<path d="M16.5984 3.1229
L16.5984 3.1834
" />
<path d="M16.5984 3.1834
L16.5379 3.3044
" />
<path d="M16.5379 3.3044
L16.4774 3.3648
" />
<path d="M16.4774 3.3648
L16.3565 3.4253
" />
<path d="M16.3565 3.4253
L16.1146 3.4253
" />
<path d="M16.1146 3.4253
L15.9936 3.4858
" />
<path d="M15.9936 3.4858
L15.9331 3.5463
" />
<path d="M15.9331 3.5463
L15.8727 3.6672
" />
<path d="M15.8727 3.6672
L15.8727 3.9091
" />
<path d="M15.8727 3.9091
L15.9331 4.0301
" />
<path d="M15.9331 4.0301
L15.9936 4.0906
" />
<path d="M15.9936 4.0906
L16.1146 4.1510
" />
<path d="M16.1146 4.1510
L16.3565 4.1510
" />
<path d="M16.3565 4.1510
L16.4774 4.0906
" />
<path d="M16.4774 4.0906
L16.5379 4.0301
" />
<path d="M16.5379 4.0301
L16.5984 3.9091
" />
<path d="M16.5984 3.9091
L16.5984 3.6672
" />
<path d="M16.5984 3.6672
L16.5379 3.5463
" />
<path d="M16.5379 3.5463
L16.4774 3.4858
" />
<path d="M16.4774 3.4858
L16.3565 3.4253
" />
<path d="M17.8079 4.1510
L17.0822 4.1510
" />
<path d="M17.4450 4.1510
L17.4450 2.8810
" />
<path d="M17.4450 2.8810
L17.3241 3.0625
" />
<path d="M17.3241 3.0625
L17.2031 3.1834
" />
<path d="M17.2031 3.1834
L17.0822 3.2439
" />
<path d="M18.9569 2.8810
L18.3521 2.8810
" />
<path d="M18.3521 2.8810
L18.2917 3.4858
" />
<path d="M18.2917 3.4858
L18.3521 3.4253
" />
<path d="M18.3521 3.4253
L18.4731 3.3648
" />
<path d="M18.4731 3.3648
L18.7755 3.3648
" />
<path d="M18.7755 3.3648
L18.8964 3.4253
" />
<path d="M18.8964 3.4253
L18.9569 3.4858
" />
<path d="M18.9569 3.4858
L19.0174 3.6067
" />
<path d="M19.0174 3.6067
L19.0174 3.9091
" />
<path d="M19.0174 3.9091
L18.9569 4.0301
" />
<path d="M18.9569 4.0301
L18.8964 4.0906
" />
<path d="M18.8964 4.0906
L18.7755 4.1510
" />
<path d="M18.7755 4.1510
L18.4731 4.1510
" />
<path d="M18.4731 4.1510
L18.3521 4.0906
" />
<path d="M18.3521 4.0906
L18.2917 4.0301
" />
<path d="M20.1059 3.3044
L20.1059 4.1510
" />
<path d="M19.8035 2.8206
L19.5012 3.7277
" />
<path d="M19.5012 3.7277
L20.2873 3.7277
" />
</g></g> 
</svg>
