<?xml version="1.0" standalone="no"?>
 <!DOCTYPE svg PUBLIC "-//W3C//DTD SVG 1.1//EN" 
 "http://www.w3.org/Graphics/SVG/1.1/DTD/svg11.dtd"> 
<svg
  xmlns:svg="http://www.w3.org/2000/svg"
  xmlns="http://www.w3.org/2000/svg"
  xmlns:xlink="http://www.w3.org/1999/xlink"
  xmlns:inkscape="http://www.inkscape.org/namespaces/inkscape"
  version="1.1"
  width="100%" height="100%" viewBox="0.0000 0.0000 25.2984 30.3276">
<title>SVG Image created as NCV8154_unit1.svg date 2026-04-16T04:55:40 </title>
  <desc>Image generated by Eeschema-SVG </desc>
<g style="fill:#000000; fill-opacity:1.0000;stroke:#000000; stroke-opacity:1.0000;
stroke-linecap:round; stroke-linejoin:round;"
 transform="translate(0 0) scale(1 1)">
</g>
<g style="fill:#FFFFC2; fill-opacity:1.0000; stroke:none;">
<rect x="5.029200" y="4.562100" width="15.240000" height="20.320000" rx="0.000000" />
</g>
<g style="fill:none; 
stroke:#840000; stroke-width:0.2540; stroke-opacity:1; 
stroke-linecap:round; stroke-linejoin:round;">
<rect x="5.029200" y="4.562100" width="15.240000" height="20.320000" rx="0.000000" />
</g>
<g style="fill:none; 
stroke:#840000; stroke-width:0.1524; stroke-opacity:1; 
stroke-linecap:round; stroke-linejoin:round;">
<path d="M12.6492 24.8821
L12.6492 27.4221
" />
</g>
<g style="fill:none; 
stroke:#006464; stroke-width:0.1524; stroke-opacity:1; 
stroke-linecap:round; stroke-linejoin:round;">
<g transform="rotate(-90.000000 12.6492 24.3741)">
<text x="12.6492" y="25.0091"
textLength="4.0737" font-size="1.6933" lengthAdjust="spacingAndGlyphs"
text-anchor="start" opacity="0" stroke-opacity="0">GND</text>
</g>
<g class="stroked-text"><desc>GND</desc>
<path d="M12.0192 23.3062
L11.9587 23.4272
" />
<path d="M11.9587 23.4272
L11.9587 23.6086
" />
<path d="M11.9587 23.6086
L12.0192 23.7900
" />
<path d="M12.0192 23.7900
L12.1402 23.9110
" />
<path d="M12.1402 23.9110
L12.2611 23.9715
" />
<path d="M12.2611 23.9715
L12.5030 24.0319
" />
<path d="M12.5030 24.0319
L12.6844 24.0319
" />
<path d="M12.6844 24.0319
L12.9263 23.9715
" />
<path d="M12.9263 23.9715
L13.0473 23.9110
" />
<path d="M13.0473 23.9110
L13.1683 23.7900
" />
<path d="M13.1683 23.7900
L13.2287 23.6086
" />
<path d="M13.2287 23.6086
L13.2287 23.4877
" />
<path d="M13.2287 23.4877
L13.1683 23.3062
" />
<path d="M13.1683 23.3062
L13.1078 23.2458
" />
<path d="M13.1078 23.2458
L12.6844 23.2458
" />
<path d="M12.6844 23.2458
L12.6844 23.4877
" />
<path d="M13.2287 22.7015
L11.9587 22.7015
" />
<path d="M11.9587 22.7015
L13.2287 21.9758
" />
<path d="M13.2287 21.9758
L11.9587 21.9758
" />
<path d="M13.2287 21.3710
L11.9587 21.3710
" />
<path d="M11.9587 21.3710
L11.9587 21.0686
" />
<path d="M11.9587 21.0686
L12.0192 20.8872
" />
<path d="M12.0192 20.8872
L12.1402 20.7662
" />
<path d="M12.1402 20.7662
L12.2611 20.7057
" />
<path d="M12.2611 20.7057
L12.5030 20.6453
" />
<path d="M12.5030 20.6453
L12.6844 20.6453
" />
<path d="M12.6844 20.6453
L12.9263 20.7057
" />
<path d="M12.9263 20.7057
L13.0473 20.7662
" />
<path d="M13.0473 20.7662
L13.1683 20.8872
" />
<path d="M13.1683 20.8872
L13.2287 21.0686
" />
<path d="M13.2287 21.0686
L13.2287 21.3710
" />
</g></g>
<g style="fill:none; 
stroke:#A90000; stroke-width:0.1524; stroke-opacity:1; 
stroke-linecap:round; stroke-linejoin:round;">
<g transform="rotate(-90.000000 12.3952 26.1521)">
<text x="12.3952" y="26.1521"
textLength="1.4127" font-size="1.6933" lengthAdjust="spacingAndGlyphs"
text-anchor="middle" opacity="0" stroke-opacity="0">1</text>
</g>
<g class="stroked-text"><desc>1</desc>
<path d="M12.2317 25.7891
L12.2317 26.5148
" />
<path d="M12.2317 26.1520
L10.9617 26.1520
" />
<path d="M10.9617 26.1520
L11.1432 26.2729
" />
<path d="M11.1432 26.2729
L11.2641 26.3939
" />
<path d="M11.2641 26.3939
L11.3246 26.5148
" />
</g></g>
<g style="fill:none; 
stroke:#840000; stroke-width:0.1524; stroke-opacity:1; 
stroke-linecap:round; stroke-linejoin:round;">
<path d="M20.2692 9.6421
L22.8092 9.6421
" />
</g>
<g style="fill:none; 
stroke:#006464; stroke-width:0.1524; stroke-opacity:1; 
stroke-linecap:round; stroke-linejoin:round;">
<text x="19.7612" y="10.2771"
textLength="5.0413" font-size="1.6933" lengthAdjust="spacingAndGlyphs"
text-anchor="end" opacity="0" stroke-opacity="0">OUT1</text>
<g class="stroked-text"><desc>OUT1</desc>
<path d="M15.3671 8.9516
L15.6090 8.9516
" />
<path d="M15.6090 8.9516
L15.7300 9.0121
" />
<path d="M15.7300 9.0121
L15.8509 9.1331
" />
<path d="M15.8509 9.1331
L15.9114 9.3750
" />
<path d="M15.9114 9.3750
L15.9114 9.7983
" />
<path d="M15.9114 9.7983
L15.8509 10.0402
" />
<path d="M15.8509 10.0402
L15.7300 10.1612
" />
<path d="M15.7300 10.1612
L15.6090 10.2216
" />
<path d="M15.6090 10.2216
L15.3671 10.2216
" />
<path d="M15.3671 10.2216
L15.2462 10.1612
" />
<path d="M15.2462 10.1612
L15.1252 10.0402
" />
<path d="M15.1252 10.0402
L15.0648 9.7983
" />
<path d="M15.0648 9.7983
L15.0648 9.3750
" />
<path d="M15.0648 9.3750
L15.1252 9.1331
" />
<path d="M15.1252 9.1331
L15.2462 9.0121
" />
<path d="M15.2462 9.0121
L15.3671 8.9516
" />
<path d="M16.4557 8.9516
L16.4557 9.9797
" />
<path d="M16.4557 9.9797
L16.5162 10.1007
" />
<path d="M16.5162 10.1007
L16.5767 10.1612
" />
<path d="M16.5767 10.1612
L16.6976 10.2216
" />
<path d="M16.6976 10.2216
L16.9395 10.2216
" />
<path d="M16.9395 10.2216
L17.0605 10.1612
" />
<path d="M17.0605 10.1612
L17.1210 10.1007
" />
<path d="M17.1210 10.1007
L17.1814 9.9797
" />
<path d="M17.1814 9.9797
L17.1814 8.9516
" />
<path d="M17.6048 8.9516
L18.3305 8.9516
" />
<path d="M17.9677 10.2216
L17.9677 8.9516
" />
<path d="M19.4191 10.2216
L18.6934 10.2216
" />
<path d="M19.0562 10.2216
L19.0562 8.9516
" />
<path d="M19.0562 8.9516
L18.9353 9.1331
" />
<path d="M18.9353 9.1331
L18.8143 9.2540
" />
<path d="M18.8143 9.2540
L18.6934 9.3145
" />
</g></g>
<g style="fill:none; 
stroke:#A90000; stroke-width:0.1524; stroke-opacity:1; 
stroke-linecap:round; stroke-linejoin:round;">
<text x="21.5392" y="9.3881"
textLength="1.4127" font-size="1.6933" lengthAdjust="spacingAndGlyphs"
text-anchor="middle" opacity="0" stroke-opacity="0">2</text>
<g class="stroked-text"><desc>2</desc>
<path d="M21.1764 8.0756
L21.2368 8.0151
" />
<path d="M21.2368 8.0151
L21.3578 7.9546
" />
<path d="M21.3578 7.9546
L21.6602 7.9546
" />
<path d="M21.6602 7.9546
L21.7811 8.0151
" />
<path d="M21.7811 8.0151
L21.8416 8.0756
" />
<path d="M21.8416 8.0756
L21.9021 8.1965
" />
<path d="M21.9021 8.1965
L21.9021 8.3175
" />
<path d="M21.9021 8.3175
L21.8416 8.4989
" />
<path d="M21.8416 8.4989
L21.1159 9.2246
" />
<path d="M21.1159 9.2246
L21.9021 9.2246
" />
</g></g>
<g style="fill:none; 
stroke:#840000; stroke-width:0.1524; stroke-opacity:1; 
stroke-linecap:round; stroke-linejoin:round;">
<path d="M20.2692 14.7221
L22.8092 14.7221
" />
</g>
<g style="fill:none; 
stroke:#006464; stroke-width:0.1524; stroke-opacity:1; 
stroke-linecap:round; stroke-linejoin:round;">
<text x="19.7612" y="15.3571"
textLength="5.0413" font-size="1.6933" lengthAdjust="spacingAndGlyphs"
text-anchor="end" opacity="0" stroke-opacity="0">OUT2</text>
<g class="stroked-text"><desc>OUT2</desc>
<path d="M15.3671 14.0316
L15.6090 14.0316
" />
<path d="M15.6090 14.0316
L15.7300 14.0921
" />
<path d="M15.7300 14.0921
L15.8509 14.2131
" />
<path d="M15.8509 14.2131
L15.9114 14.4550
" />
<path d="M15.9114 14.4550
L15.9114 14.8783
" />
<path d="M15.9114 14.8783
L15.8509 15.1202
" />
<path d="M15.8509 15.1202
L15.7300 15.2412
" />
<path d="M15.7300 15.2412
L15.6090 15.3016
" />
<path d="M15.6090 15.3016
L15.3671 15.3016
" />
<path d="M15.3671 15.3016
L15.2462 15.2412
" />
<path d="M15.2462 15.2412
L15.1252 15.1202
" />
<path d="M15.1252 15.1202
L15.0648 14.8783
" />
<path d="M15.0648 14.8783
L15.0648 14.4550
" />
<path d="M15.0648 14.4550
L15.1252 14.2131
" />
<path d="M15.1252 14.2131
L15.2462 14.0921
" />
<path d="M15.2462 14.0921
L15.3671 14.0316
" />
<path d="M16.4557 14.0316
L16.4557 15.0597
" />
<path d="M16.4557 15.0597
L16.5162 15.1807
" />
<path d="M16.5162 15.1807
L16.5767 15.2412
" />
<path d="M16.5767 15.2412
L16.6976 15.3016
" />
<path d="M16.6976 15.3016
L16.9395 15.3016
" />
<path d="M16.9395 15.3016
L17.0605 15.2412
" />
<path d="M17.0605 15.2412
L17.1210 15.1807
" />
<path d="M17.1210 15.1807
L17.1814 15.0597
" />
<path d="M17.1814 15.0597
L17.1814 14.0316
" />
<path d="M17.6048 14.0316
L18.3305 14.0316
" />
<path d="M17.9677 15.3016
L17.9677 14.0316
" />
<path d="M18.6934 14.1526
L18.7538 14.0921
" />
<path d="M18.7538 14.0921
L18.8748 14.0316
" />
<path d="M18.8748 14.0316
L19.1772 14.0316
" />
<path d="M19.1772 14.0316
L19.2981 14.0921
" />
<path d="M19.2981 14.0921
L19.3586 14.1526
" />
<path d="M19.3586 14.1526
L19.4191 14.2735
" />
<path d="M19.4191 14.2735
L19.4191 14.3945
" />
<path d="M19.4191 14.3945
L19.3586 14.5759
" />
<path d="M19.3586 14.5759
L18.6329 15.3016
" />
<path d="M18.6329 15.3016
L19.4191 15.3016
" />
</g></g>
<g style="fill:none; 
stroke:#A90000; stroke-width:0.1524; stroke-opacity:1; 
stroke-linecap:round; stroke-linejoin:round;">
<text x="21.5392" y="14.4681"
textLength="1.4127" font-size="1.6933" lengthAdjust="spacingAndGlyphs"
text-anchor="middle" opacity="0" stroke-opacity="0">3</text>
<g class="stroked-text"><desc>3</desc>
<path d="M21.1159 13.0346
L21.9021 13.0346
" />
<path d="M21.9021 13.0346
L21.4787 13.5184
" />
<path d="M21.4787 13.5184
L21.6602 13.5184
" />
<path d="M21.6602 13.5184
L21.7811 13.5789
" />
<path d="M21.7811 13.5789
L21.8416 13.6394
" />
<path d="M21.8416 13.6394
L21.9021 13.7603
" />
<path d="M21.9021 13.7603
L21.9021 14.0627
" />
<path d="M21.9021 14.0627
L21.8416 14.1837
" />
<path d="M21.8416 14.1837
L21.7811 14.2442
" />
<path d="M21.7811 14.2442
L21.6602 14.3046
" />
<path d="M21.6602 14.3046
L21.2973 14.3046
" />
<path d="M21.2973 14.3046
L21.1764 14.2442
" />
<path d="M21.1764 14.2442
L21.1159 14.1837
" />
</g></g>
<g style="fill:none; 
stroke:#840000; stroke-width:0.1524; stroke-opacity:1; 
stroke-linecap:round; stroke-linejoin:round;">
<path d="M15.1892 24.8821
L15.1892 27.4221
" />
</g>
<g style="fill:none; 
stroke:#006464; stroke-width:0.1524; stroke-opacity:1; 
stroke-linecap:round; stroke-linejoin:round;">
<g transform="rotate(-90.000000 15.1892 24.3741)">
<text x="15.1892" y="25.0091"
textLength="4.0737" font-size="1.6933" lengthAdjust="spacingAndGlyphs"
text-anchor="start" opacity="0" stroke-opacity="0">GND</text>
</g>
<g class="stroked-text"><desc>GND</desc>
<path d="M14.5592 23.3062
L14.4987 23.4272
" />
<path d="M14.4987 23.4272
L14.4987 23.6086
" />
<path d="M14.4987 23.6086
L14.5592 23.7900
" />
<path d="M14.5592 23.7900
L14.6802 23.9110
" />
<path d="M14.6802 23.9110
L14.8011 23.9715
" />
<path d="M14.8011 23.9715
L15.0430 24.0319
" />
<path d="M15.0430 24.0319
L15.2244 24.0319
" />
<path d="M15.2244 24.0319
L15.4663 23.9715
" />
<path d="M15.4663 23.9715
L15.5873 23.9110
" />
<path d="M15.5873 23.9110
L15.7083 23.7900
" />
<path d="M15.7083 23.7900
L15.7687 23.6086
" />
<path d="M15.7687 23.6086
L15.7687 23.4877
" />
<path d="M15.7687 23.4877
L15.7083 23.3062
" />
<path d="M15.7083 23.3062
L15.6478 23.2458
" />
<path d="M15.6478 23.2458
L15.2244 23.2458
" />
<path d="M15.2244 23.2458
L15.2244 23.4877
" />
<path d="M15.7687 22.7015
L14.4987 22.7015
" />
<path d="M14.4987 22.7015
L15.7687 21.9758
" />
<path d="M15.7687 21.9758
L14.4987 21.9758
" />
<path d="M15.7687 21.3710
L14.4987 21.3710
" />
<path d="M14.4987 21.3710
L14.4987 21.0686
" />
<path d="M14.4987 21.0686
L14.5592 20.8872
" />
<path d="M14.5592 20.8872
L14.6802 20.7662
" />
<path d="M14.6802 20.7662
L14.8011 20.7057
" />
<path d="M14.8011 20.7057
L15.0430 20.6453
" />
<path d="M15.0430 20.6453
L15.2244 20.6453
" />
<path d="M15.2244 20.6453
L15.4663 20.7057
" />
<path d="M15.4663 20.7057
L15.5873 20.7662
" />
<path d="M15.5873 20.7662
L15.7083 20.8872
" />
<path d="M15.7083 20.8872
L15.7687 21.0686
" />
<path d="M15.7687 21.0686
L15.7687 21.3710
" />
</g></g>
<g style="fill:none; 
stroke:#A90000; stroke-width:0.1524; stroke-opacity:1; 
stroke-linecap:round; stroke-linejoin:round;">
<g transform="rotate(-90.000000 14.9352 26.1521)">
<text x="14.9352" y="26.1521"
textLength="1.4127" font-size="1.6933" lengthAdjust="spacingAndGlyphs"
text-anchor="middle" opacity="0" stroke-opacity="0">4</text>
</g>
<g class="stroked-text"><desc>4</desc>
<path d="M13.9251 25.9101
L14.7717 25.9101
" />
<path d="M13.4413 26.2125
L14.3484 26.5148
" />
<path d="M14.3484 26.5148
L14.3484 25.7287
" />
</g></g>
<g style="fill:none; 
stroke:#840000; stroke-width:0.1524; stroke-opacity:1; 
stroke-linecap:round; stroke-linejoin:round;">
<path d="M5.0292 19.8021
L2.4892 19.8021
" />
</g>
<g style="fill:none; 
stroke:#006464; stroke-width:0.1524; stroke-opacity:1; 
stroke-linecap:round; stroke-linejoin:round;">
<text x="5.5372" y="20.4371"
textLength="3.8922" font-size="1.6933" lengthAdjust="spacingAndGlyphs"
text-anchor="start" opacity="0" stroke-opacity="0">EN2</text>
<g class="stroked-text"><desc>EN2</desc>
<path d="M5.9397 19.7164
L6.3631 19.7164
" />
<path d="M6.5445 20.3816
L5.9397 20.3816
" />
<path d="M5.9397 20.3816
L5.9397 19.1116
" />
<path d="M5.9397 19.1116
L6.5445 19.1116
" />
<path d="M7.0887 20.3816
L7.0887 19.1116
" />
<path d="M7.0887 19.1116
L7.8144 20.3816
" />
<path d="M7.8144 20.3816
L7.8144 19.1116
" />
<path d="M8.3588 19.2326
L8.4192 19.1721
" />
<path d="M8.4192 19.1721
L8.5402 19.1116
" />
<path d="M8.5402 19.1116
L8.8426 19.1116
" />
<path d="M8.8426 19.1116
L8.9635 19.1721
" />
<path d="M8.9635 19.1721
L9.0240 19.2326
" />
<path d="M9.0240 19.2326
L9.0845 19.3535
" />
<path d="M9.0845 19.3535
L9.0845 19.4745
" />
<path d="M9.0845 19.4745
L9.0240 19.6559
" />
<path d="M9.0240 19.6559
L8.2983 20.3816
" />
<path d="M8.2983 20.3816
L9.0845 20.3816
" />
</g></g>
<g style="fill:none; 
stroke:#A90000; stroke-width:0.1524; stroke-opacity:1; 
stroke-linecap:round; stroke-linejoin:round;">
<text x="3.7592" y="19.5481"
textLength="1.4127" font-size="1.6933" lengthAdjust="spacingAndGlyphs"
text-anchor="middle" opacity="0" stroke-opacity="0">7</text>
<g class="stroked-text"><desc>7</desc>
<path d="M3.3359 18.1146
L4.1825 18.1146
" />
<path d="M4.1825 18.1146
L3.6383 19.3846
" />
</g></g>
<g style="fill:none; 
stroke:#840000; stroke-width:0.1524; stroke-opacity:1; 
stroke-linecap:round; stroke-linejoin:round;">
<path d="M5.0292 12.1821
L2.4892 12.1821
" />
</g>
<g style="fill:none; 
stroke:#006464; stroke-width:0.1524; stroke-opacity:1; 
stroke-linecap:round; stroke-linejoin:round;">
<text x="5.5372" y="12.8171"
textLength="3.3480" font-size="1.6933" lengthAdjust="spacingAndGlyphs"
text-anchor="start" opacity="0" stroke-opacity="0">IN2</text>
<g class="stroked-text"><desc>IN2</desc>
<path d="M5.9397 12.7616
L5.9397 11.4916
" />
<path d="M6.5445 12.7616
L6.5445 11.4916
" />
<path d="M6.5445 11.4916
L7.2702 12.7616
" />
<path d="M7.2702 12.7616
L7.2702 11.4916
" />
<path d="M7.8146 11.6126
L7.8750 11.5521
" />
<path d="M7.8750 11.5521
L7.9960 11.4916
" />
<path d="M7.9960 11.4916
L8.2984 11.4916
" />
<path d="M8.2984 11.4916
L8.4193 11.5521
" />
<path d="M8.4193 11.5521
L8.4798 11.6126
" />
<path d="M8.4798 11.6126
L8.5403 11.7335
" />
<path d="M8.5403 11.7335
L8.5403 11.8545
" />
<path d="M8.5403 11.8545
L8.4798 12.0359
" />
<path d="M8.4798 12.0359
L7.7541 12.7616
" />
<path d="M7.7541 12.7616
L8.5403 12.7616
" />
</g></g>
<g style="fill:none; 
stroke:#A90000; stroke-width:0.1524; stroke-opacity:1; 
stroke-linecap:round; stroke-linejoin:round;">
<text x="3.7592" y="11.9281"
textLength="1.4127" font-size="1.6933" lengthAdjust="spacingAndGlyphs"
text-anchor="middle" opacity="0" stroke-opacity="0">8</text>
<g class="stroked-text"><desc>8</desc>
<path d="M3.6383 11.0389
L3.5173 10.9784
" />
<path d="M3.5173 10.9784
L3.4568 10.9180
" />
<path d="M3.4568 10.9180
L3.3964 10.7970
" />
<path d="M3.3964 10.7970
L3.3964 10.7365
" />
<path d="M3.3964 10.7365
L3.4568 10.6156
" />
<path d="M3.4568 10.6156
L3.5173 10.5551
" />
<path d="M3.5173 10.5551
L3.6383 10.4946
" />
<path d="M3.6383 10.4946
L3.8802 10.4946
" />
<path d="M3.8802 10.4946
L4.0011 10.5551
" />
<path d="M4.0011 10.5551
L4.0616 10.6156
" />
<path d="M4.0616 10.6156
L4.1221 10.7365
" />
<path d="M4.1221 10.7365
L4.1221 10.7970
" />
<path d="M4.1221 10.7970
L4.0616 10.9180
" />
<path d="M4.0616 10.9180
L4.0011 10.9784
" />
<path d="M4.0011 10.9784
L3.8802 11.0389
" />
<path d="M3.8802 11.0389
L3.6383 11.0389
" />
<path d="M3.6383 11.0389
L3.5173 11.0994
" />
<path d="M3.5173 11.0994
L3.4568 11.1599
" />
<path d="M3.4568 11.1599
L3.3964 11.2808
" />
<path d="M3.3964 11.2808
L3.3964 11.5227
" />
<path d="M3.3964 11.5227
L3.4568 11.6437
" />
<path d="M3.4568 11.6437
L3.5173 11.7042
" />
<path d="M3.5173 11.7042
L3.6383 11.7646
" />
<path d="M3.6383 11.7646
L3.8802 11.7646
" />
<path d="M3.8802 11.7646
L4.0011 11.7042
" />
<path d="M4.0011 11.7042
L4.0616 11.6437
" />
<path d="M4.0616 11.6437
L4.1221 11.5227
" />
<path d="M4.1221 11.5227
L4.1221 11.2808
" />
<path d="M4.1221 11.2808
L4.0616 11.1599
" />
<path d="M4.0616 11.1599
L4.0011 11.0994
" />
<path d="M4.0011 11.0994
L3.8802 11.0389
" />
</g></g>
<g style="fill:none; 
stroke:#840000; stroke-width:0.1524; stroke-opacity:1; 
stroke-linecap:round; stroke-linejoin:round;">
<path d="M5.0292 9.6421
L2.4892 9.6421
" />
</g>
<g style="fill:none; 
stroke:#006464; stroke-width:0.1524; stroke-opacity:1; 
stroke-linecap:round; stroke-linejoin:round;">
<text x="5.5372" y="10.2771"
textLength="3.3480" font-size="1.6933" lengthAdjust="spacingAndGlyphs"
text-anchor="start" opacity="0" stroke-opacity="0">IN1</text>
<g class="stroked-text"><desc>IN1</desc>
<path d="M5.9397 10.2216
L5.9397 8.9516
" />
<path d="M6.5445 10.2216
L6.5445 8.9516
" />
<path d="M6.5445 8.9516
L7.2702 10.2216
" />
<path d="M7.2702 10.2216
L7.2702 8.9516
" />
<path d="M8.5403 10.2216
L7.8146 10.2216
" />
<path d="M8.1774 10.2216
L8.1774 8.9516
" />
<path d="M8.1774 8.9516
L8.0565 9.1331
" />
<path d="M8.0565 9.1331
L7.9355 9.2540
" />
<path d="M7.9355 9.2540
L7.8146 9.3145
" />
</g></g>
<g style="fill:none; 
stroke:#A90000; stroke-width:0.1524; stroke-opacity:1; 
stroke-linecap:round; stroke-linejoin:round;">
<text x="3.7592" y="9.3881"
textLength="1.4127" font-size="1.6933" lengthAdjust="spacingAndGlyphs"
text-anchor="middle" opacity="0" stroke-opacity="0">9</text>
<g class="stroked-text"><desc>9</desc>
<path d="M3.5173 9.2246
L3.7592 9.2246
" />
<path d="M3.7592 9.2246
L3.8802 9.1642
" />
<path d="M3.8802 9.1642
L3.9406 9.1037
" />
<path d="M3.9406 9.1037
L4.0616 8.9222
" />
<path d="M4.0616 8.9222
L4.1221 8.6803
" />
<path d="M4.1221 8.6803
L4.1221 8.1965
" />
<path d="M4.1221 8.1965
L4.0616 8.0756
" />
<path d="M4.0616 8.0756
L4.0011 8.0151
" />
<path d="M4.0011 8.0151
L3.8802 7.9546
" />
<path d="M3.8802 7.9546
L3.6383 7.9546
" />
<path d="M3.6383 7.9546
L3.5173 8.0151
" />
<path d="M3.5173 8.0151
L3.4568 8.0756
" />
<path d="M3.4568 8.0756
L3.3964 8.1965
" />
<path d="M3.3964 8.1965
L3.3964 8.4989
" />
<path d="M3.3964 8.4989
L3.4568 8.6199
" />
<path d="M3.4568 8.6199
L3.5173 8.6803
" />
<path d="M3.5173 8.6803
L3.6383 8.7408
" />
<path d="M3.6383 8.7408
L3.8802 8.7408
" />
<path d="M3.8802 8.7408
L4.0011 8.6803
" />
<path d="M4.0011 8.6803
L4.0616 8.6199
" />
<path d="M4.0616 8.6199
L4.1221 8.4989
" />
</g></g>
<g style="fill:none; 
stroke:#840000; stroke-width:0.1524; stroke-opacity:1; 
stroke-linecap:round; stroke-linejoin:round;">
<path d="M5.0292 17.2621
L2.4892 17.2621
" />
</g>
<g style="fill:none; 
stroke:#006464; stroke-width:0.1524; stroke-opacity:1; 
stroke-linecap:round; stroke-linejoin:round;">
<text x="5.5372" y="17.8971"
textLength="3.8922" font-size="1.6933" lengthAdjust="spacingAndGlyphs"
text-anchor="start" opacity="0" stroke-opacity="0">EN1</text>
<g class="stroked-text"><desc>EN1</desc>
<path d="M5.9397 17.1764
L6.3631 17.1764
" />
<path d="M6.5445 17.8416
L5.9397 17.8416
" />
<path d="M5.9397 17.8416
L5.9397 16.5716
" />
<path d="M5.9397 16.5716
L6.5445 16.5716
" />
<path d="M7.0887 17.8416
L7.0887 16.5716
" />
<path d="M7.0887 16.5716
L7.8144 17.8416
" />
<path d="M7.8144 17.8416
L7.8144 16.5716
" />
<path d="M9.0845 17.8416
L8.3588 17.8416
" />
<path d="M8.7216 17.8416
L8.7216 16.5716
" />
<path d="M8.7216 16.5716
L8.6007 16.7531
" />
<path d="M8.6007 16.7531
L8.4797 16.8740
" />
<path d="M8.4797 16.8740
L8.3588 16.9345
" />
</g></g>
<g style="fill:none; 
stroke:#A90000; stroke-width:0.1524; stroke-opacity:1; 
stroke-linecap:round; stroke-linejoin:round;">
<text x="3.7592" y="17.0081"
textLength="2.6222" font-size="1.6933" lengthAdjust="spacingAndGlyphs"
text-anchor="middle" opacity="0" stroke-opacity="0">10</text>
<g class="stroked-text"><desc>10</desc>
<path d="M3.5173 16.8446
L2.7916 16.8446
" />
<path d="M3.1544 16.8446
L3.1544 15.5746
" />
<path d="M3.1544 15.5746
L3.0335 15.7561
" />
<path d="M3.0335 15.7561
L2.9125 15.8770
" />
<path d="M2.9125 15.8770
L2.7916 15.9375
" />
<path d="M4.3034 15.5746
L4.4244 15.5746
" />
<path d="M4.4244 15.5746
L4.5453 15.6351
" />
<path d="M4.5453 15.6351
L4.6058 15.6956
" />
<path d="M4.6058 15.6956
L4.6663 15.8165
" />
<path d="M4.6663 15.8165
L4.7268 16.0584
" />
<path d="M4.7268 16.0584
L4.7268 16.3608
" />
<path d="M4.7268 16.3608
L4.6663 16.6027
" />
<path d="M4.6663 16.6027
L4.6058 16.7237
" />
<path d="M4.6058 16.7237
L4.5453 16.7842
" />
<path d="M4.5453 16.7842
L4.4244 16.8446
" />
<path d="M4.4244 16.8446
L4.3034 16.8446
" />
<path d="M4.3034 16.8446
L4.1825 16.7842
" />
<path d="M4.1825 16.7842
L4.1220 16.7237
" />
<path d="M4.1220 16.7237
L4.0615 16.6027
" />
<path d="M4.0615 16.6027
L4.0011 16.3608
" />
<path d="M4.0011 16.3608
L4.0011 16.0584
" />
<path d="M4.0011 16.0584
L4.0615 15.8165
" />
<path d="M4.0615 15.8165
L4.1220 15.6956
" />
<path d="M4.1220 15.6956
L4.1825 15.6351
" />
<path d="M4.1825 15.6351
L4.3034 15.5746
" />
</g></g>
<g style="fill:none; 
stroke:#840000; stroke-width:0.1524; stroke-opacity:1; 
stroke-linecap:round; stroke-linejoin:round;">
<path d="M17.7292 24.8821
L17.7292 27.4221
" />
</g>
<g style="fill:none; 
stroke:#006464; stroke-width:0.1524; stroke-opacity:1; 
stroke-linecap:round; stroke-linejoin:round;">
<g transform="rotate(-90.000000 17.7292 24.3741)">
<text x="17.7292" y="25.0091"
textLength="3.8318" font-size="1.6933" lengthAdjust="spacingAndGlyphs"
text-anchor="start" opacity="0" stroke-opacity="0">PAD</text>
</g>
<g class="stroked-text"><desc>PAD</desc>
<path d="M18.3087 23.9715
L17.0387 23.9715
" />
<path d="M17.0387 23.9715
L17.0387 23.4877
" />
<path d="M17.0387 23.4877
L17.0992 23.3667
" />
<path d="M17.0992 23.3667
L17.1597 23.3062
" />
<path d="M17.1597 23.3062
L17.2806 23.2458
" />
<path d="M17.2806 23.2458
L17.4621 23.2458
" />
<path d="M17.4621 23.2458
L17.5830 23.3062
" />
<path d="M17.5830 23.3062
L17.6435 23.3667
" />
<path d="M17.6435 23.3667
L17.7040 23.4877
" />
<path d="M17.7040 23.4877
L17.7040 23.9715
" />
<path d="M17.9459 22.7619
L17.9459 22.1572
" />
<path d="M18.3087 22.8829
L17.0387 22.4596
" />
<path d="M17.0387 22.4596
L18.3087 22.0362
" />
<path d="M18.3087 21.6129
L17.0387 21.6129
" />
<path d="M17.0387 21.6129
L17.0387 21.3105
" />
<path d="M17.0387 21.3105
L17.0992 21.1291
" />
<path d="M17.0992 21.1291
L17.2202 21.0081
" />
<path d="M17.2202 21.0081
L17.3411 20.9476
" />
<path d="M17.3411 20.9476
L17.5830 20.8872
" />
<path d="M17.5830 20.8872
L17.7644 20.8872
" />
<path d="M17.7644 20.8872
L18.0063 20.9476
" />
<path d="M18.0063 20.9476
L18.1273 21.0081
" />
<path d="M18.1273 21.0081
L18.2483 21.1291
" />
<path d="M18.2483 21.1291
L18.3087 21.3105
" />
<path d="M18.3087 21.3105
L18.3087 21.6129
" />
</g></g>
<g style="fill:none; 
stroke:#A90000; stroke-width:0.1524; stroke-opacity:1; 
stroke-linecap:round; stroke-linejoin:round;">
<g transform="rotate(-90.000000 17.4752 26.1521)">
<text x="17.4752" y="26.1521"
textLength="2.6222" font-size="1.6933" lengthAdjust="spacingAndGlyphs"
text-anchor="middle" opacity="0" stroke-opacity="0">11</text>
</g>
<g class="stroked-text"><desc>11</desc>
<path d="M17.3117 26.3939
L17.3117 27.1196
" />
<path d="M17.3117 26.7568
L16.0417 26.7568
" />
<path d="M16.0417 26.7568
L16.2232 26.8777
" />
<path d="M16.2232 26.8777
L16.3441 26.9987
" />
<path d="M16.3441 26.9987
L16.4046 27.1196
" />
<path d="M17.3117 25.1844
L17.3117 25.9101
" />
<path d="M17.3117 25.5473
L16.0417 25.5473
" />
<path d="M16.0417 25.5473
L16.2232 25.6682
" />
<path d="M16.2232 25.6682
L16.3441 25.7892
" />
<path d="M16.3441 25.7892
L16.4046 25.9101
" />
</g></g>
<g style="fill:none; 
stroke:#006464; stroke-width:0.1524; stroke-opacity:1; 
stroke-linecap:round; stroke-linejoin:round;">
<text x="5.5372" y="4.1811"
textLength="2.6223" font-size="1.6933" lengthAdjust="spacingAndGlyphs"
text-anchor="middle" opacity="0" stroke-opacity="0">U?</text>
<g class="stroked-text"><desc>U?</desc>
<path d="M4.6300 2.8556
L4.6300 3.8837
" />
<path d="M4.6300 3.8837
L4.6905 4.0047
" />
<path d="M4.6905 4.0047
L4.7510 4.0652
" />
<path d="M4.7510 4.0652
L4.8719 4.1256
" />
<path d="M4.8719 4.1256
L5.1138 4.1256
" />
<path d="M5.1138 4.1256
L5.2348 4.0652
" />
<path d="M5.2348 4.0652
L5.2953 4.0047
" />
<path d="M5.2953 4.0047
L5.3557 3.8837
" />
<path d="M5.3557 3.8837
L5.3557 2.8556
" />
<path d="M6.1420 4.0047
L6.2024 4.0652
" />
<path d="M6.2024 4.0652
L6.1420 4.1256
" />
<path d="M6.1420 4.1256
L6.0815 4.0652
" />
<path d="M6.0815 4.0652
L6.1420 4.0047
" />
<path d="M6.1420 4.0047
L6.1420 4.1256
" />
<path d="M5.9001 2.9161
L6.0210 2.8556
" />
<path d="M6.0210 2.8556
L6.3234 2.8556
" />
<path d="M6.3234 2.8556
L6.4443 2.9161
" />
<path d="M6.4443 2.9161
L6.5048 3.0371
" />
<path d="M6.5048 3.0371
L6.5048 3.1580
" />
<path d="M6.5048 3.1580
L6.4443 3.2790
" />
<path d="M6.4443 3.2790
L6.3839 3.3394
" />
<path d="M6.3839 3.3394
L6.2629 3.3999
" />
<path d="M6.2629 3.3999
L6.2024 3.4604
" />
<path d="M6.2024 3.4604
L6.1420 3.5813
" />
<path d="M6.1420 3.5813
L6.1420 3.6418
" />
</g><text x="16.2052" y="4.1811"
textLength="8.7303" font-size="1.6933" lengthAdjust="spacingAndGlyphs"
text-anchor="middle" opacity="0" stroke-opacity="0">NCV8154</text>
<g class="stroked-text"><desc>NCV8154</desc>
<path d="M12.2440 4.1256
L12.2440 2.8556
" />
<path d="M12.2440 2.8556
L12.9697 4.1256
" />
<path d="M12.9697 4.1256
L12.9697 2.8556
" />
<path d="M14.3002 4.0047
L14.2398 4.0652
" />
<path d="M14.2398 4.0652
L14.0583 4.1256
" />
<path d="M14.0583 4.1256
L13.9374 4.1256
" />
<path d="M13.9374 4.1256
L13.7560 4.0652
" />
<path d="M13.7560 4.0652
L13.6350 3.9442
" />
<path d="M13.6350 3.9442
L13.5745 3.8232
" />
<path d="M13.5745 3.8232
L13.5141 3.5813
" />
<path d="M13.5141 3.5813
L13.5141 3.3999
" />
<path d="M13.5141 3.3999
L13.5745 3.1580
" />
<path d="M13.5745 3.1580
L13.6350 3.0371
" />
<path d="M13.6350 3.0371
L13.7560 2.9161
" />
<path d="M13.7560 2.9161
L13.9374 2.8556
" />
<path d="M13.9374 2.8556
L14.0583 2.8556
" />
<path d="M14.0583 2.8556
L14.2398 2.9161
" />
<path d="M14.2398 2.9161
L14.3002 2.9766
" />
<path d="M14.6631 2.8556
L15.0864 4.1256
" />
<path d="M15.0864 4.1256
L15.5098 2.8556
" />
<path d="M16.1146 3.3999
L15.9936 3.3394
" />
<path d="M15.9936 3.3394
L15.9331 3.2790
" />
<path d="M15.9331 3.2790
L15.8727 3.1580
" />
<path d="M15.8727 3.1580
L15.8727 3.0975
" />
<path d="M15.8727 3.0975
L15.9331 2.9766
" />
<path d="M15.9331 2.9766
L15.9936 2.9161
" />
<path d="M15.9936 2.9161
L16.1146 2.8556
" />
<path d="M16.1146 2.8556
L16.3565 2.8556
" />
<path d="M16.3565 2.8556
L16.4774 2.9161
" />
<path d="M16.4774 2.9161
L16.5379 2.9766
" />
<path d="M16.5379 2.9766
L16.5984 3.0975
" />
<path d="M16.5984 3.0975
L16.5984 3.1580
" />
<path d="M16.5984 3.1580
L16.5379 3.2790
" />
<path d="M16.5379 3.2790
L16.4774 3.3394
" />
<path d="M16.4774 3.3394
L16.3565 3.3999
" />
<path d="M16.3565 3.3999
L16.1146 3.3999
" />
<path d="M16.1146 3.3999
L15.9936 3.4604
" />
<path d="M15.9936 3.4604
L15.9331 3.5209
" />
<path d="M15.9331 3.5209
L15.8727 3.6418
" />
<path d="M15.8727 3.6418
L15.8727 3.8837
" />
<path d="M15.8727 3.8837
L15.9331 4.0047
" />
<path d="M15.9331 4.0047
L15.9936 4.0652
" />
<path d="M15.9936 4.0652
L16.1146 4.1256
" />
<path d="M16.1146 4.1256
L16.3565 4.1256
" />
<path d="M16.3565 4.1256
L16.4774 4.0652
" />
<path d="M16.4774 4.0652
L16.5379 4.0047
" />
<path d="M16.5379 4.0047
L16.5984 3.8837
" />
<path d="M16.5984 3.8837
L16.5984 3.6418
" />
<path d="M16.5984 3.6418
L16.5379 3.5209
" />
<path d="M16.5379 3.5209
L16.4774 3.4604
" />
<path d="M16.4774 3.4604
L16.3565 3.3999
" />
<path d="M17.8079 4.1256
L17.0822 4.1256
" />
<path d="M17.4450 4.1256
L17.4450 2.8556
" />
<path d="M17.4450 2.8556
L17.3241 3.0371
" />
<path d="M17.3241 3.0371
L17.2031 3.1580
" />
<path d="M17.2031 3.1580
L17.0822 3.2185
" />
<path d="M18.9569 2.8556
L18.3521 2.8556
" />
<path d="M18.3521 2.8556
L18.2917 3.4604
" />
<path d="M18.2917 3.4604
L18.3521 3.3999
" />
<path d="M18.3521 3.3999
L18.4731 3.3394
" />
<path d="M18.4731 3.3394
L18.7755 3.3394
" />
<path d="M18.7755 3.3394
L18.8964 3.3999
" />
<path d="M18.8964 3.3999
L18.9569 3.4604
" />
<path d="M18.9569 3.4604
L19.0174 3.5813
" />
<path d="M19.0174 3.5813
L19.0174 3.8837
" />
<path d="M19.0174 3.8837
L18.9569 4.0047
" />
<path d="M18.9569 4.0047
L18.8964 4.0652
" />
<path d="M18.8964 4.0652
L18.7755 4.1256
" />
<path d="M18.7755 4.1256
L18.4731 4.1256
" />
<path d="M18.4731 4.1256
L18.3521 4.0652
" />
<path d="M18.3521 4.0652
L18.2917 4.0047
" />
<path d="M20.1059 3.2790
L20.1059 4.1256
" />
<path d="M19.8035 2.7952
L19.5012 3.7023
" />
<path d="M19.5012 3.7023
L20.2873 3.7023
" />
</g></g> 
</svg>
