<?xml version="1.0" standalone="no"?>
 <!DOCTYPE svg PUBLIC "-//W3C//DTD SVG 1.1//EN" 
 "http://www.w3.org/Graphics/SVG/1.1/DTD/svg11.dtd"> 
<svg
  xmlns:svg="http://www.w3.org/2000/svg"
  xmlns="http://www.w3.org/2000/svg"
  xmlns:xlink="http://www.w3.org/1999/xlink"
  xmlns:inkscape="http://www.inkscape.org/namespaces/inkscape"
  version="1.1"
  width="100%" height="100%" viewBox="0.0000 0.0000 61.8744 45.8724">
<title>SVG Image created as OPA857_unit1.svg date 2026-04-16T05:15:23 </title>
  <desc>Image generated by Eeschema-SVG </desc>
<g style="fill:#000000; fill-opacity:1.0000;stroke:#000000; stroke-opacity:1.0000;
stroke-linecap:round; stroke-linejoin:round;"
 transform="translate(0 0) scale(1 1)">
</g>
<g style="fill:#FFFFC2; fill-opacity:1.0000; stroke:none;">
<rect x="10.617200" y="6.365500" width="40.640000" height="35.560000" rx="0.000000" />
</g>
<g style="fill:none; 
stroke:#840000; stroke-width:0.2540; stroke-opacity:1; 
stroke-linecap:round; stroke-linejoin:round;">
<rect x="10.617200" y="6.365500" width="40.640000" height="35.560000" rx="0.000000" />
</g>
<g style="fill:none; 
stroke:#840000; stroke-width:0.1524; stroke-opacity:1; 
stroke-linecap:round; stroke-linejoin:round;">
<path d="M51.2572 21.6055
L56.3372 21.6055
" />
</g>
<g style="fill:none; 
stroke:#006464; stroke-width:0.1524; stroke-opacity:1; 
stroke-linecap:round; stroke-linejoin:round;">
<text x="50.7492" y="22.2405"
textLength="4.0737" font-size="1.6933" lengthAdjust="spacingAndGlyphs"
text-anchor="end" opacity="0" stroke-opacity="0">GND</text>
<g class="stroked-text"><desc>GND</desc>
<path d="M47.7461 20.9755
L47.6251 20.9150
" />
<path d="M47.6251 20.9150
L47.4437 20.9150
" />
<path d="M47.4437 20.9150
L47.2623 20.9755
" />
<path d="M47.2623 20.9755
L47.1413 21.0965
" />
<path d="M47.1413 21.0965
L47.0808 21.2174
" />
<path d="M47.0808 21.2174
L47.0204 21.4593
" />
<path d="M47.0204 21.4593
L47.0204 21.6407
" />
<path d="M47.0204 21.6407
L47.0808 21.8826
" />
<path d="M47.0808 21.8826
L47.1413 22.0036
" />
<path d="M47.1413 22.0036
L47.2623 22.1246
" />
<path d="M47.2623 22.1246
L47.4437 22.1850
" />
<path d="M47.4437 22.1850
L47.5646 22.1850
" />
<path d="M47.5646 22.1850
L47.7461 22.1246
" />
<path d="M47.7461 22.1246
L47.8065 22.0641
" />
<path d="M47.8065 22.0641
L47.8065 21.6407
" />
<path d="M47.8065 21.6407
L47.5646 21.6407
" />
<path d="M48.3508 22.1850
L48.3508 20.9150
" />
<path d="M48.3508 20.9150
L49.0765 22.1850
" />
<path d="M49.0765 22.1850
L49.0765 20.9150
" />
<path d="M49.6813 22.1850
L49.6813 20.9150
" />
<path d="M49.6813 20.9150
L49.9837 20.9150
" />
<path d="M49.9837 20.9150
L50.1651 20.9755
" />
<path d="M50.1651 20.9755
L50.2861 21.0965
" />
<path d="M50.2861 21.0965
L50.3466 21.2174
" />
<path d="M50.3466 21.2174
L50.4070 21.4593
" />
<path d="M50.4070 21.4593
L50.4070 21.6407
" />
<path d="M50.4070 21.6407
L50.3466 21.8826
" />
<path d="M50.3466 21.8826
L50.2861 22.0036
" />
<path d="M50.2861 22.0036
L50.1651 22.1246
" />
<path d="M50.1651 22.1246
L49.9837 22.1850
" />
<path d="M49.9837 22.1850
L49.6813 22.1850
" />
</g></g>
<g style="fill:none; 
stroke:#A90000; stroke-width:0.1524; stroke-opacity:1; 
stroke-linecap:round; stroke-linejoin:round;">
<text x="53.7972" y="21.3515"
textLength="1.4127" font-size="1.6933" lengthAdjust="spacingAndGlyphs"
text-anchor="middle" opacity="0" stroke-opacity="0">1</text>
<g class="stroked-text"><desc>1</desc>
<path d="M54.1601 21.1880
L53.4344 21.1880
" />
<path d="M53.7972 21.1880
L53.7972 19.9180
" />
<path d="M53.7972 19.9180
L53.6763 20.0995
" />
<path d="M53.6763 20.0995
L53.5553 20.2204
" />
<path d="M53.5553 20.2204
L53.4344 20.2809
" />
</g></g>
<g style="fill:none; 
stroke:#840000; stroke-width:0.1524; stroke-opacity:1; 
stroke-linecap:round; stroke-linejoin:round;">
<path d="M10.6172 24.1455
L5.5372 24.1455
" />
</g>
<g style="fill:none; 
stroke:#006464; stroke-width:0.1524; stroke-opacity:1; 
stroke-linecap:round; stroke-linejoin:round;">
<text x="11.1252" y="24.7805"
textLength="4.7389" font-size="1.6933" lengthAdjust="spacingAndGlyphs"
text-anchor="start" opacity="0" stroke-opacity="0">CTRL</text>
<g class="stroked-text"><desc>CTRL</desc>
<path d="M12.2534 24.6041
L12.1930 24.6646
" />
<path d="M12.1930 24.6646
L12.0115 24.7250
" />
<path d="M12.0115 24.7250
L11.8906 24.7250
" />
<path d="M11.8906 24.7250
L11.7092 24.6646
" />
<path d="M11.7092 24.6646
L11.5882 24.5436
" />
<path d="M11.5882 24.5436
L11.5277 24.4226
" />
<path d="M11.5277 24.4226
L11.4673 24.1807
" />
<path d="M11.4673 24.1807
L11.4673 23.9993
" />
<path d="M11.4673 23.9993
L11.5277 23.7574
" />
<path d="M11.5277 23.7574
L11.5882 23.6365
" />
<path d="M11.5882 23.6365
L11.7092 23.5155
" />
<path d="M11.7092 23.5155
L11.8906 23.4550
" />
<path d="M11.8906 23.4550
L12.0115 23.4550
" />
<path d="M12.0115 23.4550
L12.1930 23.5155
" />
<path d="M12.1930 23.5155
L12.2534 23.5760
" />
<path d="M12.6163 23.4550
L13.3420 23.4550
" />
<path d="M12.9792 24.7250
L12.9792 23.4550
" />
<path d="M14.4910 24.7250
L14.0677 24.1203
" />
<path d="M13.7653 24.7250
L13.7653 23.4550
" />
<path d="M13.7653 23.4550
L14.2491 23.4550
" />
<path d="M14.2491 23.4550
L14.3701 23.5155
" />
<path d="M14.3701 23.5155
L14.4306 23.5760
" />
<path d="M14.4306 23.5760
L14.4910 23.6969
" />
<path d="M14.4910 23.6969
L14.4910 23.8784
" />
<path d="M14.4910 23.8784
L14.4306 23.9993
" />
<path d="M14.4306 23.9993
L14.3701 24.0598
" />
<path d="M14.3701 24.0598
L14.2491 24.1203
" />
<path d="M14.2491 24.1203
L13.7653 24.1203
" />
<path d="M15.6401 24.7250
L15.0353 24.7250
" />
<path d="M15.0353 24.7250
L15.0353 23.4550
" />
</g></g>
<g style="fill:none; 
stroke:#A90000; stroke-width:0.1524; stroke-opacity:1; 
stroke-linecap:round; stroke-linejoin:round;">
<text x="8.0772" y="23.8915"
textLength="1.4127" font-size="1.6933" lengthAdjust="spacingAndGlyphs"
text-anchor="middle" opacity="0" stroke-opacity="0">2</text>
<g class="stroked-text"><desc>2</desc>
<path d="M7.7144 22.5790
L7.7748 22.5185
" />
<path d="M7.7748 22.5185
L7.8958 22.4580
" />
<path d="M7.8958 22.4580
L8.1982 22.4580
" />
<path d="M8.1982 22.4580
L8.3191 22.5185
" />
<path d="M8.3191 22.5185
L8.3796 22.5790
" />
<path d="M8.3796 22.5790
L8.4401 22.6999
" />
<path d="M8.4401 22.6999
L8.4401 22.8209
" />
<path d="M8.4401 22.8209
L8.3796 23.0023
" />
<path d="M8.3796 23.0023
L7.6539 23.7280
" />
<path d="M7.6539 23.7280
L8.4401 23.7280
" />
</g></g>
<g style="fill:none; 
stroke:#840000; stroke-width:0.1524; stroke-opacity:1; 
stroke-linecap:round; stroke-linejoin:round;">
<path d="M51.2572 24.1455
L56.3372 24.1455
" />
</g>
<g style="fill:none; 
stroke:#006464; stroke-width:0.1524; stroke-opacity:1; 
stroke-linecap:round; stroke-linejoin:round;">
<text x="50.7492" y="24.7805"
textLength="4.0737" font-size="1.6933" lengthAdjust="spacingAndGlyphs"
text-anchor="end" opacity="0" stroke-opacity="0">GND</text>
<g class="stroked-text"><desc>GND</desc>
<path d="M47.7461 23.5155
L47.6251 23.4550
" />
<path d="M47.6251 23.4550
L47.4437 23.4550
" />
<path d="M47.4437 23.4550
L47.2623 23.5155
" />
<path d="M47.2623 23.5155
L47.1413 23.6365
" />
<path d="M47.1413 23.6365
L47.0808 23.7574
" />
<path d="M47.0808 23.7574
L47.0204 23.9993
" />
<path d="M47.0204 23.9993
L47.0204 24.1807
" />
<path d="M47.0204 24.1807
L47.0808 24.4226
" />
<path d="M47.0808 24.4226
L47.1413 24.5436
" />
<path d="M47.1413 24.5436
L47.2623 24.6646
" />
<path d="M47.2623 24.6646
L47.4437 24.7250
" />
<path d="M47.4437 24.7250
L47.5646 24.7250
" />
<path d="M47.5646 24.7250
L47.7461 24.6646
" />
<path d="M47.7461 24.6646
L47.8065 24.6041
" />
<path d="M47.8065 24.6041
L47.8065 24.1807
" />
<path d="M47.8065 24.1807
L47.5646 24.1807
" />
<path d="M48.3508 24.7250
L48.3508 23.4550
" />
<path d="M48.3508 23.4550
L49.0765 24.7250
" />
<path d="M49.0765 24.7250
L49.0765 23.4550
" />
<path d="M49.6813 24.7250
L49.6813 23.4550
" />
<path d="M49.6813 23.4550
L49.9837 23.4550
" />
<path d="M49.9837 23.4550
L50.1651 23.5155
" />
<path d="M50.1651 23.5155
L50.2861 23.6365
" />
<path d="M50.2861 23.6365
L50.3466 23.7574
" />
<path d="M50.3466 23.7574
L50.4070 23.9993
" />
<path d="M50.4070 23.9993
L50.4070 24.1807
" />
<path d="M50.4070 24.1807
L50.3466 24.4226
" />
<path d="M50.3466 24.4226
L50.2861 24.5436
" />
<path d="M50.2861 24.5436
L50.1651 24.6646
" />
<path d="M50.1651 24.6646
L49.9837 24.7250
" />
<path d="M49.9837 24.7250
L49.6813 24.7250
" />
</g></g>
<g style="fill:none; 
stroke:#A90000; stroke-width:0.1524; stroke-opacity:1; 
stroke-linecap:round; stroke-linejoin:round;">
<text x="53.7972" y="23.8915"
textLength="1.4127" font-size="1.6933" lengthAdjust="spacingAndGlyphs"
text-anchor="middle" opacity="0" stroke-opacity="0">3</text>
<g class="stroked-text"><desc>3</desc>
<path d="M53.3739 22.4580
L54.1601 22.4580
" />
<path d="M54.1601 22.4580
L53.7367 22.9418
" />
<path d="M53.7367 22.9418
L53.9182 22.9418
" />
<path d="M53.9182 22.9418
L54.0391 23.0023
" />
<path d="M54.0391 23.0023
L54.0996 23.0628
" />
<path d="M54.0996 23.0628
L54.1601 23.1837
" />
<path d="M54.1601 23.1837
L54.1601 23.4861
" />
<path d="M54.1601 23.4861
L54.0996 23.6071
" />
<path d="M54.0996 23.6071
L54.0391 23.6676
" />
<path d="M54.0391 23.6676
L53.9182 23.7280
" />
<path d="M53.9182 23.7280
L53.5553 23.7280
" />
<path d="M53.5553 23.7280
L53.4344 23.6676
" />
<path d="M53.4344 23.6676
L53.3739 23.6071
" />
</g></g>
<g style="fill:none; 
stroke:#840000; stroke-width:0.1524; stroke-opacity:1; 
stroke-linecap:round; stroke-linejoin:round;">
<path d="M51.2572 26.6855
L56.3372 26.6855
" />
</g>
<g style="fill:none; 
stroke:#006464; stroke-width:0.1524; stroke-opacity:1; 
stroke-linecap:round; stroke-linejoin:round;">
<text x="50.7492" y="27.3205"
textLength="4.0737" font-size="1.6933" lengthAdjust="spacingAndGlyphs"
text-anchor="end" opacity="0" stroke-opacity="0">GND</text>
<g class="stroked-text"><desc>GND</desc>
<path d="M47.7461 26.0555
L47.6251 25.9950
" />
<path d="M47.6251 25.9950
L47.4437 25.9950
" />
<path d="M47.4437 25.9950
L47.2623 26.0555
" />
<path d="M47.2623 26.0555
L47.1413 26.1765
" />
<path d="M47.1413 26.1765
L47.0808 26.2974
" />
<path d="M47.0808 26.2974
L47.0204 26.5393
" />
<path d="M47.0204 26.5393
L47.0204 26.7207
" />
<path d="M47.0204 26.7207
L47.0808 26.9626
" />
<path d="M47.0808 26.9626
L47.1413 27.0836
" />
<path d="M47.1413 27.0836
L47.2623 27.2046
" />
<path d="M47.2623 27.2046
L47.4437 27.2650
" />
<path d="M47.4437 27.2650
L47.5646 27.2650
" />
<path d="M47.5646 27.2650
L47.7461 27.2046
" />
<path d="M47.7461 27.2046
L47.8065 27.1441
" />
<path d="M47.8065 27.1441
L47.8065 26.7207
" />
<path d="M47.8065 26.7207
L47.5646 26.7207
" />
<path d="M48.3508 27.2650
L48.3508 25.9950
" />
<path d="M48.3508 25.9950
L49.0765 27.2650
" />
<path d="M49.0765 27.2650
L49.0765 25.9950
" />
<path d="M49.6813 27.2650
L49.6813 25.9950
" />
<path d="M49.6813 25.9950
L49.9837 25.9950
" />
<path d="M49.9837 25.9950
L50.1651 26.0555
" />
<path d="M50.1651 26.0555
L50.2861 26.1765
" />
<path d="M50.2861 26.1765
L50.3466 26.2974
" />
<path d="M50.3466 26.2974
L50.4070 26.5393
" />
<path d="M50.4070 26.5393
L50.4070 26.7207
" />
<path d="M50.4070 26.7207
L50.3466 26.9626
" />
<path d="M50.3466 26.9626
L50.2861 27.0836
" />
<path d="M50.2861 27.0836
L50.1651 27.2046
" />
<path d="M50.1651 27.2046
L49.9837 27.2650
" />
<path d="M49.9837 27.2650
L49.6813 27.2650
" />
</g></g>
<g style="fill:none; 
stroke:#A90000; stroke-width:0.1524; stroke-opacity:1; 
stroke-linecap:round; stroke-linejoin:round;">
<text x="53.7972" y="26.4315"
textLength="1.4127" font-size="1.6933" lengthAdjust="spacingAndGlyphs"
text-anchor="middle" opacity="0" stroke-opacity="0">4</text>
<g class="stroked-text"><desc>4</desc>
<path d="M54.0391 25.4214
L54.0391 26.2680
" />
<path d="M53.7367 24.9376
L53.4344 25.8447
" />
<path d="M53.4344 25.8447
L54.2205 25.8447
" />
</g></g>
<g style="fill:none; 
stroke:#840000; stroke-width:0.1524; stroke-opacity:1; 
stroke-linecap:round; stroke-linejoin:round;">
<path d="M51.2572 13.9855
L56.3372 13.9855
" />
</g>
<g style="fill:none; 
stroke:#006464; stroke-width:0.1524; stroke-opacity:1; 
stroke-linecap:round; stroke-linejoin:round;">
<text x="50.7492" y="14.6205"
textLength="5.1623" font-size="1.6933" lengthAdjust="spacingAndGlyphs"
text-anchor="end" opacity="0" stroke-opacity="0">OUTN</text>
<g class="stroked-text"><desc>OUTN</desc>
<path d="M46.2341 13.2950
L46.4760 13.2950
" />
<path d="M46.4760 13.2950
L46.5970 13.3555
" />
<path d="M46.5970 13.3555
L46.7179 13.4765
" />
<path d="M46.7179 13.4765
L46.7784 13.7184
" />
<path d="M46.7784 13.7184
L46.7784 14.1417
" />
<path d="M46.7784 14.1417
L46.7179 14.3836
" />
<path d="M46.7179 14.3836
L46.5970 14.5046
" />
<path d="M46.5970 14.5046
L46.4760 14.5650
" />
<path d="M46.4760 14.5650
L46.2341 14.5650
" />
<path d="M46.2341 14.5650
L46.1132 14.5046
" />
<path d="M46.1132 14.5046
L45.9922 14.3836
" />
<path d="M45.9922 14.3836
L45.9318 14.1417
" />
<path d="M45.9318 14.1417
L45.9318 13.7184
" />
<path d="M45.9318 13.7184
L45.9922 13.4765
" />
<path d="M45.9922 13.4765
L46.1132 13.3555
" />
<path d="M46.1132 13.3555
L46.2341 13.2950
" />
<path d="M47.3227 13.2950
L47.3227 14.3231
" />
<path d="M47.3227 14.3231
L47.3832 14.4441
" />
<path d="M47.3832 14.4441
L47.4437 14.5046
" />
<path d="M47.4437 14.5046
L47.5646 14.5650
" />
<path d="M47.5646 14.5650
L47.8065 14.5650
" />
<path d="M47.8065 14.5650
L47.9275 14.5046
" />
<path d="M47.9275 14.5046
L47.9880 14.4441
" />
<path d="M47.9880 14.4441
L48.0484 14.3231
" />
<path d="M48.0484 14.3231
L48.0484 13.2950
" />
<path d="M48.4718 13.2950
L49.1975 13.2950
" />
<path d="M48.8347 14.5650
L48.8347 13.2950
" />
<path d="M49.6208 14.5650
L49.6208 13.2950
" />
<path d="M49.6208 13.2950
L50.3465 14.5650
" />
<path d="M50.3465 14.5650
L50.3465 13.2950
" />
</g></g>
<g style="fill:none; 
stroke:#A90000; stroke-width:0.1524; stroke-opacity:1; 
stroke-linecap:round; stroke-linejoin:round;">
<text x="53.7972" y="13.7315"
textLength="1.4127" font-size="1.6933" lengthAdjust="spacingAndGlyphs"
text-anchor="middle" opacity="0" stroke-opacity="0">5</text>
<g class="stroked-text"><desc>5</desc>
<path d="M54.0996 12.2980
L53.4948 12.2980
" />
<path d="M53.4948 12.2980
L53.4344 12.9028
" />
<path d="M53.4344 12.9028
L53.4948 12.8423
" />
<path d="M53.4948 12.8423
L53.6158 12.7818
" />
<path d="M53.6158 12.7818
L53.9182 12.7818
" />
<path d="M53.9182 12.7818
L54.0391 12.8423
" />
<path d="M54.0391 12.8423
L54.0996 12.9028
" />
<path d="M54.0996 12.9028
L54.1601 13.0237
" />
<path d="M54.1601 13.0237
L54.1601 13.3261
" />
<path d="M54.1601 13.3261
L54.0996 13.4471
" />
<path d="M54.0996 13.4471
L54.0391 13.5076
" />
<path d="M54.0391 13.5076
L53.9182 13.5680
" />
<path d="M53.9182 13.5680
L53.6158 13.5680
" />
<path d="M53.6158 13.5680
L53.4948 13.5076
" />
<path d="M53.4948 13.5076
L53.4344 13.4471
" />
</g></g>
<g style="fill:none; 
stroke:#840000; stroke-width:0.1524; stroke-opacity:1; 
stroke-linecap:round; stroke-linejoin:round;">
<path d="M51.2572 29.2255
L56.3372 29.2255
" />
</g>
<g style="fill:none; 
stroke:#006464; stroke-width:0.1524; stroke-opacity:1; 
stroke-linecap:round; stroke-linejoin:round;">
<text x="50.7492" y="29.8605"
textLength="4.0737" font-size="1.6933" lengthAdjust="spacingAndGlyphs"
text-anchor="end" opacity="0" stroke-opacity="0">GND</text>
<g class="stroked-text"><desc>GND</desc>
<path d="M47.7461 28.5955
L47.6251 28.5350
" />
<path d="M47.6251 28.5350
L47.4437 28.5350
" />
<path d="M47.4437 28.5350
L47.2623 28.5955
" />
<path d="M47.2623 28.5955
L47.1413 28.7165
" />
<path d="M47.1413 28.7165
L47.0808 28.8374
" />
<path d="M47.0808 28.8374
L47.0204 29.0793
" />
<path d="M47.0204 29.0793
L47.0204 29.2607
" />
<path d="M47.0204 29.2607
L47.0808 29.5026
" />
<path d="M47.0808 29.5026
L47.1413 29.6236
" />
<path d="M47.1413 29.6236
L47.2623 29.7446
" />
<path d="M47.2623 29.7446
L47.4437 29.8050
" />
<path d="M47.4437 29.8050
L47.5646 29.8050
" />
<path d="M47.5646 29.8050
L47.7461 29.7446
" />
<path d="M47.7461 29.7446
L47.8065 29.6841
" />
<path d="M47.8065 29.6841
L47.8065 29.2607
" />
<path d="M47.8065 29.2607
L47.5646 29.2607
" />
<path d="M48.3508 29.8050
L48.3508 28.5350
" />
<path d="M48.3508 28.5350
L49.0765 29.8050
" />
<path d="M49.0765 29.8050
L49.0765 28.5350
" />
<path d="M49.6813 29.8050
L49.6813 28.5350
" />
<path d="M49.6813 28.5350
L49.9837 28.5350
" />
<path d="M49.9837 28.5350
L50.1651 28.5955
" />
<path d="M50.1651 28.5955
L50.2861 28.7165
" />
<path d="M50.2861 28.7165
L50.3466 28.8374
" />
<path d="M50.3466 28.8374
L50.4070 29.0793
" />
<path d="M50.4070 29.0793
L50.4070 29.2607
" />
<path d="M50.4070 29.2607
L50.3466 29.5026
" />
<path d="M50.3466 29.5026
L50.2861 29.6236
" />
<path d="M50.2861 29.6236
L50.1651 29.7446
" />
<path d="M50.1651 29.7446
L49.9837 29.8050
" />
<path d="M49.9837 29.8050
L49.6813 29.8050
" />
</g></g>
<g style="fill:none; 
stroke:#A90000; stroke-width:0.1524; stroke-opacity:1; 
stroke-linecap:round; stroke-linejoin:round;">
<text x="53.7972" y="28.9715"
textLength="1.4127" font-size="1.6933" lengthAdjust="spacingAndGlyphs"
text-anchor="middle" opacity="0" stroke-opacity="0">6</text>
<g class="stroked-text"><desc>6</desc>
<path d="M54.0391 27.5380
L53.7972 27.5380
" />
<path d="M53.7972 27.5380
L53.6763 27.5985
" />
<path d="M53.6763 27.5985
L53.6158 27.6590
" />
<path d="M53.6158 27.6590
L53.4948 27.8404
" />
<path d="M53.4948 27.8404
L53.4344 28.0823
" />
<path d="M53.4344 28.0823
L53.4344 28.5661
" />
<path d="M53.4344 28.5661
L53.4948 28.6871
" />
<path d="M53.4948 28.6871
L53.5553 28.7476
" />
<path d="M53.5553 28.7476
L53.6763 28.8080
" />
<path d="M53.6763 28.8080
L53.9182 28.8080
" />
<path d="M53.9182 28.8080
L54.0391 28.7476
" />
<path d="M54.0391 28.7476
L54.0996 28.6871
" />
<path d="M54.0996 28.6871
L54.1601 28.5661
" />
<path d="M54.1601 28.5661
L54.1601 28.2637
" />
<path d="M54.1601 28.2637
L54.0996 28.1428
" />
<path d="M54.0996 28.1428
L54.0391 28.0823
" />
<path d="M54.0391 28.0823
L53.9182 28.0218
" />
<path d="M53.9182 28.0218
L53.6763 28.0218
" />
<path d="M53.6763 28.0218
L53.5553 28.0823
" />
<path d="M53.5553 28.0823
L53.4948 28.1428
" />
<path d="M53.4948 28.1428
L53.4344 28.2637
" />
</g></g>
<g style="fill:none; 
stroke:#840000; stroke-width:0.1524; stroke-opacity:1; 
stroke-linecap:round; stroke-linejoin:round;">
<path d="M51.2572 31.7655
L56.3372 31.7655
" />
</g>
<g style="fill:none; 
stroke:#006464; stroke-width:0.1524; stroke-opacity:1; 
stroke-linecap:round; stroke-linejoin:round;">
<text x="50.7492" y="32.4005"
textLength="4.0737" font-size="1.6933" lengthAdjust="spacingAndGlyphs"
text-anchor="end" opacity="0" stroke-opacity="0">GND</text>
<g class="stroked-text"><desc>GND</desc>
<path d="M47.7461 31.1355
L47.6251 31.0750
" />
<path d="M47.6251 31.0750
L47.4437 31.0750
" />
<path d="M47.4437 31.0750
L47.2623 31.1355
" />
<path d="M47.2623 31.1355
L47.1413 31.2565
" />
<path d="M47.1413 31.2565
L47.0808 31.3774
" />
<path d="M47.0808 31.3774
L47.0204 31.6193
" />
<path d="M47.0204 31.6193
L47.0204 31.8007
" />
<path d="M47.0204 31.8007
L47.0808 32.0426
" />
<path d="M47.0808 32.0426
L47.1413 32.1636
" />
<path d="M47.1413 32.1636
L47.2623 32.2846
" />
<path d="M47.2623 32.2846
L47.4437 32.3450
" />
<path d="M47.4437 32.3450
L47.5646 32.3450
" />
<path d="M47.5646 32.3450
L47.7461 32.2846
" />
<path d="M47.7461 32.2846
L47.8065 32.2241
" />
<path d="M47.8065 32.2241
L47.8065 31.8007
" />
<path d="M47.8065 31.8007
L47.5646 31.8007
" />
<path d="M48.3508 32.3450
L48.3508 31.0750
" />
<path d="M48.3508 31.0750
L49.0765 32.3450
" />
<path d="M49.0765 32.3450
L49.0765 31.0750
" />
<path d="M49.6813 32.3450
L49.6813 31.0750
" />
<path d="M49.6813 31.0750
L49.9837 31.0750
" />
<path d="M49.9837 31.0750
L50.1651 31.1355
" />
<path d="M50.1651 31.1355
L50.2861 31.2565
" />
<path d="M50.2861 31.2565
L50.3466 31.3774
" />
<path d="M50.3466 31.3774
L50.4070 31.6193
" />
<path d="M50.4070 31.6193
L50.4070 31.8007
" />
<path d="M50.4070 31.8007
L50.3466 32.0426
" />
<path d="M50.3466 32.0426
L50.2861 32.1636
" />
<path d="M50.2861 32.1636
L50.1651 32.2846
" />
<path d="M50.1651 32.2846
L49.9837 32.3450
" />
<path d="M49.9837 32.3450
L49.6813 32.3450
" />
</g></g>
<g style="fill:none; 
stroke:#A90000; stroke-width:0.1524; stroke-opacity:1; 
stroke-linecap:round; stroke-linejoin:round;">
<text x="53.7972" y="31.5115"
textLength="1.4127" font-size="1.6933" lengthAdjust="spacingAndGlyphs"
text-anchor="middle" opacity="0" stroke-opacity="0">7</text>
<g class="stroked-text"><desc>7</desc>
<path d="M53.3739 30.0780
L54.2205 30.0780
" />
<path d="M54.2205 30.0780
L53.6763 31.3480
" />
</g></g>
<g style="fill:none; 
stroke:#840000; stroke-width:0.1524; stroke-opacity:1; 
stroke-linecap:round; stroke-linejoin:round;">
<path d="M51.2572 8.9055
L56.3372 8.9055
" />
</g>
<g style="fill:none; 
stroke:#006464; stroke-width:0.1524; stroke-opacity:1; 
stroke-linecap:round; stroke-linejoin:round;">
<text x="50.7492" y="9.5405"
textLength="3.8318" font-size="1.6933" lengthAdjust="spacingAndGlyphs"
text-anchor="end" opacity="0" stroke-opacity="0">OUT</text>
<g class="stroked-text"><desc>OUT</desc>
<path d="M47.5646 8.2150
L47.8065 8.2150
" />
<path d="M47.8065 8.2150
L47.9275 8.2755
" />
<path d="M47.9275 8.2755
L48.0484 8.3965
" />
<path d="M48.0484 8.3965
L48.1089 8.6384
" />
<path d="M48.1089 8.6384
L48.1089 9.0617
" />
<path d="M48.1089 9.0617
L48.0484 9.3036
" />
<path d="M48.0484 9.3036
L47.9275 9.4246
" />
<path d="M47.9275 9.4246
L47.8065 9.4850
" />
<path d="M47.8065 9.4850
L47.5646 9.4850
" />
<path d="M47.5646 9.4850
L47.4437 9.4246
" />
<path d="M47.4437 9.4246
L47.3227 9.3036
" />
<path d="M47.3227 9.3036
L47.2623 9.0617
" />
<path d="M47.2623 9.0617
L47.2623 8.6384
" />
<path d="M47.2623 8.6384
L47.3227 8.3965
" />
<path d="M47.3227 8.3965
L47.4437 8.2755
" />
<path d="M47.4437 8.2755
L47.5646 8.2150
" />
<path d="M48.6532 8.2150
L48.6532 9.2431
" />
<path d="M48.6532 9.2431
L48.7137 9.3641
" />
<path d="M48.7137 9.3641
L48.7742 9.4246
" />
<path d="M48.7742 9.4246
L48.8951 9.4850
" />
<path d="M48.8951 9.4850
L49.1370 9.4850
" />
<path d="M49.1370 9.4850
L49.2580 9.4246
" />
<path d="M49.2580 9.4246
L49.3185 9.3641
" />
<path d="M49.3185 9.3641
L49.3789 9.2431
" />
<path d="M49.3789 9.2431
L49.3789 8.2150
" />
<path d="M49.8023 8.2150
L50.5280 8.2150
" />
<path d="M50.1652 9.4850
L50.1652 8.2150
" />
</g></g>
<g style="fill:none; 
stroke:#A90000; stroke-width:0.1524; stroke-opacity:1; 
stroke-linecap:round; stroke-linejoin:round;">
<text x="53.7972" y="8.6515"
textLength="1.4127" font-size="1.6933" lengthAdjust="spacingAndGlyphs"
text-anchor="middle" opacity="0" stroke-opacity="0">8</text>
<g class="stroked-text"><desc>8</desc>
<path d="M53.6763 7.7623
L53.5553 7.7018
" />
<path d="M53.5553 7.7018
L53.4948 7.6414
" />
<path d="M53.4948 7.6414
L53.4344 7.5204
" />
<path d="M53.4344 7.5204
L53.4344 7.4599
" />
<path d="M53.4344 7.4599
L53.4948 7.3390
" />
<path d="M53.4948 7.3390
L53.5553 7.2785
" />
<path d="M53.5553 7.2785
L53.6763 7.2180
" />
<path d="M53.6763 7.2180
L53.9182 7.2180
" />
<path d="M53.9182 7.2180
L54.0391 7.2785
" />
<path d="M54.0391 7.2785
L54.0996 7.3390
" />
<path d="M54.0996 7.3390
L54.1601 7.4599
" />
<path d="M54.1601 7.4599
L54.1601 7.5204
" />
<path d="M54.1601 7.5204
L54.0996 7.6414
" />
<path d="M54.0996 7.6414
L54.0391 7.7018
" />
<path d="M54.0391 7.7018
L53.9182 7.7623
" />
<path d="M53.9182 7.7623
L53.6763 7.7623
" />
<path d="M53.6763 7.7623
L53.5553 7.8228
" />
<path d="M53.5553 7.8228
L53.4948 7.8833
" />
<path d="M53.4948 7.8833
L53.4344 8.0042
" />
<path d="M53.4344 8.0042
L53.4344 8.2461
" />
<path d="M53.4344 8.2461
L53.4948 8.3671
" />
<path d="M53.4948 8.3671
L53.5553 8.4276
" />
<path d="M53.5553 8.4276
L53.6763 8.4880
" />
<path d="M53.6763 8.4880
L53.9182 8.4880
" />
<path d="M53.9182 8.4880
L54.0391 8.4276
" />
<path d="M54.0391 8.4276
L54.0996 8.3671
" />
<path d="M54.0996 8.3671
L54.1601 8.2461
" />
<path d="M54.1601 8.2461
L54.1601 8.0042
" />
<path d="M54.1601 8.0042
L54.0996 7.8833
" />
<path d="M54.0996 7.8833
L54.0391 7.8228
" />
<path d="M54.0391 7.8228
L53.9182 7.7623
" />
</g></g>
<g style="fill:none; 
stroke:#840000; stroke-width:0.1524; stroke-opacity:1; 
stroke-linecap:round; stroke-linejoin:round;">
<path d="M10.6172 8.9055
L5.5372 8.9055
" />
</g>
<g style="fill:none; 
stroke:#006464; stroke-width:0.1524; stroke-opacity:1; 
stroke-linecap:round; stroke-linejoin:round;">
<text x="11.1252" y="9.5405"
textLength="4.0737" font-size="1.6933" lengthAdjust="spacingAndGlyphs"
text-anchor="start" opacity="0" stroke-opacity="0">VS+</text>
<g class="stroked-text"><desc>VS+</desc>
<path d="M11.3463 8.2150
L11.7696 9.4850
" />
<path d="M11.7696 9.4850
L12.1930 8.2150
" />
<path d="M12.5559 9.4246
L12.7373 9.4850
" />
<path d="M12.7373 9.4850
L13.0397 9.4850
" />
<path d="M13.0397 9.4850
L13.1606 9.4246
" />
<path d="M13.1606 9.4246
L13.2211 9.3641
" />
<path d="M13.2211 9.3641
L13.2816 9.2431
" />
<path d="M13.2816 9.2431
L13.2816 9.1222
" />
<path d="M13.2816 9.1222
L13.2211 9.0012
" />
<path d="M13.2211 9.0012
L13.1606 8.9407
" />
<path d="M13.1606 8.9407
L13.0397 8.8803
" />
<path d="M13.0397 8.8803
L12.7978 8.8198
" />
<path d="M12.7978 8.8198
L12.6768 8.7593
" />
<path d="M12.6768 8.7593
L12.6163 8.6988
" />
<path d="M12.6163 8.6988
L12.5559 8.5779
" />
<path d="M12.5559 8.5779
L12.5559 8.4569
" />
<path d="M12.5559 8.4569
L12.6163 8.3360
" />
<path d="M12.6163 8.3360
L12.6768 8.2755
" />
<path d="M12.6768 8.2755
L12.7978 8.2150
" />
<path d="M12.7978 8.2150
L13.1001 8.2150
" />
<path d="M13.1001 8.2150
L13.2816 8.2755
" />
<path d="M13.8258 9.0012
L14.7935 9.0012
" />
<path d="M14.3096 9.4850
L14.3096 8.5174
" />
</g></g>
<g style="fill:none; 
stroke:#A90000; stroke-width:0.1524; stroke-opacity:1; 
stroke-linecap:round; stroke-linejoin:round;">
<text x="8.0772" y="8.6515"
textLength="1.4127" font-size="1.6933" lengthAdjust="spacingAndGlyphs"
text-anchor="middle" opacity="0" stroke-opacity="0">9</text>
<g class="stroked-text"><desc>9</desc>
<path d="M7.8353 8.4880
L8.0772 8.4880
" />
<path d="M8.0772 8.4880
L8.1982 8.4276
" />
<path d="M8.1982 8.4276
L8.2586 8.3671
" />
<path d="M8.2586 8.3671
L8.3796 8.1856
" />
<path d="M8.3796 8.1856
L8.4401 7.9437
" />
<path d="M8.4401 7.9437
L8.4401 7.4599
" />
<path d="M8.4401 7.4599
L8.3796 7.3390
" />
<path d="M8.3796 7.3390
L8.3191 7.2785
" />
<path d="M8.3191 7.2785
L8.1982 7.2180
" />
<path d="M8.1982 7.2180
L7.9563 7.2180
" />
<path d="M7.9563 7.2180
L7.8353 7.2785
" />
<path d="M7.8353 7.2785
L7.7748 7.3390
" />
<path d="M7.7748 7.3390
L7.7144 7.4599
" />
<path d="M7.7144 7.4599
L7.7144 7.7623
" />
<path d="M7.7144 7.7623
L7.7748 7.8833
" />
<path d="M7.7748 7.8833
L7.8353 7.9437
" />
<path d="M7.8353 7.9437
L7.9563 8.0042
" />
<path d="M7.9563 8.0042
L8.1982 8.0042
" />
<path d="M8.1982 8.0042
L8.3191 7.9437
" />
<path d="M8.3191 7.9437
L8.3796 7.8833
" />
<path d="M8.3796 7.8833
L8.4401 7.7623
" />
</g></g>
<g style="fill:none; 
stroke:#840000; stroke-width:0.1524; stroke-opacity:1; 
stroke-linecap:round; stroke-linejoin:round;">
<path d="M10.6172 11.4455
L5.5372 11.4455
" />
</g>
<g style="fill:none; 
stroke:#006464; stroke-width:0.1524; stroke-opacity:1; 
stroke-linecap:round; stroke-linejoin:round;">
<text x="11.1252" y="12.0805"
textLength="4.0737" font-size="1.6933" lengthAdjust="spacingAndGlyphs"
text-anchor="start" opacity="0" stroke-opacity="0">VS+</text>
<g class="stroked-text"><desc>VS+</desc>
<path d="M11.3463 10.7550
L11.7696 12.0250
" />
<path d="M11.7696 12.0250
L12.1930 10.7550
" />
<path d="M12.5559 11.9646
L12.7373 12.0250
" />
<path d="M12.7373 12.0250
L13.0397 12.0250
" />
<path d="M13.0397 12.0250
L13.1606 11.9646
" />
<path d="M13.1606 11.9646
L13.2211 11.9041
" />
<path d="M13.2211 11.9041
L13.2816 11.7831
" />
<path d="M13.2816 11.7831
L13.2816 11.6622
" />
<path d="M13.2816 11.6622
L13.2211 11.5412
" />
<path d="M13.2211 11.5412
L13.1606 11.4807
" />
<path d="M13.1606 11.4807
L13.0397 11.4203
" />
<path d="M13.0397 11.4203
L12.7978 11.3598
" />
<path d="M12.7978 11.3598
L12.6768 11.2993
" />
<path d="M12.6768 11.2993
L12.6163 11.2388
" />
<path d="M12.6163 11.2388
L12.5559 11.1179
" />
<path d="M12.5559 11.1179
L12.5559 10.9969
" />
<path d="M12.5559 10.9969
L12.6163 10.8760
" />
<path d="M12.6163 10.8760
L12.6768 10.8155
" />
<path d="M12.6768 10.8155
L12.7978 10.7550
" />
<path d="M12.7978 10.7550
L13.1001 10.7550
" />
<path d="M13.1001 10.7550
L13.2816 10.8155
" />
<path d="M13.8258 11.5412
L14.7935 11.5412
" />
<path d="M14.3096 12.0250
L14.3096 11.0574
" />
</g></g>
<g style="fill:none; 
stroke:#A90000; stroke-width:0.1524; stroke-opacity:1; 
stroke-linecap:round; stroke-linejoin:round;">
<text x="8.0772" y="11.1915"
textLength="2.6222" font-size="1.6933" lengthAdjust="spacingAndGlyphs"
text-anchor="middle" opacity="0" stroke-opacity="0">10</text>
<g class="stroked-text"><desc>10</desc>
<path d="M7.8353 11.0280
L7.1096 11.0280
" />
<path d="M7.4724 11.0280
L7.4724 9.7580
" />
<path d="M7.4724 9.7580
L7.3515 9.9395
" />
<path d="M7.3515 9.9395
L7.2305 10.0604
" />
<path d="M7.2305 10.0604
L7.1096 10.1209
" />
<path d="M8.6214 9.7580
L8.7424 9.7580
" />
<path d="M8.7424 9.7580
L8.8633 9.8185
" />
<path d="M8.8633 9.8185
L8.9238 9.8790
" />
<path d="M8.9238 9.8790
L8.9843 9.9999
" />
<path d="M8.9843 9.9999
L9.0448 10.2418
" />
<path d="M9.0448 10.2418
L9.0448 10.5442
" />
<path d="M9.0448 10.5442
L8.9843 10.7861
" />
<path d="M8.9843 10.7861
L8.9238 10.9071
" />
<path d="M8.9238 10.9071
L8.8633 10.9676
" />
<path d="M8.8633 10.9676
L8.7424 11.0280
" />
<path d="M8.7424 11.0280
L8.6214 11.0280
" />
<path d="M8.6214 11.0280
L8.5005 10.9676
" />
<path d="M8.5005 10.9676
L8.4400 10.9071
" />
<path d="M8.4400 10.9071
L8.3795 10.7861
" />
<path d="M8.3795 10.7861
L8.3191 10.5442
" />
<path d="M8.3191 10.5442
L8.3191 10.2418
" />
<path d="M8.3191 10.2418
L8.3795 9.9999
" />
<path d="M8.3795 9.9999
L8.4400 9.8790
" />
<path d="M8.4400 9.8790
L8.5005 9.8185
" />
<path d="M8.5005 9.8185
L8.6214 9.7580
" />
</g></g>
<g style="fill:none; 
stroke:#840000; stroke-width:0.1524; stroke-opacity:1; 
stroke-linecap:round; stroke-linejoin:round;">
<path d="M10.6172 13.9855
L5.5372 13.9855
" />
</g>
<g style="fill:none; 
stroke:#006464; stroke-width:0.1524; stroke-opacity:1; 
stroke-linecap:round; stroke-linejoin:round;">
<text x="11.1252" y="14.6205"
textLength="4.0737" font-size="1.6933" lengthAdjust="spacingAndGlyphs"
text-anchor="start" opacity="0" stroke-opacity="0">VS+</text>
<g class="stroked-text"><desc>VS+</desc>
<path d="M11.3463 13.2950
L11.7696 14.5650
" />
<path d="M11.7696 14.5650
L12.1930 13.2950
" />
<path d="M12.5559 14.5046
L12.7373 14.5650
" />
<path d="M12.7373 14.5650
L13.0397 14.5650
" />
<path d="M13.0397 14.5650
L13.1606 14.5046
" />
<path d="M13.1606 14.5046
L13.2211 14.4441
" />
<path d="M13.2211 14.4441
L13.2816 14.3231
" />
<path d="M13.2816 14.3231
L13.2816 14.2022
" />
<path d="M13.2816 14.2022
L13.2211 14.0812
" />
<path d="M13.2211 14.0812
L13.1606 14.0207
" />
<path d="M13.1606 14.0207
L13.0397 13.9603
" />
<path d="M13.0397 13.9603
L12.7978 13.8998
" />
<path d="M12.7978 13.8998
L12.6768 13.8393
" />
<path d="M12.6768 13.8393
L12.6163 13.7788
" />
<path d="M12.6163 13.7788
L12.5559 13.6579
" />
<path d="M12.5559 13.6579
L12.5559 13.5369
" />
<path d="M12.5559 13.5369
L12.6163 13.4160
" />
<path d="M12.6163 13.4160
L12.6768 13.3555
" />
<path d="M12.6768 13.3555
L12.7978 13.2950
" />
<path d="M12.7978 13.2950
L13.1001 13.2950
" />
<path d="M13.1001 13.2950
L13.2816 13.3555
" />
<path d="M13.8258 14.0812
L14.7935 14.0812
" />
<path d="M14.3096 14.5650
L14.3096 13.5974
" />
</g></g>
<g style="fill:none; 
stroke:#A90000; stroke-width:0.1524; stroke-opacity:1; 
stroke-linecap:round; stroke-linejoin:round;">
<text x="8.0772" y="13.7315"
textLength="2.6222" font-size="1.6933" lengthAdjust="spacingAndGlyphs"
text-anchor="middle" opacity="0" stroke-opacity="0">11</text>
<g class="stroked-text"><desc>11</desc>
<path d="M7.8353 13.5680
L7.1096 13.5680
" />
<path d="M7.4724 13.5680
L7.4724 12.2980
" />
<path d="M7.4724 12.2980
L7.3515 12.4795
" />
<path d="M7.3515 12.4795
L7.2305 12.6004
" />
<path d="M7.2305 12.6004
L7.1096 12.6609
" />
<path d="M9.0448 13.5680
L8.3191 13.5680
" />
<path d="M8.6819 13.5680
L8.6819 12.2980
" />
<path d="M8.6819 12.2980
L8.5610 12.4795
" />
<path d="M8.5610 12.4795
L8.4400 12.6004
" />
<path d="M8.4400 12.6004
L8.3191 12.6609
" />
</g></g>
<g style="fill:none; 
stroke:#840000; stroke-width:0.1524; stroke-opacity:1; 
stroke-linecap:round; stroke-linejoin:round;">
<path d="M51.2572 34.3055
L56.3372 34.3055
" />
</g>
<g style="fill:none; 
stroke:#006464; stroke-width:0.1524; stroke-opacity:1; 
stroke-linecap:round; stroke-linejoin:round;">
<text x="50.7492" y="34.9405"
textLength="4.0737" font-size="1.6933" lengthAdjust="spacingAndGlyphs"
text-anchor="end" opacity="0" stroke-opacity="0">GND</text>
<g class="stroked-text"><desc>GND</desc>
<path d="M47.7461 33.6755
L47.6251 33.6150
" />
<path d="M47.6251 33.6150
L47.4437 33.6150
" />
<path d="M47.4437 33.6150
L47.2623 33.6755
" />
<path d="M47.2623 33.6755
L47.1413 33.7965
" />
<path d="M47.1413 33.7965
L47.0808 33.9174
" />
<path d="M47.0808 33.9174
L47.0204 34.1593
" />
<path d="M47.0204 34.1593
L47.0204 34.3407
" />
<path d="M47.0204 34.3407
L47.0808 34.5826
" />
<path d="M47.0808 34.5826
L47.1413 34.7036
" />
<path d="M47.1413 34.7036
L47.2623 34.8246
" />
<path d="M47.2623 34.8246
L47.4437 34.8850
" />
<path d="M47.4437 34.8850
L47.5646 34.8850
" />
<path d="M47.5646 34.8850
L47.7461 34.8246
" />
<path d="M47.7461 34.8246
L47.8065 34.7641
" />
<path d="M47.8065 34.7641
L47.8065 34.3407
" />
<path d="M47.8065 34.3407
L47.5646 34.3407
" />
<path d="M48.3508 34.8850
L48.3508 33.6150
" />
<path d="M48.3508 33.6150
L49.0765 34.8850
" />
<path d="M49.0765 34.8850
L49.0765 33.6150
" />
<path d="M49.6813 34.8850
L49.6813 33.6150
" />
<path d="M49.6813 33.6150
L49.9837 33.6150
" />
<path d="M49.9837 33.6150
L50.1651 33.6755
" />
<path d="M50.1651 33.6755
L50.2861 33.7965
" />
<path d="M50.2861 33.7965
L50.3466 33.9174
" />
<path d="M50.3466 33.9174
L50.4070 34.1593
" />
<path d="M50.4070 34.1593
L50.4070 34.3407
" />
<path d="M50.4070 34.3407
L50.3466 34.5826
" />
<path d="M50.3466 34.5826
L50.2861 34.7036
" />
<path d="M50.2861 34.7036
L50.1651 34.8246
" />
<path d="M50.1651 34.8246
L49.9837 34.8850
" />
<path d="M49.9837 34.8850
L49.6813 34.8850
" />
</g></g>
<g style="fill:none; 
stroke:#A90000; stroke-width:0.1524; stroke-opacity:1; 
stroke-linecap:round; stroke-linejoin:round;">
<text x="53.7972" y="34.0515"
textLength="2.6222" font-size="1.6933" lengthAdjust="spacingAndGlyphs"
text-anchor="middle" opacity="0" stroke-opacity="0">12</text>
<g class="stroked-text"><desc>12</desc>
<path d="M53.5553 33.8880
L52.8296 33.8880
" />
<path d="M53.1924 33.8880
L53.1924 32.6180
" />
<path d="M53.1924 32.6180
L53.0715 32.7995
" />
<path d="M53.0715 32.7995
L52.9505 32.9204
" />
<path d="M52.9505 32.9204
L52.8296 32.9809
" />
<path d="M54.0391 32.7390
L54.0995 32.6785
" />
<path d="M54.0995 32.6785
L54.2205 32.6180
" />
<path d="M54.2205 32.6180
L54.5229 32.6180
" />
<path d="M54.5229 32.6180
L54.6438 32.6785
" />
<path d="M54.6438 32.6785
L54.7043 32.7390
" />
<path d="M54.7043 32.7390
L54.7648 32.8599
" />
<path d="M54.7648 32.8599
L54.7648 32.9809
" />
<path d="M54.7648 32.9809
L54.7043 33.1623
" />
<path d="M54.7043 33.1623
L53.9786 33.8880
" />
<path d="M53.9786 33.8880
L54.7648 33.8880
" />
</g></g>
<g style="fill:none; 
stroke:#840000; stroke-width:0.1524; stroke-opacity:1; 
stroke-linecap:round; stroke-linejoin:round;">
<path d="M10.6172 39.3855
L5.5372 39.3855
" />
</g>
<g style="fill:none; 
stroke:#006464; stroke-width:0.1524; stroke-opacity:1; 
stroke-linecap:round; stroke-linejoin:round;">
<text x="11.1252" y="40.0205"
textLength="12.7821" font-size="1.6933" lengthAdjust="spacingAndGlyphs"
text-anchor="start" opacity="0" stroke-opacity="0">TEST_SD_GND</text>
<g class="stroked-text"><desc>TEST_SD_GND</desc>
<path d="M11.3463 38.6950
L12.0720 38.6950
" />
<path d="M11.7092 39.9650
L11.7092 38.6950
" />
<path d="M12.4953 39.2998
L12.9187 39.2998
" />
<path d="M13.1001 39.9650
L12.4953 39.9650
" />
<path d="M12.4953 39.9650
L12.4953 38.6950
" />
<path d="M12.4953 38.6950
L13.1001 38.6950
" />
<path d="M13.5839 39.9046
L13.7653 39.9650
" />
<path d="M13.7653 39.9650
L14.0677 39.9650
" />
<path d="M14.0677 39.9650
L14.1886 39.9046
" />
<path d="M14.1886 39.9046
L14.2491 39.8441
" />
<path d="M14.2491 39.8441
L14.3096 39.7231
" />
<path d="M14.3096 39.7231
L14.3096 39.6022
" />
<path d="M14.3096 39.6022
L14.2491 39.4812
" />
<path d="M14.2491 39.4812
L14.1886 39.4207
" />
<path d="M14.1886 39.4207
L14.0677 39.3603
" />
<path d="M14.0677 39.3603
L13.8258 39.2998
" />
<path d="M13.8258 39.2998
L13.7048 39.2393
" />
<path d="M13.7048 39.2393
L13.6443 39.1788
" />
<path d="M13.6443 39.1788
L13.5839 39.0579
" />
<path d="M13.5839 39.0579
L13.5839 38.9369
" />
<path d="M13.5839 38.9369
L13.6443 38.8160
" />
<path d="M13.6443 38.8160
L13.7048 38.7555
" />
<path d="M13.7048 38.7555
L13.8258 38.6950
" />
<path d="M13.8258 38.6950
L14.1281 38.6950
" />
<path d="M14.1281 38.6950
L14.3096 38.7555
" />
<path d="M14.6724 38.6950
L15.3981 38.6950
" />
<path d="M15.0353 39.9650
L15.0353 38.6950
" />
<path d="M15.5191 40.0860
L16.4867 40.0860
" />
<path d="M16.7286 39.9046
L16.9100 39.9650
" />
<path d="M16.9100 39.9650
L17.2124 39.9650
" />
<path d="M17.2124 39.9650
L17.3333 39.9046
" />
<path d="M17.3333 39.9046
L17.3938 39.8441
" />
<path d="M17.3938 39.8441
L17.4543 39.7231
" />
<path d="M17.4543 39.7231
L17.4543 39.6022
" />
<path d="M17.4543 39.6022
L17.3938 39.4812
" />
<path d="M17.3938 39.4812
L17.3333 39.4207
" />
<path d="M17.3333 39.4207
L17.2124 39.3603
" />
<path d="M17.2124 39.3603
L16.9705 39.2998
" />
<path d="M16.9705 39.2998
L16.8495 39.2393
" />
<path d="M16.8495 39.2393
L16.7890 39.1788
" />
<path d="M16.7890 39.1788
L16.7286 39.0579
" />
<path d="M16.7286 39.0579
L16.7286 38.9369
" />
<path d="M16.7286 38.9369
L16.7890 38.8160
" />
<path d="M16.7890 38.8160
L16.8495 38.7555
" />
<path d="M16.8495 38.7555
L16.9705 38.6950
" />
<path d="M16.9705 38.6950
L17.2728 38.6950
" />
<path d="M17.2728 38.6950
L17.4543 38.7555
" />
<path d="M17.9985 39.9650
L17.9985 38.6950
" />
<path d="M17.9985 38.6950
L18.3009 38.6950
" />
<path d="M18.3009 38.6950
L18.4823 38.7555
" />
<path d="M18.4823 38.7555
L18.6033 38.8765
" />
<path d="M18.6033 38.8765
L18.6638 38.9974
" />
<path d="M18.6638 38.9974
L18.7242 39.2393
" />
<path d="M18.7242 39.2393
L18.7242 39.4207
" />
<path d="M18.7242 39.4207
L18.6638 39.6626
" />
<path d="M18.6638 39.6626
L18.6033 39.7836
" />
<path d="M18.6033 39.7836
L18.4823 39.9046
" />
<path d="M18.4823 39.9046
L18.3009 39.9650
" />
<path d="M18.3009 39.9650
L17.9985 39.9650
" />
<path d="M18.9662 40.0860
L19.9338 40.0860
" />
<path d="M20.9014 38.7555
L20.7804 38.6950
" />
<path d="M20.7804 38.6950
L20.5990 38.6950
" />
<path d="M20.5990 38.6950
L20.4176 38.7555
" />
<path d="M20.4176 38.7555
L20.2966 38.8765
" />
<path d="M20.2966 38.8765
L20.2361 38.9974
" />
<path d="M20.2361 38.9974
L20.1757 39.2393
" />
<path d="M20.1757 39.2393
L20.1757 39.4207
" />
<path d="M20.1757 39.4207
L20.2361 39.6626
" />
<path d="M20.2361 39.6626
L20.2966 39.7836
" />
<path d="M20.2966 39.7836
L20.4176 39.9046
" />
<path d="M20.4176 39.9046
L20.5990 39.9650
" />
<path d="M20.5990 39.9650
L20.7199 39.9650
" />
<path d="M20.7199 39.9650
L20.9014 39.9046
" />
<path d="M20.9014 39.9046
L20.9618 39.8441
" />
<path d="M20.9618 39.8441
L20.9618 39.4207
" />
<path d="M20.9618 39.4207
L20.7199 39.4207
" />
<path d="M21.5061 39.9650
L21.5061 38.6950
" />
<path d="M21.5061 38.6950
L22.2318 39.9650
" />
<path d="M22.2318 39.9650
L22.2318 38.6950
" />
<path d="M22.8366 39.9650
L22.8366 38.6950
" />
<path d="M22.8366 38.6950
L23.1390 38.6950
" />
<path d="M23.1390 38.6950
L23.3204 38.7555
" />
<path d="M23.3204 38.7555
L23.4414 38.8765
" />
<path d="M23.4414 38.8765
L23.5019 38.9974
" />
<path d="M23.5019 38.9974
L23.5623 39.2393
" />
<path d="M23.5623 39.2393
L23.5623 39.4207
" />
<path d="M23.5623 39.4207
L23.5019 39.6626
" />
<path d="M23.5019 39.6626
L23.4414 39.7836
" />
<path d="M23.4414 39.7836
L23.3204 39.9046
" />
<path d="M23.3204 39.9046
L23.1390 39.9650
" />
<path d="M23.1390 39.9650
L22.8366 39.9650
" />
</g></g>
<g style="fill:none; 
stroke:#A90000; stroke-width:0.1524; stroke-opacity:1; 
stroke-linecap:round; stroke-linejoin:round;">
<text x="8.0772" y="39.1315"
textLength="2.6222" font-size="1.6933" lengthAdjust="spacingAndGlyphs"
text-anchor="middle" opacity="0" stroke-opacity="0">13</text>
<g class="stroked-text"><desc>13</desc>
<path d="M7.8353 38.9680
L7.1096 38.9680
" />
<path d="M7.4724 38.9680
L7.4724 37.6980
" />
<path d="M7.4724 37.6980
L7.3515 37.8795
" />
<path d="M7.3515 37.8795
L7.2305 38.0004
" />
<path d="M7.2305 38.0004
L7.1096 38.0609
" />
<path d="M8.2586 37.6980
L9.0448 37.6980
" />
<path d="M9.0448 37.6980
L8.6214 38.1818
" />
<path d="M8.6214 38.1818
L8.8029 38.1818
" />
<path d="M8.8029 38.1818
L8.9238 38.2423
" />
<path d="M8.9238 38.2423
L8.9843 38.3028
" />
<path d="M8.9843 38.3028
L9.0448 38.4237
" />
<path d="M9.0448 38.4237
L9.0448 38.7261
" />
<path d="M9.0448 38.7261
L8.9843 38.8471
" />
<path d="M8.9843 38.8471
L8.9238 38.9076
" />
<path d="M8.9238 38.9076
L8.8029 38.9680
" />
<path d="M8.8029 38.9680
L8.4400 38.9680
" />
<path d="M8.4400 38.9680
L8.3191 38.9076
" />
<path d="M8.3191 38.9076
L8.2586 38.8471
" />
</g></g>
<g style="fill:none; 
stroke:#840000; stroke-width:0.1524; stroke-opacity:1; 
stroke-linecap:round; stroke-linejoin:round;">
<path d="M10.6172 34.3055
L5.5372 34.3055
" />
</g>
<g style="fill:none; 
stroke:#006464; stroke-width:0.1524; stroke-opacity:1; 
stroke-linecap:round; stroke-linejoin:round;">
<text x="11.1252" y="34.9405"
textLength="12.2379" font-size="1.6933" lengthAdjust="spacingAndGlyphs"
text-anchor="start" opacity="0" stroke-opacity="0">TEST_IN_VS+</text>
<g class="stroked-text"><desc>TEST_IN_VS+</desc>
<path d="M11.3463 33.6150
L12.0720 33.6150
" />
<path d="M11.7092 34.8850
L11.7092 33.6150
" />
<path d="M12.4953 34.2198
L12.9187 34.2198
" />
<path d="M13.1001 34.8850
L12.4953 34.8850
" />
<path d="M12.4953 34.8850
L12.4953 33.6150
" />
<path d="M12.4953 33.6150
L13.1001 33.6150
" />
<path d="M13.5839 34.8246
L13.7653 34.8850
" />
<path d="M13.7653 34.8850
L14.0677 34.8850
" />
<path d="M14.0677 34.8850
L14.1886 34.8246
" />
<path d="M14.1886 34.8246
L14.2491 34.7641
" />
<path d="M14.2491 34.7641
L14.3096 34.6431
" />
<path d="M14.3096 34.6431
L14.3096 34.5222
" />
<path d="M14.3096 34.5222
L14.2491 34.4012
" />
<path d="M14.2491 34.4012
L14.1886 34.3407
" />
<path d="M14.1886 34.3407
L14.0677 34.2803
" />
<path d="M14.0677 34.2803
L13.8258 34.2198
" />
<path d="M13.8258 34.2198
L13.7048 34.1593
" />
<path d="M13.7048 34.1593
L13.6443 34.0988
" />
<path d="M13.6443 34.0988
L13.5839 33.9779
" />
<path d="M13.5839 33.9779
L13.5839 33.8569
" />
<path d="M13.5839 33.8569
L13.6443 33.7360
" />
<path d="M13.6443 33.7360
L13.7048 33.6755
" />
<path d="M13.7048 33.6755
L13.8258 33.6150
" />
<path d="M13.8258 33.6150
L14.1281 33.6150
" />
<path d="M14.1281 33.6150
L14.3096 33.6755
" />
<path d="M14.6724 33.6150
L15.3981 33.6150
" />
<path d="M15.0353 34.8850
L15.0353 33.6150
" />
<path d="M15.5191 35.0060
L16.4867 35.0060
" />
<path d="M16.7890 34.8850
L16.7890 33.6150
" />
<path d="M17.3938 34.8850
L17.3938 33.6150
" />
<path d="M17.3938 33.6150
L18.1195 34.8850
" />
<path d="M18.1195 34.8850
L18.1195 33.6150
" />
<path d="M18.4220 35.0060
L19.3896 35.0060
" />
<path d="M19.5105 33.6150
L19.9338 34.8850
" />
<path d="M19.9338 34.8850
L20.3572 33.6150
" />
<path d="M20.7201 34.8246
L20.9015 34.8850
" />
<path d="M20.9015 34.8850
L21.2039 34.8850
" />
<path d="M21.2039 34.8850
L21.3248 34.8246
" />
<path d="M21.3248 34.8246
L21.3853 34.7641
" />
<path d="M21.3853 34.7641
L21.4458 34.6431
" />
<path d="M21.4458 34.6431
L21.4458 34.5222
" />
<path d="M21.4458 34.5222
L21.3853 34.4012
" />
<path d="M21.3853 34.4012
L21.3248 34.3407
" />
<path d="M21.3248 34.3407
L21.2039 34.2803
" />
<path d="M21.2039 34.2803
L20.9620 34.2198
" />
<path d="M20.9620 34.2198
L20.8410 34.1593
" />
<path d="M20.8410 34.1593
L20.7805 34.0988
" />
<path d="M20.7805 34.0988
L20.7201 33.9779
" />
<path d="M20.7201 33.9779
L20.7201 33.8569
" />
<path d="M20.7201 33.8569
L20.7805 33.7360
" />
<path d="M20.7805 33.7360
L20.8410 33.6755
" />
<path d="M20.8410 33.6755
L20.9620 33.6150
" />
<path d="M20.9620 33.6150
L21.2643 33.6150
" />
<path d="M21.2643 33.6150
L21.4458 33.6755
" />
<path d="M21.9900 34.4012
L22.9577 34.4012
" />
<path d="M22.4738 34.8850
L22.4738 33.9174
" />
</g></g>
<g style="fill:none; 
stroke:#A90000; stroke-width:0.1524; stroke-opacity:1; 
stroke-linecap:round; stroke-linejoin:round;">
<text x="8.0772" y="34.0515"
textLength="2.6222" font-size="1.6933" lengthAdjust="spacingAndGlyphs"
text-anchor="middle" opacity="0" stroke-opacity="0">14</text>
<g class="stroked-text"><desc>14</desc>
<path d="M7.8353 33.8880
L7.1096 33.8880
" />
<path d="M7.4724 33.8880
L7.4724 32.6180
" />
<path d="M7.4724 32.6180
L7.3515 32.7995
" />
<path d="M7.3515 32.7995
L7.2305 32.9204
" />
<path d="M7.2305 32.9204
L7.1096 32.9809
" />
<path d="M8.9238 33.0414
L8.9238 33.8880
" />
<path d="M8.6214 32.5576
L8.3191 33.4647
" />
<path d="M8.3191 33.4647
L9.1052 33.4647
" />
</g></g>
<g style="fill:none; 
stroke:#840000; stroke-width:0.1524; stroke-opacity:1; 
stroke-linecap:round; stroke-linejoin:round;">
<path d="M10.6172 19.0655
L5.5372 19.0655
" />
</g>
<g style="fill:none; 
stroke:#006464; stroke-width:0.1524; stroke-opacity:1; 
stroke-linecap:round; stroke-linejoin:round;">
<text x="11.1252" y="19.7005"
textLength="2.1385" font-size="1.6933" lengthAdjust="spacingAndGlyphs"
text-anchor="start" opacity="0" stroke-opacity="0">IN</text>
<g class="stroked-text"><desc>IN</desc>
<path d="M11.5277 19.6450
L11.5277 18.3750
" />
<path d="M12.1325 19.6450
L12.1325 18.3750
" />
<path d="M12.1325 18.3750
L12.8582 19.6450
" />
<path d="M12.8582 19.6450
L12.8582 18.3750
" />
</g></g>
<g style="fill:none; 
stroke:#A90000; stroke-width:0.1524; stroke-opacity:1; 
stroke-linecap:round; stroke-linejoin:round;">
<text x="8.0772" y="18.8115"
textLength="2.6222" font-size="1.6933" lengthAdjust="spacingAndGlyphs"
text-anchor="middle" opacity="0" stroke-opacity="0">15</text>
<g class="stroked-text"><desc>15</desc>
<path d="M7.8353 18.6480
L7.1096 18.6480
" />
<path d="M7.4724 18.6480
L7.4724 17.3780
" />
<path d="M7.4724 17.3780
L7.3515 17.5595
" />
<path d="M7.3515 17.5595
L7.2305 17.6804
" />
<path d="M7.2305 17.6804
L7.1096 17.7409
" />
<path d="M8.9843 17.3780
L8.3795 17.3780
" />
<path d="M8.3795 17.3780
L8.3191 17.9828
" />
<path d="M8.3191 17.9828
L8.3795 17.9223
" />
<path d="M8.3795 17.9223
L8.5005 17.8618
" />
<path d="M8.5005 17.8618
L8.8029 17.8618
" />
<path d="M8.8029 17.8618
L8.9238 17.9223
" />
<path d="M8.9238 17.9223
L8.9843 17.9828
" />
<path d="M8.9843 17.9828
L9.0448 18.1037
" />
<path d="M9.0448 18.1037
L9.0448 18.4061
" />
<path d="M9.0448 18.4061
L8.9843 18.5271
" />
<path d="M8.9843 18.5271
L8.9238 18.5876
" />
<path d="M8.9238 18.5876
L8.8029 18.6480
" />
<path d="M8.8029 18.6480
L8.5005 18.6480
" />
<path d="M8.5005 18.6480
L8.3795 18.5876
" />
<path d="M8.3795 18.5876
L8.3191 18.5271
" />
</g></g>
<g style="fill:none; 
stroke:#840000; stroke-width:0.1524; stroke-opacity:1; 
stroke-linecap:round; stroke-linejoin:round;">
<path d="M51.2572 39.3855
L56.3372 39.3855
" />
</g>
<g style="fill:none; 
stroke:#006464; stroke-width:0.1524; stroke-opacity:1; 
stroke-linecap:round; stroke-linejoin:round;">
<text x="50.7492" y="40.0205"
textLength="3.8318" font-size="1.6933" lengthAdjust="spacingAndGlyphs"
text-anchor="end" opacity="0" stroke-opacity="0">PAD</text>
<g class="stroked-text"><desc>PAD</desc>
<path d="M47.3227 39.9650
L47.3227 38.6950
" />
<path d="M47.3227 38.6950
L47.8065 38.6950
" />
<path d="M47.8065 38.6950
L47.9275 38.7555
" />
<path d="M47.9275 38.7555
L47.9880 38.8160
" />
<path d="M47.9880 38.8160
L48.0484 38.9369
" />
<path d="M48.0484 38.9369
L48.0484 39.1184
" />
<path d="M48.0484 39.1184
L47.9880 39.2393
" />
<path d="M47.9880 39.2393
L47.9275 39.2998
" />
<path d="M47.9275 39.2998
L47.8065 39.3603
" />
<path d="M47.8065 39.3603
L47.3227 39.3603
" />
<path d="M48.5323 39.6022
L49.1370 39.6022
" />
<path d="M48.4113 39.9650
L48.8346 38.6950
" />
<path d="M48.8346 38.6950
L49.2580 39.9650
" />
<path d="M49.6813 39.9650
L49.6813 38.6950
" />
<path d="M49.6813 38.6950
L49.9837 38.6950
" />
<path d="M49.9837 38.6950
L50.1651 38.7555
" />
<path d="M50.1651 38.7555
L50.2861 38.8765
" />
<path d="M50.2861 38.8765
L50.3466 38.9974
" />
<path d="M50.3466 38.9974
L50.4070 39.2393
" />
<path d="M50.4070 39.2393
L50.4070 39.4207
" />
<path d="M50.4070 39.4207
L50.3466 39.6626
" />
<path d="M50.3466 39.6626
L50.2861 39.7836
" />
<path d="M50.2861 39.7836
L50.1651 39.9046
" />
<path d="M50.1651 39.9046
L49.9837 39.9650
" />
<path d="M49.9837 39.9650
L49.6813 39.9650
" />
</g></g>
<g style="fill:none; 
stroke:#A90000; stroke-width:0.1524; stroke-opacity:1; 
stroke-linecap:round; stroke-linejoin:round;">
<text x="53.7972" y="39.1315"
textLength="2.6222" font-size="1.6933" lengthAdjust="spacingAndGlyphs"
text-anchor="middle" opacity="0" stroke-opacity="0">17</text>
<g class="stroked-text"><desc>17</desc>
<path d="M53.5553 38.9680
L52.8296 38.9680
" />
<path d="M53.1924 38.9680
L53.1924 37.6980
" />
<path d="M53.1924 37.6980
L53.0715 37.8795
" />
<path d="M53.0715 37.8795
L52.9505 38.0004
" />
<path d="M52.9505 38.0004
L52.8296 38.0609
" />
<path d="M53.9786 37.6980
L54.8252 37.6980
" />
<path d="M54.8252 37.6980
L54.2810 38.9680
" />
</g></g>
<g style="fill:none; 
stroke:#840000; stroke-width:0.1524; stroke-opacity:1; 
stroke-linecap:round; stroke-linejoin:round;">
<path d="M10.6172 29.2255
L5.5372 29.2255
" />
<path d="M5.1562 28.8445
L5.9182 29.6065
" />
<path d="M5.9182 28.8445
L5.1562 29.6065
" />
</g>
<g style="fill:none; 
stroke:#006464; stroke-width:0.1524; stroke-opacity:1; 
stroke-linecap:round; stroke-linejoin:round;">
<text x="11.1252" y="29.8605"
textLength="2.8037" font-size="1.6933" lengthAdjust="spacingAndGlyphs"
text-anchor="start" opacity="0" stroke-opacity="0">NC</text>
<g class="stroked-text"><desc>NC</desc>
<path d="M11.5277 29.8050
L11.5277 28.5350
" />
<path d="M11.5277 28.5350
L12.2534 29.8050
" />
<path d="M12.2534 29.8050
L12.2534 28.5350
" />
<path d="M13.5839 29.6841
L13.5235 29.7446
" />
<path d="M13.5235 29.7446
L13.3420 29.8050
" />
<path d="M13.3420 29.8050
L13.2211 29.8050
" />
<path d="M13.2211 29.8050
L13.0397 29.7446
" />
<path d="M13.0397 29.7446
L12.9187 29.6236
" />
<path d="M12.9187 29.6236
L12.8582 29.5026
" />
<path d="M12.8582 29.5026
L12.7978 29.2607
" />
<path d="M12.7978 29.2607
L12.7978 29.0793
" />
<path d="M12.7978 29.0793
L12.8582 28.8374
" />
<path d="M12.8582 28.8374
L12.9187 28.7165
" />
<path d="M12.9187 28.7165
L13.0397 28.5955
" />
<path d="M13.0397 28.5955
L13.2211 28.5350
" />
<path d="M13.2211 28.5350
L13.3420 28.5350
" />
<path d="M13.3420 28.5350
L13.5235 28.5955
" />
<path d="M13.5235 28.5955
L13.5839 28.6560
" />
</g></g>
<g style="fill:none; 
stroke:#A90000; stroke-width:0.1524; stroke-opacity:1; 
stroke-linecap:round; stroke-linejoin:round;">
<text x="8.0772" y="28.9715"
textLength="2.6222" font-size="1.6933" lengthAdjust="spacingAndGlyphs"
text-anchor="middle" opacity="0" stroke-opacity="0">16</text>
<g class="stroked-text"><desc>16</desc>
<path d="M7.8353 28.8080
L7.1096 28.8080
" />
<path d="M7.4724 28.8080
L7.4724 27.5380
" />
<path d="M7.4724 27.5380
L7.3515 27.7195
" />
<path d="M7.3515 27.7195
L7.2305 27.8404
" />
<path d="M7.2305 27.8404
L7.1096 27.9009
" />
<path d="M8.9238 27.5380
L8.6819 27.5380
" />
<path d="M8.6819 27.5380
L8.5610 27.5985
" />
<path d="M8.5610 27.5985
L8.5005 27.6590
" />
<path d="M8.5005 27.6590
L8.3795 27.8404
" />
<path d="M8.3795 27.8404
L8.3191 28.0823
" />
<path d="M8.3191 28.0823
L8.3191 28.5661
" />
<path d="M8.3191 28.5661
L8.3795 28.6871
" />
<path d="M8.3795 28.6871
L8.4400 28.7476
" />
<path d="M8.4400 28.7476
L8.5610 28.8080
" />
<path d="M8.5610 28.8080
L8.8029 28.8080
" />
<path d="M8.8029 28.8080
L8.9238 28.7476
" />
<path d="M8.9238 28.7476
L8.9843 28.6871
" />
<path d="M8.9843 28.6871
L9.0448 28.5661
" />
<path d="M9.0448 28.5661
L9.0448 28.2637
" />
<path d="M9.0448 28.2637
L8.9843 28.1428
" />
<path d="M8.9843 28.1428
L8.9238 28.0823
" />
<path d="M8.9238 28.0823
L8.8029 28.0218
" />
<path d="M8.8029 28.0218
L8.5610 28.0218
" />
<path d="M8.5610 28.0218
L8.4400 28.0823
" />
<path d="M8.4400 28.0823
L8.3795 28.1428
" />
<path d="M8.3795 28.1428
L8.3191 28.2637
" />
</g></g>
<g style="fill:none; 
stroke:#006464; stroke-width:0.1524; stroke-opacity:1; 
stroke-linecap:round; stroke-linejoin:round;">
<text x="11.3792" y="5.4765"
textLength="2.6223" font-size="1.6933" lengthAdjust="spacingAndGlyphs"
text-anchor="middle" opacity="0" stroke-opacity="0">U?</text>
<g class="stroked-text"><desc>U?</desc>
<path d="M10.4720 4.1510
L10.4720 5.1791
" />
<path d="M10.4720 5.1791
L10.5325 5.3001
" />
<path d="M10.5325 5.3001
L10.5930 5.3606
" />
<path d="M10.5930 5.3606
L10.7139 5.4210
" />
<path d="M10.7139 5.4210
L10.9558 5.4210
" />
<path d="M10.9558 5.4210
L11.0768 5.3606
" />
<path d="M11.0768 5.3606
L11.1373 5.3001
" />
<path d="M11.1373 5.3001
L11.1977 5.1791
" />
<path d="M11.1977 5.1791
L11.1977 4.1510
" />
<path d="M11.9840 5.3001
L12.0444 5.3606
" />
<path d="M12.0444 5.3606
L11.9840 5.4210
" />
<path d="M11.9840 5.4210
L11.9235 5.3606
" />
<path d="M11.9235 5.3606
L11.9840 5.3001
" />
<path d="M11.9840 5.3001
L11.9840 5.4210
" />
<path d="M11.7421 4.2115
L11.8630 4.1510
" />
<path d="M11.8630 4.1510
L12.1654 4.1510
" />
<path d="M12.1654 4.1510
L12.2863 4.2115
" />
<path d="M12.2863 4.2115
L12.3468 4.3325
" />
<path d="M12.3468 4.3325
L12.3468 4.4534
" />
<path d="M12.3468 4.4534
L12.2863 4.5744
" />
<path d="M12.2863 4.5744
L12.2259 4.6348
" />
<path d="M12.2259 4.6348
L12.1049 4.6953
" />
<path d="M12.1049 4.6953
L12.0444 4.7558
" />
<path d="M12.0444 4.7558
L11.9840 4.8767
" />
<path d="M11.9840 4.8767
L11.9840 4.9372
" />
</g><text x="46.6852" y="5.4765"
textLength="7.5208" font-size="1.6933" lengthAdjust="spacingAndGlyphs"
text-anchor="middle" opacity="0" stroke-opacity="0">OPA857</text>
<g class="stroked-text"><desc>OPA857</desc>
<path d="M43.5706 4.1510
L43.8125 4.1510
" />
<path d="M43.8125 4.1510
L43.9335 4.2115
" />
<path d="M43.9335 4.2115
L44.0544 4.3325
" />
<path d="M44.0544 4.3325
L44.1149 4.5744
" />
<path d="M44.1149 4.5744
L44.1149 4.9977
" />
<path d="M44.1149 4.9977
L44.0544 5.2396
" />
<path d="M44.0544 5.2396
L43.9335 5.3606
" />
<path d="M43.9335 5.3606
L43.8125 5.4210
" />
<path d="M43.8125 5.4210
L43.5706 5.4210
" />
<path d="M43.5706 5.4210
L43.4497 5.3606
" />
<path d="M43.4497 5.3606
L43.3287 5.2396
" />
<path d="M43.3287 5.2396
L43.2683 4.9977
" />
<path d="M43.2683 4.9977
L43.2683 4.5744
" />
<path d="M43.2683 4.5744
L43.3287 4.3325
" />
<path d="M43.3287 4.3325
L43.4497 4.2115
" />
<path d="M43.4497 4.2115
L43.5706 4.1510
" />
<path d="M44.6592 5.4210
L44.6592 4.1510
" />
<path d="M44.6592 4.1510
L45.1430 4.1510
" />
<path d="M45.1430 4.1510
L45.2640 4.2115
" />
<path d="M45.2640 4.2115
L45.3245 4.2720
" />
<path d="M45.3245 4.2720
L45.3849 4.3929
" />
<path d="M45.3849 4.3929
L45.3849 4.5744
" />
<path d="M45.3849 4.5744
L45.3245 4.6953
" />
<path d="M45.3245 4.6953
L45.2640 4.7558
" />
<path d="M45.2640 4.7558
L45.1430 4.8163
" />
<path d="M45.1430 4.8163
L44.6592 4.8163
" />
<path d="M45.8688 5.0582
L46.4735 5.0582
" />
<path d="M45.7478 5.4210
L46.1711 4.1510
" />
<path d="M46.1711 4.1510
L46.5945 5.4210
" />
<path d="M47.1993 4.6953
L47.0783 4.6348
" />
<path d="M47.0783 4.6348
L47.0178 4.5744
" />
<path d="M47.0178 4.5744
L46.9574 4.4534
" />
<path d="M46.9574 4.4534
L46.9574 4.3929
" />
<path d="M46.9574 4.3929
L47.0178 4.2720
" />
<path d="M47.0178 4.2720
L47.0783 4.2115
" />
<path d="M47.0783 4.2115
L47.1993 4.1510
" />
<path d="M47.1993 4.1510
L47.4412 4.1510
" />
<path d="M47.4412 4.1510
L47.5621 4.2115
" />
<path d="M47.5621 4.2115
L47.6226 4.2720
" />
<path d="M47.6226 4.2720
L47.6831 4.3929
" />
<path d="M47.6831 4.3929
L47.6831 4.4534
" />
<path d="M47.6831 4.4534
L47.6226 4.5744
" />
<path d="M47.6226 4.5744
L47.5621 4.6348
" />
<path d="M47.5621 4.6348
L47.4412 4.6953
" />
<path d="M47.4412 4.6953
L47.1993 4.6953
" />
<path d="M47.1993 4.6953
L47.0783 4.7558
" />
<path d="M47.0783 4.7558
L47.0178 4.8163
" />
<path d="M47.0178 4.8163
L46.9574 4.9372
" />
<path d="M46.9574 4.9372
L46.9574 5.1791
" />
<path d="M46.9574 5.1791
L47.0178 5.3001
" />
<path d="M47.0178 5.3001
L47.0783 5.3606
" />
<path d="M47.0783 5.3606
L47.1993 5.4210
" />
<path d="M47.1993 5.4210
L47.4412 5.4210
" />
<path d="M47.4412 5.4210
L47.5621 5.3606
" />
<path d="M47.5621 5.3606
L47.6226 5.3001
" />
<path d="M47.6226 5.3001
L47.6831 5.1791
" />
<path d="M47.6831 5.1791
L47.6831 4.9372
" />
<path d="M47.6831 4.9372
L47.6226 4.8163
" />
<path d="M47.6226 4.8163
L47.5621 4.7558
" />
<path d="M47.5621 4.7558
L47.4412 4.6953
" />
<path d="M48.8321 4.1510
L48.2273 4.1510
" />
<path d="M48.2273 4.1510
L48.1669 4.7558
" />
<path d="M48.1669 4.7558
L48.2273 4.6953
" />
<path d="M48.2273 4.6953
L48.3483 4.6348
" />
<path d="M48.3483 4.6348
L48.6507 4.6348
" />
<path d="M48.6507 4.6348
L48.7716 4.6953
" />
<path d="M48.7716 4.6953
L48.8321 4.7558
" />
<path d="M48.8321 4.7558
L48.8926 4.8767
" />
<path d="M48.8926 4.8767
L48.8926 5.1791
" />
<path d="M48.8926 5.1791
L48.8321 5.3001
" />
<path d="M48.8321 5.3001
L48.7716 5.3606
" />
<path d="M48.7716 5.3606
L48.6507 5.4210
" />
<path d="M48.6507 5.4210
L48.3483 5.4210
" />
<path d="M48.3483 5.4210
L48.2273 5.3606
" />
<path d="M48.2273 5.3606
L48.1669 5.3001
" />
<path d="M49.3159 4.1510
L50.1625 4.1510
" />
<path d="M50.1625 4.1510
L49.6183 5.4210
" />
</g></g> 
</svg>
