<?xml version="1.0" standalone="no"?>
 <!DOCTYPE svg PUBLIC "-//W3C//DTD SVG 1.1//EN" 
 "http://www.w3.org/Graphics/SVG/1.1/DTD/svg11.dtd"> 
<svg
  xmlns:svg="http://www.w3.org/2000/svg"
  xmlns="http://www.w3.org/2000/svg"
  xmlns:xlink="http://www.w3.org/1999/xlink"
  xmlns:inkscape="http://www.inkscape.org/namespaces/inkscape"
  version="1.1"
  width="100%" height="100%" viewBox="0.0000 0.0000 61.8744 45.7200">
<title>SVG Image created as OPA857_unit1.svg date 2026-04-16T04:30:16 </title>
  <desc>Image generated by Eeschema-SVG </desc>
<g style="fill:#000000; fill-opacity:1.0000;stroke:#000000; stroke-opacity:1.0000;
stroke-linecap:round; stroke-linejoin:round;"
 transform="translate(0 0) scale(1 1)">
</g>
<g style="fill:#FFFFC2; fill-opacity:1.0000; stroke:none;">
<rect x="10.617200" y="6.352800" width="40.640000" height="35.560000" rx="0.000000" />
</g>
<g style="fill:none; 
stroke:#840000; stroke-width:0.1524; stroke-opacity:1; 
stroke-linecap:round; stroke-linejoin:round;">
<rect x="10.617200" y="6.352800" width="40.640000" height="35.560000" rx="0.000000" />
<path d="M51.2572 21.5928
L56.3372 21.5928
" />
</g>
<g style="fill:none; 
stroke:#006464; stroke-width:0.1524; stroke-opacity:1; 
stroke-linecap:round; stroke-linejoin:round;">
<text x="51.0032" y="22.2278"
textLength="4.0737" font-size="1.6933" lengthAdjust="spacingAndGlyphs"
text-anchor="end" opacity="0" stroke-opacity="0">GND</text>
<g class="stroked-text"><desc>GND</desc>
<path d="M48.0001 20.9628
L47.8791 20.9023
" />
<path d="M47.8791 20.9023
L47.6977 20.9023
" />
<path d="M47.6977 20.9023
L47.5163 20.9628
" />
<path d="M47.5163 20.9628
L47.3953 21.0838
" />
<path d="M47.3953 21.0838
L47.3348 21.2047
" />
<path d="M47.3348 21.2047
L47.2744 21.4466
" />
<path d="M47.2744 21.4466
L47.2744 21.6280
" />
<path d="M47.2744 21.6280
L47.3348 21.8699
" />
<path d="M47.3348 21.8699
L47.3953 21.9909
" />
<path d="M47.3953 21.9909
L47.5163 22.1119
" />
<path d="M47.5163 22.1119
L47.6977 22.1723
" />
<path d="M47.6977 22.1723
L47.8186 22.1723
" />
<path d="M47.8186 22.1723
L48.0001 22.1119
" />
<path d="M48.0001 22.1119
L48.0605 22.0514
" />
<path d="M48.0605 22.0514
L48.0605 21.6280
" />
<path d="M48.0605 21.6280
L47.8186 21.6280
" />
<path d="M48.6048 22.1723
L48.6048 20.9023
" />
<path d="M48.6048 20.9023
L49.3305 22.1723
" />
<path d="M49.3305 22.1723
L49.3305 20.9023
" />
<path d="M49.9353 22.1723
L49.9353 20.9023
" />
<path d="M49.9353 20.9023
L50.2377 20.9023
" />
<path d="M50.2377 20.9023
L50.4191 20.9628
" />
<path d="M50.4191 20.9628
L50.5401 21.0838
" />
<path d="M50.5401 21.0838
L50.6006 21.2047
" />
<path d="M50.6006 21.2047
L50.6610 21.4466
" />
<path d="M50.6610 21.4466
L50.6610 21.6280
" />
<path d="M50.6610 21.6280
L50.6006 21.8699
" />
<path d="M50.6006 21.8699
L50.5401 21.9909
" />
<path d="M50.5401 21.9909
L50.4191 22.1119
" />
<path d="M50.4191 22.1119
L50.2377 22.1723
" />
<path d="M50.2377 22.1723
L49.9353 22.1723
" />
</g></g>
<g style="fill:none; 
stroke:#A90000; stroke-width:0.1524; stroke-opacity:1; 
stroke-linecap:round; stroke-linejoin:round;">
<text x="53.7972" y="21.3388"
textLength="1.4127" font-size="1.6933" lengthAdjust="spacingAndGlyphs"
text-anchor="middle" opacity="0" stroke-opacity="0">1</text>
<g class="stroked-text"><desc>1</desc>
<path d="M54.1601 21.1753
L53.4344 21.1753
" />
<path d="M53.7972 21.1753
L53.7972 19.9053
" />
<path d="M53.7972 19.9053
L53.6763 20.0868
" />
<path d="M53.6763 20.0868
L53.5553 20.2077
" />
<path d="M53.5553 20.2077
L53.4344 20.2682
" />
</g></g>
<g style="fill:none; 
stroke:#840000; stroke-width:0.1524; stroke-opacity:1; 
stroke-linecap:round; stroke-linejoin:round;">
<path d="M10.6172 24.1328
L5.5372 24.1328
" />
</g>
<g style="fill:none; 
stroke:#006464; stroke-width:0.1524; stroke-opacity:1; 
stroke-linecap:round; stroke-linejoin:round;">
<text x="10.8712" y="24.7678"
textLength="4.7389" font-size="1.6933" lengthAdjust="spacingAndGlyphs"
text-anchor="start" opacity="0" stroke-opacity="0">CTRL</text>
<g class="stroked-text"><desc>CTRL</desc>
<path d="M11.9994 24.5914
L11.9390 24.6519
" />
<path d="M11.9390 24.6519
L11.7575 24.7123
" />
<path d="M11.7575 24.7123
L11.6366 24.7123
" />
<path d="M11.6366 24.7123
L11.4552 24.6519
" />
<path d="M11.4552 24.6519
L11.3342 24.5309
" />
<path d="M11.3342 24.5309
L11.2737 24.4099
" />
<path d="M11.2737 24.4099
L11.2133 24.1680
" />
<path d="M11.2133 24.1680
L11.2133 23.9866
" />
<path d="M11.2133 23.9866
L11.2737 23.7447
" />
<path d="M11.2737 23.7447
L11.3342 23.6238
" />
<path d="M11.3342 23.6238
L11.4552 23.5028
" />
<path d="M11.4552 23.5028
L11.6366 23.4423
" />
<path d="M11.6366 23.4423
L11.7575 23.4423
" />
<path d="M11.7575 23.4423
L11.9390 23.5028
" />
<path d="M11.9390 23.5028
L11.9994 23.5633
" />
<path d="M12.3623 23.4423
L13.0880 23.4423
" />
<path d="M12.7252 24.7123
L12.7252 23.4423
" />
<path d="M14.2370 24.7123
L13.8137 24.1076
" />
<path d="M13.5113 24.7123
L13.5113 23.4423
" />
<path d="M13.5113 23.4423
L13.9951 23.4423
" />
<path d="M13.9951 23.4423
L14.1161 23.5028
" />
<path d="M14.1161 23.5028
L14.1766 23.5633
" />
<path d="M14.1766 23.5633
L14.2370 23.6842
" />
<path d="M14.2370 23.6842
L14.2370 23.8657
" />
<path d="M14.2370 23.8657
L14.1766 23.9866
" />
<path d="M14.1766 23.9866
L14.1161 24.0471
" />
<path d="M14.1161 24.0471
L13.9951 24.1076
" />
<path d="M13.9951 24.1076
L13.5113 24.1076
" />
<path d="M15.3861 24.7123
L14.7813 24.7123
" />
<path d="M14.7813 24.7123
L14.7813 23.4423
" />
</g></g>
<g style="fill:none; 
stroke:#A90000; stroke-width:0.1524; stroke-opacity:1; 
stroke-linecap:round; stroke-linejoin:round;">
<text x="8.0772" y="23.8788"
textLength="1.4127" font-size="1.6933" lengthAdjust="spacingAndGlyphs"
text-anchor="middle" opacity="0" stroke-opacity="0">2</text>
<g class="stroked-text"><desc>2</desc>
<path d="M7.7144 22.5663
L7.7748 22.5058
" />
<path d="M7.7748 22.5058
L7.8958 22.4453
" />
<path d="M7.8958 22.4453
L8.1982 22.4453
" />
<path d="M8.1982 22.4453
L8.3191 22.5058
" />
<path d="M8.3191 22.5058
L8.3796 22.5663
" />
<path d="M8.3796 22.5663
L8.4401 22.6872
" />
<path d="M8.4401 22.6872
L8.4401 22.8082
" />
<path d="M8.4401 22.8082
L8.3796 22.9896
" />
<path d="M8.3796 22.9896
L7.6539 23.7153
" />
<path d="M7.6539 23.7153
L8.4401 23.7153
" />
</g></g>
<g style="fill:none; 
stroke:#840000; stroke-width:0.1524; stroke-opacity:1; 
stroke-linecap:round; stroke-linejoin:round;">
<path d="M51.2572 24.1328
L56.3372 24.1328
" />
</g>
<g style="fill:none; 
stroke:#006464; stroke-width:0.1524; stroke-opacity:1; 
stroke-linecap:round; stroke-linejoin:round;">
<text x="51.0032" y="24.7678"
textLength="4.0737" font-size="1.6933" lengthAdjust="spacingAndGlyphs"
text-anchor="end" opacity="0" stroke-opacity="0">GND</text>
<g class="stroked-text"><desc>GND</desc>
<path d="M48.0001 23.5028
L47.8791 23.4423
" />
<path d="M47.8791 23.4423
L47.6977 23.4423
" />
<path d="M47.6977 23.4423
L47.5163 23.5028
" />
<path d="M47.5163 23.5028
L47.3953 23.6238
" />
<path d="M47.3953 23.6238
L47.3348 23.7447
" />
<path d="M47.3348 23.7447
L47.2744 23.9866
" />
<path d="M47.2744 23.9866
L47.2744 24.1680
" />
<path d="M47.2744 24.1680
L47.3348 24.4099
" />
<path d="M47.3348 24.4099
L47.3953 24.5309
" />
<path d="M47.3953 24.5309
L47.5163 24.6519
" />
<path d="M47.5163 24.6519
L47.6977 24.7123
" />
<path d="M47.6977 24.7123
L47.8186 24.7123
" />
<path d="M47.8186 24.7123
L48.0001 24.6519
" />
<path d="M48.0001 24.6519
L48.0605 24.5914
" />
<path d="M48.0605 24.5914
L48.0605 24.1680
" />
<path d="M48.0605 24.1680
L47.8186 24.1680
" />
<path d="M48.6048 24.7123
L48.6048 23.4423
" />
<path d="M48.6048 23.4423
L49.3305 24.7123
" />
<path d="M49.3305 24.7123
L49.3305 23.4423
" />
<path d="M49.9353 24.7123
L49.9353 23.4423
" />
<path d="M49.9353 23.4423
L50.2377 23.4423
" />
<path d="M50.2377 23.4423
L50.4191 23.5028
" />
<path d="M50.4191 23.5028
L50.5401 23.6238
" />
<path d="M50.5401 23.6238
L50.6006 23.7447
" />
<path d="M50.6006 23.7447
L50.6610 23.9866
" />
<path d="M50.6610 23.9866
L50.6610 24.1680
" />
<path d="M50.6610 24.1680
L50.6006 24.4099
" />
<path d="M50.6006 24.4099
L50.5401 24.5309
" />
<path d="M50.5401 24.5309
L50.4191 24.6519
" />
<path d="M50.4191 24.6519
L50.2377 24.7123
" />
<path d="M50.2377 24.7123
L49.9353 24.7123
" />
</g></g>
<g style="fill:none; 
stroke:#A90000; stroke-width:0.1524; stroke-opacity:1; 
stroke-linecap:round; stroke-linejoin:round;">
<text x="53.7972" y="23.8788"
textLength="1.4127" font-size="1.6933" lengthAdjust="spacingAndGlyphs"
text-anchor="middle" opacity="0" stroke-opacity="0">3</text>
<g class="stroked-text"><desc>3</desc>
<path d="M53.3739 22.4453
L54.1601 22.4453
" />
<path d="M54.1601 22.4453
L53.7367 22.9291
" />
<path d="M53.7367 22.9291
L53.9182 22.9291
" />
<path d="M53.9182 22.9291
L54.0391 22.9896
" />
<path d="M54.0391 22.9896
L54.0996 23.0501
" />
<path d="M54.0996 23.0501
L54.1601 23.1710
" />
<path d="M54.1601 23.1710
L54.1601 23.4734
" />
<path d="M54.1601 23.4734
L54.0996 23.5944
" />
<path d="M54.0996 23.5944
L54.0391 23.6549
" />
<path d="M54.0391 23.6549
L53.9182 23.7153
" />
<path d="M53.9182 23.7153
L53.5553 23.7153
" />
<path d="M53.5553 23.7153
L53.4344 23.6549
" />
<path d="M53.4344 23.6549
L53.3739 23.5944
" />
</g></g>
<g style="fill:none; 
stroke:#840000; stroke-width:0.1524; stroke-opacity:1; 
stroke-linecap:round; stroke-linejoin:round;">
<path d="M51.2572 26.6728
L56.3372 26.6728
" />
</g>
<g style="fill:none; 
stroke:#006464; stroke-width:0.1524; stroke-opacity:1; 
stroke-linecap:round; stroke-linejoin:round;">
<text x="51.0032" y="27.3078"
textLength="4.0737" font-size="1.6933" lengthAdjust="spacingAndGlyphs"
text-anchor="end" opacity="0" stroke-opacity="0">GND</text>
<g class="stroked-text"><desc>GND</desc>
<path d="M48.0001 26.0428
L47.8791 25.9823
" />
<path d="M47.8791 25.9823
L47.6977 25.9823
" />
<path d="M47.6977 25.9823
L47.5163 26.0428
" />
<path d="M47.5163 26.0428
L47.3953 26.1638
" />
<path d="M47.3953 26.1638
L47.3348 26.2847
" />
<path d="M47.3348 26.2847
L47.2744 26.5266
" />
<path d="M47.2744 26.5266
L47.2744 26.7080
" />
<path d="M47.2744 26.7080
L47.3348 26.9499
" />
<path d="M47.3348 26.9499
L47.3953 27.0709
" />
<path d="M47.3953 27.0709
L47.5163 27.1919
" />
<path d="M47.5163 27.1919
L47.6977 27.2523
" />
<path d="M47.6977 27.2523
L47.8186 27.2523
" />
<path d="M47.8186 27.2523
L48.0001 27.1919
" />
<path d="M48.0001 27.1919
L48.0605 27.1314
" />
<path d="M48.0605 27.1314
L48.0605 26.7080
" />
<path d="M48.0605 26.7080
L47.8186 26.7080
" />
<path d="M48.6048 27.2523
L48.6048 25.9823
" />
<path d="M48.6048 25.9823
L49.3305 27.2523
" />
<path d="M49.3305 27.2523
L49.3305 25.9823
" />
<path d="M49.9353 27.2523
L49.9353 25.9823
" />
<path d="M49.9353 25.9823
L50.2377 25.9823
" />
<path d="M50.2377 25.9823
L50.4191 26.0428
" />
<path d="M50.4191 26.0428
L50.5401 26.1638
" />
<path d="M50.5401 26.1638
L50.6006 26.2847
" />
<path d="M50.6006 26.2847
L50.6610 26.5266
" />
<path d="M50.6610 26.5266
L50.6610 26.7080
" />
<path d="M50.6610 26.7080
L50.6006 26.9499
" />
<path d="M50.6006 26.9499
L50.5401 27.0709
" />
<path d="M50.5401 27.0709
L50.4191 27.1919
" />
<path d="M50.4191 27.1919
L50.2377 27.2523
" />
<path d="M50.2377 27.2523
L49.9353 27.2523
" />
</g></g>
<g style="fill:none; 
stroke:#A90000; stroke-width:0.1524; stroke-opacity:1; 
stroke-linecap:round; stroke-linejoin:round;">
<text x="53.7972" y="26.4188"
textLength="1.4127" font-size="1.6933" lengthAdjust="spacingAndGlyphs"
text-anchor="middle" opacity="0" stroke-opacity="0">4</text>
<g class="stroked-text"><desc>4</desc>
<path d="M54.0391 25.4087
L54.0391 26.2553
" />
<path d="M53.7367 24.9249
L53.4344 25.8320
" />
<path d="M53.4344 25.8320
L54.2205 25.8320
" />
</g></g>
<g style="fill:none; 
stroke:#840000; stroke-width:0.1524; stroke-opacity:1; 
stroke-linecap:round; stroke-linejoin:round;">
<path d="M51.2572 13.9728
L56.3372 13.9728
" />
</g>
<g style="fill:none; 
stroke:#006464; stroke-width:0.1524; stroke-opacity:1; 
stroke-linecap:round; stroke-linejoin:round;">
<text x="51.0032" y="14.6078"
textLength="5.1623" font-size="1.6933" lengthAdjust="spacingAndGlyphs"
text-anchor="end" opacity="0" stroke-opacity="0">OUTN</text>
<g class="stroked-text"><desc>OUTN</desc>
<path d="M46.4881 13.2823
L46.7300 13.2823
" />
<path d="M46.7300 13.2823
L46.8510 13.3428
" />
<path d="M46.8510 13.3428
L46.9719 13.4638
" />
<path d="M46.9719 13.4638
L47.0324 13.7057
" />
<path d="M47.0324 13.7057
L47.0324 14.1290
" />
<path d="M47.0324 14.1290
L46.9719 14.3709
" />
<path d="M46.9719 14.3709
L46.8510 14.4919
" />
<path d="M46.8510 14.4919
L46.7300 14.5523
" />
<path d="M46.7300 14.5523
L46.4881 14.5523
" />
<path d="M46.4881 14.5523
L46.3672 14.4919
" />
<path d="M46.3672 14.4919
L46.2462 14.3709
" />
<path d="M46.2462 14.3709
L46.1858 14.1290
" />
<path d="M46.1858 14.1290
L46.1858 13.7057
" />
<path d="M46.1858 13.7057
L46.2462 13.4638
" />
<path d="M46.2462 13.4638
L46.3672 13.3428
" />
<path d="M46.3672 13.3428
L46.4881 13.2823
" />
<path d="M47.5767 13.2823
L47.5767 14.3104
" />
<path d="M47.5767 14.3104
L47.6372 14.4314
" />
<path d="M47.6372 14.4314
L47.6977 14.4919
" />
<path d="M47.6977 14.4919
L47.8186 14.5523
" />
<path d="M47.8186 14.5523
L48.0605 14.5523
" />
<path d="M48.0605 14.5523
L48.1815 14.4919
" />
<path d="M48.1815 14.4919
L48.2420 14.4314
" />
<path d="M48.2420 14.4314
L48.3024 14.3104
" />
<path d="M48.3024 14.3104
L48.3024 13.2823
" />
<path d="M48.7258 13.2823
L49.4515 13.2823
" />
<path d="M49.0887 14.5523
L49.0887 13.2823
" />
<path d="M49.8748 14.5523
L49.8748 13.2823
" />
<path d="M49.8748 13.2823
L50.6005 14.5523
" />
<path d="M50.6005 14.5523
L50.6005 13.2823
" />
</g></g>
<g style="fill:none; 
stroke:#A90000; stroke-width:0.1524; stroke-opacity:1; 
stroke-linecap:round; stroke-linejoin:round;">
<text x="53.7972" y="13.7188"
textLength="1.4127" font-size="1.6933" lengthAdjust="spacingAndGlyphs"
text-anchor="middle" opacity="0" stroke-opacity="0">5</text>
<g class="stroked-text"><desc>5</desc>
<path d="M54.0996 12.2853
L53.4948 12.2853
" />
<path d="M53.4948 12.2853
L53.4344 12.8901
" />
<path d="M53.4344 12.8901
L53.4948 12.8296
" />
<path d="M53.4948 12.8296
L53.6158 12.7691
" />
<path d="M53.6158 12.7691
L53.9182 12.7691
" />
<path d="M53.9182 12.7691
L54.0391 12.8296
" />
<path d="M54.0391 12.8296
L54.0996 12.8901
" />
<path d="M54.0996 12.8901
L54.1601 13.0110
" />
<path d="M54.1601 13.0110
L54.1601 13.3134
" />
<path d="M54.1601 13.3134
L54.0996 13.4344
" />
<path d="M54.0996 13.4344
L54.0391 13.4949
" />
<path d="M54.0391 13.4949
L53.9182 13.5553
" />
<path d="M53.9182 13.5553
L53.6158 13.5553
" />
<path d="M53.6158 13.5553
L53.4948 13.4949
" />
<path d="M53.4948 13.4949
L53.4344 13.4344
" />
</g></g>
<g style="fill:none; 
stroke:#840000; stroke-width:0.1524; stroke-opacity:1; 
stroke-linecap:round; stroke-linejoin:round;">
<path d="M51.2572 29.2128
L56.3372 29.2128
" />
</g>
<g style="fill:none; 
stroke:#006464; stroke-width:0.1524; stroke-opacity:1; 
stroke-linecap:round; stroke-linejoin:round;">
<text x="51.0032" y="29.8478"
textLength="4.0737" font-size="1.6933" lengthAdjust="spacingAndGlyphs"
text-anchor="end" opacity="0" stroke-opacity="0">GND</text>
<g class="stroked-text"><desc>GND</desc>
<path d="M48.0001 28.5828
L47.8791 28.5223
" />
<path d="M47.8791 28.5223
L47.6977 28.5223
" />
<path d="M47.6977 28.5223
L47.5163 28.5828
" />
<path d="M47.5163 28.5828
L47.3953 28.7038
" />
<path d="M47.3953 28.7038
L47.3348 28.8247
" />
<path d="M47.3348 28.8247
L47.2744 29.0666
" />
<path d="M47.2744 29.0666
L47.2744 29.2480
" />
<path d="M47.2744 29.2480
L47.3348 29.4899
" />
<path d="M47.3348 29.4899
L47.3953 29.6109
" />
<path d="M47.3953 29.6109
L47.5163 29.7319
" />
<path d="M47.5163 29.7319
L47.6977 29.7923
" />
<path d="M47.6977 29.7923
L47.8186 29.7923
" />
<path d="M47.8186 29.7923
L48.0001 29.7319
" />
<path d="M48.0001 29.7319
L48.0605 29.6714
" />
<path d="M48.0605 29.6714
L48.0605 29.2480
" />
<path d="M48.0605 29.2480
L47.8186 29.2480
" />
<path d="M48.6048 29.7923
L48.6048 28.5223
" />
<path d="M48.6048 28.5223
L49.3305 29.7923
" />
<path d="M49.3305 29.7923
L49.3305 28.5223
" />
<path d="M49.9353 29.7923
L49.9353 28.5223
" />
<path d="M49.9353 28.5223
L50.2377 28.5223
" />
<path d="M50.2377 28.5223
L50.4191 28.5828
" />
<path d="M50.4191 28.5828
L50.5401 28.7038
" />
<path d="M50.5401 28.7038
L50.6006 28.8247
" />
<path d="M50.6006 28.8247
L50.6610 29.0666
" />
<path d="M50.6610 29.0666
L50.6610 29.2480
" />
<path d="M50.6610 29.2480
L50.6006 29.4899
" />
<path d="M50.6006 29.4899
L50.5401 29.6109
" />
<path d="M50.5401 29.6109
L50.4191 29.7319
" />
<path d="M50.4191 29.7319
L50.2377 29.7923
" />
<path d="M50.2377 29.7923
L49.9353 29.7923
" />
</g></g>
<g style="fill:none; 
stroke:#A90000; stroke-width:0.1524; stroke-opacity:1; 
stroke-linecap:round; stroke-linejoin:round;">
<text x="53.7972" y="28.9588"
textLength="1.4127" font-size="1.6933" lengthAdjust="spacingAndGlyphs"
text-anchor="middle" opacity="0" stroke-opacity="0">6</text>
<g class="stroked-text"><desc>6</desc>
<path d="M54.0391 27.5253
L53.7972 27.5253
" />
<path d="M53.7972 27.5253
L53.6763 27.5858
" />
<path d="M53.6763 27.5858
L53.6158 27.6463
" />
<path d="M53.6158 27.6463
L53.4948 27.8277
" />
<path d="M53.4948 27.8277
L53.4344 28.0696
" />
<path d="M53.4344 28.0696
L53.4344 28.5534
" />
<path d="M53.4344 28.5534
L53.4948 28.6744
" />
<path d="M53.4948 28.6744
L53.5553 28.7349
" />
<path d="M53.5553 28.7349
L53.6763 28.7953
" />
<path d="M53.6763 28.7953
L53.9182 28.7953
" />
<path d="M53.9182 28.7953
L54.0391 28.7349
" />
<path d="M54.0391 28.7349
L54.0996 28.6744
" />
<path d="M54.0996 28.6744
L54.1601 28.5534
" />
<path d="M54.1601 28.5534
L54.1601 28.2510
" />
<path d="M54.1601 28.2510
L54.0996 28.1301
" />
<path d="M54.0996 28.1301
L54.0391 28.0696
" />
<path d="M54.0391 28.0696
L53.9182 28.0091
" />
<path d="M53.9182 28.0091
L53.6763 28.0091
" />
<path d="M53.6763 28.0091
L53.5553 28.0696
" />
<path d="M53.5553 28.0696
L53.4948 28.1301
" />
<path d="M53.4948 28.1301
L53.4344 28.2510
" />
</g></g>
<g style="fill:none; 
stroke:#840000; stroke-width:0.1524; stroke-opacity:1; 
stroke-linecap:round; stroke-linejoin:round;">
<path d="M51.2572 31.7528
L56.3372 31.7528
" />
</g>
<g style="fill:none; 
stroke:#006464; stroke-width:0.1524; stroke-opacity:1; 
stroke-linecap:round; stroke-linejoin:round;">
<text x="51.0032" y="32.3878"
textLength="4.0737" font-size="1.6933" lengthAdjust="spacingAndGlyphs"
text-anchor="end" opacity="0" stroke-opacity="0">GND</text>
<g class="stroked-text"><desc>GND</desc>
<path d="M48.0001 31.1228
L47.8791 31.0623
" />
<path d="M47.8791 31.0623
L47.6977 31.0623
" />
<path d="M47.6977 31.0623
L47.5163 31.1228
" />
<path d="M47.5163 31.1228
L47.3953 31.2438
" />
<path d="M47.3953 31.2438
L47.3348 31.3647
" />
<path d="M47.3348 31.3647
L47.2744 31.6066
" />
<path d="M47.2744 31.6066
L47.2744 31.7880
" />
<path d="M47.2744 31.7880
L47.3348 32.0299
" />
<path d="M47.3348 32.0299
L47.3953 32.1509
" />
<path d="M47.3953 32.1509
L47.5163 32.2719
" />
<path d="M47.5163 32.2719
L47.6977 32.3323
" />
<path d="M47.6977 32.3323
L47.8186 32.3323
" />
<path d="M47.8186 32.3323
L48.0001 32.2719
" />
<path d="M48.0001 32.2719
L48.0605 32.2114
" />
<path d="M48.0605 32.2114
L48.0605 31.7880
" />
<path d="M48.0605 31.7880
L47.8186 31.7880
" />
<path d="M48.6048 32.3323
L48.6048 31.0623
" />
<path d="M48.6048 31.0623
L49.3305 32.3323
" />
<path d="M49.3305 32.3323
L49.3305 31.0623
" />
<path d="M49.9353 32.3323
L49.9353 31.0623
" />
<path d="M49.9353 31.0623
L50.2377 31.0623
" />
<path d="M50.2377 31.0623
L50.4191 31.1228
" />
<path d="M50.4191 31.1228
L50.5401 31.2438
" />
<path d="M50.5401 31.2438
L50.6006 31.3647
" />
<path d="M50.6006 31.3647
L50.6610 31.6066
" />
<path d="M50.6610 31.6066
L50.6610 31.7880
" />
<path d="M50.6610 31.7880
L50.6006 32.0299
" />
<path d="M50.6006 32.0299
L50.5401 32.1509
" />
<path d="M50.5401 32.1509
L50.4191 32.2719
" />
<path d="M50.4191 32.2719
L50.2377 32.3323
" />
<path d="M50.2377 32.3323
L49.9353 32.3323
" />
</g></g>
<g style="fill:none; 
stroke:#A90000; stroke-width:0.1524; stroke-opacity:1; 
stroke-linecap:round; stroke-linejoin:round;">
<text x="53.7972" y="31.4988"
textLength="1.4127" font-size="1.6933" lengthAdjust="spacingAndGlyphs"
text-anchor="middle" opacity="0" stroke-opacity="0">7</text>
<g class="stroked-text"><desc>7</desc>
<path d="M53.3739 30.0653
L54.2205 30.0653
" />
<path d="M54.2205 30.0653
L53.6763 31.3353
" />
</g></g>
<g style="fill:none; 
stroke:#840000; stroke-width:0.1524; stroke-opacity:1; 
stroke-linecap:round; stroke-linejoin:round;">
<path d="M51.2572 8.8928
L56.3372 8.8928
" />
</g>
<g style="fill:none; 
stroke:#006464; stroke-width:0.1524; stroke-opacity:1; 
stroke-linecap:round; stroke-linejoin:round;">
<text x="51.0032" y="9.5278"
textLength="3.8318" font-size="1.6933" lengthAdjust="spacingAndGlyphs"
text-anchor="end" opacity="0" stroke-opacity="0">OUT</text>
<g class="stroked-text"><desc>OUT</desc>
<path d="M47.8186 8.2023
L48.0605 8.2023
" />
<path d="M48.0605 8.2023
L48.1815 8.2628
" />
<path d="M48.1815 8.2628
L48.3024 8.3838
" />
<path d="M48.3024 8.3838
L48.3629 8.6257
" />
<path d="M48.3629 8.6257
L48.3629 9.0490
" />
<path d="M48.3629 9.0490
L48.3024 9.2909
" />
<path d="M48.3024 9.2909
L48.1815 9.4119
" />
<path d="M48.1815 9.4119
L48.0605 9.4723
" />
<path d="M48.0605 9.4723
L47.8186 9.4723
" />
<path d="M47.8186 9.4723
L47.6977 9.4119
" />
<path d="M47.6977 9.4119
L47.5767 9.2909
" />
<path d="M47.5767 9.2909
L47.5163 9.0490
" />
<path d="M47.5163 9.0490
L47.5163 8.6257
" />
<path d="M47.5163 8.6257
L47.5767 8.3838
" />
<path d="M47.5767 8.3838
L47.6977 8.2628
" />
<path d="M47.6977 8.2628
L47.8186 8.2023
" />
<path d="M48.9072 8.2023
L48.9072 9.2304
" />
<path d="M48.9072 9.2304
L48.9677 9.3514
" />
<path d="M48.9677 9.3514
L49.0282 9.4119
" />
<path d="M49.0282 9.4119
L49.1491 9.4723
" />
<path d="M49.1491 9.4723
L49.3910 9.4723
" />
<path d="M49.3910 9.4723
L49.5120 9.4119
" />
<path d="M49.5120 9.4119
L49.5725 9.3514
" />
<path d="M49.5725 9.3514
L49.6329 9.2304
" />
<path d="M49.6329 9.2304
L49.6329 8.2023
" />
<path d="M50.0563 8.2023
L50.7820 8.2023
" />
<path d="M50.4192 9.4723
L50.4192 8.2023
" />
</g></g>
<g style="fill:none; 
stroke:#A90000; stroke-width:0.1524; stroke-opacity:1; 
stroke-linecap:round; stroke-linejoin:round;">
<text x="53.7972" y="8.6388"
textLength="1.4127" font-size="1.6933" lengthAdjust="spacingAndGlyphs"
text-anchor="middle" opacity="0" stroke-opacity="0">8</text>
<g class="stroked-text"><desc>8</desc>
<path d="M53.6763 7.7496
L53.5553 7.6891
" />
<path d="M53.5553 7.6891
L53.4948 7.6287
" />
<path d="M53.4948 7.6287
L53.4344 7.5077
" />
<path d="M53.4344 7.5077
L53.4344 7.4472
" />
<path d="M53.4344 7.4472
L53.4948 7.3263
" />
<path d="M53.4948 7.3263
L53.5553 7.2658
" />
<path d="M53.5553 7.2658
L53.6763 7.2053
" />
<path d="M53.6763 7.2053
L53.9182 7.2053
" />
<path d="M53.9182 7.2053
L54.0391 7.2658
" />
<path d="M54.0391 7.2658
L54.0996 7.3263
" />
<path d="M54.0996 7.3263
L54.1601 7.4472
" />
<path d="M54.1601 7.4472
L54.1601 7.5077
" />
<path d="M54.1601 7.5077
L54.0996 7.6287
" />
<path d="M54.0996 7.6287
L54.0391 7.6891
" />
<path d="M54.0391 7.6891
L53.9182 7.7496
" />
<path d="M53.9182 7.7496
L53.6763 7.7496
" />
<path d="M53.6763 7.7496
L53.5553 7.8101
" />
<path d="M53.5553 7.8101
L53.4948 7.8706
" />
<path d="M53.4948 7.8706
L53.4344 7.9915
" />
<path d="M53.4344 7.9915
L53.4344 8.2334
" />
<path d="M53.4344 8.2334
L53.4948 8.3544
" />
<path d="M53.4948 8.3544
L53.5553 8.4149
" />
<path d="M53.5553 8.4149
L53.6763 8.4753
" />
<path d="M53.6763 8.4753
L53.9182 8.4753
" />
<path d="M53.9182 8.4753
L54.0391 8.4149
" />
<path d="M54.0391 8.4149
L54.0996 8.3544
" />
<path d="M54.0996 8.3544
L54.1601 8.2334
" />
<path d="M54.1601 8.2334
L54.1601 7.9915
" />
<path d="M54.1601 7.9915
L54.0996 7.8706
" />
<path d="M54.0996 7.8706
L54.0391 7.8101
" />
<path d="M54.0391 7.8101
L53.9182 7.7496
" />
</g></g>
<g style="fill:none; 
stroke:#840000; stroke-width:0.1524; stroke-opacity:1; 
stroke-linecap:round; stroke-linejoin:round;">
<path d="M10.6172 8.8928
L5.5372 8.8928
" />
</g>
<g style="fill:none; 
stroke:#006464; stroke-width:0.1524; stroke-opacity:1; 
stroke-linecap:round; stroke-linejoin:round;">
<text x="10.8712" y="9.5278"
textLength="4.0737" font-size="1.6933" lengthAdjust="spacingAndGlyphs"
text-anchor="start" opacity="0" stroke-opacity="0">VS+</text>
<g class="stroked-text"><desc>VS+</desc>
<path d="M11.0923 8.2023
L11.5156 9.4723
" />
<path d="M11.5156 9.4723
L11.9390 8.2023
" />
<path d="M12.3019 9.4119
L12.4833 9.4723
" />
<path d="M12.4833 9.4723
L12.7857 9.4723
" />
<path d="M12.7857 9.4723
L12.9066 9.4119
" />
<path d="M12.9066 9.4119
L12.9671 9.3514
" />
<path d="M12.9671 9.3514
L13.0276 9.2304
" />
<path d="M13.0276 9.2304
L13.0276 9.1095
" />
<path d="M13.0276 9.1095
L12.9671 8.9885
" />
<path d="M12.9671 8.9885
L12.9066 8.9280
" />
<path d="M12.9066 8.9280
L12.7857 8.8676
" />
<path d="M12.7857 8.8676
L12.5438 8.8071
" />
<path d="M12.5438 8.8071
L12.4228 8.7466
" />
<path d="M12.4228 8.7466
L12.3623 8.6861
" />
<path d="M12.3623 8.6861
L12.3019 8.5652
" />
<path d="M12.3019 8.5652
L12.3019 8.4442
" />
<path d="M12.3019 8.4442
L12.3623 8.3233
" />
<path d="M12.3623 8.3233
L12.4228 8.2628
" />
<path d="M12.4228 8.2628
L12.5438 8.2023
" />
<path d="M12.5438 8.2023
L12.8461 8.2023
" />
<path d="M12.8461 8.2023
L13.0276 8.2628
" />
<path d="M13.5718 8.9885
L14.5395 8.9885
" />
<path d="M14.0556 9.4723
L14.0556 8.5047
" />
</g></g>
<g style="fill:none; 
stroke:#A90000; stroke-width:0.1524; stroke-opacity:1; 
stroke-linecap:round; stroke-linejoin:round;">
<text x="8.0772" y="8.6388"
textLength="1.4127" font-size="1.6933" lengthAdjust="spacingAndGlyphs"
text-anchor="middle" opacity="0" stroke-opacity="0">9</text>
<g class="stroked-text"><desc>9</desc>
<path d="M7.8353 8.4753
L8.0772 8.4753
" />
<path d="M8.0772 8.4753
L8.1982 8.4149
" />
<path d="M8.1982 8.4149
L8.2586 8.3544
" />
<path d="M8.2586 8.3544
L8.3796 8.1729
" />
<path d="M8.3796 8.1729
L8.4401 7.9310
" />
<path d="M8.4401 7.9310
L8.4401 7.4472
" />
<path d="M8.4401 7.4472
L8.3796 7.3263
" />
<path d="M8.3796 7.3263
L8.3191 7.2658
" />
<path d="M8.3191 7.2658
L8.1982 7.2053
" />
<path d="M8.1982 7.2053
L7.9563 7.2053
" />
<path d="M7.9563 7.2053
L7.8353 7.2658
" />
<path d="M7.8353 7.2658
L7.7748 7.3263
" />
<path d="M7.7748 7.3263
L7.7144 7.4472
" />
<path d="M7.7144 7.4472
L7.7144 7.7496
" />
<path d="M7.7144 7.7496
L7.7748 7.8706
" />
<path d="M7.7748 7.8706
L7.8353 7.9310
" />
<path d="M7.8353 7.9310
L7.9563 7.9915
" />
<path d="M7.9563 7.9915
L8.1982 7.9915
" />
<path d="M8.1982 7.9915
L8.3191 7.9310
" />
<path d="M8.3191 7.9310
L8.3796 7.8706
" />
<path d="M8.3796 7.8706
L8.4401 7.7496
" />
</g></g>
<g style="fill:none; 
stroke:#840000; stroke-width:0.1524; stroke-opacity:1; 
stroke-linecap:round; stroke-linejoin:round;">
<path d="M10.6172 11.4328
L5.5372 11.4328
" />
</g>
<g style="fill:none; 
stroke:#006464; stroke-width:0.1524; stroke-opacity:1; 
stroke-linecap:round; stroke-linejoin:round;">
<text x="10.8712" y="12.0678"
textLength="4.0737" font-size="1.6933" lengthAdjust="spacingAndGlyphs"
text-anchor="start" opacity="0" stroke-opacity="0">VS+</text>
<g class="stroked-text"><desc>VS+</desc>
<path d="M11.0923 10.7423
L11.5156 12.0123
" />
<path d="M11.5156 12.0123
L11.9390 10.7423
" />
<path d="M12.3019 11.9519
L12.4833 12.0123
" />
<path d="M12.4833 12.0123
L12.7857 12.0123
" />
<path d="M12.7857 12.0123
L12.9066 11.9519
" />
<path d="M12.9066 11.9519
L12.9671 11.8914
" />
<path d="M12.9671 11.8914
L13.0276 11.7704
" />
<path d="M13.0276 11.7704
L13.0276 11.6495
" />
<path d="M13.0276 11.6495
L12.9671 11.5285
" />
<path d="M12.9671 11.5285
L12.9066 11.4680
" />
<path d="M12.9066 11.4680
L12.7857 11.4076
" />
<path d="M12.7857 11.4076
L12.5438 11.3471
" />
<path d="M12.5438 11.3471
L12.4228 11.2866
" />
<path d="M12.4228 11.2866
L12.3623 11.2261
" />
<path d="M12.3623 11.2261
L12.3019 11.1052
" />
<path d="M12.3019 11.1052
L12.3019 10.9842
" />
<path d="M12.3019 10.9842
L12.3623 10.8633
" />
<path d="M12.3623 10.8633
L12.4228 10.8028
" />
<path d="M12.4228 10.8028
L12.5438 10.7423
" />
<path d="M12.5438 10.7423
L12.8461 10.7423
" />
<path d="M12.8461 10.7423
L13.0276 10.8028
" />
<path d="M13.5718 11.5285
L14.5395 11.5285
" />
<path d="M14.0556 12.0123
L14.0556 11.0447
" />
</g></g>
<g style="fill:none; 
stroke:#A90000; stroke-width:0.1524; stroke-opacity:1; 
stroke-linecap:round; stroke-linejoin:round;">
<text x="8.0772" y="11.1788"
textLength="2.6222" font-size="1.6933" lengthAdjust="spacingAndGlyphs"
text-anchor="middle" opacity="0" stroke-opacity="0">10</text>
<g class="stroked-text"><desc>10</desc>
<path d="M7.8353 11.0153
L7.1096 11.0153
" />
<path d="M7.4724 11.0153
L7.4724 9.7453
" />
<path d="M7.4724 9.7453
L7.3515 9.9268
" />
<path d="M7.3515 9.9268
L7.2305 10.0477
" />
<path d="M7.2305 10.0477
L7.1096 10.1082
" />
<path d="M8.6214 9.7453
L8.7424 9.7453
" />
<path d="M8.7424 9.7453
L8.8633 9.8058
" />
<path d="M8.8633 9.8058
L8.9238 9.8663
" />
<path d="M8.9238 9.8663
L8.9843 9.9872
" />
<path d="M8.9843 9.9872
L9.0448 10.2291
" />
<path d="M9.0448 10.2291
L9.0448 10.5315
" />
<path d="M9.0448 10.5315
L8.9843 10.7734
" />
<path d="M8.9843 10.7734
L8.9238 10.8944
" />
<path d="M8.9238 10.8944
L8.8633 10.9549
" />
<path d="M8.8633 10.9549
L8.7424 11.0153
" />
<path d="M8.7424 11.0153
L8.6214 11.0153
" />
<path d="M8.6214 11.0153
L8.5005 10.9549
" />
<path d="M8.5005 10.9549
L8.4400 10.8944
" />
<path d="M8.4400 10.8944
L8.3795 10.7734
" />
<path d="M8.3795 10.7734
L8.3191 10.5315
" />
<path d="M8.3191 10.5315
L8.3191 10.2291
" />
<path d="M8.3191 10.2291
L8.3795 9.9872
" />
<path d="M8.3795 9.9872
L8.4400 9.8663
" />
<path d="M8.4400 9.8663
L8.5005 9.8058
" />
<path d="M8.5005 9.8058
L8.6214 9.7453
" />
</g></g>
<g style="fill:none; 
stroke:#840000; stroke-width:0.1524; stroke-opacity:1; 
stroke-linecap:round; stroke-linejoin:round;">
<path d="M10.6172 13.9728
L5.5372 13.9728
" />
</g>
<g style="fill:none; 
stroke:#006464; stroke-width:0.1524; stroke-opacity:1; 
stroke-linecap:round; stroke-linejoin:round;">
<text x="10.8712" y="14.6078"
textLength="4.0737" font-size="1.6933" lengthAdjust="spacingAndGlyphs"
text-anchor="start" opacity="0" stroke-opacity="0">VS+</text>
<g class="stroked-text"><desc>VS+</desc>
<path d="M11.0923 13.2823
L11.5156 14.5523
" />
<path d="M11.5156 14.5523
L11.9390 13.2823
" />
<path d="M12.3019 14.4919
L12.4833 14.5523
" />
<path d="M12.4833 14.5523
L12.7857 14.5523
" />
<path d="M12.7857 14.5523
L12.9066 14.4919
" />
<path d="M12.9066 14.4919
L12.9671 14.4314
" />
<path d="M12.9671 14.4314
L13.0276 14.3104
" />
<path d="M13.0276 14.3104
L13.0276 14.1895
" />
<path d="M13.0276 14.1895
L12.9671 14.0685
" />
<path d="M12.9671 14.0685
L12.9066 14.0080
" />
<path d="M12.9066 14.0080
L12.7857 13.9476
" />
<path d="M12.7857 13.9476
L12.5438 13.8871
" />
<path d="M12.5438 13.8871
L12.4228 13.8266
" />
<path d="M12.4228 13.8266
L12.3623 13.7661
" />
<path d="M12.3623 13.7661
L12.3019 13.6452
" />
<path d="M12.3019 13.6452
L12.3019 13.5242
" />
<path d="M12.3019 13.5242
L12.3623 13.4033
" />
<path d="M12.3623 13.4033
L12.4228 13.3428
" />
<path d="M12.4228 13.3428
L12.5438 13.2823
" />
<path d="M12.5438 13.2823
L12.8461 13.2823
" />
<path d="M12.8461 13.2823
L13.0276 13.3428
" />
<path d="M13.5718 14.0685
L14.5395 14.0685
" />
<path d="M14.0556 14.5523
L14.0556 13.5847
" />
</g></g>
<g style="fill:none; 
stroke:#A90000; stroke-width:0.1524; stroke-opacity:1; 
stroke-linecap:round; stroke-linejoin:round;">
<text x="8.0772" y="13.7188"
textLength="2.6222" font-size="1.6933" lengthAdjust="spacingAndGlyphs"
text-anchor="middle" opacity="0" stroke-opacity="0">11</text>
<g class="stroked-text"><desc>11</desc>
<path d="M7.8353 13.5553
L7.1096 13.5553
" />
<path d="M7.4724 13.5553
L7.4724 12.2853
" />
<path d="M7.4724 12.2853
L7.3515 12.4668
" />
<path d="M7.3515 12.4668
L7.2305 12.5877
" />
<path d="M7.2305 12.5877
L7.1096 12.6482
" />
<path d="M9.0448 13.5553
L8.3191 13.5553
" />
<path d="M8.6819 13.5553
L8.6819 12.2853
" />
<path d="M8.6819 12.2853
L8.5610 12.4668
" />
<path d="M8.5610 12.4668
L8.4400 12.5877
" />
<path d="M8.4400 12.5877
L8.3191 12.6482
" />
</g></g>
<g style="fill:none; 
stroke:#840000; stroke-width:0.1524; stroke-opacity:1; 
stroke-linecap:round; stroke-linejoin:round;">
<path d="M51.2572 34.2928
L56.3372 34.2928
" />
</g>
<g style="fill:none; 
stroke:#006464; stroke-width:0.1524; stroke-opacity:1; 
stroke-linecap:round; stroke-linejoin:round;">
<text x="51.0032" y="34.9278"
textLength="4.0737" font-size="1.6933" lengthAdjust="spacingAndGlyphs"
text-anchor="end" opacity="0" stroke-opacity="0">GND</text>
<g class="stroked-text"><desc>GND</desc>
<path d="M48.0001 33.6628
L47.8791 33.6023
" />
<path d="M47.8791 33.6023
L47.6977 33.6023
" />
<path d="M47.6977 33.6023
L47.5163 33.6628
" />
<path d="M47.5163 33.6628
L47.3953 33.7838
" />
<path d="M47.3953 33.7838
L47.3348 33.9047
" />
<path d="M47.3348 33.9047
L47.2744 34.1466
" />
<path d="M47.2744 34.1466
L47.2744 34.3280
" />
<path d="M47.2744 34.3280
L47.3348 34.5699
" />
<path d="M47.3348 34.5699
L47.3953 34.6909
" />
<path d="M47.3953 34.6909
L47.5163 34.8119
" />
<path d="M47.5163 34.8119
L47.6977 34.8723
" />
<path d="M47.6977 34.8723
L47.8186 34.8723
" />
<path d="M47.8186 34.8723
L48.0001 34.8119
" />
<path d="M48.0001 34.8119
L48.0605 34.7514
" />
<path d="M48.0605 34.7514
L48.0605 34.3280
" />
<path d="M48.0605 34.3280
L47.8186 34.3280
" />
<path d="M48.6048 34.8723
L48.6048 33.6023
" />
<path d="M48.6048 33.6023
L49.3305 34.8723
" />
<path d="M49.3305 34.8723
L49.3305 33.6023
" />
<path d="M49.9353 34.8723
L49.9353 33.6023
" />
<path d="M49.9353 33.6023
L50.2377 33.6023
" />
<path d="M50.2377 33.6023
L50.4191 33.6628
" />
<path d="M50.4191 33.6628
L50.5401 33.7838
" />
<path d="M50.5401 33.7838
L50.6006 33.9047
" />
<path d="M50.6006 33.9047
L50.6610 34.1466
" />
<path d="M50.6610 34.1466
L50.6610 34.3280
" />
<path d="M50.6610 34.3280
L50.6006 34.5699
" />
<path d="M50.6006 34.5699
L50.5401 34.6909
" />
<path d="M50.5401 34.6909
L50.4191 34.8119
" />
<path d="M50.4191 34.8119
L50.2377 34.8723
" />
<path d="M50.2377 34.8723
L49.9353 34.8723
" />
</g></g>
<g style="fill:none; 
stroke:#A90000; stroke-width:0.1524; stroke-opacity:1; 
stroke-linecap:round; stroke-linejoin:round;">
<text x="53.7972" y="34.0388"
textLength="2.6222" font-size="1.6933" lengthAdjust="spacingAndGlyphs"
text-anchor="middle" opacity="0" stroke-opacity="0">12</text>
<g class="stroked-text"><desc>12</desc>
<path d="M53.5553 33.8753
L52.8296 33.8753
" />
<path d="M53.1924 33.8753
L53.1924 32.6053
" />
<path d="M53.1924 32.6053
L53.0715 32.7868
" />
<path d="M53.0715 32.7868
L52.9505 32.9077
" />
<path d="M52.9505 32.9077
L52.8296 32.9682
" />
<path d="M54.0391 32.7263
L54.0995 32.6658
" />
<path d="M54.0995 32.6658
L54.2205 32.6053
" />
<path d="M54.2205 32.6053
L54.5229 32.6053
" />
<path d="M54.5229 32.6053
L54.6438 32.6658
" />
<path d="M54.6438 32.6658
L54.7043 32.7263
" />
<path d="M54.7043 32.7263
L54.7648 32.8472
" />
<path d="M54.7648 32.8472
L54.7648 32.9682
" />
<path d="M54.7648 32.9682
L54.7043 33.1496
" />
<path d="M54.7043 33.1496
L53.9786 33.8753
" />
<path d="M53.9786 33.8753
L54.7648 33.8753
" />
</g></g>
<g style="fill:none; 
stroke:#840000; stroke-width:0.1524; stroke-opacity:1; 
stroke-linecap:round; stroke-linejoin:round;">
<path d="M10.6172 39.3728
L5.5372 39.3728
" />
</g>
<g style="fill:none; 
stroke:#006464; stroke-width:0.1524; stroke-opacity:1; 
stroke-linecap:round; stroke-linejoin:round;">
<text x="10.8712" y="40.0078"
textLength="12.7821" font-size="1.6933" lengthAdjust="spacingAndGlyphs"
text-anchor="start" opacity="0" stroke-opacity="0">TEST_SD_GND</text>
<g class="stroked-text"><desc>TEST_SD_GND</desc>
<path d="M11.0923 38.6823
L11.8180 38.6823
" />
<path d="M11.4552 39.9523
L11.4552 38.6823
" />
<path d="M12.2413 39.2871
L12.6647 39.2871
" />
<path d="M12.8461 39.9523
L12.2413 39.9523
" />
<path d="M12.2413 39.9523
L12.2413 38.6823
" />
<path d="M12.2413 38.6823
L12.8461 38.6823
" />
<path d="M13.3299 39.8919
L13.5113 39.9523
" />
<path d="M13.5113 39.9523
L13.8137 39.9523
" />
<path d="M13.8137 39.9523
L13.9346 39.8919
" />
<path d="M13.9346 39.8919
L13.9951 39.8314
" />
<path d="M13.9951 39.8314
L14.0556 39.7104
" />
<path d="M14.0556 39.7104
L14.0556 39.5895
" />
<path d="M14.0556 39.5895
L13.9951 39.4685
" />
<path d="M13.9951 39.4685
L13.9346 39.4080
" />
<path d="M13.9346 39.4080
L13.8137 39.3476
" />
<path d="M13.8137 39.3476
L13.5718 39.2871
" />
<path d="M13.5718 39.2871
L13.4508 39.2266
" />
<path d="M13.4508 39.2266
L13.3903 39.1661
" />
<path d="M13.3903 39.1661
L13.3299 39.0452
" />
<path d="M13.3299 39.0452
L13.3299 38.9242
" />
<path d="M13.3299 38.9242
L13.3903 38.8033
" />
<path d="M13.3903 38.8033
L13.4508 38.7428
" />
<path d="M13.4508 38.7428
L13.5718 38.6823
" />
<path d="M13.5718 38.6823
L13.8741 38.6823
" />
<path d="M13.8741 38.6823
L14.0556 38.7428
" />
<path d="M14.4184 38.6823
L15.1441 38.6823
" />
<path d="M14.7813 39.9523
L14.7813 38.6823
" />
<path d="M15.2651 40.0733
L16.2327 40.0733
" />
<path d="M16.4746 39.8919
L16.6560 39.9523
" />
<path d="M16.6560 39.9523
L16.9584 39.9523
" />
<path d="M16.9584 39.9523
L17.0793 39.8919
" />
<path d="M17.0793 39.8919
L17.1398 39.8314
" />
<path d="M17.1398 39.8314
L17.2003 39.7104
" />
<path d="M17.2003 39.7104
L17.2003 39.5895
" />
<path d="M17.2003 39.5895
L17.1398 39.4685
" />
<path d="M17.1398 39.4685
L17.0793 39.4080
" />
<path d="M17.0793 39.4080
L16.9584 39.3476
" />
<path d="M16.9584 39.3476
L16.7165 39.2871
" />
<path d="M16.7165 39.2871
L16.5955 39.2266
" />
<path d="M16.5955 39.2266
L16.5350 39.1661
" />
<path d="M16.5350 39.1661
L16.4746 39.0452
" />
<path d="M16.4746 39.0452
L16.4746 38.9242
" />
<path d="M16.4746 38.9242
L16.5350 38.8033
" />
<path d="M16.5350 38.8033
L16.5955 38.7428
" />
<path d="M16.5955 38.7428
L16.7165 38.6823
" />
<path d="M16.7165 38.6823
L17.0188 38.6823
" />
<path d="M17.0188 38.6823
L17.2003 38.7428
" />
<path d="M17.7445 39.9523
L17.7445 38.6823
" />
<path d="M17.7445 38.6823
L18.0469 38.6823
" />
<path d="M18.0469 38.6823
L18.2283 38.7428
" />
<path d="M18.2283 38.7428
L18.3493 38.8638
" />
<path d="M18.3493 38.8638
L18.4098 38.9847
" />
<path d="M18.4098 38.9847
L18.4702 39.2266
" />
<path d="M18.4702 39.2266
L18.4702 39.4080
" />
<path d="M18.4702 39.4080
L18.4098 39.6499
" />
<path d="M18.4098 39.6499
L18.3493 39.7709
" />
<path d="M18.3493 39.7709
L18.2283 39.8919
" />
<path d="M18.2283 39.8919
L18.0469 39.9523
" />
<path d="M18.0469 39.9523
L17.7445 39.9523
" />
<path d="M18.7122 40.0733
L19.6798 40.0733
" />
<path d="M20.6474 38.7428
L20.5264 38.6823
" />
<path d="M20.5264 38.6823
L20.3450 38.6823
" />
<path d="M20.3450 38.6823
L20.1636 38.7428
" />
<path d="M20.1636 38.7428
L20.0426 38.8638
" />
<path d="M20.0426 38.8638
L19.9821 38.9847
" />
<path d="M19.9821 38.9847
L19.9217 39.2266
" />
<path d="M19.9217 39.2266
L19.9217 39.4080
" />
<path d="M19.9217 39.4080
L19.9821 39.6499
" />
<path d="M19.9821 39.6499
L20.0426 39.7709
" />
<path d="M20.0426 39.7709
L20.1636 39.8919
" />
<path d="M20.1636 39.8919
L20.3450 39.9523
" />
<path d="M20.3450 39.9523
L20.4659 39.9523
" />
<path d="M20.4659 39.9523
L20.6474 39.8919
" />
<path d="M20.6474 39.8919
L20.7078 39.8314
" />
<path d="M20.7078 39.8314
L20.7078 39.4080
" />
<path d="M20.7078 39.4080
L20.4659 39.4080
" />
<path d="M21.2521 39.9523
L21.2521 38.6823
" />
<path d="M21.2521 38.6823
L21.9778 39.9523
" />
<path d="M21.9778 39.9523
L21.9778 38.6823
" />
<path d="M22.5826 39.9523
L22.5826 38.6823
" />
<path d="M22.5826 38.6823
L22.8850 38.6823
" />
<path d="M22.8850 38.6823
L23.0664 38.7428
" />
<path d="M23.0664 38.7428
L23.1874 38.8638
" />
<path d="M23.1874 38.8638
L23.2479 38.9847
" />
<path d="M23.2479 38.9847
L23.3083 39.2266
" />
<path d="M23.3083 39.2266
L23.3083 39.4080
" />
<path d="M23.3083 39.4080
L23.2479 39.6499
" />
<path d="M23.2479 39.6499
L23.1874 39.7709
" />
<path d="M23.1874 39.7709
L23.0664 39.8919
" />
<path d="M23.0664 39.8919
L22.8850 39.9523
" />
<path d="M22.8850 39.9523
L22.5826 39.9523
" />
</g></g>
<g style="fill:none; 
stroke:#A90000; stroke-width:0.1524; stroke-opacity:1; 
stroke-linecap:round; stroke-linejoin:round;">
<text x="8.0772" y="39.1188"
textLength="2.6222" font-size="1.6933" lengthAdjust="spacingAndGlyphs"
text-anchor="middle" opacity="0" stroke-opacity="0">13</text>
<g class="stroked-text"><desc>13</desc>
<path d="M7.8353 38.9553
L7.1096 38.9553
" />
<path d="M7.4724 38.9553
L7.4724 37.6853
" />
<path d="M7.4724 37.6853
L7.3515 37.8668
" />
<path d="M7.3515 37.8668
L7.2305 37.9877
" />
<path d="M7.2305 37.9877
L7.1096 38.0482
" />
<path d="M8.2586 37.6853
L9.0448 37.6853
" />
<path d="M9.0448 37.6853
L8.6214 38.1691
" />
<path d="M8.6214 38.1691
L8.8029 38.1691
" />
<path d="M8.8029 38.1691
L8.9238 38.2296
" />
<path d="M8.9238 38.2296
L8.9843 38.2901
" />
<path d="M8.9843 38.2901
L9.0448 38.4110
" />
<path d="M9.0448 38.4110
L9.0448 38.7134
" />
<path d="M9.0448 38.7134
L8.9843 38.8344
" />
<path d="M8.9843 38.8344
L8.9238 38.8949
" />
<path d="M8.9238 38.8949
L8.8029 38.9553
" />
<path d="M8.8029 38.9553
L8.4400 38.9553
" />
<path d="M8.4400 38.9553
L8.3191 38.8949
" />
<path d="M8.3191 38.8949
L8.2586 38.8344
" />
</g></g>
<g style="fill:none; 
stroke:#840000; stroke-width:0.1524; stroke-opacity:1; 
stroke-linecap:round; stroke-linejoin:round;">
<path d="M10.6172 34.2928
L5.5372 34.2928
" />
</g>
<g style="fill:none; 
stroke:#006464; stroke-width:0.1524; stroke-opacity:1; 
stroke-linecap:round; stroke-linejoin:round;">
<text x="10.8712" y="34.9278"
textLength="12.2379" font-size="1.6933" lengthAdjust="spacingAndGlyphs"
text-anchor="start" opacity="0" stroke-opacity="0">TEST_IN_VS+</text>
<g class="stroked-text"><desc>TEST_IN_VS+</desc>
<path d="M11.0923 33.6023
L11.8180 33.6023
" />
<path d="M11.4552 34.8723
L11.4552 33.6023
" />
<path d="M12.2413 34.2071
L12.6647 34.2071
" />
<path d="M12.8461 34.8723
L12.2413 34.8723
" />
<path d="M12.2413 34.8723
L12.2413 33.6023
" />
<path d="M12.2413 33.6023
L12.8461 33.6023
" />
<path d="M13.3299 34.8119
L13.5113 34.8723
" />
<path d="M13.5113 34.8723
L13.8137 34.8723
" />
<path d="M13.8137 34.8723
L13.9346 34.8119
" />
<path d="M13.9346 34.8119
L13.9951 34.7514
" />
<path d="M13.9951 34.7514
L14.0556 34.6304
" />
<path d="M14.0556 34.6304
L14.0556 34.5095
" />
<path d="M14.0556 34.5095
L13.9951 34.3885
" />
<path d="M13.9951 34.3885
L13.9346 34.3280
" />
<path d="M13.9346 34.3280
L13.8137 34.2676
" />
<path d="M13.8137 34.2676
L13.5718 34.2071
" />
<path d="M13.5718 34.2071
L13.4508 34.1466
" />
<path d="M13.4508 34.1466
L13.3903 34.0861
" />
<path d="M13.3903 34.0861
L13.3299 33.9652
" />
<path d="M13.3299 33.9652
L13.3299 33.8442
" />
<path d="M13.3299 33.8442
L13.3903 33.7233
" />
<path d="M13.3903 33.7233
L13.4508 33.6628
" />
<path d="M13.4508 33.6628
L13.5718 33.6023
" />
<path d="M13.5718 33.6023
L13.8741 33.6023
" />
<path d="M13.8741 33.6023
L14.0556 33.6628
" />
<path d="M14.4184 33.6023
L15.1441 33.6023
" />
<path d="M14.7813 34.8723
L14.7813 33.6023
" />
<path d="M15.2651 34.9933
L16.2327 34.9933
" />
<path d="M16.5350 34.8723
L16.5350 33.6023
" />
<path d="M17.1398 34.8723
L17.1398 33.6023
" />
<path d="M17.1398 33.6023
L17.8655 34.8723
" />
<path d="M17.8655 34.8723
L17.8655 33.6023
" />
<path d="M18.1680 34.9933
L19.1356 34.9933
" />
<path d="M19.2565 33.6023
L19.6798 34.8723
" />
<path d="M19.6798 34.8723
L20.1032 33.6023
" />
<path d="M20.4661 34.8119
L20.6475 34.8723
" />
<path d="M20.6475 34.8723
L20.9499 34.8723
" />
<path d="M20.9499 34.8723
L21.0708 34.8119
" />
<path d="M21.0708 34.8119
L21.1313 34.7514
" />
<path d="M21.1313 34.7514
L21.1918 34.6304
" />
<path d="M21.1918 34.6304
L21.1918 34.5095
" />
<path d="M21.1918 34.5095
L21.1313 34.3885
" />
<path d="M21.1313 34.3885
L21.0708 34.3280
" />
<path d="M21.0708 34.3280
L20.9499 34.2676
" />
<path d="M20.9499 34.2676
L20.7080 34.2071
" />
<path d="M20.7080 34.2071
L20.5870 34.1466
" />
<path d="M20.5870 34.1466
L20.5265 34.0861
" />
<path d="M20.5265 34.0861
L20.4661 33.9652
" />
<path d="M20.4661 33.9652
L20.4661 33.8442
" />
<path d="M20.4661 33.8442
L20.5265 33.7233
" />
<path d="M20.5265 33.7233
L20.5870 33.6628
" />
<path d="M20.5870 33.6628
L20.7080 33.6023
" />
<path d="M20.7080 33.6023
L21.0103 33.6023
" />
<path d="M21.0103 33.6023
L21.1918 33.6628
" />
<path d="M21.7360 34.3885
L22.7037 34.3885
" />
<path d="M22.2198 34.8723
L22.2198 33.9047
" />
</g></g>
<g style="fill:none; 
stroke:#A90000; stroke-width:0.1524; stroke-opacity:1; 
stroke-linecap:round; stroke-linejoin:round;">
<text x="8.0772" y="34.0388"
textLength="2.6222" font-size="1.6933" lengthAdjust="spacingAndGlyphs"
text-anchor="middle" opacity="0" stroke-opacity="0">14</text>
<g class="stroked-text"><desc>14</desc>
<path d="M7.8353 33.8753
L7.1096 33.8753
" />
<path d="M7.4724 33.8753
L7.4724 32.6053
" />
<path d="M7.4724 32.6053
L7.3515 32.7868
" />
<path d="M7.3515 32.7868
L7.2305 32.9077
" />
<path d="M7.2305 32.9077
L7.1096 32.9682
" />
<path d="M8.9238 33.0287
L8.9238 33.8753
" />
<path d="M8.6214 32.5449
L8.3191 33.4520
" />
<path d="M8.3191 33.4520
L9.1052 33.4520
" />
</g></g>
<g style="fill:none; 
stroke:#840000; stroke-width:0.1524; stroke-opacity:1; 
stroke-linecap:round; stroke-linejoin:round;">
<path d="M10.6172 19.0528
L5.5372 19.0528
" />
</g>
<g style="fill:none; 
stroke:#006464; stroke-width:0.1524; stroke-opacity:1; 
stroke-linecap:round; stroke-linejoin:round;">
<text x="10.8712" y="19.6878"
textLength="2.1385" font-size="1.6933" lengthAdjust="spacingAndGlyphs"
text-anchor="start" opacity="0" stroke-opacity="0">IN</text>
<g class="stroked-text"><desc>IN</desc>
<path d="M11.2737 19.6323
L11.2737 18.3623
" />
<path d="M11.8785 19.6323
L11.8785 18.3623
" />
<path d="M11.8785 18.3623
L12.6042 19.6323
" />
<path d="M12.6042 19.6323
L12.6042 18.3623
" />
</g></g>
<g style="fill:none; 
stroke:#A90000; stroke-width:0.1524; stroke-opacity:1; 
stroke-linecap:round; stroke-linejoin:round;">
<text x="8.0772" y="18.7988"
textLength="2.6222" font-size="1.6933" lengthAdjust="spacingAndGlyphs"
text-anchor="middle" opacity="0" stroke-opacity="0">15</text>
<g class="stroked-text"><desc>15</desc>
<path d="M7.8353 18.6353
L7.1096 18.6353
" />
<path d="M7.4724 18.6353
L7.4724 17.3653
" />
<path d="M7.4724 17.3653
L7.3515 17.5468
" />
<path d="M7.3515 17.5468
L7.2305 17.6677
" />
<path d="M7.2305 17.6677
L7.1096 17.7282
" />
<path d="M8.9843 17.3653
L8.3795 17.3653
" />
<path d="M8.3795 17.3653
L8.3191 17.9701
" />
<path d="M8.3191 17.9701
L8.3795 17.9096
" />
<path d="M8.3795 17.9096
L8.5005 17.8491
" />
<path d="M8.5005 17.8491
L8.8029 17.8491
" />
<path d="M8.8029 17.8491
L8.9238 17.9096
" />
<path d="M8.9238 17.9096
L8.9843 17.9701
" />
<path d="M8.9843 17.9701
L9.0448 18.0910
" />
<path d="M9.0448 18.0910
L9.0448 18.3934
" />
<path d="M9.0448 18.3934
L8.9843 18.5144
" />
<path d="M8.9843 18.5144
L8.9238 18.5749
" />
<path d="M8.9238 18.5749
L8.8029 18.6353
" />
<path d="M8.8029 18.6353
L8.5005 18.6353
" />
<path d="M8.5005 18.6353
L8.3795 18.5749
" />
<path d="M8.3795 18.5749
L8.3191 18.5144
" />
</g></g>
<g style="fill:none; 
stroke:#840000; stroke-width:0.1524; stroke-opacity:1; 
stroke-linecap:round; stroke-linejoin:round;">
<path d="M10.6172 29.2128
L5.5372 29.2128
" />
</g>
<g style="fill:none; 
stroke:#006464; stroke-width:0.1524; stroke-opacity:1; 
stroke-linecap:round; stroke-linejoin:round;">
<text x="10.8712" y="29.8478"
textLength="2.8037" font-size="1.6933" lengthAdjust="spacingAndGlyphs"
text-anchor="start" opacity="0" stroke-opacity="0">NC</text>
<g class="stroked-text"><desc>NC</desc>
<path d="M11.2737 29.7923
L11.2737 28.5223
" />
<path d="M11.2737 28.5223
L11.9994 29.7923
" />
<path d="M11.9994 29.7923
L11.9994 28.5223
" />
<path d="M13.3299 29.6714
L13.2695 29.7319
" />
<path d="M13.2695 29.7319
L13.0880 29.7923
" />
<path d="M13.0880 29.7923
L12.9671 29.7923
" />
<path d="M12.9671 29.7923
L12.7857 29.7319
" />
<path d="M12.7857 29.7319
L12.6647 29.6109
" />
<path d="M12.6647 29.6109
L12.6042 29.4899
" />
<path d="M12.6042 29.4899
L12.5438 29.2480
" />
<path d="M12.5438 29.2480
L12.5438 29.0666
" />
<path d="M12.5438 29.0666
L12.6042 28.8247
" />
<path d="M12.6042 28.8247
L12.6647 28.7038
" />
<path d="M12.6647 28.7038
L12.7857 28.5828
" />
<path d="M12.7857 28.5828
L12.9671 28.5223
" />
<path d="M12.9671 28.5223
L13.0880 28.5223
" />
<path d="M13.0880 28.5223
L13.2695 28.5828
" />
<path d="M13.2695 28.5828
L13.3299 28.6433
" />
</g></g>
<g style="fill:none; 
stroke:#A90000; stroke-width:0.1524; stroke-opacity:1; 
stroke-linecap:round; stroke-linejoin:round;">
<text x="8.0772" y="28.9588"
textLength="2.6222" font-size="1.6933" lengthAdjust="spacingAndGlyphs"
text-anchor="middle" opacity="0" stroke-opacity="0">16</text>
<g class="stroked-text"><desc>16</desc>
<path d="M7.8353 28.7953
L7.1096 28.7953
" />
<path d="M7.4724 28.7953
L7.4724 27.5253
" />
<path d="M7.4724 27.5253
L7.3515 27.7068
" />
<path d="M7.3515 27.7068
L7.2305 27.8277
" />
<path d="M7.2305 27.8277
L7.1096 27.8882
" />
<path d="M8.9238 27.5253
L8.6819 27.5253
" />
<path d="M8.6819 27.5253
L8.5610 27.5858
" />
<path d="M8.5610 27.5858
L8.5005 27.6463
" />
<path d="M8.5005 27.6463
L8.3795 27.8277
" />
<path d="M8.3795 27.8277
L8.3191 28.0696
" />
<path d="M8.3191 28.0696
L8.3191 28.5534
" />
<path d="M8.3191 28.5534
L8.3795 28.6744
" />
<path d="M8.3795 28.6744
L8.4400 28.7349
" />
<path d="M8.4400 28.7349
L8.5610 28.7953
" />
<path d="M8.5610 28.7953
L8.8029 28.7953
" />
<path d="M8.8029 28.7953
L8.9238 28.7349
" />
<path d="M8.9238 28.7349
L8.9843 28.6744
" />
<path d="M8.9843 28.6744
L9.0448 28.5534
" />
<path d="M9.0448 28.5534
L9.0448 28.2510
" />
<path d="M9.0448 28.2510
L8.9843 28.1301
" />
<path d="M8.9843 28.1301
L8.9238 28.0696
" />
<path d="M8.9238 28.0696
L8.8029 28.0091
" />
<path d="M8.8029 28.0091
L8.5610 28.0091
" />
<path d="M8.5610 28.0091
L8.4400 28.0696
" />
<path d="M8.4400 28.0696
L8.3795 28.1301
" />
<path d="M8.3795 28.1301
L8.3191 28.2510
" />
</g></g>
<g style="fill:none; 
stroke:#840000; stroke-width:0.1524; stroke-opacity:1; 
stroke-linecap:round; stroke-linejoin:round;">
<path d="M51.2572 39.3728
L56.3372 39.3728
" />
</g>
<g style="fill:none; 
stroke:#006464; stroke-width:0.1524; stroke-opacity:1; 
stroke-linecap:round; stroke-linejoin:round;">
<text x="51.0032" y="40.0078"
textLength="3.8318" font-size="1.6933" lengthAdjust="spacingAndGlyphs"
text-anchor="end" opacity="0" stroke-opacity="0">PAD</text>
<g class="stroked-text"><desc>PAD</desc>
<path d="M47.5767 39.9523
L47.5767 38.6823
" />
<path d="M47.5767 38.6823
L48.0605 38.6823
" />
<path d="M48.0605 38.6823
L48.1815 38.7428
" />
<path d="M48.1815 38.7428
L48.2420 38.8033
" />
<path d="M48.2420 38.8033
L48.3024 38.9242
" />
<path d="M48.3024 38.9242
L48.3024 39.1057
" />
<path d="M48.3024 39.1057
L48.2420 39.2266
" />
<path d="M48.2420 39.2266
L48.1815 39.2871
" />
<path d="M48.1815 39.2871
L48.0605 39.3476
" />
<path d="M48.0605 39.3476
L47.5767 39.3476
" />
<path d="M48.7863 39.5895
L49.3910 39.5895
" />
<path d="M48.6653 39.9523
L49.0886 38.6823
" />
<path d="M49.0886 38.6823
L49.5120 39.9523
" />
<path d="M49.9353 39.9523
L49.9353 38.6823
" />
<path d="M49.9353 38.6823
L50.2377 38.6823
" />
<path d="M50.2377 38.6823
L50.4191 38.7428
" />
<path d="M50.4191 38.7428
L50.5401 38.8638
" />
<path d="M50.5401 38.8638
L50.6006 38.9847
" />
<path d="M50.6006 38.9847
L50.6610 39.2266
" />
<path d="M50.6610 39.2266
L50.6610 39.4080
" />
<path d="M50.6610 39.4080
L50.6006 39.6499
" />
<path d="M50.6006 39.6499
L50.5401 39.7709
" />
<path d="M50.5401 39.7709
L50.4191 39.8919
" />
<path d="M50.4191 39.8919
L50.2377 39.9523
" />
<path d="M50.2377 39.9523
L49.9353 39.9523
" />
</g></g>
<g style="fill:none; 
stroke:#A90000; stroke-width:0.1524; stroke-opacity:1; 
stroke-linecap:round; stroke-linejoin:round;">
<text x="53.7972" y="39.1188"
textLength="2.6222" font-size="1.6933" lengthAdjust="spacingAndGlyphs"
text-anchor="middle" opacity="0" stroke-opacity="0">17</text>
<g class="stroked-text"><desc>17</desc>
<path d="M53.5553 38.9553
L52.8296 38.9553
" />
<path d="M53.1924 38.9553
L53.1924 37.6853
" />
<path d="M53.1924 37.6853
L53.0715 37.8668
" />
<path d="M53.0715 37.8668
L52.9505 37.9877
" />
<path d="M52.9505 37.9877
L52.8296 38.0482
" />
<path d="M53.9786 37.6853
L54.8252 37.6853
" />
<path d="M54.8252 37.6853
L54.2810 38.9553
" />
</g></g>
<g style="fill:none; 
stroke:#006464; stroke-width:0.1524; stroke-opacity:1; 
stroke-linecap:round; stroke-linejoin:round;">
<text x="11.3792" y="5.4638"
textLength="2.6223" font-size="1.6933" lengthAdjust="spacingAndGlyphs"
text-anchor="middle" opacity="0" stroke-opacity="0">U?</text>
<g class="stroked-text"><desc>U?</desc>
<path d="M10.4720 4.1383
L10.4720 5.1664
" />
<path d="M10.4720 5.1664
L10.5325 5.2874
" />
<path d="M10.5325 5.2874
L10.5930 5.3479
" />
<path d="M10.5930 5.3479
L10.7139 5.4083
" />
<path d="M10.7139 5.4083
L10.9558 5.4083
" />
<path d="M10.9558 5.4083
L11.0768 5.3479
" />
<path d="M11.0768 5.3479
L11.1373 5.2874
" />
<path d="M11.1373 5.2874
L11.1977 5.1664
" />
<path d="M11.1977 5.1664
L11.1977 4.1383
" />
<path d="M11.9840 5.2874
L12.0444 5.3479
" />
<path d="M12.0444 5.3479
L11.9840 5.4083
" />
<path d="M11.9840 5.4083
L11.9235 5.3479
" />
<path d="M11.9235 5.3479
L11.9840 5.2874
" />
<path d="M11.9840 5.2874
L11.9840 5.4083
" />
<path d="M11.7421 4.1988
L11.8630 4.1383
" />
<path d="M11.8630 4.1383
L12.1654 4.1383
" />
<path d="M12.1654 4.1383
L12.2863 4.1988
" />
<path d="M12.2863 4.1988
L12.3468 4.3198
" />
<path d="M12.3468 4.3198
L12.3468 4.4407
" />
<path d="M12.3468 4.4407
L12.2863 4.5617
" />
<path d="M12.2863 4.5617
L12.2259 4.6221
" />
<path d="M12.2259 4.6221
L12.1049 4.6826
" />
<path d="M12.1049 4.6826
L12.0444 4.7431
" />
<path d="M12.0444 4.7431
L11.9840 4.8640
" />
<path d="M11.9840 4.8640
L11.9840 4.9245
" />
</g><text x="46.6852" y="5.4638"
textLength="7.5208" font-size="1.6933" lengthAdjust="spacingAndGlyphs"
text-anchor="middle" opacity="0" stroke-opacity="0">OPA857</text>
<g class="stroked-text"><desc>OPA857</desc>
<path d="M43.5706 4.1383
L43.8125 4.1383
" />
<path d="M43.8125 4.1383
L43.9335 4.1988
" />
<path d="M43.9335 4.1988
L44.0544 4.3198
" />
<path d="M44.0544 4.3198
L44.1149 4.5617
" />
<path d="M44.1149 4.5617
L44.1149 4.9850
" />
<path d="M44.1149 4.9850
L44.0544 5.2269
" />
<path d="M44.0544 5.2269
L43.9335 5.3479
" />
<path d="M43.9335 5.3479
L43.8125 5.4083
" />
<path d="M43.8125 5.4083
L43.5706 5.4083
" />
<path d="M43.5706 5.4083
L43.4497 5.3479
" />
<path d="M43.4497 5.3479
L43.3287 5.2269
" />
<path d="M43.3287 5.2269
L43.2683 4.9850
" />
<path d="M43.2683 4.9850
L43.2683 4.5617
" />
<path d="M43.2683 4.5617
L43.3287 4.3198
" />
<path d="M43.3287 4.3198
L43.4497 4.1988
" />
<path d="M43.4497 4.1988
L43.5706 4.1383
" />
<path d="M44.6592 5.4083
L44.6592 4.1383
" />
<path d="M44.6592 4.1383
L45.1430 4.1383
" />
<path d="M45.1430 4.1383
L45.2640 4.1988
" />
<path d="M45.2640 4.1988
L45.3245 4.2593
" />
<path d="M45.3245 4.2593
L45.3849 4.3802
" />
<path d="M45.3849 4.3802
L45.3849 4.5617
" />
<path d="M45.3849 4.5617
L45.3245 4.6826
" />
<path d="M45.3245 4.6826
L45.2640 4.7431
" />
<path d="M45.2640 4.7431
L45.1430 4.8036
" />
<path d="M45.1430 4.8036
L44.6592 4.8036
" />
<path d="M45.8688 5.0455
L46.4735 5.0455
" />
<path d="M45.7478 5.4083
L46.1711 4.1383
" />
<path d="M46.1711 4.1383
L46.5945 5.4083
" />
<path d="M47.1993 4.6826
L47.0783 4.6221
" />
<path d="M47.0783 4.6221
L47.0178 4.5617
" />
<path d="M47.0178 4.5617
L46.9574 4.4407
" />
<path d="M46.9574 4.4407
L46.9574 4.3802
" />
<path d="M46.9574 4.3802
L47.0178 4.2593
" />
<path d="M47.0178 4.2593
L47.0783 4.1988
" />
<path d="M47.0783 4.1988
L47.1993 4.1383
" />
<path d="M47.1993 4.1383
L47.4412 4.1383
" />
<path d="M47.4412 4.1383
L47.5621 4.1988
" />
<path d="M47.5621 4.1988
L47.6226 4.2593
" />
<path d="M47.6226 4.2593
L47.6831 4.3802
" />
<path d="M47.6831 4.3802
L47.6831 4.4407
" />
<path d="M47.6831 4.4407
L47.6226 4.5617
" />
<path d="M47.6226 4.5617
L47.5621 4.6221
" />
<path d="M47.5621 4.6221
L47.4412 4.6826
" />
<path d="M47.4412 4.6826
L47.1993 4.6826
" />
<path d="M47.1993 4.6826
L47.0783 4.7431
" />
<path d="M47.0783 4.7431
L47.0178 4.8036
" />
<path d="M47.0178 4.8036
L46.9574 4.9245
" />
<path d="M46.9574 4.9245
L46.9574 5.1664
" />
<path d="M46.9574 5.1664
L47.0178 5.2874
" />
<path d="M47.0178 5.2874
L47.0783 5.3479
" />
<path d="M47.0783 5.3479
L47.1993 5.4083
" />
<path d="M47.1993 5.4083
L47.4412 5.4083
" />
<path d="M47.4412 5.4083
L47.5621 5.3479
" />
<path d="M47.5621 5.3479
L47.6226 5.2874
" />
<path d="M47.6226 5.2874
L47.6831 5.1664
" />
<path d="M47.6831 5.1664
L47.6831 4.9245
" />
<path d="M47.6831 4.9245
L47.6226 4.8036
" />
<path d="M47.6226 4.8036
L47.5621 4.7431
" />
<path d="M47.5621 4.7431
L47.4412 4.6826
" />
<path d="M48.8321 4.1383
L48.2273 4.1383
" />
<path d="M48.2273 4.1383
L48.1669 4.7431
" />
<path d="M48.1669 4.7431
L48.2273 4.6826
" />
<path d="M48.2273 4.6826
L48.3483 4.6221
" />
<path d="M48.3483 4.6221
L48.6507 4.6221
" />
<path d="M48.6507 4.6221
L48.7716 4.6826
" />
<path d="M48.7716 4.6826
L48.8321 4.7431
" />
<path d="M48.8321 4.7431
L48.8926 4.8640
" />
<path d="M48.8926 4.8640
L48.8926 5.1664
" />
<path d="M48.8926 5.1664
L48.8321 5.2874
" />
<path d="M48.8321 5.2874
L48.7716 5.3479
" />
<path d="M48.7716 5.3479
L48.6507 5.4083
" />
<path d="M48.6507 5.4083
L48.3483 5.4083
" />
<path d="M48.3483 5.4083
L48.2273 5.3479
" />
<path d="M48.2273 5.3479
L48.1669 5.2874
" />
<path d="M49.3159 4.1383
L50.1625 4.1383
" />
<path d="M50.1625 4.1383
L49.6183 5.4083
" />
</g></g> 
</svg>
