<?xml version="1.0" standalone="no"?>
 <!DOCTYPE svg PUBLIC "-//W3C//DTD SVG 1.1//EN" 
 "http://www.w3.org/Graphics/SVG/1.1/DTD/svg11.dtd"> 
<svg
  xmlns:svg="http://www.w3.org/2000/svg"
  xmlns="http://www.w3.org/2000/svg"
  xmlns:xlink="http://www.w3.org/1999/xlink"
  xmlns:inkscape="http://www.inkscape.org/namespaces/inkscape"
  version="1.1"
  width="100%" height="100%" viewBox="0.000000 0.000000 22.275800 5.791200">
<title>SVG Image created as OSC_CC250X200X80L70X75L.svg date 2026-04-16T02:04:36 </title>
  <desc>Image generated by PCBNEW </desc>
<g style="fill:#000000; fill-opacity:1.000000;stroke:#000000; stroke-opacity:1.000000;
stroke-linecap:round; stroke-linejoin:round;"
 transform="translate(0 0) scale(1 1)">
<path style="fill:#C83434; fill-opacity:1.000000; stroke:none;fill-rule:evenodd;"
d="M 10.215714,2.400000
9.335714,2.400000
9.335714,1.570000
10.215714,1.570000
Z" /> 
<path style="fill:#C83434; fill-opacity:1.000000; stroke:none;fill-rule:evenodd;"
d="M 12.105714,2.400000
11.225714,2.400000
11.225714,1.570000
12.105714,1.570000
Z" /> 
<path style="fill:#C83434; fill-opacity:1.000000; stroke:none;fill-rule:evenodd;"
d="M 12.105714,0.960000
11.225714,0.960000
11.225714,0.130000
12.105714,0.130000
Z" /> 
<path style="fill:#C83434; fill-opacity:1.000000; stroke:none;fill-rule:evenodd;"
d="M 10.215714,0.960000
9.335714,0.960000
9.335714,0.130000
10.215714,0.130000
Z" /> 
<path style="fill:#D864FF; fill-opacity:0.400000; stroke:none;fill-rule:evenodd;"
d="M 10.215714,2.400000
9.335714,2.400000
9.335714,1.570000
10.215714,1.570000
Z" /> 
<path style="fill:#D864FF; fill-opacity:0.400000; stroke:none;fill-rule:evenodd;"
d="M 12.105714,2.400000
11.225714,2.400000
11.225714,1.570000
12.105714,1.570000
Z" /> 
<path style="fill:#D864FF; fill-opacity:0.400000; stroke:none;fill-rule:evenodd;"
d="M 12.105714,0.960000
11.225714,0.960000
11.225714,0.130000
12.105714,0.130000
Z" /> 
<path style="fill:#D864FF; fill-opacity:0.400000; stroke:none;fill-rule:evenodd;"
d="M 10.215714,0.960000
9.335714,0.960000
9.335714,0.130000
10.215714,0.130000
Z" /> 
<path style="fill:#B4A09A; fill-opacity:0.900000; stroke:none;fill-rule:evenodd;"
d="M 10.215714,2.400000
9.335714,2.400000
9.335714,1.570000
10.215714,1.570000
Z" /> 
<path style="fill:#B4A09A; fill-opacity:0.900000; stroke:none;fill-rule:evenodd;"
d="M 12.105714,2.400000
11.225714,2.400000
11.225714,1.570000
12.105714,1.570000
Z" /> 
<path style="fill:#B4A09A; fill-opacity:0.900000; stroke:none;fill-rule:evenodd;"
d="M 12.105714,0.960000
11.225714,0.960000
11.225714,0.130000
12.105714,0.130000
Z" /> 
<path style="fill:#B4A09A; fill-opacity:0.900000; stroke:none;fill-rule:evenodd;"
d="M 10.215714,0.960000
9.335714,0.960000
9.335714,0.130000
10.215714,0.130000
Z" /> 
</g>
<g style="fill:none; 
stroke:#F2EDA1; stroke-width:0.050000; stroke-opacity:1; 
stroke-linecap:round; stroke-linejoin:round;">
<g transform="rotate(-90.000000 10.901814 0.631700)">
<text x="10.901814" y="0.731700"
textLength="0.967143" font-size="0.266666" lengthAdjust="spacingAndGlyphs"
text-anchor="middle" opacity="0" stroke-opacity="0">REF**</text>
</g>
<g class="stroked-text"><desc>REF**</desc>
<path d="M10.991737 0.898367
L10.896499 0.965033
" />
<path d="M10.991737 1.012652
L10.791737 1.012652
" />
<path d="M10.791737 1.012652
L10.791737 0.936462
" />
<path d="M10.791737 0.936462
L10.801261 0.917414
" />
<path d="M10.801261 0.917414
L10.810785 0.907891
" />
<path d="M10.810785 0.907891
L10.829833 0.898367
" />
<path d="M10.829833 0.898367
L10.858404 0.898367
" />
<path d="M10.858404 0.898367
L10.877452 0.907891
" />
<path d="M10.877452 0.907891
L10.886975 0.917414
" />
<path d="M10.886975 0.917414
L10.896499 0.936462
" />
<path d="M10.896499 0.936462
L10.896499 1.012652
" />
<path d="M10.886975 0.812652
L10.886975 0.745986
" />
<path d="M10.991737 0.717414
L10.991737 0.812652
" />
<path d="M10.991737 0.812652
L10.791737 0.812652
" />
<path d="M10.791737 0.812652
L10.791737 0.717414
" />
<path d="M10.886975 0.565034
L10.886975 0.631700
" />
<path d="M10.991737 0.631700
L10.791737 0.631700
" />
<path d="M10.791737 0.631700
L10.791737 0.536462
" />
<path d="M10.791737 0.431700
L10.839356 0.431700
" />
<path d="M10.820309 0.479319
L10.839356 0.431700
" />
<path d="M10.839356 0.431700
L10.820309 0.384081
" />
<path d="M10.877452 0.460271
L10.839356 0.431700
" />
<path d="M10.839356 0.431700
L10.877452 0.403129
" />
<path d="M10.791737 0.279319
L10.839356 0.279319
" />
<path d="M10.820309 0.326938
L10.839356 0.279319
" />
<path d="M10.839356 0.279319
L10.820309 0.231700
" />
<path d="M10.877452 0.307890
L10.839356 0.279319
" />
<path d="M10.839356 0.279319
L10.877452 0.250748
" />
</g><path d="M9.390714 1.420000
L9.390714 1.110000
" />
<path d="M9.445714 1.265000
L10.720714 1.265000
" />
<path d="M10.365714 2.345000
L11.075714 2.345000
" />
<path d="M10.720714 1.265000
L10.720714 2.315000
" />
<path d="M11.075714 0.185000
L10.365714 0.185000
" />
<path d="M12.050714 1.420000
L12.050714 1.110000
" />
</g>
<g style="fill:none; 
stroke:#FF26E2; stroke-width:0.050000; stroke-opacity:1; 
stroke-linecap:round; stroke-linejoin:round;">
<path d="M9.230714 0.025000
L12.210714 0.025000
" />
<path d="M9.230714 2.505000
L9.230714 0.025000
" />
<path d="M10.370714 1.265000
L11.070714 1.265000
" />
<path d="M10.720714 0.915000
L10.720714 1.615000
" />
<path d="M12.210714 0.025000
L12.210714 2.505000
" />
<path d="M12.210714 2.505000
L9.230714 2.505000
" />
<circle cx="10.720714" cy="1.265000" r="0.250000" /> 
</g>
<g style="fill:none; 
stroke:#AFAFAF; stroke-width:0.100000; stroke-opacity:1; 
stroke-linecap:round; stroke-linejoin:round;">
<text x="10.745714" y="3.965000"
textLength="4.385715" font-size="1.333333" lengthAdjust="spacingAndGlyphs"
text-anchor="middle" opacity="0" stroke-opacity="0">REF**</text>
<g class="stroked-text"><desc>REF**</desc>
<path d="M9.412381 3.922419
L9.079048 3.446228
" />
<path d="M8.840953 3.922419
L8.840953 2.922419
" />
<path d="M8.840953 2.922419
L9.221905 2.922419
" />
<path d="M9.221905 2.922419
L9.317143 2.970038
" />
<path d="M9.317143 2.970038
L9.364762 3.017657
" />
<path d="M9.364762 3.017657
L9.412381 3.112895
" />
<path d="M9.412381 3.112895
L9.412381 3.255752
" />
<path d="M9.412381 3.255752
L9.364762 3.350990
" />
<path d="M9.364762 3.350990
L9.317143 3.398609
" />
<path d="M9.317143 3.398609
L9.221905 3.446228
" />
<path d="M9.221905 3.446228
L8.840953 3.446228
" />
<path d="M9.840953 3.398609
L10.174286 3.398609
" />
<path d="M10.317143 3.922419
L9.840953 3.922419
" />
<path d="M9.840953 3.922419
L9.840953 2.922419
" />
<path d="M9.840953 2.922419
L10.317143 2.922419
" />
<path d="M11.079047 3.398609
L10.745714 3.398609
" />
<path d="M10.745714 3.922419
L10.745714 2.922419
" />
<path d="M10.745714 2.922419
L11.221904 2.922419
" />
<path d="M11.745714 2.922419
L11.745714 3.160514
" />
<path d="M11.507619 3.065276
L11.745714 3.160514
" />
<path d="M11.745714 3.160514
L11.983809 3.065276
" />
<path d="M11.602857 3.350990
L11.745714 3.160514
" />
<path d="M11.745714 3.160514
L11.888571 3.350990
" />
<path d="M12.507619 2.922419
L12.507619 3.160514
" />
<path d="M12.269524 3.065276
L12.507619 3.160514
" />
<path d="M12.507619 3.160514
L12.745714 3.065276
" />
<path d="M12.364762 3.350990
L12.507619 3.160514
" />
<path d="M12.507619 3.160514
L12.650476 3.350990
" />
</g></g>
<g style="fill:none; 
stroke:#AFAFAF; stroke-width:0.120000; stroke-opacity:1; 
stroke-linecap:round; stroke-linejoin:round;">
<text x="11.145714" y="5.490000"
textLength="22.291428" font-size="1.600000" lengthAdjust="spacingAndGlyphs"
text-anchor="middle" opacity="0" stroke-opacity="0">SG-210STF 66.6667ML3</text>
<g class="stroked-text"><desc>SG-210STF 66.6667ML3</desc>
<path d="M0.288572 5.381760
L0.460000 5.438902
" />
<path d="M0.460000 5.438902
L0.745715 5.438902
" />
<path d="M0.745715 5.438902
L0.860000 5.381760
" />
<path d="M0.860000 5.381760
L0.917143 5.324617
" />
<path d="M0.917143 5.324617
L0.974286 5.210331
" />
<path d="M0.974286 5.210331
L0.974286 5.096045
" />
<path d="M0.974286 5.096045
L0.917143 4.981760
" />
<path d="M0.917143 4.981760
L0.860000 4.924617
" />
<path d="M0.860000 4.924617
L0.745715 4.867474
" />
<path d="M0.745715 4.867474
L0.517143 4.810331
" />
<path d="M0.517143 4.810331
L0.402858 4.753188
" />
<path d="M0.402858 4.753188
L0.345715 4.696045
" />
<path d="M0.345715 4.696045
L0.288572 4.581760
" />
<path d="M0.288572 4.581760
L0.288572 4.467474
" />
<path d="M0.288572 4.467474
L0.345715 4.353188
" />
<path d="M0.345715 4.353188
L0.402858 4.296045
" />
<path d="M0.402858 4.296045
L0.517143 4.238902
" />
<path d="M0.517143 4.238902
L0.802858 4.238902
" />
<path d="M0.802858 4.238902
L0.974286 4.296045
" />
<path d="M2.117143 4.296045
L2.002857 4.238902
" />
<path d="M2.002857 4.238902
L1.831429 4.238902
" />
<path d="M1.831429 4.238902
L1.660000 4.296045
" />
<path d="M1.660000 4.296045
L1.545715 4.410331
" />
<path d="M1.545715 4.410331
L1.488572 4.524617
" />
<path d="M1.488572 4.524617
L1.431429 4.753188
" />
<path d="M1.431429 4.753188
L1.431429 4.924617
" />
<path d="M1.431429 4.924617
L1.488572 5.153188
" />
<path d="M1.488572 5.153188
L1.545715 5.267474
" />
<path d="M1.545715 5.267474
L1.660000 5.381760
" />
<path d="M1.660000 5.381760
L1.831429 5.438902
" />
<path d="M1.831429 5.438902
L1.945715 5.438902
" />
<path d="M1.945715 5.438902
L2.117143 5.381760
" />
<path d="M2.117143 5.381760
L2.174286 5.324617
" />
<path d="M2.174286 5.324617
L2.174286 4.924617
" />
<path d="M2.174286 4.924617
L1.945715 4.924617
" />
<path d="M2.688572 4.981760
L3.602857 4.981760
" />
<path d="M4.117143 4.353188
L4.174286 4.296045
" />
<path d="M4.174286 4.296045
L4.288571 4.238902
" />
<path d="M4.288571 4.238902
L4.574286 4.238902
" />
<path d="M4.574286 4.238902
L4.688571 4.296045
" />
<path d="M4.688571 4.296045
L4.745714 4.353188
" />
<path d="M4.745714 4.353188
L4.802857 4.467474
" />
<path d="M4.802857 4.467474
L4.802857 4.581760
" />
<path d="M4.802857 4.581760
L4.745714 4.753188
" />
<path d="M4.745714 4.753188
L4.060000 5.438902
" />
<path d="M4.060000 5.438902
L4.802857 5.438902
" />
<path d="M5.945714 5.438902
L5.260000 5.438902
" />
<path d="M5.602857 5.438902
L5.602857 4.238902
" />
<path d="M5.602857 4.238902
L5.488571 4.410331
" />
<path d="M5.488571 4.410331
L5.374286 4.524617
" />
<path d="M5.374286 4.524617
L5.260000 4.581760
" />
<path d="M6.688571 4.238902
L6.802857 4.238902
" />
<path d="M6.802857 4.238902
L6.917143 4.296045
" />
<path d="M6.917143 4.296045
L6.974285 4.353188
" />
<path d="M6.974285 4.353188
L7.031428 4.467474
" />
<path d="M7.031428 4.467474
L7.088571 4.696045
" />
<path d="M7.088571 4.696045
L7.088571 4.981760
" />
<path d="M7.088571 4.981760
L7.031428 5.210331
" />
<path d="M7.031428 5.210331
L6.974285 5.324617
" />
<path d="M6.974285 5.324617
L6.917143 5.381760
" />
<path d="M6.917143 5.381760
L6.802857 5.438902
" />
<path d="M6.802857 5.438902
L6.688571 5.438902
" />
<path d="M6.688571 5.438902
L6.574285 5.381760
" />
<path d="M6.574285 5.381760
L6.517143 5.324617
" />
<path d="M6.517143 5.324617
L6.460000 5.210331
" />
<path d="M6.460000 5.210331
L6.402857 4.981760
" />
<path d="M6.402857 4.981760
L6.402857 4.696045
" />
<path d="M6.402857 4.696045
L6.460000 4.467474
" />
<path d="M6.460000 4.467474
L6.517143 4.353188
" />
<path d="M6.517143 4.353188
L6.574285 4.296045
" />
<path d="M6.574285 4.296045
L6.688571 4.238902
" />
<path d="M7.545714 5.381760
L7.717142 5.438902
" />
<path d="M7.717142 5.438902
L8.002857 5.438902
" />
<path d="M8.002857 5.438902
L8.117142 5.381760
" />
<path d="M8.117142 5.381760
L8.174285 5.324617
" />
<path d="M8.174285 5.324617
L8.231428 5.210331
" />
<path d="M8.231428 5.210331
L8.231428 5.096045
" />
<path d="M8.231428 5.096045
L8.174285 4.981760
" />
<path d="M8.174285 4.981760
L8.117142 4.924617
" />
<path d="M8.117142 4.924617
L8.002857 4.867474
" />
<path d="M8.002857 4.867474
L7.774285 4.810331
" />
<path d="M7.774285 4.810331
L7.660000 4.753188
" />
<path d="M7.660000 4.753188
L7.602857 4.696045
" />
<path d="M7.602857 4.696045
L7.545714 4.581760
" />
<path d="M7.545714 4.581760
L7.545714 4.467474
" />
<path d="M7.545714 4.467474
L7.602857 4.353188
" />
<path d="M7.602857 4.353188
L7.660000 4.296045
" />
<path d="M7.660000 4.296045
L7.774285 4.238902
" />
<path d="M7.774285 4.238902
L8.060000 4.238902
" />
<path d="M8.060000 4.238902
L8.231428 4.296045
" />
<path d="M8.574285 4.238902
L9.259999 4.238902
" />
<path d="M8.917142 5.438902
L8.917142 4.238902
" />
<path d="M10.060000 4.810331
L9.660000 4.810331
" />
<path d="M9.660000 5.438902
L9.660000 4.238902
" />
<path d="M9.660000 4.238902
L10.231428 4.238902
" />
<path d="M12.117142 4.238902
L11.888570 4.238902
" />
<path d="M11.888570 4.238902
L11.774284 4.296045
" />
<path d="M11.774284 4.296045
L11.717142 4.353188
" />
<path d="M11.717142 4.353188
L11.602856 4.524617
" />
<path d="M11.602856 4.524617
L11.545713 4.753188
" />
<path d="M11.545713 4.753188
L11.545713 5.210331
" />
<path d="M11.545713 5.210331
L11.602856 5.324617
" />
<path d="M11.602856 5.324617
L11.659999 5.381760
" />
<path d="M11.659999 5.381760
L11.774284 5.438902
" />
<path d="M11.774284 5.438902
L12.002856 5.438902
" />
<path d="M12.002856 5.438902
L12.117142 5.381760
" />
<path d="M12.117142 5.381760
L12.174284 5.324617
" />
<path d="M12.174284 5.324617
L12.231427 5.210331
" />
<path d="M12.231427 5.210331
L12.231427 4.924617
" />
<path d="M12.231427 4.924617
L12.174284 4.810331
" />
<path d="M12.174284 4.810331
L12.117142 4.753188
" />
<path d="M12.117142 4.753188
L12.002856 4.696045
" />
<path d="M12.002856 4.696045
L11.774284 4.696045
" />
<path d="M11.774284 4.696045
L11.659999 4.753188
" />
<path d="M11.659999 4.753188
L11.602856 4.810331
" />
<path d="M11.602856 4.810331
L11.545713 4.924617
" />
<path d="M13.259999 4.238902
L13.031427 4.238902
" />
<path d="M13.031427 4.238902
L12.917141 4.296045
" />
<path d="M12.917141 4.296045
L12.859999 4.353188
" />
<path d="M12.859999 4.353188
L12.745713 4.524617
" />
<path d="M12.745713 4.524617
L12.688570 4.753188
" />
<path d="M12.688570 4.753188
L12.688570 5.210331
" />
<path d="M12.688570 5.210331
L12.745713 5.324617
" />
<path d="M12.745713 5.324617
L12.802856 5.381760
" />
<path d="M12.802856 5.381760
L12.917141 5.438902
" />
<path d="M12.917141 5.438902
L13.145713 5.438902
" />
<path d="M13.145713 5.438902
L13.259999 5.381760
" />
<path d="M13.259999 5.381760
L13.317141 5.324617
" />
<path d="M13.317141 5.324617
L13.374284 5.210331
" />
<path d="M13.374284 5.210331
L13.374284 4.924617
" />
<path d="M13.374284 4.924617
L13.317141 4.810331
" />
<path d="M13.317141 4.810331
L13.259999 4.753188
" />
<path d="M13.259999 4.753188
L13.145713 4.696045
" />
<path d="M13.145713 4.696045
L12.917141 4.696045
" />
<path d="M12.917141 4.696045
L12.802856 4.753188
" />
<path d="M12.802856 4.753188
L12.745713 4.810331
" />
<path d="M12.745713 4.810331
L12.688570 4.924617
" />
<path d="M13.888570 5.324617
L13.945713 5.381760
" />
<path d="M13.945713 5.381760
L13.888570 5.438902
" />
<path d="M13.888570 5.438902
L13.831427 5.381760
" />
<path d="M13.831427 5.381760
L13.888570 5.324617
" />
<path d="M13.888570 5.324617
L13.888570 5.438902
" />
<path d="M14.974285 4.238902
L14.745713 4.238902
" />
<path d="M14.745713 4.238902
L14.631427 4.296045
" />
<path d="M14.631427 4.296045
L14.574285 4.353188
" />
<path d="M14.574285 4.353188
L14.459999 4.524617
" />
<path d="M14.459999 4.524617
L14.402856 4.753188
" />
<path d="M14.402856 4.753188
L14.402856 5.210331
" />
<path d="M14.402856 5.210331
L14.459999 5.324617
" />
<path d="M14.459999 5.324617
L14.517142 5.381760
" />
<path d="M14.517142 5.381760
L14.631427 5.438902
" />
<path d="M14.631427 5.438902
L14.859999 5.438902
" />
<path d="M14.859999 5.438902
L14.974285 5.381760
" />
<path d="M14.974285 5.381760
L15.031427 5.324617
" />
<path d="M15.031427 5.324617
L15.088570 5.210331
" />
<path d="M15.088570 5.210331
L15.088570 4.924617
" />
<path d="M15.088570 4.924617
L15.031427 4.810331
" />
<path d="M15.031427 4.810331
L14.974285 4.753188
" />
<path d="M14.974285 4.753188
L14.859999 4.696045
" />
<path d="M14.859999 4.696045
L14.631427 4.696045
" />
<path d="M14.631427 4.696045
L14.517142 4.753188
" />
<path d="M14.517142 4.753188
L14.459999 4.810331
" />
<path d="M14.459999 4.810331
L14.402856 4.924617
" />
<path d="M16.117142 4.238902
L15.888570 4.238902
" />
<path d="M15.888570 4.238902
L15.774284 4.296045
" />
<path d="M15.774284 4.296045
L15.717142 4.353188
" />
<path d="M15.717142 4.353188
L15.602856 4.524617
" />
<path d="M15.602856 4.524617
L15.545713 4.753188
" />
<path d="M15.545713 4.753188
L15.545713 5.210331
" />
<path d="M15.545713 5.210331
L15.602856 5.324617
" />
<path d="M15.602856 5.324617
L15.659999 5.381760
" />
<path d="M15.659999 5.381760
L15.774284 5.438902
" />
<path d="M15.774284 5.438902
L16.002856 5.438902
" />
<path d="M16.002856 5.438902
L16.117142 5.381760
" />
<path d="M16.117142 5.381760
L16.174284 5.324617
" />
<path d="M16.174284 5.324617
L16.231427 5.210331
" />
<path d="M16.231427 5.210331
L16.231427 4.924617
" />
<path d="M16.231427 4.924617
L16.174284 4.810331
" />
<path d="M16.174284 4.810331
L16.117142 4.753188
" />
<path d="M16.117142 4.753188
L16.002856 4.696045
" />
<path d="M16.002856 4.696045
L15.774284 4.696045
" />
<path d="M15.774284 4.696045
L15.659999 4.753188
" />
<path d="M15.659999 4.753188
L15.602856 4.810331
" />
<path d="M15.602856 4.810331
L15.545713 4.924617
" />
<path d="M17.259999 4.238902
L17.031427 4.238902
" />
<path d="M17.031427 4.238902
L16.917141 4.296045
" />
<path d="M16.917141 4.296045
L16.859999 4.353188
" />
<path d="M16.859999 4.353188
L16.745713 4.524617
" />
<path d="M16.745713 4.524617
L16.688570 4.753188
" />
<path d="M16.688570 4.753188
L16.688570 5.210331
" />
<path d="M16.688570 5.210331
L16.745713 5.324617
" />
<path d="M16.745713 5.324617
L16.802856 5.381760
" />
<path d="M16.802856 5.381760
L16.917141 5.438902
" />
<path d="M16.917141 5.438902
L17.145713 5.438902
" />
<path d="M17.145713 5.438902
L17.259999 5.381760
" />
<path d="M17.259999 5.381760
L17.317141 5.324617
" />
<path d="M17.317141 5.324617
L17.374284 5.210331
" />
<path d="M17.374284 5.210331
L17.374284 4.924617
" />
<path d="M17.374284 4.924617
L17.317141 4.810331
" />
<path d="M17.317141 4.810331
L17.259999 4.753188
" />
<path d="M17.259999 4.753188
L17.145713 4.696045
" />
<path d="M17.145713 4.696045
L16.917141 4.696045
" />
<path d="M16.917141 4.696045
L16.802856 4.753188
" />
<path d="M16.802856 4.753188
L16.745713 4.810331
" />
<path d="M16.745713 4.810331
L16.688570 4.924617
" />
<path d="M17.774284 4.238902
L18.574284 4.238902
" />
<path d="M18.574284 4.238902
L18.059998 5.438902
" />
<path d="M19.031427 5.438902
L19.031427 4.238902
" />
<path d="M19.031427 4.238902
L19.431427 5.096045
" />
<path d="M19.431427 5.096045
L19.831427 4.238902
" />
<path d="M19.831427 4.238902
L19.831427 5.438902
" />
<path d="M20.974284 5.438902
L20.402856 5.438902
" />
<path d="M20.402856 5.438902
L20.402856 4.238902
" />
<path d="M21.259999 4.238902
L22.002856 4.238902
" />
<path d="M22.002856 4.238902
L21.602856 4.696045
" />
<path d="M21.602856 4.696045
L21.774285 4.696045
" />
<path d="M21.774285 4.696045
L21.888571 4.753188
" />
<path d="M21.888571 4.753188
L21.945713 4.810331
" />
<path d="M21.945713 4.810331
L22.002856 4.924617
" />
<path d="M22.002856 4.924617
L22.002856 5.210331
" />
<path d="M22.002856 5.210331
L21.945713 5.324617
" />
<path d="M21.945713 5.324617
L21.888571 5.381760
" />
<path d="M21.888571 5.381760
L21.774285 5.438902
" />
<path d="M21.774285 5.438902
L21.431428 5.438902
" />
<path d="M21.431428 5.438902
L21.317142 5.381760
" />
<path d="M21.317142 5.381760
L21.259999 5.324617
" />
</g><path d="M9.440714 0.235000
L12.000714 0.235000
" />
<path d="M9.440714 2.295000
L9.440714 0.235000
" />
<path d="M12.000714 0.235000
L12.000714 2.295000
" />
<path d="M12.000714 2.295000
L9.440714 2.295000
" />
</g>
<g style="fill:none; 
stroke:#C2C2C2; stroke-width:0.025000; stroke-opacity:1; 
stroke-linecap:round; stroke-linejoin:round;">
<path d="M9.470714 0.265000
L10.220714 0.265000
" />
<path d="M9.470714 0.265000
L11.970714 0.265000
" />
<path d="M9.470714 0.965000
L9.470714 0.265000
" />
<path d="M9.470714 1.565000
L10.220714 1.565000
" />
<path d="M9.470714 2.265000
L9.470714 0.265000
" />
<path d="M9.470714 2.265000
L9.470714 1.565000
" />
<path d="M10.220714 0.265000
L10.220714 0.965000
" />
<path d="M10.220714 0.965000
L9.470714 0.965000
" />
<path d="M10.220714 1.565000
L10.220714 2.265000
" />
<path d="M10.220714 2.265000
L9.470714 2.265000
" />
<path d="M11.220714 0.265000
L11.970714 0.265000
" />
<path d="M11.220714 0.965000
L11.220714 0.265000
" />
<path d="M11.220714 1.565000
L11.970714 1.565000
" />
<path d="M11.220714 2.265000
L11.220714 1.565000
" />
<path d="M11.970714 0.265000
L11.970714 0.965000
" />
<path d="M11.970714 0.265000
L11.970714 2.265000
" />
<path d="M11.970714 0.965000
L11.220714 0.965000
" />
<path d="M11.970714 1.565000
L11.970714 2.265000
" />
<path d="M11.970714 2.265000
L9.470714 2.265000
" />
<path d="M11.970714 2.265000
L11.220714 2.265000
" />
</g> 
</svg>
