<?xml version="1.0" standalone="no"?>
 <!DOCTYPE svg PUBLIC "-//W3C//DTD SVG 1.1//EN" 
 "http://www.w3.org/Graphics/SVG/1.1/DTD/svg11.dtd"> 
<svg
  xmlns:svg="http://www.w3.org/2000/svg"
  xmlns="http://www.w3.org/2000/svg"
  xmlns:xlink="http://www.w3.org/1999/xlink"
  xmlns:inkscape="http://www.inkscape.org/namespaces/inkscape"
  version="1.1"
  width="100%" height="100%" viewBox="0.000000 0.000000 19.024600 5.588000">
<title>SVG Image created as QFN_33_P50_500X500X80L40X24T310L.svg date 2026-04-16T00:47:52 </title>
  <desc>Image generated by PCBNEW </desc>
<g style="fill:#000000; fill-opacity:1.000000;stroke:#000000; stroke-opacity:1.000000;
stroke-linecap:round; stroke-linejoin:round;"
 transform="translate(0 0) scale(1 1)">
<path style="fill:#C83434; fill-opacity:1.000000; stroke:none;fill-rule:evenodd;"
d="M 7.897142,5.475000
7.637142,5.475000
7.637142,4.795000
7.897142,4.795000
Z" /> 
<path style="fill:#C83434; fill-opacity:1.000000; stroke:none;fill-rule:evenodd;"
d="M 8.397142,5.475000
8.137142,5.475000
8.137142,4.795000
8.397142,4.795000
Z" /> 
<path style="fill:#C83434; fill-opacity:1.000000; stroke:none;fill-rule:evenodd;"
d="M 8.897142,5.475000
8.637142,5.475000
8.637142,4.795000
8.897142,4.795000
Z" /> 
<path style="fill:#C83434; fill-opacity:1.000000; stroke:none;fill-rule:evenodd;"
d="M 9.397142,5.475000
9.137142,5.475000
9.137142,4.795000
9.397142,4.795000
Z" /> 
<path style="fill:#C83434; fill-opacity:1.000000; stroke:none;fill-rule:evenodd;"
d="M 9.897142,5.475000
9.637142,5.475000
9.637142,4.795000
9.897142,4.795000
Z" /> 
<path style="fill:#C83434; fill-opacity:1.000000; stroke:none;fill-rule:evenodd;"
d="M 10.397142,5.475000
10.137142,5.475000
10.137142,4.795000
10.397142,4.795000
Z" /> 
<path style="fill:#C83434; fill-opacity:1.000000; stroke:none;fill-rule:evenodd;"
d="M 10.897142,5.475000
10.637142,5.475000
10.637142,4.795000
10.897142,4.795000
Z" /> 
<path style="fill:#C83434; fill-opacity:1.000000; stroke:none;fill-rule:evenodd;"
d="M 11.397142,5.475000
11.137142,5.475000
11.137142,4.795000
11.397142,4.795000
Z" /> 
<path style="fill:#C83434; fill-opacity:1.000000; stroke:none;fill-rule:evenodd;"
d="M 11.512142,4.680000
11.512142,4.420000
12.192142,4.420000
12.192142,4.680000
Z" /> 
<path style="fill:#C83434; fill-opacity:1.000000; stroke:none;fill-rule:evenodd;"
d="M 11.512142,4.180000
11.512142,3.920000
12.192142,3.920000
12.192142,4.180000
Z" /> 
<path style="fill:#C83434; fill-opacity:1.000000; stroke:none;fill-rule:evenodd;"
d="M 11.512142,3.680000
11.512142,3.420000
12.192142,3.420000
12.192142,3.680000
Z" /> 
<path style="fill:#C83434; fill-opacity:1.000000; stroke:none;fill-rule:evenodd;"
d="M 11.512142,3.180000
11.512142,2.920000
12.192142,2.920000
12.192142,3.180000
Z" /> 
<path style="fill:#C83434; fill-opacity:1.000000; stroke:none;fill-rule:evenodd;"
d="M 11.512142,2.680000
11.512142,2.420000
12.192142,2.420000
12.192142,2.680000
Z" /> 
<path style="fill:#C83434; fill-opacity:1.000000; stroke:none;fill-rule:evenodd;"
d="M 11.512142,2.180000
11.512142,1.920000
12.192142,1.920000
12.192142,2.180000
Z" /> 
<path style="fill:#C83434; fill-opacity:1.000000; stroke:none;fill-rule:evenodd;"
d="M 11.512142,1.680000
11.512142,1.420000
12.192142,1.420000
12.192142,1.680000
Z" /> 
<path style="fill:#C83434; fill-opacity:1.000000; stroke:none;fill-rule:evenodd;"
d="M 11.512142,1.180000
11.512142,0.920000
12.192142,0.920000
12.192142,1.180000
Z" /> 
<path style="fill:#C83434; fill-opacity:1.000000; stroke:none;fill-rule:evenodd;"
d="M 11.397142,0.805000
11.137142,0.805000
11.137142,0.125000
11.397142,0.125000
Z" /> 
<path style="fill:#C83434; fill-opacity:1.000000; stroke:none;fill-rule:evenodd;"
d="M 10.897142,0.805000
10.637142,0.805000
10.637142,0.125000
10.897142,0.125000
Z" /> 
<path style="fill:#C83434; fill-opacity:1.000000; stroke:none;fill-rule:evenodd;"
d="M 10.397142,0.805000
10.137142,0.805000
10.137142,0.125000
10.397142,0.125000
Z" /> 
<path style="fill:#C83434; fill-opacity:1.000000; stroke:none;fill-rule:evenodd;"
d="M 9.897142,0.805000
9.637142,0.805000
9.637142,0.125000
9.897142,0.125000
Z" /> 
<path style="fill:#C83434; fill-opacity:1.000000; stroke:none;fill-rule:evenodd;"
d="M 9.397142,0.805000
9.137142,0.805000
9.137142,0.125000
9.397142,0.125000
Z" /> 
<path style="fill:#C83434; fill-opacity:1.000000; stroke:none;fill-rule:evenodd;"
d="M 8.897142,0.805000
8.637142,0.805000
8.637142,0.125000
8.897142,0.125000
Z" /> 
<path style="fill:#C83434; fill-opacity:1.000000; stroke:none;fill-rule:evenodd;"
d="M 8.397142,0.805000
8.137142,0.805000
8.137142,0.125000
8.397142,0.125000
Z" /> 
<path style="fill:#C83434; fill-opacity:1.000000; stroke:none;fill-rule:evenodd;"
d="M 7.897142,0.805000
7.637142,0.805000
7.637142,0.125000
7.897142,0.125000
Z" /> 
<path style="fill:#C83434; fill-opacity:1.000000; stroke:none;fill-rule:evenodd;"
d="M 6.842142,1.180000
6.842142,0.920000
7.522142,0.920000
7.522142,1.180000
Z" /> 
<path style="fill:#C83434; fill-opacity:1.000000; stroke:none;fill-rule:evenodd;"
d="M 6.842142,1.680000
6.842142,1.420000
7.522142,1.420000
7.522142,1.680000
Z" /> 
<path style="fill:#C83434; fill-opacity:1.000000; stroke:none;fill-rule:evenodd;"
d="M 6.842142,2.180000
6.842142,1.920000
7.522142,1.920000
7.522142,2.180000
Z" /> 
<path style="fill:#C83434; fill-opacity:1.000000; stroke:none;fill-rule:evenodd;"
d="M 6.842142,2.680000
6.842142,2.420000
7.522142,2.420000
7.522142,2.680000
Z" /> 
<path style="fill:#C83434; fill-opacity:1.000000; stroke:none;fill-rule:evenodd;"
d="M 6.842142,3.180000
6.842142,2.920000
7.522142,2.920000
7.522142,3.180000
Z" /> 
<path style="fill:#C83434; fill-opacity:1.000000; stroke:none;fill-rule:evenodd;"
d="M 6.842142,3.680000
6.842142,3.420000
7.522142,3.420000
7.522142,3.680000
Z" /> 
<path style="fill:#C83434; fill-opacity:1.000000; stroke:none;fill-rule:evenodd;"
d="M 6.842142,4.180000
6.842142,3.920000
7.522142,3.920000
7.522142,4.180000
Z" /> 
<path style="fill:#C83434; fill-opacity:1.000000; stroke:none;fill-rule:evenodd;"
d="M 6.842142,4.680000
6.842142,4.420000
7.522142,4.420000
7.522142,4.680000
Z" /> 
<path style="fill:#C83434; fill-opacity:1.000000; stroke:none;fill-rule:evenodd;"
d="M 7.967142,4.350000
7.967142,1.250000
11.067142,1.250000
11.067142,4.350000
Z" /> 
<path style="fill:#D864FF; fill-opacity:0.400000; stroke:none;fill-rule:evenodd;"
d="M 7.897142,5.475000
7.637142,5.475000
7.637142,4.795000
7.897142,4.795000
Z" /> 
<path style="fill:#D864FF; fill-opacity:0.400000; stroke:none;fill-rule:evenodd;"
d="M 8.397142,5.475000
8.137142,5.475000
8.137142,4.795000
8.397142,4.795000
Z" /> 
<path style="fill:#D864FF; fill-opacity:0.400000; stroke:none;fill-rule:evenodd;"
d="M 8.897142,5.475000
8.637142,5.475000
8.637142,4.795000
8.897142,4.795000
Z" /> 
<path style="fill:#D864FF; fill-opacity:0.400000; stroke:none;fill-rule:evenodd;"
d="M 9.397142,5.475000
9.137142,5.475000
9.137142,4.795000
9.397142,4.795000
Z" /> 
<path style="fill:#D864FF; fill-opacity:0.400000; stroke:none;fill-rule:evenodd;"
d="M 9.897142,5.475000
9.637142,5.475000
9.637142,4.795000
9.897142,4.795000
Z" /> 
<path style="fill:#D864FF; fill-opacity:0.400000; stroke:none;fill-rule:evenodd;"
d="M 10.397142,5.475000
10.137142,5.475000
10.137142,4.795000
10.397142,4.795000
Z" /> 
<path style="fill:#D864FF; fill-opacity:0.400000; stroke:none;fill-rule:evenodd;"
d="M 10.897142,5.475000
10.637142,5.475000
10.637142,4.795000
10.897142,4.795000
Z" /> 
<path style="fill:#D864FF; fill-opacity:0.400000; stroke:none;fill-rule:evenodd;"
d="M 11.397142,5.475000
11.137142,5.475000
11.137142,4.795000
11.397142,4.795000
Z" /> 
<path style="fill:#D864FF; fill-opacity:0.400000; stroke:none;fill-rule:evenodd;"
d="M 11.512142,4.680000
11.512142,4.420000
12.192142,4.420000
12.192142,4.680000
Z" /> 
<path style="fill:#D864FF; fill-opacity:0.400000; stroke:none;fill-rule:evenodd;"
d="M 11.512142,4.180000
11.512142,3.920000
12.192142,3.920000
12.192142,4.180000
Z" /> 
<path style="fill:#D864FF; fill-opacity:0.400000; stroke:none;fill-rule:evenodd;"
d="M 11.512142,3.680000
11.512142,3.420000
12.192142,3.420000
12.192142,3.680000
Z" /> 
<path style="fill:#D864FF; fill-opacity:0.400000; stroke:none;fill-rule:evenodd;"
d="M 11.512142,3.180000
11.512142,2.920000
12.192142,2.920000
12.192142,3.180000
Z" /> 
<path style="fill:#D864FF; fill-opacity:0.400000; stroke:none;fill-rule:evenodd;"
d="M 11.512142,2.680000
11.512142,2.420000
12.192142,2.420000
12.192142,2.680000
Z" /> 
<path style="fill:#D864FF; fill-opacity:0.400000; stroke:none;fill-rule:evenodd;"
d="M 11.512142,2.180000
11.512142,1.920000
12.192142,1.920000
12.192142,2.180000
Z" /> 
<path style="fill:#D864FF; fill-opacity:0.400000; stroke:none;fill-rule:evenodd;"
d="M 11.512142,1.680000
11.512142,1.420000
12.192142,1.420000
12.192142,1.680000
Z" /> 
<path style="fill:#D864FF; fill-opacity:0.400000; stroke:none;fill-rule:evenodd;"
d="M 11.512142,1.180000
11.512142,0.920000
12.192142,0.920000
12.192142,1.180000
Z" /> 
<path style="fill:#D864FF; fill-opacity:0.400000; stroke:none;fill-rule:evenodd;"
d="M 11.397142,0.805000
11.137142,0.805000
11.137142,0.125000
11.397142,0.125000
Z" /> 
<path style="fill:#D864FF; fill-opacity:0.400000; stroke:none;fill-rule:evenodd;"
d="M 10.897142,0.805000
10.637142,0.805000
10.637142,0.125000
10.897142,0.125000
Z" /> 
<path style="fill:#D864FF; fill-opacity:0.400000; stroke:none;fill-rule:evenodd;"
d="M 10.397142,0.805000
10.137142,0.805000
10.137142,0.125000
10.397142,0.125000
Z" /> 
<path style="fill:#D864FF; fill-opacity:0.400000; stroke:none;fill-rule:evenodd;"
d="M 9.897142,0.805000
9.637142,0.805000
9.637142,0.125000
9.897142,0.125000
Z" /> 
<path style="fill:#D864FF; fill-opacity:0.400000; stroke:none;fill-rule:evenodd;"
d="M 9.397142,0.805000
9.137142,0.805000
9.137142,0.125000
9.397142,0.125000
Z" /> 
<path style="fill:#D864FF; fill-opacity:0.400000; stroke:none;fill-rule:evenodd;"
d="M 8.897142,0.805000
8.637142,0.805000
8.637142,0.125000
8.897142,0.125000
Z" /> 
<path style="fill:#D864FF; fill-opacity:0.400000; stroke:none;fill-rule:evenodd;"
d="M 8.397142,0.805000
8.137142,0.805000
8.137142,0.125000
8.397142,0.125000
Z" /> 
<path style="fill:#D864FF; fill-opacity:0.400000; stroke:none;fill-rule:evenodd;"
d="M 7.897142,0.805000
7.637142,0.805000
7.637142,0.125000
7.897142,0.125000
Z" /> 
<path style="fill:#D864FF; fill-opacity:0.400000; stroke:none;fill-rule:evenodd;"
d="M 6.842142,1.180000
6.842142,0.920000
7.522142,0.920000
7.522142,1.180000
Z" /> 
<path style="fill:#D864FF; fill-opacity:0.400000; stroke:none;fill-rule:evenodd;"
d="M 6.842142,1.680000
6.842142,1.420000
7.522142,1.420000
7.522142,1.680000
Z" /> 
<path style="fill:#D864FF; fill-opacity:0.400000; stroke:none;fill-rule:evenodd;"
d="M 6.842142,2.180000
6.842142,1.920000
7.522142,1.920000
7.522142,2.180000
Z" /> 
<path style="fill:#D864FF; fill-opacity:0.400000; stroke:none;fill-rule:evenodd;"
d="M 6.842142,2.680000
6.842142,2.420000
7.522142,2.420000
7.522142,2.680000
Z" /> 
<path style="fill:#D864FF; fill-opacity:0.400000; stroke:none;fill-rule:evenodd;"
d="M 6.842142,3.180000
6.842142,2.920000
7.522142,2.920000
7.522142,3.180000
Z" /> 
<path style="fill:#D864FF; fill-opacity:0.400000; stroke:none;fill-rule:evenodd;"
d="M 6.842142,3.680000
6.842142,3.420000
7.522142,3.420000
7.522142,3.680000
Z" /> 
<path style="fill:#D864FF; fill-opacity:0.400000; stroke:none;fill-rule:evenodd;"
d="M 6.842142,4.180000
6.842142,3.920000
7.522142,3.920000
7.522142,4.180000
Z" /> 
<path style="fill:#D864FF; fill-opacity:0.400000; stroke:none;fill-rule:evenodd;"
d="M 6.842142,4.680000
6.842142,4.420000
7.522142,4.420000
7.522142,4.680000
Z" /> 
<path style="fill:#D864FF; fill-opacity:0.400000; stroke:none;fill-rule:evenodd;"
d="M 7.967142,4.350000
7.967142,1.250000
11.067142,1.250000
11.067142,4.350000
Z" /> 
<path style="fill:#B4A09A; fill-opacity:0.900000; stroke:none;fill-rule:evenodd;"
d="M 9.417142,2.700000
8.067142,2.700000
8.067142,1.350000
9.417142,1.350000
Z" /> 
<path style="fill:#B4A09A; fill-opacity:0.900000; stroke:none;fill-rule:evenodd;"
d="M 9.417142,4.250000
8.067142,4.250000
8.067142,2.900000
9.417142,2.900000
Z" /> 
<path style="fill:#B4A09A; fill-opacity:0.900000; stroke:none;fill-rule:evenodd;"
d="M 10.967142,2.700000
9.617142,2.700000
9.617142,1.350000
10.967142,1.350000
Z" /> 
<path style="fill:#B4A09A; fill-opacity:0.900000; stroke:none;fill-rule:evenodd;"
d="M 10.967142,4.250000
9.617142,4.250000
9.617142,2.900000
10.967142,2.900000
Z" /> 
<path style="fill:#B4A09A; fill-opacity:0.900000; stroke:none;fill-rule:evenodd;"
d="M 7.897142,5.475000
7.637142,5.475000
7.637142,4.795000
7.897142,4.795000
Z" /> 
<path style="fill:#B4A09A; fill-opacity:0.900000; stroke:none;fill-rule:evenodd;"
d="M 8.397142,5.475000
8.137142,5.475000
8.137142,4.795000
8.397142,4.795000
Z" /> 
<path style="fill:#B4A09A; fill-opacity:0.900000; stroke:none;fill-rule:evenodd;"
d="M 8.897142,5.475000
8.637142,5.475000
8.637142,4.795000
8.897142,4.795000
Z" /> 
<path style="fill:#B4A09A; fill-opacity:0.900000; stroke:none;fill-rule:evenodd;"
d="M 9.397142,5.475000
9.137142,5.475000
9.137142,4.795000
9.397142,4.795000
Z" /> 
<path style="fill:#B4A09A; fill-opacity:0.900000; stroke:none;fill-rule:evenodd;"
d="M 9.897142,5.475000
9.637142,5.475000
9.637142,4.795000
9.897142,4.795000
Z" /> 
<path style="fill:#B4A09A; fill-opacity:0.900000; stroke:none;fill-rule:evenodd;"
d="M 10.397142,5.475000
10.137142,5.475000
10.137142,4.795000
10.397142,4.795000
Z" /> 
<path style="fill:#B4A09A; fill-opacity:0.900000; stroke:none;fill-rule:evenodd;"
d="M 10.897142,5.475000
10.637142,5.475000
10.637142,4.795000
10.897142,4.795000
Z" /> 
<path style="fill:#B4A09A; fill-opacity:0.900000; stroke:none;fill-rule:evenodd;"
d="M 11.397142,5.475000
11.137142,5.475000
11.137142,4.795000
11.397142,4.795000
Z" /> 
<path style="fill:#B4A09A; fill-opacity:0.900000; stroke:none;fill-rule:evenodd;"
d="M 11.512142,4.680000
11.512142,4.420000
12.192142,4.420000
12.192142,4.680000
Z" /> 
<path style="fill:#B4A09A; fill-opacity:0.900000; stroke:none;fill-rule:evenodd;"
d="M 11.512142,4.180000
11.512142,3.920000
12.192142,3.920000
12.192142,4.180000
Z" /> 
<path style="fill:#B4A09A; fill-opacity:0.900000; stroke:none;fill-rule:evenodd;"
d="M 11.512142,3.680000
11.512142,3.420000
12.192142,3.420000
12.192142,3.680000
Z" /> 
<path style="fill:#B4A09A; fill-opacity:0.900000; stroke:none;fill-rule:evenodd;"
d="M 11.512142,3.180000
11.512142,2.920000
12.192142,2.920000
12.192142,3.180000
Z" /> 
<path style="fill:#B4A09A; fill-opacity:0.900000; stroke:none;fill-rule:evenodd;"
d="M 11.512142,2.680000
11.512142,2.420000
12.192142,2.420000
12.192142,2.680000
Z" /> 
<path style="fill:#B4A09A; fill-opacity:0.900000; stroke:none;fill-rule:evenodd;"
d="M 11.512142,2.180000
11.512142,1.920000
12.192142,1.920000
12.192142,2.180000
Z" /> 
<path style="fill:#B4A09A; fill-opacity:0.900000; stroke:none;fill-rule:evenodd;"
d="M 11.512142,1.680000
11.512142,1.420000
12.192142,1.420000
12.192142,1.680000
Z" /> 
<path style="fill:#B4A09A; fill-opacity:0.900000; stroke:none;fill-rule:evenodd;"
d="M 11.512142,1.180000
11.512142,0.920000
12.192142,0.920000
12.192142,1.180000
Z" /> 
<path style="fill:#B4A09A; fill-opacity:0.900000; stroke:none;fill-rule:evenodd;"
d="M 11.397142,0.805000
11.137142,0.805000
11.137142,0.125000
11.397142,0.125000
Z" /> 
<path style="fill:#B4A09A; fill-opacity:0.900000; stroke:none;fill-rule:evenodd;"
d="M 10.897142,0.805000
10.637142,0.805000
10.637142,0.125000
10.897142,0.125000
Z" /> 
<path style="fill:#B4A09A; fill-opacity:0.900000; stroke:none;fill-rule:evenodd;"
d="M 10.397142,0.805000
10.137142,0.805000
10.137142,0.125000
10.397142,0.125000
Z" /> 
<path style="fill:#B4A09A; fill-opacity:0.900000; stroke:none;fill-rule:evenodd;"
d="M 9.897142,0.805000
9.637142,0.805000
9.637142,0.125000
9.897142,0.125000
Z" /> 
<path style="fill:#B4A09A; fill-opacity:0.900000; stroke:none;fill-rule:evenodd;"
d="M 9.397142,0.805000
9.137142,0.805000
9.137142,0.125000
9.397142,0.125000
Z" /> 
<path style="fill:#B4A09A; fill-opacity:0.900000; stroke:none;fill-rule:evenodd;"
d="M 8.897142,0.805000
8.637142,0.805000
8.637142,0.125000
8.897142,0.125000
Z" /> 
<path style="fill:#B4A09A; fill-opacity:0.900000; stroke:none;fill-rule:evenodd;"
d="M 8.397142,0.805000
8.137142,0.805000
8.137142,0.125000
8.397142,0.125000
Z" /> 
<path style="fill:#B4A09A; fill-opacity:0.900000; stroke:none;fill-rule:evenodd;"
d="M 7.897142,0.805000
7.637142,0.805000
7.637142,0.125000
7.897142,0.125000
Z" /> 
<path style="fill:#B4A09A; fill-opacity:0.900000; stroke:none;fill-rule:evenodd;"
d="M 6.842142,1.180000
6.842142,0.920000
7.522142,0.920000
7.522142,1.180000
Z" /> 
<path style="fill:#B4A09A; fill-opacity:0.900000; stroke:none;fill-rule:evenodd;"
d="M 6.842142,1.680000
6.842142,1.420000
7.522142,1.420000
7.522142,1.680000
Z" /> 
<path style="fill:#B4A09A; fill-opacity:0.900000; stroke:none;fill-rule:evenodd;"
d="M 6.842142,2.180000
6.842142,1.920000
7.522142,1.920000
7.522142,2.180000
Z" /> 
<path style="fill:#B4A09A; fill-opacity:0.900000; stroke:none;fill-rule:evenodd;"
d="M 6.842142,2.680000
6.842142,2.420000
7.522142,2.420000
7.522142,2.680000
Z" /> 
<path style="fill:#B4A09A; fill-opacity:0.900000; stroke:none;fill-rule:evenodd;"
d="M 6.842142,3.180000
6.842142,2.920000
7.522142,2.920000
7.522142,3.180000
Z" /> 
<path style="fill:#B4A09A; fill-opacity:0.900000; stroke:none;fill-rule:evenodd;"
d="M 6.842142,3.680000
6.842142,3.420000
7.522142,3.420000
7.522142,3.680000
Z" /> 
<path style="fill:#B4A09A; fill-opacity:0.900000; stroke:none;fill-rule:evenodd;"
d="M 6.842142,4.180000
6.842142,3.920000
7.522142,3.920000
7.522142,4.180000
Z" /> 
<path style="fill:#B4A09A; fill-opacity:0.900000; stroke:none;fill-rule:evenodd;"
d="M 6.842142,4.680000
6.842142,4.420000
7.522142,4.420000
7.522142,4.680000
Z" /> 
</g>
<g style="fill:none; 
stroke:#F2EDA1; stroke-width:0.050000; stroke-opacity:1; 
stroke-linecap:round; stroke-linejoin:round;">
<text x="7.851742" y="1.181180"
textLength="0.967143" font-size="0.266666" lengthAdjust="spacingAndGlyphs"
text-anchor="middle" opacity="0" stroke-opacity="0">REF**</text>
<g class="stroked-text"><desc>REF**</desc>
<path d="M7.585076 1.171104
L7.518410 1.075866
" />
<path d="M7.470791 1.171104
L7.470791 0.971104
" />
<path d="M7.470791 0.971104
L7.546981 0.971104
" />
<path d="M7.546981 0.971104
L7.566029 0.980628
" />
<path d="M7.566029 0.980628
L7.575552 0.990152
" />
<path d="M7.575552 0.990152
L7.585076 1.009200
" />
<path d="M7.585076 1.009200
L7.585076 1.037771
" />
<path d="M7.585076 1.037771
L7.575552 1.056819
" />
<path d="M7.575552 1.056819
L7.566029 1.066342
" />
<path d="M7.566029 1.066342
L7.546981 1.075866
" />
<path d="M7.546981 1.075866
L7.470791 1.075866
" />
<path d="M7.670791 1.066342
L7.737457 1.066342
" />
<path d="M7.766029 1.171104
L7.670791 1.171104
" />
<path d="M7.670791 1.171104
L7.670791 0.971104
" />
<path d="M7.670791 0.971104
L7.766029 0.971104
" />
<path d="M7.918409 1.066342
L7.851743 1.066342
" />
<path d="M7.851743 1.171104
L7.851743 0.971104
" />
<path d="M7.851743 0.971104
L7.946981 0.971104
" />
<path d="M8.051743 0.971104
L8.051743 1.018723
" />
<path d="M8.004124 0.999676
L8.051743 1.018723
" />
<path d="M8.051743 1.018723
L8.099362 0.999676
" />
<path d="M8.023172 1.056819
L8.051743 1.018723
" />
<path d="M8.051743 1.018723
L8.080314 1.056819
" />
<path d="M8.204124 0.971104
L8.204124 1.018723
" />
<path d="M8.156505 0.999676
L8.204124 1.018723
" />
<path d="M8.204124 1.018723
L8.251743 0.999676
" />
<path d="M8.175553 1.056819
L8.204124 1.018723
" />
<path d="M8.204124 1.018723
L8.232695 1.056819
" />
</g><path d="M6.937142 0.220000
L6.937142 0.770000
" />
<path d="M6.937142 5.380000
L6.937142 4.830000
" />
<path d="M7.487142 0.220000
L6.937142 0.220000
" />
<path d="M7.487142 5.380000
L6.937142 5.380000
" />
<path d="M11.547142 0.220000
L12.097142 0.220000
" />
<path d="M11.547142 5.380000
L12.097142 5.380000
" />
<path d="M12.097142 0.220000
L12.097142 0.770000
" />
<path d="M12.097142 5.380000
L12.097142 4.830000
" />
</g>
<g style="fill:none; 
stroke:#FF26E2; stroke-width:0.050000; stroke-opacity:1; 
stroke-linecap:round; stroke-linejoin:round;">
<path d="M6.742142 0.820000
L6.742142 4.780000
" />
<path d="M6.742142 4.780000
L6.837142 4.780000
" />
<path d="M6.837142 0.120000
L6.837142 0.820000
" />
<path d="M6.837142 0.820000
L6.742142 0.820000
" />
<path d="M6.837142 4.780000
L6.837142 5.480000
" />
<path d="M6.837142 5.480000
L7.537142 5.480000
" />
<path d="M7.537142 0.025000
L7.537142 0.120000
" />
<path d="M7.537142 0.120000
L6.837142 0.120000
" />
<path d="M7.537142 5.480000
L7.537142 5.575000
" />
<path d="M7.537142 5.575000
L11.497142 5.575000
" />
<path d="M11.497142 0.025000
L7.537142 0.025000
" />
<path d="M11.497142 0.120000
L11.497142 0.025000
" />
<path d="M11.497142 5.480000
L12.197142 5.480000
" />
<path d="M11.497142 5.575000
L11.497142 5.480000
" />
<path d="M12.197142 0.120000
L11.497142 0.120000
" />
<path d="M12.197142 0.820000
L12.197142 0.120000
" />
<path d="M12.197142 4.780000
L12.292142 4.780000
" />
<path d="M12.197142 5.480000
L12.197142 4.780000
" />
<path d="M12.292142 0.820000
L12.197142 0.820000
" />
<path d="M12.292142 4.780000
L12.292142 0.820000
" />
</g>
<g style="fill:none; 
stroke:#AFAFAF; stroke-width:0.100000; stroke-opacity:1; 
stroke-linecap:round; stroke-linejoin:round;">
<text x="9.517142" y="3.300000"
textLength="4.385715" font-size="1.333333" lengthAdjust="spacingAndGlyphs"
text-anchor="middle" opacity="0" stroke-opacity="0">REF**</text>
<g class="stroked-text"><desc>REF**</desc>
<path d="M8.183809 3.257419
L7.850476 2.781229
" />
<path d="M7.612381 3.257419
L7.612381 2.257420
" />
<path d="M7.612381 2.257420
L7.993333 2.257420
" />
<path d="M7.993333 2.257420
L8.088571 2.305039
" />
<path d="M8.088571 2.305039
L8.136190 2.352658
" />
<path d="M8.136190 2.352658
L8.183809 2.447896
" />
<path d="M8.183809 2.447896
L8.183809 2.590753
" />
<path d="M8.183809 2.590753
L8.136190 2.685991
" />
<path d="M8.136190 2.685991
L8.088571 2.733610
" />
<path d="M8.088571 2.733610
L7.993333 2.781229
" />
<path d="M7.993333 2.781229
L7.612381 2.781229
" />
<path d="M8.612381 2.733610
L8.945714 2.733610
" />
<path d="M9.088571 3.257419
L8.612381 3.257419
" />
<path d="M8.612381 3.257419
L8.612381 2.257420
" />
<path d="M8.612381 2.257420
L9.088571 2.257420
" />
<path d="M9.850475 2.733610
L9.517142 2.733610
" />
<path d="M9.517142 3.257419
L9.517142 2.257420
" />
<path d="M9.517142 2.257420
L9.993332 2.257420
" />
<path d="M10.517142 2.257420
L10.517142 2.495515
" />
<path d="M10.279047 2.400277
L10.517142 2.495515
" />
<path d="M10.517142 2.495515
L10.755237 2.400277
" />
<path d="M10.374285 2.685991
L10.517142 2.495515
" />
<path d="M10.517142 2.495515
L10.659999 2.685991
" />
<path d="M11.279047 2.257420
L11.279047 2.495515
" />
<path d="M11.040952 2.400277
L11.279047 2.495515
" />
<path d="M11.279047 2.495515
L11.517142 2.400277
" />
<path d="M11.136190 2.685991
L11.279047 2.495515
" />
<path d="M11.279047 2.495515
L11.421904 2.685991
" />
</g></g>
<g style="fill:none; 
stroke:#AFAFAF; stroke-width:0.120000; stroke-opacity:1; 
stroke-linecap:round; stroke-linejoin:round;">
<text x="9.517142" y="3.400000"
textLength="19.034285" font-size="1.600000" lengthAdjust="spacingAndGlyphs"
text-anchor="middle" opacity="0" stroke-opacity="0">DS90UB913ATRTVTQ1</text>
<g class="stroked-text"><desc>DS90UB913ATRTVTQ1</desc>
<path d="M0.345715 3.348902
L0.345715 2.148903
" />
<path d="M0.345715 2.148903
L0.631429 2.148903
" />
<path d="M0.631429 2.148903
L0.802858 2.206046
" />
<path d="M0.802858 2.206046
L0.917143 2.320332
" />
<path d="M0.917143 2.320332
L0.974286 2.434618
" />
<path d="M0.974286 2.434618
L1.031429 2.663189
" />
<path d="M1.031429 2.663189
L1.031429 2.834617
" />
<path d="M1.031429 2.834617
L0.974286 3.063188
" />
<path d="M0.974286 3.063188
L0.917143 3.177474
" />
<path d="M0.917143 3.177474
L0.802858 3.291760
" />
<path d="M0.802858 3.291760
L0.631429 3.348902
" />
<path d="M0.631429 3.348902
L0.345715 3.348902
" />
<path d="M1.488572 3.291760
L1.660000 3.348902
" />
<path d="M1.660000 3.348902
L1.945715 3.348902
" />
<path d="M1.945715 3.348902
L2.060000 3.291760
" />
<path d="M2.060000 3.291760
L2.117143 3.234617
" />
<path d="M2.117143 3.234617
L2.174286 3.120331
" />
<path d="M2.174286 3.120331
L2.174286 3.006045
" />
<path d="M2.174286 3.006045
L2.117143 2.891760
" />
<path d="M2.117143 2.891760
L2.060000 2.834617
" />
<path d="M2.060000 2.834617
L1.945715 2.777475
" />
<path d="M1.945715 2.777475
L1.717143 2.720332
" />
<path d="M1.717143 2.720332
L1.602858 2.663189
" />
<path d="M1.602858 2.663189
L1.545715 2.606046
" />
<path d="M1.545715 2.606046
L1.488572 2.491760
" />
<path d="M1.488572 2.491760
L1.488572 2.377475
" />
<path d="M1.488572 2.377475
L1.545715 2.263189
" />
<path d="M1.545715 2.263189
L1.602858 2.206046
" />
<path d="M1.602858 2.206046
L1.717143 2.148903
" />
<path d="M1.717143 2.148903
L2.002858 2.148903
" />
<path d="M2.002858 2.148903
L2.174286 2.206046
" />
<path d="M2.745715 3.348902
L2.974286 3.348902
" />
<path d="M2.974286 3.348902
L3.088572 3.291760
" />
<path d="M3.088572 3.291760
L3.145715 3.234617
" />
<path d="M3.145715 3.234617
L3.260000 3.063188
" />
<path d="M3.260000 3.063188
L3.317143 2.834617
" />
<path d="M3.317143 2.834617
L3.317143 2.377475
" />
<path d="M3.317143 2.377475
L3.260000 2.263189
" />
<path d="M3.260000 2.263189
L3.202857 2.206046
" />
<path d="M3.202857 2.206046
L3.088572 2.148903
" />
<path d="M3.088572 2.148903
L2.860000 2.148903
" />
<path d="M2.860000 2.148903
L2.745715 2.206046
" />
<path d="M2.745715 2.206046
L2.688572 2.263189
" />
<path d="M2.688572 2.263189
L2.631429 2.377475
" />
<path d="M2.631429 2.377475
L2.631429 2.663189
" />
<path d="M2.631429 2.663189
L2.688572 2.777475
" />
<path d="M2.688572 2.777475
L2.745715 2.834617
" />
<path d="M2.745715 2.834617
L2.860000 2.891760
" />
<path d="M2.860000 2.891760
L3.088572 2.891760
" />
<path d="M3.088572 2.891760
L3.202857 2.834617
" />
<path d="M3.202857 2.834617
L3.260000 2.777475
" />
<path d="M3.260000 2.777475
L3.317143 2.663189
" />
<path d="M4.060000 2.148903
L4.174286 2.148903
" />
<path d="M4.174286 2.148903
L4.288572 2.206046
" />
<path d="M4.288572 2.206046
L4.345714 2.263189
" />
<path d="M4.345714 2.263189
L4.402857 2.377475
" />
<path d="M4.402857 2.377475
L4.460000 2.606046
" />
<path d="M4.460000 2.606046
L4.460000 2.891760
" />
<path d="M4.460000 2.891760
L4.402857 3.120331
" />
<path d="M4.402857 3.120331
L4.345714 3.234617
" />
<path d="M4.345714 3.234617
L4.288572 3.291760
" />
<path d="M4.288572 3.291760
L4.174286 3.348902
" />
<path d="M4.174286 3.348902
L4.060000 3.348902
" />
<path d="M4.060000 3.348902
L3.945714 3.291760
" />
<path d="M3.945714 3.291760
L3.888572 3.234617
" />
<path d="M3.888572 3.234617
L3.831429 3.120331
" />
<path d="M3.831429 3.120331
L3.774286 2.891760
" />
<path d="M3.774286 2.891760
L3.774286 2.606046
" />
<path d="M3.774286 2.606046
L3.831429 2.377475
" />
<path d="M3.831429 2.377475
L3.888572 2.263189
" />
<path d="M3.888572 2.263189
L3.945714 2.206046
" />
<path d="M3.945714 2.206046
L4.060000 2.148903
" />
<path d="M4.974286 2.148903
L4.974286 3.120331
" />
<path d="M4.974286 3.120331
L5.031429 3.234617
" />
<path d="M5.031429 3.234617
L5.088571 3.291760
" />
<path d="M5.088571 3.291760
L5.202857 3.348902
" />
<path d="M5.202857 3.348902
L5.431429 3.348902
" />
<path d="M5.431429 3.348902
L5.545714 3.291760
" />
<path d="M5.545714 3.291760
L5.602857 3.234617
" />
<path d="M5.602857 3.234617
L5.660000 3.120331
" />
<path d="M5.660000 3.120331
L5.660000 2.148903
" />
<path d="M6.631429 2.720332
L6.802857 2.777475
" />
<path d="M6.802857 2.777475
L6.860000 2.834617
" />
<path d="M6.860000 2.834617
L6.917143 2.948902
" />
<path d="M6.917143 2.948902
L6.917143 3.120331
" />
<path d="M6.917143 3.120331
L6.860000 3.234617
" />
<path d="M6.860000 3.234617
L6.802857 3.291760
" />
<path d="M6.802857 3.291760
L6.688572 3.348902
" />
<path d="M6.688572 3.348902
L6.231429 3.348902
" />
<path d="M6.231429 3.348902
L6.231429 2.148903
" />
<path d="M6.231429 2.148903
L6.631429 2.148903
" />
<path d="M6.631429 2.148903
L6.745714 2.206046
" />
<path d="M6.745714 2.206046
L6.802857 2.263189
" />
<path d="M6.802857 2.263189
L6.860000 2.377475
" />
<path d="M6.860000 2.377475
L6.860000 2.491760
" />
<path d="M6.860000 2.491760
L6.802857 2.606046
" />
<path d="M6.802857 2.606046
L6.745714 2.663189
" />
<path d="M6.745714 2.663189
L6.631429 2.720332
" />
<path d="M6.631429 2.720332
L6.231429 2.720332
" />
<path d="M7.488572 3.348902
L7.717143 3.348902
" />
<path d="M7.717143 3.348902
L7.831429 3.291760
" />
<path d="M7.831429 3.291760
L7.888572 3.234617
" />
<path d="M7.888572 3.234617
L8.002857 3.063188
" />
<path d="M8.002857 3.063188
L8.060000 2.834617
" />
<path d="M8.060000 2.834617
L8.060000 2.377475
" />
<path d="M8.060000 2.377475
L8.002857 2.263189
" />
<path d="M8.002857 2.263189
L7.945714 2.206046
" />
<path d="M7.945714 2.206046
L7.831429 2.148903
" />
<path d="M7.831429 2.148903
L7.602857 2.148903
" />
<path d="M7.602857 2.148903
L7.488572 2.206046
" />
<path d="M7.488572 2.206046
L7.431429 2.263189
" />
<path d="M7.431429 2.263189
L7.374286 2.377475
" />
<path d="M7.374286 2.377475
L7.374286 2.663189
" />
<path d="M7.374286 2.663189
L7.431429 2.777475
" />
<path d="M7.431429 2.777475
L7.488572 2.834617
" />
<path d="M7.488572 2.834617
L7.602857 2.891760
" />
<path d="M7.602857 2.891760
L7.831429 2.891760
" />
<path d="M7.831429 2.891760
L7.945714 2.834617
" />
<path d="M7.945714 2.834617
L8.002857 2.777475
" />
<path d="M8.002857 2.777475
L8.060000 2.663189
" />
<path d="M9.202857 3.348902
L8.517143 3.348902
" />
<path d="M8.860000 3.348902
L8.860000 2.148903
" />
<path d="M8.860000 2.148903
L8.745714 2.320332
" />
<path d="M8.745714 2.320332
L8.631429 2.434618
" />
<path d="M8.631429 2.434618
L8.517143 2.491760
" />
<path d="M9.602856 2.148903
L10.345713 2.148903
" />
<path d="M10.345713 2.148903
L9.945713 2.606046
" />
<path d="M9.945713 2.606046
L10.117142 2.606046
" />
<path d="M10.117142 2.606046
L10.231428 2.663189
" />
<path d="M10.231428 2.663189
L10.288570 2.720332
" />
<path d="M10.288570 2.720332
L10.345713 2.834617
" />
<path d="M10.345713 2.834617
L10.345713 3.120331
" />
<path d="M10.345713 3.120331
L10.288570 3.234617
" />
<path d="M10.288570 3.234617
L10.231428 3.291760
" />
<path d="M10.231428 3.291760
L10.117142 3.348902
" />
<path d="M10.117142 3.348902
L9.774285 3.348902
" />
<path d="M9.774285 3.348902
L9.659999 3.291760
" />
<path d="M9.659999 3.291760
L9.602856 3.234617
" />
<path d="M10.802856 3.006045
L11.374285 3.006045
" />
<path d="M10.688570 3.348902
L11.088570 2.148903
" />
<path d="M11.088570 2.148903
L11.488570 3.348902
" />
<path d="M11.717141 2.148903
L12.402856 2.148903
" />
<path d="M12.059998 3.348902
L12.059998 2.148903
" />
<path d="M13.488570 3.348902
L13.088570 2.777475
" />
<path d="M12.802856 3.348902
L12.802856 2.148903
" />
<path d="M12.802856 2.148903
L13.259999 2.148903
" />
<path d="M13.259999 2.148903
L13.374284 2.206046
" />
<path d="M13.374284 2.206046
L13.431427 2.263189
" />
<path d="M13.431427 2.263189
L13.488570 2.377475
" />
<path d="M13.488570 2.377475
L13.488570 2.548903
" />
<path d="M13.488570 2.548903
L13.431427 2.663189
" />
<path d="M13.431427 2.663189
L13.374284 2.720332
" />
<path d="M13.374284 2.720332
L13.259999 2.777475
" />
<path d="M13.259999 2.777475
L12.802856 2.777475
" />
<path d="M13.831427 2.148903
L14.517142 2.148903
" />
<path d="M14.174284 3.348902
L14.174284 2.148903
" />
<path d="M14.745713 2.148903
L15.145713 3.348902
" />
<path d="M15.145713 3.348902
L15.545713 2.148903
" />
<path d="M15.774284 2.148903
L16.459999 2.148903
" />
<path d="M16.117141 3.348902
L16.117141 2.148903
" />
<path d="M17.659999 3.463188
L17.545713 3.406045
" />
<path d="M17.545713 3.406045
L17.431427 3.291760
" />
<path d="M17.431427 3.291760
L17.259999 3.120331
" />
<path d="M17.259999 3.120331
L17.145713 3.063188
" />
<path d="M17.145713 3.063188
L17.031427 3.063188
" />
<path d="M17.088570 3.348902
L16.974285 3.291760
" />
<path d="M16.974285 3.291760
L16.859999 3.177474
" />
<path d="M16.859999 3.177474
L16.802856 2.948902
" />
<path d="M16.802856 2.948902
L16.802856 2.548903
" />
<path d="M16.802856 2.548903
L16.859999 2.320332
" />
<path d="M16.859999 2.320332
L16.974285 2.206046
" />
<path d="M16.974285 2.206046
L17.088570 2.148903
" />
<path d="M17.088570 2.148903
L17.317142 2.148903
" />
<path d="M17.317142 2.148903
L17.431427 2.206046
" />
<path d="M17.431427 2.206046
L17.545713 2.320332
" />
<path d="M17.545713 2.320332
L17.602856 2.548903
" />
<path d="M17.602856 2.548903
L17.602856 2.948902
" />
<path d="M17.602856 2.948902
L17.545713 3.177474
" />
<path d="M17.545713 3.177474
L17.431427 3.291760
" />
<path d="M17.431427 3.291760
L17.317142 3.348902
" />
<path d="M17.317142 3.348902
L17.088570 3.348902
" />
<path d="M18.745713 3.348902
L18.059999 3.348902
" />
<path d="M18.402856 3.348902
L18.402856 2.148903
" />
<path d="M18.402856 2.148903
L18.288570 2.320332
" />
<path d="M18.288570 2.320332
L18.174285 2.434618
" />
<path d="M18.174285 2.434618
L18.059999 2.491760
" />
</g><path d="M6.937142 0.220000
L12.097142 0.220000
" />
<path d="M6.937142 5.380000
L6.937142 0.220000
" />
<path d="M12.097142 0.220000
L12.097142 5.380000
" />
<path d="M12.097142 5.380000
L6.937142 5.380000
" />
</g>
<g style="fill:none; 
stroke:#C2C2C2; stroke-width:0.025000; stroke-opacity:1; 
stroke-linecap:round; stroke-linejoin:round;">
<path d="M7.017142 0.300000
L12.017142 0.300000
" />
<path d="M7.017142 0.930000
L7.417142 0.930000
" />
<path d="M7.017142 1.170000
L7.017142 0.930000
" />
<path d="M7.017142 1.430000
L7.417142 1.430000
" />
<path d="M7.017142 1.670000
L7.017142 1.430000
" />
<path d="M7.017142 1.930000
L7.417142 1.930000
" />
<path d="M7.017142 2.170000
L7.017142 1.930000
" />
<path d="M7.017142 2.430000
L7.417142 2.430000
" />
<path d="M7.017142 2.670000
L7.017142 2.430000
" />
<path d="M7.017142 2.930000
L7.417142 2.930000
" />
<path d="M7.017142 3.170000
L7.017142 2.930000
" />
<path d="M7.017142 3.430000
L7.417142 3.430000
" />
<path d="M7.017142 3.670000
L7.017142 3.430000
" />
<path d="M7.017142 3.930000
L7.417142 3.930000
" />
<path d="M7.017142 4.170000
L7.017142 3.930000
" />
<path d="M7.017142 4.430000
L7.417142 4.430000
" />
<path d="M7.017142 4.670000
L7.017142 4.430000
" />
<path d="M7.017142 5.300000
L7.017142 0.300000
" />
<path d="M7.417142 0.930000
L7.417142 1.170000
" />
<path d="M7.417142 1.170000
L7.017142 1.170000
" />
<path d="M7.417142 1.430000
L7.417142 1.670000
" />
<path d="M7.417142 1.670000
L7.017142 1.670000
" />
<path d="M7.417142 1.930000
L7.417142 2.170000
" />
<path d="M7.417142 2.170000
L7.017142 2.170000
" />
<path d="M7.417142 2.430000
L7.417142 2.670000
" />
<path d="M7.417142 2.670000
L7.017142 2.670000
" />
<path d="M7.417142 2.930000
L7.417142 3.170000
" />
<path d="M7.417142 3.170000
L7.017142 3.170000
" />
<path d="M7.417142 3.430000
L7.417142 3.670000
" />
<path d="M7.417142 3.670000
L7.017142 3.670000
" />
<path d="M7.417142 3.930000
L7.417142 4.170000
" />
<path d="M7.417142 4.170000
L7.017142 4.170000
" />
<path d="M7.417142 4.430000
L7.417142 4.670000
" />
<path d="M7.417142 4.670000
L7.017142 4.670000
" />
<path d="M7.647142 0.300000
L7.887142 0.300000
" />
<path d="M7.647142 0.700000
L7.647142 0.300000
" />
<path d="M7.647142 4.900000
L7.887142 4.900000
" />
<path d="M7.647142 5.300000
L7.647142 4.900000
" />
<path d="M7.887142 0.300000
L7.887142 0.700000
" />
<path d="M7.887142 0.700000
L7.647142 0.700000
" />
<path d="M7.887142 4.900000
L7.887142 5.300000
" />
<path d="M7.887142 5.300000
L7.647142 5.300000
" />
<path d="M7.967142 1.250000
L7.967142 4.000000
" />
<path d="M7.967142 4.000000
L8.317142 4.350000
" />
<path d="M8.147142 0.300000
L8.387142 0.300000
" />
<path d="M8.147142 0.700000
L8.147142 0.300000
" />
<path d="M8.147142 4.900000
L8.387142 4.900000
" />
<path d="M8.147142 5.300000
L8.147142 4.900000
" />
<path d="M8.317142 4.350000
L11.067142 4.350000
" />
<path d="M8.387142 0.300000
L8.387142 0.700000
" />
<path d="M8.387142 0.700000
L8.147142 0.700000
" />
<path d="M8.387142 4.900000
L8.387142 5.300000
" />
<path d="M8.387142 5.300000
L8.147142 5.300000
" />
<path d="M8.647142 0.300000
L8.887142 0.300000
" />
<path d="M8.647142 0.700000
L8.647142 0.300000
" />
<path d="M8.647142 4.900000
L8.887142 4.900000
" />
<path d="M8.647142 5.300000
L8.647142 4.900000
" />
<path d="M8.887142 0.300000
L8.887142 0.700000
" />
<path d="M8.887142 0.700000
L8.647142 0.700000
" />
<path d="M8.887142 4.900000
L8.887142 5.300000
" />
<path d="M8.887142 5.300000
L8.647142 5.300000
" />
<path d="M9.147142 0.300000
L9.387142 0.300000
" />
<path d="M9.147142 0.700000
L9.147142 0.300000
" />
<path d="M9.147142 4.900000
L9.387142 4.900000
" />
<path d="M9.147142 5.300000
L9.147142 4.900000
" />
</g>
<g style="fill:none; 
stroke:#C2C2C2; stroke-width:0.050000; stroke-opacity:1; 
stroke-linecap:round; stroke-linejoin:round;">
<path d="M9.167142 2.800000
L9.867142 2.800000
" />
</g>
<g style="fill:none; 
stroke:#C2C2C2; stroke-width:0.025000; stroke-opacity:1; 
stroke-linecap:round; stroke-linejoin:round;">
<path d="M9.387142 0.300000
L9.387142 0.700000
" />
<path d="M9.387142 0.700000
L9.147142 0.700000
" />
<path d="M9.387142 4.900000
L9.387142 5.300000
" />
<path d="M9.387142 5.300000
L9.147142 5.300000
" />
</g>
<g style="fill:none; 
stroke:#C2C2C2; stroke-width:0.050000; stroke-opacity:1; 
stroke-linecap:round; stroke-linejoin:round;">
<path d="M9.517142 2.450000
L9.517142 3.150000
" />
</g>
<g style="fill:none; 
stroke:#C2C2C2; stroke-width:0.025000; stroke-opacity:1; 
stroke-linecap:round; stroke-linejoin:round;">
<path d="M9.647142 0.300000
L9.887142 0.300000
" />
<path d="M9.647142 0.700000
L9.647142 0.300000
" />
<path d="M9.647142 4.900000
L9.887142 4.900000
" />
<path d="M9.647142 5.300000
L9.647142 4.900000
" />
<path d="M9.887142 0.300000
L9.887142 0.700000
" />
<path d="M9.887142 0.700000
L9.647142 0.700000
" />
<path d="M9.887142 4.900000
L9.887142 5.300000
" />
<path d="M9.887142 5.300000
L9.647142 5.300000
" />
<path d="M10.147142 0.300000
L10.387142 0.300000
" />
<path d="M10.147142 0.700000
L10.147142 0.300000
" />
<path d="M10.147142 4.900000
L10.387142 4.900000
" />
<path d="M10.147142 5.300000
L10.147142 4.900000
" />
<path d="M10.387142 0.300000
L10.387142 0.700000
" />
<path d="M10.387142 0.700000
L10.147142 0.700000
" />
<path d="M10.387142 4.900000
L10.387142 5.300000
" />
<path d="M10.387142 5.300000
L10.147142 5.300000
" />
<path d="M10.647142 0.300000
L10.887142 0.300000
" />
<path d="M10.647142 0.700000
L10.647142 0.300000
" />
<path d="M10.647142 4.900000
L10.887142 4.900000
" />
<path d="M10.647142 5.300000
L10.647142 4.900000
" />
<path d="M10.887142 0.300000
L10.887142 0.700000
" />
<path d="M10.887142 0.700000
L10.647142 0.700000
" />
<path d="M10.887142 4.900000
L10.887142 5.300000
" />
<path d="M10.887142 5.300000
L10.647142 5.300000
" />
<path d="M11.067142 1.250000
L7.967142 1.250000
" />
<path d="M11.067142 4.350000
L11.067142 1.250000
" />
<path d="M11.147142 0.300000
L11.387142 0.300000
" />
<path d="M11.147142 0.700000
L11.147142 0.300000
" />
<path d="M11.147142 4.900000
L11.387142 4.900000
" />
<path d="M11.147142 5.300000
L11.147142 4.900000
" />
<path d="M11.387142 0.300000
L11.387142 0.700000
" />
<path d="M11.387142 0.700000
L11.147142 0.700000
" />
<path d="M11.387142 4.900000
L11.387142 5.300000
" />
<path d="M11.387142 5.300000
L11.147142 5.300000
" />
<path d="M11.617142 0.930000
L12.017142 0.930000
" />
<path d="M11.617142 1.170000
L11.617142 0.930000
" />
<path d="M11.617142 1.430000
L12.017142 1.430000
" />
<path d="M11.617142 1.670000
L11.617142 1.430000
" />
<path d="M11.617142 1.930000
L12.017142 1.930000
" />
<path d="M11.617142 2.170000
L11.617142 1.930000
" />
<path d="M11.617142 2.430000
L12.017142 2.430000
" />
<path d="M11.617142 2.670000
L11.617142 2.430000
" />
<path d="M11.617142 2.930000
L12.017142 2.930000
" />
<path d="M11.617142 3.170000
L11.617142 2.930000
" />
<path d="M11.617142 3.430000
L12.017142 3.430000
" />
<path d="M11.617142 3.670000
L11.617142 3.430000
" />
<path d="M11.617142 3.930000
L12.017142 3.930000
" />
<path d="M11.617142 4.170000
L11.617142 3.930000
" />
<path d="M11.617142 4.430000
L12.017142 4.430000
" />
<path d="M11.617142 4.670000
L11.617142 4.430000
" />
<path d="M12.017142 0.300000
L12.017142 5.300000
" />
<path d="M12.017142 0.930000
L12.017142 1.170000
" />
<path d="M12.017142 1.170000
L11.617142 1.170000
" />
<path d="M12.017142 1.430000
L12.017142 1.670000
" />
<path d="M12.017142 1.670000
L11.617142 1.670000
" />
<path d="M12.017142 1.930000
L12.017142 2.170000
" />
<path d="M12.017142 2.170000
L11.617142 2.170000
" />
<path d="M12.017142 2.430000
L12.017142 2.670000
" />
<path d="M12.017142 2.670000
L11.617142 2.670000
" />
<path d="M12.017142 2.930000
L12.017142 3.170000
" />
<path d="M12.017142 3.170000
L11.617142 3.170000
" />
<path d="M12.017142 3.430000
L12.017142 3.670000
" />
<path d="M12.017142 3.670000
L11.617142 3.670000
" />
<path d="M12.017142 3.930000
L12.017142 4.170000
" />
<path d="M12.017142 4.170000
L11.617142 4.170000
" />
<path d="M12.017142 4.430000
L12.017142 4.670000
" />
<path d="M12.017142 4.670000
L11.617142 4.670000
" />
<path d="M12.017142 5.300000
L7.017142 5.300000
" />
</g>
<g style="fill:none; 
stroke:#C2C2C2; stroke-width:0.050000; stroke-opacity:1; 
stroke-linecap:round; stroke-linejoin:round;">
<circle cx="9.517142" cy="2.800000" r="0.250000" /> 
</g> 
</svg>
