<?xml version="1.0" standalone="no"?>
 <!DOCTYPE svg PUBLIC "-//W3C//DTD SVG 1.1//EN" 
 "http://www.w3.org/Graphics/SVG/1.1/DTD/svg11.dtd"> 
<svg
  xmlns:svg="http://www.w3.org/2000/svg"
  xmlns="http://www.w3.org/2000/svg"
  xmlns:xlink="http://www.w3.org/1999/xlink"
  xmlns:inkscape="http://www.inkscape.org/namespaces/inkscape"
  version="1.1"
  width="100%" height="100%" viewBox="0.000000 0.000000 17.526000 2.540000">
<title>SVG Image created as QFN_14_P40_200X200X40L40X20L.svg date 2026-04-16T05:11:04 </title>
  <desc>Image generated by PCBNEW </desc>
<g style="fill:#000000; fill-opacity:1.000000;stroke:#000000; stroke-opacity:1.000000;
stroke-linecap:round; stroke-linejoin:round;"
 transform="translate(0 0) scale(1 1)">
<path style="fill:#C83434; fill-opacity:1.000000; stroke:none;fill-rule:evenodd;"
d="M 8.084285,2.425000
7.864285,2.425000
7.864285,1.815000
8.084285,1.815000
Z" /> 
<path style="fill:#C83434; fill-opacity:1.000000; stroke:none;fill-rule:evenodd;"
d="M 8.484285,2.425000
8.264285,2.425000
8.264285,1.815000
8.484285,1.815000
Z" /> 
<path style="fill:#C83434; fill-opacity:1.000000; stroke:none;fill-rule:evenodd;"
d="M 8.884285,2.425000
8.664285,2.425000
8.664285,1.815000
8.884285,1.815000
Z" /> 
<path style="fill:#C83434; fill-opacity:1.000000; stroke:none;fill-rule:evenodd;"
d="M 9.284285,2.425000
9.064285,2.425000
9.064285,1.815000
9.284285,1.815000
Z" /> 
<path style="fill:#C83434; fill-opacity:1.000000; stroke:none;fill-rule:evenodd;"
d="M 9.684285,2.425000
9.464285,2.425000
9.464285,1.815000
9.684285,1.815000
Z" /> 
<path style="fill:#C83434; fill-opacity:1.000000; stroke:none;fill-rule:evenodd;"
d="M 9.314285,1.585000
9.314285,1.365000
9.924285,1.365000
9.924285,1.585000
Z" /> 
<path style="fill:#C83434; fill-opacity:1.000000; stroke:none;fill-rule:evenodd;"
d="M 9.314285,1.185000
9.314285,0.965000
9.924285,0.965000
9.924285,1.185000
Z" /> 
<path style="fill:#C83434; fill-opacity:1.000000; stroke:none;fill-rule:evenodd;"
d="M 9.684285,0.735000
9.464285,0.735000
9.464285,0.125000
9.684285,0.125000
Z" /> 
<path style="fill:#C83434; fill-opacity:1.000000; stroke:none;fill-rule:evenodd;"
d="M 9.284285,0.735000
9.064285,0.735000
9.064285,0.125000
9.284285,0.125000
Z" /> 
<path style="fill:#C83434; fill-opacity:1.000000; stroke:none;fill-rule:evenodd;"
d="M 8.884285,0.735000
8.664285,0.735000
8.664285,0.125000
8.884285,0.125000
Z" /> 
<path style="fill:#C83434; fill-opacity:1.000000; stroke:none;fill-rule:evenodd;"
d="M 8.484285,0.735000
8.264285,0.735000
8.264285,0.125000
8.484285,0.125000
Z" /> 
<path style="fill:#C83434; fill-opacity:1.000000; stroke:none;fill-rule:evenodd;"
d="M 8.084285,0.735000
7.864285,0.735000
7.864285,0.125000
8.084285,0.125000
Z" /> 
<path style="fill:#C83434; fill-opacity:1.000000; stroke:none;fill-rule:evenodd;"
d="M 7.624285,1.185000
7.624285,0.965000
8.234285,0.965000
8.234285,1.185000
Z" /> 
<path style="fill:#C83434; fill-opacity:1.000000; stroke:none;fill-rule:evenodd;"
d="M 7.624285,1.585000
7.624285,1.365000
8.234285,1.365000
8.234285,1.585000
Z" /> 
<path style="fill:#D864FF; fill-opacity:0.400000; stroke:none;fill-rule:evenodd;"
d="M 8.084285,2.425000
7.864285,2.425000
7.864285,1.815000
8.084285,1.815000
Z" /> 
<path style="fill:#D864FF; fill-opacity:0.400000; stroke:none;fill-rule:evenodd;"
d="M 8.484285,2.425000
8.264285,2.425000
8.264285,1.815000
8.484285,1.815000
Z" /> 
<path style="fill:#D864FF; fill-opacity:0.400000; stroke:none;fill-rule:evenodd;"
d="M 8.884285,2.425000
8.664285,2.425000
8.664285,1.815000
8.884285,1.815000
Z" /> 
<path style="fill:#D864FF; fill-opacity:0.400000; stroke:none;fill-rule:evenodd;"
d="M 9.284285,2.425000
9.064285,2.425000
9.064285,1.815000
9.284285,1.815000
Z" /> 
<path style="fill:#D864FF; fill-opacity:0.400000; stroke:none;fill-rule:evenodd;"
d="M 9.684285,2.425000
9.464285,2.425000
9.464285,1.815000
9.684285,1.815000
Z" /> 
<path style="fill:#D864FF; fill-opacity:0.400000; stroke:none;fill-rule:evenodd;"
d="M 9.314285,1.585000
9.314285,1.365000
9.924285,1.365000
9.924285,1.585000
Z" /> 
<path style="fill:#D864FF; fill-opacity:0.400000; stroke:none;fill-rule:evenodd;"
d="M 9.314285,1.185000
9.314285,0.965000
9.924285,0.965000
9.924285,1.185000
Z" /> 
<path style="fill:#D864FF; fill-opacity:0.400000; stroke:none;fill-rule:evenodd;"
d="M 9.684285,0.735000
9.464285,0.735000
9.464285,0.125000
9.684285,0.125000
Z" /> 
<path style="fill:#D864FF; fill-opacity:0.400000; stroke:none;fill-rule:evenodd;"
d="M 9.284285,0.735000
9.064285,0.735000
9.064285,0.125000
9.284285,0.125000
Z" /> 
<path style="fill:#D864FF; fill-opacity:0.400000; stroke:none;fill-rule:evenodd;"
d="M 8.884285,0.735000
8.664285,0.735000
8.664285,0.125000
8.884285,0.125000
Z" /> 
<path style="fill:#D864FF; fill-opacity:0.400000; stroke:none;fill-rule:evenodd;"
d="M 8.484285,0.735000
8.264285,0.735000
8.264285,0.125000
8.484285,0.125000
Z" /> 
<path style="fill:#D864FF; fill-opacity:0.400000; stroke:none;fill-rule:evenodd;"
d="M 8.084285,0.735000
7.864285,0.735000
7.864285,0.125000
8.084285,0.125000
Z" /> 
<path style="fill:#D864FF; fill-opacity:0.400000; stroke:none;fill-rule:evenodd;"
d="M 7.624285,1.185000
7.624285,0.965000
8.234285,0.965000
8.234285,1.185000
Z" /> 
<path style="fill:#D864FF; fill-opacity:0.400000; stroke:none;fill-rule:evenodd;"
d="M 7.624285,1.585000
7.624285,1.365000
8.234285,1.365000
8.234285,1.585000
Z" /> 
<path style="fill:#B4A09A; fill-opacity:0.900000; stroke:none;fill-rule:evenodd;"
d="M 8.084285,2.425000
7.864285,2.425000
7.864285,1.815000
8.084285,1.815000
Z" /> 
<path style="fill:#B4A09A; fill-opacity:0.900000; stroke:none;fill-rule:evenodd;"
d="M 8.484285,2.425000
8.264285,2.425000
8.264285,1.815000
8.484285,1.815000
Z" /> 
<path style="fill:#B4A09A; fill-opacity:0.900000; stroke:none;fill-rule:evenodd;"
d="M 8.884285,2.425000
8.664285,2.425000
8.664285,1.815000
8.884285,1.815000
Z" /> 
<path style="fill:#B4A09A; fill-opacity:0.900000; stroke:none;fill-rule:evenodd;"
d="M 9.284285,2.425000
9.064285,2.425000
9.064285,1.815000
9.284285,1.815000
Z" /> 
<path style="fill:#B4A09A; fill-opacity:0.900000; stroke:none;fill-rule:evenodd;"
d="M 9.684285,2.425000
9.464285,2.425000
9.464285,1.815000
9.684285,1.815000
Z" /> 
<path style="fill:#B4A09A; fill-opacity:0.900000; stroke:none;fill-rule:evenodd;"
d="M 9.314285,1.585000
9.314285,1.365000
9.924285,1.365000
9.924285,1.585000
Z" /> 
<path style="fill:#B4A09A; fill-opacity:0.900000; stroke:none;fill-rule:evenodd;"
d="M 9.314285,1.185000
9.314285,0.965000
9.924285,0.965000
9.924285,1.185000
Z" /> 
<path style="fill:#B4A09A; fill-opacity:0.900000; stroke:none;fill-rule:evenodd;"
d="M 9.684285,0.735000
9.464285,0.735000
9.464285,0.125000
9.684285,0.125000
Z" /> 
<path style="fill:#B4A09A; fill-opacity:0.900000; stroke:none;fill-rule:evenodd;"
d="M 9.284285,0.735000
9.064285,0.735000
9.064285,0.125000
9.284285,0.125000
Z" /> 
<path style="fill:#B4A09A; fill-opacity:0.900000; stroke:none;fill-rule:evenodd;"
d="M 8.884285,0.735000
8.664285,0.735000
8.664285,0.125000
8.884285,0.125000
Z" /> 
<path style="fill:#B4A09A; fill-opacity:0.900000; stroke:none;fill-rule:evenodd;"
d="M 8.484285,0.735000
8.264285,0.735000
8.264285,0.125000
8.484285,0.125000
Z" /> 
<path style="fill:#B4A09A; fill-opacity:0.900000; stroke:none;fill-rule:evenodd;"
d="M 8.084285,0.735000
7.864285,0.735000
7.864285,0.125000
8.084285,0.125000
Z" /> 
<path style="fill:#B4A09A; fill-opacity:0.900000; stroke:none;fill-rule:evenodd;"
d="M 7.624285,1.185000
7.624285,0.965000
8.234285,0.965000
8.234285,1.185000
Z" /> 
<path style="fill:#B4A09A; fill-opacity:0.900000; stroke:none;fill-rule:evenodd;"
d="M 7.624285,1.585000
7.624285,1.365000
8.234285,1.365000
8.234285,1.585000
Z" /> 
</g>
<g style="fill:none; 
stroke:#F2EDA1; stroke-width:0.050000; stroke-opacity:1; 
stroke-linecap:round; stroke-linejoin:round;">
<g transform="rotate(-90.000000 8.479645 1.469360)">
<text x="8.479645" y="1.569360"
textLength="0.967143" font-size="0.266666" lengthAdjust="spacingAndGlyphs"
text-anchor="middle" opacity="0" stroke-opacity="0">REF**</text>
</g>
<g class="stroked-text"><desc>REF**</desc>
<path d="M8.569569 1.736026
L8.474331 1.802692
" />
<path d="M8.569569 1.850311
L8.369569 1.850311
" />
<path d="M8.369569 1.850311
L8.369569 1.774121
" />
<path d="M8.369569 1.774121
L8.379093 1.755073
" />
<path d="M8.379093 1.755073
L8.388617 1.745550
" />
<path d="M8.388617 1.745550
L8.407665 1.736026
" />
<path d="M8.407665 1.736026
L8.436236 1.736026
" />
<path d="M8.436236 1.736026
L8.455284 1.745550
" />
<path d="M8.455284 1.745550
L8.464807 1.755073
" />
<path d="M8.464807 1.755073
L8.474331 1.774121
" />
<path d="M8.474331 1.774121
L8.474331 1.850311
" />
<path d="M8.464807 1.650311
L8.464807 1.583645
" />
<path d="M8.569569 1.555073
L8.569569 1.650311
" />
<path d="M8.569569 1.650311
L8.369569 1.650311
" />
<path d="M8.369569 1.650311
L8.369569 1.555073
" />
<path d="M8.464807 1.402693
L8.464807 1.469359
" />
<path d="M8.569569 1.469359
L8.369569 1.469359
" />
<path d="M8.369569 1.469359
L8.369569 1.374121
" />
<path d="M8.369569 1.269360
L8.417188 1.269360
" />
<path d="M8.398141 1.316978
L8.417188 1.269360
" />
<path d="M8.417188 1.269360
L8.398141 1.221741
" />
<path d="M8.455284 1.297930
L8.417188 1.269360
" />
<path d="M8.417188 1.269360
L8.455284 1.240789
" />
<path d="M8.369569 1.116979
L8.417188 1.116979
" />
<path d="M8.398141 1.164598
L8.417188 1.116979
" />
<path d="M8.417188 1.116979
L8.398141 1.069360
" />
<path d="M8.455284 1.145550
L8.417188 1.116979
" />
<path d="M8.417188 1.116979
L8.455284 1.088408
" />
</g><path d="M7.714285 0.245000
L7.714285 0.815000
" />
<path d="M7.714285 2.305000
L7.714285 1.735000
" />
<path d="M9.834285 0.245000
L9.834285 0.815000
" />
<path d="M9.834285 2.305000
L9.834285 1.735000
" />
</g>
<g style="fill:none; 
stroke:#FF26E2; stroke-width:0.050000; stroke-opacity:1; 
stroke-linecap:round; stroke-linejoin:round;">
<path d="M7.524285 0.865000
L7.524285 1.685000
" />
<path d="M7.524285 1.685000
L7.644285 1.685000
" />
<path d="M7.644285 0.145000
L7.644285 0.865000
" />
<path d="M7.644285 0.865000
L7.524285 0.865000
" />
<path d="M7.644285 1.685000
L7.644285 2.405000
" />
<path d="M7.644285 2.405000
L7.764285 2.405000
" />
<path d="M7.764285 0.025000
L7.764285 0.145000
" />
<path d="M7.764285 0.145000
L7.644285 0.145000
" />
<path d="M7.764285 2.405000
L7.764285 2.525000
" />
<path d="M7.764285 2.525000
L9.784285 2.525000
" />
<path d="M8.424285 1.275000
L9.124285 1.275000
" />
<path d="M8.774285 0.925000
L8.774285 1.625000
" />
<path d="M9.784285 0.025000
L7.764285 0.025000
" />
<path d="M9.784285 0.145000
L9.784285 0.025000
" />
<path d="M9.784285 2.405000
L9.904285 2.405000
" />
<path d="M9.784285 2.525000
L9.784285 2.405000
" />
<path d="M9.904285 0.145000
L9.784285 0.145000
" />
<path d="M9.904285 0.865000
L9.904285 0.145000
" />
<path d="M9.904285 1.685000
L10.024285 1.685000
" />
<path d="M9.904285 2.405000
L9.904285 1.685000
" />
<path d="M10.024285 0.865000
L9.904285 0.865000
" />
<path d="M10.024285 1.685000
L10.024285 0.865000
" />
<circle cx="8.774285" cy="1.275000" r="0.250000" /> 
</g>
<g style="fill:none; 
stroke:#AFAFAF; stroke-width:0.100000; stroke-opacity:1; 
stroke-linecap:round; stroke-linejoin:round;">
<text x="8.774285" y="1.775000"
textLength="4.385715" font-size="1.333333" lengthAdjust="spacingAndGlyphs"
text-anchor="middle" opacity="0" stroke-opacity="0">REF**</text>
<g class="stroked-text"><desc>REF**</desc>
<path d="M7.440952 1.732419
L7.107619 1.256229
" />
<path d="M6.869524 1.732419
L6.869524 0.732420
" />
<path d="M6.869524 0.732420
L7.250476 0.732420
" />
<path d="M7.250476 0.732420
L7.345714 0.780039
" />
<path d="M7.345714 0.780039
L7.393333 0.827658
" />
<path d="M7.393333 0.827658
L7.440952 0.922896
" />
<path d="M7.440952 0.922896
L7.440952 1.065753
" />
<path d="M7.440952 1.065753
L7.393333 1.160991
" />
<path d="M7.393333 1.160991
L7.345714 1.208610
" />
<path d="M7.345714 1.208610
L7.250476 1.256229
" />
<path d="M7.250476 1.256229
L6.869524 1.256229
" />
<path d="M7.869524 1.208610
L8.202857 1.208610
" />
<path d="M8.345714 1.732419
L7.869524 1.732419
" />
<path d="M7.869524 1.732419
L7.869524 0.732420
" />
<path d="M7.869524 0.732420
L8.345714 0.732420
" />
<path d="M9.107618 1.208610
L8.774285 1.208610
" />
<path d="M8.774285 1.732419
L8.774285 0.732420
" />
<path d="M8.774285 0.732420
L9.250475 0.732420
" />
<path d="M9.774285 0.732420
L9.774285 0.970515
" />
<path d="M9.536190 0.875277
L9.774285 0.970515
" />
<path d="M9.774285 0.970515
L10.012380 0.875277
" />
<path d="M9.631428 1.160991
L9.774285 0.970515
" />
<path d="M9.774285 0.970515
L9.917142 1.160991
" />
<path d="M10.536190 0.732420
L10.536190 0.970515
" />
<path d="M10.298095 0.875277
L10.536190 0.970515
" />
<path d="M10.536190 0.970515
L10.774285 0.875277
" />
<path d="M10.393333 1.160991
L10.536190 0.970515
" />
<path d="M10.536190 0.970515
L10.679047 1.160991
" />
</g></g>
<g style="fill:none; 
stroke:#AFAFAF; stroke-width:0.120000; stroke-opacity:1; 
stroke-linecap:round; stroke-linejoin:round;">
<text x="8.774285" y="1.875000"
textLength="17.548571" font-size="1.600000" lengthAdjust="spacingAndGlyphs"
text-anchor="middle" opacity="0" stroke-opacity="0">TPL0102-100RUCR</text>
<g class="stroked-text"><desc>TPL0102-100RUCR</desc>
<path d="M0.174286 0.623903
L0.860000 0.623903
" />
<path d="M0.517143 1.823902
L0.517143 0.623903
" />
<path d="M1.260001 1.823902
L1.260001 0.623903
" />
<path d="M1.260001 0.623903
L1.717144 0.623903
" />
<path d="M1.717144 0.623903
L1.831429 0.681046
" />
<path d="M1.831429 0.681046
L1.888572 0.738189
" />
<path d="M1.888572 0.738189
L1.945715 0.852475
" />
<path d="M1.945715 0.852475
L1.945715 1.023903
" />
<path d="M1.945715 1.023903
L1.888572 1.138189
" />
<path d="M1.888572 1.138189
L1.831429 1.195332
" />
<path d="M1.831429 1.195332
L1.717144 1.252475
" />
<path d="M1.717144 1.252475
L1.260001 1.252475
" />
<path d="M3.031429 1.823902
L2.460001 1.823902
" />
<path d="M2.460001 1.823902
L2.460001 0.623903
" />
<path d="M3.660001 0.623903
L3.774287 0.623903
" />
<path d="M3.774287 0.623903
L3.888573 0.681046
" />
<path d="M3.888573 0.681046
L3.945715 0.738189
" />
<path d="M3.945715 0.738189
L4.002858 0.852475
" />
<path d="M4.002858 0.852475
L4.060001 1.081046
" />
<path d="M4.060001 1.081046
L4.060001 1.366760
" />
<path d="M4.060001 1.366760
L4.002858 1.595331
" />
<path d="M4.002858 1.595331
L3.945715 1.709617
" />
<path d="M3.945715 1.709617
L3.888573 1.766760
" />
<path d="M3.888573 1.766760
L3.774287 1.823902
" />
<path d="M3.774287 1.823902
L3.660001 1.823902
" />
<path d="M3.660001 1.823902
L3.545715 1.766760
" />
<path d="M3.545715 1.766760
L3.488573 1.709617
" />
<path d="M3.488573 1.709617
L3.431430 1.595331
" />
<path d="M3.431430 1.595331
L3.374287 1.366760
" />
<path d="M3.374287 1.366760
L3.374287 1.081046
" />
<path d="M3.374287 1.081046
L3.431430 0.852475
" />
<path d="M3.431430 0.852475
L3.488573 0.738189
" />
<path d="M3.488573 0.738189
L3.545715 0.681046
" />
<path d="M3.545715 0.681046
L3.660001 0.623903
" />
<path d="M5.202858 1.823902
L4.517144 1.823902
" />
<path d="M4.860001 1.823902
L4.860001 0.623903
" />
<path d="M4.860001 0.623903
L4.745715 0.795332
" />
<path d="M4.745715 0.795332
L4.631430 0.909618
" />
<path d="M4.631430 0.909618
L4.517144 0.966760
" />
<path d="M5.945715 0.623903
L6.060001 0.623903
" />
<path d="M6.060001 0.623903
L6.174287 0.681046
" />
<path d="M6.174287 0.681046
L6.231429 0.738189
" />
<path d="M6.231429 0.738189
L6.288572 0.852475
" />
<path d="M6.288572 0.852475
L6.345715 1.081046
" />
<path d="M6.345715 1.081046
L6.345715 1.366760
" />
<path d="M6.345715 1.366760
L6.288572 1.595331
" />
<path d="M6.288572 1.595331
L6.231429 1.709617
" />
<path d="M6.231429 1.709617
L6.174287 1.766760
" />
<path d="M6.174287 1.766760
L6.060001 1.823902
" />
<path d="M6.060001 1.823902
L5.945715 1.823902
" />
<path d="M5.945715 1.823902
L5.831429 1.766760
" />
<path d="M5.831429 1.766760
L5.774287 1.709617
" />
<path d="M5.774287 1.709617
L5.717144 1.595331
" />
<path d="M5.717144 1.595331
L5.660001 1.366760
" />
<path d="M5.660001 1.366760
L5.660001 1.081046
" />
<path d="M5.660001 1.081046
L5.717144 0.852475
" />
<path d="M5.717144 0.852475
L5.774287 0.738189
" />
<path d="M5.774287 0.738189
L5.831429 0.681046
" />
<path d="M5.831429 0.681046
L5.945715 0.623903
" />
<path d="M6.802858 0.738189
L6.860001 0.681046
" />
<path d="M6.860001 0.681046
L6.974286 0.623903
" />
<path d="M6.974286 0.623903
L7.260001 0.623903
" />
<path d="M7.260001 0.623903
L7.374286 0.681046
" />
<path d="M7.374286 0.681046
L7.431429 0.738189
" />
<path d="M7.431429 0.738189
L7.488572 0.852475
" />
<path d="M7.488572 0.852475
L7.488572 0.966760
" />
<path d="M7.488572 0.966760
L7.431429 1.138189
" />
<path d="M7.431429 1.138189
L6.745715 1.823902
" />
<path d="M6.745715 1.823902
L7.488572 1.823902
" />
<path d="M8.002858 1.366760
L8.917143 1.366760
" />
<path d="M10.117142 1.823902
L9.431428 1.823902
" />
<path d="M9.774285 1.823902
L9.774285 0.623903
" />
<path d="M9.774285 0.623903
L9.659999 0.795332
" />
<path d="M9.659999 0.795332
L9.545714 0.909618
" />
<path d="M9.545714 0.909618
L9.431428 0.966760
" />
<path d="M10.859999 0.623903
L10.974285 0.623903
" />
<path d="M10.974285 0.623903
L11.088571 0.681046
" />
<path d="M11.088571 0.681046
L11.145714 0.738189
" />
<path d="M11.145714 0.738189
L11.202856 0.852475
" />
<path d="M11.202856 0.852475
L11.259999 1.081046
" />
<path d="M11.259999 1.081046
L11.259999 1.366760
" />
<path d="M11.259999 1.366760
L11.202856 1.595331
" />
<path d="M11.202856 1.595331
L11.145714 1.709617
" />
<path d="M11.145714 1.709617
L11.088571 1.766760
" />
<path d="M11.088571 1.766760
L10.974285 1.823902
" />
<path d="M10.974285 1.823902
L10.859999 1.823902
" />
<path d="M10.859999 1.823902
L10.745714 1.766760
" />
<path d="M10.745714 1.766760
L10.688571 1.709617
" />
<path d="M10.688571 1.709617
L10.631428 1.595331
" />
<path d="M10.631428 1.595331
L10.574285 1.366760
" />
<path d="M10.574285 1.366760
L10.574285 1.081046
" />
<path d="M10.574285 1.081046
L10.631428 0.852475
" />
<path d="M10.631428 0.852475
L10.688571 0.738189
" />
<path d="M10.688571 0.738189
L10.745714 0.681046
" />
<path d="M10.745714 0.681046
L10.859999 0.623903
" />
<path d="M12.002856 0.623903
L12.117142 0.623903
" />
<path d="M12.117142 0.623903
L12.231428 0.681046
" />
<path d="M12.231428 0.681046
L12.288571 0.738189
" />
<path d="M12.288571 0.738189
L12.345713 0.852475
" />
<path d="M12.345713 0.852475
L12.402856 1.081046
" />
<path d="M12.402856 1.081046
L12.402856 1.366760
" />
<path d="M12.402856 1.366760
L12.345713 1.595331
" />
<path d="M12.345713 1.595331
L12.288571 1.709617
" />
<path d="M12.288571 1.709617
L12.231428 1.766760
" />
<path d="M12.231428 1.766760
L12.117142 1.823902
" />
<path d="M12.117142 1.823902
L12.002856 1.823902
" />
<path d="M12.002856 1.823902
L11.888571 1.766760
" />
<path d="M11.888571 1.766760
L11.831428 1.709617
" />
<path d="M11.831428 1.709617
L11.774285 1.595331
" />
<path d="M11.774285 1.595331
L11.717142 1.366760
" />
<path d="M11.717142 1.366760
L11.717142 1.081046
" />
<path d="M11.717142 1.081046
L11.774285 0.852475
" />
<path d="M11.774285 0.852475
L11.831428 0.738189
" />
<path d="M11.831428 0.738189
L11.888571 0.681046
" />
<path d="M11.888571 0.681046
L12.002856 0.623903
" />
<path d="M13.602856 1.823902
L13.202856 1.252475
" />
<path d="M12.917142 1.823902
L12.917142 0.623903
" />
<path d="M12.917142 0.623903
L13.374285 0.623903
" />
<path d="M13.374285 0.623903
L13.488570 0.681046
" />
<path d="M13.488570 0.681046
L13.545713 0.738189
" />
<path d="M13.545713 0.738189
L13.602856 0.852475
" />
<path d="M13.602856 0.852475
L13.602856 1.023903
" />
<path d="M13.602856 1.023903
L13.545713 1.138189
" />
<path d="M13.545713 1.138189
L13.488570 1.195332
" />
<path d="M13.488570 1.195332
L13.374285 1.252475
" />
<path d="M13.374285 1.252475
L12.917142 1.252475
" />
<path d="M14.117142 0.623903
L14.117142 1.595331
" />
<path d="M14.117142 1.595331
L14.174285 1.709617
" />
<path d="M14.174285 1.709617
L14.231428 1.766760
" />
<path d="M14.231428 1.766760
L14.345713 1.823902
" />
<path d="M14.345713 1.823902
L14.574285 1.823902
" />
<path d="M14.574285 1.823902
L14.688570 1.766760
" />
<path d="M14.688570 1.766760
L14.745713 1.709617
" />
<path d="M14.745713 1.709617
L14.802856 1.595331
" />
<path d="M14.802856 1.595331
L14.802856 0.623903
" />
<path d="M16.059999 1.709617
L16.002856 1.766760
" />
<path d="M16.002856 1.766760
L15.831428 1.823902
" />
<path d="M15.831428 1.823902
L15.717142 1.823902
" />
<path d="M15.717142 1.823902
L15.545713 1.766760
" />
<path d="M15.545713 1.766760
L15.431428 1.652474
" />
<path d="M15.431428 1.652474
L15.374285 1.538188
" />
<path d="M15.374285 1.538188
L15.317142 1.309617
" />
<path d="M15.317142 1.309617
L15.317142 1.138189
" />
<path d="M15.317142 1.138189
L15.374285 0.909618
" />
<path d="M15.374285 0.909618
L15.431428 0.795332
" />
<path d="M15.431428 0.795332
L15.545713 0.681046
" />
<path d="M15.545713 0.681046
L15.717142 0.623903
" />
<path d="M15.717142 0.623903
L15.831428 0.623903
" />
<path d="M15.831428 0.623903
L16.002856 0.681046
" />
<path d="M16.002856 0.681046
L16.059999 0.738189
" />
<path d="M17.259999 1.823902
L16.859999 1.252475
" />
<path d="M16.574285 1.823902
L16.574285 0.623903
" />
<path d="M16.574285 0.623903
L17.031428 0.623903
" />
<path d="M17.031428 0.623903
L17.145713 0.681046
" />
<path d="M17.145713 0.681046
L17.202856 0.738189
" />
<path d="M17.202856 0.738189
L17.259999 0.852475
" />
<path d="M17.259999 0.852475
L17.259999 1.023903
" />
<path d="M17.259999 1.023903
L17.202856 1.138189
" />
<path d="M17.202856 1.138189
L17.145713 1.195332
" />
<path d="M17.145713 1.195332
L17.031428 1.252475
" />
<path d="M17.031428 1.252475
L16.574285 1.252475
" />
</g><path d="M7.744285 0.245000
L9.804285 0.245000
" />
<path d="M7.744285 2.305000
L7.744285 0.245000
" />
<path d="M9.804285 0.245000
L9.804285 2.305000
" />
<path d="M9.804285 2.305000
L7.744285 2.305000
" />
</g>
<g style="fill:none; 
stroke:#C2C2C2; stroke-width:0.025000; stroke-opacity:1; 
stroke-linecap:round; stroke-linejoin:round;">
<path d="M7.774285 0.275000
L9.774285 0.275000
" />
<path d="M7.774285 0.975000
L8.174285 0.975000
" />
<path d="M7.774285 1.175000
L7.774285 0.975000
" />
<path d="M7.774285 1.375000
L8.174285 1.375000
" />
<path d="M7.774285 1.575000
L7.774285 1.375000
" />
<path d="M7.774285 2.275000
L7.774285 0.275000
" />
<path d="M7.874285 0.275000
L8.074285 0.275000
" />
<path d="M7.874285 0.675000
L7.874285 0.275000
" />
<path d="M7.874285 1.875000
L8.074285 1.875000
" />
<path d="M7.874285 2.275000
L7.874285 1.875000
" />
<path d="M8.074285 0.275000
L8.074285 0.675000
" />
<path d="M8.074285 0.675000
L7.874285 0.675000
" />
<path d="M8.074285 1.875000
L8.074285 2.275000
" />
<path d="M8.074285 2.275000
L7.874285 2.275000
" />
<path d="M8.174285 0.975000
L8.174285 1.175000
" />
<path d="M8.174285 1.175000
L7.774285 1.175000
" />
<path d="M8.174285 1.375000
L8.174285 1.575000
" />
<path d="M8.174285 1.575000
L7.774285 1.575000
" />
<path d="M8.274285 0.275000
L8.474285 0.275000
" />
<path d="M8.274285 0.675000
L8.274285 0.275000
" />
<path d="M8.274285 1.875000
L8.474285 1.875000
" />
<path d="M8.274285 2.275000
L8.274285 1.875000
" />
<path d="M8.474285 0.275000
L8.474285 0.675000
" />
<path d="M8.474285 0.675000
L8.274285 0.675000
" />
<path d="M8.474285 1.875000
L8.474285 2.275000
" />
<path d="M8.474285 2.275000
L8.274285 2.275000
" />
<path d="M8.674285 0.275000
L8.874285 0.275000
" />
<path d="M8.674285 0.675000
L8.674285 0.275000
" />
<path d="M8.674285 1.875000
L8.874285 1.875000
" />
<path d="M8.674285 2.275000
L8.674285 1.875000
" />
<path d="M8.874285 0.275000
L8.874285 0.675000
" />
<path d="M8.874285 0.675000
L8.674285 0.675000
" />
<path d="M8.874285 1.875000
L8.874285 2.275000
" />
<path d="M8.874285 2.275000
L8.674285 2.275000
" />
<path d="M9.074285 0.275000
L9.274285 0.275000
" />
<path d="M9.074285 0.675000
L9.074285 0.275000
" />
<path d="M9.074285 1.875000
L9.274285 1.875000
" />
<path d="M9.074285 2.275000
L9.074285 1.875000
" />
<path d="M9.274285 0.275000
L9.274285 0.675000
" />
<path d="M9.274285 0.675000
L9.074285 0.675000
" />
<path d="M9.274285 1.875000
L9.274285 2.275000
" />
<path d="M9.274285 2.275000
L9.074285 2.275000
" />
<path d="M9.374285 0.975000
L9.774285 0.975000
" />
<path d="M9.374285 1.175000
L9.374285 0.975000
" />
<path d="M9.374285 1.375000
L9.774285 1.375000
" />
<path d="M9.374285 1.575000
L9.374285 1.375000
" />
<path d="M9.474285 0.275000
L9.674285 0.275000
" />
<path d="M9.474285 0.675000
L9.474285 0.275000
" />
<path d="M9.474285 1.875000
L9.674285 1.875000
" />
<path d="M9.474285 2.275000
L9.474285 1.875000
" />
<path d="M9.674285 0.275000
L9.674285 0.675000
" />
<path d="M9.674285 0.675000
L9.474285 0.675000
" />
<path d="M9.674285 1.875000
L9.674285 2.275000
" />
<path d="M9.674285 2.275000
L9.474285 2.275000
" />
<path d="M9.774285 0.275000
L9.774285 2.275000
" />
<path d="M9.774285 0.975000
L9.774285 1.175000
" />
<path d="M9.774285 1.175000
L9.374285 1.175000
" />
<path d="M9.774285 1.375000
L9.774285 1.575000
" />
<path d="M9.774285 1.575000
L9.374285 1.575000
" />
<path d="M9.774285 2.275000
L7.774285 2.275000
" />
</g> 
</svg>
