<?xml version="1.0" standalone="no"?>
 <!DOCTYPE svg PUBLIC "-//W3C//DTD SVG 1.1//EN" 
 "http://www.w3.org/Graphics/SVG/1.1/DTD/svg11.dtd"> 
<svg
  xmlns:svg="http://www.w3.org/2000/svg"
  xmlns="http://www.w3.org/2000/svg"
  xmlns:xlink="http://www.w3.org/1999/xlink"
  xmlns:inkscape="http://www.inkscape.org/namespaces/inkscape"
  version="1.1"
  width="100%" height="100%" viewBox="0.0000 0.0000 15.7480 7.0104">
<title>SVG Image created as R_Small_US_unit1.svg date 2026-04-16T01:12:06 </title>
  <desc>Image generated by Eeschema-SVG </desc>
<g style="fill:#000000; fill-opacity:1.0000;stroke:#000000; stroke-opacity:1.0000;
stroke-linecap:round; stroke-linejoin:round;"
 transform="translate(0 0) scale(1 1)">
<path style="fill:none; 
stroke:#840000; stroke-width:0.1524; stroke-opacity:1; 
stroke-linecap:round; stroke-linejoin:round;fill:none"
d="M 2.3261,1.9812
3.3421,2.3622
2.3261,2.7432
1.3101,3.1242
2.3261,3.5052
" /> 
<path style="fill:none; 
stroke:#840000; stroke-width:0.1524; stroke-opacity:1; 
stroke-linecap:round; stroke-linejoin:round;fill:none"
d="M 2.3261,3.5052
3.3421,3.8862
2.3261,4.2672
1.3101,4.6482
2.3261,5.0292
" /> 
</g>
<g style="fill:none; 
stroke:#840000; stroke-width:0.1524; stroke-opacity:1; 
stroke-linecap:round; stroke-linejoin:round;">
<path d="M2.3261 1.9812
L2.3261 0.9652
" />
<path d="M2.3261 5.0292
L2.3261 6.0452
" />
</g>
<g style="fill:none; 
stroke:#006464; stroke-width:0.1524; stroke-opacity:1; 
stroke-linecap:round; stroke-linejoin:round;">
<text x="3.0881" y="3.6322"
textLength="2.5618" font-size="1.6933" lengthAdjust="spacingAndGlyphs"
text-anchor="start" opacity="0" stroke-opacity="0">R?</text>
<g class="stroked-text"><desc>R?</desc>
<path d="M4.2163 3.5767
L3.7930 2.9720
" />
<path d="M3.4906 3.5767
L3.4906 2.3067
" />
<path d="M3.4906 2.3067
L3.9744 2.3067
" />
<path d="M3.9744 2.3067
L4.0954 2.3672
" />
<path d="M4.0954 2.3672
L4.1559 2.4277
" />
<path d="M4.1559 2.4277
L4.2163 2.5486
" />
<path d="M4.2163 2.5486
L4.2163 2.7301
" />
<path d="M4.2163 2.7301
L4.1559 2.8510
" />
<path d="M4.1559 2.8510
L4.0954 2.9115
" />
<path d="M4.0954 2.9115
L3.9744 2.9720
" />
<path d="M3.9744 2.9720
L3.4906 2.9720
" />
<path d="M4.9421 3.4558
L5.0025 3.5163
" />
<path d="M5.0025 3.5163
L4.9421 3.5767
" />
<path d="M4.9421 3.5767
L4.8816 3.5163
" />
<path d="M4.8816 3.5163
L4.9421 3.4558
" />
<path d="M4.9421 3.4558
L4.9421 3.5767
" />
<path d="M4.7002 2.3672
L4.8211 2.3067
" />
<path d="M4.8211 2.3067
L5.1235 2.3067
" />
<path d="M5.1235 2.3067
L5.2444 2.3672
" />
<path d="M5.2444 2.3672
L5.3049 2.4882
" />
<path d="M5.3049 2.4882
L5.3049 2.6091
" />
<path d="M5.3049 2.6091
L5.2444 2.7301
" />
<path d="M5.2444 2.7301
L5.1840 2.7905
" />
<path d="M5.1840 2.7905
L5.0630 2.8510
" />
<path d="M5.0630 2.8510
L5.0025 2.9115
" />
<path d="M5.0025 2.9115
L4.9421 3.0324
" />
<path d="M4.9421 3.0324
L4.9421 3.0929
" />
</g><text x="3.0881" y="5.1562"
textLength="11.3306" font-size="1.6933" lengthAdjust="spacingAndGlyphs"
text-anchor="start" opacity="0" stroke-opacity="0">R_Small_US</text>
<g class="stroked-text"><desc>R_Small_US</desc>
<path d="M4.2163 5.1007
L3.7930 4.4960
" />
<path d="M3.4906 5.1007
L3.4906 3.8307
" />
<path d="M3.4906 3.8307
L3.9744 3.8307
" />
<path d="M3.9744 3.8307
L4.0954 3.8912
" />
<path d="M4.0954 3.8912
L4.1559 3.9517
" />
<path d="M4.1559 3.9517
L4.2163 4.0726
" />
<path d="M4.2163 4.0726
L4.2163 4.2541
" />
<path d="M4.2163 4.2541
L4.1559 4.3750
" />
<path d="M4.1559 4.3750
L4.0954 4.4355
" />
<path d="M4.0954 4.4355
L3.9744 4.4960
" />
<path d="M3.9744 4.4960
L3.4906 4.4960
" />
<path d="M4.4583 5.2217
L5.4259 5.2217
" />
<path d="M5.6678 5.0403
L5.8492 5.1007
" />
<path d="M5.8492 5.1007
L6.1516 5.1007
" />
<path d="M6.1516 5.1007
L6.2725 5.0403
" />
<path d="M6.2725 5.0403
L6.3330 4.9798
" />
<path d="M6.3330 4.9798
L6.3935 4.8588
" />
<path d="M6.3935 4.8588
L6.3935 4.7379
" />
<path d="M6.3935 4.7379
L6.3330 4.6169
" />
<path d="M6.3330 4.6169
L6.2725 4.5564
" />
<path d="M6.2725 4.5564
L6.1516 4.4960
" />
<path d="M6.1516 4.4960
L5.9097 4.4355
" />
<path d="M5.9097 4.4355
L5.7887 4.3750
" />
<path d="M5.7887 4.3750
L5.7282 4.3145
" />
<path d="M5.7282 4.3145
L5.6678 4.1936
" />
<path d="M5.6678 4.1936
L5.6678 4.0726
" />
<path d="M5.6678 4.0726
L5.7282 3.9517
" />
<path d="M5.7282 3.9517
L5.7887 3.8912
" />
<path d="M5.7887 3.8912
L5.9097 3.8307
" />
<path d="M5.9097 3.8307
L6.2120 3.8307
" />
<path d="M6.2120 3.8307
L6.3935 3.8912
" />
<path d="M6.9377 5.1007
L6.9377 4.2541
" />
<path d="M6.9377 4.3750
L6.9982 4.3145
" />
<path d="M6.9982 4.3145
L7.1192 4.2541
" />
<path d="M7.1192 4.2541
L7.3006 4.2541
" />
<path d="M7.3006 4.2541
L7.4215 4.3145
" />
<path d="M7.4215 4.3145
L7.4820 4.4355
" />
<path d="M7.4820 4.4355
L7.4820 5.1007
" />
<path d="M7.4820 4.4355
L7.5425 4.3145
" />
<path d="M7.5425 4.3145
L7.6634 4.2541
" />
<path d="M7.6634 4.2541
L7.8449 4.2541
" />
<path d="M7.8449 4.2541
L7.9658 4.3145
" />
<path d="M7.9658 4.3145
L8.0263 4.4355
" />
<path d="M8.0263 4.4355
L8.0263 5.1007
" />
<path d="M9.1753 5.1007
L9.1753 4.4355
" />
<path d="M9.1753 4.4355
L9.1148 4.3145
" />
<path d="M9.1148 4.3145
L8.9939 4.2541
" />
<path d="M8.9939 4.2541
L8.7520 4.2541
" />
<path d="M8.7520 4.2541
L8.6310 4.3145
" />
<path d="M9.1753 5.0403
L9.0544 5.1007
" />
<path d="M9.0544 5.1007
L8.7520 5.1007
" />
<path d="M8.7520 5.1007
L8.6310 5.0403
" />
<path d="M8.6310 5.0403
L8.5706 4.9193
" />
<path d="M8.5706 4.9193
L8.5706 4.7983
" />
<path d="M8.5706 4.7983
L8.6310 4.6774
" />
<path d="M8.6310 4.6774
L8.7520 4.6169
" />
<path d="M8.7520 4.6169
L9.0544 4.6169
" />
<path d="M9.0544 4.6169
L9.1753 4.5564
" />
<path d="M9.9615 5.1007
L9.8405 5.0403
" />
<path d="M9.8405 5.0403
L9.7800 4.9193
" />
<path d="M9.7800 4.9193
L9.7800 3.8307
" />
<path d="M10.6267 5.1007
L10.5057 5.0403
" />
<path d="M10.5057 5.0403
L10.4452 4.9193
" />
<path d="M10.4452 4.9193
L10.4452 3.8307
" />
<path d="M10.8081 5.2217
L11.7757 5.2217
" />
<path d="M12.0780 3.8307
L12.0780 4.8588
" />
<path d="M12.0780 4.8588
L12.1385 4.9798
" />
<path d="M12.1385 4.9798
L12.1990 5.0403
" />
<path d="M12.1990 5.0403
L12.3199 5.1007
" />
<path d="M12.3199 5.1007
L12.5618 5.1007
" />
<path d="M12.5618 5.1007
L12.6828 5.0403
" />
<path d="M12.6828 5.0403
L12.7433 4.9798
" />
<path d="M12.7433 4.9798
L12.8037 4.8588
" />
<path d="M12.8037 4.8588
L12.8037 3.8307
" />
<path d="M13.3481 5.0403
L13.5295 5.1007
" />
<path d="M13.5295 5.1007
L13.8319 5.1007
" />
<path d="M13.8319 5.1007
L13.9528 5.0403
" />
<path d="M13.9528 5.0403
L14.0133 4.9798
" />
<path d="M14.0133 4.9798
L14.0738 4.8588
" />
<path d="M14.0738 4.8588
L14.0738 4.7379
" />
<path d="M14.0738 4.7379
L14.0133 4.6169
" />
<path d="M14.0133 4.6169
L13.9528 4.5564
" />
<path d="M13.9528 4.5564
L13.8319 4.4960
" />
<path d="M13.8319 4.4960
L13.5900 4.4355
" />
<path d="M13.5900 4.4355
L13.4690 4.3750
" />
<path d="M13.4690 4.3750
L13.4085 4.3145
" />
<path d="M13.4085 4.3145
L13.3481 4.1936
" />
<path d="M13.3481 4.1936
L13.3481 4.0726
" />
<path d="M13.3481 4.0726
L13.4085 3.9517
" />
<path d="M13.4085 3.9517
L13.4690 3.8912
" />
<path d="M13.4690 3.8912
L13.5900 3.8307
" />
<path d="M13.5900 3.8307
L13.8923 3.8307
" />
<path d="M13.8923 3.8307
L14.0738 3.8912
" />
</g></g> 
</svg>
