<?xml version="1.0" standalone="no"?>
 <!DOCTYPE svg PUBLIC "-//W3C//DTD SVG 1.1//EN" 
 "http://www.w3.org/Graphics/SVG/1.1/DTD/svg11.dtd"> 
<svg
  xmlns:svg="http://www.w3.org/2000/svg"
  xmlns="http://www.w3.org/2000/svg"
  xmlns:xlink="http://www.w3.org/1999/xlink"
  xmlns:inkscape="http://www.inkscape.org/namespaces/inkscape"
  version="1.1"
  width="100%" height="100%" viewBox="0.0000 0.0000 15.9004 7.0104">
<title>SVG Image created as R_Small_US_unit1.svg date 2026-04-16T05:18:24 </title>
  <desc>Image generated by Eeschema-SVG </desc>
<g style="fill:#000000; fill-opacity:1.0000;stroke:#000000; stroke-opacity:1.0000;
stroke-linecap:round; stroke-linejoin:round;"
 transform="translate(0 0) scale(1 1)">
<path style="fill:none; 
stroke:#840000; stroke-width:0.2540; stroke-opacity:1; 
stroke-linecap:round; stroke-linejoin:round;fill:none"
d="M 2.4658,1.9812
3.4818,2.3622
2.4658,2.7432
1.4498,3.1242
2.4658,3.5052
" /> 
<path style="fill:none; 
stroke:#840000; stroke-width:0.2540; stroke-opacity:1; 
stroke-linecap:round; stroke-linejoin:round;fill:none"
d="M 2.4658,3.5052
3.4818,3.8862
2.4658,4.2672
1.4498,4.6482
2.4658,5.0292
" /> 
</g>
<g style="fill:none; 
stroke:#840000; stroke-width:0.1524; stroke-opacity:1; 
stroke-linecap:round; stroke-linejoin:round;">
<path d="M2.4658 1.9812
L2.4658 0.9652
" />
<path d="M2.4658 5.0292
L2.4658 6.0452
" />
</g>
<g style="fill:none; 
stroke:#006464; stroke-width:0.1524; stroke-opacity:1; 
stroke-linecap:round; stroke-linejoin:round;">
<text x="3.2278" y="3.6322"
textLength="2.5618" font-size="1.6933" lengthAdjust="spacingAndGlyphs"
text-anchor="start" opacity="0" stroke-opacity="0">R?</text>
<g class="stroked-text"><desc>R?</desc>
<path d="M4.3560 3.5767
L3.9327 2.9720
" />
<path d="M3.6303 3.5767
L3.6303 2.3067
" />
<path d="M3.6303 2.3067
L4.1141 2.3067
" />
<path d="M4.1141 2.3067
L4.2351 2.3672
" />
<path d="M4.2351 2.3672
L4.2956 2.4277
" />
<path d="M4.2956 2.4277
L4.3560 2.5486
" />
<path d="M4.3560 2.5486
L4.3560 2.7301
" />
<path d="M4.3560 2.7301
L4.2956 2.8510
" />
<path d="M4.2956 2.8510
L4.2351 2.9115
" />
<path d="M4.2351 2.9115
L4.1141 2.9720
" />
<path d="M4.1141 2.9720
L3.6303 2.9720
" />
<path d="M5.0818 3.4558
L5.1422 3.5163
" />
<path d="M5.1422 3.5163
L5.0818 3.5767
" />
<path d="M5.0818 3.5767
L5.0213 3.5163
" />
<path d="M5.0213 3.5163
L5.0818 3.4558
" />
<path d="M5.0818 3.4558
L5.0818 3.5767
" />
<path d="M4.8399 2.3672
L4.9608 2.3067
" />
<path d="M4.9608 2.3067
L5.2632 2.3067
" />
<path d="M5.2632 2.3067
L5.3841 2.3672
" />
<path d="M5.3841 2.3672
L5.4446 2.4882
" />
<path d="M5.4446 2.4882
L5.4446 2.6091
" />
<path d="M5.4446 2.6091
L5.3841 2.7301
" />
<path d="M5.3841 2.7301
L5.3237 2.7905
" />
<path d="M5.3237 2.7905
L5.2027 2.8510
" />
<path d="M5.2027 2.8510
L5.1422 2.9115
" />
<path d="M5.1422 2.9115
L5.0818 3.0324
" />
<path d="M5.0818 3.0324
L5.0818 3.0929
" />
</g><text x="3.2278" y="5.1562"
textLength="11.3306" font-size="1.6933" lengthAdjust="spacingAndGlyphs"
text-anchor="start" opacity="0" stroke-opacity="0">R_Small_US</text>
<g class="stroked-text"><desc>R_Small_US</desc>
<path d="M4.3560 5.1007
L3.9327 4.4960
" />
<path d="M3.6303 5.1007
L3.6303 3.8307
" />
<path d="M3.6303 3.8307
L4.1141 3.8307
" />
<path d="M4.1141 3.8307
L4.2351 3.8912
" />
<path d="M4.2351 3.8912
L4.2956 3.9517
" />
<path d="M4.2956 3.9517
L4.3560 4.0726
" />
<path d="M4.3560 4.0726
L4.3560 4.2541
" />
<path d="M4.3560 4.2541
L4.2956 4.3750
" />
<path d="M4.2956 4.3750
L4.2351 4.4355
" />
<path d="M4.2351 4.4355
L4.1141 4.4960
" />
<path d="M4.1141 4.4960
L3.6303 4.4960
" />
<path d="M4.5980 5.2217
L5.5656 5.2217
" />
<path d="M5.8075 5.0403
L5.9889 5.1007
" />
<path d="M5.9889 5.1007
L6.2913 5.1007
" />
<path d="M6.2913 5.1007
L6.4122 5.0403
" />
<path d="M6.4122 5.0403
L6.4727 4.9798
" />
<path d="M6.4727 4.9798
L6.5332 4.8588
" />
<path d="M6.5332 4.8588
L6.5332 4.7379
" />
<path d="M6.5332 4.7379
L6.4727 4.6169
" />
<path d="M6.4727 4.6169
L6.4122 4.5564
" />
<path d="M6.4122 4.5564
L6.2913 4.4960
" />
<path d="M6.2913 4.4960
L6.0494 4.4355
" />
<path d="M6.0494 4.4355
L5.9284 4.3750
" />
<path d="M5.9284 4.3750
L5.8679 4.3145
" />
<path d="M5.8679 4.3145
L5.8075 4.1936
" />
<path d="M5.8075 4.1936
L5.8075 4.0726
" />
<path d="M5.8075 4.0726
L5.8679 3.9517
" />
<path d="M5.8679 3.9517
L5.9284 3.8912
" />
<path d="M5.9284 3.8912
L6.0494 3.8307
" />
<path d="M6.0494 3.8307
L6.3517 3.8307
" />
<path d="M6.3517 3.8307
L6.5332 3.8912
" />
<path d="M7.0774 5.1007
L7.0774 4.2541
" />
<path d="M7.0774 4.3750
L7.1379 4.3145
" />
<path d="M7.1379 4.3145
L7.2589 4.2541
" />
<path d="M7.2589 4.2541
L7.4403 4.2541
" />
<path d="M7.4403 4.2541
L7.5612 4.3145
" />
<path d="M7.5612 4.3145
L7.6217 4.4355
" />
<path d="M7.6217 4.4355
L7.6217 5.1007
" />
<path d="M7.6217 4.4355
L7.6822 4.3145
" />
<path d="M7.6822 4.3145
L7.8031 4.2541
" />
<path d="M7.8031 4.2541
L7.9846 4.2541
" />
<path d="M7.9846 4.2541
L8.1055 4.3145
" />
<path d="M8.1055 4.3145
L8.1660 4.4355
" />
<path d="M8.1660 4.4355
L8.1660 5.1007
" />
<path d="M9.3150 5.1007
L9.3150 4.4355
" />
<path d="M9.3150 4.4355
L9.2545 4.3145
" />
<path d="M9.2545 4.3145
L9.1336 4.2541
" />
<path d="M9.1336 4.2541
L8.8917 4.2541
" />
<path d="M8.8917 4.2541
L8.7707 4.3145
" />
<path d="M9.3150 5.0403
L9.1941 5.1007
" />
<path d="M9.1941 5.1007
L8.8917 5.1007
" />
<path d="M8.8917 5.1007
L8.7707 5.0403
" />
<path d="M8.7707 5.0403
L8.7103 4.9193
" />
<path d="M8.7103 4.9193
L8.7103 4.7983
" />
<path d="M8.7103 4.7983
L8.7707 4.6774
" />
<path d="M8.7707 4.6774
L8.8917 4.6169
" />
<path d="M8.8917 4.6169
L9.1941 4.6169
" />
<path d="M9.1941 4.6169
L9.3150 4.5564
" />
<path d="M10.1012 5.1007
L9.9802 5.0403
" />
<path d="M9.9802 5.0403
L9.9197 4.9193
" />
<path d="M9.9197 4.9193
L9.9197 3.8307
" />
<path d="M10.7664 5.1007
L10.6454 5.0403
" />
<path d="M10.6454 5.0403
L10.5849 4.9193
" />
<path d="M10.5849 4.9193
L10.5849 3.8307
" />
<path d="M10.9478 5.2217
L11.9154 5.2217
" />
<path d="M12.2177 3.8307
L12.2177 4.8588
" />
<path d="M12.2177 4.8588
L12.2782 4.9798
" />
<path d="M12.2782 4.9798
L12.3387 5.0403
" />
<path d="M12.3387 5.0403
L12.4596 5.1007
" />
<path d="M12.4596 5.1007
L12.7015 5.1007
" />
<path d="M12.7015 5.1007
L12.8225 5.0403
" />
<path d="M12.8225 5.0403
L12.8830 4.9798
" />
<path d="M12.8830 4.9798
L12.9434 4.8588
" />
<path d="M12.9434 4.8588
L12.9434 3.8307
" />
<path d="M13.4878 5.0403
L13.6692 5.1007
" />
<path d="M13.6692 5.1007
L13.9716 5.1007
" />
<path d="M13.9716 5.1007
L14.0925 5.0403
" />
<path d="M14.0925 5.0403
L14.1530 4.9798
" />
<path d="M14.1530 4.9798
L14.2135 4.8588
" />
<path d="M14.2135 4.8588
L14.2135 4.7379
" />
<path d="M14.2135 4.7379
L14.1530 4.6169
" />
<path d="M14.1530 4.6169
L14.0925 4.5564
" />
<path d="M14.0925 4.5564
L13.9716 4.4960
" />
<path d="M13.9716 4.4960
L13.7297 4.4355
" />
<path d="M13.7297 4.4355
L13.6087 4.3750
" />
<path d="M13.6087 4.3750
L13.5482 4.3145
" />
<path d="M13.5482 4.3145
L13.4878 4.1936
" />
<path d="M13.4878 4.1936
L13.4878 4.0726
" />
<path d="M13.4878 4.0726
L13.5482 3.9517
" />
<path d="M13.5482 3.9517
L13.6087 3.8912
" />
<path d="M13.6087 3.8912
L13.7297 3.8307
" />
<path d="M13.7297 3.8307
L14.0320 3.8307
" />
<path d="M14.0320 3.8307
L14.2135 3.8912
" />
</g></g> 
</svg>
