<?xml version="1.0" standalone="no"?>
 <!DOCTYPE svg PUBLIC "-//W3C//DTD SVG 1.1//EN" 
 "http://www.w3.org/Graphics/SVG/1.1/DTD/svg11.dtd"> 
<svg
  xmlns:svg="http://www.w3.org/2000/svg"
  xmlns="http://www.w3.org/2000/svg"
  xmlns:xlink="http://www.w3.org/1999/xlink"
  xmlns:inkscape="http://www.inkscape.org/namespaces/inkscape"
  version="1.1"
  width="100%" height="100%" viewBox="0.0000 0.0000 28.3464 18.4404">
<title>SVG Image created as SC189ZULTRT_unit1.svg date 2026-04-16T01:12:06 </title>
  <desc>Image generated by Eeschema-SVG </desc>
<g style="fill:#000000; fill-opacity:1.0000;stroke:#000000; stroke-opacity:1.0000;
stroke-linecap:round; stroke-linejoin:round;"
 transform="translate(0 0) scale(1 1)">
</g>
<g style="fill:#FFFFC2; fill-opacity:1.0000; stroke:none;">
<rect x="5.283200" y="3.825500" width="17.780000" height="10.160000" rx="0.000000" />
</g>
<g style="fill:none; 
stroke:#840000; stroke-width:0.1524; stroke-opacity:1; 
stroke-linecap:round; stroke-linejoin:round;">
<rect x="5.283200" y="3.825500" width="17.780000" height="10.160000" rx="0.000000" />
<path d="M5.2832 8.9055
L2.7432 8.9055
" />
</g>
<g style="fill:none; 
stroke:#006464; stroke-width:0.1524; stroke-opacity:1; 
stroke-linecap:round; stroke-linejoin:round;">
<text x="6.2992" y="9.5405"
textLength="2.6827" font-size="1.6933" lengthAdjust="spacingAndGlyphs"
text-anchor="start" opacity="0" stroke-opacity="0">EN</text>
<g class="stroked-text"><desc>EN</desc>
<path d="M6.7017 8.8198
L7.1251 8.8198
" />
<path d="M7.3065 9.4850
L6.7017 9.4850
" />
<path d="M6.7017 9.4850
L6.7017 8.2150
" />
<path d="M6.7017 8.2150
L7.3065 8.2150
" />
<path d="M7.8507 9.4850
L7.8507 8.2150
" />
<path d="M7.8507 8.2150
L8.5764 9.4850
" />
<path d="M8.5764 9.4850
L8.5764 8.2150
" />
</g></g>
<g style="fill:none; 
stroke:#A90000; stroke-width:0.1524; stroke-opacity:1; 
stroke-linecap:round; stroke-linejoin:round;">
<text x="4.0132" y="8.6515"
textLength="1.4127" font-size="1.6933" lengthAdjust="spacingAndGlyphs"
text-anchor="middle" opacity="0" stroke-opacity="0">2</text>
<g class="stroked-text"><desc>2</desc>
<path d="M3.6504 7.3390
L3.7108 7.2785
" />
<path d="M3.7108 7.2785
L3.8318 7.2180
" />
<path d="M3.8318 7.2180
L4.1342 7.2180
" />
<path d="M4.1342 7.2180
L4.2551 7.2785
" />
<path d="M4.2551 7.2785
L4.3156 7.3390
" />
<path d="M4.3156 7.3390
L4.3761 7.4599
" />
<path d="M4.3761 7.4599
L4.3761 7.5809
" />
<path d="M4.3761 7.5809
L4.3156 7.7623
" />
<path d="M4.3156 7.7623
L3.5899 8.4880
" />
<path d="M3.5899 8.4880
L4.3761 8.4880
" />
</g></g>
<g style="fill:none; 
stroke:#840000; stroke-width:0.1524; stroke-opacity:1; 
stroke-linecap:round; stroke-linejoin:round;">
<path d="M5.2832 6.3655
L2.7432 6.3655
" />
</g>
<g style="fill:none; 
stroke:#006464; stroke-width:0.1524; stroke-opacity:1; 
stroke-linecap:round; stroke-linejoin:round;">
<text x="6.2992" y="7.0005"
textLength="3.2271" font-size="1.6933" lengthAdjust="spacingAndGlyphs"
text-anchor="start" opacity="0" stroke-opacity="0">VIN</text>
<g class="stroked-text"><desc>VIN</desc>
<path d="M6.5203 5.6750
L6.9436 6.9450
" />
<path d="M6.9436 6.9450
L7.3670 5.6750
" />
<path d="M7.7903 6.9450
L7.7903 5.6750
" />
<path d="M8.3951 6.9450
L8.3951 5.6750
" />
<path d="M8.3951 5.6750
L9.1208 6.9450
" />
<path d="M9.1208 6.9450
L9.1208 5.6750
" />
</g></g>
<g style="fill:none; 
stroke:#A90000; stroke-width:0.1524; stroke-opacity:1; 
stroke-linecap:round; stroke-linejoin:round;">
<text x="4.0132" y="6.1115"
textLength="1.4127" font-size="1.6933" lengthAdjust="spacingAndGlyphs"
text-anchor="middle" opacity="0" stroke-opacity="0">3</text>
<g class="stroked-text"><desc>3</desc>
<path d="M3.5899 4.6780
L4.3761 4.6780
" />
<path d="M4.3761 4.6780
L3.9527 5.1618
" />
<path d="M3.9527 5.1618
L4.1342 5.1618
" />
<path d="M4.1342 5.1618
L4.2551 5.2223
" />
<path d="M4.2551 5.2223
L4.3156 5.2828
" />
<path d="M4.3156 5.2828
L4.3761 5.4037
" />
<path d="M4.3761 5.4037
L4.3761 5.7061
" />
<path d="M4.3761 5.7061
L4.3156 5.8271
" />
<path d="M4.3156 5.8271
L4.2551 5.8876
" />
<path d="M4.2551 5.8876
L4.1342 5.9480
" />
<path d="M4.1342 5.9480
L3.7713 5.9480
" />
<path d="M3.7713 5.9480
L3.6504 5.8876
" />
<path d="M3.6504 5.8876
L3.5899 5.8271
" />
</g></g>
<g style="fill:none; 
stroke:#840000; stroke-width:0.1524; stroke-opacity:1; 
stroke-linecap:round; stroke-linejoin:round;">
<path d="M23.0632 6.3655
L25.6032 6.3655
" />
</g>
<g style="fill:none; 
stroke:#006464; stroke-width:0.1524; stroke-opacity:1; 
stroke-linecap:round; stroke-linejoin:round;">
<text x="22.0472" y="7.0005"
textLength="2.4408" font-size="1.6933" lengthAdjust="spacingAndGlyphs"
text-anchor="end" opacity="0" stroke-opacity="0">LX</text>
<g class="stroked-text"><desc>LX</desc>
<path d="M20.6165 6.9450
L20.0117 6.9450
" />
<path d="M20.0117 6.9450
L20.0117 5.6750
" />
<path d="M20.9189 5.6750
L21.7655 6.9450
" />
<path d="M21.7655 5.6750
L20.9189 6.9450
" />
</g></g>
<g style="fill:none; 
stroke:#A90000; stroke-width:0.1524; stroke-opacity:1; 
stroke-linecap:round; stroke-linejoin:round;">
<text x="24.3332" y="6.1115"
textLength="1.4127" font-size="1.6933" lengthAdjust="spacingAndGlyphs"
text-anchor="middle" opacity="0" stroke-opacity="0">4</text>
<g class="stroked-text"><desc>4</desc>
<path d="M24.5751 5.1014
L24.5751 5.9480
" />
<path d="M24.2727 4.6176
L23.9704 5.5247
" />
<path d="M23.9704 5.5247
L24.7565 5.5247
" />
</g></g>
<g style="fill:none; 
stroke:#840000; stroke-width:0.1524; stroke-opacity:1; 
stroke-linecap:round; stroke-linejoin:round;">
<path d="M12.9032 13.9855
L12.9032 16.5255
" />
</g>
<g style="fill:none; 
stroke:#006464; stroke-width:0.1524; stroke-opacity:1; 
stroke-linecap:round; stroke-linejoin:round;">
<g transform="rotate(-90.000000 12.9032 12.9695)">
<text x="12.9032" y="13.6045"
textLength="4.0737" font-size="1.6933" lengthAdjust="spacingAndGlyphs"
text-anchor="start" opacity="0" stroke-opacity="0">GND</text>
</g>
<g class="stroked-text"><desc>GND</desc>
<path d="M12.2732 11.9016
L12.2127 12.0226
" />
<path d="M12.2127 12.0226
L12.2127 12.2040
" />
<path d="M12.2127 12.2040
L12.2732 12.3854
" />
<path d="M12.2732 12.3854
L12.3942 12.5064
" />
<path d="M12.3942 12.5064
L12.5151 12.5669
" />
<path d="M12.5151 12.5669
L12.7570 12.6273
" />
<path d="M12.7570 12.6273
L12.9384 12.6273
" />
<path d="M12.9384 12.6273
L13.1803 12.5669
" />
<path d="M13.1803 12.5669
L13.3013 12.5064
" />
<path d="M13.3013 12.5064
L13.4223 12.3854
" />
<path d="M13.4223 12.3854
L13.4827 12.2040
" />
<path d="M13.4827 12.2040
L13.4827 12.0831
" />
<path d="M13.4827 12.0831
L13.4223 11.9016
" />
<path d="M13.4223 11.9016
L13.3618 11.8412
" />
<path d="M13.3618 11.8412
L12.9384 11.8412
" />
<path d="M12.9384 11.8412
L12.9384 12.0831
" />
<path d="M13.4827 11.2969
L12.2127 11.2969
" />
<path d="M12.2127 11.2969
L13.4827 10.5712
" />
<path d="M13.4827 10.5712
L12.2127 10.5712
" />
<path d="M13.4827 9.9664
L12.2127 9.9664
" />
<path d="M12.2127 9.9664
L12.2127 9.6640
" />
<path d="M12.2127 9.6640
L12.2732 9.4826
" />
<path d="M12.2732 9.4826
L12.3942 9.3616
" />
<path d="M12.3942 9.3616
L12.5151 9.3011
" />
<path d="M12.5151 9.3011
L12.7570 9.2407
" />
<path d="M12.7570 9.2407
L12.9384 9.2407
" />
<path d="M12.9384 9.2407
L13.1803 9.3011
" />
<path d="M13.1803 9.3011
L13.3013 9.3616
" />
<path d="M13.3013 9.3616
L13.4223 9.4826
" />
<path d="M13.4223 9.4826
L13.4827 9.6640
" />
<path d="M13.4827 9.6640
L13.4827 9.9664
" />
</g></g>
<g style="fill:none; 
stroke:#A90000; stroke-width:0.1524; stroke-opacity:1; 
stroke-linecap:round; stroke-linejoin:round;">
<g transform="rotate(-90.000000 12.6492 15.2555)">
<text x="12.6492" y="15.2555"
textLength="1.4127" font-size="1.6933" lengthAdjust="spacingAndGlyphs"
text-anchor="middle" opacity="0" stroke-opacity="0">5</text>
</g>
<g class="stroked-text"><desc>5</desc>
<path d="M11.2157 14.9530
L11.2157 15.5578
" />
<path d="M11.2157 15.5578
L11.8205 15.6182
" />
<path d="M11.8205 15.6182
L11.7600 15.5578
" />
<path d="M11.7600 15.5578
L11.6995 15.4368
" />
<path d="M11.6995 15.4368
L11.6995 15.1344
" />
<path d="M11.6995 15.1344
L11.7600 15.0135
" />
<path d="M11.7600 15.0135
L11.8205 14.9530
" />
<path d="M11.8205 14.9530
L11.9414 14.8925
" />
<path d="M11.9414 14.8925
L12.2438 14.8925
" />
<path d="M12.2438 14.8925
L12.3648 14.9530
" />
<path d="M12.3648 14.9530
L12.4253 15.0135
" />
<path d="M12.4253 15.0135
L12.4857 15.1344
" />
<path d="M12.4857 15.1344
L12.4857 15.4368
" />
<path d="M12.4857 15.4368
L12.4253 15.5578
" />
<path d="M12.4253 15.5578
L12.3648 15.6182
" />
</g></g>
<g style="fill:none; 
stroke:#840000; stroke-width:0.1524; stroke-opacity:1; 
stroke-linecap:round; stroke-linejoin:round;">
<path d="M23.0632 8.9055
L25.6032 8.9055
" />
</g>
<g style="fill:none; 
stroke:#006464; stroke-width:0.1524; stroke-opacity:1; 
stroke-linecap:round; stroke-linejoin:round;">
<text x="22.0472" y="9.5405"
textLength="4.9204" font-size="1.6933" lengthAdjust="spacingAndGlyphs"
text-anchor="end" opacity="0" stroke-opacity="0">VOUT</text>
<g class="stroked-text"><desc>VOUT</desc>
<path d="M17.3507 8.2150
L17.7740 9.4850
" />
<path d="M17.7740 9.4850
L18.1974 8.2150
" />
<path d="M18.8626 8.2150
L19.1045 8.2150
" />
<path d="M19.1045 8.2150
L19.2255 8.2755
" />
<path d="M19.2255 8.2755
L19.3464 8.3965
" />
<path d="M19.3464 8.3965
L19.4069 8.6384
" />
<path d="M19.4069 8.6384
L19.4069 9.0617
" />
<path d="M19.4069 9.0617
L19.3464 9.3036
" />
<path d="M19.3464 9.3036
L19.2255 9.4246
" />
<path d="M19.2255 9.4246
L19.1045 9.4850
" />
<path d="M19.1045 9.4850
L18.8626 9.4850
" />
<path d="M18.8626 9.4850
L18.7417 9.4246
" />
<path d="M18.7417 9.4246
L18.6207 9.3036
" />
<path d="M18.6207 9.3036
L18.5603 9.0617
" />
<path d="M18.5603 9.0617
L18.5603 8.6384
" />
<path d="M18.5603 8.6384
L18.6207 8.3965
" />
<path d="M18.6207 8.3965
L18.7417 8.2755
" />
<path d="M18.7417 8.2755
L18.8626 8.2150
" />
<path d="M19.9512 8.2150
L19.9512 9.2431
" />
<path d="M19.9512 9.2431
L20.0117 9.3641
" />
<path d="M20.0117 9.3641
L20.0722 9.4246
" />
<path d="M20.0722 9.4246
L20.1931 9.4850
" />
<path d="M20.1931 9.4850
L20.4350 9.4850
" />
<path d="M20.4350 9.4850
L20.5560 9.4246
" />
<path d="M20.5560 9.4246
L20.6165 9.3641
" />
<path d="M20.6165 9.3641
L20.6769 9.2431
" />
<path d="M20.6769 9.2431
L20.6769 8.2150
" />
<path d="M21.1003 8.2150
L21.8260 8.2150
" />
<path d="M21.4632 9.4850
L21.4632 8.2150
" />
</g></g>
<g style="fill:none; 
stroke:#A90000; stroke-width:0.1524; stroke-opacity:1; 
stroke-linecap:round; stroke-linejoin:round;">
<text x="24.3332" y="8.6515"
textLength="1.4127" font-size="1.6933" lengthAdjust="spacingAndGlyphs"
text-anchor="middle" opacity="0" stroke-opacity="0">6</text>
<g class="stroked-text"><desc>6</desc>
<path d="M24.5751 7.2180
L24.3332 7.2180
" />
<path d="M24.3332 7.2180
L24.2123 7.2785
" />
<path d="M24.2123 7.2785
L24.1518 7.3390
" />
<path d="M24.1518 7.3390
L24.0308 7.5204
" />
<path d="M24.0308 7.5204
L23.9704 7.7623
" />
<path d="M23.9704 7.7623
L23.9704 8.2461
" />
<path d="M23.9704 8.2461
L24.0308 8.3671
" />
<path d="M24.0308 8.3671
L24.0913 8.4276
" />
<path d="M24.0913 8.4276
L24.2123 8.4880
" />
<path d="M24.2123 8.4880
L24.4542 8.4880
" />
<path d="M24.4542 8.4880
L24.5751 8.4276
" />
<path d="M24.5751 8.4276
L24.6356 8.3671
" />
<path d="M24.6356 8.3671
L24.6961 8.2461
" />
<path d="M24.6961 8.2461
L24.6961 7.9437
" />
<path d="M24.6961 7.9437
L24.6356 7.8228
" />
<path d="M24.6356 7.8228
L24.5751 7.7623
" />
<path d="M24.5751 7.7623
L24.4542 7.7018
" />
<path d="M24.4542 7.7018
L24.2123 7.7018
" />
<path d="M24.2123 7.7018
L24.0913 7.7623
" />
<path d="M24.0913 7.7623
L24.0308 7.8228
" />
<path d="M24.0308 7.8228
L23.9704 7.9437
" />
</g></g>
<g style="fill:none; 
stroke:#840000; stroke-width:0.1524; stroke-opacity:1; 
stroke-linecap:round; stroke-linejoin:round;">
<path d="M15.4432 13.9855
L15.4432 16.5255
" />
</g>
<g style="fill:none; 
stroke:#006464; stroke-width:0.1524; stroke-opacity:1; 
stroke-linecap:round; stroke-linejoin:round;">
<g transform="rotate(-90.000000 15.4432 12.9695)">
<text x="15.4432" y="13.6045"
textLength="3.8318" font-size="1.6933" lengthAdjust="spacingAndGlyphs"
text-anchor="start" opacity="0" stroke-opacity="0">PAD</text>
</g>
<g class="stroked-text"><desc>PAD</desc>
<path d="M16.0227 12.5669
L14.7527 12.5669
" />
<path d="M14.7527 12.5669
L14.7527 12.0831
" />
<path d="M14.7527 12.0831
L14.8132 11.9621
" />
<path d="M14.8132 11.9621
L14.8737 11.9016
" />
<path d="M14.8737 11.9016
L14.9946 11.8412
" />
<path d="M14.9946 11.8412
L15.1761 11.8412
" />
<path d="M15.1761 11.8412
L15.2970 11.9016
" />
<path d="M15.2970 11.9016
L15.3575 11.9621
" />
<path d="M15.3575 11.9621
L15.4180 12.0831
" />
<path d="M15.4180 12.0831
L15.4180 12.5669
" />
<path d="M15.6599 11.3573
L15.6599 10.7526
" />
<path d="M16.0227 11.4783
L14.7527 11.0550
" />
<path d="M14.7527 11.0550
L16.0227 10.6316
" />
<path d="M16.0227 10.2083
L14.7527 10.2083
" />
<path d="M14.7527 10.2083
L14.7527 9.9059
" />
<path d="M14.7527 9.9059
L14.8132 9.7245
" />
<path d="M14.8132 9.7245
L14.9342 9.6035
" />
<path d="M14.9342 9.6035
L15.0551 9.5430
" />
<path d="M15.0551 9.5430
L15.2970 9.4826
" />
<path d="M15.2970 9.4826
L15.4784 9.4826
" />
<path d="M15.4784 9.4826
L15.7203 9.5430
" />
<path d="M15.7203 9.5430
L15.8413 9.6035
" />
<path d="M15.8413 9.6035
L15.9623 9.7245
" />
<path d="M15.9623 9.7245
L16.0227 9.9059
" />
<path d="M16.0227 9.9059
L16.0227 10.2083
" />
</g></g>
<g style="fill:none; 
stroke:#A90000; stroke-width:0.1524; stroke-opacity:1; 
stroke-linecap:round; stroke-linejoin:round;">
<g transform="rotate(-90.000000 15.1892 15.2555)">
<text x="15.1892" y="15.2555"
textLength="1.4127" font-size="1.6933" lengthAdjust="spacingAndGlyphs"
text-anchor="middle" opacity="0" stroke-opacity="0">7</text>
</g>
<g class="stroked-text"><desc>7</desc>
<path d="M13.7557 15.6787
L13.7557 14.8321
" />
<path d="M13.7557 14.8321
L15.0257 15.3763
" />
</g></g>
<g style="fill:none; 
stroke:#006464; stroke-width:0.1524; stroke-opacity:1; 
stroke-linecap:round; stroke-linejoin:round;">
<text x="20.5232" y="3.1905"
textLength="2.6223" font-size="1.6933" lengthAdjust="spacingAndGlyphs"
text-anchor="middle" opacity="0" stroke-opacity="0">U?</text>
<g class="stroked-text"><desc>U?</desc>
<path d="M19.6160 1.8650
L19.6160 2.8931
" />
<path d="M19.6160 2.8931
L19.6765 3.0141
" />
<path d="M19.6765 3.0141
L19.7370 3.0746
" />
<path d="M19.7370 3.0746
L19.8579 3.1350
" />
<path d="M19.8579 3.1350
L20.0998 3.1350
" />
<path d="M20.0998 3.1350
L20.2208 3.0746
" />
<path d="M20.2208 3.0746
L20.2813 3.0141
" />
<path d="M20.2813 3.0141
L20.3417 2.8931
" />
<path d="M20.3417 2.8931
L20.3417 1.8650
" />
<path d="M21.1280 3.0141
L21.1884 3.0746
" />
<path d="M21.1884 3.0746
L21.1280 3.1350
" />
<path d="M21.1280 3.1350
L21.0675 3.0746
" />
<path d="M21.0675 3.0746
L21.1280 3.0141
" />
<path d="M21.1280 3.0141
L21.1280 3.1350
" />
<path d="M20.8861 1.9255
L21.0070 1.8650
" />
<path d="M21.0070 1.8650
L21.3094 1.8650
" />
<path d="M21.3094 1.8650
L21.4303 1.9255
" />
<path d="M21.4303 1.9255
L21.4908 2.0465
" />
<path d="M21.4908 2.0465
L21.4908 2.1674
" />
<path d="M21.4908 2.1674
L21.4303 2.2884
" />
<path d="M21.4303 2.2884
L21.3699 2.3488
" />
<path d="M21.3699 2.3488
L21.2489 2.4093
" />
<path d="M21.2489 2.4093
L21.1884 2.4698
" />
<path d="M21.1884 2.4698
L21.1280 2.5907
" />
<path d="M21.1280 2.5907
L21.1280 2.6512
" />
</g><text x="9.0932" y="3.1905"
textLength="13.0845" font-size="1.6933" lengthAdjust="spacingAndGlyphs"
text-anchor="middle" opacity="0" stroke-opacity="0">SC189ZULTRT</text>
<g class="stroked-text"><desc>SC189ZULTRT</desc>
<path d="M2.8945 3.0746
L3.0759 3.1350
" />
<path d="M3.0759 3.1350
L3.3783 3.1350
" />
<path d="M3.3783 3.1350
L3.4992 3.0746
" />
<path d="M3.4992 3.0746
L3.5597 3.0141
" />
<path d="M3.5597 3.0141
L3.6202 2.8931
" />
<path d="M3.6202 2.8931
L3.6202 2.7722
" />
<path d="M3.6202 2.7722
L3.5597 2.6512
" />
<path d="M3.5597 2.6512
L3.4992 2.5907
" />
<path d="M3.4992 2.5907
L3.3783 2.5303
" />
<path d="M3.3783 2.5303
L3.1364 2.4698
" />
<path d="M3.1364 2.4698
L3.0154 2.4093
" />
<path d="M3.0154 2.4093
L2.9549 2.3488
" />
<path d="M2.9549 2.3488
L2.8945 2.2279
" />
<path d="M2.8945 2.2279
L2.8945 2.1069
" />
<path d="M2.8945 2.1069
L2.9549 1.9860
" />
<path d="M2.9549 1.9860
L3.0154 1.9255
" />
<path d="M3.0154 1.9255
L3.1364 1.8650
" />
<path d="M3.1364 1.8650
L3.4387 1.8650
" />
<path d="M3.4387 1.8650
L3.6202 1.9255
" />
<path d="M4.8901 3.0141
L4.8297 3.0746
" />
<path d="M4.8297 3.0746
L4.6482 3.1350
" />
<path d="M4.6482 3.1350
L4.5273 3.1350
" />
<path d="M4.5273 3.1350
L4.3459 3.0746
" />
<path d="M4.3459 3.0746
L4.2249 2.9536
" />
<path d="M4.2249 2.9536
L4.1644 2.8326
" />
<path d="M4.1644 2.8326
L4.1040 2.5907
" />
<path d="M4.1040 2.5907
L4.1040 2.4093
" />
<path d="M4.1040 2.4093
L4.1644 2.1674
" />
<path d="M4.1644 2.1674
L4.2249 2.0465
" />
<path d="M4.2249 2.0465
L4.3459 1.9255
" />
<path d="M4.3459 1.9255
L4.5273 1.8650
" />
<path d="M4.5273 1.8650
L4.6482 1.8650
" />
<path d="M4.6482 1.8650
L4.8297 1.9255
" />
<path d="M4.8297 1.9255
L4.8901 1.9860
" />
<path d="M6.0997 3.1350
L5.3740 3.1350
" />
<path d="M5.7368 3.1350
L5.7368 1.8650
" />
<path d="M5.7368 1.8650
L5.6159 2.0465
" />
<path d="M5.6159 2.0465
L5.4949 2.1674
" />
<path d="M5.4949 2.1674
L5.3740 2.2279
" />
<path d="M6.8254 2.4093
L6.7044 2.3488
" />
<path d="M6.7044 2.3488
L6.6439 2.2884
" />
<path d="M6.6439 2.2884
L6.5835 2.1674
" />
<path d="M6.5835 2.1674
L6.5835 2.1069
" />
<path d="M6.5835 2.1069
L6.6439 1.9860
" />
<path d="M6.6439 1.9860
L6.7044 1.9255
" />
<path d="M6.7044 1.9255
L6.8254 1.8650
" />
<path d="M6.8254 1.8650
L7.0673 1.8650
" />
<path d="M7.0673 1.8650
L7.1882 1.9255
" />
<path d="M7.1882 1.9255
L7.2487 1.9860
" />
<path d="M7.2487 1.9860
L7.3092 2.1069
" />
<path d="M7.3092 2.1069
L7.3092 2.1674
" />
<path d="M7.3092 2.1674
L7.2487 2.2884
" />
<path d="M7.2487 2.2884
L7.1882 2.3488
" />
<path d="M7.1882 2.3488
L7.0673 2.4093
" />
<path d="M7.0673 2.4093
L6.8254 2.4093
" />
<path d="M6.8254 2.4093
L6.7044 2.4698
" />
<path d="M6.7044 2.4698
L6.6439 2.5303
" />
<path d="M6.6439 2.5303
L6.5835 2.6512
" />
<path d="M6.5835 2.6512
L6.5835 2.8931
" />
<path d="M6.5835 2.8931
L6.6439 3.0141
" />
<path d="M6.6439 3.0141
L6.7044 3.0746
" />
<path d="M6.7044 3.0746
L6.8254 3.1350
" />
<path d="M6.8254 3.1350
L7.0673 3.1350
" />
<path d="M7.0673 3.1350
L7.1882 3.0746
" />
<path d="M7.1882 3.0746
L7.2487 3.0141
" />
<path d="M7.2487 3.0141
L7.3092 2.8931
" />
<path d="M7.3092 2.8931
L7.3092 2.6512
" />
<path d="M7.3092 2.6512
L7.2487 2.5303
" />
<path d="M7.2487 2.5303
L7.1882 2.4698
" />
<path d="M7.1882 2.4698
L7.0673 2.4093
" />
<path d="M7.9139 3.1350
L8.1558 3.1350
" />
<path d="M8.1558 3.1350
L8.2768 3.0746
" />
<path d="M8.2768 3.0746
L8.3372 3.0141
" />
<path d="M8.3372 3.0141
L8.4582 2.8326
" />
<path d="M8.4582 2.8326
L8.5187 2.5907
" />
<path d="M8.5187 2.5907
L8.5187 2.1069
" />
<path d="M8.5187 2.1069
L8.4582 1.9860
" />
<path d="M8.4582 1.9860
L8.3977 1.9255
" />
<path d="M8.3977 1.9255
L8.2768 1.8650
" />
<path d="M8.2768 1.8650
L8.0349 1.8650
" />
<path d="M8.0349 1.8650
L7.9139 1.9255
" />
<path d="M7.9139 1.9255
L7.8534 1.9860
" />
<path d="M7.8534 1.9860
L7.7930 2.1069
" />
<path d="M7.7930 2.1069
L7.7930 2.4093
" />
<path d="M7.7930 2.4093
L7.8534 2.5303
" />
<path d="M7.8534 2.5303
L7.9139 2.5907
" />
<path d="M7.9139 2.5907
L8.0349 2.6512
" />
<path d="M8.0349 2.6512
L8.2768 2.6512
" />
<path d="M8.2768 2.6512
L8.3977 2.5907
" />
<path d="M8.3977 2.5907
L8.4582 2.5303
" />
<path d="M8.4582 2.5303
L8.5187 2.4093
" />
<path d="M8.9420 1.8650
L9.7886 1.8650
" />
<path d="M9.7886 1.8650
L8.9420 3.1350
" />
<path d="M8.9420 3.1350
L9.7886 3.1350
" />
<path d="M10.2724 1.8650
L10.2724 2.8931
" />
<path d="M10.2724 2.8931
L10.3329 3.0141
" />
<path d="M10.3329 3.0141
L10.3934 3.0746
" />
<path d="M10.3934 3.0746
L10.5143 3.1350
" />
<path d="M10.5143 3.1350
L10.7562 3.1350
" />
<path d="M10.7562 3.1350
L10.8772 3.0746
" />
<path d="M10.8772 3.0746
L10.9377 3.0141
" />
<path d="M10.9377 3.0141
L10.9981 2.8931
" />
<path d="M10.9981 2.8931
L10.9981 1.8650
" />
<path d="M12.2077 3.1350
L11.6029 3.1350
" />
<path d="M11.6029 3.1350
L11.6029 1.8650
" />
<path d="M12.4496 1.8650
L13.1753 1.8650
" />
<path d="M12.8125 3.1350
L12.8125 1.8650
" />
<path d="M14.3243 3.1350
L13.9010 2.5303
" />
<path d="M13.5986 3.1350
L13.5986 1.8650
" />
<path d="M13.5986 1.8650
L14.0824 1.8650
" />
<path d="M14.0824 1.8650
L14.2034 1.9255
" />
<path d="M14.2034 1.9255
L14.2639 1.9860
" />
<path d="M14.2639 1.9860
L14.3243 2.1069
" />
<path d="M14.3243 2.1069
L14.3243 2.2884
" />
<path d="M14.3243 2.2884
L14.2639 2.4093
" />
<path d="M14.2639 2.4093
L14.2034 2.4698
" />
<path d="M14.2034 2.4698
L14.0824 2.5303
" />
<path d="M14.0824 2.5303
L13.5986 2.5303
" />
<path d="M14.6872 1.8650
L15.4129 1.8650
" />
<path d="M15.0501 3.1350
L15.0501 1.8650
" />
</g></g> 
</svg>
