<?xml version="1.0" standalone="no"?>
 <!DOCTYPE svg PUBLIC "-//W3C//DTD SVG 1.1//EN" 
 "http://www.w3.org/Graphics/SVG/1.1/DTD/svg11.dtd"> 
<svg
  xmlns:svg="http://www.w3.org/2000/svg"
  xmlns="http://www.w3.org/2000/svg"
  xmlns:xlink="http://www.w3.org/1999/xlink"
  xmlns:inkscape="http://www.inkscape.org/namespaces/inkscape"
  version="1.1"
  width="100%" height="100%" viewBox="0.0000 0.0000 31.3944 14.7828">
<title>SVG Image created as SG210STF_unit1.svg date 2026-04-16T05:15:23 </title>
  <desc>Image generated by Eeschema-SVG </desc>
<g style="fill:#000000; fill-opacity:1.0000;stroke:#000000; stroke-opacity:1.0000;
stroke-linecap:round; stroke-linejoin:round;"
 transform="translate(0 0) scale(1 1)">
</g>
<g style="fill:#FFFFC2; fill-opacity:1.0000; stroke:none;">
<rect x="5.537200" y="3.266700" width="20.320000" height="10.160000" rx="0.000000" />
</g>
<g style="fill:none; 
stroke:#840000; stroke-width:0.2540; stroke-opacity:1; 
stroke-linecap:round; stroke-linejoin:round;">
<rect x="5.537200" y="3.266700" width="20.320000" height="10.160000" rx="0.000000" />
</g>
<g style="fill:none; 
stroke:#840000; stroke-width:0.1524; stroke-opacity:1; 
stroke-linecap:round; stroke-linejoin:round;">
<path d="M5.5372 5.8067
L2.9972 5.8067
" />
</g>
<g style="fill:none; 
stroke:#006464; stroke-width:0.1524; stroke-opacity:1; 
stroke-linecap:round; stroke-linejoin:round;">
<text x="6.0452" y="6.4417"
textLength="11.2703" font-size="1.6933" lengthAdjust="spacingAndGlyphs"
text-anchor="start" opacity="0" stroke-opacity="0">OE/nST/NC</text>
<g class="stroked-text"><desc>OE/nST/NC</desc>
<path d="M6.6896 5.1162
L6.9315 5.1162
" />
<path d="M6.9315 5.1162
L7.0525 5.1767
" />
<path d="M7.0525 5.1767
L7.1734 5.2977
" />
<path d="M7.1734 5.2977
L7.2339 5.5396
" />
<path d="M7.2339 5.5396
L7.2339 5.9629
" />
<path d="M7.2339 5.9629
L7.1734 6.2048
" />
<path d="M7.1734 6.2048
L7.0525 6.3258
" />
<path d="M7.0525 6.3258
L6.9315 6.3862
" />
<path d="M6.9315 6.3862
L6.6896 6.3862
" />
<path d="M6.6896 6.3862
L6.5687 6.3258
" />
<path d="M6.5687 6.3258
L6.4477 6.2048
" />
<path d="M6.4477 6.2048
L6.3873 5.9629
" />
<path d="M6.3873 5.9629
L6.3873 5.5396
" />
<path d="M6.3873 5.5396
L6.4477 5.2977
" />
<path d="M6.4477 5.2977
L6.5687 5.1767
" />
<path d="M6.5687 5.1767
L6.6896 5.1162
" />
<path d="M7.7782 5.7210
L8.2016 5.7210
" />
<path d="M8.3830 6.3862
L7.7782 6.3862
" />
<path d="M7.7782 6.3862
L7.7782 5.1162
" />
<path d="M7.7782 5.1162
L8.3830 5.1162
" />
<path d="M9.8344 5.0558
L8.7458 6.6886
" />
<path d="M10.2577 5.5396
L10.2577 6.3862
" />
<path d="M10.2577 5.6605
L10.3182 5.6000
" />
<path d="M10.3182 5.6000
L10.4392 5.5396
" />
<path d="M10.4392 5.5396
L10.6206 5.5396
" />
<path d="M10.6206 5.5396
L10.7415 5.6000
" />
<path d="M10.7415 5.6000
L10.8020 5.7210
" />
<path d="M10.8020 5.7210
L10.8020 6.3862
" />
<path d="M11.3463 6.3258
L11.5277 6.3862
" />
<path d="M11.5277 6.3862
L11.8301 6.3862
" />
<path d="M11.8301 6.3862
L11.9510 6.3258
" />
<path d="M11.9510 6.3258
L12.0115 6.2653
" />
<path d="M12.0115 6.2653
L12.0720 6.1443
" />
<path d="M12.0720 6.1443
L12.0720 6.0234
" />
<path d="M12.0720 6.0234
L12.0115 5.9024
" />
<path d="M12.0115 5.9024
L11.9510 5.8419
" />
<path d="M11.9510 5.8419
L11.8301 5.7815
" />
<path d="M11.8301 5.7815
L11.5882 5.7210
" />
<path d="M11.5882 5.7210
L11.4672 5.6605
" />
<path d="M11.4672 5.6605
L11.4067 5.6000
" />
<path d="M11.4067 5.6000
L11.3463 5.4791
" />
<path d="M11.3463 5.4791
L11.3463 5.3581
" />
<path d="M11.3463 5.3581
L11.4067 5.2372
" />
<path d="M11.4067 5.2372
L11.4672 5.1767
" />
<path d="M11.4672 5.1767
L11.5882 5.1162
" />
<path d="M11.5882 5.1162
L11.8905 5.1162
" />
<path d="M11.8905 5.1162
L12.0720 5.1767
" />
<path d="M12.4348 5.1162
L13.1605 5.1162
" />
<path d="M12.7977 6.3862
L12.7977 5.1162
" />
<path d="M14.4910 5.0558
L13.4024 6.6886
" />
<path d="M14.9143 6.3862
L14.9143 5.1162
" />
<path d="M14.9143 5.1162
L15.6400 6.3862
" />
<path d="M15.6400 6.3862
L15.6400 5.1162
" />
<path d="M16.9705 6.2653
L16.9101 6.3258
" />
<path d="M16.9101 6.3258
L16.7286 6.3862
" />
<path d="M16.7286 6.3862
L16.6077 6.3862
" />
<path d="M16.6077 6.3862
L16.4263 6.3258
" />
<path d="M16.4263 6.3258
L16.3053 6.2048
" />
<path d="M16.3053 6.2048
L16.2448 6.0838
" />
<path d="M16.2448 6.0838
L16.1844 5.8419
" />
<path d="M16.1844 5.8419
L16.1844 5.6605
" />
<path d="M16.1844 5.6605
L16.2448 5.4186
" />
<path d="M16.2448 5.4186
L16.3053 5.2977
" />
<path d="M16.3053 5.2977
L16.4263 5.1767
" />
<path d="M16.4263 5.1767
L16.6077 5.1162
" />
<path d="M16.6077 5.1162
L16.7286 5.1162
" />
<path d="M16.7286 5.1162
L16.9101 5.1767
" />
<path d="M16.9101 5.1767
L16.9705 5.2372
" />
</g></g>
<g style="fill:none; 
stroke:#A90000; stroke-width:0.1524; stroke-opacity:1; 
stroke-linecap:round; stroke-linejoin:round;">
<text x="4.2672" y="5.5527"
textLength="1.4127" font-size="1.6933" lengthAdjust="spacingAndGlyphs"
text-anchor="middle" opacity="0" stroke-opacity="0">1</text>
<g class="stroked-text"><desc>1</desc>
<path d="M4.6301 5.3892
L3.9044 5.3892
" />
<path d="M4.2672 5.3892
L4.2672 4.1192
" />
<path d="M4.2672 4.1192
L4.1463 4.3007
" />
<path d="M4.1463 4.3007
L4.0253 4.4216
" />
<path d="M4.0253 4.4216
L3.9044 4.4821
" />
</g></g>
<g style="fill:none; 
stroke:#840000; stroke-width:0.1524; stroke-opacity:1; 
stroke-linecap:round; stroke-linejoin:round;">
<path d="M5.5372 10.8867
L2.9972 10.8867
" />
</g>
<g style="fill:none; 
stroke:#006464; stroke-width:0.1524; stroke-opacity:1; 
stroke-linecap:round; stroke-linejoin:round;">
<text x="6.0452" y="11.5217"
textLength="4.0737" font-size="1.6933" lengthAdjust="spacingAndGlyphs"
text-anchor="start" opacity="0" stroke-opacity="0">GND</text>
<g class="stroked-text"><desc>GND</desc>
<path d="M7.1130 10.2567
L6.9920 10.1962
" />
<path d="M6.9920 10.1962
L6.8106 10.1962
" />
<path d="M6.8106 10.1962
L6.6292 10.2567
" />
<path d="M6.6292 10.2567
L6.5082 10.3777
" />
<path d="M6.5082 10.3777
L6.4477 10.4986
" />
<path d="M6.4477 10.4986
L6.3873 10.7405
" />
<path d="M6.3873 10.7405
L6.3873 10.9219
" />
<path d="M6.3873 10.9219
L6.4477 11.1638
" />
<path d="M6.4477 11.1638
L6.5082 11.2848
" />
<path d="M6.5082 11.2848
L6.6292 11.4058
" />
<path d="M6.6292 11.4058
L6.8106 11.4662
" />
<path d="M6.8106 11.4662
L6.9315 11.4662
" />
<path d="M6.9315 11.4662
L7.1130 11.4058
" />
<path d="M7.1130 11.4058
L7.1734 11.3453
" />
<path d="M7.1734 11.3453
L7.1734 10.9219
" />
<path d="M7.1734 10.9219
L6.9315 10.9219
" />
<path d="M7.7177 11.4662
L7.7177 10.1962
" />
<path d="M7.7177 10.1962
L8.4434 11.4662
" />
<path d="M8.4434 11.4662
L8.4434 10.1962
" />
<path d="M9.0482 11.4662
L9.0482 10.1962
" />
<path d="M9.0482 10.1962
L9.3506 10.1962
" />
<path d="M9.3506 10.1962
L9.5320 10.2567
" />
<path d="M9.5320 10.2567
L9.6530 10.3777
" />
<path d="M9.6530 10.3777
L9.7135 10.4986
" />
<path d="M9.7135 10.4986
L9.7739 10.7405
" />
<path d="M9.7739 10.7405
L9.7739 10.9219
" />
<path d="M9.7739 10.9219
L9.7135 11.1638
" />
<path d="M9.7135 11.1638
L9.6530 11.2848
" />
<path d="M9.6530 11.2848
L9.5320 11.4058
" />
<path d="M9.5320 11.4058
L9.3506 11.4662
" />
<path d="M9.3506 11.4662
L9.0482 11.4662
" />
</g></g>
<g style="fill:none; 
stroke:#A90000; stroke-width:0.1524; stroke-opacity:1; 
stroke-linecap:round; stroke-linejoin:round;">
<text x="4.2672" y="10.6327"
textLength="1.4127" font-size="1.6933" lengthAdjust="spacingAndGlyphs"
text-anchor="middle" opacity="0" stroke-opacity="0">2</text>
<g class="stroked-text"><desc>2</desc>
<path d="M3.9044 9.3202
L3.9648 9.2597
" />
<path d="M3.9648 9.2597
L4.0858 9.1992
" />
<path d="M4.0858 9.1992
L4.3882 9.1992
" />
<path d="M4.3882 9.1992
L4.5091 9.2597
" />
<path d="M4.5091 9.2597
L4.5696 9.3202
" />
<path d="M4.5696 9.3202
L4.6301 9.4411
" />
<path d="M4.6301 9.4411
L4.6301 9.5621
" />
<path d="M4.6301 9.5621
L4.5696 9.7435
" />
<path d="M4.5696 9.7435
L3.8439 10.4692
" />
<path d="M3.8439 10.4692
L4.6301 10.4692
" />
</g></g>
<g style="fill:none; 
stroke:#840000; stroke-width:0.1524; stroke-opacity:1; 
stroke-linecap:round; stroke-linejoin:round;">
<path d="M25.8572 10.8867
L28.3972 10.8867
" />
</g>
<g style="fill:none; 
stroke:#006464; stroke-width:0.1524; stroke-opacity:1; 
stroke-linecap:round; stroke-linejoin:round;">
<text x="25.3492" y="11.5217"
textLength="3.8318" font-size="1.6933" lengthAdjust="spacingAndGlyphs"
text-anchor="end" opacity="0" stroke-opacity="0">OUT</text>
<g class="stroked-text"><desc>OUT</desc>
<path d="M22.1646 10.1962
L22.4065 10.1962
" />
<path d="M22.4065 10.1962
L22.5275 10.2567
" />
<path d="M22.5275 10.2567
L22.6484 10.3777
" />
<path d="M22.6484 10.3777
L22.7089 10.6196
" />
<path d="M22.7089 10.6196
L22.7089 11.0429
" />
<path d="M22.7089 11.0429
L22.6484 11.2848
" />
<path d="M22.6484 11.2848
L22.5275 11.4058
" />
<path d="M22.5275 11.4058
L22.4065 11.4662
" />
<path d="M22.4065 11.4662
L22.1646 11.4662
" />
<path d="M22.1646 11.4662
L22.0437 11.4058
" />
<path d="M22.0437 11.4058
L21.9227 11.2848
" />
<path d="M21.9227 11.2848
L21.8623 11.0429
" />
<path d="M21.8623 11.0429
L21.8623 10.6196
" />
<path d="M21.8623 10.6196
L21.9227 10.3777
" />
<path d="M21.9227 10.3777
L22.0437 10.2567
" />
<path d="M22.0437 10.2567
L22.1646 10.1962
" />
<path d="M23.2532 10.1962
L23.2532 11.2243
" />
<path d="M23.2532 11.2243
L23.3137 11.3453
" />
<path d="M23.3137 11.3453
L23.3742 11.4058
" />
<path d="M23.3742 11.4058
L23.4951 11.4662
" />
<path d="M23.4951 11.4662
L23.7370 11.4662
" />
<path d="M23.7370 11.4662
L23.8580 11.4058
" />
<path d="M23.8580 11.4058
L23.9185 11.3453
" />
<path d="M23.9185 11.3453
L23.9789 11.2243
" />
<path d="M23.9789 11.2243
L23.9789 10.1962
" />
<path d="M24.4023 10.1962
L25.1280 10.1962
" />
<path d="M24.7652 11.4662
L24.7652 10.1962
" />
</g></g>
<g style="fill:none; 
stroke:#A90000; stroke-width:0.1524; stroke-opacity:1; 
stroke-linecap:round; stroke-linejoin:round;">
<text x="27.1272" y="10.6327"
textLength="1.4127" font-size="1.6933" lengthAdjust="spacingAndGlyphs"
text-anchor="middle" opacity="0" stroke-opacity="0">3</text>
<g class="stroked-text"><desc>3</desc>
<path d="M26.7039 9.1992
L27.4901 9.1992
" />
<path d="M27.4901 9.1992
L27.0667 9.6830
" />
<path d="M27.0667 9.6830
L27.2482 9.6830
" />
<path d="M27.2482 9.6830
L27.3691 9.7435
" />
<path d="M27.3691 9.7435
L27.4296 9.8040
" />
<path d="M27.4296 9.8040
L27.4901 9.9249
" />
<path d="M27.4901 9.9249
L27.4901 10.2273
" />
<path d="M27.4901 10.2273
L27.4296 10.3483
" />
<path d="M27.4296 10.3483
L27.3691 10.4088
" />
<path d="M27.3691 10.4088
L27.2482 10.4692
" />
<path d="M27.2482 10.4692
L26.8853 10.4692
" />
<path d="M26.8853 10.4692
L26.7644 10.4088
" />
<path d="M26.7644 10.4088
L26.7039 10.3483
" />
</g></g>
<g style="fill:none; 
stroke:#840000; stroke-width:0.1524; stroke-opacity:1; 
stroke-linecap:round; stroke-linejoin:round;">
<path d="M25.8572 5.8067
L28.3972 5.8067
" />
</g>
<g style="fill:none; 
stroke:#006464; stroke-width:0.1524; stroke-opacity:1; 
stroke-linecap:round; stroke-linejoin:round;">
<text x="25.3492" y="6.4417"
textLength="3.8318" font-size="1.6933" lengthAdjust="spacingAndGlyphs"
text-anchor="end" opacity="0" stroke-opacity="0">VDD</text>
<g class="stroked-text"><desc>VDD</desc>
<path d="M21.7413 5.1162
L22.1646 6.3862
" />
<path d="M22.1646 6.3862
L22.5880 5.1162
" />
<path d="M23.0113 6.3862
L23.0113 5.1162
" />
<path d="M23.0113 5.1162
L23.3137 5.1162
" />
<path d="M23.3137 5.1162
L23.4951 5.1767
" />
<path d="M23.4951 5.1767
L23.6161 5.2977
" />
<path d="M23.6161 5.2977
L23.6766 5.4186
" />
<path d="M23.6766 5.4186
L23.7370 5.6605
" />
<path d="M23.7370 5.6605
L23.7370 5.8419
" />
<path d="M23.7370 5.8419
L23.6766 6.0838
" />
<path d="M23.6766 6.0838
L23.6161 6.2048
" />
<path d="M23.6161 6.2048
L23.4951 6.3258
" />
<path d="M23.4951 6.3258
L23.3137 6.3862
" />
<path d="M23.3137 6.3862
L23.0113 6.3862
" />
<path d="M24.2813 6.3862
L24.2813 5.1162
" />
<path d="M24.2813 5.1162
L24.5837 5.1162
" />
<path d="M24.5837 5.1162
L24.7651 5.1767
" />
<path d="M24.7651 5.1767
L24.8861 5.2977
" />
<path d="M24.8861 5.2977
L24.9466 5.4186
" />
<path d="M24.9466 5.4186
L25.0070 5.6605
" />
<path d="M25.0070 5.6605
L25.0070 5.8419
" />
<path d="M25.0070 5.8419
L24.9466 6.0838
" />
<path d="M24.9466 6.0838
L24.8861 6.2048
" />
<path d="M24.8861 6.2048
L24.7651 6.3258
" />
<path d="M24.7651 6.3258
L24.5837 6.3862
" />
<path d="M24.5837 6.3862
L24.2813 6.3862
" />
</g></g>
<g style="fill:none; 
stroke:#A90000; stroke-width:0.1524; stroke-opacity:1; 
stroke-linecap:round; stroke-linejoin:round;">
<text x="27.1272" y="5.5527"
textLength="1.4127" font-size="1.6933" lengthAdjust="spacingAndGlyphs"
text-anchor="middle" opacity="0" stroke-opacity="0">4</text>
<g class="stroked-text"><desc>4</desc>
<path d="M27.3691 4.5426
L27.3691 5.3892
" />
<path d="M27.0667 4.0588
L26.7644 4.9659
" />
<path d="M26.7644 4.9659
L27.5505 4.9659
" />
</g></g>
<g style="fill:none; 
stroke:#006464; stroke-width:0.1524; stroke-opacity:1; 
stroke-linecap:round; stroke-linejoin:round;">
<text x="6.2992" y="2.8857"
textLength="2.6223" font-size="1.6933" lengthAdjust="spacingAndGlyphs"
text-anchor="middle" opacity="0" stroke-opacity="0">U?</text>
<g class="stroked-text"><desc>U?</desc>
<path d="M5.3920 1.5602
L5.3920 2.5883
" />
<path d="M5.3920 2.5883
L5.4525 2.7093
" />
<path d="M5.4525 2.7093
L5.5130 2.7698
" />
<path d="M5.5130 2.7698
L5.6339 2.8302
" />
<path d="M5.6339 2.8302
L5.8758 2.8302
" />
<path d="M5.8758 2.8302
L5.9968 2.7698
" />
<path d="M5.9968 2.7698
L6.0573 2.7093
" />
<path d="M6.0573 2.7093
L6.1177 2.5883
" />
<path d="M6.1177 2.5883
L6.1177 1.5602
" />
<path d="M6.9040 2.7093
L6.9644 2.7698
" />
<path d="M6.9644 2.7698
L6.9040 2.8302
" />
<path d="M6.9040 2.8302
L6.8435 2.7698
" />
<path d="M6.8435 2.7698
L6.9040 2.7093
" />
<path d="M6.9040 2.7093
L6.9040 2.8302
" />
<path d="M6.6621 1.6207
L6.7830 1.5602
" />
<path d="M6.7830 1.5602
L7.0854 1.5602
" />
<path d="M7.0854 1.5602
L7.2063 1.6207
" />
<path d="M7.2063 1.6207
L7.2668 1.7417
" />
<path d="M7.2668 1.7417
L7.2668 1.8626
" />
<path d="M7.2668 1.8626
L7.2063 1.9836
" />
<path d="M7.2063 1.9836
L7.1459 2.0440
" />
<path d="M7.1459 2.0440
L7.0249 2.1045
" />
<path d="M7.0249 2.1045
L6.9644 2.1650
" />
<path d="M6.9644 2.1650
L6.9040 2.2859
" />
<path d="M6.9040 2.2859
L6.9040 2.3464
" />
</g><text x="21.5392" y="2.8857"
textLength="9.5769" font-size="1.6933" lengthAdjust="spacingAndGlyphs"
text-anchor="middle" opacity="0" stroke-opacity="0">SG210STF</text>
<g class="stroked-text"><desc>SG210STF</desc>
<path d="M17.0943 2.7698
L17.2757 2.8302
" />
<path d="M17.2757 2.8302
L17.5781 2.8302
" />
<path d="M17.5781 2.8302
L17.6990 2.7698
" />
<path d="M17.6990 2.7698
L17.7595 2.7093
" />
<path d="M17.7595 2.7093
L17.8200 2.5883
" />
<path d="M17.8200 2.5883
L17.8200 2.4674
" />
<path d="M17.8200 2.4674
L17.7595 2.3464
" />
<path d="M17.7595 2.3464
L17.6990 2.2859
" />
<path d="M17.6990 2.2859
L17.5781 2.2255
" />
<path d="M17.5781 2.2255
L17.3362 2.1650
" />
<path d="M17.3362 2.1650
L17.2152 2.1045
" />
<path d="M17.2152 2.1045
L17.1547 2.0440
" />
<path d="M17.1547 2.0440
L17.0943 1.9231
" />
<path d="M17.0943 1.9231
L17.0943 1.8021
" />
<path d="M17.0943 1.8021
L17.1547 1.6812
" />
<path d="M17.1547 1.6812
L17.2152 1.6207
" />
<path d="M17.2152 1.6207
L17.3362 1.5602
" />
<path d="M17.3362 1.5602
L17.6385 1.5602
" />
<path d="M17.6385 1.5602
L17.8200 1.6207
" />
<path d="M19.0295 1.6207
L18.9085 1.5602
" />
<path d="M18.9085 1.5602
L18.7271 1.5602
" />
<path d="M18.7271 1.5602
L18.5457 1.6207
" />
<path d="M18.5457 1.6207
L18.4247 1.7417
" />
<path d="M18.4247 1.7417
L18.3642 1.8626
" />
<path d="M18.3642 1.8626
L18.3038 2.1045
" />
<path d="M18.3038 2.1045
L18.3038 2.2859
" />
<path d="M18.3038 2.2859
L18.3642 2.5278
" />
<path d="M18.3642 2.5278
L18.4247 2.6488
" />
<path d="M18.4247 2.6488
L18.5457 2.7698
" />
<path d="M18.5457 2.7698
L18.7271 2.8302
" />
<path d="M18.7271 2.8302
L18.8480 2.8302
" />
<path d="M18.8480 2.8302
L19.0295 2.7698
" />
<path d="M19.0295 2.7698
L19.0899 2.7093
" />
<path d="M19.0899 2.7093
L19.0899 2.2859
" />
<path d="M19.0899 2.2859
L18.8480 2.2859
" />
<path d="M19.5738 1.6812
L19.6342 1.6207
" />
<path d="M19.6342 1.6207
L19.7552 1.5602
" />
<path d="M19.7552 1.5602
L20.0576 1.5602
" />
<path d="M20.0576 1.5602
L20.1785 1.6207
" />
<path d="M20.1785 1.6207
L20.2390 1.6812
" />
<path d="M20.2390 1.6812
L20.2995 1.8021
" />
<path d="M20.2995 1.8021
L20.2995 1.9231
" />
<path d="M20.2995 1.9231
L20.2390 2.1045
" />
<path d="M20.2390 2.1045
L19.5133 2.8302
" />
<path d="M19.5133 2.8302
L20.2995 2.8302
" />
<path d="M21.5090 2.8302
L20.7833 2.8302
" />
<path d="M21.1461 2.8302
L21.1461 1.5602
" />
<path d="M21.1461 1.5602
L21.0252 1.7417
" />
<path d="M21.0252 1.7417
L20.9042 1.8626
" />
<path d="M20.9042 1.8626
L20.7833 1.9231
" />
<path d="M22.2951 1.5602
L22.4161 1.5602
" />
<path d="M22.4161 1.5602
L22.5370 1.6207
" />
<path d="M22.5370 1.6207
L22.5975 1.6812
" />
<path d="M22.5975 1.6812
L22.6580 1.8021
" />
<path d="M22.6580 1.8021
L22.7185 2.0440
" />
<path d="M22.7185 2.0440
L22.7185 2.3464
" />
<path d="M22.7185 2.3464
L22.6580 2.5883
" />
<path d="M22.6580 2.5883
L22.5975 2.7093
" />
<path d="M22.5975 2.7093
L22.5370 2.7698
" />
<path d="M22.5370 2.7698
L22.4161 2.8302
" />
<path d="M22.4161 2.8302
L22.2951 2.8302
" />
<path d="M22.2951 2.8302
L22.1742 2.7698
" />
<path d="M22.1742 2.7698
L22.1137 2.7093
" />
<path d="M22.1137 2.7093
L22.0532 2.5883
" />
<path d="M22.0532 2.5883
L21.9928 2.3464
" />
<path d="M21.9928 2.3464
L21.9928 2.0440
" />
<path d="M21.9928 2.0440
L22.0532 1.8021
" />
<path d="M22.0532 1.8021
L22.1137 1.6812
" />
<path d="M22.1137 1.6812
L22.1742 1.6207
" />
<path d="M22.1742 1.6207
L22.2951 1.5602
" />
<path d="M23.2023 2.7698
L23.3837 2.8302
" />
<path d="M23.3837 2.8302
L23.6861 2.8302
" />
<path d="M23.6861 2.8302
L23.8070 2.7698
" />
<path d="M23.8070 2.7698
L23.8675 2.7093
" />
<path d="M23.8675 2.7093
L23.9280 2.5883
" />
<path d="M23.9280 2.5883
L23.9280 2.4674
" />
<path d="M23.9280 2.4674
L23.8675 2.3464
" />
<path d="M23.8675 2.3464
L23.8070 2.2859
" />
<path d="M23.8070 2.2859
L23.6861 2.2255
" />
<path d="M23.6861 2.2255
L23.4442 2.1650
" />
<path d="M23.4442 2.1650
L23.3232 2.1045
" />
<path d="M23.3232 2.1045
L23.2627 2.0440
" />
<path d="M23.2627 2.0440
L23.2023 1.9231
" />
<path d="M23.2023 1.9231
L23.2023 1.8021
" />
<path d="M23.2023 1.8021
L23.2627 1.6812
" />
<path d="M23.2627 1.6812
L23.3232 1.6207
" />
<path d="M23.3232 1.6207
L23.4442 1.5602
" />
<path d="M23.4442 1.5602
L23.7465 1.5602
" />
<path d="M23.7465 1.5602
L23.9280 1.6207
" />
<path d="M24.2908 1.5602
L25.0165 1.5602
" />
<path d="M24.6537 2.8302
L24.6537 1.5602
" />
<path d="M25.8632 2.1650
L25.4398 2.1650
" />
<path d="M25.4398 2.8302
L25.4398 1.5602
" />
<path d="M25.4398 1.5602
L26.0446 1.5602
" />
</g></g> 
</svg>
