<?xml version="1.0" standalone="no"?>
 <!DOCTYPE svg PUBLIC "-//W3C//DTD SVG 1.1//EN" 
 "http://www.w3.org/Graphics/SVG/1.1/DTD/svg11.dtd"> 
<svg
  xmlns:svg="http://www.w3.org/2000/svg"
  xmlns="http://www.w3.org/2000/svg"
  xmlns:xlink="http://www.w3.org/1999/xlink"
  xmlns:inkscape="http://www.inkscape.org/namespaces/inkscape"
  version="1.1"
  width="100%" height="100%" viewBox="0.0000 0.0000 31.3944 13.4112">
<title>SVG Image created as SG210STF_unit1.svg date 2026-04-16T01:12:06 </title>
  <desc>Image generated by Eeschema-SVG </desc>
<g style="fill:#000000; fill-opacity:1.0000;stroke:#000000; stroke-opacity:1.0000;
stroke-linecap:round; stroke-linejoin:round;"
 transform="translate(0 0) scale(1 1)">
</g>
<g style="fill:#FFFFC2; fill-opacity:1.0000; stroke:none;">
<rect x="5.537200" y="3.406400" width="20.320000" height="8.890000" rx="0.000000" />
</g>
<g style="fill:none; 
stroke:#840000; stroke-width:0.1524; stroke-opacity:1; 
stroke-linecap:round; stroke-linejoin:round;">
<rect x="5.537200" y="3.406400" width="20.320000" height="8.890000" rx="0.000000" />
<path d="M5.5372 4.6764
L2.9972 4.6764
" />
</g>
<g style="fill:none; 
stroke:#006464; stroke-width:0.1524; stroke-opacity:1; 
stroke-linecap:round; stroke-linejoin:round;">
<text x="6.5532" y="5.3114"
textLength="11.2703" font-size="1.6933" lengthAdjust="spacingAndGlyphs"
text-anchor="start" opacity="0" stroke-opacity="0">OE/nST/NC</text>
<g class="stroked-text"><desc>OE/nST/NC</desc>
<path d="M7.1976 3.9859
L7.4395 3.9859
" />
<path d="M7.4395 3.9859
L7.5605 4.0464
" />
<path d="M7.5605 4.0464
L7.6814 4.1674
" />
<path d="M7.6814 4.1674
L7.7419 4.4093
" />
<path d="M7.7419 4.4093
L7.7419 4.8326
" />
<path d="M7.7419 4.8326
L7.6814 5.0745
" />
<path d="M7.6814 5.0745
L7.5605 5.1955
" />
<path d="M7.5605 5.1955
L7.4395 5.2559
" />
<path d="M7.4395 5.2559
L7.1976 5.2559
" />
<path d="M7.1976 5.2559
L7.0767 5.1955
" />
<path d="M7.0767 5.1955
L6.9557 5.0745
" />
<path d="M6.9557 5.0745
L6.8953 4.8326
" />
<path d="M6.8953 4.8326
L6.8953 4.4093
" />
<path d="M6.8953 4.4093
L6.9557 4.1674
" />
<path d="M6.9557 4.1674
L7.0767 4.0464
" />
<path d="M7.0767 4.0464
L7.1976 3.9859
" />
<path d="M8.2862 4.5907
L8.7096 4.5907
" />
<path d="M8.8910 5.2559
L8.2862 5.2559
" />
<path d="M8.2862 5.2559
L8.2862 3.9859
" />
<path d="M8.2862 3.9859
L8.8910 3.9859
" />
<path d="M10.3424 3.9255
L9.2538 5.5583
" />
<path d="M10.7657 4.4093
L10.7657 5.2559
" />
<path d="M10.7657 4.5302
L10.8262 4.4697
" />
<path d="M10.8262 4.4697
L10.9472 4.4093
" />
<path d="M10.9472 4.4093
L11.1286 4.4093
" />
<path d="M11.1286 4.4093
L11.2495 4.4697
" />
<path d="M11.2495 4.4697
L11.3100 4.5907
" />
<path d="M11.3100 4.5907
L11.3100 5.2559
" />
<path d="M11.8543 5.1955
L12.0357 5.2559
" />
<path d="M12.0357 5.2559
L12.3381 5.2559
" />
<path d="M12.3381 5.2559
L12.4590 5.1955
" />
<path d="M12.4590 5.1955
L12.5195 5.1350
" />
<path d="M12.5195 5.1350
L12.5800 5.0140
" />
<path d="M12.5800 5.0140
L12.5800 4.8931
" />
<path d="M12.5800 4.8931
L12.5195 4.7721
" />
<path d="M12.5195 4.7721
L12.4590 4.7116
" />
<path d="M12.4590 4.7116
L12.3381 4.6512
" />
<path d="M12.3381 4.6512
L12.0962 4.5907
" />
<path d="M12.0962 4.5907
L11.9752 4.5302
" />
<path d="M11.9752 4.5302
L11.9147 4.4697
" />
<path d="M11.9147 4.4697
L11.8543 4.3488
" />
<path d="M11.8543 4.3488
L11.8543 4.2278
" />
<path d="M11.8543 4.2278
L11.9147 4.1069
" />
<path d="M11.9147 4.1069
L11.9752 4.0464
" />
<path d="M11.9752 4.0464
L12.0962 3.9859
" />
<path d="M12.0962 3.9859
L12.3985 3.9859
" />
<path d="M12.3985 3.9859
L12.5800 4.0464
" />
<path d="M12.9428 3.9859
L13.6685 3.9859
" />
<path d="M13.3057 5.2559
L13.3057 3.9859
" />
<path d="M14.9990 3.9255
L13.9104 5.5583
" />
<path d="M15.4223 5.2559
L15.4223 3.9859
" />
<path d="M15.4223 3.9859
L16.1480 5.2559
" />
<path d="M16.1480 5.2559
L16.1480 3.9859
" />
<path d="M17.4785 5.1350
L17.4181 5.1955
" />
<path d="M17.4181 5.1955
L17.2366 5.2559
" />
<path d="M17.2366 5.2559
L17.1157 5.2559
" />
<path d="M17.1157 5.2559
L16.9343 5.1955
" />
<path d="M16.9343 5.1955
L16.8133 5.0745
" />
<path d="M16.8133 5.0745
L16.7528 4.9535
" />
<path d="M16.7528 4.9535
L16.6924 4.7116
" />
<path d="M16.6924 4.7116
L16.6924 4.5302
" />
<path d="M16.6924 4.5302
L16.7528 4.2883
" />
<path d="M16.7528 4.2883
L16.8133 4.1674
" />
<path d="M16.8133 4.1674
L16.9343 4.0464
" />
<path d="M16.9343 4.0464
L17.1157 3.9859
" />
<path d="M17.1157 3.9859
L17.2366 3.9859
" />
<path d="M17.2366 3.9859
L17.4181 4.0464
" />
<path d="M17.4181 4.0464
L17.4785 4.1069
" />
</g></g>
<g style="fill:none; 
stroke:#A90000; stroke-width:0.1524; stroke-opacity:1; 
stroke-linecap:round; stroke-linejoin:round;">
<text x="4.2672" y="4.4224"
textLength="1.4127" font-size="1.6933" lengthAdjust="spacingAndGlyphs"
text-anchor="middle" opacity="0" stroke-opacity="0">1</text>
<g class="stroked-text"><desc>1</desc>
<path d="M4.6301 4.2589
L3.9044 4.2589
" />
<path d="M4.2672 4.2589
L4.2672 2.9889
" />
<path d="M4.2672 2.9889
L4.1463 3.1704
" />
<path d="M4.1463 3.1704
L4.0253 3.2913
" />
<path d="M4.0253 3.2913
L3.9044 3.3518
" />
</g></g>
<g style="fill:none; 
stroke:#840000; stroke-width:0.1524; stroke-opacity:1; 
stroke-linecap:round; stroke-linejoin:round;">
<path d="M5.5372 11.0264
L2.9972 11.0264
" />
</g>
<g style="fill:none; 
stroke:#006464; stroke-width:0.1524; stroke-opacity:1; 
stroke-linecap:round; stroke-linejoin:round;">
<text x="6.5532" y="11.6614"
textLength="4.0737" font-size="1.6933" lengthAdjust="spacingAndGlyphs"
text-anchor="start" opacity="0" stroke-opacity="0">GND</text>
<g class="stroked-text"><desc>GND</desc>
<path d="M7.6210 10.3964
L7.5000 10.3359
" />
<path d="M7.5000 10.3359
L7.3186 10.3359
" />
<path d="M7.3186 10.3359
L7.1372 10.3964
" />
<path d="M7.1372 10.3964
L7.0162 10.5174
" />
<path d="M7.0162 10.5174
L6.9557 10.6383
" />
<path d="M6.9557 10.6383
L6.8953 10.8802
" />
<path d="M6.8953 10.8802
L6.8953 11.0616
" />
<path d="M6.8953 11.0616
L6.9557 11.3035
" />
<path d="M6.9557 11.3035
L7.0162 11.4245
" />
<path d="M7.0162 11.4245
L7.1372 11.5455
" />
<path d="M7.1372 11.5455
L7.3186 11.6059
" />
<path d="M7.3186 11.6059
L7.4395 11.6059
" />
<path d="M7.4395 11.6059
L7.6210 11.5455
" />
<path d="M7.6210 11.5455
L7.6814 11.4850
" />
<path d="M7.6814 11.4850
L7.6814 11.0616
" />
<path d="M7.6814 11.0616
L7.4395 11.0616
" />
<path d="M8.2257 11.6059
L8.2257 10.3359
" />
<path d="M8.2257 10.3359
L8.9514 11.6059
" />
<path d="M8.9514 11.6059
L8.9514 10.3359
" />
<path d="M9.5562 11.6059
L9.5562 10.3359
" />
<path d="M9.5562 10.3359
L9.8586 10.3359
" />
<path d="M9.8586 10.3359
L10.0400 10.3964
" />
<path d="M10.0400 10.3964
L10.1610 10.5174
" />
<path d="M10.1610 10.5174
L10.2215 10.6383
" />
<path d="M10.2215 10.6383
L10.2819 10.8802
" />
<path d="M10.2819 10.8802
L10.2819 11.0616
" />
<path d="M10.2819 11.0616
L10.2215 11.3035
" />
<path d="M10.2215 11.3035
L10.1610 11.4245
" />
<path d="M10.1610 11.4245
L10.0400 11.5455
" />
<path d="M10.0400 11.5455
L9.8586 11.6059
" />
<path d="M9.8586 11.6059
L9.5562 11.6059
" />
</g></g>
<g style="fill:none; 
stroke:#A90000; stroke-width:0.1524; stroke-opacity:1; 
stroke-linecap:round; stroke-linejoin:round;">
<text x="4.2672" y="10.7724"
textLength="1.4127" font-size="1.6933" lengthAdjust="spacingAndGlyphs"
text-anchor="middle" opacity="0" stroke-opacity="0">2</text>
<g class="stroked-text"><desc>2</desc>
<path d="M3.9044 9.4599
L3.9648 9.3994
" />
<path d="M3.9648 9.3994
L4.0858 9.3389
" />
<path d="M4.0858 9.3389
L4.3882 9.3389
" />
<path d="M4.3882 9.3389
L4.5091 9.3994
" />
<path d="M4.5091 9.3994
L4.5696 9.4599
" />
<path d="M4.5696 9.4599
L4.6301 9.5808
" />
<path d="M4.6301 9.5808
L4.6301 9.7018
" />
<path d="M4.6301 9.7018
L4.5696 9.8832
" />
<path d="M4.5696 9.8832
L3.8439 10.6089
" />
<path d="M3.8439 10.6089
L4.6301 10.6089
" />
</g></g>
<g style="fill:none; 
stroke:#840000; stroke-width:0.1524; stroke-opacity:1; 
stroke-linecap:round; stroke-linejoin:round;">
<path d="M25.8572 11.0264
L28.3972 11.0264
" />
</g>
<g style="fill:none; 
stroke:#006464; stroke-width:0.1524; stroke-opacity:1; 
stroke-linecap:round; stroke-linejoin:round;">
<text x="24.8412" y="11.6614"
textLength="3.8318" font-size="1.6933" lengthAdjust="spacingAndGlyphs"
text-anchor="end" opacity="0" stroke-opacity="0">OUT</text>
<g class="stroked-text"><desc>OUT</desc>
<path d="M21.6566 10.3359
L21.8985 10.3359
" />
<path d="M21.8985 10.3359
L22.0195 10.3964
" />
<path d="M22.0195 10.3964
L22.1404 10.5174
" />
<path d="M22.1404 10.5174
L22.2009 10.7593
" />
<path d="M22.2009 10.7593
L22.2009 11.1826
" />
<path d="M22.2009 11.1826
L22.1404 11.4245
" />
<path d="M22.1404 11.4245
L22.0195 11.5455
" />
<path d="M22.0195 11.5455
L21.8985 11.6059
" />
<path d="M21.8985 11.6059
L21.6566 11.6059
" />
<path d="M21.6566 11.6059
L21.5357 11.5455
" />
<path d="M21.5357 11.5455
L21.4147 11.4245
" />
<path d="M21.4147 11.4245
L21.3543 11.1826
" />
<path d="M21.3543 11.1826
L21.3543 10.7593
" />
<path d="M21.3543 10.7593
L21.4147 10.5174
" />
<path d="M21.4147 10.5174
L21.5357 10.3964
" />
<path d="M21.5357 10.3964
L21.6566 10.3359
" />
<path d="M22.7452 10.3359
L22.7452 11.3640
" />
<path d="M22.7452 11.3640
L22.8057 11.4850
" />
<path d="M22.8057 11.4850
L22.8662 11.5455
" />
<path d="M22.8662 11.5455
L22.9871 11.6059
" />
<path d="M22.9871 11.6059
L23.2290 11.6059
" />
<path d="M23.2290 11.6059
L23.3500 11.5455
" />
<path d="M23.3500 11.5455
L23.4105 11.4850
" />
<path d="M23.4105 11.4850
L23.4709 11.3640
" />
<path d="M23.4709 11.3640
L23.4709 10.3359
" />
<path d="M23.8943 10.3359
L24.6200 10.3359
" />
<path d="M24.2572 11.6059
L24.2572 10.3359
" />
</g></g>
<g style="fill:none; 
stroke:#A90000; stroke-width:0.1524; stroke-opacity:1; 
stroke-linecap:round; stroke-linejoin:round;">
<text x="27.1272" y="10.7724"
textLength="1.4127" font-size="1.6933" lengthAdjust="spacingAndGlyphs"
text-anchor="middle" opacity="0" stroke-opacity="0">3</text>
<g class="stroked-text"><desc>3</desc>
<path d="M26.7039 9.3389
L27.4901 9.3389
" />
<path d="M27.4901 9.3389
L27.0667 9.8227
" />
<path d="M27.0667 9.8227
L27.2482 9.8227
" />
<path d="M27.2482 9.8227
L27.3691 9.8832
" />
<path d="M27.3691 9.8832
L27.4296 9.9437
" />
<path d="M27.4296 9.9437
L27.4901 10.0646
" />
<path d="M27.4901 10.0646
L27.4901 10.3670
" />
<path d="M27.4901 10.3670
L27.4296 10.4880
" />
<path d="M27.4296 10.4880
L27.3691 10.5485
" />
<path d="M27.3691 10.5485
L27.2482 10.6089
" />
<path d="M27.2482 10.6089
L26.8853 10.6089
" />
<path d="M26.8853 10.6089
L26.7644 10.5485
" />
<path d="M26.7644 10.5485
L26.7039 10.4880
" />
</g></g>
<g style="fill:none; 
stroke:#840000; stroke-width:0.1524; stroke-opacity:1; 
stroke-linecap:round; stroke-linejoin:round;">
<path d="M25.8572 4.6764
L28.3972 4.6764
" />
</g>
<g style="fill:none; 
stroke:#006464; stroke-width:0.1524; stroke-opacity:1; 
stroke-linecap:round; stroke-linejoin:round;">
<text x="24.8412" y="5.3114"
textLength="3.8318" font-size="1.6933" lengthAdjust="spacingAndGlyphs"
text-anchor="end" opacity="0" stroke-opacity="0">VDD</text>
<g class="stroked-text"><desc>VDD</desc>
<path d="M21.2333 3.9859
L21.6566 5.2559
" />
<path d="M21.6566 5.2559
L22.0800 3.9859
" />
<path d="M22.5033 5.2559
L22.5033 3.9859
" />
<path d="M22.5033 3.9859
L22.8057 3.9859
" />
<path d="M22.8057 3.9859
L22.9871 4.0464
" />
<path d="M22.9871 4.0464
L23.1081 4.1674
" />
<path d="M23.1081 4.1674
L23.1686 4.2883
" />
<path d="M23.1686 4.2883
L23.2290 4.5302
" />
<path d="M23.2290 4.5302
L23.2290 4.7116
" />
<path d="M23.2290 4.7116
L23.1686 4.9535
" />
<path d="M23.1686 4.9535
L23.1081 5.0745
" />
<path d="M23.1081 5.0745
L22.9871 5.1955
" />
<path d="M22.9871 5.1955
L22.8057 5.2559
" />
<path d="M22.8057 5.2559
L22.5033 5.2559
" />
<path d="M23.7733 5.2559
L23.7733 3.9859
" />
<path d="M23.7733 3.9859
L24.0757 3.9859
" />
<path d="M24.0757 3.9859
L24.2571 4.0464
" />
<path d="M24.2571 4.0464
L24.3781 4.1674
" />
<path d="M24.3781 4.1674
L24.4386 4.2883
" />
<path d="M24.4386 4.2883
L24.4990 4.5302
" />
<path d="M24.4990 4.5302
L24.4990 4.7116
" />
<path d="M24.4990 4.7116
L24.4386 4.9535
" />
<path d="M24.4386 4.9535
L24.3781 5.0745
" />
<path d="M24.3781 5.0745
L24.2571 5.1955
" />
<path d="M24.2571 5.1955
L24.0757 5.2559
" />
<path d="M24.0757 5.2559
L23.7733 5.2559
" />
</g></g>
<g style="fill:none; 
stroke:#A90000; stroke-width:0.1524; stroke-opacity:1; 
stroke-linecap:round; stroke-linejoin:round;">
<text x="27.1272" y="4.4224"
textLength="1.4127" font-size="1.6933" lengthAdjust="spacingAndGlyphs"
text-anchor="middle" opacity="0" stroke-opacity="0">4</text>
<g class="stroked-text"><desc>4</desc>
<path d="M27.3691 3.4123
L27.3691 4.2589
" />
<path d="M27.0667 2.9285
L26.7644 3.8356
" />
<path d="M26.7644 3.8356
L27.5505 3.8356
" />
</g></g>
<g style="fill:none; 
stroke:#006464; stroke-width:0.1524; stroke-opacity:1; 
stroke-linecap:round; stroke-linejoin:round;">
<text x="24.5872" y="2.7714"
textLength="2.6223" font-size="1.6933" lengthAdjust="spacingAndGlyphs"
text-anchor="middle" opacity="0" stroke-opacity="0">U?</text>
<g class="stroked-text"><desc>U?</desc>
<path d="M23.6800 1.4459
L23.6800 2.4740
" />
<path d="M23.6800 2.4740
L23.7405 2.5950
" />
<path d="M23.7405 2.5950
L23.8010 2.6555
" />
<path d="M23.8010 2.6555
L23.9219 2.7159
" />
<path d="M23.9219 2.7159
L24.1638 2.7159
" />
<path d="M24.1638 2.7159
L24.2848 2.6555
" />
<path d="M24.2848 2.6555
L24.3453 2.5950
" />
<path d="M24.3453 2.5950
L24.4057 2.4740
" />
<path d="M24.4057 2.4740
L24.4057 1.4459
" />
<path d="M25.1920 2.5950
L25.2524 2.6555
" />
<path d="M25.2524 2.6555
L25.1920 2.7159
" />
<path d="M25.1920 2.7159
L25.1315 2.6555
" />
<path d="M25.1315 2.6555
L25.1920 2.5950
" />
<path d="M25.1920 2.5950
L25.1920 2.7159
" />
<path d="M24.9501 1.5064
L25.0710 1.4459
" />
<path d="M25.0710 1.4459
L25.3734 1.4459
" />
<path d="M25.3734 1.4459
L25.4943 1.5064
" />
<path d="M25.4943 1.5064
L25.5548 1.6274
" />
<path d="M25.5548 1.6274
L25.5548 1.7483
" />
<path d="M25.5548 1.7483
L25.4943 1.8693
" />
<path d="M25.4943 1.8693
L25.4339 1.9297
" />
<path d="M25.4339 1.9297
L25.3129 1.9902
" />
<path d="M25.3129 1.9902
L25.2524 2.0507
" />
<path d="M25.2524 2.0507
L25.1920 2.1716
" />
<path d="M25.1920 2.1716
L25.1920 2.2321
" />
</g><text x="13.1572" y="2.7714"
textLength="9.5769" font-size="1.6933" lengthAdjust="spacingAndGlyphs"
text-anchor="middle" opacity="0" stroke-opacity="0">SG210STF</text>
<g class="stroked-text"><desc>SG210STF</desc>
<path d="M8.7123 2.6555
L8.8937 2.7159
" />
<path d="M8.8937 2.7159
L9.1961 2.7159
" />
<path d="M9.1961 2.7159
L9.3170 2.6555
" />
<path d="M9.3170 2.6555
L9.3775 2.5950
" />
<path d="M9.3775 2.5950
L9.4380 2.4740
" />
<path d="M9.4380 2.4740
L9.4380 2.3531
" />
<path d="M9.4380 2.3531
L9.3775 2.2321
" />
<path d="M9.3775 2.2321
L9.3170 2.1716
" />
<path d="M9.3170 2.1716
L9.1961 2.1112
" />
<path d="M9.1961 2.1112
L8.9542 2.0507
" />
<path d="M8.9542 2.0507
L8.8332 1.9902
" />
<path d="M8.8332 1.9902
L8.7727 1.9297
" />
<path d="M8.7727 1.9297
L8.7123 1.8088
" />
<path d="M8.7123 1.8088
L8.7123 1.6878
" />
<path d="M8.7123 1.6878
L8.7727 1.5669
" />
<path d="M8.7727 1.5669
L8.8332 1.5064
" />
<path d="M8.8332 1.5064
L8.9542 1.4459
" />
<path d="M8.9542 1.4459
L9.2565 1.4459
" />
<path d="M9.2565 1.4459
L9.4380 1.5064
" />
<path d="M10.6475 1.5064
L10.5265 1.4459
" />
<path d="M10.5265 1.4459
L10.3451 1.4459
" />
<path d="M10.3451 1.4459
L10.1637 1.5064
" />
<path d="M10.1637 1.5064
L10.0427 1.6274
" />
<path d="M10.0427 1.6274
L9.9822 1.7483
" />
<path d="M9.9822 1.7483
L9.9218 1.9902
" />
<path d="M9.9218 1.9902
L9.9218 2.1716
" />
<path d="M9.9218 2.1716
L9.9822 2.4135
" />
<path d="M9.9822 2.4135
L10.0427 2.5345
" />
<path d="M10.0427 2.5345
L10.1637 2.6555
" />
<path d="M10.1637 2.6555
L10.3451 2.7159
" />
<path d="M10.3451 2.7159
L10.4660 2.7159
" />
<path d="M10.4660 2.7159
L10.6475 2.6555
" />
<path d="M10.6475 2.6555
L10.7079 2.5950
" />
<path d="M10.7079 2.5950
L10.7079 2.1716
" />
<path d="M10.7079 2.1716
L10.4660 2.1716
" />
<path d="M11.1918 1.5669
L11.2522 1.5064
" />
<path d="M11.2522 1.5064
L11.3732 1.4459
" />
<path d="M11.3732 1.4459
L11.6756 1.4459
" />
<path d="M11.6756 1.4459
L11.7965 1.5064
" />
<path d="M11.7965 1.5064
L11.8570 1.5669
" />
<path d="M11.8570 1.5669
L11.9175 1.6878
" />
<path d="M11.9175 1.6878
L11.9175 1.8088
" />
<path d="M11.9175 1.8088
L11.8570 1.9902
" />
<path d="M11.8570 1.9902
L11.1313 2.7159
" />
<path d="M11.1313 2.7159
L11.9175 2.7159
" />
<path d="M13.1270 2.7159
L12.4013 2.7159
" />
<path d="M12.7641 2.7159
L12.7641 1.4459
" />
<path d="M12.7641 1.4459
L12.6432 1.6274
" />
<path d="M12.6432 1.6274
L12.5222 1.7483
" />
<path d="M12.5222 1.7483
L12.4013 1.8088
" />
<path d="M13.9131 1.4459
L14.0341 1.4459
" />
<path d="M14.0341 1.4459
L14.1550 1.5064
" />
<path d="M14.1550 1.5064
L14.2155 1.5669
" />
<path d="M14.2155 1.5669
L14.2760 1.6878
" />
<path d="M14.2760 1.6878
L14.3365 1.9297
" />
<path d="M14.3365 1.9297
L14.3365 2.2321
" />
<path d="M14.3365 2.2321
L14.2760 2.4740
" />
<path d="M14.2760 2.4740
L14.2155 2.5950
" />
<path d="M14.2155 2.5950
L14.1550 2.6555
" />
<path d="M14.1550 2.6555
L14.0341 2.7159
" />
<path d="M14.0341 2.7159
L13.9131 2.7159
" />
<path d="M13.9131 2.7159
L13.7922 2.6555
" />
<path d="M13.7922 2.6555
L13.7317 2.5950
" />
<path d="M13.7317 2.5950
L13.6712 2.4740
" />
<path d="M13.6712 2.4740
L13.6108 2.2321
" />
<path d="M13.6108 2.2321
L13.6108 1.9297
" />
<path d="M13.6108 1.9297
L13.6712 1.6878
" />
<path d="M13.6712 1.6878
L13.7317 1.5669
" />
<path d="M13.7317 1.5669
L13.7922 1.5064
" />
<path d="M13.7922 1.5064
L13.9131 1.4459
" />
<path d="M14.8203 2.6555
L15.0017 2.7159
" />
<path d="M15.0017 2.7159
L15.3041 2.7159
" />
<path d="M15.3041 2.7159
L15.4250 2.6555
" />
<path d="M15.4250 2.6555
L15.4855 2.5950
" />
<path d="M15.4855 2.5950
L15.5460 2.4740
" />
<path d="M15.5460 2.4740
L15.5460 2.3531
" />
<path d="M15.5460 2.3531
L15.4855 2.2321
" />
<path d="M15.4855 2.2321
L15.4250 2.1716
" />
<path d="M15.4250 2.1716
L15.3041 2.1112
" />
<path d="M15.3041 2.1112
L15.0622 2.0507
" />
<path d="M15.0622 2.0507
L14.9412 1.9902
" />
<path d="M14.9412 1.9902
L14.8807 1.9297
" />
<path d="M14.8807 1.9297
L14.8203 1.8088
" />
<path d="M14.8203 1.8088
L14.8203 1.6878
" />
<path d="M14.8203 1.6878
L14.8807 1.5669
" />
<path d="M14.8807 1.5669
L14.9412 1.5064
" />
<path d="M14.9412 1.5064
L15.0622 1.4459
" />
<path d="M15.0622 1.4459
L15.3645 1.4459
" />
<path d="M15.3645 1.4459
L15.5460 1.5064
" />
<path d="M15.9088 1.4459
L16.6345 1.4459
" />
<path d="M16.2717 2.7159
L16.2717 1.4459
" />
<path d="M17.4812 2.0507
L17.0578 2.0507
" />
<path d="M17.0578 2.7159
L17.0578 1.4459
" />
<path d="M17.0578 1.4459
L17.6626 1.4459
" />
</g></g> 
</svg>
