<?xml version="1.0" standalone="no"?>
 <!DOCTYPE svg PUBLIC "-//W3C//DTD SVG 1.1//EN" 
 "http://www.w3.org/Graphics/SVG/1.1/DTD/svg11.dtd"> 
<svg
  xmlns:svg="http://www.w3.org/2000/svg"
  xmlns="http://www.w3.org/2000/svg"
  xmlns:xlink="http://www.w3.org/1999/xlink"
  xmlns:inkscape="http://www.inkscape.org/namespaces/inkscape"
  version="1.1"
  width="100%" height="100%" viewBox="0.000000 0.000000 12.268200 2.565400">
<title>SVG Image created as SON_7P50_200X200X57L35X24T170X80N.svg date 2026-04-16T05:18:28 </title>
  <desc>Image generated by PCBNEW </desc>
<g style="fill:#000000; fill-opacity:1.000000;stroke:#000000; stroke-opacity:1.000000;
stroke-linecap:round; stroke-linejoin:round;"
 transform="translate(0 0) scale(1 1)">
<path style="fill:#C83434; fill-opacity:1.000000; stroke:none;fill-rule:evenodd;"
d="M 5.515714,1.885000
5.775714,1.885000
5.775714,2.445000
5.515714,2.445000
Z" /> 
<path style="fill:#C83434; fill-opacity:1.000000; stroke:none;fill-rule:evenodd;"
d="M 6.015714,1.885000
6.275714,1.885000
6.275714,2.445000
6.015714,2.445000
Z" /> 
<path style="fill:#C83434; fill-opacity:1.000000; stroke:none;fill-rule:evenodd;"
d="M 6.515714,1.885000
6.775714,1.885000
6.775714,2.445000
6.515714,2.445000
Z" /> 
<path style="fill:#C83434; fill-opacity:1.000000; stroke:none;fill-rule:evenodd;"
d="M 6.515714,0.125000
6.775714,0.125000
6.775714,0.685000
6.515714,0.685000
Z" /> 
<path style="fill:#C83434; fill-opacity:1.000000; stroke:none;fill-rule:evenodd;"
d="M 6.015714,0.125000
6.275714,0.125000
6.275714,0.685000
6.015714,0.685000
Z" /> 
<path style="fill:#C83434; fill-opacity:1.000000; stroke:none;fill-rule:evenodd;"
d="M 5.515714,0.125000
5.775714,0.125000
5.775714,0.685000
5.515714,0.685000
Z" /> 
<path style="fill:#C83434; fill-opacity:1.000000; stroke:none;fill-rule:evenodd;"
d="M 5.295714,0.885000
6.995714,0.885000
6.995714,1.685000
5.295714,1.685000
Z" /> 
<path style="fill:#D864FF; fill-opacity:0.400000; stroke:none;fill-rule:evenodd;"
d="M 5.515714,1.885000
5.775714,1.885000
5.775714,2.445000
5.515714,2.445000
Z" /> 
<path style="fill:#D864FF; fill-opacity:0.400000; stroke:none;fill-rule:evenodd;"
d="M 6.015714,1.885000
6.275714,1.885000
6.275714,2.445000
6.015714,2.445000
Z" /> 
<path style="fill:#D864FF; fill-opacity:0.400000; stroke:none;fill-rule:evenodd;"
d="M 6.515714,1.885000
6.775714,1.885000
6.775714,2.445000
6.515714,2.445000
Z" /> 
<path style="fill:#D864FF; fill-opacity:0.400000; stroke:none;fill-rule:evenodd;"
d="M 6.515714,0.125000
6.775714,0.125000
6.775714,0.685000
6.515714,0.685000
Z" /> 
<path style="fill:#D864FF; fill-opacity:0.400000; stroke:none;fill-rule:evenodd;"
d="M 6.015714,0.125000
6.275714,0.125000
6.275714,0.685000
6.015714,0.685000
Z" /> 
<path style="fill:#D864FF; fill-opacity:0.400000; stroke:none;fill-rule:evenodd;"
d="M 5.515714,0.125000
5.775714,0.125000
5.775714,0.685000
5.515714,0.685000
Z" /> 
<path style="fill:#D864FF; fill-opacity:0.400000; stroke:none;fill-rule:evenodd;"
d="M 5.295714,0.885000
6.995714,0.885000
6.995714,1.685000
5.295714,1.685000
Z" /> 
<path style="fill:#B4A09A; fill-opacity:0.900000; stroke:none;fill-rule:evenodd;"
d="M 5.515714,1.885000
5.775714,1.885000
5.775714,2.445000
5.515714,2.445000
Z" /> 
<path style="fill:#B4A09A; fill-opacity:0.900000; stroke:none;fill-rule:evenodd;"
d="M 6.015714,1.885000
6.275714,1.885000
6.275714,2.445000
6.015714,2.445000
Z" /> 
<path style="fill:#B4A09A; fill-opacity:0.900000; stroke:none;fill-rule:evenodd;"
d="M 6.515714,1.885000
6.775714,1.885000
6.775714,2.445000
6.515714,2.445000
Z" /> 
<path style="fill:#B4A09A; fill-opacity:0.900000; stroke:none;fill-rule:evenodd;"
d="M 6.515714,0.125000
6.775714,0.125000
6.775714,0.685000
6.515714,0.685000
Z" /> 
<path style="fill:#B4A09A; fill-opacity:0.900000; stroke:none;fill-rule:evenodd;"
d="M 6.015714,0.125000
6.275714,0.125000
6.275714,0.685000
6.015714,0.685000
Z" /> 
<path style="fill:#B4A09A; fill-opacity:0.900000; stroke:none;fill-rule:evenodd;"
d="M 5.515714,0.125000
5.775714,0.125000
5.775714,0.685000
5.515714,0.685000
Z" /> 
<path style="fill:#B4A09A; fill-opacity:0.900000; stroke:none;fill-rule:evenodd;"
d="M 5.295714,0.885000
6.995714,0.885000
6.995714,1.685000
5.295714,1.685000
Z" /> 
</g>
<g style="fill:none; 
stroke:#F2EDA1; stroke-width:0.050000; stroke-opacity:1; 
stroke-linecap:round; stroke-linejoin:round;">
<g transform="rotate(-90.000000 6.945814 0.575020)">
<text x="6.945814" y="0.675020"
textLength="0.967143" font-size="0.266666" lengthAdjust="spacingAndGlyphs"
text-anchor="middle" opacity="0" stroke-opacity="0">REF**</text>
</g>
<g class="stroked-text"><desc>REF**</desc>
<path d="M7.035737 0.841687
L6.940499 0.908353
" />
<path d="M7.035737 0.955972
L6.835737 0.955972
" />
<path d="M6.835737 0.955972
L6.835737 0.879782
" />
<path d="M6.835737 0.879782
L6.845261 0.860734
" />
<path d="M6.845261 0.860734
L6.854785 0.851211
" />
<path d="M6.854785 0.851211
L6.873833 0.841687
" />
<path d="M6.873833 0.841687
L6.902404 0.841687
" />
<path d="M6.902404 0.841687
L6.921452 0.851211
" />
<path d="M6.921452 0.851211
L6.930975 0.860734
" />
<path d="M6.930975 0.860734
L6.940499 0.879782
" />
<path d="M6.940499 0.879782
L6.940499 0.955972
" />
<path d="M6.930975 0.755972
L6.930975 0.689306
" />
<path d="M7.035737 0.660734
L7.035737 0.755972
" />
<path d="M7.035737 0.755972
L6.835737 0.755972
" />
<path d="M6.835737 0.755972
L6.835737 0.660734
" />
<path d="M6.930975 0.508354
L6.930975 0.575020
" />
<path d="M7.035737 0.575020
L6.835737 0.575020
" />
<path d="M6.835737 0.575020
L6.835737 0.479782
" />
<path d="M6.835737 0.375020
L6.883356 0.375020
" />
<path d="M6.864309 0.422639
L6.883356 0.375020
" />
<path d="M6.883356 0.375020
L6.864309 0.327401
" />
<path d="M6.921452 0.403591
L6.883356 0.375020
" />
<path d="M6.883356 0.375020
L6.921452 0.346449
" />
<path d="M6.835737 0.222639
L6.883356 0.222639
" />
<path d="M6.864309 0.270258
L6.883356 0.222639
" />
<path d="M6.883356 0.222639
L6.864309 0.175020
" />
<path d="M6.921452 0.251210
L6.883356 0.222639
" />
<path d="M6.883356 0.222639
L6.921452 0.194068
" />
</g></g>
<g style="fill:none; 
stroke:#F2EDA1; stroke-width:0.100000; stroke-opacity:1; 
stroke-linecap:round; stroke-linejoin:round;">
<path d="M7.195714 2.335000
L7.195714 0.235000
" />
<path d="M7.195714 0.235000
L6.925714 0.235000
" />
<path d="M6.925714 2.335000
L7.195714 2.335000
" />
<path d="M5.365714 2.335000
L5.095714 2.335000
" />
<path d="M5.095714 2.335000
L5.095714 0.235000
" />
<path d="M5.095714 0.235000
L5.365714 0.235000
" />
<path style="fill:#F2EDA1; fill-opacity:1.000000; 
stroke:#F2EDA1; stroke-width:0.100000; stroke-opacity:1; 
stroke-linecap:round; stroke-linejoin:round;fill-rule:evenodd;"
d="M 5.365714,2.335000
5.095714,2.335000
5.104314,1.985000
5.358314,1.985000
Z" /> 
</g>
<g style="fill:none; 
stroke:#FF26E2; stroke-width:0.050000; stroke-opacity:1; 
stroke-linecap:round; stroke-linejoin:round;">
<path d="M7.295714 2.435000
L7.295714 0.135000
" />
<path d="M7.295714 0.135000
L6.875714 0.135000
" />
<path d="M6.875714 2.545000
L6.875714 2.435000
" />
<path d="M6.875714 2.435000
L7.295714 2.435000
" />
<path d="M6.875714 0.135000
L6.875714 0.025000
" />
<path d="M6.875714 0.025000
L5.415714 0.025000
" />
<path d="M6.145714 0.935000
L6.145714 1.635000
" />
<path d="M5.795714 1.285000
L6.495714 1.285000
" />
<path d="M5.415714 2.545000
L6.875714 2.545000
" />
<path d="M5.415714 2.435000
L5.415714 2.545000
" />
<path d="M5.415714 0.135000
L4.995714 0.135000
" />
<path d="M5.415714 0.025000
L5.415714 0.135000
" />
<path d="M4.995714 2.435000
L5.415714 2.435000
" />
<path d="M4.995714 0.135000
L4.995714 2.435000
" />
<circle cx="6.145714" cy="1.285000" r="0.250000" /> 
</g>
<g style="fill:none; 
stroke:#AFAFAF; stroke-width:0.100000; stroke-opacity:1; 
stroke-linecap:round; stroke-linejoin:round;">
<text x="6.145714" y="1.785000"
textLength="4.385715" font-size="1.333333" lengthAdjust="spacingAndGlyphs"
text-anchor="middle" opacity="0" stroke-opacity="0">REF**</text>
<g class="stroked-text"><desc>REF**</desc>
<path d="M4.812381 1.742419
L4.479048 1.266229
" />
<path d="M4.240953 1.742419
L4.240953 0.742420
" />
<path d="M4.240953 0.742420
L4.621905 0.742420
" />
<path d="M4.621905 0.742420
L4.717143 0.790039
" />
<path d="M4.717143 0.790039
L4.764762 0.837658
" />
<path d="M4.764762 0.837658
L4.812381 0.932896
" />
<path d="M4.812381 0.932896
L4.812381 1.075753
" />
<path d="M4.812381 1.075753
L4.764762 1.170991
" />
<path d="M4.764762 1.170991
L4.717143 1.218610
" />
<path d="M4.717143 1.218610
L4.621905 1.266229
" />
<path d="M4.621905 1.266229
L4.240953 1.266229
" />
<path d="M5.240953 1.218610
L5.574286 1.218610
" />
<path d="M5.717143 1.742419
L5.240953 1.742419
" />
<path d="M5.240953 1.742419
L5.240953 0.742420
" />
<path d="M5.240953 0.742420
L5.717143 0.742420
" />
<path d="M6.479047 1.218610
L6.145714 1.218610
" />
<path d="M6.145714 1.742419
L6.145714 0.742420
" />
<path d="M6.145714 0.742420
L6.621904 0.742420
" />
<path d="M7.145714 0.742420
L7.145714 0.980515
" />
<path d="M6.907619 0.885277
L7.145714 0.980515
" />
<path d="M7.145714 0.980515
L7.383809 0.885277
" />
<path d="M7.002857 1.170991
L7.145714 0.980515
" />
<path d="M7.145714 0.980515
L7.288571 1.170991
" />
<path d="M7.907619 0.742420
L7.907619 0.980515
" />
<path d="M7.669524 0.885277
L7.907619 0.980515
" />
<path d="M7.907619 0.980515
L8.145714 0.885277
" />
<path d="M7.764762 1.170991
L7.907619 0.980515
" />
<path d="M7.907619 0.980515
L8.050476 1.170991
" />
</g></g>
<g style="fill:none; 
stroke:#AFAFAF; stroke-width:0.120000; stroke-opacity:1; 
stroke-linecap:round; stroke-linejoin:round;">
<text x="6.145714" y="1.885000"
textLength="12.291429" font-size="1.600000" lengthAdjust="spacingAndGlyphs"
text-anchor="middle" opacity="0" stroke-opacity="0">SC189ZULTRT</text>
<g class="stroked-text"><desc>SC189ZULTRT</desc>
<path d="M0.288572 1.776760
L0.460000 1.833902
" />
<path d="M0.460000 1.833902
L0.745715 1.833902
" />
<path d="M0.745715 1.833902
L0.860000 1.776760
" />
<path d="M0.860000 1.776760
L0.917143 1.719617
" />
<path d="M0.917143 1.719617
L0.974286 1.605331
" />
<path d="M0.974286 1.605331
L0.974286 1.491045
" />
<path d="M0.974286 1.491045
L0.917143 1.376760
" />
<path d="M0.917143 1.376760
L0.860000 1.319617
" />
<path d="M0.860000 1.319617
L0.745715 1.262475
" />
<path d="M0.745715 1.262475
L0.517143 1.205332
" />
<path d="M0.517143 1.205332
L0.402858 1.148189
" />
<path d="M0.402858 1.148189
L0.345715 1.091046
" />
<path d="M0.345715 1.091046
L0.288572 0.976760
" />
<path d="M0.288572 0.976760
L0.288572 0.862475
" />
<path d="M0.288572 0.862475
L0.345715 0.748189
" />
<path d="M0.345715 0.748189
L0.402858 0.691046
" />
<path d="M0.402858 0.691046
L0.517143 0.633903
" />
<path d="M0.517143 0.633903
L0.802858 0.633903
" />
<path d="M0.802858 0.633903
L0.974286 0.691046
" />
<path d="M2.174286 1.719617
L2.117143 1.776760
" />
<path d="M2.117143 1.776760
L1.945715 1.833902
" />
<path d="M1.945715 1.833902
L1.831429 1.833902
" />
<path d="M1.831429 1.833902
L1.660000 1.776760
" />
<path d="M1.660000 1.776760
L1.545715 1.662474
" />
<path d="M1.545715 1.662474
L1.488572 1.548188
" />
<path d="M1.488572 1.548188
L1.431429 1.319617
" />
<path d="M1.431429 1.319617
L1.431429 1.148189
" />
<path d="M1.431429 1.148189
L1.488572 0.919618
" />
<path d="M1.488572 0.919618
L1.545715 0.805332
" />
<path d="M1.545715 0.805332
L1.660000 0.691046
" />
<path d="M1.660000 0.691046
L1.831429 0.633903
" />
<path d="M1.831429 0.633903
L1.945715 0.633903
" />
<path d="M1.945715 0.633903
L2.117143 0.691046
" />
<path d="M2.117143 0.691046
L2.174286 0.748189
" />
<path d="M3.317143 1.833902
L2.631429 1.833902
" />
<path d="M2.974286 1.833902
L2.974286 0.633903
" />
<path d="M2.974286 0.633903
L2.860000 0.805332
" />
<path d="M2.860000 0.805332
L2.745715 0.919618
" />
<path d="M2.745715 0.919618
L2.631429 0.976760
" />
<path d="M4.002857 1.148189
L3.888572 1.091046
" />
<path d="M3.888572 1.091046
L3.831429 1.033903
" />
<path d="M3.831429 1.033903
L3.774286 0.919618
" />
<path d="M3.774286 0.919618
L3.774286 0.862475
" />
<path d="M3.774286 0.862475
L3.831429 0.748189
" />
<path d="M3.831429 0.748189
L3.888572 0.691046
" />
<path d="M3.888572 0.691046
L4.002857 0.633903
" />
<path d="M4.002857 0.633903
L4.231429 0.633903
" />
<path d="M4.231429 0.633903
L4.345714 0.691046
" />
<path d="M4.345714 0.691046
L4.402857 0.748189
" />
<path d="M4.402857 0.748189
L4.460000 0.862475
" />
<path d="M4.460000 0.862475
L4.460000 0.919618
" />
<path d="M4.460000 0.919618
L4.402857 1.033903
" />
<path d="M4.402857 1.033903
L4.345714 1.091046
" />
<path d="M4.345714 1.091046
L4.231429 1.148189
" />
<path d="M4.231429 1.148189
L4.002857 1.148189
" />
<path d="M4.002857 1.148189
L3.888572 1.205332
" />
<path d="M3.888572 1.205332
L3.831429 1.262475
" />
<path d="M3.831429 1.262475
L3.774286 1.376760
" />
<path d="M3.774286 1.376760
L3.774286 1.605331
" />
<path d="M3.774286 1.605331
L3.831429 1.719617
" />
<path d="M3.831429 1.719617
L3.888572 1.776760
" />
<path d="M3.888572 1.776760
L4.002857 1.833902
" />
<path d="M4.002857 1.833902
L4.231429 1.833902
" />
<path d="M4.231429 1.833902
L4.345714 1.776760
" />
<path d="M4.345714 1.776760
L4.402857 1.719617
" />
<path d="M4.402857 1.719617
L4.460000 1.605331
" />
<path d="M4.460000 1.605331
L4.460000 1.376760
" />
<path d="M4.460000 1.376760
L4.402857 1.262475
" />
<path d="M4.402857 1.262475
L4.345714 1.205332
" />
<path d="M4.345714 1.205332
L4.231429 1.148189
" />
<path d="M5.031429 1.833902
L5.260000 1.833902
" />
<path d="M5.260000 1.833902
L5.374286 1.776760
" />
<path d="M5.374286 1.776760
L5.431429 1.719617
" />
<path d="M5.431429 1.719617
L5.545714 1.548188
" />
<path d="M5.545714 1.548188
L5.602857 1.319617
" />
<path d="M5.602857 1.319617
L5.602857 0.862475
" />
<path d="M5.602857 0.862475
L5.545714 0.748189
" />
<path d="M5.545714 0.748189
L5.488571 0.691046
" />
<path d="M5.488571 0.691046
L5.374286 0.633903
" />
<path d="M5.374286 0.633903
L5.145714 0.633903
" />
<path d="M5.145714 0.633903
L5.031429 0.691046
" />
<path d="M5.031429 0.691046
L4.974286 0.748189
" />
<path d="M4.974286 0.748189
L4.917143 0.862475
" />
<path d="M4.917143 0.862475
L4.917143 1.148189
" />
<path d="M4.917143 1.148189
L4.974286 1.262475
" />
<path d="M4.974286 1.262475
L5.031429 1.319617
" />
<path d="M5.031429 1.319617
L5.145714 1.376760
" />
<path d="M5.145714 1.376760
L5.374286 1.376760
" />
<path d="M5.374286 1.376760
L5.488571 1.319617
" />
<path d="M5.488571 1.319617
L5.545714 1.262475
" />
<path d="M5.545714 1.262475
L5.602857 1.148189
" />
<path d="M6.002857 0.633903
L6.802856 0.633903
" />
<path d="M6.802856 0.633903
L6.002857 1.833902
" />
<path d="M6.002857 1.833902
L6.802856 1.833902
" />
<path d="M7.259999 0.633903
L7.259999 1.605331
" />
<path d="M7.259999 1.605331
L7.317142 1.719617
" />
<path d="M7.317142 1.719617
L7.374285 1.776760
" />
<path d="M7.374285 1.776760
L7.488570 1.833902
" />
<path d="M7.488570 1.833902
L7.717142 1.833902
" />
<path d="M7.717142 1.833902
L7.831427 1.776760
" />
<path d="M7.831427 1.776760
L7.888570 1.719617
" />
<path d="M7.888570 1.719617
L7.945713 1.605331
" />
<path d="M7.945713 1.605331
L7.945713 0.633903
" />
<path d="M9.088570 1.833902
L8.517142 1.833902
" />
<path d="M8.517142 1.833902
L8.517142 0.633903
" />
<path d="M9.317142 0.633903
L10.002857 0.633903
" />
<path d="M9.659999 1.833902
L9.659999 0.633903
" />
<path d="M11.088571 1.833902
L10.688571 1.262475
" />
<path d="M10.402857 1.833902
L10.402857 0.633903
" />
<path d="M10.402857 0.633903
L10.860000 0.633903
" />
<path d="M10.860000 0.633903
L10.974285 0.691046
" />
<path d="M10.974285 0.691046
L11.031428 0.748189
" />
<path d="M11.031428 0.748189
L11.088571 0.862475
" />
<path d="M11.088571 0.862475
L11.088571 1.033903
" />
<path d="M11.088571 1.033903
L11.031428 1.148189
" />
<path d="M11.031428 1.148189
L10.974285 1.205332
" />
<path d="M10.974285 1.205332
L10.860000 1.262475
" />
<path d="M10.860000 1.262475
L10.402857 1.262475
" />
<path d="M11.431428 0.633903
L12.117143 0.633903
" />
<path d="M11.774285 1.833902
L11.774285 0.633903
" />
</g><path d="M7.195714 2.335000
L5.095714 2.335000
" />
<path d="M7.195714 0.235000
L7.195714 2.335000
" />
<path d="M5.095714 2.335000
L5.095714 0.235000
" />
<path d="M5.095714 0.235000
L7.195714 0.235000
" />
</g>
<g style="fill:none; 
stroke:#C2C2C2; stroke-width:0.025000; stroke-opacity:1; 
stroke-linecap:round; stroke-linejoin:round;">
<path d="M7.145714 2.285000
L5.145714 2.285000
" />
<path d="M7.145714 0.285000
L7.145714 2.285000
" />
<path d="M6.995714 1.685000
L6.995714 0.885000
" />
<path d="M6.995714 0.885000
L5.295714 0.885000
" />
<path d="M6.765714 2.285000
L6.525714 2.285000
" />
<path d="M6.765714 1.935000
L6.765714 2.285000
" />
<path d="M6.765714 0.635000
L6.525714 0.635000
" />
<path d="M6.765714 0.285000
L6.765714 0.635000
" />
<path d="M6.525714 2.285000
L6.525714 1.935000
" />
<path d="M6.525714 1.935000
L6.765714 1.935000
" />
<path d="M6.525714 0.635000
L6.525714 0.285000
" />
<path d="M6.525714 0.285000
L6.765714 0.285000
" />
<path d="M6.265714 2.285000
L6.025714 2.285000
" />
<path d="M6.265714 1.935000
L6.265714 2.285000
" />
<path d="M6.265714 0.635000
L6.025714 0.635000
" />
<path d="M6.265714 0.285000
L6.265714 0.635000
" />
<path d="M6.025714 2.285000
L6.025714 1.935000
" />
<path d="M6.025714 1.935000
L6.265714 1.935000
" />
<path d="M6.025714 0.635000
L6.025714 0.285000
" />
<path d="M6.025714 0.285000
L6.265714 0.285000
" />
<path d="M5.765714 2.285000
L5.525714 2.285000
" />
<path d="M5.765714 1.935000
L5.765714 2.285000
" />
<path d="M5.765714 0.635000
L5.525714 0.635000
" />
<path d="M5.765714 0.285000
L5.765714 0.635000
" />
<path d="M5.525714 2.285000
L5.525714 1.935000
" />
<path d="M5.525714 1.935000
L5.765714 1.935000
" />
<path d="M5.525714 0.635000
L5.525714 0.285000
" />
<path d="M5.525714 0.285000
L5.765714 0.285000
" />
<path d="M5.495714 1.685000
L6.995714 1.685000
" />
<path d="M5.295714 1.485000
L5.495714 1.685000
" />
<path d="M5.295714 0.885000
L5.295714 1.485000
" />
<path d="M5.145714 2.285000
L5.145714 0.285000
" />
<path d="M5.145714 0.285000
L7.145714 0.285000
" />
</g> 
</svg>
