<?xml version="1.0" standalone="no"?>
 <!DOCTYPE svg PUBLIC "-//W3C//DTD SVG 1.1//EN" 
 "http://www.w3.org/Graphics/SVG/1.1/DTD/svg11.dtd"> 
<svg
  xmlns:svg="http://www.w3.org/2000/svg"
  xmlns="http://www.w3.org/2000/svg"
  xmlns:xlink="http://www.w3.org/1999/xlink"
  xmlns:inkscape="http://www.inkscape.org/namespaces/inkscape"
  version="1.1"
  width="100%" height="100%" viewBox="0.000000 0.000000 7.772400 2.565400">
<title>SVG Image created as SON_11_P50_300X200X80L40X25T239X64L.svg date 2026-04-16T05:18:28 </title>
  <desc>Image generated by PCBNEW </desc>
<g style="fill:#000000; fill-opacity:1.000000;stroke:#000000; stroke-opacity:1.000000;
stroke-linecap:round; stroke-linejoin:round;"
 transform="translate(0 0) scale(1 1)">
<path style="fill:#C83434; fill-opacity:1.000000; stroke:none;fill-rule:evenodd;"
d="M 3.023571,2.445000
2.753571,2.445000
2.753571,1.805000
3.023571,1.805000
Z" /> 
<path style="fill:#C83434; fill-opacity:1.000000; stroke:none;fill-rule:evenodd;"
d="M 3.523571,2.445000
3.253571,2.445000
3.253571,1.805000
3.523571,1.805000
Z" /> 
<path style="fill:#C83434; fill-opacity:1.000000; stroke:none;fill-rule:evenodd;"
d="M 4.023571,2.445000
3.753571,2.445000
3.753571,1.805000
4.023571,1.805000
Z" /> 
<path style="fill:#C83434; fill-opacity:1.000000; stroke:none;fill-rule:evenodd;"
d="M 4.523571,2.445000
4.253571,2.445000
4.253571,1.805000
4.523571,1.805000
Z" /> 
<path style="fill:#C83434; fill-opacity:1.000000; stroke:none;fill-rule:evenodd;"
d="M 5.023571,2.445000
4.753571,2.445000
4.753571,1.805000
5.023571,1.805000
Z" /> 
<path style="fill:#C83434; fill-opacity:1.000000; stroke:none;fill-rule:evenodd;"
d="M 5.023571,0.765000
4.753571,0.765000
4.753571,0.125000
5.023571,0.125000
Z" /> 
<path style="fill:#C83434; fill-opacity:1.000000; stroke:none;fill-rule:evenodd;"
d="M 4.523571,0.765000
4.253571,0.765000
4.253571,0.125000
4.523571,0.125000
Z" /> 
<path style="fill:#C83434; fill-opacity:1.000000; stroke:none;fill-rule:evenodd;"
d="M 4.023571,0.765000
3.753571,0.765000
3.753571,0.125000
4.023571,0.125000
Z" /> 
<path style="fill:#C83434; fill-opacity:1.000000; stroke:none;fill-rule:evenodd;"
d="M 3.523571,0.765000
3.253571,0.765000
3.253571,0.125000
3.523571,0.125000
Z" /> 
<path style="fill:#C83434; fill-opacity:1.000000; stroke:none;fill-rule:evenodd;"
d="M 3.023571,0.765000
2.753571,0.765000
2.753571,0.125000
3.023571,0.125000
Z" /> 
<path style="fill:#C83434; fill-opacity:1.000000; stroke:none;fill-rule:evenodd;"
d="M 5.083571,1.605000
2.693571,1.605000
2.693571,0.965000
5.083571,0.965000
Z" /> 
<path style="fill:#D864FF; fill-opacity:0.400000; stroke:none;fill-rule:evenodd;"
d="M 3.023571,2.445000
2.753571,2.445000
2.753571,1.805000
3.023571,1.805000
Z" /> 
<path style="fill:#D864FF; fill-opacity:0.400000; stroke:none;fill-rule:evenodd;"
d="M 3.523571,2.445000
3.253571,2.445000
3.253571,1.805000
3.523571,1.805000
Z" /> 
<path style="fill:#D864FF; fill-opacity:0.400000; stroke:none;fill-rule:evenodd;"
d="M 4.023571,2.445000
3.753571,2.445000
3.753571,1.805000
4.023571,1.805000
Z" /> 
<path style="fill:#D864FF; fill-opacity:0.400000; stroke:none;fill-rule:evenodd;"
d="M 4.523571,2.445000
4.253571,2.445000
4.253571,1.805000
4.523571,1.805000
Z" /> 
<path style="fill:#D864FF; fill-opacity:0.400000; stroke:none;fill-rule:evenodd;"
d="M 5.023571,2.445000
4.753571,2.445000
4.753571,1.805000
5.023571,1.805000
Z" /> 
<path style="fill:#D864FF; fill-opacity:0.400000; stroke:none;fill-rule:evenodd;"
d="M 5.023571,0.765000
4.753571,0.765000
4.753571,0.125000
5.023571,0.125000
Z" /> 
<path style="fill:#D864FF; fill-opacity:0.400000; stroke:none;fill-rule:evenodd;"
d="M 4.523571,0.765000
4.253571,0.765000
4.253571,0.125000
4.523571,0.125000
Z" /> 
<path style="fill:#D864FF; fill-opacity:0.400000; stroke:none;fill-rule:evenodd;"
d="M 4.023571,0.765000
3.753571,0.765000
3.753571,0.125000
4.023571,0.125000
Z" /> 
<path style="fill:#D864FF; fill-opacity:0.400000; stroke:none;fill-rule:evenodd;"
d="M 3.523571,0.765000
3.253571,0.765000
3.253571,0.125000
3.523571,0.125000
Z" /> 
<path style="fill:#D864FF; fill-opacity:0.400000; stroke:none;fill-rule:evenodd;"
d="M 3.023571,0.765000
2.753571,0.765000
2.753571,0.125000
3.023571,0.125000
Z" /> 
<path style="fill:#D864FF; fill-opacity:0.400000; stroke:none;fill-rule:evenodd;"
d="M 5.083571,1.605000
2.693571,1.605000
2.693571,0.965000
5.083571,0.965000
Z" /> 
<path style="fill:#B4A09A; fill-opacity:0.900000; stroke:none;fill-rule:evenodd;"
d="M 3.023571,2.445000
2.753571,2.445000
2.753571,1.805000
3.023571,1.805000
Z" /> 
<path style="fill:#B4A09A; fill-opacity:0.900000; stroke:none;fill-rule:evenodd;"
d="M 3.523571,2.445000
3.253571,2.445000
3.253571,1.805000
3.523571,1.805000
Z" /> 
<path style="fill:#B4A09A; fill-opacity:0.900000; stroke:none;fill-rule:evenodd;"
d="M 4.023571,2.445000
3.753571,2.445000
3.753571,1.805000
4.023571,1.805000
Z" /> 
<path style="fill:#B4A09A; fill-opacity:0.900000; stroke:none;fill-rule:evenodd;"
d="M 4.523571,2.445000
4.253571,2.445000
4.253571,1.805000
4.523571,1.805000
Z" /> 
<path style="fill:#B4A09A; fill-opacity:0.900000; stroke:none;fill-rule:evenodd;"
d="M 5.023571,2.445000
4.753571,2.445000
4.753571,1.805000
5.023571,1.805000
Z" /> 
<path style="fill:#B4A09A; fill-opacity:0.900000; stroke:none;fill-rule:evenodd;"
d="M 5.023571,0.765000
4.753571,0.765000
4.753571,0.125000
5.023571,0.125000
Z" /> 
<path style="fill:#B4A09A; fill-opacity:0.900000; stroke:none;fill-rule:evenodd;"
d="M 4.523571,0.765000
4.253571,0.765000
4.253571,0.125000
4.523571,0.125000
Z" /> 
<path style="fill:#B4A09A; fill-opacity:0.900000; stroke:none;fill-rule:evenodd;"
d="M 4.023571,0.765000
3.753571,0.765000
3.753571,0.125000
4.023571,0.125000
Z" /> 
<path style="fill:#B4A09A; fill-opacity:0.900000; stroke:none;fill-rule:evenodd;"
d="M 3.523571,0.765000
3.253571,0.765000
3.253571,0.125000
3.523571,0.125000
Z" /> 
<path style="fill:#B4A09A; fill-opacity:0.900000; stroke:none;fill-rule:evenodd;"
d="M 3.023571,0.765000
2.753571,0.765000
2.753571,0.125000
3.023571,0.125000
Z" /> 
<path style="fill:#B4A09A; fill-opacity:0.900000; stroke:none;fill-rule:evenodd;"
d="M 5.083571,1.605000
2.693571,1.605000
2.693571,0.965000
5.083571,0.965000
Z" /> 
</g>
<g style="fill:none; 
stroke:#F2EDA1; stroke-width:0.050000; stroke-opacity:1; 
stroke-linecap:round; stroke-linejoin:round;">
<g transform="rotate(-90.000000 2.524591 1.288760)">
<text x="2.524591" y="1.388760"
textLength="0.967143" font-size="0.266666" lengthAdjust="spacingAndGlyphs"
text-anchor="middle" opacity="0" stroke-opacity="0">REF**</text>
</g>
<g class="stroked-text"><desc>REF**</desc>
<path d="M2.614515 1.555426
L2.519277 1.622092
" />
<path d="M2.614515 1.669711
L2.414515 1.669711
" />
<path d="M2.414515 1.669711
L2.414515 1.593521
" />
<path d="M2.414515 1.593521
L2.424039 1.574473
" />
<path d="M2.424039 1.574473
L2.433563 1.564950
" />
<path d="M2.433563 1.564950
L2.452611 1.555426
" />
<path d="M2.452611 1.555426
L2.481182 1.555426
" />
<path d="M2.481182 1.555426
L2.500230 1.564950
" />
<path d="M2.500230 1.564950
L2.509753 1.574473
" />
<path d="M2.509753 1.574473
L2.519277 1.593521
" />
<path d="M2.519277 1.593521
L2.519277 1.669711
" />
<path d="M2.509753 1.469711
L2.509753 1.403045
" />
<path d="M2.614515 1.374473
L2.614515 1.469711
" />
<path d="M2.614515 1.469711
L2.414515 1.469711
" />
<path d="M2.414515 1.469711
L2.414515 1.374473
" />
<path d="M2.509753 1.222094
L2.509753 1.288759
" />
<path d="M2.614515 1.288759
L2.414515 1.288759
" />
<path d="M2.414515 1.288759
L2.414515 1.193522
" />
<path d="M2.414515 1.088760
L2.462134 1.088760
" />
<path d="M2.443087 1.136379
L2.462134 1.088760
" />
<path d="M2.462134 1.088760
L2.443087 1.041141
" />
<path d="M2.500230 1.117331
L2.462134 1.088760
" />
<path d="M2.462134 1.088760
L2.500230 1.060189
" />
<path d="M2.414515 0.936379
L2.462134 0.936379
" />
<path d="M2.443087 0.983998
L2.462134 0.936379
" />
<path d="M2.462134 0.936379
L2.443087 0.888760
" />
<path d="M2.500230 0.964950
L2.462134 0.936379
" />
<path d="M2.462134 0.936379
L2.500230 0.907808
" />
</g><path d="M2.338571 0.235000
L2.603571 0.235000
" />
<path d="M2.338571 2.335000
L2.338571 0.235000
" />
<path d="M2.603571 2.335000
L2.338571 2.335000
" />
<path d="M5.173571 2.335000
L5.438571 2.335000
" />
<path d="M5.438571 0.235000
L5.173571 0.235000
" />
<path d="M5.438571 2.335000
L5.438571 0.235000
" />
</g>
<g style="fill:none; 
stroke:#FF26E2; stroke-width:0.050000; stroke-opacity:1; 
stroke-linecap:round; stroke-linejoin:round;">
<path d="M2.238571 0.135000
L2.238571 2.435000
" />
<path d="M2.238571 2.435000
L2.653571 2.435000
" />
<path d="M2.653571 0.025000
L2.653571 0.135000
" />
<path d="M2.653571 0.135000
L2.238571 0.135000
" />
<path d="M2.653571 2.435000
L2.653571 2.545000
" />
<path d="M2.653571 2.545000
L5.123571 2.545000
" />
<path d="M3.538571 1.285000
L4.238571 1.285000
" />
<path d="M3.888571 0.935000
L3.888571 1.635000
" />
<path d="M5.123571 0.025000
L2.653571 0.025000
" />
<path d="M5.123571 0.135000
L5.123571 0.025000
" />
<path d="M5.123571 2.435000
L5.538571 2.435000
" />
<path d="M5.123571 2.545000
L5.123571 2.435000
" />
<path d="M5.538571 0.135000
L5.123571 0.135000
" />
<path d="M5.538571 2.435000
L5.538571 0.135000
" />
<circle cx="3.888571" cy="1.285000" r="0.250000" /> 
</g>
<g style="fill:none; 
stroke:#AFAFAF; stroke-width:0.100000; stroke-opacity:1; 
stroke-linecap:round; stroke-linejoin:round;">
<text x="3.888571" y="1.785000"
textLength="4.385715" font-size="1.333333" lengthAdjust="spacingAndGlyphs"
text-anchor="middle" opacity="0" stroke-opacity="0">REF**</text>
<g class="stroked-text"><desc>REF**</desc>
<path d="M2.555238 1.742419
L2.221905 1.266229
" />
<path d="M1.983810 1.742419
L1.983810 0.742420
" />
<path d="M1.983810 0.742420
L2.364762 0.742420
" />
<path d="M2.364762 0.742420
L2.460000 0.790039
" />
<path d="M2.460000 0.790039
L2.507619 0.837658
" />
<path d="M2.507619 0.837658
L2.555238 0.932896
" />
<path d="M2.555238 0.932896
L2.555238 1.075753
" />
<path d="M2.555238 1.075753
L2.507619 1.170991
" />
<path d="M2.507619 1.170991
L2.460000 1.218610
" />
<path d="M2.460000 1.218610
L2.364762 1.266229
" />
<path d="M2.364762 1.266229
L1.983810 1.266229
" />
<path d="M2.983810 1.218610
L3.317143 1.218610
" />
<path d="M3.460000 1.742419
L2.983810 1.742419
" />
<path d="M2.983810 1.742419
L2.983810 0.742420
" />
<path d="M2.983810 0.742420
L3.460000 0.742420
" />
<path d="M4.221904 1.218610
L3.888571 1.218610
" />
<path d="M3.888571 1.742419
L3.888571 0.742420
" />
<path d="M3.888571 0.742420
L4.364761 0.742420
" />
<path d="M4.888571 0.742420
L4.888571 0.980515
" />
<path d="M4.650476 0.885277
L4.888571 0.980515
" />
<path d="M4.888571 0.980515
L5.126666 0.885277
" />
<path d="M4.745714 1.170991
L4.888571 0.980515
" />
<path d="M4.888571 0.980515
L5.031428 1.170991
" />
<path d="M5.650476 0.742420
L5.650476 0.980515
" />
<path d="M5.412381 0.885277
L5.650476 0.980515
" />
<path d="M5.650476 0.980515
L5.888571 0.885277
" />
<path d="M5.507619 1.170991
L5.650476 0.980515
" />
<path d="M5.650476 0.980515
L5.793333 1.170991
" />
</g></g>
<g style="fill:none; 
stroke:#AFAFAF; stroke-width:0.120000; stroke-opacity:1; 
stroke-linecap:round; stroke-linejoin:round;">
<text x="3.888571" y="1.885000"
textLength="7.777143" font-size="1.600000" lengthAdjust="spacingAndGlyphs"
text-anchor="middle" opacity="0" stroke-opacity="0">LTC3218</text>
<g class="stroked-text"><desc>LTC3218</desc>
<path d="M0.917143 1.833902
L0.345715 1.833902
" />
<path d="M0.345715 1.833902
L0.345715 0.633903
" />
<path d="M1.145715 0.633903
L1.831429 0.633903
" />
<path d="M1.488572 1.833902
L1.488572 0.633903
" />
<path d="M2.917144 1.719617
L2.860001 1.776760
" />
<path d="M2.860001 1.776760
L2.688573 1.833902
" />
<path d="M2.688573 1.833902
L2.574287 1.833902
" />
<path d="M2.574287 1.833902
L2.402858 1.776760
" />
<path d="M2.402858 1.776760
L2.288573 1.662474
" />
<path d="M2.288573 1.662474
L2.231430 1.548188
" />
<path d="M2.231430 1.548188
L2.174287 1.319617
" />
<path d="M2.174287 1.319617
L2.174287 1.148189
" />
<path d="M2.174287 1.148189
L2.231430 0.919618
" />
<path d="M2.231430 0.919618
L2.288573 0.805332
" />
<path d="M2.288573 0.805332
L2.402858 0.691046
" />
<path d="M2.402858 0.691046
L2.574287 0.633903
" />
<path d="M2.574287 0.633903
L2.688573 0.633903
" />
<path d="M2.688573 0.633903
L2.860001 0.691046
" />
<path d="M2.860001 0.691046
L2.917144 0.748189
" />
<path d="M3.317144 0.633903
L4.060000 0.633903
" />
<path d="M4.060000 0.633903
L3.660001 1.091046
" />
<path d="M3.660001 1.091046
L3.831430 1.091046
" />
<path d="M3.831430 1.091046
L3.945715 1.148189
" />
<path d="M3.945715 1.148189
L4.002857 1.205332
" />
<path d="M4.002857 1.205332
L4.060000 1.319617
" />
<path d="M4.060000 1.319617
L4.060000 1.605331
" />
<path d="M4.060000 1.605331
L4.002857 1.719617
" />
<path d="M4.002857 1.719617
L3.945715 1.776760
" />
<path d="M3.945715 1.776760
L3.831430 1.833902
" />
<path d="M3.831430 1.833902
L3.488573 1.833902
" />
<path d="M3.488573 1.833902
L3.374287 1.776760
" />
<path d="M3.374287 1.776760
L3.317144 1.719617
" />
<path d="M4.517143 0.748189
L4.574286 0.691046
" />
<path d="M4.574286 0.691046
L4.688572 0.633903
" />
<path d="M4.688572 0.633903
L4.974286 0.633903
" />
<path d="M4.974286 0.633903
L5.088572 0.691046
" />
<path d="M5.088572 0.691046
L5.145714 0.748189
" />
<path d="M5.145714 0.748189
L5.202857 0.862475
" />
<path d="M5.202857 0.862475
L5.202857 0.976760
" />
<path d="M5.202857 0.976760
L5.145714 1.148189
" />
<path d="M5.145714 1.148189
L4.460000 1.833902
" />
<path d="M4.460000 1.833902
L5.202857 1.833902
" />
<path d="M6.345714 1.833902
L5.660000 1.833902
" />
<path d="M6.002857 1.833902
L6.002857 0.633903
" />
<path d="M6.002857 0.633903
L5.888571 0.805332
" />
<path d="M5.888571 0.805332
L5.774286 0.919618
" />
<path d="M5.774286 0.919618
L5.660000 0.976760
" />
<path d="M7.031428 1.148189
L6.917143 1.091046
" />
<path d="M6.917143 1.091046
L6.860000 1.033903
" />
<path d="M6.860000 1.033903
L6.802857 0.919618
" />
<path d="M6.802857 0.919618
L6.802857 0.862475
" />
<path d="M6.802857 0.862475
L6.860000 0.748189
" />
<path d="M6.860000 0.748189
L6.917143 0.691046
" />
<path d="M6.917143 0.691046
L7.031428 0.633903
" />
<path d="M7.031428 0.633903
L7.260000 0.633903
" />
<path d="M7.260000 0.633903
L7.374286 0.691046
" />
<path d="M7.374286 0.691046
L7.431428 0.748189
" />
<path d="M7.431428 0.748189
L7.488571 0.862475
" />
<path d="M7.488571 0.862475
L7.488571 0.919618
" />
<path d="M7.488571 0.919618
L7.431428 1.033903
" />
<path d="M7.431428 1.033903
L7.374286 1.091046
" />
<path d="M7.374286 1.091046
L7.260000 1.148189
" />
<path d="M7.260000 1.148189
L7.031428 1.148189
" />
<path d="M7.031428 1.148189
L6.917143 1.205332
" />
<path d="M6.917143 1.205332
L6.860000 1.262475
" />
<path d="M6.860000 1.262475
L6.802857 1.376760
" />
<path d="M6.802857 1.376760
L6.802857 1.605331
" />
<path d="M6.802857 1.605331
L6.860000 1.719617
" />
<path d="M6.860000 1.719617
L6.917143 1.776760
" />
<path d="M6.917143 1.776760
L7.031428 1.833902
" />
<path d="M7.031428 1.833902
L7.260000 1.833902
" />
<path d="M7.260000 1.833902
L7.374286 1.776760
" />
<path d="M7.374286 1.776760
L7.431428 1.719617
" />
<path d="M7.431428 1.719617
L7.488571 1.605331
" />
<path d="M7.488571 1.605331
L7.488571 1.376760
" />
<path d="M7.488571 1.376760
L7.431428 1.262475
" />
<path d="M7.431428 1.262475
L7.374286 1.205332
" />
<path d="M7.374286 1.205332
L7.260000 1.148189
" />
</g><path d="M2.338571 0.235000
L5.438571 0.235000
" />
<path d="M2.338571 2.335000
L2.338571 0.235000
" />
<path d="M5.438571 0.235000
L5.438571 2.335000
" />
<path d="M5.438571 2.335000
L2.338571 2.335000
" />
</g>
<g style="fill:none; 
stroke:#C2C2C2; stroke-width:0.025000; stroke-opacity:1; 
stroke-linecap:round; stroke-linejoin:round;">
<path d="M2.388571 0.285000
L5.388571 0.285000
" />
<path d="M2.388571 2.285000
L2.388571 0.285000
" />
<path d="M2.693571 1.015000
L2.693571 1.355000
" />
<path d="M2.693571 1.355000
L2.943571 1.605000
" />
<path d="M2.763571 0.285000
L2.763571 0.560000
" />
<path d="M2.763571 2.010000
L2.763571 2.285000
" />
<path d="M2.763571 2.285000
L3.013571 2.285000
" />
<path d="M2.943571 1.605000
L5.033571 1.605000
" />
<path d="M3.013571 0.285000
L2.763571 0.285000
" />
<path d="M3.013571 0.560000
L3.013571 0.285000
" />
<path d="M3.013571 2.285000
L3.013571 2.010000
" />
<path d="M3.263571 0.285000
L3.263571 0.560000
" />
<path d="M3.263571 2.010000
L3.263571 2.285000
" />
<path d="M3.263571 2.285000
L3.513571 2.285000
" />
<path d="M3.513571 0.285000
L3.263571 0.285000
" />
<path d="M3.513571 0.560000
L3.513571 0.285000
" />
<path d="M3.513571 2.285000
L3.513571 2.010000
" />
<path d="M3.763571 0.285000
L3.763571 0.560000
" />
<path d="M3.763571 2.010000
L3.763571 2.285000
" />
<path d="M3.763571 2.285000
L4.013571 2.285000
" />
<path d="M4.013571 0.285000
L3.763571 0.285000
" />
<path d="M4.013571 0.560000
L4.013571 0.285000
" />
<path d="M4.013571 2.285000
L4.013571 2.010000
" />
<path d="M4.263571 0.285000
L4.263571 0.560000
" />
<path d="M4.263571 2.010000
L4.263571 2.285000
" />
<path d="M4.263571 2.285000
L4.513571 2.285000
" />
<path d="M4.513571 0.285000
L4.263571 0.285000
" />
<path d="M4.513571 0.560000
L4.513571 0.285000
" />
<path d="M4.513571 2.285000
L4.513571 2.010000
" />
<path d="M4.763571 0.285000
L4.763571 0.560000
" />
<path d="M4.763571 2.010000
L4.763571 2.285000
" />
<path d="M4.763571 2.285000
L5.013571 2.285000
" />
<path d="M5.013571 0.285000
L4.763571 0.285000
" />
<path d="M5.013571 0.560000
L5.013571 0.285000
" />
<path d="M5.013571 2.285000
L5.013571 2.010000
" />
<path d="M5.033571 0.965000
L2.743571 0.965000
" />
<path d="M5.083571 1.555000
L5.083571 1.015000
" />
<path d="M5.388571 0.285000
L5.388571 2.285000
" />
<path d="M5.388571 2.285000
L2.388571 2.285000
" />
<path d="M2.743571 0.965000 A0.050001 0.050001 0.0 0 0 2.693571 1.015000" />
<path d="M3.013571 2.010000 A0.125000 0.125000 0.0 0 0 2.763571 2.010000" />
<path d="M2.763571 0.560000 A0.125000 0.125000 0.0 0 0 3.013571 0.560000" />
<path d="M3.513571 2.010000 A0.125000 0.125000 0.0 0 0 3.263571 2.010000" />
<path d="M3.263571 0.560000 A0.125000 0.125000 0.0 0 0 3.513571 0.560000" />
<path d="M4.013571 2.010000 A0.125000 0.125000 0.0 0 0 3.763571 2.010000" />
<path d="M3.763571 0.560000 A0.125000 0.125000 0.0 0 0 4.013571 0.560000" />
<path d="M4.513571 2.010000 A0.125000 0.125000 0.0 0 0 4.263571 2.010000" />
<path d="M4.263571 0.560000 A0.125000 0.125000 0.0 0 0 4.513571 0.560000" />
<path d="M5.013571 2.010000 A0.125000 0.125000 0.0 0 0 4.763571 2.010000" />
<path d="M4.763571 0.560000 A0.125000 0.125000 0.0 0 0 5.013571 0.560000" />
<path d="M5.083571 1.015000 A0.050000 0.050000 0.0 0 0 5.033571 0.965000" />
<path d="M5.033571 1.605000 A0.050000 0.050000 0.0 0 0 5.083571 1.555000" />
</g> 
</svg>
