<?xml version="1.0" standalone="no"?>
 <!DOCTYPE svg PUBLIC "-//W3C//DTD SVG 1.1//EN" 
 "http://www.w3.org/Graphics/SVG/1.1/DTD/svg11.dtd"> 
<svg
  xmlns:svg="http://www.w3.org/2000/svg"
  xmlns="http://www.w3.org/2000/svg"
  xmlns:xlink="http://www.w3.org/1999/xlink"
  xmlns:inkscape="http://www.inkscape.org/namespaces/inkscape"
  version="1.1"
  width="100%" height="100%" viewBox="0.0000 0.0000 31.3944 36.7284">
<title>SVG Image created as TPL0102_unit1.svg date 2026-04-16T05:18:23 </title>
  <desc>Image generated by Eeschema-SVG </desc>
<g style="fill:#000000; fill-opacity:1.0000;stroke:#000000; stroke-opacity:1.0000;
stroke-linecap:round; stroke-linejoin:round;"
 transform="translate(0 0) scale(1 1)">
</g>
<g style="fill:#FFFFC2; fill-opacity:1.0000; stroke:none;">
<rect x="5.537200" y="5.349500" width="20.320000" height="25.400000" rx="0.000000" />
</g>
<g style="fill:none; 
stroke:#840000; stroke-width:0.2540; stroke-opacity:1; 
stroke-linecap:round; stroke-linejoin:round;">
<rect x="5.537200" y="5.349500" width="20.320000" height="25.400000" rx="0.000000" />
</g>
<g style="fill:none; 
stroke:#840000; stroke-width:0.1524; stroke-opacity:1; 
stroke-linecap:round; stroke-linejoin:round;">
<path d="M25.8572 7.8895
L28.3972 7.8895
" />
</g>
<g style="fill:none; 
stroke:#006464; stroke-width:0.1524; stroke-opacity:1; 
stroke-linecap:round; stroke-linejoin:round;">
<text x="25.3492" y="8.5245"
textLength="2.6223" font-size="1.6933" lengthAdjust="spacingAndGlyphs"
text-anchor="end" opacity="0" stroke-opacity="0">HA</text>
<g class="stroked-text"><desc>HA</desc>
<path d="M23.1322 8.4690
L23.1322 7.1990
" />
<path d="M23.1322 7.8038
L23.8579 7.8038
" />
<path d="M23.8579 8.4690
L23.8579 7.1990
" />
<path d="M24.4023 8.1062
L25.0070 8.1062
" />
<path d="M24.2813 8.4690
L24.7046 7.1990
" />
<path d="M24.7046 7.1990
L25.1280 8.4690
" />
</g></g>
<g style="fill:none; 
stroke:#A90000; stroke-width:0.1524; stroke-opacity:1; 
stroke-linecap:round; stroke-linejoin:round;">
<text x="27.1272" y="7.6355"
textLength="1.4127" font-size="1.6933" lengthAdjust="spacingAndGlyphs"
text-anchor="middle" opacity="0" stroke-opacity="0">1</text>
<g class="stroked-text"><desc>1</desc>
<path d="M27.4901 7.4720
L26.7644 7.4720
" />
<path d="M27.1272 7.4720
L27.1272 6.2020
" />
<path d="M27.1272 6.2020
L27.0063 6.3835
" />
<path d="M27.0063 6.3835
L26.8853 6.5044
" />
<path d="M26.8853 6.5044
L26.7644 6.5649
" />
</g></g>
<g style="fill:none; 
stroke:#840000; stroke-width:0.1524; stroke-opacity:1; 
stroke-linecap:round; stroke-linejoin:round;">
<path d="M25.8572 23.1295
L28.3972 23.1295
" />
</g>
<g style="fill:none; 
stroke:#006464; stroke-width:0.1524; stroke-opacity:1; 
stroke-linecap:round; stroke-linejoin:round;">
<text x="25.3492" y="23.7645"
textLength="2.3199" font-size="1.6933" lengthAdjust="spacingAndGlyphs"
text-anchor="end" opacity="0" stroke-opacity="0">LA</text>
<g class="stroked-text"><desc>LA</desc>
<path d="M24.0394 23.7090
L23.4346 23.7090
" />
<path d="M23.4346 23.7090
L23.4346 22.4390
" />
<path d="M24.4023 23.3462
L25.0070 23.3462
" />
<path d="M24.2813 23.7090
L24.7046 22.4390
" />
<path d="M24.7046 22.4390
L25.1280 23.7090
" />
</g></g>
<g style="fill:none; 
stroke:#A90000; stroke-width:0.1524; stroke-opacity:1; 
stroke-linecap:round; stroke-linejoin:round;">
<text x="27.1272" y="22.8755"
textLength="1.4127" font-size="1.6933" lengthAdjust="spacingAndGlyphs"
text-anchor="middle" opacity="0" stroke-opacity="0">2</text>
<g class="stroked-text"><desc>2</desc>
<path d="M26.7644 21.5630
L26.8248 21.5025
" />
<path d="M26.8248 21.5025
L26.9458 21.4420
" />
<path d="M26.9458 21.4420
L27.2482 21.4420
" />
<path d="M27.2482 21.4420
L27.3691 21.5025
" />
<path d="M27.3691 21.5025
L27.4296 21.5630
" />
<path d="M27.4296 21.5630
L27.4901 21.6839
" />
<path d="M27.4901 21.6839
L27.4901 21.8049
" />
<path d="M27.4901 21.8049
L27.4296 21.9863
" />
<path d="M27.4296 21.9863
L26.7039 22.7120
" />
<path d="M26.7039 22.7120
L27.4901 22.7120
" />
</g></g>
<g style="fill:none; 
stroke:#840000; stroke-width:0.1524; stroke-opacity:1; 
stroke-linecap:round; stroke-linejoin:round;">
<path d="M25.8572 15.5095
L28.3972 15.5095
" />
</g>
<g style="fill:none; 
stroke:#006464; stroke-width:0.1524; stroke-opacity:1; 
stroke-linecap:round; stroke-linejoin:round;">
<text x="25.3492" y="16.1445"
textLength="2.7432" font-size="1.6933" lengthAdjust="spacingAndGlyphs"
text-anchor="end" opacity="0" stroke-opacity="0">WA</text>
<g class="stroked-text"><desc>WA</desc>
<path d="M22.8904 14.8190
L23.1928 16.0890
" />
<path d="M23.1928 16.0890
L23.4347 15.1819
" />
<path d="M23.4347 15.1819
L23.6766 16.0890
" />
<path d="M23.6766 16.0890
L23.9790 14.8190
" />
<path d="M24.4023 15.7262
L25.0070 15.7262
" />
<path d="M24.2813 16.0890
L24.7046 14.8190
" />
<path d="M24.7046 14.8190
L25.1280 16.0890
" />
</g></g>
<g style="fill:none; 
stroke:#A90000; stroke-width:0.1524; stroke-opacity:1; 
stroke-linecap:round; stroke-linejoin:round;">
<text x="27.1272" y="15.2555"
textLength="1.4127" font-size="1.6933" lengthAdjust="spacingAndGlyphs"
text-anchor="middle" opacity="0" stroke-opacity="0">3</text>
<g class="stroked-text"><desc>3</desc>
<path d="M26.7039 13.8220
L27.4901 13.8220
" />
<path d="M27.4901 13.8220
L27.0667 14.3058
" />
<path d="M27.0667 14.3058
L27.2482 14.3058
" />
<path d="M27.2482 14.3058
L27.3691 14.3663
" />
<path d="M27.3691 14.3663
L27.4296 14.4268
" />
<path d="M27.4296 14.4268
L27.4901 14.5477
" />
<path d="M27.4901 14.5477
L27.4901 14.8501
" />
<path d="M27.4901 14.8501
L27.4296 14.9711
" />
<path d="M27.4296 14.9711
L27.3691 15.0316
" />
<path d="M27.3691 15.0316
L27.2482 15.0920
" />
<path d="M27.2482 15.0920
L26.8853 15.0920
" />
<path d="M26.8853 15.0920
L26.7644 15.0316
" />
<path d="M26.7644 15.0316
L26.7039 14.9711
" />
</g></g>
<g style="fill:none; 
stroke:#840000; stroke-width:0.1524; stroke-opacity:1; 
stroke-linecap:round; stroke-linejoin:round;">
<path d="M25.8572 10.4295
L28.3972 10.4295
" />
</g>
<g style="fill:none; 
stroke:#006464; stroke-width:0.1524; stroke-opacity:1; 
stroke-linecap:round; stroke-linejoin:round;">
<text x="25.3492" y="11.0645"
textLength="2.8037" font-size="1.6933" lengthAdjust="spacingAndGlyphs"
text-anchor="end" opacity="0" stroke-opacity="0">HB</text>
<g class="stroked-text"><desc>HB</desc>
<path d="M22.9508 11.0090
L22.9508 9.7390
" />
<path d="M22.9508 10.3438
L23.6765 10.3438
" />
<path d="M23.6765 11.0090
L23.6765 9.7390
" />
<path d="M24.7047 10.3438
L24.8861 10.4043
" />
<path d="M24.8861 10.4043
L24.9466 10.4647
" />
<path d="M24.9466 10.4647
L25.0070 10.5857
" />
<path d="M25.0070 10.5857
L25.0070 10.7671
" />
<path d="M25.0070 10.7671
L24.9466 10.8881
" />
<path d="M24.9466 10.8881
L24.8861 10.9486
" />
<path d="M24.8861 10.9486
L24.7651 11.0090
" />
<path d="M24.7651 11.0090
L24.2813 11.0090
" />
<path d="M24.2813 11.0090
L24.2813 9.7390
" />
<path d="M24.2813 9.7390
L24.7047 9.7390
" />
<path d="M24.7047 9.7390
L24.8256 9.7995
" />
<path d="M24.8256 9.7995
L24.8861 9.8600
" />
<path d="M24.8861 9.8600
L24.9466 9.9809
" />
<path d="M24.9466 9.9809
L24.9466 10.1019
" />
<path d="M24.9466 10.1019
L24.8861 10.2228
" />
<path d="M24.8861 10.2228
L24.8256 10.2833
" />
<path d="M24.8256 10.2833
L24.7047 10.3438
" />
<path d="M24.7047 10.3438
L24.2813 10.3438
" />
</g></g>
<g style="fill:none; 
stroke:#A90000; stroke-width:0.1524; stroke-opacity:1; 
stroke-linecap:round; stroke-linejoin:round;">
<text x="27.1272" y="10.1755"
textLength="1.4127" font-size="1.6933" lengthAdjust="spacingAndGlyphs"
text-anchor="middle" opacity="0" stroke-opacity="0">4</text>
<g class="stroked-text"><desc>4</desc>
<path d="M27.3691 9.1654
L27.3691 10.0120
" />
<path d="M27.0667 8.6816
L26.7644 9.5887
" />
<path d="M26.7644 9.5887
L27.5505 9.5887
" />
</g></g>
<g style="fill:none; 
stroke:#840000; stroke-width:0.1524; stroke-opacity:1; 
stroke-linecap:round; stroke-linejoin:round;">
<path d="M25.8572 25.6695
L28.3972 25.6695
" />
</g>
<g style="fill:none; 
stroke:#006464; stroke-width:0.1524; stroke-opacity:1; 
stroke-linecap:round; stroke-linejoin:round;">
<text x="25.3492" y="26.3045"
textLength="2.5013" font-size="1.6933" lengthAdjust="spacingAndGlyphs"
text-anchor="end" opacity="0" stroke-opacity="0">LB</text>
<g class="stroked-text"><desc>LB</desc>
<path d="M23.8580 26.2490
L23.2532 26.2490
" />
<path d="M23.2532 26.2490
L23.2532 24.9790
" />
<path d="M24.7047 25.5838
L24.8861 25.6443
" />
<path d="M24.8861 25.6443
L24.9466 25.7047
" />
<path d="M24.9466 25.7047
L25.0070 25.8257
" />
<path d="M25.0070 25.8257
L25.0070 26.0071
" />
<path d="M25.0070 26.0071
L24.9466 26.1281
" />
<path d="M24.9466 26.1281
L24.8861 26.1886
" />
<path d="M24.8861 26.1886
L24.7651 26.2490
" />
<path d="M24.7651 26.2490
L24.2813 26.2490
" />
<path d="M24.2813 26.2490
L24.2813 24.9790
" />
<path d="M24.2813 24.9790
L24.7047 24.9790
" />
<path d="M24.7047 24.9790
L24.8256 25.0395
" />
<path d="M24.8256 25.0395
L24.8861 25.1000
" />
<path d="M24.8861 25.1000
L24.9466 25.2209
" />
<path d="M24.9466 25.2209
L24.9466 25.3419
" />
<path d="M24.9466 25.3419
L24.8861 25.4628
" />
<path d="M24.8861 25.4628
L24.8256 25.5233
" />
<path d="M24.8256 25.5233
L24.7047 25.5838
" />
<path d="M24.7047 25.5838
L24.2813 25.5838
" />
</g></g>
<g style="fill:none; 
stroke:#A90000; stroke-width:0.1524; stroke-opacity:1; 
stroke-linecap:round; stroke-linejoin:round;">
<text x="27.1272" y="25.4155"
textLength="1.4127" font-size="1.6933" lengthAdjust="spacingAndGlyphs"
text-anchor="middle" opacity="0" stroke-opacity="0">5</text>
<g class="stroked-text"><desc>5</desc>
<path d="M27.4296 23.9820
L26.8248 23.9820
" />
<path d="M26.8248 23.9820
L26.7644 24.5868
" />
<path d="M26.7644 24.5868
L26.8248 24.5263
" />
<path d="M26.8248 24.5263
L26.9458 24.4658
" />
<path d="M26.9458 24.4658
L27.2482 24.4658
" />
<path d="M27.2482 24.4658
L27.3691 24.5263
" />
<path d="M27.3691 24.5263
L27.4296 24.5868
" />
<path d="M27.4296 24.5868
L27.4901 24.7077
" />
<path d="M27.4901 24.7077
L27.4901 25.0101
" />
<path d="M27.4901 25.0101
L27.4296 25.1311
" />
<path d="M27.4296 25.1311
L27.3691 25.1916
" />
<path d="M27.3691 25.1916
L27.2482 25.2520
" />
<path d="M27.2482 25.2520
L26.9458 25.2520
" />
<path d="M26.9458 25.2520
L26.8248 25.1916
" />
<path d="M26.8248 25.1916
L26.7644 25.1311
" />
</g></g>
<g style="fill:none; 
stroke:#840000; stroke-width:0.1524; stroke-opacity:1; 
stroke-linecap:round; stroke-linejoin:round;">
<path d="M25.8572 18.0495
L28.3972 18.0495
" />
</g>
<g style="fill:none; 
stroke:#006464; stroke-width:0.1524; stroke-opacity:1; 
stroke-linecap:round; stroke-linejoin:round;">
<text x="25.3492" y="18.6845"
textLength="2.9246" font-size="1.6933" lengthAdjust="spacingAndGlyphs"
text-anchor="end" opacity="0" stroke-opacity="0">WB</text>
<g class="stroked-text"><desc>WB</desc>
<path d="M22.7090 17.3590
L23.0114 18.6290
" />
<path d="M23.0114 18.6290
L23.2533 17.7219
" />
<path d="M23.2533 17.7219
L23.4952 18.6290
" />
<path d="M23.4952 18.6290
L23.7976 17.3590
" />
<path d="M24.7047 17.9638
L24.8861 18.0243
" />
<path d="M24.8861 18.0243
L24.9466 18.0847
" />
<path d="M24.9466 18.0847
L25.0070 18.2057
" />
<path d="M25.0070 18.2057
L25.0070 18.3871
" />
<path d="M25.0070 18.3871
L24.9466 18.5081
" />
<path d="M24.9466 18.5081
L24.8861 18.5686
" />
<path d="M24.8861 18.5686
L24.7651 18.6290
" />
<path d="M24.7651 18.6290
L24.2813 18.6290
" />
<path d="M24.2813 18.6290
L24.2813 17.3590
" />
<path d="M24.2813 17.3590
L24.7047 17.3590
" />
<path d="M24.7047 17.3590
L24.8256 17.4195
" />
<path d="M24.8256 17.4195
L24.8861 17.4800
" />
<path d="M24.8861 17.4800
L24.9466 17.6009
" />
<path d="M24.9466 17.6009
L24.9466 17.7219
" />
<path d="M24.9466 17.7219
L24.8861 17.8428
" />
<path d="M24.8861 17.8428
L24.8256 17.9033
" />
<path d="M24.8256 17.9033
L24.7047 17.9638
" />
<path d="M24.7047 17.9638
L24.2813 17.9638
" />
</g></g>
<g style="fill:none; 
stroke:#A90000; stroke-width:0.1524; stroke-opacity:1; 
stroke-linecap:round; stroke-linejoin:round;">
<text x="27.1272" y="17.7955"
textLength="1.4127" font-size="1.6933" lengthAdjust="spacingAndGlyphs"
text-anchor="middle" opacity="0" stroke-opacity="0">6</text>
<g class="stroked-text"><desc>6</desc>
<path d="M27.3691 16.3620
L27.1272 16.3620
" />
<path d="M27.1272 16.3620
L27.0063 16.4225
" />
<path d="M27.0063 16.4225
L26.9458 16.4830
" />
<path d="M26.9458 16.4830
L26.8248 16.6644
" />
<path d="M26.8248 16.6644
L26.7644 16.9063
" />
<path d="M26.7644 16.9063
L26.7644 17.3901
" />
<path d="M26.7644 17.3901
L26.8248 17.5111
" />
<path d="M26.8248 17.5111
L26.8853 17.5716
" />
<path d="M26.8853 17.5716
L27.0063 17.6320
" />
<path d="M27.0063 17.6320
L27.2482 17.6320
" />
<path d="M27.2482 17.6320
L27.3691 17.5716
" />
<path d="M27.3691 17.5716
L27.4296 17.5111
" />
<path d="M27.4296 17.5111
L27.4901 17.3901
" />
<path d="M27.4901 17.3901
L27.4901 17.0877
" />
<path d="M27.4901 17.0877
L27.4296 16.9668
" />
<path d="M27.4296 16.9668
L27.3691 16.9063
" />
<path d="M27.3691 16.9063
L27.2482 16.8458
" />
<path d="M27.2482 16.8458
L27.0063 16.8458
" />
<path d="M27.0063 16.8458
L26.8853 16.9063
" />
<path d="M26.8853 16.9063
L26.8248 16.9668
" />
<path d="M26.8248 16.9668
L26.7644 17.0877
" />
</g></g>
<g style="fill:none; 
stroke:#840000; stroke-width:0.1524; stroke-opacity:1; 
stroke-linecap:round; stroke-linejoin:round;">
<path d="M5.5372 28.2095
L2.9972 28.2095
" />
</g>
<g style="fill:none; 
stroke:#006464; stroke-width:0.1524; stroke-opacity:1; 
stroke-linecap:round; stroke-linejoin:round;">
<text x="6.0452" y="28.8445"
textLength="2.5013" font-size="1.6933" lengthAdjust="spacingAndGlyphs"
text-anchor="start" opacity="0" stroke-opacity="0">A2</text>
<g class="stroked-text"><desc>A2</desc>
<path d="M6.3873 28.4262
L6.9920 28.4262
" />
<path d="M6.2663 28.7890
L6.6896 27.5190
" />
<path d="M6.6896 27.5190
L7.1130 28.7890
" />
<path d="M7.4759 27.6400
L7.5363 27.5795
" />
<path d="M7.5363 27.5795
L7.6573 27.5190
" />
<path d="M7.6573 27.5190
L7.9597 27.5190
" />
<path d="M7.9597 27.5190
L8.0806 27.5795
" />
<path d="M8.0806 27.5795
L8.1411 27.6400
" />
<path d="M8.1411 27.6400
L8.2016 27.7609
" />
<path d="M8.2016 27.7609
L8.2016 27.8819
" />
<path d="M8.2016 27.8819
L8.1411 28.0633
" />
<path d="M8.1411 28.0633
L7.4154 28.7890
" />
<path d="M7.4154 28.7890
L8.2016 28.7890
" />
</g></g>
<g style="fill:none; 
stroke:#A90000; stroke-width:0.1524; stroke-opacity:1; 
stroke-linecap:round; stroke-linejoin:round;">
<text x="4.2672" y="27.9555"
textLength="1.4127" font-size="1.6933" lengthAdjust="spacingAndGlyphs"
text-anchor="middle" opacity="0" stroke-opacity="0">7</text>
<g class="stroked-text"><desc>7</desc>
<path d="M3.8439 26.5220
L4.6905 26.5220
" />
<path d="M4.6905 26.5220
L4.1463 27.7920
" />
</g></g>
<g style="fill:none; 
stroke:#840000; stroke-width:0.1524; stroke-opacity:1; 
stroke-linecap:round; stroke-linejoin:round;">
<path d="M15.6972 30.7495
L15.6972 33.2895
" />
</g>
<g style="fill:none; 
stroke:#006464; stroke-width:0.1524; stroke-opacity:1; 
stroke-linecap:round; stroke-linejoin:round;">
<g transform="rotate(-90.000000 15.6972 30.2415)">
<text x="15.6972" y="30.8765"
textLength="3.7108" font-size="1.6933" lengthAdjust="spacingAndGlyphs"
text-anchor="start" opacity="0" stroke-opacity="0">VSS</text>
</g>
<g class="stroked-text"><desc>VSS</desc>
<path d="M15.0067 30.0203
L16.2767 29.5970
" />
<path d="M16.2767 29.5970
L15.0067 29.1736
" />
<path d="M16.2163 28.8107
L16.2767 28.6293
" />
<path d="M16.2767 28.6293
L16.2767 28.3269
" />
<path d="M16.2767 28.3269
L16.2163 28.2060
" />
<path d="M16.2163 28.2060
L16.1558 28.1455
" />
<path d="M16.1558 28.1455
L16.0348 28.0850
" />
<path d="M16.0348 28.0850
L15.9139 28.0850
" />
<path d="M15.9139 28.0850
L15.7929 28.1455
" />
<path d="M15.7929 28.1455
L15.7324 28.2060
" />
<path d="M15.7324 28.2060
L15.6720 28.3269
" />
<path d="M15.6720 28.3269
L15.6115 28.5688
" />
<path d="M15.6115 28.5688
L15.5510 28.6898
" />
<path d="M15.5510 28.6898
L15.4905 28.7503
" />
<path d="M15.4905 28.7503
L15.3696 28.8107
" />
<path d="M15.3696 28.8107
L15.2486 28.8107
" />
<path d="M15.2486 28.8107
L15.1277 28.7503
" />
<path d="M15.1277 28.7503
L15.0672 28.6898
" />
<path d="M15.0672 28.6898
L15.0067 28.5688
" />
<path d="M15.0067 28.5688
L15.0067 28.2665
" />
<path d="M15.0067 28.2665
L15.0672 28.0850
" />
<path d="M16.2163 27.6012
L16.2767 27.4198
" />
<path d="M16.2767 27.4198
L16.2767 27.1174
" />
<path d="M16.2767 27.1174
L16.2163 26.9965
" />
<path d="M16.2163 26.9965
L16.1558 26.9360
" />
<path d="M16.1558 26.9360
L16.0348 26.8755
" />
<path d="M16.0348 26.8755
L15.9139 26.8755
" />
<path d="M15.9139 26.8755
L15.7929 26.9360
" />
<path d="M15.7929 26.9360
L15.7324 26.9965
" />
<path d="M15.7324 26.9965
L15.6720 27.1174
" />
<path d="M15.6720 27.1174
L15.6115 27.3593
" />
<path d="M15.6115 27.3593
L15.5510 27.4803
" />
<path d="M15.5510 27.4803
L15.4905 27.5408
" />
<path d="M15.4905 27.5408
L15.3696 27.6012
" />
<path d="M15.3696 27.6012
L15.2486 27.6012
" />
<path d="M15.2486 27.6012
L15.1277 27.5408
" />
<path d="M15.1277 27.5408
L15.0672 27.4803
" />
<path d="M15.0672 27.4803
L15.0067 27.3593
" />
<path d="M15.0067 27.3593
L15.0067 27.0570
" />
<path d="M15.0067 27.0570
L15.0672 26.8755
" />
</g></g>
<g style="fill:none; 
stroke:#A90000; stroke-width:0.1524; stroke-opacity:1; 
stroke-linecap:round; stroke-linejoin:round;">
<g transform="rotate(-90.000000 15.4432 32.0195)">
<text x="15.4432" y="32.0195"
textLength="1.4127" font-size="1.6933" lengthAdjust="spacingAndGlyphs"
text-anchor="middle" opacity="0" stroke-opacity="0">8</text>
</g>
<g class="stroked-text"><desc>8</desc>
<path d="M14.5540 32.1403
L14.4935 32.2613
" />
<path d="M14.4935 32.2613
L14.4331 32.3218
" />
<path d="M14.4331 32.3218
L14.3121 32.3822
" />
<path d="M14.3121 32.3822
L14.2516 32.3822
" />
<path d="M14.2516 32.3822
L14.1307 32.3218
" />
<path d="M14.1307 32.3218
L14.0702 32.2613
" />
<path d="M14.0702 32.2613
L14.0097 32.1403
" />
<path d="M14.0097 32.1403
L14.0097 31.8984
" />
<path d="M14.0097 31.8984
L14.0702 31.7775
" />
<path d="M14.0702 31.7775
L14.1307 31.7170
" />
<path d="M14.1307 31.7170
L14.2516 31.6565
" />
<path d="M14.2516 31.6565
L14.3121 31.6565
" />
<path d="M14.3121 31.6565
L14.4331 31.7170
" />
<path d="M14.4331 31.7170
L14.4935 31.7775
" />
<path d="M14.4935 31.7775
L14.5540 31.8984
" />
<path d="M14.5540 31.8984
L14.5540 32.1403
" />
<path d="M14.5540 32.1403
L14.6145 32.2613
" />
<path d="M14.6145 32.2613
L14.6750 32.3218
" />
<path d="M14.6750 32.3218
L14.7959 32.3822
" />
<path d="M14.7959 32.3822
L15.0378 32.3822
" />
<path d="M15.0378 32.3822
L15.1588 32.3218
" />
<path d="M15.1588 32.3218
L15.2193 32.2613
" />
<path d="M15.2193 32.2613
L15.2797 32.1403
" />
<path d="M15.2797 32.1403
L15.2797 31.8984
" />
<path d="M15.2797 31.8984
L15.2193 31.7775
" />
<path d="M15.2193 31.7775
L15.1588 31.7170
" />
<path d="M15.1588 31.7170
L15.0378 31.6565
" />
<path d="M15.0378 31.6565
L14.7959 31.6565
" />
<path d="M14.7959 31.6565
L14.6750 31.7170
" />
<path d="M14.6750 31.7170
L14.6145 31.7775
" />
<path d="M14.6145 31.7775
L14.5540 31.8984
" />
</g></g>
<g style="fill:none; 
stroke:#840000; stroke-width:0.1524; stroke-opacity:1; 
stroke-linecap:round; stroke-linejoin:round;">
<path d="M5.5372 15.5095
L2.9972 15.5095
" />
</g>
<g style="fill:none; 
stroke:#006464; stroke-width:0.1524; stroke-opacity:1; 
stroke-linecap:round; stroke-linejoin:round;">
<text x="6.0452" y="16.1445"
textLength="3.7713" font-size="1.6933" lengthAdjust="spacingAndGlyphs"
text-anchor="start" opacity="0" stroke-opacity="0">SDA</text>
<g class="stroked-text"><desc>SDA</desc>
<path d="M6.3873 16.0286
L6.5687 16.0890
" />
<path d="M6.5687 16.0890
L6.8711 16.0890
" />
<path d="M6.8711 16.0890
L6.9920 16.0286
" />
<path d="M6.9920 16.0286
L7.0525 15.9681
" />
<path d="M7.0525 15.9681
L7.1130 15.8471
" />
<path d="M7.1130 15.8471
L7.1130 15.7262
" />
<path d="M7.1130 15.7262
L7.0525 15.6052
" />
<path d="M7.0525 15.6052
L6.9920 15.5447
" />
<path d="M6.9920 15.5447
L6.8711 15.4843
" />
<path d="M6.8711 15.4843
L6.6292 15.4238
" />
<path d="M6.6292 15.4238
L6.5082 15.3633
" />
<path d="M6.5082 15.3633
L6.4477 15.3028
" />
<path d="M6.4477 15.3028
L6.3873 15.1819
" />
<path d="M6.3873 15.1819
L6.3873 15.0609
" />
<path d="M6.3873 15.0609
L6.4477 14.9400
" />
<path d="M6.4477 14.9400
L6.5082 14.8795
" />
<path d="M6.5082 14.8795
L6.6292 14.8190
" />
<path d="M6.6292 14.8190
L6.9315 14.8190
" />
<path d="M6.9315 14.8190
L7.1130 14.8795
" />
<path d="M7.6572 16.0890
L7.6572 14.8190
" />
<path d="M7.6572 14.8190
L7.9596 14.8190
" />
<path d="M7.9596 14.8190
L8.1410 14.8795
" />
<path d="M8.1410 14.8795
L8.2620 15.0005
" />
<path d="M8.2620 15.0005
L8.3225 15.1214
" />
<path d="M8.3225 15.1214
L8.3829 15.3633
" />
<path d="M8.3829 15.3633
L8.3829 15.5447
" />
<path d="M8.3829 15.5447
L8.3225 15.7866
" />
<path d="M8.3225 15.7866
L8.2620 15.9076
" />
<path d="M8.2620 15.9076
L8.1410 16.0286
" />
<path d="M8.1410 16.0286
L7.9596 16.0890
" />
<path d="M7.9596 16.0890
L7.6572 16.0890
" />
<path d="M8.8668 15.7262
L9.4715 15.7262
" />
<path d="M8.7458 16.0890
L9.1691 14.8190
" />
<path d="M9.1691 14.8190
L9.5925 16.0890
" />
</g></g>
<g style="fill:none; 
stroke:#A90000; stroke-width:0.1524; stroke-opacity:1; 
stroke-linecap:round; stroke-linejoin:round;">
<text x="4.2672" y="15.2555"
textLength="1.4127" font-size="1.6933" lengthAdjust="spacingAndGlyphs"
text-anchor="middle" opacity="0" stroke-opacity="0">9</text>
<g class="stroked-text"><desc>9</desc>
<path d="M4.0253 15.0920
L4.2672 15.0920
" />
<path d="M4.2672 15.0920
L4.3882 15.0316
" />
<path d="M4.3882 15.0316
L4.4486 14.9711
" />
<path d="M4.4486 14.9711
L4.5696 14.7896
" />
<path d="M4.5696 14.7896
L4.6301 14.5477
" />
<path d="M4.6301 14.5477
L4.6301 14.0639
" />
<path d="M4.6301 14.0639
L4.5696 13.9430
" />
<path d="M4.5696 13.9430
L4.5091 13.8825
" />
<path d="M4.5091 13.8825
L4.3882 13.8220
" />
<path d="M4.3882 13.8220
L4.1463 13.8220
" />
<path d="M4.1463 13.8220
L4.0253 13.8825
" />
<path d="M4.0253 13.8825
L3.9648 13.9430
" />
<path d="M3.9648 13.9430
L3.9044 14.0639
" />
<path d="M3.9044 14.0639
L3.9044 14.3663
" />
<path d="M3.9044 14.3663
L3.9648 14.4873
" />
<path d="M3.9648 14.4873
L4.0253 14.5477
" />
<path d="M4.0253 14.5477
L4.1463 14.6082
" />
<path d="M4.1463 14.6082
L4.3882 14.6082
" />
<path d="M4.3882 14.6082
L4.5091 14.5477
" />
<path d="M4.5091 14.5477
L4.5696 14.4873
" />
<path d="M4.5696 14.4873
L4.6301 14.3663
" />
</g></g>
<g style="fill:none; 
stroke:#840000; stroke-width:0.1524; stroke-opacity:1; 
stroke-linecap:round; stroke-linejoin:round;">
<path d="M5.5372 18.0495
L2.9972 18.0495
" />
</g>
<g style="fill:none; 
stroke:#006464; stroke-width:0.1524; stroke-opacity:1; 
stroke-linecap:round; stroke-linejoin:round;">
<text x="6.0452" y="18.6845"
textLength="3.7108" font-size="1.6933" lengthAdjust="spacingAndGlyphs"
text-anchor="start" opacity="0" stroke-opacity="0">SCL</text>
<g class="stroked-text"><desc>SCL</desc>
<path d="M6.3873 18.5686
L6.5687 18.6290
" />
<path d="M6.5687 18.6290
L6.8711 18.6290
" />
<path d="M6.8711 18.6290
L6.9920 18.5686
" />
<path d="M6.9920 18.5686
L7.0525 18.5081
" />
<path d="M7.0525 18.5081
L7.1130 18.3871
" />
<path d="M7.1130 18.3871
L7.1130 18.2662
" />
<path d="M7.1130 18.2662
L7.0525 18.1452
" />
<path d="M7.0525 18.1452
L6.9920 18.0847
" />
<path d="M6.9920 18.0847
L6.8711 18.0243
" />
<path d="M6.8711 18.0243
L6.6292 17.9638
" />
<path d="M6.6292 17.9638
L6.5082 17.9033
" />
<path d="M6.5082 17.9033
L6.4477 17.8428
" />
<path d="M6.4477 17.8428
L6.3873 17.7219
" />
<path d="M6.3873 17.7219
L6.3873 17.6009
" />
<path d="M6.3873 17.6009
L6.4477 17.4800
" />
<path d="M6.4477 17.4800
L6.5082 17.4195
" />
<path d="M6.5082 17.4195
L6.6292 17.3590
" />
<path d="M6.6292 17.3590
L6.9315 17.3590
" />
<path d="M6.9315 17.3590
L7.1130 17.4195
" />
<path d="M8.3829 18.5081
L8.3225 18.5686
" />
<path d="M8.3225 18.5686
L8.1410 18.6290
" />
<path d="M8.1410 18.6290
L8.0201 18.6290
" />
<path d="M8.0201 18.6290
L7.8387 18.5686
" />
<path d="M7.8387 18.5686
L7.7177 18.4476
" />
<path d="M7.7177 18.4476
L7.6572 18.3266
" />
<path d="M7.6572 18.3266
L7.5968 18.0847
" />
<path d="M7.5968 18.0847
L7.5968 17.9033
" />
<path d="M7.5968 17.9033
L7.6572 17.6614
" />
<path d="M7.6572 17.6614
L7.7177 17.5405
" />
<path d="M7.7177 17.5405
L7.8387 17.4195
" />
<path d="M7.8387 17.4195
L8.0201 17.3590
" />
<path d="M8.0201 17.3590
L8.1410 17.3590
" />
<path d="M8.1410 17.3590
L8.3225 17.4195
" />
<path d="M8.3225 17.4195
L8.3829 17.4800
" />
<path d="M9.5320 18.6290
L8.9272 18.6290
" />
<path d="M8.9272 18.6290
L8.9272 17.3590
" />
</g></g>
<g style="fill:none; 
stroke:#A90000; stroke-width:0.1524; stroke-opacity:1; 
stroke-linecap:round; stroke-linejoin:round;">
<text x="4.2672" y="17.7955"
textLength="2.6222" font-size="1.6933" lengthAdjust="spacingAndGlyphs"
text-anchor="middle" opacity="0" stroke-opacity="0">10</text>
<g class="stroked-text"><desc>10</desc>
<path d="M4.0253 17.6320
L3.2996 17.6320
" />
<path d="M3.6624 17.6320
L3.6624 16.3620
" />
<path d="M3.6624 16.3620
L3.5415 16.5435
" />
<path d="M3.5415 16.5435
L3.4205 16.6644
" />
<path d="M3.4205 16.6644
L3.2996 16.7249
" />
<path d="M4.8114 16.3620
L4.9324 16.3620
" />
<path d="M4.9324 16.3620
L5.0533 16.4225
" />
<path d="M5.0533 16.4225
L5.1138 16.4830
" />
<path d="M5.1138 16.4830
L5.1743 16.6039
" />
<path d="M5.1743 16.6039
L5.2348 16.8458
" />
<path d="M5.2348 16.8458
L5.2348 17.1482
" />
<path d="M5.2348 17.1482
L5.1743 17.3901
" />
<path d="M5.1743 17.3901
L5.1138 17.5111
" />
<path d="M5.1138 17.5111
L5.0533 17.5716
" />
<path d="M5.0533 17.5716
L4.9324 17.6320
" />
<path d="M4.9324 17.6320
L4.8114 17.6320
" />
<path d="M4.8114 17.6320
L4.6905 17.5716
" />
<path d="M4.6905 17.5716
L4.6300 17.5111
" />
<path d="M4.6300 17.5111
L4.5695 17.3901
" />
<path d="M4.5695 17.3901
L4.5091 17.1482
" />
<path d="M4.5091 17.1482
L4.5091 16.8458
" />
<path d="M4.5091 16.8458
L4.5695 16.6039
" />
<path d="M4.5695 16.6039
L4.6300 16.4830
" />
<path d="M4.6300 16.4830
L4.6905 16.4225
" />
<path d="M4.6905 16.4225
L4.8114 16.3620
" />
</g></g>
<g style="fill:none; 
stroke:#840000; stroke-width:0.1524; stroke-opacity:1; 
stroke-linecap:round; stroke-linejoin:round;">
<path d="M18.2372 30.7495
L18.2372 33.2895
" />
</g>
<g style="fill:none; 
stroke:#006464; stroke-width:0.1524; stroke-opacity:1; 
stroke-linecap:round; stroke-linejoin:round;">
<g transform="rotate(-90.000000 18.2372 30.2415)">
<text x="18.2372" y="30.8765"
textLength="4.0737" font-size="1.6933" lengthAdjust="spacingAndGlyphs"
text-anchor="start" opacity="0" stroke-opacity="0">GND</text>
</g>
<g class="stroked-text"><desc>GND</desc>
<path d="M17.6072 29.1736
L17.5467 29.2946
" />
<path d="M17.5467 29.2946
L17.5467 29.4760
" />
<path d="M17.5467 29.4760
L17.6072 29.6574
" />
<path d="M17.6072 29.6574
L17.7282 29.7784
" />
<path d="M17.7282 29.7784
L17.8491 29.8389
" />
<path d="M17.8491 29.8389
L18.0910 29.8993
" />
<path d="M18.0910 29.8993
L18.2724 29.8993
" />
<path d="M18.2724 29.8993
L18.5143 29.8389
" />
<path d="M18.5143 29.8389
L18.6353 29.7784
" />
<path d="M18.6353 29.7784
L18.7563 29.6574
" />
<path d="M18.7563 29.6574
L18.8167 29.4760
" />
<path d="M18.8167 29.4760
L18.8167 29.3551
" />
<path d="M18.8167 29.3551
L18.7563 29.1736
" />
<path d="M18.7563 29.1736
L18.6958 29.1132
" />
<path d="M18.6958 29.1132
L18.2724 29.1132
" />
<path d="M18.2724 29.1132
L18.2724 29.3551
" />
<path d="M18.8167 28.5689
L17.5467 28.5689
" />
<path d="M17.5467 28.5689
L18.8167 27.8432
" />
<path d="M18.8167 27.8432
L17.5467 27.8432
" />
<path d="M18.8167 27.2384
L17.5467 27.2384
" />
<path d="M17.5467 27.2384
L17.5467 26.9360
" />
<path d="M17.5467 26.9360
L17.6072 26.7546
" />
<path d="M17.6072 26.7546
L17.7282 26.6336
" />
<path d="M17.7282 26.6336
L17.8491 26.5731
" />
<path d="M17.8491 26.5731
L18.0910 26.5127
" />
<path d="M18.0910 26.5127
L18.2724 26.5127
" />
<path d="M18.2724 26.5127
L18.5143 26.5731
" />
<path d="M18.5143 26.5731
L18.6353 26.6336
" />
<path d="M18.6353 26.6336
L18.7563 26.7546
" />
<path d="M18.7563 26.7546
L18.8167 26.9360
" />
<path d="M18.8167 26.9360
L18.8167 27.2384
" />
</g></g>
<g style="fill:none; 
stroke:#A90000; stroke-width:0.1524; stroke-opacity:1; 
stroke-linecap:round; stroke-linejoin:round;">
<g transform="rotate(-90.000000 17.9832 32.0195)">
<text x="17.9832" y="32.0195"
textLength="2.6222" font-size="1.6933" lengthAdjust="spacingAndGlyphs"
text-anchor="middle" opacity="0" stroke-opacity="0">11</text>
</g>
<g class="stroked-text"><desc>11</desc>
<path d="M17.8197 32.2613
L17.8197 32.9870
" />
<path d="M17.8197 32.6242
L16.5497 32.6242
" />
<path d="M16.5497 32.6242
L16.7312 32.7451
" />
<path d="M16.7312 32.7451
L16.8521 32.8661
" />
<path d="M16.8521 32.8661
L16.9126 32.9870
" />
<path d="M17.8197 31.0518
L17.8197 31.7775
" />
<path d="M17.8197 31.4147
L16.5497 31.4147
" />
<path d="M16.5497 31.4147
L16.7312 31.5356
" />
<path d="M16.7312 31.5356
L16.8521 31.6566
" />
<path d="M16.8521 31.6566
L16.9126 31.7775
" />
</g></g>
<g style="fill:none; 
stroke:#840000; stroke-width:0.1524; stroke-opacity:1; 
stroke-linecap:round; stroke-linejoin:round;">
<path d="M5.5372 25.6695
L2.9972 25.6695
" />
</g>
<g style="fill:none; 
stroke:#006464; stroke-width:0.1524; stroke-opacity:1; 
stroke-linecap:round; stroke-linejoin:round;">
<text x="6.0452" y="26.3045"
textLength="2.5013" font-size="1.6933" lengthAdjust="spacingAndGlyphs"
text-anchor="start" opacity="0" stroke-opacity="0">A1</text>
<g class="stroked-text"><desc>A1</desc>
<path d="M6.3873 25.8862
L6.9920 25.8862
" />
<path d="M6.2663 26.2490
L6.6896 24.9790
" />
<path d="M6.6896 24.9790
L7.1130 26.2490
" />
<path d="M8.2016 26.2490
L7.4759 26.2490
" />
<path d="M7.8387 26.2490
L7.8387 24.9790
" />
<path d="M7.8387 24.9790
L7.7178 25.1605
" />
<path d="M7.7178 25.1605
L7.5968 25.2814
" />
<path d="M7.5968 25.2814
L7.4759 25.3419
" />
</g></g>
<g style="fill:none; 
stroke:#A90000; stroke-width:0.1524; stroke-opacity:1; 
stroke-linecap:round; stroke-linejoin:round;">
<text x="4.2672" y="25.4155"
textLength="2.6222" font-size="1.6933" lengthAdjust="spacingAndGlyphs"
text-anchor="middle" opacity="0" stroke-opacity="0">12</text>
<g class="stroked-text"><desc>12</desc>
<path d="M4.0253 25.2520
L3.2996 25.2520
" />
<path d="M3.6624 25.2520
L3.6624 23.9820
" />
<path d="M3.6624 23.9820
L3.5415 24.1635
" />
<path d="M3.5415 24.1635
L3.4205 24.2844
" />
<path d="M3.4205 24.2844
L3.2996 24.3449
" />
<path d="M4.5091 24.1030
L4.5695 24.0425
" />
<path d="M4.5695 24.0425
L4.6905 23.9820
" />
<path d="M4.6905 23.9820
L4.9929 23.9820
" />
<path d="M4.9929 23.9820
L5.1138 24.0425
" />
<path d="M5.1138 24.0425
L5.1743 24.1030
" />
<path d="M5.1743 24.1030
L5.2348 24.2239
" />
<path d="M5.2348 24.2239
L5.2348 24.3449
" />
<path d="M5.2348 24.3449
L5.1743 24.5263
" />
<path d="M5.1743 24.5263
L4.4486 25.2520
" />
<path d="M4.4486 25.2520
L5.2348 25.2520
" />
</g></g>
<g style="fill:none; 
stroke:#840000; stroke-width:0.1524; stroke-opacity:1; 
stroke-linecap:round; stroke-linejoin:round;">
<path d="M5.5372 23.1295
L2.9972 23.1295
" />
</g>
<g style="fill:none; 
stroke:#006464; stroke-width:0.1524; stroke-opacity:1; 
stroke-linecap:round; stroke-linejoin:round;">
<text x="6.0452" y="23.7645"
textLength="2.5013" font-size="1.6933" lengthAdjust="spacingAndGlyphs"
text-anchor="start" opacity="0" stroke-opacity="0">A0</text>
<g class="stroked-text"><desc>A0</desc>
<path d="M6.3873 23.3462
L6.9920 23.3462
" />
<path d="M6.2663 23.7090
L6.6896 22.4390
" />
<path d="M6.6896 22.4390
L7.1130 23.7090
" />
<path d="M7.7782 22.4390
L7.8992 22.4390
" />
<path d="M7.8992 22.4390
L8.0201 22.4995
" />
<path d="M8.0201 22.4995
L8.0806 22.5600
" />
<path d="M8.0806 22.5600
L8.1411 22.6809
" />
<path d="M8.1411 22.6809
L8.2016 22.9228
" />
<path d="M8.2016 22.9228
L8.2016 23.2252
" />
<path d="M8.2016 23.2252
L8.1411 23.4671
" />
<path d="M8.1411 23.4671
L8.0806 23.5881
" />
<path d="M8.0806 23.5881
L8.0201 23.6486
" />
<path d="M8.0201 23.6486
L7.8992 23.7090
" />
<path d="M7.8992 23.7090
L7.7782 23.7090
" />
<path d="M7.7782 23.7090
L7.6573 23.6486
" />
<path d="M7.6573 23.6486
L7.5968 23.5881
" />
<path d="M7.5968 23.5881
L7.5363 23.4671
" />
<path d="M7.5363 23.4671
L7.4759 23.2252
" />
<path d="M7.4759 23.2252
L7.4759 22.9228
" />
<path d="M7.4759 22.9228
L7.5363 22.6809
" />
<path d="M7.5363 22.6809
L7.5968 22.5600
" />
<path d="M7.5968 22.5600
L7.6573 22.4995
" />
<path d="M7.6573 22.4995
L7.7782 22.4390
" />
</g></g>
<g style="fill:none; 
stroke:#A90000; stroke-width:0.1524; stroke-opacity:1; 
stroke-linecap:round; stroke-linejoin:round;">
<text x="4.2672" y="22.8755"
textLength="2.6222" font-size="1.6933" lengthAdjust="spacingAndGlyphs"
text-anchor="middle" opacity="0" stroke-opacity="0">13</text>
<g class="stroked-text"><desc>13</desc>
<path d="M4.0253 22.7120
L3.2996 22.7120
" />
<path d="M3.6624 22.7120
L3.6624 21.4420
" />
<path d="M3.6624 21.4420
L3.5415 21.6235
" />
<path d="M3.5415 21.6235
L3.4205 21.7444
" />
<path d="M3.4205 21.7444
L3.2996 21.8049
" />
<path d="M4.4486 21.4420
L5.2348 21.4420
" />
<path d="M5.2348 21.4420
L4.8114 21.9258
" />
<path d="M4.8114 21.9258
L4.9929 21.9258
" />
<path d="M4.9929 21.9258
L5.1138 21.9863
" />
<path d="M5.1138 21.9863
L5.1743 22.0468
" />
<path d="M5.1743 22.0468
L5.2348 22.1677
" />
<path d="M5.2348 22.1677
L5.2348 22.4701
" />
<path d="M5.2348 22.4701
L5.1743 22.5911
" />
<path d="M5.1743 22.5911
L5.1138 22.6516
" />
<path d="M5.1138 22.6516
L4.9929 22.7120
" />
<path d="M4.9929 22.7120
L4.6300 22.7120
" />
<path d="M4.6300 22.7120
L4.5091 22.6516
" />
<path d="M4.5091 22.6516
L4.4486 22.5911
" />
</g></g>
<g style="fill:none; 
stroke:#840000; stroke-width:0.1524; stroke-opacity:1; 
stroke-linecap:round; stroke-linejoin:round;">
<path d="M5.5372 7.8895
L2.9972 7.8895
" />
</g>
<g style="fill:none; 
stroke:#006464; stroke-width:0.1524; stroke-opacity:1; 
stroke-linecap:round; stroke-linejoin:round;">
<text x="6.0452" y="8.5245"
textLength="3.8318" font-size="1.6933" lengthAdjust="spacingAndGlyphs"
text-anchor="start" opacity="0" stroke-opacity="0">VDD</text>
<g class="stroked-text"><desc>VDD</desc>
<path d="M6.2663 7.1990
L6.6896 8.4690
" />
<path d="M6.6896 8.4690
L7.1130 7.1990
" />
<path d="M7.5363 8.4690
L7.5363 7.1990
" />
<path d="M7.5363 7.1990
L7.8387 7.1990
" />
<path d="M7.8387 7.1990
L8.0201 7.2595
" />
<path d="M8.0201 7.2595
L8.1411 7.3805
" />
<path d="M8.1411 7.3805
L8.2016 7.5014
" />
<path d="M8.2016 7.5014
L8.2620 7.7433
" />
<path d="M8.2620 7.7433
L8.2620 7.9247
" />
<path d="M8.2620 7.9247
L8.2016 8.1666
" />
<path d="M8.2016 8.1666
L8.1411 8.2876
" />
<path d="M8.1411 8.2876
L8.0201 8.4086
" />
<path d="M8.0201 8.4086
L7.8387 8.4690
" />
<path d="M7.8387 8.4690
L7.5363 8.4690
" />
<path d="M8.8063 8.4690
L8.8063 7.1990
" />
<path d="M8.8063 7.1990
L9.1087 7.1990
" />
<path d="M9.1087 7.1990
L9.2901 7.2595
" />
<path d="M9.2901 7.2595
L9.4111 7.3805
" />
<path d="M9.4111 7.3805
L9.4716 7.5014
" />
<path d="M9.4716 7.5014
L9.5320 7.7433
" />
<path d="M9.5320 7.7433
L9.5320 7.9247
" />
<path d="M9.5320 7.9247
L9.4716 8.1666
" />
<path d="M9.4716 8.1666
L9.4111 8.2876
" />
<path d="M9.4111 8.2876
L9.2901 8.4086
" />
<path d="M9.2901 8.4086
L9.1087 8.4690
" />
<path d="M9.1087 8.4690
L8.8063 8.4690
" />
</g></g>
<g style="fill:none; 
stroke:#A90000; stroke-width:0.1524; stroke-opacity:1; 
stroke-linecap:round; stroke-linejoin:round;">
<text x="4.2672" y="7.6355"
textLength="2.6222" font-size="1.6933" lengthAdjust="spacingAndGlyphs"
text-anchor="middle" opacity="0" stroke-opacity="0">14</text>
<g class="stroked-text"><desc>14</desc>
<path d="M4.0253 7.4720
L3.2996 7.4720
" />
<path d="M3.6624 7.4720
L3.6624 6.2020
" />
<path d="M3.6624 6.2020
L3.5415 6.3835
" />
<path d="M3.5415 6.3835
L3.4205 6.5044
" />
<path d="M3.4205 6.5044
L3.2996 6.5649
" />
<path d="M5.1138 6.6254
L5.1138 7.4720
" />
<path d="M4.8114 6.1416
L4.5091 7.0487
" />
<path d="M4.5091 7.0487
L5.2952 7.0487
" />
</g></g>
<g style="fill:none; 
stroke:#006464; stroke-width:0.1524; stroke-opacity:1; 
stroke-linecap:round; stroke-linejoin:round;">
<text x="6.0452" y="4.7145"
textLength="2.6223" font-size="1.6933" lengthAdjust="spacingAndGlyphs"
text-anchor="middle" opacity="0" stroke-opacity="0">U?</text>
<g class="stroked-text"><desc>U?</desc>
<path d="M5.1380 3.3890
L5.1380 4.4171
" />
<path d="M5.1380 4.4171
L5.1985 4.5381
" />
<path d="M5.1985 4.5381
L5.2590 4.5986
" />
<path d="M5.2590 4.5986
L5.3799 4.6590
" />
<path d="M5.3799 4.6590
L5.6218 4.6590
" />
<path d="M5.6218 4.6590
L5.7428 4.5986
" />
<path d="M5.7428 4.5986
L5.8033 4.5381
" />
<path d="M5.8033 4.5381
L5.8637 4.4171
" />
<path d="M5.8637 4.4171
L5.8637 3.3890
" />
<path d="M6.6500 4.5381
L6.7104 4.5986
" />
<path d="M6.7104 4.5986
L6.6500 4.6590
" />
<path d="M6.6500 4.6590
L6.5895 4.5986
" />
<path d="M6.5895 4.5986
L6.6500 4.5381
" />
<path d="M6.6500 4.5381
L6.6500 4.6590
" />
<path d="M6.4081 3.4495
L6.5290 3.3890
" />
<path d="M6.5290 3.3890
L6.8314 3.3890
" />
<path d="M6.8314 3.3890
L6.9523 3.4495
" />
<path d="M6.9523 3.4495
L7.0128 3.5705
" />
<path d="M7.0128 3.5705
L7.0128 3.6914
" />
<path d="M7.0128 3.6914
L6.9523 3.8124
" />
<path d="M6.9523 3.8124
L6.8919 3.8728
" />
<path d="M6.8919 3.8728
L6.7709 3.9333
" />
<path d="M6.7709 3.9333
L6.7104 3.9938
" />
<path d="M6.7104 3.9938
L6.6500 4.1147
" />
<path d="M6.6500 4.1147
L6.6500 4.1752
" />
</g><text x="21.5392" y="4.9685"
textLength="8.3069" font-size="1.6933" lengthAdjust="spacingAndGlyphs"
text-anchor="middle" opacity="0" stroke-opacity="0">TPL0102</text>
<g class="stroked-text"><desc>TPL0102</desc>
<path d="M17.6083 3.6430
L18.3340 3.6430
" />
<path d="M17.9712 4.9130
L17.9712 3.6430
" />
<path d="M18.7573 4.9130
L18.7573 3.6430
" />
<path d="M18.7573 3.6430
L19.2411 3.6430
" />
<path d="M19.2411 3.6430
L19.3621 3.7035
" />
<path d="M19.3621 3.7035
L19.4226 3.7640
" />
<path d="M19.4226 3.7640
L19.4830 3.8849
" />
<path d="M19.4830 3.8849
L19.4830 4.0664
" />
<path d="M19.4830 4.0664
L19.4226 4.1873
" />
<path d="M19.4226 4.1873
L19.3621 4.2478
" />
<path d="M19.3621 4.2478
L19.2411 4.3083
" />
<path d="M19.2411 4.3083
L18.7573 4.3083
" />
<path d="M20.6321 4.9130
L20.0273 4.9130
" />
<path d="M20.0273 4.9130
L20.0273 3.6430
" />
<path d="M21.2973 3.6430
L21.4183 3.6430
" />
<path d="M21.4183 3.6430
L21.5392 3.7035
" />
<path d="M21.5392 3.7035
L21.5997 3.7640
" />
<path d="M21.5997 3.7640
L21.6602 3.8849
" />
<path d="M21.6602 3.8849
L21.7207 4.1268
" />
<path d="M21.7207 4.1268
L21.7207 4.4292
" />
<path d="M21.7207 4.4292
L21.6602 4.6711
" />
<path d="M21.6602 4.6711
L21.5997 4.7921
" />
<path d="M21.5997 4.7921
L21.5392 4.8526
" />
<path d="M21.5392 4.8526
L21.4183 4.9130
" />
<path d="M21.4183 4.9130
L21.2973 4.9130
" />
<path d="M21.2973 4.9130
L21.1764 4.8526
" />
<path d="M21.1764 4.8526
L21.1159 4.7921
" />
<path d="M21.1159 4.7921
L21.0554 4.6711
" />
<path d="M21.0554 4.6711
L20.9950 4.4292
" />
<path d="M20.9950 4.4292
L20.9950 4.1268
" />
<path d="M20.9950 4.1268
L21.0554 3.8849
" />
<path d="M21.0554 3.8849
L21.1159 3.7640
" />
<path d="M21.1159 3.7640
L21.1764 3.7035
" />
<path d="M21.1764 3.7035
L21.2973 3.6430
" />
<path d="M22.9302 4.9130
L22.2045 4.9130
" />
<path d="M22.5673 4.9130
L22.5673 3.6430
" />
<path d="M22.5673 3.6430
L22.4464 3.8245
" />
<path d="M22.4464 3.8245
L22.3254 3.9454
" />
<path d="M22.3254 3.9454
L22.2045 4.0059
" />
<path d="M23.7163 3.6430
L23.8373 3.6430
" />
<path d="M23.8373 3.6430
L23.9582 3.7035
" />
<path d="M23.9582 3.7035
L24.0187 3.7640
" />
<path d="M24.0187 3.7640
L24.0792 3.8849
" />
<path d="M24.0792 3.8849
L24.1397 4.1268
" />
<path d="M24.1397 4.1268
L24.1397 4.4292
" />
<path d="M24.1397 4.4292
L24.0792 4.6711
" />
<path d="M24.0792 4.6711
L24.0187 4.7921
" />
<path d="M24.0187 4.7921
L23.9582 4.8526
" />
<path d="M23.9582 4.8526
L23.8373 4.9130
" />
<path d="M23.8373 4.9130
L23.7163 4.9130
" />
<path d="M23.7163 4.9130
L23.5954 4.8526
" />
<path d="M23.5954 4.8526
L23.5349 4.7921
" />
<path d="M23.5349 4.7921
L23.4744 4.6711
" />
<path d="M23.4744 4.6711
L23.4140 4.4292
" />
<path d="M23.4140 4.4292
L23.4140 4.1268
" />
<path d="M23.4140 4.1268
L23.4744 3.8849
" />
<path d="M23.4744 3.8849
L23.5349 3.7640
" />
<path d="M23.5349 3.7640
L23.5954 3.7035
" />
<path d="M23.5954 3.7035
L23.7163 3.6430
" />
<path d="M24.6235 3.7640
L24.6839 3.7035
" />
<path d="M24.6839 3.7035
L24.8049 3.6430
" />
<path d="M24.8049 3.6430
L25.1073 3.6430
" />
<path d="M25.1073 3.6430
L25.2282 3.7035
" />
<path d="M25.2282 3.7035
L25.2887 3.7640
" />
<path d="M25.2887 3.7640
L25.3492 3.8849
" />
<path d="M25.3492 3.8849
L25.3492 4.0059
" />
<path d="M25.3492 4.0059
L25.2887 4.1873
" />
<path d="M25.2887 4.1873
L24.5630 4.9130
" />
<path d="M24.5630 4.9130
L25.3492 4.9130
" />
</g></g> 
</svg>
