<?xml version="1.0" standalone="no"?>
 <!DOCTYPE svg PUBLIC "-//W3C//DTD SVG 1.1//EN" 
 "http://www.w3.org/Graphics/SVG/1.1/DTD/svg11.dtd"> 
<svg
  xmlns:svg="http://www.w3.org/2000/svg"
  xmlns="http://www.w3.org/2000/svg"
  xmlns:xlink="http://www.w3.org/1999/xlink"
  xmlns:inkscape="http://www.inkscape.org/namespaces/inkscape"
  version="1.1"
  width="100%" height="100%" viewBox="0.0000 0.0000 32.8930 36.7284">
<title>SVG Image created as TPL0102_unit1.svg date 2026-04-16T00:47:30 </title>
  <desc>Image generated by Eeschema-SVG </desc>
<g style="fill:#000000; fill-opacity:1.0000;stroke:#000000; stroke-opacity:1.0000;
stroke-linecap:round; stroke-linejoin:round;"
 transform="translate(0 0) scale(1 1)">
</g>
<g style="fill:#FFFFC2; fill-opacity:1.0000; stroke:none;">
<rect x="5.665500" y="5.349500" width="17.780000" height="25.400000" rx="0.000000" />
</g>
<g style="fill:none; 
stroke:#840000; stroke-width:0.1524; stroke-opacity:1; 
stroke-linecap:round; stroke-linejoin:round;">
<rect x="5.665500" y="5.349500" width="17.780000" height="25.400000" rx="0.000000" />
<path d="M23.4455 7.8895
L25.9855 7.8895
" />
</g>
<g style="fill:none; 
stroke:#006464; stroke-width:0.1524; stroke-opacity:1; 
stroke-linecap:round; stroke-linejoin:round;">
<text x="22.4295" y="8.5245"
textLength="2.6223" font-size="1.6933" lengthAdjust="spacingAndGlyphs"
text-anchor="end" opacity="0" stroke-opacity="0">HA</text>
<g class="stroked-text"><desc>HA</desc>
<path d="M20.2125 8.4690
L20.2125 7.1990
" />
<path d="M20.2125 7.8038
L20.9382 7.8038
" />
<path d="M20.9382 8.4690
L20.9382 7.1990
" />
<path d="M21.4826 8.1062
L22.0873 8.1062
" />
<path d="M21.3616 8.4690
L21.7849 7.1990
" />
<path d="M21.7849 7.1990
L22.2083 8.4690
" />
</g></g>
<g style="fill:none; 
stroke:#A90000; stroke-width:0.1524; stroke-opacity:1; 
stroke-linecap:round; stroke-linejoin:round;">
<text x="24.7155" y="7.6355"
textLength="1.4127" font-size="1.6933" lengthAdjust="spacingAndGlyphs"
text-anchor="middle" opacity="0" stroke-opacity="0">1</text>
<g class="stroked-text"><desc>1</desc>
<path d="M25.0784 7.4720
L24.3527 7.4720
" />
<path d="M24.7155 7.4720
L24.7155 6.2020
" />
<path d="M24.7155 6.2020
L24.5946 6.3835
" />
<path d="M24.5946 6.3835
L24.4736 6.5044
" />
<path d="M24.4736 6.5044
L24.3527 6.5649
" />
</g></g>
<g style="fill:none; 
stroke:#840000; stroke-width:0.1524; stroke-opacity:1; 
stroke-linecap:round; stroke-linejoin:round;">
<path d="M23.4455 23.1295
L25.9855 23.1295
" />
</g>
<g style="fill:none; 
stroke:#006464; stroke-width:0.1524; stroke-opacity:1; 
stroke-linecap:round; stroke-linejoin:round;">
<text x="22.4295" y="23.7645"
textLength="2.3199" font-size="1.6933" lengthAdjust="spacingAndGlyphs"
text-anchor="end" opacity="0" stroke-opacity="0">LA</text>
<g class="stroked-text"><desc>LA</desc>
<path d="M21.1197 23.7090
L20.5149 23.7090
" />
<path d="M20.5149 23.7090
L20.5149 22.4390
" />
<path d="M21.4826 23.3462
L22.0873 23.3462
" />
<path d="M21.3616 23.7090
L21.7849 22.4390
" />
<path d="M21.7849 22.4390
L22.2083 23.7090
" />
</g></g>
<g style="fill:none; 
stroke:#A90000; stroke-width:0.1524; stroke-opacity:1; 
stroke-linecap:round; stroke-linejoin:round;">
<text x="24.7155" y="22.8755"
textLength="1.4127" font-size="1.6933" lengthAdjust="spacingAndGlyphs"
text-anchor="middle" opacity="0" stroke-opacity="0">2</text>
<g class="stroked-text"><desc>2</desc>
<path d="M24.3527 21.5630
L24.4131 21.5025
" />
<path d="M24.4131 21.5025
L24.5341 21.4420
" />
<path d="M24.5341 21.4420
L24.8365 21.4420
" />
<path d="M24.8365 21.4420
L24.9574 21.5025
" />
<path d="M24.9574 21.5025
L25.0179 21.5630
" />
<path d="M25.0179 21.5630
L25.0784 21.6839
" />
<path d="M25.0784 21.6839
L25.0784 21.8049
" />
<path d="M25.0784 21.8049
L25.0179 21.9863
" />
<path d="M25.0179 21.9863
L24.2922 22.7120
" />
<path d="M24.2922 22.7120
L25.0784 22.7120
" />
</g></g>
<g style="fill:none; 
stroke:#840000; stroke-width:0.1524; stroke-opacity:1; 
stroke-linecap:round; stroke-linejoin:round;">
<path d="M23.4455 15.5095
L25.9855 15.5095
" />
</g>
<g style="fill:none; 
stroke:#006464; stroke-width:0.1524; stroke-opacity:1; 
stroke-linecap:round; stroke-linejoin:round;">
<text x="22.4295" y="16.1445"
textLength="2.7432" font-size="1.6933" lengthAdjust="spacingAndGlyphs"
text-anchor="end" opacity="0" stroke-opacity="0">WA</text>
<g class="stroked-text"><desc>WA</desc>
<path d="M19.9707 14.8190
L20.2731 16.0890
" />
<path d="M20.2731 16.0890
L20.5150 15.1819
" />
<path d="M20.5150 15.1819
L20.7569 16.0890
" />
<path d="M20.7569 16.0890
L21.0593 14.8190
" />
<path d="M21.4826 15.7262
L22.0873 15.7262
" />
<path d="M21.3616 16.0890
L21.7849 14.8190
" />
<path d="M21.7849 14.8190
L22.2083 16.0890
" />
</g></g>
<g style="fill:none; 
stroke:#A90000; stroke-width:0.1524; stroke-opacity:1; 
stroke-linecap:round; stroke-linejoin:round;">
<text x="24.7155" y="15.2555"
textLength="1.4127" font-size="1.6933" lengthAdjust="spacingAndGlyphs"
text-anchor="middle" opacity="0" stroke-opacity="0">3</text>
<g class="stroked-text"><desc>3</desc>
<path d="M24.2922 13.8220
L25.0784 13.8220
" />
<path d="M25.0784 13.8220
L24.6550 14.3058
" />
<path d="M24.6550 14.3058
L24.8365 14.3058
" />
<path d="M24.8365 14.3058
L24.9574 14.3663
" />
<path d="M24.9574 14.3663
L25.0179 14.4268
" />
<path d="M25.0179 14.4268
L25.0784 14.5477
" />
<path d="M25.0784 14.5477
L25.0784 14.8501
" />
<path d="M25.0784 14.8501
L25.0179 14.9711
" />
<path d="M25.0179 14.9711
L24.9574 15.0316
" />
<path d="M24.9574 15.0316
L24.8365 15.0920
" />
<path d="M24.8365 15.0920
L24.4736 15.0920
" />
<path d="M24.4736 15.0920
L24.3527 15.0316
" />
<path d="M24.3527 15.0316
L24.2922 14.9711
" />
</g></g>
<g style="fill:none; 
stroke:#840000; stroke-width:0.1524; stroke-opacity:1; 
stroke-linecap:round; stroke-linejoin:round;">
<path d="M23.4455 10.4295
L25.9855 10.4295
" />
</g>
<g style="fill:none; 
stroke:#006464; stroke-width:0.1524; stroke-opacity:1; 
stroke-linecap:round; stroke-linejoin:round;">
<text x="22.4295" y="11.0645"
textLength="2.8037" font-size="1.6933" lengthAdjust="spacingAndGlyphs"
text-anchor="end" opacity="0" stroke-opacity="0">HB</text>
<g class="stroked-text"><desc>HB</desc>
<path d="M20.0311 11.0090
L20.0311 9.7390
" />
<path d="M20.0311 10.3438
L20.7568 10.3438
" />
<path d="M20.7568 11.0090
L20.7568 9.7390
" />
<path d="M21.7850 10.3438
L21.9664 10.4043
" />
<path d="M21.9664 10.4043
L22.0269 10.4647
" />
<path d="M22.0269 10.4647
L22.0873 10.5857
" />
<path d="M22.0873 10.5857
L22.0873 10.7671
" />
<path d="M22.0873 10.7671
L22.0269 10.8881
" />
<path d="M22.0269 10.8881
L21.9664 10.9486
" />
<path d="M21.9664 10.9486
L21.8454 11.0090
" />
<path d="M21.8454 11.0090
L21.3616 11.0090
" />
<path d="M21.3616 11.0090
L21.3616 9.7390
" />
<path d="M21.3616 9.7390
L21.7850 9.7390
" />
<path d="M21.7850 9.7390
L21.9059 9.7995
" />
<path d="M21.9059 9.7995
L21.9664 9.8600
" />
<path d="M21.9664 9.8600
L22.0269 9.9809
" />
<path d="M22.0269 9.9809
L22.0269 10.1019
" />
<path d="M22.0269 10.1019
L21.9664 10.2228
" />
<path d="M21.9664 10.2228
L21.9059 10.2833
" />
<path d="M21.9059 10.2833
L21.7850 10.3438
" />
<path d="M21.7850 10.3438
L21.3616 10.3438
" />
</g></g>
<g style="fill:none; 
stroke:#A90000; stroke-width:0.1524; stroke-opacity:1; 
stroke-linecap:round; stroke-linejoin:round;">
<text x="24.7155" y="10.1755"
textLength="1.4127" font-size="1.6933" lengthAdjust="spacingAndGlyphs"
text-anchor="middle" opacity="0" stroke-opacity="0">4</text>
<g class="stroked-text"><desc>4</desc>
<path d="M24.9574 9.1654
L24.9574 10.0120
" />
<path d="M24.6550 8.6816
L24.3527 9.5887
" />
<path d="M24.3527 9.5887
L25.1388 9.5887
" />
</g></g>
<g style="fill:none; 
stroke:#840000; stroke-width:0.1524; stroke-opacity:1; 
stroke-linecap:round; stroke-linejoin:round;">
<path d="M23.4455 25.6695
L25.9855 25.6695
" />
</g>
<g style="fill:none; 
stroke:#006464; stroke-width:0.1524; stroke-opacity:1; 
stroke-linecap:round; stroke-linejoin:round;">
<text x="22.4295" y="26.3045"
textLength="2.5013" font-size="1.6933" lengthAdjust="spacingAndGlyphs"
text-anchor="end" opacity="0" stroke-opacity="0">LB</text>
<g class="stroked-text"><desc>LB</desc>
<path d="M20.9383 26.2490
L20.3335 26.2490
" />
<path d="M20.3335 26.2490
L20.3335 24.9790
" />
<path d="M21.7850 25.5838
L21.9664 25.6443
" />
<path d="M21.9664 25.6443
L22.0269 25.7047
" />
<path d="M22.0269 25.7047
L22.0873 25.8257
" />
<path d="M22.0873 25.8257
L22.0873 26.0071
" />
<path d="M22.0873 26.0071
L22.0269 26.1281
" />
<path d="M22.0269 26.1281
L21.9664 26.1886
" />
<path d="M21.9664 26.1886
L21.8454 26.2490
" />
<path d="M21.8454 26.2490
L21.3616 26.2490
" />
<path d="M21.3616 26.2490
L21.3616 24.9790
" />
<path d="M21.3616 24.9790
L21.7850 24.9790
" />
<path d="M21.7850 24.9790
L21.9059 25.0395
" />
<path d="M21.9059 25.0395
L21.9664 25.1000
" />
<path d="M21.9664 25.1000
L22.0269 25.2209
" />
<path d="M22.0269 25.2209
L22.0269 25.3419
" />
<path d="M22.0269 25.3419
L21.9664 25.4628
" />
<path d="M21.9664 25.4628
L21.9059 25.5233
" />
<path d="M21.9059 25.5233
L21.7850 25.5838
" />
<path d="M21.7850 25.5838
L21.3616 25.5838
" />
</g></g>
<g style="fill:none; 
stroke:#A90000; stroke-width:0.1524; stroke-opacity:1; 
stroke-linecap:round; stroke-linejoin:round;">
<text x="24.7155" y="25.4155"
textLength="1.4127" font-size="1.6933" lengthAdjust="spacingAndGlyphs"
text-anchor="middle" opacity="0" stroke-opacity="0">5</text>
<g class="stroked-text"><desc>5</desc>
<path d="M25.0179 23.9820
L24.4131 23.9820
" />
<path d="M24.4131 23.9820
L24.3527 24.5868
" />
<path d="M24.3527 24.5868
L24.4131 24.5263
" />
<path d="M24.4131 24.5263
L24.5341 24.4658
" />
<path d="M24.5341 24.4658
L24.8365 24.4658
" />
<path d="M24.8365 24.4658
L24.9574 24.5263
" />
<path d="M24.9574 24.5263
L25.0179 24.5868
" />
<path d="M25.0179 24.5868
L25.0784 24.7077
" />
<path d="M25.0784 24.7077
L25.0784 25.0101
" />
<path d="M25.0784 25.0101
L25.0179 25.1311
" />
<path d="M25.0179 25.1311
L24.9574 25.1916
" />
<path d="M24.9574 25.1916
L24.8365 25.2520
" />
<path d="M24.8365 25.2520
L24.5341 25.2520
" />
<path d="M24.5341 25.2520
L24.4131 25.1916
" />
<path d="M24.4131 25.1916
L24.3527 25.1311
" />
</g></g>
<g style="fill:none; 
stroke:#840000; stroke-width:0.1524; stroke-opacity:1; 
stroke-linecap:round; stroke-linejoin:round;">
<path d="M23.4455 18.0495
L25.9855 18.0495
" />
</g>
<g style="fill:none; 
stroke:#006464; stroke-width:0.1524; stroke-opacity:1; 
stroke-linecap:round; stroke-linejoin:round;">
<text x="22.4295" y="18.6845"
textLength="2.9246" font-size="1.6933" lengthAdjust="spacingAndGlyphs"
text-anchor="end" opacity="0" stroke-opacity="0">WB</text>
<g class="stroked-text"><desc>WB</desc>
<path d="M19.7893 17.3590
L20.0917 18.6290
" />
<path d="M20.0917 18.6290
L20.3336 17.7219
" />
<path d="M20.3336 17.7219
L20.5755 18.6290
" />
<path d="M20.5755 18.6290
L20.8779 17.3590
" />
<path d="M21.7850 17.9638
L21.9664 18.0243
" />
<path d="M21.9664 18.0243
L22.0269 18.0847
" />
<path d="M22.0269 18.0847
L22.0873 18.2057
" />
<path d="M22.0873 18.2057
L22.0873 18.3871
" />
<path d="M22.0873 18.3871
L22.0269 18.5081
" />
<path d="M22.0269 18.5081
L21.9664 18.5686
" />
<path d="M21.9664 18.5686
L21.8454 18.6290
" />
<path d="M21.8454 18.6290
L21.3616 18.6290
" />
<path d="M21.3616 18.6290
L21.3616 17.3590
" />
<path d="M21.3616 17.3590
L21.7850 17.3590
" />
<path d="M21.7850 17.3590
L21.9059 17.4195
" />
<path d="M21.9059 17.4195
L21.9664 17.4800
" />
<path d="M21.9664 17.4800
L22.0269 17.6009
" />
<path d="M22.0269 17.6009
L22.0269 17.7219
" />
<path d="M22.0269 17.7219
L21.9664 17.8428
" />
<path d="M21.9664 17.8428
L21.9059 17.9033
" />
<path d="M21.9059 17.9033
L21.7850 17.9638
" />
<path d="M21.7850 17.9638
L21.3616 17.9638
" />
</g></g>
<g style="fill:none; 
stroke:#A90000; stroke-width:0.1524; stroke-opacity:1; 
stroke-linecap:round; stroke-linejoin:round;">
<text x="24.7155" y="17.7955"
textLength="1.4127" font-size="1.6933" lengthAdjust="spacingAndGlyphs"
text-anchor="middle" opacity="0" stroke-opacity="0">6</text>
<g class="stroked-text"><desc>6</desc>
<path d="M24.9574 16.3620
L24.7155 16.3620
" />
<path d="M24.7155 16.3620
L24.5946 16.4225
" />
<path d="M24.5946 16.4225
L24.5341 16.4830
" />
<path d="M24.5341 16.4830
L24.4131 16.6644
" />
<path d="M24.4131 16.6644
L24.3527 16.9063
" />
<path d="M24.3527 16.9063
L24.3527 17.3901
" />
<path d="M24.3527 17.3901
L24.4131 17.5111
" />
<path d="M24.4131 17.5111
L24.4736 17.5716
" />
<path d="M24.4736 17.5716
L24.5946 17.6320
" />
<path d="M24.5946 17.6320
L24.8365 17.6320
" />
<path d="M24.8365 17.6320
L24.9574 17.5716
" />
<path d="M24.9574 17.5716
L25.0179 17.5111
" />
<path d="M25.0179 17.5111
L25.0784 17.3901
" />
<path d="M25.0784 17.3901
L25.0784 17.0877
" />
<path d="M25.0784 17.0877
L25.0179 16.9668
" />
<path d="M25.0179 16.9668
L24.9574 16.9063
" />
<path d="M24.9574 16.9063
L24.8365 16.8458
" />
<path d="M24.8365 16.8458
L24.5946 16.8458
" />
<path d="M24.5946 16.8458
L24.4736 16.9063
" />
<path d="M24.4736 16.9063
L24.4131 16.9668
" />
<path d="M24.4131 16.9668
L24.3527 17.0877
" />
</g></g>
<g style="fill:none; 
stroke:#840000; stroke-width:0.1524; stroke-opacity:1; 
stroke-linecap:round; stroke-linejoin:round;">
<path d="M5.6655 28.2095
L3.1255 28.2095
" />
</g>
<g style="fill:none; 
stroke:#006464; stroke-width:0.1524; stroke-opacity:1; 
stroke-linecap:round; stroke-linejoin:round;">
<text x="6.6815" y="28.8445"
textLength="2.5013" font-size="1.6933" lengthAdjust="spacingAndGlyphs"
text-anchor="start" opacity="0" stroke-opacity="0">A2</text>
<g class="stroked-text"><desc>A2</desc>
<path d="M7.0236 28.4262
L7.6283 28.4262
" />
<path d="M6.9026 28.7890
L7.3259 27.5190
" />
<path d="M7.3259 27.5190
L7.7493 28.7890
" />
<path d="M8.1122 27.6400
L8.1726 27.5795
" />
<path d="M8.1726 27.5795
L8.2936 27.5190
" />
<path d="M8.2936 27.5190
L8.5960 27.5190
" />
<path d="M8.5960 27.5190
L8.7169 27.5795
" />
<path d="M8.7169 27.5795
L8.7774 27.6400
" />
<path d="M8.7774 27.6400
L8.8379 27.7609
" />
<path d="M8.8379 27.7609
L8.8379 27.8819
" />
<path d="M8.8379 27.8819
L8.7774 28.0633
" />
<path d="M8.7774 28.0633
L8.0517 28.7890
" />
<path d="M8.0517 28.7890
L8.8379 28.7890
" />
</g></g>
<g style="fill:none; 
stroke:#A90000; stroke-width:0.1524; stroke-opacity:1; 
stroke-linecap:round; stroke-linejoin:round;">
<text x="4.3955" y="27.9555"
textLength="1.4127" font-size="1.6933" lengthAdjust="spacingAndGlyphs"
text-anchor="middle" opacity="0" stroke-opacity="0">7</text>
<g class="stroked-text"><desc>7</desc>
<path d="M3.9722 26.5220
L4.8188 26.5220
" />
<path d="M4.8188 26.5220
L4.2746 27.7920
" />
</g></g>
<g style="fill:none; 
stroke:#840000; stroke-width:0.1524; stroke-opacity:1; 
stroke-linecap:round; stroke-linejoin:round;">
<path d="M13.2855 30.7495
L13.2855 33.2895
" />
</g>
<g style="fill:none; 
stroke:#006464; stroke-width:0.1524; stroke-opacity:1; 
stroke-linecap:round; stroke-linejoin:round;">
<g transform="rotate(-90.000000 13.2855 29.7335)">
<text x="13.2855" y="30.3685"
textLength="3.7108" font-size="1.6933" lengthAdjust="spacingAndGlyphs"
text-anchor="start" opacity="0" stroke-opacity="0">VSS</text>
</g>
<g class="stroked-text"><desc>VSS</desc>
<path d="M12.5950 29.5123
L13.8650 29.0890
" />
<path d="M13.8650 29.0890
L12.5950 28.6656
" />
<path d="M13.8046 28.3027
L13.8650 28.1213
" />
<path d="M13.8650 28.1213
L13.8650 27.8189
" />
<path d="M13.8650 27.8189
L13.8046 27.6980
" />
<path d="M13.8046 27.6980
L13.7441 27.6375
" />
<path d="M13.7441 27.6375
L13.6231 27.5770
" />
<path d="M13.6231 27.5770
L13.5022 27.5770
" />
<path d="M13.5022 27.5770
L13.3812 27.6375
" />
<path d="M13.3812 27.6375
L13.3207 27.6980
" />
<path d="M13.3207 27.6980
L13.2603 27.8189
" />
<path d="M13.2603 27.8189
L13.1998 28.0608
" />
<path d="M13.1998 28.0608
L13.1393 28.1818
" />
<path d="M13.1393 28.1818
L13.0788 28.2423
" />
<path d="M13.0788 28.2423
L12.9579 28.3027
" />
<path d="M12.9579 28.3027
L12.8369 28.3027
" />
<path d="M12.8369 28.3027
L12.7160 28.2423
" />
<path d="M12.7160 28.2423
L12.6555 28.1818
" />
<path d="M12.6555 28.1818
L12.5950 28.0608
" />
<path d="M12.5950 28.0608
L12.5950 27.7585
" />
<path d="M12.5950 27.7585
L12.6555 27.5770
" />
<path d="M13.8046 27.0932
L13.8650 26.9118
" />
<path d="M13.8650 26.9118
L13.8650 26.6094
" />
<path d="M13.8650 26.6094
L13.8046 26.4885
" />
<path d="M13.8046 26.4885
L13.7441 26.4280
" />
<path d="M13.7441 26.4280
L13.6231 26.3675
" />
<path d="M13.6231 26.3675
L13.5022 26.3675
" />
<path d="M13.5022 26.3675
L13.3812 26.4280
" />
<path d="M13.3812 26.4280
L13.3207 26.4885
" />
<path d="M13.3207 26.4885
L13.2603 26.6094
" />
<path d="M13.2603 26.6094
L13.1998 26.8513
" />
<path d="M13.1998 26.8513
L13.1393 26.9723
" />
<path d="M13.1393 26.9723
L13.0788 27.0328
" />
<path d="M13.0788 27.0328
L12.9579 27.0932
" />
<path d="M12.9579 27.0932
L12.8369 27.0932
" />
<path d="M12.8369 27.0932
L12.7160 27.0328
" />
<path d="M12.7160 27.0328
L12.6555 26.9723
" />
<path d="M12.6555 26.9723
L12.5950 26.8513
" />
<path d="M12.5950 26.8513
L12.5950 26.5490
" />
<path d="M12.5950 26.5490
L12.6555 26.3675
" />
</g></g>
<g style="fill:none; 
stroke:#A90000; stroke-width:0.1524; stroke-opacity:1; 
stroke-linecap:round; stroke-linejoin:round;">
<g transform="rotate(-90.000000 13.0315 32.0195)">
<text x="13.0315" y="32.0195"
textLength="1.4127" font-size="1.6933" lengthAdjust="spacingAndGlyphs"
text-anchor="middle" opacity="0" stroke-opacity="0">8</text>
</g>
<g class="stroked-text"><desc>8</desc>
<path d="M12.1423 32.1403
L12.0818 32.2613
" />
<path d="M12.0818 32.2613
L12.0214 32.3218
" />
<path d="M12.0214 32.3218
L11.9004 32.3822
" />
<path d="M11.9004 32.3822
L11.8399 32.3822
" />
<path d="M11.8399 32.3822
L11.7190 32.3218
" />
<path d="M11.7190 32.3218
L11.6585 32.2613
" />
<path d="M11.6585 32.2613
L11.5980 32.1403
" />
<path d="M11.5980 32.1403
L11.5980 31.8984
" />
<path d="M11.5980 31.8984
L11.6585 31.7775
" />
<path d="M11.6585 31.7775
L11.7190 31.7170
" />
<path d="M11.7190 31.7170
L11.8399 31.6565
" />
<path d="M11.8399 31.6565
L11.9004 31.6565
" />
<path d="M11.9004 31.6565
L12.0214 31.7170
" />
<path d="M12.0214 31.7170
L12.0818 31.7775
" />
<path d="M12.0818 31.7775
L12.1423 31.8984
" />
<path d="M12.1423 31.8984
L12.1423 32.1403
" />
<path d="M12.1423 32.1403
L12.2028 32.2613
" />
<path d="M12.2028 32.2613
L12.2633 32.3218
" />
<path d="M12.2633 32.3218
L12.3842 32.3822
" />
<path d="M12.3842 32.3822
L12.6261 32.3822
" />
<path d="M12.6261 32.3822
L12.7471 32.3218
" />
<path d="M12.7471 32.3218
L12.8076 32.2613
" />
<path d="M12.8076 32.2613
L12.8680 32.1403
" />
<path d="M12.8680 32.1403
L12.8680 31.8984
" />
<path d="M12.8680 31.8984
L12.8076 31.7775
" />
<path d="M12.8076 31.7775
L12.7471 31.7170
" />
<path d="M12.7471 31.7170
L12.6261 31.6565
" />
<path d="M12.6261 31.6565
L12.3842 31.6565
" />
<path d="M12.3842 31.6565
L12.2633 31.7170
" />
<path d="M12.2633 31.7170
L12.2028 31.7775
" />
<path d="M12.2028 31.7775
L12.1423 31.8984
" />
</g></g>
<g style="fill:none; 
stroke:#840000; stroke-width:0.1524; stroke-opacity:1; 
stroke-linecap:round; stroke-linejoin:round;">
<path d="M5.6655 15.5095
L3.1255 15.5095
" />
</g>
<g style="fill:none; 
stroke:#006464; stroke-width:0.1524; stroke-opacity:1; 
stroke-linecap:round; stroke-linejoin:round;">
<text x="6.6815" y="16.1445"
textLength="3.7713" font-size="1.6933" lengthAdjust="spacingAndGlyphs"
text-anchor="start" opacity="0" stroke-opacity="0">SDA</text>
<g class="stroked-text"><desc>SDA</desc>
<path d="M7.0236 16.0286
L7.2050 16.0890
" />
<path d="M7.2050 16.0890
L7.5074 16.0890
" />
<path d="M7.5074 16.0890
L7.6283 16.0286
" />
<path d="M7.6283 16.0286
L7.6888 15.9681
" />
<path d="M7.6888 15.9681
L7.7493 15.8471
" />
<path d="M7.7493 15.8471
L7.7493 15.7262
" />
<path d="M7.7493 15.7262
L7.6888 15.6052
" />
<path d="M7.6888 15.6052
L7.6283 15.5447
" />
<path d="M7.6283 15.5447
L7.5074 15.4843
" />
<path d="M7.5074 15.4843
L7.2655 15.4238
" />
<path d="M7.2655 15.4238
L7.1445 15.3633
" />
<path d="M7.1445 15.3633
L7.0840 15.3028
" />
<path d="M7.0840 15.3028
L7.0236 15.1819
" />
<path d="M7.0236 15.1819
L7.0236 15.0609
" />
<path d="M7.0236 15.0609
L7.0840 14.9400
" />
<path d="M7.0840 14.9400
L7.1445 14.8795
" />
<path d="M7.1445 14.8795
L7.2655 14.8190
" />
<path d="M7.2655 14.8190
L7.5678 14.8190
" />
<path d="M7.5678 14.8190
L7.7493 14.8795
" />
<path d="M8.2935 16.0890
L8.2935 14.8190
" />
<path d="M8.2935 14.8190
L8.5959 14.8190
" />
<path d="M8.5959 14.8190
L8.7773 14.8795
" />
<path d="M8.7773 14.8795
L8.8983 15.0005
" />
<path d="M8.8983 15.0005
L8.9588 15.1214
" />
<path d="M8.9588 15.1214
L9.0192 15.3633
" />
<path d="M9.0192 15.3633
L9.0192 15.5447
" />
<path d="M9.0192 15.5447
L8.9588 15.7866
" />
<path d="M8.9588 15.7866
L8.8983 15.9076
" />
<path d="M8.8983 15.9076
L8.7773 16.0286
" />
<path d="M8.7773 16.0286
L8.5959 16.0890
" />
<path d="M8.5959 16.0890
L8.2935 16.0890
" />
<path d="M9.5031 15.7262
L10.1078 15.7262
" />
<path d="M9.3821 16.0890
L9.8054 14.8190
" />
<path d="M9.8054 14.8190
L10.2288 16.0890
" />
</g></g>
<g style="fill:none; 
stroke:#A90000; stroke-width:0.1524; stroke-opacity:1; 
stroke-linecap:round; stroke-linejoin:round;">
<text x="4.3955" y="15.2555"
textLength="1.4127" font-size="1.6933" lengthAdjust="spacingAndGlyphs"
text-anchor="middle" opacity="0" stroke-opacity="0">9</text>
<g class="stroked-text"><desc>9</desc>
<path d="M4.1536 15.0920
L4.3955 15.0920
" />
<path d="M4.3955 15.0920
L4.5165 15.0316
" />
<path d="M4.5165 15.0316
L4.5769 14.9711
" />
<path d="M4.5769 14.9711
L4.6979 14.7896
" />
<path d="M4.6979 14.7896
L4.7584 14.5477
" />
<path d="M4.7584 14.5477
L4.7584 14.0639
" />
<path d="M4.7584 14.0639
L4.6979 13.9430
" />
<path d="M4.6979 13.9430
L4.6374 13.8825
" />
<path d="M4.6374 13.8825
L4.5165 13.8220
" />
<path d="M4.5165 13.8220
L4.2746 13.8220
" />
<path d="M4.2746 13.8220
L4.1536 13.8825
" />
<path d="M4.1536 13.8825
L4.0931 13.9430
" />
<path d="M4.0931 13.9430
L4.0327 14.0639
" />
<path d="M4.0327 14.0639
L4.0327 14.3663
" />
<path d="M4.0327 14.3663
L4.0931 14.4873
" />
<path d="M4.0931 14.4873
L4.1536 14.5477
" />
<path d="M4.1536 14.5477
L4.2746 14.6082
" />
<path d="M4.2746 14.6082
L4.5165 14.6082
" />
<path d="M4.5165 14.6082
L4.6374 14.5477
" />
<path d="M4.6374 14.5477
L4.6979 14.4873
" />
<path d="M4.6979 14.4873
L4.7584 14.3663
" />
</g></g>
<g style="fill:none; 
stroke:#840000; stroke-width:0.1524; stroke-opacity:1; 
stroke-linecap:round; stroke-linejoin:round;">
<path d="M5.6655 18.0495
L3.1255 18.0495
" />
</g>
<g style="fill:none; 
stroke:#006464; stroke-width:0.1524; stroke-opacity:1; 
stroke-linecap:round; stroke-linejoin:round;">
<text x="6.6815" y="18.6845"
textLength="3.7108" font-size="1.6933" lengthAdjust="spacingAndGlyphs"
text-anchor="start" opacity="0" stroke-opacity="0">SCL</text>
<g class="stroked-text"><desc>SCL</desc>
<path d="M7.0236 18.5686
L7.2050 18.6290
" />
<path d="M7.2050 18.6290
L7.5074 18.6290
" />
<path d="M7.5074 18.6290
L7.6283 18.5686
" />
<path d="M7.6283 18.5686
L7.6888 18.5081
" />
<path d="M7.6888 18.5081
L7.7493 18.3871
" />
<path d="M7.7493 18.3871
L7.7493 18.2662
" />
<path d="M7.7493 18.2662
L7.6888 18.1452
" />
<path d="M7.6888 18.1452
L7.6283 18.0847
" />
<path d="M7.6283 18.0847
L7.5074 18.0243
" />
<path d="M7.5074 18.0243
L7.2655 17.9638
" />
<path d="M7.2655 17.9638
L7.1445 17.9033
" />
<path d="M7.1445 17.9033
L7.0840 17.8428
" />
<path d="M7.0840 17.8428
L7.0236 17.7219
" />
<path d="M7.0236 17.7219
L7.0236 17.6009
" />
<path d="M7.0236 17.6009
L7.0840 17.4800
" />
<path d="M7.0840 17.4800
L7.1445 17.4195
" />
<path d="M7.1445 17.4195
L7.2655 17.3590
" />
<path d="M7.2655 17.3590
L7.5678 17.3590
" />
<path d="M7.5678 17.3590
L7.7493 17.4195
" />
<path d="M9.0192 18.5081
L8.9588 18.5686
" />
<path d="M8.9588 18.5686
L8.7773 18.6290
" />
<path d="M8.7773 18.6290
L8.6564 18.6290
" />
<path d="M8.6564 18.6290
L8.4750 18.5686
" />
<path d="M8.4750 18.5686
L8.3540 18.4476
" />
<path d="M8.3540 18.4476
L8.2935 18.3266
" />
<path d="M8.2935 18.3266
L8.2331 18.0847
" />
<path d="M8.2331 18.0847
L8.2331 17.9033
" />
<path d="M8.2331 17.9033
L8.2935 17.6614
" />
<path d="M8.2935 17.6614
L8.3540 17.5405
" />
<path d="M8.3540 17.5405
L8.4750 17.4195
" />
<path d="M8.4750 17.4195
L8.6564 17.3590
" />
<path d="M8.6564 17.3590
L8.7773 17.3590
" />
<path d="M8.7773 17.3590
L8.9588 17.4195
" />
<path d="M8.9588 17.4195
L9.0192 17.4800
" />
<path d="M10.1683 18.6290
L9.5635 18.6290
" />
<path d="M9.5635 18.6290
L9.5635 17.3590
" />
</g></g>
<g style="fill:none; 
stroke:#A90000; stroke-width:0.1524; stroke-opacity:1; 
stroke-linecap:round; stroke-linejoin:round;">
<text x="4.3955" y="17.7955"
textLength="2.6222" font-size="1.6933" lengthAdjust="spacingAndGlyphs"
text-anchor="middle" opacity="0" stroke-opacity="0">10</text>
<g class="stroked-text"><desc>10</desc>
<path d="M4.1536 17.6320
L3.4279 17.6320
" />
<path d="M3.7907 17.6320
L3.7907 16.3620
" />
<path d="M3.7907 16.3620
L3.6698 16.5435
" />
<path d="M3.6698 16.5435
L3.5488 16.6644
" />
<path d="M3.5488 16.6644
L3.4279 16.7249
" />
<path d="M4.9397 16.3620
L5.0607 16.3620
" />
<path d="M5.0607 16.3620
L5.1816 16.4225
" />
<path d="M5.1816 16.4225
L5.2421 16.4830
" />
<path d="M5.2421 16.4830
L5.3026 16.6039
" />
<path d="M5.3026 16.6039
L5.3631 16.8458
" />
<path d="M5.3631 16.8458
L5.3631 17.1482
" />
<path d="M5.3631 17.1482
L5.3026 17.3901
" />
<path d="M5.3026 17.3901
L5.2421 17.5111
" />
<path d="M5.2421 17.5111
L5.1816 17.5716
" />
<path d="M5.1816 17.5716
L5.0607 17.6320
" />
<path d="M5.0607 17.6320
L4.9397 17.6320
" />
<path d="M4.9397 17.6320
L4.8188 17.5716
" />
<path d="M4.8188 17.5716
L4.7583 17.5111
" />
<path d="M4.7583 17.5111
L4.6978 17.3901
" />
<path d="M4.6978 17.3901
L4.6374 17.1482
" />
<path d="M4.6374 17.1482
L4.6374 16.8458
" />
<path d="M4.6374 16.8458
L4.6978 16.6039
" />
<path d="M4.6978 16.6039
L4.7583 16.4830
" />
<path d="M4.7583 16.4830
L4.8188 16.4225
" />
<path d="M4.8188 16.4225
L4.9397 16.3620
" />
</g></g>
<g style="fill:none; 
stroke:#840000; stroke-width:0.1524; stroke-opacity:1; 
stroke-linecap:round; stroke-linejoin:round;">
<path d="M15.8255 30.7495
L15.8255 33.2895
" />
</g>
<g style="fill:none; 
stroke:#006464; stroke-width:0.1524; stroke-opacity:1; 
stroke-linecap:round; stroke-linejoin:round;">
<g transform="rotate(-90.000000 15.8255 29.7335)">
<text x="15.8255" y="30.3685"
textLength="4.0737" font-size="1.6933" lengthAdjust="spacingAndGlyphs"
text-anchor="start" opacity="0" stroke-opacity="0">GND</text>
</g>
<g class="stroked-text"><desc>GND</desc>
<path d="M15.1955 28.6656
L15.1350 28.7866
" />
<path d="M15.1350 28.7866
L15.1350 28.9680
" />
<path d="M15.1350 28.9680
L15.1955 29.1494
" />
<path d="M15.1955 29.1494
L15.3165 29.2704
" />
<path d="M15.3165 29.2704
L15.4374 29.3309
" />
<path d="M15.4374 29.3309
L15.6793 29.3913
" />
<path d="M15.6793 29.3913
L15.8607 29.3913
" />
<path d="M15.8607 29.3913
L16.1026 29.3309
" />
<path d="M16.1026 29.3309
L16.2236 29.2704
" />
<path d="M16.2236 29.2704
L16.3446 29.1494
" />
<path d="M16.3446 29.1494
L16.4050 28.9680
" />
<path d="M16.4050 28.9680
L16.4050 28.8471
" />
<path d="M16.4050 28.8471
L16.3446 28.6656
" />
<path d="M16.3446 28.6656
L16.2841 28.6052
" />
<path d="M16.2841 28.6052
L15.8607 28.6052
" />
<path d="M15.8607 28.6052
L15.8607 28.8471
" />
<path d="M16.4050 28.0609
L15.1350 28.0609
" />
<path d="M15.1350 28.0609
L16.4050 27.3352
" />
<path d="M16.4050 27.3352
L15.1350 27.3352
" />
<path d="M16.4050 26.7304
L15.1350 26.7304
" />
<path d="M15.1350 26.7304
L15.1350 26.4280
" />
<path d="M15.1350 26.4280
L15.1955 26.2466
" />
<path d="M15.1955 26.2466
L15.3165 26.1256
" />
<path d="M15.3165 26.1256
L15.4374 26.0651
" />
<path d="M15.4374 26.0651
L15.6793 26.0047
" />
<path d="M15.6793 26.0047
L15.8607 26.0047
" />
<path d="M15.8607 26.0047
L16.1026 26.0651
" />
<path d="M16.1026 26.0651
L16.2236 26.1256
" />
<path d="M16.2236 26.1256
L16.3446 26.2466
" />
<path d="M16.3446 26.2466
L16.4050 26.4280
" />
<path d="M16.4050 26.4280
L16.4050 26.7304
" />
</g></g>
<g style="fill:none; 
stroke:#A90000; stroke-width:0.1524; stroke-opacity:1; 
stroke-linecap:round; stroke-linejoin:round;">
<g transform="rotate(-90.000000 15.5715 32.0195)">
<text x="15.5715" y="32.0195"
textLength="2.6222" font-size="1.6933" lengthAdjust="spacingAndGlyphs"
text-anchor="middle" opacity="0" stroke-opacity="0">11</text>
</g>
<g class="stroked-text"><desc>11</desc>
<path d="M15.4080 32.2613
L15.4080 32.9870
" />
<path d="M15.4080 32.6242
L14.1380 32.6242
" />
<path d="M14.1380 32.6242
L14.3195 32.7451
" />
<path d="M14.3195 32.7451
L14.4404 32.8661
" />
<path d="M14.4404 32.8661
L14.5009 32.9870
" />
<path d="M15.4080 31.0518
L15.4080 31.7775
" />
<path d="M15.4080 31.4147
L14.1380 31.4147
" />
<path d="M14.1380 31.4147
L14.3195 31.5356
" />
<path d="M14.3195 31.5356
L14.4404 31.6566
" />
<path d="M14.4404 31.6566
L14.5009 31.7775
" />
</g></g>
<g style="fill:none; 
stroke:#840000; stroke-width:0.1524; stroke-opacity:1; 
stroke-linecap:round; stroke-linejoin:round;">
<path d="M5.6655 25.6695
L3.1255 25.6695
" />
</g>
<g style="fill:none; 
stroke:#006464; stroke-width:0.1524; stroke-opacity:1; 
stroke-linecap:round; stroke-linejoin:round;">
<text x="6.6815" y="26.3045"
textLength="2.5013" font-size="1.6933" lengthAdjust="spacingAndGlyphs"
text-anchor="start" opacity="0" stroke-opacity="0">A1</text>
<g class="stroked-text"><desc>A1</desc>
<path d="M7.0236 25.8862
L7.6283 25.8862
" />
<path d="M6.9026 26.2490
L7.3259 24.9790
" />
<path d="M7.3259 24.9790
L7.7493 26.2490
" />
<path d="M8.8379 26.2490
L8.1122 26.2490
" />
<path d="M8.4750 26.2490
L8.4750 24.9790
" />
<path d="M8.4750 24.9790
L8.3541 25.1605
" />
<path d="M8.3541 25.1605
L8.2331 25.2814
" />
<path d="M8.2331 25.2814
L8.1122 25.3419
" />
</g></g>
<g style="fill:none; 
stroke:#A90000; stroke-width:0.1524; stroke-opacity:1; 
stroke-linecap:round; stroke-linejoin:round;">
<text x="4.3955" y="25.4155"
textLength="2.6222" font-size="1.6933" lengthAdjust="spacingAndGlyphs"
text-anchor="middle" opacity="0" stroke-opacity="0">12</text>
<g class="stroked-text"><desc>12</desc>
<path d="M4.1536 25.2520
L3.4279 25.2520
" />
<path d="M3.7907 25.2520
L3.7907 23.9820
" />
<path d="M3.7907 23.9820
L3.6698 24.1635
" />
<path d="M3.6698 24.1635
L3.5488 24.2844
" />
<path d="M3.5488 24.2844
L3.4279 24.3449
" />
<path d="M4.6374 24.1030
L4.6978 24.0425
" />
<path d="M4.6978 24.0425
L4.8188 23.9820
" />
<path d="M4.8188 23.9820
L5.1212 23.9820
" />
<path d="M5.1212 23.9820
L5.2421 24.0425
" />
<path d="M5.2421 24.0425
L5.3026 24.1030
" />
<path d="M5.3026 24.1030
L5.3631 24.2239
" />
<path d="M5.3631 24.2239
L5.3631 24.3449
" />
<path d="M5.3631 24.3449
L5.3026 24.5263
" />
<path d="M5.3026 24.5263
L4.5769 25.2520
" />
<path d="M4.5769 25.2520
L5.3631 25.2520
" />
</g></g>
<g style="fill:none; 
stroke:#840000; stroke-width:0.1524; stroke-opacity:1; 
stroke-linecap:round; stroke-linejoin:round;">
<path d="M5.6655 23.1295
L3.1255 23.1295
" />
</g>
<g style="fill:none; 
stroke:#006464; stroke-width:0.1524; stroke-opacity:1; 
stroke-linecap:round; stroke-linejoin:round;">
<text x="6.6815" y="23.7645"
textLength="2.5013" font-size="1.6933" lengthAdjust="spacingAndGlyphs"
text-anchor="start" opacity="0" stroke-opacity="0">A0</text>
<g class="stroked-text"><desc>A0</desc>
<path d="M7.0236 23.3462
L7.6283 23.3462
" />
<path d="M6.9026 23.7090
L7.3259 22.4390
" />
<path d="M7.3259 22.4390
L7.7493 23.7090
" />
<path d="M8.4145 22.4390
L8.5355 22.4390
" />
<path d="M8.5355 22.4390
L8.6564 22.4995
" />
<path d="M8.6564 22.4995
L8.7169 22.5600
" />
<path d="M8.7169 22.5600
L8.7774 22.6809
" />
<path d="M8.7774 22.6809
L8.8379 22.9228
" />
<path d="M8.8379 22.9228
L8.8379 23.2252
" />
<path d="M8.8379 23.2252
L8.7774 23.4671
" />
<path d="M8.7774 23.4671
L8.7169 23.5881
" />
<path d="M8.7169 23.5881
L8.6564 23.6486
" />
<path d="M8.6564 23.6486
L8.5355 23.7090
" />
<path d="M8.5355 23.7090
L8.4145 23.7090
" />
<path d="M8.4145 23.7090
L8.2936 23.6486
" />
<path d="M8.2936 23.6486
L8.2331 23.5881
" />
<path d="M8.2331 23.5881
L8.1726 23.4671
" />
<path d="M8.1726 23.4671
L8.1122 23.2252
" />
<path d="M8.1122 23.2252
L8.1122 22.9228
" />
<path d="M8.1122 22.9228
L8.1726 22.6809
" />
<path d="M8.1726 22.6809
L8.2331 22.5600
" />
<path d="M8.2331 22.5600
L8.2936 22.4995
" />
<path d="M8.2936 22.4995
L8.4145 22.4390
" />
</g></g>
<g style="fill:none; 
stroke:#A90000; stroke-width:0.1524; stroke-opacity:1; 
stroke-linecap:round; stroke-linejoin:round;">
<text x="4.3955" y="22.8755"
textLength="2.6222" font-size="1.6933" lengthAdjust="spacingAndGlyphs"
text-anchor="middle" opacity="0" stroke-opacity="0">13</text>
<g class="stroked-text"><desc>13</desc>
<path d="M4.1536 22.7120
L3.4279 22.7120
" />
<path d="M3.7907 22.7120
L3.7907 21.4420
" />
<path d="M3.7907 21.4420
L3.6698 21.6235
" />
<path d="M3.6698 21.6235
L3.5488 21.7444
" />
<path d="M3.5488 21.7444
L3.4279 21.8049
" />
<path d="M4.5769 21.4420
L5.3631 21.4420
" />
<path d="M5.3631 21.4420
L4.9397 21.9258
" />
<path d="M4.9397 21.9258
L5.1212 21.9258
" />
<path d="M5.1212 21.9258
L5.2421 21.9863
" />
<path d="M5.2421 21.9863
L5.3026 22.0468
" />
<path d="M5.3026 22.0468
L5.3631 22.1677
" />
<path d="M5.3631 22.1677
L5.3631 22.4701
" />
<path d="M5.3631 22.4701
L5.3026 22.5911
" />
<path d="M5.3026 22.5911
L5.2421 22.6516
" />
<path d="M5.2421 22.6516
L5.1212 22.7120
" />
<path d="M5.1212 22.7120
L4.7583 22.7120
" />
<path d="M4.7583 22.7120
L4.6374 22.6516
" />
<path d="M4.6374 22.6516
L4.5769 22.5911
" />
</g></g>
<g style="fill:none; 
stroke:#840000; stroke-width:0.1524; stroke-opacity:1; 
stroke-linecap:round; stroke-linejoin:round;">
<path d="M5.6655 7.8895
L3.1255 7.8895
" />
</g>
<g style="fill:none; 
stroke:#006464; stroke-width:0.1524; stroke-opacity:1; 
stroke-linecap:round; stroke-linejoin:round;">
<text x="6.6815" y="8.5245"
textLength="3.8318" font-size="1.6933" lengthAdjust="spacingAndGlyphs"
text-anchor="start" opacity="0" stroke-opacity="0">VDD</text>
<g class="stroked-text"><desc>VDD</desc>
<path d="M6.9026 7.1990
L7.3259 8.4690
" />
<path d="M7.3259 8.4690
L7.7493 7.1990
" />
<path d="M8.1726 8.4690
L8.1726 7.1990
" />
<path d="M8.1726 7.1990
L8.4750 7.1990
" />
<path d="M8.4750 7.1990
L8.6564 7.2595
" />
<path d="M8.6564 7.2595
L8.7774 7.3805
" />
<path d="M8.7774 7.3805
L8.8379 7.5014
" />
<path d="M8.8379 7.5014
L8.8983 7.7433
" />
<path d="M8.8983 7.7433
L8.8983 7.9247
" />
<path d="M8.8983 7.9247
L8.8379 8.1666
" />
<path d="M8.8379 8.1666
L8.7774 8.2876
" />
<path d="M8.7774 8.2876
L8.6564 8.4086
" />
<path d="M8.6564 8.4086
L8.4750 8.4690
" />
<path d="M8.4750 8.4690
L8.1726 8.4690
" />
<path d="M9.4426 8.4690
L9.4426 7.1990
" />
<path d="M9.4426 7.1990
L9.7450 7.1990
" />
<path d="M9.7450 7.1990
L9.9264 7.2595
" />
<path d="M9.9264 7.2595
L10.0474 7.3805
" />
<path d="M10.0474 7.3805
L10.1079 7.5014
" />
<path d="M10.1079 7.5014
L10.1683 7.7433
" />
<path d="M10.1683 7.7433
L10.1683 7.9247
" />
<path d="M10.1683 7.9247
L10.1079 8.1666
" />
<path d="M10.1079 8.1666
L10.0474 8.2876
" />
<path d="M10.0474 8.2876
L9.9264 8.4086
" />
<path d="M9.9264 8.4086
L9.7450 8.4690
" />
<path d="M9.7450 8.4690
L9.4426 8.4690
" />
</g></g>
<g style="fill:none; 
stroke:#A90000; stroke-width:0.1524; stroke-opacity:1; 
stroke-linecap:round; stroke-linejoin:round;">
<text x="4.3955" y="7.6355"
textLength="2.6222" font-size="1.6933" lengthAdjust="spacingAndGlyphs"
text-anchor="middle" opacity="0" stroke-opacity="0">14</text>
<g class="stroked-text"><desc>14</desc>
<path d="M4.1536 7.4720
L3.4279 7.4720
" />
<path d="M3.7907 7.4720
L3.7907 6.2020
" />
<path d="M3.7907 6.2020
L3.6698 6.3835
" />
<path d="M3.6698 6.3835
L3.5488 6.5044
" />
<path d="M3.5488 6.5044
L3.4279 6.5649
" />
<path d="M5.2421 6.6254
L5.2421 7.4720
" />
<path d="M4.9397 6.1416
L4.6374 7.0487
" />
<path d="M4.6374 7.0487
L5.4235 7.0487
" />
</g></g>
<g style="fill:none; 
stroke:#006464; stroke-width:0.1524; stroke-opacity:1; 
stroke-linecap:round; stroke-linejoin:round;">
<text x="6.9355" y="4.7145"
textLength="2.6223" font-size="1.6933" lengthAdjust="spacingAndGlyphs"
text-anchor="middle" opacity="0" stroke-opacity="0">U?</text>
<g class="stroked-text"><desc>U?</desc>
<path d="M6.0283 3.3890
L6.0283 4.4171
" />
<path d="M6.0283 4.4171
L6.0888 4.5381
" />
<path d="M6.0888 4.5381
L6.1493 4.5986
" />
<path d="M6.1493 4.5986
L6.2702 4.6590
" />
<path d="M6.2702 4.6590
L6.5121 4.6590
" />
<path d="M6.5121 4.6590
L6.6331 4.5986
" />
<path d="M6.6331 4.5986
L6.6936 4.5381
" />
<path d="M6.6936 4.5381
L6.7540 4.4171
" />
<path d="M6.7540 4.4171
L6.7540 3.3890
" />
<path d="M7.5403 4.5381
L7.6007 4.5986
" />
<path d="M7.6007 4.5986
L7.5403 4.6590
" />
<path d="M7.5403 4.6590
L7.4798 4.5986
" />
<path d="M7.4798 4.5986
L7.5403 4.5381
" />
<path d="M7.5403 4.5381
L7.5403 4.6590
" />
<path d="M7.2984 3.4495
L7.4193 3.3890
" />
<path d="M7.4193 3.3890
L7.7217 3.3890
" />
<path d="M7.7217 3.3890
L7.8426 3.4495
" />
<path d="M7.8426 3.4495
L7.9031 3.5705
" />
<path d="M7.9031 3.5705
L7.9031 3.6914
" />
<path d="M7.9031 3.6914
L7.8426 3.8124
" />
<path d="M7.8426 3.8124
L7.7822 3.8728
" />
<path d="M7.7822 3.8728
L7.6612 3.9333
" />
<path d="M7.6612 3.9333
L7.6007 3.9938
" />
<path d="M7.6007 3.9938
L7.5403 4.1147
" />
<path d="M7.5403 4.1147
L7.5403 4.1752
" />
</g><text x="25.9855" y="4.7145"
textLength="8.3069" font-size="1.6933" lengthAdjust="spacingAndGlyphs"
text-anchor="middle" opacity="0" stroke-opacity="0">TPL0102</text>
<g class="stroked-text"><desc>TPL0102</desc>
<path d="M22.0546 3.3890
L22.7803 3.3890
" />
<path d="M22.4175 4.6590
L22.4175 3.3890
" />
<path d="M23.2036 4.6590
L23.2036 3.3890
" />
<path d="M23.2036 3.3890
L23.6874 3.3890
" />
<path d="M23.6874 3.3890
L23.8084 3.4495
" />
<path d="M23.8084 3.4495
L23.8689 3.5100
" />
<path d="M23.8689 3.5100
L23.9293 3.6309
" />
<path d="M23.9293 3.6309
L23.9293 3.8124
" />
<path d="M23.9293 3.8124
L23.8689 3.9333
" />
<path d="M23.8689 3.9333
L23.8084 3.9938
" />
<path d="M23.8084 3.9938
L23.6874 4.0543
" />
<path d="M23.6874 4.0543
L23.2036 4.0543
" />
<path d="M25.0784 4.6590
L24.4736 4.6590
" />
<path d="M24.4736 4.6590
L24.4736 3.3890
" />
<path d="M25.7436 3.3890
L25.8646 3.3890
" />
<path d="M25.8646 3.3890
L25.9855 3.4495
" />
<path d="M25.9855 3.4495
L26.0460 3.5100
" />
<path d="M26.0460 3.5100
L26.1065 3.6309
" />
<path d="M26.1065 3.6309
L26.1670 3.8728
" />
<path d="M26.1670 3.8728
L26.1670 4.1752
" />
<path d="M26.1670 4.1752
L26.1065 4.4171
" />
<path d="M26.1065 4.4171
L26.0460 4.5381
" />
<path d="M26.0460 4.5381
L25.9855 4.5986
" />
<path d="M25.9855 4.5986
L25.8646 4.6590
" />
<path d="M25.8646 4.6590
L25.7436 4.6590
" />
<path d="M25.7436 4.6590
L25.6227 4.5986
" />
<path d="M25.6227 4.5986
L25.5622 4.5381
" />
<path d="M25.5622 4.5381
L25.5017 4.4171
" />
<path d="M25.5017 4.4171
L25.4413 4.1752
" />
<path d="M25.4413 4.1752
L25.4413 3.8728
" />
<path d="M25.4413 3.8728
L25.5017 3.6309
" />
<path d="M25.5017 3.6309
L25.5622 3.5100
" />
<path d="M25.5622 3.5100
L25.6227 3.4495
" />
<path d="M25.6227 3.4495
L25.7436 3.3890
" />
<path d="M27.3765 4.6590
L26.6508 4.6590
" />
<path d="M27.0136 4.6590
L27.0136 3.3890
" />
<path d="M27.0136 3.3890
L26.8927 3.5705
" />
<path d="M26.8927 3.5705
L26.7717 3.6914
" />
<path d="M26.7717 3.6914
L26.6508 3.7519
" />
<path d="M28.1626 3.3890
L28.2836 3.3890
" />
<path d="M28.2836 3.3890
L28.4045 3.4495
" />
<path d="M28.4045 3.4495
L28.4650 3.5100
" />
<path d="M28.4650 3.5100
L28.5255 3.6309
" />
<path d="M28.5255 3.6309
L28.5860 3.8728
" />
<path d="M28.5860 3.8728
L28.5860 4.1752
" />
<path d="M28.5860 4.1752
L28.5255 4.4171
" />
<path d="M28.5255 4.4171
L28.4650 4.5381
" />
<path d="M28.4650 4.5381
L28.4045 4.5986
" />
<path d="M28.4045 4.5986
L28.2836 4.6590
" />
<path d="M28.2836 4.6590
L28.1626 4.6590
" />
<path d="M28.1626 4.6590
L28.0417 4.5986
" />
<path d="M28.0417 4.5986
L27.9812 4.5381
" />
<path d="M27.9812 4.5381
L27.9207 4.4171
" />
<path d="M27.9207 4.4171
L27.8603 4.1752
" />
<path d="M27.8603 4.1752
L27.8603 3.8728
" />
<path d="M27.8603 3.8728
L27.9207 3.6309
" />
<path d="M27.9207 3.6309
L27.9812 3.5100
" />
<path d="M27.9812 3.5100
L28.0417 3.4495
" />
<path d="M28.0417 3.4495
L28.1626 3.3890
" />
<path d="M29.0698 3.5100
L29.1302 3.4495
" />
<path d="M29.1302 3.4495
L29.2512 3.3890
" />
<path d="M29.2512 3.3890
L29.5536 3.3890
" />
<path d="M29.5536 3.3890
L29.6745 3.4495
" />
<path d="M29.6745 3.4495
L29.7350 3.5100
" />
<path d="M29.7350 3.5100
L29.7955 3.6309
" />
<path d="M29.7955 3.6309
L29.7955 3.7519
" />
<path d="M29.7955 3.7519
L29.7350 3.9333
" />
<path d="M29.7350 3.9333
L29.0093 4.6590
" />
<path d="M29.0093 4.6590
L29.7955 4.6590
" />
</g></g> 
</svg>
