<?xml version="1.0" standalone="no"?>
 <!DOCTYPE svg PUBLIC "-//W3C//DTD SVG 1.1//EN" 
 "http://www.w3.org/Graphics/SVG/1.1/DTD/svg11.dtd"> 
<svg
  xmlns:svg="http://www.w3.org/2000/svg"
  xmlns="http://www.w3.org/2000/svg"
  xmlns:xlink="http://www.w3.org/1999/xlink"
  xmlns:inkscape="http://www.inkscape.org/namespaces/inkscape"
  version="1.1"
  width="100%" height="100%" viewBox="0.0000 0.0000 18.2372 9.2964">
<title>SVG Image created as U_FL_R_SMT_unit1.svg date 2026-04-16T00:23:22 </title>
  <desc>Image generated by Eeschema-SVG </desc>
<g style="fill:#000000; fill-opacity:1.0000;stroke:#000000; stroke-opacity:1.0000;
stroke-linecap:round; stroke-linejoin:round;"
 transform="translate(0 0) scale(1 1)">
</g>
<g style="fill:#840000; fill-opacity:1.0000; 
stroke:#840000; stroke-width:0.1524; stroke-opacity:1; 
stroke-linecap:round; stroke-linejoin:round;">
<circle cx="3.9782" cy="3.0635" r="0.6350" /> 
</g>
<g style="fill:none; 
stroke:#840000; stroke-width:0.1524; stroke-opacity:1; 
stroke-linecap:round; stroke-linejoin:round;">
<path d="M2.7086 3.0635 A1.3362 1.3362 0.0 0 0 5.2482 3.6985" />
<path d="M5.2483 2.4284 A1.3427 1.3427 0.0 0 0 2.7082 3.0635" />
<path d="M3.9782 4.4605
L3.9782 8.1435
" />
</g>
<g style="fill:none; 
stroke:#A90000; stroke-width:0.1524; stroke-opacity:1; 
stroke-linecap:round; stroke-linejoin:round;">
<g transform="rotate(-90.000000 3.7242 6.3020)">
<text x="3.7242" y="6.3020"
textLength="1.4127" font-size="1.6933" lengthAdjust="spacingAndGlyphs"
text-anchor="middle" opacity="0" stroke-opacity="0">1</text>
</g>
<g class="stroked-text"><desc>1</desc>
<path d="M3.5607 5.9390
L3.5607 6.6647
" />
<path d="M3.5607 6.3019
L2.2907 6.3019
" />
<path d="M2.2907 6.3019
L2.4722 6.4228
" />
<path d="M2.4722 6.4228
L2.5931 6.5438
" />
<path d="M2.5931 6.5438
L2.6536 6.6647
" />
</g></g>
<g style="fill:none; 
stroke:#840000; stroke-width:0.1524; stroke-opacity:1; 
stroke-linecap:round; stroke-linejoin:round;">
<path d="M4.6132 3.0635
L9.0582 3.0635
" />
</g>
<g style="fill:none; 
stroke:#A90000; stroke-width:0.1524; stroke-opacity:1; 
stroke-linecap:round; stroke-linejoin:round;">
<text x="6.8357" y="2.8095"
textLength="1.4127" font-size="1.6933" lengthAdjust="spacingAndGlyphs"
text-anchor="middle" opacity="0" stroke-opacity="0">2</text>
<g class="stroked-text"><desc>2</desc>
<path d="M6.4729 1.4970
L6.5333 1.4365
" />
<path d="M6.5333 1.4365
L6.6543 1.3760
" />
<path d="M6.6543 1.3760
L6.9567 1.3760
" />
<path d="M6.9567 1.3760
L7.0776 1.4365
" />
<path d="M7.0776 1.4365
L7.1381 1.4970
" />
<path d="M7.1381 1.4970
L7.1986 1.6179
" />
<path d="M7.1986 1.6179
L7.1986 1.7389
" />
<path d="M7.1986 1.7389
L7.1381 1.9203
" />
<path d="M7.1381 1.9203
L6.4124 2.6460
" />
<path d="M6.4124 2.6460
L7.1986 2.6460
" />
</g></g>
<g style="fill:none; 
stroke:#006464; stroke-width:0.1524; stroke-opacity:1; 
stroke-linecap:round; stroke-linejoin:round;">
<text x="2.7082" y="2.4285"
textLength="2.2594" font-size="1.6933" lengthAdjust="spacingAndGlyphs"
text-anchor="end" opacity="0" stroke-opacity="0">J?</text>
<g class="stroked-text"><desc>J?</desc>
<path d="M1.2170 1.1030
L1.2170 2.0102
" />
<path d="M1.2170 2.0102
L1.1565 2.1916
" />
<path d="M1.1565 2.1916
L1.0356 2.3126
" />
<path d="M1.0356 2.3126
L0.8541 2.3730
" />
<path d="M0.8541 2.3730
L0.7332 2.3730
" />
<path d="M2.0032 2.2521
L2.0636 2.3126
" />
<path d="M2.0636 2.3126
L2.0032 2.3730
" />
<path d="M2.0032 2.3730
L1.9427 2.3126
" />
<path d="M1.9427 2.3126
L2.0032 2.2521
" />
<path d="M2.0032 2.2521
L2.0032 2.3730
" />
<path d="M1.7613 1.1635
L1.8822 1.1030
" />
<path d="M1.8822 1.1030
L2.1846 1.1030
" />
<path d="M2.1846 1.1030
L2.3055 1.1635
" />
<path d="M2.3055 1.1635
L2.3660 1.2845
" />
<path d="M2.3660 1.2845
L2.3660 1.4054
" />
<path d="M2.3660 1.4054
L2.3055 1.5264
" />
<path d="M2.3055 1.5264
L2.2451 1.5868
" />
<path d="M2.2451 1.5868
L2.1241 1.6473
" />
<path d="M2.1241 1.6473
L2.0636 1.7078
" />
<path d="M2.0636 1.7078
L2.0032 1.8287
" />
<path d="M2.0032 1.8287
L2.0032 1.8892
" />
</g><text x="5.2482" y="6.2385"
textLength="11.4517" font-size="1.6933" lengthAdjust="spacingAndGlyphs"
text-anchor="start" opacity="0" stroke-opacity="0">U_FL_R_SMT</text>
<g class="stroked-text"><desc>U_FL_R_SMT</desc>
<path d="M5.6507 4.9130
L5.6507 5.9411
" />
<path d="M5.6507 5.9411
L5.7112 6.0621
" />
<path d="M5.7112 6.0621
L5.7717 6.1226
" />
<path d="M5.7717 6.1226
L5.8926 6.1830
" />
<path d="M5.8926 6.1830
L6.1345 6.1830
" />
<path d="M6.1345 6.1830
L6.2555 6.1226
" />
<path d="M6.2555 6.1226
L6.3160 6.0621
" />
<path d="M6.3160 6.0621
L6.3764 5.9411
" />
<path d="M6.3764 5.9411
L6.3764 4.9130
" />
<path d="M6.6789 6.3040
L7.6465 6.3040
" />
<path d="M8.3722 5.5178
L7.9488 5.5178
" />
<path d="M7.9488 6.1830
L7.9488 4.9130
" />
<path d="M7.9488 4.9130
L8.5536 4.9130
" />
<path d="M9.6422 6.1830
L9.0374 6.1830
" />
<path d="M9.0374 6.1830
L9.0374 4.9130
" />
<path d="M9.7632 6.3040
L10.7308 6.3040
" />
<path d="M11.7588 6.1830
L11.3355 5.5783
" />
<path d="M11.0331 6.1830
L11.0331 4.9130
" />
<path d="M11.0331 4.9130
L11.5169 4.9130
" />
<path d="M11.5169 4.9130
L11.6379 4.9735
" />
<path d="M11.6379 4.9735
L11.6984 5.0340
" />
<path d="M11.6984 5.0340
L11.7588 5.1549
" />
<path d="M11.7588 5.1549
L11.7588 5.3364
" />
<path d="M11.7588 5.3364
L11.6984 5.4573
" />
<path d="M11.6984 5.4573
L11.6379 5.5178
" />
<path d="M11.6379 5.5178
L11.5169 5.5783
" />
<path d="M11.5169 5.5783
L11.0331 5.5783
" />
<path d="M12.0008 6.3040
L12.9684 6.3040
" />
<path d="M13.2103 6.1226
L13.3917 6.1830
" />
<path d="M13.3917 6.1830
L13.6941 6.1830
" />
<path d="M13.6941 6.1830
L13.8150 6.1226
" />
<path d="M13.8150 6.1226
L13.8755 6.0621
" />
<path d="M13.8755 6.0621
L13.9360 5.9411
" />
<path d="M13.9360 5.9411
L13.9360 5.8202
" />
<path d="M13.9360 5.8202
L13.8755 5.6992
" />
<path d="M13.8755 5.6992
L13.8150 5.6387
" />
<path d="M13.8150 5.6387
L13.6941 5.5783
" />
<path d="M13.6941 5.5783
L13.4522 5.5178
" />
<path d="M13.4522 5.5178
L13.3312 5.4573
" />
<path d="M13.3312 5.4573
L13.2707 5.3968
" />
<path d="M13.2707 5.3968
L13.2103 5.2759
" />
<path d="M13.2103 5.2759
L13.2103 5.1549
" />
<path d="M13.2103 5.1549
L13.2707 5.0340
" />
<path d="M13.2707 5.0340
L13.3312 4.9735
" />
<path d="M13.3312 4.9735
L13.4522 4.9130
" />
<path d="M13.4522 4.9130
L13.7545 4.9130
" />
<path d="M13.7545 4.9130
L13.9360 4.9735
" />
<path d="M14.4802 6.1830
L14.4802 4.9130
" />
<path d="M14.4802 4.9130
L14.9036 5.8202
" />
<path d="M14.9036 5.8202
L15.3269 4.9130
" />
<path d="M15.3269 4.9130
L15.3269 6.1830
" />
<path d="M15.7502 4.9130
L16.4759 4.9130
" />
<path d="M16.1131 6.1830
L16.1131 4.9130
" />
</g></g> 
</svg>
