<?xml version="1.0" standalone="no"?>
 <!DOCTYPE svg PUBLIC "-//W3C//DTD SVG 1.1//EN" 
 "http://www.w3.org/Graphics/SVG/1.1/DTD/svg11.dtd"> 
<svg
  xmlns:svg="http://www.w3.org/2000/svg"
  xmlns="http://www.w3.org/2000/svg"
  xmlns:xlink="http://www.w3.org/1999/xlink"
  version="1.1"
  width="100%" height="100%" viewBox="0.0000 0.0000 10.0584 8.5598">
<title>SVG Image created as D_unit1.svg date 2026/04/15 06:58:24 </title>
  <desc>Image generated by Eeschema-SVG </desc>
<g style="fill:#000000; fill-opacity:1.0000;stroke:#000000; stroke-opacity:1.0000;
stroke-linecap:round; stroke-linejoin:round;"
 transform="translate(0 0) scale(1 1)">
<path style="fill:none; 
stroke:#840000; stroke-width:0.2540; stroke-opacity:1; 
stroke-linecap:round; stroke-linejoin:round;fill:none"
d="M 3.7592,3.0099
3.7592,5.5499
" /> 
<path style="fill:none; 
stroke:#840000; stroke-width:0.2540; stroke-opacity:1; 
stroke-linecap:round; stroke-linejoin:round;fill:none"
d="M 6.2992,3.0099
6.2992,5.5499
3.7592,4.2799
Z" /> 
<path style="fill:none; 
stroke:#840000; stroke-width:0.1524; stroke-opacity:1; 
stroke-linecap:round; stroke-linejoin:round;fill:none"
d="M 6.2992,4.2799
3.7592,4.2799
" /> 
</g>
<g style="fill:none; 
stroke:#840000; stroke-width:0.1524; stroke-opacity:1; 
stroke-linecap:round; stroke-linejoin:round;">
<path d="M3.7592 4.2799
L1.2192 4.2799
" />
<path d="M6.2992 4.2799
L8.8392 4.2799
" />
</g>
<g style="fill:none; 
stroke:#006464; stroke-width:0.1524; stroke-opacity:1; 
stroke-linecap:round; stroke-linejoin:round;">
<text x="0.0000" y="-1.9050"
textLength="2.5618" font-size="1.6933" lengthAdjust="spacingAndGlyphs"
text-anchor="middle" opacity="0" stroke-opacity="0">D?</text>
<g class="stroked-text"><desc>D?</desc>
<path d="M-0.8769 -1.9604
L-0.8769 -3.2304
" />
<path d="M-0.8769 -3.2304
L-0.5745 -3.2304
" />
<path d="M-0.5745 -3.2304
L-0.3931 -3.1699
" />
<path d="M-0.3931 -3.1699
L-0.2721 -3.0489
" />
<path d="M-0.2721 -3.0489
L-0.2116 -2.9280
" />
<path d="M-0.2116 -2.9280
L-0.1512 -2.6861
" />
<path d="M-0.1512 -2.6861
L-0.1512 -2.5047
" />
<path d="M-0.1512 -2.5047
L-0.2116 -2.2628
" />
<path d="M-0.2116 -2.2628
L-0.2721 -2.1418
" />
<path d="M-0.2721 -2.1418
L-0.3931 -2.0209
" />
<path d="M-0.3931 -2.0209
L-0.5745 -1.9604
" />
<path d="M-0.5745 -1.9604
L-0.8769 -1.9604
" />
<path d="M0.5745 -2.0813
L0.6349 -2.0209
" />
<path d="M0.6349 -2.0209
L0.5745 -1.9604
" />
<path d="M0.5745 -1.9604
L0.5140 -2.0209
" />
<path d="M0.5140 -2.0209
L0.5745 -2.0813
" />
<path d="M0.5745 -2.0813
L0.5745 -1.9604
" />
<path d="M0.3326 -3.1699
L0.4535 -3.2304
" />
<path d="M0.4535 -3.2304
L0.7559 -3.2304
" />
<path d="M0.7559 -3.2304
L0.8768 -3.1699
" />
<path d="M0.8768 -3.1699
L0.9373 -3.0489
" />
<path d="M0.9373 -3.0489
L0.9373 -2.9280
" />
<path d="M0.9373 -2.9280
L0.8768 -2.8070
" />
<path d="M0.8768 -2.8070
L0.8164 -2.7466
" />
<path d="M0.8164 -2.7466
L0.6954 -2.6861
" />
<path d="M0.6954 -2.6861
L0.6349 -2.6256
" />
<path d="M0.6349 -2.6256
L0.5745 -2.5047
" />
<path d="M0.5745 -2.5047
L0.5745 -2.4442
" />
</g><text x="0.0000" y="3.1750"
textLength="1.4732" font-size="1.6933" lengthAdjust="spacingAndGlyphs"
text-anchor="middle" opacity="0" stroke-opacity="0">D</text>
<g class="stroked-text"><desc>D</desc>
<path d="M-0.3326 3.1195
L-0.3326 1.8495
" />
<path d="M-0.3326 1.8495
L-0.0302 1.8495
" />
<path d="M-0.0302 1.8495
L0.1511 1.9100
" />
<path d="M0.1511 1.9100
L0.2721 2.0310
" />
<path d="M0.2721 2.0310
L0.3326 2.1519
" />
<path d="M0.3326 2.1519
L0.3930 2.3938
" />
<path d="M0.3930 2.3938
L0.3930 2.5752
" />
<path d="M0.3930 2.5752
L0.3326 2.8171
" />
<path d="M0.3326 2.8171
L0.2721 2.9381
" />
<path d="M0.2721 2.9381
L0.1511 3.0591
" />
<path d="M0.1511 3.0591
L-0.0302 3.1195
" />
<path d="M-0.0302 3.1195
L-0.3326 3.1195
" />
</g></g> 
</svg>
