<?xml version="1.0" standalone="no"?>
 <!DOCTYPE svg PUBLIC "-//W3C//DTD SVG 1.1//EN" 
 "http://www.w3.org/Graphics/SVG/1.1/DTD/svg11.dtd"> 
<svg
  xmlns:svg="http://www.w3.org/2000/svg"
  xmlns="http://www.w3.org/2000/svg"
  xmlns:xlink="http://www.w3.org/1999/xlink"
  version="1.1"
  width="100%" height="100%" viewBox="0.0000 0.0000 6.2738 10.0584">
<title>SVG Image created as L_unit1.svg date 2026/04/15 06:58:24 </title>
  <desc>Image generated by Eeschema-SVG </desc>
<g style="fill:#000000; fill-opacity:1.0000;stroke:#000000; stroke-opacity:1.0000;
stroke-linecap:round; stroke-linejoin:round;"
 transform="translate(0 0) scale(1 1)">
</g>
<g style="fill:none; 
stroke:#840000; stroke-width:0.1524; stroke-opacity:1; 
stroke-linecap:round; stroke-linejoin:round;">
<path d="M2.8194 3.7588 A0.6348 0.6348 0.0 0 0 2.8194 2.4892" />
<path d="M2.8194 5.0288 A0.6348 0.6348 0.0 0 0 2.8194 3.7592" />
<path d="M2.8194 6.2988 A0.6348 0.6348 0.0 0 0 2.8194 5.0292" />
<path d="M2.8194 7.5688 A0.6348 0.6348 0.0 0 0 2.8194 6.2992" />
<path d="M2.8194 2.4892
L2.8194 1.2192
" />
<path d="M2.8194 7.5692
L2.8194 8.8392
" />
</g>
<g style="fill:none; 
stroke:#006464; stroke-width:0.1524; stroke-opacity:1; 
stroke-linecap:round; stroke-linejoin:round;">
<g transform="rotate(-90.000000 -1.5875 0.0000)">
<text x="-1.5875" y="0.6350"
textLength="2.3199" font-size="1.6933" lengthAdjust="spacingAndGlyphs"
text-anchor="middle" opacity="0" stroke-opacity="0">L?</text>
</g>
<g class="stroked-text"><desc>L?</desc>
<path d="M-1.0079 0.1511
L-1.0079 0.7559
" />
<path d="M-1.0079 0.7559
L-2.2779 0.7559
" />
<path d="M-1.1288 -0.4536
L-1.0684 -0.5140
" />
<path d="M-1.0684 -0.5140
L-1.0079 -0.4536
" />
<path d="M-1.0079 -0.4536
L-1.0684 -0.3931
" />
<path d="M-1.0684 -0.3931
L-1.1288 -0.4536
" />
<path d="M-1.1288 -0.4536
L-1.0079 -0.4536
" />
<path d="M-2.2174 -0.2117
L-2.2779 -0.3326
" />
<path d="M-2.2779 -0.3326
L-2.2779 -0.6350
" />
<path d="M-2.2779 -0.6350
L-2.2174 -0.7559
" />
<path d="M-2.2174 -0.7559
L-2.0964 -0.8164
" />
<path d="M-2.0964 -0.8164
L-1.9755 -0.8164
" />
<path d="M-1.9755 -0.8164
L-1.8545 -0.7559
" />
<path d="M-1.8545 -0.7559
L-1.7941 -0.6955
" />
<path d="M-1.7941 -0.6955
L-1.7336 -0.5745
" />
<path d="M-1.7336 -0.5745
L-1.6731 -0.5140
" />
<path d="M-1.6731 -0.5140
L-1.5522 -0.4536
" />
<path d="M-1.5522 -0.4536
L-1.4917 -0.4536
" />
</g><g transform="rotate(-90.000000 1.5875 0.0000)">
<text x="1.5875" y="0.6350"
textLength="1.2313" font-size="1.6933" lengthAdjust="spacingAndGlyphs"
text-anchor="middle" opacity="0" stroke-opacity="0">L</text>
</g>
<g class="stroked-text"><desc>L</desc>
<path d="M2.1670 -0.3931
L2.1670 0.2116
" />
<path d="M2.1670 0.2116
L0.8970 0.2116
" />
</g></g> 
</svg>
