<?xml version="1.0" standalone="no"?>
 <!DOCTYPE svg PUBLIC "-//W3C//DTD SVG 1.1//EN" 
 "http://www.w3.org/Graphics/SVG/1.1/DTD/svg11.dtd"> 
<svg
  xmlns:svg="http://www.w3.org/2000/svg"
  xmlns="http://www.w3.org/2000/svg"
  xmlns:xlink="http://www.w3.org/1999/xlink"
  version="1.1"
  width="100%" height="100%" viewBox="0.0000 0.0000 4.3942 9.3980">
<title>SVG Image created as R_Small_unit1.svg date 2026/04/15 06:58:24 </title>
  <desc>Image generated by Eeschema-SVG </desc>
<g style="fill:#000000; fill-opacity:1.0000;stroke:#000000; stroke-opacity:1.0000;
stroke-linecap:round; stroke-linejoin:round;"
 transform="translate(0 0) scale(1 1)">
</g>
<g style="fill:none; 
stroke:#840000; stroke-width:0.2032; stroke-opacity:1; 
stroke-linecap:round; stroke-linejoin:round;">
<rect x="0.467100" y="2.921000" width="1.524000" height="3.556000" rx="0.000000" />
</g>
<g style="fill:none; 
stroke:#840000; stroke-width:0.1524; stroke-opacity:1; 
stroke-linecap:round; stroke-linejoin:round;">
<path d="M1.2291 2.9210
L1.2291 2.1590
" />
<path d="M1.2291 6.4770
L1.2291 7.2390
" />
</g>
<g style="fill:none; 
stroke:#006464; stroke-width:0.1524; stroke-opacity:1; 
stroke-linecap:round; stroke-linejoin:round;">
<g transform="rotate(-90.000000 -0.9680 0.0000)">
<text x="-0.9680" y="0.5080"
textLength="2.1409" font-size="1.3546" lengthAdjust="spacingAndGlyphs"
text-anchor="middle" opacity="0" stroke-opacity="0">R?</text>
</g>
<g class="stroked-text"><desc>R?</desc>
<path d="M-0.5060 0.1209
L-0.9897 0.4595
" />
<path d="M-0.5060 0.7014
L-1.5219 0.7014
" />
<path d="M-1.5219 0.7014
L-1.5219 0.3144
" />
<path d="M-1.5219 0.3144
L-1.4735 0.2176
" />
<path d="M-1.4735 0.2176
L-1.4251 0.1693
" />
<path d="M-1.4251 0.1693
L-1.3283 0.1209
" />
<path d="M-1.3283 0.1209
L-1.1832 0.1209
" />
<path d="M-1.1832 0.1209
L-1.0864 0.1693
" />
<path d="M-1.0864 0.1693
L-1.0381 0.2176
" />
<path d="M-1.0381 0.2176
L-0.9897 0.3144
" />
<path d="M-0.9897 0.3144
L-0.9897 0.7014
" />
<path d="M-0.6027 -0.4596
L-0.5543 -0.5080
" />
<path d="M-0.5543 -0.5080
L-0.5060 -0.4596
" />
<path d="M-0.5060 -0.4596
L-0.5543 -0.4112
" />
<path d="M-0.5543 -0.4112
L-0.6027 -0.4596
" />
<path d="M-0.6027 -0.4596
L-0.5060 -0.4596
" />
<path d="M-1.4735 -0.2661
L-1.5219 -0.3628
" />
<path d="M-1.5219 -0.3628
L-1.5219 -0.6047
" />
<path d="M-1.5219 -0.6047
L-1.4735 -0.7015
" />
<path d="M-1.4735 -0.7015
L-1.3767 -0.7499
" />
<path d="M-1.3767 -0.7499
L-1.2800 -0.7499
" />
<path d="M-1.2800 -0.7499
L-1.1832 -0.7015
" />
<path d="M-1.1832 -0.7015
L-1.1348 -0.6531
" />
<path d="M-1.1348 -0.6531
L-1.0864 -0.5564
" />
<path d="M-1.0864 -0.5564
L-1.0381 -0.5080
" />
<path d="M-1.0381 -0.5080
L-0.9414 -0.4596
" />
<path d="M-0.9414 -0.4596
L-0.8930 -0.4596
" />
</g><g transform="rotate(-90.000000 0.8100 0.0000)">
<text x="0.8100" y="0.6350"
textLength="7.8230" font-size="1.6933" lengthAdjust="spacingAndGlyphs"
text-anchor="middle" opacity="0" stroke-opacity="0">R_Small</text>
</g>
<g class="stroked-text"><desc>R_Small</desc>
<path d="M1.3895 2.7818
L0.7848 3.2051
" />
<path d="M1.3895 3.5075
L0.1195 3.5075
" />
<path d="M0.1195 3.5075
L0.1195 3.0237
" />
<path d="M0.1195 3.0237
L0.1800 2.9027
" />
<path d="M0.1800 2.9027
L0.2405 2.8422
" />
<path d="M0.2405 2.8422
L0.3614 2.7818
" />
<path d="M0.3614 2.7818
L0.5429 2.7818
" />
<path d="M0.5429 2.7818
L0.6638 2.8422
" />
<path d="M0.6638 2.8422
L0.7243 2.9027
" />
<path d="M0.7243 2.9027
L0.7848 3.0237
" />
<path d="M0.7848 3.0237
L0.7848 3.5075
" />
<path d="M1.5105 2.5399
L1.5105 1.5722
" />
<path d="M1.3291 1.3303
L1.3895 1.1489
" />
<path d="M1.3895 1.1489
L1.3895 0.8465
" />
<path d="M1.3895 0.8465
L1.3291 0.7256
" />
<path d="M1.3291 0.7256
L1.2686 0.6651
" />
<path d="M1.2686 0.6651
L1.1476 0.6046
" />
<path d="M1.1476 0.6046
L1.0267 0.6046
" />
<path d="M1.0267 0.6046
L0.9057 0.6651
" />
<path d="M0.9057 0.6651
L0.8452 0.7256
" />
<path d="M0.8452 0.7256
L0.7848 0.8465
" />
<path d="M0.7848 0.8465
L0.7243 1.0884
" />
<path d="M0.7243 1.0884
L0.6638 1.2094
" />
<path d="M0.6638 1.2094
L0.6033 1.2699
" />
<path d="M0.6033 1.2699
L0.4824 1.3303
" />
<path d="M0.4824 1.3303
L0.3614 1.3303
" />
<path d="M0.3614 1.3303
L0.2405 1.2699
" />
<path d="M0.2405 1.2699
L0.1800 1.2094
" />
<path d="M0.1800 1.2094
L0.1195 1.0884
" />
<path d="M0.1195 1.0884
L0.1195 0.7861
" />
<path d="M0.1195 0.7861
L0.1800 0.6046
" />
<path d="M1.3895 0.0604
L0.5429 0.0604
" />
<path d="M0.6638 0.0604
L0.6033 0.0000
" />
<path d="M0.6033 0.0000
L0.5429 -0.1210
" />
<path d="M0.5429 -0.1210
L0.5429 -0.3024
" />
<path d="M0.5429 -0.3024
L0.6033 -0.4233
" />
<path d="M0.6033 -0.4233
L0.7243 -0.4838
" />
<path d="M0.7243 -0.4838
L1.3895 -0.4838
" />
<path d="M0.7243 -0.4838
L0.6033 -0.5443
" />
<path d="M0.6033 -0.5443
L0.5429 -0.6652
" />
<path d="M0.5429 -0.6652
L0.5429 -0.8467
" />
<path d="M0.5429 -0.8467
L0.6033 -0.9676
" />
<path d="M0.6033 -0.9676
L0.7243 -1.0281
" />
<path d="M0.7243 -1.0281
L1.3895 -1.0281
" />
<path d="M1.3895 -2.1771
L0.7243 -2.1771
" />
<path d="M0.7243 -2.1771
L0.6033 -2.1166
" />
<path d="M0.6033 -2.1166
L0.5429 -1.9957
" />
<path d="M0.5429 -1.9957
L0.5429 -1.7538
" />
<path d="M0.5429 -1.7538
L0.6033 -1.6328
" />
<path d="M1.3291 -2.1771
L1.3895 -2.0562
" />
<path d="M1.3895 -2.0562
L1.3895 -1.7538
" />
<path d="M1.3895 -1.7538
L1.3291 -1.6328
" />
<path d="M1.3291 -1.6328
L1.2081 -1.5724
" />
<path d="M1.2081 -1.5724
L1.0871 -1.5724
" />
<path d="M1.0871 -1.5724
L0.9662 -1.6328
" />
<path d="M0.9662 -1.6328
L0.9057 -1.7538
" />
<path d="M0.9057 -1.7538
L0.9057 -2.0562
" />
<path d="M0.9057 -2.0562
L0.8452 -2.1771
" />
<path d="M1.3895 -2.9633
L1.3291 -2.8423
" />
<path d="M1.3291 -2.8423
L1.2081 -2.7818
" />
<path d="M1.2081 -2.7818
L0.1195 -2.7818
" />
<path d="M1.3895 -3.6285
L1.3291 -3.5075
" />
<path d="M1.3291 -3.5075
L1.2081 -3.4470
" />
<path d="M1.2081 -3.4470
L0.1195 -3.4470
" />
</g></g> 
</svg>
