<?xml version="1.0" standalone="no"?>
 <!DOCTYPE svg PUBLIC "-//W3C//DTD SVG 1.1//EN" 
 "http://www.w3.org/Graphics/SVG/1.1/DTD/svg11.dtd"> 
<svg
  xmlns:svg="http://www.w3.org/2000/svg"
  xmlns="http://www.w3.org/2000/svg"
  xmlns:xlink="http://www.w3.org/1999/xlink"
  xmlns:inkscape="http://www.inkscape.org/namespaces/inkscape"
  version="1.1"
  width="100%" height="100%" viewBox="0.000000 0.000000 16.484600 3.784600">
<title>SVG Image created as C_0201_0603Metric_L.svg date 2026-04-15T16:07:40 </title>
  <desc>Image generated by PCBNEW </desc>
<g style="fill:#000000; fill-opacity:1.000000;stroke:#000000; stroke-opacity:1.000000;
stroke-linecap:round; stroke-linejoin:round;"
 transform="translate(0 0) scale(1 1)">
<path style="fill:#C83434; fill-opacity:1.000000; stroke:none;fill-rule:evenodd;"
d="M 7.718048,1.814000
7.724461,1.781759
7.742724,1.754426
7.770057,1.736163
7.802298,1.729750
8.045798,1.729750
8.078039,1.736163
8.105372,1.754426
8.123635,1.781759
8.130048,1.814000
8.130048,1.982500
8.123635,2.014741
8.105372,2.042074
8.078039,2.060337
8.045798,2.066750
7.802298,2.066750
7.770057,2.060337
7.742724,2.042074
7.724461,2.014741
7.718048,1.982500
Z" /> 
<path style="fill:#C83434; fill-opacity:1.000000; stroke:none;fill-rule:evenodd;"
d="M 8.358048,1.814000
8.364461,1.781759
8.382724,1.754426
8.410057,1.736163
8.442298,1.729750
8.685798,1.729750
8.718039,1.736163
8.745372,1.754426
8.763635,1.781759
8.770048,1.814000
8.770048,1.982500
8.763635,2.014741
8.745372,2.042074
8.718039,2.060337
8.685798,2.066750
8.442298,2.066750
8.410057,2.060337
8.382724,2.042074
8.364461,2.014741
8.358048,1.982500
Z" /> 
<path style="fill:#D864FF; fill-opacity:0.400000; stroke:none;fill-rule:evenodd;"
d="M 7.718048,1.814000
7.724461,1.781759
7.742724,1.754426
7.770057,1.736163
7.802298,1.729750
8.045798,1.729750
8.078039,1.736163
8.105372,1.754426
8.123635,1.781759
8.130048,1.814000
8.130048,1.982500
8.123635,2.014741
8.105372,2.042074
8.078039,2.060337
8.045798,2.066750
7.802298,2.066750
7.770057,2.060337
7.742724,2.042074
7.724461,2.014741
7.718048,1.982500
Z" /> 
<path style="fill:#D864FF; fill-opacity:0.400000; stroke:none;fill-rule:evenodd;"
d="M 8.358048,1.814000
8.364461,1.781759
8.382724,1.754426
8.410057,1.736163
8.442298,1.729750
8.685798,1.729750
8.718039,1.736163
8.745372,1.754426
8.763635,1.781759
8.770048,1.814000
8.770048,1.982500
8.763635,2.014741
8.745372,2.042074
8.718039,2.060337
8.685798,2.066750
8.442298,2.066750
8.410057,2.060337
8.382724,2.042074
8.364461,2.014741
8.358048,1.982500
Z" /> 
<path style="fill:#B4A09A; fill-opacity:0.900000; stroke:none;fill-rule:evenodd;"
d="M 7.740048,1.797750
7.746100,1.767327
7.763333,1.741535
7.789125,1.724302
7.819548,1.718250
7.978548,1.718250
8.008971,1.724302
8.034763,1.741535
8.051996,1.767327
8.058048,1.797750
8.058048,1.998750
8.051996,2.029173
8.034763,2.054965
8.008971,2.072198
7.978548,2.078250
7.819548,2.078250
7.789125,2.072198
7.763333,2.054965
7.746100,2.029173
7.740048,1.998750
Z" /> 
<path style="fill:#B4A09A; fill-opacity:0.900000; stroke:none;fill-rule:evenodd;"
d="M 8.430048,1.797750
8.436100,1.767327
8.453333,1.741535
8.479125,1.724302
8.509548,1.718250
8.668548,1.718250
8.698971,1.724302
8.724763,1.741535
8.741996,1.767327
8.748048,1.797750
8.748048,1.998750
8.741996,2.029173
8.724763,2.054965
8.698971,2.072198
8.668548,2.078250
8.509548,2.078250
8.479125,2.072198
8.453333,2.054965
8.436100,2.029173
8.430048,1.998750
Z" /> 
</g>
<g style="fill:none; 
stroke:#F2EDA1; stroke-width:0.150000; stroke-opacity:1; 
stroke-linecap:round; stroke-linejoin:round;">
<text x="8.244048" y="1.348250"
textLength="4.535715" font-size="1.333333" lengthAdjust="spacingAndGlyphs"
text-anchor="middle" opacity="0" stroke-opacity="0">REF**</text>
<g class="stroked-text"><desc>REF**</desc>
<path d="M6.910715 1.303070
L6.577382 0.826879
" />
<path d="M6.339287 1.303070
L6.339287 0.303070
" />
<path d="M6.339287 0.303070
L6.720239 0.303070
" />
<path d="M6.720239 0.303070
L6.815477 0.350689
" />
<path d="M6.815477 0.350689
L6.863096 0.398308
" />
<path d="M6.863096 0.398308
L6.910715 0.493546
" />
<path d="M6.910715 0.493546
L6.910715 0.636403
" />
<path d="M6.910715 0.636403
L6.863096 0.731641
" />
<path d="M6.863096 0.731641
L6.815477 0.779260
" />
<path d="M6.815477 0.779260
L6.720239 0.826879
" />
<path d="M6.720239 0.826879
L6.339287 0.826879
" />
<path d="M7.339287 0.779260
L7.672620 0.779260
" />
<path d="M7.815477 1.303070
L7.339287 1.303070
" />
<path d="M7.339287 1.303070
L7.339287 0.303070
" />
<path d="M7.339287 0.303070
L7.815477 0.303070
" />
<path d="M8.577381 0.779260
L8.244048 0.779260
" />
<path d="M8.244048 1.303070
L8.244048 0.303070
" />
<path d="M8.244048 0.303070
L8.720238 0.303070
" />
<path d="M9.244048 0.303070
L9.244048 0.541165
" />
<path d="M9.005953 0.445927
L9.244048 0.541165
" />
<path d="M9.244048 0.541165
L9.482143 0.445927
" />
<path d="M9.101191 0.731641
L9.244048 0.541165
" />
<path d="M9.244048 0.541165
L9.386905 0.731641
" />
<path d="M10.005953 0.303070
L10.005953 0.541165
" />
<path d="M9.767858 0.445927
L10.005953 0.541165
" />
<path d="M10.005953 0.541165
L10.244048 0.445927
" />
<path d="M9.863096 0.731641
L10.005953 0.541165
" />
<path d="M10.005953 0.541165
L10.148810 0.731641
" />
</g><path style="fill:none; 
stroke:#FF26E2; stroke-width:0.050000; stroke-opacity:1; 
stroke-linecap:round; stroke-linejoin:round;fill:none"
d="M 7.674048,1.678250
8.814048,1.678250
8.814048,2.118250
7.674048,2.118250
Z" /> 
</g>
<g style="fill:none; 
stroke:#AFAFAF; stroke-width:0.150000; stroke-opacity:1; 
stroke-linecap:round; stroke-linejoin:round;">
<text x="8.244048" y="3.448250"
textLength="16.488097" font-size="1.333333" lengthAdjust="spacingAndGlyphs"
text-anchor="middle" opacity="0" stroke-opacity="0">C_0201_0603Metric_L</text>
<g class="stroked-text"><desc>C_0201_0603Metric_L</desc>
<path d="M0.934524 3.307830
L0.886905 3.355450
" />
<path d="M0.886905 3.355450
L0.744048 3.403069
" />
<path d="M0.744048 3.403069
L0.648810 3.403069
" />
<path d="M0.648810 3.403069
L0.505953 3.355450
" />
<path d="M0.505953 3.355450
L0.410715 3.260211
" />
<path d="M0.410715 3.260211
L0.363096 3.164973
" />
<path d="M0.363096 3.164973
L0.315477 2.974497
" />
<path d="M0.315477 2.974497
L0.315477 2.831640
" />
<path d="M0.315477 2.831640
L0.363096 2.641164
" />
<path d="M0.363096 2.641164
L0.410715 2.545926
" />
<path d="M0.410715 2.545926
L0.505953 2.450688
" />
<path d="M0.505953 2.450688
L0.648810 2.403069
" />
<path d="M0.648810 2.403069
L0.744048 2.403069
" />
<path d="M0.744048 2.403069
L0.886905 2.450688
" />
<path d="M0.886905 2.450688
L0.934524 2.498307
" />
<path d="M1.125000 3.498307
L1.886905 3.498307
" />
<path d="M2.315477 2.403069
L2.410715 2.403069
" />
<path d="M2.410715 2.403069
L2.505953 2.450688
" />
<path d="M2.505953 2.450688
L2.553572 2.498307
" />
<path d="M2.553572 2.498307
L2.601191 2.593545
" />
<path d="M2.601191 2.593545
L2.648810 2.784021
" />
<path d="M2.648810 2.784021
L2.648810 3.022116
" />
<path d="M2.648810 3.022116
L2.601191 3.212592
" />
<path d="M2.601191 3.212592
L2.553572 3.307830
" />
<path d="M2.553572 3.307830
L2.505953 3.355450
" />
<path d="M2.505953 3.355450
L2.410715 3.403069
" />
<path d="M2.410715 3.403069
L2.315477 3.403069
" />
<path d="M2.315477 3.403069
L2.220239 3.355450
" />
<path d="M2.220239 3.355450
L2.172620 3.307830
" />
<path d="M2.172620 3.307830
L2.125001 3.212592
" />
<path d="M2.125001 3.212592
L2.077382 3.022116
" />
<path d="M2.077382 3.022116
L2.077382 2.784021
" />
<path d="M2.077382 2.784021
L2.125001 2.593545
" />
<path d="M2.125001 2.593545
L2.172620 2.498307
" />
<path d="M2.172620 2.498307
L2.220239 2.450688
" />
<path d="M2.220239 2.450688
L2.315477 2.403069
" />
<path d="M3.029763 2.498307
L3.077382 2.450688
" />
<path d="M3.077382 2.450688
L3.172620 2.403069
" />
<path d="M3.172620 2.403069
L3.410715 2.403069
" />
<path d="M3.410715 2.403069
L3.505953 2.450688
" />
<path d="M3.505953 2.450688
L3.553572 2.498307
" />
<path d="M3.553572 2.498307
L3.601191 2.593545
" />
<path d="M3.601191 2.593545
L3.601191 2.688783
" />
<path d="M3.601191 2.688783
L3.553572 2.831640
" />
<path d="M3.553572 2.831640
L2.982144 3.403069
" />
<path d="M2.982144 3.403069
L3.601191 3.403069
" />
<path d="M4.220239 2.403069
L4.315477 2.403069
" />
<path d="M4.315477 2.403069
L4.410715 2.450688
" />
<path d="M4.410715 2.450688
L4.458334 2.498307
" />
<path d="M4.458334 2.498307
L4.505953 2.593545
" />
<path d="M4.505953 2.593545
L4.553572 2.784021
" />
<path d="M4.553572 2.784021
L4.553572 3.022116
" />
<path d="M4.553572 3.022116
L4.505953 3.212592
" />
<path d="M4.505953 3.212592
L4.458334 3.307830
" />
<path d="M4.458334 3.307830
L4.410715 3.355450
" />
<path d="M4.410715 3.355450
L4.315477 3.403069
" />
<path d="M4.315477 3.403069
L4.220239 3.403069
" />
<path d="M4.220239 3.403069
L4.125001 3.355450
" />
<path d="M4.125001 3.355450
L4.077382 3.307830
" />
<path d="M4.077382 3.307830
L4.029763 3.212592
" />
<path d="M4.029763 3.212592
L3.982144 3.022116
" />
<path d="M3.982144 3.022116
L3.982144 2.784021
" />
<path d="M3.982144 2.784021
L4.029763 2.593545
" />
<path d="M4.029763 2.593545
L4.077382 2.498307
" />
<path d="M4.077382 2.498307
L4.125001 2.450688
" />
<path d="M4.125001 2.450688
L4.220239 2.403069
" />
<path d="M5.505953 3.403069
L4.934525 3.403069
" />
<path d="M5.220239 3.403069
L5.220239 2.403069
" />
<path d="M5.220239 2.403069
L5.125001 2.545926
" />
<path d="M5.125001 2.545926
L5.029763 2.641164
" />
<path d="M5.029763 2.641164
L4.934525 2.688783
" />
<path d="M5.696429 3.498307
L6.458334 3.498307
" />
<path d="M6.886906 2.403069
L6.982144 2.403069
" />
<path d="M6.982144 2.403069
L7.077382 2.450688
" />
<path d="M7.077382 2.450688
L7.125001 2.498307
" />
<path d="M7.125001 2.498307
L7.172620 2.593545
" />
<path d="M7.172620 2.593545
L7.220239 2.784021
" />
<path d="M7.220239 2.784021
L7.220239 3.022116
" />
<path d="M7.220239 3.022116
L7.172620 3.212592
" />
<path d="M7.172620 3.212592
L7.125001 3.307830
" />
<path d="M7.125001 3.307830
L7.077382 3.355450
" />
<path d="M7.077382 3.355450
L6.982144 3.403069
" />
<path d="M6.982144 3.403069
L6.886906 3.403069
" />
<path d="M6.886906 3.403069
L6.791668 3.355450
" />
<path d="M6.791668 3.355450
L6.744049 3.307830
" />
<path d="M6.744049 3.307830
L6.696430 3.212592
" />
<path d="M6.696430 3.212592
L6.648811 3.022116
" />
<path d="M6.648811 3.022116
L6.648811 2.784021
" />
<path d="M6.648811 2.784021
L6.696430 2.593545
" />
<path d="M6.696430 2.593545
L6.744049 2.498307
" />
<path d="M6.744049 2.498307
L6.791668 2.450688
" />
<path d="M6.791668 2.450688
L6.886906 2.403069
" />
<path d="M8.077382 2.403069
L7.886906 2.403069
" />
<path d="M7.886906 2.403069
L7.791668 2.450688
" />
<path d="M7.791668 2.450688
L7.744049 2.498307
" />
<path d="M7.744049 2.498307
L7.648811 2.641164
" />
<path d="M7.648811 2.641164
L7.601192 2.831640
" />
<path d="M7.601192 2.831640
L7.601192 3.212592
" />
<path d="M7.601192 3.212592
L7.648811 3.307830
" />
<path d="M7.648811 3.307830
L7.696430 3.355450
" />
<path d="M7.696430 3.355450
L7.791668 3.403069
" />
<path d="M7.791668 3.403069
L7.982144 3.403069
" />
<path d="M7.982144 3.403069
L8.077382 3.355450
" />
<path d="M8.077382 3.355450
L8.125001 3.307830
" />
<path d="M8.125001 3.307830
L8.172620 3.212592
" />
<path d="M8.172620 3.212592
L8.172620 2.974497
" />
<path d="M8.172620 2.974497
L8.125001 2.879259
" />
<path d="M8.125001 2.879259
L8.077382 2.831640
" />
<path d="M8.077382 2.831640
L7.982144 2.784021
" />
<path d="M7.982144 2.784021
L7.791668 2.784021
" />
<path d="M7.791668 2.784021
L7.696430 2.831640
" />
<path d="M7.696430 2.831640
L7.648811 2.879259
" />
<path d="M7.648811 2.879259
L7.601192 2.974497
" />
<path d="M8.791667 2.403069
L8.886905 2.403069
" />
<path d="M8.886905 2.403069
L8.982143 2.450688
" />
<path d="M8.982143 2.450688
L9.029762 2.498307
" />
<path d="M9.029762 2.498307
L9.077381 2.593545
" />
<path d="M9.077381 2.593545
L9.125000 2.784021
" />
<path d="M9.125000 2.784021
L9.125000 3.022116
" />
<path d="M9.125000 3.022116
L9.077381 3.212592
" />
<path d="M9.077381 3.212592
L9.029762 3.307830
" />
<path d="M9.029762 3.307830
L8.982143 3.355450
" />
<path d="M8.982143 3.355450
L8.886905 3.403069
" />
<path d="M8.886905 3.403069
L8.791667 3.403069
" />
<path d="M8.791667 3.403069
L8.696429 3.355450
" />
<path d="M8.696429 3.355450
L8.648810 3.307830
" />
<path d="M8.648810 3.307830
L8.601191 3.212592
" />
<path d="M8.601191 3.212592
L8.553572 3.022116
" />
<path d="M8.553572 3.022116
L8.553572 2.784021
" />
<path d="M8.553572 2.784021
L8.601191 2.593545
" />
<path d="M8.601191 2.593545
L8.648810 2.498307
" />
<path d="M8.648810 2.498307
L8.696429 2.450688
" />
<path d="M8.696429 2.450688
L8.791667 2.403069
" />
<path d="M9.458334 2.403069
L10.077381 2.403069
" />
<path d="M10.077381 2.403069
L9.744048 2.784021
" />
<path d="M9.744048 2.784021
L9.886905 2.784021
" />
<path d="M9.886905 2.784021
L9.982143 2.831640
" />
<path d="M9.982143 2.831640
L10.029762 2.879259
" />
<path d="M10.029762 2.879259
L10.077381 2.974497
" />
<path d="M10.077381 2.974497
L10.077381 3.212592
" />
<path d="M10.077381 3.212592
L10.029762 3.307830
" />
<path d="M10.029762 3.307830
L9.982143 3.355450
" />
<path d="M9.982143 3.355450
L9.886905 3.403069
" />
<path d="M9.886905 3.403069
L9.601191 3.403069
" />
<path d="M9.601191 3.403069
L9.505953 3.355450
" />
<path d="M9.505953 3.355450
L9.458334 3.307830
" />
<path d="M10.505953 3.403069
L10.505953 2.403069
" />
<path d="M10.505953 2.403069
L10.839286 3.117354
" />
<path d="M10.839286 3.117354
L11.172619 2.403069
" />
<path d="M11.172619 2.403069
L11.172619 3.403069
" />
<path d="M12.029762 3.355450
L11.934524 3.403069
" />
<path d="M11.934524 3.403069
L11.744048 3.403069
" />
<path d="M11.744048 3.403069
L11.648810 3.355450
" />
<path d="M11.648810 3.355450
L11.601191 3.260211
" />
<path d="M11.601191 3.260211
L11.601191 2.879259
" />
<path d="M11.601191 2.879259
L11.648810 2.784021
" />
<path d="M11.648810 2.784021
L11.744048 2.736402
" />
<path d="M11.744048 2.736402
L11.934524 2.736402
" />
<path d="M11.934524 2.736402
L12.029762 2.784021
" />
<path d="M12.029762 2.784021
L12.077381 2.879259
" />
<path d="M12.077381 2.879259
L12.077381 2.974497
" />
<path d="M12.077381 2.974497
L11.601191 3.069735
" />
<path d="M12.363096 2.736402
L12.744048 2.736402
" />
<path d="M12.505953 2.403069
L12.505953 3.260211
" />
<path d="M12.505953 3.260211
L12.553572 3.355450
" />
<path d="M12.553572 3.355450
L12.648810 3.403069
" />
<path d="M12.648810 3.403069
L12.744048 3.403069
" />
<path d="M13.077382 3.403069
L13.077382 2.736402
" />
<path d="M13.077382 2.926878
L13.125001 2.831640
" />
<path d="M13.125001 2.831640
L13.172620 2.784021
" />
<path d="M13.172620 2.784021
L13.267858 2.736402
" />
<path d="M13.267858 2.736402
L13.363096 2.736402
" />
<path d="M13.696430 3.403069
L13.696430 2.736402
" />
<path d="M13.696430 2.403069
L13.648811 2.450688
" />
<path d="M13.648811 2.450688
L13.696430 2.498307
" />
<path d="M13.696430 2.498307
L13.744049 2.450688
" />
<path d="M13.744049 2.450688
L13.696430 2.403069
" />
<path d="M13.696430 2.403069
L13.696430 2.498307
" />
<path d="M14.601191 3.355450
L14.505953 3.403069
" />
<path d="M14.505953 3.403069
L14.315477 3.403069
" />
<path d="M14.315477 3.403069
L14.220239 3.355450
" />
<path d="M14.220239 3.355450
L14.172620 3.307830
" />
<path d="M14.172620 3.307830
L14.125001 3.212592
" />
<path d="M14.125001 3.212592
L14.125001 2.926878
" />
<path d="M14.125001 2.926878
L14.172620 2.831640
" />
<path d="M14.172620 2.831640
L14.220239 2.784021
" />
<path d="M14.220239 2.784021
L14.315477 2.736402
" />
<path d="M14.315477 2.736402
L14.505953 2.736402
" />
<path d="M14.505953 2.736402
L14.601191 2.784021
" />
<path d="M14.791668 3.498307
L15.553572 3.498307
" />
<path d="M16.267858 3.403069
L15.791668 3.403069
" />
<path d="M15.791668 3.403069
L15.791668 2.403069
" />
</g></g>
<g style="fill:none; 
stroke:#AFAFAF; stroke-width:0.040000; stroke-opacity:1; 
stroke-linecap:round; stroke-linejoin:round;">
<text x="8.244048" y="1.343250"
textLength="1.141428" font-size="0.333333" lengthAdjust="spacingAndGlyphs"
text-anchor="middle" opacity="0" stroke-opacity="0">REF**</text>
<g class="stroked-text"><desc>REF**</desc>
<path d="M7.910715 1.331825
L7.827382 1.212778
" />
<path d="M7.767858 1.331825
L7.767858 1.081825
" />
<path d="M7.767858 1.081825
L7.863096 1.081825
" />
<path d="M7.863096 1.081825
L7.886906 1.093730
" />
<path d="M7.886906 1.093730
L7.898811 1.105635
" />
<path d="M7.898811 1.105635
L7.910715 1.129444
" />
<path d="M7.910715 1.129444
L7.910715 1.165159
" />
<path d="M7.910715 1.165159
L7.898811 1.188968
" />
<path d="M7.898811 1.188968
L7.886906 1.200873
" />
<path d="M7.886906 1.200873
L7.863096 1.212778
" />
<path d="M7.863096 1.212778
L7.767858 1.212778
" />
<path d="M8.017858 1.200873
L8.101192 1.200873
" />
<path d="M8.136906 1.331825
L8.017858 1.331825
" />
<path d="M8.017858 1.331825
L8.017858 1.081825
" />
<path d="M8.017858 1.081825
L8.136906 1.081825
" />
<path d="M8.327381 1.200873
L8.244048 1.200873
" />
<path d="M8.244048 1.331825
L8.244048 1.081825
" />
<path d="M8.244048 1.081825
L8.363095 1.081825
" />
<path d="M8.494048 1.081825
L8.494048 1.141349
" />
<path d="M8.434524 1.117540
L8.494048 1.141349
" />
<path d="M8.494048 1.141349
L8.553571 1.117540
" />
<path d="M8.458333 1.188968
L8.494048 1.141349
" />
<path d="M8.494048 1.141349
L8.529762 1.188968
" />
<path d="M8.684524 1.081825
L8.684524 1.141349
" />
<path d="M8.625000 1.117540
L8.684524 1.141349
" />
<path d="M8.684524 1.141349
L8.744047 1.117540
" />
<path d="M8.648809 1.188968
L8.684524 1.141349
" />
<path d="M8.684524 1.141349
L8.720238 1.188968
" />
</g><path style="fill:none; 
stroke:#AFAFAF; stroke-width:0.100000; stroke-opacity:1; 
stroke-linecap:round; stroke-linejoin:round;fill:none"
d="M 7.944048,1.748250
8.544048,1.748250
8.544048,2.048250
7.944048,2.048250
Z" /> 
</g> 
</svg>
