<?xml version="1.0" standalone="no"?>
 <!DOCTYPE svg PUBLIC "-//W3C//DTD SVG 1.1//EN" 
 "http://www.w3.org/Graphics/SVG/1.1/DTD/svg11.dtd"> 
<svg
  xmlns:svg="http://www.w3.org/2000/svg"
  xmlns="http://www.w3.org/2000/svg"
  xmlns:xlink="http://www.w3.org/1999/xlink"
  xmlns:inkscape="http://www.inkscape.org/namespaces/inkscape"
  version="1.1"
  width="100%" height="100%" viewBox="0.000000 0.000000 16.484600 4.013200">
<title>SVG Image created as C_0402_1005Metric_L.svg date 2026-04-15T16:02:05 </title>
  <desc>Image generated by PCBNEW </desc>
<g style="fill:#000000; fill-opacity:1.000000;stroke:#000000; stroke-opacity:1.000000;
stroke-linecap:round; stroke-linejoin:round;"
 transform="translate(0 0) scale(1 1)">
<path style="fill:#C83434; fill-opacity:1.000000; stroke:none;fill-rule:evenodd;"
d="M 7.470548,1.861500
7.481719,1.805341
7.513530,1.757732
7.561139,1.725921
7.617298,1.714750
7.910798,1.714750
7.966957,1.725921
8.014566,1.757732
8.046377,1.805341
8.057548,1.861500
8.057548,2.155000
8.046377,2.211159
8.014566,2.258768
7.966957,2.290579
7.910798,2.301750
7.617298,2.301750
7.561139,2.290579
7.513530,2.258768
7.481719,2.211159
7.470548,2.155000
Z" /> 
<path style="fill:#C83434; fill-opacity:1.000000; stroke:none;fill-rule:evenodd;"
d="M 8.430548,1.861500
8.441719,1.805341
8.473530,1.757732
8.521139,1.725921
8.577298,1.714750
8.870798,1.714750
8.926957,1.725921
8.974566,1.757732
9.006377,1.805341
9.017548,1.861500
9.017548,2.155000
9.006377,2.211159
8.974566,2.258768
8.926957,2.290579
8.870798,2.301750
8.577298,2.301750
8.521139,2.290579
8.473530,2.258768
8.441719,2.211159
8.430548,2.155000
Z" /> 
<path style="fill:#D864FF; fill-opacity:0.400000; stroke:none;fill-rule:evenodd;"
d="M 7.470548,1.861500
7.481719,1.805341
7.513530,1.757732
7.561139,1.725921
7.617298,1.714750
7.910798,1.714750
7.966957,1.725921
8.014566,1.757732
8.046377,1.805341
8.057548,1.861500
8.057548,2.155000
8.046377,2.211159
8.014566,2.258768
7.966957,2.290579
7.910798,2.301750
7.617298,2.301750
7.561139,2.290579
7.513530,2.258768
7.481719,2.211159
7.470548,2.155000
Z" /> 
<path style="fill:#D864FF; fill-opacity:0.400000; stroke:none;fill-rule:evenodd;"
d="M 8.430548,1.861500
8.441719,1.805341
8.473530,1.757732
8.521139,1.725921
8.577298,1.714750
8.870798,1.714750
8.926957,1.725921
8.974566,1.757732
9.006377,1.805341
9.017548,1.861500
9.017548,2.155000
9.006377,2.211159
8.974566,2.258768
8.926957,2.290579
8.870798,2.301750
8.577298,2.301750
8.521139,2.290579
8.473530,2.258768
8.441719,2.211159
8.430548,2.155000
Z" /> 
<path style="fill:#B4A09A; fill-opacity:0.900000; stroke:none;fill-rule:evenodd;"
d="M 7.470548,1.861500
7.481719,1.805341
7.513530,1.757732
7.561139,1.725921
7.617298,1.714750
7.910798,1.714750
7.966957,1.725921
8.014566,1.757732
8.046377,1.805341
8.057548,1.861500
8.057548,2.155000
8.046377,2.211159
8.014566,2.258768
7.966957,2.290579
7.910798,2.301750
7.617298,2.301750
7.561139,2.290579
7.513530,2.258768
7.481719,2.211159
7.470548,2.155000
Z" /> 
<path style="fill:#B4A09A; fill-opacity:0.900000; stroke:none;fill-rule:evenodd;"
d="M 8.430548,1.861500
8.441719,1.805341
8.473530,1.757732
8.521139,1.725921
8.577298,1.714750
8.870798,1.714750
8.926957,1.725921
8.974566,1.757732
9.006377,1.805341
9.017548,1.861500
9.017548,2.155000
9.006377,2.211159
8.974566,2.258768
8.926957,2.290579
8.870798,2.301750
8.577298,2.301750
8.521139,2.290579
8.473530,2.258768
8.441719,2.211159
8.430548,2.155000
Z" /> 
</g>
<g style="fill:none; 
stroke:#F2EDA1; stroke-width:0.150000; stroke-opacity:1; 
stroke-linecap:round; stroke-linejoin:round;">
<text x="8.244048" y="1.348250"
textLength="4.535715" font-size="1.333333" lengthAdjust="spacingAndGlyphs"
text-anchor="middle" opacity="0" stroke-opacity="0">REF**</text>
<g class="stroked-text"><desc>REF**</desc>
<path d="M6.910715 1.303070
L6.577382 0.826879
" />
<path d="M6.339287 1.303070
L6.339287 0.303070
" />
<path d="M6.339287 0.303070
L6.720239 0.303070
" />
<path d="M6.720239 0.303070
L6.815477 0.350689
" />
<path d="M6.815477 0.350689
L6.863096 0.398308
" />
<path d="M6.863096 0.398308
L6.910715 0.493546
" />
<path d="M6.910715 0.493546
L6.910715 0.636403
" />
<path d="M6.910715 0.636403
L6.863096 0.731641
" />
<path d="M6.863096 0.731641
L6.815477 0.779260
" />
<path d="M6.815477 0.779260
L6.720239 0.826879
" />
<path d="M6.720239 0.826879
L6.339287 0.826879
" />
<path d="M7.339287 0.779260
L7.672620 0.779260
" />
<path d="M7.815477 1.303070
L7.339287 1.303070
" />
<path d="M7.339287 1.303070
L7.339287 0.303070
" />
<path d="M7.339287 0.303070
L7.815477 0.303070
" />
<path d="M8.577381 0.779260
L8.244048 0.779260
" />
<path d="M8.244048 1.303070
L8.244048 0.303070
" />
<path d="M8.244048 0.303070
L8.720238 0.303070
" />
<path d="M9.244048 0.303070
L9.244048 0.541165
" />
<path d="M9.005953 0.445927
L9.244048 0.541165
" />
<path d="M9.244048 0.541165
L9.482143 0.445927
" />
<path d="M9.101191 0.731641
L9.244048 0.541165
" />
<path d="M9.244048 0.541165
L9.386905 0.731641
" />
<path d="M10.005953 0.303070
L10.005953 0.541165
" />
<path d="M9.767858 0.445927
L10.005953 0.541165
" />
<path d="M10.005953 0.541165
L10.244048 0.445927
" />
<path d="M9.863096 0.731641
L10.005953 0.541165
" />
<path d="M10.005953 0.541165
L10.148810 0.731641
" />
</g></g>
<g style="fill:none; 
stroke:#F2EDA1; stroke-width:0.120000; stroke-opacity:1; 
stroke-linecap:round; stroke-linejoin:round;">
<path d="M8.136212 1.648250
L8.351884 1.648250
" />
<path d="M8.136212 2.368250
L8.351884 2.368250
" />
<path style="fill:none; 
stroke:#FF26E2; stroke-width:0.050000; stroke-opacity:1; 
stroke-linecap:round; stroke-linejoin:round;fill:none"
d="M 7.454048,1.668250
9.034048,1.668250
9.034048,2.348250
7.454048,2.348250
Z" /> 
</g>
<g style="fill:none; 
stroke:#AFAFAF; stroke-width:0.150000; stroke-opacity:1; 
stroke-linecap:round; stroke-linejoin:round;">
<text x="8.244048" y="3.668250"
textLength="16.488097" font-size="1.333333" lengthAdjust="spacingAndGlyphs"
text-anchor="middle" opacity="0" stroke-opacity="0">C_0402_1005Metric_L</text>
<g class="stroked-text"><desc>C_0402_1005Metric_L</desc>
<path d="M0.934524 3.527830
L0.886905 3.575450
" />
<path d="M0.886905 3.575450
L0.744048 3.623069
" />
<path d="M0.744048 3.623069
L0.648810 3.623069
" />
<path d="M0.648810 3.623069
L0.505953 3.575450
" />
<path d="M0.505953 3.575450
L0.410715 3.480211
" />
<path d="M0.410715 3.480211
L0.363096 3.384973
" />
<path d="M0.363096 3.384973
L0.315477 3.194497
" />
<path d="M0.315477 3.194497
L0.315477 3.051640
" />
<path d="M0.315477 3.051640
L0.363096 2.861164
" />
<path d="M0.363096 2.861164
L0.410715 2.765926
" />
<path d="M0.410715 2.765926
L0.505953 2.670688
" />
<path d="M0.505953 2.670688
L0.648810 2.623069
" />
<path d="M0.648810 2.623069
L0.744048 2.623069
" />
<path d="M0.744048 2.623069
L0.886905 2.670688
" />
<path d="M0.886905 2.670688
L0.934524 2.718307
" />
<path d="M1.125000 3.718307
L1.886905 3.718307
" />
<path d="M2.315477 2.623069
L2.410715 2.623069
" />
<path d="M2.410715 2.623069
L2.505953 2.670688
" />
<path d="M2.505953 2.670688
L2.553572 2.718307
" />
<path d="M2.553572 2.718307
L2.601191 2.813545
" />
<path d="M2.601191 2.813545
L2.648810 3.004021
" />
<path d="M2.648810 3.004021
L2.648810 3.242116
" />
<path d="M2.648810 3.242116
L2.601191 3.432592
" />
<path d="M2.601191 3.432592
L2.553572 3.527830
" />
<path d="M2.553572 3.527830
L2.505953 3.575450
" />
<path d="M2.505953 3.575450
L2.410715 3.623069
" />
<path d="M2.410715 3.623069
L2.315477 3.623069
" />
<path d="M2.315477 3.623069
L2.220239 3.575450
" />
<path d="M2.220239 3.575450
L2.172620 3.527830
" />
<path d="M2.172620 3.527830
L2.125001 3.432592
" />
<path d="M2.125001 3.432592
L2.077382 3.242116
" />
<path d="M2.077382 3.242116
L2.077382 3.004021
" />
<path d="M2.077382 3.004021
L2.125001 2.813545
" />
<path d="M2.125001 2.813545
L2.172620 2.718307
" />
<path d="M2.172620 2.718307
L2.220239 2.670688
" />
<path d="M2.220239 2.670688
L2.315477 2.623069
" />
<path d="M3.505953 2.956402
L3.505953 3.623069
" />
<path d="M3.267858 2.575450
L3.029763 3.289735
" />
<path d="M3.029763 3.289735
L3.648810 3.289735
" />
<path d="M4.220239 2.623069
L4.315477 2.623069
" />
<path d="M4.315477 2.623069
L4.410715 2.670688
" />
<path d="M4.410715 2.670688
L4.458334 2.718307
" />
<path d="M4.458334 2.718307
L4.505953 2.813545
" />
<path d="M4.505953 2.813545
L4.553572 3.004021
" />
<path d="M4.553572 3.004021
L4.553572 3.242116
" />
<path d="M4.553572 3.242116
L4.505953 3.432592
" />
<path d="M4.505953 3.432592
L4.458334 3.527830
" />
<path d="M4.458334 3.527830
L4.410715 3.575450
" />
<path d="M4.410715 3.575450
L4.315477 3.623069
" />
<path d="M4.315477 3.623069
L4.220239 3.623069
" />
<path d="M4.220239 3.623069
L4.125001 3.575450
" />
<path d="M4.125001 3.575450
L4.077382 3.527830
" />
<path d="M4.077382 3.527830
L4.029763 3.432592
" />
<path d="M4.029763 3.432592
L3.982144 3.242116
" />
<path d="M3.982144 3.242116
L3.982144 3.004021
" />
<path d="M3.982144 3.004021
L4.029763 2.813545
" />
<path d="M4.029763 2.813545
L4.077382 2.718307
" />
<path d="M4.077382 2.718307
L4.125001 2.670688
" />
<path d="M4.125001 2.670688
L4.220239 2.623069
" />
<path d="M4.934525 2.718307
L4.982144 2.670688
" />
<path d="M4.982144 2.670688
L5.077382 2.623069
" />
<path d="M5.077382 2.623069
L5.315477 2.623069
" />
<path d="M5.315477 2.623069
L5.410715 2.670688
" />
<path d="M5.410715 2.670688
L5.458334 2.718307
" />
<path d="M5.458334 2.718307
L5.505953 2.813545
" />
<path d="M5.505953 2.813545
L5.505953 2.908783
" />
<path d="M5.505953 2.908783
L5.458334 3.051640
" />
<path d="M5.458334 3.051640
L4.886906 3.623069
" />
<path d="M4.886906 3.623069
L5.505953 3.623069
" />
<path d="M5.696429 3.718307
L6.458334 3.718307
" />
<path d="M7.220239 3.623069
L6.648811 3.623069
" />
<path d="M6.934525 3.623069
L6.934525 2.623069
" />
<path d="M6.934525 2.623069
L6.839287 2.765926
" />
<path d="M6.839287 2.765926
L6.744049 2.861164
" />
<path d="M6.744049 2.861164
L6.648811 2.908783
" />
<path d="M7.839287 2.623069
L7.934525 2.623069
" />
<path d="M7.934525 2.623069
L8.029763 2.670688
" />
<path d="M8.029763 2.670688
L8.077382 2.718307
" />
<path d="M8.077382 2.718307
L8.125001 2.813545
" />
<path d="M8.125001 2.813545
L8.172620 3.004021
" />
<path d="M8.172620 3.004021
L8.172620 3.242116
" />
<path d="M8.172620 3.242116
L8.125001 3.432592
" />
<path d="M8.125001 3.432592
L8.077382 3.527830
" />
<path d="M8.077382 3.527830
L8.029763 3.575450
" />
<path d="M8.029763 3.575450
L7.934525 3.623069
" />
<path d="M7.934525 3.623069
L7.839287 3.623069
" />
<path d="M7.839287 3.623069
L7.744049 3.575450
" />
<path d="M7.744049 3.575450
L7.696430 3.527830
" />
<path d="M7.696430 3.527830
L7.648811 3.432592
" />
<path d="M7.648811 3.432592
L7.601192 3.242116
" />
<path d="M7.601192 3.242116
L7.601192 3.004021
" />
<path d="M7.601192 3.004021
L7.648811 2.813545
" />
<path d="M7.648811 2.813545
L7.696430 2.718307
" />
<path d="M7.696430 2.718307
L7.744049 2.670688
" />
<path d="M7.744049 2.670688
L7.839287 2.623069
" />
<path d="M8.791667 2.623069
L8.886905 2.623069
" />
<path d="M8.886905 2.623069
L8.982143 2.670688
" />
<path d="M8.982143 2.670688
L9.029762 2.718307
" />
<path d="M9.029762 2.718307
L9.077381 2.813545
" />
<path d="M9.077381 2.813545
L9.125000 3.004021
" />
<path d="M9.125000 3.004021
L9.125000 3.242116
" />
<path d="M9.125000 3.242116
L9.077381 3.432592
" />
<path d="M9.077381 3.432592
L9.029762 3.527830
" />
<path d="M9.029762 3.527830
L8.982143 3.575450
" />
<path d="M8.982143 3.575450
L8.886905 3.623069
" />
<path d="M8.886905 3.623069
L8.791667 3.623069
" />
<path d="M8.791667 3.623069
L8.696429 3.575450
" />
<path d="M8.696429 3.575450
L8.648810 3.527830
" />
<path d="M8.648810 3.527830
L8.601191 3.432592
" />
<path d="M8.601191 3.432592
L8.553572 3.242116
" />
<path d="M8.553572 3.242116
L8.553572 3.004021
" />
<path d="M8.553572 3.004021
L8.601191 2.813545
" />
<path d="M8.601191 2.813545
L8.648810 2.718307
" />
<path d="M8.648810 2.718307
L8.696429 2.670688
" />
<path d="M8.696429 2.670688
L8.791667 2.623069
" />
<path d="M10.029762 2.623069
L9.553572 2.623069
" />
<path d="M9.553572 2.623069
L9.505953 3.099259
" />
<path d="M9.505953 3.099259
L9.553572 3.051640
" />
<path d="M9.553572 3.051640
L9.648810 3.004021
" />
<path d="M9.648810 3.004021
L9.886905 3.004021
" />
<path d="M9.886905 3.004021
L9.982143 3.051640
" />
<path d="M9.982143 3.051640
L10.029762 3.099259
" />
<path d="M10.029762 3.099259
L10.077381 3.194497
" />
<path d="M10.077381 3.194497
L10.077381 3.432592
" />
<path d="M10.077381 3.432592
L10.029762 3.527830
" />
<path d="M10.029762 3.527830
L9.982143 3.575450
" />
<path d="M9.982143 3.575450
L9.886905 3.623069
" />
<path d="M9.886905 3.623069
L9.648810 3.623069
" />
<path d="M9.648810 3.623069
L9.553572 3.575450
" />
<path d="M9.553572 3.575450
L9.505953 3.527830
" />
<path d="M10.505953 3.623069
L10.505953 2.623069
" />
<path d="M10.505953 2.623069
L10.839286 3.337354
" />
<path d="M10.839286 3.337354
L11.172619 2.623069
" />
<path d="M11.172619 2.623069
L11.172619 3.623069
" />
<path d="M12.029762 3.575450
L11.934524 3.623069
" />
<path d="M11.934524 3.623069
L11.744048 3.623069
" />
<path d="M11.744048 3.623069
L11.648810 3.575450
" />
<path d="M11.648810 3.575450
L11.601191 3.480211
" />
<path d="M11.601191 3.480211
L11.601191 3.099259
" />
<path d="M11.601191 3.099259
L11.648810 3.004021
" />
<path d="M11.648810 3.004021
L11.744048 2.956402
" />
<path d="M11.744048 2.956402
L11.934524 2.956402
" />
<path d="M11.934524 2.956402
L12.029762 3.004021
" />
<path d="M12.029762 3.004021
L12.077381 3.099259
" />
<path d="M12.077381 3.099259
L12.077381 3.194497
" />
<path d="M12.077381 3.194497
L11.601191 3.289735
" />
<path d="M12.363096 2.956402
L12.744048 2.956402
" />
<path d="M12.505953 2.623069
L12.505953 3.480211
" />
<path d="M12.505953 3.480211
L12.553572 3.575450
" />
<path d="M12.553572 3.575450
L12.648810 3.623069
" />
<path d="M12.648810 3.623069
L12.744048 3.623069
" />
<path d="M13.077382 3.623069
L13.077382 2.956402
" />
<path d="M13.077382 3.146878
L13.125001 3.051640
" />
<path d="M13.125001 3.051640
L13.172620 3.004021
" />
<path d="M13.172620 3.004021
L13.267858 2.956402
" />
<path d="M13.267858 2.956402
L13.363096 2.956402
" />
<path d="M13.696430 3.623069
L13.696430 2.956402
" />
<path d="M13.696430 2.623069
L13.648811 2.670688
" />
<path d="M13.648811 2.670688
L13.696430 2.718307
" />
<path d="M13.696430 2.718307
L13.744049 2.670688
" />
<path d="M13.744049 2.670688
L13.696430 2.623069
" />
<path d="M13.696430 2.623069
L13.696430 2.718307
" />
<path d="M14.601191 3.575450
L14.505953 3.623069
" />
<path d="M14.505953 3.623069
L14.315477 3.623069
" />
<path d="M14.315477 3.623069
L14.220239 3.575450
" />
<path d="M14.220239 3.575450
L14.172620 3.527830
" />
<path d="M14.172620 3.527830
L14.125001 3.432592
" />
<path d="M14.125001 3.432592
L14.125001 3.146878
" />
<path d="M14.125001 3.146878
L14.172620 3.051640
" />
<path d="M14.172620 3.051640
L14.220239 3.004021
" />
<path d="M14.220239 3.004021
L14.315477 2.956402
" />
<path d="M14.315477 2.956402
L14.505953 2.956402
" />
<path d="M14.505953 2.956402
L14.601191 3.004021
" />
<path d="M14.791668 3.718307
L15.553572 3.718307
" />
<path d="M16.267858 3.623069
L15.791668 3.623069
" />
<path d="M15.791668 3.623069
L15.791668 2.623069
" />
</g></g>
<g style="fill:none; 
stroke:#AFAFAF; stroke-width:0.040000; stroke-opacity:1; 
stroke-linecap:round; stroke-linejoin:round;">
<text x="8.244048" y="2.133250"
textLength="1.141428" font-size="0.333333" lengthAdjust="spacingAndGlyphs"
text-anchor="middle" opacity="0" stroke-opacity="0">REF**</text>
<g class="stroked-text"><desc>REF**</desc>
<path d="M7.910715 2.121824
L7.827382 2.002778
" />
<path d="M7.767858 2.121824
L7.767858 1.871825
" />
<path d="M7.767858 1.871825
L7.863096 1.871825
" />
<path d="M7.863096 1.871825
L7.886906 1.883730
" />
<path d="M7.886906 1.883730
L7.898811 1.895635
" />
<path d="M7.898811 1.895635
L7.910715 1.919444
" />
<path d="M7.910715 1.919444
L7.910715 1.955159
" />
<path d="M7.910715 1.955159
L7.898811 1.978968
" />
<path d="M7.898811 1.978968
L7.886906 1.990873
" />
<path d="M7.886906 1.990873
L7.863096 2.002778
" />
<path d="M7.863096 2.002778
L7.767858 2.002778
" />
<path d="M8.017858 1.990873
L8.101192 1.990873
" />
<path d="M8.136906 2.121824
L8.017858 2.121824
" />
<path d="M8.017858 2.121824
L8.017858 1.871825
" />
<path d="M8.017858 1.871825
L8.136906 1.871825
" />
<path d="M8.327381 1.990873
L8.244048 1.990873
" />
<path d="M8.244048 2.121824
L8.244048 1.871825
" />
<path d="M8.244048 1.871825
L8.363095 1.871825
" />
<path d="M8.494048 1.871825
L8.494048 1.931349
" />
<path d="M8.434524 1.907540
L8.494048 1.931349
" />
<path d="M8.494048 1.931349
L8.553571 1.907540
" />
<path d="M8.458333 1.978968
L8.494048 1.931349
" />
<path d="M8.494048 1.931349
L8.529762 1.978968
" />
<path d="M8.684524 1.871825
L8.684524 1.931349
" />
<path d="M8.625000 1.907540
L8.684524 1.931349
" />
<path d="M8.684524 1.931349
L8.744047 1.907540
" />
<path d="M8.648809 1.978968
L8.684524 1.931349
" />
<path d="M8.684524 1.931349
L8.720238 1.978968
" />
</g><path style="fill:none; 
stroke:#AFAFAF; stroke-width:0.100000; stroke-opacity:1; 
stroke-linecap:round; stroke-linejoin:round;fill:none"
d="M 7.744048,1.758250
8.744048,1.758250
8.744048,2.258250
7.744048,2.258250
Z" /> 
</g> 
</svg>
