<?xml version="1.0" standalone="no"?>
 <!DOCTYPE svg PUBLIC "-//W3C//DTD SVG 1.1//EN" 
 "http://www.w3.org/Graphics/SVG/1.1/DTD/svg11.dtd"> 
<svg
  xmlns:svg="http://www.w3.org/2000/svg"
  xmlns="http://www.w3.org/2000/svg"
  xmlns:xlink="http://www.w3.org/1999/xlink"
  xmlns:inkscape="http://www.inkscape.org/namespaces/inkscape"
  version="1.1"
  width="100%" height="100%" viewBox="0.000000 0.000000 14.909800 4.013200">
<title>SVG Image created as C_0402_1005Metric.svg date 2026-04-15T16:02:05 </title>
  <desc>Image generated by PCBNEW </desc>
<g style="fill:#000000; fill-opacity:1.000000;stroke:#000000; stroke-opacity:1.000000;
stroke-linecap:round; stroke-linejoin:round;"
 transform="translate(0 0) scale(1 1)">
<path style="fill:#C83434; fill-opacity:1.000000; stroke:none;fill-rule:evenodd;"
d="M 6.698334,1.838250
6.708991,1.784674
6.739339,1.739255
6.784758,1.708907
6.838334,1.698250
7.118334,1.698250
7.171910,1.708907
7.217329,1.739255
7.247677,1.784674
7.258334,1.838250
7.258334,2.178250
7.247677,2.231826
7.217329,2.277245
7.171910,2.307593
7.118334,2.318250
6.838334,2.318250
6.784758,2.307593
6.739339,2.277245
6.708991,2.231826
6.698334,2.178250
Z" /> 
<path style="fill:#C83434; fill-opacity:1.000000; stroke:none;fill-rule:evenodd;"
d="M 7.658334,1.838250
7.668991,1.784674
7.699339,1.739255
7.744758,1.708907
7.798334,1.698250
8.078334,1.698250
8.131910,1.708907
8.177329,1.739255
8.207677,1.784674
8.218334,1.838250
8.218334,2.178250
8.207677,2.231826
8.177329,2.277245
8.131910,2.307593
8.078334,2.318250
7.798334,2.318250
7.744758,2.307593
7.699339,2.277245
7.668991,2.231826
7.658334,2.178250
Z" /> 
<path style="fill:#D864FF; fill-opacity:0.400000; stroke:none;fill-rule:evenodd;"
d="M 6.698334,1.838250
6.708991,1.784674
6.739339,1.739255
6.784758,1.708907
6.838334,1.698250
7.118334,1.698250
7.171910,1.708907
7.217329,1.739255
7.247677,1.784674
7.258334,1.838250
7.258334,2.178250
7.247677,2.231826
7.217329,2.277245
7.171910,2.307593
7.118334,2.318250
6.838334,2.318250
6.784758,2.307593
6.739339,2.277245
6.708991,2.231826
6.698334,2.178250
Z" /> 
<path style="fill:#D864FF; fill-opacity:0.400000; stroke:none;fill-rule:evenodd;"
d="M 7.658334,1.838250
7.668991,1.784674
7.699339,1.739255
7.744758,1.708907
7.798334,1.698250
8.078334,1.698250
8.131910,1.708907
8.177329,1.739255
8.207677,1.784674
8.218334,1.838250
8.218334,2.178250
8.207677,2.231826
8.177329,2.277245
8.131910,2.307593
8.078334,2.318250
7.798334,2.318250
7.744758,2.307593
7.699339,2.277245
7.668991,2.231826
7.658334,2.178250
Z" /> 
<path style="fill:#B4A09A; fill-opacity:0.900000; stroke:none;fill-rule:evenodd;"
d="M 6.698334,1.838250
6.708991,1.784674
6.739339,1.739255
6.784758,1.708907
6.838334,1.698250
7.118334,1.698250
7.171910,1.708907
7.217329,1.739255
7.247677,1.784674
7.258334,1.838250
7.258334,2.178250
7.247677,2.231826
7.217329,2.277245
7.171910,2.307593
7.118334,2.318250
6.838334,2.318250
6.784758,2.307593
6.739339,2.277245
6.708991,2.231826
6.698334,2.178250
Z" /> 
<path style="fill:#B4A09A; fill-opacity:0.900000; stroke:none;fill-rule:evenodd;"
d="M 7.658334,1.838250
7.668991,1.784674
7.699339,1.739255
7.744758,1.708907
7.798334,1.698250
8.078334,1.698250
8.131910,1.708907
8.177329,1.739255
8.207677,1.784674
8.218334,1.838250
8.218334,2.178250
8.207677,2.231826
8.177329,2.277245
8.131910,2.307593
8.078334,2.318250
7.798334,2.318250
7.744758,2.307593
7.699339,2.277245
7.668991,2.231826
7.658334,2.178250
Z" /> 
</g>
<g style="fill:none; 
stroke:#F2EDA1; stroke-width:0.150000; stroke-opacity:1; 
stroke-linecap:round; stroke-linejoin:round;">
<text x="7.458334" y="1.348250"
textLength="4.535715" font-size="1.333333" lengthAdjust="spacingAndGlyphs"
text-anchor="middle" opacity="0" stroke-opacity="0">REF**</text>
<g class="stroked-text"><desc>REF**</desc>
<path d="M6.125001 1.303070
L5.791668 0.826879
" />
<path d="M5.553573 1.303070
L5.553573 0.303070
" />
<path d="M5.553573 0.303070
L5.934525 0.303070
" />
<path d="M5.934525 0.303070
L6.029763 0.350689
" />
<path d="M6.029763 0.350689
L6.077382 0.398308
" />
<path d="M6.077382 0.398308
L6.125001 0.493546
" />
<path d="M6.125001 0.493546
L6.125001 0.636403
" />
<path d="M6.125001 0.636403
L6.077382 0.731641
" />
<path d="M6.077382 0.731641
L6.029763 0.779260
" />
<path d="M6.029763 0.779260
L5.934525 0.826879
" />
<path d="M5.934525 0.826879
L5.553573 0.826879
" />
<path d="M6.553573 0.779260
L6.886906 0.779260
" />
<path d="M7.029763 1.303070
L6.553573 1.303070
" />
<path d="M6.553573 1.303070
L6.553573 0.303070
" />
<path d="M6.553573 0.303070
L7.029763 0.303070
" />
<path d="M7.791667 0.779260
L7.458334 0.779260
" />
<path d="M7.458334 1.303070
L7.458334 0.303070
" />
<path d="M7.458334 0.303070
L7.934524 0.303070
" />
<path d="M8.458334 0.303070
L8.458334 0.541165
" />
<path d="M8.220239 0.445927
L8.458334 0.541165
" />
<path d="M8.458334 0.541165
L8.696429 0.445927
" />
<path d="M8.315477 0.731641
L8.458334 0.541165
" />
<path d="M8.458334 0.541165
L8.601191 0.731641
" />
<path d="M9.220239 0.303070
L9.220239 0.541165
" />
<path d="M8.982144 0.445927
L9.220239 0.541165
" />
<path d="M9.220239 0.541165
L9.458334 0.445927
" />
<path d="M9.077382 0.731641
L9.220239 0.541165
" />
<path d="M9.220239 0.541165
L9.363096 0.731641
" />
</g></g>
<g style="fill:none; 
stroke:#F2EDA1; stroke-width:0.120000; stroke-opacity:1; 
stroke-linecap:round; stroke-linejoin:round;">
<path d="M7.350498 1.648250
L7.566170 1.648250
" />
<path d="M7.350498 2.368250
L7.566170 2.368250
" />
<path style="fill:none; 
stroke:#FF26E2; stroke-width:0.050000; stroke-opacity:1; 
stroke-linecap:round; stroke-linejoin:round;fill:none"
d="M 6.548334,1.548250
8.368334,1.548250
8.368334,2.468250
6.548334,2.468250
Z" /> 
</g>
<g style="fill:none; 
stroke:#AFAFAF; stroke-width:0.150000; stroke-opacity:1; 
stroke-linecap:round; stroke-linejoin:round;">
<text x="7.458334" y="3.668250"
textLength="14.916668" font-size="1.333333" lengthAdjust="spacingAndGlyphs"
text-anchor="middle" opacity="0" stroke-opacity="0">C_0402_1005Metric</text>
<g class="stroked-text"><desc>C_0402_1005Metric</desc>
<path d="M0.934524 3.527830
L0.886905 3.575450
" />
<path d="M0.886905 3.575450
L0.744048 3.623069
" />
<path d="M0.744048 3.623069
L0.648810 3.623069
" />
<path d="M0.648810 3.623069
L0.505953 3.575450
" />
<path d="M0.505953 3.575450
L0.410715 3.480211
" />
<path d="M0.410715 3.480211
L0.363096 3.384973
" />
<path d="M0.363096 3.384973
L0.315477 3.194497
" />
<path d="M0.315477 3.194497
L0.315477 3.051640
" />
<path d="M0.315477 3.051640
L0.363096 2.861164
" />
<path d="M0.363096 2.861164
L0.410715 2.765926
" />
<path d="M0.410715 2.765926
L0.505953 2.670688
" />
<path d="M0.505953 2.670688
L0.648810 2.623069
" />
<path d="M0.648810 2.623069
L0.744048 2.623069
" />
<path d="M0.744048 2.623069
L0.886905 2.670688
" />
<path d="M0.886905 2.670688
L0.934524 2.718307
" />
<path d="M1.125000 3.718307
L1.886905 3.718307
" />
<path d="M2.315477 2.623069
L2.410715 2.623069
" />
<path d="M2.410715 2.623069
L2.505953 2.670688
" />
<path d="M2.505953 2.670688
L2.553572 2.718307
" />
<path d="M2.553572 2.718307
L2.601191 2.813545
" />
<path d="M2.601191 2.813545
L2.648810 3.004021
" />
<path d="M2.648810 3.004021
L2.648810 3.242116
" />
<path d="M2.648810 3.242116
L2.601191 3.432592
" />
<path d="M2.601191 3.432592
L2.553572 3.527830
" />
<path d="M2.553572 3.527830
L2.505953 3.575450
" />
<path d="M2.505953 3.575450
L2.410715 3.623069
" />
<path d="M2.410715 3.623069
L2.315477 3.623069
" />
<path d="M2.315477 3.623069
L2.220239 3.575450
" />
<path d="M2.220239 3.575450
L2.172620 3.527830
" />
<path d="M2.172620 3.527830
L2.125001 3.432592
" />
<path d="M2.125001 3.432592
L2.077382 3.242116
" />
<path d="M2.077382 3.242116
L2.077382 3.004021
" />
<path d="M2.077382 3.004021
L2.125001 2.813545
" />
<path d="M2.125001 2.813545
L2.172620 2.718307
" />
<path d="M2.172620 2.718307
L2.220239 2.670688
" />
<path d="M2.220239 2.670688
L2.315477 2.623069
" />
<path d="M3.505953 2.956402
L3.505953 3.623069
" />
<path d="M3.267858 2.575450
L3.029763 3.289735
" />
<path d="M3.029763 3.289735
L3.648810 3.289735
" />
<path d="M4.220239 2.623069
L4.315477 2.623069
" />
<path d="M4.315477 2.623069
L4.410715 2.670688
" />
<path d="M4.410715 2.670688
L4.458334 2.718307
" />
<path d="M4.458334 2.718307
L4.505953 2.813545
" />
<path d="M4.505953 2.813545
L4.553572 3.004021
" />
<path d="M4.553572 3.004021
L4.553572 3.242116
" />
<path d="M4.553572 3.242116
L4.505953 3.432592
" />
<path d="M4.505953 3.432592
L4.458334 3.527830
" />
<path d="M4.458334 3.527830
L4.410715 3.575450
" />
<path d="M4.410715 3.575450
L4.315477 3.623069
" />
<path d="M4.315477 3.623069
L4.220239 3.623069
" />
<path d="M4.220239 3.623069
L4.125001 3.575450
" />
<path d="M4.125001 3.575450
L4.077382 3.527830
" />
<path d="M4.077382 3.527830
L4.029763 3.432592
" />
<path d="M4.029763 3.432592
L3.982144 3.242116
" />
<path d="M3.982144 3.242116
L3.982144 3.004021
" />
<path d="M3.982144 3.004021
L4.029763 2.813545
" />
<path d="M4.029763 2.813545
L4.077382 2.718307
" />
<path d="M4.077382 2.718307
L4.125001 2.670688
" />
<path d="M4.125001 2.670688
L4.220239 2.623069
" />
<path d="M4.934525 2.718307
L4.982144 2.670688
" />
<path d="M4.982144 2.670688
L5.077382 2.623069
" />
<path d="M5.077382 2.623069
L5.315477 2.623069
" />
<path d="M5.315477 2.623069
L5.410715 2.670688
" />
<path d="M5.410715 2.670688
L5.458334 2.718307
" />
<path d="M5.458334 2.718307
L5.505953 2.813545
" />
<path d="M5.505953 2.813545
L5.505953 2.908783
" />
<path d="M5.505953 2.908783
L5.458334 3.051640
" />
<path d="M5.458334 3.051640
L4.886906 3.623069
" />
<path d="M4.886906 3.623069
L5.505953 3.623069
" />
<path d="M5.696429 3.718307
L6.458334 3.718307
" />
<path d="M7.220239 3.623069
L6.648811 3.623069
" />
<path d="M6.934525 3.623069
L6.934525 2.623069
" />
<path d="M6.934525 2.623069
L6.839287 2.765926
" />
<path d="M6.839287 2.765926
L6.744049 2.861164
" />
<path d="M6.744049 2.861164
L6.648811 2.908783
" />
<path d="M7.839286 2.623069
L7.934524 2.623069
" />
<path d="M7.934524 2.623069
L8.029762 2.670688
" />
<path d="M8.029762 2.670688
L8.077381 2.718307
" />
<path d="M8.077381 2.718307
L8.125000 2.813545
" />
<path d="M8.125000 2.813545
L8.172619 3.004021
" />
<path d="M8.172619 3.004021
L8.172619 3.242116
" />
<path d="M8.172619 3.242116
L8.125000 3.432592
" />
<path d="M8.125000 3.432592
L8.077381 3.527830
" />
<path d="M8.077381 3.527830
L8.029762 3.575450
" />
<path d="M8.029762 3.575450
L7.934524 3.623069
" />
<path d="M7.934524 3.623069
L7.839286 3.623069
" />
<path d="M7.839286 3.623069
L7.744048 3.575450
" />
<path d="M7.744048 3.575450
L7.696429 3.527830
" />
<path d="M7.696429 3.527830
L7.648810 3.432592
" />
<path d="M7.648810 3.432592
L7.601191 3.242116
" />
<path d="M7.601191 3.242116
L7.601191 3.004021
" />
<path d="M7.601191 3.004021
L7.648810 2.813545
" />
<path d="M7.648810 2.813545
L7.696429 2.718307
" />
<path d="M7.696429 2.718307
L7.744048 2.670688
" />
<path d="M7.744048 2.670688
L7.839286 2.623069
" />
<path d="M8.791667 2.623069
L8.886905 2.623069
" />
<path d="M8.886905 2.623069
L8.982143 2.670688
" />
<path d="M8.982143 2.670688
L9.029762 2.718307
" />
<path d="M9.029762 2.718307
L9.077381 2.813545
" />
<path d="M9.077381 2.813545
L9.125000 3.004021
" />
<path d="M9.125000 3.004021
L9.125000 3.242116
" />
<path d="M9.125000 3.242116
L9.077381 3.432592
" />
<path d="M9.077381 3.432592
L9.029762 3.527830
" />
<path d="M9.029762 3.527830
L8.982143 3.575450
" />
<path d="M8.982143 3.575450
L8.886905 3.623069
" />
<path d="M8.886905 3.623069
L8.791667 3.623069
" />
<path d="M8.791667 3.623069
L8.696429 3.575450
" />
<path d="M8.696429 3.575450
L8.648810 3.527830
" />
<path d="M8.648810 3.527830
L8.601191 3.432592
" />
<path d="M8.601191 3.432592
L8.553572 3.242116
" />
<path d="M8.553572 3.242116
L8.553572 3.004021
" />
<path d="M8.553572 3.004021
L8.601191 2.813545
" />
<path d="M8.601191 2.813545
L8.648810 2.718307
" />
<path d="M8.648810 2.718307
L8.696429 2.670688
" />
<path d="M8.696429 2.670688
L8.791667 2.623069
" />
<path d="M10.029762 2.623069
L9.553572 2.623069
" />
<path d="M9.553572 2.623069
L9.505953 3.099259
" />
<path d="M9.505953 3.099259
L9.553572 3.051640
" />
<path d="M9.553572 3.051640
L9.648810 3.004021
" />
<path d="M9.648810 3.004021
L9.886905 3.004021
" />
<path d="M9.886905 3.004021
L9.982143 3.051640
" />
<path d="M9.982143 3.051640
L10.029762 3.099259
" />
<path d="M10.029762 3.099259
L10.077381 3.194497
" />
<path d="M10.077381 3.194497
L10.077381 3.432592
" />
<path d="M10.077381 3.432592
L10.029762 3.527830
" />
<path d="M10.029762 3.527830
L9.982143 3.575450
" />
<path d="M9.982143 3.575450
L9.886905 3.623069
" />
<path d="M9.886905 3.623069
L9.648810 3.623069
" />
<path d="M9.648810 3.623069
L9.553572 3.575450
" />
<path d="M9.553572 3.575450
L9.505953 3.527830
" />
<path d="M10.505953 3.623069
L10.505953 2.623069
" />
<path d="M10.505953 2.623069
L10.839286 3.337354
" />
<path d="M10.839286 3.337354
L11.172619 2.623069
" />
<path d="M11.172619 2.623069
L11.172619 3.623069
" />
<path d="M12.029762 3.575450
L11.934524 3.623069
" />
<path d="M11.934524 3.623069
L11.744048 3.623069
" />
<path d="M11.744048 3.623069
L11.648810 3.575450
" />
<path d="M11.648810 3.575450
L11.601191 3.480211
" />
<path d="M11.601191 3.480211
L11.601191 3.099259
" />
<path d="M11.601191 3.099259
L11.648810 3.004021
" />
<path d="M11.648810 3.004021
L11.744048 2.956402
" />
<path d="M11.744048 2.956402
L11.934524 2.956402
" />
<path d="M11.934524 2.956402
L12.029762 3.004021
" />
<path d="M12.029762 3.004021
L12.077381 3.099259
" />
<path d="M12.077381 3.099259
L12.077381 3.194497
" />
<path d="M12.077381 3.194497
L11.601191 3.289735
" />
<path d="M12.363096 2.956402
L12.744048 2.956402
" />
<path d="M12.505953 2.623069
L12.505953 3.480211
" />
<path d="M12.505953 3.480211
L12.553572 3.575450
" />
<path d="M12.553572 3.575450
L12.648810 3.623069
" />
<path d="M12.648810 3.623069
L12.744048 3.623069
" />
<path d="M13.077382 3.623069
L13.077382 2.956402
" />
<path d="M13.077382 3.146878
L13.125001 3.051640
" />
<path d="M13.125001 3.051640
L13.172620 3.004021
" />
<path d="M13.172620 3.004021
L13.267858 2.956402
" />
<path d="M13.267858 2.956402
L13.363096 2.956402
" />
<path d="M13.696430 3.623069
L13.696430 2.956402
" />
<path d="M13.696430 2.623069
L13.648811 2.670688
" />
<path d="M13.648811 2.670688
L13.696430 2.718307
" />
<path d="M13.696430 2.718307
L13.744049 2.670688
" />
<path d="M13.744049 2.670688
L13.696430 2.623069
" />
<path d="M13.696430 2.623069
L13.696430 2.718307
" />
<path d="M14.601191 3.575450
L14.505953 3.623069
" />
<path d="M14.505953 3.623069
L14.315477 3.623069
" />
<path d="M14.315477 3.623069
L14.220239 3.575450
" />
<path d="M14.220239 3.575450
L14.172620 3.527830
" />
<path d="M14.172620 3.527830
L14.125001 3.432592
" />
<path d="M14.125001 3.432592
L14.125001 3.146878
" />
<path d="M14.125001 3.146878
L14.172620 3.051640
" />
<path d="M14.172620 3.051640
L14.220239 3.004021
" />
<path d="M14.220239 3.004021
L14.315477 2.956402
" />
<path d="M14.315477 2.956402
L14.505953 2.956402
" />
<path d="M14.505953 2.956402
L14.601191 3.004021
" />
</g></g>
<g style="fill:none; 
stroke:#AFAFAF; stroke-width:0.040000; stroke-opacity:1; 
stroke-linecap:round; stroke-linejoin:round;">
<text x="7.458334" y="2.133250"
textLength="1.141428" font-size="0.333333" lengthAdjust="spacingAndGlyphs"
text-anchor="middle" opacity="0" stroke-opacity="0">REF**</text>
<g class="stroked-text"><desc>REF**</desc>
<path d="M7.125001 2.121824
L7.041668 2.002778
" />
<path d="M6.982144 2.121824
L6.982144 1.871825
" />
<path d="M6.982144 1.871825
L7.077382 1.871825
" />
<path d="M7.077382 1.871825
L7.101192 1.883730
" />
<path d="M7.101192 1.883730
L7.113097 1.895635
" />
<path d="M7.113097 1.895635
L7.125001 1.919444
" />
<path d="M7.125001 1.919444
L7.125001 1.955159
" />
<path d="M7.125001 1.955159
L7.113097 1.978968
" />
<path d="M7.113097 1.978968
L7.101192 1.990873
" />
<path d="M7.101192 1.990873
L7.077382 2.002778
" />
<path d="M7.077382 2.002778
L6.982144 2.002778
" />
<path d="M7.232144 1.990873
L7.315478 1.990873
" />
<path d="M7.351192 2.121824
L7.232144 2.121824
" />
<path d="M7.232144 2.121824
L7.232144 1.871825
" />
<path d="M7.232144 1.871825
L7.351192 1.871825
" />
<path d="M7.541667 1.990873
L7.458334 1.990873
" />
<path d="M7.458334 2.121824
L7.458334 1.871825
" />
<path d="M7.458334 1.871825
L7.577381 1.871825
" />
<path d="M7.708334 1.871825
L7.708334 1.931349
" />
<path d="M7.648810 1.907540
L7.708334 1.931349
" />
<path d="M7.708334 1.931349
L7.767857 1.907540
" />
<path d="M7.672619 1.978968
L7.708334 1.931349
" />
<path d="M7.708334 1.931349
L7.744048 1.978968
" />
<path d="M7.898810 1.871825
L7.898810 1.931349
" />
<path d="M7.839286 1.907540
L7.898810 1.931349
" />
<path d="M7.898810 1.931349
L7.958333 1.907540
" />
<path d="M7.863095 1.978968
L7.898810 1.931349
" />
<path d="M7.898810 1.931349
L7.934524 1.978968
" />
</g><path style="fill:none; 
stroke:#AFAFAF; stroke-width:0.100000; stroke-opacity:1; 
stroke-linecap:round; stroke-linejoin:round;fill:none"
d="M 6.958334,1.758250
7.958334,1.758250
7.958334,2.258250
6.958334,2.258250
Z" /> 
</g> 
</svg>
