<?xml version="1.0" standalone="no"?>
 <!DOCTYPE svg PUBLIC "-//W3C//DTD SVG 1.1//EN" 
 "http://www.w3.org/Graphics/SVG/1.1/DTD/svg11.dtd"> 
<svg
  xmlns:svg="http://www.w3.org/2000/svg"
  xmlns="http://www.w3.org/2000/svg"
  xmlns:xlink="http://www.w3.org/1999/xlink"
  xmlns:inkscape="http://www.inkscape.org/namespaces/inkscape"
  version="1.1"
  width="100%" height="100%" viewBox="0.000000 0.000000 16.281400 4.013200">
<title>SVG Image created as L_0402_1005Metric_L.svg date 2026-04-15T16:16:27 </title>
  <desc>Image generated by PCBNEW </desc>
<g style="fill:#000000; fill-opacity:1.000000;stroke:#000000; stroke-opacity:1.000000;
stroke-linecap:round; stroke-linejoin:round;"
 transform="translate(0 0) scale(1 1)">
<path style="fill:#C83434; fill-opacity:1.000000; stroke:none;fill-rule:evenodd;"
d="M 7.370310,1.871500
7.381481,1.815341
7.413292,1.767732
7.460901,1.735921
7.517060,1.724750
7.810560,1.724750
7.866719,1.735921
7.914328,1.767732
7.946139,1.815341
7.957310,1.871500
7.957310,2.165000
7.946139,2.221159
7.914328,2.268768
7.866719,2.300579
7.810560,2.311750
7.517060,2.311750
7.460901,2.300579
7.413292,2.268768
7.381481,2.221159
7.370310,2.165000
Z" /> 
<path style="fill:#C83434; fill-opacity:1.000000; stroke:none;fill-rule:evenodd;"
d="M 8.340310,1.871500
8.351481,1.815341
8.383292,1.767732
8.430901,1.735921
8.487060,1.724750
8.780560,1.724750
8.836719,1.735921
8.884328,1.767732
8.916139,1.815341
8.927310,1.871500
8.927310,2.165000
8.916139,2.221159
8.884328,2.268768
8.836719,2.300579
8.780560,2.311750
8.487060,2.311750
8.430901,2.300579
8.383292,2.268768
8.351481,2.221159
8.340310,2.165000
Z" /> 
<path style="fill:#D864FF; fill-opacity:0.400000; stroke:none;fill-rule:evenodd;"
d="M 7.370310,1.871500
7.381481,1.815341
7.413292,1.767732
7.460901,1.735921
7.517060,1.724750
7.810560,1.724750
7.866719,1.735921
7.914328,1.767732
7.946139,1.815341
7.957310,1.871500
7.957310,2.165000
7.946139,2.221159
7.914328,2.268768
7.866719,2.300579
7.810560,2.311750
7.517060,2.311750
7.460901,2.300579
7.413292,2.268768
7.381481,2.221159
7.370310,2.165000
Z" /> 
<path style="fill:#D864FF; fill-opacity:0.400000; stroke:none;fill-rule:evenodd;"
d="M 8.340310,1.871500
8.351481,1.815341
8.383292,1.767732
8.430901,1.735921
8.487060,1.724750
8.780560,1.724750
8.836719,1.735921
8.884328,1.767732
8.916139,1.815341
8.927310,1.871500
8.927310,2.165000
8.916139,2.221159
8.884328,2.268768
8.836719,2.300579
8.780560,2.311750
8.487060,2.311750
8.430901,2.300579
8.383292,2.268768
8.351481,2.221159
8.340310,2.165000
Z" /> 
<path style="fill:#B4A09A; fill-opacity:0.900000; stroke:none;fill-rule:evenodd;"
d="M 7.370310,1.871500
7.381481,1.815341
7.413292,1.767732
7.460901,1.735921
7.517060,1.724750
7.810560,1.724750
7.866719,1.735921
7.914328,1.767732
7.946139,1.815341
7.957310,1.871500
7.957310,2.165000
7.946139,2.221159
7.914328,2.268768
7.866719,2.300579
7.810560,2.311750
7.517060,2.311750
7.460901,2.300579
7.413292,2.268768
7.381481,2.221159
7.370310,2.165000
Z" /> 
<path style="fill:#B4A09A; fill-opacity:0.900000; stroke:none;fill-rule:evenodd;"
d="M 8.340310,1.871500
8.351481,1.815341
8.383292,1.767732
8.430901,1.735921
8.487060,1.724750
8.780560,1.724750
8.836719,1.735921
8.884328,1.767732
8.916139,1.815341
8.927310,1.871500
8.927310,2.165000
8.916139,2.221159
8.884328,2.268768
8.836719,2.300579
8.780560,2.311750
8.487060,2.311750
8.430901,2.300579
8.383292,2.268768
8.351481,2.221159
8.340310,2.165000
Z" /> 
</g>
<g style="fill:none; 
stroke:#F2EDA1; stroke-width:0.150000; stroke-opacity:1; 
stroke-linecap:round; stroke-linejoin:round;">
<text x="8.148810" y="1.348250"
textLength="4.535715" font-size="1.333333" lengthAdjust="spacingAndGlyphs"
text-anchor="middle" opacity="0" stroke-opacity="0">REF**</text>
<g class="stroked-text"><desc>REF**</desc>
<path d="M6.815477 1.303070
L6.482144 0.826879
" />
<path d="M6.244049 1.303070
L6.244049 0.303070
" />
<path d="M6.244049 0.303070
L6.625001 0.303070
" />
<path d="M6.625001 0.303070
L6.720239 0.350689
" />
<path d="M6.720239 0.350689
L6.767858 0.398308
" />
<path d="M6.767858 0.398308
L6.815477 0.493546
" />
<path d="M6.815477 0.493546
L6.815477 0.636403
" />
<path d="M6.815477 0.636403
L6.767858 0.731641
" />
<path d="M6.767858 0.731641
L6.720239 0.779260
" />
<path d="M6.720239 0.779260
L6.625001 0.826879
" />
<path d="M6.625001 0.826879
L6.244049 0.826879
" />
<path d="M7.244049 0.779260
L7.577382 0.779260
" />
<path d="M7.720239 1.303070
L7.244049 1.303070
" />
<path d="M7.244049 1.303070
L7.244049 0.303070
" />
<path d="M7.244049 0.303070
L7.720239 0.303070
" />
<path d="M8.482143 0.779260
L8.148810 0.779260
" />
<path d="M8.148810 1.303070
L8.148810 0.303070
" />
<path d="M8.148810 0.303070
L8.625000 0.303070
" />
<path d="M9.148810 0.303070
L9.148810 0.541165
" />
<path d="M8.910715 0.445927
L9.148810 0.541165
" />
<path d="M9.148810 0.541165
L9.386905 0.445927
" />
<path d="M9.005953 0.731641
L9.148810 0.541165
" />
<path d="M9.148810 0.541165
L9.291667 0.731641
" />
<path d="M9.910715 0.303070
L9.910715 0.541165
" />
<path d="M9.672620 0.445927
L9.910715 0.541165
" />
<path d="M9.910715 0.541165
L10.148810 0.445927
" />
<path d="M9.767858 0.731641
L9.910715 0.541165
" />
<path d="M9.910715 0.541165
L10.053572 0.731641
" />
</g><path style="fill:none; 
stroke:#FF26E2; stroke-width:0.050000; stroke-opacity:1; 
stroke-linecap:round; stroke-linejoin:round;fill:none"
d="M 7.358810,1.678250
8.938810,1.678250
8.938810,2.358250
7.358810,2.358250
Z" /> 
</g>
<g style="fill:none; 
stroke:#AFAFAF; stroke-width:0.150000; stroke-opacity:1; 
stroke-linecap:round; stroke-linejoin:round;">
<text x="8.148810" y="3.688250"
textLength="16.297621" font-size="1.333333" lengthAdjust="spacingAndGlyphs"
text-anchor="middle" opacity="0" stroke-opacity="0">L_0402_1005Metric_L</text>
<g class="stroked-text"><desc>L_0402_1005Metric_L</desc>
<path d="M0.839286 3.643069
L0.363096 3.643069
" />
<path d="M0.363096 3.643069
L0.363096 2.643069
" />
<path d="M0.934524 3.738307
L1.696429 3.738307
" />
<path d="M2.125001 2.643069
L2.220239 2.643069
" />
<path d="M2.220239 2.643069
L2.315477 2.690688
" />
<path d="M2.315477 2.690688
L2.363096 2.738307
" />
<path d="M2.363096 2.738307
L2.410715 2.833545
" />
<path d="M2.410715 2.833545
L2.458334 3.024021
" />
<path d="M2.458334 3.024021
L2.458334 3.262116
" />
<path d="M2.458334 3.262116
L2.410715 3.452592
" />
<path d="M2.410715 3.452592
L2.363096 3.547830
" />
<path d="M2.363096 3.547830
L2.315477 3.595450
" />
<path d="M2.315477 3.595450
L2.220239 3.643069
" />
<path d="M2.220239 3.643069
L2.125001 3.643069
" />
<path d="M2.125001 3.643069
L2.029763 3.595450
" />
<path d="M2.029763 3.595450
L1.982144 3.547830
" />
<path d="M1.982144 3.547830
L1.934525 3.452592
" />
<path d="M1.934525 3.452592
L1.886906 3.262116
" />
<path d="M1.886906 3.262116
L1.886906 3.024021
" />
<path d="M1.886906 3.024021
L1.934525 2.833545
" />
<path d="M1.934525 2.833545
L1.982144 2.738307
" />
<path d="M1.982144 2.738307
L2.029763 2.690688
" />
<path d="M2.029763 2.690688
L2.125001 2.643069
" />
<path d="M3.315477 2.976402
L3.315477 3.643069
" />
<path d="M3.077382 2.595450
L2.839287 3.309735
" />
<path d="M2.839287 3.309735
L3.458334 3.309735
" />
<path d="M4.029763 2.643069
L4.125001 2.643069
" />
<path d="M4.125001 2.643069
L4.220239 2.690688
" />
<path d="M4.220239 2.690688
L4.267858 2.738307
" />
<path d="M4.267858 2.738307
L4.315477 2.833545
" />
<path d="M4.315477 2.833545
L4.363096 3.024021
" />
<path d="M4.363096 3.024021
L4.363096 3.262116
" />
<path d="M4.363096 3.262116
L4.315477 3.452592
" />
<path d="M4.315477 3.452592
L4.267858 3.547830
" />
<path d="M4.267858 3.547830
L4.220239 3.595450
" />
<path d="M4.220239 3.595450
L4.125001 3.643069
" />
<path d="M4.125001 3.643069
L4.029763 3.643069
" />
<path d="M4.029763 3.643069
L3.934525 3.595450
" />
<path d="M3.934525 3.595450
L3.886906 3.547830
" />
<path d="M3.886906 3.547830
L3.839287 3.452592
" />
<path d="M3.839287 3.452592
L3.791668 3.262116
" />
<path d="M3.791668 3.262116
L3.791668 3.024021
" />
<path d="M3.791668 3.024021
L3.839287 2.833545
" />
<path d="M3.839287 2.833545
L3.886906 2.738307
" />
<path d="M3.886906 2.738307
L3.934525 2.690688
" />
<path d="M3.934525 2.690688
L4.029763 2.643069
" />
<path d="M4.744049 2.738307
L4.791668 2.690688
" />
<path d="M4.791668 2.690688
L4.886906 2.643069
" />
<path d="M4.886906 2.643069
L5.125001 2.643069
" />
<path d="M5.125001 2.643069
L5.220239 2.690688
" />
<path d="M5.220239 2.690688
L5.267858 2.738307
" />
<path d="M5.267858 2.738307
L5.315477 2.833545
" />
<path d="M5.315477 2.833545
L5.315477 2.928783
" />
<path d="M5.315477 2.928783
L5.267858 3.071640
" />
<path d="M5.267858 3.071640
L4.696430 3.643069
" />
<path d="M4.696430 3.643069
L5.315477 3.643069
" />
<path d="M5.505953 3.738307
L6.267858 3.738307
" />
<path d="M7.029763 3.643069
L6.458335 3.643069
" />
<path d="M6.744049 3.643069
L6.744049 2.643069
" />
<path d="M6.744049 2.643069
L6.648811 2.785926
" />
<path d="M6.648811 2.785926
L6.553573 2.881164
" />
<path d="M6.553573 2.881164
L6.458335 2.928783
" />
<path d="M7.648811 2.643069
L7.744049 2.643069
" />
<path d="M7.744049 2.643069
L7.839287 2.690688
" />
<path d="M7.839287 2.690688
L7.886906 2.738307
" />
<path d="M7.886906 2.738307
L7.934525 2.833545
" />
<path d="M7.934525 2.833545
L7.982144 3.024021
" />
<path d="M7.982144 3.024021
L7.982144 3.262116
" />
<path d="M7.982144 3.262116
L7.934525 3.452592
" />
<path d="M7.934525 3.452592
L7.886906 3.547830
" />
<path d="M7.886906 3.547830
L7.839287 3.595450
" />
<path d="M7.839287 3.595450
L7.744049 3.643069
" />
<path d="M7.744049 3.643069
L7.648811 3.643069
" />
<path d="M7.648811 3.643069
L7.553573 3.595450
" />
<path d="M7.553573 3.595450
L7.505954 3.547830
" />
<path d="M7.505954 3.547830
L7.458335 3.452592
" />
<path d="M7.458335 3.452592
L7.410716 3.262116
" />
<path d="M7.410716 3.262116
L7.410716 3.024021
" />
<path d="M7.410716 3.024021
L7.458335 2.833545
" />
<path d="M7.458335 2.833545
L7.505954 2.738307
" />
<path d="M7.505954 2.738307
L7.553573 2.690688
" />
<path d="M7.553573 2.690688
L7.648811 2.643069
" />
<path d="M8.601191 2.643069
L8.696429 2.643069
" />
<path d="M8.696429 2.643069
L8.791667 2.690688
" />
<path d="M8.791667 2.690688
L8.839286 2.738307
" />
<path d="M8.839286 2.738307
L8.886905 2.833545
" />
<path d="M8.886905 2.833545
L8.934524 3.024021
" />
<path d="M8.934524 3.024021
L8.934524 3.262116
" />
<path d="M8.934524 3.262116
L8.886905 3.452592
" />
<path d="M8.886905 3.452592
L8.839286 3.547830
" />
<path d="M8.839286 3.547830
L8.791667 3.595450
" />
<path d="M8.791667 3.595450
L8.696429 3.643069
" />
<path d="M8.696429 3.643069
L8.601191 3.643069
" />
<path d="M8.601191 3.643069
L8.505953 3.595450
" />
<path d="M8.505953 3.595450
L8.458334 3.547830
" />
<path d="M8.458334 3.547830
L8.410715 3.452592
" />
<path d="M8.410715 3.452592
L8.363096 3.262116
" />
<path d="M8.363096 3.262116
L8.363096 3.024021
" />
<path d="M8.363096 3.024021
L8.410715 2.833545
" />
<path d="M8.410715 2.833545
L8.458334 2.738307
" />
<path d="M8.458334 2.738307
L8.505953 2.690688
" />
<path d="M8.505953 2.690688
L8.601191 2.643069
" />
<path d="M9.839286 2.643069
L9.363096 2.643069
" />
<path d="M9.363096 2.643069
L9.315477 3.119259
" />
<path d="M9.315477 3.119259
L9.363096 3.071640
" />
<path d="M9.363096 3.071640
L9.458334 3.024021
" />
<path d="M9.458334 3.024021
L9.696429 3.024021
" />
<path d="M9.696429 3.024021
L9.791667 3.071640
" />
<path d="M9.791667 3.071640
L9.839286 3.119259
" />
<path d="M9.839286 3.119259
L9.886905 3.214497
" />
<path d="M9.886905 3.214497
L9.886905 3.452592
" />
<path d="M9.886905 3.452592
L9.839286 3.547830
" />
<path d="M9.839286 3.547830
L9.791667 3.595450
" />
<path d="M9.791667 3.595450
L9.696429 3.643069
" />
<path d="M9.696429 3.643069
L9.458334 3.643069
" />
<path d="M9.458334 3.643069
L9.363096 3.595450
" />
<path d="M9.363096 3.595450
L9.315477 3.547830
" />
<path d="M10.315477 3.643069
L10.315477 2.643069
" />
<path d="M10.315477 2.643069
L10.648810 3.357354
" />
<path d="M10.648810 3.357354
L10.982143 2.643069
" />
<path d="M10.982143 2.643069
L10.982143 3.643069
" />
<path d="M11.839286 3.595450
L11.744048 3.643069
" />
<path d="M11.744048 3.643069
L11.553572 3.643069
" />
<path d="M11.553572 3.643069
L11.458334 3.595450
" />
<path d="M11.458334 3.595450
L11.410715 3.500211
" />
<path d="M11.410715 3.500211
L11.410715 3.119259
" />
<path d="M11.410715 3.119259
L11.458334 3.024021
" />
<path d="M11.458334 3.024021
L11.553572 2.976402
" />
<path d="M11.553572 2.976402
L11.744048 2.976402
" />
<path d="M11.744048 2.976402
L11.839286 3.024021
" />
<path d="M11.839286 3.024021
L11.886905 3.119259
" />
<path d="M11.886905 3.119259
L11.886905 3.214497
" />
<path d="M11.886905 3.214497
L11.410715 3.309735
" />
<path d="M12.172620 2.976402
L12.553572 2.976402
" />
<path d="M12.315477 2.643069
L12.315477 3.500211
" />
<path d="M12.315477 3.500211
L12.363096 3.595450
" />
<path d="M12.363096 3.595450
L12.458334 3.643069
" />
<path d="M12.458334 3.643069
L12.553572 3.643069
" />
<path d="M12.886906 3.643069
L12.886906 2.976402
" />
<path d="M12.886906 3.166878
L12.934525 3.071640
" />
<path d="M12.934525 3.071640
L12.982144 3.024021
" />
<path d="M12.982144 3.024021
L13.077382 2.976402
" />
<path d="M13.077382 2.976402
L13.172620 2.976402
" />
<path d="M13.505954 3.643069
L13.505954 2.976402
" />
<path d="M13.505954 2.643069
L13.458335 2.690688
" />
<path d="M13.458335 2.690688
L13.505954 2.738307
" />
<path d="M13.505954 2.738307
L13.553573 2.690688
" />
<path d="M13.553573 2.690688
L13.505954 2.643069
" />
<path d="M13.505954 2.643069
L13.505954 2.738307
" />
<path d="M14.410715 3.595450
L14.315477 3.643069
" />
<path d="M14.315477 3.643069
L14.125001 3.643069
" />
<path d="M14.125001 3.643069
L14.029763 3.595450
" />
<path d="M14.029763 3.595450
L13.982144 3.547830
" />
<path d="M13.982144 3.547830
L13.934525 3.452592
" />
<path d="M13.934525 3.452592
L13.934525 3.166878
" />
<path d="M13.934525 3.166878
L13.982144 3.071640
" />
<path d="M13.982144 3.071640
L14.029763 3.024021
" />
<path d="M14.029763 3.024021
L14.125001 2.976402
" />
<path d="M14.125001 2.976402
L14.315477 2.976402
" />
<path d="M14.315477 2.976402
L14.410715 3.024021
" />
<path d="M14.601192 3.738307
L15.363096 3.738307
" />
<path d="M16.077382 3.643069
L15.601192 3.643069
" />
<path d="M15.601192 3.643069
L15.601192 2.643069
" />
</g></g>
<g style="fill:none; 
stroke:#AFAFAF; stroke-width:0.040000; stroke-opacity:1; 
stroke-linecap:round; stroke-linejoin:round;">
<text x="8.148810" y="2.143250"
textLength="1.141428" font-size="0.333333" lengthAdjust="spacingAndGlyphs"
text-anchor="middle" opacity="0" stroke-opacity="0">REF**</text>
<g class="stroked-text"><desc>REF**</desc>
<path d="M7.815477 2.131824
L7.732144 2.012778
" />
<path d="M7.672620 2.131824
L7.672620 1.881825
" />
<path d="M7.672620 1.881825
L7.767858 1.881825
" />
<path d="M7.767858 1.881825
L7.791668 1.893730
" />
<path d="M7.791668 1.893730
L7.803573 1.905635
" />
<path d="M7.803573 1.905635
L7.815477 1.929444
" />
<path d="M7.815477 1.929444
L7.815477 1.965159
" />
<path d="M7.815477 1.965159
L7.803573 1.988968
" />
<path d="M7.803573 1.988968
L7.791668 2.000873
" />
<path d="M7.791668 2.000873
L7.767858 2.012778
" />
<path d="M7.767858 2.012778
L7.672620 2.012778
" />
<path d="M7.922620 2.000873
L8.005954 2.000873
" />
<path d="M8.041668 2.131824
L7.922620 2.131824
" />
<path d="M7.922620 2.131824
L7.922620 1.881825
" />
<path d="M7.922620 1.881825
L8.041668 1.881825
" />
<path d="M8.232143 2.000873
L8.148810 2.000873
" />
<path d="M8.148810 2.131824
L8.148810 1.881825
" />
<path d="M8.148810 1.881825
L8.267857 1.881825
" />
<path d="M8.398810 1.881825
L8.398810 1.941349
" />
<path d="M8.339286 1.917540
L8.398810 1.941349
" />
<path d="M8.398810 1.941349
L8.458333 1.917540
" />
<path d="M8.363095 1.988968
L8.398810 1.941349
" />
<path d="M8.398810 1.941349
L8.434524 1.988968
" />
<path d="M8.589286 1.881825
L8.589286 1.941349
" />
<path d="M8.529762 1.917540
L8.589286 1.941349
" />
<path d="M8.589286 1.941349
L8.648809 1.917540
" />
<path d="M8.553571 1.988968
L8.589286 1.941349
" />
<path d="M8.589286 1.941349
L8.625000 1.988968
" />
</g><path style="fill:none; 
stroke:#AFAFAF; stroke-width:0.100000; stroke-opacity:1; 
stroke-linecap:round; stroke-linejoin:round;fill:none"
d="M 7.648810,1.768250
8.648810,1.768250
8.648810,2.268250
7.648810,2.268250
Z" /> 
</g> 
</svg>
