<?xml version="1.0" standalone="no"?>
 <!DOCTYPE svg PUBLIC "-//W3C//DTD SVG 1.1//EN" 
 "http://www.w3.org/Graphics/SVG/1.1/DTD/svg11.dtd"> 
<svg
  xmlns:svg="http://www.w3.org/2000/svg"
  xmlns="http://www.w3.org/2000/svg"
  xmlns:xlink="http://www.w3.org/1999/xlink"
  xmlns:inkscape="http://www.inkscape.org/namespaces/inkscape"
  version="1.1"
  width="100%" height="100%" viewBox="0.000000 0.000000 16.281400 4.546600">
<title>SVG Image created as L_0603_1608Metric_L.svg date 2026-04-15T16:16:28 </title>
  <desc>Image generated by PCBNEW </desc>
<g style="fill:#000000; fill-opacity:1.000000;stroke:#000000; stroke-opacity:1.000000;
stroke-linecap:round; stroke-linejoin:round;"
 transform="translate(0 0) scale(1 1)">
<path style="fill:#C83434; fill-opacity:1.000000; stroke:none;fill-rule:evenodd;"
d="M 7.005310,1.962750
7.018859,1.894632
7.057445,1.836885
7.115192,1.798299
7.183310,1.784750
7.539310,1.784750
7.607428,1.798299
7.665175,1.836885
7.703761,1.894632
7.717310,1.962750
7.717310,2.593750
7.703761,2.661868
7.665175,2.719615
7.607428,2.758201
7.539310,2.771750
7.183310,2.771750
7.115192,2.758201
7.057445,2.719615
7.018859,2.661868
7.005310,2.593750
Z" /> 
<path style="fill:#C83434; fill-opacity:1.000000; stroke:none;fill-rule:evenodd;"
d="M 8.580310,1.962750
8.593859,1.894632
8.632445,1.836885
8.690192,1.798299
8.758310,1.784750
9.114310,1.784750
9.182428,1.798299
9.240175,1.836885
9.278761,1.894632
9.292310,1.962750
9.292310,2.593750
9.278761,2.661868
9.240175,2.719615
9.182428,2.758201
9.114310,2.771750
8.758310,2.771750
8.690192,2.758201
8.632445,2.719615
8.593859,2.661868
8.580310,2.593750
Z" /> 
<path style="fill:#D864FF; fill-opacity:0.400000; stroke:none;fill-rule:evenodd;"
d="M 7.005310,1.962750
7.018859,1.894632
7.057445,1.836885
7.115192,1.798299
7.183310,1.784750
7.539310,1.784750
7.607428,1.798299
7.665175,1.836885
7.703761,1.894632
7.717310,1.962750
7.717310,2.593750
7.703761,2.661868
7.665175,2.719615
7.607428,2.758201
7.539310,2.771750
7.183310,2.771750
7.115192,2.758201
7.057445,2.719615
7.018859,2.661868
7.005310,2.593750
Z" /> 
<path style="fill:#D864FF; fill-opacity:0.400000; stroke:none;fill-rule:evenodd;"
d="M 8.580310,1.962750
8.593859,1.894632
8.632445,1.836885
8.690192,1.798299
8.758310,1.784750
9.114310,1.784750
9.182428,1.798299
9.240175,1.836885
9.278761,1.894632
9.292310,1.962750
9.292310,2.593750
9.278761,2.661868
9.240175,2.719615
9.182428,2.758201
9.114310,2.771750
8.758310,2.771750
8.690192,2.758201
8.632445,2.719615
8.593859,2.661868
8.580310,2.593750
Z" /> 
<path style="fill:#B4A09A; fill-opacity:0.900000; stroke:none;fill-rule:evenodd;"
d="M 7.005310,1.962750
7.018859,1.894632
7.057445,1.836885
7.115192,1.798299
7.183310,1.784750
7.539310,1.784750
7.607428,1.798299
7.665175,1.836885
7.703761,1.894632
7.717310,1.962750
7.717310,2.593750
7.703761,2.661868
7.665175,2.719615
7.607428,2.758201
7.539310,2.771750
7.183310,2.771750
7.115192,2.758201
7.057445,2.719615
7.018859,2.661868
7.005310,2.593750
Z" /> 
<path style="fill:#B4A09A; fill-opacity:0.900000; stroke:none;fill-rule:evenodd;"
d="M 8.580310,1.962750
8.593859,1.894632
8.632445,1.836885
8.690192,1.798299
8.758310,1.784750
9.114310,1.784750
9.182428,1.798299
9.240175,1.836885
9.278761,1.894632
9.292310,1.962750
9.292310,2.593750
9.278761,2.661868
9.240175,2.719615
9.182428,2.758201
9.114310,2.771750
8.758310,2.771750
8.690192,2.758201
8.632445,2.719615
8.593859,2.661868
8.580310,2.593750
Z" /> 
</g>
<g style="fill:none; 
stroke:#F2EDA1; stroke-width:0.150000; stroke-opacity:1; 
stroke-linecap:round; stroke-linejoin:round;">
<text x="8.148810" y="1.348250"
textLength="4.535715" font-size="1.333333" lengthAdjust="spacingAndGlyphs"
text-anchor="middle" opacity="0" stroke-opacity="0">REF**</text>
<g class="stroked-text"><desc>REF**</desc>
<path d="M6.815477 1.303070
L6.482144 0.826879
" />
<path d="M6.244049 1.303070
L6.244049 0.303070
" />
<path d="M6.244049 0.303070
L6.625001 0.303070
" />
<path d="M6.625001 0.303070
L6.720239 0.350689
" />
<path d="M6.720239 0.350689
L6.767858 0.398308
" />
<path d="M6.767858 0.398308
L6.815477 0.493546
" />
<path d="M6.815477 0.493546
L6.815477 0.636403
" />
<path d="M6.815477 0.636403
L6.767858 0.731641
" />
<path d="M6.767858 0.731641
L6.720239 0.779260
" />
<path d="M6.720239 0.779260
L6.625001 0.826879
" />
<path d="M6.625001 0.826879
L6.244049 0.826879
" />
<path d="M7.244049 0.779260
L7.577382 0.779260
" />
<path d="M7.720239 1.303070
L7.244049 1.303070
" />
<path d="M7.244049 1.303070
L7.244049 0.303070
" />
<path d="M7.244049 0.303070
L7.720239 0.303070
" />
<path d="M8.482143 0.779260
L8.148810 0.779260
" />
<path d="M8.148810 1.303070
L8.148810 0.303070
" />
<path d="M8.148810 0.303070
L8.625000 0.303070
" />
<path d="M9.148810 0.303070
L9.148810 0.541165
" />
<path d="M8.910715 0.445927
L9.148810 0.541165
" />
<path d="M9.148810 0.541165
L9.386905 0.445927
" />
<path d="M9.005953 0.731641
L9.148810 0.541165
" />
<path d="M9.148810 0.541165
L9.291667 0.731641
" />
<path d="M9.910715 0.303070
L9.910715 0.541165
" />
<path d="M9.672620 0.445927
L9.910715 0.541165
" />
<path d="M9.910715 0.541165
L10.148810 0.445927
" />
<path d="M9.767858 0.731641
L9.910715 0.541165
" />
<path d="M9.910715 0.541165
L10.053572 0.731641
" />
</g></g>
<g style="fill:none; 
stroke:#F2EDA1; stroke-width:0.120000; stroke-opacity:1; 
stroke-linecap:round; stroke-linejoin:round;">
<path d="M7.986031 1.768250
L8.311589 1.768250
" />
<path d="M7.986031 2.788250
L8.311589 2.788250
" />
<path style="fill:none; 
stroke:#FF26E2; stroke-width:0.050000; stroke-opacity:1; 
stroke-linecap:round; stroke-linejoin:round;fill:none"
d="M 7.028810,1.738250
9.268810,1.738250
9.268810,2.818250
7.028810,2.818250
Z" /> 
</g>
<g style="fill:none; 
stroke:#AFAFAF; stroke-width:0.150000; stroke-opacity:1; 
stroke-linecap:round; stroke-linejoin:round;">
<text x="8.148810" y="4.208250"
textLength="16.297621" font-size="1.333333" lengthAdjust="spacingAndGlyphs"
text-anchor="middle" opacity="0" stroke-opacity="0">L_0603_1608Metric_L</text>
<g class="stroked-text"><desc>L_0603_1608Metric_L</desc>
<path d="M0.839286 4.163069
L0.363096 4.163069
" />
<path d="M0.363096 4.163069
L0.363096 3.163069
" />
<path d="M0.934524 4.258307
L1.696429 4.258307
" />
<path d="M2.125001 3.163069
L2.220239 3.163069
" />
<path d="M2.220239 3.163069
L2.315477 3.210688
" />
<path d="M2.315477 3.210688
L2.363096 3.258307
" />
<path d="M2.363096 3.258307
L2.410715 3.353545
" />
<path d="M2.410715 3.353545
L2.458334 3.544021
" />
<path d="M2.458334 3.544021
L2.458334 3.782116
" />
<path d="M2.458334 3.782116
L2.410715 3.972592
" />
<path d="M2.410715 3.972592
L2.363096 4.067830
" />
<path d="M2.363096 4.067830
L2.315477 4.115450
" />
<path d="M2.315477 4.115450
L2.220239 4.163069
" />
<path d="M2.220239 4.163069
L2.125001 4.163069
" />
<path d="M2.125001 4.163069
L2.029763 4.115450
" />
<path d="M2.029763 4.115450
L1.982144 4.067830
" />
<path d="M1.982144 4.067830
L1.934525 3.972592
" />
<path d="M1.934525 3.972592
L1.886906 3.782116
" />
<path d="M1.886906 3.782116
L1.886906 3.544021
" />
<path d="M1.886906 3.544021
L1.934525 3.353545
" />
<path d="M1.934525 3.353545
L1.982144 3.258307
" />
<path d="M1.982144 3.258307
L2.029763 3.210688
" />
<path d="M2.029763 3.210688
L2.125001 3.163069
" />
<path d="M3.315477 3.163069
L3.125001 3.163069
" />
<path d="M3.125001 3.163069
L3.029763 3.210688
" />
<path d="M3.029763 3.210688
L2.982144 3.258307
" />
<path d="M2.982144 3.258307
L2.886906 3.401164
" />
<path d="M2.886906 3.401164
L2.839287 3.591640
" />
<path d="M2.839287 3.591640
L2.839287 3.972592
" />
<path d="M2.839287 3.972592
L2.886906 4.067830
" />
<path d="M2.886906 4.067830
L2.934525 4.115450
" />
<path d="M2.934525 4.115450
L3.029763 4.163069
" />
<path d="M3.029763 4.163069
L3.220239 4.163069
" />
<path d="M3.220239 4.163069
L3.315477 4.115450
" />
<path d="M3.315477 4.115450
L3.363096 4.067830
" />
<path d="M3.363096 4.067830
L3.410715 3.972592
" />
<path d="M3.410715 3.972592
L3.410715 3.734497
" />
<path d="M3.410715 3.734497
L3.363096 3.639259
" />
<path d="M3.363096 3.639259
L3.315477 3.591640
" />
<path d="M3.315477 3.591640
L3.220239 3.544021
" />
<path d="M3.220239 3.544021
L3.029763 3.544021
" />
<path d="M3.029763 3.544021
L2.934525 3.591640
" />
<path d="M2.934525 3.591640
L2.886906 3.639259
" />
<path d="M2.886906 3.639259
L2.839287 3.734497
" />
<path d="M4.029763 3.163069
L4.125001 3.163069
" />
<path d="M4.125001 3.163069
L4.220239 3.210688
" />
<path d="M4.220239 3.210688
L4.267858 3.258307
" />
<path d="M4.267858 3.258307
L4.315477 3.353545
" />
<path d="M4.315477 3.353545
L4.363096 3.544021
" />
<path d="M4.363096 3.544021
L4.363096 3.782116
" />
<path d="M4.363096 3.782116
L4.315477 3.972592
" />
<path d="M4.315477 3.972592
L4.267858 4.067830
" />
<path d="M4.267858 4.067830
L4.220239 4.115450
" />
<path d="M4.220239 4.115450
L4.125001 4.163069
" />
<path d="M4.125001 4.163069
L4.029763 4.163069
" />
<path d="M4.029763 4.163069
L3.934525 4.115450
" />
<path d="M3.934525 4.115450
L3.886906 4.067830
" />
<path d="M3.886906 4.067830
L3.839287 3.972592
" />
<path d="M3.839287 3.972592
L3.791668 3.782116
" />
<path d="M3.791668 3.782116
L3.791668 3.544021
" />
<path d="M3.791668 3.544021
L3.839287 3.353545
" />
<path d="M3.839287 3.353545
L3.886906 3.258307
" />
<path d="M3.886906 3.258307
L3.934525 3.210688
" />
<path d="M3.934525 3.210688
L4.029763 3.163069
" />
<path d="M4.696430 3.163069
L5.315477 3.163069
" />
<path d="M5.315477 3.163069
L4.982144 3.544021
" />
<path d="M4.982144 3.544021
L5.125001 3.544021
" />
<path d="M5.125001 3.544021
L5.220239 3.591640
" />
<path d="M5.220239 3.591640
L5.267858 3.639259
" />
<path d="M5.267858 3.639259
L5.315477 3.734497
" />
<path d="M5.315477 3.734497
L5.315477 3.972592
" />
<path d="M5.315477 3.972592
L5.267858 4.067830
" />
<path d="M5.267858 4.067830
L5.220239 4.115450
" />
<path d="M5.220239 4.115450
L5.125001 4.163069
" />
<path d="M5.125001 4.163069
L4.839287 4.163069
" />
<path d="M4.839287 4.163069
L4.744049 4.115450
" />
<path d="M4.744049 4.115450
L4.696430 4.067830
" />
<path d="M5.505953 4.258307
L6.267858 4.258307
" />
<path d="M7.029763 4.163069
L6.458335 4.163069
" />
<path d="M6.744049 4.163069
L6.744049 3.163069
" />
<path d="M6.744049 3.163069
L6.648811 3.305926
" />
<path d="M6.648811 3.305926
L6.553573 3.401164
" />
<path d="M6.553573 3.401164
L6.458335 3.448783
" />
<path d="M7.886906 3.163069
L7.696430 3.163069
" />
<path d="M7.696430 3.163069
L7.601192 3.210688
" />
<path d="M7.601192 3.210688
L7.553573 3.258307
" />
<path d="M7.553573 3.258307
L7.458335 3.401164
" />
<path d="M7.458335 3.401164
L7.410716 3.591640
" />
<path d="M7.410716 3.591640
L7.410716 3.972592
" />
<path d="M7.410716 3.972592
L7.458335 4.067830
" />
<path d="M7.458335 4.067830
L7.505954 4.115450
" />
<path d="M7.505954 4.115450
L7.601192 4.163069
" />
<path d="M7.601192 4.163069
L7.791668 4.163069
" />
<path d="M7.791668 4.163069
L7.886906 4.115450
" />
<path d="M7.886906 4.115450
L7.934525 4.067830
" />
<path d="M7.934525 4.067830
L7.982144 3.972592
" />
<path d="M7.982144 3.972592
L7.982144 3.734497
" />
<path d="M7.982144 3.734497
L7.934525 3.639259
" />
<path d="M7.934525 3.639259
L7.886906 3.591640
" />
<path d="M7.886906 3.591640
L7.791668 3.544021
" />
<path d="M7.791668 3.544021
L7.601192 3.544021
" />
<path d="M7.601192 3.544021
L7.505954 3.591640
" />
<path d="M7.505954 3.591640
L7.458335 3.639259
" />
<path d="M7.458335 3.639259
L7.410716 3.734497
" />
<path d="M8.601191 3.163069
L8.696429 3.163069
" />
<path d="M8.696429 3.163069
L8.791667 3.210688
" />
<path d="M8.791667 3.210688
L8.839286 3.258307
" />
<path d="M8.839286 3.258307
L8.886905 3.353545
" />
<path d="M8.886905 3.353545
L8.934524 3.544021
" />
<path d="M8.934524 3.544021
L8.934524 3.782116
" />
<path d="M8.934524 3.782116
L8.886905 3.972592
" />
<path d="M8.886905 3.972592
L8.839286 4.067830
" />
<path d="M8.839286 4.067830
L8.791667 4.115450
" />
<path d="M8.791667 4.115450
L8.696429 4.163069
" />
<path d="M8.696429 4.163069
L8.601191 4.163069
" />
<path d="M8.601191 4.163069
L8.505953 4.115450
" />
<path d="M8.505953 4.115450
L8.458334 4.067830
" />
<path d="M8.458334 4.067830
L8.410715 3.972592
" />
<path d="M8.410715 3.972592
L8.363096 3.782116
" />
<path d="M8.363096 3.782116
L8.363096 3.544021
" />
<path d="M8.363096 3.544021
L8.410715 3.353545
" />
<path d="M8.410715 3.353545
L8.458334 3.258307
" />
<path d="M8.458334 3.258307
L8.505953 3.210688
" />
<path d="M8.505953 3.210688
L8.601191 3.163069
" />
<path d="M9.505953 3.591640
L9.410715 3.544021
" />
<path d="M9.410715 3.544021
L9.363096 3.496402
" />
<path d="M9.363096 3.496402
L9.315477 3.401164
" />
<path d="M9.315477 3.401164
L9.315477 3.353545
" />
<path d="M9.315477 3.353545
L9.363096 3.258307
" />
<path d="M9.363096 3.258307
L9.410715 3.210688
" />
<path d="M9.410715 3.210688
L9.505953 3.163069
" />
<path d="M9.505953 3.163069
L9.696429 3.163069
" />
<path d="M9.696429 3.163069
L9.791667 3.210688
" />
<path d="M9.791667 3.210688
L9.839286 3.258307
" />
<path d="M9.839286 3.258307
L9.886905 3.353545
" />
<path d="M9.886905 3.353545
L9.886905 3.401164
" />
<path d="M9.886905 3.401164
L9.839286 3.496402
" />
<path d="M9.839286 3.496402
L9.791667 3.544021
" />
<path d="M9.791667 3.544021
L9.696429 3.591640
" />
<path d="M9.696429 3.591640
L9.505953 3.591640
" />
<path d="M9.505953 3.591640
L9.410715 3.639259
" />
<path d="M9.410715 3.639259
L9.363096 3.686878
" />
<path d="M9.363096 3.686878
L9.315477 3.782116
" />
<path d="M9.315477 3.782116
L9.315477 3.972592
" />
<path d="M9.315477 3.972592
L9.363096 4.067830
" />
<path d="M9.363096 4.067830
L9.410715 4.115450
" />
<path d="M9.410715 4.115450
L9.505953 4.163069
" />
<path d="M9.505953 4.163069
L9.696429 4.163069
" />
<path d="M9.696429 4.163069
L9.791667 4.115450
" />
<path d="M9.791667 4.115450
L9.839286 4.067830
" />
<path d="M9.839286 4.067830
L9.886905 3.972592
" />
<path d="M9.886905 3.972592
L9.886905 3.782116
" />
<path d="M9.886905 3.782116
L9.839286 3.686878
" />
<path d="M9.839286 3.686878
L9.791667 3.639259
" />
<path d="M9.791667 3.639259
L9.696429 3.591640
" />
<path d="M10.315477 4.163069
L10.315477 3.163069
" />
<path d="M10.315477 3.163069
L10.648810 3.877354
" />
<path d="M10.648810 3.877354
L10.982143 3.163069
" />
<path d="M10.982143 3.163069
L10.982143 4.163069
" />
<path d="M11.839286 4.115450
L11.744048 4.163069
" />
<path d="M11.744048 4.163069
L11.553572 4.163069
" />
<path d="M11.553572 4.163069
L11.458334 4.115450
" />
<path d="M11.458334 4.115450
L11.410715 4.020211
" />
<path d="M11.410715 4.020211
L11.410715 3.639259
" />
<path d="M11.410715 3.639259
L11.458334 3.544021
" />
<path d="M11.458334 3.544021
L11.553572 3.496402
" />
<path d="M11.553572 3.496402
L11.744048 3.496402
" />
<path d="M11.744048 3.496402
L11.839286 3.544021
" />
<path d="M11.839286 3.544021
L11.886905 3.639259
" />
<path d="M11.886905 3.639259
L11.886905 3.734497
" />
<path d="M11.886905 3.734497
L11.410715 3.829735
" />
<path d="M12.172620 3.496402
L12.553572 3.496402
" />
<path d="M12.315477 3.163069
L12.315477 4.020211
" />
<path d="M12.315477 4.020211
L12.363096 4.115450
" />
<path d="M12.363096 4.115450
L12.458334 4.163069
" />
<path d="M12.458334 4.163069
L12.553572 4.163069
" />
<path d="M12.886906 4.163069
L12.886906 3.496402
" />
<path d="M12.886906 3.686878
L12.934525 3.591640
" />
<path d="M12.934525 3.591640
L12.982144 3.544021
" />
<path d="M12.982144 3.544021
L13.077382 3.496402
" />
<path d="M13.077382 3.496402
L13.172620 3.496402
" />
<path d="M13.505954 4.163069
L13.505954 3.496402
" />
<path d="M13.505954 3.163069
L13.458335 3.210688
" />
<path d="M13.458335 3.210688
L13.505954 3.258307
" />
<path d="M13.505954 3.258307
L13.553573 3.210688
" />
<path d="M13.553573 3.210688
L13.505954 3.163069
" />
<path d="M13.505954 3.163069
L13.505954 3.258307
" />
<path d="M14.410715 4.115450
L14.315477 4.163069
" />
<path d="M14.315477 4.163069
L14.125001 4.163069
" />
<path d="M14.125001 4.163069
L14.029763 4.115450
" />
<path d="M14.029763 4.115450
L13.982144 4.067830
" />
<path d="M13.982144 4.067830
L13.934525 3.972592
" />
<path d="M13.934525 3.972592
L13.934525 3.686878
" />
<path d="M13.934525 3.686878
L13.982144 3.591640
" />
<path d="M13.982144 3.591640
L14.029763 3.544021
" />
<path d="M14.029763 3.544021
L14.125001 3.496402
" />
<path d="M14.125001 3.496402
L14.315477 3.496402
" />
<path d="M14.315477 3.496402
L14.410715 3.544021
" />
<path d="M14.601192 4.258307
L15.363096 4.258307
" />
<path d="M16.077382 4.163069
L15.601192 4.163069
" />
<path d="M15.601192 4.163069
L15.601192 3.163069
" />
</g></g>
<g style="fill:none; 
stroke:#AFAFAF; stroke-width:0.060000; stroke-opacity:1; 
stroke-linecap:round; stroke-linejoin:round;">
<text x="8.148810" y="2.478250"
textLength="1.814286" font-size="0.533333" lengthAdjust="spacingAndGlyphs"
text-anchor="middle" opacity="0" stroke-opacity="0">REF**</text>
<g class="stroked-text"><desc>REF**</desc>
<path d="M7.615477 2.460177
L7.482144 2.269702
" />
<path d="M7.386906 2.460177
L7.386906 2.060178
" />
<path d="M7.386906 2.060178
L7.539287 2.060178
" />
<path d="M7.539287 2.060178
L7.577382 2.079226
" />
<path d="M7.577382 2.079226
L7.596429 2.098273
" />
<path d="M7.596429 2.098273
L7.615477 2.136369
" />
<path d="M7.615477 2.136369
L7.615477 2.193511
" />
<path d="M7.615477 2.193511
L7.596429 2.231607
" />
<path d="M7.596429 2.231607
L7.577382 2.250654
" />
<path d="M7.577382 2.250654
L7.539287 2.269702
" />
<path d="M7.539287 2.269702
L7.386906 2.269702
" />
<path d="M7.786906 2.250654
L7.920239 2.250654
" />
<path d="M7.977382 2.460177
L7.786906 2.460177
" />
<path d="M7.786906 2.460177
L7.786906 2.060178
" />
<path d="M7.786906 2.060178
L7.977382 2.060178
" />
<path d="M8.282143 2.250654
L8.148810 2.250654
" />
<path d="M8.148810 2.460177
L8.148810 2.060178
" />
<path d="M8.148810 2.060178
L8.339286 2.060178
" />
<path d="M8.548809 2.060178
L8.548809 2.155416
" />
<path d="M8.453571 2.117321
L8.548809 2.155416
" />
<path d="M8.548809 2.155416
L8.644048 2.117321
" />
<path d="M8.491667 2.231607
L8.548809 2.155416
" />
<path d="M8.548809 2.155416
L8.605952 2.231607
" />
<path d="M8.853571 2.060178
L8.853571 2.155416
" />
<path d="M8.758333 2.117321
L8.853571 2.155416
" />
<path d="M8.853571 2.155416
L8.948810 2.117321
" />
<path d="M8.796429 2.231607
L8.853571 2.155416
" />
<path d="M8.853571 2.155416
L8.910714 2.231607
" />
</g><path style="fill:none; 
stroke:#AFAFAF; stroke-width:0.100000; stroke-opacity:1; 
stroke-linecap:round; stroke-linejoin:round;fill:none"
d="M 7.348810,1.878250
8.948810,1.878250
8.948810,2.678250
7.348810,2.678250
Z" /> 
</g> 
</svg>
