<?xml version="1.0" standalone="no"?>
 <!DOCTYPE svg PUBLIC "-//W3C//DTD SVG 1.1//EN" 
 "http://www.w3.org/Graphics/SVG/1.1/DTD/svg11.dtd"> 
<svg
  xmlns:svg="http://www.w3.org/2000/svg"
  xmlns="http://www.w3.org/2000/svg"
  xmlns:xlink="http://www.w3.org/1999/xlink"
  xmlns:inkscape="http://www.inkscape.org/namespaces/inkscape"
  version="1.1"
  width="100%" height="100%" viewBox="0.000000 0.000000 16.535400 4.775200">
<title>SVG Image created as L_0805_2012Metric_N.svg date 2026-04-15T16:16:29 </title>
  <desc>Image generated by PCBNEW </desc>
<g style="fill:#000000; fill-opacity:1.000000;stroke:#000000; stroke-opacity:1.000000;
stroke-linecap:round; stroke-linejoin:round;"
 transform="translate(0 0) scale(1 1)">
<path style="fill:#C83434; fill-opacity:1.000000; stroke:none;fill-rule:evenodd;"
d="M 6.767858,2.017000
6.784509,1.933288
6.831928,1.862320
6.902896,1.814901
6.986608,1.798250
7.424108,1.798250
7.507820,1.814901
7.578788,1.862320
7.626207,1.933288
7.642858,2.017000
7.642858,2.779500
7.626207,2.863212
7.578788,2.934180
7.507820,2.981599
7.424108,2.998250
6.986608,2.998250
6.902896,2.981599
6.831928,2.934180
6.784509,2.863212
6.767858,2.779500
Z" /> 
<path style="fill:#C83434; fill-opacity:1.000000; stroke:none;fill-rule:evenodd;"
d="M 8.892858,2.017000
8.909509,1.933288
8.956928,1.862320
9.027896,1.814901
9.111608,1.798250
9.549108,1.798250
9.632820,1.814901
9.703788,1.862320
9.751207,1.933288
9.767858,2.017000
9.767858,2.779500
9.751207,2.863212
9.703788,2.934180
9.632820,2.981599
9.549108,2.998250
9.111608,2.998250
9.027896,2.981599
8.956928,2.934180
8.909509,2.863212
8.892858,2.779500
Z" /> 
<path style="fill:#D864FF; fill-opacity:0.400000; stroke:none;fill-rule:evenodd;"
d="M 6.767858,2.017000
6.784509,1.933288
6.831928,1.862320
6.902896,1.814901
6.986608,1.798250
7.424108,1.798250
7.507820,1.814901
7.578788,1.862320
7.626207,1.933288
7.642858,2.017000
7.642858,2.779500
7.626207,2.863212
7.578788,2.934180
7.507820,2.981599
7.424108,2.998250
6.986608,2.998250
6.902896,2.981599
6.831928,2.934180
6.784509,2.863212
6.767858,2.779500
Z" /> 
<path style="fill:#D864FF; fill-opacity:0.400000; stroke:none;fill-rule:evenodd;"
d="M 8.892858,2.017000
8.909509,1.933288
8.956928,1.862320
9.027896,1.814901
9.111608,1.798250
9.549108,1.798250
9.632820,1.814901
9.703788,1.862320
9.751207,1.933288
9.767858,2.017000
9.767858,2.779500
9.751207,2.863212
9.703788,2.934180
9.632820,2.981599
9.549108,2.998250
9.111608,2.998250
9.027896,2.981599
8.956928,2.934180
8.909509,2.863212
8.892858,2.779500
Z" /> 
<path style="fill:#B4A09A; fill-opacity:0.900000; stroke:none;fill-rule:evenodd;"
d="M 6.767858,2.017000
6.784509,1.933288
6.831928,1.862320
6.902896,1.814901
6.986608,1.798250
7.424108,1.798250
7.507820,1.814901
7.578788,1.862320
7.626207,1.933288
7.642858,2.017000
7.642858,2.779500
7.626207,2.863212
7.578788,2.934180
7.507820,2.981599
7.424108,2.998250
6.986608,2.998250
6.902896,2.981599
6.831928,2.934180
6.784509,2.863212
6.767858,2.779500
Z" /> 
<path style="fill:#B4A09A; fill-opacity:0.900000; stroke:none;fill-rule:evenodd;"
d="M 8.892858,2.017000
8.909509,1.933288
8.956928,1.862320
9.027896,1.814901
9.111608,1.798250
9.549108,1.798250
9.632820,1.814901
9.703788,1.862320
9.751207,1.933288
9.767858,2.017000
9.767858,2.779500
9.751207,2.863212
9.703788,2.934180
9.632820,2.981599
9.549108,2.998250
9.111608,2.998250
9.027896,2.981599
8.956928,2.934180
8.909509,2.863212
8.892858,2.779500
Z" /> 
</g>
<g style="fill:none; 
stroke:#F2EDA1; stroke-width:0.150000; stroke-opacity:1; 
stroke-linecap:round; stroke-linejoin:round;">
<text x="8.267858" y="1.348250"
textLength="4.535715" font-size="1.333333" lengthAdjust="spacingAndGlyphs"
text-anchor="middle" opacity="0" stroke-opacity="0">REF**</text>
<g class="stroked-text"><desc>REF**</desc>
<path d="M6.934525 1.303070
L6.601192 0.826879
" />
<path d="M6.363097 1.303070
L6.363097 0.303070
" />
<path d="M6.363097 0.303070
L6.744049 0.303070
" />
<path d="M6.744049 0.303070
L6.839287 0.350689
" />
<path d="M6.839287 0.350689
L6.886906 0.398308
" />
<path d="M6.886906 0.398308
L6.934525 0.493546
" />
<path d="M6.934525 0.493546
L6.934525 0.636403
" />
<path d="M6.934525 0.636403
L6.886906 0.731641
" />
<path d="M6.886906 0.731641
L6.839287 0.779260
" />
<path d="M6.839287 0.779260
L6.744049 0.826879
" />
<path d="M6.744049 0.826879
L6.363097 0.826879
" />
<path d="M7.363097 0.779260
L7.696430 0.779260
" />
<path d="M7.839287 1.303070
L7.363097 1.303070
" />
<path d="M7.363097 1.303070
L7.363097 0.303070
" />
<path d="M7.363097 0.303070
L7.839287 0.303070
" />
<path d="M8.601191 0.779260
L8.267858 0.779260
" />
<path d="M8.267858 1.303070
L8.267858 0.303070
" />
<path d="M8.267858 0.303070
L8.744048 0.303070
" />
<path d="M9.267858 0.303070
L9.267858 0.541165
" />
<path d="M9.029763 0.445927
L9.267858 0.541165
" />
<path d="M9.267858 0.541165
L9.505953 0.445927
" />
<path d="M9.125001 0.731641
L9.267858 0.541165
" />
<path d="M9.267858 0.541165
L9.410715 0.731641
" />
<path d="M10.029763 0.303070
L10.029763 0.541165
" />
<path d="M9.791668 0.445927
L10.029763 0.541165
" />
<path d="M10.029763 0.541165
L10.267858 0.445927
" />
<path d="M9.886906 0.731641
L10.029763 0.541165
" />
<path d="M10.029763 0.541165
L10.172620 0.731641
" />
</g></g>
<g style="fill:none; 
stroke:#F2EDA1; stroke-width:0.120000; stroke-opacity:1; 
stroke-linecap:round; stroke-linejoin:round;">
<path d="M7.868236 1.838250
L8.667480 1.838250
" />
<path d="M7.868236 2.958250
L8.667480 2.958250
" />
<path style="fill:none; 
stroke:#FF26E2; stroke-width:0.050000; stroke-opacity:1; 
stroke-linecap:round; stroke-linejoin:round;fill:none"
d="M 6.517858,1.548250
10.017858,1.548250
10.017858,3.248250
6.517858,3.248250
Z" /> 
</g>
<g style="fill:none; 
stroke:#AFAFAF; stroke-width:0.150000; stroke-opacity:1; 
stroke-linecap:round; stroke-linejoin:round;">
<text x="8.267858" y="4.448250"
textLength="16.535716" font-size="1.333333" lengthAdjust="spacingAndGlyphs"
text-anchor="middle" opacity="0" stroke-opacity="0">L_0805_2012Metric_N</text>
<g class="stroked-text"><desc>L_0805_2012Metric_N</desc>
<path d="M0.839286 4.403069
L0.363096 4.403069
" />
<path d="M0.363096 4.403069
L0.363096 3.403069
" />
<path d="M0.934524 4.498307
L1.696429 4.498307
" />
<path d="M2.125001 3.403069
L2.220239 3.403069
" />
<path d="M2.220239 3.403069
L2.315477 3.450688
" />
<path d="M2.315477 3.450688
L2.363096 3.498307
" />
<path d="M2.363096 3.498307
L2.410715 3.593545
" />
<path d="M2.410715 3.593545
L2.458334 3.784021
" />
<path d="M2.458334 3.784021
L2.458334 4.022116
" />
<path d="M2.458334 4.022116
L2.410715 4.212592
" />
<path d="M2.410715 4.212592
L2.363096 4.307830
" />
<path d="M2.363096 4.307830
L2.315477 4.355450
" />
<path d="M2.315477 4.355450
L2.220239 4.403069
" />
<path d="M2.220239 4.403069
L2.125001 4.403069
" />
<path d="M2.125001 4.403069
L2.029763 4.355450
" />
<path d="M2.029763 4.355450
L1.982144 4.307830
" />
<path d="M1.982144 4.307830
L1.934525 4.212592
" />
<path d="M1.934525 4.212592
L1.886906 4.022116
" />
<path d="M1.886906 4.022116
L1.886906 3.784021
" />
<path d="M1.886906 3.784021
L1.934525 3.593545
" />
<path d="M1.934525 3.593545
L1.982144 3.498307
" />
<path d="M1.982144 3.498307
L2.029763 3.450688
" />
<path d="M2.029763 3.450688
L2.125001 3.403069
" />
<path d="M3.029763 3.831640
L2.934525 3.784021
" />
<path d="M2.934525 3.784021
L2.886906 3.736402
" />
<path d="M2.886906 3.736402
L2.839287 3.641164
" />
<path d="M2.839287 3.641164
L2.839287 3.593545
" />
<path d="M2.839287 3.593545
L2.886906 3.498307
" />
<path d="M2.886906 3.498307
L2.934525 3.450688
" />
<path d="M2.934525 3.450688
L3.029763 3.403069
" />
<path d="M3.029763 3.403069
L3.220239 3.403069
" />
<path d="M3.220239 3.403069
L3.315477 3.450688
" />
<path d="M3.315477 3.450688
L3.363096 3.498307
" />
<path d="M3.363096 3.498307
L3.410715 3.593545
" />
<path d="M3.410715 3.593545
L3.410715 3.641164
" />
<path d="M3.410715 3.641164
L3.363096 3.736402
" />
<path d="M3.363096 3.736402
L3.315477 3.784021
" />
<path d="M3.315477 3.784021
L3.220239 3.831640
" />
<path d="M3.220239 3.831640
L3.029763 3.831640
" />
<path d="M3.029763 3.831640
L2.934525 3.879259
" />
<path d="M2.934525 3.879259
L2.886906 3.926878
" />
<path d="M2.886906 3.926878
L2.839287 4.022116
" />
<path d="M2.839287 4.022116
L2.839287 4.212592
" />
<path d="M2.839287 4.212592
L2.886906 4.307830
" />
<path d="M2.886906 4.307830
L2.934525 4.355450
" />
<path d="M2.934525 4.355450
L3.029763 4.403069
" />
<path d="M3.029763 4.403069
L3.220239 4.403069
" />
<path d="M3.220239 4.403069
L3.315477 4.355450
" />
<path d="M3.315477 4.355450
L3.363096 4.307830
" />
<path d="M3.363096 4.307830
L3.410715 4.212592
" />
<path d="M3.410715 4.212592
L3.410715 4.022116
" />
<path d="M3.410715 4.022116
L3.363096 3.926878
" />
<path d="M3.363096 3.926878
L3.315477 3.879259
" />
<path d="M3.315477 3.879259
L3.220239 3.831640
" />
<path d="M4.029763 3.403069
L4.125001 3.403069
" />
<path d="M4.125001 3.403069
L4.220239 3.450688
" />
<path d="M4.220239 3.450688
L4.267858 3.498307
" />
<path d="M4.267858 3.498307
L4.315477 3.593545
" />
<path d="M4.315477 3.593545
L4.363096 3.784021
" />
<path d="M4.363096 3.784021
L4.363096 4.022116
" />
<path d="M4.363096 4.022116
L4.315477 4.212592
" />
<path d="M4.315477 4.212592
L4.267858 4.307830
" />
<path d="M4.267858 4.307830
L4.220239 4.355450
" />
<path d="M4.220239 4.355450
L4.125001 4.403069
" />
<path d="M4.125001 4.403069
L4.029763 4.403069
" />
<path d="M4.029763 4.403069
L3.934525 4.355450
" />
<path d="M3.934525 4.355450
L3.886906 4.307830
" />
<path d="M3.886906 4.307830
L3.839287 4.212592
" />
<path d="M3.839287 4.212592
L3.791668 4.022116
" />
<path d="M3.791668 4.022116
L3.791668 3.784021
" />
<path d="M3.791668 3.784021
L3.839287 3.593545
" />
<path d="M3.839287 3.593545
L3.886906 3.498307
" />
<path d="M3.886906 3.498307
L3.934525 3.450688
" />
<path d="M3.934525 3.450688
L4.029763 3.403069
" />
<path d="M5.267858 3.403069
L4.791668 3.403069
" />
<path d="M4.791668 3.403069
L4.744049 3.879259
" />
<path d="M4.744049 3.879259
L4.791668 3.831640
" />
<path d="M4.791668 3.831640
L4.886906 3.784021
" />
<path d="M4.886906 3.784021
L5.125001 3.784021
" />
<path d="M5.125001 3.784021
L5.220239 3.831640
" />
<path d="M5.220239 3.831640
L5.267858 3.879259
" />
<path d="M5.267858 3.879259
L5.315477 3.974497
" />
<path d="M5.315477 3.974497
L5.315477 4.212592
" />
<path d="M5.315477 4.212592
L5.267858 4.307830
" />
<path d="M5.267858 4.307830
L5.220239 4.355450
" />
<path d="M5.220239 4.355450
L5.125001 4.403069
" />
<path d="M5.125001 4.403069
L4.886906 4.403069
" />
<path d="M4.886906 4.403069
L4.791668 4.355450
" />
<path d="M4.791668 4.355450
L4.744049 4.307830
" />
<path d="M5.505953 4.498307
L6.267858 4.498307
" />
<path d="M6.458335 3.498307
L6.505954 3.450688
" />
<path d="M6.505954 3.450688
L6.601192 3.403069
" />
<path d="M6.601192 3.403069
L6.839287 3.403069
" />
<path d="M6.839287 3.403069
L6.934525 3.450688
" />
<path d="M6.934525 3.450688
L6.982144 3.498307
" />
<path d="M6.982144 3.498307
L7.029763 3.593545
" />
<path d="M7.029763 3.593545
L7.029763 3.688783
" />
<path d="M7.029763 3.688783
L6.982144 3.831640
" />
<path d="M6.982144 3.831640
L6.410716 4.403069
" />
<path d="M6.410716 4.403069
L7.029763 4.403069
" />
<path d="M7.648811 3.403069
L7.744049 3.403069
" />
<path d="M7.744049 3.403069
L7.839287 3.450688
" />
<path d="M7.839287 3.450688
L7.886906 3.498307
" />
<path d="M7.886906 3.498307
L7.934525 3.593545
" />
<path d="M7.934525 3.593545
L7.982144 3.784021
" />
<path d="M7.982144 3.784021
L7.982144 4.022116
" />
<path d="M7.982144 4.022116
L7.934525 4.212592
" />
<path d="M7.934525 4.212592
L7.886906 4.307830
" />
<path d="M7.886906 4.307830
L7.839287 4.355450
" />
<path d="M7.839287 4.355450
L7.744049 4.403069
" />
<path d="M7.744049 4.403069
L7.648811 4.403069
" />
<path d="M7.648811 4.403069
L7.553573 4.355450
" />
<path d="M7.553573 4.355450
L7.505954 4.307830
" />
<path d="M7.505954 4.307830
L7.458335 4.212592
" />
<path d="M7.458335 4.212592
L7.410716 4.022116
" />
<path d="M7.410716 4.022116
L7.410716 3.784021
" />
<path d="M7.410716 3.784021
L7.458335 3.593545
" />
<path d="M7.458335 3.593545
L7.505954 3.498307
" />
<path d="M7.505954 3.498307
L7.553573 3.450688
" />
<path d="M7.553573 3.450688
L7.648811 3.403069
" />
<path d="M8.934524 4.403069
L8.363096 4.403069
" />
<path d="M8.648810 4.403069
L8.648810 3.403069
" />
<path d="M8.648810 3.403069
L8.553572 3.545926
" />
<path d="M8.553572 3.545926
L8.458334 3.641164
" />
<path d="M8.458334 3.641164
L8.363096 3.688783
" />
<path d="M9.315477 3.498307
L9.363096 3.450688
" />
<path d="M9.363096 3.450688
L9.458334 3.403069
" />
<path d="M9.458334 3.403069
L9.696429 3.403069
" />
<path d="M9.696429 3.403069
L9.791667 3.450688
" />
<path d="M9.791667 3.450688
L9.839286 3.498307
" />
<path d="M9.839286 3.498307
L9.886905 3.593545
" />
<path d="M9.886905 3.593545
L9.886905 3.688783
" />
<path d="M9.886905 3.688783
L9.839286 3.831640
" />
<path d="M9.839286 3.831640
L9.267858 4.403069
" />
<path d="M9.267858 4.403069
L9.886905 4.403069
" />
<path d="M10.315477 4.403069
L10.315477 3.403069
" />
<path d="M10.315477 3.403069
L10.648810 4.117354
" />
<path d="M10.648810 4.117354
L10.982143 3.403069
" />
<path d="M10.982143 3.403069
L10.982143 4.403069
" />
<path d="M11.839286 4.355450
L11.744048 4.403069
" />
<path d="M11.744048 4.403069
L11.553572 4.403069
" />
<path d="M11.553572 4.403069
L11.458334 4.355450
" />
<path d="M11.458334 4.355450
L11.410715 4.260211
" />
<path d="M11.410715 4.260211
L11.410715 3.879259
" />
<path d="M11.410715 3.879259
L11.458334 3.784021
" />
<path d="M11.458334 3.784021
L11.553572 3.736402
" />
<path d="M11.553572 3.736402
L11.744048 3.736402
" />
<path d="M11.744048 3.736402
L11.839286 3.784021
" />
<path d="M11.839286 3.784021
L11.886905 3.879259
" />
<path d="M11.886905 3.879259
L11.886905 3.974497
" />
<path d="M11.886905 3.974497
L11.410715 4.069735
" />
<path d="M12.172620 3.736402
L12.553572 3.736402
" />
<path d="M12.315477 3.403069
L12.315477 4.260211
" />
<path d="M12.315477 4.260211
L12.363096 4.355450
" />
<path d="M12.363096 4.355450
L12.458334 4.403069
" />
<path d="M12.458334 4.403069
L12.553572 4.403069
" />
<path d="M12.886906 4.403069
L12.886906 3.736402
" />
<path d="M12.886906 3.926878
L12.934525 3.831640
" />
<path d="M12.934525 3.831640
L12.982144 3.784021
" />
<path d="M12.982144 3.784021
L13.077382 3.736402
" />
<path d="M13.077382 3.736402
L13.172620 3.736402
" />
<path d="M13.505954 4.403069
L13.505954 3.736402
" />
<path d="M13.505954 3.403069
L13.458335 3.450688
" />
<path d="M13.458335 3.450688
L13.505954 3.498307
" />
<path d="M13.505954 3.498307
L13.553573 3.450688
" />
<path d="M13.553573 3.450688
L13.505954 3.403069
" />
<path d="M13.505954 3.403069
L13.505954 3.498307
" />
<path d="M14.410715 4.355450
L14.315477 4.403069
" />
<path d="M14.315477 4.403069
L14.125001 4.403069
" />
<path d="M14.125001 4.403069
L14.029763 4.355450
" />
<path d="M14.029763 4.355450
L13.982144 4.307830
" />
<path d="M13.982144 4.307830
L13.934525 4.212592
" />
<path d="M13.934525 4.212592
L13.934525 3.926878
" />
<path d="M13.934525 3.926878
L13.982144 3.831640
" />
<path d="M13.982144 3.831640
L14.029763 3.784021
" />
<path d="M14.029763 3.784021
L14.125001 3.736402
" />
<path d="M14.125001 3.736402
L14.315477 3.736402
" />
<path d="M14.315477 3.736402
L14.410715 3.784021
" />
<path d="M14.601192 4.498307
L15.363096 4.498307
" />
<path d="M15.601192 4.403069
L15.601192 3.403069
" />
<path d="M15.601192 3.403069
L16.172620 4.403069
" />
<path d="M16.172620 4.403069
L16.172620 3.403069
" />
</g></g>
<g style="fill:none; 
stroke:#AFAFAF; stroke-width:0.080000; stroke-opacity:1; 
stroke-linecap:round; stroke-linejoin:round;">
<text x="8.267858" y="2.648250"
textLength="2.282856" font-size="0.666666" lengthAdjust="spacingAndGlyphs"
text-anchor="middle" opacity="0" stroke-opacity="0">REF**</text>
<g class="stroked-text"><desc>REF**</desc>
<path d="M7.601192 2.625399
L7.434526 2.387305
" />
<path d="M7.315478 2.625399
L7.315478 2.125400
" />
<path d="M7.315478 2.125400
L7.505954 2.125400
" />
<path d="M7.505954 2.125400
L7.553573 2.149210
" />
<path d="M7.553573 2.149210
L7.577383 2.173019
" />
<path d="M7.577383 2.173019
L7.601192 2.220638
" />
<path d="M7.601192 2.220638
L7.601192 2.292067
" />
<path d="M7.601192 2.292067
L7.577383 2.339686
" />
<path d="M7.577383 2.339686
L7.553573 2.363495
" />
<path d="M7.553573 2.363495
L7.505954 2.387305
" />
<path d="M7.505954 2.387305
L7.315478 2.387305
" />
<path d="M7.815478 2.363495
L7.982145 2.363495
" />
<path d="M8.053573 2.625399
L7.815478 2.625399
" />
<path d="M7.815478 2.625399
L7.815478 2.125400
" />
<path d="M7.815478 2.125400
L8.053573 2.125400
" />
<path d="M8.434525 2.363495
L8.267858 2.363495
" />
<path d="M8.267858 2.625399
L8.267858 2.125400
" />
<path d="M8.267858 2.125400
L8.505953 2.125400
" />
<path d="M8.767858 2.125400
L8.767858 2.244448
" />
<path d="M8.648810 2.196829
L8.767858 2.244448
" />
<path d="M8.767858 2.244448
L8.886905 2.196829
" />
<path d="M8.696429 2.339686
L8.767858 2.244448
" />
<path d="M8.767858 2.244448
L8.839286 2.339686
" />
<path d="M9.148810 2.125400
L9.148810 2.244448
" />
<path d="M9.029762 2.196829
L9.148810 2.244448
" />
<path d="M9.148810 2.244448
L9.267857 2.196829
" />
<path d="M9.077381 2.339686
L9.148810 2.244448
" />
<path d="M9.148810 2.244448
L9.220238 2.339686
" />
</g><path style="fill:none; 
stroke:#AFAFAF; stroke-width:0.100000; stroke-opacity:1; 
stroke-linecap:round; stroke-linejoin:round;fill:none"
d="M 7.267858,1.948250
9.267858,1.948250
9.267858,2.848250
7.267858,2.848250
Z" /> 
</g> 
</svg>
