<?xml version="1.0" standalone="no"?>
 <!DOCTYPE svg PUBLIC "-//W3C//DTD SVG 1.1//EN" 
 "http://www.w3.org/Graphics/SVG/1.1/DTD/svg11.dtd"> 
<svg
  xmlns:svg="http://www.w3.org/2000/svg"
  xmlns="http://www.w3.org/2000/svg"
  xmlns:xlink="http://www.w3.org/1999/xlink"
  xmlns:inkscape="http://www.inkscape.org/namespaces/inkscape"
  version="1.1"
  width="100%" height="100%" viewBox="0.000000 0.000000 14.909800 3.784600">
<title>SVG Image created as R_0201_0603Metric.svg date 2026-04-15T16:02:08 </title>
  <desc>Image generated by PCBNEW </desc>
<g style="fill:#000000; fill-opacity:1.000000;stroke:#000000; stroke-opacity:1.000000;
stroke-linecap:round; stroke-linejoin:round;"
 transform="translate(0 0) scale(1 1)">
<path style="fill:#C83434; fill-opacity:1.000000; stroke:none;fill-rule:evenodd;"
d="M 6.908334,1.798250
6.915946,1.759982
6.937623,1.727539
6.970066,1.705862
7.008334,1.698250
7.268334,1.698250
7.306602,1.705862
7.339045,1.727539
7.360722,1.759982
7.368334,1.798250
7.368334,1.998250
7.360722,2.036518
7.339045,2.068961
7.306602,2.090638
7.268334,2.098250
7.008334,2.098250
6.970066,2.090638
6.937623,2.068961
6.915946,2.036518
6.908334,1.998250
Z" /> 
<path style="fill:#C83434; fill-opacity:1.000000; stroke:none;fill-rule:evenodd;"
d="M 7.548334,1.798250
7.555946,1.759982
7.577623,1.727539
7.610066,1.705862
7.648334,1.698250
7.908334,1.698250
7.946602,1.705862
7.979045,1.727539
8.000722,1.759982
8.008334,1.798250
8.008334,1.998250
8.000722,2.036518
7.979045,2.068961
7.946602,2.090638
7.908334,2.098250
7.648334,2.098250
7.610066,2.090638
7.577623,2.068961
7.555946,2.036518
7.548334,1.998250
Z" /> 
<path style="fill:#D864FF; fill-opacity:0.400000; stroke:none;fill-rule:evenodd;"
d="M 6.908334,1.798250
6.915946,1.759982
6.937623,1.727539
6.970066,1.705862
7.008334,1.698250
7.268334,1.698250
7.306602,1.705862
7.339045,1.727539
7.360722,1.759982
7.368334,1.798250
7.368334,1.998250
7.360722,2.036518
7.339045,2.068961
7.306602,2.090638
7.268334,2.098250
7.008334,2.098250
6.970066,2.090638
6.937623,2.068961
6.915946,2.036518
6.908334,1.998250
Z" /> 
<path style="fill:#D864FF; fill-opacity:0.400000; stroke:none;fill-rule:evenodd;"
d="M 7.548334,1.798250
7.555946,1.759982
7.577623,1.727539
7.610066,1.705862
7.648334,1.698250
7.908334,1.698250
7.946602,1.705862
7.979045,1.727539
8.000722,1.759982
8.008334,1.798250
8.008334,1.998250
8.000722,2.036518
7.979045,2.068961
7.946602,2.090638
7.908334,2.098250
7.648334,2.098250
7.610066,2.090638
7.577623,2.068961
7.555946,2.036518
7.548334,1.998250
Z" /> 
<path style="fill:#B4A09A; fill-opacity:0.900000; stroke:none;fill-rule:evenodd;"
d="M 6.954334,1.797750
6.960386,1.767327
6.977619,1.741535
7.003411,1.724302
7.033834,1.718250
7.192834,1.718250
7.223257,1.724302
7.249049,1.741535
7.266282,1.767327
7.272334,1.797750
7.272334,1.998750
7.266282,2.029173
7.249049,2.054965
7.223257,2.072198
7.192834,2.078250
7.033834,2.078250
7.003411,2.072198
6.977619,2.054965
6.960386,2.029173
6.954334,1.998750
Z" /> 
<path style="fill:#B4A09A; fill-opacity:0.900000; stroke:none;fill-rule:evenodd;"
d="M 7.644334,1.797750
7.650386,1.767327
7.667619,1.741535
7.693411,1.724302
7.723834,1.718250
7.882834,1.718250
7.913257,1.724302
7.939049,1.741535
7.956282,1.767327
7.962334,1.797750
7.962334,1.998750
7.956282,2.029173
7.939049,2.054965
7.913257,2.072198
7.882834,2.078250
7.723834,2.078250
7.693411,2.072198
7.667619,2.054965
7.650386,2.029173
7.644334,1.998750
Z" /> 
</g>
<g style="fill:none; 
stroke:#F2EDA1; stroke-width:0.150000; stroke-opacity:1; 
stroke-linecap:round; stroke-linejoin:round;">
<text x="7.458334" y="1.348250"
textLength="4.535715" font-size="1.333333" lengthAdjust="spacingAndGlyphs"
text-anchor="middle" opacity="0" stroke-opacity="0">REF**</text>
<g class="stroked-text"><desc>REF**</desc>
<path d="M6.125001 1.303070
L5.791668 0.826879
" />
<path d="M5.553573 1.303070
L5.553573 0.303070
" />
<path d="M5.553573 0.303070
L5.934525 0.303070
" />
<path d="M5.934525 0.303070
L6.029763 0.350689
" />
<path d="M6.029763 0.350689
L6.077382 0.398308
" />
<path d="M6.077382 0.398308
L6.125001 0.493546
" />
<path d="M6.125001 0.493546
L6.125001 0.636403
" />
<path d="M6.125001 0.636403
L6.077382 0.731641
" />
<path d="M6.077382 0.731641
L6.029763 0.779260
" />
<path d="M6.029763 0.779260
L5.934525 0.826879
" />
<path d="M5.934525 0.826879
L5.553573 0.826879
" />
<path d="M6.553573 0.779260
L6.886906 0.779260
" />
<path d="M7.029763 1.303070
L6.553573 1.303070
" />
<path d="M6.553573 1.303070
L6.553573 0.303070
" />
<path d="M6.553573 0.303070
L7.029763 0.303070
" />
<path d="M7.791667 0.779260
L7.458334 0.779260
" />
<path d="M7.458334 1.303070
L7.458334 0.303070
" />
<path d="M7.458334 0.303070
L7.934524 0.303070
" />
<path d="M8.458334 0.303070
L8.458334 0.541165
" />
<path d="M8.220239 0.445927
L8.458334 0.541165
" />
<path d="M8.458334 0.541165
L8.696429 0.445927
" />
<path d="M8.315477 0.731641
L8.458334 0.541165
" />
<path d="M8.458334 0.541165
L8.601191 0.731641
" />
<path d="M9.220239 0.303070
L9.220239 0.541165
" />
<path d="M8.982144 0.445927
L9.220239 0.541165
" />
<path d="M9.220239 0.541165
L9.458334 0.445927
" />
<path d="M9.077382 0.731641
L9.220239 0.541165
" />
<path d="M9.220239 0.541165
L9.363096 0.731641
" />
</g><path style="fill:none; 
stroke:#FF26E2; stroke-width:0.050000; stroke-opacity:1; 
stroke-linecap:round; stroke-linejoin:round;fill:none"
d="M 6.758334,1.548250
8.158334,1.548250
8.158334,2.248250
6.758334,2.248250
Z" /> 
</g>
<g style="fill:none; 
stroke:#AFAFAF; stroke-width:0.150000; stroke-opacity:1; 
stroke-linecap:round; stroke-linejoin:round;">
<text x="7.458334" y="3.448250"
textLength="14.916668" font-size="1.333333" lengthAdjust="spacingAndGlyphs"
text-anchor="middle" opacity="0" stroke-opacity="0">R_0201_0603Metric</text>
<g class="stroked-text"><desc>R_0201_0603Metric</desc>
<path d="M0.934524 3.403069
L0.601191 2.926878
" />
<path d="M0.363096 3.403069
L0.363096 2.403069
" />
<path d="M0.363096 2.403069
L0.744048 2.403069
" />
<path d="M0.744048 2.403069
L0.839286 2.450688
" />
<path d="M0.839286 2.450688
L0.886905 2.498307
" />
<path d="M0.886905 2.498307
L0.934524 2.593545
" />
<path d="M0.934524 2.593545
L0.934524 2.736402
" />
<path d="M0.934524 2.736402
L0.886905 2.831640
" />
<path d="M0.886905 2.831640
L0.839286 2.879259
" />
<path d="M0.839286 2.879259
L0.744048 2.926878
" />
<path d="M0.744048 2.926878
L0.363096 2.926878
" />
<path d="M1.125000 3.498307
L1.886905 3.498307
" />
<path d="M2.315477 2.403069
L2.410715 2.403069
" />
<path d="M2.410715 2.403069
L2.505953 2.450688
" />
<path d="M2.505953 2.450688
L2.553572 2.498307
" />
<path d="M2.553572 2.498307
L2.601191 2.593545
" />
<path d="M2.601191 2.593545
L2.648810 2.784021
" />
<path d="M2.648810 2.784021
L2.648810 3.022116
" />
<path d="M2.648810 3.022116
L2.601191 3.212592
" />
<path d="M2.601191 3.212592
L2.553572 3.307830
" />
<path d="M2.553572 3.307830
L2.505953 3.355450
" />
<path d="M2.505953 3.355450
L2.410715 3.403069
" />
<path d="M2.410715 3.403069
L2.315477 3.403069
" />
<path d="M2.315477 3.403069
L2.220239 3.355450
" />
<path d="M2.220239 3.355450
L2.172620 3.307830
" />
<path d="M2.172620 3.307830
L2.125001 3.212592
" />
<path d="M2.125001 3.212592
L2.077382 3.022116
" />
<path d="M2.077382 3.022116
L2.077382 2.784021
" />
<path d="M2.077382 2.784021
L2.125001 2.593545
" />
<path d="M2.125001 2.593545
L2.172620 2.498307
" />
<path d="M2.172620 2.498307
L2.220239 2.450688
" />
<path d="M2.220239 2.450688
L2.315477 2.403069
" />
<path d="M3.029763 2.498307
L3.077382 2.450688
" />
<path d="M3.077382 2.450688
L3.172620 2.403069
" />
<path d="M3.172620 2.403069
L3.410715 2.403069
" />
<path d="M3.410715 2.403069
L3.505953 2.450688
" />
<path d="M3.505953 2.450688
L3.553572 2.498307
" />
<path d="M3.553572 2.498307
L3.601191 2.593545
" />
<path d="M3.601191 2.593545
L3.601191 2.688783
" />
<path d="M3.601191 2.688783
L3.553572 2.831640
" />
<path d="M3.553572 2.831640
L2.982144 3.403069
" />
<path d="M2.982144 3.403069
L3.601191 3.403069
" />
<path d="M4.220239 2.403069
L4.315477 2.403069
" />
<path d="M4.315477 2.403069
L4.410715 2.450688
" />
<path d="M4.410715 2.450688
L4.458334 2.498307
" />
<path d="M4.458334 2.498307
L4.505953 2.593545
" />
<path d="M4.505953 2.593545
L4.553572 2.784021
" />
<path d="M4.553572 2.784021
L4.553572 3.022116
" />
<path d="M4.553572 3.022116
L4.505953 3.212592
" />
<path d="M4.505953 3.212592
L4.458334 3.307830
" />
<path d="M4.458334 3.307830
L4.410715 3.355450
" />
<path d="M4.410715 3.355450
L4.315477 3.403069
" />
<path d="M4.315477 3.403069
L4.220239 3.403069
" />
<path d="M4.220239 3.403069
L4.125001 3.355450
" />
<path d="M4.125001 3.355450
L4.077382 3.307830
" />
<path d="M4.077382 3.307830
L4.029763 3.212592
" />
<path d="M4.029763 3.212592
L3.982144 3.022116
" />
<path d="M3.982144 3.022116
L3.982144 2.784021
" />
<path d="M3.982144 2.784021
L4.029763 2.593545
" />
<path d="M4.029763 2.593545
L4.077382 2.498307
" />
<path d="M4.077382 2.498307
L4.125001 2.450688
" />
<path d="M4.125001 2.450688
L4.220239 2.403069
" />
<path d="M5.505953 3.403069
L4.934525 3.403069
" />
<path d="M5.220239 3.403069
L5.220239 2.403069
" />
<path d="M5.220239 2.403069
L5.125001 2.545926
" />
<path d="M5.125001 2.545926
L5.029763 2.641164
" />
<path d="M5.029763 2.641164
L4.934525 2.688783
" />
<path d="M5.696429 3.498307
L6.458334 3.498307
" />
<path d="M6.886906 2.403069
L6.982144 2.403069
" />
<path d="M6.982144 2.403069
L7.077382 2.450688
" />
<path d="M7.077382 2.450688
L7.125001 2.498307
" />
<path d="M7.125001 2.498307
L7.172620 2.593545
" />
<path d="M7.172620 2.593545
L7.220239 2.784021
" />
<path d="M7.220239 2.784021
L7.220239 3.022116
" />
<path d="M7.220239 3.022116
L7.172620 3.212592
" />
<path d="M7.172620 3.212592
L7.125001 3.307830
" />
<path d="M7.125001 3.307830
L7.077382 3.355450
" />
<path d="M7.077382 3.355450
L6.982144 3.403069
" />
<path d="M6.982144 3.403069
L6.886906 3.403069
" />
<path d="M6.886906 3.403069
L6.791668 3.355450
" />
<path d="M6.791668 3.355450
L6.744049 3.307830
" />
<path d="M6.744049 3.307830
L6.696430 3.212592
" />
<path d="M6.696430 3.212592
L6.648811 3.022116
" />
<path d="M6.648811 3.022116
L6.648811 2.784021
" />
<path d="M6.648811 2.784021
L6.696430 2.593545
" />
<path d="M6.696430 2.593545
L6.744049 2.498307
" />
<path d="M6.744049 2.498307
L6.791668 2.450688
" />
<path d="M6.791668 2.450688
L6.886906 2.403069
" />
<path d="M8.077381 2.403069
L7.886905 2.403069
" />
<path d="M7.886905 2.403069
L7.791667 2.450688
" />
<path d="M7.791667 2.450688
L7.744048 2.498307
" />
<path d="M7.744048 2.498307
L7.648810 2.641164
" />
<path d="M7.648810 2.641164
L7.601191 2.831640
" />
<path d="M7.601191 2.831640
L7.601191 3.212592
" />
<path d="M7.601191 3.212592
L7.648810 3.307830
" />
<path d="M7.648810 3.307830
L7.696429 3.355450
" />
<path d="M7.696429 3.355450
L7.791667 3.403069
" />
<path d="M7.791667 3.403069
L7.982143 3.403069
" />
<path d="M7.982143 3.403069
L8.077381 3.355450
" />
<path d="M8.077381 3.355450
L8.125000 3.307830
" />
<path d="M8.125000 3.307830
L8.172619 3.212592
" />
<path d="M8.172619 3.212592
L8.172619 2.974497
" />
<path d="M8.172619 2.974497
L8.125000 2.879259
" />
<path d="M8.125000 2.879259
L8.077381 2.831640
" />
<path d="M8.077381 2.831640
L7.982143 2.784021
" />
<path d="M7.982143 2.784021
L7.791667 2.784021
" />
<path d="M7.791667 2.784021
L7.696429 2.831640
" />
<path d="M7.696429 2.831640
L7.648810 2.879259
" />
<path d="M7.648810 2.879259
L7.601191 2.974497
" />
<path d="M8.791667 2.403069
L8.886905 2.403069
" />
<path d="M8.886905 2.403069
L8.982143 2.450688
" />
<path d="M8.982143 2.450688
L9.029762 2.498307
" />
<path d="M9.029762 2.498307
L9.077381 2.593545
" />
<path d="M9.077381 2.593545
L9.125000 2.784021
" />
<path d="M9.125000 2.784021
L9.125000 3.022116
" />
<path d="M9.125000 3.022116
L9.077381 3.212592
" />
<path d="M9.077381 3.212592
L9.029762 3.307830
" />
<path d="M9.029762 3.307830
L8.982143 3.355450
" />
<path d="M8.982143 3.355450
L8.886905 3.403069
" />
<path d="M8.886905 3.403069
L8.791667 3.403069
" />
<path d="M8.791667 3.403069
L8.696429 3.355450
" />
<path d="M8.696429 3.355450
L8.648810 3.307830
" />
<path d="M8.648810 3.307830
L8.601191 3.212592
" />
<path d="M8.601191 3.212592
L8.553572 3.022116
" />
<path d="M8.553572 3.022116
L8.553572 2.784021
" />
<path d="M8.553572 2.784021
L8.601191 2.593545
" />
<path d="M8.601191 2.593545
L8.648810 2.498307
" />
<path d="M8.648810 2.498307
L8.696429 2.450688
" />
<path d="M8.696429 2.450688
L8.791667 2.403069
" />
<path d="M9.458334 2.403069
L10.077381 2.403069
" />
<path d="M10.077381 2.403069
L9.744048 2.784021
" />
<path d="M9.744048 2.784021
L9.886905 2.784021
" />
<path d="M9.886905 2.784021
L9.982143 2.831640
" />
<path d="M9.982143 2.831640
L10.029762 2.879259
" />
<path d="M10.029762 2.879259
L10.077381 2.974497
" />
<path d="M10.077381 2.974497
L10.077381 3.212592
" />
<path d="M10.077381 3.212592
L10.029762 3.307830
" />
<path d="M10.029762 3.307830
L9.982143 3.355450
" />
<path d="M9.982143 3.355450
L9.886905 3.403069
" />
<path d="M9.886905 3.403069
L9.601191 3.403069
" />
<path d="M9.601191 3.403069
L9.505953 3.355450
" />
<path d="M9.505953 3.355450
L9.458334 3.307830
" />
<path d="M10.505953 3.403069
L10.505953 2.403069
" />
<path d="M10.505953 2.403069
L10.839286 3.117354
" />
<path d="M10.839286 3.117354
L11.172619 2.403069
" />
<path d="M11.172619 2.403069
L11.172619 3.403069
" />
<path d="M12.029762 3.355450
L11.934524 3.403069
" />
<path d="M11.934524 3.403069
L11.744048 3.403069
" />
<path d="M11.744048 3.403069
L11.648810 3.355450
" />
<path d="M11.648810 3.355450
L11.601191 3.260211
" />
<path d="M11.601191 3.260211
L11.601191 2.879259
" />
<path d="M11.601191 2.879259
L11.648810 2.784021
" />
<path d="M11.648810 2.784021
L11.744048 2.736402
" />
<path d="M11.744048 2.736402
L11.934524 2.736402
" />
<path d="M11.934524 2.736402
L12.029762 2.784021
" />
<path d="M12.029762 2.784021
L12.077381 2.879259
" />
<path d="M12.077381 2.879259
L12.077381 2.974497
" />
<path d="M12.077381 2.974497
L11.601191 3.069735
" />
<path d="M12.363096 2.736402
L12.744048 2.736402
" />
<path d="M12.505953 2.403069
L12.505953 3.260211
" />
<path d="M12.505953 3.260211
L12.553572 3.355450
" />
<path d="M12.553572 3.355450
L12.648810 3.403069
" />
<path d="M12.648810 3.403069
L12.744048 3.403069
" />
<path d="M13.077382 3.403069
L13.077382 2.736402
" />
<path d="M13.077382 2.926878
L13.125001 2.831640
" />
<path d="M13.125001 2.831640
L13.172620 2.784021
" />
<path d="M13.172620 2.784021
L13.267858 2.736402
" />
<path d="M13.267858 2.736402
L13.363096 2.736402
" />
<path d="M13.696430 3.403069
L13.696430 2.736402
" />
<path d="M13.696430 2.403069
L13.648811 2.450688
" />
<path d="M13.648811 2.450688
L13.696430 2.498307
" />
<path d="M13.696430 2.498307
L13.744049 2.450688
" />
<path d="M13.744049 2.450688
L13.696430 2.403069
" />
<path d="M13.696430 2.403069
L13.696430 2.498307
" />
<path d="M14.601191 3.355450
L14.505953 3.403069
" />
<path d="M14.505953 3.403069
L14.315477 3.403069
" />
<path d="M14.315477 3.403069
L14.220239 3.355450
" />
<path d="M14.220239 3.355450
L14.172620 3.307830
" />
<path d="M14.172620 3.307830
L14.125001 3.212592
" />
<path d="M14.125001 3.212592
L14.125001 2.926878
" />
<path d="M14.125001 2.926878
L14.172620 2.831640
" />
<path d="M14.172620 2.831640
L14.220239 2.784021
" />
<path d="M14.220239 2.784021
L14.315477 2.736402
" />
<path d="M14.315477 2.736402
L14.505953 2.736402
" />
<path d="M14.505953 2.736402
L14.601191 2.784021
" />
</g></g>
<g style="fill:none; 
stroke:#AFAFAF; stroke-width:0.040000; stroke-opacity:1; 
stroke-linecap:round; stroke-linejoin:round;">
<text x="7.458334" y="1.343250"
textLength="1.141428" font-size="0.333333" lengthAdjust="spacingAndGlyphs"
text-anchor="middle" opacity="0" stroke-opacity="0">REF**</text>
<g class="stroked-text"><desc>REF**</desc>
<path d="M7.125001 1.331825
L7.041668 1.212778
" />
<path d="M6.982144 1.331825
L6.982144 1.081825
" />
<path d="M6.982144 1.081825
L7.077382 1.081825
" />
<path d="M7.077382 1.081825
L7.101192 1.093730
" />
<path d="M7.101192 1.093730
L7.113097 1.105635
" />
<path d="M7.113097 1.105635
L7.125001 1.129444
" />
<path d="M7.125001 1.129444
L7.125001 1.165159
" />
<path d="M7.125001 1.165159
L7.113097 1.188968
" />
<path d="M7.113097 1.188968
L7.101192 1.200873
" />
<path d="M7.101192 1.200873
L7.077382 1.212778
" />
<path d="M7.077382 1.212778
L6.982144 1.212778
" />
<path d="M7.232144 1.200873
L7.315478 1.200873
" />
<path d="M7.351192 1.331825
L7.232144 1.331825
" />
<path d="M7.232144 1.331825
L7.232144 1.081825
" />
<path d="M7.232144 1.081825
L7.351192 1.081825
" />
<path d="M7.541667 1.200873
L7.458334 1.200873
" />
<path d="M7.458334 1.331825
L7.458334 1.081825
" />
<path d="M7.458334 1.081825
L7.577381 1.081825
" />
<path d="M7.708334 1.081825
L7.708334 1.141349
" />
<path d="M7.648810 1.117540
L7.708334 1.141349
" />
<path d="M7.708334 1.141349
L7.767857 1.117540
" />
<path d="M7.672619 1.188968
L7.708334 1.141349
" />
<path d="M7.708334 1.141349
L7.744048 1.188968
" />
<path d="M7.898810 1.081825
L7.898810 1.141349
" />
<path d="M7.839286 1.117540
L7.898810 1.141349
" />
<path d="M7.898810 1.141349
L7.958333 1.117540
" />
<path d="M7.863095 1.188968
L7.898810 1.141349
" />
<path d="M7.898810 1.141349
L7.934524 1.188968
" />
</g><path style="fill:none; 
stroke:#AFAFAF; stroke-width:0.100000; stroke-opacity:1; 
stroke-linecap:round; stroke-linejoin:round;fill:none"
d="M 7.158334,1.748250
7.758334,1.748250
7.758334,2.048250
7.158334,2.048250
Z" /> 
</g> 
</svg>
