<?xml version="1.0" standalone="no"?>
 <!DOCTYPE svg PUBLIC "-//W3C//DTD SVG 1.1//EN" 
 "http://www.w3.org/Graphics/SVG/1.1/DTD/svg11.dtd"> 
<svg
  xmlns:svg="http://www.w3.org/2000/svg"
  xmlns="http://www.w3.org/2000/svg"
  xmlns:xlink="http://www.w3.org/1999/xlink"
  xmlns:inkscape="http://www.inkscape.org/namespaces/inkscape"
  version="1.1"
  width="100%" height="100%" viewBox="0.000000 0.000000 16.713200 3.784600">
<title>SVG Image created as R_0201_0603Metric_N.svg date 2026-04-15T16:16:30 </title>
  <desc>Image generated by PCBNEW </desc>
<g style="fill:#000000; fill-opacity:1.000000;stroke:#000000; stroke-opacity:1.000000;
stroke-linecap:round; stroke-linejoin:round;"
 transform="translate(0 0) scale(1 1)">
<path style="fill:#C83434; fill-opacity:1.000000; stroke:none;fill-rule:evenodd;"
d="M 7.813096,1.798250
7.820708,1.759982
7.842385,1.727539
7.874828,1.705862
7.913096,1.698250
8.173096,1.698250
8.211364,1.705862
8.243807,1.727539
8.265484,1.759982
8.273096,1.798250
8.273096,1.998250
8.265484,2.036518
8.243807,2.068961
8.211364,2.090638
8.173096,2.098250
7.913096,2.098250
7.874828,2.090638
7.842385,2.068961
7.820708,2.036518
7.813096,1.998250
Z" /> 
<path style="fill:#C83434; fill-opacity:1.000000; stroke:none;fill-rule:evenodd;"
d="M 8.453096,1.798250
8.460708,1.759982
8.482385,1.727539
8.514828,1.705862
8.553096,1.698250
8.813096,1.698250
8.851364,1.705862
8.883807,1.727539
8.905484,1.759982
8.913096,1.798250
8.913096,1.998250
8.905484,2.036518
8.883807,2.068961
8.851364,2.090638
8.813096,2.098250
8.553096,2.098250
8.514828,2.090638
8.482385,2.068961
8.460708,2.036518
8.453096,1.998250
Z" /> 
<path style="fill:#D864FF; fill-opacity:0.400000; stroke:none;fill-rule:evenodd;"
d="M 7.813096,1.798250
7.820708,1.759982
7.842385,1.727539
7.874828,1.705862
7.913096,1.698250
8.173096,1.698250
8.211364,1.705862
8.243807,1.727539
8.265484,1.759982
8.273096,1.798250
8.273096,1.998250
8.265484,2.036518
8.243807,2.068961
8.211364,2.090638
8.173096,2.098250
7.913096,2.098250
7.874828,2.090638
7.842385,2.068961
7.820708,2.036518
7.813096,1.998250
Z" /> 
<path style="fill:#D864FF; fill-opacity:0.400000; stroke:none;fill-rule:evenodd;"
d="M 8.453096,1.798250
8.460708,1.759982
8.482385,1.727539
8.514828,1.705862
8.553096,1.698250
8.813096,1.698250
8.851364,1.705862
8.883807,1.727539
8.905484,1.759982
8.913096,1.798250
8.913096,1.998250
8.905484,2.036518
8.883807,2.068961
8.851364,2.090638
8.813096,2.098250
8.553096,2.098250
8.514828,2.090638
8.482385,2.068961
8.460708,2.036518
8.453096,1.998250
Z" /> 
<path style="fill:#B4A09A; fill-opacity:0.900000; stroke:none;fill-rule:evenodd;"
d="M 7.859096,1.797750
7.865148,1.767327
7.882381,1.741535
7.908173,1.724302
7.938596,1.718250
8.097596,1.718250
8.128019,1.724302
8.153811,1.741535
8.171044,1.767327
8.177096,1.797750
8.177096,1.998750
8.171044,2.029173
8.153811,2.054965
8.128019,2.072198
8.097596,2.078250
7.938596,2.078250
7.908173,2.072198
7.882381,2.054965
7.865148,2.029173
7.859096,1.998750
Z" /> 
<path style="fill:#B4A09A; fill-opacity:0.900000; stroke:none;fill-rule:evenodd;"
d="M 8.549096,1.797750
8.555148,1.767327
8.572381,1.741535
8.598173,1.724302
8.628596,1.718250
8.787596,1.718250
8.818019,1.724302
8.843811,1.741535
8.861044,1.767327
8.867096,1.797750
8.867096,1.998750
8.861044,2.029173
8.843811,2.054965
8.818019,2.072198
8.787596,2.078250
8.628596,2.078250
8.598173,2.072198
8.572381,2.054965
8.555148,2.029173
8.549096,1.998750
Z" /> 
</g>
<g style="fill:none; 
stroke:#F2EDA1; stroke-width:0.150000; stroke-opacity:1; 
stroke-linecap:round; stroke-linejoin:round;">
<text x="8.363096" y="1.348250"
textLength="4.535715" font-size="1.333333" lengthAdjust="spacingAndGlyphs"
text-anchor="middle" opacity="0" stroke-opacity="0">REF**</text>
<g class="stroked-text"><desc>REF**</desc>
<path d="M7.029763 1.303070
L6.696430 0.826879
" />
<path d="M6.458335 1.303070
L6.458335 0.303070
" />
<path d="M6.458335 0.303070
L6.839287 0.303070
" />
<path d="M6.839287 0.303070
L6.934525 0.350689
" />
<path d="M6.934525 0.350689
L6.982144 0.398308
" />
<path d="M6.982144 0.398308
L7.029763 0.493546
" />
<path d="M7.029763 0.493546
L7.029763 0.636403
" />
<path d="M7.029763 0.636403
L6.982144 0.731641
" />
<path d="M6.982144 0.731641
L6.934525 0.779260
" />
<path d="M6.934525 0.779260
L6.839287 0.826879
" />
<path d="M6.839287 0.826879
L6.458335 0.826879
" />
<path d="M7.458335 0.779260
L7.791668 0.779260
" />
<path d="M7.934525 1.303070
L7.458335 1.303070
" />
<path d="M7.458335 1.303070
L7.458335 0.303070
" />
<path d="M7.458335 0.303070
L7.934525 0.303070
" />
<path d="M8.696429 0.779260
L8.363096 0.779260
" />
<path d="M8.363096 1.303070
L8.363096 0.303070
" />
<path d="M8.363096 0.303070
L8.839286 0.303070
" />
<path d="M9.363096 0.303070
L9.363096 0.541165
" />
<path d="M9.125001 0.445927
L9.363096 0.541165
" />
<path d="M9.363096 0.541165
L9.601191 0.445927
" />
<path d="M9.220239 0.731641
L9.363096 0.541165
" />
<path d="M9.363096 0.541165
L9.505953 0.731641
" />
<path d="M10.125001 0.303070
L10.125001 0.541165
" />
<path d="M9.886906 0.445927
L10.125001 0.541165
" />
<path d="M10.125001 0.541165
L10.363096 0.445927
" />
<path d="M9.982144 0.731641
L10.125001 0.541165
" />
<path d="M10.125001 0.541165
L10.267858 0.731641
" />
</g><path style="fill:none; 
stroke:#FF26E2; stroke-width:0.050000; stroke-opacity:1; 
stroke-linecap:round; stroke-linejoin:round;fill:none"
d="M 7.663096,1.548250
9.063096,1.548250
9.063096,2.248250
7.663096,2.248250
Z" /> 
</g>
<g style="fill:none; 
stroke:#AFAFAF; stroke-width:0.150000; stroke-opacity:1; 
stroke-linecap:round; stroke-linejoin:round;">
<text x="8.363096" y="3.448250"
textLength="16.726192" font-size="1.333333" lengthAdjust="spacingAndGlyphs"
text-anchor="middle" opacity="0" stroke-opacity="0">R_0201_0603Metric_N</text>
<g class="stroked-text"><desc>R_0201_0603Metric_N</desc>
<path d="M0.934524 3.403069
L0.601191 2.926878
" />
<path d="M0.363096 3.403069
L0.363096 2.403069
" />
<path d="M0.363096 2.403069
L0.744048 2.403069
" />
<path d="M0.744048 2.403069
L0.839286 2.450688
" />
<path d="M0.839286 2.450688
L0.886905 2.498307
" />
<path d="M0.886905 2.498307
L0.934524 2.593545
" />
<path d="M0.934524 2.593545
L0.934524 2.736402
" />
<path d="M0.934524 2.736402
L0.886905 2.831640
" />
<path d="M0.886905 2.831640
L0.839286 2.879259
" />
<path d="M0.839286 2.879259
L0.744048 2.926878
" />
<path d="M0.744048 2.926878
L0.363096 2.926878
" />
<path d="M1.125000 3.498307
L1.886905 3.498307
" />
<path d="M2.315477 2.403069
L2.410715 2.403069
" />
<path d="M2.410715 2.403069
L2.505953 2.450688
" />
<path d="M2.505953 2.450688
L2.553572 2.498307
" />
<path d="M2.553572 2.498307
L2.601191 2.593545
" />
<path d="M2.601191 2.593545
L2.648810 2.784021
" />
<path d="M2.648810 2.784021
L2.648810 3.022116
" />
<path d="M2.648810 3.022116
L2.601191 3.212592
" />
<path d="M2.601191 3.212592
L2.553572 3.307830
" />
<path d="M2.553572 3.307830
L2.505953 3.355450
" />
<path d="M2.505953 3.355450
L2.410715 3.403069
" />
<path d="M2.410715 3.403069
L2.315477 3.403069
" />
<path d="M2.315477 3.403069
L2.220239 3.355450
" />
<path d="M2.220239 3.355450
L2.172620 3.307830
" />
<path d="M2.172620 3.307830
L2.125001 3.212592
" />
<path d="M2.125001 3.212592
L2.077382 3.022116
" />
<path d="M2.077382 3.022116
L2.077382 2.784021
" />
<path d="M2.077382 2.784021
L2.125001 2.593545
" />
<path d="M2.125001 2.593545
L2.172620 2.498307
" />
<path d="M2.172620 2.498307
L2.220239 2.450688
" />
<path d="M2.220239 2.450688
L2.315477 2.403069
" />
<path d="M3.029763 2.498307
L3.077382 2.450688
" />
<path d="M3.077382 2.450688
L3.172620 2.403069
" />
<path d="M3.172620 2.403069
L3.410715 2.403069
" />
<path d="M3.410715 2.403069
L3.505953 2.450688
" />
<path d="M3.505953 2.450688
L3.553572 2.498307
" />
<path d="M3.553572 2.498307
L3.601191 2.593545
" />
<path d="M3.601191 2.593545
L3.601191 2.688783
" />
<path d="M3.601191 2.688783
L3.553572 2.831640
" />
<path d="M3.553572 2.831640
L2.982144 3.403069
" />
<path d="M2.982144 3.403069
L3.601191 3.403069
" />
<path d="M4.220239 2.403069
L4.315477 2.403069
" />
<path d="M4.315477 2.403069
L4.410715 2.450688
" />
<path d="M4.410715 2.450688
L4.458334 2.498307
" />
<path d="M4.458334 2.498307
L4.505953 2.593545
" />
<path d="M4.505953 2.593545
L4.553572 2.784021
" />
<path d="M4.553572 2.784021
L4.553572 3.022116
" />
<path d="M4.553572 3.022116
L4.505953 3.212592
" />
<path d="M4.505953 3.212592
L4.458334 3.307830
" />
<path d="M4.458334 3.307830
L4.410715 3.355450
" />
<path d="M4.410715 3.355450
L4.315477 3.403069
" />
<path d="M4.315477 3.403069
L4.220239 3.403069
" />
<path d="M4.220239 3.403069
L4.125001 3.355450
" />
<path d="M4.125001 3.355450
L4.077382 3.307830
" />
<path d="M4.077382 3.307830
L4.029763 3.212592
" />
<path d="M4.029763 3.212592
L3.982144 3.022116
" />
<path d="M3.982144 3.022116
L3.982144 2.784021
" />
<path d="M3.982144 2.784021
L4.029763 2.593545
" />
<path d="M4.029763 2.593545
L4.077382 2.498307
" />
<path d="M4.077382 2.498307
L4.125001 2.450688
" />
<path d="M4.125001 2.450688
L4.220239 2.403069
" />
<path d="M5.505953 3.403069
L4.934525 3.403069
" />
<path d="M5.220239 3.403069
L5.220239 2.403069
" />
<path d="M5.220239 2.403069
L5.125001 2.545926
" />
<path d="M5.125001 2.545926
L5.029763 2.641164
" />
<path d="M5.029763 2.641164
L4.934525 2.688783
" />
<path d="M5.696429 3.498307
L6.458334 3.498307
" />
<path d="M6.886906 2.403069
L6.982144 2.403069
" />
<path d="M6.982144 2.403069
L7.077382 2.450688
" />
<path d="M7.077382 2.450688
L7.125001 2.498307
" />
<path d="M7.125001 2.498307
L7.172620 2.593545
" />
<path d="M7.172620 2.593545
L7.220239 2.784021
" />
<path d="M7.220239 2.784021
L7.220239 3.022116
" />
<path d="M7.220239 3.022116
L7.172620 3.212592
" />
<path d="M7.172620 3.212592
L7.125001 3.307830
" />
<path d="M7.125001 3.307830
L7.077382 3.355450
" />
<path d="M7.077382 3.355450
L6.982144 3.403069
" />
<path d="M6.982144 3.403069
L6.886906 3.403069
" />
<path d="M6.886906 3.403069
L6.791668 3.355450
" />
<path d="M6.791668 3.355450
L6.744049 3.307830
" />
<path d="M6.744049 3.307830
L6.696430 3.212592
" />
<path d="M6.696430 3.212592
L6.648811 3.022116
" />
<path d="M6.648811 3.022116
L6.648811 2.784021
" />
<path d="M6.648811 2.784021
L6.696430 2.593545
" />
<path d="M6.696430 2.593545
L6.744049 2.498307
" />
<path d="M6.744049 2.498307
L6.791668 2.450688
" />
<path d="M6.791668 2.450688
L6.886906 2.403069
" />
<path d="M8.077382 2.403069
L7.886906 2.403069
" />
<path d="M7.886906 2.403069
L7.791668 2.450688
" />
<path d="M7.791668 2.450688
L7.744049 2.498307
" />
<path d="M7.744049 2.498307
L7.648811 2.641164
" />
<path d="M7.648811 2.641164
L7.601192 2.831640
" />
<path d="M7.601192 2.831640
L7.601192 3.212592
" />
<path d="M7.601192 3.212592
L7.648811 3.307830
" />
<path d="M7.648811 3.307830
L7.696430 3.355450
" />
<path d="M7.696430 3.355450
L7.791668 3.403069
" />
<path d="M7.791668 3.403069
L7.982144 3.403069
" />
<path d="M7.982144 3.403069
L8.077382 3.355450
" />
<path d="M8.077382 3.355450
L8.125001 3.307830
" />
<path d="M8.125001 3.307830
L8.172620 3.212592
" />
<path d="M8.172620 3.212592
L8.172620 2.974497
" />
<path d="M8.172620 2.974497
L8.125001 2.879259
" />
<path d="M8.125001 2.879259
L8.077382 2.831640
" />
<path d="M8.077382 2.831640
L7.982144 2.784021
" />
<path d="M7.982144 2.784021
L7.791668 2.784021
" />
<path d="M7.791668 2.784021
L7.696430 2.831640
" />
<path d="M7.696430 2.831640
L7.648811 2.879259
" />
<path d="M7.648811 2.879259
L7.601192 2.974497
" />
<path d="M8.791667 2.403069
L8.886905 2.403069
" />
<path d="M8.886905 2.403069
L8.982143 2.450688
" />
<path d="M8.982143 2.450688
L9.029762 2.498307
" />
<path d="M9.029762 2.498307
L9.077381 2.593545
" />
<path d="M9.077381 2.593545
L9.125000 2.784021
" />
<path d="M9.125000 2.784021
L9.125000 3.022116
" />
<path d="M9.125000 3.022116
L9.077381 3.212592
" />
<path d="M9.077381 3.212592
L9.029762 3.307830
" />
<path d="M9.029762 3.307830
L8.982143 3.355450
" />
<path d="M8.982143 3.355450
L8.886905 3.403069
" />
<path d="M8.886905 3.403069
L8.791667 3.403069
" />
<path d="M8.791667 3.403069
L8.696429 3.355450
" />
<path d="M8.696429 3.355450
L8.648810 3.307830
" />
<path d="M8.648810 3.307830
L8.601191 3.212592
" />
<path d="M8.601191 3.212592
L8.553572 3.022116
" />
<path d="M8.553572 3.022116
L8.553572 2.784021
" />
<path d="M8.553572 2.784021
L8.601191 2.593545
" />
<path d="M8.601191 2.593545
L8.648810 2.498307
" />
<path d="M8.648810 2.498307
L8.696429 2.450688
" />
<path d="M8.696429 2.450688
L8.791667 2.403069
" />
<path d="M9.458334 2.403069
L10.077381 2.403069
" />
<path d="M10.077381 2.403069
L9.744048 2.784021
" />
<path d="M9.744048 2.784021
L9.886905 2.784021
" />
<path d="M9.886905 2.784021
L9.982143 2.831640
" />
<path d="M9.982143 2.831640
L10.029762 2.879259
" />
<path d="M10.029762 2.879259
L10.077381 2.974497
" />
<path d="M10.077381 2.974497
L10.077381 3.212592
" />
<path d="M10.077381 3.212592
L10.029762 3.307830
" />
<path d="M10.029762 3.307830
L9.982143 3.355450
" />
<path d="M9.982143 3.355450
L9.886905 3.403069
" />
<path d="M9.886905 3.403069
L9.601191 3.403069
" />
<path d="M9.601191 3.403069
L9.505953 3.355450
" />
<path d="M9.505953 3.355450
L9.458334 3.307830
" />
<path d="M10.505953 3.403069
L10.505953 2.403069
" />
<path d="M10.505953 2.403069
L10.839286 3.117354
" />
<path d="M10.839286 3.117354
L11.172619 2.403069
" />
<path d="M11.172619 2.403069
L11.172619 3.403069
" />
<path d="M12.029762 3.355450
L11.934524 3.403069
" />
<path d="M11.934524 3.403069
L11.744048 3.403069
" />
<path d="M11.744048 3.403069
L11.648810 3.355450
" />
<path d="M11.648810 3.355450
L11.601191 3.260211
" />
<path d="M11.601191 3.260211
L11.601191 2.879259
" />
<path d="M11.601191 2.879259
L11.648810 2.784021
" />
<path d="M11.648810 2.784021
L11.744048 2.736402
" />
<path d="M11.744048 2.736402
L11.934524 2.736402
" />
<path d="M11.934524 2.736402
L12.029762 2.784021
" />
<path d="M12.029762 2.784021
L12.077381 2.879259
" />
<path d="M12.077381 2.879259
L12.077381 2.974497
" />
<path d="M12.077381 2.974497
L11.601191 3.069735
" />
<path d="M12.363096 2.736402
L12.744048 2.736402
" />
<path d="M12.505953 2.403069
L12.505953 3.260211
" />
<path d="M12.505953 3.260211
L12.553572 3.355450
" />
<path d="M12.553572 3.355450
L12.648810 3.403069
" />
<path d="M12.648810 3.403069
L12.744048 3.403069
" />
<path d="M13.077382 3.403069
L13.077382 2.736402
" />
<path d="M13.077382 2.926878
L13.125001 2.831640
" />
<path d="M13.125001 2.831640
L13.172620 2.784021
" />
<path d="M13.172620 2.784021
L13.267858 2.736402
" />
<path d="M13.267858 2.736402
L13.363096 2.736402
" />
<path d="M13.696430 3.403069
L13.696430 2.736402
" />
<path d="M13.696430 2.403069
L13.648811 2.450688
" />
<path d="M13.648811 2.450688
L13.696430 2.498307
" />
<path d="M13.696430 2.498307
L13.744049 2.450688
" />
<path d="M13.744049 2.450688
L13.696430 2.403069
" />
<path d="M13.696430 2.403069
L13.696430 2.498307
" />
<path d="M14.601191 3.355450
L14.505953 3.403069
" />
<path d="M14.505953 3.403069
L14.315477 3.403069
" />
<path d="M14.315477 3.403069
L14.220239 3.355450
" />
<path d="M14.220239 3.355450
L14.172620 3.307830
" />
<path d="M14.172620 3.307830
L14.125001 3.212592
" />
<path d="M14.125001 3.212592
L14.125001 2.926878
" />
<path d="M14.125001 2.926878
L14.172620 2.831640
" />
<path d="M14.172620 2.831640
L14.220239 2.784021
" />
<path d="M14.220239 2.784021
L14.315477 2.736402
" />
<path d="M14.315477 2.736402
L14.505953 2.736402
" />
<path d="M14.505953 2.736402
L14.601191 2.784021
" />
<path d="M14.791668 3.498307
L15.553572 3.498307
" />
<path d="M15.791668 3.403069
L15.791668 2.403069
" />
<path d="M15.791668 2.403069
L16.363096 3.403069
" />
<path d="M16.363096 3.403069
L16.363096 2.403069
" />
</g></g>
<g style="fill:none; 
stroke:#AFAFAF; stroke-width:0.040000; stroke-opacity:1; 
stroke-linecap:round; stroke-linejoin:round;">
<text x="8.363096" y="1.343250"
textLength="1.141428" font-size="0.333333" lengthAdjust="spacingAndGlyphs"
text-anchor="middle" opacity="0" stroke-opacity="0">REF**</text>
<g class="stroked-text"><desc>REF**</desc>
<path d="M8.029763 1.331825
L7.946430 1.212778
" />
<path d="M7.886906 1.331825
L7.886906 1.081825
" />
<path d="M7.886906 1.081825
L7.982144 1.081825
" />
<path d="M7.982144 1.081825
L8.005954 1.093730
" />
<path d="M8.005954 1.093730
L8.017859 1.105635
" />
<path d="M8.017859 1.105635
L8.029763 1.129444
" />
<path d="M8.029763 1.129444
L8.029763 1.165159
" />
<path d="M8.029763 1.165159
L8.017859 1.188968
" />
<path d="M8.017859 1.188968
L8.005954 1.200873
" />
<path d="M8.005954 1.200873
L7.982144 1.212778
" />
<path d="M7.982144 1.212778
L7.886906 1.212778
" />
<path d="M8.136906 1.200873
L8.220240 1.200873
" />
<path d="M8.255954 1.331825
L8.136906 1.331825
" />
<path d="M8.136906 1.331825
L8.136906 1.081825
" />
<path d="M8.136906 1.081825
L8.255954 1.081825
" />
<path d="M8.446429 1.200873
L8.363096 1.200873
" />
<path d="M8.363096 1.331825
L8.363096 1.081825
" />
<path d="M8.363096 1.081825
L8.482143 1.081825
" />
<path d="M8.613096 1.081825
L8.613096 1.141349
" />
<path d="M8.553572 1.117540
L8.613096 1.141349
" />
<path d="M8.613096 1.141349
L8.672619 1.117540
" />
<path d="M8.577381 1.188968
L8.613096 1.141349
" />
<path d="M8.613096 1.141349
L8.648810 1.188968
" />
<path d="M8.803572 1.081825
L8.803572 1.141349
" />
<path d="M8.744048 1.117540
L8.803572 1.141349
" />
<path d="M8.803572 1.141349
L8.863095 1.117540
" />
<path d="M8.767857 1.188968
L8.803572 1.141349
" />
<path d="M8.803572 1.141349
L8.839286 1.188968
" />
</g><path style="fill:none; 
stroke:#AFAFAF; stroke-width:0.100000; stroke-opacity:1; 
stroke-linecap:round; stroke-linejoin:round;fill:none"
d="M 8.063096,1.748250
8.663096,1.748250
8.663096,2.048250
8.063096,2.048250
Z" /> 
</g> 
</svg>
