<?xml version="1.0" standalone="no"?>
 <!DOCTYPE svg PUBLIC "-//W3C//DTD SVG 1.1//EN" 
 "http://www.w3.org/Graphics/SVG/1.1/DTD/svg11.dtd"> 
<svg
  xmlns:svg="http://www.w3.org/2000/svg"
  xmlns="http://www.w3.org/2000/svg"
  xmlns:xlink="http://www.w3.org/1999/xlink"
  xmlns:inkscape="http://www.inkscape.org/namespaces/inkscape"
  version="1.1"
  width="100%" height="100%" viewBox="0.000000 0.000000 16.484600 4.013200">
<title>SVG Image created as R_0402_1005Metric_L.svg date 2026-04-15T16:16:30 </title>
  <desc>Image generated by PCBNEW </desc>
<g style="fill:#000000; fill-opacity:1.000000;stroke:#000000; stroke-opacity:1.000000;
stroke-linecap:round; stroke-linejoin:round;"
 transform="translate(0 0) scale(1 1)">
<path style="fill:#C83434; fill-opacity:1.000000; stroke:none;fill-rule:evenodd;"
d="M 7.440548,1.871500
7.451719,1.815341
7.483530,1.767732
7.531139,1.735921
7.587298,1.724750
7.880798,1.724750
7.936957,1.735921
7.984566,1.767732
8.016377,1.815341
8.027548,1.871500
8.027548,2.165000
8.016377,2.221159
7.984566,2.268768
7.936957,2.300579
7.880798,2.311750
7.587298,2.311750
7.531139,2.300579
7.483530,2.268768
7.451719,2.221159
7.440548,2.165000
Z" /> 
<path style="fill:#C83434; fill-opacity:1.000000; stroke:none;fill-rule:evenodd;"
d="M 8.460548,1.871500
8.471719,1.815341
8.503530,1.767732
8.551139,1.735921
8.607298,1.724750
8.900798,1.724750
8.956957,1.735921
9.004566,1.767732
9.036377,1.815341
9.047548,1.871500
9.047548,2.165000
9.036377,2.221159
9.004566,2.268768
8.956957,2.300579
8.900798,2.311750
8.607298,2.311750
8.551139,2.300579
8.503530,2.268768
8.471719,2.221159
8.460548,2.165000
Z" /> 
<path style="fill:#D864FF; fill-opacity:0.400000; stroke:none;fill-rule:evenodd;"
d="M 7.440548,1.871500
7.451719,1.815341
7.483530,1.767732
7.531139,1.735921
7.587298,1.724750
7.880798,1.724750
7.936957,1.735921
7.984566,1.767732
8.016377,1.815341
8.027548,1.871500
8.027548,2.165000
8.016377,2.221159
7.984566,2.268768
7.936957,2.300579
7.880798,2.311750
7.587298,2.311750
7.531139,2.300579
7.483530,2.268768
7.451719,2.221159
7.440548,2.165000
Z" /> 
<path style="fill:#D864FF; fill-opacity:0.400000; stroke:none;fill-rule:evenodd;"
d="M 8.460548,1.871500
8.471719,1.815341
8.503530,1.767732
8.551139,1.735921
8.607298,1.724750
8.900798,1.724750
8.956957,1.735921
9.004566,1.767732
9.036377,1.815341
9.047548,1.871500
9.047548,2.165000
9.036377,2.221159
9.004566,2.268768
8.956957,2.300579
8.900798,2.311750
8.607298,2.311750
8.551139,2.300579
8.503530,2.268768
8.471719,2.221159
8.460548,2.165000
Z" /> 
<path style="fill:#B4A09A; fill-opacity:0.900000; stroke:none;fill-rule:evenodd;"
d="M 7.440548,1.871500
7.451719,1.815341
7.483530,1.767732
7.531139,1.735921
7.587298,1.724750
7.880798,1.724750
7.936957,1.735921
7.984566,1.767732
8.016377,1.815341
8.027548,1.871500
8.027548,2.165000
8.016377,2.221159
7.984566,2.268768
7.936957,2.300579
7.880798,2.311750
7.587298,2.311750
7.531139,2.300579
7.483530,2.268768
7.451719,2.221159
7.440548,2.165000
Z" /> 
<path style="fill:#B4A09A; fill-opacity:0.900000; stroke:none;fill-rule:evenodd;"
d="M 8.460548,1.871500
8.471719,1.815341
8.503530,1.767732
8.551139,1.735921
8.607298,1.724750
8.900798,1.724750
8.956957,1.735921
9.004566,1.767732
9.036377,1.815341
9.047548,1.871500
9.047548,2.165000
9.036377,2.221159
9.004566,2.268768
8.956957,2.300579
8.900798,2.311750
8.607298,2.311750
8.551139,2.300579
8.503530,2.268768
8.471719,2.221159
8.460548,2.165000
Z" /> 
</g>
<g style="fill:none; 
stroke:#F2EDA1; stroke-width:0.150000; stroke-opacity:1; 
stroke-linecap:round; stroke-linejoin:round;">
<text x="8.244048" y="1.348250"
textLength="4.535715" font-size="1.333333" lengthAdjust="spacingAndGlyphs"
text-anchor="middle" opacity="0" stroke-opacity="0">REF**</text>
<g class="stroked-text"><desc>REF**</desc>
<path d="M6.910715 1.303070
L6.577382 0.826879
" />
<path d="M6.339287 1.303070
L6.339287 0.303070
" />
<path d="M6.339287 0.303070
L6.720239 0.303070
" />
<path d="M6.720239 0.303070
L6.815477 0.350689
" />
<path d="M6.815477 0.350689
L6.863096 0.398308
" />
<path d="M6.863096 0.398308
L6.910715 0.493546
" />
<path d="M6.910715 0.493546
L6.910715 0.636403
" />
<path d="M6.910715 0.636403
L6.863096 0.731641
" />
<path d="M6.863096 0.731641
L6.815477 0.779260
" />
<path d="M6.815477 0.779260
L6.720239 0.826879
" />
<path d="M6.720239 0.826879
L6.339287 0.826879
" />
<path d="M7.339287 0.779260
L7.672620 0.779260
" />
<path d="M7.815477 1.303070
L7.339287 1.303070
" />
<path d="M7.339287 1.303070
L7.339287 0.303070
" />
<path d="M7.339287 0.303070
L7.815477 0.303070
" />
<path d="M8.577381 0.779260
L8.244048 0.779260
" />
<path d="M8.244048 1.303070
L8.244048 0.303070
" />
<path d="M8.244048 0.303070
L8.720238 0.303070
" />
<path d="M9.244048 0.303070
L9.244048 0.541165
" />
<path d="M9.005953 0.445927
L9.244048 0.541165
" />
<path d="M9.244048 0.541165
L9.482143 0.445927
" />
<path d="M9.101191 0.731641
L9.244048 0.541165
" />
<path d="M9.244048 0.541165
L9.386905 0.731641
" />
<path d="M10.005953 0.303070
L10.005953 0.541165
" />
<path d="M9.767858 0.445927
L10.005953 0.541165
" />
<path d="M10.005953 0.541165
L10.244048 0.445927
" />
<path d="M9.863096 0.731641
L10.005953 0.541165
" />
<path d="M10.005953 0.541165
L10.148810 0.731641
" />
</g></g>
<g style="fill:none; 
stroke:#F2EDA1; stroke-width:0.120000; stroke-opacity:1; 
stroke-linecap:round; stroke-linejoin:round;">
<path d="M8.090407 1.638250
L8.397689 1.638250
" />
<path d="M8.090407 2.398250
L8.397689 2.398250
" />
<path style="fill:none; 
stroke:#FF26E2; stroke-width:0.050000; stroke-opacity:1; 
stroke-linecap:round; stroke-linejoin:round;fill:none"
d="M 7.454048,1.678250
9.034048,1.678250
9.034048,2.358250
7.454048,2.358250
Z" /> 
</g>
<g style="fill:none; 
stroke:#AFAFAF; stroke-width:0.150000; stroke-opacity:1; 
stroke-linecap:round; stroke-linejoin:round;">
<text x="8.244048" y="3.688250"
textLength="16.488097" font-size="1.333333" lengthAdjust="spacingAndGlyphs"
text-anchor="middle" opacity="0" stroke-opacity="0">R_0402_1005Metric_L</text>
<g class="stroked-text"><desc>R_0402_1005Metric_L</desc>
<path d="M0.934524 3.643069
L0.601191 3.166878
" />
<path d="M0.363096 3.643069
L0.363096 2.643069
" />
<path d="M0.363096 2.643069
L0.744048 2.643069
" />
<path d="M0.744048 2.643069
L0.839286 2.690688
" />
<path d="M0.839286 2.690688
L0.886905 2.738307
" />
<path d="M0.886905 2.738307
L0.934524 2.833545
" />
<path d="M0.934524 2.833545
L0.934524 2.976402
" />
<path d="M0.934524 2.976402
L0.886905 3.071640
" />
<path d="M0.886905 3.071640
L0.839286 3.119259
" />
<path d="M0.839286 3.119259
L0.744048 3.166878
" />
<path d="M0.744048 3.166878
L0.363096 3.166878
" />
<path d="M1.125000 3.738307
L1.886905 3.738307
" />
<path d="M2.315477 2.643069
L2.410715 2.643069
" />
<path d="M2.410715 2.643069
L2.505953 2.690688
" />
<path d="M2.505953 2.690688
L2.553572 2.738307
" />
<path d="M2.553572 2.738307
L2.601191 2.833545
" />
<path d="M2.601191 2.833545
L2.648810 3.024021
" />
<path d="M2.648810 3.024021
L2.648810 3.262116
" />
<path d="M2.648810 3.262116
L2.601191 3.452592
" />
<path d="M2.601191 3.452592
L2.553572 3.547830
" />
<path d="M2.553572 3.547830
L2.505953 3.595450
" />
<path d="M2.505953 3.595450
L2.410715 3.643069
" />
<path d="M2.410715 3.643069
L2.315477 3.643069
" />
<path d="M2.315477 3.643069
L2.220239 3.595450
" />
<path d="M2.220239 3.595450
L2.172620 3.547830
" />
<path d="M2.172620 3.547830
L2.125001 3.452592
" />
<path d="M2.125001 3.452592
L2.077382 3.262116
" />
<path d="M2.077382 3.262116
L2.077382 3.024021
" />
<path d="M2.077382 3.024021
L2.125001 2.833545
" />
<path d="M2.125001 2.833545
L2.172620 2.738307
" />
<path d="M2.172620 2.738307
L2.220239 2.690688
" />
<path d="M2.220239 2.690688
L2.315477 2.643069
" />
<path d="M3.505953 2.976402
L3.505953 3.643069
" />
<path d="M3.267858 2.595450
L3.029763 3.309735
" />
<path d="M3.029763 3.309735
L3.648810 3.309735
" />
<path d="M4.220239 2.643069
L4.315477 2.643069
" />
<path d="M4.315477 2.643069
L4.410715 2.690688
" />
<path d="M4.410715 2.690688
L4.458334 2.738307
" />
<path d="M4.458334 2.738307
L4.505953 2.833545
" />
<path d="M4.505953 2.833545
L4.553572 3.024021
" />
<path d="M4.553572 3.024021
L4.553572 3.262116
" />
<path d="M4.553572 3.262116
L4.505953 3.452592
" />
<path d="M4.505953 3.452592
L4.458334 3.547830
" />
<path d="M4.458334 3.547830
L4.410715 3.595450
" />
<path d="M4.410715 3.595450
L4.315477 3.643069
" />
<path d="M4.315477 3.643069
L4.220239 3.643069
" />
<path d="M4.220239 3.643069
L4.125001 3.595450
" />
<path d="M4.125001 3.595450
L4.077382 3.547830
" />
<path d="M4.077382 3.547830
L4.029763 3.452592
" />
<path d="M4.029763 3.452592
L3.982144 3.262116
" />
<path d="M3.982144 3.262116
L3.982144 3.024021
" />
<path d="M3.982144 3.024021
L4.029763 2.833545
" />
<path d="M4.029763 2.833545
L4.077382 2.738307
" />
<path d="M4.077382 2.738307
L4.125001 2.690688
" />
<path d="M4.125001 2.690688
L4.220239 2.643069
" />
<path d="M4.934525 2.738307
L4.982144 2.690688
" />
<path d="M4.982144 2.690688
L5.077382 2.643069
" />
<path d="M5.077382 2.643069
L5.315477 2.643069
" />
<path d="M5.315477 2.643069
L5.410715 2.690688
" />
<path d="M5.410715 2.690688
L5.458334 2.738307
" />
<path d="M5.458334 2.738307
L5.505953 2.833545
" />
<path d="M5.505953 2.833545
L5.505953 2.928783
" />
<path d="M5.505953 2.928783
L5.458334 3.071640
" />
<path d="M5.458334 3.071640
L4.886906 3.643069
" />
<path d="M4.886906 3.643069
L5.505953 3.643069
" />
<path d="M5.696429 3.738307
L6.458334 3.738307
" />
<path d="M7.220239 3.643069
L6.648811 3.643069
" />
<path d="M6.934525 3.643069
L6.934525 2.643069
" />
<path d="M6.934525 2.643069
L6.839287 2.785926
" />
<path d="M6.839287 2.785926
L6.744049 2.881164
" />
<path d="M6.744049 2.881164
L6.648811 2.928783
" />
<path d="M7.839287 2.643069
L7.934525 2.643069
" />
<path d="M7.934525 2.643069
L8.029763 2.690688
" />
<path d="M8.029763 2.690688
L8.077382 2.738307
" />
<path d="M8.077382 2.738307
L8.125001 2.833545
" />
<path d="M8.125001 2.833545
L8.172620 3.024021
" />
<path d="M8.172620 3.024021
L8.172620 3.262116
" />
<path d="M8.172620 3.262116
L8.125001 3.452592
" />
<path d="M8.125001 3.452592
L8.077382 3.547830
" />
<path d="M8.077382 3.547830
L8.029763 3.595450
" />
<path d="M8.029763 3.595450
L7.934525 3.643069
" />
<path d="M7.934525 3.643069
L7.839287 3.643069
" />
<path d="M7.839287 3.643069
L7.744049 3.595450
" />
<path d="M7.744049 3.595450
L7.696430 3.547830
" />
<path d="M7.696430 3.547830
L7.648811 3.452592
" />
<path d="M7.648811 3.452592
L7.601192 3.262116
" />
<path d="M7.601192 3.262116
L7.601192 3.024021
" />
<path d="M7.601192 3.024021
L7.648811 2.833545
" />
<path d="M7.648811 2.833545
L7.696430 2.738307
" />
<path d="M7.696430 2.738307
L7.744049 2.690688
" />
<path d="M7.744049 2.690688
L7.839287 2.643069
" />
<path d="M8.791667 2.643069
L8.886905 2.643069
" />
<path d="M8.886905 2.643069
L8.982143 2.690688
" />
<path d="M8.982143 2.690688
L9.029762 2.738307
" />
<path d="M9.029762 2.738307
L9.077381 2.833545
" />
<path d="M9.077381 2.833545
L9.125000 3.024021
" />
<path d="M9.125000 3.024021
L9.125000 3.262116
" />
<path d="M9.125000 3.262116
L9.077381 3.452592
" />
<path d="M9.077381 3.452592
L9.029762 3.547830
" />
<path d="M9.029762 3.547830
L8.982143 3.595450
" />
<path d="M8.982143 3.595450
L8.886905 3.643069
" />
<path d="M8.886905 3.643069
L8.791667 3.643069
" />
<path d="M8.791667 3.643069
L8.696429 3.595450
" />
<path d="M8.696429 3.595450
L8.648810 3.547830
" />
<path d="M8.648810 3.547830
L8.601191 3.452592
" />
<path d="M8.601191 3.452592
L8.553572 3.262116
" />
<path d="M8.553572 3.262116
L8.553572 3.024021
" />
<path d="M8.553572 3.024021
L8.601191 2.833545
" />
<path d="M8.601191 2.833545
L8.648810 2.738307
" />
<path d="M8.648810 2.738307
L8.696429 2.690688
" />
<path d="M8.696429 2.690688
L8.791667 2.643069
" />
<path d="M10.029762 2.643069
L9.553572 2.643069
" />
<path d="M9.553572 2.643069
L9.505953 3.119259
" />
<path d="M9.505953 3.119259
L9.553572 3.071640
" />
<path d="M9.553572 3.071640
L9.648810 3.024021
" />
<path d="M9.648810 3.024021
L9.886905 3.024021
" />
<path d="M9.886905 3.024021
L9.982143 3.071640
" />
<path d="M9.982143 3.071640
L10.029762 3.119259
" />
<path d="M10.029762 3.119259
L10.077381 3.214497
" />
<path d="M10.077381 3.214497
L10.077381 3.452592
" />
<path d="M10.077381 3.452592
L10.029762 3.547830
" />
<path d="M10.029762 3.547830
L9.982143 3.595450
" />
<path d="M9.982143 3.595450
L9.886905 3.643069
" />
<path d="M9.886905 3.643069
L9.648810 3.643069
" />
<path d="M9.648810 3.643069
L9.553572 3.595450
" />
<path d="M9.553572 3.595450
L9.505953 3.547830
" />
<path d="M10.505953 3.643069
L10.505953 2.643069
" />
<path d="M10.505953 2.643069
L10.839286 3.357354
" />
<path d="M10.839286 3.357354
L11.172619 2.643069
" />
<path d="M11.172619 2.643069
L11.172619 3.643069
" />
<path d="M12.029762 3.595450
L11.934524 3.643069
" />
<path d="M11.934524 3.643069
L11.744048 3.643069
" />
<path d="M11.744048 3.643069
L11.648810 3.595450
" />
<path d="M11.648810 3.595450
L11.601191 3.500211
" />
<path d="M11.601191 3.500211
L11.601191 3.119259
" />
<path d="M11.601191 3.119259
L11.648810 3.024021
" />
<path d="M11.648810 3.024021
L11.744048 2.976402
" />
<path d="M11.744048 2.976402
L11.934524 2.976402
" />
<path d="M11.934524 2.976402
L12.029762 3.024021
" />
<path d="M12.029762 3.024021
L12.077381 3.119259
" />
<path d="M12.077381 3.119259
L12.077381 3.214497
" />
<path d="M12.077381 3.214497
L11.601191 3.309735
" />
<path d="M12.363096 2.976402
L12.744048 2.976402
" />
<path d="M12.505953 2.643069
L12.505953 3.500211
" />
<path d="M12.505953 3.500211
L12.553572 3.595450
" />
<path d="M12.553572 3.595450
L12.648810 3.643069
" />
<path d="M12.648810 3.643069
L12.744048 3.643069
" />
<path d="M13.077382 3.643069
L13.077382 2.976402
" />
<path d="M13.077382 3.166878
L13.125001 3.071640
" />
<path d="M13.125001 3.071640
L13.172620 3.024021
" />
<path d="M13.172620 3.024021
L13.267858 2.976402
" />
<path d="M13.267858 2.976402
L13.363096 2.976402
" />
<path d="M13.696430 3.643069
L13.696430 2.976402
" />
<path d="M13.696430 2.643069
L13.648811 2.690688
" />
<path d="M13.648811 2.690688
L13.696430 2.738307
" />
<path d="M13.696430 2.738307
L13.744049 2.690688
" />
<path d="M13.744049 2.690688
L13.696430 2.643069
" />
<path d="M13.696430 2.643069
L13.696430 2.738307
" />
<path d="M14.601191 3.595450
L14.505953 3.643069
" />
<path d="M14.505953 3.643069
L14.315477 3.643069
" />
<path d="M14.315477 3.643069
L14.220239 3.595450
" />
<path d="M14.220239 3.595450
L14.172620 3.547830
" />
<path d="M14.172620 3.547830
L14.125001 3.452592
" />
<path d="M14.125001 3.452592
L14.125001 3.166878
" />
<path d="M14.125001 3.166878
L14.172620 3.071640
" />
<path d="M14.172620 3.071640
L14.220239 3.024021
" />
<path d="M14.220239 3.024021
L14.315477 2.976402
" />
<path d="M14.315477 2.976402
L14.505953 2.976402
" />
<path d="M14.505953 2.976402
L14.601191 3.024021
" />
<path d="M14.791668 3.738307
L15.553572 3.738307
" />
<path d="M16.267858 3.643069
L15.791668 3.643069
" />
<path d="M15.791668 3.643069
L15.791668 2.643069
" />
</g></g>
<g style="fill:none; 
stroke:#AFAFAF; stroke-width:0.040000; stroke-opacity:1; 
stroke-linecap:round; stroke-linejoin:round;">
<text x="8.244048" y="2.148250"
textLength="1.182285" font-size="0.346666" lengthAdjust="spacingAndGlyphs"
text-anchor="middle" opacity="0" stroke-opacity="0">REF**</text>
<g class="stroked-text"><desc>REF**</desc>
<path d="M7.897383 2.136450
L7.810716 2.012642
" />
<path d="M7.748811 2.136450
L7.748811 1.876451
" />
<path d="M7.748811 1.876451
L7.847859 1.876451
" />
<path d="M7.847859 1.876451
L7.872621 1.888832
" />
<path d="M7.872621 1.888832
L7.885002 1.901213
" />
<path d="M7.885002 1.901213
L7.897383 1.925975
" />
<path d="M7.897383 1.925975
L7.897383 1.963118
" />
<path d="M7.897383 1.963118
L7.885002 1.987880
" />
<path d="M7.885002 1.987880
L7.872621 2.000261
" />
<path d="M7.872621 2.000261
L7.847859 2.012642
" />
<path d="M7.847859 2.012642
L7.748811 2.012642
" />
<path d="M8.008811 2.000261
L8.095478 2.000261
" />
<path d="M8.132621 2.136450
L8.008811 2.136450
" />
<path d="M8.008811 2.136450
L8.008811 1.876451
" />
<path d="M8.008811 1.876451
L8.132621 1.876451
" />
<path d="M8.330715 2.000261
L8.244048 2.000261
" />
<path d="M8.244048 2.136450
L8.244048 1.876451
" />
<path d="M8.244048 1.876451
L8.367858 1.876451
" />
<path d="M8.504048 1.876451
L8.504048 1.938356
" />
<path d="M8.442143 1.913594
L8.504048 1.938356
" />
<path d="M8.504048 1.938356
L8.565953 1.913594
" />
<path d="M8.466905 1.987880
L8.504048 1.938356
" />
<path d="M8.504048 1.938356
L8.541191 1.987880
" />
<path d="M8.702143 1.876451
L8.702143 1.938356
" />
<path d="M8.640238 1.913594
L8.702143 1.938356
" />
<path d="M8.702143 1.938356
L8.764048 1.913594
" />
<path d="M8.665000 1.987880
L8.702143 1.938356
" />
<path d="M8.702143 1.938356
L8.739286 1.987880
" />
</g><path style="fill:none; 
stroke:#AFAFAF; stroke-width:0.100000; stroke-opacity:1; 
stroke-linecap:round; stroke-linejoin:round;fill:none"
d="M 7.719048,1.748250
8.769048,1.748250
8.769048,2.288250
7.719048,2.288250
Z" /> 
</g> 
</svg>
