<?xml version="1.0" standalone="no"?>
 <!DOCTYPE svg PUBLIC "-//W3C//DTD SVG 1.1//EN" 
 "http://www.w3.org/Graphics/SVG/1.1/DTD/svg11.dtd"> 
<svg
  xmlns:svg="http://www.w3.org/2000/svg"
  xmlns="http://www.w3.org/2000/svg"
  xmlns:xlink="http://www.w3.org/1999/xlink"
  xmlns:inkscape="http://www.inkscape.org/namespaces/inkscape"
  version="1.1"
  width="100%" height="100%" viewBox="0.000000 0.000000 16.713200 4.013200">
<title>SVG Image created as R_0402_1005Metric_N.svg date 2026-04-15T16:02:10 </title>
  <desc>Image generated by PCBNEW </desc>
<g style="fill:#000000; fill-opacity:1.000000;stroke:#000000; stroke-opacity:1.000000;
stroke-linecap:round; stroke-linejoin:round;"
 transform="translate(0 0) scale(1 1)">
<path style="fill:#C83434; fill-opacity:1.000000; stroke:none;fill-rule:evenodd;"
d="M 7.583096,1.833250
7.593372,1.781588
7.622637,1.737791
7.666434,1.708526
7.718096,1.698250
7.988096,1.698250
8.039758,1.708526
8.083555,1.737791
8.112820,1.781588
8.123096,1.833250
8.123096,2.203250
8.112820,2.254912
8.083555,2.298709
8.039758,2.327974
7.988096,2.338250
7.718096,2.338250
7.666434,2.327974
7.622637,2.298709
7.593372,2.254912
7.583096,2.203250
Z" /> 
<path style="fill:#C83434; fill-opacity:1.000000; stroke:none;fill-rule:evenodd;"
d="M 8.603096,1.833250
8.613372,1.781588
8.642637,1.737791
8.686434,1.708526
8.738096,1.698250
9.008096,1.698250
9.059758,1.708526
9.103555,1.737791
9.132820,1.781588
9.143096,1.833250
9.143096,2.203250
9.132820,2.254912
9.103555,2.298709
9.059758,2.327974
9.008096,2.338250
8.738096,2.338250
8.686434,2.327974
8.642637,2.298709
8.613372,2.254912
8.603096,2.203250
Z" /> 
<path style="fill:#D864FF; fill-opacity:0.400000; stroke:none;fill-rule:evenodd;"
d="M 7.583096,1.833250
7.593372,1.781588
7.622637,1.737791
7.666434,1.708526
7.718096,1.698250
7.988096,1.698250
8.039758,1.708526
8.083555,1.737791
8.112820,1.781588
8.123096,1.833250
8.123096,2.203250
8.112820,2.254912
8.083555,2.298709
8.039758,2.327974
7.988096,2.338250
7.718096,2.338250
7.666434,2.327974
7.622637,2.298709
7.593372,2.254912
7.583096,2.203250
Z" /> 
<path style="fill:#D864FF; fill-opacity:0.400000; stroke:none;fill-rule:evenodd;"
d="M 8.603096,1.833250
8.613372,1.781588
8.642637,1.737791
8.686434,1.708526
8.738096,1.698250
9.008096,1.698250
9.059758,1.708526
9.103555,1.737791
9.132820,1.781588
9.143096,1.833250
9.143096,2.203250
9.132820,2.254912
9.103555,2.298709
9.059758,2.327974
9.008096,2.338250
8.738096,2.338250
8.686434,2.327974
8.642637,2.298709
8.613372,2.254912
8.603096,2.203250
Z" /> 
<path style="fill:#B4A09A; fill-opacity:0.900000; stroke:none;fill-rule:evenodd;"
d="M 7.583096,1.833250
7.593372,1.781588
7.622637,1.737791
7.666434,1.708526
7.718096,1.698250
7.988096,1.698250
8.039758,1.708526
8.083555,1.737791
8.112820,1.781588
8.123096,1.833250
8.123096,2.203250
8.112820,2.254912
8.083555,2.298709
8.039758,2.327974
7.988096,2.338250
7.718096,2.338250
7.666434,2.327974
7.622637,2.298709
7.593372,2.254912
7.583096,2.203250
Z" /> 
<path style="fill:#B4A09A; fill-opacity:0.900000; stroke:none;fill-rule:evenodd;"
d="M 8.603096,1.833250
8.613372,1.781588
8.642637,1.737791
8.686434,1.708526
8.738096,1.698250
9.008096,1.698250
9.059758,1.708526
9.103555,1.737791
9.132820,1.781588
9.143096,1.833250
9.143096,2.203250
9.132820,2.254912
9.103555,2.298709
9.059758,2.327974
9.008096,2.338250
8.738096,2.338250
8.686434,2.327974
8.642637,2.298709
8.613372,2.254912
8.603096,2.203250
Z" /> 
</g>
<g style="fill:none; 
stroke:#F2EDA1; stroke-width:0.150000; stroke-opacity:1; 
stroke-linecap:round; stroke-linejoin:round;">
<text x="8.363096" y="1.348250"
textLength="4.535715" font-size="1.333333" lengthAdjust="spacingAndGlyphs"
text-anchor="middle" opacity="0" stroke-opacity="0">REF**</text>
<g class="stroked-text"><desc>REF**</desc>
<path d="M7.029763 1.303070
L6.696430 0.826879
" />
<path d="M6.458335 1.303070
L6.458335 0.303070
" />
<path d="M6.458335 0.303070
L6.839287 0.303070
" />
<path d="M6.839287 0.303070
L6.934525 0.350689
" />
<path d="M6.934525 0.350689
L6.982144 0.398308
" />
<path d="M6.982144 0.398308
L7.029763 0.493546
" />
<path d="M7.029763 0.493546
L7.029763 0.636403
" />
<path d="M7.029763 0.636403
L6.982144 0.731641
" />
<path d="M6.982144 0.731641
L6.934525 0.779260
" />
<path d="M6.934525 0.779260
L6.839287 0.826879
" />
<path d="M6.839287 0.826879
L6.458335 0.826879
" />
<path d="M7.458335 0.779260
L7.791668 0.779260
" />
<path d="M7.934525 1.303070
L7.458335 1.303070
" />
<path d="M7.458335 1.303070
L7.458335 0.303070
" />
<path d="M7.458335 0.303070
L7.934525 0.303070
" />
<path d="M8.696429 0.779260
L8.363096 0.779260
" />
<path d="M8.363096 1.303070
L8.363096 0.303070
" />
<path d="M8.363096 0.303070
L8.839286 0.303070
" />
<path d="M9.363096 0.303070
L9.363096 0.541165
" />
<path d="M9.125001 0.445927
L9.363096 0.541165
" />
<path d="M9.363096 0.541165
L9.601191 0.445927
" />
<path d="M9.220239 0.731641
L9.363096 0.541165
" />
<path d="M9.363096 0.541165
L9.505953 0.731641
" />
<path d="M10.125001 0.303070
L10.125001 0.541165
" />
<path d="M9.886906 0.445927
L10.125001 0.541165
" />
<path d="M10.125001 0.541165
L10.363096 0.445927
" />
<path d="M9.982144 0.731641
L10.125001 0.541165
" />
<path d="M10.125001 0.541165
L10.267858 0.731641
" />
</g></g>
<g style="fill:none; 
stroke:#F2EDA1; stroke-width:0.120000; stroke-opacity:1; 
stroke-linecap:round; stroke-linejoin:round;">
<path d="M8.209455 1.638250
L8.516737 1.638250
" />
<path d="M8.209455 2.398250
L8.516737 2.398250
" />
<path style="fill:none; 
stroke:#FF26E2; stroke-width:0.050000; stroke-opacity:1; 
stroke-linecap:round; stroke-linejoin:round;fill:none"
d="M 7.433096,1.548250
9.293096,1.548250
9.293096,2.488250
7.433096,2.488250
Z" /> 
</g>
<g style="fill:none; 
stroke:#AFAFAF; stroke-width:0.150000; stroke-opacity:1; 
stroke-linecap:round; stroke-linejoin:round;">
<text x="8.363096" y="3.688250"
textLength="16.726192" font-size="1.333333" lengthAdjust="spacingAndGlyphs"
text-anchor="middle" opacity="0" stroke-opacity="0">R_0402_1005Metric_N</text>
<g class="stroked-text"><desc>R_0402_1005Metric_N</desc>
<path d="M0.934524 3.643069
L0.601191 3.166878
" />
<path d="M0.363096 3.643069
L0.363096 2.643069
" />
<path d="M0.363096 2.643069
L0.744048 2.643069
" />
<path d="M0.744048 2.643069
L0.839286 2.690688
" />
<path d="M0.839286 2.690688
L0.886905 2.738307
" />
<path d="M0.886905 2.738307
L0.934524 2.833545
" />
<path d="M0.934524 2.833545
L0.934524 2.976402
" />
<path d="M0.934524 2.976402
L0.886905 3.071640
" />
<path d="M0.886905 3.071640
L0.839286 3.119259
" />
<path d="M0.839286 3.119259
L0.744048 3.166878
" />
<path d="M0.744048 3.166878
L0.363096 3.166878
" />
<path d="M1.125000 3.738307
L1.886905 3.738307
" />
<path d="M2.315477 2.643069
L2.410715 2.643069
" />
<path d="M2.410715 2.643069
L2.505953 2.690688
" />
<path d="M2.505953 2.690688
L2.553572 2.738307
" />
<path d="M2.553572 2.738307
L2.601191 2.833545
" />
<path d="M2.601191 2.833545
L2.648810 3.024021
" />
<path d="M2.648810 3.024021
L2.648810 3.262116
" />
<path d="M2.648810 3.262116
L2.601191 3.452592
" />
<path d="M2.601191 3.452592
L2.553572 3.547830
" />
<path d="M2.553572 3.547830
L2.505953 3.595450
" />
<path d="M2.505953 3.595450
L2.410715 3.643069
" />
<path d="M2.410715 3.643069
L2.315477 3.643069
" />
<path d="M2.315477 3.643069
L2.220239 3.595450
" />
<path d="M2.220239 3.595450
L2.172620 3.547830
" />
<path d="M2.172620 3.547830
L2.125001 3.452592
" />
<path d="M2.125001 3.452592
L2.077382 3.262116
" />
<path d="M2.077382 3.262116
L2.077382 3.024021
" />
<path d="M2.077382 3.024021
L2.125001 2.833545
" />
<path d="M2.125001 2.833545
L2.172620 2.738307
" />
<path d="M2.172620 2.738307
L2.220239 2.690688
" />
<path d="M2.220239 2.690688
L2.315477 2.643069
" />
<path d="M3.505953 2.976402
L3.505953 3.643069
" />
<path d="M3.267858 2.595450
L3.029763 3.309735
" />
<path d="M3.029763 3.309735
L3.648810 3.309735
" />
<path d="M4.220239 2.643069
L4.315477 2.643069
" />
<path d="M4.315477 2.643069
L4.410715 2.690688
" />
<path d="M4.410715 2.690688
L4.458334 2.738307
" />
<path d="M4.458334 2.738307
L4.505953 2.833545
" />
<path d="M4.505953 2.833545
L4.553572 3.024021
" />
<path d="M4.553572 3.024021
L4.553572 3.262116
" />
<path d="M4.553572 3.262116
L4.505953 3.452592
" />
<path d="M4.505953 3.452592
L4.458334 3.547830
" />
<path d="M4.458334 3.547830
L4.410715 3.595450
" />
<path d="M4.410715 3.595450
L4.315477 3.643069
" />
<path d="M4.315477 3.643069
L4.220239 3.643069
" />
<path d="M4.220239 3.643069
L4.125001 3.595450
" />
<path d="M4.125001 3.595450
L4.077382 3.547830
" />
<path d="M4.077382 3.547830
L4.029763 3.452592
" />
<path d="M4.029763 3.452592
L3.982144 3.262116
" />
<path d="M3.982144 3.262116
L3.982144 3.024021
" />
<path d="M3.982144 3.024021
L4.029763 2.833545
" />
<path d="M4.029763 2.833545
L4.077382 2.738307
" />
<path d="M4.077382 2.738307
L4.125001 2.690688
" />
<path d="M4.125001 2.690688
L4.220239 2.643069
" />
<path d="M4.934525 2.738307
L4.982144 2.690688
" />
<path d="M4.982144 2.690688
L5.077382 2.643069
" />
<path d="M5.077382 2.643069
L5.315477 2.643069
" />
<path d="M5.315477 2.643069
L5.410715 2.690688
" />
<path d="M5.410715 2.690688
L5.458334 2.738307
" />
<path d="M5.458334 2.738307
L5.505953 2.833545
" />
<path d="M5.505953 2.833545
L5.505953 2.928783
" />
<path d="M5.505953 2.928783
L5.458334 3.071640
" />
<path d="M5.458334 3.071640
L4.886906 3.643069
" />
<path d="M4.886906 3.643069
L5.505953 3.643069
" />
<path d="M5.696429 3.738307
L6.458334 3.738307
" />
<path d="M7.220239 3.643069
L6.648811 3.643069
" />
<path d="M6.934525 3.643069
L6.934525 2.643069
" />
<path d="M6.934525 2.643069
L6.839287 2.785926
" />
<path d="M6.839287 2.785926
L6.744049 2.881164
" />
<path d="M6.744049 2.881164
L6.648811 2.928783
" />
<path d="M7.839287 2.643069
L7.934525 2.643069
" />
<path d="M7.934525 2.643069
L8.029763 2.690688
" />
<path d="M8.029763 2.690688
L8.077382 2.738307
" />
<path d="M8.077382 2.738307
L8.125001 2.833545
" />
<path d="M8.125001 2.833545
L8.172620 3.024021
" />
<path d="M8.172620 3.024021
L8.172620 3.262116
" />
<path d="M8.172620 3.262116
L8.125001 3.452592
" />
<path d="M8.125001 3.452592
L8.077382 3.547830
" />
<path d="M8.077382 3.547830
L8.029763 3.595450
" />
<path d="M8.029763 3.595450
L7.934525 3.643069
" />
<path d="M7.934525 3.643069
L7.839287 3.643069
" />
<path d="M7.839287 3.643069
L7.744049 3.595450
" />
<path d="M7.744049 3.595450
L7.696430 3.547830
" />
<path d="M7.696430 3.547830
L7.648811 3.452592
" />
<path d="M7.648811 3.452592
L7.601192 3.262116
" />
<path d="M7.601192 3.262116
L7.601192 3.024021
" />
<path d="M7.601192 3.024021
L7.648811 2.833545
" />
<path d="M7.648811 2.833545
L7.696430 2.738307
" />
<path d="M7.696430 2.738307
L7.744049 2.690688
" />
<path d="M7.744049 2.690688
L7.839287 2.643069
" />
<path d="M8.791667 2.643069
L8.886905 2.643069
" />
<path d="M8.886905 2.643069
L8.982143 2.690688
" />
<path d="M8.982143 2.690688
L9.029762 2.738307
" />
<path d="M9.029762 2.738307
L9.077381 2.833545
" />
<path d="M9.077381 2.833545
L9.125000 3.024021
" />
<path d="M9.125000 3.024021
L9.125000 3.262116
" />
<path d="M9.125000 3.262116
L9.077381 3.452592
" />
<path d="M9.077381 3.452592
L9.029762 3.547830
" />
<path d="M9.029762 3.547830
L8.982143 3.595450
" />
<path d="M8.982143 3.595450
L8.886905 3.643069
" />
<path d="M8.886905 3.643069
L8.791667 3.643069
" />
<path d="M8.791667 3.643069
L8.696429 3.595450
" />
<path d="M8.696429 3.595450
L8.648810 3.547830
" />
<path d="M8.648810 3.547830
L8.601191 3.452592
" />
<path d="M8.601191 3.452592
L8.553572 3.262116
" />
<path d="M8.553572 3.262116
L8.553572 3.024021
" />
<path d="M8.553572 3.024021
L8.601191 2.833545
" />
<path d="M8.601191 2.833545
L8.648810 2.738307
" />
<path d="M8.648810 2.738307
L8.696429 2.690688
" />
<path d="M8.696429 2.690688
L8.791667 2.643069
" />
<path d="M10.029762 2.643069
L9.553572 2.643069
" />
<path d="M9.553572 2.643069
L9.505953 3.119259
" />
<path d="M9.505953 3.119259
L9.553572 3.071640
" />
<path d="M9.553572 3.071640
L9.648810 3.024021
" />
<path d="M9.648810 3.024021
L9.886905 3.024021
" />
<path d="M9.886905 3.024021
L9.982143 3.071640
" />
<path d="M9.982143 3.071640
L10.029762 3.119259
" />
<path d="M10.029762 3.119259
L10.077381 3.214497
" />
<path d="M10.077381 3.214497
L10.077381 3.452592
" />
<path d="M10.077381 3.452592
L10.029762 3.547830
" />
<path d="M10.029762 3.547830
L9.982143 3.595450
" />
<path d="M9.982143 3.595450
L9.886905 3.643069
" />
<path d="M9.886905 3.643069
L9.648810 3.643069
" />
<path d="M9.648810 3.643069
L9.553572 3.595450
" />
<path d="M9.553572 3.595450
L9.505953 3.547830
" />
<path d="M10.505953 3.643069
L10.505953 2.643069
" />
<path d="M10.505953 2.643069
L10.839286 3.357354
" />
<path d="M10.839286 3.357354
L11.172619 2.643069
" />
<path d="M11.172619 2.643069
L11.172619 3.643069
" />
<path d="M12.029762 3.595450
L11.934524 3.643069
" />
<path d="M11.934524 3.643069
L11.744048 3.643069
" />
<path d="M11.744048 3.643069
L11.648810 3.595450
" />
<path d="M11.648810 3.595450
L11.601191 3.500211
" />
<path d="M11.601191 3.500211
L11.601191 3.119259
" />
<path d="M11.601191 3.119259
L11.648810 3.024021
" />
<path d="M11.648810 3.024021
L11.744048 2.976402
" />
<path d="M11.744048 2.976402
L11.934524 2.976402
" />
<path d="M11.934524 2.976402
L12.029762 3.024021
" />
<path d="M12.029762 3.024021
L12.077381 3.119259
" />
<path d="M12.077381 3.119259
L12.077381 3.214497
" />
<path d="M12.077381 3.214497
L11.601191 3.309735
" />
<path d="M12.363096 2.976402
L12.744048 2.976402
" />
<path d="M12.505953 2.643069
L12.505953 3.500211
" />
<path d="M12.505953 3.500211
L12.553572 3.595450
" />
<path d="M12.553572 3.595450
L12.648810 3.643069
" />
<path d="M12.648810 3.643069
L12.744048 3.643069
" />
<path d="M13.077382 3.643069
L13.077382 2.976402
" />
<path d="M13.077382 3.166878
L13.125001 3.071640
" />
<path d="M13.125001 3.071640
L13.172620 3.024021
" />
<path d="M13.172620 3.024021
L13.267858 2.976402
" />
<path d="M13.267858 2.976402
L13.363096 2.976402
" />
<path d="M13.696430 3.643069
L13.696430 2.976402
" />
<path d="M13.696430 2.643069
L13.648811 2.690688
" />
<path d="M13.648811 2.690688
L13.696430 2.738307
" />
<path d="M13.696430 2.738307
L13.744049 2.690688
" />
<path d="M13.744049 2.690688
L13.696430 2.643069
" />
<path d="M13.696430 2.643069
L13.696430 2.738307
" />
<path d="M14.601191 3.595450
L14.505953 3.643069
" />
<path d="M14.505953 3.643069
L14.315477 3.643069
" />
<path d="M14.315477 3.643069
L14.220239 3.595450
" />
<path d="M14.220239 3.595450
L14.172620 3.547830
" />
<path d="M14.172620 3.547830
L14.125001 3.452592
" />
<path d="M14.125001 3.452592
L14.125001 3.166878
" />
<path d="M14.125001 3.166878
L14.172620 3.071640
" />
<path d="M14.172620 3.071640
L14.220239 3.024021
" />
<path d="M14.220239 3.024021
L14.315477 2.976402
" />
<path d="M14.315477 2.976402
L14.505953 2.976402
" />
<path d="M14.505953 2.976402
L14.601191 3.024021
" />
<path d="M14.791668 3.738307
L15.553572 3.738307
" />
<path d="M15.791668 3.643069
L15.791668 2.643069
" />
<path d="M15.791668 2.643069
L16.363096 3.643069
" />
<path d="M16.363096 3.643069
L16.363096 2.643069
" />
</g></g>
<g style="fill:none; 
stroke:#AFAFAF; stroke-width:0.040000; stroke-opacity:1; 
stroke-linecap:round; stroke-linejoin:round;">
<text x="8.363096" y="2.148250"
textLength="1.182285" font-size="0.346666" lengthAdjust="spacingAndGlyphs"
text-anchor="middle" opacity="0" stroke-opacity="0">REF**</text>
<g class="stroked-text"><desc>REF**</desc>
<path d="M8.016431 2.136450
L7.929764 2.012642
" />
<path d="M7.867859 2.136450
L7.867859 1.876451
" />
<path d="M7.867859 1.876451
L7.966907 1.876451
" />
<path d="M7.966907 1.876451
L7.991669 1.888832
" />
<path d="M7.991669 1.888832
L8.004050 1.901213
" />
<path d="M8.004050 1.901213
L8.016431 1.925975
" />
<path d="M8.016431 1.925975
L8.016431 1.963118
" />
<path d="M8.016431 1.963118
L8.004050 1.987880
" />
<path d="M8.004050 1.987880
L7.991669 2.000261
" />
<path d="M7.991669 2.000261
L7.966907 2.012642
" />
<path d="M7.966907 2.012642
L7.867859 2.012642
" />
<path d="M8.127859 2.000261
L8.214526 2.000261
" />
<path d="M8.251669 2.136450
L8.127859 2.136450
" />
<path d="M8.127859 2.136450
L8.127859 1.876451
" />
<path d="M8.127859 1.876451
L8.251669 1.876451
" />
<path d="M8.449763 2.000261
L8.363096 2.000261
" />
<path d="M8.363096 2.136450
L8.363096 1.876451
" />
<path d="M8.363096 1.876451
L8.486906 1.876451
" />
<path d="M8.623096 1.876451
L8.623096 1.938356
" />
<path d="M8.561191 1.913594
L8.623096 1.938356
" />
<path d="M8.623096 1.938356
L8.685001 1.913594
" />
<path d="M8.585953 1.987880
L8.623096 1.938356
" />
<path d="M8.623096 1.938356
L8.660239 1.987880
" />
<path d="M8.821191 1.876451
L8.821191 1.938356
" />
<path d="M8.759286 1.913594
L8.821191 1.938356
" />
<path d="M8.821191 1.938356
L8.883096 1.913594
" />
<path d="M8.784048 1.987880
L8.821191 1.938356
" />
<path d="M8.821191 1.938356
L8.858334 1.987880
" />
</g><path style="fill:none; 
stroke:#AFAFAF; stroke-width:0.100000; stroke-opacity:1; 
stroke-linecap:round; stroke-linejoin:round;fill:none"
d="M 7.838096,1.748250
8.888096,1.748250
8.888096,2.288250
7.838096,2.288250
Z" /> 
</g> 
</svg>
