<?xml version="1.0" standalone="no"?>
 <!DOCTYPE svg PUBLIC "-//W3C//DTD SVG 1.1//EN" 
 "http://www.w3.org/Graphics/SVG/1.1/DTD/svg11.dtd"> 
<svg
  xmlns:svg="http://www.w3.org/2000/svg"
  xmlns="http://www.w3.org/2000/svg"
  xmlns:xlink="http://www.w3.org/1999/xlink"
  xmlns:inkscape="http://www.inkscape.org/namespaces/inkscape"
  version="1.1"
  width="100%" height="100%" viewBox="0.000000 0.000000 16.713200 4.978400">
<title>SVG Image created as R_0805_2012Metric_N.svg date 2026-04-15T16:16:32 </title>
  <desc>Image generated by PCBNEW </desc>
<g style="fill:#000000; fill-opacity:1.000000;stroke:#000000; stroke-opacity:1.000000;
stroke-linecap:round; stroke-linejoin:round;"
 transform="translate(0 0) scale(1 1)">
<path style="fill:#C83434; fill-opacity:1.000000; stroke:none;fill-rule:evenodd;"
d="M 6.938096,2.048250
6.957126,1.952579
7.011319,1.871473
7.092425,1.817280
7.188096,1.798250
7.713096,1.798250
7.808767,1.817280
7.889873,1.871473
7.944066,1.952579
7.963096,2.048250
7.963096,2.948250
7.944066,3.043921
7.889873,3.125027
7.808767,3.179220
7.713096,3.198250
7.188096,3.198250
7.092425,3.179220
7.011319,3.125027
6.957126,3.043921
6.938096,2.948250
Z" /> 
<path style="fill:#C83434; fill-opacity:1.000000; stroke:none;fill-rule:evenodd;"
d="M 8.763096,2.048250
8.782126,1.952579
8.836319,1.871473
8.917425,1.817280
9.013096,1.798250
9.538096,1.798250
9.633767,1.817280
9.714873,1.871473
9.769066,1.952579
9.788096,2.048250
9.788096,2.948250
9.769066,3.043921
9.714873,3.125027
9.633767,3.179220
9.538096,3.198250
9.013096,3.198250
8.917425,3.179220
8.836319,3.125027
8.782126,3.043921
8.763096,2.948250
Z" /> 
<path style="fill:#D864FF; fill-opacity:0.400000; stroke:none;fill-rule:evenodd;"
d="M 6.938096,2.048250
6.957126,1.952579
7.011319,1.871473
7.092425,1.817280
7.188096,1.798250
7.713096,1.798250
7.808767,1.817280
7.889873,1.871473
7.944066,1.952579
7.963096,2.048250
7.963096,2.948250
7.944066,3.043921
7.889873,3.125027
7.808767,3.179220
7.713096,3.198250
7.188096,3.198250
7.092425,3.179220
7.011319,3.125027
6.957126,3.043921
6.938096,2.948250
Z" /> 
<path style="fill:#D864FF; fill-opacity:0.400000; stroke:none;fill-rule:evenodd;"
d="M 8.763096,2.048250
8.782126,1.952579
8.836319,1.871473
8.917425,1.817280
9.013096,1.798250
9.538096,1.798250
9.633767,1.817280
9.714873,1.871473
9.769066,1.952579
9.788096,2.048250
9.788096,2.948250
9.769066,3.043921
9.714873,3.125027
9.633767,3.179220
9.538096,3.198250
9.013096,3.198250
8.917425,3.179220
8.836319,3.125027
8.782126,3.043921
8.763096,2.948250
Z" /> 
<path style="fill:#B4A09A; fill-opacity:0.900000; stroke:none;fill-rule:evenodd;"
d="M 6.938096,2.048250
6.957126,1.952579
7.011319,1.871473
7.092425,1.817280
7.188096,1.798250
7.713096,1.798250
7.808767,1.817280
7.889873,1.871473
7.944066,1.952579
7.963096,2.048250
7.963096,2.948250
7.944066,3.043921
7.889873,3.125027
7.808767,3.179220
7.713096,3.198250
7.188096,3.198250
7.092425,3.179220
7.011319,3.125027
6.957126,3.043921
6.938096,2.948250
Z" /> 
<path style="fill:#B4A09A; fill-opacity:0.900000; stroke:none;fill-rule:evenodd;"
d="M 8.763096,2.048250
8.782126,1.952579
8.836319,1.871473
8.917425,1.817280
9.013096,1.798250
9.538096,1.798250
9.633767,1.817280
9.714873,1.871473
9.769066,1.952579
9.788096,2.048250
9.788096,2.948250
9.769066,3.043921
9.714873,3.125027
9.633767,3.179220
9.538096,3.198250
9.013096,3.198250
8.917425,3.179220
8.836319,3.125027
8.782126,3.043921
8.763096,2.948250
Z" /> 
</g>
<g style="fill:none; 
stroke:#F2EDA1; stroke-width:0.150000; stroke-opacity:1; 
stroke-linecap:round; stroke-linejoin:round;">
<text x="8.363096" y="1.348250"
textLength="4.535715" font-size="1.333333" lengthAdjust="spacingAndGlyphs"
text-anchor="middle" opacity="0" stroke-opacity="0">REF**</text>
<g class="stroked-text"><desc>REF**</desc>
<path d="M7.029763 1.303070
L6.696430 0.826879
" />
<path d="M6.458335 1.303070
L6.458335 0.303070
" />
<path d="M6.458335 0.303070
L6.839287 0.303070
" />
<path d="M6.839287 0.303070
L6.934525 0.350689
" />
<path d="M6.934525 0.350689
L6.982144 0.398308
" />
<path d="M6.982144 0.398308
L7.029763 0.493546
" />
<path d="M7.029763 0.493546
L7.029763 0.636403
" />
<path d="M7.029763 0.636403
L6.982144 0.731641
" />
<path d="M6.982144 0.731641
L6.934525 0.779260
" />
<path d="M6.934525 0.779260
L6.839287 0.826879
" />
<path d="M6.839287 0.826879
L6.458335 0.826879
" />
<path d="M7.458335 0.779260
L7.791668 0.779260
" />
<path d="M7.934525 1.303070
L7.458335 1.303070
" />
<path d="M7.458335 1.303070
L7.458335 0.303070
" />
<path d="M7.458335 0.303070
L7.934525 0.303070
" />
<path d="M8.696429 0.779260
L8.363096 0.779260
" />
<path d="M8.363096 1.303070
L8.363096 0.303070
" />
<path d="M8.363096 0.303070
L8.839286 0.303070
" />
<path d="M9.363096 0.303070
L9.363096 0.541165
" />
<path d="M9.125001 0.445927
L9.363096 0.541165
" />
<path d="M9.363096 0.541165
L9.601191 0.445927
" />
<path d="M9.220239 0.731641
L9.363096 0.541165
" />
<path d="M9.363096 0.541165
L9.505953 0.731641
" />
<path d="M10.125001 0.303070
L10.125001 0.541165
" />
<path d="M9.886906 0.445927
L10.125001 0.541165
" />
<path d="M10.125001 0.541165
L10.363096 0.445927
" />
<path d="M9.982144 0.731641
L10.125001 0.541165
" />
<path d="M10.125001 0.541165
L10.267858 0.731641
" />
</g></g>
<g style="fill:none; 
stroke:#F2EDA1; stroke-width:0.120000; stroke-opacity:1; 
stroke-linecap:round; stroke-linejoin:round;">
<path d="M8.136032 1.763250
L8.590160 1.763250
" />
<path d="M8.136032 3.233250
L8.590160 3.233250
" />
<path style="fill:none; 
stroke:#FF26E2; stroke-width:0.050000; stroke-opacity:1; 
stroke-linecap:round; stroke-linejoin:round;fill:none"
d="M 6.683096,1.548250
10.043096,1.548250
10.043096,3.448250
6.683096,3.448250
Z" /> 
</g>
<g style="fill:none; 
stroke:#AFAFAF; stroke-width:0.150000; stroke-opacity:1; 
stroke-linecap:round; stroke-linejoin:round;">
<text x="8.363096" y="4.648250"
textLength="16.726192" font-size="1.333333" lengthAdjust="spacingAndGlyphs"
text-anchor="middle" opacity="0" stroke-opacity="0">R_0805_2012Metric_N</text>
<g class="stroked-text"><desc>R_0805_2012Metric_N</desc>
<path d="M0.934524 4.603069
L0.601191 4.126878
" />
<path d="M0.363096 4.603069
L0.363096 3.603069
" />
<path d="M0.363096 3.603069
L0.744048 3.603069
" />
<path d="M0.744048 3.603069
L0.839286 3.650688
" />
<path d="M0.839286 3.650688
L0.886905 3.698307
" />
<path d="M0.886905 3.698307
L0.934524 3.793545
" />
<path d="M0.934524 3.793545
L0.934524 3.936402
" />
<path d="M0.934524 3.936402
L0.886905 4.031640
" />
<path d="M0.886905 4.031640
L0.839286 4.079259
" />
<path d="M0.839286 4.079259
L0.744048 4.126878
" />
<path d="M0.744048 4.126878
L0.363096 4.126878
" />
<path d="M1.125000 4.698307
L1.886905 4.698307
" />
<path d="M2.315477 3.603069
L2.410715 3.603069
" />
<path d="M2.410715 3.603069
L2.505953 3.650688
" />
<path d="M2.505953 3.650688
L2.553572 3.698307
" />
<path d="M2.553572 3.698307
L2.601191 3.793545
" />
<path d="M2.601191 3.793545
L2.648810 3.984021
" />
<path d="M2.648810 3.984021
L2.648810 4.222116
" />
<path d="M2.648810 4.222116
L2.601191 4.412592
" />
<path d="M2.601191 4.412592
L2.553572 4.507830
" />
<path d="M2.553572 4.507830
L2.505953 4.555450
" />
<path d="M2.505953 4.555450
L2.410715 4.603069
" />
<path d="M2.410715 4.603069
L2.315477 4.603069
" />
<path d="M2.315477 4.603069
L2.220239 4.555450
" />
<path d="M2.220239 4.555450
L2.172620 4.507830
" />
<path d="M2.172620 4.507830
L2.125001 4.412592
" />
<path d="M2.125001 4.412592
L2.077382 4.222116
" />
<path d="M2.077382 4.222116
L2.077382 3.984021
" />
<path d="M2.077382 3.984021
L2.125001 3.793545
" />
<path d="M2.125001 3.793545
L2.172620 3.698307
" />
<path d="M2.172620 3.698307
L2.220239 3.650688
" />
<path d="M2.220239 3.650688
L2.315477 3.603069
" />
<path d="M3.220239 4.031640
L3.125001 3.984021
" />
<path d="M3.125001 3.984021
L3.077382 3.936402
" />
<path d="M3.077382 3.936402
L3.029763 3.841164
" />
<path d="M3.029763 3.841164
L3.029763 3.793545
" />
<path d="M3.029763 3.793545
L3.077382 3.698307
" />
<path d="M3.077382 3.698307
L3.125001 3.650688
" />
<path d="M3.125001 3.650688
L3.220239 3.603069
" />
<path d="M3.220239 3.603069
L3.410715 3.603069
" />
<path d="M3.410715 3.603069
L3.505953 3.650688
" />
<path d="M3.505953 3.650688
L3.553572 3.698307
" />
<path d="M3.553572 3.698307
L3.601191 3.793545
" />
<path d="M3.601191 3.793545
L3.601191 3.841164
" />
<path d="M3.601191 3.841164
L3.553572 3.936402
" />
<path d="M3.553572 3.936402
L3.505953 3.984021
" />
<path d="M3.505953 3.984021
L3.410715 4.031640
" />
<path d="M3.410715 4.031640
L3.220239 4.031640
" />
<path d="M3.220239 4.031640
L3.125001 4.079259
" />
<path d="M3.125001 4.079259
L3.077382 4.126878
" />
<path d="M3.077382 4.126878
L3.029763 4.222116
" />
<path d="M3.029763 4.222116
L3.029763 4.412592
" />
<path d="M3.029763 4.412592
L3.077382 4.507830
" />
<path d="M3.077382 4.507830
L3.125001 4.555450
" />
<path d="M3.125001 4.555450
L3.220239 4.603069
" />
<path d="M3.220239 4.603069
L3.410715 4.603069
" />
<path d="M3.410715 4.603069
L3.505953 4.555450
" />
<path d="M3.505953 4.555450
L3.553572 4.507830
" />
<path d="M3.553572 4.507830
L3.601191 4.412592
" />
<path d="M3.601191 4.412592
L3.601191 4.222116
" />
<path d="M3.601191 4.222116
L3.553572 4.126878
" />
<path d="M3.553572 4.126878
L3.505953 4.079259
" />
<path d="M3.505953 4.079259
L3.410715 4.031640
" />
<path d="M4.220239 3.603069
L4.315477 3.603069
" />
<path d="M4.315477 3.603069
L4.410715 3.650688
" />
<path d="M4.410715 3.650688
L4.458334 3.698307
" />
<path d="M4.458334 3.698307
L4.505953 3.793545
" />
<path d="M4.505953 3.793545
L4.553572 3.984021
" />
<path d="M4.553572 3.984021
L4.553572 4.222116
" />
<path d="M4.553572 4.222116
L4.505953 4.412592
" />
<path d="M4.505953 4.412592
L4.458334 4.507830
" />
<path d="M4.458334 4.507830
L4.410715 4.555450
" />
<path d="M4.410715 4.555450
L4.315477 4.603069
" />
<path d="M4.315477 4.603069
L4.220239 4.603069
" />
<path d="M4.220239 4.603069
L4.125001 4.555450
" />
<path d="M4.125001 4.555450
L4.077382 4.507830
" />
<path d="M4.077382 4.507830
L4.029763 4.412592
" />
<path d="M4.029763 4.412592
L3.982144 4.222116
" />
<path d="M3.982144 4.222116
L3.982144 3.984021
" />
<path d="M3.982144 3.984021
L4.029763 3.793545
" />
<path d="M4.029763 3.793545
L4.077382 3.698307
" />
<path d="M4.077382 3.698307
L4.125001 3.650688
" />
<path d="M4.125001 3.650688
L4.220239 3.603069
" />
<path d="M5.458334 3.603069
L4.982144 3.603069
" />
<path d="M4.982144 3.603069
L4.934525 4.079259
" />
<path d="M4.934525 4.079259
L4.982144 4.031640
" />
<path d="M4.982144 4.031640
L5.077382 3.984021
" />
<path d="M5.077382 3.984021
L5.315477 3.984021
" />
<path d="M5.315477 3.984021
L5.410715 4.031640
" />
<path d="M5.410715 4.031640
L5.458334 4.079259
" />
<path d="M5.458334 4.079259
L5.505953 4.174497
" />
<path d="M5.505953 4.174497
L5.505953 4.412592
" />
<path d="M5.505953 4.412592
L5.458334 4.507830
" />
<path d="M5.458334 4.507830
L5.410715 4.555450
" />
<path d="M5.410715 4.555450
L5.315477 4.603069
" />
<path d="M5.315477 4.603069
L5.077382 4.603069
" />
<path d="M5.077382 4.603069
L4.982144 4.555450
" />
<path d="M4.982144 4.555450
L4.934525 4.507830
" />
<path d="M5.696429 4.698307
L6.458334 4.698307
" />
<path d="M6.648811 3.698307
L6.696430 3.650688
" />
<path d="M6.696430 3.650688
L6.791668 3.603069
" />
<path d="M6.791668 3.603069
L7.029763 3.603069
" />
<path d="M7.029763 3.603069
L7.125001 3.650688
" />
<path d="M7.125001 3.650688
L7.172620 3.698307
" />
<path d="M7.172620 3.698307
L7.220239 3.793545
" />
<path d="M7.220239 3.793545
L7.220239 3.888783
" />
<path d="M7.220239 3.888783
L7.172620 4.031640
" />
<path d="M7.172620 4.031640
L6.601192 4.603069
" />
<path d="M6.601192 4.603069
L7.220239 4.603069
" />
<path d="M7.839287 3.603069
L7.934525 3.603069
" />
<path d="M7.934525 3.603069
L8.029763 3.650688
" />
<path d="M8.029763 3.650688
L8.077382 3.698307
" />
<path d="M8.077382 3.698307
L8.125001 3.793545
" />
<path d="M8.125001 3.793545
L8.172620 3.984021
" />
<path d="M8.172620 3.984021
L8.172620 4.222116
" />
<path d="M8.172620 4.222116
L8.125001 4.412592
" />
<path d="M8.125001 4.412592
L8.077382 4.507830
" />
<path d="M8.077382 4.507830
L8.029763 4.555450
" />
<path d="M8.029763 4.555450
L7.934525 4.603069
" />
<path d="M7.934525 4.603069
L7.839287 4.603069
" />
<path d="M7.839287 4.603069
L7.744049 4.555450
" />
<path d="M7.744049 4.555450
L7.696430 4.507830
" />
<path d="M7.696430 4.507830
L7.648811 4.412592
" />
<path d="M7.648811 4.412592
L7.601192 4.222116
" />
<path d="M7.601192 4.222116
L7.601192 3.984021
" />
<path d="M7.601192 3.984021
L7.648811 3.793545
" />
<path d="M7.648811 3.793545
L7.696430 3.698307
" />
<path d="M7.696430 3.698307
L7.744049 3.650688
" />
<path d="M7.744049 3.650688
L7.839287 3.603069
" />
<path d="M9.125000 4.603069
L8.553572 4.603069
" />
<path d="M8.839286 4.603069
L8.839286 3.603069
" />
<path d="M8.839286 3.603069
L8.744048 3.745926
" />
<path d="M8.744048 3.745926
L8.648810 3.841164
" />
<path d="M8.648810 3.841164
L8.553572 3.888783
" />
<path d="M9.505953 3.698307
L9.553572 3.650688
" />
<path d="M9.553572 3.650688
L9.648810 3.603069
" />
<path d="M9.648810 3.603069
L9.886905 3.603069
" />
<path d="M9.886905 3.603069
L9.982143 3.650688
" />
<path d="M9.982143 3.650688
L10.029762 3.698307
" />
<path d="M10.029762 3.698307
L10.077381 3.793545
" />
<path d="M10.077381 3.793545
L10.077381 3.888783
" />
<path d="M10.077381 3.888783
L10.029762 4.031640
" />
<path d="M10.029762 4.031640
L9.458334 4.603069
" />
<path d="M9.458334 4.603069
L10.077381 4.603069
" />
<path d="M10.505953 4.603069
L10.505953 3.603069
" />
<path d="M10.505953 3.603069
L10.839286 4.317354
" />
<path d="M10.839286 4.317354
L11.172619 3.603069
" />
<path d="M11.172619 3.603069
L11.172619 4.603069
" />
<path d="M12.029762 4.555450
L11.934524 4.603069
" />
<path d="M11.934524 4.603069
L11.744048 4.603069
" />
<path d="M11.744048 4.603069
L11.648810 4.555450
" />
<path d="M11.648810 4.555450
L11.601191 4.460211
" />
<path d="M11.601191 4.460211
L11.601191 4.079259
" />
<path d="M11.601191 4.079259
L11.648810 3.984021
" />
<path d="M11.648810 3.984021
L11.744048 3.936402
" />
<path d="M11.744048 3.936402
L11.934524 3.936402
" />
<path d="M11.934524 3.936402
L12.029762 3.984021
" />
<path d="M12.029762 3.984021
L12.077381 4.079259
" />
<path d="M12.077381 4.079259
L12.077381 4.174497
" />
<path d="M12.077381 4.174497
L11.601191 4.269735
" />
<path d="M12.363096 3.936402
L12.744048 3.936402
" />
<path d="M12.505953 3.603069
L12.505953 4.460211
" />
<path d="M12.505953 4.460211
L12.553572 4.555450
" />
<path d="M12.553572 4.555450
L12.648810 4.603069
" />
<path d="M12.648810 4.603069
L12.744048 4.603069
" />
<path d="M13.077382 4.603069
L13.077382 3.936402
" />
<path d="M13.077382 4.126878
L13.125001 4.031640
" />
<path d="M13.125001 4.031640
L13.172620 3.984021
" />
<path d="M13.172620 3.984021
L13.267858 3.936402
" />
<path d="M13.267858 3.936402
L13.363096 3.936402
" />
<path d="M13.696430 4.603069
L13.696430 3.936402
" />
<path d="M13.696430 3.603069
L13.648811 3.650688
" />
<path d="M13.648811 3.650688
L13.696430 3.698307
" />
<path d="M13.696430 3.698307
L13.744049 3.650688
" />
<path d="M13.744049 3.650688
L13.696430 3.603069
" />
<path d="M13.696430 3.603069
L13.696430 3.698307
" />
<path d="M14.601191 4.555450
L14.505953 4.603069
" />
<path d="M14.505953 4.603069
L14.315477 4.603069
" />
<path d="M14.315477 4.603069
L14.220239 4.555450
" />
<path d="M14.220239 4.555450
L14.172620 4.507830
" />
<path d="M14.172620 4.507830
L14.125001 4.412592
" />
<path d="M14.125001 4.412592
L14.125001 4.126878
" />
<path d="M14.125001 4.126878
L14.172620 4.031640
" />
<path d="M14.172620 4.031640
L14.220239 3.984021
" />
<path d="M14.220239 3.984021
L14.315477 3.936402
" />
<path d="M14.315477 3.936402
L14.505953 3.936402
" />
<path d="M14.505953 3.936402
L14.601191 3.984021
" />
<path d="M14.791668 4.698307
L15.553572 4.698307
" />
<path d="M15.791668 4.603069
L15.791668 3.603069
" />
<path d="M15.791668 3.603069
L16.363096 4.603069
" />
<path d="M16.363096 4.603069
L16.363096 3.603069
" />
</g></g>
<g style="fill:none; 
stroke:#AFAFAF; stroke-width:0.080000; stroke-opacity:1; 
stroke-linecap:round; stroke-linejoin:round;">
<text x="8.363096" y="2.748250"
textLength="2.282856" font-size="0.666666" lengthAdjust="spacingAndGlyphs"
text-anchor="middle" opacity="0" stroke-opacity="0">REF**</text>
<g class="stroked-text"><desc>REF**</desc>
<path d="M7.696430 2.725399
L7.529764 2.487305
" />
<path d="M7.410716 2.725399
L7.410716 2.225400
" />
<path d="M7.410716 2.225400
L7.601192 2.225400
" />
<path d="M7.601192 2.225400
L7.648811 2.249210
" />
<path d="M7.648811 2.249210
L7.672621 2.273019
" />
<path d="M7.672621 2.273019
L7.696430 2.320638
" />
<path d="M7.696430 2.320638
L7.696430 2.392067
" />
<path d="M7.696430 2.392067
L7.672621 2.439686
" />
<path d="M7.672621 2.439686
L7.648811 2.463495
" />
<path d="M7.648811 2.463495
L7.601192 2.487305
" />
<path d="M7.601192 2.487305
L7.410716 2.487305
" />
<path d="M7.910716 2.463495
L8.077383 2.463495
" />
<path d="M8.148811 2.725399
L7.910716 2.725399
" />
<path d="M7.910716 2.725399
L7.910716 2.225400
" />
<path d="M7.910716 2.225400
L8.148811 2.225400
" />
<path d="M8.529763 2.463495
L8.363096 2.463495
" />
<path d="M8.363096 2.725399
L8.363096 2.225400
" />
<path d="M8.363096 2.225400
L8.601191 2.225400
" />
<path d="M8.863096 2.225400
L8.863096 2.344448
" />
<path d="M8.744048 2.296829
L8.863096 2.344448
" />
<path d="M8.863096 2.344448
L8.982143 2.296829
" />
<path d="M8.791667 2.439686
L8.863096 2.344448
" />
<path d="M8.863096 2.344448
L8.934524 2.439686
" />
<path d="M9.244048 2.225400
L9.244048 2.344448
" />
<path d="M9.125000 2.296829
L9.244048 2.344448
" />
<path d="M9.244048 2.344448
L9.363095 2.296829
" />
<path d="M9.172619 2.439686
L9.244048 2.344448
" />
<path d="M9.244048 2.344448
L9.315476 2.439686
" />
</g><path style="fill:none; 
stroke:#AFAFAF; stroke-width:0.100000; stroke-opacity:1; 
stroke-linecap:round; stroke-linejoin:round;fill:none"
d="M 7.363096,1.873250
9.363096,1.873250
9.363096,3.123250
7.363096,3.123250
Z" /> 
</g> 
</svg>
