<?xml version="1.0" standalone="no"?>
 <!DOCTYPE svg PUBLIC "-//W3C//DTD SVG 1.1//EN" 
 "http://www.w3.org/Graphics/SVG/1.1/DTD/svg11.dtd"> 
<svg
  xmlns:svg="http://www.w3.org/2000/svg"
  xmlns="http://www.w3.org/2000/svg"
  xmlns:xlink="http://www.w3.org/1999/xlink"
  xmlns:inkscape="http://www.inkscape.org/namespaces/inkscape"
  version="1.1"
  width="100%" height="100%" viewBox="0.000000 0.000000 16.484600 4.978400">
<title>SVG Image created as R_0805_2012Metric_L.svg date 2026-04-15T16:16:32 </title>
  <desc>Image generated by PCBNEW </desc>
<g style="fill:#000000; fill-opacity:1.000000;stroke:#000000; stroke-opacity:1.000000;
stroke-linecap:round; stroke-linejoin:round;"
 transform="translate(0 0) scale(1 1)">
<path style="fill:#C83434; fill-opacity:1.000000; stroke:none;fill-rule:evenodd;"
d="M 6.900548,1.989994
6.916552,1.909537
6.962127,1.841329
7.030335,1.795754
7.110792,1.779750
7.552304,1.779750
7.632761,1.795754
7.700969,1.841329
7.746544,1.909537
7.762548,1.989994
7.762548,3.006506
7.746544,3.086963
7.700969,3.155171
7.632761,3.200746
7.552304,3.216750
7.110792,3.216750
7.030335,3.200746
6.962127,3.155171
6.916552,3.086963
6.900548,3.006506
Z" /> 
<path style="fill:#C83434; fill-opacity:1.000000; stroke:none;fill-rule:evenodd;"
d="M 8.725548,1.989994
8.741552,1.909537
8.787127,1.841329
8.855335,1.795754
8.935792,1.779750
9.377304,1.779750
9.457761,1.795754
9.525969,1.841329
9.571544,1.909537
9.587548,1.989994
9.587548,3.006506
9.571544,3.086963
9.525969,3.155171
9.457761,3.200746
9.377304,3.216750
8.935792,3.216750
8.855335,3.200746
8.787127,3.155171
8.741552,3.086963
8.725548,3.006506
Z" /> 
<path style="fill:#D864FF; fill-opacity:0.400000; stroke:none;fill-rule:evenodd;"
d="M 6.900548,1.989994
6.916552,1.909537
6.962127,1.841329
7.030335,1.795754
7.110792,1.779750
7.552304,1.779750
7.632761,1.795754
7.700969,1.841329
7.746544,1.909537
7.762548,1.989994
7.762548,3.006506
7.746544,3.086963
7.700969,3.155171
7.632761,3.200746
7.552304,3.216750
7.110792,3.216750
7.030335,3.200746
6.962127,3.155171
6.916552,3.086963
6.900548,3.006506
Z" /> 
<path style="fill:#D864FF; fill-opacity:0.400000; stroke:none;fill-rule:evenodd;"
d="M 8.725548,1.989994
8.741552,1.909537
8.787127,1.841329
8.855335,1.795754
8.935792,1.779750
9.377304,1.779750
9.457761,1.795754
9.525969,1.841329
9.571544,1.909537
9.587548,1.989994
9.587548,3.006506
9.571544,3.086963
9.525969,3.155171
9.457761,3.200746
9.377304,3.216750
8.935792,3.216750
8.855335,3.200746
8.787127,3.155171
8.741552,3.086963
8.725548,3.006506
Z" /> 
<path style="fill:#B4A09A; fill-opacity:0.900000; stroke:none;fill-rule:evenodd;"
d="M 6.900548,1.989994
6.916552,1.909537
6.962127,1.841329
7.030335,1.795754
7.110792,1.779750
7.552304,1.779750
7.632761,1.795754
7.700969,1.841329
7.746544,1.909537
7.762548,1.989994
7.762548,3.006506
7.746544,3.086963
7.700969,3.155171
7.632761,3.200746
7.552304,3.216750
7.110792,3.216750
7.030335,3.200746
6.962127,3.155171
6.916552,3.086963
6.900548,3.006506
Z" /> 
<path style="fill:#B4A09A; fill-opacity:0.900000; stroke:none;fill-rule:evenodd;"
d="M 8.725548,1.989994
8.741552,1.909537
8.787127,1.841329
8.855335,1.795754
8.935792,1.779750
9.377304,1.779750
9.457761,1.795754
9.525969,1.841329
9.571544,1.909537
9.587548,1.989994
9.587548,3.006506
9.571544,3.086963
9.525969,3.155171
9.457761,3.200746
9.377304,3.216750
8.935792,3.216750
8.855335,3.200746
8.787127,3.155171
8.741552,3.086963
8.725548,3.006506
Z" /> 
</g>
<g style="fill:none; 
stroke:#F2EDA1; stroke-width:0.150000; stroke-opacity:1; 
stroke-linecap:round; stroke-linejoin:round;">
<text x="8.244048" y="1.348250"
textLength="4.535715" font-size="1.333333" lengthAdjust="spacingAndGlyphs"
text-anchor="middle" opacity="0" stroke-opacity="0">REF**</text>
<g class="stroked-text"><desc>REF**</desc>
<path d="M6.910715 1.303070
L6.577382 0.826879
" />
<path d="M6.339287 1.303070
L6.339287 0.303070
" />
<path d="M6.339287 0.303070
L6.720239 0.303070
" />
<path d="M6.720239 0.303070
L6.815477 0.350689
" />
<path d="M6.815477 0.350689
L6.863096 0.398308
" />
<path d="M6.863096 0.398308
L6.910715 0.493546
" />
<path d="M6.910715 0.493546
L6.910715 0.636403
" />
<path d="M6.910715 0.636403
L6.863096 0.731641
" />
<path d="M6.863096 0.731641
L6.815477 0.779260
" />
<path d="M6.815477 0.779260
L6.720239 0.826879
" />
<path d="M6.720239 0.826879
L6.339287 0.826879
" />
<path d="M7.339287 0.779260
L7.672620 0.779260
" />
<path d="M7.815477 1.303070
L7.339287 1.303070
" />
<path d="M7.339287 1.303070
L7.339287 0.303070
" />
<path d="M7.339287 0.303070
L7.815477 0.303070
" />
<path d="M8.577381 0.779260
L8.244048 0.779260
" />
<path d="M8.244048 1.303070
L8.244048 0.303070
" />
<path d="M8.244048 0.303070
L8.720238 0.303070
" />
<path d="M9.244048 0.303070
L9.244048 0.541165
" />
<path d="M9.005953 0.445927
L9.244048 0.541165
" />
<path d="M9.244048 0.541165
L9.482143 0.445927
" />
<path d="M9.101191 0.731641
L9.244048 0.541165
" />
<path d="M9.244048 0.541165
L9.386905 0.731641
" />
<path d="M10.005953 0.303070
L10.005953 0.541165
" />
<path d="M9.767858 0.445927
L10.005953 0.541165
" />
<path d="M10.005953 0.541165
L10.244048 0.445927
" />
<path d="M9.863096 0.731641
L10.005953 0.541165
" />
<path d="M10.005953 0.541165
L10.148810 0.731641
" />
</g></g>
<g style="fill:none; 
stroke:#F2EDA1; stroke-width:0.120000; stroke-opacity:1; 
stroke-linecap:round; stroke-linejoin:round;">
<path d="M8.016984 1.763250
L8.471112 1.763250
" />
<path d="M8.016984 3.233250
L8.471112 3.233250
" />
<path style="fill:none; 
stroke:#FF26E2; stroke-width:0.050000; stroke-opacity:1; 
stroke-linecap:round; stroke-linejoin:round;fill:none"
d="M 6.924048,1.728250
9.564048,1.728250
9.564048,3.268250
6.924048,3.268250
Z" /> 
</g>
<g style="fill:none; 
stroke:#AFAFAF; stroke-width:0.150000; stroke-opacity:1; 
stroke-linecap:round; stroke-linejoin:round;">
<text x="8.244048" y="4.648250"
textLength="16.488097" font-size="1.333333" lengthAdjust="spacingAndGlyphs"
text-anchor="middle" opacity="0" stroke-opacity="0">R_0805_2012Metric_L</text>
<g class="stroked-text"><desc>R_0805_2012Metric_L</desc>
<path d="M0.934524 4.603069
L0.601191 4.126878
" />
<path d="M0.363096 4.603069
L0.363096 3.603069
" />
<path d="M0.363096 3.603069
L0.744048 3.603069
" />
<path d="M0.744048 3.603069
L0.839286 3.650688
" />
<path d="M0.839286 3.650688
L0.886905 3.698307
" />
<path d="M0.886905 3.698307
L0.934524 3.793545
" />
<path d="M0.934524 3.793545
L0.934524 3.936402
" />
<path d="M0.934524 3.936402
L0.886905 4.031640
" />
<path d="M0.886905 4.031640
L0.839286 4.079259
" />
<path d="M0.839286 4.079259
L0.744048 4.126878
" />
<path d="M0.744048 4.126878
L0.363096 4.126878
" />
<path d="M1.125000 4.698307
L1.886905 4.698307
" />
<path d="M2.315477 3.603069
L2.410715 3.603069
" />
<path d="M2.410715 3.603069
L2.505953 3.650688
" />
<path d="M2.505953 3.650688
L2.553572 3.698307
" />
<path d="M2.553572 3.698307
L2.601191 3.793545
" />
<path d="M2.601191 3.793545
L2.648810 3.984021
" />
<path d="M2.648810 3.984021
L2.648810 4.222116
" />
<path d="M2.648810 4.222116
L2.601191 4.412592
" />
<path d="M2.601191 4.412592
L2.553572 4.507830
" />
<path d="M2.553572 4.507830
L2.505953 4.555450
" />
<path d="M2.505953 4.555450
L2.410715 4.603069
" />
<path d="M2.410715 4.603069
L2.315477 4.603069
" />
<path d="M2.315477 4.603069
L2.220239 4.555450
" />
<path d="M2.220239 4.555450
L2.172620 4.507830
" />
<path d="M2.172620 4.507830
L2.125001 4.412592
" />
<path d="M2.125001 4.412592
L2.077382 4.222116
" />
<path d="M2.077382 4.222116
L2.077382 3.984021
" />
<path d="M2.077382 3.984021
L2.125001 3.793545
" />
<path d="M2.125001 3.793545
L2.172620 3.698307
" />
<path d="M2.172620 3.698307
L2.220239 3.650688
" />
<path d="M2.220239 3.650688
L2.315477 3.603069
" />
<path d="M3.220239 4.031640
L3.125001 3.984021
" />
<path d="M3.125001 3.984021
L3.077382 3.936402
" />
<path d="M3.077382 3.936402
L3.029763 3.841164
" />
<path d="M3.029763 3.841164
L3.029763 3.793545
" />
<path d="M3.029763 3.793545
L3.077382 3.698307
" />
<path d="M3.077382 3.698307
L3.125001 3.650688
" />
<path d="M3.125001 3.650688
L3.220239 3.603069
" />
<path d="M3.220239 3.603069
L3.410715 3.603069
" />
<path d="M3.410715 3.603069
L3.505953 3.650688
" />
<path d="M3.505953 3.650688
L3.553572 3.698307
" />
<path d="M3.553572 3.698307
L3.601191 3.793545
" />
<path d="M3.601191 3.793545
L3.601191 3.841164
" />
<path d="M3.601191 3.841164
L3.553572 3.936402
" />
<path d="M3.553572 3.936402
L3.505953 3.984021
" />
<path d="M3.505953 3.984021
L3.410715 4.031640
" />
<path d="M3.410715 4.031640
L3.220239 4.031640
" />
<path d="M3.220239 4.031640
L3.125001 4.079259
" />
<path d="M3.125001 4.079259
L3.077382 4.126878
" />
<path d="M3.077382 4.126878
L3.029763 4.222116
" />
<path d="M3.029763 4.222116
L3.029763 4.412592
" />
<path d="M3.029763 4.412592
L3.077382 4.507830
" />
<path d="M3.077382 4.507830
L3.125001 4.555450
" />
<path d="M3.125001 4.555450
L3.220239 4.603069
" />
<path d="M3.220239 4.603069
L3.410715 4.603069
" />
<path d="M3.410715 4.603069
L3.505953 4.555450
" />
<path d="M3.505953 4.555450
L3.553572 4.507830
" />
<path d="M3.553572 4.507830
L3.601191 4.412592
" />
<path d="M3.601191 4.412592
L3.601191 4.222116
" />
<path d="M3.601191 4.222116
L3.553572 4.126878
" />
<path d="M3.553572 4.126878
L3.505953 4.079259
" />
<path d="M3.505953 4.079259
L3.410715 4.031640
" />
<path d="M4.220239 3.603069
L4.315477 3.603069
" />
<path d="M4.315477 3.603069
L4.410715 3.650688
" />
<path d="M4.410715 3.650688
L4.458334 3.698307
" />
<path d="M4.458334 3.698307
L4.505953 3.793545
" />
<path d="M4.505953 3.793545
L4.553572 3.984021
" />
<path d="M4.553572 3.984021
L4.553572 4.222116
" />
<path d="M4.553572 4.222116
L4.505953 4.412592
" />
<path d="M4.505953 4.412592
L4.458334 4.507830
" />
<path d="M4.458334 4.507830
L4.410715 4.555450
" />
<path d="M4.410715 4.555450
L4.315477 4.603069
" />
<path d="M4.315477 4.603069
L4.220239 4.603069
" />
<path d="M4.220239 4.603069
L4.125001 4.555450
" />
<path d="M4.125001 4.555450
L4.077382 4.507830
" />
<path d="M4.077382 4.507830
L4.029763 4.412592
" />
<path d="M4.029763 4.412592
L3.982144 4.222116
" />
<path d="M3.982144 4.222116
L3.982144 3.984021
" />
<path d="M3.982144 3.984021
L4.029763 3.793545
" />
<path d="M4.029763 3.793545
L4.077382 3.698307
" />
<path d="M4.077382 3.698307
L4.125001 3.650688
" />
<path d="M4.125001 3.650688
L4.220239 3.603069
" />
<path d="M5.458334 3.603069
L4.982144 3.603069
" />
<path d="M4.982144 3.603069
L4.934525 4.079259
" />
<path d="M4.934525 4.079259
L4.982144 4.031640
" />
<path d="M4.982144 4.031640
L5.077382 3.984021
" />
<path d="M5.077382 3.984021
L5.315477 3.984021
" />
<path d="M5.315477 3.984021
L5.410715 4.031640
" />
<path d="M5.410715 4.031640
L5.458334 4.079259
" />
<path d="M5.458334 4.079259
L5.505953 4.174497
" />
<path d="M5.505953 4.174497
L5.505953 4.412592
" />
<path d="M5.505953 4.412592
L5.458334 4.507830
" />
<path d="M5.458334 4.507830
L5.410715 4.555450
" />
<path d="M5.410715 4.555450
L5.315477 4.603069
" />
<path d="M5.315477 4.603069
L5.077382 4.603069
" />
<path d="M5.077382 4.603069
L4.982144 4.555450
" />
<path d="M4.982144 4.555450
L4.934525 4.507830
" />
<path d="M5.696429 4.698307
L6.458334 4.698307
" />
<path d="M6.648811 3.698307
L6.696430 3.650688
" />
<path d="M6.696430 3.650688
L6.791668 3.603069
" />
<path d="M6.791668 3.603069
L7.029763 3.603069
" />
<path d="M7.029763 3.603069
L7.125001 3.650688
" />
<path d="M7.125001 3.650688
L7.172620 3.698307
" />
<path d="M7.172620 3.698307
L7.220239 3.793545
" />
<path d="M7.220239 3.793545
L7.220239 3.888783
" />
<path d="M7.220239 3.888783
L7.172620 4.031640
" />
<path d="M7.172620 4.031640
L6.601192 4.603069
" />
<path d="M6.601192 4.603069
L7.220239 4.603069
" />
<path d="M7.839287 3.603069
L7.934525 3.603069
" />
<path d="M7.934525 3.603069
L8.029763 3.650688
" />
<path d="M8.029763 3.650688
L8.077382 3.698307
" />
<path d="M8.077382 3.698307
L8.125001 3.793545
" />
<path d="M8.125001 3.793545
L8.172620 3.984021
" />
<path d="M8.172620 3.984021
L8.172620 4.222116
" />
<path d="M8.172620 4.222116
L8.125001 4.412592
" />
<path d="M8.125001 4.412592
L8.077382 4.507830
" />
<path d="M8.077382 4.507830
L8.029763 4.555450
" />
<path d="M8.029763 4.555450
L7.934525 4.603069
" />
<path d="M7.934525 4.603069
L7.839287 4.603069
" />
<path d="M7.839287 4.603069
L7.744049 4.555450
" />
<path d="M7.744049 4.555450
L7.696430 4.507830
" />
<path d="M7.696430 4.507830
L7.648811 4.412592
" />
<path d="M7.648811 4.412592
L7.601192 4.222116
" />
<path d="M7.601192 4.222116
L7.601192 3.984021
" />
<path d="M7.601192 3.984021
L7.648811 3.793545
" />
<path d="M7.648811 3.793545
L7.696430 3.698307
" />
<path d="M7.696430 3.698307
L7.744049 3.650688
" />
<path d="M7.744049 3.650688
L7.839287 3.603069
" />
<path d="M9.125000 4.603069
L8.553572 4.603069
" />
<path d="M8.839286 4.603069
L8.839286 3.603069
" />
<path d="M8.839286 3.603069
L8.744048 3.745926
" />
<path d="M8.744048 3.745926
L8.648810 3.841164
" />
<path d="M8.648810 3.841164
L8.553572 3.888783
" />
<path d="M9.505953 3.698307
L9.553572 3.650688
" />
<path d="M9.553572 3.650688
L9.648810 3.603069
" />
<path d="M9.648810 3.603069
L9.886905 3.603069
" />
<path d="M9.886905 3.603069
L9.982143 3.650688
" />
<path d="M9.982143 3.650688
L10.029762 3.698307
" />
<path d="M10.029762 3.698307
L10.077381 3.793545
" />
<path d="M10.077381 3.793545
L10.077381 3.888783
" />
<path d="M10.077381 3.888783
L10.029762 4.031640
" />
<path d="M10.029762 4.031640
L9.458334 4.603069
" />
<path d="M9.458334 4.603069
L10.077381 4.603069
" />
<path d="M10.505953 4.603069
L10.505953 3.603069
" />
<path d="M10.505953 3.603069
L10.839286 4.317354
" />
<path d="M10.839286 4.317354
L11.172619 3.603069
" />
<path d="M11.172619 3.603069
L11.172619 4.603069
" />
<path d="M12.029762 4.555450
L11.934524 4.603069
" />
<path d="M11.934524 4.603069
L11.744048 4.603069
" />
<path d="M11.744048 4.603069
L11.648810 4.555450
" />
<path d="M11.648810 4.555450
L11.601191 4.460211
" />
<path d="M11.601191 4.460211
L11.601191 4.079259
" />
<path d="M11.601191 4.079259
L11.648810 3.984021
" />
<path d="M11.648810 3.984021
L11.744048 3.936402
" />
<path d="M11.744048 3.936402
L11.934524 3.936402
" />
<path d="M11.934524 3.936402
L12.029762 3.984021
" />
<path d="M12.029762 3.984021
L12.077381 4.079259
" />
<path d="M12.077381 4.079259
L12.077381 4.174497
" />
<path d="M12.077381 4.174497
L11.601191 4.269735
" />
<path d="M12.363096 3.936402
L12.744048 3.936402
" />
<path d="M12.505953 3.603069
L12.505953 4.460211
" />
<path d="M12.505953 4.460211
L12.553572 4.555450
" />
<path d="M12.553572 4.555450
L12.648810 4.603069
" />
<path d="M12.648810 4.603069
L12.744048 4.603069
" />
<path d="M13.077382 4.603069
L13.077382 3.936402
" />
<path d="M13.077382 4.126878
L13.125001 4.031640
" />
<path d="M13.125001 4.031640
L13.172620 3.984021
" />
<path d="M13.172620 3.984021
L13.267858 3.936402
" />
<path d="M13.267858 3.936402
L13.363096 3.936402
" />
<path d="M13.696430 4.603069
L13.696430 3.936402
" />
<path d="M13.696430 3.603069
L13.648811 3.650688
" />
<path d="M13.648811 3.650688
L13.696430 3.698307
" />
<path d="M13.696430 3.698307
L13.744049 3.650688
" />
<path d="M13.744049 3.650688
L13.696430 3.603069
" />
<path d="M13.696430 3.603069
L13.696430 3.698307
" />
<path d="M14.601191 4.555450
L14.505953 4.603069
" />
<path d="M14.505953 4.603069
L14.315477 4.603069
" />
<path d="M14.315477 4.603069
L14.220239 4.555450
" />
<path d="M14.220239 4.555450
L14.172620 4.507830
" />
<path d="M14.172620 4.507830
L14.125001 4.412592
" />
<path d="M14.125001 4.412592
L14.125001 4.126878
" />
<path d="M14.125001 4.126878
L14.172620 4.031640
" />
<path d="M14.172620 4.031640
L14.220239 3.984021
" />
<path d="M14.220239 3.984021
L14.315477 3.936402
" />
<path d="M14.315477 3.936402
L14.505953 3.936402
" />
<path d="M14.505953 3.936402
L14.601191 3.984021
" />
<path d="M14.791668 4.698307
L15.553572 4.698307
" />
<path d="M16.267858 4.603069
L15.791668 4.603069
" />
<path d="M15.791668 4.603069
L15.791668 3.603069
" />
</g></g>
<g style="fill:none; 
stroke:#AFAFAF; stroke-width:0.080000; stroke-opacity:1; 
stroke-linecap:round; stroke-linejoin:round;">
<text x="8.244048" y="2.748250"
textLength="2.282856" font-size="0.666666" lengthAdjust="spacingAndGlyphs"
text-anchor="middle" opacity="0" stroke-opacity="0">REF**</text>
<g class="stroked-text"><desc>REF**</desc>
<path d="M7.577382 2.725399
L7.410716 2.487305
" />
<path d="M7.291668 2.725399
L7.291668 2.225400
" />
<path d="M7.291668 2.225400
L7.482144 2.225400
" />
<path d="M7.482144 2.225400
L7.529763 2.249210
" />
<path d="M7.529763 2.249210
L7.553573 2.273019
" />
<path d="M7.553573 2.273019
L7.577382 2.320638
" />
<path d="M7.577382 2.320638
L7.577382 2.392067
" />
<path d="M7.577382 2.392067
L7.553573 2.439686
" />
<path d="M7.553573 2.439686
L7.529763 2.463495
" />
<path d="M7.529763 2.463495
L7.482144 2.487305
" />
<path d="M7.482144 2.487305
L7.291668 2.487305
" />
<path d="M7.791668 2.463495
L7.958335 2.463495
" />
<path d="M8.029763 2.725399
L7.791668 2.725399
" />
<path d="M7.791668 2.725399
L7.791668 2.225400
" />
<path d="M7.791668 2.225400
L8.029763 2.225400
" />
<path d="M8.410715 2.463495
L8.244048 2.463495
" />
<path d="M8.244048 2.725399
L8.244048 2.225400
" />
<path d="M8.244048 2.225400
L8.482143 2.225400
" />
<path d="M8.744048 2.225400
L8.744048 2.344448
" />
<path d="M8.625000 2.296829
L8.744048 2.344448
" />
<path d="M8.744048 2.344448
L8.863095 2.296829
" />
<path d="M8.672619 2.439686
L8.744048 2.344448
" />
<path d="M8.744048 2.344448
L8.815476 2.439686
" />
<path d="M9.125000 2.225400
L9.125000 2.344448
" />
<path d="M9.005952 2.296829
L9.125000 2.344448
" />
<path d="M9.125000 2.344448
L9.244047 2.296829
" />
<path d="M9.053571 2.439686
L9.125000 2.344448
" />
<path d="M9.125000 2.344448
L9.196428 2.439686
" />
</g><path style="fill:none; 
stroke:#AFAFAF; stroke-width:0.100000; stroke-opacity:1; 
stroke-linecap:round; stroke-linejoin:round;fill:none"
d="M 7.244048,1.873250
9.244048,1.873250
9.244048,3.123250
7.244048,3.123250
Z" /> 
</g> 
</svg>
