<?xml version="1.0" standalone="no"?>
 <!DOCTYPE svg PUBLIC "-//W3C//DTD SVG 1.1//EN" 
 "http://www.w3.org/Graphics/SVG/1.1/DTD/svg11.dtd"> 
<svg
  xmlns:svg="http://www.w3.org/2000/svg"
  xmlns="http://www.w3.org/2000/svg"
  xmlns:xlink="http://www.w3.org/1999/xlink"
  version="1.1"
  width="100%" height="100%" viewBox="0.0000 0.0000 4.5212 5.2070">
<title>SVG Image created as DSS0012B.svg date 2026/04/15 14:27:30 </title>
  <desc>Image generated by PCBNEW </desc>
<g style="fill:#000000; fill-opacity:1.0000;stroke:#000000; stroke-opacity:1.0000;
stroke-linecap:round; stroke-linejoin:round;"
 transform="translate(0 0) scale(1 1)">
<path style="fill:#C83434; fill-opacity:1.0000; stroke:none;fill-rule:evenodd;"
d="M 1.0679,1.9732
1.5679,1.9732
1.5679,2.2232
1.0679,2.2232
Z" /> 
<path style="fill:#C83434; fill-opacity:1.0000; stroke:none;fill-rule:evenodd;"
d="M 1.0679,2.4732
1.5679,2.4732
1.5679,2.7232
1.0679,2.7232
Z" /> 
<path style="fill:#C83434; fill-opacity:1.0000; stroke:none;fill-rule:evenodd;"
d="M 1.0679,2.9732
1.5679,2.9732
1.5679,3.2232
1.0679,3.2232
Z" /> 
<path style="fill:#C83434; fill-opacity:1.0000; stroke:none;fill-rule:evenodd;"
d="M 1.0679,3.4732
1.5679,3.4732
1.5679,3.7232
1.0679,3.7232
Z" /> 
<path style="fill:#C83434; fill-opacity:1.0000; stroke:none;fill-rule:evenodd;"
d="M 1.0679,3.9732
1.5679,3.9732
1.5679,4.2233
1.0679,4.2233
Z" /> 
<path style="fill:#C83434; fill-opacity:1.0000; stroke:none;fill-rule:evenodd;"
d="M 1.0679,4.4733
1.5679,4.4733
1.5679,4.7233
1.0679,4.7233
Z" /> 
<path style="fill:#C83434; fill-opacity:1.0000; stroke:none;fill-rule:evenodd;"
d="M 2.9679,4.4733
3.4679,4.4733
3.4679,4.7233
2.9679,4.7233
Z" /> 
<path style="fill:#C83434; fill-opacity:1.0000; stroke:none;fill-rule:evenodd;"
d="M 2.9679,3.9732
3.4679,3.9732
3.4679,4.2233
2.9679,4.2233
Z" /> 
<path style="fill:#C83434; fill-opacity:1.0000; stroke:none;fill-rule:evenodd;"
d="M 2.9679,3.4732
3.4679,3.4732
3.4679,3.7232
2.9679,3.7232
Z" /> 
<path style="fill:#C83434; fill-opacity:1.0000; stroke:none;fill-rule:evenodd;"
d="M 2.9679,2.9732
3.4679,2.9732
3.4679,3.2232
2.9679,3.2232
Z" /> 
<path style="fill:#C83434; fill-opacity:1.0000; stroke:none;fill-rule:evenodd;"
d="M 2.9679,2.4732
3.4679,2.4732
3.4679,2.7232
2.9679,2.7232
Z" /> 
<path style="fill:#C83434; fill-opacity:1.0000; stroke:none;fill-rule:evenodd;"
d="M 2.9679,1.9732
3.4679,1.9732
3.4679,2.2232
2.9679,2.2232
Z" /> 
<path style="fill:#C83434; fill-opacity:1.0000; stroke:none;fill-rule:evenodd;"
d="M 1.7679,4.6732
1.7679,2.0232
2.7679,2.0232
2.7679,4.6732
Z" /> 
<path style="fill:#D864FF; fill-opacity:0.4000; stroke:none;fill-rule:evenodd;"
d="M 1.0679,1.9732
1.5679,1.9732
1.5679,2.2232
1.0679,2.2232
Z" /> 
<path style="fill:#D864FF; fill-opacity:0.4000; stroke:none;fill-rule:evenodd;"
d="M 1.0679,2.4732
1.5679,2.4732
1.5679,2.7232
1.0679,2.7232
Z" /> 
<path style="fill:#D864FF; fill-opacity:0.4000; stroke:none;fill-rule:evenodd;"
d="M 1.0679,2.9732
1.5679,2.9732
1.5679,3.2232
1.0679,3.2232
Z" /> 
<path style="fill:#D864FF; fill-opacity:0.4000; stroke:none;fill-rule:evenodd;"
d="M 1.0679,3.4732
1.5679,3.4732
1.5679,3.7232
1.0679,3.7232
Z" /> 
<path style="fill:#D864FF; fill-opacity:0.4000; stroke:none;fill-rule:evenodd;"
d="M 1.0679,3.9732
1.5679,3.9732
1.5679,4.2233
1.0679,4.2233
Z" /> 
<path style="fill:#D864FF; fill-opacity:0.4000; stroke:none;fill-rule:evenodd;"
d="M 1.0679,4.4733
1.5679,4.4733
1.5679,4.7233
1.0679,4.7233
Z" /> 
<path style="fill:#D864FF; fill-opacity:0.4000; stroke:none;fill-rule:evenodd;"
d="M 2.9679,4.4733
3.4679,4.4733
3.4679,4.7233
2.9679,4.7233
Z" /> 
<path style="fill:#D864FF; fill-opacity:0.4000; stroke:none;fill-rule:evenodd;"
d="M 2.9679,3.9732
3.4679,3.9732
3.4679,4.2233
2.9679,4.2233
Z" /> 
<path style="fill:#D864FF; fill-opacity:0.4000; stroke:none;fill-rule:evenodd;"
d="M 2.9679,3.4732
3.4679,3.4732
3.4679,3.7232
2.9679,3.7232
Z" /> 
<path style="fill:#D864FF; fill-opacity:0.4000; stroke:none;fill-rule:evenodd;"
d="M 2.9679,2.9732
3.4679,2.9732
3.4679,3.2232
2.9679,3.2232
Z" /> 
<path style="fill:#D864FF; fill-opacity:0.4000; stroke:none;fill-rule:evenodd;"
d="M 2.9679,2.4732
3.4679,2.4732
3.4679,2.7232
2.9679,2.7232
Z" /> 
<path style="fill:#D864FF; fill-opacity:0.4000; stroke:none;fill-rule:evenodd;"
d="M 2.9679,1.9732
3.4679,1.9732
3.4679,2.2232
2.9679,2.2232
Z" /> 
<path style="fill:#D864FF; fill-opacity:0.4000; stroke:none;fill-rule:evenodd;"
d="M 1.7679,4.6732
1.7679,2.0232
2.7679,2.0232
2.7679,4.6732
Z" /> 
<path style="fill:#B4A09A; fill-opacity:0.9000; stroke:none;fill-rule:evenodd;"
d="M 1.0679,1.9732
1.5679,1.9732
1.5679,2.2232
1.0679,2.2232
Z" /> 
<path style="fill:#B4A09A; fill-opacity:0.9000; stroke:none;fill-rule:evenodd;"
d="M 1.0679,2.4732
1.5679,2.4732
1.5679,2.7232
1.0679,2.7232
Z" /> 
<path style="fill:#B4A09A; fill-opacity:0.9000; stroke:none;fill-rule:evenodd;"
d="M 1.0679,2.9732
1.5679,2.9732
1.5679,3.2232
1.0679,3.2232
Z" /> 
<path style="fill:#B4A09A; fill-opacity:0.9000; stroke:none;fill-rule:evenodd;"
d="M 1.0679,3.4732
1.5679,3.4732
1.5679,3.7232
1.0679,3.7232
Z" /> 
<path style="fill:#B4A09A; fill-opacity:0.9000; stroke:none;fill-rule:evenodd;"
d="M 1.0679,3.9732
1.5679,3.9732
1.5679,4.2233
1.0679,4.2233
Z" /> 
<path style="fill:#B4A09A; fill-opacity:0.9000; stroke:none;fill-rule:evenodd;"
d="M 1.0679,4.4733
1.5679,4.4733
1.5679,4.7233
1.0679,4.7233
Z" /> 
<path style="fill:#B4A09A; fill-opacity:0.9000; stroke:none;fill-rule:evenodd;"
d="M 2.9679,4.4733
3.4679,4.4733
3.4679,4.7233
2.9679,4.7233
Z" /> 
<path style="fill:#B4A09A; fill-opacity:0.9000; stroke:none;fill-rule:evenodd;"
d="M 2.9679,3.9732
3.4679,3.9732
3.4679,4.2233
2.9679,4.2233
Z" /> 
<path style="fill:#B4A09A; fill-opacity:0.9000; stroke:none;fill-rule:evenodd;"
d="M 2.9679,3.4732
3.4679,3.4732
3.4679,3.7232
2.9679,3.7232
Z" /> 
<path style="fill:#B4A09A; fill-opacity:0.9000; stroke:none;fill-rule:evenodd;"
d="M 2.9679,2.9732
3.4679,2.9732
3.4679,3.2232
2.9679,3.2232
Z" /> 
<path style="fill:#B4A09A; fill-opacity:0.9000; stroke:none;fill-rule:evenodd;"
d="M 2.9679,2.4732
3.4679,2.4732
3.4679,2.7232
2.9679,2.7232
Z" /> 
<path style="fill:#B4A09A; fill-opacity:0.9000; stroke:none;fill-rule:evenodd;"
d="M 2.9679,1.9732
3.4679,1.9732
3.4679,2.2232
2.9679,2.2232
Z" /> 
<path style="fill:#B4A09A; fill-opacity:0.9000; stroke:none;fill-rule:evenodd;"
d="M 1.7679,4.6732
1.7679,2.0232
2.7679,2.0232
2.7679,4.6732
Z" /> 
</g>
<g style="fill:none; 
stroke:#F2EDA1; stroke-width:0.1500; stroke-opacity:1; 
stroke-linecap:round; stroke-linejoin:round;">
<text x="2.2679" y="1.3482"
textLength="4.5357" font-size="1.3333" lengthAdjust="spacingAndGlyphs"
text-anchor="middle" opacity="0" stroke-opacity="0">REF**</text>
<g class="stroked-text"><desc>REF**</desc>
<path d="M0.9345 1.3031
L0.6012 0.8269
" />
<path d="M0.3631 1.3031
L0.3631 0.3031
" />
<path d="M0.3631 0.3031
L0.7440 0.3031
" />
<path d="M0.7440 0.3031
L0.8393 0.3507
" />
<path d="M0.8393 0.3507
L0.8869 0.3983
" />
<path d="M0.8869 0.3983
L0.9345 0.4935
" />
<path d="M0.9345 0.4935
L0.9345 0.6364
" />
<path d="M0.9345 0.6364
L0.8869 0.7316
" />
<path d="M0.8869 0.7316
L0.8393 0.7793
" />
<path d="M0.8393 0.7793
L0.7440 0.8269
" />
<path d="M0.7440 0.8269
L0.3631 0.8269
" />
<path d="M1.3631 0.7793
L1.6964 0.7793
" />
<path d="M1.8393 1.3031
L1.3631 1.3031
" />
<path d="M1.3631 1.3031
L1.3631 0.3031
" />
<path d="M1.3631 0.3031
L1.8393 0.3031
" />
<path d="M2.6012 0.7793
L2.2679 0.7793
" />
<path d="M2.2679 1.3031
L2.2679 0.3031
" />
<path d="M2.2679 0.3031
L2.7440 0.3031
" />
<path d="M3.2679 0.3031
L3.2679 0.5412
" />
<path d="M3.0298 0.4459
L3.2679 0.5412
" />
<path d="M3.2679 0.5412
L3.5060 0.4459
" />
<path d="M3.1250 0.7316
L3.2679 0.5412
" />
<path d="M3.2679 0.5412
L3.4107 0.7316
" />
<path d="M4.0298 0.3031
L4.0298 0.5412
" />
<path d="M3.7917 0.4459
L4.0298 0.5412
" />
<path d="M4.0298 0.5412
L4.2679 0.4459
" />
<path d="M3.8869 0.7316
L4.0298 0.5412
" />
<path d="M4.0298 0.5412
L4.1726 0.7316
" />
</g></g>
<g style="fill:none; 
stroke:#F2EDA1; stroke-width:0.2000; stroke-opacity:1; 
stroke-linecap:round; stroke-linejoin:round;">
<path d="M1.2179 1.6482
L1.7429 1.6482
" />
<path d="M1.2179 5.0482
L1.3679 5.0482
" />
<path d="M3.1679 1.6482
L3.3179 1.6482
" />
<path d="M3.1679 5.0482
L3.3179 5.0482
" />
</g>
<g style="fill:none; 
stroke:#FF26E2; stroke-width:0.0500; stroke-opacity:1; 
stroke-linecap:round; stroke-linejoin:round;">
<path d="M0.7679 1.4982
L0.7679 5.1982
" />
<path d="M0.7679 5.1982
L3.7679 5.1982
" />
<path d="M3.7679 1.4982
L0.7679 1.4982
" />
<path d="M3.7679 5.1982
L3.7679 1.4982
" />
</g>
<g style="fill:none; 
stroke:#AFAFAF; stroke-width:0.1000; stroke-opacity:1; 
stroke-linecap:round; stroke-linejoin:round;">
<path d="M1.2179 1.7982
L1.2179 4.8982
" />
<path d="M1.2179 4.8982
L3.3179 4.8982
" />
<path d="M3.3179 1.7982
L1.2179 1.7982
" />
<path d="M3.3179 4.8982
L3.3179 1.7982
" />
<circle cx="1.6679" cy="2.2232" r="0.2000" /> 
</g> 
</svg>
