<?xml version="1.0" standalone="no"?>
 <!DOCTYPE svg PUBLIC "-//W3C//DTD SVG 1.1//EN" 
 "http://www.w3.org/Graphics/SVG/1.1/DTD/svg11.dtd"> 
<svg
  xmlns:svg="http://www.w3.org/2000/svg"
  xmlns="http://www.w3.org/2000/svg"
  xmlns:xlink="http://www.w3.org/1999/xlink"
  version="1.1"
  width="100%" height="100%" viewBox="0.0000 0.0000 61.8744 49.0220">
<title>SVG Image created as OPA857_unit1.svg date 2026/04/15 14:12:48 </title>
  <desc>Image generated by Eeschema-SVG </desc>
<g style="fill:#000000; fill-opacity:1.0000;stroke:#000000; stroke-opacity:1.0000;
stroke-linecap:round; stroke-linejoin:round;"
 transform="translate(0 0) scale(1 1)">
<path style="fill:none; 
stroke:#840000; stroke-width:0.2032; stroke-opacity:1; 
stroke-linecap:round; stroke-linejoin:round;fill:none"
d="M 10.6172,4.1910
10.6172,44.8310
" /> 
<path style="fill:none; 
stroke:#840000; stroke-width:0.2032; stroke-opacity:1; 
stroke-linecap:round; stroke-linejoin:round;fill:none"
d="M 10.6172,44.8310
51.2572,44.8310
" /> 
<path style="fill:none; 
stroke:#840000; stroke-width:0.2032; stroke-opacity:1; 
stroke-linecap:round; stroke-linejoin:round;fill:none"
d="M 51.2572,4.1910
10.6172,4.1910
" /> 
<path style="fill:none; 
stroke:#840000; stroke-width:0.2032; stroke-opacity:1; 
stroke-linecap:round; stroke-linejoin:round;fill:none"
d="M 51.2572,44.8310
51.2572,4.1910
" /> 
</g>
<g style="fill:none; 
stroke:#840000; stroke-width:0.1524; stroke-opacity:1; 
stroke-linecap:round; stroke-linejoin:round;">
<path d="M10.6172 9.2710
L5.5372 9.2710
" />
</g>
<g style="fill:none; 
stroke:#006464; stroke-width:0.1524; stroke-opacity:1; 
stroke-linecap:round; stroke-linejoin:round;">
<text x="10.8712" y="9.9060"
textLength="4.0737" font-size="1.6933" lengthAdjust="spacingAndGlyphs"
text-anchor="start" opacity="0" stroke-opacity="0">VS+</text>
<g class="stroked-text"><desc>VS+</desc>
<path d="M11.0923 8.5805
L11.5156 9.8505
" />
<path d="M11.5156 9.8505
L11.9390 8.5805
" />
<path d="M12.3019 9.7901
L12.4833 9.8505
" />
<path d="M12.4833 9.8505
L12.7857 9.8505
" />
<path d="M12.7857 9.8505
L12.9066 9.7901
" />
<path d="M12.9066 9.7901
L12.9671 9.7296
" />
<path d="M12.9671 9.7296
L13.0276 9.6086
" />
<path d="M13.0276 9.6086
L13.0276 9.4877
" />
<path d="M13.0276 9.4877
L12.9671 9.3667
" />
<path d="M12.9671 9.3667
L12.9066 9.3062
" />
<path d="M12.9066 9.3062
L12.7857 9.2458
" />
<path d="M12.7857 9.2458
L12.5438 9.1853
" />
<path d="M12.5438 9.1853
L12.4228 9.1248
" />
<path d="M12.4228 9.1248
L12.3623 9.0643
" />
<path d="M12.3623 9.0643
L12.3019 8.9434
" />
<path d="M12.3019 8.9434
L12.3019 8.8224
" />
<path d="M12.3019 8.8224
L12.3623 8.7015
" />
<path d="M12.3623 8.7015
L12.4228 8.6410
" />
<path d="M12.4228 8.6410
L12.5438 8.5805
" />
<path d="M12.5438 8.5805
L12.8461 8.5805
" />
<path d="M12.8461 8.5805
L13.0276 8.6410
" />
<path d="M13.5718 9.3667
L14.5395 9.3667
" />
<path d="M14.0556 9.8505
L14.0556 8.8829
" />
</g></g>
<g style="fill:none; 
stroke:#A90000; stroke-width:0.1524; stroke-opacity:1; 
stroke-linecap:round; stroke-linejoin:round;">
<text x="8.0772" y="9.0170"
textLength="1.4127" font-size="1.6933" lengthAdjust="spacingAndGlyphs"
text-anchor="middle" opacity="0" stroke-opacity="0">9</text>
<g class="stroked-text"><desc>9</desc>
<path d="M7.8353 8.8535
L8.0772 8.8535
" />
<path d="M8.0772 8.8535
L8.1982 8.7931
" />
<path d="M8.1982 8.7931
L8.2586 8.7326
" />
<path d="M8.2586 8.7326
L8.3796 8.5511
" />
<path d="M8.3796 8.5511
L8.4401 8.3092
" />
<path d="M8.4401 8.3092
L8.4401 7.8254
" />
<path d="M8.4401 7.8254
L8.3796 7.7045
" />
<path d="M8.3796 7.7045
L8.3191 7.6440
" />
<path d="M8.3191 7.6440
L8.1982 7.5835
" />
<path d="M8.1982 7.5835
L7.9563 7.5835
" />
<path d="M7.9563 7.5835
L7.8353 7.6440
" />
<path d="M7.8353 7.6440
L7.7748 7.7045
" />
<path d="M7.7748 7.7045
L7.7144 7.8254
" />
<path d="M7.7144 7.8254
L7.7144 8.1278
" />
<path d="M7.7144 8.1278
L7.7748 8.2488
" />
<path d="M7.7748 8.2488
L7.8353 8.3092
" />
<path d="M7.8353 8.3092
L7.9563 8.3697
" />
<path d="M7.9563 8.3697
L8.1982 8.3697
" />
<path d="M8.1982 8.3697
L8.3191 8.3092
" />
<path d="M8.3191 8.3092
L8.3796 8.2488
" />
<path d="M8.3796 8.2488
L8.4401 8.1278
" />
</g></g>
<g style="fill:none; 
stroke:#840000; stroke-width:0.1524; stroke-opacity:1; 
stroke-linecap:round; stroke-linejoin:round;">
<path d="M10.6172 11.8110
L5.5372 11.8110
" />
</g>
<g style="fill:none; 
stroke:#006464; stroke-width:0.1524; stroke-opacity:1; 
stroke-linecap:round; stroke-linejoin:round;">
<text x="10.8712" y="12.4460"
textLength="4.0737" font-size="1.6933" lengthAdjust="spacingAndGlyphs"
text-anchor="start" opacity="0" stroke-opacity="0">VS+</text>
<g class="stroked-text"><desc>VS+</desc>
<path d="M11.0923 11.1205
L11.5156 12.3905
" />
<path d="M11.5156 12.3905
L11.9390 11.1205
" />
<path d="M12.3019 12.3301
L12.4833 12.3905
" />
<path d="M12.4833 12.3905
L12.7857 12.3905
" />
<path d="M12.7857 12.3905
L12.9066 12.3301
" />
<path d="M12.9066 12.3301
L12.9671 12.2696
" />
<path d="M12.9671 12.2696
L13.0276 12.1486
" />
<path d="M13.0276 12.1486
L13.0276 12.0277
" />
<path d="M13.0276 12.0277
L12.9671 11.9067
" />
<path d="M12.9671 11.9067
L12.9066 11.8462
" />
<path d="M12.9066 11.8462
L12.7857 11.7858
" />
<path d="M12.7857 11.7858
L12.5438 11.7253
" />
<path d="M12.5438 11.7253
L12.4228 11.6648
" />
<path d="M12.4228 11.6648
L12.3623 11.6043
" />
<path d="M12.3623 11.6043
L12.3019 11.4834
" />
<path d="M12.3019 11.4834
L12.3019 11.3624
" />
<path d="M12.3019 11.3624
L12.3623 11.2415
" />
<path d="M12.3623 11.2415
L12.4228 11.1810
" />
<path d="M12.4228 11.1810
L12.5438 11.1205
" />
<path d="M12.5438 11.1205
L12.8461 11.1205
" />
<path d="M12.8461 11.1205
L13.0276 11.1810
" />
<path d="M13.5718 11.9067
L14.5395 11.9067
" />
<path d="M14.0556 12.3905
L14.0556 11.4229
" />
</g></g>
<g style="fill:none; 
stroke:#A90000; stroke-width:0.1524; stroke-opacity:1; 
stroke-linecap:round; stroke-linejoin:round;">
<text x="8.0772" y="11.5570"
textLength="2.6222" font-size="1.6933" lengthAdjust="spacingAndGlyphs"
text-anchor="middle" opacity="0" stroke-opacity="0">10</text>
<g class="stroked-text"><desc>10</desc>
<path d="M7.8353 11.3935
L7.1096 11.3935
" />
<path d="M7.4724 11.3935
L7.4724 10.1235
" />
<path d="M7.4724 10.1235
L7.3515 10.3050
" />
<path d="M7.3515 10.3050
L7.2305 10.4259
" />
<path d="M7.2305 10.4259
L7.1096 10.4864
" />
<path d="M8.6214 10.1235
L8.7424 10.1235
" />
<path d="M8.7424 10.1235
L8.8633 10.1840
" />
<path d="M8.8633 10.1840
L8.9238 10.2445
" />
<path d="M8.9238 10.2445
L8.9843 10.3654
" />
<path d="M8.9843 10.3654
L9.0448 10.6073
" />
<path d="M9.0448 10.6073
L9.0448 10.9097
" />
<path d="M9.0448 10.9097
L8.9843 11.1516
" />
<path d="M8.9843 11.1516
L8.9238 11.2726
" />
<path d="M8.9238 11.2726
L8.8633 11.3331
" />
<path d="M8.8633 11.3331
L8.7424 11.3935
" />
<path d="M8.7424 11.3935
L8.6214 11.3935
" />
<path d="M8.6214 11.3935
L8.5005 11.3331
" />
<path d="M8.5005 11.3331
L8.4400 11.2726
" />
<path d="M8.4400 11.2726
L8.3795 11.1516
" />
<path d="M8.3795 11.1516
L8.3191 10.9097
" />
<path d="M8.3191 10.9097
L8.3191 10.6073
" />
<path d="M8.3191 10.6073
L8.3795 10.3654
" />
<path d="M8.3795 10.3654
L8.4400 10.2445
" />
<path d="M8.4400 10.2445
L8.5005 10.1840
" />
<path d="M8.5005 10.1840
L8.6214 10.1235
" />
</g></g>
<g style="fill:none; 
stroke:#840000; stroke-width:0.1524; stroke-opacity:1; 
stroke-linecap:round; stroke-linejoin:round;">
<path d="M10.6172 14.3510
L5.5372 14.3510
" />
</g>
<g style="fill:none; 
stroke:#006464; stroke-width:0.1524; stroke-opacity:1; 
stroke-linecap:round; stroke-linejoin:round;">
<text x="10.8712" y="14.9860"
textLength="4.0737" font-size="1.6933" lengthAdjust="spacingAndGlyphs"
text-anchor="start" opacity="0" stroke-opacity="0">VS+</text>
<g class="stroked-text"><desc>VS+</desc>
<path d="M11.0923 13.6605
L11.5156 14.9305
" />
<path d="M11.5156 14.9305
L11.9390 13.6605
" />
<path d="M12.3019 14.8701
L12.4833 14.9305
" />
<path d="M12.4833 14.9305
L12.7857 14.9305
" />
<path d="M12.7857 14.9305
L12.9066 14.8701
" />
<path d="M12.9066 14.8701
L12.9671 14.8096
" />
<path d="M12.9671 14.8096
L13.0276 14.6886
" />
<path d="M13.0276 14.6886
L13.0276 14.5677
" />
<path d="M13.0276 14.5677
L12.9671 14.4467
" />
<path d="M12.9671 14.4467
L12.9066 14.3862
" />
<path d="M12.9066 14.3862
L12.7857 14.3258
" />
<path d="M12.7857 14.3258
L12.5438 14.2653
" />
<path d="M12.5438 14.2653
L12.4228 14.2048
" />
<path d="M12.4228 14.2048
L12.3623 14.1443
" />
<path d="M12.3623 14.1443
L12.3019 14.0234
" />
<path d="M12.3019 14.0234
L12.3019 13.9024
" />
<path d="M12.3019 13.9024
L12.3623 13.7815
" />
<path d="M12.3623 13.7815
L12.4228 13.7210
" />
<path d="M12.4228 13.7210
L12.5438 13.6605
" />
<path d="M12.5438 13.6605
L12.8461 13.6605
" />
<path d="M12.8461 13.6605
L13.0276 13.7210
" />
<path d="M13.5718 14.4467
L14.5395 14.4467
" />
<path d="M14.0556 14.9305
L14.0556 13.9629
" />
</g></g>
<g style="fill:none; 
stroke:#A90000; stroke-width:0.1524; stroke-opacity:1; 
stroke-linecap:round; stroke-linejoin:round;">
<text x="8.0772" y="14.0970"
textLength="2.6222" font-size="1.6933" lengthAdjust="spacingAndGlyphs"
text-anchor="middle" opacity="0" stroke-opacity="0">11</text>
<g class="stroked-text"><desc>11</desc>
<path d="M7.8353 13.9335
L7.1096 13.9335
" />
<path d="M7.4724 13.9335
L7.4724 12.6635
" />
<path d="M7.4724 12.6635
L7.3515 12.8450
" />
<path d="M7.3515 12.8450
L7.2305 12.9659
" />
<path d="M7.2305 12.9659
L7.1096 13.0264
" />
<path d="M9.0448 13.9335
L8.3191 13.9335
" />
<path d="M8.6819 13.9335
L8.6819 12.6635
" />
<path d="M8.6819 12.6635
L8.5610 12.8450
" />
<path d="M8.5610 12.8450
L8.4400 12.9659
" />
<path d="M8.4400 12.9659
L8.3191 13.0264
" />
</g></g>
<g style="fill:none; 
stroke:#840000; stroke-width:0.1524; stroke-opacity:1; 
stroke-linecap:round; stroke-linejoin:round;">
<path d="M10.6172 19.4310
L5.5372 19.4310
" />
</g>
<g style="fill:none; 
stroke:#006464; stroke-width:0.1524; stroke-opacity:1; 
stroke-linecap:round; stroke-linejoin:round;">
<text x="10.8712" y="20.0660"
textLength="2.1385" font-size="1.6933" lengthAdjust="spacingAndGlyphs"
text-anchor="start" opacity="0" stroke-opacity="0">IN</text>
<g class="stroked-text"><desc>IN</desc>
<path d="M11.2737 20.0105
L11.2737 18.7405
" />
<path d="M11.8785 20.0105
L11.8785 18.7405
" />
<path d="M11.8785 18.7405
L12.6042 20.0105
" />
<path d="M12.6042 20.0105
L12.6042 18.7405
" />
</g></g>
<g style="fill:none; 
stroke:#A90000; stroke-width:0.1524; stroke-opacity:1; 
stroke-linecap:round; stroke-linejoin:round;">
<text x="8.0772" y="19.1770"
textLength="2.6222" font-size="1.6933" lengthAdjust="spacingAndGlyphs"
text-anchor="middle" opacity="0" stroke-opacity="0">15</text>
<g class="stroked-text"><desc>15</desc>
<path d="M7.8353 19.0135
L7.1096 19.0135
" />
<path d="M7.4724 19.0135
L7.4724 17.7435
" />
<path d="M7.4724 17.7435
L7.3515 17.9250
" />
<path d="M7.3515 17.9250
L7.2305 18.0459
" />
<path d="M7.2305 18.0459
L7.1096 18.1064
" />
<path d="M8.9843 17.7435
L8.3795 17.7435
" />
<path d="M8.3795 17.7435
L8.3191 18.3483
" />
<path d="M8.3191 18.3483
L8.3795 18.2878
" />
<path d="M8.3795 18.2878
L8.5005 18.2273
" />
<path d="M8.5005 18.2273
L8.8029 18.2273
" />
<path d="M8.8029 18.2273
L8.9238 18.2878
" />
<path d="M8.9238 18.2878
L8.9843 18.3483
" />
<path d="M8.9843 18.3483
L9.0448 18.4692
" />
<path d="M9.0448 18.4692
L9.0448 18.7716
" />
<path d="M9.0448 18.7716
L8.9843 18.8926
" />
<path d="M8.9843 18.8926
L8.9238 18.9531
" />
<path d="M8.9238 18.9531
L8.8029 19.0135
" />
<path d="M8.8029 19.0135
L8.5005 19.0135
" />
<path d="M8.5005 19.0135
L8.3795 18.9531
" />
<path d="M8.3795 18.9531
L8.3191 18.8926
" />
</g></g>
<g style="fill:none; 
stroke:#840000; stroke-width:0.1524; stroke-opacity:1; 
stroke-linecap:round; stroke-linejoin:round;">
<path d="M10.6172 24.5110
L5.5372 24.5110
" />
</g>
<g style="fill:none; 
stroke:#006464; stroke-width:0.1524; stroke-opacity:1; 
stroke-linecap:round; stroke-linejoin:round;">
<text x="10.8712" y="25.1460"
textLength="4.7389" font-size="1.6933" lengthAdjust="spacingAndGlyphs"
text-anchor="start" opacity="0" stroke-opacity="0">CTRL</text>
<g class="stroked-text"><desc>CTRL</desc>
<path d="M11.9994 24.9696
L11.9390 25.0301
" />
<path d="M11.9390 25.0301
L11.7575 25.0905
" />
<path d="M11.7575 25.0905
L11.6366 25.0905
" />
<path d="M11.6366 25.0905
L11.4552 25.0301
" />
<path d="M11.4552 25.0301
L11.3342 24.9091
" />
<path d="M11.3342 24.9091
L11.2737 24.7881
" />
<path d="M11.2737 24.7881
L11.2133 24.5462
" />
<path d="M11.2133 24.5462
L11.2133 24.3648
" />
<path d="M11.2133 24.3648
L11.2737 24.1229
" />
<path d="M11.2737 24.1229
L11.3342 24.0020
" />
<path d="M11.3342 24.0020
L11.4552 23.8810
" />
<path d="M11.4552 23.8810
L11.6366 23.8205
" />
<path d="M11.6366 23.8205
L11.7575 23.8205
" />
<path d="M11.7575 23.8205
L11.9390 23.8810
" />
<path d="M11.9390 23.8810
L11.9994 23.9415
" />
<path d="M12.3623 23.8205
L13.0880 23.8205
" />
<path d="M12.7252 25.0905
L12.7252 23.8205
" />
<path d="M14.2370 25.0905
L13.8137 24.4858
" />
<path d="M13.5113 25.0905
L13.5113 23.8205
" />
<path d="M13.5113 23.8205
L13.9951 23.8205
" />
<path d="M13.9951 23.8205
L14.1161 23.8810
" />
<path d="M14.1161 23.8810
L14.1766 23.9415
" />
<path d="M14.1766 23.9415
L14.2370 24.0624
" />
<path d="M14.2370 24.0624
L14.2370 24.2439
" />
<path d="M14.2370 24.2439
L14.1766 24.3648
" />
<path d="M14.1766 24.3648
L14.1161 24.4253
" />
<path d="M14.1161 24.4253
L13.9951 24.4858
" />
<path d="M13.9951 24.4858
L13.5113 24.4858
" />
<path d="M15.3861 25.0905
L14.7813 25.0905
" />
<path d="M14.7813 25.0905
L14.7813 23.8205
" />
</g></g>
<g style="fill:none; 
stroke:#A90000; stroke-width:0.1524; stroke-opacity:1; 
stroke-linecap:round; stroke-linejoin:round;">
<text x="8.0772" y="24.2570"
textLength="1.4127" font-size="1.6933" lengthAdjust="spacingAndGlyphs"
text-anchor="middle" opacity="0" stroke-opacity="0">2</text>
<g class="stroked-text"><desc>2</desc>
<path d="M7.7144 22.9445
L7.7748 22.8840
" />
<path d="M7.7748 22.8840
L7.8958 22.8235
" />
<path d="M7.8958 22.8235
L8.1982 22.8235
" />
<path d="M8.1982 22.8235
L8.3191 22.8840
" />
<path d="M8.3191 22.8840
L8.3796 22.9445
" />
<path d="M8.3796 22.9445
L8.4401 23.0654
" />
<path d="M8.4401 23.0654
L8.4401 23.1864
" />
<path d="M8.4401 23.1864
L8.3796 23.3678
" />
<path d="M8.3796 23.3678
L7.6539 24.0935
" />
<path d="M7.6539 24.0935
L8.4401 24.0935
" />
</g></g>
<g style="fill:none; 
stroke:#840000; stroke-width:0.1524; stroke-opacity:1; 
stroke-linecap:round; stroke-linejoin:round;">
<path d="M10.6172 29.5910
L5.5372 29.5910
" />
</g>
<g style="fill:none; 
stroke:#006464; stroke-width:0.1524; stroke-opacity:1; 
stroke-linecap:round; stroke-linejoin:round;">
<text x="10.8712" y="30.2260"
textLength="2.8037" font-size="1.6933" lengthAdjust="spacingAndGlyphs"
text-anchor="start" opacity="0" stroke-opacity="0">NC</text>
<g class="stroked-text"><desc>NC</desc>
<path d="M11.2737 30.1705
L11.2737 28.9005
" />
<path d="M11.2737 28.9005
L11.9994 30.1705
" />
<path d="M11.9994 30.1705
L11.9994 28.9005
" />
<path d="M13.3299 30.0496
L13.2695 30.1101
" />
<path d="M13.2695 30.1101
L13.0880 30.1705
" />
<path d="M13.0880 30.1705
L12.9671 30.1705
" />
<path d="M12.9671 30.1705
L12.7857 30.1101
" />
<path d="M12.7857 30.1101
L12.6647 29.9891
" />
<path d="M12.6647 29.9891
L12.6042 29.8681
" />
<path d="M12.6042 29.8681
L12.5438 29.6262
" />
<path d="M12.5438 29.6262
L12.5438 29.4448
" />
<path d="M12.5438 29.4448
L12.6042 29.2029
" />
<path d="M12.6042 29.2029
L12.6647 29.0820
" />
<path d="M12.6647 29.0820
L12.7857 28.9610
" />
<path d="M12.7857 28.9610
L12.9671 28.9005
" />
<path d="M12.9671 28.9005
L13.0880 28.9005
" />
<path d="M13.0880 28.9005
L13.2695 28.9610
" />
<path d="M13.2695 28.9610
L13.3299 29.0215
" />
</g></g>
<g style="fill:none; 
stroke:#A90000; stroke-width:0.1524; stroke-opacity:1; 
stroke-linecap:round; stroke-linejoin:round;">
<text x="8.0772" y="29.3370"
textLength="2.6222" font-size="1.6933" lengthAdjust="spacingAndGlyphs"
text-anchor="middle" opacity="0" stroke-opacity="0">16</text>
<g class="stroked-text"><desc>16</desc>
<path d="M7.8353 29.1735
L7.1096 29.1735
" />
<path d="M7.4724 29.1735
L7.4724 27.9035
" />
<path d="M7.4724 27.9035
L7.3515 28.0850
" />
<path d="M7.3515 28.0850
L7.2305 28.2059
" />
<path d="M7.2305 28.2059
L7.1096 28.2664
" />
<path d="M8.9238 27.9035
L8.6819 27.9035
" />
<path d="M8.6819 27.9035
L8.5610 27.9640
" />
<path d="M8.5610 27.9640
L8.5005 28.0245
" />
<path d="M8.5005 28.0245
L8.3795 28.2059
" />
<path d="M8.3795 28.2059
L8.3191 28.4478
" />
<path d="M8.3191 28.4478
L8.3191 28.9316
" />
<path d="M8.3191 28.9316
L8.3795 29.0526
" />
<path d="M8.3795 29.0526
L8.4400 29.1131
" />
<path d="M8.4400 29.1131
L8.5610 29.1735
" />
<path d="M8.5610 29.1735
L8.8029 29.1735
" />
<path d="M8.8029 29.1735
L8.9238 29.1131
" />
<path d="M8.9238 29.1131
L8.9843 29.0526
" />
<path d="M8.9843 29.0526
L9.0448 28.9316
" />
<path d="M9.0448 28.9316
L9.0448 28.6292
" />
<path d="M9.0448 28.6292
L8.9843 28.5083
" />
<path d="M8.9843 28.5083
L8.9238 28.4478
" />
<path d="M8.9238 28.4478
L8.8029 28.3873
" />
<path d="M8.8029 28.3873
L8.5610 28.3873
" />
<path d="M8.5610 28.3873
L8.4400 28.4478
" />
<path d="M8.4400 28.4478
L8.3795 28.5083
" />
<path d="M8.3795 28.5083
L8.3191 28.6292
" />
</g></g>
<g style="fill:none; 
stroke:#840000; stroke-width:0.1524; stroke-opacity:1; 
stroke-linecap:round; stroke-linejoin:round;">
<path d="M10.6172 34.6710
L5.5372 34.6710
" />
</g>
<g style="fill:none; 
stroke:#006464; stroke-width:0.1524; stroke-opacity:1; 
stroke-linecap:round; stroke-linejoin:round;">
<text x="10.8712" y="35.3060"
textLength="12.2379" font-size="1.6933" lengthAdjust="spacingAndGlyphs"
text-anchor="start" opacity="0" stroke-opacity="0">TEST_IN_VS+</text>
<g class="stroked-text"><desc>TEST_IN_VS+</desc>
<path d="M11.0923 33.9805
L11.8180 33.9805
" />
<path d="M11.4552 35.2505
L11.4552 33.9805
" />
<path d="M12.2413 34.5853
L12.6647 34.5853
" />
<path d="M12.8461 35.2505
L12.2413 35.2505
" />
<path d="M12.2413 35.2505
L12.2413 33.9805
" />
<path d="M12.2413 33.9805
L12.8461 33.9805
" />
<path d="M13.3299 35.1901
L13.5113 35.2505
" />
<path d="M13.5113 35.2505
L13.8137 35.2505
" />
<path d="M13.8137 35.2505
L13.9346 35.1901
" />
<path d="M13.9346 35.1901
L13.9951 35.1296
" />
<path d="M13.9951 35.1296
L14.0556 35.0086
" />
<path d="M14.0556 35.0086
L14.0556 34.8877
" />
<path d="M14.0556 34.8877
L13.9951 34.7667
" />
<path d="M13.9951 34.7667
L13.9346 34.7062
" />
<path d="M13.9346 34.7062
L13.8137 34.6458
" />
<path d="M13.8137 34.6458
L13.5718 34.5853
" />
<path d="M13.5718 34.5853
L13.4508 34.5248
" />
<path d="M13.4508 34.5248
L13.3903 34.4643
" />
<path d="M13.3903 34.4643
L13.3299 34.3434
" />
<path d="M13.3299 34.3434
L13.3299 34.2224
" />
<path d="M13.3299 34.2224
L13.3903 34.1015
" />
<path d="M13.3903 34.1015
L13.4508 34.0410
" />
<path d="M13.4508 34.0410
L13.5718 33.9805
" />
<path d="M13.5718 33.9805
L13.8741 33.9805
" />
<path d="M13.8741 33.9805
L14.0556 34.0410
" />
<path d="M14.4184 33.9805
L15.1441 33.9805
" />
<path d="M14.7813 35.2505
L14.7813 33.9805
" />
<path d="M15.2651 35.3715
L16.2327 35.3715
" />
<path d="M16.5350 35.2505
L16.5350 33.9805
" />
<path d="M17.1398 35.2505
L17.1398 33.9805
" />
<path d="M17.1398 33.9805
L17.8655 35.2505
" />
<path d="M17.8655 35.2505
L17.8655 33.9805
" />
<path d="M18.1680 35.3715
L19.1356 35.3715
" />
<path d="M19.2565 33.9805
L19.6798 35.2505
" />
<path d="M19.6798 35.2505
L20.1032 33.9805
" />
<path d="M20.4661 35.1901
L20.6475 35.2505
" />
<path d="M20.6475 35.2505
L20.9499 35.2505
" />
<path d="M20.9499 35.2505
L21.0708 35.1901
" />
<path d="M21.0708 35.1901
L21.1313 35.1296
" />
<path d="M21.1313 35.1296
L21.1918 35.0086
" />
<path d="M21.1918 35.0086
L21.1918 34.8877
" />
<path d="M21.1918 34.8877
L21.1313 34.7667
" />
<path d="M21.1313 34.7667
L21.0708 34.7062
" />
<path d="M21.0708 34.7062
L20.9499 34.6458
" />
<path d="M20.9499 34.6458
L20.7080 34.5853
" />
<path d="M20.7080 34.5853
L20.5870 34.5248
" />
<path d="M20.5870 34.5248
L20.5265 34.4643
" />
<path d="M20.5265 34.4643
L20.4661 34.3434
" />
<path d="M20.4661 34.3434
L20.4661 34.2224
" />
<path d="M20.4661 34.2224
L20.5265 34.1015
" />
<path d="M20.5265 34.1015
L20.5870 34.0410
" />
<path d="M20.5870 34.0410
L20.7080 33.9805
" />
<path d="M20.7080 33.9805
L21.0103 33.9805
" />
<path d="M21.0103 33.9805
L21.1918 34.0410
" />
<path d="M21.7360 34.7667
L22.7037 34.7667
" />
<path d="M22.2198 35.2505
L22.2198 34.2829
" />
</g></g>
<g style="fill:none; 
stroke:#A90000; stroke-width:0.1524; stroke-opacity:1; 
stroke-linecap:round; stroke-linejoin:round;">
<text x="8.0772" y="34.4170"
textLength="2.6222" font-size="1.6933" lengthAdjust="spacingAndGlyphs"
text-anchor="middle" opacity="0" stroke-opacity="0">14</text>
<g class="stroked-text"><desc>14</desc>
<path d="M7.8353 34.2535
L7.1096 34.2535
" />
<path d="M7.4724 34.2535
L7.4724 32.9835
" />
<path d="M7.4724 32.9835
L7.3515 33.1650
" />
<path d="M7.3515 33.1650
L7.2305 33.2859
" />
<path d="M7.2305 33.2859
L7.1096 33.3464
" />
<path d="M8.9238 33.4069
L8.9238 34.2535
" />
<path d="M8.6214 32.9231
L8.3191 33.8302
" />
<path d="M8.3191 33.8302
L9.1052 33.8302
" />
</g></g>
<g style="fill:none; 
stroke:#840000; stroke-width:0.1524; stroke-opacity:1; 
stroke-linecap:round; stroke-linejoin:round;">
<path d="M10.6172 39.7510
L5.5372 39.7510
" />
</g>
<g style="fill:none; 
stroke:#006464; stroke-width:0.1524; stroke-opacity:1; 
stroke-linecap:round; stroke-linejoin:round;">
<text x="10.8712" y="40.3860"
textLength="12.7821" font-size="1.6933" lengthAdjust="spacingAndGlyphs"
text-anchor="start" opacity="0" stroke-opacity="0">TEST_SD_GND</text>
<g class="stroked-text"><desc>TEST_SD_GND</desc>
<path d="M11.0923 39.0605
L11.8180 39.0605
" />
<path d="M11.4552 40.3305
L11.4552 39.0605
" />
<path d="M12.2413 39.6653
L12.6647 39.6653
" />
<path d="M12.8461 40.3305
L12.2413 40.3305
" />
<path d="M12.2413 40.3305
L12.2413 39.0605
" />
<path d="M12.2413 39.0605
L12.8461 39.0605
" />
<path d="M13.3299 40.2701
L13.5113 40.3305
" />
<path d="M13.5113 40.3305
L13.8137 40.3305
" />
<path d="M13.8137 40.3305
L13.9346 40.2701
" />
<path d="M13.9346 40.2701
L13.9951 40.2096
" />
<path d="M13.9951 40.2096
L14.0556 40.0886
" />
<path d="M14.0556 40.0886
L14.0556 39.9677
" />
<path d="M14.0556 39.9677
L13.9951 39.8467
" />
<path d="M13.9951 39.8467
L13.9346 39.7862
" />
<path d="M13.9346 39.7862
L13.8137 39.7258
" />
<path d="M13.8137 39.7258
L13.5718 39.6653
" />
<path d="M13.5718 39.6653
L13.4508 39.6048
" />
<path d="M13.4508 39.6048
L13.3903 39.5443
" />
<path d="M13.3903 39.5443
L13.3299 39.4234
" />
<path d="M13.3299 39.4234
L13.3299 39.3024
" />
<path d="M13.3299 39.3024
L13.3903 39.1815
" />
<path d="M13.3903 39.1815
L13.4508 39.1210
" />
<path d="M13.4508 39.1210
L13.5718 39.0605
" />
<path d="M13.5718 39.0605
L13.8741 39.0605
" />
<path d="M13.8741 39.0605
L14.0556 39.1210
" />
<path d="M14.4184 39.0605
L15.1441 39.0605
" />
<path d="M14.7813 40.3305
L14.7813 39.0605
" />
<path d="M15.2651 40.4515
L16.2327 40.4515
" />
<path d="M16.4746 40.2701
L16.6560 40.3305
" />
<path d="M16.6560 40.3305
L16.9584 40.3305
" />
<path d="M16.9584 40.3305
L17.0793 40.2701
" />
<path d="M17.0793 40.2701
L17.1398 40.2096
" />
<path d="M17.1398 40.2096
L17.2003 40.0886
" />
<path d="M17.2003 40.0886
L17.2003 39.9677
" />
<path d="M17.2003 39.9677
L17.1398 39.8467
" />
<path d="M17.1398 39.8467
L17.0793 39.7862
" />
<path d="M17.0793 39.7862
L16.9584 39.7258
" />
<path d="M16.9584 39.7258
L16.7165 39.6653
" />
<path d="M16.7165 39.6653
L16.5955 39.6048
" />
<path d="M16.5955 39.6048
L16.5350 39.5443
" />
<path d="M16.5350 39.5443
L16.4746 39.4234
" />
<path d="M16.4746 39.4234
L16.4746 39.3024
" />
<path d="M16.4746 39.3024
L16.5350 39.1815
" />
<path d="M16.5350 39.1815
L16.5955 39.1210
" />
<path d="M16.5955 39.1210
L16.7165 39.0605
" />
<path d="M16.7165 39.0605
L17.0188 39.0605
" />
<path d="M17.0188 39.0605
L17.2003 39.1210
" />
<path d="M17.7445 40.3305
L17.7445 39.0605
" />
<path d="M17.7445 39.0605
L18.0469 39.0605
" />
<path d="M18.0469 39.0605
L18.2283 39.1210
" />
<path d="M18.2283 39.1210
L18.3493 39.2420
" />
<path d="M18.3493 39.2420
L18.4098 39.3629
" />
<path d="M18.4098 39.3629
L18.4702 39.6048
" />
<path d="M18.4702 39.6048
L18.4702 39.7862
" />
<path d="M18.4702 39.7862
L18.4098 40.0281
" />
<path d="M18.4098 40.0281
L18.3493 40.1491
" />
<path d="M18.3493 40.1491
L18.2283 40.2701
" />
<path d="M18.2283 40.2701
L18.0469 40.3305
" />
<path d="M18.0469 40.3305
L17.7445 40.3305
" />
<path d="M18.7122 40.4515
L19.6798 40.4515
" />
<path d="M20.6474 39.1210
L20.5264 39.0605
" />
<path d="M20.5264 39.0605
L20.3450 39.0605
" />
<path d="M20.3450 39.0605
L20.1636 39.1210
" />
<path d="M20.1636 39.1210
L20.0426 39.2420
" />
<path d="M20.0426 39.2420
L19.9821 39.3629
" />
<path d="M19.9821 39.3629
L19.9217 39.6048
" />
<path d="M19.9217 39.6048
L19.9217 39.7862
" />
<path d="M19.9217 39.7862
L19.9821 40.0281
" />
<path d="M19.9821 40.0281
L20.0426 40.1491
" />
<path d="M20.0426 40.1491
L20.1636 40.2701
" />
<path d="M20.1636 40.2701
L20.3450 40.3305
" />
<path d="M20.3450 40.3305
L20.4659 40.3305
" />
<path d="M20.4659 40.3305
L20.6474 40.2701
" />
<path d="M20.6474 40.2701
L20.7078 40.2096
" />
<path d="M20.7078 40.2096
L20.7078 39.7862
" />
<path d="M20.7078 39.7862
L20.4659 39.7862
" />
<path d="M21.2521 40.3305
L21.2521 39.0605
" />
<path d="M21.2521 39.0605
L21.9778 40.3305
" />
<path d="M21.9778 40.3305
L21.9778 39.0605
" />
<path d="M22.5826 40.3305
L22.5826 39.0605
" />
<path d="M22.5826 39.0605
L22.8850 39.0605
" />
<path d="M22.8850 39.0605
L23.0664 39.1210
" />
<path d="M23.0664 39.1210
L23.1874 39.2420
" />
<path d="M23.1874 39.2420
L23.2479 39.3629
" />
<path d="M23.2479 39.3629
L23.3083 39.6048
" />
<path d="M23.3083 39.6048
L23.3083 39.7862
" />
<path d="M23.3083 39.7862
L23.2479 40.0281
" />
<path d="M23.2479 40.0281
L23.1874 40.1491
" />
<path d="M23.1874 40.1491
L23.0664 40.2701
" />
<path d="M23.0664 40.2701
L22.8850 40.3305
" />
<path d="M22.8850 40.3305
L22.5826 40.3305
" />
</g></g>
<g style="fill:none; 
stroke:#A90000; stroke-width:0.1524; stroke-opacity:1; 
stroke-linecap:round; stroke-linejoin:round;">
<text x="8.0772" y="39.4970"
textLength="2.6222" font-size="1.6933" lengthAdjust="spacingAndGlyphs"
text-anchor="middle" opacity="0" stroke-opacity="0">13</text>
<g class="stroked-text"><desc>13</desc>
<path d="M7.8353 39.3335
L7.1096 39.3335
" />
<path d="M7.4724 39.3335
L7.4724 38.0635
" />
<path d="M7.4724 38.0635
L7.3515 38.2450
" />
<path d="M7.3515 38.2450
L7.2305 38.3659
" />
<path d="M7.2305 38.3659
L7.1096 38.4264
" />
<path d="M8.2586 38.0635
L9.0448 38.0635
" />
<path d="M9.0448 38.0635
L8.6214 38.5473
" />
<path d="M8.6214 38.5473
L8.8029 38.5473
" />
<path d="M8.8029 38.5473
L8.9238 38.6078
" />
<path d="M8.9238 38.6078
L8.9843 38.6683
" />
<path d="M8.9843 38.6683
L9.0448 38.7892
" />
<path d="M9.0448 38.7892
L9.0448 39.0916
" />
<path d="M9.0448 39.0916
L8.9843 39.2126
" />
<path d="M8.9843 39.2126
L8.9238 39.2731
" />
<path d="M8.9238 39.2731
L8.8029 39.3335
" />
<path d="M8.8029 39.3335
L8.4400 39.3335
" />
<path d="M8.4400 39.3335
L8.3191 39.2731
" />
<path d="M8.3191 39.2731
L8.2586 39.2126
" />
</g></g>
<g style="fill:none; 
stroke:#840000; stroke-width:0.1524; stroke-opacity:1; 
stroke-linecap:round; stroke-linejoin:round;">
<path d="M51.2572 9.2710
L56.3372 9.2710
" />
</g>
<g style="fill:none; 
stroke:#006464; stroke-width:0.1524; stroke-opacity:1; 
stroke-linecap:round; stroke-linejoin:round;">
<text x="51.0032" y="9.9060"
textLength="3.8318" font-size="1.6933" lengthAdjust="spacingAndGlyphs"
text-anchor="end" opacity="0" stroke-opacity="0">OUT</text>
<g class="stroked-text"><desc>OUT</desc>
<path d="M47.8186 8.5805
L48.0605 8.5805
" />
<path d="M48.0605 8.5805
L48.1815 8.6410
" />
<path d="M48.1815 8.6410
L48.3024 8.7620
" />
<path d="M48.3024 8.7620
L48.3629 9.0039
" />
<path d="M48.3629 9.0039
L48.3629 9.4272
" />
<path d="M48.3629 9.4272
L48.3024 9.6691
" />
<path d="M48.3024 9.6691
L48.1815 9.7901
" />
<path d="M48.1815 9.7901
L48.0605 9.8505
" />
<path d="M48.0605 9.8505
L47.8186 9.8505
" />
<path d="M47.8186 9.8505
L47.6977 9.7901
" />
<path d="M47.6977 9.7901
L47.5767 9.6691
" />
<path d="M47.5767 9.6691
L47.5163 9.4272
" />
<path d="M47.5163 9.4272
L47.5163 9.0039
" />
<path d="M47.5163 9.0039
L47.5767 8.7620
" />
<path d="M47.5767 8.7620
L47.6977 8.6410
" />
<path d="M47.6977 8.6410
L47.8186 8.5805
" />
<path d="M48.9072 8.5805
L48.9072 9.6086
" />
<path d="M48.9072 9.6086
L48.9677 9.7296
" />
<path d="M48.9677 9.7296
L49.0282 9.7901
" />
<path d="M49.0282 9.7901
L49.1491 9.8505
" />
<path d="M49.1491 9.8505
L49.3910 9.8505
" />
<path d="M49.3910 9.8505
L49.5120 9.7901
" />
<path d="M49.5120 9.7901
L49.5725 9.7296
" />
<path d="M49.5725 9.7296
L49.6329 9.6086
" />
<path d="M49.6329 9.6086
L49.6329 8.5805
" />
<path d="M50.0563 8.5805
L50.7820 8.5805
" />
<path d="M50.4192 9.8505
L50.4192 8.5805
" />
</g></g>
<g style="fill:none; 
stroke:#A90000; stroke-width:0.1524; stroke-opacity:1; 
stroke-linecap:round; stroke-linejoin:round;">
<text x="53.7972" y="9.0170"
textLength="1.4127" font-size="1.6933" lengthAdjust="spacingAndGlyphs"
text-anchor="middle" opacity="0" stroke-opacity="0">8</text>
<g class="stroked-text"><desc>8</desc>
<path d="M53.6763 8.1278
L53.5553 8.0673
" />
<path d="M53.5553 8.0673
L53.4948 8.0069
" />
<path d="M53.4948 8.0069
L53.4344 7.8859
" />
<path d="M53.4344 7.8859
L53.4344 7.8254
" />
<path d="M53.4344 7.8254
L53.4948 7.7045
" />
<path d="M53.4948 7.7045
L53.5553 7.6440
" />
<path d="M53.5553 7.6440
L53.6763 7.5835
" />
<path d="M53.6763 7.5835
L53.9182 7.5835
" />
<path d="M53.9182 7.5835
L54.0391 7.6440
" />
<path d="M54.0391 7.6440
L54.0996 7.7045
" />
<path d="M54.0996 7.7045
L54.1601 7.8254
" />
<path d="M54.1601 7.8254
L54.1601 7.8859
" />
<path d="M54.1601 7.8859
L54.0996 8.0069
" />
<path d="M54.0996 8.0069
L54.0391 8.0673
" />
<path d="M54.0391 8.0673
L53.9182 8.1278
" />
<path d="M53.9182 8.1278
L53.6763 8.1278
" />
<path d="M53.6763 8.1278
L53.5553 8.1883
" />
<path d="M53.5553 8.1883
L53.4948 8.2488
" />
<path d="M53.4948 8.2488
L53.4344 8.3697
" />
<path d="M53.4344 8.3697
L53.4344 8.6116
" />
<path d="M53.4344 8.6116
L53.4948 8.7326
" />
<path d="M53.4948 8.7326
L53.5553 8.7931
" />
<path d="M53.5553 8.7931
L53.6763 8.8535
" />
<path d="M53.6763 8.8535
L53.9182 8.8535
" />
<path d="M53.9182 8.8535
L54.0391 8.7931
" />
<path d="M54.0391 8.7931
L54.0996 8.7326
" />
<path d="M54.0996 8.7326
L54.1601 8.6116
" />
<path d="M54.1601 8.6116
L54.1601 8.3697
" />
<path d="M54.1601 8.3697
L54.0996 8.2488
" />
<path d="M54.0996 8.2488
L54.0391 8.1883
" />
<path d="M54.0391 8.1883
L53.9182 8.1278
" />
</g></g>
<g style="fill:none; 
stroke:#840000; stroke-width:0.1524; stroke-opacity:1; 
stroke-linecap:round; stroke-linejoin:round;">
<path d="M51.2572 14.3510
L56.3372 14.3510
" />
</g>
<g style="fill:none; 
stroke:#006464; stroke-width:0.1524; stroke-opacity:1; 
stroke-linecap:round; stroke-linejoin:round;">
<text x="51.0032" y="14.9860"
textLength="5.1623" font-size="1.6933" lengthAdjust="spacingAndGlyphs"
text-anchor="end" opacity="0" stroke-opacity="0">OUTN</text>
<g class="stroked-text"><desc>OUTN</desc>
<path d="M46.4881 13.6605
L46.7300 13.6605
" />
<path d="M46.7300 13.6605
L46.8510 13.7210
" />
<path d="M46.8510 13.7210
L46.9719 13.8420
" />
<path d="M46.9719 13.8420
L47.0324 14.0839
" />
<path d="M47.0324 14.0839
L47.0324 14.5072
" />
<path d="M47.0324 14.5072
L46.9719 14.7491
" />
<path d="M46.9719 14.7491
L46.8510 14.8701
" />
<path d="M46.8510 14.8701
L46.7300 14.9305
" />
<path d="M46.7300 14.9305
L46.4881 14.9305
" />
<path d="M46.4881 14.9305
L46.3672 14.8701
" />
<path d="M46.3672 14.8701
L46.2462 14.7491
" />
<path d="M46.2462 14.7491
L46.1858 14.5072
" />
<path d="M46.1858 14.5072
L46.1858 14.0839
" />
<path d="M46.1858 14.0839
L46.2462 13.8420
" />
<path d="M46.2462 13.8420
L46.3672 13.7210
" />
<path d="M46.3672 13.7210
L46.4881 13.6605
" />
<path d="M47.5767 13.6605
L47.5767 14.6886
" />
<path d="M47.5767 14.6886
L47.6372 14.8096
" />
<path d="M47.6372 14.8096
L47.6977 14.8701
" />
<path d="M47.6977 14.8701
L47.8186 14.9305
" />
<path d="M47.8186 14.9305
L48.0605 14.9305
" />
<path d="M48.0605 14.9305
L48.1815 14.8701
" />
<path d="M48.1815 14.8701
L48.2420 14.8096
" />
<path d="M48.2420 14.8096
L48.3024 14.6886
" />
<path d="M48.3024 14.6886
L48.3024 13.6605
" />
<path d="M48.7258 13.6605
L49.4515 13.6605
" />
<path d="M49.0887 14.9305
L49.0887 13.6605
" />
<path d="M49.8748 14.9305
L49.8748 13.6605
" />
<path d="M49.8748 13.6605
L50.6005 14.9305
" />
<path d="M50.6005 14.9305
L50.6005 13.6605
" />
</g></g>
<g style="fill:none; 
stroke:#A90000; stroke-width:0.1524; stroke-opacity:1; 
stroke-linecap:round; stroke-linejoin:round;">
<text x="53.7972" y="14.0970"
textLength="1.4127" font-size="1.6933" lengthAdjust="spacingAndGlyphs"
text-anchor="middle" opacity="0" stroke-opacity="0">5</text>
<g class="stroked-text"><desc>5</desc>
<path d="M54.0996 12.6635
L53.4948 12.6635
" />
<path d="M53.4948 12.6635
L53.4344 13.2683
" />
<path d="M53.4344 13.2683
L53.4948 13.2078
" />
<path d="M53.4948 13.2078
L53.6158 13.1473
" />
<path d="M53.6158 13.1473
L53.9182 13.1473
" />
<path d="M53.9182 13.1473
L54.0391 13.2078
" />
<path d="M54.0391 13.2078
L54.0996 13.2683
" />
<path d="M54.0996 13.2683
L54.1601 13.3892
" />
<path d="M54.1601 13.3892
L54.1601 13.6916
" />
<path d="M54.1601 13.6916
L54.0996 13.8126
" />
<path d="M54.0996 13.8126
L54.0391 13.8731
" />
<path d="M54.0391 13.8731
L53.9182 13.9335
" />
<path d="M53.9182 13.9335
L53.6158 13.9335
" />
<path d="M53.6158 13.9335
L53.4948 13.8731
" />
<path d="M53.4948 13.8731
L53.4344 13.8126
" />
</g></g>
<g style="fill:none; 
stroke:#840000; stroke-width:0.1524; stroke-opacity:1; 
stroke-linecap:round; stroke-linejoin:round;">
<path d="M51.2572 21.9710
L56.3372 21.9710
" />
</g>
<g style="fill:none; 
stroke:#006464; stroke-width:0.1524; stroke-opacity:1; 
stroke-linecap:round; stroke-linejoin:round;">
<text x="51.0032" y="22.6060"
textLength="4.0737" font-size="1.6933" lengthAdjust="spacingAndGlyphs"
text-anchor="end" opacity="0" stroke-opacity="0">GND</text>
<g class="stroked-text"><desc>GND</desc>
<path d="M48.0001 21.3410
L47.8791 21.2805
" />
<path d="M47.8791 21.2805
L47.6977 21.2805
" />
<path d="M47.6977 21.2805
L47.5163 21.3410
" />
<path d="M47.5163 21.3410
L47.3953 21.4620
" />
<path d="M47.3953 21.4620
L47.3348 21.5829
" />
<path d="M47.3348 21.5829
L47.2744 21.8248
" />
<path d="M47.2744 21.8248
L47.2744 22.0062
" />
<path d="M47.2744 22.0062
L47.3348 22.2481
" />
<path d="M47.3348 22.2481
L47.3953 22.3691
" />
<path d="M47.3953 22.3691
L47.5163 22.4901
" />
<path d="M47.5163 22.4901
L47.6977 22.5505
" />
<path d="M47.6977 22.5505
L47.8186 22.5505
" />
<path d="M47.8186 22.5505
L48.0001 22.4901
" />
<path d="M48.0001 22.4901
L48.0605 22.4296
" />
<path d="M48.0605 22.4296
L48.0605 22.0062
" />
<path d="M48.0605 22.0062
L47.8186 22.0062
" />
<path d="M48.6048 22.5505
L48.6048 21.2805
" />
<path d="M48.6048 21.2805
L49.3305 22.5505
" />
<path d="M49.3305 22.5505
L49.3305 21.2805
" />
<path d="M49.9353 22.5505
L49.9353 21.2805
" />
<path d="M49.9353 21.2805
L50.2377 21.2805
" />
<path d="M50.2377 21.2805
L50.4191 21.3410
" />
<path d="M50.4191 21.3410
L50.5401 21.4620
" />
<path d="M50.5401 21.4620
L50.6006 21.5829
" />
<path d="M50.6006 21.5829
L50.6610 21.8248
" />
<path d="M50.6610 21.8248
L50.6610 22.0062
" />
<path d="M50.6610 22.0062
L50.6006 22.2481
" />
<path d="M50.6006 22.2481
L50.5401 22.3691
" />
<path d="M50.5401 22.3691
L50.4191 22.4901
" />
<path d="M50.4191 22.4901
L50.2377 22.5505
" />
<path d="M50.2377 22.5505
L49.9353 22.5505
" />
</g></g>
<g style="fill:none; 
stroke:#A90000; stroke-width:0.1524; stroke-opacity:1; 
stroke-linecap:round; stroke-linejoin:round;">
<text x="53.7972" y="21.7170"
textLength="1.4127" font-size="1.6933" lengthAdjust="spacingAndGlyphs"
text-anchor="middle" opacity="0" stroke-opacity="0">1</text>
<g class="stroked-text"><desc>1</desc>
<path d="M54.1601 21.5535
L53.4344 21.5535
" />
<path d="M53.7972 21.5535
L53.7972 20.2835
" />
<path d="M53.7972 20.2835
L53.6763 20.4650
" />
<path d="M53.6763 20.4650
L53.5553 20.5859
" />
<path d="M53.5553 20.5859
L53.4344 20.6464
" />
</g></g>
<g style="fill:none; 
stroke:#840000; stroke-width:0.1524; stroke-opacity:1; 
stroke-linecap:round; stroke-linejoin:round;">
<path d="M51.2572 24.5110
L56.3372 24.5110
" />
</g>
<g style="fill:none; 
stroke:#006464; stroke-width:0.1524; stroke-opacity:1; 
stroke-linecap:round; stroke-linejoin:round;">
<text x="51.0032" y="25.1460"
textLength="4.0737" font-size="1.6933" lengthAdjust="spacingAndGlyphs"
text-anchor="end" opacity="0" stroke-opacity="0">GND</text>
<g class="stroked-text"><desc>GND</desc>
<path d="M48.0001 23.8810
L47.8791 23.8205
" />
<path d="M47.8791 23.8205
L47.6977 23.8205
" />
<path d="M47.6977 23.8205
L47.5163 23.8810
" />
<path d="M47.5163 23.8810
L47.3953 24.0020
" />
<path d="M47.3953 24.0020
L47.3348 24.1229
" />
<path d="M47.3348 24.1229
L47.2744 24.3648
" />
<path d="M47.2744 24.3648
L47.2744 24.5462
" />
<path d="M47.2744 24.5462
L47.3348 24.7881
" />
<path d="M47.3348 24.7881
L47.3953 24.9091
" />
<path d="M47.3953 24.9091
L47.5163 25.0301
" />
<path d="M47.5163 25.0301
L47.6977 25.0905
" />
<path d="M47.6977 25.0905
L47.8186 25.0905
" />
<path d="M47.8186 25.0905
L48.0001 25.0301
" />
<path d="M48.0001 25.0301
L48.0605 24.9696
" />
<path d="M48.0605 24.9696
L48.0605 24.5462
" />
<path d="M48.0605 24.5462
L47.8186 24.5462
" />
<path d="M48.6048 25.0905
L48.6048 23.8205
" />
<path d="M48.6048 23.8205
L49.3305 25.0905
" />
<path d="M49.3305 25.0905
L49.3305 23.8205
" />
<path d="M49.9353 25.0905
L49.9353 23.8205
" />
<path d="M49.9353 23.8205
L50.2377 23.8205
" />
<path d="M50.2377 23.8205
L50.4191 23.8810
" />
<path d="M50.4191 23.8810
L50.5401 24.0020
" />
<path d="M50.5401 24.0020
L50.6006 24.1229
" />
<path d="M50.6006 24.1229
L50.6610 24.3648
" />
<path d="M50.6610 24.3648
L50.6610 24.5462
" />
<path d="M50.6610 24.5462
L50.6006 24.7881
" />
<path d="M50.6006 24.7881
L50.5401 24.9091
" />
<path d="M50.5401 24.9091
L50.4191 25.0301
" />
<path d="M50.4191 25.0301
L50.2377 25.0905
" />
<path d="M50.2377 25.0905
L49.9353 25.0905
" />
</g></g>
<g style="fill:none; 
stroke:#A90000; stroke-width:0.1524; stroke-opacity:1; 
stroke-linecap:round; stroke-linejoin:round;">
<text x="53.7972" y="24.2570"
textLength="1.4127" font-size="1.6933" lengthAdjust="spacingAndGlyphs"
text-anchor="middle" opacity="0" stroke-opacity="0">3</text>
<g class="stroked-text"><desc>3</desc>
<path d="M53.3739 22.8235
L54.1601 22.8235
" />
<path d="M54.1601 22.8235
L53.7367 23.3073
" />
<path d="M53.7367 23.3073
L53.9182 23.3073
" />
<path d="M53.9182 23.3073
L54.0391 23.3678
" />
<path d="M54.0391 23.3678
L54.0996 23.4283
" />
<path d="M54.0996 23.4283
L54.1601 23.5492
" />
<path d="M54.1601 23.5492
L54.1601 23.8516
" />
<path d="M54.1601 23.8516
L54.0996 23.9726
" />
<path d="M54.0996 23.9726
L54.0391 24.0331
" />
<path d="M54.0391 24.0331
L53.9182 24.0935
" />
<path d="M53.9182 24.0935
L53.5553 24.0935
" />
<path d="M53.5553 24.0935
L53.4344 24.0331
" />
<path d="M53.4344 24.0331
L53.3739 23.9726
" />
</g></g>
<g style="fill:none; 
stroke:#840000; stroke-width:0.1524; stroke-opacity:1; 
stroke-linecap:round; stroke-linejoin:round;">
<path d="M51.2572 27.0510
L56.3372 27.0510
" />
</g>
<g style="fill:none; 
stroke:#006464; stroke-width:0.1524; stroke-opacity:1; 
stroke-linecap:round; stroke-linejoin:round;">
<text x="51.0032" y="27.6860"
textLength="4.0737" font-size="1.6933" lengthAdjust="spacingAndGlyphs"
text-anchor="end" opacity="0" stroke-opacity="0">GND</text>
<g class="stroked-text"><desc>GND</desc>
<path d="M48.0001 26.4210
L47.8791 26.3605
" />
<path d="M47.8791 26.3605
L47.6977 26.3605
" />
<path d="M47.6977 26.3605
L47.5163 26.4210
" />
<path d="M47.5163 26.4210
L47.3953 26.5420
" />
<path d="M47.3953 26.5420
L47.3348 26.6629
" />
<path d="M47.3348 26.6629
L47.2744 26.9048
" />
<path d="M47.2744 26.9048
L47.2744 27.0862
" />
<path d="M47.2744 27.0862
L47.3348 27.3281
" />
<path d="M47.3348 27.3281
L47.3953 27.4491
" />
<path d="M47.3953 27.4491
L47.5163 27.5701
" />
<path d="M47.5163 27.5701
L47.6977 27.6305
" />
<path d="M47.6977 27.6305
L47.8186 27.6305
" />
<path d="M47.8186 27.6305
L48.0001 27.5701
" />
<path d="M48.0001 27.5701
L48.0605 27.5096
" />
<path d="M48.0605 27.5096
L48.0605 27.0862
" />
<path d="M48.0605 27.0862
L47.8186 27.0862
" />
<path d="M48.6048 27.6305
L48.6048 26.3605
" />
<path d="M48.6048 26.3605
L49.3305 27.6305
" />
<path d="M49.3305 27.6305
L49.3305 26.3605
" />
<path d="M49.9353 27.6305
L49.9353 26.3605
" />
<path d="M49.9353 26.3605
L50.2377 26.3605
" />
<path d="M50.2377 26.3605
L50.4191 26.4210
" />
<path d="M50.4191 26.4210
L50.5401 26.5420
" />
<path d="M50.5401 26.5420
L50.6006 26.6629
" />
<path d="M50.6006 26.6629
L50.6610 26.9048
" />
<path d="M50.6610 26.9048
L50.6610 27.0862
" />
<path d="M50.6610 27.0862
L50.6006 27.3281
" />
<path d="M50.6006 27.3281
L50.5401 27.4491
" />
<path d="M50.5401 27.4491
L50.4191 27.5701
" />
<path d="M50.4191 27.5701
L50.2377 27.6305
" />
<path d="M50.2377 27.6305
L49.9353 27.6305
" />
</g></g>
<g style="fill:none; 
stroke:#A90000; stroke-width:0.1524; stroke-opacity:1; 
stroke-linecap:round; stroke-linejoin:round;">
<text x="53.7972" y="26.7970"
textLength="1.4127" font-size="1.6933" lengthAdjust="spacingAndGlyphs"
text-anchor="middle" opacity="0" stroke-opacity="0">4</text>
<g class="stroked-text"><desc>4</desc>
<path d="M54.0391 25.7869
L54.0391 26.6335
" />
<path d="M53.7367 25.3031
L53.4344 26.2102
" />
<path d="M53.4344 26.2102
L54.2205 26.2102
" />
</g></g>
<g style="fill:none; 
stroke:#840000; stroke-width:0.1524; stroke-opacity:1; 
stroke-linecap:round; stroke-linejoin:round;">
<path d="M51.2572 29.5910
L56.3372 29.5910
" />
</g>
<g style="fill:none; 
stroke:#006464; stroke-width:0.1524; stroke-opacity:1; 
stroke-linecap:round; stroke-linejoin:round;">
<text x="51.0032" y="30.2260"
textLength="4.0737" font-size="1.6933" lengthAdjust="spacingAndGlyphs"
text-anchor="end" opacity="0" stroke-opacity="0">GND</text>
<g class="stroked-text"><desc>GND</desc>
<path d="M48.0001 28.9610
L47.8791 28.9005
" />
<path d="M47.8791 28.9005
L47.6977 28.9005
" />
<path d="M47.6977 28.9005
L47.5163 28.9610
" />
<path d="M47.5163 28.9610
L47.3953 29.0820
" />
<path d="M47.3953 29.0820
L47.3348 29.2029
" />
<path d="M47.3348 29.2029
L47.2744 29.4448
" />
<path d="M47.2744 29.4448
L47.2744 29.6262
" />
<path d="M47.2744 29.6262
L47.3348 29.8681
" />
<path d="M47.3348 29.8681
L47.3953 29.9891
" />
<path d="M47.3953 29.9891
L47.5163 30.1101
" />
<path d="M47.5163 30.1101
L47.6977 30.1705
" />
<path d="M47.6977 30.1705
L47.8186 30.1705
" />
<path d="M47.8186 30.1705
L48.0001 30.1101
" />
<path d="M48.0001 30.1101
L48.0605 30.0496
" />
<path d="M48.0605 30.0496
L48.0605 29.6262
" />
<path d="M48.0605 29.6262
L47.8186 29.6262
" />
<path d="M48.6048 30.1705
L48.6048 28.9005
" />
<path d="M48.6048 28.9005
L49.3305 30.1705
" />
<path d="M49.3305 30.1705
L49.3305 28.9005
" />
<path d="M49.9353 30.1705
L49.9353 28.9005
" />
<path d="M49.9353 28.9005
L50.2377 28.9005
" />
<path d="M50.2377 28.9005
L50.4191 28.9610
" />
<path d="M50.4191 28.9610
L50.5401 29.0820
" />
<path d="M50.5401 29.0820
L50.6006 29.2029
" />
<path d="M50.6006 29.2029
L50.6610 29.4448
" />
<path d="M50.6610 29.4448
L50.6610 29.6262
" />
<path d="M50.6610 29.6262
L50.6006 29.8681
" />
<path d="M50.6006 29.8681
L50.5401 29.9891
" />
<path d="M50.5401 29.9891
L50.4191 30.1101
" />
<path d="M50.4191 30.1101
L50.2377 30.1705
" />
<path d="M50.2377 30.1705
L49.9353 30.1705
" />
</g></g>
<g style="fill:none; 
stroke:#A90000; stroke-width:0.1524; stroke-opacity:1; 
stroke-linecap:round; stroke-linejoin:round;">
<text x="53.7972" y="29.3370"
textLength="1.4127" font-size="1.6933" lengthAdjust="spacingAndGlyphs"
text-anchor="middle" opacity="0" stroke-opacity="0">6</text>
<g class="stroked-text"><desc>6</desc>
<path d="M54.0391 27.9035
L53.7972 27.9035
" />
<path d="M53.7972 27.9035
L53.6763 27.9640
" />
<path d="M53.6763 27.9640
L53.6158 28.0245
" />
<path d="M53.6158 28.0245
L53.4948 28.2059
" />
<path d="M53.4948 28.2059
L53.4344 28.4478
" />
<path d="M53.4344 28.4478
L53.4344 28.9316
" />
<path d="M53.4344 28.9316
L53.4948 29.0526
" />
<path d="M53.4948 29.0526
L53.5553 29.1131
" />
<path d="M53.5553 29.1131
L53.6763 29.1735
" />
<path d="M53.6763 29.1735
L53.9182 29.1735
" />
<path d="M53.9182 29.1735
L54.0391 29.1131
" />
<path d="M54.0391 29.1131
L54.0996 29.0526
" />
<path d="M54.0996 29.0526
L54.1601 28.9316
" />
<path d="M54.1601 28.9316
L54.1601 28.6292
" />
<path d="M54.1601 28.6292
L54.0996 28.5083
" />
<path d="M54.0996 28.5083
L54.0391 28.4478
" />
<path d="M54.0391 28.4478
L53.9182 28.3873
" />
<path d="M53.9182 28.3873
L53.6763 28.3873
" />
<path d="M53.6763 28.3873
L53.5553 28.4478
" />
<path d="M53.5553 28.4478
L53.4948 28.5083
" />
<path d="M53.4948 28.5083
L53.4344 28.6292
" />
</g></g>
<g style="fill:none; 
stroke:#840000; stroke-width:0.1524; stroke-opacity:1; 
stroke-linecap:round; stroke-linejoin:round;">
<path d="M51.2572 32.1310
L56.3372 32.1310
" />
</g>
<g style="fill:none; 
stroke:#006464; stroke-width:0.1524; stroke-opacity:1; 
stroke-linecap:round; stroke-linejoin:round;">
<text x="51.0032" y="32.7660"
textLength="4.0737" font-size="1.6933" lengthAdjust="spacingAndGlyphs"
text-anchor="end" opacity="0" stroke-opacity="0">GND</text>
<g class="stroked-text"><desc>GND</desc>
<path d="M48.0001 31.5010
L47.8791 31.4405
" />
<path d="M47.8791 31.4405
L47.6977 31.4405
" />
<path d="M47.6977 31.4405
L47.5163 31.5010
" />
<path d="M47.5163 31.5010
L47.3953 31.6220
" />
<path d="M47.3953 31.6220
L47.3348 31.7429
" />
<path d="M47.3348 31.7429
L47.2744 31.9848
" />
<path d="M47.2744 31.9848
L47.2744 32.1662
" />
<path d="M47.2744 32.1662
L47.3348 32.4081
" />
<path d="M47.3348 32.4081
L47.3953 32.5291
" />
<path d="M47.3953 32.5291
L47.5163 32.6501
" />
<path d="M47.5163 32.6501
L47.6977 32.7105
" />
<path d="M47.6977 32.7105
L47.8186 32.7105
" />
<path d="M47.8186 32.7105
L48.0001 32.6501
" />
<path d="M48.0001 32.6501
L48.0605 32.5896
" />
<path d="M48.0605 32.5896
L48.0605 32.1662
" />
<path d="M48.0605 32.1662
L47.8186 32.1662
" />
<path d="M48.6048 32.7105
L48.6048 31.4405
" />
<path d="M48.6048 31.4405
L49.3305 32.7105
" />
<path d="M49.3305 32.7105
L49.3305 31.4405
" />
<path d="M49.9353 32.7105
L49.9353 31.4405
" />
<path d="M49.9353 31.4405
L50.2377 31.4405
" />
<path d="M50.2377 31.4405
L50.4191 31.5010
" />
<path d="M50.4191 31.5010
L50.5401 31.6220
" />
<path d="M50.5401 31.6220
L50.6006 31.7429
" />
<path d="M50.6006 31.7429
L50.6610 31.9848
" />
<path d="M50.6610 31.9848
L50.6610 32.1662
" />
<path d="M50.6610 32.1662
L50.6006 32.4081
" />
<path d="M50.6006 32.4081
L50.5401 32.5291
" />
<path d="M50.5401 32.5291
L50.4191 32.6501
" />
<path d="M50.4191 32.6501
L50.2377 32.7105
" />
<path d="M50.2377 32.7105
L49.9353 32.7105
" />
</g></g>
<g style="fill:none; 
stroke:#A90000; stroke-width:0.1524; stroke-opacity:1; 
stroke-linecap:round; stroke-linejoin:round;">
<text x="53.7972" y="31.8770"
textLength="1.4127" font-size="1.6933" lengthAdjust="spacingAndGlyphs"
text-anchor="middle" opacity="0" stroke-opacity="0">7</text>
<g class="stroked-text"><desc>7</desc>
<path d="M53.3739 30.4435
L54.2205 30.4435
" />
<path d="M54.2205 30.4435
L53.6763 31.7135
" />
</g></g>
<g style="fill:none; 
stroke:#840000; stroke-width:0.1524; stroke-opacity:1; 
stroke-linecap:round; stroke-linejoin:round;">
<path d="M51.2572 34.6710
L56.3372 34.6710
" />
</g>
<g style="fill:none; 
stroke:#006464; stroke-width:0.1524; stroke-opacity:1; 
stroke-linecap:round; stroke-linejoin:round;">
<text x="51.0032" y="35.3060"
textLength="4.0737" font-size="1.6933" lengthAdjust="spacingAndGlyphs"
text-anchor="end" opacity="0" stroke-opacity="0">GND</text>
<g class="stroked-text"><desc>GND</desc>
<path d="M48.0001 34.0410
L47.8791 33.9805
" />
<path d="M47.8791 33.9805
L47.6977 33.9805
" />
<path d="M47.6977 33.9805
L47.5163 34.0410
" />
<path d="M47.5163 34.0410
L47.3953 34.1620
" />
<path d="M47.3953 34.1620
L47.3348 34.2829
" />
<path d="M47.3348 34.2829
L47.2744 34.5248
" />
<path d="M47.2744 34.5248
L47.2744 34.7062
" />
<path d="M47.2744 34.7062
L47.3348 34.9481
" />
<path d="M47.3348 34.9481
L47.3953 35.0691
" />
<path d="M47.3953 35.0691
L47.5163 35.1901
" />
<path d="M47.5163 35.1901
L47.6977 35.2505
" />
<path d="M47.6977 35.2505
L47.8186 35.2505
" />
<path d="M47.8186 35.2505
L48.0001 35.1901
" />
<path d="M48.0001 35.1901
L48.0605 35.1296
" />
<path d="M48.0605 35.1296
L48.0605 34.7062
" />
<path d="M48.0605 34.7062
L47.8186 34.7062
" />
<path d="M48.6048 35.2505
L48.6048 33.9805
" />
<path d="M48.6048 33.9805
L49.3305 35.2505
" />
<path d="M49.3305 35.2505
L49.3305 33.9805
" />
<path d="M49.9353 35.2505
L49.9353 33.9805
" />
<path d="M49.9353 33.9805
L50.2377 33.9805
" />
<path d="M50.2377 33.9805
L50.4191 34.0410
" />
<path d="M50.4191 34.0410
L50.5401 34.1620
" />
<path d="M50.5401 34.1620
L50.6006 34.2829
" />
<path d="M50.6006 34.2829
L50.6610 34.5248
" />
<path d="M50.6610 34.5248
L50.6610 34.7062
" />
<path d="M50.6610 34.7062
L50.6006 34.9481
" />
<path d="M50.6006 34.9481
L50.5401 35.0691
" />
<path d="M50.5401 35.0691
L50.4191 35.1901
" />
<path d="M50.4191 35.1901
L50.2377 35.2505
" />
<path d="M50.2377 35.2505
L49.9353 35.2505
" />
</g></g>
<g style="fill:none; 
stroke:#A90000; stroke-width:0.1524; stroke-opacity:1; 
stroke-linecap:round; stroke-linejoin:round;">
<text x="53.7972" y="34.4170"
textLength="2.6222" font-size="1.6933" lengthAdjust="spacingAndGlyphs"
text-anchor="middle" opacity="0" stroke-opacity="0">12</text>
<g class="stroked-text"><desc>12</desc>
<path d="M53.5553 34.2535
L52.8296 34.2535
" />
<path d="M53.1924 34.2535
L53.1924 32.9835
" />
<path d="M53.1924 32.9835
L53.0715 33.1650
" />
<path d="M53.0715 33.1650
L52.9505 33.2859
" />
<path d="M52.9505 33.2859
L52.8296 33.3464
" />
<path d="M54.0391 33.1045
L54.0995 33.0440
" />
<path d="M54.0995 33.0440
L54.2205 32.9835
" />
<path d="M54.2205 32.9835
L54.5229 32.9835
" />
<path d="M54.5229 32.9835
L54.6438 33.0440
" />
<path d="M54.6438 33.0440
L54.7043 33.1045
" />
<path d="M54.7043 33.1045
L54.7648 33.2254
" />
<path d="M54.7648 33.2254
L54.7648 33.3464
" />
<path d="M54.7648 33.3464
L54.7043 33.5278
" />
<path d="M54.7043 33.5278
L53.9786 34.2535
" />
<path d="M53.9786 34.2535
L54.7648 34.2535
" />
</g></g>
<g style="fill:none; 
stroke:#840000; stroke-width:0.1524; stroke-opacity:1; 
stroke-linecap:round; stroke-linejoin:round;">
<path d="M51.2572 39.7510
L56.3372 39.7510
" />
</g>
<g style="fill:none; 
stroke:#006464; stroke-width:0.1524; stroke-opacity:1; 
stroke-linecap:round; stroke-linejoin:round;">
<text x="51.0032" y="40.3860"
textLength="3.8318" font-size="1.6933" lengthAdjust="spacingAndGlyphs"
text-anchor="end" opacity="0" stroke-opacity="0">PAD</text>
<g class="stroked-text"><desc>PAD</desc>
<path d="M47.5767 40.3305
L47.5767 39.0605
" />
<path d="M47.5767 39.0605
L48.0605 39.0605
" />
<path d="M48.0605 39.0605
L48.1815 39.1210
" />
<path d="M48.1815 39.1210
L48.2420 39.1815
" />
<path d="M48.2420 39.1815
L48.3024 39.3024
" />
<path d="M48.3024 39.3024
L48.3024 39.4839
" />
<path d="M48.3024 39.4839
L48.2420 39.6048
" />
<path d="M48.2420 39.6048
L48.1815 39.6653
" />
<path d="M48.1815 39.6653
L48.0605 39.7258
" />
<path d="M48.0605 39.7258
L47.5767 39.7258
" />
<path d="M48.7863 39.9677
L49.3910 39.9677
" />
<path d="M48.6653 40.3305
L49.0886 39.0605
" />
<path d="M49.0886 39.0605
L49.5120 40.3305
" />
<path d="M49.9353 40.3305
L49.9353 39.0605
" />
<path d="M49.9353 39.0605
L50.2377 39.0605
" />
<path d="M50.2377 39.0605
L50.4191 39.1210
" />
<path d="M50.4191 39.1210
L50.5401 39.2420
" />
<path d="M50.5401 39.2420
L50.6006 39.3629
" />
<path d="M50.6006 39.3629
L50.6610 39.6048
" />
<path d="M50.6610 39.6048
L50.6610 39.7862
" />
<path d="M50.6610 39.7862
L50.6006 40.0281
" />
<path d="M50.6006 40.0281
L50.5401 40.1491
" />
<path d="M50.5401 40.1491
L50.4191 40.2701
" />
<path d="M50.4191 40.2701
L50.2377 40.3305
" />
<path d="M50.2377 40.3305
L49.9353 40.3305
" />
</g></g>
<g style="fill:none; 
stroke:#A90000; stroke-width:0.1524; stroke-opacity:1; 
stroke-linecap:round; stroke-linejoin:round;">
<text x="53.7972" y="39.4970"
textLength="2.6222" font-size="1.6933" lengthAdjust="spacingAndGlyphs"
text-anchor="middle" opacity="0" stroke-opacity="0">17</text>
<g class="stroked-text"><desc>17</desc>
<path d="M53.5553 39.3335
L52.8296 39.3335
" />
<path d="M53.1924 39.3335
L53.1924 38.0635
" />
<path d="M53.1924 38.0635
L53.0715 38.2450
" />
<path d="M53.0715 38.2450
L52.9505 38.3659
" />
<path d="M52.9505 38.3659
L52.8296 38.4264
" />
<path d="M53.9786 38.0635
L54.8252 38.0635
" />
<path d="M54.8252 38.0635
L54.2810 39.3335
" />
</g></g>
<g style="fill:none; 
stroke:#006464; stroke-width:0.1524; stroke-opacity:1; 
stroke-linecap:round; stroke-linejoin:round;">
<text x="0.0000" y="-1.7780"
textLength="3.0553" font-size="2.0320" lengthAdjust="spacingAndGlyphs"
text-anchor="middle" opacity="0" stroke-opacity="0">U?</text>
<g class="stroked-text"><desc>U?</desc>
<path d="M-1.0885 -3.3669
L-1.0885 -2.1332
" />
<path d="M-1.0885 -2.1332
L-1.0159 -1.9880
" />
<path d="M-1.0159 -1.9880
L-0.9434 -1.9155
" />
<path d="M-0.9434 -1.9155
L-0.7982 -1.8429
" />
<path d="M-0.7982 -1.8429
L-0.5079 -1.8429
" />
<path d="M-0.5079 -1.8429
L-0.3628 -1.9155
" />
<path d="M-0.3628 -1.9155
L-0.2902 -1.9880
" />
<path d="M-0.2902 -1.9880
L-0.2176 -2.1332
" />
<path d="M-0.2176 -2.1332
L-0.2176 -3.3669
" />
<path d="M0.7257 -1.9880
L0.7983 -1.9155
" />
<path d="M0.7983 -1.9155
L0.7257 -1.8429
" />
<path d="M0.7257 -1.8429
L0.6532 -1.9155
" />
<path d="M0.6532 -1.9155
L0.7257 -1.9880
" />
<path d="M0.7257 -1.9880
L0.7257 -1.8429
" />
<path d="M0.4354 -3.2943
L0.5806 -3.3669
" />
<path d="M0.5806 -3.3669
L0.9434 -3.3669
" />
<path d="M0.9434 -3.3669
L1.0886 -3.2943
" />
<path d="M1.0886 -3.2943
L1.1612 -3.1492
" />
<path d="M1.1612 -3.1492
L1.1612 -3.0040
" />
<path d="M1.1612 -3.0040
L1.0886 -2.8589
" />
<path d="M1.0886 -2.8589
L1.0160 -2.7863
" />
<path d="M1.0160 -2.7863
L0.8709 -2.7137
" />
<path d="M0.8709 -2.7137
L0.7983 -2.6412
" />
<path d="M0.7983 -2.6412
L0.7257 -2.4960
" />
<path d="M0.7257 -2.4960
L0.7257 -2.4235
" />
</g><text x="0.0000" y="0.7620"
textLength="8.9335" font-size="2.0320" lengthAdjust="spacingAndGlyphs"
text-anchor="middle" opacity="0" stroke-opacity="0">OPA857</text>
<g class="stroked-text"><desc>OPA857</desc>
<path d="M-3.7373 -0.8269
L-3.4470 -0.8269
" />
<path d="M-3.4470 -0.8269
L-3.3019 -0.7543
" />
<path d="M-3.3019 -0.7543
L-3.1567 -0.6092
" />
<path d="M-3.1567 -0.6092
L-3.0842 -0.3189
" />
<path d="M-3.0842 -0.3189
L-3.0842 0.1890
" />
<path d="M-3.0842 0.1890
L-3.1567 0.4793
" />
<path d="M-3.1567 0.4793
L-3.3019 0.6245
" />
<path d="M-3.3019 0.6245
L-3.4470 0.6970
" />
<path d="M-3.4470 0.6970
L-3.7373 0.6970
" />
<path d="M-3.7373 0.6970
L-3.8825 0.6245
" />
<path d="M-3.8825 0.6245
L-4.0276 0.4793
" />
<path d="M-4.0276 0.4793
L-4.1002 0.1890
" />
<path d="M-4.1002 0.1890
L-4.1002 -0.3189
" />
<path d="M-4.1002 -0.3189
L-4.0276 -0.6092
" />
<path d="M-4.0276 -0.6092
L-3.8825 -0.7543
" />
<path d="M-3.8825 -0.7543
L-3.7373 -0.8269
" />
<path d="M-2.4310 0.6970
L-2.4310 -0.8269
" />
<path d="M-2.4310 -0.8269
L-1.8504 -0.8269
" />
<path d="M-1.8504 -0.8269
L-1.7053 -0.7543
" />
<path d="M-1.7053 -0.7543
L-1.6327 -0.6817
" />
<path d="M-1.6327 -0.6817
L-1.5601 -0.5366
" />
<path d="M-1.5601 -0.5366
L-1.5601 -0.3189
" />
<path d="M-1.5601 -0.3189
L-1.6327 -0.1737
" />
<path d="M-1.6327 -0.1737
L-1.7053 -0.1012
" />
<path d="M-1.7053 -0.1012
L-1.8504 -0.0286
" />
<path d="M-1.8504 -0.0286
L-2.4310 -0.0286
" />
<path d="M-0.9796 0.2616
L-0.2539 0.2616
" />
<path d="M-1.1247 0.6970
L-0.6167 -0.8269
" />
<path d="M-0.6167 -0.8269
L-0.1087 0.6970
" />
<path d="M0.6169 -0.1737
L0.4718 -0.2463
" />
<path d="M0.4718 -0.2463
L0.3992 -0.3189
" />
<path d="M0.3992 -0.3189
L0.3266 -0.4640
" />
<path d="M0.3266 -0.4640
L0.3266 -0.5366
" />
<path d="M0.3266 -0.5366
L0.3992 -0.6817
" />
<path d="M0.3992 -0.6817
L0.4718 -0.7543
" />
<path d="M0.4718 -0.7543
L0.6169 -0.8269
" />
<path d="M0.6169 -0.8269
L0.9072 -0.8269
" />
<path d="M0.9072 -0.8269
L1.0524 -0.7543
" />
<path d="M1.0524 -0.7543
L1.1249 -0.6817
" />
<path d="M1.1249 -0.6817
L1.1975 -0.5366
" />
<path d="M1.1975 -0.5366
L1.1975 -0.4640
" />
<path d="M1.1975 -0.4640
L1.1249 -0.3189
" />
<path d="M1.1249 -0.3189
L1.0524 -0.2463
" />
<path d="M1.0524 -0.2463
L0.9072 -0.1737
" />
<path d="M0.9072 -0.1737
L0.6169 -0.1737
" />
<path d="M0.6169 -0.1737
L0.4718 -0.1012
" />
<path d="M0.4718 -0.1012
L0.3992 -0.0286
" />
<path d="M0.3992 -0.0286
L0.3266 0.1165
" />
<path d="M0.3266 0.1165
L0.3266 0.4067
" />
<path d="M0.3266 0.4067
L0.3992 0.5519
" />
<path d="M0.3992 0.5519
L0.4718 0.6245
" />
<path d="M0.4718 0.6245
L0.6169 0.6970
" />
<path d="M0.6169 0.6970
L0.9072 0.6970
" />
<path d="M0.9072 0.6970
L1.0524 0.6245
" />
<path d="M1.0524 0.6245
L1.1249 0.5519
" />
<path d="M1.1249 0.5519
L1.1975 0.4067
" />
<path d="M1.1975 0.4067
L1.1975 0.1165
" />
<path d="M1.1975 0.1165
L1.1249 -0.0286
" />
<path d="M1.1249 -0.0286
L1.0524 -0.1012
" />
<path d="M1.0524 -0.1012
L0.9072 -0.1737
" />
<path d="M2.5763 -0.8269
L1.8506 -0.8269
" />
<path d="M1.8506 -0.8269
L1.7780 -0.1012
" />
<path d="M1.7780 -0.1012
L1.8506 -0.1737
" />
<path d="M1.8506 -0.1737
L1.9958 -0.2463
" />
<path d="M1.9958 -0.2463
L2.3586 -0.2463
" />
<path d="M2.3586 -0.2463
L2.5038 -0.1737
" />
<path d="M2.5038 -0.1737
L2.5763 -0.1012
" />
<path d="M2.5763 -0.1012
L2.6489 0.0439
" />
<path d="M2.6489 0.0439
L2.6489 0.4067
" />
<path d="M2.6489 0.4067
L2.5763 0.5519
" />
<path d="M2.5763 0.5519
L2.5038 0.6245
" />
<path d="M2.5038 0.6245
L2.3586 0.6970
" />
<path d="M2.3586 0.6970
L1.9958 0.6970
" />
<path d="M1.9958 0.6970
L1.8506 0.6245
" />
<path d="M1.8506 0.6245
L1.7780 0.5519
" />
<path d="M3.1569 -0.8269
L4.1729 -0.8269
" />
<path d="M4.1729 -0.8269
L3.5197 0.6970
" />
</g></g> 
</svg>
