<?xml version="1.0" standalone="no"?>
 <!DOCTYPE svg PUBLIC "-//W3C//DTD SVG 1.1//EN" 
 "http://www.w3.org/Graphics/SVG/1.1/DTD/svg11.dtd"> 
<svg
  xmlns:svg="http://www.w3.org/2000/svg"
  xmlns="http://www.w3.org/2000/svg"
  xmlns:xlink="http://www.w3.org/1999/xlink"
  version="1.1"
  width="100%" height="100%" viewBox="0.0000 0.0000 4.8768 5.0800">
<title>SVG Image created as 21-0137I_T833-2_MXM-L.svg date 2026/04/15 15:34:59 </title>
  <desc>Image generated by PCBNEW </desc>
<g style="fill:#000000; fill-opacity:1.0000;stroke:#000000; stroke-opacity:1.0000;
stroke-linecap:round; stroke-linejoin:round;"
 transform="translate(0 0) scale(1 1)">
<path style="fill:#C83434; fill-opacity:1.0000; stroke:none;fill-rule:evenodd;"
d="M 0.8786,0.9300
0.8786,0.6252
1.4882,0.6252
1.4882,0.9300
Z" /> 
<path style="fill:#C83434; fill-opacity:1.0000; stroke:none;fill-rule:evenodd;"
d="M 0.8786,1.5800
0.8786,1.2752
1.4882,1.2752
1.4882,1.5800
Z" /> 
<path style="fill:#C83434; fill-opacity:1.0000; stroke:none;fill-rule:evenodd;"
d="M 0.8786,2.2300
0.8786,1.9252
1.4882,1.9252
1.4882,2.2300
Z" /> 
<path style="fill:#C83434; fill-opacity:1.0000; stroke:none;fill-rule:evenodd;"
d="M 0.8786,2.8800
0.8786,2.5752
1.4882,2.5752
1.4882,2.8800
Z" /> 
<path style="fill:#C83434; fill-opacity:1.0000; stroke:none;fill-rule:evenodd;"
d="M 3.7742,2.8800
3.7742,2.5752
4.3838,2.5752
4.3838,2.8800
Z" /> 
<path style="fill:#C83434; fill-opacity:1.0000; stroke:none;fill-rule:evenodd;"
d="M 3.7742,2.2300
3.7742,1.9252
4.3838,1.9252
4.3838,2.2300
Z" /> 
<path style="fill:#C83434; fill-opacity:1.0000; stroke:none;fill-rule:evenodd;"
d="M 3.7742,1.5800
3.7742,1.2752
4.3838,1.2752
4.3838,1.5800
Z" /> 
<path style="fill:#C83434; fill-opacity:1.0000; stroke:none;fill-rule:evenodd;"
d="M 3.7742,0.9300
3.7742,0.6252
4.3838,0.6252
4.3838,0.9300
Z" /> 
<path style="fill:#C83434; fill-opacity:1.0000; stroke:none;fill-rule:evenodd;"
d="M 1.8311,2.9464
1.8311,0.5588
3.4313,0.5588
3.4313,2.9464
Z" /> 
<path style="fill:#D864FF; fill-opacity:0.4000; stroke:none;fill-rule:evenodd;"
d="M 0.8786,0.9300
0.8786,0.6252
1.4882,0.6252
1.4882,0.9300
Z" /> 
<path style="fill:#D864FF; fill-opacity:0.4000; stroke:none;fill-rule:evenodd;"
d="M 0.8786,1.5800
0.8786,1.2752
1.4882,1.2752
1.4882,1.5800
Z" /> 
<path style="fill:#D864FF; fill-opacity:0.4000; stroke:none;fill-rule:evenodd;"
d="M 0.8786,2.2300
0.8786,1.9252
1.4882,1.9252
1.4882,2.2300
Z" /> 
<path style="fill:#D864FF; fill-opacity:0.4000; stroke:none;fill-rule:evenodd;"
d="M 0.8786,2.8800
0.8786,2.5752
1.4882,2.5752
1.4882,2.8800
Z" /> 
<path style="fill:#D864FF; fill-opacity:0.4000; stroke:none;fill-rule:evenodd;"
d="M 3.7742,2.8800
3.7742,2.5752
4.3838,2.5752
4.3838,2.8800
Z" /> 
<path style="fill:#D864FF; fill-opacity:0.4000; stroke:none;fill-rule:evenodd;"
d="M 3.7742,2.2300
3.7742,1.9252
4.3838,1.9252
4.3838,2.2300
Z" /> 
<path style="fill:#D864FF; fill-opacity:0.4000; stroke:none;fill-rule:evenodd;"
d="M 3.7742,1.5800
3.7742,1.2752
4.3838,1.2752
4.3838,1.5800
Z" /> 
<path style="fill:#D864FF; fill-opacity:0.4000; stroke:none;fill-rule:evenodd;"
d="M 3.7742,0.9300
3.7742,0.6252
4.3838,0.6252
4.3838,0.9300
Z" /> 
<path style="fill:#D864FF; fill-opacity:0.4000; stroke:none;fill-rule:evenodd;"
d="M 1.8311,2.9464
1.8311,0.5588
3.4313,0.5588
3.4313,2.9464
Z" /> 
<path style="fill:#B4A09A; fill-opacity:0.9000; stroke:none;fill-rule:evenodd;"
d="M 0.8786,0.9300
0.8786,0.6252
1.4882,0.6252
1.4882,0.9300
Z" /> 
<path style="fill:#B4A09A; fill-opacity:0.9000; stroke:none;fill-rule:evenodd;"
d="M 0.8786,1.5800
0.8786,1.2752
1.4882,1.2752
1.4882,1.5800
Z" /> 
<path style="fill:#B4A09A; fill-opacity:0.9000; stroke:none;fill-rule:evenodd;"
d="M 0.8786,2.2300
0.8786,1.9252
1.4882,1.9252
1.4882,2.2300
Z" /> 
<path style="fill:#B4A09A; fill-opacity:0.9000; stroke:none;fill-rule:evenodd;"
d="M 0.8786,2.8800
0.8786,2.5752
1.4882,2.5752
1.4882,2.8800
Z" /> 
<path style="fill:#B4A09A; fill-opacity:0.9000; stroke:none;fill-rule:evenodd;"
d="M 3.7742,2.8800
3.7742,2.5752
4.3838,2.5752
4.3838,2.8800
Z" /> 
<path style="fill:#B4A09A; fill-opacity:0.9000; stroke:none;fill-rule:evenodd;"
d="M 3.7742,2.2300
3.7742,1.9252
4.3838,1.9252
4.3838,2.2300
Z" /> 
<path style="fill:#B4A09A; fill-opacity:0.9000; stroke:none;fill-rule:evenodd;"
d="M 3.7742,1.5800
3.7742,1.2752
4.3838,1.2752
4.3838,1.5800
Z" /> 
<path style="fill:#B4A09A; fill-opacity:0.9000; stroke:none;fill-rule:evenodd;"
d="M 3.7742,0.9300
3.7742,0.6252
4.3838,0.6252
4.3838,0.9300
Z" /> 
<path style="fill:#B4A09A; fill-opacity:0.9000; stroke:none;fill-rule:evenodd;"
d="M 1.8311,2.9464
1.8311,0.5588
3.4313,0.5588
3.4313,2.9464
Z" /> 
</g>
<g style="fill:none; 
stroke:#F2EDA1; stroke-width:0.1500; stroke-opacity:1; 
stroke-linecap:round; stroke-linejoin:round;">
<text x="2.6312" y="4.7526"
textLength="4.5357" font-size="1.3333" lengthAdjust="spacingAndGlyphs"
text-anchor="middle" opacity="0" stroke-opacity="0">REF**</text>
<g class="stroked-text"><desc>REF**</desc>
<path d="M1.2979 4.7074
L0.9645 4.2312
" />
<path d="M0.7264 4.7074
L0.7264 3.7074
" />
<path d="M0.7264 3.7074
L1.1074 3.7074
" />
<path d="M1.1074 3.7074
L1.2026 3.7550
" />
<path d="M1.2026 3.7550
L1.2502 3.8027
" />
<path d="M1.2502 3.8027
L1.2979 3.8979
" />
<path d="M1.2979 3.8979
L1.2979 4.0408
" />
<path d="M1.2979 4.0408
L1.2502 4.1360
" />
<path d="M1.2502 4.1360
L1.2026 4.1836
" />
<path d="M1.2026 4.1836
L1.1074 4.2312
" />
<path d="M1.1074 4.2312
L0.7264 4.2312
" />
<path d="M1.7264 4.1836
L2.0598 4.1836
" />
<path d="M2.2026 4.7074
L1.7264 4.7074
" />
<path d="M1.7264 4.7074
L1.7264 3.7074
" />
<path d="M1.7264 3.7074
L2.2026 3.7074
" />
<path d="M2.9645 4.1836
L2.6312 4.1836
" />
<path d="M2.6312 4.7074
L2.6312 3.7074
" />
<path d="M2.6312 3.7074
L3.1074 3.7074
" />
<path d="M3.6312 3.7074
L3.6312 3.9455
" />
<path d="M3.3931 3.8503
L3.6312 3.9455
" />
<path d="M3.6312 3.9455
L3.8693 3.8503
" />
<path d="M3.4883 4.1360
L3.6312 3.9455
" />
<path d="M3.6312 3.9455
L3.7741 4.1360
" />
<path d="M4.3931 3.7074
L4.3931 3.9455
" />
<path d="M4.1550 3.8503
L4.3931 3.9455
" />
<path d="M4.3931 3.9455
L4.6312 3.8503
" />
<path d="M4.2502 4.1360
L4.3931 3.9455
" />
<path d="M4.3931 3.9455
L4.5360 4.1360
" />
</g></g>
<g style="fill:none; 
stroke:#F2EDA1; stroke-width:0.1524; stroke-opacity:1; 
stroke-linecap:round; stroke-linejoin:round;">
<path d="M0.9548 3.4290
L4.3076 3.4290
" />
<path d="M4.3076 0.0762
L0.9548 0.0762
" />
<circle cx="0.1778" cy="0.7776" r="0.1016" /> 
</g>
<g style="fill:none; 
stroke:#FF26E2; stroke-width:0.1524; stroke-opacity:1; 
stroke-linecap:round; stroke-linejoin:round;">
<path d="M0.7770 0.5236
L0.9802 0.5236
" />
<path d="M0.7770 2.9816
L0.7770 0.5236
" />
<path d="M0.7770 2.9816
L0.9802 2.9816
" />
<path d="M0.9802 0.1016
L4.2822 0.1016
" />
<path d="M0.9802 0.5236
L0.9802 0.1016
" />
<path d="M0.9802 3.4036
L0.9802 2.9816
" />
<path d="M4.2822 0.1016
L4.2822 0.5236
" />
<path d="M4.2822 2.9816
L4.2822 3.4036
" />
<path d="M4.2822 3.4036
L0.9802 3.4036
" />
<path d="M4.4854 0.5236
L4.2822 0.5236
" />
<path d="M4.4854 0.5236
L4.4854 2.9816
" />
<path d="M4.4854 2.9816
L4.2822 2.9816
" />
</g>
<g style="fill:none; 
stroke:#AFAFAF; stroke-width:0.1500; stroke-opacity:1; 
stroke-linecap:round; stroke-linejoin:round;">
<text x="2.6312" y="2.2526"
textLength="4.5357" font-size="1.3333" lengthAdjust="spacingAndGlyphs"
text-anchor="middle" opacity="0" stroke-opacity="0">REF**</text>
<g class="stroked-text"><desc>REF**</desc>
<path d="M1.2979 2.2074
L0.9645 1.7312
" />
<path d="M0.7264 2.2074
L0.7264 1.2074
" />
<path d="M0.7264 1.2074
L1.1074 1.2074
" />
<path d="M1.1074 1.2074
L1.2026 1.2550
" />
<path d="M1.2026 1.2550
L1.2502 1.3027
" />
<path d="M1.2502 1.3027
L1.2979 1.3979
" />
<path d="M1.2979 1.3979
L1.2979 1.5408
" />
<path d="M1.2979 1.5408
L1.2502 1.6360
" />
<path d="M1.2502 1.6360
L1.2026 1.6836
" />
<path d="M1.2026 1.6836
L1.1074 1.7312
" />
<path d="M1.1074 1.7312
L0.7264 1.7312
" />
<path d="M1.7264 1.6836
L2.0598 1.6836
" />
<path d="M2.2026 2.2074
L1.7264 2.2074
" />
<path d="M1.7264 2.2074
L1.7264 1.2074
" />
<path d="M1.7264 1.2074
L2.2026 1.2074
" />
<path d="M2.9645 1.6836
L2.6312 1.6836
" />
<path d="M2.6312 2.2074
L2.6312 1.2074
" />
<path d="M2.6312 1.2074
L3.1074 1.2074
" />
<path d="M3.6312 1.2074
L3.6312 1.4455
" />
<path d="M3.3931 1.3503
L3.6312 1.4455
" />
<path d="M3.6312 1.4455
L3.8693 1.3503
" />
<path d="M3.4883 1.6360
L3.6312 1.4455
" />
<path d="M3.6312 1.4455
L3.7741 1.6360
" />
<path d="M4.3931 1.2074
L4.3931 1.4455
" />
<path d="M4.1550 1.3503
L4.3931 1.4455
" />
<path d="M4.3931 1.4455
L4.6312 1.3503
" />
<path d="M4.2502 1.6360
L4.3931 1.4455
" />
<path d="M4.3931 1.4455
L4.5360 1.6360
" />
</g></g>
<g style="fill:none; 
stroke:#AFAFAF; stroke-width:0.0254; stroke-opacity:1; 
stroke-linecap:round; stroke-linejoin:round;">
<path d="M1.0818 0.2032
L1.0818 3.3020
" />
<path d="M1.0818 3.3020
L4.1806 3.3020
" />
<path d="M4.1806 0.2032
L1.0818 0.2032
" />
<path d="M4.1806 3.3020
L4.1806 0.2032
" />
<path d="M2.3264 0.2032 A0.3048 0.3048 0.0 0 0 2.9360 0.2032" />
<circle cx="1.4882" cy="0.7776" r="0.0762" /> 
</g> 
</svg>
