<?xml version="1.0" standalone="no"?>
 <!DOCTYPE svg PUBLIC "-//W3C//DTD SVG 1.1//EN" 
 "http://www.w3.org/Graphics/SVG/1.1/DTD/svg11.dtd"> 
<svg
  xmlns:svg="http://www.w3.org/2000/svg"
  xmlns="http://www.w3.org/2000/svg"
  xmlns:xlink="http://www.w3.org/1999/xlink"
  version="1.1"
  width="100%" height="100%" viewBox="0.0000 0.0000 23.3680 7.1628">
<title>SVG Image created as C_Polarized_Small_unit1.svg date 2026/04/15 15:29:21 </title>
  <desc>Image generated by Eeschema-SVG </desc>
<g style="fill:#000000; fill-opacity:1.0000;stroke:#000000; stroke-opacity:1.0000;
stroke-linecap:round; stroke-linejoin:round;"
 transform="translate(0 0) scale(1 1)">
</g>
<g style="fill:none; 
stroke:#840000; stroke-width:0.1524; stroke-opacity:1; 
stroke-linecap:round; stroke-linejoin:round;">
<rect x="1.945200" y="2.829300" width="3.048000" height="0.381000" rx="0.000000" />
</g>
<g style="fill:#840000; fill-opacity:1.0000; 
stroke:#840000; stroke-width:0.1524; stroke-opacity:1; 
stroke-linecap:round; stroke-linejoin:round;">
<rect x="1.945200" y="3.819900" width="3.048000" height="0.381000" rx="0.000000" />
<path style="fill:none; 
stroke:#840000; stroke-width:0.1524; stroke-opacity:1; 
stroke-linecap:round; stroke-linejoin:round;fill:none"
d="M 2.1992,1.9911
2.7072,1.9911
" /> 
<path style="fill:none; 
stroke:#840000; stroke-width:0.1524; stroke-opacity:1; 
stroke-linecap:round; stroke-linejoin:round;fill:none"
d="M 2.4532,2.2451
2.4532,1.7371
" /> 
</g>
<g style="fill:none; 
stroke:#840000; stroke-width:0.1524; stroke-opacity:1; 
stroke-linecap:round; stroke-linejoin:round;">
<path d="M3.4692 2.8293
L3.4692 0.9751
" />
<path d="M3.4692 4.2009
L3.4692 6.0551
" />
</g>
<g style="fill:none; 
stroke:#006464; stroke-width:0.1524; stroke-opacity:1; 
stroke-linecap:round; stroke-linejoin:round;">
<text x="-7.9608" y="-1.2093"
textLength="2.5618" font-size="1.6933" lengthAdjust="spacingAndGlyphs"
text-anchor="start" opacity="0" stroke-opacity="0">C?</text>
<g class="stroked-text"><desc>C?</desc>
<path d="M-6.8326 -1.3856
L-6.8930 -1.3252
" />
<path d="M-6.8930 -1.3252
L-7.0745 -1.2647
" />
<path d="M-7.0745 -1.2647
L-7.1954 -1.2647
" />
<path d="M-7.1954 -1.2647
L-7.3768 -1.3252
" />
<path d="M-7.3768 -1.3252
L-7.4978 -1.4461
" />
<path d="M-7.4978 -1.4461
L-7.5583 -1.5671
" />
<path d="M-7.5583 -1.5671
L-7.6187 -1.8090
" />
<path d="M-7.6187 -1.8090
L-7.6187 -1.9904
" />
<path d="M-7.6187 -1.9904
L-7.5583 -2.2323
" />
<path d="M-7.5583 -2.2323
L-7.4978 -2.3532
" />
<path d="M-7.4978 -2.3532
L-7.3768 -2.4742
" />
<path d="M-7.3768 -2.4742
L-7.1954 -2.5347
" />
<path d="M-7.1954 -2.5347
L-7.0745 -2.5347
" />
<path d="M-7.0745 -2.5347
L-6.8930 -2.4742
" />
<path d="M-6.8930 -2.4742
L-6.8326 -2.4137
" />
<path d="M-6.1068 -1.3856
L-6.0464 -1.3252
" />
<path d="M-6.0464 -1.3252
L-6.1068 -1.2647
" />
<path d="M-6.1068 -1.2647
L-6.1673 -1.3252
" />
<path d="M-6.1673 -1.3252
L-6.1068 -1.3856
" />
<path d="M-6.1068 -1.3856
L-6.1068 -1.2647
" />
<path d="M-6.3487 -2.4742
L-6.2278 -2.5347
" />
<path d="M-6.2278 -2.5347
L-5.9254 -2.5347
" />
<path d="M-5.9254 -2.5347
L-5.8045 -2.4742
" />
<path d="M-5.8045 -2.4742
L-5.7440 -2.3532
" />
<path d="M-5.7440 -2.3532
L-5.7440 -2.2323
" />
<path d="M-5.7440 -2.2323
L-5.8045 -2.1113
" />
<path d="M-5.8045 -2.1113
L-5.8649 -2.0509
" />
<path d="M-5.8649 -2.0509
L-5.9859 -1.9904
" />
<path d="M-5.9859 -1.9904
L-6.0464 -1.9299
" />
<path d="M-6.0464 -1.9299
L-6.1068 -1.8090
" />
<path d="M-6.1068 -1.8090
L-6.1068 -1.7485
" />
</g><text x="-7.9608" y="2.6007"
textLength="17.6805" font-size="1.6933" lengthAdjust="spacingAndGlyphs"
text-anchor="start" opacity="0" stroke-opacity="0">C_Polarized_Small</text>
<g class="stroked-text"><desc>C_Polarized_Small</desc>
<path d="M-6.8326 2.4243
L-6.8930 2.4848
" />
<path d="M-6.8930 2.4848
L-7.0745 2.5452
" />
<path d="M-7.0745 2.5452
L-7.1954 2.5452
" />
<path d="M-7.1954 2.5452
L-7.3768 2.4848
" />
<path d="M-7.3768 2.4848
L-7.4978 2.3638
" />
<path d="M-7.4978 2.3638
L-7.5583 2.2428
" />
<path d="M-7.5583 2.2428
L-7.6187 2.0009
" />
<path d="M-7.6187 2.0009
L-7.6187 1.8195
" />
<path d="M-7.6187 1.8195
L-7.5583 1.5776
" />
<path d="M-7.5583 1.5776
L-7.4978 1.4567
" />
<path d="M-7.4978 1.4567
L-7.3768 1.3357
" />
<path d="M-7.3768 1.3357
L-7.1954 1.2752
" />
<path d="M-7.1954 1.2752
L-7.0745 1.2752
" />
<path d="M-7.0745 1.2752
L-6.8930 1.3357
" />
<path d="M-6.8930 1.3357
L-6.8326 1.3962
" />
<path d="M-6.5906 2.6662
L-5.6230 2.6662
" />
<path d="M-5.3207 2.5452
L-5.3207 1.2752
" />
<path d="M-5.3207 1.2752
L-4.8369 1.2752
" />
<path d="M-4.8369 1.2752
L-4.7159 1.3357
" />
<path d="M-4.7159 1.3357
L-4.6554 1.3962
" />
<path d="M-4.6554 1.3962
L-4.5950 1.5171
" />
<path d="M-4.5950 1.5171
L-4.5950 1.6986
" />
<path d="M-4.5950 1.6986
L-4.6554 1.8195
" />
<path d="M-4.6554 1.8195
L-4.7159 1.8800
" />
<path d="M-4.7159 1.8800
L-4.8369 1.9405
" />
<path d="M-4.8369 1.9405
L-5.3207 1.9405
" />
<path d="M-3.8692 2.5452
L-3.9902 2.4848
" />
<path d="M-3.9902 2.4848
L-4.0507 2.4243
" />
<path d="M-4.0507 2.4243
L-4.1111 2.3033
" />
<path d="M-4.1111 2.3033
L-4.1111 1.9405
" />
<path d="M-4.1111 1.9405
L-4.0507 1.8195
" />
<path d="M-4.0507 1.8195
L-3.9902 1.7590
" />
<path d="M-3.9902 1.7590
L-3.8692 1.6986
" />
<path d="M-3.8692 1.6986
L-3.6878 1.6986
" />
<path d="M-3.6878 1.6986
L-3.5669 1.7590
" />
<path d="M-3.5669 1.7590
L-3.5064 1.8195
" />
<path d="M-3.5064 1.8195
L-3.4459 1.9405
" />
<path d="M-3.4459 1.9405
L-3.4459 2.3033
" />
<path d="M-3.4459 2.3033
L-3.5064 2.4243
" />
<path d="M-3.5064 2.4243
L-3.5669 2.4848
" />
<path d="M-3.5669 2.4848
L-3.6878 2.5452
" />
<path d="M-3.6878 2.5452
L-3.8692 2.5452
" />
<path d="M-2.7202 2.5452
L-2.8412 2.4848
" />
<path d="M-2.8412 2.4848
L-2.9017 2.3638
" />
<path d="M-2.9017 2.3638
L-2.9017 1.2752
" />
<path d="M-1.6922 2.5452
L-1.6922 1.8800
" />
<path d="M-1.6922 1.8800
L-1.7527 1.7590
" />
<path d="M-1.7527 1.7590
L-1.8736 1.6986
" />
<path d="M-1.8736 1.6986
L-2.1155 1.6986
" />
<path d="M-2.1155 1.6986
L-2.2365 1.7590
" />
<path d="M-1.6922 2.4848
L-1.8131 2.5452
" />
<path d="M-1.8131 2.5452
L-2.1155 2.5452
" />
<path d="M-2.1155 2.5452
L-2.2365 2.4848
" />
<path d="M-2.2365 2.4848
L-2.2969 2.3638
" />
<path d="M-2.2969 2.3638
L-2.2969 2.2428
" />
<path d="M-2.2969 2.2428
L-2.2365 2.1219
" />
<path d="M-2.2365 2.1219
L-2.1155 2.0614
" />
<path d="M-2.1155 2.0614
L-1.8131 2.0614
" />
<path d="M-1.8131 2.0614
L-1.6922 2.0009
" />
<path d="M-1.0875 2.5452
L-1.0875 1.6986
" />
<path d="M-1.0875 1.9405
L-1.0270 1.8195
" />
<path d="M-1.0270 1.8195
L-0.9665 1.7590
" />
<path d="M-0.9665 1.7590
L-0.8456 1.6986
" />
<path d="M-0.8456 1.6986
L-0.7246 1.6986
" />
<path d="M-0.3013 2.5452
L-0.3013 1.6986
" />
<path d="M-0.3013 1.2752
L-0.3617 1.3357
" />
<path d="M-0.3617 1.3357
L-0.3013 1.3962
" />
<path d="M-0.3013 1.3962
L-0.2408 1.3357
" />
<path d="M-0.2408 1.3357
L-0.3013 1.2752
" />
<path d="M-0.3013 1.2752
L-0.3013 1.3962
" />
<path d="M0.1826 1.6986
L0.8478 1.6986
" />
<path d="M0.8478 1.6986
L0.1826 2.5452
" />
<path d="M0.1826 2.5452
L0.8478 2.5452
" />
<path d="M1.8154 2.4848
L1.6945 2.5452
" />
<path d="M1.6945 2.5452
L1.4526 2.5452
" />
<path d="M1.4526 2.5452
L1.3316 2.4848
" />
<path d="M1.3316 2.4848
L1.2712 2.3638
" />
<path d="M1.2712 2.3638
L1.2712 1.8800
" />
<path d="M1.2712 1.8800
L1.3316 1.7590
" />
<path d="M1.3316 1.7590
L1.4526 1.6986
" />
<path d="M1.4526 1.6986
L1.6945 1.6986
" />
<path d="M1.6945 1.6986
L1.8154 1.7590
" />
<path d="M1.8154 1.7590
L1.8759 1.8800
" />
<path d="M1.8759 1.8800
L1.8759 2.0009
" />
<path d="M1.8759 2.0009
L1.2712 2.1219
" />
<path d="M2.9645 2.5452
L2.9645 1.2752
" />
<path d="M2.9645 2.4848
L2.8436 2.5452
" />
<path d="M2.8436 2.5452
L2.6017 2.5452
" />
<path d="M2.6017 2.5452
L2.4807 2.4848
" />
<path d="M2.4807 2.4848
L2.4202 2.4243
" />
<path d="M2.4202 2.4243
L2.3598 2.3033
" />
<path d="M2.3598 2.3033
L2.3598 1.9405
" />
<path d="M2.3598 1.9405
L2.4202 1.8195
" />
<path d="M2.4202 1.8195
L2.4807 1.7590
" />
<path d="M2.4807 1.7590
L2.6017 1.6986
" />
<path d="M2.6017 1.6986
L2.8436 1.6986
" />
<path d="M2.8436 1.6986
L2.9645 1.7590
" />
<path d="M3.2669 2.6662
L4.2345 2.6662
" />
<path d="M4.4764 2.4848
L4.6578 2.5452
" />
<path d="M4.6578 2.5452
L4.9602 2.5452
" />
<path d="M4.9602 2.5452
L5.0811 2.4848
" />
<path d="M5.0811 2.4848
L5.1416 2.4243
" />
<path d="M5.1416 2.4243
L5.2021 2.3033
" />
<path d="M5.2021 2.3033
L5.2021 2.1824
" />
<path d="M5.2021 2.1824
L5.1416 2.0614
" />
<path d="M5.1416 2.0614
L5.0811 2.0009
" />
<path d="M5.0811 2.0009
L4.9602 1.9405
" />
<path d="M4.9602 1.9405
L4.7183 1.8800
" />
<path d="M4.7183 1.8800
L4.5973 1.8195
" />
<path d="M4.5973 1.8195
L4.5368 1.7590
" />
<path d="M4.5368 1.7590
L4.4764 1.6381
" />
<path d="M4.4764 1.6381
L4.4764 1.5171
" />
<path d="M4.4764 1.5171
L4.5368 1.3962
" />
<path d="M4.5368 1.3962
L4.5973 1.3357
" />
<path d="M4.5973 1.3357
L4.7183 1.2752
" />
<path d="M4.7183 1.2752
L5.0206 1.2752
" />
<path d="M5.0206 1.2752
L5.2021 1.3357
" />
<path d="M5.7463 2.5452
L5.7463 1.6986
" />
<path d="M5.7463 1.8195
L5.8068 1.7590
" />
<path d="M5.8068 1.7590
L5.9278 1.6986
" />
<path d="M5.9278 1.6986
L6.1092 1.6986
" />
<path d="M6.1092 1.6986
L6.2301 1.7590
" />
<path d="M6.2301 1.7590
L6.2906 1.8800
" />
<path d="M6.2906 1.8800
L6.2906 2.5452
" />
<path d="M6.2906 1.8800
L6.3511 1.7590
" />
<path d="M6.3511 1.7590
L6.4720 1.6986
" />
<path d="M6.4720 1.6986
L6.6535 1.6986
" />
<path d="M6.6535 1.6986
L6.7744 1.7590
" />
<path d="M6.7744 1.7590
L6.8349 1.8800
" />
<path d="M6.8349 1.8800
L6.8349 2.5452
" />
<path d="M7.9839 2.5452
L7.9839 1.8800
" />
<path d="M7.9839 1.8800
L7.9234 1.7590
" />
<path d="M7.9234 1.7590
L7.8025 1.6986
" />
<path d="M7.8025 1.6986
L7.5606 1.6986
" />
<path d="M7.5606 1.6986
L7.4396 1.7590
" />
<path d="M7.9839 2.4848
L7.8630 2.5452
" />
<path d="M7.8630 2.5452
L7.5606 2.5452
" />
<path d="M7.5606 2.5452
L7.4396 2.4848
" />
<path d="M7.4396 2.4848
L7.3792 2.3638
" />
<path d="M7.3792 2.3638
L7.3792 2.2428
" />
<path d="M7.3792 2.2428
L7.4396 2.1219
" />
<path d="M7.4396 2.1219
L7.5606 2.0614
" />
<path d="M7.5606 2.0614
L7.8630 2.0614
" />
<path d="M7.8630 2.0614
L7.9839 2.0009
" />
<path d="M8.7701 2.5452
L8.6491 2.4848
" />
<path d="M8.6491 2.4848
L8.5886 2.3638
" />
<path d="M8.5886 2.3638
L8.5886 1.2752
" />
<path d="M9.4353 2.5452
L9.3143 2.4848
" />
<path d="M9.3143 2.4848
L9.2538 2.3638
" />
<path d="M9.2538 2.3638
L9.2538 1.2752
" />
</g></g> 
</svg>
