<?xml version="1.0" standalone="no"?>
 <!DOCTYPE svg PUBLIC "-//W3C//DTD SVG 1.1//EN" 
 "http://www.w3.org/Graphics/SVG/1.1/DTD/svg11.dtd"> 
<svg
  xmlns:svg="http://www.w3.org/2000/svg"
  xmlns="http://www.w3.org/2000/svg"
  xmlns:xlink="http://www.w3.org/1999/xlink"
  version="1.1"
  width="100%" height="100%" viewBox="0.0000 0.0000 11.7348 7.1628">
<title>SVG Image created as C_Small_unit1.svg date 2026/04/15 15:34:59 </title>
  <desc>Image generated by Eeschema-SVG </desc>
<g style="fill:#000000; fill-opacity:1.0000;stroke:#000000; stroke-opacity:1.0000;
stroke-linecap:round; stroke-linejoin:round;"
 transform="translate(0 0) scale(1 1)">
<path style="fill:none; 
stroke:#840000; stroke-width:0.3048; stroke-opacity:1; 
stroke-linecap:round; stroke-linejoin:round;fill:none"
d="M 1.1399,3.0071
4.1879,3.0071
" /> 
<path style="fill:none; 
stroke:#840000; stroke-width:0.3302; stroke-opacity:1; 
stroke-linecap:round; stroke-linejoin:round;fill:none"
d="M 1.1399,4.0231
4.1879,4.0231
" /> 
</g>
<g style="fill:none; 
stroke:#840000; stroke-width:0.1524; stroke-opacity:1; 
stroke-linecap:round; stroke-linejoin:round;">
<path d="M2.6639 3.0071
L2.6639 0.9751
" />
<path d="M2.6639 4.0231
L2.6639 6.0551
" />
</g>
<g style="fill:none; 
stroke:#006464; stroke-width:0.1524; stroke-opacity:1; 
stroke-linecap:round; stroke-linejoin:round;">
<text x="-2.9495" y="-1.2093"
textLength="2.5618" font-size="1.6933" lengthAdjust="spacingAndGlyphs"
text-anchor="start" opacity="0" stroke-opacity="0">C?</text>
<g class="stroked-text"><desc>C?</desc>
<path d="M-1.8213 -1.3856
L-1.8817 -1.3252
" />
<path d="M-1.8817 -1.3252
L-2.0632 -1.2647
" />
<path d="M-2.0632 -1.2647
L-2.1841 -1.2647
" />
<path d="M-2.1841 -1.2647
L-2.3655 -1.3252
" />
<path d="M-2.3655 -1.3252
L-2.4865 -1.4461
" />
<path d="M-2.4865 -1.4461
L-2.5470 -1.5671
" />
<path d="M-2.5470 -1.5671
L-2.6074 -1.8090
" />
<path d="M-2.6074 -1.8090
L-2.6074 -1.9904
" />
<path d="M-2.6074 -1.9904
L-2.5470 -2.2323
" />
<path d="M-2.5470 -2.2323
L-2.4865 -2.3532
" />
<path d="M-2.4865 -2.3532
L-2.3655 -2.4742
" />
<path d="M-2.3655 -2.4742
L-2.1841 -2.5347
" />
<path d="M-2.1841 -2.5347
L-2.0632 -2.5347
" />
<path d="M-2.0632 -2.5347
L-1.8817 -2.4742
" />
<path d="M-1.8817 -2.4742
L-1.8213 -2.4137
" />
<path d="M-1.0955 -1.3856
L-1.0351 -1.3252
" />
<path d="M-1.0351 -1.3252
L-1.0955 -1.2647
" />
<path d="M-1.0955 -1.2647
L-1.1560 -1.3252
" />
<path d="M-1.1560 -1.3252
L-1.0955 -1.3856
" />
<path d="M-1.0955 -1.3856
L-1.0955 -1.2647
" />
<path d="M-1.3374 -2.4742
L-1.2165 -2.5347
" />
<path d="M-1.2165 -2.5347
L-0.9141 -2.5347
" />
<path d="M-0.9141 -2.5347
L-0.7932 -2.4742
" />
<path d="M-0.7932 -2.4742
L-0.7327 -2.3532
" />
<path d="M-0.7327 -2.3532
L-0.7327 -2.2323
" />
<path d="M-0.7327 -2.2323
L-0.7932 -2.1113
" />
<path d="M-0.7932 -2.1113
L-0.8536 -2.0509
" />
<path d="M-0.8536 -2.0509
L-0.9746 -1.9904
" />
<path d="M-0.9746 -1.9904
L-1.0351 -1.9299
" />
<path d="M-1.0351 -1.9299
L-1.0955 -1.8090
" />
<path d="M-1.0955 -1.8090
L-1.0955 -1.7485
" />
</g><text x="-2.9495" y="2.6007"
textLength="7.8230" font-size="1.6933" lengthAdjust="spacingAndGlyphs"
text-anchor="start" opacity="0" stroke-opacity="0">C_Small</text>
<g class="stroked-text"><desc>C_Small</desc>
<path d="M-1.8213 2.4243
L-1.8817 2.4848
" />
<path d="M-1.8817 2.4848
L-2.0632 2.5452
" />
<path d="M-2.0632 2.5452
L-2.1841 2.5452
" />
<path d="M-2.1841 2.5452
L-2.3655 2.4848
" />
<path d="M-2.3655 2.4848
L-2.4865 2.3638
" />
<path d="M-2.4865 2.3638
L-2.5470 2.2428
" />
<path d="M-2.5470 2.2428
L-2.6074 2.0009
" />
<path d="M-2.6074 2.0009
L-2.6074 1.8195
" />
<path d="M-2.6074 1.8195
L-2.5470 1.5776
" />
<path d="M-2.5470 1.5776
L-2.4865 1.4567
" />
<path d="M-2.4865 1.4567
L-2.3655 1.3357
" />
<path d="M-2.3655 1.3357
L-2.1841 1.2752
" />
<path d="M-2.1841 1.2752
L-2.0632 1.2752
" />
<path d="M-2.0632 1.2752
L-1.8817 1.3357
" />
<path d="M-1.8817 1.3357
L-1.8213 1.3962
" />
<path d="M-1.5793 2.6662
L-0.6117 2.6662
" />
<path d="M-0.3698 2.4848
L-0.1884 2.5452
" />
<path d="M-0.1884 2.5452
L0.1140 2.5452
" />
<path d="M0.1140 2.5452
L0.2349 2.4848
" />
<path d="M0.2349 2.4848
L0.2954 2.4243
" />
<path d="M0.2954 2.4243
L0.3559 2.3033
" />
<path d="M0.3559 2.3033
L0.3559 2.1824
" />
<path d="M0.3559 2.1824
L0.2954 2.0614
" />
<path d="M0.2954 2.0614
L0.2349 2.0009
" />
<path d="M0.2349 2.0009
L0.1140 1.9405
" />
<path d="M0.1140 1.9405
L-0.1279 1.8800
" />
<path d="M-0.1279 1.8800
L-0.2489 1.8195
" />
<path d="M-0.2489 1.8195
L-0.3094 1.7590
" />
<path d="M-0.3094 1.7590
L-0.3698 1.6381
" />
<path d="M-0.3698 1.6381
L-0.3698 1.5171
" />
<path d="M-0.3698 1.5171
L-0.3094 1.3962
" />
<path d="M-0.3094 1.3962
L-0.2489 1.3357
" />
<path d="M-0.2489 1.3357
L-0.1279 1.2752
" />
<path d="M-0.1279 1.2752
L0.1744 1.2752
" />
<path d="M0.1744 1.2752
L0.3559 1.3357
" />
<path d="M0.9001 2.5452
L0.9001 1.6986
" />
<path d="M0.9001 1.8195
L0.9606 1.7590
" />
<path d="M0.9606 1.7590
L1.0816 1.6986
" />
<path d="M1.0816 1.6986
L1.2630 1.6986
" />
<path d="M1.2630 1.6986
L1.3839 1.7590
" />
<path d="M1.3839 1.7590
L1.4444 1.8800
" />
<path d="M1.4444 1.8800
L1.4444 2.5452
" />
<path d="M1.4444 1.8800
L1.5049 1.7590
" />
<path d="M1.5049 1.7590
L1.6258 1.6986
" />
<path d="M1.6258 1.6986
L1.8073 1.6986
" />
<path d="M1.8073 1.6986
L1.9282 1.7590
" />
<path d="M1.9282 1.7590
L1.9887 1.8800
" />
<path d="M1.9887 1.8800
L1.9887 2.5452
" />
<path d="M3.1377 2.5452
L3.1377 1.8800
" />
<path d="M3.1377 1.8800
L3.0772 1.7590
" />
<path d="M3.0772 1.7590
L2.9563 1.6986
" />
<path d="M2.9563 1.6986
L2.7144 1.6986
" />
<path d="M2.7144 1.6986
L2.5934 1.7590
" />
<path d="M3.1377 2.4848
L3.0168 2.5452
" />
<path d="M3.0168 2.5452
L2.7144 2.5452
" />
<path d="M2.7144 2.5452
L2.5934 2.4848
" />
<path d="M2.5934 2.4848
L2.5330 2.3638
" />
<path d="M2.5330 2.3638
L2.5330 2.2428
" />
<path d="M2.5330 2.2428
L2.5934 2.1219
" />
<path d="M2.5934 2.1219
L2.7144 2.0614
" />
<path d="M2.7144 2.0614
L3.0168 2.0614
" />
<path d="M3.0168 2.0614
L3.1377 2.0009
" />
<path d="M3.9239 2.5452
L3.8029 2.4848
" />
<path d="M3.8029 2.4848
L3.7424 2.3638
" />
<path d="M3.7424 2.3638
L3.7424 1.2752
" />
<path d="M4.5891 2.5452
L4.4681 2.4848
" />
<path d="M4.4681 2.4848
L4.4076 2.3638
" />
<path d="M4.4076 2.3638
L4.4076 1.2752
" />
</g></g> 
</svg>
