<?xml version="1.0" standalone="no"?>
 <!DOCTYPE svg PUBLIC "-//W3C//DTD SVG 1.1//EN" 
 "http://www.w3.org/Graphics/SVG/1.1/DTD/svg11.dtd"> 
<svg
  xmlns:svg="http://www.w3.org/2000/svg"
  xmlns="http://www.w3.org/2000/svg"
  xmlns:xlink="http://www.w3.org/1999/xlink"
  version="1.1"
  width="100%" height="100%" viewBox="0.0000 0.0000 12.5984 8.5598">
<title>SVG Image created as D_Schottky_unit1.svg date 2026/04/15 15:29:21 </title>
  <desc>Image generated by Eeschema-SVG </desc>
<g style="fill:#000000; fill-opacity:1.0000;stroke:#000000; stroke-opacity:1.0000;
stroke-linecap:round; stroke-linejoin:round;"
 transform="translate(0 0) scale(1 1)">
<path style="fill:none; 
stroke:#840000; stroke-width:0.2540; stroke-opacity:1; 
stroke-linecap:round; stroke-linejoin:round;fill:none"
d="M 4.3942,3.6449
4.3942,3.0099
5.0292,3.0099
5.0292,5.5499
5.6642,5.5499
5.6642,4.9149
" /> 
<path style="fill:none; 
stroke:#840000; stroke-width:0.2540; stroke-opacity:1; 
stroke-linecap:round; stroke-linejoin:round;fill:none"
d="M 7.5692,3.0099
7.5692,5.5499
5.0292,4.2799
Z" /> 
<path style="fill:none; 
stroke:#840000; stroke-width:0.1524; stroke-opacity:1; 
stroke-linecap:round; stroke-linejoin:round;fill:none"
d="M 7.5692,4.2799
5.0292,4.2799
" /> 
</g>
<g style="fill:none; 
stroke:#840000; stroke-width:0.1524; stroke-opacity:1; 
stroke-linecap:round; stroke-linejoin:round;">
<path d="M5.0292 4.2799
L2.4892 4.2799
" />
<path d="M7.5692 4.2799
L10.1092 4.2799
" />
</g>
<g style="fill:none; 
stroke:#006464; stroke-width:0.1524; stroke-opacity:1; 
stroke-linecap:round; stroke-linejoin:round;">
<text x="0.0000" y="-1.9050"
textLength="2.5618" font-size="1.6933" lengthAdjust="spacingAndGlyphs"
text-anchor="middle" opacity="0" stroke-opacity="0">D?</text>
<g class="stroked-text"><desc>D?</desc>
<path d="M-0.8769 -1.9604
L-0.8769 -3.2304
" />
<path d="M-0.8769 -3.2304
L-0.5745 -3.2304
" />
<path d="M-0.5745 -3.2304
L-0.3931 -3.1699
" />
<path d="M-0.3931 -3.1699
L-0.2721 -3.0489
" />
<path d="M-0.2721 -3.0489
L-0.2116 -2.9280
" />
<path d="M-0.2116 -2.9280
L-0.1512 -2.6861
" />
<path d="M-0.1512 -2.6861
L-0.1512 -2.5047
" />
<path d="M-0.1512 -2.5047
L-0.2116 -2.2628
" />
<path d="M-0.2116 -2.2628
L-0.2721 -2.1418
" />
<path d="M-0.2721 -2.1418
L-0.3931 -2.0209
" />
<path d="M-0.3931 -2.0209
L-0.5745 -1.9604
" />
<path d="M-0.5745 -1.9604
L-0.8769 -1.9604
" />
<path d="M0.5745 -2.0813
L0.6349 -2.0209
" />
<path d="M0.6349 -2.0209
L0.5745 -1.9604
" />
<path d="M0.5745 -1.9604
L0.5140 -2.0209
" />
<path d="M0.5140 -2.0209
L0.5745 -2.0813
" />
<path d="M0.5745 -2.0813
L0.5745 -1.9604
" />
<path d="M0.3326 -3.1699
L0.4535 -3.2304
" />
<path d="M0.4535 -3.2304
L0.7559 -3.2304
" />
<path d="M0.7559 -3.2304
L0.8768 -3.1699
" />
<path d="M0.8768 -3.1699
L0.9373 -3.0489
" />
<path d="M0.9373 -3.0489
L0.9373 -2.9280
" />
<path d="M0.9373 -2.9280
L0.8768 -2.8070
" />
<path d="M0.8768 -2.8070
L0.8164 -2.7466
" />
<path d="M0.8164 -2.7466
L0.6954 -2.6861
" />
<path d="M0.6954 -2.6861
L0.6349 -2.6256
" />
<path d="M0.6349 -2.6256
L0.5745 -2.5047
" />
<path d="M0.5745 -2.5047
L0.5745 -2.4442
" />
</g><text x="0.0000" y="3.1750"
textLength="10.4840" font-size="1.6933" lengthAdjust="spacingAndGlyphs"
text-anchor="middle" opacity="0" stroke-opacity="0">D_Schottky</text>
<g class="stroked-text"><desc>D_Schottky</desc>
<path d="M-4.8380 3.1195
L-4.8380 1.8495
" />
<path d="M-4.8380 1.8495
L-4.5356 1.8495
" />
<path d="M-4.5356 1.8495
L-4.3542 1.9100
" />
<path d="M-4.3542 1.9100
L-4.2332 2.0310
" />
<path d="M-4.2332 2.0310
L-4.1727 2.1519
" />
<path d="M-4.1727 2.1519
L-4.1123 2.3938
" />
<path d="M-4.1123 2.3938
L-4.1123 2.5752
" />
<path d="M-4.1123 2.5752
L-4.1727 2.8171
" />
<path d="M-4.1727 2.8171
L-4.2332 2.9381
" />
<path d="M-4.2332 2.9381
L-4.3542 3.0591
" />
<path d="M-4.3542 3.0591
L-4.5356 3.1195
" />
<path d="M-4.5356 3.1195
L-4.8380 3.1195
" />
<path d="M-3.8704 3.2405
L-2.9027 3.2405
" />
<path d="M-2.6608 3.0591
L-2.4794 3.1195
" />
<path d="M-2.4794 3.1195
L-2.1770 3.1195
" />
<path d="M-2.1770 3.1195
L-2.0561 3.0591
" />
<path d="M-2.0561 3.0591
L-1.9956 2.9986
" />
<path d="M-1.9956 2.9986
L-1.9351 2.8776
" />
<path d="M-1.9351 2.8776
L-1.9351 2.7567
" />
<path d="M-1.9351 2.7567
L-1.9956 2.6357
" />
<path d="M-1.9956 2.6357
L-2.0561 2.5752
" />
<path d="M-2.0561 2.5752
L-2.1770 2.5148
" />
<path d="M-2.1770 2.5148
L-2.4189 2.4543
" />
<path d="M-2.4189 2.4543
L-2.5399 2.3938
" />
<path d="M-2.5399 2.3938
L-2.6004 2.3333
" />
<path d="M-2.6004 2.3333
L-2.6608 2.2124
" />
<path d="M-2.6608 2.2124
L-2.6608 2.0914
" />
<path d="M-2.6608 2.0914
L-2.6004 1.9705
" />
<path d="M-2.6004 1.9705
L-2.5399 1.9100
" />
<path d="M-2.5399 1.9100
L-2.4189 1.8495
" />
<path d="M-2.4189 1.8495
L-2.1166 1.8495
" />
<path d="M-2.1166 1.8495
L-1.9351 1.9100
" />
<path d="M-0.8466 3.0591
L-0.9675 3.1195
" />
<path d="M-0.9675 3.1195
L-1.2094 3.1195
" />
<path d="M-1.2094 3.1195
L-1.3304 3.0591
" />
<path d="M-1.3304 3.0591
L-1.3909 2.9986
" />
<path d="M-1.3909 2.9986
L-1.4513 2.8776
" />
<path d="M-1.4513 2.8776
L-1.4513 2.5148
" />
<path d="M-1.4513 2.5148
L-1.3909 2.3938
" />
<path d="M-1.3909 2.3938
L-1.3304 2.3333
" />
<path d="M-1.3304 2.3333
L-1.2094 2.2729
" />
<path d="M-1.2094 2.2729
L-0.9675 2.2729
" />
<path d="M-0.9675 2.2729
L-0.8466 2.3333
" />
<path d="M-0.3023 3.1195
L-0.3023 1.8495
" />
<path d="M0.2419 3.1195
L0.2419 2.4543
" />
<path d="M0.2419 2.4543
L0.1814 2.3333
" />
<path d="M0.1814 2.3333
L0.0605 2.2729
" />
<path d="M0.0605 2.2729
L-0.1208 2.2729
" />
<path d="M-0.1208 2.2729
L-0.2418 2.3333
" />
<path d="M-0.2418 2.3333
L-0.3023 2.3938
" />
<path d="M1.0281 3.1195
L0.9071 3.0591
" />
<path d="M0.9071 3.0591
L0.8466 2.9986
" />
<path d="M0.8466 2.9986
L0.7862 2.8776
" />
<path d="M0.7862 2.8776
L0.7862 2.5148
" />
<path d="M0.7862 2.5148
L0.8466 2.3938
" />
<path d="M0.8466 2.3938
L0.9071 2.3333
" />
<path d="M0.9071 2.3333
L1.0281 2.2729
" />
<path d="M1.0281 2.2729
L1.2095 2.2729
" />
<path d="M1.2095 2.2729
L1.3304 2.3333
" />
<path d="M1.3304 2.3333
L1.3909 2.3938
" />
<path d="M1.3909 2.3938
L1.4514 2.5148
" />
<path d="M1.4514 2.5148
L1.4514 2.8776
" />
<path d="M1.4514 2.8776
L1.3909 2.9986
" />
<path d="M1.3909 2.9986
L1.3304 3.0591
" />
<path d="M1.3304 3.0591
L1.2095 3.1195
" />
<path d="M1.2095 3.1195
L1.0281 3.1195
" />
<path d="M1.8142 2.2729
L2.2980 2.2729
" />
<path d="M1.9956 1.8495
L1.9956 2.9381
" />
<path d="M1.9956 2.9381
L2.0561 3.0591
" />
<path d="M2.0561 3.0591
L2.1771 3.1195
" />
<path d="M2.1771 3.1195
L2.2980 3.1195
" />
<path d="M2.5399 2.2729
L3.0237 2.2729
" />
<path d="M2.7213 1.8495
L2.7213 2.9381
" />
<path d="M2.7213 2.9381
L2.7818 3.0591
" />
<path d="M2.7818 3.0591
L2.9028 3.1195
" />
<path d="M2.9028 3.1195
L3.0237 3.1195
" />
<path d="M3.4470 3.1195
L3.4470 1.8495
" />
<path d="M3.5680 2.6357
L3.9308 3.1195
" />
<path d="M3.9308 2.2729
L3.4470 2.7567
" />
<path d="M4.3542 2.2729
L4.6566 3.1195
" />
<path d="M4.9589 2.2729
L4.6566 3.1195
" />
<path d="M4.6566 3.1195
L4.5356 3.4219
" />
<path d="M4.5356 3.4219
L4.4751 3.4824
" />
<path d="M4.4751 3.4824
L4.3542 3.5429
" />
</g></g> 
</svg>
