<?xml version="1.0" standalone="no"?>
 <!DOCTYPE svg PUBLIC "-//W3C//DTD SVG 1.1//EN" 
 "http://www.w3.org/Graphics/SVG/1.1/DTD/svg11.dtd"> 
<svg
  xmlns:svg="http://www.w3.org/2000/svg"
  xmlns="http://www.w3.org/2000/svg"
  xmlns:xlink="http://www.w3.org/1999/xlink"
  version="1.1"
  width="100%" height="100%" viewBox="0.0000 0.0000 10.0584 8.5598">
<title>SVG Image created as D_Zener_unit1.svg date 2026/04/15 15:21:09 </title>
  <desc>Image generated by Eeschema-SVG </desc>
<g style="fill:#000000; fill-opacity:1.0000;stroke:#000000; stroke-opacity:1.0000;
stroke-linecap:round; stroke-linejoin:round;"
 transform="translate(0 0) scale(1 1)">
<path style="fill:none; 
stroke:#840000; stroke-width:0.2540; stroke-opacity:1; 
stroke-linecap:round; stroke-linejoin:round;fill:none"
d="M 3.7592,5.5499
3.7592,3.0099
4.2672,3.0099
" /> 
<path style="fill:none; 
stroke:#840000; stroke-width:0.1524; stroke-opacity:1; 
stroke-linecap:round; stroke-linejoin:round;fill:none"
d="M 6.2992,4.2799
3.7592,4.2799
" /> 
<path style="fill:none; 
stroke:#840000; stroke-width:0.2540; stroke-opacity:1; 
stroke-linecap:round; stroke-linejoin:round;fill:none"
d="M 6.2992,5.5499
6.2992,3.0099
3.7592,4.2799
Z" /> 
</g>
<g style="fill:none; 
stroke:#840000; stroke-width:0.1524; stroke-opacity:1; 
stroke-linecap:round; stroke-linejoin:round;">
<path d="M3.7592 4.2799
L1.2192 4.2799
" />
<path d="M6.2992 4.2799
L8.8392 4.2799
" />
</g>
<g style="fill:none; 
stroke:#006464; stroke-width:0.1524; stroke-opacity:1; 
stroke-linecap:round; stroke-linejoin:round;">
<text x="0.0000" y="-1.9050"
textLength="2.5618" font-size="1.6933" lengthAdjust="spacingAndGlyphs"
text-anchor="middle" opacity="0" stroke-opacity="0">D?</text>
<g class="stroked-text"><desc>D?</desc>
<path d="M-0.8769 -1.9604
L-0.8769 -3.2304
" />
<path d="M-0.8769 -3.2304
L-0.5745 -3.2304
" />
<path d="M-0.5745 -3.2304
L-0.3931 -3.1699
" />
<path d="M-0.3931 -3.1699
L-0.2721 -3.0489
" />
<path d="M-0.2721 -3.0489
L-0.2116 -2.9280
" />
<path d="M-0.2116 -2.9280
L-0.1512 -2.6861
" />
<path d="M-0.1512 -2.6861
L-0.1512 -2.5047
" />
<path d="M-0.1512 -2.5047
L-0.2116 -2.2628
" />
<path d="M-0.2116 -2.2628
L-0.2721 -2.1418
" />
<path d="M-0.2721 -2.1418
L-0.3931 -2.0209
" />
<path d="M-0.3931 -2.0209
L-0.5745 -1.9604
" />
<path d="M-0.5745 -1.9604
L-0.8769 -1.9604
" />
<path d="M0.5745 -2.0813
L0.6349 -2.0209
" />
<path d="M0.6349 -2.0209
L0.5745 -1.9604
" />
<path d="M0.5745 -1.9604
L0.5140 -2.0209
" />
<path d="M0.5140 -2.0209
L0.5745 -2.0813
" />
<path d="M0.5745 -2.0813
L0.5745 -1.9604
" />
<path d="M0.3326 -3.1699
L0.4535 -3.2304
" />
<path d="M0.4535 -3.2304
L0.7559 -3.2304
" />
<path d="M0.7559 -3.2304
L0.8768 -3.1699
" />
<path d="M0.8768 -3.1699
L0.9373 -3.0489
" />
<path d="M0.9373 -3.0489
L0.9373 -2.9280
" />
<path d="M0.9373 -2.9280
L0.8768 -2.8070
" />
<path d="M0.8768 -2.8070
L0.8164 -2.7466
" />
<path d="M0.8164 -2.7466
L0.6954 -2.6861
" />
<path d="M0.6954 -2.6861
L0.6349 -2.6256
" />
<path d="M0.6349 -2.6256
L0.5745 -2.5047
" />
<path d="M0.5745 -2.5047
L0.5745 -2.4442
" />
</g><text x="0.0000" y="3.1750"
textLength="7.7627" font-size="1.6933" lengthAdjust="spacingAndGlyphs"
text-anchor="middle" opacity="0" stroke-opacity="0">D_Zener</text>
<g class="stroked-text"><desc>D_Zener</desc>
<path d="M-3.4773 3.1195
L-3.4773 1.8495
" />
<path d="M-3.4773 1.8495
L-3.1749 1.8495
" />
<path d="M-3.1749 1.8495
L-2.9935 1.9100
" />
<path d="M-2.9935 1.9100
L-2.8725 2.0310
" />
<path d="M-2.8725 2.0310
L-2.8120 2.1519
" />
<path d="M-2.8120 2.1519
L-2.7516 2.3938
" />
<path d="M-2.7516 2.3938
L-2.7516 2.5752
" />
<path d="M-2.7516 2.5752
L-2.8120 2.8171
" />
<path d="M-2.8120 2.8171
L-2.8725 2.9381
" />
<path d="M-2.8725 2.9381
L-2.9935 3.0591
" />
<path d="M-2.9935 3.0591
L-3.1749 3.1195
" />
<path d="M-3.1749 3.1195
L-3.4773 3.1195
" />
<path d="M-2.5097 3.2405
L-1.5420 3.2405
" />
<path d="M-1.3606 1.8495
L-0.5140 1.8495
" />
<path d="M-0.5140 1.8495
L-1.3606 3.1195
" />
<path d="M-1.3606 3.1195
L-0.5140 3.1195
" />
<path d="M0.4535 3.0591
L0.3326 3.1195
" />
<path d="M0.3326 3.1195
L0.0907 3.1195
" />
<path d="M0.0907 3.1195
L-0.0302 3.0591
" />
<path d="M-0.0302 3.0591
L-0.0906 2.9381
" />
<path d="M-0.0906 2.9381
L-0.0906 2.4543
" />
<path d="M-0.0906 2.4543
L-0.0302 2.3333
" />
<path d="M-0.0302 2.3333
L0.0907 2.2729
" />
<path d="M0.0907 2.2729
L0.3326 2.2729
" />
<path d="M0.3326 2.2729
L0.4535 2.3333
" />
<path d="M0.4535 2.3333
L0.5140 2.4543
" />
<path d="M0.5140 2.4543
L0.5140 2.5752
" />
<path d="M0.5140 2.5752
L-0.0906 2.6962
" />
<path d="M1.0583 2.2729
L1.0583 3.1195
" />
<path d="M1.0583 2.3938
L1.1188 2.3333
" />
<path d="M1.1188 2.3333
L1.2398 2.2729
" />
<path d="M1.2398 2.2729
L1.4212 2.2729
" />
<path d="M1.4212 2.2729
L1.5421 2.3333
" />
<path d="M1.5421 2.3333
L1.6026 2.4543
" />
<path d="M1.6026 2.4543
L1.6026 3.1195
" />
<path d="M2.6911 3.0591
L2.5702 3.1195
" />
<path d="M2.5702 3.1195
L2.3283 3.1195
" />
<path d="M2.3283 3.1195
L2.2073 3.0591
" />
<path d="M2.2073 3.0591
L2.1469 2.9381
" />
<path d="M2.1469 2.9381
L2.1469 2.4543
" />
<path d="M2.1469 2.4543
L2.2073 2.3333
" />
<path d="M2.2073 2.3333
L2.3283 2.2729
" />
<path d="M2.3283 2.2729
L2.5702 2.2729
" />
<path d="M2.5702 2.2729
L2.6911 2.3333
" />
<path d="M2.6911 2.3333
L2.7516 2.4543
" />
<path d="M2.7516 2.4543
L2.7516 2.5752
" />
<path d="M2.7516 2.5752
L2.1469 2.6962
" />
<path d="M3.2959 3.1195
L3.2959 2.2729
" />
<path d="M3.2959 2.5148
L3.3564 2.3938
" />
<path d="M3.3564 2.3938
L3.4169 2.3333
" />
<path d="M3.4169 2.3333
L3.5378 2.2729
" />
<path d="M3.5378 2.2729
L3.6588 2.2729
" />
</g></g> 
</svg>
