<?xml version="1.0" standalone="no"?>
 <!DOCTYPE svg PUBLIC "-//W3C//DTD SVG 1.1//EN" 
 "http://www.w3.org/Graphics/SVG/1.1/DTD/svg11.dtd"> 
<svg
  xmlns:svg="http://www.w3.org/2000/svg"
  xmlns="http://www.w3.org/2000/svg"
  xmlns:xlink="http://www.w3.org/1999/xlink"
  version="1.1"
  width="100%" height="100%" viewBox="0.0000 0.0000 10.5156 8.5598">
<title>SVG Image created as LED_unit1.svg date 2026/04/15 15:21:09 </title>
  <desc>Image generated by Eeschema-SVG </desc>
<g style="fill:#000000; fill-opacity:1.0000;stroke:#000000; stroke-opacity:1.0000;
stroke-linecap:round; stroke-linejoin:round;"
 transform="translate(0 0) scale(1 1)">
<path style="fill:none; 
stroke:#840000; stroke-width:0.1524; stroke-opacity:1; 
stroke-linecap:round; stroke-linejoin:round;fill:none"
d="M 2.4003,5.0419
0.8763,6.5659
1.6383,6.5659
0.8763,6.5659
0.8763,5.8039
" /> 
<path style="fill:none; 
stroke:#840000; stroke-width:0.1524; stroke-opacity:1; 
stroke-linecap:round; stroke-linejoin:round;fill:none"
d="M 3.6703,5.0419
2.1463,6.5659
2.9083,6.5659
2.1463,6.5659
2.1463,5.8039
" /> 
<path style="fill:none; 
stroke:#840000; stroke-width:0.1524; stroke-opacity:1; 
stroke-linecap:round; stroke-linejoin:round;fill:none"
d="M 4.1783,4.2799
6.7183,4.2799
" /> 
<path style="fill:none; 
stroke:#840000; stroke-width:0.2540; stroke-opacity:1; 
stroke-linecap:round; stroke-linejoin:round;fill:none"
d="M 4.1783,5.5499
4.1783,3.0099
" /> 
<path style="fill:none; 
stroke:#840000; stroke-width:0.2540; stroke-opacity:1; 
stroke-linecap:round; stroke-linejoin:round;fill:none"
d="M 6.7183,5.5499
6.7183,3.0099
4.1783,4.2799
Z" /> 
</g>
<g style="fill:none; 
stroke:#840000; stroke-width:0.1524; stroke-opacity:1; 
stroke-linecap:round; stroke-linejoin:round;">
<path d="M4.1783 4.2799
L1.6383 4.2799
" />
<path d="M6.7183 4.2799
L9.2583 4.2799
" />
</g>
<g style="fill:none; 
stroke:#006464; stroke-width:0.1524; stroke-opacity:1; 
stroke-linecap:round; stroke-linejoin:round;">
<text x="0.1905" y="-1.9050"
textLength="2.5618" font-size="1.6933" lengthAdjust="spacingAndGlyphs"
text-anchor="middle" opacity="0" stroke-opacity="0">D?</text>
<g class="stroked-text"><desc>D?</desc>
<path d="M-0.6864 -1.9604
L-0.6864 -3.2304
" />
<path d="M-0.6864 -3.2304
L-0.3840 -3.2304
" />
<path d="M-0.3840 -3.2304
L-0.2026 -3.1699
" />
<path d="M-0.2026 -3.1699
L-0.0816 -3.0489
" />
<path d="M-0.0816 -3.0489
L-0.0211 -2.9280
" />
<path d="M-0.0211 -2.9280
L0.0393 -2.6861
" />
<path d="M0.0393 -2.6861
L0.0393 -2.5047
" />
<path d="M0.0393 -2.5047
L-0.0211 -2.2628
" />
<path d="M-0.0211 -2.2628
L-0.0816 -2.1418
" />
<path d="M-0.0816 -2.1418
L-0.2026 -2.0209
" />
<path d="M-0.2026 -2.0209
L-0.3840 -1.9604
" />
<path d="M-0.3840 -1.9604
L-0.6864 -1.9604
" />
<path d="M0.7650 -2.0813
L0.8254 -2.0209
" />
<path d="M0.8254 -2.0209
L0.7650 -1.9604
" />
<path d="M0.7650 -1.9604
L0.7045 -2.0209
" />
<path d="M0.7045 -2.0209
L0.7650 -2.0813
" />
<path d="M0.7650 -2.0813
L0.7650 -1.9604
" />
<path d="M0.5231 -3.1699
L0.6440 -3.2304
" />
<path d="M0.6440 -3.2304
L0.9464 -3.2304
" />
<path d="M0.9464 -3.2304
L1.0673 -3.1699
" />
<path d="M1.0673 -3.1699
L1.1278 -3.0489
" />
<path d="M1.1278 -3.0489
L1.1278 -2.9280
" />
<path d="M1.1278 -2.9280
L1.0673 -2.8070
" />
<path d="M1.0673 -2.8070
L1.0069 -2.7466
" />
<path d="M1.0069 -2.7466
L0.8859 -2.6861
" />
<path d="M0.8859 -2.6861
L0.8254 -2.6256
" />
<path d="M0.8254 -2.6256
L0.7650 -2.5047
" />
<path d="M0.7650 -2.5047
L0.7650 -2.4442
" />
</g><text x="0.1905" y="3.1750"
textLength="3.6503" font-size="1.6933" lengthAdjust="spacingAndGlyphs"
text-anchor="middle" opacity="0" stroke-opacity="0">LED</text>
<g class="stroked-text"><desc>LED</desc>
<path d="M-0.6258 3.1195
L-1.2306 3.1195
" />
<path d="M-1.2306 3.1195
L-1.2306 1.8495
" />
<path d="M-0.2025 2.4543
L0.2208 2.4543
" />
<path d="M0.4022 3.1195
L-0.2025 3.1195
" />
<path d="M-0.2025 3.1195
L-0.2025 1.8495
" />
<path d="M-0.2025 1.8495
L0.4022 1.8495
" />
<path d="M0.9464 3.1195
L0.9464 1.8495
" />
<path d="M0.9464 1.8495
L1.2488 1.8495
" />
<path d="M1.2488 1.8495
L1.4302 1.9100
" />
<path d="M1.4302 1.9100
L1.5512 2.0310
" />
<path d="M1.5512 2.0310
L1.6117 2.1519
" />
<path d="M1.6117 2.1519
L1.6721 2.3938
" />
<path d="M1.6721 2.3938
L1.6721 2.5752
" />
<path d="M1.6721 2.5752
L1.6117 2.8171
" />
<path d="M1.6117 2.8171
L1.5512 2.9381
" />
<path d="M1.5512 2.9381
L1.4302 3.0591
" />
<path d="M1.4302 3.0591
L1.2488 3.1195
" />
<path d="M1.2488 3.1195
L0.9464 3.1195
" />
</g></g> 
</svg>
