<?xml version="1.0" standalone="no"?>
 <!DOCTYPE svg PUBLIC "-//W3C//DTD SVG 1.1//EN" 
 "http://www.w3.org/Graphics/SVG/1.1/DTD/svg11.dtd"> 
<svg
  xmlns:svg="http://www.w3.org/2000/svg"
  xmlns="http://www.w3.org/2000/svg"
  xmlns:xlink="http://www.w3.org/1999/xlink"
  version="1.1"
  width="100%" height="100%" viewBox="0.0000 0.0000 43.5864 73.4060">
<title>SVG Image created as LM27762_unit1.svg date 2026/04/15 15:29:21 </title>
  <desc>Image generated by Eeschema-SVG </desc>
<g style="fill:#000000; fill-opacity:1.0000;stroke:#000000; stroke-opacity:1.0000;
stroke-linecap:round; stroke-linejoin:round;"
 transform="translate(0 0) scale(1 1)">
<path style="fill:none; 
stroke:#840000; stroke-width:0.2032; stroke-opacity:1; 
stroke-linecap:round; stroke-linejoin:round;fill:none"
d="M 9.0932,6.2230
9.0932,67.1830
" /> 
<path style="fill:none; 
stroke:#840000; stroke-width:0.2032; stroke-opacity:1; 
stroke-linecap:round; stroke-linejoin:round;fill:none"
d="M 9.0932,67.1830
34.4932,67.1830
" /> 
<path style="fill:none; 
stroke:#840000; stroke-width:0.2032; stroke-opacity:1; 
stroke-linecap:round; stroke-linejoin:round;fill:none"
d="M 34.4932,6.2230
9.0932,6.2230
" /> 
<path style="fill:none; 
stroke:#840000; stroke-width:0.2032; stroke-opacity:1; 
stroke-linecap:round; stroke-linejoin:round;fill:none"
d="M 34.4932,67.1830
34.4932,6.2230
" /> 
</g>
<g style="fill:none; 
stroke:#840000; stroke-width:0.1524; stroke-opacity:1; 
stroke-linecap:round; stroke-linejoin:round;">
<path d="M9.0932 11.3030
L4.0132 11.3030
" />
</g>
<g style="fill:none; 
stroke:#006464; stroke-width:0.1524; stroke-opacity:1; 
stroke-linecap:round; stroke-linejoin:round;">
<text x="9.3472" y="11.9380"
textLength="3.2271" font-size="1.6933" lengthAdjust="spacingAndGlyphs"
text-anchor="start" opacity="0" stroke-opacity="0">VIN</text>
<g class="stroked-text"><desc>VIN</desc>
<path d="M9.5683 10.6125
L9.9916 11.8825
" />
<path d="M9.9916 11.8825
L10.4150 10.6125
" />
<path d="M10.8383 11.8825
L10.8383 10.6125
" />
<path d="M11.4431 11.8825
L11.4431 10.6125
" />
<path d="M11.4431 10.6125
L12.1688 11.8825
" />
<path d="M12.1688 11.8825
L12.1688 10.6125
" />
</g></g>
<g style="fill:none; 
stroke:#A90000; stroke-width:0.1524; stroke-opacity:1; 
stroke-linecap:round; stroke-linejoin:round;">
<text x="6.5532" y="11.0490"
textLength="1.4127" font-size="1.6933" lengthAdjust="spacingAndGlyphs"
text-anchor="middle" opacity="0" stroke-opacity="0">3</text>
<g class="stroked-text"><desc>3</desc>
<path d="M6.1299 9.6155
L6.9161 9.6155
" />
<path d="M6.9161 9.6155
L6.4927 10.0993
" />
<path d="M6.4927 10.0993
L6.6742 10.0993
" />
<path d="M6.6742 10.0993
L6.7951 10.1598
" />
<path d="M6.7951 10.1598
L6.8556 10.2203
" />
<path d="M6.8556 10.2203
L6.9161 10.3412
" />
<path d="M6.9161 10.3412
L6.9161 10.6436
" />
<path d="M6.9161 10.6436
L6.8556 10.7646
" />
<path d="M6.8556 10.7646
L6.7951 10.8251
" />
<path d="M6.7951 10.8251
L6.6742 10.8855
" />
<path d="M6.6742 10.8855
L6.3113 10.8855
" />
<path d="M6.3113 10.8855
L6.1904 10.8251
" />
<path d="M6.1904 10.8251
L6.1299 10.7646
" />
</g></g>
<g style="fill:none; 
stroke:#840000; stroke-width:0.1524; stroke-opacity:1; 
stroke-linecap:round; stroke-linejoin:round;">
<path d="M9.0932 18.9230
L4.0132 18.9230
" />
</g>
<g style="fill:none; 
stroke:#006464; stroke-width:0.1524; stroke-opacity:1; 
stroke-linecap:round; stroke-linejoin:round;">
<text x="9.3472" y="19.5580"
textLength="4.2551" font-size="1.6933" lengthAdjust="spacingAndGlyphs"
text-anchor="start" opacity="0" stroke-opacity="0">C1-</text>
<g class="stroked-text"><desc>C1-</desc>
<path d="M10.4754 19.3816
L10.4150 19.4421
" />
<path d="M10.4150 19.4421
L10.2335 19.5025
" />
<path d="M10.2335 19.5025
L10.1126 19.5025
" />
<path d="M10.1126 19.5025
L9.9312 19.4421
" />
<path d="M9.9312 19.4421
L9.8102 19.3211
" />
<path d="M9.8102 19.3211
L9.7497 19.2001
" />
<path d="M9.7497 19.2001
L9.6893 18.9582
" />
<path d="M9.6893 18.9582
L9.6893 18.7768
" />
<path d="M9.6893 18.7768
L9.7497 18.5349
" />
<path d="M9.7497 18.5349
L9.8102 18.4140
" />
<path d="M9.8102 18.4140
L9.9312 18.2930
" />
<path d="M9.9312 18.2930
L10.1126 18.2325
" />
<path d="M10.1126 18.2325
L10.2335 18.2325
" />
<path d="M10.2335 18.2325
L10.4150 18.2930
" />
<path d="M10.4150 18.2930
L10.4754 18.3535
" />
<path d="M11.6850 19.5025
L10.9593 19.5025
" />
<path d="M11.3221 19.5025
L11.3221 18.2325
" />
<path d="M11.3221 18.2325
L11.2012 18.4140
" />
<path d="M11.2012 18.4140
L11.0802 18.5349
" />
<path d="M11.0802 18.5349
L10.9593 18.5954
" />
<path d="M12.2292 19.0187
L13.1969 19.0187
" />
</g></g>
<g style="fill:none; 
stroke:#A90000; stroke-width:0.1524; stroke-opacity:1; 
stroke-linecap:round; stroke-linejoin:round;">
<text x="6.5532" y="18.6690"
textLength="1.4127" font-size="1.6933" lengthAdjust="spacingAndGlyphs"
text-anchor="middle" opacity="0" stroke-opacity="0">9</text>
<g class="stroked-text"><desc>9</desc>
<path d="M6.3113 18.5055
L6.5532 18.5055
" />
<path d="M6.5532 18.5055
L6.6742 18.4451
" />
<path d="M6.6742 18.4451
L6.7346 18.3846
" />
<path d="M6.7346 18.3846
L6.8556 18.2031
" />
<path d="M6.8556 18.2031
L6.9161 17.9612
" />
<path d="M6.9161 17.9612
L6.9161 17.4774
" />
<path d="M6.9161 17.4774
L6.8556 17.3565
" />
<path d="M6.8556 17.3565
L6.7951 17.2960
" />
<path d="M6.7951 17.2960
L6.6742 17.2355
" />
<path d="M6.6742 17.2355
L6.4323 17.2355
" />
<path d="M6.4323 17.2355
L6.3113 17.2960
" />
<path d="M6.3113 17.2960
L6.2508 17.3565
" />
<path d="M6.2508 17.3565
L6.1904 17.4774
" />
<path d="M6.1904 17.4774
L6.1904 17.7798
" />
<path d="M6.1904 17.7798
L6.2508 17.9008
" />
<path d="M6.2508 17.9008
L6.3113 17.9612
" />
<path d="M6.3113 17.9612
L6.4323 18.0217
" />
<path d="M6.4323 18.0217
L6.6742 18.0217
" />
<path d="M6.6742 18.0217
L6.7951 17.9612
" />
<path d="M6.7951 17.9612
L6.8556 17.9008
" />
<path d="M6.8556 17.9008
L6.9161 17.7798
" />
</g></g>
<g style="fill:none; 
stroke:#840000; stroke-width:0.1524; stroke-opacity:1; 
stroke-linecap:round; stroke-linejoin:round;">
<path d="M9.0932 26.5430
L4.0132 26.5430
" />
</g>
<g style="fill:none; 
stroke:#006464; stroke-width:0.1524; stroke-opacity:1; 
stroke-linecap:round; stroke-linejoin:round;">
<text x="9.3472" y="27.1780"
textLength="4.2551" font-size="1.6933" lengthAdjust="spacingAndGlyphs"
text-anchor="start" opacity="0" stroke-opacity="0">C1+</text>
<g class="stroked-text"><desc>C1+</desc>
<path d="M10.4754 27.0016
L10.4150 27.0621
" />
<path d="M10.4150 27.0621
L10.2335 27.1225
" />
<path d="M10.2335 27.1225
L10.1126 27.1225
" />
<path d="M10.1126 27.1225
L9.9312 27.0621
" />
<path d="M9.9312 27.0621
L9.8102 26.9411
" />
<path d="M9.8102 26.9411
L9.7497 26.8201
" />
<path d="M9.7497 26.8201
L9.6893 26.5782
" />
<path d="M9.6893 26.5782
L9.6893 26.3968
" />
<path d="M9.6893 26.3968
L9.7497 26.1549
" />
<path d="M9.7497 26.1549
L9.8102 26.0340
" />
<path d="M9.8102 26.0340
L9.9312 25.9130
" />
<path d="M9.9312 25.9130
L10.1126 25.8525
" />
<path d="M10.1126 25.8525
L10.2335 25.8525
" />
<path d="M10.2335 25.8525
L10.4150 25.9130
" />
<path d="M10.4150 25.9130
L10.4754 25.9735
" />
<path d="M11.6850 27.1225
L10.9593 27.1225
" />
<path d="M11.3221 27.1225
L11.3221 25.8525
" />
<path d="M11.3221 25.8525
L11.2012 26.0340
" />
<path d="M11.2012 26.0340
L11.0802 26.1549
" />
<path d="M11.0802 26.1549
L10.9593 26.2154
" />
<path d="M12.2292 26.6387
L13.1969 26.6387
" />
<path d="M12.7130 27.1225
L12.7130 26.1549
" />
</g></g>
<g style="fill:none; 
stroke:#A90000; stroke-width:0.1524; stroke-opacity:1; 
stroke-linecap:round; stroke-linejoin:round;">
<text x="6.5532" y="26.2890"
textLength="2.6222" font-size="1.6933" lengthAdjust="spacingAndGlyphs"
text-anchor="middle" opacity="0" stroke-opacity="0">10</text>
<g class="stroked-text"><desc>10</desc>
<path d="M6.3113 26.1255
L5.5856 26.1255
" />
<path d="M5.9484 26.1255
L5.9484 24.8555
" />
<path d="M5.9484 24.8555
L5.8275 25.0370
" />
<path d="M5.8275 25.0370
L5.7065 25.1579
" />
<path d="M5.7065 25.1579
L5.5856 25.2184
" />
<path d="M7.0974 24.8555
L7.2184 24.8555
" />
<path d="M7.2184 24.8555
L7.3393 24.9160
" />
<path d="M7.3393 24.9160
L7.3998 24.9765
" />
<path d="M7.3998 24.9765
L7.4603 25.0974
" />
<path d="M7.4603 25.0974
L7.5208 25.3393
" />
<path d="M7.5208 25.3393
L7.5208 25.6417
" />
<path d="M7.5208 25.6417
L7.4603 25.8836
" />
<path d="M7.4603 25.8836
L7.3998 26.0046
" />
<path d="M7.3998 26.0046
L7.3393 26.0651
" />
<path d="M7.3393 26.0651
L7.2184 26.1255
" />
<path d="M7.2184 26.1255
L7.0974 26.1255
" />
<path d="M7.0974 26.1255
L6.9765 26.0651
" />
<path d="M6.9765 26.0651
L6.9160 26.0046
" />
<path d="M6.9160 26.0046
L6.8555 25.8836
" />
<path d="M6.8555 25.8836
L6.7951 25.6417
" />
<path d="M6.7951 25.6417
L6.7951 25.3393
" />
<path d="M6.7951 25.3393
L6.8555 25.0974
" />
<path d="M6.8555 25.0974
L6.9160 24.9765
" />
<path d="M6.9160 24.9765
L6.9765 24.9160
" />
<path d="M6.9765 24.9160
L7.0974 24.8555
" />
</g></g>
<g style="fill:none; 
stroke:#840000; stroke-width:0.1524; stroke-opacity:1; 
stroke-linecap:round; stroke-linejoin:round;">
<path d="M9.0932 34.1630
L4.0132 34.1630
" />
</g>
<g style="fill:none; 
stroke:#006464; stroke-width:0.1524; stroke-opacity:1; 
stroke-linecap:round; stroke-linejoin:round;">
<text x="9.3472" y="34.7980"
textLength="6.6742" font-size="1.6933" lengthAdjust="spacingAndGlyphs"
text-anchor="start" opacity="0" stroke-opacity="0">PGOOD</text>
<g class="stroked-text"><desc>PGOOD</desc>
<path d="M9.7497 34.7425
L9.7497 33.4725
" />
<path d="M9.7497 33.4725
L10.2335 33.4725
" />
<path d="M10.2335 33.4725
L10.3545 33.5330
" />
<path d="M10.3545 33.5330
L10.4150 33.5935
" />
<path d="M10.4150 33.5935
L10.4754 33.7144
" />
<path d="M10.4754 33.7144
L10.4754 33.8959
" />
<path d="M10.4754 33.8959
L10.4150 34.0168
" />
<path d="M10.4150 34.0168
L10.3545 34.0773
" />
<path d="M10.3545 34.0773
L10.2335 34.1378
" />
<path d="M10.2335 34.1378
L9.7497 34.1378
" />
<path d="M11.6850 33.5330
L11.5640 33.4725
" />
<path d="M11.5640 33.4725
L11.3826 33.4725
" />
<path d="M11.3826 33.4725
L11.2012 33.5330
" />
<path d="M11.2012 33.5330
L11.0802 33.6540
" />
<path d="M11.0802 33.6540
L11.0197 33.7749
" />
<path d="M11.0197 33.7749
L10.9593 34.0168
" />
<path d="M10.9593 34.0168
L10.9593 34.1982
" />
<path d="M10.9593 34.1982
L11.0197 34.4401
" />
<path d="M11.0197 34.4401
L11.0802 34.5611
" />
<path d="M11.0802 34.5611
L11.2012 34.6821
" />
<path d="M11.2012 34.6821
L11.3826 34.7425
" />
<path d="M11.3826 34.7425
L11.5035 34.7425
" />
<path d="M11.5035 34.7425
L11.6850 34.6821
" />
<path d="M11.6850 34.6821
L11.7454 34.6216
" />
<path d="M11.7454 34.6216
L11.7454 34.1982
" />
<path d="M11.7454 34.1982
L11.5035 34.1982
" />
<path d="M12.5316 33.4725
L12.7735 33.4725
" />
<path d="M12.7735 33.4725
L12.8945 33.5330
" />
<path d="M12.8945 33.5330
L13.0154 33.6540
" />
<path d="M13.0154 33.6540
L13.0759 33.8959
" />
<path d="M13.0759 33.8959
L13.0759 34.3192
" />
<path d="M13.0759 34.3192
L13.0154 34.5611
" />
<path d="M13.0154 34.5611
L12.8945 34.6821
" />
<path d="M12.8945 34.6821
L12.7735 34.7425
" />
<path d="M12.7735 34.7425
L12.5316 34.7425
" />
<path d="M12.5316 34.7425
L12.4107 34.6821
" />
<path d="M12.4107 34.6821
L12.2897 34.5611
" />
<path d="M12.2897 34.5611
L12.2293 34.3192
" />
<path d="M12.2293 34.3192
L12.2293 33.8959
" />
<path d="M12.2293 33.8959
L12.2897 33.6540
" />
<path d="M12.2897 33.6540
L12.4107 33.5330
" />
<path d="M12.4107 33.5330
L12.5316 33.4725
" />
<path d="M13.8621 33.4725
L14.1040 33.4725
" />
<path d="M14.1040 33.4725
L14.2250 33.5330
" />
<path d="M14.2250 33.5330
L14.3459 33.6540
" />
<path d="M14.3459 33.6540
L14.4064 33.8959
" />
<path d="M14.4064 33.8959
L14.4064 34.3192
" />
<path d="M14.4064 34.3192
L14.3459 34.5611
" />
<path d="M14.3459 34.5611
L14.2250 34.6821
" />
<path d="M14.2250 34.6821
L14.1040 34.7425
" />
<path d="M14.1040 34.7425
L13.8621 34.7425
" />
<path d="M13.8621 34.7425
L13.7412 34.6821
" />
<path d="M13.7412 34.6821
L13.6202 34.5611
" />
<path d="M13.6202 34.5611
L13.5598 34.3192
" />
<path d="M13.5598 34.3192
L13.5598 33.8959
" />
<path d="M13.5598 33.8959
L13.6202 33.6540
" />
<path d="M13.6202 33.6540
L13.7412 33.5330
" />
<path d="M13.7412 33.5330
L13.8621 33.4725
" />
<path d="M14.9507 34.7425
L14.9507 33.4725
" />
<path d="M14.9507 33.4725
L15.2531 33.4725
" />
<path d="M15.2531 33.4725
L15.4345 33.5330
" />
<path d="M15.4345 33.5330
L15.5555 33.6540
" />
<path d="M15.5555 33.6540
L15.6160 33.7749
" />
<path d="M15.6160 33.7749
L15.6764 34.0168
" />
<path d="M15.6764 34.0168
L15.6764 34.1982
" />
<path d="M15.6764 34.1982
L15.6160 34.4401
" />
<path d="M15.6160 34.4401
L15.5555 34.5611
" />
<path d="M15.5555 34.5611
L15.4345 34.6821
" />
<path d="M15.4345 34.6821
L15.2531 34.7425
" />
<path d="M15.2531 34.7425
L14.9507 34.7425
" />
</g></g>
<g style="fill:none; 
stroke:#A90000; stroke-width:0.1524; stroke-opacity:1; 
stroke-linecap:round; stroke-linejoin:round;">
<text x="6.5532" y="33.9090"
textLength="1.4127" font-size="1.6933" lengthAdjust="spacingAndGlyphs"
text-anchor="middle" opacity="0" stroke-opacity="0">1</text>
<g class="stroked-text"><desc>1</desc>
<path d="M6.9161 33.7455
L6.1904 33.7455
" />
<path d="M6.5532 33.7455
L6.5532 32.4755
" />
<path d="M6.5532 32.4755
L6.4323 32.6570
" />
<path d="M6.4323 32.6570
L6.3113 32.7779
" />
<path d="M6.3113 32.7779
L6.1904 32.8384
" />
</g></g>
<g style="fill:none; 
stroke:#840000; stroke-width:0.1524; stroke-opacity:1; 
stroke-linecap:round; stroke-linejoin:round;">
<path d="M9.0932 49.4030
L4.0132 49.4030
" />
</g>
<g style="fill:none; 
stroke:#006464; stroke-width:0.1524; stroke-opacity:1; 
stroke-linecap:round; stroke-linejoin:round;">
<text x="9.3472" y="50.0380"
textLength="4.2551" font-size="1.6933" lengthAdjust="spacingAndGlyphs"
text-anchor="start" opacity="0" stroke-opacity="0">EN+</text>
<g class="stroked-text"><desc>EN+</desc>
<path d="M9.7497 49.3173
L10.1731 49.3173
" />
<path d="M10.3545 49.9825
L9.7497 49.9825
" />
<path d="M9.7497 49.9825
L9.7497 48.7125
" />
<path d="M9.7497 48.7125
L10.3545 48.7125
" />
<path d="M10.8987 49.9825
L10.8987 48.7125
" />
<path d="M10.8987 48.7125
L11.6244 49.9825
" />
<path d="M11.6244 49.9825
L11.6244 48.7125
" />
<path d="M12.2292 49.4987
L13.1969 49.4987
" />
<path d="M12.7130 49.9825
L12.7130 49.0149
" />
</g></g>
<g style="fill:none; 
stroke:#A90000; stroke-width:0.1524; stroke-opacity:1; 
stroke-linecap:round; stroke-linejoin:round;">
<text x="6.5532" y="49.1490"
textLength="2.6222" font-size="1.6933" lengthAdjust="spacingAndGlyphs"
text-anchor="middle" opacity="0" stroke-opacity="0">12</text>
<g class="stroked-text"><desc>12</desc>
<path d="M6.3113 48.9855
L5.5856 48.9855
" />
<path d="M5.9484 48.9855
L5.9484 47.7155
" />
<path d="M5.9484 47.7155
L5.8275 47.8970
" />
<path d="M5.8275 47.8970
L5.7065 48.0179
" />
<path d="M5.7065 48.0179
L5.5856 48.0784
" />
<path d="M6.7951 47.8365
L6.8555 47.7760
" />
<path d="M6.8555 47.7760
L6.9765 47.7155
" />
<path d="M6.9765 47.7155
L7.2789 47.7155
" />
<path d="M7.2789 47.7155
L7.3998 47.7760
" />
<path d="M7.3998 47.7760
L7.4603 47.8365
" />
<path d="M7.4603 47.8365
L7.5208 47.9574
" />
<path d="M7.5208 47.9574
L7.5208 48.0784
" />
<path d="M7.5208 48.0784
L7.4603 48.2598
" />
<path d="M7.4603 48.2598
L6.7346 48.9855
" />
<path d="M6.7346 48.9855
L7.5208 48.9855
" />
</g></g>
<g style="fill:none; 
stroke:#840000; stroke-width:0.1524; stroke-opacity:1; 
stroke-linecap:round; stroke-linejoin:round;">
<path d="M9.0932 54.4830
L4.0132 54.4830
" />
</g>
<g style="fill:none; 
stroke:#006464; stroke-width:0.1524; stroke-opacity:1; 
stroke-linecap:round; stroke-linejoin:round;">
<text x="9.3472" y="55.1180"
textLength="4.2551" font-size="1.6933" lengthAdjust="spacingAndGlyphs"
text-anchor="start" opacity="0" stroke-opacity="0">EN-</text>
<g class="stroked-text"><desc>EN-</desc>
<path d="M9.7497 54.3973
L10.1731 54.3973
" />
<path d="M10.3545 55.0625
L9.7497 55.0625
" />
<path d="M9.7497 55.0625
L9.7497 53.7925
" />
<path d="M9.7497 53.7925
L10.3545 53.7925
" />
<path d="M10.8987 55.0625
L10.8987 53.7925
" />
<path d="M10.8987 53.7925
L11.6244 55.0625
" />
<path d="M11.6244 55.0625
L11.6244 53.7925
" />
<path d="M12.2292 54.5787
L13.1969 54.5787
" />
</g></g>
<g style="fill:none; 
stroke:#A90000; stroke-width:0.1524; stroke-opacity:1; 
stroke-linecap:round; stroke-linejoin:round;">
<text x="6.5532" y="54.2290"
textLength="1.4127" font-size="1.6933" lengthAdjust="spacingAndGlyphs"
text-anchor="middle" opacity="0" stroke-opacity="0">8</text>
<g class="stroked-text"><desc>8</desc>
<path d="M6.4323 53.3398
L6.3113 53.2793
" />
<path d="M6.3113 53.2793
L6.2508 53.2189
" />
<path d="M6.2508 53.2189
L6.1904 53.0979
" />
<path d="M6.1904 53.0979
L6.1904 53.0374
" />
<path d="M6.1904 53.0374
L6.2508 52.9165
" />
<path d="M6.2508 52.9165
L6.3113 52.8560
" />
<path d="M6.3113 52.8560
L6.4323 52.7955
" />
<path d="M6.4323 52.7955
L6.6742 52.7955
" />
<path d="M6.6742 52.7955
L6.7951 52.8560
" />
<path d="M6.7951 52.8560
L6.8556 52.9165
" />
<path d="M6.8556 52.9165
L6.9161 53.0374
" />
<path d="M6.9161 53.0374
L6.9161 53.0979
" />
<path d="M6.9161 53.0979
L6.8556 53.2189
" />
<path d="M6.8556 53.2189
L6.7951 53.2793
" />
<path d="M6.7951 53.2793
L6.6742 53.3398
" />
<path d="M6.6742 53.3398
L6.4323 53.3398
" />
<path d="M6.4323 53.3398
L6.3113 53.4003
" />
<path d="M6.3113 53.4003
L6.2508 53.4608
" />
<path d="M6.2508 53.4608
L6.1904 53.5817
" />
<path d="M6.1904 53.5817
L6.1904 53.8236
" />
<path d="M6.1904 53.8236
L6.2508 53.9446
" />
<path d="M6.2508 53.9446
L6.3113 54.0051
" />
<path d="M6.3113 54.0051
L6.4323 54.0655
" />
<path d="M6.4323 54.0655
L6.6742 54.0655
" />
<path d="M6.6742 54.0655
L6.7951 54.0051
" />
<path d="M6.7951 54.0051
L6.8556 53.9446
" />
<path d="M6.8556 53.9446
L6.9161 53.8236
" />
<path d="M6.9161 53.8236
L6.9161 53.5817
" />
<path d="M6.9161 53.5817
L6.8556 53.4608
" />
<path d="M6.8556 53.4608
L6.7951 53.4003
" />
<path d="M6.7951 53.4003
L6.6742 53.3398
" />
</g></g>
<g style="fill:none; 
stroke:#840000; stroke-width:0.1524; stroke-opacity:1; 
stroke-linecap:round; stroke-linejoin:round;">
<path d="M34.4932 11.3030
L39.5732 11.3030
" />
</g>
<g style="fill:none; 
stroke:#006464; stroke-width:0.1524; stroke-opacity:1; 
stroke-linecap:round; stroke-linejoin:round;">
<text x="34.2392" y="11.9380"
textLength="6.3718" font-size="1.6933" lengthAdjust="spacingAndGlyphs"
text-anchor="end" opacity="0" stroke-opacity="0">CPOUT</text>
<g class="stroked-text"><desc>CPOUT</desc>
<path d="M28.9984 11.7616
L28.9380 11.8221
" />
<path d="M28.9380 11.8221
L28.7565 11.8825
" />
<path d="M28.7565 11.8825
L28.6356 11.8825
" />
<path d="M28.6356 11.8825
L28.4542 11.8221
" />
<path d="M28.4542 11.8221
L28.3332 11.7011
" />
<path d="M28.3332 11.7011
L28.2727 11.5801
" />
<path d="M28.2727 11.5801
L28.2123 11.3382
" />
<path d="M28.2123 11.3382
L28.2123 11.1568
" />
<path d="M28.2123 11.1568
L28.2727 10.9149
" />
<path d="M28.2727 10.9149
L28.3332 10.7940
" />
<path d="M28.3332 10.7940
L28.4542 10.6730
" />
<path d="M28.4542 10.6730
L28.6356 10.6125
" />
<path d="M28.6356 10.6125
L28.7565 10.6125
" />
<path d="M28.7565 10.6125
L28.9380 10.6730
" />
<path d="M28.9380 10.6730
L28.9984 10.7335
" />
<path d="M29.5427 11.8825
L29.5427 10.6125
" />
<path d="M29.5427 10.6125
L30.0265 10.6125
" />
<path d="M30.0265 10.6125
L30.1475 10.6730
" />
<path d="M30.1475 10.6730
L30.2080 10.7335
" />
<path d="M30.2080 10.7335
L30.2684 10.8544
" />
<path d="M30.2684 10.8544
L30.2684 11.0359
" />
<path d="M30.2684 11.0359
L30.2080 11.1568
" />
<path d="M30.2080 11.1568
L30.1475 11.2173
" />
<path d="M30.1475 11.2173
L30.0265 11.2778
" />
<path d="M30.0265 11.2778
L29.5427 11.2778
" />
<path d="M31.0546 10.6125
L31.2965 10.6125
" />
<path d="M31.2965 10.6125
L31.4175 10.6730
" />
<path d="M31.4175 10.6730
L31.5384 10.7940
" />
<path d="M31.5384 10.7940
L31.5989 11.0359
" />
<path d="M31.5989 11.0359
L31.5989 11.4592
" />
<path d="M31.5989 11.4592
L31.5384 11.7011
" />
<path d="M31.5384 11.7011
L31.4175 11.8221
" />
<path d="M31.4175 11.8221
L31.2965 11.8825
" />
<path d="M31.2965 11.8825
L31.0546 11.8825
" />
<path d="M31.0546 11.8825
L30.9337 11.8221
" />
<path d="M30.9337 11.8221
L30.8127 11.7011
" />
<path d="M30.8127 11.7011
L30.7523 11.4592
" />
<path d="M30.7523 11.4592
L30.7523 11.0359
" />
<path d="M30.7523 11.0359
L30.8127 10.7940
" />
<path d="M30.8127 10.7940
L30.9337 10.6730
" />
<path d="M30.9337 10.6730
L31.0546 10.6125
" />
<path d="M32.1432 10.6125
L32.1432 11.6406
" />
<path d="M32.1432 11.6406
L32.2037 11.7616
" />
<path d="M32.2037 11.7616
L32.2642 11.8221
" />
<path d="M32.2642 11.8221
L32.3851 11.8825
" />
<path d="M32.3851 11.8825
L32.6270 11.8825
" />
<path d="M32.6270 11.8825
L32.7480 11.8221
" />
<path d="M32.7480 11.8221
L32.8085 11.7616
" />
<path d="M32.8085 11.7616
L32.8689 11.6406
" />
<path d="M32.8689 11.6406
L32.8689 10.6125
" />
<path d="M33.2923 10.6125
L34.0180 10.6125
" />
<path d="M33.6552 11.8825
L33.6552 10.6125
" />
</g></g>
<g style="fill:none; 
stroke:#A90000; stroke-width:0.1524; stroke-opacity:1; 
stroke-linecap:round; stroke-linejoin:round;">
<text x="37.0332" y="11.0490"
textLength="1.4127" font-size="1.6933" lengthAdjust="spacingAndGlyphs"
text-anchor="middle" opacity="0" stroke-opacity="0">5</text>
<g class="stroked-text"><desc>5</desc>
<path d="M37.3356 9.6155
L36.7308 9.6155
" />
<path d="M36.7308 9.6155
L36.6704 10.2203
" />
<path d="M36.6704 10.2203
L36.7308 10.1598
" />
<path d="M36.7308 10.1598
L36.8518 10.0993
" />
<path d="M36.8518 10.0993
L37.1542 10.0993
" />
<path d="M37.1542 10.0993
L37.2751 10.1598
" />
<path d="M37.2751 10.1598
L37.3356 10.2203
" />
<path d="M37.3356 10.2203
L37.3961 10.3412
" />
<path d="M37.3961 10.3412
L37.3961 10.6436
" />
<path d="M37.3961 10.6436
L37.3356 10.7646
" />
<path d="M37.3356 10.7646
L37.2751 10.8251
" />
<path d="M37.2751 10.8251
L37.1542 10.8855
" />
<path d="M37.1542 10.8855
L36.8518 10.8855
" />
<path d="M36.8518 10.8855
L36.7308 10.8251
" />
<path d="M36.7308 10.8251
L36.6704 10.7646
" />
</g></g>
<g style="fill:none; 
stroke:#840000; stroke-width:0.1524; stroke-opacity:1; 
stroke-linecap:round; stroke-linejoin:round;">
<path d="M34.4932 16.3830
L39.5732 16.3830
" />
</g>
<g style="fill:none; 
stroke:#006464; stroke-width:0.1524; stroke-opacity:1; 
stroke-linecap:round; stroke-linejoin:round;">
<text x="34.2392" y="17.0180"
textLength="5.4042" font-size="1.6933" lengthAdjust="spacingAndGlyphs"
text-anchor="end" opacity="0" stroke-opacity="0">OUT+</text>
<g class="stroked-text"><desc>OUT+</desc>
<path d="M29.4822 15.6925
L29.7241 15.6925
" />
<path d="M29.7241 15.6925
L29.8451 15.7530
" />
<path d="M29.8451 15.7530
L29.9660 15.8740
" />
<path d="M29.9660 15.8740
L30.0265 16.1159
" />
<path d="M30.0265 16.1159
L30.0265 16.5392
" />
<path d="M30.0265 16.5392
L29.9660 16.7811
" />
<path d="M29.9660 16.7811
L29.8451 16.9021
" />
<path d="M29.8451 16.9021
L29.7241 16.9625
" />
<path d="M29.7241 16.9625
L29.4822 16.9625
" />
<path d="M29.4822 16.9625
L29.3613 16.9021
" />
<path d="M29.3613 16.9021
L29.2403 16.7811
" />
<path d="M29.2403 16.7811
L29.1799 16.5392
" />
<path d="M29.1799 16.5392
L29.1799 16.1159
" />
<path d="M29.1799 16.1159
L29.2403 15.8740
" />
<path d="M29.2403 15.8740
L29.3613 15.7530
" />
<path d="M29.3613 15.7530
L29.4822 15.6925
" />
<path d="M30.5708 15.6925
L30.5708 16.7206
" />
<path d="M30.5708 16.7206
L30.6313 16.8416
" />
<path d="M30.6313 16.8416
L30.6918 16.9021
" />
<path d="M30.6918 16.9021
L30.8127 16.9625
" />
<path d="M30.8127 16.9625
L31.0546 16.9625
" />
<path d="M31.0546 16.9625
L31.1756 16.9021
" />
<path d="M31.1756 16.9021
L31.2361 16.8416
" />
<path d="M31.2361 16.8416
L31.2965 16.7206
" />
<path d="M31.2965 16.7206
L31.2965 15.6925
" />
<path d="M31.7199 15.6925
L32.4456 15.6925
" />
<path d="M32.0828 16.9625
L32.0828 15.6925
" />
<path d="M32.8689 16.4787
L33.8366 16.4787
" />
<path d="M33.3527 16.9625
L33.3527 15.9949
" />
</g></g>
<g style="fill:none; 
stroke:#A90000; stroke-width:0.1524; stroke-opacity:1; 
stroke-linecap:round; stroke-linejoin:round;">
<text x="37.0332" y="16.1290"
textLength="2.6222" font-size="1.6933" lengthAdjust="spacingAndGlyphs"
text-anchor="middle" opacity="0" stroke-opacity="0">11</text>
<g class="stroked-text"><desc>11</desc>
<path d="M36.7913 15.9655
L36.0656 15.9655
" />
<path d="M36.4284 15.9655
L36.4284 14.6955
" />
<path d="M36.4284 14.6955
L36.3075 14.8770
" />
<path d="M36.3075 14.8770
L36.1865 14.9979
" />
<path d="M36.1865 14.9979
L36.0656 15.0584
" />
<path d="M38.0008 15.9655
L37.2751 15.9655
" />
<path d="M37.6379 15.9655
L37.6379 14.6955
" />
<path d="M37.6379 14.6955
L37.5170 14.8770
" />
<path d="M37.5170 14.8770
L37.3960 14.9979
" />
<path d="M37.3960 14.9979
L37.2751 15.0584
" />
</g></g>
<g style="fill:none; 
stroke:#840000; stroke-width:0.1524; stroke-opacity:1; 
stroke-linecap:round; stroke-linejoin:round;">
<path d="M34.4932 26.5430
L39.5732 26.5430
" />
</g>
<g style="fill:none; 
stroke:#006464; stroke-width:0.1524; stroke-opacity:1; 
stroke-linecap:round; stroke-linejoin:round;">
<text x="34.2392" y="27.1780"
textLength="4.1342" font-size="1.6933" lengthAdjust="spacingAndGlyphs"
text-anchor="end" opacity="0" stroke-opacity="0">FB+</text>
<g class="stroked-text"><desc>FB+</desc>
<path d="M30.9337 26.4573
L30.5103 26.4573
" />
<path d="M30.5103 27.1225
L30.5103 25.8525
" />
<path d="M30.5103 25.8525
L31.1151 25.8525
" />
<path d="M32.0223 26.4573
L32.2037 26.5178
" />
<path d="M32.2037 26.5178
L32.2642 26.5782
" />
<path d="M32.2642 26.5782
L32.3246 26.6992
" />
<path d="M32.3246 26.6992
L32.3246 26.8806
" />
<path d="M32.3246 26.8806
L32.2642 27.0016
" />
<path d="M32.2642 27.0016
L32.2037 27.0621
" />
<path d="M32.2037 27.0621
L32.0827 27.1225
" />
<path d="M32.0827 27.1225
L31.5989 27.1225
" />
<path d="M31.5989 27.1225
L31.5989 25.8525
" />
<path d="M31.5989 25.8525
L32.0223 25.8525
" />
<path d="M32.0223 25.8525
L32.1432 25.9130
" />
<path d="M32.1432 25.9130
L32.2037 25.9735
" />
<path d="M32.2037 25.9735
L32.2642 26.0944
" />
<path d="M32.2642 26.0944
L32.2642 26.2154
" />
<path d="M32.2642 26.2154
L32.2037 26.3363
" />
<path d="M32.2037 26.3363
L32.1432 26.3968
" />
<path d="M32.1432 26.3968
L32.0223 26.4573
" />
<path d="M32.0223 26.4573
L31.5989 26.4573
" />
<path d="M32.8689 26.6387
L33.8366 26.6387
" />
<path d="M33.3527 27.1225
L33.3527 26.1549
" />
</g></g>
<g style="fill:none; 
stroke:#A90000; stroke-width:0.1524; stroke-opacity:1; 
stroke-linecap:round; stroke-linejoin:round;">
<text x="37.0332" y="26.2890"
textLength="1.4127" font-size="1.6933" lengthAdjust="spacingAndGlyphs"
text-anchor="middle" opacity="0" stroke-opacity="0">2</text>
<g class="stroked-text"><desc>2</desc>
<path d="M36.6704 24.9765
L36.7308 24.9160
" />
<path d="M36.7308 24.9160
L36.8518 24.8555
" />
<path d="M36.8518 24.8555
L37.1542 24.8555
" />
<path d="M37.1542 24.8555
L37.2751 24.9160
" />
<path d="M37.2751 24.9160
L37.3356 24.9765
" />
<path d="M37.3356 24.9765
L37.3961 25.0974
" />
<path d="M37.3961 25.0974
L37.3961 25.2184
" />
<path d="M37.3961 25.2184
L37.3356 25.3998
" />
<path d="M37.3356 25.3998
L36.6099 26.1255
" />
<path d="M36.6099 26.1255
L37.3961 26.1255
" />
</g></g>
<g style="fill:none; 
stroke:#840000; stroke-width:0.1524; stroke-opacity:1; 
stroke-linecap:round; stroke-linejoin:round;">
<path d="M34.4932 46.8630
L39.5732 46.8630
" />
</g>
<g style="fill:none; 
stroke:#006464; stroke-width:0.1524; stroke-opacity:1; 
stroke-linecap:round; stroke-linejoin:round;">
<text x="34.2392" y="47.4980"
textLength="4.1342" font-size="1.6933" lengthAdjust="spacingAndGlyphs"
text-anchor="end" opacity="0" stroke-opacity="0">FB-</text>
<g class="stroked-text"><desc>FB-</desc>
<path d="M30.9337 46.7773
L30.5103 46.7773
" />
<path d="M30.5103 47.4425
L30.5103 46.1725
" />
<path d="M30.5103 46.1725
L31.1151 46.1725
" />
<path d="M32.0223 46.7773
L32.2037 46.8378
" />
<path d="M32.2037 46.8378
L32.2642 46.8982
" />
<path d="M32.2642 46.8982
L32.3246 47.0192
" />
<path d="M32.3246 47.0192
L32.3246 47.2006
" />
<path d="M32.3246 47.2006
L32.2642 47.3216
" />
<path d="M32.2642 47.3216
L32.2037 47.3821
" />
<path d="M32.2037 47.3821
L32.0827 47.4425
" />
<path d="M32.0827 47.4425
L31.5989 47.4425
" />
<path d="M31.5989 47.4425
L31.5989 46.1725
" />
<path d="M31.5989 46.1725
L32.0223 46.1725
" />
<path d="M32.0223 46.1725
L32.1432 46.2330
" />
<path d="M32.1432 46.2330
L32.2037 46.2935
" />
<path d="M32.2037 46.2935
L32.2642 46.4144
" />
<path d="M32.2642 46.4144
L32.2642 46.5354
" />
<path d="M32.2642 46.5354
L32.2037 46.6563
" />
<path d="M32.2037 46.6563
L32.1432 46.7168
" />
<path d="M32.1432 46.7168
L32.0223 46.7773
" />
<path d="M32.0223 46.7773
L31.5989 46.7773
" />
<path d="M32.8689 46.9587
L33.8366 46.9587
" />
</g></g>
<g style="fill:none; 
stroke:#A90000; stroke-width:0.1524; stroke-opacity:1; 
stroke-linecap:round; stroke-linejoin:round;">
<text x="37.0332" y="46.6090"
textLength="1.4127" font-size="1.6933" lengthAdjust="spacingAndGlyphs"
text-anchor="middle" opacity="0" stroke-opacity="0">7</text>
<g class="stroked-text"><desc>7</desc>
<path d="M36.6099 45.1755
L37.4565 45.1755
" />
<path d="M37.4565 45.1755
L36.9123 46.4455
" />
</g></g>
<g style="fill:none; 
stroke:#840000; stroke-width:0.1524; stroke-opacity:1; 
stroke-linecap:round; stroke-linejoin:round;">
<path d="M34.4932 57.0230
L39.5732 57.0230
" />
</g>
<g style="fill:none; 
stroke:#006464; stroke-width:0.1524; stroke-opacity:1; 
stroke-linecap:round; stroke-linejoin:round;">
<text x="34.2392" y="57.6580"
textLength="5.4042" font-size="1.6933" lengthAdjust="spacingAndGlyphs"
text-anchor="end" opacity="0" stroke-opacity="0">OUT-</text>
<g class="stroked-text"><desc>OUT-</desc>
<path d="M29.4822 56.3325
L29.7241 56.3325
" />
<path d="M29.7241 56.3325
L29.8451 56.3930
" />
<path d="M29.8451 56.3930
L29.9660 56.5140
" />
<path d="M29.9660 56.5140
L30.0265 56.7559
" />
<path d="M30.0265 56.7559
L30.0265 57.1792
" />
<path d="M30.0265 57.1792
L29.9660 57.4211
" />
<path d="M29.9660 57.4211
L29.8451 57.5421
" />
<path d="M29.8451 57.5421
L29.7241 57.6025
" />
<path d="M29.7241 57.6025
L29.4822 57.6025
" />
<path d="M29.4822 57.6025
L29.3613 57.5421
" />
<path d="M29.3613 57.5421
L29.2403 57.4211
" />
<path d="M29.2403 57.4211
L29.1799 57.1792
" />
<path d="M29.1799 57.1792
L29.1799 56.7559
" />
<path d="M29.1799 56.7559
L29.2403 56.5140
" />
<path d="M29.2403 56.5140
L29.3613 56.3930
" />
<path d="M29.3613 56.3930
L29.4822 56.3325
" />
<path d="M30.5708 56.3325
L30.5708 57.3606
" />
<path d="M30.5708 57.3606
L30.6313 57.4816
" />
<path d="M30.6313 57.4816
L30.6918 57.5421
" />
<path d="M30.6918 57.5421
L30.8127 57.6025
" />
<path d="M30.8127 57.6025
L31.0546 57.6025
" />
<path d="M31.0546 57.6025
L31.1756 57.5421
" />
<path d="M31.1756 57.5421
L31.2361 57.4816
" />
<path d="M31.2361 57.4816
L31.2965 57.3606
" />
<path d="M31.2965 57.3606
L31.2965 56.3325
" />
<path d="M31.7199 56.3325
L32.4456 56.3325
" />
<path d="M32.0828 57.6025
L32.0828 56.3325
" />
<path d="M32.8689 57.1187
L33.8366 57.1187
" />
</g></g>
<g style="fill:none; 
stroke:#A90000; stroke-width:0.1524; stroke-opacity:1; 
stroke-linecap:round; stroke-linejoin:round;">
<text x="37.0332" y="56.7690"
textLength="1.4127" font-size="1.6933" lengthAdjust="spacingAndGlyphs"
text-anchor="middle" opacity="0" stroke-opacity="0">6</text>
<g class="stroked-text"><desc>6</desc>
<path d="M37.2751 55.3355
L37.0332 55.3355
" />
<path d="M37.0332 55.3355
L36.9123 55.3960
" />
<path d="M36.9123 55.3960
L36.8518 55.4565
" />
<path d="M36.8518 55.4565
L36.7308 55.6379
" />
<path d="M36.7308 55.6379
L36.6704 55.8798
" />
<path d="M36.6704 55.8798
L36.6704 56.3636
" />
<path d="M36.6704 56.3636
L36.7308 56.4846
" />
<path d="M36.7308 56.4846
L36.7913 56.5451
" />
<path d="M36.7913 56.5451
L36.9123 56.6055
" />
<path d="M36.9123 56.6055
L37.1542 56.6055
" />
<path d="M37.1542 56.6055
L37.2751 56.5451
" />
<path d="M37.2751 56.5451
L37.3356 56.4846
" />
<path d="M37.3356 56.4846
L37.3961 56.3636
" />
<path d="M37.3961 56.3636
L37.3961 56.0612
" />
<path d="M37.3961 56.0612
L37.3356 55.9403
" />
<path d="M37.3356 55.9403
L37.2751 55.8798
" />
<path d="M37.2751 55.8798
L37.1542 55.8193
" />
<path d="M37.1542 55.8193
L36.9123 55.8193
" />
<path d="M36.9123 55.8193
L36.7913 55.8798
" />
<path d="M36.7913 55.8798
L36.7308 55.9403
" />
<path d="M36.7308 55.9403
L36.6704 56.0612
" />
</g></g>
<g style="fill:none; 
stroke:#840000; stroke-width:0.1524; stroke-opacity:1; 
stroke-linecap:round; stroke-linejoin:round;">
<path d="M34.4932 62.1030
L39.5732 62.1030
" />
</g>
<g style="fill:none; 
stroke:#006464; stroke-width:0.1524; stroke-opacity:1; 
stroke-linecap:round; stroke-linejoin:round;">
<text x="34.2392" y="62.7380"
textLength="4.0737" font-size="1.6933" lengthAdjust="spacingAndGlyphs"
text-anchor="end" opacity="0" stroke-opacity="0">GND</text>
<g class="stroked-text"><desc>GND</desc>
<path d="M31.2361 61.4730
L31.1151 61.4125
" />
<path d="M31.1151 61.4125
L30.9337 61.4125
" />
<path d="M30.9337 61.4125
L30.7523 61.4730
" />
<path d="M30.7523 61.4730
L30.6313 61.5940
" />
<path d="M30.6313 61.5940
L30.5708 61.7149
" />
<path d="M30.5708 61.7149
L30.5104 61.9568
" />
<path d="M30.5104 61.9568
L30.5104 62.1382
" />
<path d="M30.5104 62.1382
L30.5708 62.3801
" />
<path d="M30.5708 62.3801
L30.6313 62.5011
" />
<path d="M30.6313 62.5011
L30.7523 62.6221
" />
<path d="M30.7523 62.6221
L30.9337 62.6825
" />
<path d="M30.9337 62.6825
L31.0546 62.6825
" />
<path d="M31.0546 62.6825
L31.2361 62.6221
" />
<path d="M31.2361 62.6221
L31.2965 62.5616
" />
<path d="M31.2965 62.5616
L31.2965 62.1382
" />
<path d="M31.2965 62.1382
L31.0546 62.1382
" />
<path d="M31.8408 62.6825
L31.8408 61.4125
" />
<path d="M31.8408 61.4125
L32.5665 62.6825
" />
<path d="M32.5665 62.6825
L32.5665 61.4125
" />
<path d="M33.1713 62.6825
L33.1713 61.4125
" />
<path d="M33.1713 61.4125
L33.4737 61.4125
" />
<path d="M33.4737 61.4125
L33.6551 61.4730
" />
<path d="M33.6551 61.4730
L33.7761 61.5940
" />
<path d="M33.7761 61.5940
L33.8366 61.7149
" />
<path d="M33.8366 61.7149
L33.8970 61.9568
" />
<path d="M33.8970 61.9568
L33.8970 62.1382
" />
<path d="M33.8970 62.1382
L33.8366 62.3801
" />
<path d="M33.8366 62.3801
L33.7761 62.5011
" />
<path d="M33.7761 62.5011
L33.6551 62.6221
" />
<path d="M33.6551 62.6221
L33.4737 62.6825
" />
<path d="M33.4737 62.6825
L33.1713 62.6825
" />
</g></g>
<g style="fill:none; 
stroke:#A90000; stroke-width:0.1524; stroke-opacity:1; 
stroke-linecap:round; stroke-linejoin:round;">
<text x="37.0332" y="61.8490"
textLength="1.4127" font-size="1.6933" lengthAdjust="spacingAndGlyphs"
text-anchor="middle" opacity="0" stroke-opacity="0">4</text>
<g class="stroked-text"><desc>4</desc>
<path d="M37.2751 60.8389
L37.2751 61.6855
" />
<path d="M36.9727 60.3551
L36.6704 61.2622
" />
<path d="M36.6704 61.2622
L37.4565 61.2622
" />
</g></g>
<g style="fill:none; 
stroke:#840000; stroke-width:0.1524; stroke-opacity:1; 
stroke-linecap:round; stroke-linejoin:round;">
<path d="M34.4932 64.6430
L39.5732 64.6430
" />
</g>
<g style="fill:none; 
stroke:#006464; stroke-width:0.1524; stroke-opacity:1; 
stroke-linecap:round; stroke-linejoin:round;">
<text x="34.2392" y="65.2780"
textLength="3.8318" font-size="1.6933" lengthAdjust="spacingAndGlyphs"
text-anchor="end" opacity="0" stroke-opacity="0">PAD</text>
<g class="stroked-text"><desc>PAD</desc>
<path d="M30.8127 65.2225
L30.8127 63.9525
" />
<path d="M30.8127 63.9525
L31.2965 63.9525
" />
<path d="M31.2965 63.9525
L31.4175 64.0130
" />
<path d="M31.4175 64.0130
L31.4780 64.0735
" />
<path d="M31.4780 64.0735
L31.5384 64.1944
" />
<path d="M31.5384 64.1944
L31.5384 64.3759
" />
<path d="M31.5384 64.3759
L31.4780 64.4968
" />
<path d="M31.4780 64.4968
L31.4175 64.5573
" />
<path d="M31.4175 64.5573
L31.2965 64.6178
" />
<path d="M31.2965 64.6178
L30.8127 64.6178
" />
<path d="M32.0223 64.8597
L32.6270 64.8597
" />
<path d="M31.9013 65.2225
L32.3246 63.9525
" />
<path d="M32.3246 63.9525
L32.7480 65.2225
" />
<path d="M33.1713 65.2225
L33.1713 63.9525
" />
<path d="M33.1713 63.9525
L33.4737 63.9525
" />
<path d="M33.4737 63.9525
L33.6551 64.0130
" />
<path d="M33.6551 64.0130
L33.7761 64.1340
" />
<path d="M33.7761 64.1340
L33.8366 64.2549
" />
<path d="M33.8366 64.2549
L33.8970 64.4968
" />
<path d="M33.8970 64.4968
L33.8970 64.6782
" />
<path d="M33.8970 64.6782
L33.8366 64.9201
" />
<path d="M33.8366 64.9201
L33.7761 65.0411
" />
<path d="M33.7761 65.0411
L33.6551 65.1621
" />
<path d="M33.6551 65.1621
L33.4737 65.2225
" />
<path d="M33.4737 65.2225
L33.1713 65.2225
" />
</g></g>
<g style="fill:none; 
stroke:#A90000; stroke-width:0.1524; stroke-opacity:1; 
stroke-linecap:round; stroke-linejoin:round;">
<text x="37.0332" y="64.3890"
textLength="2.6222" font-size="1.6933" lengthAdjust="spacingAndGlyphs"
text-anchor="middle" opacity="0" stroke-opacity="0">13</text>
<g class="stroked-text"><desc>13</desc>
<path d="M36.7913 64.2255
L36.0656 64.2255
" />
<path d="M36.4284 64.2255
L36.4284 62.9555
" />
<path d="M36.4284 62.9555
L36.3075 63.1370
" />
<path d="M36.3075 63.1370
L36.1865 63.2579
" />
<path d="M36.1865 63.2579
L36.0656 63.3184
" />
<path d="M37.2146 62.9555
L38.0008 62.9555
" />
<path d="M38.0008 62.9555
L37.5774 63.4393
" />
<path d="M37.5774 63.4393
L37.7589 63.4393
" />
<path d="M37.7589 63.4393
L37.8798 63.4998
" />
<path d="M37.8798 63.4998
L37.9403 63.5603
" />
<path d="M37.9403 63.5603
L38.0008 63.6812
" />
<path d="M38.0008 63.6812
L38.0008 63.9836
" />
<path d="M38.0008 63.9836
L37.9403 64.1046
" />
<path d="M37.9403 64.1046
L37.8798 64.1651
" />
<path d="M37.8798 64.1651
L37.7589 64.2255
" />
<path d="M37.7589 64.2255
L37.3960 64.2255
" />
<path d="M37.3960 64.2255
L37.2751 64.1651
" />
<path d="M37.2751 64.1651
L37.2146 64.1046
" />
</g></g>
<g style="fill:none; 
stroke:#006464; stroke-width:0.1524; stroke-opacity:1; 
stroke-linecap:round; stroke-linejoin:round;">
<text x="0.0000" y="-1.7780"
textLength="3.0553" font-size="2.0320" lengthAdjust="spacingAndGlyphs"
text-anchor="middle" opacity="0" stroke-opacity="0">U?</text>
<g class="stroked-text"><desc>U?</desc>
<path d="M-1.0885 -3.3669
L-1.0885 -2.1332
" />
<path d="M-1.0885 -2.1332
L-1.0159 -1.9880
" />
<path d="M-1.0159 -1.9880
L-0.9434 -1.9155
" />
<path d="M-0.9434 -1.9155
L-0.7982 -1.8429
" />
<path d="M-0.7982 -1.8429
L-0.5079 -1.8429
" />
<path d="M-0.5079 -1.8429
L-0.3628 -1.9155
" />
<path d="M-0.3628 -1.9155
L-0.2902 -1.9880
" />
<path d="M-0.2902 -1.9880
L-0.2176 -2.1332
" />
<path d="M-0.2176 -2.1332
L-0.2176 -3.3669
" />
<path d="M0.7257 -1.9880
L0.7983 -1.9155
" />
<path d="M0.7983 -1.9155
L0.7257 -1.8429
" />
<path d="M0.7257 -1.8429
L0.6532 -1.9155
" />
<path d="M0.6532 -1.9155
L0.7257 -1.9880
" />
<path d="M0.7257 -1.9880
L0.7257 -1.8429
" />
<path d="M0.4354 -3.2943
L0.5806 -3.3669
" />
<path d="M0.5806 -3.3669
L0.9434 -3.3669
" />
<path d="M0.9434 -3.3669
L1.0886 -3.2943
" />
<path d="M1.0886 -3.2943
L1.1612 -3.1492
" />
<path d="M1.1612 -3.1492
L1.1612 -3.0040
" />
<path d="M1.1612 -3.0040
L1.0886 -2.8589
" />
<path d="M1.0886 -2.8589
L1.0160 -2.7863
" />
<path d="M1.0160 -2.7863
L0.8709 -2.7137
" />
<path d="M0.8709 -2.7137
L0.7983 -2.6412
" />
<path d="M0.7983 -2.6412
L0.7257 -2.4960
" />
<path d="M0.7257 -2.4960
L0.7257 -2.4235
" />
</g><text x="0.0000" y="0.7620"
textLength="10.3848" font-size="2.0320" lengthAdjust="spacingAndGlyphs"
text-anchor="middle" opacity="0" stroke-opacity="0">LM27762</text>
<g class="stroked-text"><desc>LM27762</desc>
<path d="M-4.0276 0.6970
L-4.7533 0.6970
" />
<path d="M-4.7533 0.6970
L-4.7533 -0.8269
" />
<path d="M-3.5196 0.6970
L-3.5196 -0.8269
" />
<path d="M-3.5196 -0.8269
L-3.0116 0.2616
" />
<path d="M-3.0116 0.2616
L-2.5036 -0.8269
" />
<path d="M-2.5036 -0.8269
L-2.5036 0.6970
" />
<path d="M-1.8505 -0.6817
L-1.7779 -0.7543
" />
<path d="M-1.7779 -0.7543
L-1.6328 -0.8269
" />
<path d="M-1.6328 -0.8269
L-1.2699 -0.8269
" />
<path d="M-1.2699 -0.8269
L-1.1248 -0.7543
" />
<path d="M-1.1248 -0.7543
L-1.0522 -0.6817
" />
<path d="M-1.0522 -0.6817
L-0.9796 -0.5366
" />
<path d="M-0.9796 -0.5366
L-0.9796 -0.3915
" />
<path d="M-0.9796 -0.3915
L-1.0522 -0.1737
" />
<path d="M-1.0522 -0.1737
L-1.9230 0.6970
" />
<path d="M-1.9230 0.6970
L-0.9796 0.6970
" />
<path d="M-0.4716 -0.8269
L0.5443 -0.8269
" />
<path d="M0.5443 -0.8269
L-0.1088 0.6970
" />
<path d="M0.9797 -0.8269
L1.9957 -0.8269
" />
<path d="M1.9957 -0.8269
L1.3425 0.6970
" />
<path d="M3.2294 -0.8269
L2.9391 -0.8269
" />
<path d="M2.9391 -0.8269
L2.7939 -0.7543
" />
<path d="M2.7939 -0.7543
L2.7214 -0.6817
" />
<path d="M2.7214 -0.6817
L2.5762 -0.4640
" />
<path d="M2.5762 -0.4640
L2.5036 -0.1737
" />
<path d="M2.5036 -0.1737
L2.5036 0.4067
" />
<path d="M2.5036 0.4067
L2.5762 0.5519
" />
<path d="M2.5762 0.5519
L2.6488 0.6245
" />
<path d="M2.6488 0.6245
L2.7939 0.6970
" />
<path d="M2.7939 0.6970
L3.0842 0.6970
" />
<path d="M3.0842 0.6970
L3.2294 0.6245
" />
<path d="M3.2294 0.6245
L3.3019 0.5519
" />
<path d="M3.3019 0.5519
L3.3745 0.4067
" />
<path d="M3.3745 0.4067
L3.3745 0.0439
" />
<path d="M3.3745 0.0439
L3.3019 -0.1012
" />
<path d="M3.3019 -0.1012
L3.2294 -0.1737
" />
<path d="M3.2294 -0.1737
L3.0842 -0.2463
" />
<path d="M3.0842 -0.2463
L2.7939 -0.2463
" />
<path d="M2.7939 -0.2463
L2.6488 -0.1737
" />
<path d="M2.6488 -0.1737
L2.5762 -0.1012
" />
<path d="M2.5762 -0.1012
L2.5036 0.0439
" />
<path d="M3.9550 -0.6817
L4.0276 -0.7543
" />
<path d="M4.0276 -0.7543
L4.1728 -0.8269
" />
<path d="M4.1728 -0.8269
L4.5356 -0.8269
" />
<path d="M4.5356 -0.8269
L4.6808 -0.7543
" />
<path d="M4.6808 -0.7543
L4.7533 -0.6817
" />
<path d="M4.7533 -0.6817
L4.8259 -0.5366
" />
<path d="M4.8259 -0.5366
L4.8259 -0.3915
" />
<path d="M4.8259 -0.3915
L4.7533 -0.1737
" />
<path d="M4.7533 -0.1737
L3.8825 0.6970
" />
<path d="M3.8825 0.6970
L4.8259 0.6970
" />
</g></g> 
</svg>
