<?xml version="1.0" standalone="no"?>
 <!DOCTYPE svg PUBLIC "-//W3C//DTD SVG 1.1//EN" 
 "http://www.w3.org/Graphics/SVG/1.1/DTD/svg11.dtd"> 
<svg
  xmlns:svg="http://www.w3.org/2000/svg"
  xmlns="http://www.w3.org/2000/svg"
  xmlns:xlink="http://www.w3.org/1999/xlink"
  version="1.1"
  width="100%" height="100%" viewBox="0.0000 0.0000 15.7480 7.0104">
<title>SVG Image created as R_Small_US_unit1.svg date 2026/04/15 15:29:21 </title>
  <desc>Image generated by Eeschema-SVG </desc>
<g style="fill:#000000; fill-opacity:1.0000;stroke:#000000; stroke-opacity:1.0000;
stroke-linecap:round; stroke-linejoin:round;"
 transform="translate(0 0) scale(1 1)">
<path style="fill:none; 
stroke:#840000; stroke-width:0.1524; stroke-opacity:1; 
stroke-linecap:round; stroke-linejoin:round;fill:none"
d="M 2.3261,1.9812
3.3421,2.3622
2.3261,2.7432
1.3101,3.1242
2.3261,3.5052
" /> 
<path style="fill:none; 
stroke:#840000; stroke-width:0.1524; stroke-opacity:1; 
stroke-linecap:round; stroke-linejoin:round;fill:none"
d="M 2.3261,3.5052
3.3421,3.8862
2.3261,4.2672
1.3101,4.6482
2.3261,5.0292
" /> 
</g>
<g style="fill:none; 
stroke:#840000; stroke-width:0.1524; stroke-opacity:1; 
stroke-linecap:round; stroke-linejoin:round;">
<path d="M2.3261 1.9812
L2.3261 0.9652
" />
<path d="M2.3261 5.0292
L2.3261 6.0452
" />
</g>
<g style="fill:none; 
stroke:#006464; stroke-width:0.1524; stroke-opacity:1; 
stroke-linecap:round; stroke-linejoin:round;">
<text x="-4.7859" y="0.1270"
textLength="2.5618" font-size="1.6933" lengthAdjust="spacingAndGlyphs"
text-anchor="start" opacity="0" stroke-opacity="0">R?</text>
<g class="stroked-text"><desc>R?</desc>
<path d="M-3.6577 0.0715
L-4.0810 -0.5331
" />
<path d="M-4.3834 0.0715
L-4.3834 -1.1984
" />
<path d="M-4.3834 -1.1984
L-3.8996 -1.1984
" />
<path d="M-3.8996 -1.1984
L-3.7786 -1.1379
" />
<path d="M-3.7786 -1.1379
L-3.7181 -1.0774
" />
<path d="M-3.7181 -1.0774
L-3.6577 -0.9565
" />
<path d="M-3.6577 -0.9565
L-3.6577 -0.7750
" />
<path d="M-3.6577 -0.7750
L-3.7181 -0.6541
" />
<path d="M-3.7181 -0.6541
L-3.7786 -0.5936
" />
<path d="M-3.7786 -0.5936
L-3.8996 -0.5331
" />
<path d="M-3.8996 -0.5331
L-4.3834 -0.5331
" />
<path d="M-2.9319 -0.0493
L-2.8715 0.0111
" />
<path d="M-2.8715 0.0111
L-2.9319 0.0715
" />
<path d="M-2.9319 0.0715
L-2.9924 0.0111
" />
<path d="M-2.9924 0.0111
L-2.9319 -0.0493
" />
<path d="M-2.9319 -0.0493
L-2.9319 0.0715
" />
<path d="M-3.1738 -1.1379
L-3.0529 -1.1984
" />
<path d="M-3.0529 -1.1984
L-2.7505 -1.1984
" />
<path d="M-2.7505 -1.1984
L-2.6296 -1.1379
" />
<path d="M-2.6296 -1.1379
L-2.5691 -1.0169
" />
<path d="M-2.5691 -1.0169
L-2.5691 -0.8960
" />
<path d="M-2.5691 -0.8960
L-2.6296 -0.7750
" />
<path d="M-2.6296 -0.7750
L-2.6900 -0.7146
" />
<path d="M-2.6900 -0.7146
L-2.8110 -0.6541
" />
<path d="M-2.8110 -0.6541
L-2.8715 -0.5936
" />
<path d="M-2.8715 -0.5936
L-2.9319 -0.4727
" />
<path d="M-2.9319 -0.4727
L-2.9319 -0.4122
" />
</g><text x="-4.7859" y="1.6510"
textLength="11.3306" font-size="1.6933" lengthAdjust="spacingAndGlyphs"
text-anchor="start" opacity="0" stroke-opacity="0">R_Small_US</text>
<g class="stroked-text"><desc>R_Small_US</desc>
<path d="M-3.6577 1.5955
L-4.0810 0.9908
" />
<path d="M-4.3834 1.5955
L-4.3834 0.3255
" />
<path d="M-4.3834 0.3255
L-3.8996 0.3255
" />
<path d="M-3.8996 0.3255
L-3.7786 0.3860
" />
<path d="M-3.7786 0.3860
L-3.7181 0.4465
" />
<path d="M-3.7181 0.4465
L-3.6577 0.5674
" />
<path d="M-3.6577 0.5674
L-3.6577 0.7489
" />
<path d="M-3.6577 0.7489
L-3.7181 0.8698
" />
<path d="M-3.7181 0.8698
L-3.7786 0.9303
" />
<path d="M-3.7786 0.9303
L-3.8996 0.9908
" />
<path d="M-3.8996 0.9908
L-4.3834 0.9908
" />
<path d="M-3.4157 1.7165
L-2.4481 1.7165
" />
<path d="M-2.2062 1.5351
L-2.0248 1.5955
" />
<path d="M-2.0248 1.5955
L-1.7224 1.5955
" />
<path d="M-1.7224 1.5955
L-1.6015 1.5351
" />
<path d="M-1.6015 1.5351
L-1.5410 1.4746
" />
<path d="M-1.5410 1.4746
L-1.4805 1.3536
" />
<path d="M-1.4805 1.3536
L-1.4805 1.2327
" />
<path d="M-1.4805 1.2327
L-1.5410 1.1117
" />
<path d="M-1.5410 1.1117
L-1.6015 1.0512
" />
<path d="M-1.6015 1.0512
L-1.7224 0.9908
" />
<path d="M-1.7224 0.9908
L-1.9643 0.9303
" />
<path d="M-1.9643 0.9303
L-2.0853 0.8698
" />
<path d="M-2.0853 0.8698
L-2.1458 0.8093
" />
<path d="M-2.1458 0.8093
L-2.2062 0.6884
" />
<path d="M-2.2062 0.6884
L-2.2062 0.5674
" />
<path d="M-2.2062 0.5674
L-2.1458 0.4465
" />
<path d="M-2.1458 0.4465
L-2.0853 0.3860
" />
<path d="M-2.0853 0.3860
L-1.9643 0.3255
" />
<path d="M-1.9643 0.3255
L-1.6620 0.3255
" />
<path d="M-1.6620 0.3255
L-1.4805 0.3860
" />
<path d="M-0.9363 1.5955
L-0.9363 0.7489
" />
<path d="M-0.9363 0.8698
L-0.8758 0.8093
" />
<path d="M-0.8758 0.8093
L-0.7548 0.7489
" />
<path d="M-0.7548 0.7489
L-0.5734 0.7489
" />
<path d="M-0.5734 0.7489
L-0.4525 0.8093
" />
<path d="M-0.4525 0.8093
L-0.3920 0.9303
" />
<path d="M-0.3920 0.9303
L-0.3920 1.5955
" />
<path d="M-0.3920 0.9303
L-0.3315 0.8093
" />
<path d="M-0.3315 0.8093
L-0.2106 0.7489
" />
<path d="M-0.2106 0.7489
L-0.0291 0.7489
" />
<path d="M-0.0291 0.7489
L0.0918 0.8093
" />
<path d="M0.0918 0.8093
L0.1523 0.9303
" />
<path d="M0.1523 0.9303
L0.1523 1.5955
" />
<path d="M1.3013 1.5955
L1.3013 0.9303
" />
<path d="M1.3013 0.9303
L1.2408 0.8093
" />
<path d="M1.2408 0.8093
L1.1199 0.7489
" />
<path d="M1.1199 0.7489
L0.8780 0.7489
" />
<path d="M0.8780 0.7489
L0.7570 0.8093
" />
<path d="M1.3013 1.5351
L1.1804 1.5955
" />
<path d="M1.1804 1.5955
L0.8780 1.5955
" />
<path d="M0.8780 1.5955
L0.7570 1.5351
" />
<path d="M0.7570 1.5351
L0.6966 1.4141
" />
<path d="M0.6966 1.4141
L0.6966 1.2931
" />
<path d="M0.6966 1.2931
L0.7570 1.1722
" />
<path d="M0.7570 1.1722
L0.8780 1.1117
" />
<path d="M0.8780 1.1117
L1.1804 1.1117
" />
<path d="M1.1804 1.1117
L1.3013 1.0512
" />
<path d="M2.0875 1.5955
L1.9665 1.5351
" />
<path d="M1.9665 1.5351
L1.9060 1.4141
" />
<path d="M1.9060 1.4141
L1.9060 0.3255
" />
<path d="M2.7527 1.5955
L2.6317 1.5351
" />
<path d="M2.6317 1.5351
L2.5712 1.4141
" />
<path d="M2.5712 1.4141
L2.5712 0.3255
" />
<path d="M2.9341 1.7165
L3.9017 1.7165
" />
<path d="M4.2040 0.3255
L4.2040 1.3536
" />
<path d="M4.2040 1.3536
L4.2645 1.4746
" />
<path d="M4.2645 1.4746
L4.3250 1.5351
" />
<path d="M4.3250 1.5351
L4.4459 1.5955
" />
<path d="M4.4459 1.5955
L4.6878 1.5955
" />
<path d="M4.6878 1.5955
L4.8088 1.5351
" />
<path d="M4.8088 1.5351
L4.8693 1.4746
" />
<path d="M4.8693 1.4746
L4.9297 1.3536
" />
<path d="M4.9297 1.3536
L4.9297 0.3255
" />
<path d="M5.4741 1.5351
L5.6555 1.5955
" />
<path d="M5.6555 1.5955
L5.9579 1.5955
" />
<path d="M5.9579 1.5955
L6.0788 1.5351
" />
<path d="M6.0788 1.5351
L6.1393 1.4746
" />
<path d="M6.1393 1.4746
L6.1998 1.3536
" />
<path d="M6.1998 1.3536
L6.1998 1.2327
" />
<path d="M6.1998 1.2327
L6.1393 1.1117
" />
<path d="M6.1393 1.1117
L6.0788 1.0512
" />
<path d="M6.0788 1.0512
L5.9579 0.9908
" />
<path d="M5.9579 0.9908
L5.7160 0.9303
" />
<path d="M5.7160 0.9303
L5.5950 0.8698
" />
<path d="M5.5950 0.8698
L5.5345 0.8093
" />
<path d="M5.5345 0.8093
L5.4741 0.6884
" />
<path d="M5.4741 0.6884
L5.4741 0.5674
" />
<path d="M5.4741 0.5674
L5.5345 0.4465
" />
<path d="M5.5345 0.4465
L5.5950 0.3860
" />
<path d="M5.5950 0.3860
L5.7160 0.3255
" />
<path d="M5.7160 0.3255
L6.0183 0.3255
" />
<path d="M6.0183 0.3255
L6.1998 0.3860
" />
</g></g> 
</svg>
