<?xml version="1.0" standalone="no"?>
 <!DOCTYPE svg PUBLIC "-//W3C//DTD SVG 1.1//EN" 
 "http://www.w3.org/Graphics/SVG/1.1/DTD/svg11.dtd"> 
<svg
  xmlns:svg="http://www.w3.org/2000/svg"
  xmlns="http://www.w3.org/2000/svg"
  xmlns:xlink="http://www.w3.org/1999/xlink"
  version="1.1"
  width="100%" height="100%" viewBox="0.0000 0.0000 4.5212 5.8166">
<title>SVG Image created as RGT0016A.svg date 2026/04/15 15:21:10 </title>
  <desc>Image generated by PCBNEW </desc>
<g style="fill:#000000; fill-opacity:1.0000;stroke:#000000; stroke-opacity:1.0000;
stroke-linecap:round; stroke-linejoin:round;"
 transform="translate(0 0) scale(1 1)">
<path style="fill:#C83434; fill-opacity:1.0000; stroke:none;fill-rule:evenodd;"
d="M 0.5679,2.9783
1.1679,2.9783
1.1679,3.2182
0.5679,3.2182
Z" /> 
<path style="fill:#C83434; fill-opacity:1.0000; stroke:none;fill-rule:evenodd;"
d="M 0.5679,3.4783
1.1679,3.4783
1.1679,3.7182
0.5679,3.7182
Z" /> 
<path style="fill:#C83434; fill-opacity:1.0000; stroke:none;fill-rule:evenodd;"
d="M 0.5679,3.9782
1.1679,3.9782
1.1679,4.2182
0.5679,4.2182
Z" /> 
<path style="fill:#C83434; fill-opacity:1.0000; stroke:none;fill-rule:evenodd;"
d="M 0.5679,4.4783
1.1679,4.4783
1.1679,4.7182
0.5679,4.7182
Z" /> 
<path style="fill:#C83434; fill-opacity:1.0000; stroke:none;fill-rule:evenodd;"
d="M 1.3979,5.5482
1.3979,4.9482
1.6379,4.9482
1.6379,5.5482
Z" /> 
<path style="fill:#C83434; fill-opacity:1.0000; stroke:none;fill-rule:evenodd;"
d="M 1.8979,5.5482
1.8979,4.9482
2.1379,4.9482
2.1379,5.5482
Z" /> 
<path style="fill:#C83434; fill-opacity:1.0000; stroke:none;fill-rule:evenodd;"
d="M 2.3979,5.5482
2.3979,4.9482
2.6379,4.9482
2.6379,5.5482
Z" /> 
<path style="fill:#C83434; fill-opacity:1.0000; stroke:none;fill-rule:evenodd;"
d="M 2.8979,5.5482
2.8979,4.9482
3.1379,4.9482
3.1379,5.5482
Z" /> 
<path style="fill:#C83434; fill-opacity:1.0000; stroke:none;fill-rule:evenodd;"
d="M 3.3679,4.4783
3.9679,4.4783
3.9679,4.7182
3.3679,4.7182
Z" /> 
<path style="fill:#C83434; fill-opacity:1.0000; stroke:none;fill-rule:evenodd;"
d="M 3.3679,3.9782
3.9679,3.9782
3.9679,4.2182
3.3679,4.2182
Z" /> 
<path style="fill:#C83434; fill-opacity:1.0000; stroke:none;fill-rule:evenodd;"
d="M 3.3679,3.4783
3.9679,3.4783
3.9679,3.7182
3.3679,3.7182
Z" /> 
<path style="fill:#C83434; fill-opacity:1.0000; stroke:none;fill-rule:evenodd;"
d="M 3.3679,2.9783
3.9679,2.9783
3.9679,3.2182
3.3679,3.2182
Z" /> 
<path style="fill:#C83434; fill-opacity:1.0000; stroke:none;fill-rule:evenodd;"
d="M 2.8979,2.7483
2.8979,2.1482
3.1379,2.1482
3.1379,2.7483
Z" /> 
<path style="fill:#C83434; fill-opacity:1.0000; stroke:none;fill-rule:evenodd;"
d="M 2.3979,2.7483
2.3979,2.1482
2.6379,2.1482
2.6379,2.7483
Z" /> 
<path style="fill:#C83434; fill-opacity:1.0000; stroke:none;fill-rule:evenodd;"
d="M 1.8979,2.7483
1.8979,2.1482
2.1379,2.1482
2.1379,2.7483
Z" /> 
<path style="fill:#C83434; fill-opacity:1.0000; stroke:none;fill-rule:evenodd;"
d="M 1.3979,2.7483
1.3979,2.1482
1.6379,2.1482
1.6379,2.7483
Z" /> 
<path style="fill:#C83434; fill-opacity:1.0000; stroke:none;fill-rule:evenodd;"
d="M 1.5429,4.5732
1.5429,3.1232
2.9929,3.1232
2.9929,4.5732
Z" /> 
<path style="fill:#D864FF; fill-opacity:0.4000; stroke:none;fill-rule:evenodd;"
d="M 0.5679,2.9783
1.1679,2.9783
1.1679,3.2182
0.5679,3.2182
Z" /> 
<path style="fill:#D864FF; fill-opacity:0.4000; stroke:none;fill-rule:evenodd;"
d="M 0.5679,3.4783
1.1679,3.4783
1.1679,3.7182
0.5679,3.7182
Z" /> 
<path style="fill:#D864FF; fill-opacity:0.4000; stroke:none;fill-rule:evenodd;"
d="M 0.5679,3.9782
1.1679,3.9782
1.1679,4.2182
0.5679,4.2182
Z" /> 
<path style="fill:#D864FF; fill-opacity:0.4000; stroke:none;fill-rule:evenodd;"
d="M 0.5679,4.4783
1.1679,4.4783
1.1679,4.7182
0.5679,4.7182
Z" /> 
<path style="fill:#D864FF; fill-opacity:0.4000; stroke:none;fill-rule:evenodd;"
d="M 1.3979,5.5482
1.3979,4.9482
1.6379,4.9482
1.6379,5.5482
Z" /> 
<path style="fill:#D864FF; fill-opacity:0.4000; stroke:none;fill-rule:evenodd;"
d="M 1.8979,5.5482
1.8979,4.9482
2.1379,4.9482
2.1379,5.5482
Z" /> 
<path style="fill:#D864FF; fill-opacity:0.4000; stroke:none;fill-rule:evenodd;"
d="M 2.3979,5.5482
2.3979,4.9482
2.6379,4.9482
2.6379,5.5482
Z" /> 
<path style="fill:#D864FF; fill-opacity:0.4000; stroke:none;fill-rule:evenodd;"
d="M 2.8979,5.5482
2.8979,4.9482
3.1379,4.9482
3.1379,5.5482
Z" /> 
<path style="fill:#D864FF; fill-opacity:0.4000; stroke:none;fill-rule:evenodd;"
d="M 3.3679,4.4783
3.9679,4.4783
3.9679,4.7182
3.3679,4.7182
Z" /> 
<path style="fill:#D864FF; fill-opacity:0.4000; stroke:none;fill-rule:evenodd;"
d="M 3.3679,3.9782
3.9679,3.9782
3.9679,4.2182
3.3679,4.2182
Z" /> 
<path style="fill:#D864FF; fill-opacity:0.4000; stroke:none;fill-rule:evenodd;"
d="M 3.3679,3.4783
3.9679,3.4783
3.9679,3.7182
3.3679,3.7182
Z" /> 
<path style="fill:#D864FF; fill-opacity:0.4000; stroke:none;fill-rule:evenodd;"
d="M 3.3679,2.9783
3.9679,2.9783
3.9679,3.2182
3.3679,3.2182
Z" /> 
<path style="fill:#D864FF; fill-opacity:0.4000; stroke:none;fill-rule:evenodd;"
d="M 2.8979,2.7483
2.8979,2.1482
3.1379,2.1482
3.1379,2.7483
Z" /> 
<path style="fill:#D864FF; fill-opacity:0.4000; stroke:none;fill-rule:evenodd;"
d="M 2.3979,2.7483
2.3979,2.1482
2.6379,2.1482
2.6379,2.7483
Z" /> 
<path style="fill:#D864FF; fill-opacity:0.4000; stroke:none;fill-rule:evenodd;"
d="M 1.8979,2.7483
1.8979,2.1482
2.1379,2.1482
2.1379,2.7483
Z" /> 
<path style="fill:#D864FF; fill-opacity:0.4000; stroke:none;fill-rule:evenodd;"
d="M 1.3979,2.7483
1.3979,2.1482
1.6379,2.1482
1.6379,2.7483
Z" /> 
<path style="fill:#D864FF; fill-opacity:0.4000; stroke:none;fill-rule:evenodd;"
d="M 1.5429,4.5732
1.5429,3.1232
2.9929,3.1232
2.9929,4.5732
Z" /> 
<path style="fill:#B4A09A; fill-opacity:0.9000; stroke:none;fill-rule:evenodd;"
d="M 0.5679,2.9783
1.1679,2.9783
1.1679,3.2182
0.5679,3.2182
Z" /> 
<path style="fill:#B4A09A; fill-opacity:0.9000; stroke:none;fill-rule:evenodd;"
d="M 0.5679,3.4783
1.1679,3.4783
1.1679,3.7182
0.5679,3.7182
Z" /> 
<path style="fill:#B4A09A; fill-opacity:0.9000; stroke:none;fill-rule:evenodd;"
d="M 0.5679,3.9782
1.1679,3.9782
1.1679,4.2182
0.5679,4.2182
Z" /> 
<path style="fill:#B4A09A; fill-opacity:0.9000; stroke:none;fill-rule:evenodd;"
d="M 0.5679,4.4783
1.1679,4.4783
1.1679,4.7182
0.5679,4.7182
Z" /> 
<path style="fill:#B4A09A; fill-opacity:0.9000; stroke:none;fill-rule:evenodd;"
d="M 1.3979,5.5482
1.3979,4.9482
1.6379,4.9482
1.6379,5.5482
Z" /> 
<path style="fill:#B4A09A; fill-opacity:0.9000; stroke:none;fill-rule:evenodd;"
d="M 1.8979,5.5482
1.8979,4.9482
2.1379,4.9482
2.1379,5.5482
Z" /> 
<path style="fill:#B4A09A; fill-opacity:0.9000; stroke:none;fill-rule:evenodd;"
d="M 2.3979,5.5482
2.3979,4.9482
2.6379,4.9482
2.6379,5.5482
Z" /> 
<path style="fill:#B4A09A; fill-opacity:0.9000; stroke:none;fill-rule:evenodd;"
d="M 2.8979,5.5482
2.8979,4.9482
3.1379,4.9482
3.1379,5.5482
Z" /> 
<path style="fill:#B4A09A; fill-opacity:0.9000; stroke:none;fill-rule:evenodd;"
d="M 3.3679,4.4783
3.9679,4.4783
3.9679,4.7182
3.3679,4.7182
Z" /> 
<path style="fill:#B4A09A; fill-opacity:0.9000; stroke:none;fill-rule:evenodd;"
d="M 3.3679,3.9782
3.9679,3.9782
3.9679,4.2182
3.3679,4.2182
Z" /> 
<path style="fill:#B4A09A; fill-opacity:0.9000; stroke:none;fill-rule:evenodd;"
d="M 3.3679,3.4783
3.9679,3.4783
3.9679,3.7182
3.3679,3.7182
Z" /> 
<path style="fill:#B4A09A; fill-opacity:0.9000; stroke:none;fill-rule:evenodd;"
d="M 3.3679,2.9783
3.9679,2.9783
3.9679,3.2182
3.3679,3.2182
Z" /> 
<path style="fill:#B4A09A; fill-opacity:0.9000; stroke:none;fill-rule:evenodd;"
d="M 2.8979,2.7483
2.8979,2.1482
3.1379,2.1482
3.1379,2.7483
Z" /> 
<path style="fill:#B4A09A; fill-opacity:0.9000; stroke:none;fill-rule:evenodd;"
d="M 2.3979,2.7483
2.3979,2.1482
2.6379,2.1482
2.6379,2.7483
Z" /> 
<path style="fill:#B4A09A; fill-opacity:0.9000; stroke:none;fill-rule:evenodd;"
d="M 1.8979,2.7483
1.8979,2.1482
2.1379,2.1482
2.1379,2.7483
Z" /> 
<path style="fill:#B4A09A; fill-opacity:0.9000; stroke:none;fill-rule:evenodd;"
d="M 1.3979,2.7483
1.3979,2.1482
1.6379,2.1482
1.6379,2.7483
Z" /> 
<path style="fill:#B4A09A; fill-opacity:0.9000; stroke:none;fill-rule:evenodd;"
d="M 1.5429,4.5732
1.5429,3.1232
2.9929,3.1232
2.9929,4.5732
Z" /> 
</g>
<g style="fill:none; 
stroke:#F2EDA1; stroke-width:0.1500; stroke-opacity:1; 
stroke-linecap:round; stroke-linejoin:round;">
<text x="2.2679" y="1.3482"
textLength="4.5357" font-size="1.3333" lengthAdjust="spacingAndGlyphs"
text-anchor="middle" opacity="0" stroke-opacity="0">REF**</text>
<g class="stroked-text"><desc>REF**</desc>
<path d="M0.9345 1.3031
L0.6012 0.8269
" />
<path d="M0.3631 1.3031
L0.3631 0.3031
" />
<path d="M0.3631 0.3031
L0.7440 0.3031
" />
<path d="M0.7440 0.3031
L0.8393 0.3507
" />
<path d="M0.8393 0.3507
L0.8869 0.3983
" />
<path d="M0.8869 0.3983
L0.9345 0.4935
" />
<path d="M0.9345 0.4935
L0.9345 0.6364
" />
<path d="M0.9345 0.6364
L0.8869 0.7316
" />
<path d="M0.8869 0.7316
L0.8393 0.7793
" />
<path d="M0.8393 0.7793
L0.7440 0.8269
" />
<path d="M0.7440 0.8269
L0.3631 0.8269
" />
<path d="M1.3631 0.7793
L1.6964 0.7793
" />
<path d="M1.8393 1.3031
L1.3631 1.3031
" />
<path d="M1.3631 1.3031
L1.3631 0.3031
" />
<path d="M1.3631 0.3031
L1.8393 0.3031
" />
<path d="M2.6012 0.7793
L2.2679 0.7793
" />
<path d="M2.2679 1.3031
L2.2679 0.3031
" />
<path d="M2.2679 0.3031
L2.7440 0.3031
" />
<path d="M3.2679 0.3031
L3.2679 0.5412
" />
<path d="M3.0298 0.4459
L3.2679 0.5412
" />
<path d="M3.2679 0.5412
L3.5060 0.4459
" />
<path d="M3.1250 0.7316
L3.2679 0.5412
" />
<path d="M3.2679 0.5412
L3.4107 0.7316
" />
<path d="M4.0298 0.3031
L4.0298 0.5412
" />
<path d="M3.7917 0.4459
L4.0298 0.5412
" />
<path d="M4.0298 0.5412
L4.2679 0.4459
" />
<path d="M3.8869 0.7316
L4.0298 0.5412
" />
<path d="M4.0298 0.5412
L4.1726 0.7316
" />
</g></g>
<g style="fill:none; 
stroke:#F2EDA1; stroke-width:0.2000; stroke-opacity:1; 
stroke-linecap:round; stroke-linejoin:round;">
<path d="M0.5429 2.1233
L1.1679 2.1233
" />
<path d="M0.5429 2.7483
L0.5429 2.1233
" />
<path d="M0.5429 5.5732
L0.5429 4.9482
" />
<path d="M0.5429 5.5732
L0.7429 5.5732
" />
<path d="M3.7929 2.1233
L3.9929 2.1233
" />
<path d="M3.7929 5.5732
L3.9929 5.5732
" />
<path d="M3.9929 2.3232
L3.9929 2.1233
" />
<path d="M3.9929 5.5732
L3.9929 5.3732
" />
</g>
<g style="fill:none; 
stroke:#FF26E2; stroke-width:0.0500; stroke-opacity:1; 
stroke-linecap:round; stroke-linejoin:round;">
<path d="M0.3179 1.8982
L0.3179 5.7982
" />
<path d="M0.3179 5.7982
L4.2179 5.7982
" />
<path d="M4.2179 1.8982
L0.3179 1.8982
" />
<path d="M4.2179 5.7982
L4.2179 1.8982
" />
</g>
<g style="fill:none; 
stroke:#AFAFAF; stroke-width:0.1000; stroke-opacity:1; 
stroke-linecap:round; stroke-linejoin:round;">
<path d="M0.6929 2.2732
L0.6929 5.4232
" />
<path d="M0.6929 5.4232
L3.8429 5.4232
" />
<path d="M3.8429 2.2732
L0.6929 2.2732
" />
<path d="M3.8429 5.4232
L3.8429 2.2732
" />
<circle cx="1.2679" cy="3.0982" r="0.3000" /> 
</g> 
</svg>
