<?xml version="1.0" standalone="no"?>
 <!DOCTYPE svg PUBLIC "-//W3C//DTD SVG 1.1//EN" 
 "http://www.w3.org/Graphics/SVG/1.1/DTD/svg11.dtd"> 
<svg
  xmlns:svg="http://www.w3.org/2000/svg"
  xmlns="http://www.w3.org/2000/svg"
  xmlns:xlink="http://www.w3.org/1999/xlink"
  xmlns:inkscape="http://www.inkscape.org/namespaces/inkscape"
  version="1.1"
  width="100%" height="100%" viewBox="0.000000 0.000000 4.876800 5.080000">
<title>SVG Image created as 21-0137I_T833-2_MXM-L.svg date 2026-04-16T05:24:19 </title>
  <desc>Image generated by PCBNEW </desc>
<g style="fill:#000000; fill-opacity:1.000000;stroke:#000000; stroke-opacity:1.000000;
stroke-linecap:round; stroke-linejoin:round;"
 transform="translate(0 0) scale(1 1)">
<path style="fill:#C83434; fill-opacity:1.000000; stroke:none;fill-rule:evenodd;"
d="M 0.878600,0.930001
0.878600,0.625201
1.488200,0.625201
1.488200,0.930001
Z" /> 
<path style="fill:#C83434; fill-opacity:1.000000; stroke:none;fill-rule:evenodd;"
d="M 0.878600,1.579999
0.878600,1.275199
1.488200,1.275199
1.488200,1.579999
Z" /> 
<path style="fill:#C83434; fill-opacity:1.000000; stroke:none;fill-rule:evenodd;"
d="M 0.878600,2.230001
0.878600,1.925201
1.488200,1.925201
1.488200,2.230001
Z" /> 
<path style="fill:#C83434; fill-opacity:1.000000; stroke:none;fill-rule:evenodd;"
d="M 0.878600,2.879999
0.878600,2.575199
1.488200,2.575199
1.488200,2.879999
Z" /> 
<path style="fill:#C83434; fill-opacity:1.000000; stroke:none;fill-rule:evenodd;"
d="M 3.774200,2.879999
3.774200,2.575199
4.383800,2.575199
4.383800,2.879999
Z" /> 
<path style="fill:#C83434; fill-opacity:1.000000; stroke:none;fill-rule:evenodd;"
d="M 3.774200,2.230001
3.774200,1.925201
4.383800,1.925201
4.383800,2.230001
Z" /> 
<path style="fill:#C83434; fill-opacity:1.000000; stroke:none;fill-rule:evenodd;"
d="M 3.774200,1.579999
3.774200,1.275199
4.383800,1.275199
4.383800,1.579999
Z" /> 
<path style="fill:#C83434; fill-opacity:1.000000; stroke:none;fill-rule:evenodd;"
d="M 3.774200,0.930001
3.774200,0.625201
4.383800,0.625201
4.383800,0.930001
Z" /> 
<path style="fill:#C83434; fill-opacity:1.000000; stroke:none;fill-rule:evenodd;"
d="M 1.831100,2.946400
1.831100,0.558800
3.431300,0.558800
3.431300,2.946400
Z" /> 
<path style="fill:#D864FF; fill-opacity:0.400000; stroke:none;fill-rule:evenodd;"
d="M 0.878600,0.930001
0.878600,0.625201
1.488200,0.625201
1.488200,0.930001
Z" /> 
<path style="fill:#D864FF; fill-opacity:0.400000; stroke:none;fill-rule:evenodd;"
d="M 0.878600,1.579999
0.878600,1.275199
1.488200,1.275199
1.488200,1.579999
Z" /> 
<path style="fill:#D864FF; fill-opacity:0.400000; stroke:none;fill-rule:evenodd;"
d="M 0.878600,2.230001
0.878600,1.925201
1.488200,1.925201
1.488200,2.230001
Z" /> 
<path style="fill:#D864FF; fill-opacity:0.400000; stroke:none;fill-rule:evenodd;"
d="M 0.878600,2.879999
0.878600,2.575199
1.488200,2.575199
1.488200,2.879999
Z" /> 
<path style="fill:#D864FF; fill-opacity:0.400000; stroke:none;fill-rule:evenodd;"
d="M 3.774200,2.879999
3.774200,2.575199
4.383800,2.575199
4.383800,2.879999
Z" /> 
<path style="fill:#D864FF; fill-opacity:0.400000; stroke:none;fill-rule:evenodd;"
d="M 3.774200,2.230001
3.774200,1.925201
4.383800,1.925201
4.383800,2.230001
Z" /> 
<path style="fill:#D864FF; fill-opacity:0.400000; stroke:none;fill-rule:evenodd;"
d="M 3.774200,1.579999
3.774200,1.275199
4.383800,1.275199
4.383800,1.579999
Z" /> 
<path style="fill:#D864FF; fill-opacity:0.400000; stroke:none;fill-rule:evenodd;"
d="M 3.774200,0.930001
3.774200,0.625201
4.383800,0.625201
4.383800,0.930001
Z" /> 
<path style="fill:#D864FF; fill-opacity:0.400000; stroke:none;fill-rule:evenodd;"
d="M 1.831100,2.946400
1.831100,0.558800
3.431300,0.558800
3.431300,2.946400
Z" /> 
<path style="fill:#B4A09A; fill-opacity:0.900000; stroke:none;fill-rule:evenodd;"
d="M 0.878600,0.930001
0.878600,0.625201
1.488200,0.625201
1.488200,0.930001
Z" /> 
<path style="fill:#B4A09A; fill-opacity:0.900000; stroke:none;fill-rule:evenodd;"
d="M 0.878600,1.579999
0.878600,1.275199
1.488200,1.275199
1.488200,1.579999
Z" /> 
<path style="fill:#B4A09A; fill-opacity:0.900000; stroke:none;fill-rule:evenodd;"
d="M 0.878600,2.230001
0.878600,1.925201
1.488200,1.925201
1.488200,2.230001
Z" /> 
<path style="fill:#B4A09A; fill-opacity:0.900000; stroke:none;fill-rule:evenodd;"
d="M 0.878600,2.879999
0.878600,2.575199
1.488200,2.575199
1.488200,2.879999
Z" /> 
<path style="fill:#B4A09A; fill-opacity:0.900000; stroke:none;fill-rule:evenodd;"
d="M 3.774200,2.879999
3.774200,2.575199
4.383800,2.575199
4.383800,2.879999
Z" /> 
<path style="fill:#B4A09A; fill-opacity:0.900000; stroke:none;fill-rule:evenodd;"
d="M 3.774200,2.230001
3.774200,1.925201
4.383800,1.925201
4.383800,2.230001
Z" /> 
<path style="fill:#B4A09A; fill-opacity:0.900000; stroke:none;fill-rule:evenodd;"
d="M 3.774200,1.579999
3.774200,1.275199
4.383800,1.275199
4.383800,1.579999
Z" /> 
<path style="fill:#B4A09A; fill-opacity:0.900000; stroke:none;fill-rule:evenodd;"
d="M 3.774200,0.930001
3.774200,0.625201
4.383800,0.625201
4.383800,0.930001
Z" /> 
<path style="fill:#B4A09A; fill-opacity:0.900000; stroke:none;fill-rule:evenodd;"
d="M 1.831100,2.946400
1.831100,0.558800
3.431300,0.558800
3.431300,2.946400
Z" /> 
</g>
<g style="fill:none; 
stroke:#F2EDA1; stroke-width:0.150000; stroke-opacity:1; 
stroke-linecap:round; stroke-linejoin:round;">
<text x="2.631200" y="4.752600"
textLength="4.535715" font-size="1.333333" lengthAdjust="spacingAndGlyphs"
text-anchor="middle" opacity="0" stroke-opacity="0">REF**</text>
<g class="stroked-text"><desc>REF**</desc>
<path d="M1.297867 4.707419
L0.964534 4.231228
" />
<path d="M0.726439 4.707419
L0.726439 3.707419
" />
<path d="M0.726439 3.707419
L1.107391 3.707419
" />
<path d="M1.107391 3.707419
L1.202629 3.755038
" />
<path d="M1.202629 3.755038
L1.250248 3.802657
" />
<path d="M1.250248 3.802657
L1.297867 3.897895
" />
<path d="M1.297867 3.897895
L1.297867 4.040752
" />
<path d="M1.297867 4.040752
L1.250248 4.135990
" />
<path d="M1.250248 4.135990
L1.202629 4.183609
" />
<path d="M1.202629 4.183609
L1.107391 4.231228
" />
<path d="M1.107391 4.231228
L0.726439 4.231228
" />
<path d="M1.726439 4.183609
L2.059772 4.183609
" />
<path d="M2.202629 4.707419
L1.726439 4.707419
" />
<path d="M1.726439 4.707419
L1.726439 3.707419
" />
<path d="M1.726439 3.707419
L2.202629 3.707419
" />
<path d="M2.964533 4.183609
L2.631200 4.183609
" />
<path d="M2.631200 4.707419
L2.631200 3.707419
" />
<path d="M2.631200 3.707419
L3.107390 3.707419
" />
<path d="M3.631200 3.707419
L3.631200 3.945514
" />
<path d="M3.393105 3.850276
L3.631200 3.945514
" />
<path d="M3.631200 3.945514
L3.869295 3.850276
" />
<path d="M3.488343 4.135990
L3.631200 3.945514
" />
<path d="M3.631200 3.945514
L3.774057 4.135990
" />
<path d="M4.393105 3.707419
L4.393105 3.945514
" />
<path d="M4.155010 3.850276
L4.393105 3.945514
" />
<path d="M4.393105 3.945514
L4.631200 3.850276
" />
<path d="M4.250248 4.135990
L4.393105 3.945514
" />
<path d="M4.393105 3.945514
L4.535962 4.135990
" />
</g></g>
<g style="fill:none; 
stroke:#F2EDA1; stroke-width:0.152400; stroke-opacity:1; 
stroke-linecap:round; stroke-linejoin:round;">
<path d="M0.954800 3.429000
L4.307600 3.429000
" />
<path d="M4.307600 0.076200
L0.954800 0.076200
" />
<circle cx="0.177800" cy="0.777600" r="0.101600" /> 
</g>
<g style="fill:none; 
stroke:#FF26E2; stroke-width:0.152400; stroke-opacity:1; 
stroke-linecap:round; stroke-linejoin:round;">
<path d="M0.777000 0.523600
L0.980200 0.523600
" />
<path d="M0.777000 2.981600
L0.777000 0.523600
" />
<path d="M0.777000 2.981600
L0.980200 2.981600
" />
<path d="M0.980200 0.101600
L4.282200 0.101600
" />
<path d="M0.980200 0.523600
L0.980200 0.101600
" />
<path d="M0.980200 3.403600
L0.980200 2.981600
" />
<path d="M4.282200 0.101600
L4.282200 0.523600
" />
<path d="M4.282200 2.981600
L4.282200 3.403600
" />
<path d="M4.282200 3.403600
L0.980200 3.403600
" />
<path d="M4.485400 0.523600
L4.282200 0.523600
" />
<path d="M4.485400 0.523600
L4.485400 2.981600
" />
<path d="M4.485400 2.981600
L4.282200 2.981600
" />
</g>
<g style="fill:none; 
stroke:#AFAFAF; stroke-width:0.150000; stroke-opacity:1; 
stroke-linecap:round; stroke-linejoin:round;">
<text x="2.631200" y="2.252600"
textLength="4.535715" font-size="1.333333" lengthAdjust="spacingAndGlyphs"
text-anchor="middle" opacity="0" stroke-opacity="0">REF**</text>
<g class="stroked-text"><desc>REF**</desc>
<path d="M1.297867 2.207419
L0.964534 1.731229
" />
<path d="M0.726439 2.207419
L0.726439 1.207420
" />
<path d="M0.726439 1.207420
L1.107391 1.207420
" />
<path d="M1.107391 1.207420
L1.202629 1.255039
" />
<path d="M1.202629 1.255039
L1.250248 1.302658
" />
<path d="M1.250248 1.302658
L1.297867 1.397896
" />
<path d="M1.297867 1.397896
L1.297867 1.540753
" />
<path d="M1.297867 1.540753
L1.250248 1.635991
" />
<path d="M1.250248 1.635991
L1.202629 1.683610
" />
<path d="M1.202629 1.683610
L1.107391 1.731229
" />
<path d="M1.107391 1.731229
L0.726439 1.731229
" />
<path d="M1.726439 1.683610
L2.059772 1.683610
" />
<path d="M2.202629 2.207419
L1.726439 2.207419
" />
<path d="M1.726439 2.207419
L1.726439 1.207420
" />
<path d="M1.726439 1.207420
L2.202629 1.207420
" />
<path d="M2.964533 1.683610
L2.631200 1.683610
" />
<path d="M2.631200 2.207419
L2.631200 1.207420
" />
<path d="M2.631200 1.207420
L3.107390 1.207420
" />
<path d="M3.631200 1.207420
L3.631200 1.445515
" />
<path d="M3.393105 1.350277
L3.631200 1.445515
" />
<path d="M3.631200 1.445515
L3.869295 1.350277
" />
<path d="M3.488343 1.635991
L3.631200 1.445515
" />
<path d="M3.631200 1.445515
L3.774057 1.635991
" />
<path d="M4.393105 1.207420
L4.393105 1.445515
" />
<path d="M4.155010 1.350277
L4.393105 1.445515
" />
<path d="M4.393105 1.445515
L4.631200 1.350277
" />
<path d="M4.250248 1.635991
L4.393105 1.445515
" />
<path d="M4.393105 1.445515
L4.535962 1.635991
" />
</g></g>
<g style="fill:none; 
stroke:#AFAFAF; stroke-width:0.025400; stroke-opacity:1; 
stroke-linecap:round; stroke-linejoin:round;">
<path d="M1.081800 0.203200
L1.081800 3.302000
" />
<path d="M1.081800 3.302000
L4.180600 3.302000
" />
<path d="M4.180600 0.203200
L1.081800 0.203200
" />
<path d="M4.180600 3.302000
L4.180600 0.203200
" />
<path d="M2.326400 0.203200 A0.304800 0.304800 0.0 0 0 2.936000 0.203200" />
<circle cx="1.488200" cy="0.777600" r="0.076200" /> 
</g> 
</svg>
