<?xml version="1.0" standalone="no"?>
 <!DOCTYPE svg PUBLIC "-//W3C//DTD SVG 1.1//EN" 
 "http://www.w3.org/Graphics/SVG/1.1/DTD/svg11.dtd"> 
<svg
  xmlns:svg="http://www.w3.org/2000/svg"
  xmlns="http://www.w3.org/2000/svg"
  xmlns:xlink="http://www.w3.org/1999/xlink"
  xmlns:inkscape="http://www.inkscape.org/namespaces/inkscape"
  version="1.1"
  width="100%" height="100%" viewBox="0.0000 0.0000 49.6824 42.7990">
<title>SVG Image created as BNO055_unit1.svg date 2026-04-16T05:24:12 </title>
  <desc>Image generated by Eeschema-SVG </desc>
<g style="fill:#000000; fill-opacity:1.0000;stroke:#000000; stroke-opacity:1.0000;
stroke-linecap:round; stroke-linejoin:round;"
 transform="translate(0 0) scale(1 1)">
</g>
<g style="fill:#FFFFC2; fill-opacity:1.0000; stroke:none;">
<rect x="9.601200" y="6.080200" width="30.480000" height="33.020000" rx="0.000000" />
</g>
<g style="fill:none; 
stroke:#840000; stroke-width:0.2540; stroke-opacity:1; 
stroke-linecap:round; stroke-linejoin:round;">
<rect x="9.601200" y="6.080200" width="30.480000" height="33.020000" rx="0.000000" />
</g>
<g style="fill:none; 
stroke:#840000; stroke-width:0.1524; stroke-opacity:1; 
stroke-linecap:round; stroke-linejoin:round;">
<path d="M40.0812 37.8302
L45.1612 37.8302
" />
</g>
<g style="fill:none; 
stroke:#006464; stroke-width:0.1524; stroke-opacity:1; 
stroke-linecap:round; stroke-linejoin:round;">
<text x="39.5732" y="38.4652"
textLength="4.0737" font-size="1.6933" lengthAdjust="spacingAndGlyphs"
text-anchor="end" opacity="0" stroke-opacity="0">GND</text>
<g class="stroked-text"><desc>GND</desc>
<path d="M36.5701 37.2002
L36.4491 37.1397
" />
<path d="M36.4491 37.1397
L36.2677 37.1397
" />
<path d="M36.2677 37.1397
L36.0863 37.2002
" />
<path d="M36.0863 37.2002
L35.9653 37.3212
" />
<path d="M35.9653 37.3212
L35.9048 37.4421
" />
<path d="M35.9048 37.4421
L35.8444 37.6840
" />
<path d="M35.8444 37.6840
L35.8444 37.8654
" />
<path d="M35.8444 37.8654
L35.9048 38.1073
" />
<path d="M35.9048 38.1073
L35.9653 38.2283
" />
<path d="M35.9653 38.2283
L36.0863 38.3493
" />
<path d="M36.0863 38.3493
L36.2677 38.4097
" />
<path d="M36.2677 38.4097
L36.3886 38.4097
" />
<path d="M36.3886 38.4097
L36.5701 38.3493
" />
<path d="M36.5701 38.3493
L36.6305 38.2888
" />
<path d="M36.6305 38.2888
L36.6305 37.8654
" />
<path d="M36.6305 37.8654
L36.3886 37.8654
" />
<path d="M37.1748 38.4097
L37.1748 37.1397
" />
<path d="M37.1748 37.1397
L37.9005 38.4097
" />
<path d="M37.9005 38.4097
L37.9005 37.1397
" />
<path d="M38.5053 38.4097
L38.5053 37.1397
" />
<path d="M38.5053 37.1397
L38.8077 37.1397
" />
<path d="M38.8077 37.1397
L38.9891 37.2002
" />
<path d="M38.9891 37.2002
L39.1101 37.3212
" />
<path d="M39.1101 37.3212
L39.1706 37.4421
" />
<path d="M39.1706 37.4421
L39.2310 37.6840
" />
<path d="M39.2310 37.6840
L39.2310 37.8654
" />
<path d="M39.2310 37.8654
L39.1706 38.1073
" />
<path d="M39.1706 38.1073
L39.1101 38.2283
" />
<path d="M39.1101 38.2283
L38.9891 38.3493
" />
<path d="M38.9891 38.3493
L38.8077 38.4097
" />
<path d="M38.8077 38.4097
L38.5053 38.4097
" />
</g></g>
<g style="fill:none; 
stroke:#A90000; stroke-width:0.1524; stroke-opacity:1; 
stroke-linecap:round; stroke-linejoin:round;">
<text x="42.6212" y="37.5762"
textLength="1.4127" font-size="1.6933" lengthAdjust="spacingAndGlyphs"
text-anchor="middle" opacity="0" stroke-opacity="0">2</text>
<g class="stroked-text"><desc>2</desc>
<path d="M42.2584 36.2637
L42.3188 36.2032
" />
<path d="M42.3188 36.2032
L42.4398 36.1427
" />
<path d="M42.4398 36.1427
L42.7422 36.1427
" />
<path d="M42.7422 36.1427
L42.8631 36.2032
" />
<path d="M42.8631 36.2032
L42.9236 36.2637
" />
<path d="M42.9236 36.2637
L42.9841 36.3846
" />
<path d="M42.9841 36.3846
L42.9841 36.5056
" />
<path d="M42.9841 36.5056
L42.9236 36.6870
" />
<path d="M42.9236 36.6870
L42.1979 37.4127
" />
<path d="M42.1979 37.4127
L42.9841 37.4127
" />
</g></g>
<g style="fill:none; 
stroke:#840000; stroke-width:0.1524; stroke-opacity:1; 
stroke-linecap:round; stroke-linejoin:round;">
<path d="M40.0812 9.8902
L45.1612 9.8902
" />
</g>
<g style="fill:none; 
stroke:#006464; stroke-width:0.1524; stroke-opacity:1; 
stroke-linecap:round; stroke-linejoin:round;">
<text x="39.5732" y="10.5252"
textLength="3.8318" font-size="1.6933" lengthAdjust="spacingAndGlyphs"
text-anchor="end" opacity="0" stroke-opacity="0">VDD</text>
<g class="stroked-text"><desc>VDD</desc>
<path d="M35.9653 9.1997
L36.3886 10.4697
" />
<path d="M36.3886 10.4697
L36.8120 9.1997
" />
<path d="M37.2353 10.4697
L37.2353 9.1997
" />
<path d="M37.2353 9.1997
L37.5377 9.1997
" />
<path d="M37.5377 9.1997
L37.7191 9.2602
" />
<path d="M37.7191 9.2602
L37.8401 9.3812
" />
<path d="M37.8401 9.3812
L37.9006 9.5021
" />
<path d="M37.9006 9.5021
L37.9610 9.7440
" />
<path d="M37.9610 9.7440
L37.9610 9.9254
" />
<path d="M37.9610 9.9254
L37.9006 10.1673
" />
<path d="M37.9006 10.1673
L37.8401 10.2883
" />
<path d="M37.8401 10.2883
L37.7191 10.4093
" />
<path d="M37.7191 10.4093
L37.5377 10.4697
" />
<path d="M37.5377 10.4697
L37.2353 10.4697
" />
<path d="M38.5053 10.4697
L38.5053 9.1997
" />
<path d="M38.5053 9.1997
L38.8077 9.1997
" />
<path d="M38.8077 9.1997
L38.9891 9.2602
" />
<path d="M38.9891 9.2602
L39.1101 9.3812
" />
<path d="M39.1101 9.3812
L39.1706 9.5021
" />
<path d="M39.1706 9.5021
L39.2310 9.7440
" />
<path d="M39.2310 9.7440
L39.2310 9.9254
" />
<path d="M39.2310 9.9254
L39.1706 10.1673
" />
<path d="M39.1706 10.1673
L39.1101 10.2883
" />
<path d="M39.1101 10.2883
L38.9891 10.4093
" />
<path d="M38.9891 10.4093
L38.8077 10.4697
" />
<path d="M38.8077 10.4697
L38.5053 10.4697
" />
</g></g>
<g style="fill:none; 
stroke:#A90000; stroke-width:0.1524; stroke-opacity:1; 
stroke-linecap:round; stroke-linejoin:round;">
<text x="42.6212" y="9.6362"
textLength="1.4127" font-size="1.6933" lengthAdjust="spacingAndGlyphs"
text-anchor="middle" opacity="0" stroke-opacity="0">3</text>
<g class="stroked-text"><desc>3</desc>
<path d="M42.1979 8.2027
L42.9841 8.2027
" />
<path d="M42.9841 8.2027
L42.5607 8.6865
" />
<path d="M42.5607 8.6865
L42.7422 8.6865
" />
<path d="M42.7422 8.6865
L42.8631 8.7470
" />
<path d="M42.8631 8.7470
L42.9236 8.8075
" />
<path d="M42.9236 8.8075
L42.9841 8.9284
" />
<path d="M42.9841 8.9284
L42.9841 9.2308
" />
<path d="M42.9841 9.2308
L42.9236 9.3518
" />
<path d="M42.9236 9.3518
L42.8631 9.4123
" />
<path d="M42.8631 9.4123
L42.7422 9.4727
" />
<path d="M42.7422 9.4727
L42.3793 9.4727
" />
<path d="M42.3793 9.4727
L42.2584 9.4123
" />
<path d="M42.2584 9.4123
L42.1979 9.3518
" />
</g></g>
<g style="fill:none; 
stroke:#840000; stroke-width:0.1524; stroke-opacity:1; 
stroke-linecap:round; stroke-linejoin:round;">
<path d="M9.6012 22.5902
L4.5212 22.5902
" />
</g>
<g style="fill:none; 
stroke:#006464; stroke-width:0.1524; stroke-opacity:1; 
stroke-linecap:round; stroke-linejoin:round;">
<text x="10.1092" y="23.2252"
textLength="16.2900" font-size="1.6933" lengthAdjust="spacingAndGlyphs"
text-anchor="start" opacity="0" stroke-opacity="0">NBOOT_LOAD_PIN</text>
<g class="stroked-text"><desc>NBOOT_LOAD_PIN</desc>
<path d="M10.5117 23.1697
L10.5117 21.8997
" />
<path d="M10.5117 21.8997
L11.2374 23.1697
" />
<path d="M11.2374 23.1697
L11.2374 21.8997
" />
<path d="M12.2656 22.5045
L12.4470 22.5650
" />
<path d="M12.4470 22.5650
L12.5075 22.6254
" />
<path d="M12.5075 22.6254
L12.5679 22.7464
" />
<path d="M12.5679 22.7464
L12.5679 22.9278
" />
<path d="M12.5679 22.9278
L12.5075 23.0488
" />
<path d="M12.5075 23.0488
L12.4470 23.1093
" />
<path d="M12.4470 23.1093
L12.3260 23.1697
" />
<path d="M12.3260 23.1697
L11.8422 23.1697
" />
<path d="M11.8422 23.1697
L11.8422 21.8997
" />
<path d="M11.8422 21.8997
L12.2656 21.8997
" />
<path d="M12.2656 21.8997
L12.3865 21.9602
" />
<path d="M12.3865 21.9602
L12.4470 22.0207
" />
<path d="M12.4470 22.0207
L12.5075 22.1416
" />
<path d="M12.5075 22.1416
L12.5075 22.2626
" />
<path d="M12.5075 22.2626
L12.4470 22.3835
" />
<path d="M12.4470 22.3835
L12.3865 22.4440
" />
<path d="M12.3865 22.4440
L12.2656 22.5045
" />
<path d="M12.2656 22.5045
L11.8422 22.5045
" />
<path d="M13.3541 21.8997
L13.5960 21.8997
" />
<path d="M13.5960 21.8997
L13.7170 21.9602
" />
<path d="M13.7170 21.9602
L13.8379 22.0812
" />
<path d="M13.8379 22.0812
L13.8984 22.3231
" />
<path d="M13.8984 22.3231
L13.8984 22.7464
" />
<path d="M13.8984 22.7464
L13.8379 22.9883
" />
<path d="M13.8379 22.9883
L13.7170 23.1093
" />
<path d="M13.7170 23.1093
L13.5960 23.1697
" />
<path d="M13.5960 23.1697
L13.3541 23.1697
" />
<path d="M13.3541 23.1697
L13.2332 23.1093
" />
<path d="M13.2332 23.1093
L13.1122 22.9883
" />
<path d="M13.1122 22.9883
L13.0518 22.7464
" />
<path d="M13.0518 22.7464
L13.0518 22.3231
" />
<path d="M13.0518 22.3231
L13.1122 22.0812
" />
<path d="M13.1122 22.0812
L13.2332 21.9602
" />
<path d="M13.2332 21.9602
L13.3541 21.8997
" />
<path d="M14.6846 21.8997
L14.9265 21.8997
" />
<path d="M14.9265 21.8997
L15.0475 21.9602
" />
<path d="M15.0475 21.9602
L15.1684 22.0812
" />
<path d="M15.1684 22.0812
L15.2289 22.3231
" />
<path d="M15.2289 22.3231
L15.2289 22.7464
" />
<path d="M15.2289 22.7464
L15.1684 22.9883
" />
<path d="M15.1684 22.9883
L15.0475 23.1093
" />
<path d="M15.0475 23.1093
L14.9265 23.1697
" />
<path d="M14.9265 23.1697
L14.6846 23.1697
" />
<path d="M14.6846 23.1697
L14.5637 23.1093
" />
<path d="M14.5637 23.1093
L14.4427 22.9883
" />
<path d="M14.4427 22.9883
L14.3823 22.7464
" />
<path d="M14.3823 22.7464
L14.3823 22.3231
" />
<path d="M14.3823 22.3231
L14.4427 22.0812
" />
<path d="M14.4427 22.0812
L14.5637 21.9602
" />
<path d="M14.5637 21.9602
L14.6846 21.8997
" />
<path d="M15.5918 21.8997
L16.3175 21.8997
" />
<path d="M15.9547 23.1697
L15.9547 21.8997
" />
<path d="M16.4385 23.2907
L17.4061 23.2907
" />
<path d="M18.3132 23.1697
L17.7084 23.1697
" />
<path d="M17.7084 23.1697
L17.7084 21.8997
" />
<path d="M18.9784 21.8997
L19.2203 21.8997
" />
<path d="M19.2203 21.8997
L19.3413 21.9602
" />
<path d="M19.3413 21.9602
L19.4622 22.0812
" />
<path d="M19.4622 22.0812
L19.5227 22.3231
" />
<path d="M19.5227 22.3231
L19.5227 22.7464
" />
<path d="M19.5227 22.7464
L19.4622 22.9883
" />
<path d="M19.4622 22.9883
L19.3413 23.1093
" />
<path d="M19.3413 23.1093
L19.2203 23.1697
" />
<path d="M19.2203 23.1697
L18.9784 23.1697
" />
<path d="M18.9784 23.1697
L18.8575 23.1093
" />
<path d="M18.8575 23.1093
L18.7365 22.9883
" />
<path d="M18.7365 22.9883
L18.6761 22.7464
" />
<path d="M18.6761 22.7464
L18.6761 22.3231
" />
<path d="M18.6761 22.3231
L18.7365 22.0812
" />
<path d="M18.7365 22.0812
L18.8575 21.9602
" />
<path d="M18.8575 21.9602
L18.9784 21.8997
" />
<path d="M20.0066 22.8069
L20.6113 22.8069
" />
<path d="M19.8856 23.1697
L20.3089 21.8997
" />
<path d="M20.3089 21.8997
L20.7323 23.1697
" />
<path d="M21.1556 23.1697
L21.1556 21.8997
" />
<path d="M21.1556 21.8997
L21.4580 21.8997
" />
<path d="M21.4580 21.8997
L21.6394 21.9602
" />
<path d="M21.6394 21.9602
L21.7604 22.0812
" />
<path d="M21.7604 22.0812
L21.8209 22.2021
" />
<path d="M21.8209 22.2021
L21.8813 22.4440
" />
<path d="M21.8813 22.4440
L21.8813 22.6254
" />
<path d="M21.8813 22.6254
L21.8209 22.8673
" />
<path d="M21.8209 22.8673
L21.7604 22.9883
" />
<path d="M21.7604 22.9883
L21.6394 23.1093
" />
<path d="M21.6394 23.1093
L21.4580 23.1697
" />
<path d="M21.4580 23.1697
L21.1556 23.1697
" />
<path d="M22.1233 23.2907
L23.0909 23.2907
" />
<path d="M23.3932 23.1697
L23.3932 21.8997
" />
<path d="M23.3932 21.8997
L23.8770 21.8997
" />
<path d="M23.8770 21.8997
L23.9980 21.9602
" />
<path d="M23.9980 21.9602
L24.0585 22.0207
" />
<path d="M24.0585 22.0207
L24.1189 22.1416
" />
<path d="M24.1189 22.1416
L24.1189 22.3231
" />
<path d="M24.1189 22.3231
L24.0585 22.4440
" />
<path d="M24.0585 22.4440
L23.9980 22.5045
" />
<path d="M23.9980 22.5045
L23.8770 22.5650
" />
<path d="M23.8770 22.5650
L23.3932 22.5650
" />
<path d="M24.6632 23.1697
L24.6632 21.8997
" />
<path d="M25.2680 23.1697
L25.2680 21.8997
" />
<path d="M25.2680 21.8997
L25.9937 23.1697
" />
<path d="M25.9937 23.1697
L25.9937 21.8997
" />
</g></g>
<g style="fill:none; 
stroke:#A90000; stroke-width:0.1524; stroke-opacity:1; 
stroke-linecap:round; stroke-linejoin:round;">
<text x="7.0612" y="22.3362"
textLength="1.4127" font-size="1.6933" lengthAdjust="spacingAndGlyphs"
text-anchor="middle" opacity="0" stroke-opacity="0">4</text>
<g class="stroked-text"><desc>4</desc>
<path d="M7.3031 21.3261
L7.3031 22.1727
" />
<path d="M7.0007 20.8423
L6.6984 21.7494
" />
<path d="M6.6984 21.7494
L7.4845 21.7494
" />
</g></g>
<g style="fill:none; 
stroke:#840000; stroke-width:0.1524; stroke-opacity:1; 
stroke-linecap:round; stroke-linejoin:round;">
<path d="M9.6012 12.4302
L4.5212 12.4302
" />
</g>
<g style="fill:none; 
stroke:#006464; stroke-width:0.1524; stroke-opacity:1; 
stroke-linecap:round; stroke-linejoin:round;">
<text x="10.1092" y="13.0652"
textLength="3.8922" font-size="1.6933" lengthAdjust="spacingAndGlyphs"
text-anchor="start" opacity="0" stroke-opacity="0">PS1</text>
<g class="stroked-text"><desc>PS1</desc>
<path d="M10.5117 13.0097
L10.5117 11.7397
" />
<path d="M10.5117 11.7397
L10.9955 11.7397
" />
<path d="M10.9955 11.7397
L11.1165 11.8002
" />
<path d="M11.1165 11.8002
L11.1770 11.8607
" />
<path d="M11.1770 11.8607
L11.2374 11.9816
" />
<path d="M11.2374 11.9816
L11.2374 12.1631
" />
<path d="M11.2374 12.1631
L11.1770 12.2840
" />
<path d="M11.1770 12.2840
L11.1165 12.3445
" />
<path d="M11.1165 12.3445
L10.9955 12.4050
" />
<path d="M10.9955 12.4050
L10.5117 12.4050
" />
<path d="M11.7213 12.9493
L11.9027 13.0097
" />
<path d="M11.9027 13.0097
L12.2051 13.0097
" />
<path d="M12.2051 13.0097
L12.3260 12.9493
" />
<path d="M12.3260 12.9493
L12.3865 12.8888
" />
<path d="M12.3865 12.8888
L12.4470 12.7678
" />
<path d="M12.4470 12.7678
L12.4470 12.6469
" />
<path d="M12.4470 12.6469
L12.3865 12.5259
" />
<path d="M12.3865 12.5259
L12.3260 12.4654
" />
<path d="M12.3260 12.4654
L12.2051 12.4050
" />
<path d="M12.2051 12.4050
L11.9632 12.3445
" />
<path d="M11.9632 12.3445
L11.8422 12.2840
" />
<path d="M11.8422 12.2840
L11.7817 12.2235
" />
<path d="M11.7817 12.2235
L11.7213 12.1026
" />
<path d="M11.7213 12.1026
L11.7213 11.9816
" />
<path d="M11.7213 11.9816
L11.7817 11.8607
" />
<path d="M11.7817 11.8607
L11.8422 11.8002
" />
<path d="M11.8422 11.8002
L11.9632 11.7397
" />
<path d="M11.9632 11.7397
L12.2655 11.7397
" />
<path d="M12.2655 11.7397
L12.4470 11.8002
" />
<path d="M13.6565 13.0097
L12.9308 13.0097
" />
<path d="M13.2936 13.0097
L13.2936 11.7397
" />
<path d="M13.2936 11.7397
L13.1727 11.9212
" />
<path d="M13.1727 11.9212
L13.0517 12.0421
" />
<path d="M13.0517 12.0421
L12.9308 12.1026
" />
</g></g>
<g style="fill:none; 
stroke:#A90000; stroke-width:0.1524; stroke-opacity:1; 
stroke-linecap:round; stroke-linejoin:round;">
<text x="7.0612" y="12.1762"
textLength="1.4127" font-size="1.6933" lengthAdjust="spacingAndGlyphs"
text-anchor="middle" opacity="0" stroke-opacity="0">5</text>
<g class="stroked-text"><desc>5</desc>
<path d="M7.3636 10.7427
L6.7588 10.7427
" />
<path d="M6.7588 10.7427
L6.6984 11.3475
" />
<path d="M6.6984 11.3475
L6.7588 11.2870
" />
<path d="M6.7588 11.2870
L6.8798 11.2265
" />
<path d="M6.8798 11.2265
L7.1822 11.2265
" />
<path d="M7.1822 11.2265
L7.3031 11.2870
" />
<path d="M7.3031 11.2870
L7.3636 11.3475
" />
<path d="M7.3636 11.3475
L7.4241 11.4684
" />
<path d="M7.4241 11.4684
L7.4241 11.7708
" />
<path d="M7.4241 11.7708
L7.3636 11.8918
" />
<path d="M7.3636 11.8918
L7.3031 11.9523
" />
<path d="M7.3031 11.9523
L7.1822 12.0127
" />
<path d="M7.1822 12.0127
L6.8798 12.0127
" />
<path d="M6.8798 12.0127
L6.7588 11.9523
" />
<path d="M6.7588 11.9523
L6.6984 11.8918
" />
</g></g>
<g style="fill:none; 
stroke:#840000; stroke-width:0.1524; stroke-opacity:1; 
stroke-linecap:round; stroke-linejoin:round;">
<path d="M9.6012 9.8902
L4.5212 9.8902
" />
</g>
<g style="fill:none; 
stroke:#006464; stroke-width:0.1524; stroke-opacity:1; 
stroke-linecap:round; stroke-linejoin:round;">
<text x="10.1092" y="10.5252"
textLength="3.8922" font-size="1.6933" lengthAdjust="spacingAndGlyphs"
text-anchor="start" opacity="0" stroke-opacity="0">PS0</text>
<g class="stroked-text"><desc>PS0</desc>
<path d="M10.5117 10.4697
L10.5117 9.1997
" />
<path d="M10.5117 9.1997
L10.9955 9.1997
" />
<path d="M10.9955 9.1997
L11.1165 9.2602
" />
<path d="M11.1165 9.2602
L11.1770 9.3207
" />
<path d="M11.1770 9.3207
L11.2374 9.4416
" />
<path d="M11.2374 9.4416
L11.2374 9.6231
" />
<path d="M11.2374 9.6231
L11.1770 9.7440
" />
<path d="M11.1770 9.7440
L11.1165 9.8045
" />
<path d="M11.1165 9.8045
L10.9955 9.8650
" />
<path d="M10.9955 9.8650
L10.5117 9.8650
" />
<path d="M11.7213 10.4093
L11.9027 10.4697
" />
<path d="M11.9027 10.4697
L12.2051 10.4697
" />
<path d="M12.2051 10.4697
L12.3260 10.4093
" />
<path d="M12.3260 10.4093
L12.3865 10.3488
" />
<path d="M12.3865 10.3488
L12.4470 10.2278
" />
<path d="M12.4470 10.2278
L12.4470 10.1069
" />
<path d="M12.4470 10.1069
L12.3865 9.9859
" />
<path d="M12.3865 9.9859
L12.3260 9.9254
" />
<path d="M12.3260 9.9254
L12.2051 9.8650
" />
<path d="M12.2051 9.8650
L11.9632 9.8045
" />
<path d="M11.9632 9.8045
L11.8422 9.7440
" />
<path d="M11.8422 9.7440
L11.7817 9.6835
" />
<path d="M11.7817 9.6835
L11.7213 9.5626
" />
<path d="M11.7213 9.5626
L11.7213 9.4416
" />
<path d="M11.7213 9.4416
L11.7817 9.3207
" />
<path d="M11.7817 9.3207
L11.8422 9.2602
" />
<path d="M11.8422 9.2602
L11.9632 9.1997
" />
<path d="M11.9632 9.1997
L12.2655 9.1997
" />
<path d="M12.2655 9.1997
L12.4470 9.2602
" />
<path d="M13.2331 9.1997
L13.3541 9.1997
" />
<path d="M13.3541 9.1997
L13.4750 9.2602
" />
<path d="M13.4750 9.2602
L13.5355 9.3207
" />
<path d="M13.5355 9.3207
L13.5960 9.4416
" />
<path d="M13.5960 9.4416
L13.6565 9.6835
" />
<path d="M13.6565 9.6835
L13.6565 9.9859
" />
<path d="M13.6565 9.9859
L13.5960 10.2278
" />
<path d="M13.5960 10.2278
L13.5355 10.3488
" />
<path d="M13.5355 10.3488
L13.4750 10.4093
" />
<path d="M13.4750 10.4093
L13.3541 10.4697
" />
<path d="M13.3541 10.4697
L13.2331 10.4697
" />
<path d="M13.2331 10.4697
L13.1122 10.4093
" />
<path d="M13.1122 10.4093
L13.0517 10.3488
" />
<path d="M13.0517 10.3488
L12.9912 10.2278
" />
<path d="M12.9912 10.2278
L12.9308 9.9859
" />
<path d="M12.9308 9.9859
L12.9308 9.6835
" />
<path d="M12.9308 9.6835
L12.9912 9.4416
" />
<path d="M12.9912 9.4416
L13.0517 9.3207
" />
<path d="M13.0517 9.3207
L13.1122 9.2602
" />
<path d="M13.1122 9.2602
L13.2331 9.1997
" />
</g></g>
<g style="fill:none; 
stroke:#A90000; stroke-width:0.1524; stroke-opacity:1; 
stroke-linecap:round; stroke-linejoin:round;">
<text x="7.0612" y="9.6362"
textLength="1.4127" font-size="1.6933" lengthAdjust="spacingAndGlyphs"
text-anchor="middle" opacity="0" stroke-opacity="0">6</text>
<g class="stroked-text"><desc>6</desc>
<path d="M7.3031 8.2027
L7.0612 8.2027
" />
<path d="M7.0612 8.2027
L6.9403 8.2632
" />
<path d="M6.9403 8.2632
L6.8798 8.3237
" />
<path d="M6.8798 8.3237
L6.7588 8.5051
" />
<path d="M6.7588 8.5051
L6.6984 8.7470
" />
<path d="M6.6984 8.7470
L6.6984 9.2308
" />
<path d="M6.6984 9.2308
L6.7588 9.3518
" />
<path d="M6.7588 9.3518
L6.8193 9.4123
" />
<path d="M6.8193 9.4123
L6.9403 9.4727
" />
<path d="M6.9403 9.4727
L7.1822 9.4727
" />
<path d="M7.1822 9.4727
L7.3031 9.4123
" />
<path d="M7.3031 9.4123
L7.3636 9.3518
" />
<path d="M7.3636 9.3518
L7.4241 9.2308
" />
<path d="M7.4241 9.2308
L7.4241 8.9284
" />
<path d="M7.4241 8.9284
L7.3636 8.8075
" />
<path d="M7.3636 8.8075
L7.3031 8.7470
" />
<path d="M7.3031 8.7470
L7.1822 8.6865
" />
<path d="M7.1822 8.6865
L6.9403 8.6865
" />
<path d="M6.9403 8.6865
L6.8193 8.7470
" />
<path d="M6.8193 8.7470
L6.7588 8.8075
" />
<path d="M6.7588 8.8075
L6.6984 8.9284
" />
</g></g>
<g style="fill:none; 
stroke:#840000; stroke-width:0.1524; stroke-opacity:1; 
stroke-linecap:round; stroke-linejoin:round;">
<path d="M9.6012 37.8302
L4.5212 37.8302
" />
</g>
<g style="fill:none; 
stroke:#006464; stroke-width:0.1524; stroke-opacity:1; 
stroke-linecap:round; stroke-linejoin:round;">
<text x="10.1092" y="38.4652"
textLength="3.8318" font-size="1.6933" lengthAdjust="spacingAndGlyphs"
text-anchor="start" opacity="0" stroke-opacity="0">CAP</text>
<g class="stroked-text"><desc>CAP</desc>
<path d="M11.2374 38.2888
L11.1770 38.3493
" />
<path d="M11.1770 38.3493
L10.9955 38.4097
" />
<path d="M10.9955 38.4097
L10.8746 38.4097
" />
<path d="M10.8746 38.4097
L10.6932 38.3493
" />
<path d="M10.6932 38.3493
L10.5722 38.2283
" />
<path d="M10.5722 38.2283
L10.5117 38.1073
" />
<path d="M10.5117 38.1073
L10.4513 37.8654
" />
<path d="M10.4513 37.8654
L10.4513 37.6840
" />
<path d="M10.4513 37.6840
L10.5117 37.4421
" />
<path d="M10.5117 37.4421
L10.5722 37.3212
" />
<path d="M10.5722 37.3212
L10.6932 37.2002
" />
<path d="M10.6932 37.2002
L10.8746 37.1397
" />
<path d="M10.8746 37.1397
L10.9955 37.1397
" />
<path d="M10.9955 37.1397
L11.1770 37.2002
" />
<path d="M11.1770 37.2002
L11.2374 37.2607
" />
<path d="M11.7213 38.0469
L12.3260 38.0469
" />
<path d="M11.6003 38.4097
L12.0236 37.1397
" />
<path d="M12.0236 37.1397
L12.4470 38.4097
" />
<path d="M12.8703 38.4097
L12.8703 37.1397
" />
<path d="M12.8703 37.1397
L13.3541 37.1397
" />
<path d="M13.3541 37.1397
L13.4751 37.2002
" />
<path d="M13.4751 37.2002
L13.5356 37.2607
" />
<path d="M13.5356 37.2607
L13.5960 37.3816
" />
<path d="M13.5960 37.3816
L13.5960 37.5631
" />
<path d="M13.5960 37.5631
L13.5356 37.6840
" />
<path d="M13.5356 37.6840
L13.4751 37.7445
" />
<path d="M13.4751 37.7445
L13.3541 37.8050
" />
<path d="M13.3541 37.8050
L12.8703 37.8050
" />
</g></g>
<g style="fill:none; 
stroke:#A90000; stroke-width:0.1524; stroke-opacity:1; 
stroke-linecap:round; stroke-linejoin:round;">
<text x="7.0612" y="37.5762"
textLength="1.4127" font-size="1.6933" lengthAdjust="spacingAndGlyphs"
text-anchor="middle" opacity="0" stroke-opacity="0">9</text>
<g class="stroked-text"><desc>9</desc>
<path d="M6.8193 37.4127
L7.0612 37.4127
" />
<path d="M7.0612 37.4127
L7.1822 37.3523
" />
<path d="M7.1822 37.3523
L7.2426 37.2918
" />
<path d="M7.2426 37.2918
L7.3636 37.1103
" />
<path d="M7.3636 37.1103
L7.4241 36.8684
" />
<path d="M7.4241 36.8684
L7.4241 36.3846
" />
<path d="M7.4241 36.3846
L7.3636 36.2637
" />
<path d="M7.3636 36.2637
L7.3031 36.2032
" />
<path d="M7.3031 36.2032
L7.1822 36.1427
" />
<path d="M7.1822 36.1427
L6.9403 36.1427
" />
<path d="M6.9403 36.1427
L6.8193 36.2032
" />
<path d="M6.8193 36.2032
L6.7588 36.2637
" />
<path d="M6.7588 36.2637
L6.6984 36.3846
" />
<path d="M6.6984 36.3846
L6.6984 36.6870
" />
<path d="M6.6984 36.6870
L6.7588 36.8080
" />
<path d="M6.7588 36.8080
L6.8193 36.8684
" />
<path d="M6.8193 36.8684
L6.9403 36.9289
" />
<path d="M6.9403 36.9289
L7.1822 36.9289
" />
<path d="M7.1822 36.9289
L7.3031 36.8684
" />
<path d="M7.3031 36.8684
L7.3636 36.8080
" />
<path d="M7.3636 36.8080
L7.4241 36.6870
" />
</g></g>
<g style="fill:none; 
stroke:#840000; stroke-width:0.1524; stroke-opacity:1; 
stroke-linecap:round; stroke-linejoin:round;">
<path d="M40.0812 27.6702
L45.1612 27.6702
" />
</g>
<g style="fill:none; 
stroke:#006464; stroke-width:0.1524; stroke-opacity:1; 
stroke-linecap:round; stroke-linejoin:round;">
<text x="39.5732" y="28.3052"
textLength="5.8275" font-size="1.6933" lengthAdjust="spacingAndGlyphs"
text-anchor="end" opacity="0" stroke-opacity="0">PIN10</text>
<g class="stroked-text"><desc>PIN10</desc>
<path d="M34.1510 28.2497
L34.1510 26.9797
" />
<path d="M34.1510 26.9797
L34.6348 26.9797
" />
<path d="M34.6348 26.9797
L34.7558 27.0402
" />
<path d="M34.7558 27.0402
L34.8163 27.1007
" />
<path d="M34.8163 27.1007
L34.8767 27.2216
" />
<path d="M34.8767 27.2216
L34.8767 27.4031
" />
<path d="M34.8767 27.4031
L34.8163 27.5240
" />
<path d="M34.8163 27.5240
L34.7558 27.5845
" />
<path d="M34.7558 27.5845
L34.6348 27.6450
" />
<path d="M34.6348 27.6450
L34.1510 27.6450
" />
<path d="M35.4210 28.2497
L35.4210 26.9797
" />
<path d="M36.0258 28.2497
L36.0258 26.9797
" />
<path d="M36.0258 26.9797
L36.7515 28.2497
" />
<path d="M36.7515 28.2497
L36.7515 26.9797
" />
<path d="M38.0216 28.2497
L37.2959 28.2497
" />
<path d="M37.6587 28.2497
L37.6587 26.9797
" />
<path d="M37.6587 26.9797
L37.5378 27.1612
" />
<path d="M37.5378 27.1612
L37.4168 27.2821
" />
<path d="M37.4168 27.2821
L37.2959 27.3426
" />
<path d="M38.8077 26.9797
L38.9287 26.9797
" />
<path d="M38.9287 26.9797
L39.0496 27.0402
" />
<path d="M39.0496 27.0402
L39.1101 27.1007
" />
<path d="M39.1101 27.1007
L39.1706 27.2216
" />
<path d="M39.1706 27.2216
L39.2311 27.4635
" />
<path d="M39.2311 27.4635
L39.2311 27.7659
" />
<path d="M39.2311 27.7659
L39.1706 28.0078
" />
<path d="M39.1706 28.0078
L39.1101 28.1288
" />
<path d="M39.1101 28.1288
L39.0496 28.1893
" />
<path d="M39.0496 28.1893
L38.9287 28.2497
" />
<path d="M38.9287 28.2497
L38.8077 28.2497
" />
<path d="M38.8077 28.2497
L38.6868 28.1893
" />
<path d="M38.6868 28.1893
L38.6263 28.1288
" />
<path d="M38.6263 28.1288
L38.5658 28.0078
" />
<path d="M38.5658 28.0078
L38.5054 27.7659
" />
<path d="M38.5054 27.7659
L38.5054 27.4635
" />
<path d="M38.5054 27.4635
L38.5658 27.2216
" />
<path d="M38.5658 27.2216
L38.6263 27.1007
" />
<path d="M38.6263 27.1007
L38.6868 27.0402
" />
<path d="M38.6868 27.0402
L38.8077 26.9797
" />
</g></g>
<g style="fill:none; 
stroke:#A90000; stroke-width:0.1524; stroke-opacity:1; 
stroke-linecap:round; stroke-linejoin:round;">
<text x="42.6212" y="27.4162"
textLength="2.6222" font-size="1.6933" lengthAdjust="spacingAndGlyphs"
text-anchor="middle" opacity="0" stroke-opacity="0">10</text>
<g class="stroked-text"><desc>10</desc>
<path d="M42.3793 27.2527
L41.6536 27.2527
" />
<path d="M42.0164 27.2527
L42.0164 25.9827
" />
<path d="M42.0164 25.9827
L41.8955 26.1642
" />
<path d="M41.8955 26.1642
L41.7745 26.2851
" />
<path d="M41.7745 26.2851
L41.6536 26.3456
" />
<path d="M43.1654 25.9827
L43.2864 25.9827
" />
<path d="M43.2864 25.9827
L43.4073 26.0432
" />
<path d="M43.4073 26.0432
L43.4678 26.1037
" />
<path d="M43.4678 26.1037
L43.5283 26.2246
" />
<path d="M43.5283 26.2246
L43.5888 26.4665
" />
<path d="M43.5888 26.4665
L43.5888 26.7689
" />
<path d="M43.5888 26.7689
L43.5283 27.0108
" />
<path d="M43.5283 27.0108
L43.4678 27.1318
" />
<path d="M43.4678 27.1318
L43.4073 27.1923
" />
<path d="M43.4073 27.1923
L43.2864 27.2527
" />
<path d="M43.2864 27.2527
L43.1654 27.2527
" />
<path d="M43.1654 27.2527
L43.0445 27.1923
" />
<path d="M43.0445 27.1923
L42.9840 27.1318
" />
<path d="M42.9840 27.1318
L42.9235 27.0108
" />
<path d="M42.9235 27.0108
L42.8631 26.7689
" />
<path d="M42.8631 26.7689
L42.8631 26.4665
" />
<path d="M42.8631 26.4665
L42.9235 26.2246
" />
<path d="M42.9235 26.2246
L42.9840 26.1037
" />
<path d="M42.9840 26.1037
L43.0445 26.0432
" />
<path d="M43.0445 26.0432
L43.1654 25.9827
" />
</g></g>
<g style="fill:none; 
stroke:#840000; stroke-width:0.1524; stroke-opacity:1; 
stroke-linecap:round; stroke-linejoin:round;">
<path d="M9.6012 17.5102
L4.5212 17.5102
" />
</g>
<g style="fill:none; 
stroke:#006464; stroke-width:0.1524; stroke-opacity:1; 
stroke-linecap:round; stroke-linejoin:round;">
<text x="10.1092" y="18.1452"
textLength="7.2788" font-size="1.6933" lengthAdjust="spacingAndGlyphs"
text-anchor="start" opacity="0" stroke-opacity="0">NRESET</text>
<g class="stroked-text"><desc>NRESET</desc>
<path d="M10.5117 18.0897
L10.5117 16.8197
" />
<path d="M10.5117 16.8197
L11.2374 18.0897
" />
<path d="M11.2374 18.0897
L11.2374 16.8197
" />
<path d="M12.5679 18.0897
L12.1446 17.4850
" />
<path d="M11.8422 18.0897
L11.8422 16.8197
" />
<path d="M11.8422 16.8197
L12.3260 16.8197
" />
<path d="M12.3260 16.8197
L12.4470 16.8802
" />
<path d="M12.4470 16.8802
L12.5075 16.9407
" />
<path d="M12.5075 16.9407
L12.5679 17.0616
" />
<path d="M12.5679 17.0616
L12.5679 17.2431
" />
<path d="M12.5679 17.2431
L12.5075 17.3640
" />
<path d="M12.5075 17.3640
L12.4470 17.4245
" />
<path d="M12.4470 17.4245
L12.3260 17.4850
" />
<path d="M12.3260 17.4850
L11.8422 17.4850
" />
<path d="M13.1122 17.4245
L13.5356 17.4245
" />
<path d="M13.7170 18.0897
L13.1122 18.0897
" />
<path d="M13.1122 18.0897
L13.1122 16.8197
" />
<path d="M13.1122 16.8197
L13.7170 16.8197
" />
<path d="M14.2008 18.0293
L14.3822 18.0897
" />
<path d="M14.3822 18.0897
L14.6846 18.0897
" />
<path d="M14.6846 18.0897
L14.8055 18.0293
" />
<path d="M14.8055 18.0293
L14.8660 17.9688
" />
<path d="M14.8660 17.9688
L14.9265 17.8478
" />
<path d="M14.9265 17.8478
L14.9265 17.7269
" />
<path d="M14.9265 17.7269
L14.8660 17.6059
" />
<path d="M14.8660 17.6059
L14.8055 17.5454
" />
<path d="M14.8055 17.5454
L14.6846 17.4850
" />
<path d="M14.6846 17.4850
L14.4427 17.4245
" />
<path d="M14.4427 17.4245
L14.3217 17.3640
" />
<path d="M14.3217 17.3640
L14.2612 17.3035
" />
<path d="M14.2612 17.3035
L14.2008 17.1826
" />
<path d="M14.2008 17.1826
L14.2008 17.0616
" />
<path d="M14.2008 17.0616
L14.2612 16.9407
" />
<path d="M14.2612 16.9407
L14.3217 16.8802
" />
<path d="M14.3217 16.8802
L14.4427 16.8197
" />
<path d="M14.4427 16.8197
L14.7450 16.8197
" />
<path d="M14.7450 16.8197
L14.9265 16.8802
" />
<path d="M15.4707 17.4245
L15.8941 17.4245
" />
<path d="M16.0755 18.0897
L15.4707 18.0897
" />
<path d="M15.4707 18.0897
L15.4707 16.8197
" />
<path d="M15.4707 16.8197
L16.0755 16.8197
" />
<path d="M16.4383 16.8197
L17.1640 16.8197
" />
<path d="M16.8012 18.0897
L16.8012 16.8197
" />
</g></g>
<g style="fill:none; 
stroke:#A90000; stroke-width:0.1524; stroke-opacity:1; 
stroke-linecap:round; stroke-linejoin:round;">
<text x="7.0612" y="17.2562"
textLength="2.6222" font-size="1.6933" lengthAdjust="spacingAndGlyphs"
text-anchor="middle" opacity="0" stroke-opacity="0">11</text>
<g class="stroked-text"><desc>11</desc>
<path d="M6.8193 17.0927
L6.0936 17.0927
" />
<path d="M6.4564 17.0927
L6.4564 15.8227
" />
<path d="M6.4564 15.8227
L6.3355 16.0042
" />
<path d="M6.3355 16.0042
L6.2145 16.1251
" />
<path d="M6.2145 16.1251
L6.0936 16.1856
" />
<path d="M8.0288 17.0927
L7.3031 17.0927
" />
<path d="M7.6659 17.0927
L7.6659 15.8227
" />
<path d="M7.6659 15.8227
L7.5450 16.0042
" />
<path d="M7.5450 16.0042
L7.4240 16.1251
" />
<path d="M7.4240 16.1251
L7.3031 16.1856
" />
</g></g>
<g style="fill:none; 
stroke:#840000; stroke-width:0.1524; stroke-opacity:1; 
stroke-linecap:round; stroke-linejoin:round;">
<path d="M40.0812 20.0502
L45.1612 20.0502
" />
</g>
<g style="fill:none; 
stroke:#006464; stroke-width:0.1524; stroke-opacity:1; 
stroke-linecap:round; stroke-linejoin:round;">
<text x="39.5732" y="20.6852"
textLength="3.1061" font-size="1.6933" lengthAdjust="spacingAndGlyphs"
text-anchor="end" opacity="0" stroke-opacity="0">INT</text>
<g class="stroked-text"><desc>INT</desc>
<path d="M36.8724 20.6297
L36.8724 19.3597
" />
<path d="M37.4772 20.6297
L37.4772 19.3597
" />
<path d="M37.4772 19.3597
L38.2029 20.6297
" />
<path d="M38.2029 20.6297
L38.2029 19.3597
" />
<path d="M38.6263 19.3597
L39.3520 19.3597
" />
<path d="M38.9892 20.6297
L38.9892 19.3597
" />
</g></g>
<g style="fill:none; 
stroke:#A90000; stroke-width:0.1524; stroke-opacity:1; 
stroke-linecap:round; stroke-linejoin:round;">
<text x="42.6212" y="19.7962"
textLength="2.6222" font-size="1.6933" lengthAdjust="spacingAndGlyphs"
text-anchor="middle" opacity="0" stroke-opacity="0">14</text>
<g class="stroked-text"><desc>14</desc>
<path d="M42.3793 19.6327
L41.6536 19.6327
" />
<path d="M42.0164 19.6327
L42.0164 18.3627
" />
<path d="M42.0164 18.3627
L41.8955 18.5442
" />
<path d="M41.8955 18.5442
L41.7745 18.6651
" />
<path d="M41.7745 18.6651
L41.6536 18.7256
" />
<path d="M43.4678 18.7861
L43.4678 19.6327
" />
<path d="M43.1654 18.3023
L42.8631 19.2094
" />
<path d="M42.8631 19.2094
L43.6492 19.2094
" />
</g></g>
<g style="fill:none; 
stroke:#840000; stroke-width:0.1524; stroke-opacity:1; 
stroke-linecap:round; stroke-linejoin:round;">
<path d="M40.0812 30.2102
L45.1612 30.2102
" />
</g>
<g style="fill:none; 
stroke:#006464; stroke-width:0.1524; stroke-opacity:1; 
stroke-linecap:round; stroke-linejoin:round;">
<text x="39.5732" y="30.8452"
textLength="5.8275" font-size="1.6933" lengthAdjust="spacingAndGlyphs"
text-anchor="end" opacity="0" stroke-opacity="0">PIN15</text>
<g class="stroked-text"><desc>PIN15</desc>
<path d="M34.1510 30.7897
L34.1510 29.5197
" />
<path d="M34.1510 29.5197
L34.6348 29.5197
" />
<path d="M34.6348 29.5197
L34.7558 29.5802
" />
<path d="M34.7558 29.5802
L34.8163 29.6407
" />
<path d="M34.8163 29.6407
L34.8767 29.7616
" />
<path d="M34.8767 29.7616
L34.8767 29.9431
" />
<path d="M34.8767 29.9431
L34.8163 30.0640
" />
<path d="M34.8163 30.0640
L34.7558 30.1245
" />
<path d="M34.7558 30.1245
L34.6348 30.1850
" />
<path d="M34.6348 30.1850
L34.1510 30.1850
" />
<path d="M35.4210 30.7897
L35.4210 29.5197
" />
<path d="M36.0258 30.7897
L36.0258 29.5197
" />
<path d="M36.0258 29.5197
L36.7515 30.7897
" />
<path d="M36.7515 30.7897
L36.7515 29.5197
" />
<path d="M38.0216 30.7897
L37.2959 30.7897
" />
<path d="M37.6587 30.7897
L37.6587 29.5197
" />
<path d="M37.6587 29.5197
L37.5378 29.7012
" />
<path d="M37.5378 29.7012
L37.4168 29.8221
" />
<path d="M37.4168 29.8221
L37.2959 29.8826
" />
<path d="M39.1706 29.5197
L38.5658 29.5197
" />
<path d="M38.5658 29.5197
L38.5054 30.1245
" />
<path d="M38.5054 30.1245
L38.5658 30.0640
" />
<path d="M38.5658 30.0640
L38.6868 30.0035
" />
<path d="M38.6868 30.0035
L38.9892 30.0035
" />
<path d="M38.9892 30.0035
L39.1101 30.0640
" />
<path d="M39.1101 30.0640
L39.1706 30.1245
" />
<path d="M39.1706 30.1245
L39.2311 30.2454
" />
<path d="M39.2311 30.2454
L39.2311 30.5478
" />
<path d="M39.2311 30.5478
L39.1706 30.6688
" />
<path d="M39.1706 30.6688
L39.1101 30.7293
" />
<path d="M39.1101 30.7293
L38.9892 30.7897
" />
<path d="M38.9892 30.7897
L38.6868 30.7897
" />
<path d="M38.6868 30.7897
L38.5658 30.7293
" />
<path d="M38.5658 30.7293
L38.5054 30.6688
" />
</g></g>
<g style="fill:none; 
stroke:#A90000; stroke-width:0.1524; stroke-opacity:1; 
stroke-linecap:round; stroke-linejoin:round;">
<text x="42.6212" y="29.9562"
textLength="2.6222" font-size="1.6933" lengthAdjust="spacingAndGlyphs"
text-anchor="middle" opacity="0" stroke-opacity="0">15</text>
<g class="stroked-text"><desc>15</desc>
<path d="M42.3793 29.7927
L41.6536 29.7927
" />
<path d="M42.0164 29.7927
L42.0164 28.5227
" />
<path d="M42.0164 28.5227
L41.8955 28.7042
" />
<path d="M41.8955 28.7042
L41.7745 28.8251
" />
<path d="M41.7745 28.8251
L41.6536 28.8856
" />
<path d="M43.5283 28.5227
L42.9235 28.5227
" />
<path d="M42.9235 28.5227
L42.8631 29.1275
" />
<path d="M42.8631 29.1275
L42.9235 29.0670
" />
<path d="M42.9235 29.0670
L43.0445 29.0065
" />
<path d="M43.0445 29.0065
L43.3469 29.0065
" />
<path d="M43.3469 29.0065
L43.4678 29.0670
" />
<path d="M43.4678 29.0670
L43.5283 29.1275
" />
<path d="M43.5283 29.1275
L43.5888 29.2484
" />
<path d="M43.5888 29.2484
L43.5888 29.5508
" />
<path d="M43.5888 29.5508
L43.5283 29.6718
" />
<path d="M43.5283 29.6718
L43.4678 29.7323
" />
<path d="M43.4678 29.7323
L43.3469 29.7927
" />
<path d="M43.3469 29.7927
L43.0445 29.7927
" />
<path d="M43.0445 29.7927
L42.9235 29.7323
" />
<path d="M42.9235 29.7323
L42.8631 29.6718
" />
</g></g>
<g style="fill:none; 
stroke:#840000; stroke-width:0.1524; stroke-opacity:1; 
stroke-linecap:round; stroke-linejoin:round;">
<path d="M40.0812 32.7502
L45.1612 32.7502
" />
</g>
<g style="fill:none; 
stroke:#006464; stroke-width:0.1524; stroke-opacity:1; 
stroke-linecap:round; stroke-linejoin:round;">
<text x="39.5732" y="33.3852"
textLength="5.8275" font-size="1.6933" lengthAdjust="spacingAndGlyphs"
text-anchor="end" opacity="0" stroke-opacity="0">PIN16</text>
<g class="stroked-text"><desc>PIN16</desc>
<path d="M34.1510 33.3297
L34.1510 32.0597
" />
<path d="M34.1510 32.0597
L34.6348 32.0597
" />
<path d="M34.6348 32.0597
L34.7558 32.1202
" />
<path d="M34.7558 32.1202
L34.8163 32.1807
" />
<path d="M34.8163 32.1807
L34.8767 32.3016
" />
<path d="M34.8767 32.3016
L34.8767 32.4831
" />
<path d="M34.8767 32.4831
L34.8163 32.6040
" />
<path d="M34.8163 32.6040
L34.7558 32.6645
" />
<path d="M34.7558 32.6645
L34.6348 32.7250
" />
<path d="M34.6348 32.7250
L34.1510 32.7250
" />
<path d="M35.4210 33.3297
L35.4210 32.0597
" />
<path d="M36.0258 33.3297
L36.0258 32.0597
" />
<path d="M36.0258 32.0597
L36.7515 33.3297
" />
<path d="M36.7515 33.3297
L36.7515 32.0597
" />
<path d="M38.0216 33.3297
L37.2959 33.3297
" />
<path d="M37.6587 33.3297
L37.6587 32.0597
" />
<path d="M37.6587 32.0597
L37.5378 32.2412
" />
<path d="M37.5378 32.2412
L37.4168 32.3621
" />
<path d="M37.4168 32.3621
L37.2959 32.4226
" />
<path d="M39.1101 32.0597
L38.8682 32.0597
" />
<path d="M38.8682 32.0597
L38.7473 32.1202
" />
<path d="M38.7473 32.1202
L38.6868 32.1807
" />
<path d="M38.6868 32.1807
L38.5658 32.3621
" />
<path d="M38.5658 32.3621
L38.5054 32.6040
" />
<path d="M38.5054 32.6040
L38.5054 33.0878
" />
<path d="M38.5054 33.0878
L38.5658 33.2088
" />
<path d="M38.5658 33.2088
L38.6263 33.2693
" />
<path d="M38.6263 33.2693
L38.7473 33.3297
" />
<path d="M38.7473 33.3297
L38.9892 33.3297
" />
<path d="M38.9892 33.3297
L39.1101 33.2693
" />
<path d="M39.1101 33.2693
L39.1706 33.2088
" />
<path d="M39.1706 33.2088
L39.2311 33.0878
" />
<path d="M39.2311 33.0878
L39.2311 32.7854
" />
<path d="M39.2311 32.7854
L39.1706 32.6645
" />
<path d="M39.1706 32.6645
L39.1101 32.6040
" />
<path d="M39.1101 32.6040
L38.9892 32.5435
" />
<path d="M38.9892 32.5435
L38.7473 32.5435
" />
<path d="M38.7473 32.5435
L38.6263 32.6040
" />
<path d="M38.6263 32.6040
L38.5658 32.6645
" />
<path d="M38.5658 32.6645
L38.5054 32.7854
" />
</g></g>
<g style="fill:none; 
stroke:#A90000; stroke-width:0.1524; stroke-opacity:1; 
stroke-linecap:round; stroke-linejoin:round;">
<text x="42.6212" y="32.4962"
textLength="2.6222" font-size="1.6933" lengthAdjust="spacingAndGlyphs"
text-anchor="middle" opacity="0" stroke-opacity="0">16</text>
<g class="stroked-text"><desc>16</desc>
<path d="M42.3793 32.3327
L41.6536 32.3327
" />
<path d="M42.0164 32.3327
L42.0164 31.0627
" />
<path d="M42.0164 31.0627
L41.8955 31.2442
" />
<path d="M41.8955 31.2442
L41.7745 31.3651
" />
<path d="M41.7745 31.3651
L41.6536 31.4256
" />
<path d="M43.4678 31.0627
L43.2259 31.0627
" />
<path d="M43.2259 31.0627
L43.1050 31.1232
" />
<path d="M43.1050 31.1232
L43.0445 31.1837
" />
<path d="M43.0445 31.1837
L42.9235 31.3651
" />
<path d="M42.9235 31.3651
L42.8631 31.6070
" />
<path d="M42.8631 31.6070
L42.8631 32.0908
" />
<path d="M42.8631 32.0908
L42.9235 32.2118
" />
<path d="M42.9235 32.2118
L42.9840 32.2723
" />
<path d="M42.9840 32.2723
L43.1050 32.3327
" />
<path d="M43.1050 32.3327
L43.3469 32.3327
" />
<path d="M43.3469 32.3327
L43.4678 32.2723
" />
<path d="M43.4678 32.2723
L43.5283 32.2118
" />
<path d="M43.5283 32.2118
L43.5888 32.0908
" />
<path d="M43.5888 32.0908
L43.5888 31.7884
" />
<path d="M43.5888 31.7884
L43.5283 31.6675
" />
<path d="M43.5283 31.6675
L43.4678 31.6070
" />
<path d="M43.4678 31.6070
L43.3469 31.5465
" />
<path d="M43.3469 31.5465
L43.1050 31.5465
" />
<path d="M43.1050 31.5465
L42.9840 31.6070
" />
<path d="M42.9840 31.6070
L42.9235 31.6675
" />
<path d="M42.9235 31.6675
L42.8631 31.7884
" />
</g></g>
<g style="fill:none; 
stroke:#840000; stroke-width:0.1524; stroke-opacity:1; 
stroke-linecap:round; stroke-linejoin:round;">
<path d="M9.6012 32.7502
L4.5212 32.7502
" />
</g>
<g style="fill:none; 
stroke:#006464; stroke-width:0.1524; stroke-opacity:1; 
stroke-linecap:round; stroke-linejoin:round;">
<text x="10.1092" y="33.3852"
textLength="5.4646" font-size="1.6933" lengthAdjust="spacingAndGlyphs"
text-anchor="start" opacity="0" stroke-opacity="0">COM3</text>
<g class="stroked-text"><desc>COM3</desc>
<path d="M11.2374 33.2088
L11.1770 33.2693
" />
<path d="M11.1770 33.2693
L10.9955 33.3297
" />
<path d="M10.9955 33.3297
L10.8746 33.3297
" />
<path d="M10.8746 33.3297
L10.6932 33.2693
" />
<path d="M10.6932 33.2693
L10.5722 33.1483
" />
<path d="M10.5722 33.1483
L10.5117 33.0273
" />
<path d="M10.5117 33.0273
L10.4513 32.7854
" />
<path d="M10.4513 32.7854
L10.4513 32.6040
" />
<path d="M10.4513 32.6040
L10.5117 32.3621
" />
<path d="M10.5117 32.3621
L10.5722 32.2412
" />
<path d="M10.5722 32.2412
L10.6932 32.1202
" />
<path d="M10.6932 32.1202
L10.8746 32.0597
" />
<path d="M10.8746 32.0597
L10.9955 32.0597
" />
<path d="M10.9955 32.0597
L11.1770 32.1202
" />
<path d="M11.1770 32.1202
L11.2374 32.1807
" />
<path d="M12.0236 32.0597
L12.2655 32.0597
" />
<path d="M12.2655 32.0597
L12.3865 32.1202
" />
<path d="M12.3865 32.1202
L12.5074 32.2412
" />
<path d="M12.5074 32.2412
L12.5679 32.4831
" />
<path d="M12.5679 32.4831
L12.5679 32.9064
" />
<path d="M12.5679 32.9064
L12.5074 33.1483
" />
<path d="M12.5074 33.1483
L12.3865 33.2693
" />
<path d="M12.3865 33.2693
L12.2655 33.3297
" />
<path d="M12.2655 33.3297
L12.0236 33.3297
" />
<path d="M12.0236 33.3297
L11.9027 33.2693
" />
<path d="M11.9027 33.2693
L11.7817 33.1483
" />
<path d="M11.7817 33.1483
L11.7213 32.9064
" />
<path d="M11.7213 32.9064
L11.7213 32.4831
" />
<path d="M11.7213 32.4831
L11.7817 32.2412
" />
<path d="M11.7817 32.2412
L11.9027 32.1202
" />
<path d="M11.9027 32.1202
L12.0236 32.0597
" />
<path d="M13.1122 33.3297
L13.1122 32.0597
" />
<path d="M13.1122 32.0597
L13.5356 32.9669
" />
<path d="M13.5356 32.9669
L13.9589 32.0597
" />
<path d="M13.9589 32.0597
L13.9589 33.3297
" />
<path d="M14.4427 32.0597
L15.2289 32.0597
" />
<path d="M15.2289 32.0597
L14.8055 32.5435
" />
<path d="M14.8055 32.5435
L14.9870 32.5435
" />
<path d="M14.9870 32.5435
L15.1079 32.6040
" />
<path d="M15.1079 32.6040
L15.1684 32.6645
" />
<path d="M15.1684 32.6645
L15.2289 32.7854
" />
<path d="M15.2289 32.7854
L15.2289 33.0878
" />
<path d="M15.2289 33.0878
L15.1684 33.2088
" />
<path d="M15.1684 33.2088
L15.1079 33.2693
" />
<path d="M15.1079 33.2693
L14.9870 33.3297
" />
<path d="M14.9870 33.3297
L14.6241 33.3297
" />
<path d="M14.6241 33.3297
L14.5032 33.2693
" />
<path d="M14.5032 33.2693
L14.4427 33.2088
" />
</g></g>
<g style="fill:none; 
stroke:#A90000; stroke-width:0.1524; stroke-opacity:1; 
stroke-linecap:round; stroke-linejoin:round;">
<text x="7.0612" y="32.4962"
textLength="2.6222" font-size="1.6933" lengthAdjust="spacingAndGlyphs"
text-anchor="middle" opacity="0" stroke-opacity="0">17</text>
<g class="stroked-text"><desc>17</desc>
<path d="M6.8193 32.3327
L6.0936 32.3327
" />
<path d="M6.4564 32.3327
L6.4564 31.0627
" />
<path d="M6.4564 31.0627
L6.3355 31.2442
" />
<path d="M6.3355 31.2442
L6.2145 31.3651
" />
<path d="M6.2145 31.3651
L6.0936 31.4256
" />
<path d="M7.2426 31.0627
L8.0892 31.0627
" />
<path d="M8.0892 31.0627
L7.5450 32.3327
" />
</g></g>
<g style="fill:none; 
stroke:#840000; stroke-width:0.1524; stroke-opacity:1; 
stroke-linecap:round; stroke-linejoin:round;">
<path d="M9.6012 30.2102
L4.5212 30.2102
" />
</g>
<g style="fill:none; 
stroke:#006464; stroke-width:0.1524; stroke-opacity:1; 
stroke-linecap:round; stroke-linejoin:round;">
<text x="10.1092" y="30.8452"
textLength="5.4646" font-size="1.6933" lengthAdjust="spacingAndGlyphs"
text-anchor="start" opacity="0" stroke-opacity="0">COM2</text>
<g class="stroked-text"><desc>COM2</desc>
<path d="M11.2374 30.6688
L11.1770 30.7293
" />
<path d="M11.1770 30.7293
L10.9955 30.7897
" />
<path d="M10.9955 30.7897
L10.8746 30.7897
" />
<path d="M10.8746 30.7897
L10.6932 30.7293
" />
<path d="M10.6932 30.7293
L10.5722 30.6083
" />
<path d="M10.5722 30.6083
L10.5117 30.4873
" />
<path d="M10.5117 30.4873
L10.4513 30.2454
" />
<path d="M10.4513 30.2454
L10.4513 30.0640
" />
<path d="M10.4513 30.0640
L10.5117 29.8221
" />
<path d="M10.5117 29.8221
L10.5722 29.7012
" />
<path d="M10.5722 29.7012
L10.6932 29.5802
" />
<path d="M10.6932 29.5802
L10.8746 29.5197
" />
<path d="M10.8746 29.5197
L10.9955 29.5197
" />
<path d="M10.9955 29.5197
L11.1770 29.5802
" />
<path d="M11.1770 29.5802
L11.2374 29.6407
" />
<path d="M12.0236 29.5197
L12.2655 29.5197
" />
<path d="M12.2655 29.5197
L12.3865 29.5802
" />
<path d="M12.3865 29.5802
L12.5074 29.7012
" />
<path d="M12.5074 29.7012
L12.5679 29.9431
" />
<path d="M12.5679 29.9431
L12.5679 30.3664
" />
<path d="M12.5679 30.3664
L12.5074 30.6083
" />
<path d="M12.5074 30.6083
L12.3865 30.7293
" />
<path d="M12.3865 30.7293
L12.2655 30.7897
" />
<path d="M12.2655 30.7897
L12.0236 30.7897
" />
<path d="M12.0236 30.7897
L11.9027 30.7293
" />
<path d="M11.9027 30.7293
L11.7817 30.6083
" />
<path d="M11.7817 30.6083
L11.7213 30.3664
" />
<path d="M11.7213 30.3664
L11.7213 29.9431
" />
<path d="M11.7213 29.9431
L11.7817 29.7012
" />
<path d="M11.7817 29.7012
L11.9027 29.5802
" />
<path d="M11.9027 29.5802
L12.0236 29.5197
" />
<path d="M13.1122 30.7897
L13.1122 29.5197
" />
<path d="M13.1122 29.5197
L13.5356 30.4269
" />
<path d="M13.5356 30.4269
L13.9589 29.5197
" />
<path d="M13.9589 29.5197
L13.9589 30.7897
" />
<path d="M14.5032 29.6407
L14.5636 29.5802
" />
<path d="M14.5636 29.5802
L14.6846 29.5197
" />
<path d="M14.6846 29.5197
L14.9870 29.5197
" />
<path d="M14.9870 29.5197
L15.1079 29.5802
" />
<path d="M15.1079 29.5802
L15.1684 29.6407
" />
<path d="M15.1684 29.6407
L15.2289 29.7616
" />
<path d="M15.2289 29.7616
L15.2289 29.8826
" />
<path d="M15.2289 29.8826
L15.1684 30.0640
" />
<path d="M15.1684 30.0640
L14.4427 30.7897
" />
<path d="M14.4427 30.7897
L15.2289 30.7897
" />
</g></g>
<g style="fill:none; 
stroke:#A90000; stroke-width:0.1524; stroke-opacity:1; 
stroke-linecap:round; stroke-linejoin:round;">
<text x="7.0612" y="29.9562"
textLength="2.6222" font-size="1.6933" lengthAdjust="spacingAndGlyphs"
text-anchor="middle" opacity="0" stroke-opacity="0">18</text>
<g class="stroked-text"><desc>18</desc>
<path d="M6.8193 29.7927
L6.0936 29.7927
" />
<path d="M6.4564 29.7927
L6.4564 28.5227
" />
<path d="M6.4564 28.5227
L6.3355 28.7042
" />
<path d="M6.3355 28.7042
L6.2145 28.8251
" />
<path d="M6.2145 28.8251
L6.0936 28.8856
" />
<path d="M7.5450 29.0670
L7.4240 29.0065
" />
<path d="M7.4240 29.0065
L7.3635 28.9461
" />
<path d="M7.3635 28.9461
L7.3031 28.8251
" />
<path d="M7.3031 28.8251
L7.3031 28.7646
" />
<path d="M7.3031 28.7646
L7.3635 28.6437
" />
<path d="M7.3635 28.6437
L7.4240 28.5832
" />
<path d="M7.4240 28.5832
L7.5450 28.5227
" />
<path d="M7.5450 28.5227
L7.7869 28.5227
" />
<path d="M7.7869 28.5227
L7.9078 28.5832
" />
<path d="M7.9078 28.5832
L7.9683 28.6437
" />
<path d="M7.9683 28.6437
L8.0288 28.7646
" />
<path d="M8.0288 28.7646
L8.0288 28.8251
" />
<path d="M8.0288 28.8251
L7.9683 28.9461
" />
<path d="M7.9683 28.9461
L7.9078 29.0065
" />
<path d="M7.9078 29.0065
L7.7869 29.0670
" />
<path d="M7.7869 29.0670
L7.5450 29.0670
" />
<path d="M7.5450 29.0670
L7.4240 29.1275
" />
<path d="M7.4240 29.1275
L7.3635 29.1880
" />
<path d="M7.3635 29.1880
L7.3031 29.3089
" />
<path d="M7.3031 29.3089
L7.3031 29.5508
" />
<path d="M7.3031 29.5508
L7.3635 29.6718
" />
<path d="M7.3635 29.6718
L7.4240 29.7323
" />
<path d="M7.4240 29.7323
L7.5450 29.7927
" />
<path d="M7.5450 29.7927
L7.7869 29.7927
" />
<path d="M7.7869 29.7927
L7.9078 29.7323
" />
<path d="M7.9078 29.7323
L7.9683 29.6718
" />
<path d="M7.9683 29.6718
L8.0288 29.5508
" />
<path d="M8.0288 29.5508
L8.0288 29.3089
" />
<path d="M8.0288 29.3089
L7.9683 29.1880
" />
<path d="M7.9683 29.1880
L7.9078 29.1275
" />
<path d="M7.9078 29.1275
L7.7869 29.0670
" />
</g></g>
<g style="fill:none; 
stroke:#840000; stroke-width:0.1524; stroke-opacity:1; 
stroke-linecap:round; stroke-linejoin:round;">
<path d="M9.6012 27.6702
L4.5212 27.6702
" />
</g>
<g style="fill:none; 
stroke:#006464; stroke-width:0.1524; stroke-opacity:1; 
stroke-linecap:round; stroke-linejoin:round;">
<text x="10.1092" y="28.3052"
textLength="5.4646" font-size="1.6933" lengthAdjust="spacingAndGlyphs"
text-anchor="start" opacity="0" stroke-opacity="0">COM1</text>
<g class="stroked-text"><desc>COM1</desc>
<path d="M11.2374 28.1288
L11.1770 28.1893
" />
<path d="M11.1770 28.1893
L10.9955 28.2497
" />
<path d="M10.9955 28.2497
L10.8746 28.2497
" />
<path d="M10.8746 28.2497
L10.6932 28.1893
" />
<path d="M10.6932 28.1893
L10.5722 28.0683
" />
<path d="M10.5722 28.0683
L10.5117 27.9473
" />
<path d="M10.5117 27.9473
L10.4513 27.7054
" />
<path d="M10.4513 27.7054
L10.4513 27.5240
" />
<path d="M10.4513 27.5240
L10.5117 27.2821
" />
<path d="M10.5117 27.2821
L10.5722 27.1612
" />
<path d="M10.5722 27.1612
L10.6932 27.0402
" />
<path d="M10.6932 27.0402
L10.8746 26.9797
" />
<path d="M10.8746 26.9797
L10.9955 26.9797
" />
<path d="M10.9955 26.9797
L11.1770 27.0402
" />
<path d="M11.1770 27.0402
L11.2374 27.1007
" />
<path d="M12.0236 26.9797
L12.2655 26.9797
" />
<path d="M12.2655 26.9797
L12.3865 27.0402
" />
<path d="M12.3865 27.0402
L12.5074 27.1612
" />
<path d="M12.5074 27.1612
L12.5679 27.4031
" />
<path d="M12.5679 27.4031
L12.5679 27.8264
" />
<path d="M12.5679 27.8264
L12.5074 28.0683
" />
<path d="M12.5074 28.0683
L12.3865 28.1893
" />
<path d="M12.3865 28.1893
L12.2655 28.2497
" />
<path d="M12.2655 28.2497
L12.0236 28.2497
" />
<path d="M12.0236 28.2497
L11.9027 28.1893
" />
<path d="M11.9027 28.1893
L11.7817 28.0683
" />
<path d="M11.7817 28.0683
L11.7213 27.8264
" />
<path d="M11.7213 27.8264
L11.7213 27.4031
" />
<path d="M11.7213 27.4031
L11.7817 27.1612
" />
<path d="M11.7817 27.1612
L11.9027 27.0402
" />
<path d="M11.9027 27.0402
L12.0236 26.9797
" />
<path d="M13.1122 28.2497
L13.1122 26.9797
" />
<path d="M13.1122 26.9797
L13.5356 27.8869
" />
<path d="M13.5356 27.8869
L13.9589 26.9797
" />
<path d="M13.9589 26.9797
L13.9589 28.2497
" />
<path d="M15.2289 28.2497
L14.5032 28.2497
" />
<path d="M14.8660 28.2497
L14.8660 26.9797
" />
<path d="M14.8660 26.9797
L14.7451 27.1612
" />
<path d="M14.7451 27.1612
L14.6241 27.2821
" />
<path d="M14.6241 27.2821
L14.5032 27.3426
" />
</g></g>
<g style="fill:none; 
stroke:#A90000; stroke-width:0.1524; stroke-opacity:1; 
stroke-linecap:round; stroke-linejoin:round;">
<text x="7.0612" y="27.4162"
textLength="2.6222" font-size="1.6933" lengthAdjust="spacingAndGlyphs"
text-anchor="middle" opacity="0" stroke-opacity="0">19</text>
<g class="stroked-text"><desc>19</desc>
<path d="M6.8193 27.2527
L6.0936 27.2527
" />
<path d="M6.4564 27.2527
L6.4564 25.9827
" />
<path d="M6.4564 25.9827
L6.3355 26.1642
" />
<path d="M6.3355 26.1642
L6.2145 26.2851
" />
<path d="M6.2145 26.2851
L6.0936 26.3456
" />
<path d="M7.4240 27.2527
L7.6659 27.2527
" />
<path d="M7.6659 27.2527
L7.7869 27.1923
" />
<path d="M7.7869 27.1923
L7.8473 27.1318
" />
<path d="M7.8473 27.1318
L7.9683 26.9503
" />
<path d="M7.9683 26.9503
L8.0288 26.7084
" />
<path d="M8.0288 26.7084
L8.0288 26.2246
" />
<path d="M8.0288 26.2246
L7.9683 26.1037
" />
<path d="M7.9683 26.1037
L7.9078 26.0432
" />
<path d="M7.9078 26.0432
L7.7869 25.9827
" />
<path d="M7.7869 25.9827
L7.5450 25.9827
" />
<path d="M7.5450 25.9827
L7.4240 26.0432
" />
<path d="M7.4240 26.0432
L7.3635 26.1037
" />
<path d="M7.3635 26.1037
L7.3031 26.2246
" />
<path d="M7.3031 26.2246
L7.3031 26.5270
" />
<path d="M7.3031 26.5270
L7.3635 26.6480
" />
<path d="M7.3635 26.6480
L7.4240 26.7084
" />
<path d="M7.4240 26.7084
L7.5450 26.7689
" />
<path d="M7.5450 26.7689
L7.7869 26.7689
" />
<path d="M7.7869 26.7689
L7.9078 26.7084
" />
<path d="M7.9078 26.7084
L7.9683 26.6480
" />
<path d="M7.9683 26.6480
L8.0288 26.5270
" />
</g></g>
<g style="fill:none; 
stroke:#840000; stroke-width:0.1524; stroke-opacity:1; 
stroke-linecap:round; stroke-linejoin:round;">
<path d="M9.6012 25.1302
L4.5212 25.1302
" />
</g>
<g style="fill:none; 
stroke:#006464; stroke-width:0.1524; stroke-opacity:1; 
stroke-linecap:round; stroke-linejoin:round;">
<text x="10.1092" y="25.7652"
textLength="5.4646" font-size="1.6933" lengthAdjust="spacingAndGlyphs"
text-anchor="start" opacity="0" stroke-opacity="0">COM0</text>
<g class="stroked-text"><desc>COM0</desc>
<path d="M11.2374 25.5888
L11.1770 25.6493
" />
<path d="M11.1770 25.6493
L10.9955 25.7097
" />
<path d="M10.9955 25.7097
L10.8746 25.7097
" />
<path d="M10.8746 25.7097
L10.6932 25.6493
" />
<path d="M10.6932 25.6493
L10.5722 25.5283
" />
<path d="M10.5722 25.5283
L10.5117 25.4073
" />
<path d="M10.5117 25.4073
L10.4513 25.1654
" />
<path d="M10.4513 25.1654
L10.4513 24.9840
" />
<path d="M10.4513 24.9840
L10.5117 24.7421
" />
<path d="M10.5117 24.7421
L10.5722 24.6212
" />
<path d="M10.5722 24.6212
L10.6932 24.5002
" />
<path d="M10.6932 24.5002
L10.8746 24.4397
" />
<path d="M10.8746 24.4397
L10.9955 24.4397
" />
<path d="M10.9955 24.4397
L11.1770 24.5002
" />
<path d="M11.1770 24.5002
L11.2374 24.5607
" />
<path d="M12.0236 24.4397
L12.2655 24.4397
" />
<path d="M12.2655 24.4397
L12.3865 24.5002
" />
<path d="M12.3865 24.5002
L12.5074 24.6212
" />
<path d="M12.5074 24.6212
L12.5679 24.8631
" />
<path d="M12.5679 24.8631
L12.5679 25.2864
" />
<path d="M12.5679 25.2864
L12.5074 25.5283
" />
<path d="M12.5074 25.5283
L12.3865 25.6493
" />
<path d="M12.3865 25.6493
L12.2655 25.7097
" />
<path d="M12.2655 25.7097
L12.0236 25.7097
" />
<path d="M12.0236 25.7097
L11.9027 25.6493
" />
<path d="M11.9027 25.6493
L11.7817 25.5283
" />
<path d="M11.7817 25.5283
L11.7213 25.2864
" />
<path d="M11.7213 25.2864
L11.7213 24.8631
" />
<path d="M11.7213 24.8631
L11.7817 24.6212
" />
<path d="M11.7817 24.6212
L11.9027 24.5002
" />
<path d="M11.9027 24.5002
L12.0236 24.4397
" />
<path d="M13.1122 25.7097
L13.1122 24.4397
" />
<path d="M13.1122 24.4397
L13.5356 25.3469
" />
<path d="M13.5356 25.3469
L13.9589 24.4397
" />
<path d="M13.9589 24.4397
L13.9589 25.7097
" />
<path d="M14.8055 24.4397
L14.9265 24.4397
" />
<path d="M14.9265 24.4397
L15.0474 24.5002
" />
<path d="M15.0474 24.5002
L15.1079 24.5607
" />
<path d="M15.1079 24.5607
L15.1684 24.6816
" />
<path d="M15.1684 24.6816
L15.2289 24.9235
" />
<path d="M15.2289 24.9235
L15.2289 25.2259
" />
<path d="M15.2289 25.2259
L15.1684 25.4678
" />
<path d="M15.1684 25.4678
L15.1079 25.5888
" />
<path d="M15.1079 25.5888
L15.0474 25.6493
" />
<path d="M15.0474 25.6493
L14.9265 25.7097
" />
<path d="M14.9265 25.7097
L14.8055 25.7097
" />
<path d="M14.8055 25.7097
L14.6846 25.6493
" />
<path d="M14.6846 25.6493
L14.6241 25.5888
" />
<path d="M14.6241 25.5888
L14.5636 25.4678
" />
<path d="M14.5636 25.4678
L14.5032 25.2259
" />
<path d="M14.5032 25.2259
L14.5032 24.9235
" />
<path d="M14.5032 24.9235
L14.5636 24.6816
" />
<path d="M14.5636 24.6816
L14.6241 24.5607
" />
<path d="M14.6241 24.5607
L14.6846 24.5002
" />
<path d="M14.6846 24.5002
L14.8055 24.4397
" />
</g></g>
<g style="fill:none; 
stroke:#A90000; stroke-width:0.1524; stroke-opacity:1; 
stroke-linecap:round; stroke-linejoin:round;">
<text x="7.0612" y="24.8762"
textLength="2.6222" font-size="1.6933" lengthAdjust="spacingAndGlyphs"
text-anchor="middle" opacity="0" stroke-opacity="0">20</text>
<g class="stroked-text"><desc>20</desc>
<path d="M6.0936 23.5637
L6.1540 23.5032
" />
<path d="M6.1540 23.5032
L6.2750 23.4427
" />
<path d="M6.2750 23.4427
L6.5774 23.4427
" />
<path d="M6.5774 23.4427
L6.6983 23.5032
" />
<path d="M6.6983 23.5032
L6.7588 23.5637
" />
<path d="M6.7588 23.5637
L6.8193 23.6846
" />
<path d="M6.8193 23.6846
L6.8193 23.8056
" />
<path d="M6.8193 23.8056
L6.7588 23.9870
" />
<path d="M6.7588 23.9870
L6.0331 24.7127
" />
<path d="M6.0331 24.7127
L6.8193 24.7127
" />
<path d="M7.6054 23.4427
L7.7264 23.4427
" />
<path d="M7.7264 23.4427
L7.8473 23.5032
" />
<path d="M7.8473 23.5032
L7.9078 23.5637
" />
<path d="M7.9078 23.5637
L7.9683 23.6846
" />
<path d="M7.9683 23.6846
L8.0288 23.9265
" />
<path d="M8.0288 23.9265
L8.0288 24.2289
" />
<path d="M8.0288 24.2289
L7.9683 24.4708
" />
<path d="M7.9683 24.4708
L7.9078 24.5918
" />
<path d="M7.9078 24.5918
L7.8473 24.6523
" />
<path d="M7.8473 24.6523
L7.7264 24.7127
" />
<path d="M7.7264 24.7127
L7.6054 24.7127
" />
<path d="M7.6054 24.7127
L7.4845 24.6523
" />
<path d="M7.4845 24.6523
L7.4240 24.5918
" />
<path d="M7.4240 24.5918
L7.3635 24.4708
" />
<path d="M7.3635 24.4708
L7.3031 24.2289
" />
<path d="M7.3031 24.2289
L7.3031 23.9265
" />
<path d="M7.3031 23.9265
L7.3635 23.6846
" />
<path d="M7.3635 23.6846
L7.4240 23.5637
" />
<path d="M7.4240 23.5637
L7.4845 23.5032
" />
<path d="M7.4845 23.5032
L7.6054 23.4427
" />
</g></g>
<g style="fill:none; 
stroke:#840000; stroke-width:0.1524; stroke-opacity:1; 
stroke-linecap:round; stroke-linejoin:round;">
<path d="M40.0812 35.2902
L45.1612 35.2902
" />
</g>
<g style="fill:none; 
stroke:#006464; stroke-width:0.1524; stroke-opacity:1; 
stroke-linecap:round; stroke-linejoin:round;">
<text x="39.5732" y="35.9252"
textLength="6.0090" font-size="1.6933" lengthAdjust="spacingAndGlyphs"
text-anchor="end" opacity="0" stroke-opacity="0">GNDIO</text>
<g class="stroked-text"><desc>GNDIO</desc>
<path d="M34.6348 34.6602
L34.5138 34.5997
" />
<path d="M34.5138 34.5997
L34.3324 34.5997
" />
<path d="M34.3324 34.5997
L34.1510 34.6602
" />
<path d="M34.1510 34.6602
L34.0300 34.7812
" />
<path d="M34.0300 34.7812
L33.9695 34.9021
" />
<path d="M33.9695 34.9021
L33.9091 35.1440
" />
<path d="M33.9091 35.1440
L33.9091 35.3254
" />
<path d="M33.9091 35.3254
L33.9695 35.5673
" />
<path d="M33.9695 35.5673
L34.0300 35.6883
" />
<path d="M34.0300 35.6883
L34.1510 35.8093
" />
<path d="M34.1510 35.8093
L34.3324 35.8697
" />
<path d="M34.3324 35.8697
L34.4533 35.8697
" />
<path d="M34.4533 35.8697
L34.6348 35.8093
" />
<path d="M34.6348 35.8093
L34.6952 35.7488
" />
<path d="M34.6952 35.7488
L34.6952 35.3254
" />
<path d="M34.6952 35.3254
L34.4533 35.3254
" />
<path d="M35.2395 35.8697
L35.2395 34.5997
" />
<path d="M35.2395 34.5997
L35.9652 35.8697
" />
<path d="M35.9652 35.8697
L35.9652 34.5997
" />
<path d="M36.5700 35.8697
L36.5700 34.5997
" />
<path d="M36.5700 34.5997
L36.8724 34.5997
" />
<path d="M36.8724 34.5997
L37.0538 34.6602
" />
<path d="M37.0538 34.6602
L37.1748 34.7812
" />
<path d="M37.1748 34.7812
L37.2353 34.9021
" />
<path d="M37.2353 34.9021
L37.2957 35.1440
" />
<path d="M37.2957 35.1440
L37.2957 35.3254
" />
<path d="M37.2957 35.3254
L37.2353 35.5673
" />
<path d="M37.2353 35.5673
L37.1748 35.6883
" />
<path d="M37.1748 35.6883
L37.0538 35.8093
" />
<path d="M37.0538 35.8093
L36.8724 35.8697
" />
<path d="M36.8724 35.8697
L36.5700 35.8697
" />
<path d="M37.8400 35.8697
L37.8400 34.5997
" />
<path d="M38.6867 34.5997
L38.9286 34.5997
" />
<path d="M38.9286 34.5997
L39.0496 34.6602
" />
<path d="M39.0496 34.6602
L39.1705 34.7812
" />
<path d="M39.1705 34.7812
L39.2310 35.0231
" />
<path d="M39.2310 35.0231
L39.2310 35.4464
" />
<path d="M39.2310 35.4464
L39.1705 35.6883
" />
<path d="M39.1705 35.6883
L39.0496 35.8093
" />
<path d="M39.0496 35.8093
L38.9286 35.8697
" />
<path d="M38.9286 35.8697
L38.6867 35.8697
" />
<path d="M38.6867 35.8697
L38.5658 35.8093
" />
<path d="M38.5658 35.8093
L38.4448 35.6883
" />
<path d="M38.4448 35.6883
L38.3844 35.4464
" />
<path d="M38.3844 35.4464
L38.3844 35.0231
" />
<path d="M38.3844 35.0231
L38.4448 34.7812
" />
<path d="M38.4448 34.7812
L38.5658 34.6602
" />
<path d="M38.5658 34.6602
L38.6867 34.5997
" />
</g></g>
<g style="fill:none; 
stroke:#A90000; stroke-width:0.1524; stroke-opacity:1; 
stroke-linecap:round; stroke-linejoin:round;">
<text x="42.6212" y="35.0362"
textLength="2.6222" font-size="1.6933" lengthAdjust="spacingAndGlyphs"
text-anchor="middle" opacity="0" stroke-opacity="0">25</text>
<g class="stroked-text"><desc>25</desc>
<path d="M41.6536 33.7237
L41.7140 33.6632
" />
<path d="M41.7140 33.6632
L41.8350 33.6027
" />
<path d="M41.8350 33.6027
L42.1374 33.6027
" />
<path d="M42.1374 33.6027
L42.2583 33.6632
" />
<path d="M42.2583 33.6632
L42.3188 33.7237
" />
<path d="M42.3188 33.7237
L42.3793 33.8446
" />
<path d="M42.3793 33.8446
L42.3793 33.9656
" />
<path d="M42.3793 33.9656
L42.3188 34.1470
" />
<path d="M42.3188 34.1470
L41.5931 34.8727
" />
<path d="M41.5931 34.8727
L42.3793 34.8727
" />
<path d="M43.5283 33.6027
L42.9235 33.6027
" />
<path d="M42.9235 33.6027
L42.8631 34.2075
" />
<path d="M42.8631 34.2075
L42.9235 34.1470
" />
<path d="M42.9235 34.1470
L43.0445 34.0865
" />
<path d="M43.0445 34.0865
L43.3469 34.0865
" />
<path d="M43.3469 34.0865
L43.4678 34.1470
" />
<path d="M43.4678 34.1470
L43.5283 34.2075
" />
<path d="M43.5283 34.2075
L43.5888 34.3284
" />
<path d="M43.5888 34.3284
L43.5888 34.6308
" />
<path d="M43.5888 34.6308
L43.5283 34.7518
" />
<path d="M43.5283 34.7518
L43.4678 34.8123
" />
<path d="M43.4678 34.8123
L43.3469 34.8727
" />
<path d="M43.3469 34.8727
L43.0445 34.8727
" />
<path d="M43.0445 34.8727
L42.9235 34.8123
" />
<path d="M42.9235 34.8123
L42.8631 34.7518
" />
</g></g>
<g style="fill:none; 
stroke:#840000; stroke-width:0.1524; stroke-opacity:1; 
stroke-linecap:round; stroke-linejoin:round;">
<path d="M40.0812 17.5102
L45.1612 17.5102
" />
</g>
<g style="fill:none; 
stroke:#006464; stroke-width:0.1524; stroke-opacity:1; 
stroke-linecap:round; stroke-linejoin:round;">
<text x="39.5732" y="18.1452"
textLength="7.4603" font-size="1.6933" lengthAdjust="spacingAndGlyphs"
text-anchor="end" opacity="0" stroke-opacity="0">XOUT32</text>
<g class="stroked-text"><desc>XOUT32</desc>
<path d="M32.3973 16.8197
L33.2439 18.0897
" />
<path d="M33.2439 16.8197
L32.3973 18.0897
" />
<path d="M33.9696 16.8197
L34.2115 16.8197
" />
<path d="M34.2115 16.8197
L34.3325 16.8802
" />
<path d="M34.3325 16.8802
L34.4534 17.0012
" />
<path d="M34.4534 17.0012
L34.5139 17.2431
" />
<path d="M34.5139 17.2431
L34.5139 17.6664
" />
<path d="M34.5139 17.6664
L34.4534 17.9083
" />
<path d="M34.4534 17.9083
L34.3325 18.0293
" />
<path d="M34.3325 18.0293
L34.2115 18.0897
" />
<path d="M34.2115 18.0897
L33.9696 18.0897
" />
<path d="M33.9696 18.0897
L33.8487 18.0293
" />
<path d="M33.8487 18.0293
L33.7277 17.9083
" />
<path d="M33.7277 17.9083
L33.6673 17.6664
" />
<path d="M33.6673 17.6664
L33.6673 17.2431
" />
<path d="M33.6673 17.2431
L33.7277 17.0012
" />
<path d="M33.7277 17.0012
L33.8487 16.8802
" />
<path d="M33.8487 16.8802
L33.9696 16.8197
" />
<path d="M35.0582 16.8197
L35.0582 17.8478
" />
<path d="M35.0582 17.8478
L35.1187 17.9688
" />
<path d="M35.1187 17.9688
L35.1792 18.0293
" />
<path d="M35.1792 18.0293
L35.3001 18.0897
" />
<path d="M35.3001 18.0897
L35.5420 18.0897
" />
<path d="M35.5420 18.0897
L35.6630 18.0293
" />
<path d="M35.6630 18.0293
L35.7235 17.9688
" />
<path d="M35.7235 17.9688
L35.7839 17.8478
" />
<path d="M35.7839 17.8478
L35.7839 16.8197
" />
<path d="M36.2073 16.8197
L36.9330 16.8197
" />
<path d="M36.5702 18.0897
L36.5702 16.8197
" />
<path d="M37.2354 16.8197
L38.0216 16.8197
" />
<path d="M38.0216 16.8197
L37.5982 17.3035
" />
<path d="M37.5982 17.3035
L37.7797 17.3035
" />
<path d="M37.7797 17.3035
L37.9006 17.3640
" />
<path d="M37.9006 17.3640
L37.9611 17.4245
" />
<path d="M37.9611 17.4245
L38.0216 17.5454
" />
<path d="M38.0216 17.5454
L38.0216 17.8478
" />
<path d="M38.0216 17.8478
L37.9611 17.9688
" />
<path d="M37.9611 17.9688
L37.9006 18.0293
" />
<path d="M37.9006 18.0293
L37.7797 18.0897
" />
<path d="M37.7797 18.0897
L37.4168 18.0897
" />
<path d="M37.4168 18.0897
L37.2959 18.0293
" />
<path d="M37.2959 18.0293
L37.2354 17.9688
" />
<path d="M38.5054 16.9407
L38.5658 16.8802
" />
<path d="M38.5658 16.8802
L38.6868 16.8197
" />
<path d="M38.6868 16.8197
L38.9892 16.8197
" />
<path d="M38.9892 16.8197
L39.1101 16.8802
" />
<path d="M39.1101 16.8802
L39.1706 16.9407
" />
<path d="M39.1706 16.9407
L39.2311 17.0616
" />
<path d="M39.2311 17.0616
L39.2311 17.1826
" />
<path d="M39.2311 17.1826
L39.1706 17.3640
" />
<path d="M39.1706 17.3640
L38.4449 18.0897
" />
<path d="M38.4449 18.0897
L39.2311 18.0897
" />
</g></g>
<g style="fill:none; 
stroke:#A90000; stroke-width:0.1524; stroke-opacity:1; 
stroke-linecap:round; stroke-linejoin:round;">
<text x="42.6212" y="17.2562"
textLength="2.6222" font-size="1.6933" lengthAdjust="spacingAndGlyphs"
text-anchor="middle" opacity="0" stroke-opacity="0">26</text>
<g class="stroked-text"><desc>26</desc>
<path d="M41.6536 15.9437
L41.7140 15.8832
" />
<path d="M41.7140 15.8832
L41.8350 15.8227
" />
<path d="M41.8350 15.8227
L42.1374 15.8227
" />
<path d="M42.1374 15.8227
L42.2583 15.8832
" />
<path d="M42.2583 15.8832
L42.3188 15.9437
" />
<path d="M42.3188 15.9437
L42.3793 16.0646
" />
<path d="M42.3793 16.0646
L42.3793 16.1856
" />
<path d="M42.3793 16.1856
L42.3188 16.3670
" />
<path d="M42.3188 16.3670
L41.5931 17.0927
" />
<path d="M41.5931 17.0927
L42.3793 17.0927
" />
<path d="M43.4678 15.8227
L43.2259 15.8227
" />
<path d="M43.2259 15.8227
L43.1050 15.8832
" />
<path d="M43.1050 15.8832
L43.0445 15.9437
" />
<path d="M43.0445 15.9437
L42.9235 16.1251
" />
<path d="M42.9235 16.1251
L42.8631 16.3670
" />
<path d="M42.8631 16.3670
L42.8631 16.8508
" />
<path d="M42.8631 16.8508
L42.9235 16.9718
" />
<path d="M42.9235 16.9718
L42.9840 17.0323
" />
<path d="M42.9840 17.0323
L43.1050 17.0927
" />
<path d="M43.1050 17.0927
L43.3469 17.0927
" />
<path d="M43.3469 17.0927
L43.4678 17.0323
" />
<path d="M43.4678 17.0323
L43.5283 16.9718
" />
<path d="M43.5283 16.9718
L43.5888 16.8508
" />
<path d="M43.5888 16.8508
L43.5888 16.5484
" />
<path d="M43.5888 16.5484
L43.5283 16.4275
" />
<path d="M43.5283 16.4275
L43.4678 16.3670
" />
<path d="M43.4678 16.3670
L43.3469 16.3065
" />
<path d="M43.3469 16.3065
L43.1050 16.3065
" />
<path d="M43.1050 16.3065
L42.9840 16.3670
" />
<path d="M42.9840 16.3670
L42.9235 16.4275
" />
<path d="M42.9235 16.4275
L42.8631 16.5484
" />
</g></g>
<g style="fill:none; 
stroke:#840000; stroke-width:0.1524; stroke-opacity:1; 
stroke-linecap:round; stroke-linejoin:round;">
<path d="M9.6012 14.9702
L4.5212 14.9702
" />
</g>
<g style="fill:none; 
stroke:#006464; stroke-width:0.1524; stroke-opacity:1; 
stroke-linecap:round; stroke-linejoin:round;">
<text x="10.1092" y="15.6052"
textLength="5.7670" font-size="1.6933" lengthAdjust="spacingAndGlyphs"
text-anchor="start" opacity="0" stroke-opacity="0">XIN32</text>
<g class="stroked-text"><desc>XIN32</desc>
<path d="M10.3908 14.2797
L11.2374 15.5497
" />
<path d="M11.2374 14.2797
L10.3908 15.5497
" />
<path d="M11.7212 15.5497
L11.7212 14.2797
" />
<path d="M12.3260 15.5497
L12.3260 14.2797
" />
<path d="M12.3260 14.2797
L13.0517 15.5497
" />
<path d="M13.0517 15.5497
L13.0517 14.2797
" />
<path d="M13.5356 14.2797
L14.3218 14.2797
" />
<path d="M14.3218 14.2797
L13.8984 14.7635
" />
<path d="M13.8984 14.7635
L14.0799 14.7635
" />
<path d="M14.0799 14.7635
L14.2008 14.8240
" />
<path d="M14.2008 14.8240
L14.2613 14.8845
" />
<path d="M14.2613 14.8845
L14.3218 15.0054
" />
<path d="M14.3218 15.0054
L14.3218 15.3078
" />
<path d="M14.3218 15.3078
L14.2613 15.4288
" />
<path d="M14.2613 15.4288
L14.2008 15.4893
" />
<path d="M14.2008 15.4893
L14.0799 15.5497
" />
<path d="M14.0799 15.5497
L13.7170 15.5497
" />
<path d="M13.7170 15.5497
L13.5961 15.4893
" />
<path d="M13.5961 15.4893
L13.5356 15.4288
" />
<path d="M14.8056 14.4007
L14.8660 14.3402
" />
<path d="M14.8660 14.3402
L14.9870 14.2797
" />
<path d="M14.9870 14.2797
L15.2894 14.2797
" />
<path d="M15.2894 14.2797
L15.4103 14.3402
" />
<path d="M15.4103 14.3402
L15.4708 14.4007
" />
<path d="M15.4708 14.4007
L15.5313 14.5216
" />
<path d="M15.5313 14.5216
L15.5313 14.6426
" />
<path d="M15.5313 14.6426
L15.4708 14.8240
" />
<path d="M15.4708 14.8240
L14.7451 15.5497
" />
<path d="M14.7451 15.5497
L15.5313 15.5497
" />
</g></g>
<g style="fill:none; 
stroke:#A90000; stroke-width:0.1524; stroke-opacity:1; 
stroke-linecap:round; stroke-linejoin:round;">
<text x="7.0612" y="14.7162"
textLength="2.6222" font-size="1.6933" lengthAdjust="spacingAndGlyphs"
text-anchor="middle" opacity="0" stroke-opacity="0">27</text>
<g class="stroked-text"><desc>27</desc>
<path d="M6.0936 13.4037
L6.1540 13.3432
" />
<path d="M6.1540 13.3432
L6.2750 13.2827
" />
<path d="M6.2750 13.2827
L6.5774 13.2827
" />
<path d="M6.5774 13.2827
L6.6983 13.3432
" />
<path d="M6.6983 13.3432
L6.7588 13.4037
" />
<path d="M6.7588 13.4037
L6.8193 13.5246
" />
<path d="M6.8193 13.5246
L6.8193 13.6456
" />
<path d="M6.8193 13.6456
L6.7588 13.8270
" />
<path d="M6.7588 13.8270
L6.0331 14.5527
" />
<path d="M6.0331 14.5527
L6.8193 14.5527
" />
<path d="M7.2426 13.2827
L8.0892 13.2827
" />
<path d="M8.0892 13.2827
L7.5450 14.5527
" />
</g></g>
<g style="fill:none; 
stroke:#840000; stroke-width:0.1524; stroke-opacity:1; 
stroke-linecap:round; stroke-linejoin:round;">
<path d="M40.0812 12.4302
L45.1612 12.4302
" />
</g>
<g style="fill:none; 
stroke:#006464; stroke-width:0.1524; stroke-opacity:1; 
stroke-linecap:round; stroke-linejoin:round;">
<text x="39.5732" y="13.0652"
textLength="5.7671" font-size="1.6933" lengthAdjust="spacingAndGlyphs"
text-anchor="end" opacity="0" stroke-opacity="0">VDDIO</text>
<g class="stroked-text"><desc>VDDIO</desc>
<path d="M34.0300 11.7397
L34.4533 13.0097
" />
<path d="M34.4533 13.0097
L34.8767 11.7397
" />
<path d="M35.3000 13.0097
L35.3000 11.7397
" />
<path d="M35.3000 11.7397
L35.6024 11.7397
" />
<path d="M35.6024 11.7397
L35.7838 11.8002
" />
<path d="M35.7838 11.8002
L35.9048 11.9212
" />
<path d="M35.9048 11.9212
L35.9653 12.0421
" />
<path d="M35.9653 12.0421
L36.0257 12.2840
" />
<path d="M36.0257 12.2840
L36.0257 12.4654
" />
<path d="M36.0257 12.4654
L35.9653 12.7073
" />
<path d="M35.9653 12.7073
L35.9048 12.8283
" />
<path d="M35.9048 12.8283
L35.7838 12.9493
" />
<path d="M35.7838 12.9493
L35.6024 13.0097
" />
<path d="M35.6024 13.0097
L35.3000 13.0097
" />
<path d="M36.5700 13.0097
L36.5700 11.7397
" />
<path d="M36.5700 11.7397
L36.8724 11.7397
" />
<path d="M36.8724 11.7397
L37.0538 11.8002
" />
<path d="M37.0538 11.8002
L37.1748 11.9212
" />
<path d="M37.1748 11.9212
L37.2353 12.0421
" />
<path d="M37.2353 12.0421
L37.2957 12.2840
" />
<path d="M37.2957 12.2840
L37.2957 12.4654
" />
<path d="M37.2957 12.4654
L37.2353 12.7073
" />
<path d="M37.2353 12.7073
L37.1748 12.8283
" />
<path d="M37.1748 12.8283
L37.0538 12.9493
" />
<path d="M37.0538 12.9493
L36.8724 13.0097
" />
<path d="M36.8724 13.0097
L36.5700 13.0097
" />
<path d="M37.8400 13.0097
L37.8400 11.7397
" />
<path d="M38.6867 11.7397
L38.9286 11.7397
" />
<path d="M38.9286 11.7397
L39.0496 11.8002
" />
<path d="M39.0496 11.8002
L39.1705 11.9212
" />
<path d="M39.1705 11.9212
L39.2310 12.1631
" />
<path d="M39.2310 12.1631
L39.2310 12.5864
" />
<path d="M39.2310 12.5864
L39.1705 12.8283
" />
<path d="M39.1705 12.8283
L39.0496 12.9493
" />
<path d="M39.0496 12.9493
L38.9286 13.0097
" />
<path d="M38.9286 13.0097
L38.6867 13.0097
" />
<path d="M38.6867 13.0097
L38.5658 12.9493
" />
<path d="M38.5658 12.9493
L38.4448 12.8283
" />
<path d="M38.4448 12.8283
L38.3844 12.5864
" />
<path d="M38.3844 12.5864
L38.3844 12.1631
" />
<path d="M38.3844 12.1631
L38.4448 11.9212
" />
<path d="M38.4448 11.9212
L38.5658 11.8002
" />
<path d="M38.5658 11.8002
L38.6867 11.7397
" />
</g></g>
<g style="fill:none; 
stroke:#A90000; stroke-width:0.1524; stroke-opacity:1; 
stroke-linecap:round; stroke-linejoin:round;">
<text x="42.6212" y="12.1762"
textLength="2.6222" font-size="1.6933" lengthAdjust="spacingAndGlyphs"
text-anchor="middle" opacity="0" stroke-opacity="0">28</text>
<g class="stroked-text"><desc>28</desc>
<path d="M41.6536 10.8637
L41.7140 10.8032
" />
<path d="M41.7140 10.8032
L41.8350 10.7427
" />
<path d="M41.8350 10.7427
L42.1374 10.7427
" />
<path d="M42.1374 10.7427
L42.2583 10.8032
" />
<path d="M42.2583 10.8032
L42.3188 10.8637
" />
<path d="M42.3188 10.8637
L42.3793 10.9846
" />
<path d="M42.3793 10.9846
L42.3793 11.1056
" />
<path d="M42.3793 11.1056
L42.3188 11.2870
" />
<path d="M42.3188 11.2870
L41.5931 12.0127
" />
<path d="M41.5931 12.0127
L42.3793 12.0127
" />
<path d="M43.1050 11.2870
L42.9840 11.2265
" />
<path d="M42.9840 11.2265
L42.9235 11.1661
" />
<path d="M42.9235 11.1661
L42.8631 11.0451
" />
<path d="M42.8631 11.0451
L42.8631 10.9846
" />
<path d="M42.8631 10.9846
L42.9235 10.8637
" />
<path d="M42.9235 10.8637
L42.9840 10.8032
" />
<path d="M42.9840 10.8032
L43.1050 10.7427
" />
<path d="M43.1050 10.7427
L43.3469 10.7427
" />
<path d="M43.3469 10.7427
L43.4678 10.8032
" />
<path d="M43.4678 10.8032
L43.5283 10.8637
" />
<path d="M43.5283 10.8637
L43.5888 10.9846
" />
<path d="M43.5888 10.9846
L43.5888 11.0451
" />
<path d="M43.5888 11.0451
L43.5283 11.1661
" />
<path d="M43.5283 11.1661
L43.4678 11.2265
" />
<path d="M43.4678 11.2265
L43.3469 11.2870
" />
<path d="M43.3469 11.2870
L43.1050 11.2870
" />
<path d="M43.1050 11.2870
L42.9840 11.3475
" />
<path d="M42.9840 11.3475
L42.9235 11.4080
" />
<path d="M42.9235 11.4080
L42.8631 11.5289
" />
<path d="M42.8631 11.5289
L42.8631 11.7708
" />
<path d="M42.8631 11.7708
L42.9235 11.8918
" />
<path d="M42.9235 11.8918
L42.9840 11.9523
" />
<path d="M42.9840 11.9523
L43.1050 12.0127
" />
<path d="M43.1050 12.0127
L43.3469 12.0127
" />
<path d="M43.3469 12.0127
L43.4678 11.9523
" />
<path d="M43.4678 11.9523
L43.5283 11.8918
" />
<path d="M43.5283 11.8918
L43.5888 11.7708
" />
<path d="M43.5888 11.7708
L43.5888 11.5289
" />
<path d="M43.5888 11.5289
L43.5283 11.4080
" />
<path d="M43.5283 11.4080
L43.4678 11.3475
" />
<path d="M43.4678 11.3475
L43.3469 11.2870
" />
</g></g>
<g style="fill:none; 
stroke:#006464; stroke-width:0.1524; stroke-opacity:1; 
stroke-linecap:round; stroke-linejoin:round;">
<text x="10.1092" y="5.5722"
textLength="2.6223" font-size="1.6933" lengthAdjust="spacingAndGlyphs"
text-anchor="start" opacity="0" stroke-opacity="0">U?</text>
<g class="stroked-text"><desc>U?</desc>
<path d="M10.5117 4.1387
L10.5117 5.1668
" />
<path d="M10.5117 5.1668
L10.5722 5.2878
" />
<path d="M10.5722 5.2878
L10.6327 5.3483
" />
<path d="M10.6327 5.3483
L10.7536 5.4087
" />
<path d="M10.7536 5.4087
L10.9955 5.4087
" />
<path d="M10.9955 5.4087
L11.1165 5.3483
" />
<path d="M11.1165 5.3483
L11.1770 5.2878
" />
<path d="M11.1770 5.2878
L11.2374 5.1668
" />
<path d="M11.2374 5.1668
L11.2374 4.1387
" />
<path d="M12.0237 5.2878
L12.0841 5.3483
" />
<path d="M12.0841 5.3483
L12.0237 5.4087
" />
<path d="M12.0237 5.4087
L11.9632 5.3483
" />
<path d="M11.9632 5.3483
L12.0237 5.2878
" />
<path d="M12.0237 5.2878
L12.0237 5.4087
" />
<path d="M11.7818 4.1992
L11.9027 4.1387
" />
<path d="M11.9027 4.1387
L12.2051 4.1387
" />
<path d="M12.2051 4.1387
L12.3260 4.1992
" />
<path d="M12.3260 4.1992
L12.3865 4.3202
" />
<path d="M12.3865 4.3202
L12.3865 4.4411
" />
<path d="M12.3865 4.4411
L12.3260 4.5621
" />
<path d="M12.3260 4.5621
L12.2656 4.6225
" />
<path d="M12.2656 4.6225
L12.1446 4.6830
" />
<path d="M12.1446 4.6830
L12.0841 4.7435
" />
<path d="M12.0841 4.7435
L12.0237 4.8644
" />
<path d="M12.0237 4.8644
L12.0237 4.9249
" />
</g><text x="32.2072" y="5.3182"
textLength="7.7627" font-size="1.6933" lengthAdjust="spacingAndGlyphs"
text-anchor="start" opacity="0" stroke-opacity="0">BNO055</text>
<g class="stroked-text"><desc>BNO055</desc>
<path d="M33.0331 4.4895
L33.2145 4.5500
" />
<path d="M33.2145 4.5500
L33.2750 4.6104
" />
<path d="M33.2750 4.6104
L33.3354 4.7314
" />
<path d="M33.3354 4.7314
L33.3354 4.9128
" />
<path d="M33.3354 4.9128
L33.2750 5.0338
" />
<path d="M33.2750 5.0338
L33.2145 5.0943
" />
<path d="M33.2145 5.0943
L33.0935 5.1547
" />
<path d="M33.0935 5.1547
L32.6097 5.1547
" />
<path d="M32.6097 5.1547
L32.6097 3.8847
" />
<path d="M32.6097 3.8847
L33.0331 3.8847
" />
<path d="M33.0331 3.8847
L33.1540 3.9452
" />
<path d="M33.1540 3.9452
L33.2145 4.0057
" />
<path d="M33.2145 4.0057
L33.2750 4.1266
" />
<path d="M33.2750 4.1266
L33.2750 4.2476
" />
<path d="M33.2750 4.2476
L33.2145 4.3685
" />
<path d="M33.2145 4.3685
L33.1540 4.4290
" />
<path d="M33.1540 4.4290
L33.0331 4.4895
" />
<path d="M33.0331 4.4895
L32.6097 4.4895
" />
<path d="M33.8797 5.1547
L33.8797 3.8847
" />
<path d="M33.8797 3.8847
L34.6054 5.1547
" />
<path d="M34.6054 5.1547
L34.6054 3.8847
" />
<path d="M35.4521 3.8847
L35.6940 3.8847
" />
<path d="M35.6940 3.8847
L35.8150 3.9452
" />
<path d="M35.8150 3.9452
L35.9359 4.0662
" />
<path d="M35.9359 4.0662
L35.9964 4.3081
" />
<path d="M35.9964 4.3081
L35.9964 4.7314
" />
<path d="M35.9964 4.7314
L35.9359 4.9733
" />
<path d="M35.9359 4.9733
L35.8150 5.0943
" />
<path d="M35.8150 5.0943
L35.6940 5.1547
" />
<path d="M35.6940 5.1547
L35.4521 5.1547
" />
<path d="M35.4521 5.1547
L35.3312 5.0943
" />
<path d="M35.3312 5.0943
L35.2102 4.9733
" />
<path d="M35.2102 4.9733
L35.1498 4.7314
" />
<path d="M35.1498 4.7314
L35.1498 4.3081
" />
<path d="M35.1498 4.3081
L35.2102 4.0662
" />
<path d="M35.2102 4.0662
L35.3312 3.9452
" />
<path d="M35.3312 3.9452
L35.4521 3.8847
" />
<path d="M36.7826 3.8847
L36.9036 3.8847
" />
<path d="M36.9036 3.8847
L37.0245 3.9452
" />
<path d="M37.0245 3.9452
L37.0850 4.0057
" />
<path d="M37.0850 4.0057
L37.1455 4.1266
" />
<path d="M37.1455 4.1266
L37.2060 4.3685
" />
<path d="M37.2060 4.3685
L37.2060 4.6709
" />
<path d="M37.2060 4.6709
L37.1455 4.9128
" />
<path d="M37.1455 4.9128
L37.0850 5.0338
" />
<path d="M37.0850 5.0338
L37.0245 5.0943
" />
<path d="M37.0245 5.0943
L36.9036 5.1547
" />
<path d="M36.9036 5.1547
L36.7826 5.1547
" />
<path d="M36.7826 5.1547
L36.6617 5.0943
" />
<path d="M36.6617 5.0943
L36.6012 5.0338
" />
<path d="M36.6012 5.0338
L36.5407 4.9128
" />
<path d="M36.5407 4.9128
L36.4803 4.6709
" />
<path d="M36.4803 4.6709
L36.4803 4.3685
" />
<path d="M36.4803 4.3685
L36.5407 4.1266
" />
<path d="M36.5407 4.1266
L36.6012 4.0057
" />
<path d="M36.6012 4.0057
L36.6617 3.9452
" />
<path d="M36.6617 3.9452
L36.7826 3.8847
" />
<path d="M38.3550 3.8847
L37.7502 3.8847
" />
<path d="M37.7502 3.8847
L37.6898 4.4895
" />
<path d="M37.6898 4.4895
L37.7502 4.4290
" />
<path d="M37.7502 4.4290
L37.8712 4.3685
" />
<path d="M37.8712 4.3685
L38.1736 4.3685
" />
<path d="M38.1736 4.3685
L38.2945 4.4290
" />
<path d="M38.2945 4.4290
L38.3550 4.4895
" />
<path d="M38.3550 4.4895
L38.4155 4.6104
" />
<path d="M38.4155 4.6104
L38.4155 4.9128
" />
<path d="M38.4155 4.9128
L38.3550 5.0338
" />
<path d="M38.3550 5.0338
L38.2945 5.0943
" />
<path d="M38.2945 5.0943
L38.1736 5.1547
" />
<path d="M38.1736 5.1547
L37.8712 5.1547
" />
<path d="M37.8712 5.1547
L37.7502 5.0943
" />
<path d="M37.7502 5.0943
L37.6898 5.0338
" />
<path d="M39.5645 3.8847
L38.9597 3.8847
" />
<path d="M38.9597 3.8847
L38.8993 4.4895
" />
<path d="M38.8993 4.4895
L38.9597 4.4290
" />
<path d="M38.9597 4.4290
L39.0807 4.3685
" />
<path d="M39.0807 4.3685
L39.3831 4.3685
" />
<path d="M39.3831 4.3685
L39.5040 4.4290
" />
<path d="M39.5040 4.4290
L39.5645 4.4895
" />
<path d="M39.5645 4.4895
L39.6250 4.6104
" />
<path d="M39.6250 4.6104
L39.6250 4.9128
" />
<path d="M39.6250 4.9128
L39.5645 5.0338
" />
<path d="M39.5645 5.0338
L39.5040 5.0943
" />
<path d="M39.5040 5.0943
L39.3831 5.1547
" />
<path d="M39.3831 5.1547
L39.0807 5.1547
" />
<path d="M39.0807 5.1547
L38.9597 5.0943
" />
<path d="M38.9597 5.0943
L38.8993 5.0338
" />
</g></g> 
</svg>
