<?xml version="1.0" standalone="no"?>
 <!DOCTYPE svg PUBLIC "-//W3C//DTD SVG 1.1//EN" 
 "http://www.w3.org/Graphics/SVG/1.1/DTD/svg11.dtd"> 
<svg
  xmlns:svg="http://www.w3.org/2000/svg"
  xmlns="http://www.w3.org/2000/svg"
  xmlns:xlink="http://www.w3.org/1999/xlink"
  xmlns:inkscape="http://www.inkscape.org/namespaces/inkscape"
  version="1.1"
  width="100%" height="100%" viewBox="0.000000 0.000000 16.713200 4.013200">
<title>SVG Image created as C_0402_1005Metric_N.svg date 2026-04-16T05:24:14 </title>
  <desc>Image generated by PCBNEW </desc>
<g style="fill:#000000; fill-opacity:1.000000;stroke:#000000; stroke-opacity:1.000000;
stroke-linecap:round; stroke-linejoin:round;"
 transform="translate(0 0) scale(1 1)">
<path style="fill:#C83434; fill-opacity:1.000000; stroke:none;fill-rule:evenodd;"
d="M 7.603096,1.838250
7.613753,1.784674
7.644101,1.739255
7.689520,1.708907
7.743096,1.698250
8.023096,1.698250
8.076672,1.708907
8.122091,1.739255
8.152439,1.784674
8.163096,1.838250
8.163096,2.178250
8.152439,2.231826
8.122091,2.277245
8.076672,2.307593
8.023096,2.318250
7.743096,2.318250
7.689520,2.307593
7.644101,2.277245
7.613753,2.231826
7.603096,2.178250
Z" /> 
<path style="fill:#C83434; fill-opacity:1.000000; stroke:none;fill-rule:evenodd;"
d="M 8.563096,1.838250
8.573753,1.784674
8.604101,1.739255
8.649520,1.708907
8.703096,1.698250
8.983096,1.698250
9.036672,1.708907
9.082091,1.739255
9.112439,1.784674
9.123096,1.838250
9.123096,2.178250
9.112439,2.231826
9.082091,2.277245
9.036672,2.307593
8.983096,2.318250
8.703096,2.318250
8.649520,2.307593
8.604101,2.277245
8.573753,2.231826
8.563096,2.178250
Z" /> 
<path style="fill:#D864FF; fill-opacity:0.400000; stroke:none;fill-rule:evenodd;"
d="M 7.603096,1.838250
7.613753,1.784674
7.644101,1.739255
7.689520,1.708907
7.743096,1.698250
8.023096,1.698250
8.076672,1.708907
8.122091,1.739255
8.152439,1.784674
8.163096,1.838250
8.163096,2.178250
8.152439,2.231826
8.122091,2.277245
8.076672,2.307593
8.023096,2.318250
7.743096,2.318250
7.689520,2.307593
7.644101,2.277245
7.613753,2.231826
7.603096,2.178250
Z" /> 
<path style="fill:#D864FF; fill-opacity:0.400000; stroke:none;fill-rule:evenodd;"
d="M 8.563096,1.838250
8.573753,1.784674
8.604101,1.739255
8.649520,1.708907
8.703096,1.698250
8.983096,1.698250
9.036672,1.708907
9.082091,1.739255
9.112439,1.784674
9.123096,1.838250
9.123096,2.178250
9.112439,2.231826
9.082091,2.277245
9.036672,2.307593
8.983096,2.318250
8.703096,2.318250
8.649520,2.307593
8.604101,2.277245
8.573753,2.231826
8.563096,2.178250
Z" /> 
<path style="fill:#B4A09A; fill-opacity:0.900000; stroke:none;fill-rule:evenodd;"
d="M 7.603096,1.838250
7.613753,1.784674
7.644101,1.739255
7.689520,1.708907
7.743096,1.698250
8.023096,1.698250
8.076672,1.708907
8.122091,1.739255
8.152439,1.784674
8.163096,1.838250
8.163096,2.178250
8.152439,2.231826
8.122091,2.277245
8.076672,2.307593
8.023096,2.318250
7.743096,2.318250
7.689520,2.307593
7.644101,2.277245
7.613753,2.231826
7.603096,2.178250
Z" /> 
<path style="fill:#B4A09A; fill-opacity:0.900000; stroke:none;fill-rule:evenodd;"
d="M 8.563096,1.838250
8.573753,1.784674
8.604101,1.739255
8.649520,1.708907
8.703096,1.698250
8.983096,1.698250
9.036672,1.708907
9.082091,1.739255
9.112439,1.784674
9.123096,1.838250
9.123096,2.178250
9.112439,2.231826
9.082091,2.277245
9.036672,2.307593
8.983096,2.318250
8.703096,2.318250
8.649520,2.307593
8.604101,2.277245
8.573753,2.231826
8.563096,2.178250
Z" /> 
</g>
<g style="fill:none; 
stroke:#F2EDA1; stroke-width:0.150000; stroke-opacity:1; 
stroke-linecap:round; stroke-linejoin:round;">
<text x="8.363096" y="1.348250"
textLength="4.535715" font-size="1.333333" lengthAdjust="spacingAndGlyphs"
text-anchor="middle" opacity="0" stroke-opacity="0">REF**</text>
<g class="stroked-text"><desc>REF**</desc>
<path d="M7.029763 1.303070
L6.696430 0.826879
" />
<path d="M6.458335 1.303070
L6.458335 0.303070
" />
<path d="M6.458335 0.303070
L6.839287 0.303070
" />
<path d="M6.839287 0.303070
L6.934525 0.350689
" />
<path d="M6.934525 0.350689
L6.982144 0.398308
" />
<path d="M6.982144 0.398308
L7.029763 0.493546
" />
<path d="M7.029763 0.493546
L7.029763 0.636403
" />
<path d="M7.029763 0.636403
L6.982144 0.731641
" />
<path d="M6.982144 0.731641
L6.934525 0.779260
" />
<path d="M6.934525 0.779260
L6.839287 0.826879
" />
<path d="M6.839287 0.826879
L6.458335 0.826879
" />
<path d="M7.458335 0.779260
L7.791668 0.779260
" />
<path d="M7.934525 1.303070
L7.458335 1.303070
" />
<path d="M7.458335 1.303070
L7.458335 0.303070
" />
<path d="M7.458335 0.303070
L7.934525 0.303070
" />
<path d="M8.696429 0.779260
L8.363096 0.779260
" />
<path d="M8.363096 1.303070
L8.363096 0.303070
" />
<path d="M8.363096 0.303070
L8.839286 0.303070
" />
<path d="M9.363096 0.303070
L9.363096 0.541165
" />
<path d="M9.125001 0.445927
L9.363096 0.541165
" />
<path d="M9.363096 0.541165
L9.601191 0.445927
" />
<path d="M9.220239 0.731641
L9.363096 0.541165
" />
<path d="M9.363096 0.541165
L9.505953 0.731641
" />
<path d="M10.125001 0.303070
L10.125001 0.541165
" />
<path d="M9.886906 0.445927
L10.125001 0.541165
" />
<path d="M10.125001 0.541165
L10.363096 0.445927
" />
<path d="M9.982144 0.731641
L10.125001 0.541165
" />
<path d="M10.125001 0.541165
L10.267858 0.731641
" />
</g></g>
<g style="fill:none; 
stroke:#F2EDA1; stroke-width:0.120000; stroke-opacity:1; 
stroke-linecap:round; stroke-linejoin:round;">
<path d="M8.255260 1.648250
L8.470932 1.648250
" />
<path d="M8.255260 2.368250
L8.470932 2.368250
" />
<path style="fill:none; 
stroke:#FF26E2; stroke-width:0.050000; stroke-opacity:1; 
stroke-linecap:round; stroke-linejoin:round;fill:none"
d="M 7.453096,1.548250
9.273096,1.548250
9.273096,2.468250
7.453096,2.468250
Z" /> 
</g>
<g style="fill:none; 
stroke:#AFAFAF; stroke-width:0.150000; stroke-opacity:1; 
stroke-linecap:round; stroke-linejoin:round;">
<text x="8.363096" y="3.668250"
textLength="16.726192" font-size="1.333333" lengthAdjust="spacingAndGlyphs"
text-anchor="middle" opacity="0" stroke-opacity="0">C_0402_1005Metric_N</text>
<g class="stroked-text"><desc>C_0402_1005Metric_N</desc>
<path d="M0.934524 3.527830
L0.886905 3.575450
" />
<path d="M0.886905 3.575450
L0.744048 3.623069
" />
<path d="M0.744048 3.623069
L0.648810 3.623069
" />
<path d="M0.648810 3.623069
L0.505953 3.575450
" />
<path d="M0.505953 3.575450
L0.410715 3.480211
" />
<path d="M0.410715 3.480211
L0.363096 3.384973
" />
<path d="M0.363096 3.384973
L0.315477 3.194497
" />
<path d="M0.315477 3.194497
L0.315477 3.051640
" />
<path d="M0.315477 3.051640
L0.363096 2.861164
" />
<path d="M0.363096 2.861164
L0.410715 2.765926
" />
<path d="M0.410715 2.765926
L0.505953 2.670688
" />
<path d="M0.505953 2.670688
L0.648810 2.623069
" />
<path d="M0.648810 2.623069
L0.744048 2.623069
" />
<path d="M0.744048 2.623069
L0.886905 2.670688
" />
<path d="M0.886905 2.670688
L0.934524 2.718307
" />
<path d="M1.125000 3.718307
L1.886905 3.718307
" />
<path d="M2.315477 2.623069
L2.410715 2.623069
" />
<path d="M2.410715 2.623069
L2.505953 2.670688
" />
<path d="M2.505953 2.670688
L2.553572 2.718307
" />
<path d="M2.553572 2.718307
L2.601191 2.813545
" />
<path d="M2.601191 2.813545
L2.648810 3.004021
" />
<path d="M2.648810 3.004021
L2.648810 3.242116
" />
<path d="M2.648810 3.242116
L2.601191 3.432592
" />
<path d="M2.601191 3.432592
L2.553572 3.527830
" />
<path d="M2.553572 3.527830
L2.505953 3.575450
" />
<path d="M2.505953 3.575450
L2.410715 3.623069
" />
<path d="M2.410715 3.623069
L2.315477 3.623069
" />
<path d="M2.315477 3.623069
L2.220239 3.575450
" />
<path d="M2.220239 3.575450
L2.172620 3.527830
" />
<path d="M2.172620 3.527830
L2.125001 3.432592
" />
<path d="M2.125001 3.432592
L2.077382 3.242116
" />
<path d="M2.077382 3.242116
L2.077382 3.004021
" />
<path d="M2.077382 3.004021
L2.125001 2.813545
" />
<path d="M2.125001 2.813545
L2.172620 2.718307
" />
<path d="M2.172620 2.718307
L2.220239 2.670688
" />
<path d="M2.220239 2.670688
L2.315477 2.623069
" />
<path d="M3.505953 2.956402
L3.505953 3.623069
" />
<path d="M3.267858 2.575450
L3.029763 3.289735
" />
<path d="M3.029763 3.289735
L3.648810 3.289735
" />
<path d="M4.220239 2.623069
L4.315477 2.623069
" />
<path d="M4.315477 2.623069
L4.410715 2.670688
" />
<path d="M4.410715 2.670688
L4.458334 2.718307
" />
<path d="M4.458334 2.718307
L4.505953 2.813545
" />
<path d="M4.505953 2.813545
L4.553572 3.004021
" />
<path d="M4.553572 3.004021
L4.553572 3.242116
" />
<path d="M4.553572 3.242116
L4.505953 3.432592
" />
<path d="M4.505953 3.432592
L4.458334 3.527830
" />
<path d="M4.458334 3.527830
L4.410715 3.575450
" />
<path d="M4.410715 3.575450
L4.315477 3.623069
" />
<path d="M4.315477 3.623069
L4.220239 3.623069
" />
<path d="M4.220239 3.623069
L4.125001 3.575450
" />
<path d="M4.125001 3.575450
L4.077382 3.527830
" />
<path d="M4.077382 3.527830
L4.029763 3.432592
" />
<path d="M4.029763 3.432592
L3.982144 3.242116
" />
<path d="M3.982144 3.242116
L3.982144 3.004021
" />
<path d="M3.982144 3.004021
L4.029763 2.813545
" />
<path d="M4.029763 2.813545
L4.077382 2.718307
" />
<path d="M4.077382 2.718307
L4.125001 2.670688
" />
<path d="M4.125001 2.670688
L4.220239 2.623069
" />
<path d="M4.934525 2.718307
L4.982144 2.670688
" />
<path d="M4.982144 2.670688
L5.077382 2.623069
" />
<path d="M5.077382 2.623069
L5.315477 2.623069
" />
<path d="M5.315477 2.623069
L5.410715 2.670688
" />
<path d="M5.410715 2.670688
L5.458334 2.718307
" />
<path d="M5.458334 2.718307
L5.505953 2.813545
" />
<path d="M5.505953 2.813545
L5.505953 2.908783
" />
<path d="M5.505953 2.908783
L5.458334 3.051640
" />
<path d="M5.458334 3.051640
L4.886906 3.623069
" />
<path d="M4.886906 3.623069
L5.505953 3.623069
" />
<path d="M5.696429 3.718307
L6.458334 3.718307
" />
<path d="M7.220239 3.623069
L6.648811 3.623069
" />
<path d="M6.934525 3.623069
L6.934525 2.623069
" />
<path d="M6.934525 2.623069
L6.839287 2.765926
" />
<path d="M6.839287 2.765926
L6.744049 2.861164
" />
<path d="M6.744049 2.861164
L6.648811 2.908783
" />
<path d="M7.839287 2.623069
L7.934525 2.623069
" />
<path d="M7.934525 2.623069
L8.029763 2.670688
" />
<path d="M8.029763 2.670688
L8.077382 2.718307
" />
<path d="M8.077382 2.718307
L8.125001 2.813545
" />
<path d="M8.125001 2.813545
L8.172620 3.004021
" />
<path d="M8.172620 3.004021
L8.172620 3.242116
" />
<path d="M8.172620 3.242116
L8.125001 3.432592
" />
<path d="M8.125001 3.432592
L8.077382 3.527830
" />
<path d="M8.077382 3.527830
L8.029763 3.575450
" />
<path d="M8.029763 3.575450
L7.934525 3.623069
" />
<path d="M7.934525 3.623069
L7.839287 3.623069
" />
<path d="M7.839287 3.623069
L7.744049 3.575450
" />
<path d="M7.744049 3.575450
L7.696430 3.527830
" />
<path d="M7.696430 3.527830
L7.648811 3.432592
" />
<path d="M7.648811 3.432592
L7.601192 3.242116
" />
<path d="M7.601192 3.242116
L7.601192 3.004021
" />
<path d="M7.601192 3.004021
L7.648811 2.813545
" />
<path d="M7.648811 2.813545
L7.696430 2.718307
" />
<path d="M7.696430 2.718307
L7.744049 2.670688
" />
<path d="M7.744049 2.670688
L7.839287 2.623069
" />
<path d="M8.791667 2.623069
L8.886905 2.623069
" />
<path d="M8.886905 2.623069
L8.982143 2.670688
" />
<path d="M8.982143 2.670688
L9.029762 2.718307
" />
<path d="M9.029762 2.718307
L9.077381 2.813545
" />
<path d="M9.077381 2.813545
L9.125000 3.004021
" />
<path d="M9.125000 3.004021
L9.125000 3.242116
" />
<path d="M9.125000 3.242116
L9.077381 3.432592
" />
<path d="M9.077381 3.432592
L9.029762 3.527830
" />
<path d="M9.029762 3.527830
L8.982143 3.575450
" />
<path d="M8.982143 3.575450
L8.886905 3.623069
" />
<path d="M8.886905 3.623069
L8.791667 3.623069
" />
<path d="M8.791667 3.623069
L8.696429 3.575450
" />
<path d="M8.696429 3.575450
L8.648810 3.527830
" />
<path d="M8.648810 3.527830
L8.601191 3.432592
" />
<path d="M8.601191 3.432592
L8.553572 3.242116
" />
<path d="M8.553572 3.242116
L8.553572 3.004021
" />
<path d="M8.553572 3.004021
L8.601191 2.813545
" />
<path d="M8.601191 2.813545
L8.648810 2.718307
" />
<path d="M8.648810 2.718307
L8.696429 2.670688
" />
<path d="M8.696429 2.670688
L8.791667 2.623069
" />
<path d="M10.029762 2.623069
L9.553572 2.623069
" />
<path d="M9.553572 2.623069
L9.505953 3.099259
" />
<path d="M9.505953 3.099259
L9.553572 3.051640
" />
<path d="M9.553572 3.051640
L9.648810 3.004021
" />
<path d="M9.648810 3.004021
L9.886905 3.004021
" />
<path d="M9.886905 3.004021
L9.982143 3.051640
" />
<path d="M9.982143 3.051640
L10.029762 3.099259
" />
<path d="M10.029762 3.099259
L10.077381 3.194497
" />
<path d="M10.077381 3.194497
L10.077381 3.432592
" />
<path d="M10.077381 3.432592
L10.029762 3.527830
" />
<path d="M10.029762 3.527830
L9.982143 3.575450
" />
<path d="M9.982143 3.575450
L9.886905 3.623069
" />
<path d="M9.886905 3.623069
L9.648810 3.623069
" />
<path d="M9.648810 3.623069
L9.553572 3.575450
" />
<path d="M9.553572 3.575450
L9.505953 3.527830
" />
<path d="M10.505953 3.623069
L10.505953 2.623069
" />
<path d="M10.505953 2.623069
L10.839286 3.337354
" />
<path d="M10.839286 3.337354
L11.172619 2.623069
" />
<path d="M11.172619 2.623069
L11.172619 3.623069
" />
<path d="M12.029762 3.575450
L11.934524 3.623069
" />
<path d="M11.934524 3.623069
L11.744048 3.623069
" />
<path d="M11.744048 3.623069
L11.648810 3.575450
" />
<path d="M11.648810 3.575450
L11.601191 3.480211
" />
<path d="M11.601191 3.480211
L11.601191 3.099259
" />
<path d="M11.601191 3.099259
L11.648810 3.004021
" />
<path d="M11.648810 3.004021
L11.744048 2.956402
" />
<path d="M11.744048 2.956402
L11.934524 2.956402
" />
<path d="M11.934524 2.956402
L12.029762 3.004021
" />
<path d="M12.029762 3.004021
L12.077381 3.099259
" />
<path d="M12.077381 3.099259
L12.077381 3.194497
" />
<path d="M12.077381 3.194497
L11.601191 3.289735
" />
<path d="M12.363096 2.956402
L12.744048 2.956402
" />
<path d="M12.505953 2.623069
L12.505953 3.480211
" />
<path d="M12.505953 3.480211
L12.553572 3.575450
" />
<path d="M12.553572 3.575450
L12.648810 3.623069
" />
<path d="M12.648810 3.623069
L12.744048 3.623069
" />
<path d="M13.077382 3.623069
L13.077382 2.956402
" />
<path d="M13.077382 3.146878
L13.125001 3.051640
" />
<path d="M13.125001 3.051640
L13.172620 3.004021
" />
<path d="M13.172620 3.004021
L13.267858 2.956402
" />
<path d="M13.267858 2.956402
L13.363096 2.956402
" />
<path d="M13.696430 3.623069
L13.696430 2.956402
" />
<path d="M13.696430 2.623069
L13.648811 2.670688
" />
<path d="M13.648811 2.670688
L13.696430 2.718307
" />
<path d="M13.696430 2.718307
L13.744049 2.670688
" />
<path d="M13.744049 2.670688
L13.696430 2.623069
" />
<path d="M13.696430 2.623069
L13.696430 2.718307
" />
<path d="M14.601191 3.575450
L14.505953 3.623069
" />
<path d="M14.505953 3.623069
L14.315477 3.623069
" />
<path d="M14.315477 3.623069
L14.220239 3.575450
" />
<path d="M14.220239 3.575450
L14.172620 3.527830
" />
<path d="M14.172620 3.527830
L14.125001 3.432592
" />
<path d="M14.125001 3.432592
L14.125001 3.146878
" />
<path d="M14.125001 3.146878
L14.172620 3.051640
" />
<path d="M14.172620 3.051640
L14.220239 3.004021
" />
<path d="M14.220239 3.004021
L14.315477 2.956402
" />
<path d="M14.315477 2.956402
L14.505953 2.956402
" />
<path d="M14.505953 2.956402
L14.601191 3.004021
" />
<path d="M14.791668 3.718307
L15.553572 3.718307
" />
<path d="M15.791668 3.623069
L15.791668 2.623069
" />
<path d="M15.791668 2.623069
L16.363096 3.623069
" />
<path d="M16.363096 3.623069
L16.363096 2.623069
" />
</g></g>
<g style="fill:none; 
stroke:#AFAFAF; stroke-width:0.040000; stroke-opacity:1; 
stroke-linecap:round; stroke-linejoin:round;">
<text x="8.363096" y="2.133250"
textLength="1.141428" font-size="0.333333" lengthAdjust="spacingAndGlyphs"
text-anchor="middle" opacity="0" stroke-opacity="0">REF**</text>
<g class="stroked-text"><desc>REF**</desc>
<path d="M8.029763 2.121824
L7.946430 2.002778
" />
<path d="M7.886906 2.121824
L7.886906 1.871825
" />
<path d="M7.886906 1.871825
L7.982144 1.871825
" />
<path d="M7.982144 1.871825
L8.005954 1.883730
" />
<path d="M8.005954 1.883730
L8.017859 1.895635
" />
<path d="M8.017859 1.895635
L8.029763 1.919444
" />
<path d="M8.029763 1.919444
L8.029763 1.955159
" />
<path d="M8.029763 1.955159
L8.017859 1.978968
" />
<path d="M8.017859 1.978968
L8.005954 1.990873
" />
<path d="M8.005954 1.990873
L7.982144 2.002778
" />
<path d="M7.982144 2.002778
L7.886906 2.002778
" />
<path d="M8.136906 1.990873
L8.220240 1.990873
" />
<path d="M8.255954 2.121824
L8.136906 2.121824
" />
<path d="M8.136906 2.121824
L8.136906 1.871825
" />
<path d="M8.136906 1.871825
L8.255954 1.871825
" />
<path d="M8.446429 1.990873
L8.363096 1.990873
" />
<path d="M8.363096 2.121824
L8.363096 1.871825
" />
<path d="M8.363096 1.871825
L8.482143 1.871825
" />
<path d="M8.613096 1.871825
L8.613096 1.931349
" />
<path d="M8.553572 1.907540
L8.613096 1.931349
" />
<path d="M8.613096 1.931349
L8.672619 1.907540
" />
<path d="M8.577381 1.978968
L8.613096 1.931349
" />
<path d="M8.613096 1.931349
L8.648810 1.978968
" />
<path d="M8.803572 1.871825
L8.803572 1.931349
" />
<path d="M8.744048 1.907540
L8.803572 1.931349
" />
<path d="M8.803572 1.931349
L8.863095 1.907540
" />
<path d="M8.767857 1.978968
L8.803572 1.931349
" />
<path d="M8.803572 1.931349
L8.839286 1.978968
" />
</g><path style="fill:none; 
stroke:#AFAFAF; stroke-width:0.100000; stroke-opacity:1; 
stroke-linecap:round; stroke-linejoin:round;fill:none"
d="M 7.863096,1.758250
8.863096,1.758250
8.863096,2.258250
7.863096,2.258250
Z" /> 
</g> 
</svg>
