<?xml version="1.0" standalone="no"?>
 <!DOCTYPE svg PUBLIC "-//W3C//DTD SVG 1.1//EN" 
 "http://www.w3.org/Graphics/SVG/1.1/DTD/svg11.dtd"> 
<svg
  xmlns:svg="http://www.w3.org/2000/svg"
  xmlns="http://www.w3.org/2000/svg"
  xmlns:xlink="http://www.w3.org/1999/xlink"
  xmlns:inkscape="http://www.inkscape.org/namespaces/inkscape"
  version="1.1"
  width="100%" height="100%" viewBox="0.000000 0.000000 16.713200 4.546600">
<title>SVG Image created as C_0603_1608Metric_N.svg date 2026-04-16T05:24:15 </title>
  <desc>Image generated by PCBNEW </desc>
<g style="fill:#000000; fill-opacity:1.000000;stroke:#000000; stroke-opacity:1.000000;
stroke-linecap:round; stroke-linejoin:round;"
 transform="translate(0 0) scale(1 1)">
<path style="fill:#C83434; fill-opacity:1.000000; stroke:none;fill-rule:evenodd;"
d="M 7.138096,2.028250
7.155223,1.942146
7.203997,1.869151
7.276992,1.820377
7.363096,1.803250
7.813096,1.803250
7.899200,1.820377
7.972195,1.869151
8.020969,1.942146
8.038096,2.028250
8.038096,2.528250
8.020969,2.614354
7.972195,2.687349
7.899200,2.736123
7.813096,2.753250
7.363096,2.753250
7.276992,2.736123
7.203997,2.687349
7.155223,2.614354
7.138096,2.528250
Z" /> 
<path style="fill:#C83434; fill-opacity:1.000000; stroke:none;fill-rule:evenodd;"
d="M 8.688096,2.028250
8.705223,1.942146
8.753997,1.869151
8.826992,1.820377
8.913096,1.803250
9.363096,1.803250
9.449200,1.820377
9.522195,1.869151
9.570969,1.942146
9.588096,2.028250
9.588096,2.528250
9.570969,2.614354
9.522195,2.687349
9.449200,2.736123
9.363096,2.753250
8.913096,2.753250
8.826992,2.736123
8.753997,2.687349
8.705223,2.614354
8.688096,2.528250
Z" /> 
<path style="fill:#D864FF; fill-opacity:0.400000; stroke:none;fill-rule:evenodd;"
d="M 7.138096,2.028250
7.155223,1.942146
7.203997,1.869151
7.276992,1.820377
7.363096,1.803250
7.813096,1.803250
7.899200,1.820377
7.972195,1.869151
8.020969,1.942146
8.038096,2.028250
8.038096,2.528250
8.020969,2.614354
7.972195,2.687349
7.899200,2.736123
7.813096,2.753250
7.363096,2.753250
7.276992,2.736123
7.203997,2.687349
7.155223,2.614354
7.138096,2.528250
Z" /> 
<path style="fill:#D864FF; fill-opacity:0.400000; stroke:none;fill-rule:evenodd;"
d="M 8.688096,2.028250
8.705223,1.942146
8.753997,1.869151
8.826992,1.820377
8.913096,1.803250
9.363096,1.803250
9.449200,1.820377
9.522195,1.869151
9.570969,1.942146
9.588096,2.028250
9.588096,2.528250
9.570969,2.614354
9.522195,2.687349
9.449200,2.736123
9.363096,2.753250
8.913096,2.753250
8.826992,2.736123
8.753997,2.687349
8.705223,2.614354
8.688096,2.528250
Z" /> 
<path style="fill:#B4A09A; fill-opacity:0.900000; stroke:none;fill-rule:evenodd;"
d="M 7.138096,2.028250
7.155223,1.942146
7.203997,1.869151
7.276992,1.820377
7.363096,1.803250
7.813096,1.803250
7.899200,1.820377
7.972195,1.869151
8.020969,1.942146
8.038096,2.028250
8.038096,2.528250
8.020969,2.614354
7.972195,2.687349
7.899200,2.736123
7.813096,2.753250
7.363096,2.753250
7.276992,2.736123
7.203997,2.687349
7.155223,2.614354
7.138096,2.528250
Z" /> 
<path style="fill:#B4A09A; fill-opacity:0.900000; stroke:none;fill-rule:evenodd;"
d="M 8.688096,2.028250
8.705223,1.942146
8.753997,1.869151
8.826992,1.820377
8.913096,1.803250
9.363096,1.803250
9.449200,1.820377
9.522195,1.869151
9.570969,1.942146
9.588096,2.028250
9.588096,2.528250
9.570969,2.614354
9.522195,2.687349
9.449200,2.736123
9.363096,2.753250
8.913096,2.753250
8.826992,2.736123
8.753997,2.687349
8.705223,2.614354
8.688096,2.528250
Z" /> 
</g>
<g style="fill:none; 
stroke:#F2EDA1; stroke-width:0.150000; stroke-opacity:1; 
stroke-linecap:round; stroke-linejoin:round;">
<text x="8.363096" y="1.348250"
textLength="4.535715" font-size="1.333333" lengthAdjust="spacingAndGlyphs"
text-anchor="middle" opacity="0" stroke-opacity="0">REF**</text>
<g class="stroked-text"><desc>REF**</desc>
<path d="M7.029763 1.303070
L6.696430 0.826879
" />
<path d="M6.458335 1.303070
L6.458335 0.303070
" />
<path d="M6.458335 0.303070
L6.839287 0.303070
" />
<path d="M6.839287 0.303070
L6.934525 0.350689
" />
<path d="M6.934525 0.350689
L6.982144 0.398308
" />
<path d="M6.982144 0.398308
L7.029763 0.493546
" />
<path d="M7.029763 0.493546
L7.029763 0.636403
" />
<path d="M7.029763 0.636403
L6.982144 0.731641
" />
<path d="M6.982144 0.731641
L6.934525 0.779260
" />
<path d="M6.934525 0.779260
L6.839287 0.826879
" />
<path d="M6.839287 0.826879
L6.458335 0.826879
" />
<path d="M7.458335 0.779260
L7.791668 0.779260
" />
<path d="M7.934525 1.303070
L7.458335 1.303070
" />
<path d="M7.458335 1.303070
L7.458335 0.303070
" />
<path d="M7.458335 0.303070
L7.934525 0.303070
" />
<path d="M8.696429 0.779260
L8.363096 0.779260
" />
<path d="M8.363096 1.303070
L8.363096 0.303070
" />
<path d="M8.363096 0.303070
L8.839286 0.303070
" />
<path d="M9.363096 0.303070
L9.363096 0.541165
" />
<path d="M9.125001 0.445927
L9.363096 0.541165
" />
<path d="M9.363096 0.541165
L9.601191 0.445927
" />
<path d="M9.220239 0.731641
L9.363096 0.541165
" />
<path d="M9.363096 0.541165
L9.505953 0.731641
" />
<path d="M10.125001 0.303070
L10.125001 0.541165
" />
<path d="M9.886906 0.445927
L10.125001 0.541165
" />
<path d="M10.125001 0.541165
L10.363096 0.445927
" />
<path d="M9.982144 0.731641
L10.125001 0.541165
" />
<path d="M10.125001 0.541165
L10.267858 0.731641
" />
</g></g>
<g style="fill:none; 
stroke:#F2EDA1; stroke-width:0.120000; stroke-opacity:1; 
stroke-linecap:round; stroke-linejoin:round;">
<path d="M8.222516 1.768250
L8.503676 1.768250
" />
<path d="M8.222516 2.788250
L8.503676 2.788250
" />
<path style="fill:none; 
stroke:#FF26E2; stroke-width:0.050000; stroke-opacity:1; 
stroke-linecap:round; stroke-linejoin:round;fill:none"
d="M 6.883096,1.548250
9.843096,1.548250
9.843096,3.008250
6.883096,3.008250
Z" /> 
</g>
<g style="fill:none; 
stroke:#AFAFAF; stroke-width:0.150000; stroke-opacity:1; 
stroke-linecap:round; stroke-linejoin:round;">
<text x="8.363096" y="4.208250"
textLength="16.726192" font-size="1.333333" lengthAdjust="spacingAndGlyphs"
text-anchor="middle" opacity="0" stroke-opacity="0">C_0603_1608Metric_N</text>
<g class="stroked-text"><desc>C_0603_1608Metric_N</desc>
<path d="M0.934524 4.067830
L0.886905 4.115450
" />
<path d="M0.886905 4.115450
L0.744048 4.163069
" />
<path d="M0.744048 4.163069
L0.648810 4.163069
" />
<path d="M0.648810 4.163069
L0.505953 4.115450
" />
<path d="M0.505953 4.115450
L0.410715 4.020211
" />
<path d="M0.410715 4.020211
L0.363096 3.924973
" />
<path d="M0.363096 3.924973
L0.315477 3.734497
" />
<path d="M0.315477 3.734497
L0.315477 3.591640
" />
<path d="M0.315477 3.591640
L0.363096 3.401164
" />
<path d="M0.363096 3.401164
L0.410715 3.305926
" />
<path d="M0.410715 3.305926
L0.505953 3.210688
" />
<path d="M0.505953 3.210688
L0.648810 3.163069
" />
<path d="M0.648810 3.163069
L0.744048 3.163069
" />
<path d="M0.744048 3.163069
L0.886905 3.210688
" />
<path d="M0.886905 3.210688
L0.934524 3.258307
" />
<path d="M1.125000 4.258307
L1.886905 4.258307
" />
<path d="M2.315477 3.163069
L2.410715 3.163069
" />
<path d="M2.410715 3.163069
L2.505953 3.210688
" />
<path d="M2.505953 3.210688
L2.553572 3.258307
" />
<path d="M2.553572 3.258307
L2.601191 3.353545
" />
<path d="M2.601191 3.353545
L2.648810 3.544021
" />
<path d="M2.648810 3.544021
L2.648810 3.782116
" />
<path d="M2.648810 3.782116
L2.601191 3.972592
" />
<path d="M2.601191 3.972592
L2.553572 4.067830
" />
<path d="M2.553572 4.067830
L2.505953 4.115450
" />
<path d="M2.505953 4.115450
L2.410715 4.163069
" />
<path d="M2.410715 4.163069
L2.315477 4.163069
" />
<path d="M2.315477 4.163069
L2.220239 4.115450
" />
<path d="M2.220239 4.115450
L2.172620 4.067830
" />
<path d="M2.172620 4.067830
L2.125001 3.972592
" />
<path d="M2.125001 3.972592
L2.077382 3.782116
" />
<path d="M2.077382 3.782116
L2.077382 3.544021
" />
<path d="M2.077382 3.544021
L2.125001 3.353545
" />
<path d="M2.125001 3.353545
L2.172620 3.258307
" />
<path d="M2.172620 3.258307
L2.220239 3.210688
" />
<path d="M2.220239 3.210688
L2.315477 3.163069
" />
<path d="M3.505953 3.163069
L3.315477 3.163069
" />
<path d="M3.315477 3.163069
L3.220239 3.210688
" />
<path d="M3.220239 3.210688
L3.172620 3.258307
" />
<path d="M3.172620 3.258307
L3.077382 3.401164
" />
<path d="M3.077382 3.401164
L3.029763 3.591640
" />
<path d="M3.029763 3.591640
L3.029763 3.972592
" />
<path d="M3.029763 3.972592
L3.077382 4.067830
" />
<path d="M3.077382 4.067830
L3.125001 4.115450
" />
<path d="M3.125001 4.115450
L3.220239 4.163069
" />
<path d="M3.220239 4.163069
L3.410715 4.163069
" />
<path d="M3.410715 4.163069
L3.505953 4.115450
" />
<path d="M3.505953 4.115450
L3.553572 4.067830
" />
<path d="M3.553572 4.067830
L3.601191 3.972592
" />
<path d="M3.601191 3.972592
L3.601191 3.734497
" />
<path d="M3.601191 3.734497
L3.553572 3.639259
" />
<path d="M3.553572 3.639259
L3.505953 3.591640
" />
<path d="M3.505953 3.591640
L3.410715 3.544021
" />
<path d="M3.410715 3.544021
L3.220239 3.544021
" />
<path d="M3.220239 3.544021
L3.125001 3.591640
" />
<path d="M3.125001 3.591640
L3.077382 3.639259
" />
<path d="M3.077382 3.639259
L3.029763 3.734497
" />
<path d="M4.220239 3.163069
L4.315477 3.163069
" />
<path d="M4.315477 3.163069
L4.410715 3.210688
" />
<path d="M4.410715 3.210688
L4.458334 3.258307
" />
<path d="M4.458334 3.258307
L4.505953 3.353545
" />
<path d="M4.505953 3.353545
L4.553572 3.544021
" />
<path d="M4.553572 3.544021
L4.553572 3.782116
" />
<path d="M4.553572 3.782116
L4.505953 3.972592
" />
<path d="M4.505953 3.972592
L4.458334 4.067830
" />
<path d="M4.458334 4.067830
L4.410715 4.115450
" />
<path d="M4.410715 4.115450
L4.315477 4.163069
" />
<path d="M4.315477 4.163069
L4.220239 4.163069
" />
<path d="M4.220239 4.163069
L4.125001 4.115450
" />
<path d="M4.125001 4.115450
L4.077382 4.067830
" />
<path d="M4.077382 4.067830
L4.029763 3.972592
" />
<path d="M4.029763 3.972592
L3.982144 3.782116
" />
<path d="M3.982144 3.782116
L3.982144 3.544021
" />
<path d="M3.982144 3.544021
L4.029763 3.353545
" />
<path d="M4.029763 3.353545
L4.077382 3.258307
" />
<path d="M4.077382 3.258307
L4.125001 3.210688
" />
<path d="M4.125001 3.210688
L4.220239 3.163069
" />
<path d="M4.886906 3.163069
L5.505953 3.163069
" />
<path d="M5.505953 3.163069
L5.172620 3.544021
" />
<path d="M5.172620 3.544021
L5.315477 3.544021
" />
<path d="M5.315477 3.544021
L5.410715 3.591640
" />
<path d="M5.410715 3.591640
L5.458334 3.639259
" />
<path d="M5.458334 3.639259
L5.505953 3.734497
" />
<path d="M5.505953 3.734497
L5.505953 3.972592
" />
<path d="M5.505953 3.972592
L5.458334 4.067830
" />
<path d="M5.458334 4.067830
L5.410715 4.115450
" />
<path d="M5.410715 4.115450
L5.315477 4.163069
" />
<path d="M5.315477 4.163069
L5.029763 4.163069
" />
<path d="M5.029763 4.163069
L4.934525 4.115450
" />
<path d="M4.934525 4.115450
L4.886906 4.067830
" />
<path d="M5.696429 4.258307
L6.458334 4.258307
" />
<path d="M7.220239 4.163069
L6.648811 4.163069
" />
<path d="M6.934525 4.163069
L6.934525 3.163069
" />
<path d="M6.934525 3.163069
L6.839287 3.305926
" />
<path d="M6.839287 3.305926
L6.744049 3.401164
" />
<path d="M6.744049 3.401164
L6.648811 3.448783
" />
<path d="M8.077382 3.163069
L7.886906 3.163069
" />
<path d="M7.886906 3.163069
L7.791668 3.210688
" />
<path d="M7.791668 3.210688
L7.744049 3.258307
" />
<path d="M7.744049 3.258307
L7.648811 3.401164
" />
<path d="M7.648811 3.401164
L7.601192 3.591640
" />
<path d="M7.601192 3.591640
L7.601192 3.972592
" />
<path d="M7.601192 3.972592
L7.648811 4.067830
" />
<path d="M7.648811 4.067830
L7.696430 4.115450
" />
<path d="M7.696430 4.115450
L7.791668 4.163069
" />
<path d="M7.791668 4.163069
L7.982144 4.163069
" />
<path d="M7.982144 4.163069
L8.077382 4.115450
" />
<path d="M8.077382 4.115450
L8.125001 4.067830
" />
<path d="M8.125001 4.067830
L8.172620 3.972592
" />
<path d="M8.172620 3.972592
L8.172620 3.734497
" />
<path d="M8.172620 3.734497
L8.125001 3.639259
" />
<path d="M8.125001 3.639259
L8.077382 3.591640
" />
<path d="M8.077382 3.591640
L7.982144 3.544021
" />
<path d="M7.982144 3.544021
L7.791668 3.544021
" />
<path d="M7.791668 3.544021
L7.696430 3.591640
" />
<path d="M7.696430 3.591640
L7.648811 3.639259
" />
<path d="M7.648811 3.639259
L7.601192 3.734497
" />
<path d="M8.791667 3.163069
L8.886905 3.163069
" />
<path d="M8.886905 3.163069
L8.982143 3.210688
" />
<path d="M8.982143 3.210688
L9.029762 3.258307
" />
<path d="M9.029762 3.258307
L9.077381 3.353545
" />
<path d="M9.077381 3.353545
L9.125000 3.544021
" />
<path d="M9.125000 3.544021
L9.125000 3.782116
" />
<path d="M9.125000 3.782116
L9.077381 3.972592
" />
<path d="M9.077381 3.972592
L9.029762 4.067830
" />
<path d="M9.029762 4.067830
L8.982143 4.115450
" />
<path d="M8.982143 4.115450
L8.886905 4.163069
" />
<path d="M8.886905 4.163069
L8.791667 4.163069
" />
<path d="M8.791667 4.163069
L8.696429 4.115450
" />
<path d="M8.696429 4.115450
L8.648810 4.067830
" />
<path d="M8.648810 4.067830
L8.601191 3.972592
" />
<path d="M8.601191 3.972592
L8.553572 3.782116
" />
<path d="M8.553572 3.782116
L8.553572 3.544021
" />
<path d="M8.553572 3.544021
L8.601191 3.353545
" />
<path d="M8.601191 3.353545
L8.648810 3.258307
" />
<path d="M8.648810 3.258307
L8.696429 3.210688
" />
<path d="M8.696429 3.210688
L8.791667 3.163069
" />
<path d="M9.696429 3.591640
L9.601191 3.544021
" />
<path d="M9.601191 3.544021
L9.553572 3.496402
" />
<path d="M9.553572 3.496402
L9.505953 3.401164
" />
<path d="M9.505953 3.401164
L9.505953 3.353545
" />
<path d="M9.505953 3.353545
L9.553572 3.258307
" />
<path d="M9.553572 3.258307
L9.601191 3.210688
" />
<path d="M9.601191 3.210688
L9.696429 3.163069
" />
<path d="M9.696429 3.163069
L9.886905 3.163069
" />
<path d="M9.886905 3.163069
L9.982143 3.210688
" />
<path d="M9.982143 3.210688
L10.029762 3.258307
" />
<path d="M10.029762 3.258307
L10.077381 3.353545
" />
<path d="M10.077381 3.353545
L10.077381 3.401164
" />
<path d="M10.077381 3.401164
L10.029762 3.496402
" />
<path d="M10.029762 3.496402
L9.982143 3.544021
" />
<path d="M9.982143 3.544021
L9.886905 3.591640
" />
<path d="M9.886905 3.591640
L9.696429 3.591640
" />
<path d="M9.696429 3.591640
L9.601191 3.639259
" />
<path d="M9.601191 3.639259
L9.553572 3.686878
" />
<path d="M9.553572 3.686878
L9.505953 3.782116
" />
<path d="M9.505953 3.782116
L9.505953 3.972592
" />
<path d="M9.505953 3.972592
L9.553572 4.067830
" />
<path d="M9.553572 4.067830
L9.601191 4.115450
" />
<path d="M9.601191 4.115450
L9.696429 4.163069
" />
<path d="M9.696429 4.163069
L9.886905 4.163069
" />
<path d="M9.886905 4.163069
L9.982143 4.115450
" />
<path d="M9.982143 4.115450
L10.029762 4.067830
" />
<path d="M10.029762 4.067830
L10.077381 3.972592
" />
<path d="M10.077381 3.972592
L10.077381 3.782116
" />
<path d="M10.077381 3.782116
L10.029762 3.686878
" />
<path d="M10.029762 3.686878
L9.982143 3.639259
" />
<path d="M9.982143 3.639259
L9.886905 3.591640
" />
<path d="M10.505953 4.163069
L10.505953 3.163069
" />
<path d="M10.505953 3.163069
L10.839286 3.877354
" />
<path d="M10.839286 3.877354
L11.172619 3.163069
" />
<path d="M11.172619 3.163069
L11.172619 4.163069
" />
<path d="M12.029762 4.115450
L11.934524 4.163069
" />
<path d="M11.934524 4.163069
L11.744048 4.163069
" />
<path d="M11.744048 4.163069
L11.648810 4.115450
" />
<path d="M11.648810 4.115450
L11.601191 4.020211
" />
<path d="M11.601191 4.020211
L11.601191 3.639259
" />
<path d="M11.601191 3.639259
L11.648810 3.544021
" />
<path d="M11.648810 3.544021
L11.744048 3.496402
" />
<path d="M11.744048 3.496402
L11.934524 3.496402
" />
<path d="M11.934524 3.496402
L12.029762 3.544021
" />
<path d="M12.029762 3.544021
L12.077381 3.639259
" />
<path d="M12.077381 3.639259
L12.077381 3.734497
" />
<path d="M12.077381 3.734497
L11.601191 3.829735
" />
<path d="M12.363096 3.496402
L12.744048 3.496402
" />
<path d="M12.505953 3.163069
L12.505953 4.020211
" />
<path d="M12.505953 4.020211
L12.553572 4.115450
" />
<path d="M12.553572 4.115450
L12.648810 4.163069
" />
<path d="M12.648810 4.163069
L12.744048 4.163069
" />
<path d="M13.077382 4.163069
L13.077382 3.496402
" />
<path d="M13.077382 3.686878
L13.125001 3.591640
" />
<path d="M13.125001 3.591640
L13.172620 3.544021
" />
<path d="M13.172620 3.544021
L13.267858 3.496402
" />
<path d="M13.267858 3.496402
L13.363096 3.496402
" />
<path d="M13.696430 4.163069
L13.696430 3.496402
" />
<path d="M13.696430 3.163069
L13.648811 3.210688
" />
<path d="M13.648811 3.210688
L13.696430 3.258307
" />
<path d="M13.696430 3.258307
L13.744049 3.210688
" />
<path d="M13.744049 3.210688
L13.696430 3.163069
" />
<path d="M13.696430 3.163069
L13.696430 3.258307
" />
<path d="M14.601191 4.115450
L14.505953 4.163069
" />
<path d="M14.505953 4.163069
L14.315477 4.163069
" />
<path d="M14.315477 4.163069
L14.220239 4.115450
" />
<path d="M14.220239 4.115450
L14.172620 4.067830
" />
<path d="M14.172620 4.067830
L14.125001 3.972592
" />
<path d="M14.125001 3.972592
L14.125001 3.686878
" />
<path d="M14.125001 3.686878
L14.172620 3.591640
" />
<path d="M14.172620 3.591640
L14.220239 3.544021
" />
<path d="M14.220239 3.544021
L14.315477 3.496402
" />
<path d="M14.315477 3.496402
L14.505953 3.496402
" />
<path d="M14.505953 3.496402
L14.601191 3.544021
" />
<path d="M14.791668 4.258307
L15.553572 4.258307
" />
<path d="M15.791668 4.163069
L15.791668 3.163069
" />
<path d="M15.791668 3.163069
L16.363096 4.163069
" />
<path d="M16.363096 4.163069
L16.363096 3.163069
" />
</g></g>
<g style="fill:none; 
stroke:#AFAFAF; stroke-width:0.060000; stroke-opacity:1; 
stroke-linecap:round; stroke-linejoin:round;">
<text x="8.363096" y="2.478250"
textLength="1.814286" font-size="0.533333" lengthAdjust="spacingAndGlyphs"
text-anchor="middle" opacity="0" stroke-opacity="0">REF**</text>
<g class="stroked-text"><desc>REF**</desc>
<path d="M7.829763 2.460177
L7.696430 2.269702
" />
<path d="M7.601192 2.460177
L7.601192 2.060178
" />
<path d="M7.601192 2.060178
L7.753573 2.060178
" />
<path d="M7.753573 2.060178
L7.791668 2.079226
" />
<path d="M7.791668 2.079226
L7.810715 2.098273
" />
<path d="M7.810715 2.098273
L7.829763 2.136369
" />
<path d="M7.829763 2.136369
L7.829763 2.193511
" />
<path d="M7.829763 2.193511
L7.810715 2.231607
" />
<path d="M7.810715 2.231607
L7.791668 2.250654
" />
<path d="M7.791668 2.250654
L7.753573 2.269702
" />
<path d="M7.753573 2.269702
L7.601192 2.269702
" />
<path d="M8.001192 2.250654
L8.134525 2.250654
" />
<path d="M8.191668 2.460177
L8.001192 2.460177
" />
<path d="M8.001192 2.460177
L8.001192 2.060178
" />
<path d="M8.001192 2.060178
L8.191668 2.060178
" />
<path d="M8.496429 2.250654
L8.363096 2.250654
" />
<path d="M8.363096 2.460177
L8.363096 2.060178
" />
<path d="M8.363096 2.060178
L8.553572 2.060178
" />
<path d="M8.763095 2.060178
L8.763095 2.155416
" />
<path d="M8.667857 2.117321
L8.763095 2.155416
" />
<path d="M8.763095 2.155416
L8.858334 2.117321
" />
<path d="M8.705953 2.231607
L8.763095 2.155416
" />
<path d="M8.763095 2.155416
L8.820238 2.231607
" />
<path d="M9.067857 2.060178
L9.067857 2.155416
" />
<path d="M8.972619 2.117321
L9.067857 2.155416
" />
<path d="M9.067857 2.155416
L9.163096 2.117321
" />
<path d="M9.010715 2.231607
L9.067857 2.155416
" />
<path d="M9.067857 2.155416
L9.125000 2.231607
" />
</g><path style="fill:none; 
stroke:#AFAFAF; stroke-width:0.100000; stroke-opacity:1; 
stroke-linecap:round; stroke-linejoin:round;fill:none"
d="M 7.563096,1.878250
9.163096,1.878250
9.163096,2.678250
7.563096,2.678250
Z" /> 
</g> 
</svg>
