<?xml version="1.0" standalone="no"?>
 <!DOCTYPE svg PUBLIC "-//W3C//DTD SVG 1.1//EN" 
 "http://www.w3.org/Graphics/SVG/1.1/DTD/svg11.dtd"> 
<svg
  xmlns:svg="http://www.w3.org/2000/svg"
  xmlns="http://www.w3.org/2000/svg"
  xmlns:xlink="http://www.w3.org/1999/xlink"
  xmlns:inkscape="http://www.inkscape.org/namespaces/inkscape"
  version="1.1"
  width="100%" height="100%" viewBox="0.0000 0.0000 11.7348 7.1628">
<title>SVG Image created as C_Small_unit1.svg date 2026-04-16T05:24:11 </title>
  <desc>Image generated by Eeschema-SVG </desc>
<g style="fill:#000000; fill-opacity:1.0000;stroke:#000000; stroke-opacity:1.0000;
stroke-linecap:round; stroke-linejoin:round;"
 transform="translate(0 0) scale(1 1)">
<path style="fill:none; 
stroke:#840000; stroke-width:0.3048; stroke-opacity:1; 
stroke-linecap:round; stroke-linejoin:round;fill:none"
d="M 1.1399,3.0071
4.1879,3.0071
" /> 
<path style="fill:none; 
stroke:#840000; stroke-width:0.3302; stroke-opacity:1; 
stroke-linecap:round; stroke-linejoin:round;fill:none"
d="M 1.1399,4.0231
4.1879,4.0231
" /> 
</g>
<g style="fill:none; 
stroke:#840000; stroke-width:0.1524; stroke-opacity:1; 
stroke-linecap:round; stroke-linejoin:round;">
<path d="M2.6639 3.0071
L2.6639 0.9751
" />
<path d="M2.6639 4.0231
L2.6639 6.0551
" />
</g>
<g style="fill:none; 
stroke:#006464; stroke-width:0.1524; stroke-opacity:1; 
stroke-linecap:round; stroke-linejoin:round;">
<text x="2.9179" y="2.3721"
textLength="2.5618" font-size="1.6933" lengthAdjust="spacingAndGlyphs"
text-anchor="start" opacity="0" stroke-opacity="0">C?</text>
<g class="stroked-text"><desc>C?</desc>
<path d="M4.0461 2.1957
L3.9857 2.2562
" />
<path d="M3.9857 2.2562
L3.8042 2.3166
" />
<path d="M3.8042 2.3166
L3.6833 2.3166
" />
<path d="M3.6833 2.3166
L3.5019 2.2562
" />
<path d="M3.5019 2.2562
L3.3809 2.1352
" />
<path d="M3.3809 2.1352
L3.3204 2.0142
" />
<path d="M3.3204 2.0142
L3.2600 1.7723
" />
<path d="M3.2600 1.7723
L3.2600 1.5909
" />
<path d="M3.2600 1.5909
L3.3204 1.3490
" />
<path d="M3.3204 1.3490
L3.3809 1.2281
" />
<path d="M3.3809 1.2281
L3.5019 1.1071
" />
<path d="M3.5019 1.1071
L3.6833 1.0466
" />
<path d="M3.6833 1.0466
L3.8042 1.0466
" />
<path d="M3.8042 1.0466
L3.9857 1.1071
" />
<path d="M3.9857 1.1071
L4.0461 1.1676
" />
<path d="M4.7719 2.1957
L4.8323 2.2562
" />
<path d="M4.8323 2.2562
L4.7719 2.3166
" />
<path d="M4.7719 2.3166
L4.7114 2.2562
" />
<path d="M4.7114 2.2562
L4.7719 2.1957
" />
<path d="M4.7719 2.1957
L4.7719 2.3166
" />
<path d="M4.5300 1.1071
L4.6509 1.0466
" />
<path d="M4.6509 1.0466
L4.9533 1.0466
" />
<path d="M4.9533 1.0466
L5.0742 1.1071
" />
<path d="M5.0742 1.1071
L5.1347 1.2281
" />
<path d="M5.1347 1.2281
L5.1347 1.3490
" />
<path d="M5.1347 1.3490
L5.0742 1.4700
" />
<path d="M5.0742 1.4700
L5.0138 1.5304
" />
<path d="M5.0138 1.5304
L4.8928 1.5909
" />
<path d="M4.8928 1.5909
L4.8323 1.6514
" />
<path d="M4.8323 1.6514
L4.7719 1.7723
" />
<path d="M4.7719 1.7723
L4.7719 1.8328
" />
</g><text x="2.9179" y="6.1821"
textLength="7.8230" font-size="1.6933" lengthAdjust="spacingAndGlyphs"
text-anchor="start" opacity="0" stroke-opacity="0">C_Small</text>
<g class="stroked-text"><desc>C_Small</desc>
<path d="M4.0461 6.0057
L3.9857 6.0662
" />
<path d="M3.9857 6.0662
L3.8042 6.1266
" />
<path d="M3.8042 6.1266
L3.6833 6.1266
" />
<path d="M3.6833 6.1266
L3.5019 6.0662
" />
<path d="M3.5019 6.0662
L3.3809 5.9452
" />
<path d="M3.3809 5.9452
L3.3204 5.8242
" />
<path d="M3.3204 5.8242
L3.2600 5.5823
" />
<path d="M3.2600 5.5823
L3.2600 5.4009
" />
<path d="M3.2600 5.4009
L3.3204 5.1590
" />
<path d="M3.3204 5.1590
L3.3809 5.0381
" />
<path d="M3.3809 5.0381
L3.5019 4.9171
" />
<path d="M3.5019 4.9171
L3.6833 4.8566
" />
<path d="M3.6833 4.8566
L3.8042 4.8566
" />
<path d="M3.8042 4.8566
L3.9857 4.9171
" />
<path d="M3.9857 4.9171
L4.0461 4.9776
" />
<path d="M4.2881 6.2476
L5.2557 6.2476
" />
<path d="M5.4976 6.0662
L5.6790 6.1266
" />
<path d="M5.6790 6.1266
L5.9814 6.1266
" />
<path d="M5.9814 6.1266
L6.1023 6.0662
" />
<path d="M6.1023 6.0662
L6.1628 6.0057
" />
<path d="M6.1628 6.0057
L6.2233 5.8847
" />
<path d="M6.2233 5.8847
L6.2233 5.7638
" />
<path d="M6.2233 5.7638
L6.1628 5.6428
" />
<path d="M6.1628 5.6428
L6.1023 5.5823
" />
<path d="M6.1023 5.5823
L5.9814 5.5219
" />
<path d="M5.9814 5.5219
L5.7395 5.4614
" />
<path d="M5.7395 5.4614
L5.6185 5.4009
" />
<path d="M5.6185 5.4009
L5.5580 5.3404
" />
<path d="M5.5580 5.3404
L5.4976 5.2195
" />
<path d="M5.4976 5.2195
L5.4976 5.0985
" />
<path d="M5.4976 5.0985
L5.5580 4.9776
" />
<path d="M5.5580 4.9776
L5.6185 4.9171
" />
<path d="M5.6185 4.9171
L5.7395 4.8566
" />
<path d="M5.7395 4.8566
L6.0418 4.8566
" />
<path d="M6.0418 4.8566
L6.2233 4.9171
" />
<path d="M6.7675 6.1266
L6.7675 5.2800
" />
<path d="M6.7675 5.4009
L6.8280 5.3404
" />
<path d="M6.8280 5.3404
L6.9490 5.2800
" />
<path d="M6.9490 5.2800
L7.1304 5.2800
" />
<path d="M7.1304 5.2800
L7.2513 5.3404
" />
<path d="M7.2513 5.3404
L7.3118 5.4614
" />
<path d="M7.3118 5.4614
L7.3118 6.1266
" />
<path d="M7.3118 5.4614
L7.3723 5.3404
" />
<path d="M7.3723 5.3404
L7.4932 5.2800
" />
<path d="M7.4932 5.2800
L7.6747 5.2800
" />
<path d="M7.6747 5.2800
L7.7956 5.3404
" />
<path d="M7.7956 5.3404
L7.8561 5.4614
" />
<path d="M7.8561 5.4614
L7.8561 6.1266
" />
<path d="M9.0051 6.1266
L9.0051 5.4614
" />
<path d="M9.0051 5.4614
L8.9446 5.3404
" />
<path d="M8.9446 5.3404
L8.8237 5.2800
" />
<path d="M8.8237 5.2800
L8.5818 5.2800
" />
<path d="M8.5818 5.2800
L8.4608 5.3404
" />
<path d="M9.0051 6.0662
L8.8842 6.1266
" />
<path d="M8.8842 6.1266
L8.5818 6.1266
" />
<path d="M8.5818 6.1266
L8.4608 6.0662
" />
<path d="M8.4608 6.0662
L8.4004 5.9452
" />
<path d="M8.4004 5.9452
L8.4004 5.8242
" />
<path d="M8.4004 5.8242
L8.4608 5.7033
" />
<path d="M8.4608 5.7033
L8.5818 5.6428
" />
<path d="M8.5818 5.6428
L8.8842 5.6428
" />
<path d="M8.8842 5.6428
L9.0051 5.5823
" />
<path d="M9.7913 6.1266
L9.6703 6.0662
" />
<path d="M9.6703 6.0662
L9.6098 5.9452
" />
<path d="M9.6098 5.9452
L9.6098 4.8566
" />
<path d="M10.4565 6.1266
L10.3355 6.0662
" />
<path d="M10.3355 6.0662
L10.2750 5.9452
" />
<path d="M10.2750 5.9452
L10.2750 4.8566
" />
</g></g> 
</svg>
