<?xml version="1.0" standalone="no"?>
 <!DOCTYPE svg PUBLIC "-//W3C//DTD SVG 1.1//EN" 
 "http://www.w3.org/Graphics/SVG/1.1/DTD/svg11.dtd"> 
<svg
  xmlns:svg="http://www.w3.org/2000/svg"
  xmlns="http://www.w3.org/2000/svg"
  xmlns:xlink="http://www.w3.org/1999/xlink"
  xmlns:inkscape="http://www.inkscape.org/namespaces/inkscape"
  version="1.1"
  width="100%" height="100%" viewBox="0.000000 0.000000 4.521200 5.207000">
<title>SVG Image created as DSS0012B.svg date 2026-04-16T05:24:20 </title>
  <desc>Image generated by PCBNEW </desc>
<g style="fill:#000000; fill-opacity:1.000000;stroke:#000000; stroke-opacity:1.000000;
stroke-linecap:round; stroke-linejoin:round;"
 transform="translate(0 0) scale(1 1)">
<path style="fill:#C83434; fill-opacity:1.000000; stroke:none;fill-rule:evenodd;"
d="M 1.067857,1.973250
1.567857,1.973250
1.567857,2.223250
1.067857,2.223250
Z" /> 
<path style="fill:#C83434; fill-opacity:1.000000; stroke:none;fill-rule:evenodd;"
d="M 1.067857,2.473250
1.567857,2.473250
1.567857,2.723250
1.067857,2.723250
Z" /> 
<path style="fill:#C83434; fill-opacity:1.000000; stroke:none;fill-rule:evenodd;"
d="M 1.067857,2.973250
1.567857,2.973250
1.567857,3.223250
1.067857,3.223250
Z" /> 
<path style="fill:#C83434; fill-opacity:1.000000; stroke:none;fill-rule:evenodd;"
d="M 1.067857,3.473250
1.567857,3.473250
1.567857,3.723250
1.067857,3.723250
Z" /> 
<path style="fill:#C83434; fill-opacity:1.000000; stroke:none;fill-rule:evenodd;"
d="M 1.067857,3.973250
1.567857,3.973250
1.567857,4.223250
1.067857,4.223250
Z" /> 
<path style="fill:#C83434; fill-opacity:1.000000; stroke:none;fill-rule:evenodd;"
d="M 1.067857,4.473250
1.567857,4.473250
1.567857,4.723250
1.067857,4.723250
Z" /> 
<path style="fill:#C83434; fill-opacity:1.000000; stroke:none;fill-rule:evenodd;"
d="M 2.967857,4.473250
3.467857,4.473250
3.467857,4.723250
2.967857,4.723250
Z" /> 
<path style="fill:#C83434; fill-opacity:1.000000; stroke:none;fill-rule:evenodd;"
d="M 2.967857,3.973250
3.467857,3.973250
3.467857,4.223250
2.967857,4.223250
Z" /> 
<path style="fill:#C83434; fill-opacity:1.000000; stroke:none;fill-rule:evenodd;"
d="M 2.967857,3.473250
3.467857,3.473250
3.467857,3.723250
2.967857,3.723250
Z" /> 
<path style="fill:#C83434; fill-opacity:1.000000; stroke:none;fill-rule:evenodd;"
d="M 2.967857,2.973250
3.467857,2.973250
3.467857,3.223250
2.967857,3.223250
Z" /> 
<path style="fill:#C83434; fill-opacity:1.000000; stroke:none;fill-rule:evenodd;"
d="M 2.967857,2.473250
3.467857,2.473250
3.467857,2.723250
2.967857,2.723250
Z" /> 
<path style="fill:#C83434; fill-opacity:1.000000; stroke:none;fill-rule:evenodd;"
d="M 2.967857,1.973250
3.467857,1.973250
3.467857,2.223250
2.967857,2.223250
Z" /> 
<path style="fill:#C83434; fill-opacity:1.000000; stroke:none;fill-rule:evenodd;"
d="M 1.767857,4.673250
1.767857,2.023250
2.767857,2.023250
2.767857,4.673250
Z" /> 
<path style="fill:#D864FF; fill-opacity:0.400000; stroke:none;fill-rule:evenodd;"
d="M 1.067857,1.973250
1.567857,1.973250
1.567857,2.223250
1.067857,2.223250
Z" /> 
<path style="fill:#D864FF; fill-opacity:0.400000; stroke:none;fill-rule:evenodd;"
d="M 1.067857,2.473250
1.567857,2.473250
1.567857,2.723250
1.067857,2.723250
Z" /> 
<path style="fill:#D864FF; fill-opacity:0.400000; stroke:none;fill-rule:evenodd;"
d="M 1.067857,2.973250
1.567857,2.973250
1.567857,3.223250
1.067857,3.223250
Z" /> 
<path style="fill:#D864FF; fill-opacity:0.400000; stroke:none;fill-rule:evenodd;"
d="M 1.067857,3.473250
1.567857,3.473250
1.567857,3.723250
1.067857,3.723250
Z" /> 
<path style="fill:#D864FF; fill-opacity:0.400000; stroke:none;fill-rule:evenodd;"
d="M 1.067857,3.973250
1.567857,3.973250
1.567857,4.223250
1.067857,4.223250
Z" /> 
<path style="fill:#D864FF; fill-opacity:0.400000; stroke:none;fill-rule:evenodd;"
d="M 1.067857,4.473250
1.567857,4.473250
1.567857,4.723250
1.067857,4.723250
Z" /> 
<path style="fill:#D864FF; fill-opacity:0.400000; stroke:none;fill-rule:evenodd;"
d="M 2.967857,4.473250
3.467857,4.473250
3.467857,4.723250
2.967857,4.723250
Z" /> 
<path style="fill:#D864FF; fill-opacity:0.400000; stroke:none;fill-rule:evenodd;"
d="M 2.967857,3.973250
3.467857,3.973250
3.467857,4.223250
2.967857,4.223250
Z" /> 
<path style="fill:#D864FF; fill-opacity:0.400000; stroke:none;fill-rule:evenodd;"
d="M 2.967857,3.473250
3.467857,3.473250
3.467857,3.723250
2.967857,3.723250
Z" /> 
<path style="fill:#D864FF; fill-opacity:0.400000; stroke:none;fill-rule:evenodd;"
d="M 2.967857,2.973250
3.467857,2.973250
3.467857,3.223250
2.967857,3.223250
Z" /> 
<path style="fill:#D864FF; fill-opacity:0.400000; stroke:none;fill-rule:evenodd;"
d="M 2.967857,2.473250
3.467857,2.473250
3.467857,2.723250
2.967857,2.723250
Z" /> 
<path style="fill:#D864FF; fill-opacity:0.400000; stroke:none;fill-rule:evenodd;"
d="M 2.967857,1.973250
3.467857,1.973250
3.467857,2.223250
2.967857,2.223250
Z" /> 
<path style="fill:#D864FF; fill-opacity:0.400000; stroke:none;fill-rule:evenodd;"
d="M 1.767857,4.673250
1.767857,2.023250
2.767857,2.023250
2.767857,4.673250
Z" /> 
<path style="fill:#B4A09A; fill-opacity:0.900000; stroke:none;fill-rule:evenodd;"
d="M 1.067857,1.973250
1.567857,1.973250
1.567857,2.223250
1.067857,2.223250
Z" /> 
<path style="fill:#B4A09A; fill-opacity:0.900000; stroke:none;fill-rule:evenodd;"
d="M 1.067857,2.473250
1.567857,2.473250
1.567857,2.723250
1.067857,2.723250
Z" /> 
<path style="fill:#B4A09A; fill-opacity:0.900000; stroke:none;fill-rule:evenodd;"
d="M 1.067857,2.973250
1.567857,2.973250
1.567857,3.223250
1.067857,3.223250
Z" /> 
<path style="fill:#B4A09A; fill-opacity:0.900000; stroke:none;fill-rule:evenodd;"
d="M 1.067857,3.473250
1.567857,3.473250
1.567857,3.723250
1.067857,3.723250
Z" /> 
<path style="fill:#B4A09A; fill-opacity:0.900000; stroke:none;fill-rule:evenodd;"
d="M 1.067857,3.973250
1.567857,3.973250
1.567857,4.223250
1.067857,4.223250
Z" /> 
<path style="fill:#B4A09A; fill-opacity:0.900000; stroke:none;fill-rule:evenodd;"
d="M 1.067857,4.473250
1.567857,4.473250
1.567857,4.723250
1.067857,4.723250
Z" /> 
<path style="fill:#B4A09A; fill-opacity:0.900000; stroke:none;fill-rule:evenodd;"
d="M 2.967857,4.473250
3.467857,4.473250
3.467857,4.723250
2.967857,4.723250
Z" /> 
<path style="fill:#B4A09A; fill-opacity:0.900000; stroke:none;fill-rule:evenodd;"
d="M 2.967857,3.973250
3.467857,3.973250
3.467857,4.223250
2.967857,4.223250
Z" /> 
<path style="fill:#B4A09A; fill-opacity:0.900000; stroke:none;fill-rule:evenodd;"
d="M 2.967857,3.473250
3.467857,3.473250
3.467857,3.723250
2.967857,3.723250
Z" /> 
<path style="fill:#B4A09A; fill-opacity:0.900000; stroke:none;fill-rule:evenodd;"
d="M 2.967857,2.973250
3.467857,2.973250
3.467857,3.223250
2.967857,3.223250
Z" /> 
<path style="fill:#B4A09A; fill-opacity:0.900000; stroke:none;fill-rule:evenodd;"
d="M 2.967857,2.473250
3.467857,2.473250
3.467857,2.723250
2.967857,2.723250
Z" /> 
<path style="fill:#B4A09A; fill-opacity:0.900000; stroke:none;fill-rule:evenodd;"
d="M 2.967857,1.973250
3.467857,1.973250
3.467857,2.223250
2.967857,2.223250
Z" /> 
<path style="fill:#B4A09A; fill-opacity:0.900000; stroke:none;fill-rule:evenodd;"
d="M 1.767857,4.673250
1.767857,2.023250
2.767857,2.023250
2.767857,4.673250
Z" /> 
</g>
<g style="fill:none; 
stroke:#F2EDA1; stroke-width:0.150000; stroke-opacity:1; 
stroke-linecap:round; stroke-linejoin:round;">
<text x="2.267857" y="1.348250"
textLength="4.535715" font-size="1.333333" lengthAdjust="spacingAndGlyphs"
text-anchor="middle" opacity="0" stroke-opacity="0">REF**</text>
<g class="stroked-text"><desc>REF**</desc>
<path d="M0.934524 1.303070
L0.601191 0.826879
" />
<path d="M0.363096 1.303070
L0.363096 0.303070
" />
<path d="M0.363096 0.303070
L0.744048 0.303070
" />
<path d="M0.744048 0.303070
L0.839286 0.350689
" />
<path d="M0.839286 0.350689
L0.886905 0.398308
" />
<path d="M0.886905 0.398308
L0.934524 0.493546
" />
<path d="M0.934524 0.493546
L0.934524 0.636403
" />
<path d="M0.934524 0.636403
L0.886905 0.731641
" />
<path d="M0.886905 0.731641
L0.839286 0.779260
" />
<path d="M0.839286 0.779260
L0.744048 0.826879
" />
<path d="M0.744048 0.826879
L0.363096 0.826879
" />
<path d="M1.363096 0.779260
L1.696429 0.779260
" />
<path d="M1.839286 1.303070
L1.363096 1.303070
" />
<path d="M1.363096 1.303070
L1.363096 0.303070
" />
<path d="M1.363096 0.303070
L1.839286 0.303070
" />
<path d="M2.601190 0.779260
L2.267857 0.779260
" />
<path d="M2.267857 1.303070
L2.267857 0.303070
" />
<path d="M2.267857 0.303070
L2.744047 0.303070
" />
<path d="M3.267857 0.303070
L3.267857 0.541165
" />
<path d="M3.029762 0.445927
L3.267857 0.541165
" />
<path d="M3.267857 0.541165
L3.505952 0.445927
" />
<path d="M3.125000 0.731641
L3.267857 0.541165
" />
<path d="M3.267857 0.541165
L3.410714 0.731641
" />
<path d="M4.029762 0.303070
L4.029762 0.541165
" />
<path d="M3.791667 0.445927
L4.029762 0.541165
" />
<path d="M4.029762 0.541165
L4.267857 0.445927
" />
<path d="M3.886905 0.731641
L4.029762 0.541165
" />
<path d="M4.029762 0.541165
L4.172619 0.731641
" />
</g></g>
<g style="fill:none; 
stroke:#F2EDA1; stroke-width:0.200000; stroke-opacity:1; 
stroke-linecap:round; stroke-linejoin:round;">
<path d="M1.217857 1.648250
L1.742857 1.648250
" />
<path d="M1.217857 5.048250
L1.367857 5.048250
" />
<path d="M3.167857 1.648250
L3.317857 1.648250
" />
<path d="M3.167857 5.048250
L3.317857 5.048250
" />
</g>
<g style="fill:none; 
stroke:#FF26E2; stroke-width:0.050000; stroke-opacity:1; 
stroke-linecap:round; stroke-linejoin:round;">
<path d="M0.767857 1.498250
L0.767857 5.198250
" />
<path d="M0.767857 5.198250
L3.767857 5.198250
" />
<path d="M3.767857 1.498250
L0.767857 1.498250
" />
<path d="M3.767857 5.198250
L3.767857 1.498250
" />
</g>
<g style="fill:none; 
stroke:#AFAFAF; stroke-width:0.100000; stroke-opacity:1; 
stroke-linecap:round; stroke-linejoin:round;">
<path d="M1.217857 1.798250
L1.217857 4.898250
" />
<path d="M1.217857 4.898250
L3.317857 4.898250
" />
<path d="M3.317857 1.798250
L1.217857 1.798250
" />
<path d="M3.317857 4.898250
L3.317857 1.798250
" />
<circle cx="1.667857" cy="2.223250" r="0.200000" /> 
</g> 
</svg>
