<?xml version="1.0" standalone="no"?>
 <!DOCTYPE svg PUBLIC "-//W3C//DTD SVG 1.1//EN" 
 "http://www.w3.org/Graphics/SVG/1.1/DTD/svg11.dtd"> 
<svg
  xmlns:svg="http://www.w3.org/2000/svg"
  xmlns="http://www.w3.org/2000/svg"
  xmlns:xlink="http://www.w3.org/1999/xlink"
  xmlns:inkscape="http://www.inkscape.org/namespaces/inkscape"
  version="1.1"
  width="100%" height="100%" viewBox="0.000000 0.000000 16.281400 3.784600">
<title>SVG Image created as L_0201_0603Metric_L.svg date 2026-04-16T05:24:16 </title>
  <desc>Image generated by PCBNEW </desc>
<g style="fill:#000000; fill-opacity:1.000000;stroke:#000000; stroke-opacity:1.000000;
stroke-linecap:round; stroke-linejoin:round;"
 transform="translate(0 0) scale(1 1)">
<path style="fill:#C83434; fill-opacity:1.000000; stroke:none;fill-rule:evenodd;"
d="M 7.622810,1.814000
7.629223,1.781759
7.647486,1.754426
7.674819,1.736163
7.707060,1.729750
7.950560,1.729750
7.982801,1.736163
8.010134,1.754426
8.028397,1.781759
8.034810,1.814000
8.034810,1.982500
8.028397,2.014741
8.010134,2.042074
7.982801,2.060337
7.950560,2.066750
7.707060,2.066750
7.674819,2.060337
7.647486,2.042074
7.629223,2.014741
7.622810,1.982500
Z" /> 
<path style="fill:#C83434; fill-opacity:1.000000; stroke:none;fill-rule:evenodd;"
d="M 8.262810,1.814000
8.269223,1.781759
8.287486,1.754426
8.314819,1.736163
8.347060,1.729750
8.590560,1.729750
8.622801,1.736163
8.650134,1.754426
8.668397,1.781759
8.674810,1.814000
8.674810,1.982500
8.668397,2.014741
8.650134,2.042074
8.622801,2.060337
8.590560,2.066750
8.347060,2.066750
8.314819,2.060337
8.287486,2.042074
8.269223,2.014741
8.262810,1.982500
Z" /> 
<path style="fill:#D864FF; fill-opacity:0.400000; stroke:none;fill-rule:evenodd;"
d="M 7.622810,1.814000
7.629223,1.781759
7.647486,1.754426
7.674819,1.736163
7.707060,1.729750
7.950560,1.729750
7.982801,1.736163
8.010134,1.754426
8.028397,1.781759
8.034810,1.814000
8.034810,1.982500
8.028397,2.014741
8.010134,2.042074
7.982801,2.060337
7.950560,2.066750
7.707060,2.066750
7.674819,2.060337
7.647486,2.042074
7.629223,2.014741
7.622810,1.982500
Z" /> 
<path style="fill:#D864FF; fill-opacity:0.400000; stroke:none;fill-rule:evenodd;"
d="M 8.262810,1.814000
8.269223,1.781759
8.287486,1.754426
8.314819,1.736163
8.347060,1.729750
8.590560,1.729750
8.622801,1.736163
8.650134,1.754426
8.668397,1.781759
8.674810,1.814000
8.674810,1.982500
8.668397,2.014741
8.650134,2.042074
8.622801,2.060337
8.590560,2.066750
8.347060,2.066750
8.314819,2.060337
8.287486,2.042074
8.269223,2.014741
8.262810,1.982500
Z" /> 
<path style="fill:#B4A09A; fill-opacity:0.900000; stroke:none;fill-rule:evenodd;"
d="M 7.644810,1.797750
7.650862,1.767327
7.668095,1.741535
7.693887,1.724302
7.724310,1.718250
7.883310,1.718250
7.913733,1.724302
7.939525,1.741535
7.956758,1.767327
7.962810,1.797750
7.962810,1.998750
7.956758,2.029173
7.939525,2.054965
7.913733,2.072198
7.883310,2.078250
7.724310,2.078250
7.693887,2.072198
7.668095,2.054965
7.650862,2.029173
7.644810,1.998750
Z" /> 
<path style="fill:#B4A09A; fill-opacity:0.900000; stroke:none;fill-rule:evenodd;"
d="M 8.334810,1.797750
8.340862,1.767327
8.358095,1.741535
8.383887,1.724302
8.414310,1.718250
8.573310,1.718250
8.603733,1.724302
8.629525,1.741535
8.646758,1.767327
8.652810,1.797750
8.652810,1.998750
8.646758,2.029173
8.629525,2.054965
8.603733,2.072198
8.573310,2.078250
8.414310,2.078250
8.383887,2.072198
8.358095,2.054965
8.340862,2.029173
8.334810,1.998750
Z" /> 
</g>
<g style="fill:none; 
stroke:#F2EDA1; stroke-width:0.150000; stroke-opacity:1; 
stroke-linecap:round; stroke-linejoin:round;">
<text x="8.148810" y="1.348250"
textLength="4.535715" font-size="1.333333" lengthAdjust="spacingAndGlyphs"
text-anchor="middle" opacity="0" stroke-opacity="0">REF**</text>
<g class="stroked-text"><desc>REF**</desc>
<path d="M6.815477 1.303070
L6.482144 0.826879
" />
<path d="M6.244049 1.303070
L6.244049 0.303070
" />
<path d="M6.244049 0.303070
L6.625001 0.303070
" />
<path d="M6.625001 0.303070
L6.720239 0.350689
" />
<path d="M6.720239 0.350689
L6.767858 0.398308
" />
<path d="M6.767858 0.398308
L6.815477 0.493546
" />
<path d="M6.815477 0.493546
L6.815477 0.636403
" />
<path d="M6.815477 0.636403
L6.767858 0.731641
" />
<path d="M6.767858 0.731641
L6.720239 0.779260
" />
<path d="M6.720239 0.779260
L6.625001 0.826879
" />
<path d="M6.625001 0.826879
L6.244049 0.826879
" />
<path d="M7.244049 0.779260
L7.577382 0.779260
" />
<path d="M7.720239 1.303070
L7.244049 1.303070
" />
<path d="M7.244049 1.303070
L7.244049 0.303070
" />
<path d="M7.244049 0.303070
L7.720239 0.303070
" />
<path d="M8.482143 0.779260
L8.148810 0.779260
" />
<path d="M8.148810 1.303070
L8.148810 0.303070
" />
<path d="M8.148810 0.303070
L8.625000 0.303070
" />
<path d="M9.148810 0.303070
L9.148810 0.541165
" />
<path d="M8.910715 0.445927
L9.148810 0.541165
" />
<path d="M9.148810 0.541165
L9.386905 0.445927
" />
<path d="M9.005953 0.731641
L9.148810 0.541165
" />
<path d="M9.148810 0.541165
L9.291667 0.731641
" />
<path d="M9.910715 0.303070
L9.910715 0.541165
" />
<path d="M9.672620 0.445927
L9.910715 0.541165
" />
<path d="M9.910715 0.541165
L10.148810 0.445927
" />
<path d="M9.767858 0.731641
L9.910715 0.541165
" />
<path d="M9.910715 0.541165
L10.053572 0.731641
" />
</g><path style="fill:none; 
stroke:#FF26E2; stroke-width:0.050000; stroke-opacity:1; 
stroke-linecap:round; stroke-linejoin:round;fill:none"
d="M 7.578810,1.678250
8.718810,1.678250
8.718810,2.118250
7.578810,2.118250
Z" /> 
</g>
<g style="fill:none; 
stroke:#AFAFAF; stroke-width:0.150000; stroke-opacity:1; 
stroke-linecap:round; stroke-linejoin:round;">
<text x="8.148810" y="3.448250"
textLength="16.297621" font-size="1.333333" lengthAdjust="spacingAndGlyphs"
text-anchor="middle" opacity="0" stroke-opacity="0">L_0201_0603Metric_L</text>
<g class="stroked-text"><desc>L_0201_0603Metric_L</desc>
<path d="M0.839286 3.403069
L0.363096 3.403069
" />
<path d="M0.363096 3.403069
L0.363096 2.403069
" />
<path d="M0.934524 3.498307
L1.696429 3.498307
" />
<path d="M2.125001 2.403069
L2.220239 2.403069
" />
<path d="M2.220239 2.403069
L2.315477 2.450688
" />
<path d="M2.315477 2.450688
L2.363096 2.498307
" />
<path d="M2.363096 2.498307
L2.410715 2.593545
" />
<path d="M2.410715 2.593545
L2.458334 2.784021
" />
<path d="M2.458334 2.784021
L2.458334 3.022116
" />
<path d="M2.458334 3.022116
L2.410715 3.212592
" />
<path d="M2.410715 3.212592
L2.363096 3.307830
" />
<path d="M2.363096 3.307830
L2.315477 3.355450
" />
<path d="M2.315477 3.355450
L2.220239 3.403069
" />
<path d="M2.220239 3.403069
L2.125001 3.403069
" />
<path d="M2.125001 3.403069
L2.029763 3.355450
" />
<path d="M2.029763 3.355450
L1.982144 3.307830
" />
<path d="M1.982144 3.307830
L1.934525 3.212592
" />
<path d="M1.934525 3.212592
L1.886906 3.022116
" />
<path d="M1.886906 3.022116
L1.886906 2.784021
" />
<path d="M1.886906 2.784021
L1.934525 2.593545
" />
<path d="M1.934525 2.593545
L1.982144 2.498307
" />
<path d="M1.982144 2.498307
L2.029763 2.450688
" />
<path d="M2.029763 2.450688
L2.125001 2.403069
" />
<path d="M2.839287 2.498307
L2.886906 2.450688
" />
<path d="M2.886906 2.450688
L2.982144 2.403069
" />
<path d="M2.982144 2.403069
L3.220239 2.403069
" />
<path d="M3.220239 2.403069
L3.315477 2.450688
" />
<path d="M3.315477 2.450688
L3.363096 2.498307
" />
<path d="M3.363096 2.498307
L3.410715 2.593545
" />
<path d="M3.410715 2.593545
L3.410715 2.688783
" />
<path d="M3.410715 2.688783
L3.363096 2.831640
" />
<path d="M3.363096 2.831640
L2.791668 3.403069
" />
<path d="M2.791668 3.403069
L3.410715 3.403069
" />
<path d="M4.029763 2.403069
L4.125001 2.403069
" />
<path d="M4.125001 2.403069
L4.220239 2.450688
" />
<path d="M4.220239 2.450688
L4.267858 2.498307
" />
<path d="M4.267858 2.498307
L4.315477 2.593545
" />
<path d="M4.315477 2.593545
L4.363096 2.784021
" />
<path d="M4.363096 2.784021
L4.363096 3.022116
" />
<path d="M4.363096 3.022116
L4.315477 3.212592
" />
<path d="M4.315477 3.212592
L4.267858 3.307830
" />
<path d="M4.267858 3.307830
L4.220239 3.355450
" />
<path d="M4.220239 3.355450
L4.125001 3.403069
" />
<path d="M4.125001 3.403069
L4.029763 3.403069
" />
<path d="M4.029763 3.403069
L3.934525 3.355450
" />
<path d="M3.934525 3.355450
L3.886906 3.307830
" />
<path d="M3.886906 3.307830
L3.839287 3.212592
" />
<path d="M3.839287 3.212592
L3.791668 3.022116
" />
<path d="M3.791668 3.022116
L3.791668 2.784021
" />
<path d="M3.791668 2.784021
L3.839287 2.593545
" />
<path d="M3.839287 2.593545
L3.886906 2.498307
" />
<path d="M3.886906 2.498307
L3.934525 2.450688
" />
<path d="M3.934525 2.450688
L4.029763 2.403069
" />
<path d="M5.315477 3.403069
L4.744049 3.403069
" />
<path d="M5.029763 3.403069
L5.029763 2.403069
" />
<path d="M5.029763 2.403069
L4.934525 2.545926
" />
<path d="M4.934525 2.545926
L4.839287 2.641164
" />
<path d="M4.839287 2.641164
L4.744049 2.688783
" />
<path d="M5.505953 3.498307
L6.267858 3.498307
" />
<path d="M6.696430 2.403069
L6.791668 2.403069
" />
<path d="M6.791668 2.403069
L6.886906 2.450688
" />
<path d="M6.886906 2.450688
L6.934525 2.498307
" />
<path d="M6.934525 2.498307
L6.982144 2.593545
" />
<path d="M6.982144 2.593545
L7.029763 2.784021
" />
<path d="M7.029763 2.784021
L7.029763 3.022116
" />
<path d="M7.029763 3.022116
L6.982144 3.212592
" />
<path d="M6.982144 3.212592
L6.934525 3.307830
" />
<path d="M6.934525 3.307830
L6.886906 3.355450
" />
<path d="M6.886906 3.355450
L6.791668 3.403069
" />
<path d="M6.791668 3.403069
L6.696430 3.403069
" />
<path d="M6.696430 3.403069
L6.601192 3.355450
" />
<path d="M6.601192 3.355450
L6.553573 3.307830
" />
<path d="M6.553573 3.307830
L6.505954 3.212592
" />
<path d="M6.505954 3.212592
L6.458335 3.022116
" />
<path d="M6.458335 3.022116
L6.458335 2.784021
" />
<path d="M6.458335 2.784021
L6.505954 2.593545
" />
<path d="M6.505954 2.593545
L6.553573 2.498307
" />
<path d="M6.553573 2.498307
L6.601192 2.450688
" />
<path d="M6.601192 2.450688
L6.696430 2.403069
" />
<path d="M7.886906 2.403069
L7.696430 2.403069
" />
<path d="M7.696430 2.403069
L7.601192 2.450688
" />
<path d="M7.601192 2.450688
L7.553573 2.498307
" />
<path d="M7.553573 2.498307
L7.458335 2.641164
" />
<path d="M7.458335 2.641164
L7.410716 2.831640
" />
<path d="M7.410716 2.831640
L7.410716 3.212592
" />
<path d="M7.410716 3.212592
L7.458335 3.307830
" />
<path d="M7.458335 3.307830
L7.505954 3.355450
" />
<path d="M7.505954 3.355450
L7.601192 3.403069
" />
<path d="M7.601192 3.403069
L7.791668 3.403069
" />
<path d="M7.791668 3.403069
L7.886906 3.355450
" />
<path d="M7.886906 3.355450
L7.934525 3.307830
" />
<path d="M7.934525 3.307830
L7.982144 3.212592
" />
<path d="M7.982144 3.212592
L7.982144 2.974497
" />
<path d="M7.982144 2.974497
L7.934525 2.879259
" />
<path d="M7.934525 2.879259
L7.886906 2.831640
" />
<path d="M7.886906 2.831640
L7.791668 2.784021
" />
<path d="M7.791668 2.784021
L7.601192 2.784021
" />
<path d="M7.601192 2.784021
L7.505954 2.831640
" />
<path d="M7.505954 2.831640
L7.458335 2.879259
" />
<path d="M7.458335 2.879259
L7.410716 2.974497
" />
<path d="M8.601191 2.403069
L8.696429 2.403069
" />
<path d="M8.696429 2.403069
L8.791667 2.450688
" />
<path d="M8.791667 2.450688
L8.839286 2.498307
" />
<path d="M8.839286 2.498307
L8.886905 2.593545
" />
<path d="M8.886905 2.593545
L8.934524 2.784021
" />
<path d="M8.934524 2.784021
L8.934524 3.022116
" />
<path d="M8.934524 3.022116
L8.886905 3.212592
" />
<path d="M8.886905 3.212592
L8.839286 3.307830
" />
<path d="M8.839286 3.307830
L8.791667 3.355450
" />
<path d="M8.791667 3.355450
L8.696429 3.403069
" />
<path d="M8.696429 3.403069
L8.601191 3.403069
" />
<path d="M8.601191 3.403069
L8.505953 3.355450
" />
<path d="M8.505953 3.355450
L8.458334 3.307830
" />
<path d="M8.458334 3.307830
L8.410715 3.212592
" />
<path d="M8.410715 3.212592
L8.363096 3.022116
" />
<path d="M8.363096 3.022116
L8.363096 2.784021
" />
<path d="M8.363096 2.784021
L8.410715 2.593545
" />
<path d="M8.410715 2.593545
L8.458334 2.498307
" />
<path d="M8.458334 2.498307
L8.505953 2.450688
" />
<path d="M8.505953 2.450688
L8.601191 2.403069
" />
<path d="M9.267858 2.403069
L9.886905 2.403069
" />
<path d="M9.886905 2.403069
L9.553572 2.784021
" />
<path d="M9.553572 2.784021
L9.696429 2.784021
" />
<path d="M9.696429 2.784021
L9.791667 2.831640
" />
<path d="M9.791667 2.831640
L9.839286 2.879259
" />
<path d="M9.839286 2.879259
L9.886905 2.974497
" />
<path d="M9.886905 2.974497
L9.886905 3.212592
" />
<path d="M9.886905 3.212592
L9.839286 3.307830
" />
<path d="M9.839286 3.307830
L9.791667 3.355450
" />
<path d="M9.791667 3.355450
L9.696429 3.403069
" />
<path d="M9.696429 3.403069
L9.410715 3.403069
" />
<path d="M9.410715 3.403069
L9.315477 3.355450
" />
<path d="M9.315477 3.355450
L9.267858 3.307830
" />
<path d="M10.315477 3.403069
L10.315477 2.403069
" />
<path d="M10.315477 2.403069
L10.648810 3.117354
" />
<path d="M10.648810 3.117354
L10.982143 2.403069
" />
<path d="M10.982143 2.403069
L10.982143 3.403069
" />
<path d="M11.839286 3.355450
L11.744048 3.403069
" />
<path d="M11.744048 3.403069
L11.553572 3.403069
" />
<path d="M11.553572 3.403069
L11.458334 3.355450
" />
<path d="M11.458334 3.355450
L11.410715 3.260211
" />
<path d="M11.410715 3.260211
L11.410715 2.879259
" />
<path d="M11.410715 2.879259
L11.458334 2.784021
" />
<path d="M11.458334 2.784021
L11.553572 2.736402
" />
<path d="M11.553572 2.736402
L11.744048 2.736402
" />
<path d="M11.744048 2.736402
L11.839286 2.784021
" />
<path d="M11.839286 2.784021
L11.886905 2.879259
" />
<path d="M11.886905 2.879259
L11.886905 2.974497
" />
<path d="M11.886905 2.974497
L11.410715 3.069735
" />
<path d="M12.172620 2.736402
L12.553572 2.736402
" />
<path d="M12.315477 2.403069
L12.315477 3.260211
" />
<path d="M12.315477 3.260211
L12.363096 3.355450
" />
<path d="M12.363096 3.355450
L12.458334 3.403069
" />
<path d="M12.458334 3.403069
L12.553572 3.403069
" />
<path d="M12.886906 3.403069
L12.886906 2.736402
" />
<path d="M12.886906 2.926878
L12.934525 2.831640
" />
<path d="M12.934525 2.831640
L12.982144 2.784021
" />
<path d="M12.982144 2.784021
L13.077382 2.736402
" />
<path d="M13.077382 2.736402
L13.172620 2.736402
" />
<path d="M13.505954 3.403069
L13.505954 2.736402
" />
<path d="M13.505954 2.403069
L13.458335 2.450688
" />
<path d="M13.458335 2.450688
L13.505954 2.498307
" />
<path d="M13.505954 2.498307
L13.553573 2.450688
" />
<path d="M13.553573 2.450688
L13.505954 2.403069
" />
<path d="M13.505954 2.403069
L13.505954 2.498307
" />
<path d="M14.410715 3.355450
L14.315477 3.403069
" />
<path d="M14.315477 3.403069
L14.125001 3.403069
" />
<path d="M14.125001 3.403069
L14.029763 3.355450
" />
<path d="M14.029763 3.355450
L13.982144 3.307830
" />
<path d="M13.982144 3.307830
L13.934525 3.212592
" />
<path d="M13.934525 3.212592
L13.934525 2.926878
" />
<path d="M13.934525 2.926878
L13.982144 2.831640
" />
<path d="M13.982144 2.831640
L14.029763 2.784021
" />
<path d="M14.029763 2.784021
L14.125001 2.736402
" />
<path d="M14.125001 2.736402
L14.315477 2.736402
" />
<path d="M14.315477 2.736402
L14.410715 2.784021
" />
<path d="M14.601192 3.498307
L15.363096 3.498307
" />
<path d="M16.077382 3.403069
L15.601192 3.403069
" />
<path d="M15.601192 3.403069
L15.601192 2.403069
" />
</g></g>
<g style="fill:none; 
stroke:#AFAFAF; stroke-width:0.040000; stroke-opacity:1; 
stroke-linecap:round; stroke-linejoin:round;">
<text x="8.148810" y="1.343250"
textLength="1.141428" font-size="0.333333" lengthAdjust="spacingAndGlyphs"
text-anchor="middle" opacity="0" stroke-opacity="0">REF**</text>
<g class="stroked-text"><desc>REF**</desc>
<path d="M7.815477 1.331825
L7.732144 1.212778
" />
<path d="M7.672620 1.331825
L7.672620 1.081825
" />
<path d="M7.672620 1.081825
L7.767858 1.081825
" />
<path d="M7.767858 1.081825
L7.791668 1.093730
" />
<path d="M7.791668 1.093730
L7.803573 1.105635
" />
<path d="M7.803573 1.105635
L7.815477 1.129444
" />
<path d="M7.815477 1.129444
L7.815477 1.165159
" />
<path d="M7.815477 1.165159
L7.803573 1.188968
" />
<path d="M7.803573 1.188968
L7.791668 1.200873
" />
<path d="M7.791668 1.200873
L7.767858 1.212778
" />
<path d="M7.767858 1.212778
L7.672620 1.212778
" />
<path d="M7.922620 1.200873
L8.005954 1.200873
" />
<path d="M8.041668 1.331825
L7.922620 1.331825
" />
<path d="M7.922620 1.331825
L7.922620 1.081825
" />
<path d="M7.922620 1.081825
L8.041668 1.081825
" />
<path d="M8.232143 1.200873
L8.148810 1.200873
" />
<path d="M8.148810 1.331825
L8.148810 1.081825
" />
<path d="M8.148810 1.081825
L8.267857 1.081825
" />
<path d="M8.398810 1.081825
L8.398810 1.141349
" />
<path d="M8.339286 1.117540
L8.398810 1.141349
" />
<path d="M8.398810 1.141349
L8.458333 1.117540
" />
<path d="M8.363095 1.188968
L8.398810 1.141349
" />
<path d="M8.398810 1.141349
L8.434524 1.188968
" />
<path d="M8.589286 1.081825
L8.589286 1.141349
" />
<path d="M8.529762 1.117540
L8.589286 1.141349
" />
<path d="M8.589286 1.141349
L8.648809 1.117540
" />
<path d="M8.553571 1.188968
L8.589286 1.141349
" />
<path d="M8.589286 1.141349
L8.625000 1.188968
" />
</g><path style="fill:none; 
stroke:#AFAFAF; stroke-width:0.100000; stroke-opacity:1; 
stroke-linecap:round; stroke-linejoin:round;fill:none"
d="M 7.848810,1.748250
8.448810,1.748250
8.448810,2.048250
7.848810,2.048250
Z" /> 
</g> 
</svg>
