<?xml version="1.0" standalone="no"?>
 <!DOCTYPE svg PUBLIC "-//W3C//DTD SVG 1.1//EN" 
 "http://www.w3.org/Graphics/SVG/1.1/DTD/svg11.dtd"> 
<svg
  xmlns:svg="http://www.w3.org/2000/svg"
  xmlns="http://www.w3.org/2000/svg"
  xmlns:xlink="http://www.w3.org/1999/xlink"
  xmlns:inkscape="http://www.inkscape.org/namespaces/inkscape"
  version="1.1"
  width="100%" height="100%" viewBox="0.000000 0.000000 16.535400 4.546600">
<title>SVG Image created as L_0603_1608Metric_N.svg date 2026-04-16T05:24:18 </title>
  <desc>Image generated by PCBNEW </desc>
<g style="fill:#000000; fill-opacity:1.000000;stroke:#000000; stroke-opacity:1.000000;
stroke-linecap:round; stroke-linejoin:round;"
 transform="translate(0 0) scale(1 1)">
<path style="fill:#C83434; fill-opacity:1.000000; stroke:none;fill-rule:evenodd;"
d="M 7.042858,2.022000
7.059509,1.938288
7.106928,1.867320
7.177896,1.819901
7.261608,1.803250
7.699108,1.803250
7.782820,1.819901
7.853788,1.867320
7.901207,1.938288
7.917858,2.022000
7.917858,2.534500
7.901207,2.618212
7.853788,2.689180
7.782820,2.736599
7.699108,2.753250
7.261608,2.753250
7.177896,2.736599
7.106928,2.689180
7.059509,2.618212
7.042858,2.534500
Z" /> 
<path style="fill:#C83434; fill-opacity:1.000000; stroke:none;fill-rule:evenodd;"
d="M 8.617858,2.022000
8.634509,1.938288
8.681928,1.867320
8.752896,1.819901
8.836608,1.803250
9.274108,1.803250
9.357820,1.819901
9.428788,1.867320
9.476207,1.938288
9.492858,2.022000
9.492858,2.534500
9.476207,2.618212
9.428788,2.689180
9.357820,2.736599
9.274108,2.753250
8.836608,2.753250
8.752896,2.736599
8.681928,2.689180
8.634509,2.618212
8.617858,2.534500
Z" /> 
<path style="fill:#D864FF; fill-opacity:0.400000; stroke:none;fill-rule:evenodd;"
d="M 7.042858,2.022000
7.059509,1.938288
7.106928,1.867320
7.177896,1.819901
7.261608,1.803250
7.699108,1.803250
7.782820,1.819901
7.853788,1.867320
7.901207,1.938288
7.917858,2.022000
7.917858,2.534500
7.901207,2.618212
7.853788,2.689180
7.782820,2.736599
7.699108,2.753250
7.261608,2.753250
7.177896,2.736599
7.106928,2.689180
7.059509,2.618212
7.042858,2.534500
Z" /> 
<path style="fill:#D864FF; fill-opacity:0.400000; stroke:none;fill-rule:evenodd;"
d="M 8.617858,2.022000
8.634509,1.938288
8.681928,1.867320
8.752896,1.819901
8.836608,1.803250
9.274108,1.803250
9.357820,1.819901
9.428788,1.867320
9.476207,1.938288
9.492858,2.022000
9.492858,2.534500
9.476207,2.618212
9.428788,2.689180
9.357820,2.736599
9.274108,2.753250
8.836608,2.753250
8.752896,2.736599
8.681928,2.689180
8.634509,2.618212
8.617858,2.534500
Z" /> 
<path style="fill:#B4A09A; fill-opacity:0.900000; stroke:none;fill-rule:evenodd;"
d="M 7.042858,2.022000
7.059509,1.938288
7.106928,1.867320
7.177896,1.819901
7.261608,1.803250
7.699108,1.803250
7.782820,1.819901
7.853788,1.867320
7.901207,1.938288
7.917858,2.022000
7.917858,2.534500
7.901207,2.618212
7.853788,2.689180
7.782820,2.736599
7.699108,2.753250
7.261608,2.753250
7.177896,2.736599
7.106928,2.689180
7.059509,2.618212
7.042858,2.534500
Z" /> 
<path style="fill:#B4A09A; fill-opacity:0.900000; stroke:none;fill-rule:evenodd;"
d="M 8.617858,2.022000
8.634509,1.938288
8.681928,1.867320
8.752896,1.819901
8.836608,1.803250
9.274108,1.803250
9.357820,1.819901
9.428788,1.867320
9.476207,1.938288
9.492858,2.022000
9.492858,2.534500
9.476207,2.618212
9.428788,2.689180
9.357820,2.736599
9.274108,2.753250
8.836608,2.753250
8.752896,2.736599
8.681928,2.689180
8.634509,2.618212
8.617858,2.534500
Z" /> 
</g>
<g style="fill:none; 
stroke:#F2EDA1; stroke-width:0.150000; stroke-opacity:1; 
stroke-linecap:round; stroke-linejoin:round;">
<text x="8.267858" y="1.348250"
textLength="4.535715" font-size="1.333333" lengthAdjust="spacingAndGlyphs"
text-anchor="middle" opacity="0" stroke-opacity="0">REF**</text>
<g class="stroked-text"><desc>REF**</desc>
<path d="M6.934525 1.303070
L6.601192 0.826879
" />
<path d="M6.363097 1.303070
L6.363097 0.303070
" />
<path d="M6.363097 0.303070
L6.744049 0.303070
" />
<path d="M6.744049 0.303070
L6.839287 0.350689
" />
<path d="M6.839287 0.350689
L6.886906 0.398308
" />
<path d="M6.886906 0.398308
L6.934525 0.493546
" />
<path d="M6.934525 0.493546
L6.934525 0.636403
" />
<path d="M6.934525 0.636403
L6.886906 0.731641
" />
<path d="M6.886906 0.731641
L6.839287 0.779260
" />
<path d="M6.839287 0.779260
L6.744049 0.826879
" />
<path d="M6.744049 0.826879
L6.363097 0.826879
" />
<path d="M7.363097 0.779260
L7.696430 0.779260
" />
<path d="M7.839287 1.303070
L7.363097 1.303070
" />
<path d="M7.363097 1.303070
L7.363097 0.303070
" />
<path d="M7.363097 0.303070
L7.839287 0.303070
" />
<path d="M8.601191 0.779260
L8.267858 0.779260
" />
<path d="M8.267858 1.303070
L8.267858 0.303070
" />
<path d="M8.267858 0.303070
L8.744048 0.303070
" />
<path d="M9.267858 0.303070
L9.267858 0.541165
" />
<path d="M9.029763 0.445927
L9.267858 0.541165
" />
<path d="M9.267858 0.541165
L9.505953 0.445927
" />
<path d="M9.125001 0.731641
L9.267858 0.541165
" />
<path d="M9.267858 0.541165
L9.410715 0.731641
" />
<path d="M10.029763 0.303070
L10.029763 0.541165
" />
<path d="M9.791668 0.445927
L10.029763 0.541165
" />
<path d="M10.029763 0.541165
L10.267858 0.445927
" />
<path d="M9.886906 0.731641
L10.029763 0.541165
" />
<path d="M10.029763 0.541165
L10.172620 0.731641
" />
</g></g>
<g style="fill:none; 
stroke:#F2EDA1; stroke-width:0.120000; stroke-opacity:1; 
stroke-linecap:round; stroke-linejoin:round;">
<path d="M8.105079 1.768250
L8.430637 1.768250
" />
<path d="M8.105079 2.788250
L8.430637 2.788250
" />
<path style="fill:none; 
stroke:#FF26E2; stroke-width:0.050000; stroke-opacity:1; 
stroke-linecap:round; stroke-linejoin:round;fill:none"
d="M 6.787858,1.548250
9.747858,1.548250
9.747858,3.008250
6.787858,3.008250
Z" /> 
</g>
<g style="fill:none; 
stroke:#AFAFAF; stroke-width:0.150000; stroke-opacity:1; 
stroke-linecap:round; stroke-linejoin:round;">
<text x="8.267858" y="4.208250"
textLength="16.535716" font-size="1.333333" lengthAdjust="spacingAndGlyphs"
text-anchor="middle" opacity="0" stroke-opacity="0">L_0603_1608Metric_N</text>
<g class="stroked-text"><desc>L_0603_1608Metric_N</desc>
<path d="M0.839286 4.163069
L0.363096 4.163069
" />
<path d="M0.363096 4.163069
L0.363096 3.163069
" />
<path d="M0.934524 4.258307
L1.696429 4.258307
" />
<path d="M2.125001 3.163069
L2.220239 3.163069
" />
<path d="M2.220239 3.163069
L2.315477 3.210688
" />
<path d="M2.315477 3.210688
L2.363096 3.258307
" />
<path d="M2.363096 3.258307
L2.410715 3.353545
" />
<path d="M2.410715 3.353545
L2.458334 3.544021
" />
<path d="M2.458334 3.544021
L2.458334 3.782116
" />
<path d="M2.458334 3.782116
L2.410715 3.972592
" />
<path d="M2.410715 3.972592
L2.363096 4.067830
" />
<path d="M2.363096 4.067830
L2.315477 4.115450
" />
<path d="M2.315477 4.115450
L2.220239 4.163069
" />
<path d="M2.220239 4.163069
L2.125001 4.163069
" />
<path d="M2.125001 4.163069
L2.029763 4.115450
" />
<path d="M2.029763 4.115450
L1.982144 4.067830
" />
<path d="M1.982144 4.067830
L1.934525 3.972592
" />
<path d="M1.934525 3.972592
L1.886906 3.782116
" />
<path d="M1.886906 3.782116
L1.886906 3.544021
" />
<path d="M1.886906 3.544021
L1.934525 3.353545
" />
<path d="M1.934525 3.353545
L1.982144 3.258307
" />
<path d="M1.982144 3.258307
L2.029763 3.210688
" />
<path d="M2.029763 3.210688
L2.125001 3.163069
" />
<path d="M3.315477 3.163069
L3.125001 3.163069
" />
<path d="M3.125001 3.163069
L3.029763 3.210688
" />
<path d="M3.029763 3.210688
L2.982144 3.258307
" />
<path d="M2.982144 3.258307
L2.886906 3.401164
" />
<path d="M2.886906 3.401164
L2.839287 3.591640
" />
<path d="M2.839287 3.591640
L2.839287 3.972592
" />
<path d="M2.839287 3.972592
L2.886906 4.067830
" />
<path d="M2.886906 4.067830
L2.934525 4.115450
" />
<path d="M2.934525 4.115450
L3.029763 4.163069
" />
<path d="M3.029763 4.163069
L3.220239 4.163069
" />
<path d="M3.220239 4.163069
L3.315477 4.115450
" />
<path d="M3.315477 4.115450
L3.363096 4.067830
" />
<path d="M3.363096 4.067830
L3.410715 3.972592
" />
<path d="M3.410715 3.972592
L3.410715 3.734497
" />
<path d="M3.410715 3.734497
L3.363096 3.639259
" />
<path d="M3.363096 3.639259
L3.315477 3.591640
" />
<path d="M3.315477 3.591640
L3.220239 3.544021
" />
<path d="M3.220239 3.544021
L3.029763 3.544021
" />
<path d="M3.029763 3.544021
L2.934525 3.591640
" />
<path d="M2.934525 3.591640
L2.886906 3.639259
" />
<path d="M2.886906 3.639259
L2.839287 3.734497
" />
<path d="M4.029763 3.163069
L4.125001 3.163069
" />
<path d="M4.125001 3.163069
L4.220239 3.210688
" />
<path d="M4.220239 3.210688
L4.267858 3.258307
" />
<path d="M4.267858 3.258307
L4.315477 3.353545
" />
<path d="M4.315477 3.353545
L4.363096 3.544021
" />
<path d="M4.363096 3.544021
L4.363096 3.782116
" />
<path d="M4.363096 3.782116
L4.315477 3.972592
" />
<path d="M4.315477 3.972592
L4.267858 4.067830
" />
<path d="M4.267858 4.067830
L4.220239 4.115450
" />
<path d="M4.220239 4.115450
L4.125001 4.163069
" />
<path d="M4.125001 4.163069
L4.029763 4.163069
" />
<path d="M4.029763 4.163069
L3.934525 4.115450
" />
<path d="M3.934525 4.115450
L3.886906 4.067830
" />
<path d="M3.886906 4.067830
L3.839287 3.972592
" />
<path d="M3.839287 3.972592
L3.791668 3.782116
" />
<path d="M3.791668 3.782116
L3.791668 3.544021
" />
<path d="M3.791668 3.544021
L3.839287 3.353545
" />
<path d="M3.839287 3.353545
L3.886906 3.258307
" />
<path d="M3.886906 3.258307
L3.934525 3.210688
" />
<path d="M3.934525 3.210688
L4.029763 3.163069
" />
<path d="M4.696430 3.163069
L5.315477 3.163069
" />
<path d="M5.315477 3.163069
L4.982144 3.544021
" />
<path d="M4.982144 3.544021
L5.125001 3.544021
" />
<path d="M5.125001 3.544021
L5.220239 3.591640
" />
<path d="M5.220239 3.591640
L5.267858 3.639259
" />
<path d="M5.267858 3.639259
L5.315477 3.734497
" />
<path d="M5.315477 3.734497
L5.315477 3.972592
" />
<path d="M5.315477 3.972592
L5.267858 4.067830
" />
<path d="M5.267858 4.067830
L5.220239 4.115450
" />
<path d="M5.220239 4.115450
L5.125001 4.163069
" />
<path d="M5.125001 4.163069
L4.839287 4.163069
" />
<path d="M4.839287 4.163069
L4.744049 4.115450
" />
<path d="M4.744049 4.115450
L4.696430 4.067830
" />
<path d="M5.505953 4.258307
L6.267858 4.258307
" />
<path d="M7.029763 4.163069
L6.458335 4.163069
" />
<path d="M6.744049 4.163069
L6.744049 3.163069
" />
<path d="M6.744049 3.163069
L6.648811 3.305926
" />
<path d="M6.648811 3.305926
L6.553573 3.401164
" />
<path d="M6.553573 3.401164
L6.458335 3.448783
" />
<path d="M7.886906 3.163069
L7.696430 3.163069
" />
<path d="M7.696430 3.163069
L7.601192 3.210688
" />
<path d="M7.601192 3.210688
L7.553573 3.258307
" />
<path d="M7.553573 3.258307
L7.458335 3.401164
" />
<path d="M7.458335 3.401164
L7.410716 3.591640
" />
<path d="M7.410716 3.591640
L7.410716 3.972592
" />
<path d="M7.410716 3.972592
L7.458335 4.067830
" />
<path d="M7.458335 4.067830
L7.505954 4.115450
" />
<path d="M7.505954 4.115450
L7.601192 4.163069
" />
<path d="M7.601192 4.163069
L7.791668 4.163069
" />
<path d="M7.791668 4.163069
L7.886906 4.115450
" />
<path d="M7.886906 4.115450
L7.934525 4.067830
" />
<path d="M7.934525 4.067830
L7.982144 3.972592
" />
<path d="M7.982144 3.972592
L7.982144 3.734497
" />
<path d="M7.982144 3.734497
L7.934525 3.639259
" />
<path d="M7.934525 3.639259
L7.886906 3.591640
" />
<path d="M7.886906 3.591640
L7.791668 3.544021
" />
<path d="M7.791668 3.544021
L7.601192 3.544021
" />
<path d="M7.601192 3.544021
L7.505954 3.591640
" />
<path d="M7.505954 3.591640
L7.458335 3.639259
" />
<path d="M7.458335 3.639259
L7.410716 3.734497
" />
<path d="M8.601191 3.163069
L8.696429 3.163069
" />
<path d="M8.696429 3.163069
L8.791667 3.210688
" />
<path d="M8.791667 3.210688
L8.839286 3.258307
" />
<path d="M8.839286 3.258307
L8.886905 3.353545
" />
<path d="M8.886905 3.353545
L8.934524 3.544021
" />
<path d="M8.934524 3.544021
L8.934524 3.782116
" />
<path d="M8.934524 3.782116
L8.886905 3.972592
" />
<path d="M8.886905 3.972592
L8.839286 4.067830
" />
<path d="M8.839286 4.067830
L8.791667 4.115450
" />
<path d="M8.791667 4.115450
L8.696429 4.163069
" />
<path d="M8.696429 4.163069
L8.601191 4.163069
" />
<path d="M8.601191 4.163069
L8.505953 4.115450
" />
<path d="M8.505953 4.115450
L8.458334 4.067830
" />
<path d="M8.458334 4.067830
L8.410715 3.972592
" />
<path d="M8.410715 3.972592
L8.363096 3.782116
" />
<path d="M8.363096 3.782116
L8.363096 3.544021
" />
<path d="M8.363096 3.544021
L8.410715 3.353545
" />
<path d="M8.410715 3.353545
L8.458334 3.258307
" />
<path d="M8.458334 3.258307
L8.505953 3.210688
" />
<path d="M8.505953 3.210688
L8.601191 3.163069
" />
<path d="M9.505953 3.591640
L9.410715 3.544021
" />
<path d="M9.410715 3.544021
L9.363096 3.496402
" />
<path d="M9.363096 3.496402
L9.315477 3.401164
" />
<path d="M9.315477 3.401164
L9.315477 3.353545
" />
<path d="M9.315477 3.353545
L9.363096 3.258307
" />
<path d="M9.363096 3.258307
L9.410715 3.210688
" />
<path d="M9.410715 3.210688
L9.505953 3.163069
" />
<path d="M9.505953 3.163069
L9.696429 3.163069
" />
<path d="M9.696429 3.163069
L9.791667 3.210688
" />
<path d="M9.791667 3.210688
L9.839286 3.258307
" />
<path d="M9.839286 3.258307
L9.886905 3.353545
" />
<path d="M9.886905 3.353545
L9.886905 3.401164
" />
<path d="M9.886905 3.401164
L9.839286 3.496402
" />
<path d="M9.839286 3.496402
L9.791667 3.544021
" />
<path d="M9.791667 3.544021
L9.696429 3.591640
" />
<path d="M9.696429 3.591640
L9.505953 3.591640
" />
<path d="M9.505953 3.591640
L9.410715 3.639259
" />
<path d="M9.410715 3.639259
L9.363096 3.686878
" />
<path d="M9.363096 3.686878
L9.315477 3.782116
" />
<path d="M9.315477 3.782116
L9.315477 3.972592
" />
<path d="M9.315477 3.972592
L9.363096 4.067830
" />
<path d="M9.363096 4.067830
L9.410715 4.115450
" />
<path d="M9.410715 4.115450
L9.505953 4.163069
" />
<path d="M9.505953 4.163069
L9.696429 4.163069
" />
<path d="M9.696429 4.163069
L9.791667 4.115450
" />
<path d="M9.791667 4.115450
L9.839286 4.067830
" />
<path d="M9.839286 4.067830
L9.886905 3.972592
" />
<path d="M9.886905 3.972592
L9.886905 3.782116
" />
<path d="M9.886905 3.782116
L9.839286 3.686878
" />
<path d="M9.839286 3.686878
L9.791667 3.639259
" />
<path d="M9.791667 3.639259
L9.696429 3.591640
" />
<path d="M10.315477 4.163069
L10.315477 3.163069
" />
<path d="M10.315477 3.163069
L10.648810 3.877354
" />
<path d="M10.648810 3.877354
L10.982143 3.163069
" />
<path d="M10.982143 3.163069
L10.982143 4.163069
" />
<path d="M11.839286 4.115450
L11.744048 4.163069
" />
<path d="M11.744048 4.163069
L11.553572 4.163069
" />
<path d="M11.553572 4.163069
L11.458334 4.115450
" />
<path d="M11.458334 4.115450
L11.410715 4.020211
" />
<path d="M11.410715 4.020211
L11.410715 3.639259
" />
<path d="M11.410715 3.639259
L11.458334 3.544021
" />
<path d="M11.458334 3.544021
L11.553572 3.496402
" />
<path d="M11.553572 3.496402
L11.744048 3.496402
" />
<path d="M11.744048 3.496402
L11.839286 3.544021
" />
<path d="M11.839286 3.544021
L11.886905 3.639259
" />
<path d="M11.886905 3.639259
L11.886905 3.734497
" />
<path d="M11.886905 3.734497
L11.410715 3.829735
" />
<path d="M12.172620 3.496402
L12.553572 3.496402
" />
<path d="M12.315477 3.163069
L12.315477 4.020211
" />
<path d="M12.315477 4.020211
L12.363096 4.115450
" />
<path d="M12.363096 4.115450
L12.458334 4.163069
" />
<path d="M12.458334 4.163069
L12.553572 4.163069
" />
<path d="M12.886906 4.163069
L12.886906 3.496402
" />
<path d="M12.886906 3.686878
L12.934525 3.591640
" />
<path d="M12.934525 3.591640
L12.982144 3.544021
" />
<path d="M12.982144 3.544021
L13.077382 3.496402
" />
<path d="M13.077382 3.496402
L13.172620 3.496402
" />
<path d="M13.505954 4.163069
L13.505954 3.496402
" />
<path d="M13.505954 3.163069
L13.458335 3.210688
" />
<path d="M13.458335 3.210688
L13.505954 3.258307
" />
<path d="M13.505954 3.258307
L13.553573 3.210688
" />
<path d="M13.553573 3.210688
L13.505954 3.163069
" />
<path d="M13.505954 3.163069
L13.505954 3.258307
" />
<path d="M14.410715 4.115450
L14.315477 4.163069
" />
<path d="M14.315477 4.163069
L14.125001 4.163069
" />
<path d="M14.125001 4.163069
L14.029763 4.115450
" />
<path d="M14.029763 4.115450
L13.982144 4.067830
" />
<path d="M13.982144 4.067830
L13.934525 3.972592
" />
<path d="M13.934525 3.972592
L13.934525 3.686878
" />
<path d="M13.934525 3.686878
L13.982144 3.591640
" />
<path d="M13.982144 3.591640
L14.029763 3.544021
" />
<path d="M14.029763 3.544021
L14.125001 3.496402
" />
<path d="M14.125001 3.496402
L14.315477 3.496402
" />
<path d="M14.315477 3.496402
L14.410715 3.544021
" />
<path d="M14.601192 4.258307
L15.363096 4.258307
" />
<path d="M15.601192 4.163069
L15.601192 3.163069
" />
<path d="M15.601192 3.163069
L16.172620 4.163069
" />
<path d="M16.172620 4.163069
L16.172620 3.163069
" />
</g></g>
<g style="fill:none; 
stroke:#AFAFAF; stroke-width:0.060000; stroke-opacity:1; 
stroke-linecap:round; stroke-linejoin:round;">
<text x="8.267858" y="2.478250"
textLength="1.814286" font-size="0.533333" lengthAdjust="spacingAndGlyphs"
text-anchor="middle" opacity="0" stroke-opacity="0">REF**</text>
<g class="stroked-text"><desc>REF**</desc>
<path d="M7.734525 2.460177
L7.601192 2.269702
" />
<path d="M7.505954 2.460177
L7.505954 2.060178
" />
<path d="M7.505954 2.060178
L7.658335 2.060178
" />
<path d="M7.658335 2.060178
L7.696430 2.079226
" />
<path d="M7.696430 2.079226
L7.715477 2.098273
" />
<path d="M7.715477 2.098273
L7.734525 2.136369
" />
<path d="M7.734525 2.136369
L7.734525 2.193511
" />
<path d="M7.734525 2.193511
L7.715477 2.231607
" />
<path d="M7.715477 2.231607
L7.696430 2.250654
" />
<path d="M7.696430 2.250654
L7.658335 2.269702
" />
<path d="M7.658335 2.269702
L7.505954 2.269702
" />
<path d="M7.905954 2.250654
L8.039287 2.250654
" />
<path d="M8.096430 2.460177
L7.905954 2.460177
" />
<path d="M7.905954 2.460177
L7.905954 2.060178
" />
<path d="M7.905954 2.060178
L8.096430 2.060178
" />
<path d="M8.401191 2.250654
L8.267858 2.250654
" />
<path d="M8.267858 2.460177
L8.267858 2.060178
" />
<path d="M8.267858 2.060178
L8.458334 2.060178
" />
<path d="M8.667857 2.060178
L8.667857 2.155416
" />
<path d="M8.572619 2.117321
L8.667857 2.155416
" />
<path d="M8.667857 2.155416
L8.763096 2.117321
" />
<path d="M8.610715 2.231607
L8.667857 2.155416
" />
<path d="M8.667857 2.155416
L8.725000 2.231607
" />
<path d="M8.972619 2.060178
L8.972619 2.155416
" />
<path d="M8.877381 2.117321
L8.972619 2.155416
" />
<path d="M8.972619 2.155416
L9.067858 2.117321
" />
<path d="M8.915477 2.231607
L8.972619 2.155416
" />
<path d="M8.972619 2.155416
L9.029762 2.231607
" />
</g><path style="fill:none; 
stroke:#AFAFAF; stroke-width:0.100000; stroke-opacity:1; 
stroke-linecap:round; stroke-linejoin:round;fill:none"
d="M 7.467858,1.878250
9.067858,1.878250
9.067858,2.678250
7.467858,2.678250
Z" /> 
</g> 
</svg>
