<?xml version="1.0" standalone="no"?>
 <!DOCTYPE svg PUBLIC "-//W3C//DTD SVG 1.1//EN" 
 "http://www.w3.org/Graphics/SVG/1.1/DTD/svg11.dtd"> 
<svg
  xmlns:svg="http://www.w3.org/2000/svg"
  xmlns="http://www.w3.org/2000/svg"
  xmlns:xlink="http://www.w3.org/1999/xlink"
  xmlns:inkscape="http://www.inkscape.org/namespaces/inkscape"
  version="1.1"
  width="100%" height="100%" viewBox="0.0000 0.0000 31.3944 37.4904">
<title>SVG Image created as LTC3218_unit1.svg date 2026-04-16T05:24:12 </title>
  <desc>Image generated by Eeschema-SVG </desc>
<g style="fill:#000000; fill-opacity:1.0000;stroke:#000000; stroke-opacity:1.0000;
stroke-linecap:round; stroke-linejoin:round;"
 transform="translate(0 0) scale(1 1)">
</g>
<g style="fill:#FFFFC2; fill-opacity:1.0000; stroke:none;">
<rect x="5.537200" y="6.045200" width="20.320000" height="25.400000" rx="0.000000" />
</g>
<g style="fill:none; 
stroke:#840000; stroke-width:0.2540; stroke-opacity:1; 
stroke-linecap:round; stroke-linejoin:round;">
<rect x="5.537200" y="6.045200" width="20.320000" height="25.400000" rx="0.000000" />
</g>
<g style="fill:none; 
stroke:#840000; stroke-width:0.1524; stroke-opacity:1; 
stroke-linecap:round; stroke-linejoin:round;">
<path d="M15.6972 6.0452
L15.6972 3.5052
" />
</g>
<g style="fill:none; 
stroke:#006464; stroke-width:0.1524; stroke-opacity:1; 
stroke-linecap:round; stroke-linejoin:round;">
<g transform="rotate(-90.000000 15.6972 6.5532)">
<text x="15.6972" y="7.1882"
textLength="2.7432" font-size="1.6933" lengthAdjust="spacingAndGlyphs"
text-anchor="end" opacity="0" stroke-opacity="0">CP</text>
</g>
<g class="stroked-text"><desc>CP</desc>
<path d="M16.1558 8.1653
L16.2163 8.2257
" />
<path d="M16.2163 8.2257
L16.2767 8.4072
" />
<path d="M16.2767 8.4072
L16.2767 8.5281
" />
<path d="M16.2767 8.5281
L16.2163 8.7095
" />
<path d="M16.2163 8.7095
L16.0953 8.8305
" />
<path d="M16.0953 8.8305
L15.9743 8.8910
" />
<path d="M15.9743 8.8910
L15.7324 8.9514
" />
<path d="M15.7324 8.9514
L15.5510 8.9514
" />
<path d="M15.5510 8.9514
L15.3091 8.8910
" />
<path d="M15.3091 8.8910
L15.1882 8.8305
" />
<path d="M15.1882 8.8305
L15.0672 8.7095
" />
<path d="M15.0672 8.7095
L15.0067 8.5281
" />
<path d="M15.0067 8.5281
L15.0067 8.4072
" />
<path d="M15.0067 8.4072
L15.0672 8.2257
" />
<path d="M15.0672 8.2257
L15.1277 8.1653
" />
<path d="M16.2767 7.6210
L15.0067 7.6210
" />
<path d="M15.0067 7.6210
L15.0067 7.1372
" />
<path d="M15.0067 7.1372
L15.0672 7.0162
" />
<path d="M15.0672 7.0162
L15.1277 6.9557
" />
<path d="M15.1277 6.9557
L15.2486 6.8953
" />
<path d="M15.2486 6.8953
L15.4301 6.8953
" />
<path d="M15.4301 6.8953
L15.5510 6.9557
" />
<path d="M15.5510 6.9557
L15.6115 7.0162
" />
<path d="M15.6115 7.0162
L15.6720 7.1372
" />
<path d="M15.6720 7.1372
L15.6720 7.6210
" />
</g></g>
<g style="fill:none; 
stroke:#A90000; stroke-width:0.1524; stroke-opacity:1; 
stroke-linecap:round; stroke-linejoin:round;">
<g transform="rotate(-90.000000 15.4432 4.7752)">
<text x="15.4432" y="4.7752"
textLength="1.4127" font-size="1.6933" lengthAdjust="spacingAndGlyphs"
text-anchor="middle" opacity="0" stroke-opacity="0">1</text>
</g>
<g class="stroked-text"><desc>1</desc>
<path d="M15.2797 4.4122
L15.2797 5.1379
" />
<path d="M15.2797 4.7751
L14.0097 4.7751
" />
<path d="M14.0097 4.7751
L14.1912 4.8960
" />
<path d="M14.1912 4.8960
L14.3121 5.0170
" />
<path d="M14.3121 5.0170
L14.3726 5.1379
" />
</g></g>
<g style="fill:none; 
stroke:#840000; stroke-width:0.1524; stroke-opacity:1; 
stroke-linecap:round; stroke-linejoin:round;">
<path d="M25.8572 11.1252
L28.3972 11.1252
" />
</g>
<g style="fill:none; 
stroke:#006464; stroke-width:0.1524; stroke-opacity:1; 
stroke-linecap:round; stroke-linejoin:round;">
<text x="25.3492" y="11.7602"
textLength="4.0737" font-size="1.6933" lengthAdjust="spacingAndGlyphs"
text-anchor="end" opacity="0" stroke-opacity="0">CPO</text>
<g class="stroked-text"><desc>CPO</desc>
<path d="M22.4065 11.5838
L22.3461 11.6443
" />
<path d="M22.3461 11.6443
L22.1646 11.7047
" />
<path d="M22.1646 11.7047
L22.0437 11.7047
" />
<path d="M22.0437 11.7047
L21.8623 11.6443
" />
<path d="M21.8623 11.6443
L21.7413 11.5233
" />
<path d="M21.7413 11.5233
L21.6808 11.4023
" />
<path d="M21.6808 11.4023
L21.6204 11.1604
" />
<path d="M21.6204 11.1604
L21.6204 10.9790
" />
<path d="M21.6204 10.9790
L21.6808 10.7371
" />
<path d="M21.6808 10.7371
L21.7413 10.6162
" />
<path d="M21.7413 10.6162
L21.8623 10.4952
" />
<path d="M21.8623 10.4952
L22.0437 10.4347
" />
<path d="M22.0437 10.4347
L22.1646 10.4347
" />
<path d="M22.1646 10.4347
L22.3461 10.4952
" />
<path d="M22.3461 10.4952
L22.4065 10.5557
" />
<path d="M22.9508 11.7047
L22.9508 10.4347
" />
<path d="M22.9508 10.4347
L23.4346 10.4347
" />
<path d="M23.4346 10.4347
L23.5556 10.4952
" />
<path d="M23.5556 10.4952
L23.6161 10.5557
" />
<path d="M23.6161 10.5557
L23.6765 10.6766
" />
<path d="M23.6765 10.6766
L23.6765 10.8581
" />
<path d="M23.6765 10.8581
L23.6161 10.9790
" />
<path d="M23.6161 10.9790
L23.5556 11.0395
" />
<path d="M23.5556 11.0395
L23.4346 11.1000
" />
<path d="M23.4346 11.1000
L22.9508 11.1000
" />
<path d="M24.4627 10.4347
L24.7046 10.4347
" />
<path d="M24.7046 10.4347
L24.8256 10.4952
" />
<path d="M24.8256 10.4952
L24.9465 10.6162
" />
<path d="M24.9465 10.6162
L25.0070 10.8581
" />
<path d="M25.0070 10.8581
L25.0070 11.2814
" />
<path d="M25.0070 11.2814
L24.9465 11.5233
" />
<path d="M24.9465 11.5233
L24.8256 11.6443
" />
<path d="M24.8256 11.6443
L24.7046 11.7047
" />
<path d="M24.7046 11.7047
L24.4627 11.7047
" />
<path d="M24.4627 11.7047
L24.3418 11.6443
" />
<path d="M24.3418 11.6443
L24.2208 11.5233
" />
<path d="M24.2208 11.5233
L24.1604 11.2814
" />
<path d="M24.1604 11.2814
L24.1604 10.8581
" />
<path d="M24.1604 10.8581
L24.2208 10.6162
" />
<path d="M24.2208 10.6162
L24.3418 10.4952
" />
<path d="M24.3418 10.4952
L24.4627 10.4347
" />
</g></g>
<g style="fill:none; 
stroke:#A90000; stroke-width:0.1524; stroke-opacity:1; 
stroke-linecap:round; stroke-linejoin:round;">
<text x="27.1272" y="10.8712"
textLength="1.4127" font-size="1.6933" lengthAdjust="spacingAndGlyphs"
text-anchor="middle" opacity="0" stroke-opacity="0">2</text>
<g class="stroked-text"><desc>2</desc>
<path d="M26.7644 9.5587
L26.8248 9.4982
" />
<path d="M26.8248 9.4982
L26.9458 9.4377
" />
<path d="M26.9458 9.4377
L27.2482 9.4377
" />
<path d="M27.2482 9.4377
L27.3691 9.4982
" />
<path d="M27.3691 9.4982
L27.4296 9.5587
" />
<path d="M27.4296 9.5587
L27.4901 9.6796
" />
<path d="M27.4901 9.6796
L27.4901 9.8006
" />
<path d="M27.4901 9.8006
L27.4296 9.9820
" />
<path d="M27.4296 9.9820
L26.7039 10.7077
" />
<path d="M26.7039 10.7077
L27.4901 10.7077
" />
</g></g>
<g style="fill:none; 
stroke:#840000; stroke-width:0.1524; stroke-opacity:1; 
stroke-linecap:round; stroke-linejoin:round;">
<path d="M25.8572 16.2052
L28.3972 16.2052
" />
</g>
<g style="fill:none; 
stroke:#006464; stroke-width:0.1524; stroke-opacity:1; 
stroke-linecap:round; stroke-linejoin:round;">
<text x="25.3492" y="16.8402"
textLength="5.2227" font-size="1.6933" lengthAdjust="spacingAndGlyphs"
text-anchor="end" opacity="0" stroke-opacity="0">I_LED</text>
<g class="stroked-text"><desc>I_LED</desc>
<path d="M20.5318 16.7847
L20.5318 15.5147
" />
<path d="M20.8343 16.9057
L21.8019 16.9057
" />
<path d="M22.7090 16.7847
L22.1042 16.7847
" />
<path d="M22.1042 16.7847
L22.1042 15.5147
" />
<path d="M23.1323 16.1195
L23.5557 16.1195
" />
<path d="M23.7371 16.7847
L23.1323 16.7847
" />
<path d="M23.1323 16.7847
L23.1323 15.5147
" />
<path d="M23.1323 15.5147
L23.7371 15.5147
" />
<path d="M24.2813 16.7847
L24.2813 15.5147
" />
<path d="M24.2813 15.5147
L24.5837 15.5147
" />
<path d="M24.5837 15.5147
L24.7651 15.5752
" />
<path d="M24.7651 15.5752
L24.8861 15.6962
" />
<path d="M24.8861 15.6962
L24.9466 15.8171
" />
<path d="M24.9466 15.8171
L25.0070 16.0590
" />
<path d="M25.0070 16.0590
L25.0070 16.2404
" />
<path d="M25.0070 16.2404
L24.9466 16.4823
" />
<path d="M24.9466 16.4823
L24.8861 16.6033
" />
<path d="M24.8861 16.6033
L24.7651 16.7243
" />
<path d="M24.7651 16.7243
L24.5837 16.7847
" />
<path d="M24.5837 16.7847
L24.2813 16.7847
" />
</g></g>
<g style="fill:none; 
stroke:#A90000; stroke-width:0.1524; stroke-opacity:1; 
stroke-linecap:round; stroke-linejoin:round;">
<text x="27.1272" y="15.9512"
textLength="1.4127" font-size="1.6933" lengthAdjust="spacingAndGlyphs"
text-anchor="middle" opacity="0" stroke-opacity="0">3</text>
<g class="stroked-text"><desc>3</desc>
<path d="M26.7039 14.5177
L27.4901 14.5177
" />
<path d="M27.4901 14.5177
L27.0667 15.0015
" />
<path d="M27.0667 15.0015
L27.2482 15.0015
" />
<path d="M27.2482 15.0015
L27.3691 15.0620
" />
<path d="M27.3691 15.0620
L27.4296 15.1225
" />
<path d="M27.4296 15.1225
L27.4901 15.2434
" />
<path d="M27.4901 15.2434
L27.4901 15.5458
" />
<path d="M27.4901 15.5458
L27.4296 15.6668
" />
<path d="M27.4296 15.6668
L27.3691 15.7273
" />
<path d="M27.3691 15.7273
L27.2482 15.7877
" />
<path d="M27.2482 15.7877
L26.8853 15.7877
" />
<path d="M26.8853 15.7877
L26.7644 15.7273
" />
<path d="M26.7644 15.7273
L26.7039 15.6668
" />
</g></g>
<g style="fill:none; 
stroke:#840000; stroke-width:0.1524; stroke-opacity:1; 
stroke-linecap:round; stroke-linejoin:round;">
<path d="M5.5372 26.3652
L2.9972 26.3652
" />
</g>
<g style="fill:none; 
stroke:#006464; stroke-width:0.1524; stroke-opacity:1; 
stroke-linecap:round; stroke-linejoin:round;">
<text x="6.0452" y="27.0002"
textLength="3.6503" font-size="1.6933" lengthAdjust="spacingAndGlyphs"
text-anchor="start" opacity="0" stroke-opacity="0">ENT</text>
<g class="stroked-text"><desc>ENT</desc>
<path d="M6.4477 26.2795
L6.8711 26.2795
" />
<path d="M7.0525 26.9447
L6.4477 26.9447
" />
<path d="M6.4477 26.9447
L6.4477 25.6747
" />
<path d="M6.4477 25.6747
L7.0525 25.6747
" />
<path d="M7.5967 26.9447
L7.5967 25.6747
" />
<path d="M7.5967 25.6747
L8.3224 26.9447
" />
<path d="M8.3224 26.9447
L8.3224 25.6747
" />
<path d="M8.7458 25.6747
L9.4715 25.6747
" />
<path d="M9.1087 26.9447
L9.1087 25.6747
" />
</g></g>
<g style="fill:none; 
stroke:#A90000; stroke-width:0.1524; stroke-opacity:1; 
stroke-linecap:round; stroke-linejoin:round;">
<text x="4.2672" y="26.1112"
textLength="1.4127" font-size="1.6933" lengthAdjust="spacingAndGlyphs"
text-anchor="middle" opacity="0" stroke-opacity="0">4</text>
<g class="stroked-text"><desc>4</desc>
<path d="M4.5091 25.1011
L4.5091 25.9477
" />
<path d="M4.2067 24.6173
L3.9044 25.5244
" />
<path d="M3.9044 25.5244
L4.6905 25.5244
" />
</g></g>
<g style="fill:none; 
stroke:#840000; stroke-width:0.1524; stroke-opacity:1; 
stroke-linecap:round; stroke-linejoin:round;">
<path d="M18.2372 31.4452
L18.2372 33.9852
" />
</g>
<g style="fill:none; 
stroke:#006464; stroke-width:0.1524; stroke-opacity:1; 
stroke-linecap:round; stroke-linejoin:round;">
<g transform="rotate(-90.000000 18.2372 30.9372)">
<text x="18.2372" y="31.5722"
textLength="6.0693" font-size="1.6933" lengthAdjust="spacingAndGlyphs"
text-anchor="start" opacity="0" stroke-opacity="0">I_SETT</text>
</g>
<g class="stroked-text"><desc>I_SETT</desc>
<path d="M18.8167 30.5346
L17.5467 30.5346
" />
<path d="M18.9377 30.2322
L18.9377 29.2645
" />
<path d="M18.7563 29.0226
L18.8167 28.8412
" />
<path d="M18.8167 28.8412
L18.8167 28.5388
" />
<path d="M18.8167 28.5388
L18.7563 28.4179
" />
<path d="M18.7563 28.4179
L18.6958 28.3574
" />
<path d="M18.6958 28.3574
L18.5748 28.2969
" />
<path d="M18.5748 28.2969
L18.4539 28.2969
" />
<path d="M18.4539 28.2969
L18.3329 28.3574
" />
<path d="M18.3329 28.3574
L18.2724 28.4179
" />
<path d="M18.2724 28.4179
L18.2120 28.5388
" />
<path d="M18.2120 28.5388
L18.1515 28.7807
" />
<path d="M18.1515 28.7807
L18.0910 28.9017
" />
<path d="M18.0910 28.9017
L18.0305 28.9622
" />
<path d="M18.0305 28.9622
L17.9096 29.0226
" />
<path d="M17.9096 29.0226
L17.7886 29.0226
" />
<path d="M17.7886 29.0226
L17.6677 28.9622
" />
<path d="M17.6677 28.9622
L17.6072 28.9017
" />
<path d="M17.6072 28.9017
L17.5467 28.7807
" />
<path d="M17.5467 28.7807
L17.5467 28.4784
" />
<path d="M17.5467 28.4784
L17.6072 28.2969
" />
<path d="M18.1515 27.7527
L18.1515 27.3293
" />
<path d="M18.8167 27.1479
L18.8167 27.7527
" />
<path d="M18.8167 27.7527
L17.5467 27.7527
" />
<path d="M17.5467 27.7527
L17.5467 27.1479
" />
<path d="M17.5467 26.7851
L17.5467 26.0594
" />
<path d="M18.8167 26.4222
L17.5467 26.4222
" />
<path d="M17.5467 25.8175
L17.5467 25.0918
" />
<path d="M18.8167 25.4546
L17.5467 25.4546
" />
</g></g>
<g style="fill:none; 
stroke:#A90000; stroke-width:0.1524; stroke-opacity:1; 
stroke-linecap:round; stroke-linejoin:round;">
<g transform="rotate(-90.000000 17.9832 32.7152)">
<text x="17.9832" y="32.7152"
textLength="1.4127" font-size="1.6933" lengthAdjust="spacingAndGlyphs"
text-anchor="middle" opacity="0" stroke-opacity="0">5</text>
</g>
<g class="stroked-text"><desc>5</desc>
<path d="M16.5497 32.4127
L16.5497 33.0175
" />
<path d="M16.5497 33.0175
L17.1545 33.0779
" />
<path d="M17.1545 33.0779
L17.0940 33.0175
" />
<path d="M17.0940 33.0175
L17.0335 32.8965
" />
<path d="M17.0335 32.8965
L17.0335 32.5941
" />
<path d="M17.0335 32.5941
L17.0940 32.4732
" />
<path d="M17.0940 32.4732
L17.1545 32.4127
" />
<path d="M17.1545 32.4127
L17.2754 32.3522
" />
<path d="M17.2754 32.3522
L17.5778 32.3522
" />
<path d="M17.5778 32.3522
L17.6988 32.4127
" />
<path d="M17.6988 32.4127
L17.7593 32.4732
" />
<path d="M17.7593 32.4732
L17.8197 32.5941
" />
<path d="M17.8197 32.5941
L17.8197 32.8965
" />
<path d="M17.8197 32.8965
L17.7593 33.0175
" />
<path d="M17.7593 33.0175
L17.6988 33.0779
" />
</g></g>
<g style="fill:none; 
stroke:#840000; stroke-width:0.1524; stroke-opacity:1; 
stroke-linecap:round; stroke-linejoin:round;">
<path d="M15.6972 31.4452
L15.6972 33.9852
" />
</g>
<g style="fill:none; 
stroke:#006464; stroke-width:0.1524; stroke-opacity:1; 
stroke-linecap:round; stroke-linejoin:round;">
<g transform="rotate(-90.000000 15.6972 30.9372)">
<text x="15.6972" y="31.5722"
textLength="6.1903" font-size="1.6933" lengthAdjust="spacingAndGlyphs"
text-anchor="start" opacity="0" stroke-opacity="0">I_SETF</text>
</g>
<g class="stroked-text"><desc>I_SETF</desc>
<path d="M16.2767 30.5346
L15.0067 30.5346
" />
<path d="M16.3977 30.2322
L16.3977 29.2645
" />
<path d="M16.2163 29.0226
L16.2767 28.8412
" />
<path d="M16.2767 28.8412
L16.2767 28.5388
" />
<path d="M16.2767 28.5388
L16.2163 28.4179
" />
<path d="M16.2163 28.4179
L16.1558 28.3574
" />
<path d="M16.1558 28.3574
L16.0348 28.2969
" />
<path d="M16.0348 28.2969
L15.9139 28.2969
" />
<path d="M15.9139 28.2969
L15.7929 28.3574
" />
<path d="M15.7929 28.3574
L15.7324 28.4179
" />
<path d="M15.7324 28.4179
L15.6720 28.5388
" />
<path d="M15.6720 28.5388
L15.6115 28.7807
" />
<path d="M15.6115 28.7807
L15.5510 28.9017
" />
<path d="M15.5510 28.9017
L15.4905 28.9622
" />
<path d="M15.4905 28.9622
L15.3696 29.0226
" />
<path d="M15.3696 29.0226
L15.2486 29.0226
" />
<path d="M15.2486 29.0226
L15.1277 28.9622
" />
<path d="M15.1277 28.9622
L15.0672 28.9017
" />
<path d="M15.0672 28.9017
L15.0067 28.7807
" />
<path d="M15.0067 28.7807
L15.0067 28.4784
" />
<path d="M15.0067 28.4784
L15.0672 28.2969
" />
<path d="M15.6115 27.7527
L15.6115 27.3293
" />
<path d="M16.2767 27.1479
L16.2767 27.7527
" />
<path d="M16.2767 27.7527
L15.0067 27.7527
" />
<path d="M15.0067 27.7527
L15.0067 27.1479
" />
<path d="M15.0067 26.7851
L15.0067 26.0594
" />
<path d="M16.2767 26.4222
L15.0067 26.4222
" />
<path d="M15.6115 25.2127
L15.6115 25.6361
" />
<path d="M16.2767 25.6361
L15.0067 25.6361
" />
<path d="M15.0067 25.6361
L15.0067 25.0313
" />
</g></g>
<g style="fill:none; 
stroke:#A90000; stroke-width:0.1524; stroke-opacity:1; 
stroke-linecap:round; stroke-linejoin:round;">
<g transform="rotate(-90.000000 15.4432 32.7152)">
<text x="15.4432" y="32.7152"
textLength="1.4127" font-size="1.6933" lengthAdjust="spacingAndGlyphs"
text-anchor="middle" opacity="0" stroke-opacity="0">6</text>
</g>
<g class="stroked-text"><desc>6</desc>
<path d="M14.0097 32.4732
L14.0097 32.7151
" />
<path d="M14.0097 32.7151
L14.0702 32.8360
" />
<path d="M14.0702 32.8360
L14.1307 32.8965
" />
<path d="M14.1307 32.8965
L14.3121 33.0175
" />
<path d="M14.3121 33.0175
L14.5540 33.0779
" />
<path d="M14.5540 33.0779
L15.0378 33.0779
" />
<path d="M15.0378 33.0779
L15.1588 33.0175
" />
<path d="M15.1588 33.0175
L15.2193 32.9570
" />
<path d="M15.2193 32.9570
L15.2797 32.8360
" />
<path d="M15.2797 32.8360
L15.2797 32.5941
" />
<path d="M15.2797 32.5941
L15.2193 32.4732
" />
<path d="M15.2193 32.4732
L15.1588 32.4127
" />
<path d="M15.1588 32.4127
L15.0378 32.3522
" />
<path d="M15.0378 32.3522
L14.7354 32.3522
" />
<path d="M14.7354 32.3522
L14.6145 32.4127
" />
<path d="M14.6145 32.4127
L14.5540 32.4732
" />
<path d="M14.5540 32.4732
L14.4935 32.5941
" />
<path d="M14.4935 32.5941
L14.4935 32.8360
" />
<path d="M14.4935 32.8360
L14.5540 32.9570
" />
<path d="M14.5540 32.9570
L14.6145 33.0175
" />
<path d="M14.6145 33.0175
L14.7354 33.0779
" />
</g></g>
<g style="fill:none; 
stroke:#840000; stroke-width:0.1524; stroke-opacity:1; 
stroke-linecap:round; stroke-linejoin:round;">
<path d="M5.5372 23.8252
L2.9972 23.8252
" />
</g>
<g style="fill:none; 
stroke:#006464; stroke-width:0.1524; stroke-opacity:1; 
stroke-linecap:round; stroke-linejoin:round;">
<text x="6.0452" y="24.4602"
textLength="3.7713" font-size="1.6933" lengthAdjust="spacingAndGlyphs"
text-anchor="start" opacity="0" stroke-opacity="0">ENF</text>
<g class="stroked-text"><desc>ENF</desc>
<path d="M6.4477 23.7395
L6.8711 23.7395
" />
<path d="M7.0525 24.4047
L6.4477 24.4047
" />
<path d="M6.4477 24.4047
L6.4477 23.1347
" />
<path d="M6.4477 23.1347
L7.0525 23.1347
" />
<path d="M7.5967 24.4047
L7.5967 23.1347
" />
<path d="M7.5967 23.1347
L8.3224 24.4047
" />
<path d="M8.3224 24.4047
L8.3224 23.1347
" />
<path d="M9.3506 23.7395
L8.9272 23.7395
" />
<path d="M8.9272 24.4047
L8.9272 23.1347
" />
<path d="M8.9272 23.1347
L9.5320 23.1347
" />
</g></g>
<g style="fill:none; 
stroke:#A90000; stroke-width:0.1524; stroke-opacity:1; 
stroke-linecap:round; stroke-linejoin:round;">
<text x="4.2672" y="23.5712"
textLength="1.4127" font-size="1.6933" lengthAdjust="spacingAndGlyphs"
text-anchor="middle" opacity="0" stroke-opacity="0">7</text>
<g class="stroked-text"><desc>7</desc>
<path d="M3.8439 22.1377
L4.6905 22.1377
" />
<path d="M4.6905 22.1377
L4.1463 23.4077
" />
</g></g>
<g style="fill:none; 
stroke:#840000; stroke-width:0.1524; stroke-opacity:1; 
stroke-linecap:round; stroke-linejoin:round;">
<path d="M25.8572 23.8252
L28.3972 23.8252
" />
</g>
<g style="fill:none; 
stroke:#006464; stroke-width:0.1524; stroke-opacity:1; 
stroke-linecap:round; stroke-linejoin:round;">
<text x="25.3492" y="24.4602"
textLength="4.0737" font-size="1.6933" lengthAdjust="spacingAndGlyphs"
text-anchor="end" opacity="0" stroke-opacity="0">GND</text>
<g class="stroked-text"><desc>GND</desc>
<path d="M22.3461 23.1952
L22.2251 23.1347
" />
<path d="M22.2251 23.1347
L22.0437 23.1347
" />
<path d="M22.0437 23.1347
L21.8623 23.1952
" />
<path d="M21.8623 23.1952
L21.7413 23.3162
" />
<path d="M21.7413 23.3162
L21.6808 23.4371
" />
<path d="M21.6808 23.4371
L21.6204 23.6790
" />
<path d="M21.6204 23.6790
L21.6204 23.8604
" />
<path d="M21.6204 23.8604
L21.6808 24.1023
" />
<path d="M21.6808 24.1023
L21.7413 24.2233
" />
<path d="M21.7413 24.2233
L21.8623 24.3443
" />
<path d="M21.8623 24.3443
L22.0437 24.4047
" />
<path d="M22.0437 24.4047
L22.1646 24.4047
" />
<path d="M22.1646 24.4047
L22.3461 24.3443
" />
<path d="M22.3461 24.3443
L22.4065 24.2838
" />
<path d="M22.4065 24.2838
L22.4065 23.8604
" />
<path d="M22.4065 23.8604
L22.1646 23.8604
" />
<path d="M22.9508 24.4047
L22.9508 23.1347
" />
<path d="M22.9508 23.1347
L23.6765 24.4047
" />
<path d="M23.6765 24.4047
L23.6765 23.1347
" />
<path d="M24.2813 24.4047
L24.2813 23.1347
" />
<path d="M24.2813 23.1347
L24.5837 23.1347
" />
<path d="M24.5837 23.1347
L24.7651 23.1952
" />
<path d="M24.7651 23.1952
L24.8861 23.3162
" />
<path d="M24.8861 23.3162
L24.9466 23.4371
" />
<path d="M24.9466 23.4371
L25.0070 23.6790
" />
<path d="M25.0070 23.6790
L25.0070 23.8604
" />
<path d="M25.0070 23.8604
L24.9466 24.1023
" />
<path d="M24.9466 24.1023
L24.8861 24.2233
" />
<path d="M24.8861 24.2233
L24.7651 24.3443
" />
<path d="M24.7651 24.3443
L24.5837 24.4047
" />
<path d="M24.5837 24.4047
L24.2813 24.4047
" />
</g></g>
<g style="fill:none; 
stroke:#A90000; stroke-width:0.1524; stroke-opacity:1; 
stroke-linecap:round; stroke-linejoin:round;">
<text x="27.1272" y="23.5712"
textLength="1.4127" font-size="1.6933" lengthAdjust="spacingAndGlyphs"
text-anchor="middle" opacity="0" stroke-opacity="0">8</text>
<g class="stroked-text"><desc>8</desc>
<path d="M27.0063 22.6820
L26.8853 22.6215
" />
<path d="M26.8853 22.6215
L26.8248 22.5611
" />
<path d="M26.8248 22.5611
L26.7644 22.4401
" />
<path d="M26.7644 22.4401
L26.7644 22.3796
" />
<path d="M26.7644 22.3796
L26.8248 22.2587
" />
<path d="M26.8248 22.2587
L26.8853 22.1982
" />
<path d="M26.8853 22.1982
L27.0063 22.1377
" />
<path d="M27.0063 22.1377
L27.2482 22.1377
" />
<path d="M27.2482 22.1377
L27.3691 22.1982
" />
<path d="M27.3691 22.1982
L27.4296 22.2587
" />
<path d="M27.4296 22.2587
L27.4901 22.3796
" />
<path d="M27.4901 22.3796
L27.4901 22.4401
" />
<path d="M27.4901 22.4401
L27.4296 22.5611
" />
<path d="M27.4296 22.5611
L27.3691 22.6215
" />
<path d="M27.3691 22.6215
L27.2482 22.6820
" />
<path d="M27.2482 22.6820
L27.0063 22.6820
" />
<path d="M27.0063 22.6820
L26.8853 22.7425
" />
<path d="M26.8853 22.7425
L26.8248 22.8030
" />
<path d="M26.8248 22.8030
L26.7644 22.9239
" />
<path d="M26.7644 22.9239
L26.7644 23.1658
" />
<path d="M26.7644 23.1658
L26.8248 23.2868
" />
<path d="M26.8248 23.2868
L26.8853 23.3473
" />
<path d="M26.8853 23.3473
L27.0063 23.4077
" />
<path d="M27.0063 23.4077
L27.2482 23.4077
" />
<path d="M27.2482 23.4077
L27.3691 23.3473
" />
<path d="M27.3691 23.3473
L27.4296 23.2868
" />
<path d="M27.4296 23.2868
L27.4901 23.1658
" />
<path d="M27.4901 23.1658
L27.4901 22.9239
" />
<path d="M27.4901 22.9239
L27.4296 22.8030
" />
<path d="M27.4296 22.8030
L27.3691 22.7425
" />
<path d="M27.3691 22.7425
L27.2482 22.6820
" />
</g></g>
<g style="fill:none; 
stroke:#840000; stroke-width:0.1524; stroke-opacity:1; 
stroke-linecap:round; stroke-linejoin:round;">
<path d="M18.2372 6.0452
L18.2372 3.5052
" />
</g>
<g style="fill:none; 
stroke:#006464; stroke-width:0.1524; stroke-opacity:1; 
stroke-linecap:round; stroke-linejoin:round;">
<g transform="rotate(-90.000000 18.2372 6.5532)">
<text x="18.2372" y="7.1882"
textLength="2.9246" font-size="1.6933" lengthAdjust="spacingAndGlyphs"
text-anchor="end" opacity="0" stroke-opacity="0">CM</text>
</g>
<g class="stroked-text"><desc>CM</desc>
<path d="M18.6958 8.3467
L18.7563 8.4071
" />
<path d="M18.7563 8.4071
L18.8167 8.5886
" />
<path d="M18.8167 8.5886
L18.8167 8.7095
" />
<path d="M18.8167 8.7095
L18.7563 8.8909
" />
<path d="M18.7563 8.8909
L18.6353 9.0119
" />
<path d="M18.6353 9.0119
L18.5143 9.0724
" />
<path d="M18.5143 9.0724
L18.2724 9.1328
" />
<path d="M18.2724 9.1328
L18.0910 9.1328
" />
<path d="M18.0910 9.1328
L17.8491 9.0724
" />
<path d="M17.8491 9.0724
L17.7282 9.0119
" />
<path d="M17.7282 9.0119
L17.6072 8.8909
" />
<path d="M17.6072 8.8909
L17.5467 8.7095
" />
<path d="M17.5467 8.7095
L17.5467 8.5886
" />
<path d="M17.5467 8.5886
L17.6072 8.4071
" />
<path d="M17.6072 8.4071
L17.6677 8.3467
" />
<path d="M18.8167 7.8024
L17.5467 7.8024
" />
<path d="M17.5467 7.8024
L18.4539 7.3790
" />
<path d="M18.4539 7.3790
L17.5467 6.9557
" />
<path d="M17.5467 6.9557
L18.8167 6.9557
" />
</g></g>
<g style="fill:none; 
stroke:#A90000; stroke-width:0.1524; stroke-opacity:1; 
stroke-linecap:round; stroke-linejoin:round;">
<g transform="rotate(-90.000000 17.9832 4.7752)">
<text x="17.9832" y="4.7752"
textLength="1.4127" font-size="1.6933" lengthAdjust="spacingAndGlyphs"
text-anchor="middle" opacity="0" stroke-opacity="0">9</text>
</g>
<g class="stroked-text"><desc>9</desc>
<path d="M17.8197 5.0170
L17.8197 4.7751
" />
<path d="M17.8197 4.7751
L17.7593 4.6541
" />
<path d="M17.7593 4.6541
L17.6988 4.5937
" />
<path d="M17.6988 4.5937
L17.5173 4.4727
" />
<path d="M17.5173 4.4727
L17.2754 4.4122
" />
<path d="M17.2754 4.4122
L16.7916 4.4122
" />
<path d="M16.7916 4.4122
L16.6707 4.4727
" />
<path d="M16.6707 4.4727
L16.6102 4.5332
" />
<path d="M16.6102 4.5332
L16.5497 4.6541
" />
<path d="M16.5497 4.6541
L16.5497 4.8960
" />
<path d="M16.5497 4.8960
L16.6102 5.0170
" />
<path d="M16.6102 5.0170
L16.6707 5.0775
" />
<path d="M16.6707 5.0775
L16.7916 5.1379
" />
<path d="M16.7916 5.1379
L17.0940 5.1379
" />
<path d="M17.0940 5.1379
L17.2150 5.0775
" />
<path d="M17.2150 5.0775
L17.2754 5.0170
" />
<path d="M17.2754 5.0170
L17.3359 4.8960
" />
<path d="M17.3359 4.8960
L17.3359 4.6541
" />
<path d="M17.3359 4.6541
L17.2754 4.5332
" />
<path d="M17.2754 4.5332
L17.2150 4.4727
" />
<path d="M17.2150 4.4727
L17.0940 4.4122
" />
</g></g>
<g style="fill:none; 
stroke:#840000; stroke-width:0.1524; stroke-opacity:1; 
stroke-linecap:round; stroke-linejoin:round;">
<path d="M5.5372 11.1252
L2.9972 11.1252
" />
</g>
<g style="fill:none; 
stroke:#006464; stroke-width:0.1524; stroke-opacity:1; 
stroke-linecap:round; stroke-linejoin:round;">
<text x="6.0452" y="11.7602"
textLength="3.2271" font-size="1.6933" lengthAdjust="spacingAndGlyphs"
text-anchor="start" opacity="0" stroke-opacity="0">VIN</text>
<g class="stroked-text"><desc>VIN</desc>
<path d="M6.2663 10.4347
L6.6896 11.7047
" />
<path d="M6.6896 11.7047
L7.1130 10.4347
" />
<path d="M7.5363 11.7047
L7.5363 10.4347
" />
<path d="M8.1411 11.7047
L8.1411 10.4347
" />
<path d="M8.1411 10.4347
L8.8668 11.7047
" />
<path d="M8.8668 11.7047
L8.8668 10.4347
" />
</g></g>
<g style="fill:none; 
stroke:#A90000; stroke-width:0.1524; stroke-opacity:1; 
stroke-linecap:round; stroke-linejoin:round;">
<text x="4.2672" y="10.8712"
textLength="2.6222" font-size="1.6933" lengthAdjust="spacingAndGlyphs"
text-anchor="middle" opacity="0" stroke-opacity="0">10</text>
<g class="stroked-text"><desc>10</desc>
<path d="M4.0253 10.7077
L3.2996 10.7077
" />
<path d="M3.6624 10.7077
L3.6624 9.4377
" />
<path d="M3.6624 9.4377
L3.5415 9.6192
" />
<path d="M3.5415 9.6192
L3.4205 9.7401
" />
<path d="M3.4205 9.7401
L3.2996 9.8006
" />
<path d="M4.8114 9.4377
L4.9324 9.4377
" />
<path d="M4.9324 9.4377
L5.0533 9.4982
" />
<path d="M5.0533 9.4982
L5.1138 9.5587
" />
<path d="M5.1138 9.5587
L5.1743 9.6796
" />
<path d="M5.1743 9.6796
L5.2348 9.9215
" />
<path d="M5.2348 9.9215
L5.2348 10.2239
" />
<path d="M5.2348 10.2239
L5.1743 10.4658
" />
<path d="M5.1743 10.4658
L5.1138 10.5868
" />
<path d="M5.1138 10.5868
L5.0533 10.6473
" />
<path d="M5.0533 10.6473
L4.9324 10.7077
" />
<path d="M4.9324 10.7077
L4.8114 10.7077
" />
<path d="M4.8114 10.7077
L4.6905 10.6473
" />
<path d="M4.6905 10.6473
L4.6300 10.5868
" />
<path d="M4.6300 10.5868
L4.5695 10.4658
" />
<path d="M4.5695 10.4658
L4.5091 10.2239
" />
<path d="M4.5091 10.2239
L4.5091 9.9215
" />
<path d="M4.5091 9.9215
L4.5695 9.6796
" />
<path d="M4.5695 9.6796
L4.6300 9.5587
" />
<path d="M4.6300 9.5587
L4.6905 9.4982
" />
<path d="M4.6905 9.4982
L4.8114 9.4377
" />
</g></g>
<g style="fill:none; 
stroke:#840000; stroke-width:0.1524; stroke-opacity:1; 
stroke-linecap:round; stroke-linejoin:round;">
<path d="M25.8572 26.3652
L28.3972 26.3652
" />
</g>
<g style="fill:none; 
stroke:#006464; stroke-width:0.1524; stroke-opacity:1; 
stroke-linecap:round; stroke-linejoin:round;">
<text x="25.3492" y="27.0002"
textLength="4.0737" font-size="1.6933" lengthAdjust="spacingAndGlyphs"
text-anchor="end" opacity="0" stroke-opacity="0">GND</text>
<g class="stroked-text"><desc>GND</desc>
<path d="M22.3461 25.7352
L22.2251 25.6747
" />
<path d="M22.2251 25.6747
L22.0437 25.6747
" />
<path d="M22.0437 25.6747
L21.8623 25.7352
" />
<path d="M21.8623 25.7352
L21.7413 25.8562
" />
<path d="M21.7413 25.8562
L21.6808 25.9771
" />
<path d="M21.6808 25.9771
L21.6204 26.2190
" />
<path d="M21.6204 26.2190
L21.6204 26.4004
" />
<path d="M21.6204 26.4004
L21.6808 26.6423
" />
<path d="M21.6808 26.6423
L21.7413 26.7633
" />
<path d="M21.7413 26.7633
L21.8623 26.8843
" />
<path d="M21.8623 26.8843
L22.0437 26.9447
" />
<path d="M22.0437 26.9447
L22.1646 26.9447
" />
<path d="M22.1646 26.9447
L22.3461 26.8843
" />
<path d="M22.3461 26.8843
L22.4065 26.8238
" />
<path d="M22.4065 26.8238
L22.4065 26.4004
" />
<path d="M22.4065 26.4004
L22.1646 26.4004
" />
<path d="M22.9508 26.9447
L22.9508 25.6747
" />
<path d="M22.9508 25.6747
L23.6765 26.9447
" />
<path d="M23.6765 26.9447
L23.6765 25.6747
" />
<path d="M24.2813 26.9447
L24.2813 25.6747
" />
<path d="M24.2813 25.6747
L24.5837 25.6747
" />
<path d="M24.5837 25.6747
L24.7651 25.7352
" />
<path d="M24.7651 25.7352
L24.8861 25.8562
" />
<path d="M24.8861 25.8562
L24.9466 25.9771
" />
<path d="M24.9466 25.9771
L25.0070 26.2190
" />
<path d="M25.0070 26.2190
L25.0070 26.4004
" />
<path d="M25.0070 26.4004
L24.9466 26.6423
" />
<path d="M24.9466 26.6423
L24.8861 26.7633
" />
<path d="M24.8861 26.7633
L24.7651 26.8843
" />
<path d="M24.7651 26.8843
L24.5837 26.9447
" />
<path d="M24.5837 26.9447
L24.2813 26.9447
" />
</g></g>
<g style="fill:none; 
stroke:#A90000; stroke-width:0.1524; stroke-opacity:1; 
stroke-linecap:round; stroke-linejoin:round;">
<text x="27.1272" y="26.1112"
textLength="2.6222" font-size="1.6933" lengthAdjust="spacingAndGlyphs"
text-anchor="middle" opacity="0" stroke-opacity="0">11</text>
<g class="stroked-text"><desc>11</desc>
<path d="M26.8853 25.9477
L26.1596 25.9477
" />
<path d="M26.5224 25.9477
L26.5224 24.6777
" />
<path d="M26.5224 24.6777
L26.4015 24.8592
" />
<path d="M26.4015 24.8592
L26.2805 24.9801
" />
<path d="M26.2805 24.9801
L26.1596 25.0406
" />
<path d="M28.0948 25.9477
L27.3691 25.9477
" />
<path d="M27.7319 25.9477
L27.7319 24.6777
" />
<path d="M27.7319 24.6777
L27.6110 24.8592
" />
<path d="M27.6110 24.8592
L27.4900 24.9801
" />
<path d="M27.4900 24.9801
L27.3691 25.0406
" />
</g></g>
<g style="fill:none; 
stroke:#006464; stroke-width:0.1524; stroke-opacity:1; 
stroke-linecap:round; stroke-linejoin:round;">
<text x="6.2992" y="5.4102"
textLength="2.6223" font-size="1.6933" lengthAdjust="spacingAndGlyphs"
text-anchor="middle" opacity="0" stroke-opacity="0">U?</text>
<g class="stroked-text"><desc>U?</desc>
<path d="M5.3920 4.0847
L5.3920 5.1128
" />
<path d="M5.3920 5.1128
L5.4525 5.2338
" />
<path d="M5.4525 5.2338
L5.5130 5.2943
" />
<path d="M5.5130 5.2943
L5.6339 5.3547
" />
<path d="M5.6339 5.3547
L5.8758 5.3547
" />
<path d="M5.8758 5.3547
L5.9968 5.2943
" />
<path d="M5.9968 5.2943
L6.0573 5.2338
" />
<path d="M6.0573 5.2338
L6.1177 5.1128
" />
<path d="M6.1177 5.1128
L6.1177 4.0847
" />
<path d="M6.9040 5.2338
L6.9644 5.2943
" />
<path d="M6.9644 5.2943
L6.9040 5.3547
" />
<path d="M6.9040 5.3547
L6.8435 5.2943
" />
<path d="M6.8435 5.2943
L6.9040 5.2338
" />
<path d="M6.9040 5.2338
L6.9040 5.3547
" />
<path d="M6.6621 4.1452
L6.7830 4.0847
" />
<path d="M6.7830 4.0847
L7.0854 4.0847
" />
<path d="M7.0854 4.0847
L7.2063 4.1452
" />
<path d="M7.2063 4.1452
L7.2668 4.2662
" />
<path d="M7.2668 4.2662
L7.2668 4.3871
" />
<path d="M7.2668 4.3871
L7.2063 4.5081
" />
<path d="M7.2063 4.5081
L7.1459 4.5685
" />
<path d="M7.1459 4.5685
L7.0249 4.6290
" />
<path d="M7.0249 4.6290
L6.9644 4.6895
" />
<path d="M6.9644 4.6895
L6.9040 4.8104
" />
<path d="M6.9040 4.8104
L6.9040 4.8709
" />
</g><text x="23.0632" y="5.6642"
textLength="8.3069" font-size="1.6933" lengthAdjust="spacingAndGlyphs"
text-anchor="middle" opacity="0" stroke-opacity="0">LTC3218</text>
<g class="stroked-text"><desc>LTC3218</desc>
<path d="M19.9185 5.6087
L19.3137 5.6087
" />
<path d="M19.3137 5.6087
L19.3137 4.3387
" />
<path d="M20.1604 4.3387
L20.8861 4.3387
" />
<path d="M20.5233 5.6087
L20.5233 4.3387
" />
<path d="M22.0351 5.4878
L21.9747 5.5483
" />
<path d="M21.9747 5.5483
L21.7932 5.6087
" />
<path d="M21.7932 5.6087
L21.6723 5.6087
" />
<path d="M21.6723 5.6087
L21.4909 5.5483
" />
<path d="M21.4909 5.5483
L21.3699 5.4273
" />
<path d="M21.3699 5.4273
L21.3094 5.3063
" />
<path d="M21.3094 5.3063
L21.2490 5.0644
" />
<path d="M21.2490 5.0644
L21.2490 4.8830
" />
<path d="M21.2490 4.8830
L21.3094 4.6411
" />
<path d="M21.3094 4.6411
L21.3699 4.5202
" />
<path d="M21.3699 4.5202
L21.4909 4.3992
" />
<path d="M21.4909 4.3992
L21.6723 4.3387
" />
<path d="M21.6723 4.3387
L21.7932 4.3387
" />
<path d="M21.7932 4.3387
L21.9747 4.3992
" />
<path d="M21.9747 4.3992
L22.0351 4.4597
" />
<path d="M22.4585 4.3387
L23.2447 4.3387
" />
<path d="M23.2447 4.3387
L22.8213 4.8225
" />
<path d="M22.8213 4.8225
L23.0028 4.8225
" />
<path d="M23.0028 4.8225
L23.1237 4.8830
" />
<path d="M23.1237 4.8830
L23.1842 4.9435
" />
<path d="M23.1842 4.9435
L23.2447 5.0644
" />
<path d="M23.2447 5.0644
L23.2447 5.3668
" />
<path d="M23.2447 5.3668
L23.1842 5.4878
" />
<path d="M23.1842 5.4878
L23.1237 5.5483
" />
<path d="M23.1237 5.5483
L23.0028 5.6087
" />
<path d="M23.0028 5.6087
L22.6399 5.6087
" />
<path d="M22.6399 5.6087
L22.5190 5.5483
" />
<path d="M22.5190 5.5483
L22.4585 5.4878
" />
<path d="M23.7285 4.4597
L23.7889 4.3992
" />
<path d="M23.7889 4.3992
L23.9099 4.3387
" />
<path d="M23.9099 4.3387
L24.2123 4.3387
" />
<path d="M24.2123 4.3387
L24.3332 4.3992
" />
<path d="M24.3332 4.3992
L24.3937 4.4597
" />
<path d="M24.3937 4.4597
L24.4542 4.5806
" />
<path d="M24.4542 4.5806
L24.4542 4.7016
" />
<path d="M24.4542 4.7016
L24.3937 4.8830
" />
<path d="M24.3937 4.8830
L23.6680 5.6087
" />
<path d="M23.6680 5.6087
L24.4542 5.6087
" />
<path d="M25.6637 5.6087
L24.9380 5.6087
" />
<path d="M25.3008 5.6087
L25.3008 4.3387
" />
<path d="M25.3008 4.3387
L25.1799 4.5202
" />
<path d="M25.1799 4.5202
L25.0589 4.6411
" />
<path d="M25.0589 4.6411
L24.9380 4.7016
" />
<path d="M26.3894 4.8830
L26.2684 4.8225
" />
<path d="M26.2684 4.8225
L26.2079 4.7621
" />
<path d="M26.2079 4.7621
L26.1475 4.6411
" />
<path d="M26.1475 4.6411
L26.1475 4.5806
" />
<path d="M26.1475 4.5806
L26.2079 4.4597
" />
<path d="M26.2079 4.4597
L26.2684 4.3992
" />
<path d="M26.2684 4.3992
L26.3894 4.3387
" />
<path d="M26.3894 4.3387
L26.6313 4.3387
" />
<path d="M26.6313 4.3387
L26.7522 4.3992
" />
<path d="M26.7522 4.3992
L26.8127 4.4597
" />
<path d="M26.8127 4.4597
L26.8732 4.5806
" />
<path d="M26.8732 4.5806
L26.8732 4.6411
" />
<path d="M26.8732 4.6411
L26.8127 4.7621
" />
<path d="M26.8127 4.7621
L26.7522 4.8225
" />
<path d="M26.7522 4.8225
L26.6313 4.8830
" />
<path d="M26.6313 4.8830
L26.3894 4.8830
" />
<path d="M26.3894 4.8830
L26.2684 4.9435
" />
<path d="M26.2684 4.9435
L26.2079 5.0040
" />
<path d="M26.2079 5.0040
L26.1475 5.1249
" />
<path d="M26.1475 5.1249
L26.1475 5.3668
" />
<path d="M26.1475 5.3668
L26.2079 5.4878
" />
<path d="M26.2079 5.4878
L26.2684 5.5483
" />
<path d="M26.2684 5.5483
L26.3894 5.6087
" />
<path d="M26.3894 5.6087
L26.6313 5.6087
" />
<path d="M26.6313 5.6087
L26.7522 5.5483
" />
<path d="M26.7522 5.5483
L26.8127 5.4878
" />
<path d="M26.8127 5.4878
L26.8732 5.3668
" />
<path d="M26.8732 5.3668
L26.8732 5.1249
" />
<path d="M26.8732 5.1249
L26.8127 5.0040
" />
<path d="M26.8127 5.0040
L26.7522 4.9435
" />
<path d="M26.7522 4.9435
L26.6313 4.8830
" />
</g></g> 
</svg>
