<?xml version="1.0" standalone="no"?>
 <!DOCTYPE svg PUBLIC "-//W3C//DTD SVG 1.1//EN" 
 "http://www.w3.org/Graphics/SVG/1.1/DTD/svg11.dtd"> 
<svg
  xmlns:svg="http://www.w3.org/2000/svg"
  xmlns="http://www.w3.org/2000/svg"
  xmlns:xlink="http://www.w3.org/1999/xlink"
  xmlns:inkscape="http://www.inkscape.org/namespaces/inkscape"
  version="1.1"
  width="100%" height="100%" viewBox="0.000000 0.000000 16.484600 4.546600">
<title>SVG Image created as R_0603_1608Metric_L.svg date 2026-04-16T05:24:22 </title>
  <desc>Image generated by PCBNEW </desc>
<g style="fill:#000000; fill-opacity:1.000000;stroke:#000000; stroke-opacity:1.000000;
stroke-linecap:round; stroke-linejoin:round;"
 transform="translate(0 0) scale(1 1)">
<path style="fill:#C83434; fill-opacity:1.000000; stroke:none;fill-rule:evenodd;"
d="M 7.063048,1.962750
7.076597,1.894632
7.115183,1.836885
7.172930,1.798299
7.241048,1.784750
7.597048,1.784750
7.665166,1.798299
7.722913,1.836885
7.761499,1.894632
7.775048,1.962750
7.775048,2.593750
7.761499,2.661868
7.722913,2.719615
7.665166,2.758201
7.597048,2.771750
7.241048,2.771750
7.172930,2.758201
7.115183,2.719615
7.076597,2.661868
7.063048,2.593750
Z" /> 
<path style="fill:#C83434; fill-opacity:1.000000; stroke:none;fill-rule:evenodd;"
d="M 8.713048,1.962750
8.726597,1.894632
8.765183,1.836885
8.822930,1.798299
8.891048,1.784750
9.247048,1.784750
9.315166,1.798299
9.372913,1.836885
9.411499,1.894632
9.425048,1.962750
9.425048,2.593750
9.411499,2.661868
9.372913,2.719615
9.315166,2.758201
9.247048,2.771750
8.891048,2.771750
8.822930,2.758201
8.765183,2.719615
8.726597,2.661868
8.713048,2.593750
Z" /> 
<path style="fill:#D864FF; fill-opacity:0.400000; stroke:none;fill-rule:evenodd;"
d="M 7.063048,1.962750
7.076597,1.894632
7.115183,1.836885
7.172930,1.798299
7.241048,1.784750
7.597048,1.784750
7.665166,1.798299
7.722913,1.836885
7.761499,1.894632
7.775048,1.962750
7.775048,2.593750
7.761499,2.661868
7.722913,2.719615
7.665166,2.758201
7.597048,2.771750
7.241048,2.771750
7.172930,2.758201
7.115183,2.719615
7.076597,2.661868
7.063048,2.593750
Z" /> 
<path style="fill:#D864FF; fill-opacity:0.400000; stroke:none;fill-rule:evenodd;"
d="M 8.713048,1.962750
8.726597,1.894632
8.765183,1.836885
8.822930,1.798299
8.891048,1.784750
9.247048,1.784750
9.315166,1.798299
9.372913,1.836885
9.411499,1.894632
9.425048,1.962750
9.425048,2.593750
9.411499,2.661868
9.372913,2.719615
9.315166,2.758201
9.247048,2.771750
8.891048,2.771750
8.822930,2.758201
8.765183,2.719615
8.726597,2.661868
8.713048,2.593750
Z" /> 
<path style="fill:#B4A09A; fill-opacity:0.900000; stroke:none;fill-rule:evenodd;"
d="M 7.063048,1.962750
7.076597,1.894632
7.115183,1.836885
7.172930,1.798299
7.241048,1.784750
7.597048,1.784750
7.665166,1.798299
7.722913,1.836885
7.761499,1.894632
7.775048,1.962750
7.775048,2.593750
7.761499,2.661868
7.722913,2.719615
7.665166,2.758201
7.597048,2.771750
7.241048,2.771750
7.172930,2.758201
7.115183,2.719615
7.076597,2.661868
7.063048,2.593750
Z" /> 
<path style="fill:#B4A09A; fill-opacity:0.900000; stroke:none;fill-rule:evenodd;"
d="M 8.713048,1.962750
8.726597,1.894632
8.765183,1.836885
8.822930,1.798299
8.891048,1.784750
9.247048,1.784750
9.315166,1.798299
9.372913,1.836885
9.411499,1.894632
9.425048,1.962750
9.425048,2.593750
9.411499,2.661868
9.372913,2.719615
9.315166,2.758201
9.247048,2.771750
8.891048,2.771750
8.822930,2.758201
8.765183,2.719615
8.726597,2.661868
8.713048,2.593750
Z" /> 
</g>
<g style="fill:none; 
stroke:#F2EDA1; stroke-width:0.150000; stroke-opacity:1; 
stroke-linecap:round; stroke-linejoin:round;">
<text x="8.244048" y="1.348250"
textLength="4.535715" font-size="1.333333" lengthAdjust="spacingAndGlyphs"
text-anchor="middle" opacity="0" stroke-opacity="0">REF**</text>
<g class="stroked-text"><desc>REF**</desc>
<path d="M6.910715 1.303070
L6.577382 0.826879
" />
<path d="M6.339287 1.303070
L6.339287 0.303070
" />
<path d="M6.339287 0.303070
L6.720239 0.303070
" />
<path d="M6.720239 0.303070
L6.815477 0.350689
" />
<path d="M6.815477 0.350689
L6.863096 0.398308
" />
<path d="M6.863096 0.398308
L6.910715 0.493546
" />
<path d="M6.910715 0.493546
L6.910715 0.636403
" />
<path d="M6.910715 0.636403
L6.863096 0.731641
" />
<path d="M6.863096 0.731641
L6.815477 0.779260
" />
<path d="M6.815477 0.779260
L6.720239 0.826879
" />
<path d="M6.720239 0.826879
L6.339287 0.826879
" />
<path d="M7.339287 0.779260
L7.672620 0.779260
" />
<path d="M7.815477 1.303070
L7.339287 1.303070
" />
<path d="M7.339287 1.303070
L7.339287 0.303070
" />
<path d="M7.339287 0.303070
L7.815477 0.303070
" />
<path d="M8.577381 0.779260
L8.244048 0.779260
" />
<path d="M8.244048 1.303070
L8.244048 0.303070
" />
<path d="M8.244048 0.303070
L8.720238 0.303070
" />
<path d="M9.244048 0.303070
L9.244048 0.541165
" />
<path d="M9.005953 0.445927
L9.244048 0.541165
" />
<path d="M9.244048 0.541165
L9.482143 0.445927
" />
<path d="M9.101191 0.731641
L9.244048 0.541165
" />
<path d="M9.244048 0.541165
L9.386905 0.731641
" />
<path d="M10.005953 0.303070
L10.005953 0.541165
" />
<path d="M9.767858 0.445927
L10.005953 0.541165
" />
<path d="M10.005953 0.541165
L10.244048 0.445927
" />
<path d="M9.863096 0.731641
L10.005953 0.541165
" />
<path d="M10.005953 0.541165
L10.148810 0.731641
" />
</g></g>
<g style="fill:none; 
stroke:#F2EDA1; stroke-width:0.120000; stroke-opacity:1; 
stroke-linecap:round; stroke-linejoin:round;">
<path d="M8.006790 1.755750
L8.481306 1.755750
" />
<path d="M8.006790 2.800750
L8.481306 2.800750
" />
<path style="fill:none; 
stroke:#FF26E2; stroke-width:0.050000; stroke-opacity:1; 
stroke-linecap:round; stroke-linejoin:round;fill:none"
d="M 7.124048,1.738250
9.364048,1.738250
9.364048,2.818250
7.124048,2.818250
Z" /> 
</g>
<g style="fill:none; 
stroke:#AFAFAF; stroke-width:0.150000; stroke-opacity:1; 
stroke-linecap:round; stroke-linejoin:round;">
<text x="8.244048" y="4.208250"
textLength="16.488097" font-size="1.333333" lengthAdjust="spacingAndGlyphs"
text-anchor="middle" opacity="0" stroke-opacity="0">R_0603_1608Metric_L</text>
<g class="stroked-text"><desc>R_0603_1608Metric_L</desc>
<path d="M0.934524 4.163069
L0.601191 3.686878
" />
<path d="M0.363096 4.163069
L0.363096 3.163069
" />
<path d="M0.363096 3.163069
L0.744048 3.163069
" />
<path d="M0.744048 3.163069
L0.839286 3.210688
" />
<path d="M0.839286 3.210688
L0.886905 3.258307
" />
<path d="M0.886905 3.258307
L0.934524 3.353545
" />
<path d="M0.934524 3.353545
L0.934524 3.496402
" />
<path d="M0.934524 3.496402
L0.886905 3.591640
" />
<path d="M0.886905 3.591640
L0.839286 3.639259
" />
<path d="M0.839286 3.639259
L0.744048 3.686878
" />
<path d="M0.744048 3.686878
L0.363096 3.686878
" />
<path d="M1.125000 4.258307
L1.886905 4.258307
" />
<path d="M2.315477 3.163069
L2.410715 3.163069
" />
<path d="M2.410715 3.163069
L2.505953 3.210688
" />
<path d="M2.505953 3.210688
L2.553572 3.258307
" />
<path d="M2.553572 3.258307
L2.601191 3.353545
" />
<path d="M2.601191 3.353545
L2.648810 3.544021
" />
<path d="M2.648810 3.544021
L2.648810 3.782116
" />
<path d="M2.648810 3.782116
L2.601191 3.972592
" />
<path d="M2.601191 3.972592
L2.553572 4.067830
" />
<path d="M2.553572 4.067830
L2.505953 4.115450
" />
<path d="M2.505953 4.115450
L2.410715 4.163069
" />
<path d="M2.410715 4.163069
L2.315477 4.163069
" />
<path d="M2.315477 4.163069
L2.220239 4.115450
" />
<path d="M2.220239 4.115450
L2.172620 4.067830
" />
<path d="M2.172620 4.067830
L2.125001 3.972592
" />
<path d="M2.125001 3.972592
L2.077382 3.782116
" />
<path d="M2.077382 3.782116
L2.077382 3.544021
" />
<path d="M2.077382 3.544021
L2.125001 3.353545
" />
<path d="M2.125001 3.353545
L2.172620 3.258307
" />
<path d="M2.172620 3.258307
L2.220239 3.210688
" />
<path d="M2.220239 3.210688
L2.315477 3.163069
" />
<path d="M3.505953 3.163069
L3.315477 3.163069
" />
<path d="M3.315477 3.163069
L3.220239 3.210688
" />
<path d="M3.220239 3.210688
L3.172620 3.258307
" />
<path d="M3.172620 3.258307
L3.077382 3.401164
" />
<path d="M3.077382 3.401164
L3.029763 3.591640
" />
<path d="M3.029763 3.591640
L3.029763 3.972592
" />
<path d="M3.029763 3.972592
L3.077382 4.067830
" />
<path d="M3.077382 4.067830
L3.125001 4.115450
" />
<path d="M3.125001 4.115450
L3.220239 4.163069
" />
<path d="M3.220239 4.163069
L3.410715 4.163069
" />
<path d="M3.410715 4.163069
L3.505953 4.115450
" />
<path d="M3.505953 4.115450
L3.553572 4.067830
" />
<path d="M3.553572 4.067830
L3.601191 3.972592
" />
<path d="M3.601191 3.972592
L3.601191 3.734497
" />
<path d="M3.601191 3.734497
L3.553572 3.639259
" />
<path d="M3.553572 3.639259
L3.505953 3.591640
" />
<path d="M3.505953 3.591640
L3.410715 3.544021
" />
<path d="M3.410715 3.544021
L3.220239 3.544021
" />
<path d="M3.220239 3.544021
L3.125001 3.591640
" />
<path d="M3.125001 3.591640
L3.077382 3.639259
" />
<path d="M3.077382 3.639259
L3.029763 3.734497
" />
<path d="M4.220239 3.163069
L4.315477 3.163069
" />
<path d="M4.315477 3.163069
L4.410715 3.210688
" />
<path d="M4.410715 3.210688
L4.458334 3.258307
" />
<path d="M4.458334 3.258307
L4.505953 3.353545
" />
<path d="M4.505953 3.353545
L4.553572 3.544021
" />
<path d="M4.553572 3.544021
L4.553572 3.782116
" />
<path d="M4.553572 3.782116
L4.505953 3.972592
" />
<path d="M4.505953 3.972592
L4.458334 4.067830
" />
<path d="M4.458334 4.067830
L4.410715 4.115450
" />
<path d="M4.410715 4.115450
L4.315477 4.163069
" />
<path d="M4.315477 4.163069
L4.220239 4.163069
" />
<path d="M4.220239 4.163069
L4.125001 4.115450
" />
<path d="M4.125001 4.115450
L4.077382 4.067830
" />
<path d="M4.077382 4.067830
L4.029763 3.972592
" />
<path d="M4.029763 3.972592
L3.982144 3.782116
" />
<path d="M3.982144 3.782116
L3.982144 3.544021
" />
<path d="M3.982144 3.544021
L4.029763 3.353545
" />
<path d="M4.029763 3.353545
L4.077382 3.258307
" />
<path d="M4.077382 3.258307
L4.125001 3.210688
" />
<path d="M4.125001 3.210688
L4.220239 3.163069
" />
<path d="M4.886906 3.163069
L5.505953 3.163069
" />
<path d="M5.505953 3.163069
L5.172620 3.544021
" />
<path d="M5.172620 3.544021
L5.315477 3.544021
" />
<path d="M5.315477 3.544021
L5.410715 3.591640
" />
<path d="M5.410715 3.591640
L5.458334 3.639259
" />
<path d="M5.458334 3.639259
L5.505953 3.734497
" />
<path d="M5.505953 3.734497
L5.505953 3.972592
" />
<path d="M5.505953 3.972592
L5.458334 4.067830
" />
<path d="M5.458334 4.067830
L5.410715 4.115450
" />
<path d="M5.410715 4.115450
L5.315477 4.163069
" />
<path d="M5.315477 4.163069
L5.029763 4.163069
" />
<path d="M5.029763 4.163069
L4.934525 4.115450
" />
<path d="M4.934525 4.115450
L4.886906 4.067830
" />
<path d="M5.696429 4.258307
L6.458334 4.258307
" />
<path d="M7.220239 4.163069
L6.648811 4.163069
" />
<path d="M6.934525 4.163069
L6.934525 3.163069
" />
<path d="M6.934525 3.163069
L6.839287 3.305926
" />
<path d="M6.839287 3.305926
L6.744049 3.401164
" />
<path d="M6.744049 3.401164
L6.648811 3.448783
" />
<path d="M8.077382 3.163069
L7.886906 3.163069
" />
<path d="M7.886906 3.163069
L7.791668 3.210688
" />
<path d="M7.791668 3.210688
L7.744049 3.258307
" />
<path d="M7.744049 3.258307
L7.648811 3.401164
" />
<path d="M7.648811 3.401164
L7.601192 3.591640
" />
<path d="M7.601192 3.591640
L7.601192 3.972592
" />
<path d="M7.601192 3.972592
L7.648811 4.067830
" />
<path d="M7.648811 4.067830
L7.696430 4.115450
" />
<path d="M7.696430 4.115450
L7.791668 4.163069
" />
<path d="M7.791668 4.163069
L7.982144 4.163069
" />
<path d="M7.982144 4.163069
L8.077382 4.115450
" />
<path d="M8.077382 4.115450
L8.125001 4.067830
" />
<path d="M8.125001 4.067830
L8.172620 3.972592
" />
<path d="M8.172620 3.972592
L8.172620 3.734497
" />
<path d="M8.172620 3.734497
L8.125001 3.639259
" />
<path d="M8.125001 3.639259
L8.077382 3.591640
" />
<path d="M8.077382 3.591640
L7.982144 3.544021
" />
<path d="M7.982144 3.544021
L7.791668 3.544021
" />
<path d="M7.791668 3.544021
L7.696430 3.591640
" />
<path d="M7.696430 3.591640
L7.648811 3.639259
" />
<path d="M7.648811 3.639259
L7.601192 3.734497
" />
<path d="M8.791667 3.163069
L8.886905 3.163069
" />
<path d="M8.886905 3.163069
L8.982143 3.210688
" />
<path d="M8.982143 3.210688
L9.029762 3.258307
" />
<path d="M9.029762 3.258307
L9.077381 3.353545
" />
<path d="M9.077381 3.353545
L9.125000 3.544021
" />
<path d="M9.125000 3.544021
L9.125000 3.782116
" />
<path d="M9.125000 3.782116
L9.077381 3.972592
" />
<path d="M9.077381 3.972592
L9.029762 4.067830
" />
<path d="M9.029762 4.067830
L8.982143 4.115450
" />
<path d="M8.982143 4.115450
L8.886905 4.163069
" />
<path d="M8.886905 4.163069
L8.791667 4.163069
" />
<path d="M8.791667 4.163069
L8.696429 4.115450
" />
<path d="M8.696429 4.115450
L8.648810 4.067830
" />
<path d="M8.648810 4.067830
L8.601191 3.972592
" />
<path d="M8.601191 3.972592
L8.553572 3.782116
" />
<path d="M8.553572 3.782116
L8.553572 3.544021
" />
<path d="M8.553572 3.544021
L8.601191 3.353545
" />
<path d="M8.601191 3.353545
L8.648810 3.258307
" />
<path d="M8.648810 3.258307
L8.696429 3.210688
" />
<path d="M8.696429 3.210688
L8.791667 3.163069
" />
<path d="M9.696429 3.591640
L9.601191 3.544021
" />
<path d="M9.601191 3.544021
L9.553572 3.496402
" />
<path d="M9.553572 3.496402
L9.505953 3.401164
" />
<path d="M9.505953 3.401164
L9.505953 3.353545
" />
<path d="M9.505953 3.353545
L9.553572 3.258307
" />
<path d="M9.553572 3.258307
L9.601191 3.210688
" />
<path d="M9.601191 3.210688
L9.696429 3.163069
" />
<path d="M9.696429 3.163069
L9.886905 3.163069
" />
<path d="M9.886905 3.163069
L9.982143 3.210688
" />
<path d="M9.982143 3.210688
L10.029762 3.258307
" />
<path d="M10.029762 3.258307
L10.077381 3.353545
" />
<path d="M10.077381 3.353545
L10.077381 3.401164
" />
<path d="M10.077381 3.401164
L10.029762 3.496402
" />
<path d="M10.029762 3.496402
L9.982143 3.544021
" />
<path d="M9.982143 3.544021
L9.886905 3.591640
" />
<path d="M9.886905 3.591640
L9.696429 3.591640
" />
<path d="M9.696429 3.591640
L9.601191 3.639259
" />
<path d="M9.601191 3.639259
L9.553572 3.686878
" />
<path d="M9.553572 3.686878
L9.505953 3.782116
" />
<path d="M9.505953 3.782116
L9.505953 3.972592
" />
<path d="M9.505953 3.972592
L9.553572 4.067830
" />
<path d="M9.553572 4.067830
L9.601191 4.115450
" />
<path d="M9.601191 4.115450
L9.696429 4.163069
" />
<path d="M9.696429 4.163069
L9.886905 4.163069
" />
<path d="M9.886905 4.163069
L9.982143 4.115450
" />
<path d="M9.982143 4.115450
L10.029762 4.067830
" />
<path d="M10.029762 4.067830
L10.077381 3.972592
" />
<path d="M10.077381 3.972592
L10.077381 3.782116
" />
<path d="M10.077381 3.782116
L10.029762 3.686878
" />
<path d="M10.029762 3.686878
L9.982143 3.639259
" />
<path d="M9.982143 3.639259
L9.886905 3.591640
" />
<path d="M10.505953 4.163069
L10.505953 3.163069
" />
<path d="M10.505953 3.163069
L10.839286 3.877354
" />
<path d="M10.839286 3.877354
L11.172619 3.163069
" />
<path d="M11.172619 3.163069
L11.172619 4.163069
" />
<path d="M12.029762 4.115450
L11.934524 4.163069
" />
<path d="M11.934524 4.163069
L11.744048 4.163069
" />
<path d="M11.744048 4.163069
L11.648810 4.115450
" />
<path d="M11.648810 4.115450
L11.601191 4.020211
" />
<path d="M11.601191 4.020211
L11.601191 3.639259
" />
<path d="M11.601191 3.639259
L11.648810 3.544021
" />
<path d="M11.648810 3.544021
L11.744048 3.496402
" />
<path d="M11.744048 3.496402
L11.934524 3.496402
" />
<path d="M11.934524 3.496402
L12.029762 3.544021
" />
<path d="M12.029762 3.544021
L12.077381 3.639259
" />
<path d="M12.077381 3.639259
L12.077381 3.734497
" />
<path d="M12.077381 3.734497
L11.601191 3.829735
" />
<path d="M12.363096 3.496402
L12.744048 3.496402
" />
<path d="M12.505953 3.163069
L12.505953 4.020211
" />
<path d="M12.505953 4.020211
L12.553572 4.115450
" />
<path d="M12.553572 4.115450
L12.648810 4.163069
" />
<path d="M12.648810 4.163069
L12.744048 4.163069
" />
<path d="M13.077382 4.163069
L13.077382 3.496402
" />
<path d="M13.077382 3.686878
L13.125001 3.591640
" />
<path d="M13.125001 3.591640
L13.172620 3.544021
" />
<path d="M13.172620 3.544021
L13.267858 3.496402
" />
<path d="M13.267858 3.496402
L13.363096 3.496402
" />
<path d="M13.696430 4.163069
L13.696430 3.496402
" />
<path d="M13.696430 3.163069
L13.648811 3.210688
" />
<path d="M13.648811 3.210688
L13.696430 3.258307
" />
<path d="M13.696430 3.258307
L13.744049 3.210688
" />
<path d="M13.744049 3.210688
L13.696430 3.163069
" />
<path d="M13.696430 3.163069
L13.696430 3.258307
" />
<path d="M14.601191 4.115450
L14.505953 4.163069
" />
<path d="M14.505953 4.163069
L14.315477 4.163069
" />
<path d="M14.315477 4.163069
L14.220239 4.115450
" />
<path d="M14.220239 4.115450
L14.172620 4.067830
" />
<path d="M14.172620 4.067830
L14.125001 3.972592
" />
<path d="M14.125001 3.972592
L14.125001 3.686878
" />
<path d="M14.125001 3.686878
L14.172620 3.591640
" />
<path d="M14.172620 3.591640
L14.220239 3.544021
" />
<path d="M14.220239 3.544021
L14.315477 3.496402
" />
<path d="M14.315477 3.496402
L14.505953 3.496402
" />
<path d="M14.505953 3.496402
L14.601191 3.544021
" />
<path d="M14.791668 4.258307
L15.553572 4.258307
" />
<path d="M16.267858 4.163069
L15.791668 4.163069
" />
<path d="M15.791668 4.163069
L15.791668 3.163069
" />
</g></g>
<g style="fill:none; 
stroke:#AFAFAF; stroke-width:0.060000; stroke-opacity:1; 
stroke-linecap:round; stroke-linejoin:round;">
<text x="8.244048" y="2.478250"
textLength="1.814286" font-size="0.533333" lengthAdjust="spacingAndGlyphs"
text-anchor="middle" opacity="0" stroke-opacity="0">REF**</text>
<g class="stroked-text"><desc>REF**</desc>
<path d="M7.710715 2.460177
L7.577382 2.269702
" />
<path d="M7.482144 2.460177
L7.482144 2.060178
" />
<path d="M7.482144 2.060178
L7.634525 2.060178
" />
<path d="M7.634525 2.060178
L7.672620 2.079226
" />
<path d="M7.672620 2.079226
L7.691667 2.098273
" />
<path d="M7.691667 2.098273
L7.710715 2.136369
" />
<path d="M7.710715 2.136369
L7.710715 2.193511
" />
<path d="M7.710715 2.193511
L7.691667 2.231607
" />
<path d="M7.691667 2.231607
L7.672620 2.250654
" />
<path d="M7.672620 2.250654
L7.634525 2.269702
" />
<path d="M7.634525 2.269702
L7.482144 2.269702
" />
<path d="M7.882144 2.250654
L8.015477 2.250654
" />
<path d="M8.072620 2.460177
L7.882144 2.460177
" />
<path d="M7.882144 2.460177
L7.882144 2.060178
" />
<path d="M7.882144 2.060178
L8.072620 2.060178
" />
<path d="M8.377381 2.250654
L8.244048 2.250654
" />
<path d="M8.244048 2.460177
L8.244048 2.060178
" />
<path d="M8.244048 2.060178
L8.434524 2.060178
" />
<path d="M8.644047 2.060178
L8.644047 2.155416
" />
<path d="M8.548809 2.117321
L8.644047 2.155416
" />
<path d="M8.644047 2.155416
L8.739286 2.117321
" />
<path d="M8.586905 2.231607
L8.644047 2.155416
" />
<path d="M8.644047 2.155416
L8.701190 2.231607
" />
<path d="M8.948809 2.060178
L8.948809 2.155416
" />
<path d="M8.853571 2.117321
L8.948809 2.155416
" />
<path d="M8.948809 2.155416
L9.044048 2.117321
" />
<path d="M8.891667 2.231607
L8.948809 2.155416
" />
<path d="M8.948809 2.155416
L9.005952 2.231607
" />
</g><path style="fill:none; 
stroke:#AFAFAF; stroke-width:0.100000; stroke-opacity:1; 
stroke-linecap:round; stroke-linejoin:round;fill:none"
d="M 7.444048,1.865750
9.044048,1.865750
9.044048,2.690750
7.444048,2.690750
Z" /> 
</g> 
</svg>
