<?xml version="1.0" standalone="no"?>
 <!DOCTYPE svg PUBLIC "-//W3C//DTD SVG 1.1//EN" 
 "http://www.w3.org/Graphics/SVG/1.1/DTD/svg11.dtd"> 
<svg
  xmlns:svg="http://www.w3.org/2000/svg"
  xmlns="http://www.w3.org/2000/svg"
  xmlns:xlink="http://www.w3.org/1999/xlink"
  xmlns:inkscape="http://www.inkscape.org/namespaces/inkscape"
  version="1.1"
  width="100%" height="100%" viewBox="0.0000 0.0000 25.2984 18.1356">
<title>SVG Image created as SC189ZULTRT_unit1.svg date 2026-04-16T05:24:12 </title>
  <desc>Image generated by Eeschema-SVG </desc>
<g style="fill:#000000; fill-opacity:1.0000;stroke:#000000; stroke-opacity:1.0000;
stroke-linecap:round; stroke-linejoin:round;"
 transform="translate(0 0) scale(1 1)">
</g>
<g style="fill:#FFFFC2; fill-opacity:1.0000; stroke:none;">
<rect x="5.029200" y="3.546100" width="15.240000" height="10.160000" rx="0.000000" />
</g>
<g style="fill:none; 
stroke:#840000; stroke-width:0.2540; stroke-opacity:1; 
stroke-linecap:round; stroke-linejoin:round;">
<rect x="5.029200" y="3.546100" width="15.240000" height="10.160000" rx="0.000000" />
</g>
<g style="fill:none; 
stroke:#840000; stroke-width:0.1524; stroke-opacity:1; 
stroke-linecap:round; stroke-linejoin:round;">
<path d="M5.0292 11.1661
L2.4892 11.1661
" />
<path d="M2.1082 10.7851
L2.8702 11.5471
" />
<path d="M2.8702 10.7851
L2.1082 11.5471
" />
</g>
<g style="fill:none; 
stroke:#006464; stroke-width:0.1524; stroke-opacity:1; 
stroke-linecap:round; stroke-linejoin:round;">
<text x="5.5372" y="11.8011"
textLength="2.8037" font-size="1.6933" lengthAdjust="spacingAndGlyphs"
text-anchor="start" opacity="0" stroke-opacity="0">NC</text>
<g class="stroked-text"><desc>NC</desc>
<path d="M5.9397 11.7456
L5.9397 10.4756
" />
<path d="M5.9397 10.4756
L6.6654 11.7456
" />
<path d="M6.6654 11.7456
L6.6654 10.4756
" />
<path d="M7.9959 11.6247
L7.9355 11.6852
" />
<path d="M7.9355 11.6852
L7.7540 11.7456
" />
<path d="M7.7540 11.7456
L7.6331 11.7456
" />
<path d="M7.6331 11.7456
L7.4517 11.6852
" />
<path d="M7.4517 11.6852
L7.3307 11.5642
" />
<path d="M7.3307 11.5642
L7.2702 11.4432
" />
<path d="M7.2702 11.4432
L7.2098 11.2013
" />
<path d="M7.2098 11.2013
L7.2098 11.0199
" />
<path d="M7.2098 11.0199
L7.2702 10.7780
" />
<path d="M7.2702 10.7780
L7.3307 10.6571
" />
<path d="M7.3307 10.6571
L7.4517 10.5361
" />
<path d="M7.4517 10.5361
L7.6331 10.4756
" />
<path d="M7.6331 10.4756
L7.7540 10.4756
" />
<path d="M7.7540 10.4756
L7.9355 10.5361
" />
<path d="M7.9355 10.5361
L7.9959 10.5966
" />
</g></g>
<g style="fill:none; 
stroke:#A90000; stroke-width:0.1524; stroke-opacity:1; 
stroke-linecap:round; stroke-linejoin:round;">
<text x="3.7592" y="10.9121"
textLength="1.4127" font-size="1.6933" lengthAdjust="spacingAndGlyphs"
text-anchor="middle" opacity="0" stroke-opacity="0">1</text>
<g class="stroked-text"><desc>1</desc>
<path d="M4.1221 10.7486
L3.3964 10.7486
" />
<path d="M3.7592 10.7486
L3.7592 9.4786
" />
<path d="M3.7592 9.4786
L3.6383 9.6601
" />
<path d="M3.6383 9.6601
L3.5173 9.7810
" />
<path d="M3.5173 9.7810
L3.3964 9.8415
" />
</g></g>
<g style="fill:none; 
stroke:#840000; stroke-width:0.1524; stroke-opacity:1; 
stroke-linecap:round; stroke-linejoin:round;">
<path d="M5.0292 8.6261
L2.4892 8.6261
" />
</g>
<g style="fill:none; 
stroke:#006464; stroke-width:0.1524; stroke-opacity:1; 
stroke-linecap:round; stroke-linejoin:round;">
<text x="5.5372" y="9.2611"
textLength="2.6827" font-size="1.6933" lengthAdjust="spacingAndGlyphs"
text-anchor="start" opacity="0" stroke-opacity="0">EN</text>
<g class="stroked-text"><desc>EN</desc>
<path d="M5.9397 8.5404
L6.3631 8.5404
" />
<path d="M6.5445 9.2056
L5.9397 9.2056
" />
<path d="M5.9397 9.2056
L5.9397 7.9356
" />
<path d="M5.9397 7.9356
L6.5445 7.9356
" />
<path d="M7.0887 9.2056
L7.0887 7.9356
" />
<path d="M7.0887 7.9356
L7.8144 9.2056
" />
<path d="M7.8144 9.2056
L7.8144 7.9356
" />
</g></g>
<g style="fill:none; 
stroke:#A90000; stroke-width:0.1524; stroke-opacity:1; 
stroke-linecap:round; stroke-linejoin:round;">
<text x="3.7592" y="8.3721"
textLength="1.4127" font-size="1.6933" lengthAdjust="spacingAndGlyphs"
text-anchor="middle" opacity="0" stroke-opacity="0">2</text>
<g class="stroked-text"><desc>2</desc>
<path d="M3.3964 7.0596
L3.4568 6.9991
" />
<path d="M3.4568 6.9991
L3.5778 6.9386
" />
<path d="M3.5778 6.9386
L3.8802 6.9386
" />
<path d="M3.8802 6.9386
L4.0011 6.9991
" />
<path d="M4.0011 6.9991
L4.0616 7.0596
" />
<path d="M4.0616 7.0596
L4.1221 7.1805
" />
<path d="M4.1221 7.1805
L4.1221 7.3015
" />
<path d="M4.1221 7.3015
L4.0616 7.4829
" />
<path d="M4.0616 7.4829
L3.3359 8.2086
" />
<path d="M3.3359 8.2086
L4.1221 8.2086
" />
</g></g>
<g style="fill:none; 
stroke:#840000; stroke-width:0.1524; stroke-opacity:1; 
stroke-linecap:round; stroke-linejoin:round;">
<path d="M5.0292 6.0861
L2.4892 6.0861
" />
</g>
<g style="fill:none; 
stroke:#006464; stroke-width:0.1524; stroke-opacity:1; 
stroke-linecap:round; stroke-linejoin:round;">
<text x="5.5372" y="6.7211"
textLength="3.2271" font-size="1.6933" lengthAdjust="spacingAndGlyphs"
text-anchor="start" opacity="0" stroke-opacity="0">VIN</text>
<g class="stroked-text"><desc>VIN</desc>
<path d="M5.7583 5.3956
L6.1816 6.6656
" />
<path d="M6.1816 6.6656
L6.6050 5.3956
" />
<path d="M7.0283 6.6656
L7.0283 5.3956
" />
<path d="M7.6331 6.6656
L7.6331 5.3956
" />
<path d="M7.6331 5.3956
L8.3588 6.6656
" />
<path d="M8.3588 6.6656
L8.3588 5.3956
" />
</g></g>
<g style="fill:none; 
stroke:#A90000; stroke-width:0.1524; stroke-opacity:1; 
stroke-linecap:round; stroke-linejoin:round;">
<text x="3.7592" y="5.8321"
textLength="1.4127" font-size="1.6933" lengthAdjust="spacingAndGlyphs"
text-anchor="middle" opacity="0" stroke-opacity="0">3</text>
<g class="stroked-text"><desc>3</desc>
<path d="M3.3359 4.3986
L4.1221 4.3986
" />
<path d="M4.1221 4.3986
L3.6987 4.8824
" />
<path d="M3.6987 4.8824
L3.8802 4.8824
" />
<path d="M3.8802 4.8824
L4.0011 4.9429
" />
<path d="M4.0011 4.9429
L4.0616 5.0034
" />
<path d="M4.0616 5.0034
L4.1221 5.1243
" />
<path d="M4.1221 5.1243
L4.1221 5.4267
" />
<path d="M4.1221 5.4267
L4.0616 5.5477
" />
<path d="M4.0616 5.5477
L4.0011 5.6082
" />
<path d="M4.0011 5.6082
L3.8802 5.6686
" />
<path d="M3.8802 5.6686
L3.5173 5.6686
" />
<path d="M3.5173 5.6686
L3.3964 5.6082
" />
<path d="M3.3964 5.6082
L3.3359 5.5477
" />
</g></g>
<g style="fill:none; 
stroke:#840000; stroke-width:0.1524; stroke-opacity:1; 
stroke-linecap:round; stroke-linejoin:round;">
<path d="M20.2692 6.0861
L22.8092 6.0861
" />
</g>
<g style="fill:none; 
stroke:#006464; stroke-width:0.1524; stroke-opacity:1; 
stroke-linecap:round; stroke-linejoin:round;">
<text x="19.7612" y="6.7211"
textLength="2.4408" font-size="1.6933" lengthAdjust="spacingAndGlyphs"
text-anchor="end" opacity="0" stroke-opacity="0">LX</text>
<g class="stroked-text"><desc>LX</desc>
<path d="M18.3305 6.6656
L17.7257 6.6656
" />
<path d="M17.7257 6.6656
L17.7257 5.3956
" />
<path d="M18.6329 5.3956
L19.4795 6.6656
" />
<path d="M19.4795 5.3956
L18.6329 6.6656
" />
</g></g>
<g style="fill:none; 
stroke:#A90000; stroke-width:0.1524; stroke-opacity:1; 
stroke-linecap:round; stroke-linejoin:round;">
<text x="21.5392" y="5.8321"
textLength="1.4127" font-size="1.6933" lengthAdjust="spacingAndGlyphs"
text-anchor="middle" opacity="0" stroke-opacity="0">4</text>
<g class="stroked-text"><desc>4</desc>
<path d="M21.7811 4.8220
L21.7811 5.6686
" />
<path d="M21.4787 4.3382
L21.1764 5.2453
" />
<path d="M21.1764 5.2453
L21.9625 5.2453
" />
</g></g>
<g style="fill:none; 
stroke:#840000; stroke-width:0.1524; stroke-opacity:1; 
stroke-linecap:round; stroke-linejoin:round;">
<path d="M12.6492 13.7061
L12.6492 16.2461
" />
</g>
<g style="fill:none; 
stroke:#006464; stroke-width:0.1524; stroke-opacity:1; 
stroke-linecap:round; stroke-linejoin:round;">
<g transform="rotate(-90.000000 12.6492 13.1981)">
<text x="12.6492" y="13.8331"
textLength="4.0737" font-size="1.6933" lengthAdjust="spacingAndGlyphs"
text-anchor="start" opacity="0" stroke-opacity="0">GND</text>
</g>
<g class="stroked-text"><desc>GND</desc>
<path d="M12.0192 12.1302
L11.9587 12.2512
" />
<path d="M11.9587 12.2512
L11.9587 12.4326
" />
<path d="M11.9587 12.4326
L12.0192 12.6140
" />
<path d="M12.0192 12.6140
L12.1402 12.7350
" />
<path d="M12.1402 12.7350
L12.2611 12.7955
" />
<path d="M12.2611 12.7955
L12.5030 12.8559
" />
<path d="M12.5030 12.8559
L12.6844 12.8559
" />
<path d="M12.6844 12.8559
L12.9263 12.7955
" />
<path d="M12.9263 12.7955
L13.0473 12.7350
" />
<path d="M13.0473 12.7350
L13.1683 12.6140
" />
<path d="M13.1683 12.6140
L13.2287 12.4326
" />
<path d="M13.2287 12.4326
L13.2287 12.3117
" />
<path d="M13.2287 12.3117
L13.1683 12.1302
" />
<path d="M13.1683 12.1302
L13.1078 12.0698
" />
<path d="M13.1078 12.0698
L12.6844 12.0698
" />
<path d="M12.6844 12.0698
L12.6844 12.3117
" />
<path d="M13.2287 11.5255
L11.9587 11.5255
" />
<path d="M11.9587 11.5255
L13.2287 10.7998
" />
<path d="M13.2287 10.7998
L11.9587 10.7998
" />
<path d="M13.2287 10.1950
L11.9587 10.1950
" />
<path d="M11.9587 10.1950
L11.9587 9.8926
" />
<path d="M11.9587 9.8926
L12.0192 9.7112
" />
<path d="M12.0192 9.7112
L12.1402 9.5902
" />
<path d="M12.1402 9.5902
L12.2611 9.5297
" />
<path d="M12.2611 9.5297
L12.5030 9.4693
" />
<path d="M12.5030 9.4693
L12.6844 9.4693
" />
<path d="M12.6844 9.4693
L12.9263 9.5297
" />
<path d="M12.9263 9.5297
L13.0473 9.5902
" />
<path d="M13.0473 9.5902
L13.1683 9.7112
" />
<path d="M13.1683 9.7112
L13.2287 9.8926
" />
<path d="M13.2287 9.8926
L13.2287 10.1950
" />
</g></g>
<g style="fill:none; 
stroke:#A90000; stroke-width:0.1524; stroke-opacity:1; 
stroke-linecap:round; stroke-linejoin:round;">
<g transform="rotate(-90.000000 12.3952 14.9761)">
<text x="12.3952" y="14.9761"
textLength="1.4127" font-size="1.6933" lengthAdjust="spacingAndGlyphs"
text-anchor="middle" opacity="0" stroke-opacity="0">5</text>
</g>
<g class="stroked-text"><desc>5</desc>
<path d="M10.9617 14.6736
L10.9617 15.2784
" />
<path d="M10.9617 15.2784
L11.5665 15.3388
" />
<path d="M11.5665 15.3388
L11.5060 15.2784
" />
<path d="M11.5060 15.2784
L11.4455 15.1574
" />
<path d="M11.4455 15.1574
L11.4455 14.8550
" />
<path d="M11.4455 14.8550
L11.5060 14.7341
" />
<path d="M11.5060 14.7341
L11.5665 14.6736
" />
<path d="M11.5665 14.6736
L11.6874 14.6131
" />
<path d="M11.6874 14.6131
L11.9898 14.6131
" />
<path d="M11.9898 14.6131
L12.1108 14.6736
" />
<path d="M12.1108 14.6736
L12.1713 14.7341
" />
<path d="M12.1713 14.7341
L12.2317 14.8550
" />
<path d="M12.2317 14.8550
L12.2317 15.1574
" />
<path d="M12.2317 15.1574
L12.1713 15.2784
" />
<path d="M12.1713 15.2784
L12.1108 15.3388
" />
</g></g>
<g style="fill:none; 
stroke:#840000; stroke-width:0.1524; stroke-opacity:1; 
stroke-linecap:round; stroke-linejoin:round;">
<path d="M20.2692 8.6261
L22.8092 8.6261
" />
</g>
<g style="fill:none; 
stroke:#006464; stroke-width:0.1524; stroke-opacity:1; 
stroke-linecap:round; stroke-linejoin:round;">
<text x="19.7612" y="9.2611"
textLength="4.9204" font-size="1.6933" lengthAdjust="spacingAndGlyphs"
text-anchor="end" opacity="0" stroke-opacity="0">VOUT</text>
<g class="stroked-text"><desc>VOUT</desc>
<path d="M15.0647 7.9356
L15.4880 9.2056
" />
<path d="M15.4880 9.2056
L15.9114 7.9356
" />
<path d="M16.5766 7.9356
L16.8185 7.9356
" />
<path d="M16.8185 7.9356
L16.9395 7.9961
" />
<path d="M16.9395 7.9961
L17.0604 8.1171
" />
<path d="M17.0604 8.1171
L17.1209 8.3590
" />
<path d="M17.1209 8.3590
L17.1209 8.7823
" />
<path d="M17.1209 8.7823
L17.0604 9.0242
" />
<path d="M17.0604 9.0242
L16.9395 9.1452
" />
<path d="M16.9395 9.1452
L16.8185 9.2056
" />
<path d="M16.8185 9.2056
L16.5766 9.2056
" />
<path d="M16.5766 9.2056
L16.4557 9.1452
" />
<path d="M16.4557 9.1452
L16.3347 9.0242
" />
<path d="M16.3347 9.0242
L16.2743 8.7823
" />
<path d="M16.2743 8.7823
L16.2743 8.3590
" />
<path d="M16.2743 8.3590
L16.3347 8.1171
" />
<path d="M16.3347 8.1171
L16.4557 7.9961
" />
<path d="M16.4557 7.9961
L16.5766 7.9356
" />
<path d="M17.6652 7.9356
L17.6652 8.9637
" />
<path d="M17.6652 8.9637
L17.7257 9.0847
" />
<path d="M17.7257 9.0847
L17.7862 9.1452
" />
<path d="M17.7862 9.1452
L17.9071 9.2056
" />
<path d="M17.9071 9.2056
L18.1490 9.2056
" />
<path d="M18.1490 9.2056
L18.2700 9.1452
" />
<path d="M18.2700 9.1452
L18.3305 9.0847
" />
<path d="M18.3305 9.0847
L18.3909 8.9637
" />
<path d="M18.3909 8.9637
L18.3909 7.9356
" />
<path d="M18.8143 7.9356
L19.5400 7.9356
" />
<path d="M19.1772 9.2056
L19.1772 7.9356
" />
</g></g>
<g style="fill:none; 
stroke:#A90000; stroke-width:0.1524; stroke-opacity:1; 
stroke-linecap:round; stroke-linejoin:round;">
<text x="21.5392" y="8.3721"
textLength="1.4127" font-size="1.6933" lengthAdjust="spacingAndGlyphs"
text-anchor="middle" opacity="0" stroke-opacity="0">6</text>
<g class="stroked-text"><desc>6</desc>
<path d="M21.7811 6.9386
L21.5392 6.9386
" />
<path d="M21.5392 6.9386
L21.4183 6.9991
" />
<path d="M21.4183 6.9991
L21.3578 7.0596
" />
<path d="M21.3578 7.0596
L21.2368 7.2410
" />
<path d="M21.2368 7.2410
L21.1764 7.4829
" />
<path d="M21.1764 7.4829
L21.1764 7.9667
" />
<path d="M21.1764 7.9667
L21.2368 8.0877
" />
<path d="M21.2368 8.0877
L21.2973 8.1482
" />
<path d="M21.2973 8.1482
L21.4183 8.2086
" />
<path d="M21.4183 8.2086
L21.6602 8.2086
" />
<path d="M21.6602 8.2086
L21.7811 8.1482
" />
<path d="M21.7811 8.1482
L21.8416 8.0877
" />
<path d="M21.8416 8.0877
L21.9021 7.9667
" />
<path d="M21.9021 7.9667
L21.9021 7.6643
" />
<path d="M21.9021 7.6643
L21.8416 7.5434
" />
<path d="M21.8416 7.5434
L21.7811 7.4829
" />
<path d="M21.7811 7.4829
L21.6602 7.4224
" />
<path d="M21.6602 7.4224
L21.4183 7.4224
" />
<path d="M21.4183 7.4224
L21.2973 7.4829
" />
<path d="M21.2973 7.4829
L21.2368 7.5434
" />
<path d="M21.2368 7.5434
L21.1764 7.6643
" />
</g></g>
<g style="fill:none; 
stroke:#840000; stroke-width:0.1524; stroke-opacity:1; 
stroke-linecap:round; stroke-linejoin:round;">
<path d="M15.1892 13.7061
L15.1892 16.2461
" />
</g>
<g style="fill:none; 
stroke:#006464; stroke-width:0.1524; stroke-opacity:1; 
stroke-linecap:round; stroke-linejoin:round;">
<g transform="rotate(-90.000000 15.1892 13.1981)">
<text x="15.1892" y="13.8331"
textLength="3.8318" font-size="1.6933" lengthAdjust="spacingAndGlyphs"
text-anchor="start" opacity="0" stroke-opacity="0">PAD</text>
</g>
<g class="stroked-text"><desc>PAD</desc>
<path d="M15.7687 12.7955
L14.4987 12.7955
" />
<path d="M14.4987 12.7955
L14.4987 12.3117
" />
<path d="M14.4987 12.3117
L14.5592 12.1907
" />
<path d="M14.5592 12.1907
L14.6197 12.1302
" />
<path d="M14.6197 12.1302
L14.7406 12.0698
" />
<path d="M14.7406 12.0698
L14.9221 12.0698
" />
<path d="M14.9221 12.0698
L15.0430 12.1302
" />
<path d="M15.0430 12.1302
L15.1035 12.1907
" />
<path d="M15.1035 12.1907
L15.1640 12.3117
" />
<path d="M15.1640 12.3117
L15.1640 12.7955
" />
<path d="M15.4059 11.5859
L15.4059 10.9812
" />
<path d="M15.7687 11.7069
L14.4987 11.2836
" />
<path d="M14.4987 11.2836
L15.7687 10.8602
" />
<path d="M15.7687 10.4369
L14.4987 10.4369
" />
<path d="M14.4987 10.4369
L14.4987 10.1345
" />
<path d="M14.4987 10.1345
L14.5592 9.9531
" />
<path d="M14.5592 9.9531
L14.6802 9.8321
" />
<path d="M14.6802 9.8321
L14.8011 9.7716
" />
<path d="M14.8011 9.7716
L15.0430 9.7112
" />
<path d="M15.0430 9.7112
L15.2244 9.7112
" />
<path d="M15.2244 9.7112
L15.4663 9.7716
" />
<path d="M15.4663 9.7716
L15.5873 9.8321
" />
<path d="M15.5873 9.8321
L15.7083 9.9531
" />
<path d="M15.7083 9.9531
L15.7687 10.1345
" />
<path d="M15.7687 10.1345
L15.7687 10.4369
" />
</g></g>
<g style="fill:none; 
stroke:#A90000; stroke-width:0.1524; stroke-opacity:1; 
stroke-linecap:round; stroke-linejoin:round;">
<g transform="rotate(-90.000000 14.9352 14.9761)">
<text x="14.9352" y="14.9761"
textLength="1.4127" font-size="1.6933" lengthAdjust="spacingAndGlyphs"
text-anchor="middle" opacity="0" stroke-opacity="0">7</text>
</g>
<g class="stroked-text"><desc>7</desc>
<path d="M13.5017 15.3993
L13.5017 14.5527
" />
<path d="M13.5017 14.5527
L14.7717 15.0969
" />
</g></g>
<g style="fill:none; 
stroke:#006464; stroke-width:0.1524; stroke-opacity:1; 
stroke-linecap:round; stroke-linejoin:round;">
<text x="4.7752" y="3.1651"
textLength="2.6223" font-size="1.6933" lengthAdjust="spacingAndGlyphs"
text-anchor="middle" opacity="0" stroke-opacity="0">U?</text>
<g class="stroked-text"><desc>U?</desc>
<path d="M3.8680 1.8396
L3.8680 2.8677
" />
<path d="M3.8680 2.8677
L3.9285 2.9887
" />
<path d="M3.9285 2.9887
L3.9890 3.0492
" />
<path d="M3.9890 3.0492
L4.1099 3.1096
" />
<path d="M4.1099 3.1096
L4.3518 3.1096
" />
<path d="M4.3518 3.1096
L4.4728 3.0492
" />
<path d="M4.4728 3.0492
L4.5333 2.9887
" />
<path d="M4.5333 2.9887
L4.5937 2.8677
" />
<path d="M4.5937 2.8677
L4.5937 1.8396
" />
<path d="M5.3800 2.9887
L5.4404 3.0492
" />
<path d="M5.4404 3.0492
L5.3800 3.1096
" />
<path d="M5.3800 3.1096
L5.3195 3.0492
" />
<path d="M5.3195 3.0492
L5.3800 2.9887
" />
<path d="M5.3800 2.9887
L5.3800 3.1096
" />
<path d="M5.1381 1.9001
L5.2590 1.8396
" />
<path d="M5.2590 1.8396
L5.5614 1.8396
" />
<path d="M5.5614 1.8396
L5.6823 1.9001
" />
<path d="M5.6823 1.9001
L5.7428 2.0211
" />
<path d="M5.7428 2.0211
L5.7428 2.1420
" />
<path d="M5.7428 2.1420
L5.6823 2.2630
" />
<path d="M5.6823 2.2630
L5.6219 2.3234
" />
<path d="M5.6219 2.3234
L5.5009 2.3839
" />
<path d="M5.5009 2.3839
L5.4404 2.4444
" />
<path d="M5.4404 2.4444
L5.3800 2.5653
" />
<path d="M5.3800 2.5653
L5.3800 2.6258
" />
</g><text x="15.6972" y="3.1651"
textLength="13.0845" font-size="1.6933" lengthAdjust="spacingAndGlyphs"
text-anchor="middle" opacity="0" stroke-opacity="0">SC189ZULTRT</text>
<g class="stroked-text"><desc>SC189ZULTRT</desc>
<path d="M9.4985 3.0492
L9.6799 3.1096
" />
<path d="M9.6799 3.1096
L9.9823 3.1096
" />
<path d="M9.9823 3.1096
L10.1032 3.0492
" />
<path d="M10.1032 3.0492
L10.1637 2.9887
" />
<path d="M10.1637 2.9887
L10.2242 2.8677
" />
<path d="M10.2242 2.8677
L10.2242 2.7468
" />
<path d="M10.2242 2.7468
L10.1637 2.6258
" />
<path d="M10.1637 2.6258
L10.1032 2.5653
" />
<path d="M10.1032 2.5653
L9.9823 2.5049
" />
<path d="M9.9823 2.5049
L9.7404 2.4444
" />
<path d="M9.7404 2.4444
L9.6194 2.3839
" />
<path d="M9.6194 2.3839
L9.5589 2.3234
" />
<path d="M9.5589 2.3234
L9.4985 2.2025
" />
<path d="M9.4985 2.2025
L9.4985 2.0815
" />
<path d="M9.4985 2.0815
L9.5589 1.9606
" />
<path d="M9.5589 1.9606
L9.6194 1.9001
" />
<path d="M9.6194 1.9001
L9.7404 1.8396
" />
<path d="M9.7404 1.8396
L10.0427 1.8396
" />
<path d="M10.0427 1.8396
L10.2242 1.9001
" />
<path d="M11.4941 2.9887
L11.4337 3.0492
" />
<path d="M11.4337 3.0492
L11.2522 3.1096
" />
<path d="M11.2522 3.1096
L11.1313 3.1096
" />
<path d="M11.1313 3.1096
L10.9499 3.0492
" />
<path d="M10.9499 3.0492
L10.8289 2.9282
" />
<path d="M10.8289 2.9282
L10.7684 2.8072
" />
<path d="M10.7684 2.8072
L10.7080 2.5653
" />
<path d="M10.7080 2.5653
L10.7080 2.3839
" />
<path d="M10.7080 2.3839
L10.7684 2.1420
" />
<path d="M10.7684 2.1420
L10.8289 2.0211
" />
<path d="M10.8289 2.0211
L10.9499 1.9001
" />
<path d="M10.9499 1.9001
L11.1313 1.8396
" />
<path d="M11.1313 1.8396
L11.2522 1.8396
" />
<path d="M11.2522 1.8396
L11.4337 1.9001
" />
<path d="M11.4337 1.9001
L11.4941 1.9606
" />
<path d="M12.7037 3.1096
L11.9780 3.1096
" />
<path d="M12.3408 3.1096
L12.3408 1.8396
" />
<path d="M12.3408 1.8396
L12.2199 2.0211
" />
<path d="M12.2199 2.0211
L12.0989 2.1420
" />
<path d="M12.0989 2.1420
L11.9780 2.2025
" />
<path d="M13.4294 2.3839
L13.3084 2.3234
" />
<path d="M13.3084 2.3234
L13.2479 2.2630
" />
<path d="M13.2479 2.2630
L13.1875 2.1420
" />
<path d="M13.1875 2.1420
L13.1875 2.0815
" />
<path d="M13.1875 2.0815
L13.2479 1.9606
" />
<path d="M13.2479 1.9606
L13.3084 1.9001
" />
<path d="M13.3084 1.9001
L13.4294 1.8396
" />
<path d="M13.4294 1.8396
L13.6713 1.8396
" />
<path d="M13.6713 1.8396
L13.7922 1.9001
" />
<path d="M13.7922 1.9001
L13.8527 1.9606
" />
<path d="M13.8527 1.9606
L13.9132 2.0815
" />
<path d="M13.9132 2.0815
L13.9132 2.1420
" />
<path d="M13.9132 2.1420
L13.8527 2.2630
" />
<path d="M13.8527 2.2630
L13.7922 2.3234
" />
<path d="M13.7922 2.3234
L13.6713 2.3839
" />
<path d="M13.6713 2.3839
L13.4294 2.3839
" />
<path d="M13.4294 2.3839
L13.3084 2.4444
" />
<path d="M13.3084 2.4444
L13.2479 2.5049
" />
<path d="M13.2479 2.5049
L13.1875 2.6258
" />
<path d="M13.1875 2.6258
L13.1875 2.8677
" />
<path d="M13.1875 2.8677
L13.2479 2.9887
" />
<path d="M13.2479 2.9887
L13.3084 3.0492
" />
<path d="M13.3084 3.0492
L13.4294 3.1096
" />
<path d="M13.4294 3.1096
L13.6713 3.1096
" />
<path d="M13.6713 3.1096
L13.7922 3.0492
" />
<path d="M13.7922 3.0492
L13.8527 2.9887
" />
<path d="M13.8527 2.9887
L13.9132 2.8677
" />
<path d="M13.9132 2.8677
L13.9132 2.6258
" />
<path d="M13.9132 2.6258
L13.8527 2.5049
" />
<path d="M13.8527 2.5049
L13.7922 2.4444
" />
<path d="M13.7922 2.4444
L13.6713 2.3839
" />
<path d="M14.5179 3.1096
L14.7598 3.1096
" />
<path d="M14.7598 3.1096
L14.8808 3.0492
" />
<path d="M14.8808 3.0492
L14.9412 2.9887
" />
<path d="M14.9412 2.9887
L15.0622 2.8072
" />
<path d="M15.0622 2.8072
L15.1227 2.5653
" />
<path d="M15.1227 2.5653
L15.1227 2.0815
" />
<path d="M15.1227 2.0815
L15.0622 1.9606
" />
<path d="M15.0622 1.9606
L15.0017 1.9001
" />
<path d="M15.0017 1.9001
L14.8808 1.8396
" />
<path d="M14.8808 1.8396
L14.6389 1.8396
" />
<path d="M14.6389 1.8396
L14.5179 1.9001
" />
<path d="M14.5179 1.9001
L14.4574 1.9606
" />
<path d="M14.4574 1.9606
L14.3970 2.0815
" />
<path d="M14.3970 2.0815
L14.3970 2.3839
" />
<path d="M14.3970 2.3839
L14.4574 2.5049
" />
<path d="M14.4574 2.5049
L14.5179 2.5653
" />
<path d="M14.5179 2.5653
L14.6389 2.6258
" />
<path d="M14.6389 2.6258
L14.8808 2.6258
" />
<path d="M14.8808 2.6258
L15.0017 2.5653
" />
<path d="M15.0017 2.5653
L15.0622 2.5049
" />
<path d="M15.0622 2.5049
L15.1227 2.3839
" />
<path d="M15.5460 1.8396
L16.3926 1.8396
" />
<path d="M16.3926 1.8396
L15.5460 3.1096
" />
<path d="M15.5460 3.1096
L16.3926 3.1096
" />
<path d="M16.8764 1.8396
L16.8764 2.8677
" />
<path d="M16.8764 2.8677
L16.9369 2.9887
" />
<path d="M16.9369 2.9887
L16.9974 3.0492
" />
<path d="M16.9974 3.0492
L17.1183 3.1096
" />
<path d="M17.1183 3.1096
L17.3602 3.1096
" />
<path d="M17.3602 3.1096
L17.4812 3.0492
" />
<path d="M17.4812 3.0492
L17.5417 2.9887
" />
<path d="M17.5417 2.9887
L17.6021 2.8677
" />
<path d="M17.6021 2.8677
L17.6021 1.8396
" />
<path d="M18.8117 3.1096
L18.2069 3.1096
" />
<path d="M18.2069 3.1096
L18.2069 1.8396
" />
<path d="M19.0536 1.8396
L19.7793 1.8396
" />
<path d="M19.4165 3.1096
L19.4165 1.8396
" />
<path d="M20.9283 3.1096
L20.5050 2.5049
" />
<path d="M20.2026 3.1096
L20.2026 1.8396
" />
<path d="M20.2026 1.8396
L20.6864 1.8396
" />
<path d="M20.6864 1.8396
L20.8074 1.9001
" />
<path d="M20.8074 1.9001
L20.8679 1.9606
" />
<path d="M20.8679 1.9606
L20.9283 2.0815
" />
<path d="M20.9283 2.0815
L20.9283 2.2630
" />
<path d="M20.9283 2.2630
L20.8679 2.3839
" />
<path d="M20.8679 2.3839
L20.8074 2.4444
" />
<path d="M20.8074 2.4444
L20.6864 2.5049
" />
<path d="M20.6864 2.5049
L20.2026 2.5049
" />
<path d="M21.2912 1.8396
L22.0169 1.8396
" />
<path d="M21.6541 3.1096
L21.6541 1.8396
" />
</g></g> 
</svg>
