<?xml version="1.0" standalone="no"?>
 <!DOCTYPE svg PUBLIC "-//W3C//DTD SVG 1.1//EN" 
 "http://www.w3.org/Graphics/SVG/1.1/DTD/svg11.dtd"> 
<svg
  xmlns:svg="http://www.w3.org/2000/svg"
  xmlns="http://www.w3.org/2000/svg"
  xmlns:xlink="http://www.w3.org/1999/xlink"
  xmlns:inkscape="http://www.inkscape.org/namespaces/inkscape"
  version="1.1"
  width="100%" height="100%" viewBox="0.0000 0.0000 33.4264 76.0476">
<title>SVG Image created as 54548-2272_unit1.svg date 2026-09-04T02:20:30 </title>
  <desc>Image generated by Eeschema-SVG </desc>
<g style="fill:#000000; fill-opacity:1.0000;stroke:#000000; stroke-opacity:1.0000;
stroke-linecap:round; stroke-linejoin:round;"
 transform="translate(0 0) scale(1 1)">
</g>
<g style="fill:#FFFFC2; fill-opacity:1.0000; stroke:none;">
<rect x="6.131100" y="9.896100" width="21.590000" height="59.690000" rx="0.000000" />
</g>
<g style="fill:none; 
stroke:#840000; stroke-width:0.2540; stroke-opacity:1; 
stroke-linecap:round; stroke-linejoin:round;">
<rect x="6.131100" y="9.896100" width="21.590000" height="59.690000" rx="0.000000" />
</g>
<g style="fill:none; 
stroke:#840000; stroke-width:0.1524; stroke-opacity:1; 
stroke-linecap:round; stroke-linejoin:round;">
<path d="M27.7211 13.7061
L30.2611 13.7061
" />
</g>
<g style="fill:none; 
stroke:#006464; stroke-width:0.1524; stroke-opacity:1; 
stroke-linecap:round; stroke-linejoin:round;">
<text x="27.2131" y="14.3411"
textLength="1.4127" font-size="1.6933" lengthAdjust="spacingAndGlyphs"
text-anchor="end" opacity="0" stroke-opacity="0">1</text>
<g class="stroked-text"><desc>1</desc>
<path d="M26.8710 14.2856
L26.1453 14.2856
" />
<path d="M26.5081 14.2856
L26.5081 13.0156
" />
<path d="M26.5081 13.0156
L26.3872 13.1971
" />
<path d="M26.3872 13.1971
L26.2662 13.3180
" />
<path d="M26.2662 13.3180
L26.1453 13.3785
" />
</g></g>
<g style="fill:none; 
stroke:#A90000; stroke-width:0.1524; stroke-opacity:1; 
stroke-linecap:round; stroke-linejoin:round;">
<text x="28.9911" y="13.3505"
textLength="1.4127" font-size="1.6933" lengthAdjust="spacingAndGlyphs"
text-anchor="middle" opacity="0" stroke-opacity="0">1</text>
<g class="stroked-text"><desc>1</desc>
<path d="M29.3540 13.1870
L28.6283 13.1870
" />
<path d="M28.9911 13.1870
L28.9911 11.9170
" />
<path d="M28.9911 11.9170
L28.8702 12.0985
" />
<path d="M28.8702 12.0985
L28.7492 12.2194
" />
<path d="M28.7492 12.2194
L28.6283 12.2799
" />
</g></g>
<g style="fill:none; 
stroke:#840000; stroke-width:0.1524; stroke-opacity:1; 
stroke-linecap:round; stroke-linejoin:round;">
<path d="M27.7211 16.2461
L30.2611 16.2461
" />
</g>
<g style="fill:none; 
stroke:#006464; stroke-width:0.1524; stroke-opacity:1; 
stroke-linecap:round; stroke-linejoin:round;">
<text x="27.2131" y="16.8811"
textLength="1.4127" font-size="1.6933" lengthAdjust="spacingAndGlyphs"
text-anchor="end" opacity="0" stroke-opacity="0">2</text>
<g class="stroked-text"><desc>2</desc>
<path d="M26.1453 15.6766
L26.2057 15.6161
" />
<path d="M26.2057 15.6161
L26.3267 15.5556
" />
<path d="M26.3267 15.5556
L26.6291 15.5556
" />
<path d="M26.6291 15.5556
L26.7500 15.6161
" />
<path d="M26.7500 15.6161
L26.8105 15.6766
" />
<path d="M26.8105 15.6766
L26.8710 15.7975
" />
<path d="M26.8710 15.7975
L26.8710 15.9185
" />
<path d="M26.8710 15.9185
L26.8105 16.0999
" />
<path d="M26.8105 16.0999
L26.0848 16.8256
" />
<path d="M26.0848 16.8256
L26.8710 16.8256
" />
</g></g>
<g style="fill:none; 
stroke:#A90000; stroke-width:0.1524; stroke-opacity:1; 
stroke-linecap:round; stroke-linejoin:round;">
<text x="28.9911" y="15.8905"
textLength="1.4127" font-size="1.6933" lengthAdjust="spacingAndGlyphs"
text-anchor="middle" opacity="0" stroke-opacity="0">2</text>
<g class="stroked-text"><desc>2</desc>
<path d="M28.6283 14.5780
L28.6887 14.5175
" />
<path d="M28.6887 14.5175
L28.8097 14.4570
" />
<path d="M28.8097 14.4570
L29.1121 14.4570
" />
<path d="M29.1121 14.4570
L29.2330 14.5175
" />
<path d="M29.2330 14.5175
L29.2935 14.5780
" />
<path d="M29.2935 14.5780
L29.3540 14.6989
" />
<path d="M29.3540 14.6989
L29.3540 14.8199
" />
<path d="M29.3540 14.8199
L29.2935 15.0013
" />
<path d="M29.2935 15.0013
L28.5678 15.7270
" />
<path d="M28.5678 15.7270
L29.3540 15.7270
" />
</g></g>
<g style="fill:none; 
stroke:#840000; stroke-width:0.1524; stroke-opacity:1; 
stroke-linecap:round; stroke-linejoin:round;">
<path d="M27.7211 18.7861
L30.2611 18.7861
" />
</g>
<g style="fill:none; 
stroke:#006464; stroke-width:0.1524; stroke-opacity:1; 
stroke-linecap:round; stroke-linejoin:round;">
<text x="27.2131" y="19.4211"
textLength="1.4127" font-size="1.6933" lengthAdjust="spacingAndGlyphs"
text-anchor="end" opacity="0" stroke-opacity="0">3</text>
<g class="stroked-text"><desc>3</desc>
<path d="M26.0848 18.0956
L26.8710 18.0956
" />
<path d="M26.8710 18.0956
L26.4476 18.5794
" />
<path d="M26.4476 18.5794
L26.6291 18.5794
" />
<path d="M26.6291 18.5794
L26.7500 18.6399
" />
<path d="M26.7500 18.6399
L26.8105 18.7004
" />
<path d="M26.8105 18.7004
L26.8710 18.8213
" />
<path d="M26.8710 18.8213
L26.8710 19.1237
" />
<path d="M26.8710 19.1237
L26.8105 19.2447
" />
<path d="M26.8105 19.2447
L26.7500 19.3052
" />
<path d="M26.7500 19.3052
L26.6291 19.3656
" />
<path d="M26.6291 19.3656
L26.2662 19.3656
" />
<path d="M26.2662 19.3656
L26.1453 19.3052
" />
<path d="M26.1453 19.3052
L26.0848 19.2447
" />
</g></g>
<g style="fill:none; 
stroke:#A90000; stroke-width:0.1524; stroke-opacity:1; 
stroke-linecap:round; stroke-linejoin:round;">
<text x="28.9911" y="18.4305"
textLength="1.4127" font-size="1.6933" lengthAdjust="spacingAndGlyphs"
text-anchor="middle" opacity="0" stroke-opacity="0">3</text>
<g class="stroked-text"><desc>3</desc>
<path d="M28.5678 16.9970
L29.3540 16.9970
" />
<path d="M29.3540 16.9970
L28.9306 17.4808
" />
<path d="M28.9306 17.4808
L29.1121 17.4808
" />
<path d="M29.1121 17.4808
L29.2330 17.5413
" />
<path d="M29.2330 17.5413
L29.2935 17.6018
" />
<path d="M29.2935 17.6018
L29.3540 17.7227
" />
<path d="M29.3540 17.7227
L29.3540 18.0251
" />
<path d="M29.3540 18.0251
L29.2935 18.1461
" />
<path d="M29.2935 18.1461
L29.2330 18.2066
" />
<path d="M29.2330 18.2066
L29.1121 18.2670
" />
<path d="M29.1121 18.2670
L28.7492 18.2670
" />
<path d="M28.7492 18.2670
L28.6283 18.2066
" />
<path d="M28.6283 18.2066
L28.5678 18.1461
" />
</g></g>
<g style="fill:none; 
stroke:#840000; stroke-width:0.1524; stroke-opacity:1; 
stroke-linecap:round; stroke-linejoin:round;">
<path d="M27.7211 21.3261
L30.2611 21.3261
" />
</g>
<g style="fill:none; 
stroke:#006464; stroke-width:0.1524; stroke-opacity:1; 
stroke-linecap:round; stroke-linejoin:round;">
<text x="27.2131" y="21.9611"
textLength="1.4127" font-size="1.6933" lengthAdjust="spacingAndGlyphs"
text-anchor="end" opacity="0" stroke-opacity="0">4</text>
<g class="stroked-text"><desc>4</desc>
<path d="M26.7500 21.0590
L26.7500 21.9056
" />
<path d="M26.4476 20.5752
L26.1453 21.4823
" />
<path d="M26.1453 21.4823
L26.9314 21.4823
" />
</g></g>
<g style="fill:none; 
stroke:#A90000; stroke-width:0.1524; stroke-opacity:1; 
stroke-linecap:round; stroke-linejoin:round;">
<text x="28.9911" y="20.9705"
textLength="1.4127" font-size="1.6933" lengthAdjust="spacingAndGlyphs"
text-anchor="middle" opacity="0" stroke-opacity="0">4</text>
<g class="stroked-text"><desc>4</desc>
<path d="M29.2330 19.9604
L29.2330 20.8070
" />
<path d="M28.9306 19.4766
L28.6283 20.3837
" />
<path d="M28.6283 20.3837
L29.4144 20.3837
" />
</g></g>
<g style="fill:none; 
stroke:#840000; stroke-width:0.1524; stroke-opacity:1; 
stroke-linecap:round; stroke-linejoin:round;">
<path d="M27.7211 23.8661
L30.2611 23.8661
" />
</g>
<g style="fill:none; 
stroke:#006464; stroke-width:0.1524; stroke-opacity:1; 
stroke-linecap:round; stroke-linejoin:round;">
<text x="27.2131" y="24.5011"
textLength="1.4127" font-size="1.6933" lengthAdjust="spacingAndGlyphs"
text-anchor="end" opacity="0" stroke-opacity="0">5</text>
<g class="stroked-text"><desc>5</desc>
<path d="M26.8105 23.1756
L26.2057 23.1756
" />
<path d="M26.2057 23.1756
L26.1453 23.7804
" />
<path d="M26.1453 23.7804
L26.2057 23.7199
" />
<path d="M26.2057 23.7199
L26.3267 23.6594
" />
<path d="M26.3267 23.6594
L26.6291 23.6594
" />
<path d="M26.6291 23.6594
L26.7500 23.7199
" />
<path d="M26.7500 23.7199
L26.8105 23.7804
" />
<path d="M26.8105 23.7804
L26.8710 23.9013
" />
<path d="M26.8710 23.9013
L26.8710 24.2037
" />
<path d="M26.8710 24.2037
L26.8105 24.3247
" />
<path d="M26.8105 24.3247
L26.7500 24.3852
" />
<path d="M26.7500 24.3852
L26.6291 24.4456
" />
<path d="M26.6291 24.4456
L26.3267 24.4456
" />
<path d="M26.3267 24.4456
L26.2057 24.3852
" />
<path d="M26.2057 24.3852
L26.1453 24.3247
" />
</g></g>
<g style="fill:none; 
stroke:#A90000; stroke-width:0.1524; stroke-opacity:1; 
stroke-linecap:round; stroke-linejoin:round;">
<text x="28.9911" y="23.5105"
textLength="1.4127" font-size="1.6933" lengthAdjust="spacingAndGlyphs"
text-anchor="middle" opacity="0" stroke-opacity="0">5</text>
<g class="stroked-text"><desc>5</desc>
<path d="M29.2935 22.0770
L28.6887 22.0770
" />
<path d="M28.6887 22.0770
L28.6283 22.6818
" />
<path d="M28.6283 22.6818
L28.6887 22.6213
" />
<path d="M28.6887 22.6213
L28.8097 22.5608
" />
<path d="M28.8097 22.5608
L29.1121 22.5608
" />
<path d="M29.1121 22.5608
L29.2330 22.6213
" />
<path d="M29.2330 22.6213
L29.2935 22.6818
" />
<path d="M29.2935 22.6818
L29.3540 22.8027
" />
<path d="M29.3540 22.8027
L29.3540 23.1051
" />
<path d="M29.3540 23.1051
L29.2935 23.2261
" />
<path d="M29.2935 23.2261
L29.2330 23.2866
" />
<path d="M29.2330 23.2866
L29.1121 23.3470
" />
<path d="M29.1121 23.3470
L28.8097 23.3470
" />
<path d="M28.8097 23.3470
L28.6887 23.2866
" />
<path d="M28.6887 23.2866
L28.6283 23.2261
" />
</g></g>
<g style="fill:none; 
stroke:#840000; stroke-width:0.1524; stroke-opacity:1; 
stroke-linecap:round; stroke-linejoin:round;">
<path d="M27.7211 26.4061
L30.2611 26.4061
" />
</g>
<g style="fill:none; 
stroke:#006464; stroke-width:0.1524; stroke-opacity:1; 
stroke-linecap:round; stroke-linejoin:round;">
<text x="27.2131" y="27.0411"
textLength="1.4127" font-size="1.6933" lengthAdjust="spacingAndGlyphs"
text-anchor="end" opacity="0" stroke-opacity="0">6</text>
<g class="stroked-text"><desc>6</desc>
<path d="M26.7500 25.7156
L26.5081 25.7156
" />
<path d="M26.5081 25.7156
L26.3872 25.7761
" />
<path d="M26.3872 25.7761
L26.3267 25.8366
" />
<path d="M26.3267 25.8366
L26.2057 26.0180
" />
<path d="M26.2057 26.0180
L26.1453 26.2599
" />
<path d="M26.1453 26.2599
L26.1453 26.7437
" />
<path d="M26.1453 26.7437
L26.2057 26.8647
" />
<path d="M26.2057 26.8647
L26.2662 26.9252
" />
<path d="M26.2662 26.9252
L26.3872 26.9856
" />
<path d="M26.3872 26.9856
L26.6291 26.9856
" />
<path d="M26.6291 26.9856
L26.7500 26.9252
" />
<path d="M26.7500 26.9252
L26.8105 26.8647
" />
<path d="M26.8105 26.8647
L26.8710 26.7437
" />
<path d="M26.8710 26.7437
L26.8710 26.4413
" />
<path d="M26.8710 26.4413
L26.8105 26.3204
" />
<path d="M26.8105 26.3204
L26.7500 26.2599
" />
<path d="M26.7500 26.2599
L26.6291 26.1994
" />
<path d="M26.6291 26.1994
L26.3872 26.1994
" />
<path d="M26.3872 26.1994
L26.2662 26.2599
" />
<path d="M26.2662 26.2599
L26.2057 26.3204
" />
<path d="M26.2057 26.3204
L26.1453 26.4413
" />
</g></g>
<g style="fill:none; 
stroke:#A90000; stroke-width:0.1524; stroke-opacity:1; 
stroke-linecap:round; stroke-linejoin:round;">
<text x="28.9911" y="26.0505"
textLength="1.4127" font-size="1.6933" lengthAdjust="spacingAndGlyphs"
text-anchor="middle" opacity="0" stroke-opacity="0">6</text>
<g class="stroked-text"><desc>6</desc>
<path d="M29.2330 24.6170
L28.9911 24.6170
" />
<path d="M28.9911 24.6170
L28.8702 24.6775
" />
<path d="M28.8702 24.6775
L28.8097 24.7380
" />
<path d="M28.8097 24.7380
L28.6887 24.9194
" />
<path d="M28.6887 24.9194
L28.6283 25.1613
" />
<path d="M28.6283 25.1613
L28.6283 25.6451
" />
<path d="M28.6283 25.6451
L28.6887 25.7661
" />
<path d="M28.6887 25.7661
L28.7492 25.8266
" />
<path d="M28.7492 25.8266
L28.8702 25.8870
" />
<path d="M28.8702 25.8870
L29.1121 25.8870
" />
<path d="M29.1121 25.8870
L29.2330 25.8266
" />
<path d="M29.2330 25.8266
L29.2935 25.7661
" />
<path d="M29.2935 25.7661
L29.3540 25.6451
" />
<path d="M29.3540 25.6451
L29.3540 25.3427
" />
<path d="M29.3540 25.3427
L29.2935 25.2218
" />
<path d="M29.2935 25.2218
L29.2330 25.1613
" />
<path d="M29.2330 25.1613
L29.1121 25.1008
" />
<path d="M29.1121 25.1008
L28.8702 25.1008
" />
<path d="M28.8702 25.1008
L28.7492 25.1613
" />
<path d="M28.7492 25.1613
L28.6887 25.2218
" />
<path d="M28.6887 25.2218
L28.6283 25.3427
" />
</g></g>
<g style="fill:none; 
stroke:#840000; stroke-width:0.1524; stroke-opacity:1; 
stroke-linecap:round; stroke-linejoin:round;">
<path d="M27.7211 28.9461
L30.2611 28.9461
" />
</g>
<g style="fill:none; 
stroke:#006464; stroke-width:0.1524; stroke-opacity:1; 
stroke-linecap:round; stroke-linejoin:round;">
<text x="27.2131" y="29.5811"
textLength="1.4127" font-size="1.6933" lengthAdjust="spacingAndGlyphs"
text-anchor="end" opacity="0" stroke-opacity="0">7</text>
<g class="stroked-text"><desc>7</desc>
<path d="M26.0848 28.2556
L26.9314 28.2556
" />
<path d="M26.9314 28.2556
L26.3872 29.5256
" />
</g></g>
<g style="fill:none; 
stroke:#A90000; stroke-width:0.1524; stroke-opacity:1; 
stroke-linecap:round; stroke-linejoin:round;">
<text x="28.9911" y="28.5905"
textLength="1.4127" font-size="1.6933" lengthAdjust="spacingAndGlyphs"
text-anchor="middle" opacity="0" stroke-opacity="0">7</text>
<g class="stroked-text"><desc>7</desc>
<path d="M28.5678 27.1570
L29.4144 27.1570
" />
<path d="M29.4144 27.1570
L28.8702 28.4270
" />
</g></g>
<g style="fill:none; 
stroke:#840000; stroke-width:0.1524; stroke-opacity:1; 
stroke-linecap:round; stroke-linejoin:round;">
<path d="M27.7211 31.4861
L30.2611 31.4861
" />
</g>
<g style="fill:none; 
stroke:#006464; stroke-width:0.1524; stroke-opacity:1; 
stroke-linecap:round; stroke-linejoin:round;">
<text x="27.2131" y="32.1211"
textLength="1.4127" font-size="1.6933" lengthAdjust="spacingAndGlyphs"
text-anchor="end" opacity="0" stroke-opacity="0">8</text>
<g class="stroked-text"><desc>8</desc>
<path d="M26.3872 31.3399
L26.2662 31.2794
" />
<path d="M26.2662 31.2794
L26.2057 31.2190
" />
<path d="M26.2057 31.2190
L26.1453 31.0980
" />
<path d="M26.1453 31.0980
L26.1453 31.0375
" />
<path d="M26.1453 31.0375
L26.2057 30.9166
" />
<path d="M26.2057 30.9166
L26.2662 30.8561
" />
<path d="M26.2662 30.8561
L26.3872 30.7956
" />
<path d="M26.3872 30.7956
L26.6291 30.7956
" />
<path d="M26.6291 30.7956
L26.7500 30.8561
" />
<path d="M26.7500 30.8561
L26.8105 30.9166
" />
<path d="M26.8105 30.9166
L26.8710 31.0375
" />
<path d="M26.8710 31.0375
L26.8710 31.0980
" />
<path d="M26.8710 31.0980
L26.8105 31.2190
" />
<path d="M26.8105 31.2190
L26.7500 31.2794
" />
<path d="M26.7500 31.2794
L26.6291 31.3399
" />
<path d="M26.6291 31.3399
L26.3872 31.3399
" />
<path d="M26.3872 31.3399
L26.2662 31.4004
" />
<path d="M26.2662 31.4004
L26.2057 31.4609
" />
<path d="M26.2057 31.4609
L26.1453 31.5818
" />
<path d="M26.1453 31.5818
L26.1453 31.8237
" />
<path d="M26.1453 31.8237
L26.2057 31.9447
" />
<path d="M26.2057 31.9447
L26.2662 32.0052
" />
<path d="M26.2662 32.0052
L26.3872 32.0656
" />
<path d="M26.3872 32.0656
L26.6291 32.0656
" />
<path d="M26.6291 32.0656
L26.7500 32.0052
" />
<path d="M26.7500 32.0052
L26.8105 31.9447
" />
<path d="M26.8105 31.9447
L26.8710 31.8237
" />
<path d="M26.8710 31.8237
L26.8710 31.5818
" />
<path d="M26.8710 31.5818
L26.8105 31.4609
" />
<path d="M26.8105 31.4609
L26.7500 31.4004
" />
<path d="M26.7500 31.4004
L26.6291 31.3399
" />
</g></g>
<g style="fill:none; 
stroke:#A90000; stroke-width:0.1524; stroke-opacity:1; 
stroke-linecap:round; stroke-linejoin:round;">
<text x="28.9911" y="31.1305"
textLength="1.4127" font-size="1.6933" lengthAdjust="spacingAndGlyphs"
text-anchor="middle" opacity="0" stroke-opacity="0">8</text>
<g class="stroked-text"><desc>8</desc>
<path d="M28.8702 30.2413
L28.7492 30.1808
" />
<path d="M28.7492 30.1808
L28.6887 30.1204
" />
<path d="M28.6887 30.1204
L28.6283 29.9994
" />
<path d="M28.6283 29.9994
L28.6283 29.9389
" />
<path d="M28.6283 29.9389
L28.6887 29.8180
" />
<path d="M28.6887 29.8180
L28.7492 29.7575
" />
<path d="M28.7492 29.7575
L28.8702 29.6970
" />
<path d="M28.8702 29.6970
L29.1121 29.6970
" />
<path d="M29.1121 29.6970
L29.2330 29.7575
" />
<path d="M29.2330 29.7575
L29.2935 29.8180
" />
<path d="M29.2935 29.8180
L29.3540 29.9389
" />
<path d="M29.3540 29.9389
L29.3540 29.9994
" />
<path d="M29.3540 29.9994
L29.2935 30.1204
" />
<path d="M29.2935 30.1204
L29.2330 30.1808
" />
<path d="M29.2330 30.1808
L29.1121 30.2413
" />
<path d="M29.1121 30.2413
L28.8702 30.2413
" />
<path d="M28.8702 30.2413
L28.7492 30.3018
" />
<path d="M28.7492 30.3018
L28.6887 30.3623
" />
<path d="M28.6887 30.3623
L28.6283 30.4832
" />
<path d="M28.6283 30.4832
L28.6283 30.7251
" />
<path d="M28.6283 30.7251
L28.6887 30.8461
" />
<path d="M28.6887 30.8461
L28.7492 30.9066
" />
<path d="M28.7492 30.9066
L28.8702 30.9670
" />
<path d="M28.8702 30.9670
L29.1121 30.9670
" />
<path d="M29.1121 30.9670
L29.2330 30.9066
" />
<path d="M29.2330 30.9066
L29.2935 30.8461
" />
<path d="M29.2935 30.8461
L29.3540 30.7251
" />
<path d="M29.3540 30.7251
L29.3540 30.4832
" />
<path d="M29.3540 30.4832
L29.2935 30.3623
" />
<path d="M29.2935 30.3623
L29.2330 30.3018
" />
<path d="M29.2330 30.3018
L29.1121 30.2413
" />
</g></g>
<g style="fill:none; 
stroke:#840000; stroke-width:0.1524; stroke-opacity:1; 
stroke-linecap:round; stroke-linejoin:round;">
<path d="M27.7211 34.0261
L30.2611 34.0261
" />
</g>
<g style="fill:none; 
stroke:#006464; stroke-width:0.1524; stroke-opacity:1; 
stroke-linecap:round; stroke-linejoin:round;">
<text x="27.2131" y="34.6611"
textLength="1.4127" font-size="1.6933" lengthAdjust="spacingAndGlyphs"
text-anchor="end" opacity="0" stroke-opacity="0">9</text>
<g class="stroked-text"><desc>9</desc>
<path d="M26.2662 34.6056
L26.5081 34.6056
" />
<path d="M26.5081 34.6056
L26.6291 34.5452
" />
<path d="M26.6291 34.5452
L26.6895 34.4847
" />
<path d="M26.6895 34.4847
L26.8105 34.3032
" />
<path d="M26.8105 34.3032
L26.8710 34.0613
" />
<path d="M26.8710 34.0613
L26.8710 33.5775
" />
<path d="M26.8710 33.5775
L26.8105 33.4566
" />
<path d="M26.8105 33.4566
L26.7500 33.3961
" />
<path d="M26.7500 33.3961
L26.6291 33.3356
" />
<path d="M26.6291 33.3356
L26.3872 33.3356
" />
<path d="M26.3872 33.3356
L26.2662 33.3961
" />
<path d="M26.2662 33.3961
L26.2057 33.4566
" />
<path d="M26.2057 33.4566
L26.1453 33.5775
" />
<path d="M26.1453 33.5775
L26.1453 33.8799
" />
<path d="M26.1453 33.8799
L26.2057 34.0009
" />
<path d="M26.2057 34.0009
L26.2662 34.0613
" />
<path d="M26.2662 34.0613
L26.3872 34.1218
" />
<path d="M26.3872 34.1218
L26.6291 34.1218
" />
<path d="M26.6291 34.1218
L26.7500 34.0613
" />
<path d="M26.7500 34.0613
L26.8105 34.0009
" />
<path d="M26.8105 34.0009
L26.8710 33.8799
" />
</g></g>
<g style="fill:none; 
stroke:#A90000; stroke-width:0.1524; stroke-opacity:1; 
stroke-linecap:round; stroke-linejoin:round;">
<text x="28.9911" y="33.6705"
textLength="1.4127" font-size="1.6933" lengthAdjust="spacingAndGlyphs"
text-anchor="middle" opacity="0" stroke-opacity="0">9</text>
<g class="stroked-text"><desc>9</desc>
<path d="M28.7492 33.5070
L28.9911 33.5070
" />
<path d="M28.9911 33.5070
L29.1121 33.4466
" />
<path d="M29.1121 33.4466
L29.1725 33.3861
" />
<path d="M29.1725 33.3861
L29.2935 33.2046
" />
<path d="M29.2935 33.2046
L29.3540 32.9627
" />
<path d="M29.3540 32.9627
L29.3540 32.4789
" />
<path d="M29.3540 32.4789
L29.2935 32.3580
" />
<path d="M29.2935 32.3580
L29.2330 32.2975
" />
<path d="M29.2330 32.2975
L29.1121 32.2370
" />
<path d="M29.1121 32.2370
L28.8702 32.2370
" />
<path d="M28.8702 32.2370
L28.7492 32.2975
" />
<path d="M28.7492 32.2975
L28.6887 32.3580
" />
<path d="M28.6887 32.3580
L28.6283 32.4789
" />
<path d="M28.6283 32.4789
L28.6283 32.7813
" />
<path d="M28.6283 32.7813
L28.6887 32.9023
" />
<path d="M28.6887 32.9023
L28.7492 32.9627
" />
<path d="M28.7492 32.9627
L28.8702 33.0232
" />
<path d="M28.8702 33.0232
L29.1121 33.0232
" />
<path d="M29.1121 33.0232
L29.2330 32.9627
" />
<path d="M29.2330 32.9627
L29.2935 32.9023
" />
<path d="M29.2935 32.9023
L29.3540 32.7813
" />
</g></g>
<g style="fill:none; 
stroke:#840000; stroke-width:0.1524; stroke-opacity:1; 
stroke-linecap:round; stroke-linejoin:round;">
<path d="M27.7211 36.5661
L30.2611 36.5661
" />
</g>
<g style="fill:none; 
stroke:#006464; stroke-width:0.1524; stroke-opacity:1; 
stroke-linecap:round; stroke-linejoin:round;">
<text x="27.2131" y="37.2011"
textLength="2.6222" font-size="1.6933" lengthAdjust="spacingAndGlyphs"
text-anchor="end" opacity="0" stroke-opacity="0">10</text>
<g class="stroked-text"><desc>10</desc>
<path d="M25.6615 37.1456
L24.9358 37.1456
" />
<path d="M25.2986 37.1456
L25.2986 35.8756
" />
<path d="M25.2986 35.8756
L25.1777 36.0571
" />
<path d="M25.1777 36.0571
L25.0567 36.1780
" />
<path d="M25.0567 36.1780
L24.9358 36.2385
" />
<path d="M26.4476 35.8756
L26.5686 35.8756
" />
<path d="M26.5686 35.8756
L26.6895 35.9361
" />
<path d="M26.6895 35.9361
L26.7500 35.9966
" />
<path d="M26.7500 35.9966
L26.8105 36.1175
" />
<path d="M26.8105 36.1175
L26.8710 36.3594
" />
<path d="M26.8710 36.3594
L26.8710 36.6618
" />
<path d="M26.8710 36.6618
L26.8105 36.9037
" />
<path d="M26.8105 36.9037
L26.7500 37.0247
" />
<path d="M26.7500 37.0247
L26.6895 37.0852
" />
<path d="M26.6895 37.0852
L26.5686 37.1456
" />
<path d="M26.5686 37.1456
L26.4476 37.1456
" />
<path d="M26.4476 37.1456
L26.3267 37.0852
" />
<path d="M26.3267 37.0852
L26.2662 37.0247
" />
<path d="M26.2662 37.0247
L26.2057 36.9037
" />
<path d="M26.2057 36.9037
L26.1453 36.6618
" />
<path d="M26.1453 36.6618
L26.1453 36.3594
" />
<path d="M26.1453 36.3594
L26.2057 36.1175
" />
<path d="M26.2057 36.1175
L26.2662 35.9966
" />
<path d="M26.2662 35.9966
L26.3267 35.9361
" />
<path d="M26.3267 35.9361
L26.4476 35.8756
" />
</g></g>
<g style="fill:none; 
stroke:#A90000; stroke-width:0.1524; stroke-opacity:1; 
stroke-linecap:round; stroke-linejoin:round;">
<text x="28.9911" y="36.2105"
textLength="2.6222" font-size="1.6933" lengthAdjust="spacingAndGlyphs"
text-anchor="middle" opacity="0" stroke-opacity="0">10</text>
<g class="stroked-text"><desc>10</desc>
<path d="M28.7492 36.0470
L28.0235 36.0470
" />
<path d="M28.3863 36.0470
L28.3863 34.7770
" />
<path d="M28.3863 34.7770
L28.2654 34.9585
" />
<path d="M28.2654 34.9585
L28.1444 35.0794
" />
<path d="M28.1444 35.0794
L28.0235 35.1399
" />
<path d="M29.5353 34.7770
L29.6563 34.7770
" />
<path d="M29.6563 34.7770
L29.7772 34.8375
" />
<path d="M29.7772 34.8375
L29.8377 34.8980
" />
<path d="M29.8377 34.8980
L29.8982 35.0189
" />
<path d="M29.8982 35.0189
L29.9587 35.2608
" />
<path d="M29.9587 35.2608
L29.9587 35.5632
" />
<path d="M29.9587 35.5632
L29.8982 35.8051
" />
<path d="M29.8982 35.8051
L29.8377 35.9261
" />
<path d="M29.8377 35.9261
L29.7772 35.9866
" />
<path d="M29.7772 35.9866
L29.6563 36.0470
" />
<path d="M29.6563 36.0470
L29.5353 36.0470
" />
<path d="M29.5353 36.0470
L29.4144 35.9866
" />
<path d="M29.4144 35.9866
L29.3539 35.9261
" />
<path d="M29.3539 35.9261
L29.2934 35.8051
" />
<path d="M29.2934 35.8051
L29.2330 35.5632
" />
<path d="M29.2330 35.5632
L29.2330 35.2608
" />
<path d="M29.2330 35.2608
L29.2934 35.0189
" />
<path d="M29.2934 35.0189
L29.3539 34.8980
" />
<path d="M29.3539 34.8980
L29.4144 34.8375
" />
<path d="M29.4144 34.8375
L29.5353 34.7770
" />
</g></g>
<g style="fill:none; 
stroke:#840000; stroke-width:0.1524; stroke-opacity:1; 
stroke-linecap:round; stroke-linejoin:round;">
<path d="M27.7211 39.1061
L30.2611 39.1061
" />
</g>
<g style="fill:none; 
stroke:#006464; stroke-width:0.1524; stroke-opacity:1; 
stroke-linecap:round; stroke-linejoin:round;">
<text x="27.2131" y="39.7411"
textLength="2.6222" font-size="1.6933" lengthAdjust="spacingAndGlyphs"
text-anchor="end" opacity="0" stroke-opacity="0">11</text>
<g class="stroked-text"><desc>11</desc>
<path d="M25.6615 39.6856
L24.9358 39.6856
" />
<path d="M25.2986 39.6856
L25.2986 38.4156
" />
<path d="M25.2986 38.4156
L25.1777 38.5971
" />
<path d="M25.1777 38.5971
L25.0567 38.7180
" />
<path d="M25.0567 38.7180
L24.9358 38.7785
" />
<path d="M26.8710 39.6856
L26.1453 39.6856
" />
<path d="M26.5081 39.6856
L26.5081 38.4156
" />
<path d="M26.5081 38.4156
L26.3872 38.5971
" />
<path d="M26.3872 38.5971
L26.2662 38.7180
" />
<path d="M26.2662 38.7180
L26.1453 38.7785
" />
</g></g>
<g style="fill:none; 
stroke:#A90000; stroke-width:0.1524; stroke-opacity:1; 
stroke-linecap:round; stroke-linejoin:round;">
<text x="28.9911" y="38.7505"
textLength="2.6222" font-size="1.6933" lengthAdjust="spacingAndGlyphs"
text-anchor="middle" opacity="0" stroke-opacity="0">11</text>
<g class="stroked-text"><desc>11</desc>
<path d="M28.7492 38.5870
L28.0235 38.5870
" />
<path d="M28.3863 38.5870
L28.3863 37.3170
" />
<path d="M28.3863 37.3170
L28.2654 37.4985
" />
<path d="M28.2654 37.4985
L28.1444 37.6194
" />
<path d="M28.1444 37.6194
L28.0235 37.6799
" />
<path d="M29.9587 38.5870
L29.2330 38.5870
" />
<path d="M29.5958 38.5870
L29.5958 37.3170
" />
<path d="M29.5958 37.3170
L29.4749 37.4985
" />
<path d="M29.4749 37.4985
L29.3539 37.6194
" />
<path d="M29.3539 37.6194
L29.2330 37.6799
" />
</g></g>
<g style="fill:none; 
stroke:#840000; stroke-width:0.1524; stroke-opacity:1; 
stroke-linecap:round; stroke-linejoin:round;">
<path d="M27.7211 41.6461
L30.2611 41.6461
" />
</g>
<g style="fill:none; 
stroke:#006464; stroke-width:0.1524; stroke-opacity:1; 
stroke-linecap:round; stroke-linejoin:round;">
<text x="27.2131" y="42.2811"
textLength="2.6222" font-size="1.6933" lengthAdjust="spacingAndGlyphs"
text-anchor="end" opacity="0" stroke-opacity="0">12</text>
<g class="stroked-text"><desc>12</desc>
<path d="M25.6615 42.2256
L24.9358 42.2256
" />
<path d="M25.2986 42.2256
L25.2986 40.9556
" />
<path d="M25.2986 40.9556
L25.1777 41.1371
" />
<path d="M25.1777 41.1371
L25.0567 41.2580
" />
<path d="M25.0567 41.2580
L24.9358 41.3185
" />
<path d="M26.1453 41.0766
L26.2057 41.0161
" />
<path d="M26.2057 41.0161
L26.3267 40.9556
" />
<path d="M26.3267 40.9556
L26.6291 40.9556
" />
<path d="M26.6291 40.9556
L26.7500 41.0161
" />
<path d="M26.7500 41.0161
L26.8105 41.0766
" />
<path d="M26.8105 41.0766
L26.8710 41.1975
" />
<path d="M26.8710 41.1975
L26.8710 41.3185
" />
<path d="M26.8710 41.3185
L26.8105 41.4999
" />
<path d="M26.8105 41.4999
L26.0848 42.2256
" />
<path d="M26.0848 42.2256
L26.8710 42.2256
" />
</g></g>
<g style="fill:none; 
stroke:#A90000; stroke-width:0.1524; stroke-opacity:1; 
stroke-linecap:round; stroke-linejoin:round;">
<text x="28.9911" y="41.2905"
textLength="2.6222" font-size="1.6933" lengthAdjust="spacingAndGlyphs"
text-anchor="middle" opacity="0" stroke-opacity="0">12</text>
<g class="stroked-text"><desc>12</desc>
<path d="M28.7492 41.1270
L28.0235 41.1270
" />
<path d="M28.3863 41.1270
L28.3863 39.8570
" />
<path d="M28.3863 39.8570
L28.2654 40.0385
" />
<path d="M28.2654 40.0385
L28.1444 40.1594
" />
<path d="M28.1444 40.1594
L28.0235 40.2199
" />
<path d="M29.2330 39.9780
L29.2934 39.9175
" />
<path d="M29.2934 39.9175
L29.4144 39.8570
" />
<path d="M29.4144 39.8570
L29.7168 39.8570
" />
<path d="M29.7168 39.8570
L29.8377 39.9175
" />
<path d="M29.8377 39.9175
L29.8982 39.9780
" />
<path d="M29.8982 39.9780
L29.9587 40.0989
" />
<path d="M29.9587 40.0989
L29.9587 40.2199
" />
<path d="M29.9587 40.2199
L29.8982 40.4013
" />
<path d="M29.8982 40.4013
L29.1725 41.1270
" />
<path d="M29.1725 41.1270
L29.9587 41.1270
" />
</g></g>
<g style="fill:none; 
stroke:#840000; stroke-width:0.1524; stroke-opacity:1; 
stroke-linecap:round; stroke-linejoin:round;">
<path d="M27.7211 44.1861
L30.2611 44.1861
" />
</g>
<g style="fill:none; 
stroke:#006464; stroke-width:0.1524; stroke-opacity:1; 
stroke-linecap:round; stroke-linejoin:round;">
<text x="27.2131" y="44.8211"
textLength="2.6222" font-size="1.6933" lengthAdjust="spacingAndGlyphs"
text-anchor="end" opacity="0" stroke-opacity="0">13</text>
<g class="stroked-text"><desc>13</desc>
<path d="M25.6615 44.7656
L24.9358 44.7656
" />
<path d="M25.2986 44.7656
L25.2986 43.4956
" />
<path d="M25.2986 43.4956
L25.1777 43.6771
" />
<path d="M25.1777 43.6771
L25.0567 43.7980
" />
<path d="M25.0567 43.7980
L24.9358 43.8585
" />
<path d="M26.0848 43.4956
L26.8710 43.4956
" />
<path d="M26.8710 43.4956
L26.4476 43.9794
" />
<path d="M26.4476 43.9794
L26.6291 43.9794
" />
<path d="M26.6291 43.9794
L26.7500 44.0399
" />
<path d="M26.7500 44.0399
L26.8105 44.1004
" />
<path d="M26.8105 44.1004
L26.8710 44.2213
" />
<path d="M26.8710 44.2213
L26.8710 44.5237
" />
<path d="M26.8710 44.5237
L26.8105 44.6447
" />
<path d="M26.8105 44.6447
L26.7500 44.7052
" />
<path d="M26.7500 44.7052
L26.6291 44.7656
" />
<path d="M26.6291 44.7656
L26.2662 44.7656
" />
<path d="M26.2662 44.7656
L26.1453 44.7052
" />
<path d="M26.1453 44.7052
L26.0848 44.6447
" />
</g></g>
<g style="fill:none; 
stroke:#A90000; stroke-width:0.1524; stroke-opacity:1; 
stroke-linecap:round; stroke-linejoin:round;">
<text x="28.9911" y="43.8305"
textLength="2.6222" font-size="1.6933" lengthAdjust="spacingAndGlyphs"
text-anchor="middle" opacity="0" stroke-opacity="0">13</text>
<g class="stroked-text"><desc>13</desc>
<path d="M28.7492 43.6670
L28.0235 43.6670
" />
<path d="M28.3863 43.6670
L28.3863 42.3970
" />
<path d="M28.3863 42.3970
L28.2654 42.5785
" />
<path d="M28.2654 42.5785
L28.1444 42.6994
" />
<path d="M28.1444 42.6994
L28.0235 42.7599
" />
<path d="M29.1725 42.3970
L29.9587 42.3970
" />
<path d="M29.9587 42.3970
L29.5353 42.8808
" />
<path d="M29.5353 42.8808
L29.7168 42.8808
" />
<path d="M29.7168 42.8808
L29.8377 42.9413
" />
<path d="M29.8377 42.9413
L29.8982 43.0018
" />
<path d="M29.8982 43.0018
L29.9587 43.1227
" />
<path d="M29.9587 43.1227
L29.9587 43.4251
" />
<path d="M29.9587 43.4251
L29.8982 43.5461
" />
<path d="M29.8982 43.5461
L29.8377 43.6066
" />
<path d="M29.8377 43.6066
L29.7168 43.6670
" />
<path d="M29.7168 43.6670
L29.3539 43.6670
" />
<path d="M29.3539 43.6670
L29.2330 43.6066
" />
<path d="M29.2330 43.6066
L29.1725 43.5461
" />
</g></g>
<g style="fill:none; 
stroke:#840000; stroke-width:0.1524; stroke-opacity:1; 
stroke-linecap:round; stroke-linejoin:round;">
<path d="M27.7211 46.7261
L30.2611 46.7261
" />
</g>
<g style="fill:none; 
stroke:#006464; stroke-width:0.1524; stroke-opacity:1; 
stroke-linecap:round; stroke-linejoin:round;">
<text x="27.2131" y="47.3611"
textLength="2.6222" font-size="1.6933" lengthAdjust="spacingAndGlyphs"
text-anchor="end" opacity="0" stroke-opacity="0">14</text>
<g class="stroked-text"><desc>14</desc>
<path d="M25.6615 47.3056
L24.9358 47.3056
" />
<path d="M25.2986 47.3056
L25.2986 46.0356
" />
<path d="M25.2986 46.0356
L25.1777 46.2171
" />
<path d="M25.1777 46.2171
L25.0567 46.3380
" />
<path d="M25.0567 46.3380
L24.9358 46.3985
" />
<path d="M26.7500 46.4590
L26.7500 47.3056
" />
<path d="M26.4476 45.9752
L26.1453 46.8823
" />
<path d="M26.1453 46.8823
L26.9314 46.8823
" />
</g></g>
<g style="fill:none; 
stroke:#A90000; stroke-width:0.1524; stroke-opacity:1; 
stroke-linecap:round; stroke-linejoin:round;">
<text x="28.9911" y="46.3705"
textLength="2.6222" font-size="1.6933" lengthAdjust="spacingAndGlyphs"
text-anchor="middle" opacity="0" stroke-opacity="0">14</text>
<g class="stroked-text"><desc>14</desc>
<path d="M28.7492 46.2070
L28.0235 46.2070
" />
<path d="M28.3863 46.2070
L28.3863 44.9370
" />
<path d="M28.3863 44.9370
L28.2654 45.1185
" />
<path d="M28.2654 45.1185
L28.1444 45.2394
" />
<path d="M28.1444 45.2394
L28.0235 45.2999
" />
<path d="M29.8377 45.3604
L29.8377 46.2070
" />
<path d="M29.5353 44.8766
L29.2330 45.7837
" />
<path d="M29.2330 45.7837
L30.0191 45.7837
" />
</g></g>
<g style="fill:none; 
stroke:#840000; stroke-width:0.1524; stroke-opacity:1; 
stroke-linecap:round; stroke-linejoin:round;">
<path d="M27.7211 49.2661
L30.2611 49.2661
" />
</g>
<g style="fill:none; 
stroke:#006464; stroke-width:0.1524; stroke-opacity:1; 
stroke-linecap:round; stroke-linejoin:round;">
<text x="27.2131" y="49.9011"
textLength="2.6222" font-size="1.6933" lengthAdjust="spacingAndGlyphs"
text-anchor="end" opacity="0" stroke-opacity="0">15</text>
<g class="stroked-text"><desc>15</desc>
<path d="M25.6615 49.8456
L24.9358 49.8456
" />
<path d="M25.2986 49.8456
L25.2986 48.5756
" />
<path d="M25.2986 48.5756
L25.1777 48.7571
" />
<path d="M25.1777 48.7571
L25.0567 48.8780
" />
<path d="M25.0567 48.8780
L24.9358 48.9385
" />
<path d="M26.8105 48.5756
L26.2057 48.5756
" />
<path d="M26.2057 48.5756
L26.1453 49.1804
" />
<path d="M26.1453 49.1804
L26.2057 49.1199
" />
<path d="M26.2057 49.1199
L26.3267 49.0594
" />
<path d="M26.3267 49.0594
L26.6291 49.0594
" />
<path d="M26.6291 49.0594
L26.7500 49.1199
" />
<path d="M26.7500 49.1199
L26.8105 49.1804
" />
<path d="M26.8105 49.1804
L26.8710 49.3013
" />
<path d="M26.8710 49.3013
L26.8710 49.6037
" />
<path d="M26.8710 49.6037
L26.8105 49.7247
" />
<path d="M26.8105 49.7247
L26.7500 49.7852
" />
<path d="M26.7500 49.7852
L26.6291 49.8456
" />
<path d="M26.6291 49.8456
L26.3267 49.8456
" />
<path d="M26.3267 49.8456
L26.2057 49.7852
" />
<path d="M26.2057 49.7852
L26.1453 49.7247
" />
</g></g>
<g style="fill:none; 
stroke:#A90000; stroke-width:0.1524; stroke-opacity:1; 
stroke-linecap:round; stroke-linejoin:round;">
<text x="28.9911" y="48.9105"
textLength="2.6222" font-size="1.6933" lengthAdjust="spacingAndGlyphs"
text-anchor="middle" opacity="0" stroke-opacity="0">15</text>
<g class="stroked-text"><desc>15</desc>
<path d="M28.7492 48.7470
L28.0235 48.7470
" />
<path d="M28.3863 48.7470
L28.3863 47.4770
" />
<path d="M28.3863 47.4770
L28.2654 47.6585
" />
<path d="M28.2654 47.6585
L28.1444 47.7794
" />
<path d="M28.1444 47.7794
L28.0235 47.8399
" />
<path d="M29.8982 47.4770
L29.2934 47.4770
" />
<path d="M29.2934 47.4770
L29.2330 48.0818
" />
<path d="M29.2330 48.0818
L29.2934 48.0213
" />
<path d="M29.2934 48.0213
L29.4144 47.9608
" />
<path d="M29.4144 47.9608
L29.7168 47.9608
" />
<path d="M29.7168 47.9608
L29.8377 48.0213
" />
<path d="M29.8377 48.0213
L29.8982 48.0818
" />
<path d="M29.8982 48.0818
L29.9587 48.2027
" />
<path d="M29.9587 48.2027
L29.9587 48.5051
" />
<path d="M29.9587 48.5051
L29.8982 48.6261
" />
<path d="M29.8982 48.6261
L29.8377 48.6866
" />
<path d="M29.8377 48.6866
L29.7168 48.7470
" />
<path d="M29.7168 48.7470
L29.4144 48.7470
" />
<path d="M29.4144 48.7470
L29.2934 48.6866
" />
<path d="M29.2934 48.6866
L29.2330 48.6261
" />
</g></g>
<g style="fill:none; 
stroke:#840000; stroke-width:0.1524; stroke-opacity:1; 
stroke-linecap:round; stroke-linejoin:round;">
<path d="M27.7211 51.8061
L30.2611 51.8061
" />
</g>
<g style="fill:none; 
stroke:#006464; stroke-width:0.1524; stroke-opacity:1; 
stroke-linecap:round; stroke-linejoin:round;">
<text x="27.2131" y="52.4411"
textLength="2.6222" font-size="1.6933" lengthAdjust="spacingAndGlyphs"
text-anchor="end" opacity="0" stroke-opacity="0">16</text>
<g class="stroked-text"><desc>16</desc>
<path d="M25.6615 52.3856
L24.9358 52.3856
" />
<path d="M25.2986 52.3856
L25.2986 51.1156
" />
<path d="M25.2986 51.1156
L25.1777 51.2971
" />
<path d="M25.1777 51.2971
L25.0567 51.4180
" />
<path d="M25.0567 51.4180
L24.9358 51.4785
" />
<path d="M26.7500 51.1156
L26.5081 51.1156
" />
<path d="M26.5081 51.1156
L26.3872 51.1761
" />
<path d="M26.3872 51.1761
L26.3267 51.2366
" />
<path d="M26.3267 51.2366
L26.2057 51.4180
" />
<path d="M26.2057 51.4180
L26.1453 51.6599
" />
<path d="M26.1453 51.6599
L26.1453 52.1437
" />
<path d="M26.1453 52.1437
L26.2057 52.2647
" />
<path d="M26.2057 52.2647
L26.2662 52.3252
" />
<path d="M26.2662 52.3252
L26.3872 52.3856
" />
<path d="M26.3872 52.3856
L26.6291 52.3856
" />
<path d="M26.6291 52.3856
L26.7500 52.3252
" />
<path d="M26.7500 52.3252
L26.8105 52.2647
" />
<path d="M26.8105 52.2647
L26.8710 52.1437
" />
<path d="M26.8710 52.1437
L26.8710 51.8413
" />
<path d="M26.8710 51.8413
L26.8105 51.7204
" />
<path d="M26.8105 51.7204
L26.7500 51.6599
" />
<path d="M26.7500 51.6599
L26.6291 51.5994
" />
<path d="M26.6291 51.5994
L26.3872 51.5994
" />
<path d="M26.3872 51.5994
L26.2662 51.6599
" />
<path d="M26.2662 51.6599
L26.2057 51.7204
" />
<path d="M26.2057 51.7204
L26.1453 51.8413
" />
</g></g>
<g style="fill:none; 
stroke:#A90000; stroke-width:0.1524; stroke-opacity:1; 
stroke-linecap:round; stroke-linejoin:round;">
<text x="28.9911" y="51.4505"
textLength="2.6222" font-size="1.6933" lengthAdjust="spacingAndGlyphs"
text-anchor="middle" opacity="0" stroke-opacity="0">16</text>
<g class="stroked-text"><desc>16</desc>
<path d="M28.7492 51.2870
L28.0235 51.2870
" />
<path d="M28.3863 51.2870
L28.3863 50.0170
" />
<path d="M28.3863 50.0170
L28.2654 50.1985
" />
<path d="M28.2654 50.1985
L28.1444 50.3194
" />
<path d="M28.1444 50.3194
L28.0235 50.3799
" />
<path d="M29.8377 50.0170
L29.5958 50.0170
" />
<path d="M29.5958 50.0170
L29.4749 50.0775
" />
<path d="M29.4749 50.0775
L29.4144 50.1380
" />
<path d="M29.4144 50.1380
L29.2934 50.3194
" />
<path d="M29.2934 50.3194
L29.2330 50.5613
" />
<path d="M29.2330 50.5613
L29.2330 51.0451
" />
<path d="M29.2330 51.0451
L29.2934 51.1661
" />
<path d="M29.2934 51.1661
L29.3539 51.2266
" />
<path d="M29.3539 51.2266
L29.4749 51.2870
" />
<path d="M29.4749 51.2870
L29.7168 51.2870
" />
<path d="M29.7168 51.2870
L29.8377 51.2266
" />
<path d="M29.8377 51.2266
L29.8982 51.1661
" />
<path d="M29.8982 51.1661
L29.9587 51.0451
" />
<path d="M29.9587 51.0451
L29.9587 50.7427
" />
<path d="M29.9587 50.7427
L29.8982 50.6218
" />
<path d="M29.8982 50.6218
L29.8377 50.5613
" />
<path d="M29.8377 50.5613
L29.7168 50.5008
" />
<path d="M29.7168 50.5008
L29.4749 50.5008
" />
<path d="M29.4749 50.5008
L29.3539 50.5613
" />
<path d="M29.3539 50.5613
L29.2934 50.6218
" />
<path d="M29.2934 50.6218
L29.2330 50.7427
" />
</g></g>
<g style="fill:none; 
stroke:#840000; stroke-width:0.1524; stroke-opacity:1; 
stroke-linecap:round; stroke-linejoin:round;">
<path d="M27.7211 54.3461
L30.2611 54.3461
" />
</g>
<g style="fill:none; 
stroke:#006464; stroke-width:0.1524; stroke-opacity:1; 
stroke-linecap:round; stroke-linejoin:round;">
<text x="27.2131" y="54.9811"
textLength="2.6222" font-size="1.6933" lengthAdjust="spacingAndGlyphs"
text-anchor="end" opacity="0" stroke-opacity="0">17</text>
<g class="stroked-text"><desc>17</desc>
<path d="M25.6615 54.9256
L24.9358 54.9256
" />
<path d="M25.2986 54.9256
L25.2986 53.6556
" />
<path d="M25.2986 53.6556
L25.1777 53.8371
" />
<path d="M25.1777 53.8371
L25.0567 53.9580
" />
<path d="M25.0567 53.9580
L24.9358 54.0185
" />
<path d="M26.0848 53.6556
L26.9314 53.6556
" />
<path d="M26.9314 53.6556
L26.3872 54.9256
" />
</g></g>
<g style="fill:none; 
stroke:#A90000; stroke-width:0.1524; stroke-opacity:1; 
stroke-linecap:round; stroke-linejoin:round;">
<text x="28.9911" y="53.9905"
textLength="2.6222" font-size="1.6933" lengthAdjust="spacingAndGlyphs"
text-anchor="middle" opacity="0" stroke-opacity="0">17</text>
<g class="stroked-text"><desc>17</desc>
<path d="M28.7492 53.8270
L28.0235 53.8270
" />
<path d="M28.3863 53.8270
L28.3863 52.5570
" />
<path d="M28.3863 52.5570
L28.2654 52.7385
" />
<path d="M28.2654 52.7385
L28.1444 52.8594
" />
<path d="M28.1444 52.8594
L28.0235 52.9199
" />
<path d="M29.1725 52.5570
L30.0191 52.5570
" />
<path d="M30.0191 52.5570
L29.4749 53.8270
" />
</g></g>
<g style="fill:none; 
stroke:#840000; stroke-width:0.1524; stroke-opacity:1; 
stroke-linecap:round; stroke-linejoin:round;">
<path d="M27.7211 56.8861
L30.2611 56.8861
" />
</g>
<g style="fill:none; 
stroke:#006464; stroke-width:0.1524; stroke-opacity:1; 
stroke-linecap:round; stroke-linejoin:round;">
<text x="27.2131" y="57.5211"
textLength="2.6222" font-size="1.6933" lengthAdjust="spacingAndGlyphs"
text-anchor="end" opacity="0" stroke-opacity="0">18</text>
<g class="stroked-text"><desc>18</desc>
<path d="M25.6615 57.4656
L24.9358 57.4656
" />
<path d="M25.2986 57.4656
L25.2986 56.1956
" />
<path d="M25.2986 56.1956
L25.1777 56.3771
" />
<path d="M25.1777 56.3771
L25.0567 56.4980
" />
<path d="M25.0567 56.4980
L24.9358 56.5585
" />
<path d="M26.3872 56.7399
L26.2662 56.6794
" />
<path d="M26.2662 56.6794
L26.2057 56.6190
" />
<path d="M26.2057 56.6190
L26.1453 56.4980
" />
<path d="M26.1453 56.4980
L26.1453 56.4375
" />
<path d="M26.1453 56.4375
L26.2057 56.3166
" />
<path d="M26.2057 56.3166
L26.2662 56.2561
" />
<path d="M26.2662 56.2561
L26.3872 56.1956
" />
<path d="M26.3872 56.1956
L26.6291 56.1956
" />
<path d="M26.6291 56.1956
L26.7500 56.2561
" />
<path d="M26.7500 56.2561
L26.8105 56.3166
" />
<path d="M26.8105 56.3166
L26.8710 56.4375
" />
<path d="M26.8710 56.4375
L26.8710 56.4980
" />
<path d="M26.8710 56.4980
L26.8105 56.6190
" />
<path d="M26.8105 56.6190
L26.7500 56.6794
" />
<path d="M26.7500 56.6794
L26.6291 56.7399
" />
<path d="M26.6291 56.7399
L26.3872 56.7399
" />
<path d="M26.3872 56.7399
L26.2662 56.8004
" />
<path d="M26.2662 56.8004
L26.2057 56.8609
" />
<path d="M26.2057 56.8609
L26.1453 56.9818
" />
<path d="M26.1453 56.9818
L26.1453 57.2237
" />
<path d="M26.1453 57.2237
L26.2057 57.3447
" />
<path d="M26.2057 57.3447
L26.2662 57.4052
" />
<path d="M26.2662 57.4052
L26.3872 57.4656
" />
<path d="M26.3872 57.4656
L26.6291 57.4656
" />
<path d="M26.6291 57.4656
L26.7500 57.4052
" />
<path d="M26.7500 57.4052
L26.8105 57.3447
" />
<path d="M26.8105 57.3447
L26.8710 57.2237
" />
<path d="M26.8710 57.2237
L26.8710 56.9818
" />
<path d="M26.8710 56.9818
L26.8105 56.8609
" />
<path d="M26.8105 56.8609
L26.7500 56.8004
" />
<path d="M26.7500 56.8004
L26.6291 56.7399
" />
</g></g>
<g style="fill:none; 
stroke:#A90000; stroke-width:0.1524; stroke-opacity:1; 
stroke-linecap:round; stroke-linejoin:round;">
<text x="28.9911" y="56.5305"
textLength="2.6222" font-size="1.6933" lengthAdjust="spacingAndGlyphs"
text-anchor="middle" opacity="0" stroke-opacity="0">18</text>
<g class="stroked-text"><desc>18</desc>
<path d="M28.7492 56.3670
L28.0235 56.3670
" />
<path d="M28.3863 56.3670
L28.3863 55.0970
" />
<path d="M28.3863 55.0970
L28.2654 55.2785
" />
<path d="M28.2654 55.2785
L28.1444 55.3994
" />
<path d="M28.1444 55.3994
L28.0235 55.4599
" />
<path d="M29.4749 55.6413
L29.3539 55.5808
" />
<path d="M29.3539 55.5808
L29.2934 55.5204
" />
<path d="M29.2934 55.5204
L29.2330 55.3994
" />
<path d="M29.2330 55.3994
L29.2330 55.3389
" />
<path d="M29.2330 55.3389
L29.2934 55.2180
" />
<path d="M29.2934 55.2180
L29.3539 55.1575
" />
<path d="M29.3539 55.1575
L29.4749 55.0970
" />
<path d="M29.4749 55.0970
L29.7168 55.0970
" />
<path d="M29.7168 55.0970
L29.8377 55.1575
" />
<path d="M29.8377 55.1575
L29.8982 55.2180
" />
<path d="M29.8982 55.2180
L29.9587 55.3389
" />
<path d="M29.9587 55.3389
L29.9587 55.3994
" />
<path d="M29.9587 55.3994
L29.8982 55.5204
" />
<path d="M29.8982 55.5204
L29.8377 55.5808
" />
<path d="M29.8377 55.5808
L29.7168 55.6413
" />
<path d="M29.7168 55.6413
L29.4749 55.6413
" />
<path d="M29.4749 55.6413
L29.3539 55.7018
" />
<path d="M29.3539 55.7018
L29.2934 55.7623
" />
<path d="M29.2934 55.7623
L29.2330 55.8832
" />
<path d="M29.2330 55.8832
L29.2330 56.1251
" />
<path d="M29.2330 56.1251
L29.2934 56.2461
" />
<path d="M29.2934 56.2461
L29.3539 56.3066
" />
<path d="M29.3539 56.3066
L29.4749 56.3670
" />
<path d="M29.4749 56.3670
L29.7168 56.3670
" />
<path d="M29.7168 56.3670
L29.8377 56.3066
" />
<path d="M29.8377 56.3066
L29.8982 56.2461
" />
<path d="M29.8982 56.2461
L29.9587 56.1251
" />
<path d="M29.9587 56.1251
L29.9587 55.8832
" />
<path d="M29.9587 55.8832
L29.8982 55.7623
" />
<path d="M29.8982 55.7623
L29.8377 55.7018
" />
<path d="M29.8377 55.7018
L29.7168 55.6413
" />
</g></g>
<g style="fill:none; 
stroke:#840000; stroke-width:0.1524; stroke-opacity:1; 
stroke-linecap:round; stroke-linejoin:round;">
<path d="M27.7211 59.4261
L30.2611 59.4261
" />
</g>
<g style="fill:none; 
stroke:#006464; stroke-width:0.1524; stroke-opacity:1; 
stroke-linecap:round; stroke-linejoin:round;">
<text x="27.2131" y="60.0611"
textLength="2.6222" font-size="1.6933" lengthAdjust="spacingAndGlyphs"
text-anchor="end" opacity="0" stroke-opacity="0">19</text>
<g class="stroked-text"><desc>19</desc>
<path d="M25.6615 60.0056
L24.9358 60.0056
" />
<path d="M25.2986 60.0056
L25.2986 58.7356
" />
<path d="M25.2986 58.7356
L25.1777 58.9171
" />
<path d="M25.1777 58.9171
L25.0567 59.0380
" />
<path d="M25.0567 59.0380
L24.9358 59.0985
" />
<path d="M26.2662 60.0056
L26.5081 60.0056
" />
<path d="M26.5081 60.0056
L26.6291 59.9452
" />
<path d="M26.6291 59.9452
L26.6895 59.8847
" />
<path d="M26.6895 59.8847
L26.8105 59.7032
" />
<path d="M26.8105 59.7032
L26.8710 59.4613
" />
<path d="M26.8710 59.4613
L26.8710 58.9775
" />
<path d="M26.8710 58.9775
L26.8105 58.8566
" />
<path d="M26.8105 58.8566
L26.7500 58.7961
" />
<path d="M26.7500 58.7961
L26.6291 58.7356
" />
<path d="M26.6291 58.7356
L26.3872 58.7356
" />
<path d="M26.3872 58.7356
L26.2662 58.7961
" />
<path d="M26.2662 58.7961
L26.2057 58.8566
" />
<path d="M26.2057 58.8566
L26.1453 58.9775
" />
<path d="M26.1453 58.9775
L26.1453 59.2799
" />
<path d="M26.1453 59.2799
L26.2057 59.4009
" />
<path d="M26.2057 59.4009
L26.2662 59.4613
" />
<path d="M26.2662 59.4613
L26.3872 59.5218
" />
<path d="M26.3872 59.5218
L26.6291 59.5218
" />
<path d="M26.6291 59.5218
L26.7500 59.4613
" />
<path d="M26.7500 59.4613
L26.8105 59.4009
" />
<path d="M26.8105 59.4009
L26.8710 59.2799
" />
</g></g>
<g style="fill:none; 
stroke:#A90000; stroke-width:0.1524; stroke-opacity:1; 
stroke-linecap:round; stroke-linejoin:round;">
<text x="28.9911" y="59.0705"
textLength="2.6222" font-size="1.6933" lengthAdjust="spacingAndGlyphs"
text-anchor="middle" opacity="0" stroke-opacity="0">19</text>
<g class="stroked-text"><desc>19</desc>
<path d="M28.7492 58.9070
L28.0235 58.9070
" />
<path d="M28.3863 58.9070
L28.3863 57.6370
" />
<path d="M28.3863 57.6370
L28.2654 57.8185
" />
<path d="M28.2654 57.8185
L28.1444 57.9394
" />
<path d="M28.1444 57.9394
L28.0235 57.9999
" />
<path d="M29.3539 58.9070
L29.5958 58.9070
" />
<path d="M29.5958 58.9070
L29.7168 58.8466
" />
<path d="M29.7168 58.8466
L29.7772 58.7861
" />
<path d="M29.7772 58.7861
L29.8982 58.6046
" />
<path d="M29.8982 58.6046
L29.9587 58.3627
" />
<path d="M29.9587 58.3627
L29.9587 57.8789
" />
<path d="M29.9587 57.8789
L29.8982 57.7580
" />
<path d="M29.8982 57.7580
L29.8377 57.6975
" />
<path d="M29.8377 57.6975
L29.7168 57.6370
" />
<path d="M29.7168 57.6370
L29.4749 57.6370
" />
<path d="M29.4749 57.6370
L29.3539 57.6975
" />
<path d="M29.3539 57.6975
L29.2934 57.7580
" />
<path d="M29.2934 57.7580
L29.2330 57.8789
" />
<path d="M29.2330 57.8789
L29.2330 58.1813
" />
<path d="M29.2330 58.1813
L29.2934 58.3023
" />
<path d="M29.2934 58.3023
L29.3539 58.3627
" />
<path d="M29.3539 58.3627
L29.4749 58.4232
" />
<path d="M29.4749 58.4232
L29.7168 58.4232
" />
<path d="M29.7168 58.4232
L29.8377 58.3627
" />
<path d="M29.8377 58.3627
L29.8982 58.3023
" />
<path d="M29.8982 58.3023
L29.9587 58.1813
" />
</g></g>
<g style="fill:none; 
stroke:#840000; stroke-width:0.1524; stroke-opacity:1; 
stroke-linecap:round; stroke-linejoin:round;">
<path d="M27.7211 61.9661
L30.2611 61.9661
" />
</g>
<g style="fill:none; 
stroke:#006464; stroke-width:0.1524; stroke-opacity:1; 
stroke-linecap:round; stroke-linejoin:round;">
<text x="27.2131" y="62.6011"
textLength="2.6222" font-size="1.6933" lengthAdjust="spacingAndGlyphs"
text-anchor="end" opacity="0" stroke-opacity="0">20</text>
<g class="stroked-text"><desc>20</desc>
<path d="M24.9358 61.3966
L24.9962 61.3361
" />
<path d="M24.9962 61.3361
L25.1172 61.2756
" />
<path d="M25.1172 61.2756
L25.4196 61.2756
" />
<path d="M25.4196 61.2756
L25.5405 61.3361
" />
<path d="M25.5405 61.3361
L25.6010 61.3966
" />
<path d="M25.6010 61.3966
L25.6615 61.5175
" />
<path d="M25.6615 61.5175
L25.6615 61.6385
" />
<path d="M25.6615 61.6385
L25.6010 61.8199
" />
<path d="M25.6010 61.8199
L24.8753 62.5456
" />
<path d="M24.8753 62.5456
L25.6615 62.5456
" />
<path d="M26.4476 61.2756
L26.5686 61.2756
" />
<path d="M26.5686 61.2756
L26.6895 61.3361
" />
<path d="M26.6895 61.3361
L26.7500 61.3966
" />
<path d="M26.7500 61.3966
L26.8105 61.5175
" />
<path d="M26.8105 61.5175
L26.8710 61.7594
" />
<path d="M26.8710 61.7594
L26.8710 62.0618
" />
<path d="M26.8710 62.0618
L26.8105 62.3037
" />
<path d="M26.8105 62.3037
L26.7500 62.4247
" />
<path d="M26.7500 62.4247
L26.6895 62.4852
" />
<path d="M26.6895 62.4852
L26.5686 62.5456
" />
<path d="M26.5686 62.5456
L26.4476 62.5456
" />
<path d="M26.4476 62.5456
L26.3267 62.4852
" />
<path d="M26.3267 62.4852
L26.2662 62.4247
" />
<path d="M26.2662 62.4247
L26.2057 62.3037
" />
<path d="M26.2057 62.3037
L26.1453 62.0618
" />
<path d="M26.1453 62.0618
L26.1453 61.7594
" />
<path d="M26.1453 61.7594
L26.2057 61.5175
" />
<path d="M26.2057 61.5175
L26.2662 61.3966
" />
<path d="M26.2662 61.3966
L26.3267 61.3361
" />
<path d="M26.3267 61.3361
L26.4476 61.2756
" />
</g></g>
<g style="fill:none; 
stroke:#A90000; stroke-width:0.1524; stroke-opacity:1; 
stroke-linecap:round; stroke-linejoin:round;">
<text x="28.9911" y="61.6105"
textLength="2.6222" font-size="1.6933" lengthAdjust="spacingAndGlyphs"
text-anchor="middle" opacity="0" stroke-opacity="0">20</text>
<g class="stroked-text"><desc>20</desc>
<path d="M28.0235 60.2980
L28.0839 60.2375
" />
<path d="M28.0839 60.2375
L28.2049 60.1770
" />
<path d="M28.2049 60.1770
L28.5073 60.1770
" />
<path d="M28.5073 60.1770
L28.6282 60.2375
" />
<path d="M28.6282 60.2375
L28.6887 60.2980
" />
<path d="M28.6887 60.2980
L28.7492 60.4189
" />
<path d="M28.7492 60.4189
L28.7492 60.5399
" />
<path d="M28.7492 60.5399
L28.6887 60.7213
" />
<path d="M28.6887 60.7213
L27.9630 61.4470
" />
<path d="M27.9630 61.4470
L28.7492 61.4470
" />
<path d="M29.5353 60.1770
L29.6563 60.1770
" />
<path d="M29.6563 60.1770
L29.7772 60.2375
" />
<path d="M29.7772 60.2375
L29.8377 60.2980
" />
<path d="M29.8377 60.2980
L29.8982 60.4189
" />
<path d="M29.8982 60.4189
L29.9587 60.6608
" />
<path d="M29.9587 60.6608
L29.9587 60.9632
" />
<path d="M29.9587 60.9632
L29.8982 61.2051
" />
<path d="M29.8982 61.2051
L29.8377 61.3261
" />
<path d="M29.8377 61.3261
L29.7772 61.3866
" />
<path d="M29.7772 61.3866
L29.6563 61.4470
" />
<path d="M29.6563 61.4470
L29.5353 61.4470
" />
<path d="M29.5353 61.4470
L29.4144 61.3866
" />
<path d="M29.4144 61.3866
L29.3539 61.3261
" />
<path d="M29.3539 61.3261
L29.2934 61.2051
" />
<path d="M29.2934 61.2051
L29.2330 60.9632
" />
<path d="M29.2330 60.9632
L29.2330 60.6608
" />
<path d="M29.2330 60.6608
L29.2934 60.4189
" />
<path d="M29.2934 60.4189
L29.3539 60.2980
" />
<path d="M29.3539 60.2980
L29.4144 60.2375
" />
<path d="M29.4144 60.2375
L29.5353 60.1770
" />
</g></g>
<g style="fill:none; 
stroke:#840000; stroke-width:0.1524; stroke-opacity:1; 
stroke-linecap:round; stroke-linejoin:round;">
<path d="M27.7211 64.5061
L30.2611 64.5061
" />
</g>
<g style="fill:none; 
stroke:#006464; stroke-width:0.1524; stroke-opacity:1; 
stroke-linecap:round; stroke-linejoin:round;">
<text x="27.2131" y="65.1411"
textLength="2.6222" font-size="1.6933" lengthAdjust="spacingAndGlyphs"
text-anchor="end" opacity="0" stroke-opacity="0">21</text>
<g class="stroked-text"><desc>21</desc>
<path d="M24.9358 63.9366
L24.9962 63.8761
" />
<path d="M24.9962 63.8761
L25.1172 63.8156
" />
<path d="M25.1172 63.8156
L25.4196 63.8156
" />
<path d="M25.4196 63.8156
L25.5405 63.8761
" />
<path d="M25.5405 63.8761
L25.6010 63.9366
" />
<path d="M25.6010 63.9366
L25.6615 64.0575
" />
<path d="M25.6615 64.0575
L25.6615 64.1785
" />
<path d="M25.6615 64.1785
L25.6010 64.3599
" />
<path d="M25.6010 64.3599
L24.8753 65.0856
" />
<path d="M24.8753 65.0856
L25.6615 65.0856
" />
<path d="M26.8710 65.0856
L26.1453 65.0856
" />
<path d="M26.5081 65.0856
L26.5081 63.8156
" />
<path d="M26.5081 63.8156
L26.3872 63.9971
" />
<path d="M26.3872 63.9971
L26.2662 64.1180
" />
<path d="M26.2662 64.1180
L26.1453 64.1785
" />
</g></g>
<g style="fill:none; 
stroke:#A90000; stroke-width:0.1524; stroke-opacity:1; 
stroke-linecap:round; stroke-linejoin:round;">
<text x="28.9911" y="64.1505"
textLength="2.6222" font-size="1.6933" lengthAdjust="spacingAndGlyphs"
text-anchor="middle" opacity="0" stroke-opacity="0">21</text>
<g class="stroked-text"><desc>21</desc>
<path d="M28.0235 62.8380
L28.0839 62.7775
" />
<path d="M28.0839 62.7775
L28.2049 62.7170
" />
<path d="M28.2049 62.7170
L28.5073 62.7170
" />
<path d="M28.5073 62.7170
L28.6282 62.7775
" />
<path d="M28.6282 62.7775
L28.6887 62.8380
" />
<path d="M28.6887 62.8380
L28.7492 62.9589
" />
<path d="M28.7492 62.9589
L28.7492 63.0799
" />
<path d="M28.7492 63.0799
L28.6887 63.2613
" />
<path d="M28.6887 63.2613
L27.9630 63.9870
" />
<path d="M27.9630 63.9870
L28.7492 63.9870
" />
<path d="M29.9587 63.9870
L29.2330 63.9870
" />
<path d="M29.5958 63.9870
L29.5958 62.7170
" />
<path d="M29.5958 62.7170
L29.4749 62.8985
" />
<path d="M29.4749 62.8985
L29.3539 63.0194
" />
<path d="M29.3539 63.0194
L29.2330 63.0799
" />
</g></g>
<g style="fill:none; 
stroke:#840000; stroke-width:0.1524; stroke-opacity:1; 
stroke-linecap:round; stroke-linejoin:round;">
<path d="M27.7211 67.0461
L30.2611 67.0461
" />
</g>
<g style="fill:none; 
stroke:#006464; stroke-width:0.1524; stroke-opacity:1; 
stroke-linecap:round; stroke-linejoin:round;">
<text x="27.2131" y="67.6811"
textLength="2.6222" font-size="1.6933" lengthAdjust="spacingAndGlyphs"
text-anchor="end" opacity="0" stroke-opacity="0">22</text>
<g class="stroked-text"><desc>22</desc>
<path d="M24.9358 66.4766
L24.9962 66.4161
" />
<path d="M24.9962 66.4161
L25.1172 66.3556
" />
<path d="M25.1172 66.3556
L25.4196 66.3556
" />
<path d="M25.4196 66.3556
L25.5405 66.4161
" />
<path d="M25.5405 66.4161
L25.6010 66.4766
" />
<path d="M25.6010 66.4766
L25.6615 66.5975
" />
<path d="M25.6615 66.5975
L25.6615 66.7185
" />
<path d="M25.6615 66.7185
L25.6010 66.8999
" />
<path d="M25.6010 66.8999
L24.8753 67.6256
" />
<path d="M24.8753 67.6256
L25.6615 67.6256
" />
<path d="M26.1453 66.4766
L26.2057 66.4161
" />
<path d="M26.2057 66.4161
L26.3267 66.3556
" />
<path d="M26.3267 66.3556
L26.6291 66.3556
" />
<path d="M26.6291 66.3556
L26.7500 66.4161
" />
<path d="M26.7500 66.4161
L26.8105 66.4766
" />
<path d="M26.8105 66.4766
L26.8710 66.5975
" />
<path d="M26.8710 66.5975
L26.8710 66.7185
" />
<path d="M26.8710 66.7185
L26.8105 66.8999
" />
<path d="M26.8105 66.8999
L26.0848 67.6256
" />
<path d="M26.0848 67.6256
L26.8710 67.6256
" />
</g></g>
<g style="fill:none; 
stroke:#A90000; stroke-width:0.1524; stroke-opacity:1; 
stroke-linecap:round; stroke-linejoin:round;">
<text x="28.9911" y="66.6905"
textLength="2.6222" font-size="1.6933" lengthAdjust="spacingAndGlyphs"
text-anchor="middle" opacity="0" stroke-opacity="0">22</text>
<g class="stroked-text"><desc>22</desc>
<path d="M28.0235 65.3780
L28.0839 65.3175
" />
<path d="M28.0839 65.3175
L28.2049 65.2570
" />
<path d="M28.2049 65.2570
L28.5073 65.2570
" />
<path d="M28.5073 65.2570
L28.6282 65.3175
" />
<path d="M28.6282 65.3175
L28.6887 65.3780
" />
<path d="M28.6887 65.3780
L28.7492 65.4989
" />
<path d="M28.7492 65.4989
L28.7492 65.6199
" />
<path d="M28.7492 65.6199
L28.6887 65.8013
" />
<path d="M28.6887 65.8013
L27.9630 66.5270
" />
<path d="M27.9630 66.5270
L28.7492 66.5270
" />
<path d="M29.2330 65.3780
L29.2934 65.3175
" />
<path d="M29.2934 65.3175
L29.4144 65.2570
" />
<path d="M29.4144 65.2570
L29.7168 65.2570
" />
<path d="M29.7168 65.2570
L29.8377 65.3175
" />
<path d="M29.8377 65.3175
L29.8982 65.3780
" />
<path d="M29.8982 65.3780
L29.9587 65.4989
" />
<path d="M29.9587 65.4989
L29.9587 65.6199
" />
<path d="M29.9587 65.6199
L29.8982 65.8013
" />
<path d="M29.8982 65.8013
L29.1725 66.5270
" />
<path d="M29.1725 66.5270
L29.9587 66.5270
" />
</g></g>
<g style="fill:none; 
stroke:#840000; stroke-width:0.1524; stroke-opacity:1; 
stroke-linecap:round; stroke-linejoin:round;">
<path d="M6.1311 16.2461
L3.5911 16.2461
" />
</g>
<g style="fill:none; 
stroke:#006464; stroke-width:0.1524; stroke-opacity:1; 
stroke-linecap:round; stroke-linejoin:round;">
<text x="6.6391" y="16.8811"
textLength="4.1341" font-size="1.6933" lengthAdjust="spacingAndGlyphs"
text-anchor="start" opacity="0" stroke-opacity="0">MP1</text>
<g class="stroked-text"><desc>MP1</desc>
<path d="M7.0416 16.8256
L7.0416 15.5556
" />
<path d="M7.0416 15.5556
L7.4650 16.4628
" />
<path d="M7.4650 16.4628
L7.8883 15.5556
" />
<path d="M7.8883 15.5556
L7.8883 16.8256
" />
<path d="M8.4930 16.8256
L8.4930 15.5556
" />
<path d="M8.4930 15.5556
L8.9768 15.5556
" />
<path d="M8.9768 15.5556
L9.0978 15.6161
" />
<path d="M9.0978 15.6161
L9.1583 15.6766
" />
<path d="M9.1583 15.6766
L9.2187 15.7975
" />
<path d="M9.2187 15.7975
L9.2187 15.9790
" />
<path d="M9.2187 15.9790
L9.1583 16.0999
" />
<path d="M9.1583 16.0999
L9.0978 16.1604
" />
<path d="M9.0978 16.1604
L8.9768 16.2209
" />
<path d="M8.9768 16.2209
L8.4930 16.2209
" />
<path d="M10.4283 16.8256
L9.7026 16.8256
" />
<path d="M10.0654 16.8256
L10.0654 15.5556
" />
<path d="M10.0654 15.5556
L9.9445 15.7371
" />
<path d="M9.9445 15.7371
L9.8235 15.8580
" />
<path d="M9.8235 15.8580
L9.7026 15.9185
" />
</g></g>
<g style="fill:none; 
stroke:#A90000; stroke-width:0.1524; stroke-opacity:1; 
stroke-linecap:round; stroke-linejoin:round;">
<text x="4.8611" y="15.8905"
textLength="4.1341" font-size="1.6933" lengthAdjust="spacingAndGlyphs"
text-anchor="middle" opacity="0" stroke-opacity="0">MP1</text>
<g class="stroked-text"><desc>MP1</desc>
<path d="M3.1980 15.7270
L3.1980 14.4570
" />
<path d="M3.1980 14.4570
L3.6214 15.3642
" />
<path d="M3.6214 15.3642
L4.0447 14.4570
" />
<path d="M4.0447 14.4570
L4.0447 15.7270
" />
<path d="M4.6494 15.7270
L4.6494 14.4570
" />
<path d="M4.6494 14.4570
L5.1332 14.4570
" />
<path d="M5.1332 14.4570
L5.2542 14.5175
" />
<path d="M5.2542 14.5175
L5.3147 14.5780
" />
<path d="M5.3147 14.5780
L5.3751 14.6989
" />
<path d="M5.3751 14.6989
L5.3751 14.8804
" />
<path d="M5.3751 14.8804
L5.3147 15.0013
" />
<path d="M5.3147 15.0013
L5.2542 15.0618
" />
<path d="M5.2542 15.0618
L5.1332 15.1223
" />
<path d="M5.1332 15.1223
L4.6494 15.1223
" />
<path d="M6.5847 15.7270
L5.8590 15.7270
" />
<path d="M6.2218 15.7270
L6.2218 14.4570
" />
<path d="M6.2218 14.4570
L6.1009 14.6385
" />
<path d="M6.1009 14.6385
L5.9799 14.7594
" />
<path d="M5.9799 14.7594
L5.8590 14.8199
" />
</g></g>
<g style="fill:none; 
stroke:#840000; stroke-width:0.1524; stroke-opacity:1; 
stroke-linecap:round; stroke-linejoin:round;">
<path d="M6.1311 13.7061
L3.5911 13.7061
" />
</g>
<g style="fill:none; 
stroke:#006464; stroke-width:0.1524; stroke-opacity:1; 
stroke-linecap:round; stroke-linejoin:round;">
<text x="6.6391" y="14.3411"
textLength="4.1341" font-size="1.6933" lengthAdjust="spacingAndGlyphs"
text-anchor="start" opacity="0" stroke-opacity="0">MP2</text>
<g class="stroked-text"><desc>MP2</desc>
<path d="M7.0416 14.2856
L7.0416 13.0156
" />
<path d="M7.0416 13.0156
L7.4650 13.9228
" />
<path d="M7.4650 13.9228
L7.8883 13.0156
" />
<path d="M7.8883 13.0156
L7.8883 14.2856
" />
<path d="M8.4930 14.2856
L8.4930 13.0156
" />
<path d="M8.4930 13.0156
L8.9768 13.0156
" />
<path d="M8.9768 13.0156
L9.0978 13.0761
" />
<path d="M9.0978 13.0761
L9.1583 13.1366
" />
<path d="M9.1583 13.1366
L9.2187 13.2575
" />
<path d="M9.2187 13.2575
L9.2187 13.4390
" />
<path d="M9.2187 13.4390
L9.1583 13.5599
" />
<path d="M9.1583 13.5599
L9.0978 13.6204
" />
<path d="M9.0978 13.6204
L8.9768 13.6809
" />
<path d="M8.9768 13.6809
L8.4930 13.6809
" />
<path d="M9.7026 13.1366
L9.7630 13.0761
" />
<path d="M9.7630 13.0761
L9.8840 13.0156
" />
<path d="M9.8840 13.0156
L10.1864 13.0156
" />
<path d="M10.1864 13.0156
L10.3073 13.0761
" />
<path d="M10.3073 13.0761
L10.3678 13.1366
" />
<path d="M10.3678 13.1366
L10.4283 13.2575
" />
<path d="M10.4283 13.2575
L10.4283 13.3785
" />
<path d="M10.4283 13.3785
L10.3678 13.5599
" />
<path d="M10.3678 13.5599
L9.6421 14.2856
" />
<path d="M9.6421 14.2856
L10.4283 14.2856
" />
</g></g>
<g style="fill:none; 
stroke:#A90000; stroke-width:0.1524; stroke-opacity:1; 
stroke-linecap:round; stroke-linejoin:round;">
<text x="4.8611" y="13.3505"
textLength="4.1341" font-size="1.6933" lengthAdjust="spacingAndGlyphs"
text-anchor="middle" opacity="0" stroke-opacity="0">MP2</text>
<g class="stroked-text"><desc>MP2</desc>
<path d="M3.1980 13.1870
L3.1980 11.9170
" />
<path d="M3.1980 11.9170
L3.6214 12.8242
" />
<path d="M3.6214 12.8242
L4.0447 11.9170
" />
<path d="M4.0447 11.9170
L4.0447 13.1870
" />
<path d="M4.6494 13.1870
L4.6494 11.9170
" />
<path d="M4.6494 11.9170
L5.1332 11.9170
" />
<path d="M5.1332 11.9170
L5.2542 11.9775
" />
<path d="M5.2542 11.9775
L5.3147 12.0380
" />
<path d="M5.3147 12.0380
L5.3751 12.1589
" />
<path d="M5.3751 12.1589
L5.3751 12.3404
" />
<path d="M5.3751 12.3404
L5.3147 12.4613
" />
<path d="M5.3147 12.4613
L5.2542 12.5218
" />
<path d="M5.2542 12.5218
L5.1332 12.5823
" />
<path d="M5.1332 12.5823
L4.6494 12.5823
" />
<path d="M5.8590 12.0380
L5.9194 11.9775
" />
<path d="M5.9194 11.9775
L6.0404 11.9170
" />
<path d="M6.0404 11.9170
L6.3428 11.9170
" />
<path d="M6.3428 11.9170
L6.4637 11.9775
" />
<path d="M6.4637 11.9775
L6.5242 12.0380
" />
<path d="M6.5242 12.0380
L6.5847 12.1589
" />
<path d="M6.5847 12.1589
L6.5847 12.2799
" />
<path d="M6.5847 12.2799
L6.5242 12.4613
" />
<path d="M6.5242 12.4613
L5.7985 13.1870
" />
<path d="M5.7985 13.1870
L6.5847 13.1870
" />
</g></g>
<g style="fill:none; 
stroke:#006464; stroke-width:0.1524; stroke-opacity:1; 
stroke-linecap:round; stroke-linejoin:round;">
<text x="17.5611" y="7.9911"
textLength="2.2594" font-size="1.6933" lengthAdjust="spacingAndGlyphs"
text-anchor="middle" opacity="0" stroke-opacity="0">J?</text>
<g class="stroked-text"><desc>J?</desc>
<path d="M17.1982 6.6656
L17.1982 7.5728
" />
<path d="M17.1982 7.5728
L17.1377 7.7542
" />
<path d="M17.1377 7.7542
L17.0168 7.8752
" />
<path d="M17.0168 7.8752
L16.8353 7.9356
" />
<path d="M16.8353 7.9356
L16.7144 7.9356
" />
<path d="M17.9844 7.8147
L18.0448 7.8752
" />
<path d="M18.0448 7.8752
L17.9844 7.9356
" />
<path d="M17.9844 7.9356
L17.9239 7.8752
" />
<path d="M17.9239 7.8752
L17.9844 7.8147
" />
<path d="M17.9844 7.8147
L17.9844 7.9356
" />
<path d="M17.7425 6.7261
L17.8634 6.6656
" />
<path d="M17.8634 6.6656
L18.1658 6.6656
" />
<path d="M18.1658 6.6656
L18.2867 6.7261
" />
<path d="M18.2867 6.7261
L18.3472 6.8471
" />
<path d="M18.3472 6.8471
L18.3472 6.9680
" />
<path d="M18.3472 6.9680
L18.2867 7.0890
" />
<path d="M18.2867 7.0890
L18.2263 7.1494
" />
<path d="M18.2263 7.1494
L18.1053 7.2099
" />
<path d="M18.1053 7.2099
L18.0448 7.2704
" />
<path d="M18.0448 7.2704
L17.9844 7.3913
" />
<path d="M17.9844 7.3913
L17.9844 7.4518
" />
</g><text x="17.5611" y="10.5311"
textLength="12.6611" font-size="1.6933" lengthAdjust="spacingAndGlyphs"
text-anchor="middle" opacity="0" stroke-opacity="0">54548-2272</text>
<g class="stroked-text"><desc>54548-2272</desc>
<path d="M12.2393 9.2056
L11.6345 9.2056
" />
<path d="M11.6345 9.2056
L11.5741 9.8104
" />
<path d="M11.5741 9.8104
L11.6345 9.7499
" />
<path d="M11.6345 9.7499
L11.7555 9.6894
" />
<path d="M11.7555 9.6894
L12.0579 9.6894
" />
<path d="M12.0579 9.6894
L12.1788 9.7499
" />
<path d="M12.1788 9.7499
L12.2393 9.8104
" />
<path d="M12.2393 9.8104
L12.2998 9.9313
" />
<path d="M12.2998 9.9313
L12.2998 10.2337
" />
<path d="M12.2998 10.2337
L12.2393 10.3547
" />
<path d="M12.2393 10.3547
L12.1788 10.4152
" />
<path d="M12.1788 10.4152
L12.0579 10.4756
" />
<path d="M12.0579 10.4756
L11.7555 10.4756
" />
<path d="M11.7555 10.4756
L11.6345 10.4152
" />
<path d="M11.6345 10.4152
L11.5741 10.3547
" />
<path d="M13.3883 9.6290
L13.3883 10.4756
" />
<path d="M13.0859 9.1452
L12.7836 10.0523
" />
<path d="M12.7836 10.0523
L13.5697 10.0523
" />
<path d="M14.6583 9.2056
L14.0535 9.2056
" />
<path d="M14.0535 9.2056
L13.9931 9.8104
" />
<path d="M13.9931 9.8104
L14.0535 9.7499
" />
<path d="M14.0535 9.7499
L14.1745 9.6894
" />
<path d="M14.1745 9.6894
L14.4769 9.6894
" />
<path d="M14.4769 9.6894
L14.5978 9.7499
" />
<path d="M14.5978 9.7499
L14.6583 9.8104
" />
<path d="M14.6583 9.8104
L14.7188 9.9313
" />
<path d="M14.7188 9.9313
L14.7188 10.2337
" />
<path d="M14.7188 10.2337
L14.6583 10.3547
" />
<path d="M14.6583 10.3547
L14.5978 10.4152
" />
<path d="M14.5978 10.4152
L14.4769 10.4756
" />
<path d="M14.4769 10.4756
L14.1745 10.4756
" />
<path d="M14.1745 10.4756
L14.0535 10.4152
" />
<path d="M14.0535 10.4152
L13.9931 10.3547
" />
<path d="M15.8073 9.6290
L15.8073 10.4756
" />
<path d="M15.5049 9.1452
L15.2026 10.0523
" />
<path d="M15.2026 10.0523
L15.9887 10.0523
" />
<path d="M16.6540 9.7499
L16.5330 9.6894
" />
<path d="M16.5330 9.6894
L16.4725 9.6290
" />
<path d="M16.4725 9.6290
L16.4121 9.5080
" />
<path d="M16.4121 9.5080
L16.4121 9.4475
" />
<path d="M16.4121 9.4475
L16.4725 9.3266
" />
<path d="M16.4725 9.3266
L16.5330 9.2661
" />
<path d="M16.5330 9.2661
L16.6540 9.2056
" />
<path d="M16.6540 9.2056
L16.8959 9.2056
" />
<path d="M16.8959 9.2056
L17.0168 9.2661
" />
<path d="M17.0168 9.2661
L17.0773 9.3266
" />
<path d="M17.0773 9.3266
L17.1378 9.4475
" />
<path d="M17.1378 9.4475
L17.1378 9.5080
" />
<path d="M17.1378 9.5080
L17.0773 9.6290
" />
<path d="M17.0773 9.6290
L17.0168 9.6894
" />
<path d="M17.0168 9.6894
L16.8959 9.7499
" />
<path d="M16.8959 9.7499
L16.6540 9.7499
" />
<path d="M16.6540 9.7499
L16.5330 9.8104
" />
<path d="M16.5330 9.8104
L16.4725 9.8709
" />
<path d="M16.4725 9.8709
L16.4121 9.9918
" />
<path d="M16.4121 9.9918
L16.4121 10.2337
" />
<path d="M16.4121 10.2337
L16.4725 10.3547
" />
<path d="M16.4725 10.3547
L16.5330 10.4152
" />
<path d="M16.5330 10.4152
L16.6540 10.4756
" />
<path d="M16.6540 10.4756
L16.8959 10.4756
" />
<path d="M16.8959 10.4756
L17.0168 10.4152
" />
<path d="M17.0168 10.4152
L17.0773 10.3547
" />
<path d="M17.0773 10.3547
L17.1378 10.2337
" />
<path d="M17.1378 10.2337
L17.1378 9.9918
" />
<path d="M17.1378 9.9918
L17.0773 9.8709
" />
<path d="M17.0773 9.8709
L17.0168 9.8104
" />
<path d="M17.0168 9.8104
L16.8959 9.7499
" />
<path d="M17.6820 9.9918
L18.6497 9.9918
" />
<path d="M19.1940 9.3266
L19.2544 9.2661
" />
<path d="M19.2544 9.2661
L19.3754 9.2056
" />
<path d="M19.3754 9.2056
L19.6778 9.2056
" />
<path d="M19.6778 9.2056
L19.7987 9.2661
" />
<path d="M19.7987 9.2661
L19.8592 9.3266
" />
<path d="M19.8592 9.3266
L19.9197 9.4475
" />
<path d="M19.9197 9.4475
L19.9197 9.5685
" />
<path d="M19.9197 9.5685
L19.8592 9.7499
" />
<path d="M19.8592 9.7499
L19.1335 10.4756
" />
<path d="M19.1335 10.4756
L19.9197 10.4756
" />
<path d="M20.4035 9.3266
L20.4639 9.2661
" />
<path d="M20.4639 9.2661
L20.5849 9.2056
" />
<path d="M20.5849 9.2056
L20.8873 9.2056
" />
<path d="M20.8873 9.2056
L21.0082 9.2661
" />
<path d="M21.0082 9.2661
L21.0687 9.3266
" />
<path d="M21.0687 9.3266
L21.1292 9.4475
" />
<path d="M21.1292 9.4475
L21.1292 9.5685
" />
<path d="M21.1292 9.5685
L21.0687 9.7499
" />
<path d="M21.0687 9.7499
L20.3430 10.4756
" />
<path d="M20.3430 10.4756
L21.1292 10.4756
" />
<path d="M21.5525 9.2056
L22.3991 9.2056
" />
<path d="M22.3991 9.2056
L21.8549 10.4756
" />
<path d="M22.8225 9.3266
L22.8829 9.2661
" />
<path d="M22.8829 9.2661
L23.0039 9.2056
" />
<path d="M23.0039 9.2056
L23.3063 9.2056
" />
<path d="M23.3063 9.2056
L23.4272 9.2661
" />
<path d="M23.4272 9.2661
L23.4877 9.3266
" />
<path d="M23.4877 9.3266
L23.5482 9.4475
" />
<path d="M23.5482 9.4475
L23.5482 9.5685
" />
<path d="M23.5482 9.5685
L23.4877 9.7499
" />
<path d="M23.4877 9.7499
L22.7620 10.4756
" />
<path d="M22.7620 10.4756
L23.5482 10.4756
" />
</g></g> 
</svg>
